<?xml version="1.0" encoding="UTF-8" standalone="no"?>
<!DOCTYPE svg PUBLIC "-//W3C//DTD SVG 1.1//EN"
 "http://www.w3.org/Graphics/SVG/1.1/DTD/svg11.dtd">
<!-- Generated by graphviz version 2.36.0 (20140111.2315)
 -->
<!-- Title: commandParser.PropertiesFileReader.getBundle Pages: 1 -->
<svg width="354pt" height="48pt"
 viewBox="0.00 0.00 354.00 48.00" xmlns="http://www.w3.org/2000/svg" xmlns:xlink="http://www.w3.org/1999/xlink">
<g id="graph0" class="graph" transform="scale(1 1) rotate(0) translate(4 44)">
<title>commandParser.PropertiesFileReader.getBundle</title>
<polygon fill="white" stroke="none" points="-4,4 -4,-44 350,-44 350,4 -4,4"/>
<!-- Node1 -->
<g id="node1" class="node"><title>Node1</title>
<polygon fill="#bfbfbf" stroke="black" points="0,-5 0,-35 146,-35 146,-5 0,-5"/>
<text text-anchor="start" x="8" y="-23" font-family="Helvetica,sans-Serif" font-size="10.00">commandParser.Properties</text>
<text text-anchor="middle" x="73" y="-12" font-family="Helvetica,sans-Serif" font-size="10.00">FileReader.getBundle</text>
</g>
<!-- Node2 -->
<g id="node2" class="node"><title>Node2</title>
<g id="a_node2"><a xlink:href="../../de/df5/classcommand_parser_1_1_properties_file_reader.html#a808fd858ef40e00b7e327f4dafe374ed" target="_top" xlink:title="commandParser.Properties\lFileReader.getFileNameWithout\lExtension">
<polygon fill="white" stroke="black" points="182.5,0.5 182.5,-40.5 345.5,-40.5 345.5,0.5 182.5,0.5"/>
<text text-anchor="start" x="190.5" y="-28.5" font-family="Helvetica,sans-Serif" font-size="10.00">commandParser.Properties</text>
<text text-anchor="start" x="190.5" y="-17.5" font-family="Helvetica,sans-Serif" font-size="10.00">FileReader.getFileNameWithout</text>
<text text-anchor="middle" x="264" y="-6.5" font-family="Helvetica,sans-Serif" font-size="10.00">Extension</text>
</a>
</g>
</g>
<!-- Node1&#45;&gt;Node2 -->
<g id="edge1" class="edge"><title>Node1&#45;&gt;Node2</title>
<path fill="none" stroke="midnightblue" d="M146.262,-20C154.726,-20 163.442,-20 172.117,-20"/>
<polygon fill="midnightblue" stroke="midnightblue" points="172.265,-23.5001 182.265,-20 172.265,-16.5001 172.265,-23.5001"/>
</g>
</g>
</svg>
