<?xml version="1.0" encoding="UTF-8" standalone="no"?>
<!DOCTYPE svg PUBLIC "-//W3C//DTD SVG 1.1//EN"
 "http://www.w3.org/Graphics/SVG/1.1/DTD/svg11.dtd">
<!-- Generated by graphviz version 2.36.0 (20140111.2315)
 -->
<!-- Title: commandParser.PropertiesFileReader.getBundle Pages: 1 -->
<svg width="806pt" height="273pt"
 viewBox="0.00 0.00 806.00 273.00" xmlns="http://www.w3.org/2000/svg" xmlns:xlink="http://www.w3.org/1999/xlink">
<g id="graph0" class="graph" transform="scale(1 1) rotate(0) translate(4 269)">
<title>commandParser.PropertiesFileReader.getBundle</title>
<polygon fill="white" stroke="none" points="-4,4 -4,-269 802,-269 802,4 -4,4"/>
<!-- Node1 -->
<g id="node1" class="node"><title>Node1</title>
<polygon fill="#bfbfbf" stroke="black" points="0,-161 0,-191 146,-191 146,-161 0,-161"/>
<text text-anchor="start" x="8" y="-179" font-family="Helvetica,sans-Serif" font-size="10.00">commandParser.Properties</text>
<text text-anchor="middle" x="73" y="-168" font-family="Helvetica,sans-Serif" font-size="10.00">FileReader.getBundle</text>
</g>
<!-- Node2 -->
<g id="node2" class="node"><title>Node2</title>
<g id="a_node2"><a xlink:href="../../d8/d54/classcommand_parser_1_1_language_file_parser.html#a7d5ae3b56b32e0641c85ea6b04edf379" target="_top" xlink:title="commandParser.LanguageFile\lParser.extractFromLanguageFile">
<polygon fill="white" stroke="black" points="194.5,-186 194.5,-216 363.5,-216 363.5,-186 194.5,-186"/>
<text text-anchor="start" x="202.5" y="-204" font-family="Helvetica,sans-Serif" font-size="10.00">commandParser.LanguageFile</text>
<text text-anchor="middle" x="279" y="-193" font-family="Helvetica,sans-Serif" font-size="10.00">Parser.extractFromLanguageFile</text>
</a>
</g>
</g>
<!-- Node1&#45;&gt;Node2 -->
<g id="edge1" class="edge"><title>Node1&#45;&gt;Node2</title>
<path fill="none" stroke="midnightblue" d="M156.195,-186.073C168.776,-187.615 181.775,-189.208 194.386,-190.753"/>
<polygon fill="midnightblue" stroke="midnightblue" points="156.561,-182.592 146.21,-184.849 155.71,-189.54 156.561,-182.592"/>
</g>
<!-- Node5 -->
<g id="node5" class="node"><title>Node5</title>
<g id="a_node5"><a xlink:href="../../d2/d91/classcommand_parser_1_1_command_to_class_translator.html#a642764532409be173cd390e976033eae" target="_top" xlink:title="commandParser.CommandToClass\lTranslator.translateCommandToClass">
<polygon fill="white" stroke="black" points="182,-117 182,-147 376,-147 376,-117 182,-117"/>
<text text-anchor="start" x="190" y="-135" font-family="Helvetica,sans-Serif" font-size="10.00">commandParser.CommandToClass</text>
<text text-anchor="middle" x="279" y="-124" font-family="Helvetica,sans-Serif" font-size="10.00">Translator.translateCommandToClass</text>
</a>
</g>
</g>
<!-- Node1&#45;&gt;Node5 -->
<g id="edge4" class="edge"><title>Node1&#45;&gt;Node5</title>
<path fill="none" stroke="midnightblue" d="M153.56,-158.84C171.637,-154.941 190.704,-150.829 208.333,-147.026"/>
<polygon fill="midnightblue" stroke="midnightblue" points="152.672,-155.451 143.635,-160.981 154.148,-162.294 152.672,-155.451"/>
</g>
<!-- Node3 -->
<g id="node3" class="node"><title>Node3</title>
<g id="a_node3"><a xlink:href="../../d8/d54/classcommand_parser_1_1_language_file_parser.html#ae21b9e88b5107237955898fda7e8ff5f" target="_top" xlink:title="commandParser.LanguageFile\lParser.LanguageFileParser">
<polygon fill="white" stroke="black" points="424,-235 424,-265 584,-265 584,-235 424,-235"/>
<text text-anchor="start" x="432" y="-253" font-family="Helvetica,sans-Serif" font-size="10.00">commandParser.LanguageFile</text>
<text text-anchor="middle" x="504" y="-242" font-family="Helvetica,sans-Serif" font-size="10.00">Parser.LanguageFileParser</text>
</a>
</g>
</g>
<!-- Node2&#45;&gt;Node3 -->
<g id="edge2" class="edge"><title>Node2&#45;&gt;Node3</title>
<path fill="none" stroke="midnightblue" d="M358.211,-218.185C383.148,-223.665 410.53,-229.682 434.707,-234.994"/>
<polygon fill="midnightblue" stroke="midnightblue" points="358.941,-214.762 348.423,-216.035 357.439,-221.599 358.941,-214.762"/>
</g>
<!-- Node4 -->
<g id="node4" class="node"><title>Node4</title>
<g id="a_node4"><a xlink:href="../../d9/d00/classcommunicator_1_1_main_controller.html#a0bba9c29f17d2fefc61a1d608c273b27" target="_top" xlink:title="communicator.MainController.load\lLanguage">
<polygon fill="white" stroke="black" points="414,-186 414,-216 594,-216 594,-186 414,-186"/>
<text text-anchor="start" x="422" y="-204" font-family="Helvetica,sans-Serif" font-size="10.00">communicator.MainController.load</text>
<text text-anchor="middle" x="504" y="-193" font-family="Helvetica,sans-Serif" font-size="10.00">Language</text>
</a>
</g>
</g>
<!-- Node2&#45;&gt;Node4 -->
<g id="edge3" class="edge"><title>Node2&#45;&gt;Node4</title>
<path fill="none" stroke="midnightblue" d="M373.705,-201C386.93,-201 400.497,-201 413.637,-201"/>
<polygon fill="midnightblue" stroke="midnightblue" points="373.671,-197.5 363.671,-201 373.671,-204.5 373.671,-197.5"/>
</g>
<!-- Node6 -->
<g id="node6" class="node"><title>Node6</title>
<g id="a_node6"><a xlink:href="../../dd/d30/classtests_1_1_ask_test.html#a8d408863dc53f60d7a73c7dad924325a" target="_top" xlink:title="tests.AskTest.processInput">
<polygon fill="white" stroke="black" points="432,-147.5 432,-166.5 576,-166.5 576,-147.5 432,-147.5"/>
<text text-anchor="middle" x="504" y="-154.5" font-family="Helvetica,sans-Serif" font-size="10.00">tests.AskTest.processInput</text>
</a>
</g>
</g>
<!-- Node5&#45;&gt;Node6 -->
<g id="edge5" class="edge"><title>Node5&#45;&gt;Node6</title>
<path fill="none" stroke="midnightblue" d="M386.274,-143.914C401.667,-145.64 417.194,-147.38 431.676,-149.004"/>
<polygon fill="midnightblue" stroke="midnightblue" points="386.518,-140.42 376.19,-142.784 385.738,-147.376 386.518,-140.42"/>
</g>
<!-- Node8 -->
<g id="node8" class="node"><title>Node8</title>
<g id="a_node8"><a xlink:href="../../d9/d76/classtests_1_1_turtle_commands_test.html#a26b7fee4439a47d622fb58826d281a1f" target="_top" xlink:title="tests.TurtleCommandsTest.process\lInput">
<polygon fill="white" stroke="black" points="412,-98 412,-128 596,-128 596,-98 412,-98"/>
<text text-anchor="start" x="420" y="-116" font-family="Helvetica,sans-Serif" font-size="10.00">tests.TurtleCommandsTest.process</text>
<text text-anchor="middle" x="504" y="-105" font-family="Helvetica,sans-Serif" font-size="10.00">Input</text>
</a>
</g>
</g>
<!-- Node5&#45;&gt;Node8 -->
<g id="edge7" class="edge"><title>Node5&#45;&gt;Node8</title>
<path fill="none" stroke="midnightblue" d="M386.179,-122.953C394.715,-122.226 403.293,-121.495 411.712,-120.778"/>
<polygon fill="midnightblue" stroke="midnightblue" points="385.857,-119.468 376.19,-123.804 386.451,-126.443 385.857,-119.468"/>
</g>
<!-- Node10 -->
<g id="node10" class="node"><title>Node10</title>
<g id="a_node10"><a xlink:href="../../d3/d0c/classtests_1_1_ask_with_test.html#a9d43a79de385803c300e7b2cf0c13b00" target="_top" xlink:title="tests.AskWithTest.process\lInput">
<polygon fill="white" stroke="black" points="434,-49 434,-79 574,-79 574,-49 434,-49"/>
<text text-anchor="start" x="442" y="-67" font-family="Helvetica,sans-Serif" font-size="10.00">tests.AskWithTest.process</text>
<text text-anchor="middle" x="504" y="-56" font-family="Helvetica,sans-Serif" font-size="10.00">Input</text>
</a>
</g>
</g>
<!-- Node5&#45;&gt;Node10 -->
<g id="edge9" class="edge"><title>Node5&#45;&gt;Node10</title>
<path fill="none" stroke="midnightblue" d="M332.542,-113.63C356.64,-105.425 385.652,-95.857 412,-88 422.177,-84.9651 433.053,-81.9241 443.617,-79.0758"/>
<polygon fill="midnightblue" stroke="midnightblue" points="331.209,-110.386 322.88,-116.935 333.475,-117.009 331.209,-110.386"/>
</g>
<!-- Node7 -->
<g id="node7" class="node"><title>Node7</title>
<g id="a_node7"><a xlink:href="../../dd/d30/classtests_1_1_ask_test.html#a35ae726a31ba673fc7d80bcbc4a69e24" target="_top" xlink:title="tests.AskTest.testThatAsk\lCreatesTurtles">
<polygon fill="white" stroke="black" points="645,-147 645,-177 785,-177 785,-147 645,-147"/>
<text text-anchor="start" x="653" y="-165" font-family="Helvetica,sans-Serif" font-size="10.00">tests.AskTest.testThatAsk</text>
<text text-anchor="middle" x="715" y="-154" font-family="Helvetica,sans-Serif" font-size="10.00">CreatesTurtles</text>
</a>
</g>
</g>
<!-- Node6&#45;&gt;Node7 -->
<g id="edge6" class="edge"><title>Node6&#45;&gt;Node7</title>
<path fill="none" stroke="midnightblue" d="M586.091,-158.94C605.52,-159.405 626.088,-159.897 644.916,-160.347"/>
<polygon fill="midnightblue" stroke="midnightblue" points="586.13,-155.44 576.049,-158.7 585.963,-162.438 586.13,-155.44"/>
</g>
<!-- Node9 -->
<g id="node9" class="node"><title>Node9</title>
<g id="a_node9"><a xlink:href="../../d9/d76/classtests_1_1_turtle_commands_test.html#a7f4c719ee0d2a11ff4b04f38b5cda951" target="_top" xlink:title="tests.TurtleCommandsTest.test\lToParsing">
<polygon fill="white" stroke="black" points="632.5,-98 632.5,-128 797.5,-128 797.5,-98 632.5,-98"/>
<text text-anchor="start" x="640.5" y="-116" font-family="Helvetica,sans-Serif" font-size="10.00">tests.TurtleCommandsTest.test</text>
<text text-anchor="middle" x="715" y="-105" font-family="Helvetica,sans-Serif" font-size="10.00">ToParsing</text>
</a>
</g>
</g>
<!-- Node8&#45;&gt;Node9 -->
<g id="edge8" class="edge"><title>Node8&#45;&gt;Node9</title>
<path fill="none" stroke="midnightblue" d="M606.315,-113C615.073,-113 623.861,-113 632.433,-113"/>
<polygon fill="midnightblue" stroke="midnightblue" points="606.062,-109.5 596.062,-113 606.062,-116.5 606.062,-109.5"/>
</g>
<!-- Node11 -->
<g id="node11" class="node"><title>Node11</title>
<g id="a_node11"><a xlink:href="../../d3/d0c/classtests_1_1_ask_with_test.html#a54f2ed263239909256bb93e91afc3ecc" target="_top" xlink:title="tests.AskWithTest.testAlways\lTrueAskWith">
<polygon fill="white" stroke="black" points="638,-49 638,-79 792,-79 792,-49 638,-49"/>
<text text-anchor="start" x="646" y="-67" font-family="Helvetica,sans-Serif" font-size="10.00">tests.AskWithTest.testAlways</text>
<text text-anchor="middle" x="715" y="-56" font-family="Helvetica,sans-Serif" font-size="10.00">TrueAskWith</text>
</a>
</g>
</g>
<!-- Node10&#45;&gt;Node11 -->
<g id="edge10" class="edge"><title>Node10&#45;&gt;Node11</title>
<path fill="none" stroke="midnightblue" d="M584.229,-64C601.806,-64 620.398,-64 637.849,-64"/>
<polygon fill="midnightblue" stroke="midnightblue" points="584.014,-60.5001 574.014,-64 584.014,-67.5001 584.014,-60.5001"/>
</g>
<!-- Node12 -->
<g id="node12" class="node"><title>Node12</title>
<g id="a_node12"><a xlink:href="../../d3/d0c/classtests_1_1_ask_with_test.html#a49a8519276b23ed93a3f90d7c2058fc5" target="_top" xlink:title="tests.AskWithTest.testXCor\lAskWith">
<polygon fill="white" stroke="black" points="643.5,-0 643.5,-30 786.5,-30 786.5,-0 643.5,-0"/>
<text text-anchor="start" x="651.5" y="-18" font-family="Helvetica,sans-Serif" font-size="10.00">tests.AskWithTest.testXCor</text>
<text text-anchor="middle" x="715" y="-7" font-family="Helvetica,sans-Serif" font-size="10.00">AskWith</text>
</a>
</g>
</g>
<!-- Node10&#45;&gt;Node12 -->
<g id="edge11" class="edge"><title>Node10&#45;&gt;Node12</title>
<path fill="none" stroke="midnightblue" d="M578.922,-46.6691C602.126,-41.2288 627.536,-35.2715 649.994,-30.0062"/>
<polygon fill="midnightblue" stroke="midnightblue" points="578.064,-43.2751 569.127,-48.9654 579.662,-50.0903 578.064,-43.2751"/>
</g>
</g>
</svg>
