<?xml version="1.0" encoding="UTF-8" standalone="no"?>
<!DOCTYPE svg PUBLIC "-//W3C//DTD SVG 1.1//EN"
 "http://www.w3.org/Graphics/SVG/1.1/DTD/svg11.dtd">
<!-- Generated by graphviz version 2.36.0 (20140111.2315)
 -->
<!-- Title: commandParser.PropertiesFileReader.getFileNameWithoutExtension Pages: 1 -->
<!--zoomable 273 -->
<svg id="main" version="1.1" xmlns="http://www.w3.org/2000/svg" xmlns:xlink="http://www.w3.org/1999/xlink" xml:space="preserve" onload="init(evt)">
<style type="text/css"><![CDATA[
.edge:hover path { stroke: red; }
.edge:hover polygon { stroke: red; fill: red; }
]]></style>
<script type="text/javascript"><![CDATA[
var edges = document.getElementsByTagName('g');
if (edges && edges.length) {
  for (var i=0;i<edges.length;i++) {
    if (edges[i].id.substr(0,4)=='edge') {
      edges[i].setAttribute('class','edge');
    }
  }
}
]]></script>
        <defs>
                <circle id="rim" cx="0" cy="0" r="7"/>
                <circle id="rim2" cx="0" cy="0" r="3.5"/>
                <g id="zoomPlus">
                        <use xlink:href="#rim" fill="#404040">
                                <set attributeName="fill" to="#808080" begin="zoomplus.mouseover" end="zoomplus.mouseout"/>
                        </use>
                        <path d="M-4,0h8M0,-4v8" fill="none" stroke="white" stroke-width="1.5" pointer-events="none"/>
                </g>
                <g id="zoomMin">
                        <use xlink:href="#rim" fill="#404040">
                                <set attributeName="fill" to="#808080" begin="zoomminus.mouseover" end="zoomminus.mouseout"/>
                        </use>
                        <path d="M-4,0h8" fill="none" stroke="white" stroke-width="1.5" pointer-events="none"/>
                </g>
                <g id="dirArrow">
                        <path fill="none" stroke="white" stroke-width="1.5" d="M0,-3.0v7 M-2.5,-0.5L0,-3.0L2.5,-0.5"/>
                </g>
               <g id="resetDef">
                       <use xlink:href="#rim2" fill="#404040">
                               <set attributeName="fill" to="#808080" begin="reset.mouseover" end="reset.mouseout"/>
                       </use>
               </g>
        </defs>

<script type="text/javascript">
var viewWidth = 1006;
var viewHeight = 273;
var sectionId = 'dynsection-3';
</script>
<script xlink:href="../../svgpan.js"/>
<svg id="graph" class="graph">
<g id="viewport">
<title>commandParser.PropertiesFileReader.getFileNameWithoutExtension</title>
<polygon fill="white" stroke="none" points="-4,4 -4,-269 1002,-269 1002,4 -4,4"/>
<!-- Node1 -->
<g id="node1" class="node"><title>Node1</title>
<polygon fill="#bfbfbf" stroke="black" points="0.5,-155.5 0.5,-196.5 163.5,-196.5 163.5,-155.5 0.5,-155.5"/>
<text text-anchor="start" x="8.5" y="-184.5" font-family="Helvetica,sans-Serif" font-size="10.00">commandParser.Properties</text>
<text text-anchor="start" x="8.5" y="-173.5" font-family="Helvetica,sans-Serif" font-size="10.00">FileReader.getFileNameWithout</text>
<text text-anchor="middle" x="82" y="-162.5" font-family="Helvetica,sans-Serif" font-size="10.00">Extension</text>
</g>
<!-- Node2 -->
<g id="node2" class="node"><title>Node2</title>
<g id="a_node2"><a xlink:href="../../de/df5/classcommand_parser_1_1_properties_file_reader.html#a15d7cd93d303f1f3588d3327465b5f12" target="_top" xlink:title="commandParser.Properties\lFileReader.getBundle">
<polygon fill="white" stroke="black" points="200,-161 200,-191 346,-191 346,-161 200,-161"/>
<text text-anchor="start" x="208" y="-179" font-family="Helvetica,sans-Serif" font-size="10.00">commandParser.Properties</text>
<text text-anchor="middle" x="273" y="-168" font-family="Helvetica,sans-Serif" font-size="10.00">FileReader.getBundle</text>
</a>
</g>
</g>
<!-- Node1&#45;&gt;Node2 -->
<g id="edge1" class="edge"><title>Node1&#45;&gt;Node2</title>
<path fill="none" stroke="midnightblue" d="M173.914,-176C182.646,-176 191.418,-176 199.932,-176"/>
<polygon fill="midnightblue" stroke="midnightblue" points="173.701,-172.5 163.701,-176 173.701,-179.5 173.701,-172.5"/>
</g>
<!-- Node3 -->
<g id="node3" class="node"><title>Node3</title>
<g id="a_node3"><a xlink:href="../../d8/d54/classcommand_parser_1_1_language_file_parser.html#a7d5ae3b56b32e0641c85ea6b04edf379" target="_top" xlink:title="commandParser.LanguageFile\lParser.extractFromLanguageFile">
<polygon fill="white" stroke="black" points="394.5,-186 394.5,-216 563.5,-216 563.5,-186 394.5,-186"/>
<text text-anchor="start" x="402.5" y="-204" font-family="Helvetica,sans-Serif" font-size="10.00">commandParser.LanguageFile</text>
<text text-anchor="middle" x="479" y="-193" font-family="Helvetica,sans-Serif" font-size="10.00">Parser.extractFromLanguageFile</text>
</a>
</g>
</g>
<!-- Node2&#45;&gt;Node3 -->
<g id="edge2" class="edge"><title>Node2&#45;&gt;Node3</title>
<path fill="none" stroke="midnightblue" d="M356.195,-186.073C368.776,-187.615 381.775,-189.208 394.386,-190.753"/>
<polygon fill="midnightblue" stroke="midnightblue" points="356.561,-182.592 346.21,-184.849 355.71,-189.54 356.561,-182.592"/>
</g>
<!-- Node6 -->
<g id="node6" class="node"><title>Node6</title>
<g id="a_node6"><a xlink:href="../../d2/d91/classcommand_parser_1_1_command_to_class_translator.html#a642764532409be173cd390e976033eae" target="_top" xlink:title="commandParser.CommandToClass\lTranslator.translateCommandToClass">
<polygon fill="white" stroke="black" points="382,-117 382,-147 576,-147 576,-117 382,-117"/>
<text text-anchor="start" x="390" y="-135" font-family="Helvetica,sans-Serif" font-size="10.00">commandParser.CommandToClass</text>
<text text-anchor="middle" x="479" y="-124" font-family="Helvetica,sans-Serif" font-size="10.00">Translator.translateCommandToClass</text>
</a>
</g>
</g>
<!-- Node2&#45;&gt;Node6 -->
<g id="edge5" class="edge"><title>Node2&#45;&gt;Node6</title>
<path fill="none" stroke="midnightblue" d="M353.56,-158.84C371.637,-154.941 390.704,-150.829 408.333,-147.026"/>
<polygon fill="midnightblue" stroke="midnightblue" points="352.672,-155.451 343.635,-160.981 354.148,-162.294 352.672,-155.451"/>
</g>
<!-- Node4 -->
<g id="node4" class="node"><title>Node4</title>
<g id="a_node4"><a xlink:href="../../d8/d54/classcommand_parser_1_1_language_file_parser.html#ae21b9e88b5107237955898fda7e8ff5f" target="_top" xlink:title="commandParser.LanguageFile\lParser.LanguageFileParser">
<polygon fill="white" stroke="black" points="624,-235 624,-265 784,-265 784,-235 624,-235"/>
<text text-anchor="start" x="632" y="-253" font-family="Helvetica,sans-Serif" font-size="10.00">commandParser.LanguageFile</text>
<text text-anchor="middle" x="704" y="-242" font-family="Helvetica,sans-Serif" font-size="10.00">Parser.LanguageFileParser</text>
</a>
</g>
</g>
<!-- Node3&#45;&gt;Node4 -->
<g id="edge3" class="edge"><title>Node3&#45;&gt;Node4</title>
<path fill="none" stroke="midnightblue" d="M558.211,-218.185C583.148,-223.665 610.53,-229.682 634.707,-234.994"/>
<polygon fill="midnightblue" stroke="midnightblue" points="558.941,-214.762 548.423,-216.035 557.439,-221.599 558.941,-214.762"/>
</g>
<!-- Node5 -->
<g id="node5" class="node"><title>Node5</title>
<g id="a_node5"><a xlink:href="../../d9/d00/classcommunicator_1_1_main_controller.html#a0bba9c29f17d2fefc61a1d608c273b27" target="_top" xlink:title="communicator.MainController.load\lLanguage">
<polygon fill="white" stroke="black" points="614,-186 614,-216 794,-216 794,-186 614,-186"/>
<text text-anchor="start" x="622" y="-204" font-family="Helvetica,sans-Serif" font-size="10.00">communicator.MainController.load</text>
<text text-anchor="middle" x="704" y="-193" font-family="Helvetica,sans-Serif" font-size="10.00">Language</text>
</a>
</g>
</g>
<!-- Node3&#45;&gt;Node5 -->
<g id="edge4" class="edge"><title>Node3&#45;&gt;Node5</title>
<path fill="none" stroke="midnightblue" d="M573.705,-201C586.93,-201 600.497,-201 613.637,-201"/>
<polygon fill="midnightblue" stroke="midnightblue" points="573.671,-197.5 563.671,-201 573.671,-204.5 573.671,-197.5"/>
</g>
<!-- Node7 -->
<g id="node7" class="node"><title>Node7</title>
<g id="a_node7"><a xlink:href="../../dd/d30/classtests_1_1_ask_test.html#a8d408863dc53f60d7a73c7dad924325a" target="_top" xlink:title="tests.AskTest.processInput">
<polygon fill="white" stroke="black" points="632,-147.5 632,-166.5 776,-166.5 776,-147.5 632,-147.5"/>
<text text-anchor="middle" x="704" y="-154.5" font-family="Helvetica,sans-Serif" font-size="10.00">tests.AskTest.processInput</text>
</a>
</g>
</g>
<!-- Node6&#45;&gt;Node7 -->
<g id="edge6" class="edge"><title>Node6&#45;&gt;Node7</title>
<path fill="none" stroke="midnightblue" d="M586.274,-143.914C601.667,-145.64 617.194,-147.38 631.676,-149.004"/>
<polygon fill="midnightblue" stroke="midnightblue" points="586.518,-140.42 576.19,-142.784 585.738,-147.376 586.518,-140.42"/>
</g>
<!-- Node9 -->
<g id="node9" class="node"><title>Node9</title>
<g id="a_node9"><a xlink:href="../../d9/d76/classtests_1_1_turtle_commands_test.html#a26b7fee4439a47d622fb58826d281a1f" target="_top" xlink:title="tests.TurtleCommandsTest.process\lInput">
<polygon fill="white" stroke="black" points="612,-98 612,-128 796,-128 796,-98 612,-98"/>
<text text-anchor="start" x="620" y="-116" font-family="Helvetica,sans-Serif" font-size="10.00">tests.TurtleCommandsTest.process</text>
<text text-anchor="middle" x="704" y="-105" font-family="Helvetica,sans-Serif" font-size="10.00">Input</text>
</a>
</g>
</g>
<!-- Node6&#45;&gt;Node9 -->
<g id="edge8" class="edge"><title>Node6&#45;&gt;Node9</title>
<path fill="none" stroke="midnightblue" d="M586.179,-122.953C594.715,-122.226 603.293,-121.495 611.712,-120.778"/>
<polygon fill="midnightblue" stroke="midnightblue" points="585.857,-119.468 576.19,-123.804 586.451,-126.443 585.857,-119.468"/>
</g>
<!-- Node11 -->
<g id="node11" class="node"><title>Node11</title>
<g id="a_node11"><a xlink:href="../../d3/d0c/classtests_1_1_ask_with_test.html#a9d43a79de385803c300e7b2cf0c13b00" target="_top" xlink:title="tests.AskWithTest.process\lInput">
<polygon fill="white" stroke="black" points="634,-49 634,-79 774,-79 774,-49 634,-49"/>
<text text-anchor="start" x="642" y="-67" font-family="Helvetica,sans-Serif" font-size="10.00">tests.AskWithTest.process</text>
<text text-anchor="middle" x="704" y="-56" font-family="Helvetica,sans-Serif" font-size="10.00">Input</text>
</a>
</g>
</g>
<!-- Node6&#45;&gt;Node11 -->
<g id="edge10" class="edge"><title>Node6&#45;&gt;Node11</title>
<path fill="none" stroke="midnightblue" d="M532.542,-113.63C556.64,-105.425 585.652,-95.857 612,-88 622.177,-84.9651 633.053,-81.9241 643.617,-79.0758"/>
<polygon fill="midnightblue" stroke="midnightblue" points="531.209,-110.386 522.88,-116.935 533.475,-117.009 531.209,-110.386"/>
</g>
<!-- Node8 -->
<g id="node8" class="node"><title>Node8</title>
<g id="a_node8"><a xlink:href="../../dd/d30/classtests_1_1_ask_test.html#a35ae726a31ba673fc7d80bcbc4a69e24" target="_top" xlink:title="tests.AskTest.testThatAsk\lCreatesTurtles">
<polygon fill="white" stroke="black" points="845,-147 845,-177 985,-177 985,-147 845,-147"/>
<text text-anchor="start" x="853" y="-165" font-family="Helvetica,sans-Serif" font-size="10.00">tests.AskTest.testThatAsk</text>
<text text-anchor="middle" x="915" y="-154" font-family="Helvetica,sans-Serif" font-size="10.00">CreatesTurtles</text>
</a>
</g>
</g>
<!-- Node7&#45;&gt;Node8 -->
<g id="edge7" class="edge"><title>Node7&#45;&gt;Node8</title>
<path fill="none" stroke="midnightblue" d="M786.091,-158.94C805.52,-159.405 826.088,-159.897 844.916,-160.347"/>
<polygon fill="midnightblue" stroke="midnightblue" points="786.13,-155.44 776.049,-158.7 785.963,-162.438 786.13,-155.44"/>
</g>
<!-- Node10 -->
<g id="node10" class="node"><title>Node10</title>
<g id="a_node10"><a xlink:href="../../d9/d76/classtests_1_1_turtle_commands_test.html#a7f4c719ee0d2a11ff4b04f38b5cda951" target="_top" xlink:title="tests.TurtleCommandsTest.test\lToParsing">
<polygon fill="white" stroke="black" points="832.5,-98 832.5,-128 997.5,-128 997.5,-98 832.5,-98"/>
<text text-anchor="start" x="840.5" y="-116" font-family="Helvetica,sans-Serif" font-size="10.00">tests.TurtleCommandsTest.test</text>
<text text-anchor="middle" x="915" y="-105" font-family="Helvetica,sans-Serif" font-size="10.00">ToParsing</text>
</a>
</g>
</g>
<!-- Node9&#45;&gt;Node10 -->
<g id="edge9" class="edge"><title>Node9&#45;&gt;Node10</title>
<path fill="none" stroke="midnightblue" d="M806.315,-113C815.073,-113 823.861,-113 832.433,-113"/>
<polygon fill="midnightblue" stroke="midnightblue" points="806.062,-109.5 796.062,-113 806.062,-116.5 806.062,-109.5"/>
</g>
<!-- Node12 -->
<g id="node12" class="node"><title>Node12</title>
<g id="a_node12"><a xlink:href="../../d3/d0c/classtests_1_1_ask_with_test.html#a54f2ed263239909256bb93e91afc3ecc" target="_top" xlink:title="tests.AskWithTest.testAlways\lTrueAskWith">
<polygon fill="white" stroke="black" points="838,-49 838,-79 992,-79 992,-49 838,-49"/>
<text text-anchor="start" x="846" y="-67" font-family="Helvetica,sans-Serif" font-size="10.00">tests.AskWithTest.testAlways</text>
<text text-anchor="middle" x="915" y="-56" font-family="Helvetica,sans-Serif" font-size="10.00">TrueAskWith</text>
</a>
</g>
</g>
<!-- Node11&#45;&gt;Node12 -->
<g id="edge11" class="edge"><title>Node11&#45;&gt;Node12</title>
<path fill="none" stroke="midnightblue" d="M784.229,-64C801.806,-64 820.398,-64 837.849,-64"/>
<polygon fill="midnightblue" stroke="midnightblue" points="784.014,-60.5001 774.014,-64 784.014,-67.5001 784.014,-60.5001"/>
</g>
<!-- Node13 -->
<g id="node13" class="node"><title>Node13</title>
<g id="a_node13"><a xlink:href="../../d3/d0c/classtests_1_1_ask_with_test.html#a49a8519276b23ed93a3f90d7c2058fc5" target="_top" xlink:title="tests.AskWithTest.testXCor\lAskWith">
<polygon fill="white" stroke="black" points="843.5,-0 843.5,-30 986.5,-30 986.5,-0 843.5,-0"/>
<text text-anchor="start" x="851.5" y="-18" font-family="Helvetica,sans-Serif" font-size="10.00">tests.AskWithTest.testXCor</text>
<text text-anchor="middle" x="915" y="-7" font-family="Helvetica,sans-Serif" font-size="10.00">AskWith</text>
</a>
</g>
</g>
<!-- Node11&#45;&gt;Node13 -->
<g id="edge12" class="edge"><title>Node11&#45;&gt;Node13</title>
<path fill="none" stroke="midnightblue" d="M778.922,-46.6691C802.126,-41.2288 827.536,-35.2715 849.994,-30.0062"/>
<polygon fill="midnightblue" stroke="midnightblue" points="778.064,-43.2751 769.127,-48.9654 779.662,-50.0903 778.064,-43.2751"/>
</g>
</g>
</svg>
        <g id="navigator" transform="translate(0 0)" fill="#404254">
                <rect fill="#f2f5e9" fill-opacity="0.5" stroke="#606060" stroke-width=".5" x="0" y="0" width="60" height="60"/>
                <use id="zoomplus" xlink:href="#zoomPlus" x="17" y="9" onmousedown="handleZoom(evt,'in')"/>
                <use id="zoomminus" xlink:href="#zoomMin" x="42" y="9" onmousedown="handleZoom(evt,'out')"/>
                <use id="reset" xlink:href="#resetDef" x="30" y="36" onmousedown="handleReset()"/>
                <g id="arrowUp" xlink:href="#dirArrow" transform="translate(30 24)" onmousedown="handlePan(0,-1)">
                  <use xlink:href="#rim" fill="#404040">
                        <set attributeName="fill" to="#808080" begin="arrowUp.mouseover" end="arrowUp.mouseout"/>
                  </use>
                  <path fill="none" stroke="white" stroke-width="1.5" d="M0,-3.0v7 M-2.5,-0.5L0,-3.0L2.5,-0.5"/>
                </g>
                <g id="arrowRight" xlink:href="#dirArrow" transform="rotate(90) translate(36 -43)" onmousedown="handlePan(1,0)">
                  <use xlink:href="#rim" fill="#404040">
                        <set attributeName="fill" to="#808080" begin="arrowRight.mouseover" end="arrowRight.mouseout"/>
                  </use>
                  <path fill="none" stroke="white" stroke-width="1.5" d="M0,-3.0v7 M-2.5,-0.5L0,-3.0L2.5,-0.5"/>
                </g>
                <g id="arrowDown" xlink:href="#dirArrow" transform="rotate(180) translate(-30 -48)" onmousedown="handlePan(0,1)">
                  <use xlink:href="#rim" fill="#404040">
                        <set attributeName="fill" to="#808080" begin="arrowDown.mouseover" end="arrowDown.mouseout"/>
                  </use>
                  <path fill="none" stroke="white" stroke-width="1.5" d="M0,-3.0v7 M-2.5,-0.5L0,-3.0L2.5,-0.5"/>
                </g>
                <g id="arrowLeft" xlink:href="#dirArrow" transform="rotate(270) translate(-36 17)" onmousedown="handlePan(-1,0)">
                  <use xlink:href="#rim" fill="#404040">
                        <set attributeName="fill" to="#808080" begin="arrowLeft.mouseover" end="arrowLeft.mouseout"/>
                  </use>
                  <path fill="none" stroke="white" stroke-width="1.5" d="M0,-3.0v7 M-2.5,-0.5L0,-3.0L2.5,-0.5"/>
                </g>
        </g>
        <svg viewBox="0 0 15 15" width="100%" height="30px" preserveAspectRatio="xMaxYMin meet">
         <g id="arrow_out" transform="scale(0.3 0.3)">
          <a xlink:href="classcommand_parser_1_1_properties_file_reader_a808fd858ef40e00b7e327f4dafe374ed_icgraph_org.svg" target="_base">
           <rect id="button" ry="5" rx="5" y="6" x="6" height="38" width="38"
                fill="#f2f5e9" fill-opacity="0.5" stroke="#606060" stroke-width="1.0"/>
           <path id="arrow"
             d="M 11.500037,31.436501 C 11.940474,20.09759 22.043105,11.32322 32.158766,21.979434 L 37.068811,17.246167 C 37.068811,17.246167 37.088388,32 37.088388,32 L 22.160133,31.978069 C 22.160133,31.978069 26.997745,27.140456 26.997745,27.140456 C 18.528582,18.264221 13.291696,25.230495 11.500037,31.436501 z"
             style="fill:#404040;"/>
          </a>
         </g>
        </svg>
</svg>
