<?xml version="1.0" encoding="UTF-8" standalone="no"?>
<!DOCTYPE svg PUBLIC "-//W3C//DTD SVG 1.1//EN"
 "http://www.w3.org/Graphics/SVG/1.1/DTD/svg11.dtd">
<!-- Generated by graphviz version 2.36.0 (20140111.2315)
 -->
<!-- Title: GUIFunctions.AddTurtle Pages: 1 -->
<!--zoomable 387 -->
<svg id="main" version="1.1" xmlns="http://www.w3.org/2000/svg" xmlns:xlink="http://www.w3.org/1999/xlink" xml:space="preserve" onload="init(evt)">
<style type="text/css"><![CDATA[
.edge:hover path { stroke: red; }
.edge:hover polygon { stroke: red; fill: red; }
]]></style>
<script type="text/javascript"><![CDATA[
var edges = document.getElementsByTagName('g');
if (edges && edges.length) {
  for (var i=0;i<edges.length;i++) {
    if (edges[i].id.substr(0,4)=='edge') {
      edges[i].setAttribute('class','edge');
    }
  }
}
]]></script>
        <defs>
                <circle id="rim" cx="0" cy="0" r="7"/>
                <circle id="rim2" cx="0" cy="0" r="3.5"/>
                <g id="zoomPlus">
                        <use xlink:href="#rim" fill="#404040">
                                <set attributeName="fill" to="#808080" begin="zoomplus.mouseover" end="zoomplus.mouseout"/>
                        </use>
                        <path d="M-4,0h8M0,-4v8" fill="none" stroke="white" stroke-width="1.5" pointer-events="none"/>
                </g>
                <g id="zoomMin">
                        <use xlink:href="#rim" fill="#404040">
                                <set attributeName="fill" to="#808080" begin="zoomminus.mouseover" end="zoomminus.mouseout"/>
                        </use>
                        <path d="M-4,0h8" fill="none" stroke="white" stroke-width="1.5" pointer-events="none"/>
                </g>
                <g id="dirArrow">
                        <path fill="none" stroke="white" stroke-width="1.5" d="M0,-3.0v7 M-2.5,-0.5L0,-3.0L2.5,-0.5"/>
                </g>
               <g id="resetDef">
                       <use xlink:href="#rim2" fill="#404040">
                               <set attributeName="fill" to="#808080" begin="reset.mouseover" end="reset.mouseout"/>
                       </use>
               </g>
        </defs>

<script type="text/javascript">
var viewWidth = 1138;
var viewHeight = 387;
var sectionId = 'dynsection-1';
</script>
<script xlink:href="../../svgpan.js"/>
<svg id="graph" class="graph">
<g id="viewport">
<title>GUIFunctions.AddTurtle</title>
<polygon fill="white" stroke="none" points="-4,4 -4,-383 1134,-383 1134,4 -4,4"/>
<!-- Node1 -->
<g id="node1" class="node"><title>Node1</title>
<polygon fill="#bfbfbf" stroke="black" points="1004,-226.5 1004,-245.5 1130,-245.5 1130,-226.5 1004,-226.5"/>
<text text-anchor="middle" x="1067" y="-233.5" font-family="Helvetica,sans-Serif" font-size="10.00">GUIFunctions.AddTurtle</text>
</g>
<!-- Node2 -->
<g id="node2" class="node"><title>Node2</title>
<g id="a_node2"><a xlink:href="../../de/d3e/class_g_u_i_functions_1_1_add.html" target="_top" xlink:title="GUIFunctions.Add">
<polygon fill="white" stroke="black" points="822.5,-321.5 822.5,-340.5 923.5,-340.5 923.5,-321.5 822.5,-321.5"/>
<text text-anchor="middle" x="873" y="-328.5" font-family="Helvetica,sans-Serif" font-size="10.00">GUIFunctions.Add</text>
</a>
</g>
</g>
<!-- Node2&#45;&gt;Node1 -->
<g id="edge1" class="edge"><title>Node2&#45;&gt;Node1</title>
<path fill="none" stroke="midnightblue" d="M902.857,-316.722C942.551,-297.081 1012.92,-262.262 1046.77,-245.516"/>
<polygon fill="midnightblue" stroke="midnightblue" points="900.877,-313.796 893.467,-321.368 903.982,-320.07 900.877,-313.796"/>
</g>
<!-- Node3 -->
<g id="node3" class="node"><title>Node3</title>
<g id="a_node3"><a xlink:href="../../d1/df5/interface_g_u_i_functions_1_1_g_u_i_function.html" target="_top" xlink:title="GUIFunctions.GUIFunction">
<polygon fill="white" stroke="black" points="553.5,-359.5 553.5,-378.5 692.5,-378.5 692.5,-359.5 553.5,-359.5"/>
<text text-anchor="middle" x="623" y="-366.5" font-family="Helvetica,sans-Serif" font-size="10.00">GUIFunctions.GUIFunction</text>
</a>
</g>
</g>
<!-- Node3&#45;&gt;Node2 -->
<g id="edge2" class="edge"><title>Node3&#45;&gt;Node2</title>
<path fill="none" stroke="midnightblue" d="M702.564,-358.971C734.142,-354.71 770.854,-349.466 804,-344 810.404,-342.944 817.132,-341.755 823.762,-340.536"/>
<polygon fill="midnightblue" stroke="midnightblue" points="701.95,-355.522 692.503,-360.319 702.879,-362.46 701.95,-355.522"/>
</g>
<!-- Node4 -->
<g id="node4" class="node"><title>Node4</title>
<g id="a_node4"><a xlink:href="../../df/dcb/classturtle_1_1_turtle.html" target="_top" xlink:title="turtle.Turtle">
<polygon fill="white" stroke="black" points="837.5,-226.5 837.5,-245.5 908.5,-245.5 908.5,-226.5 837.5,-226.5"/>
<text text-anchor="middle" x="873" y="-233.5" font-family="Helvetica,sans-Serif" font-size="10.00">turtle.Turtle</text>
</a>
</g>
</g>
<!-- Node4&#45;&gt;Node1 -->
<g id="edge3" class="edge"><title>Node4&#45;&gt;Node1</title>
<path fill="none" stroke="#9a32cd" stroke-dasharray="5,2" d="M918.828,-236C944.158,-236 976.204,-236 1003.92,-236"/>
<polygon fill="#9a32cd" stroke="#9a32cd" points="918.77,-232.5 908.77,-236 918.77,-239.5 918.77,-232.5"/>
<text text-anchor="middle" x="964" y="-239" font-family="Helvetica,sans-Serif" font-size="10.00"> myTurtle</text>
</g>
<!-- Node5 -->
<g id="node5" class="node"><title>Node5</title>
<polygon fill="white" stroke="#bfbfbf" points="283,-177.5 283,-196.5 351,-196.5 351,-177.5 283,-177.5"/>
<text text-anchor="middle" x="317" y="-184.5" font-family="Helvetica,sans-Serif" font-size="10.00">ImageView</text>
</g>
<!-- Node5&#45;&gt;Node4 -->
<g id="edge4" class="edge"><title>Node5&#45;&gt;Node4</title>
<path fill="none" stroke="midnightblue" d="M361.226,-191.779C379.908,-193.79 402.022,-196.1 422,-198 576.736,-212.715 761.685,-227.428 837.255,-233.318"/>
<polygon fill="midnightblue" stroke="midnightblue" points="361.555,-188.294 351.236,-190.696 360.801,-195.253 361.555,-188.294"/>
</g>
<!-- Node16 -->
<g id="node16" class="node"><title>Node16</title>
<g id="a_node16"><a xlink:href="../../d9/db1/class_view_1_1_single_grid.html" target="_top" xlink:title="View.SingleGrid">
<polygon fill="white" stroke="black" points="578.5,-81.5 578.5,-100.5 667.5,-100.5 667.5,-81.5 578.5,-81.5"/>
<text text-anchor="middle" x="623" y="-88.5" font-family="Helvetica,sans-Serif" font-size="10.00">View.SingleGrid</text>
</a>
</g>
</g>
<!-- Node5&#45;&gt;Node16 -->
<g id="edge22" class="edge"><title>Node5&#45;&gt;Node16</title>
<path fill="none" stroke="#9a32cd" stroke-dasharray="5,2" d="M361.115,-188.268C406.064,-187.423 476.46,-179.755 524,-144 537.665,-133.723 528.477,-120.463 542,-110 552.387,-101.963 565.64,-97.2487 578.358,-94.507"/>
<polygon fill="#9a32cd" stroke="#9a32cd" points="361.067,-184.768 351.097,-188.351 361.126,-191.768 361.067,-184.768"/>
<text text-anchor="middle" x="473" y="-186" font-family="Helvetica,sans-Serif" font-size="10.00"> myImageView</text>
</g>
<!-- Node6 -->
<g id="node6" class="node"><title>Node6</title>
<g id="a_node6"><a xlink:href="../../d8/db5/interfacecommands_1_1information_1_1_i_turtle_behavior.html" target="_top" xlink:title="commands.information.ITurtle\lBehavior">
<polygon fill="white" stroke="black" points="543.5,-158 543.5,-188 702.5,-188 702.5,-158 543.5,-158"/>
<text text-anchor="start" x="551.5" y="-176" font-family="Helvetica,sans-Serif" font-size="10.00">commands.information.ITurtle</text>
<text text-anchor="middle" x="623" y="-165" font-family="Helvetica,sans-Serif" font-size="10.00">Behavior</text>
</a>
</g>
</g>
<!-- Node6&#45;&gt;Node4 -->
<g id="edge5" class="edge"><title>Node6&#45;&gt;Node4</title>
<path fill="none" stroke="midnightblue" d="M712.939,-182.664C742.355,-187.217 774.973,-193.75 804,-203 822.504,-208.896 842.34,-219.005 855.784,-226.484"/>
<polygon fill="midnightblue" stroke="midnightblue" points="713.086,-179.147 702.679,-181.135 712.054,-186.071 713.086,-179.147"/>
</g>
<!-- Node7 -->
<g id="node7" class="node"><title>Node7</title>
<polygon fill="white" stroke="#bfbfbf" points="557,-119.5 557,-138.5 689,-138.5 689,-119.5 557,-119.5"/>
<text text-anchor="middle" x="623" y="-126.5" font-family="Helvetica,sans-Serif" font-size="10.00">Stack&lt; turtle.Position &gt;</text>
</g>
<!-- Node7&#45;&gt;Node4 -->
<g id="edge6" class="edge"><title>Node7&#45;&gt;Node4</title>
<path fill="none" stroke="#9a32cd" stroke-dasharray="5,2" d="M699.3,-136.804C732.862,-142.583 771.962,-152.613 804,-170 830.317,-184.282 853.584,-211.615 864.836,-226.224"/>
<polygon fill="#9a32cd" stroke="#9a32cd" points="699.508,-133.292 689.076,-135.144 698.386,-140.201 699.508,-133.292"/>
<text text-anchor="middle" x="763" y="-173" font-family="Helvetica,sans-Serif" font-size="10.00"> myPastPositions</text>
</g>
<!-- Node8 -->
<g id="node8" class="node"><title>Node8</title>
<g id="a_node8"><a xlink:href="../../dc/d19/class_view_1_1_pen.html" target="_top" xlink:title="View.Pen">
<polygon fill="white" stroke="black" points="593.5,-321.5 593.5,-340.5 652.5,-340.5 652.5,-321.5 593.5,-321.5"/>
<text text-anchor="middle" x="623" y="-328.5" font-family="Helvetica,sans-Serif" font-size="10.00">View.Pen</text>
</a>
</g>
</g>
<!-- Node8&#45;&gt;Node4 -->
<g id="edge7" class="edge"><title>Node8&#45;&gt;Node4</title>
<path fill="none" stroke="#9a32cd" stroke-dasharray="5,2" d="M662.642,-328.997C700.389,-325.754 758.624,-317.257 804,-295 828.978,-282.748 852.096,-259.01 863.865,-245.682"/>
<polygon fill="#9a32cd" stroke="#9a32cd" points="662.265,-325.516 652.566,-329.78 662.807,-332.495 662.265,-325.516"/>
<text text-anchor="middle" x="763" y="-324" font-family="Helvetica,sans-Serif" font-size="10.00"> myPen</text>
</g>
<!-- Node9 -->
<g id="node9" class="node"><title>Node9</title>
<polygon fill="white" stroke="#bfbfbf" points="299,-359.5 299,-378.5 335,-378.5 335,-359.5 299,-359.5"/>
<text text-anchor="middle" x="317" y="-366.5" font-family="Helvetica,sans-Serif" font-size="10.00">Line</text>
</g>
<!-- Node9&#45;&gt;Node8 -->
<g id="edge8" class="edge"><title>Node9&#45;&gt;Node8</title>
<path fill="none" stroke="midnightblue" d="M345.264,-366.313C384.739,-362.341 460.086,-354.456 524,-346 547.377,-342.907 573.8,-338.829 593.313,-335.705"/>
<polygon fill="midnightblue" stroke="midnightblue" points="344.723,-362.849 335.12,-367.326 345.419,-369.815 344.723,-362.849"/>
</g>
<!-- Node10 -->
<g id="node10" class="node"><title>Node10</title>
<polygon fill="white" stroke="#bfbfbf" points="274,-321.5 274,-340.5 360,-340.5 360,-321.5 274,-321.5"/>
<text text-anchor="middle" x="317" y="-328.5" font-family="Helvetica,sans-Serif" font-size="10.00">Stack&lt; Line &gt;</text>
</g>
<!-- Node10&#45;&gt;Node8 -->
<g id="edge9" class="edge"><title>Node10&#45;&gt;Node8</title>
<path fill="none" stroke="#9a32cd" stroke-dasharray="5,2" d="M370.636,-331C435.178,-331 542.261,-331 593.272,-331"/>
<polygon fill="#9a32cd" stroke="#9a32cd" points="370.27,-327.5 360.27,-331 370.27,-334.5 370.27,-327.5"/>
<text text-anchor="middle" x="473" y="-334" font-family="Helvetica,sans-Serif" font-size="10.00"> myLines</text>
</g>
<!-- Node11 -->
<g id="node11" class="node"><title>Node11</title>
<g id="a_node11"><a xlink:href="../../dc/d86/class_g_u_i_functions_1_1_border_style.html" target="_top" xlink:title="GUIFunctions.BorderStyle">
<polygon fill="white" stroke="black" points="248,-283.5 248,-302.5 386,-302.5 386,-283.5 248,-283.5"/>
<text text-anchor="middle" x="317" y="-290.5" font-family="Helvetica,sans-Serif" font-size="10.00">GUIFunctions.BorderStyle</text>
</a>
</g>
</g>
<!-- Node11&#45;&gt;Node8 -->
<g id="edge10" class="edge"><title>Node11&#45;&gt;Node8</title>
<path fill="none" stroke="#9a32cd" stroke-dasharray="5,2" d="M396.387,-300.994C434.88,-305.113 481.918,-310.433 524,-316 547.377,-319.093 573.8,-323.171 593.313,-326.295"/>
<polygon fill="#9a32cd" stroke="#9a32cd" points="396.597,-297.497 386.283,-299.919 395.856,-304.457 396.597,-297.497"/>
<text text-anchor="middle" x="473" y="-319" font-family="Helvetica,sans-Serif" font-size="10.00"> myStyle</text>
</g>
<!-- Node12 -->
<g id="node12" class="node"><title>Node12</title>
<g id="a_node12"><a xlink:href="../../d1/dbe/classturtle_1_1_position.html" target="_top" xlink:title="turtle.Position">
<polygon fill="white" stroke="black" points="581.5,-283.5 581.5,-302.5 664.5,-302.5 664.5,-283.5 581.5,-283.5"/>
<text text-anchor="middle" x="623" y="-290.5" font-family="Helvetica,sans-Serif" font-size="10.00">turtle.Position</text>
</a>
</g>
</g>
<!-- Node12&#45;&gt;Node4 -->
<g id="edge11" class="edge"><title>Node12&#45;&gt;Node4</title>
<path fill="none" stroke="#9a32cd" stroke-dasharray="5,2" d="M674.934,-287.448C711.328,-282.772 761.222,-274.911 804,-263 820.275,-258.469 837.993,-251.358 851.262,-245.571"/>
<polygon fill="#9a32cd" stroke="#9a32cd" points="674.061,-284.03 664.571,-288.74 674.927,-290.976 674.061,-284.03"/>
<text text-anchor="middle" x="763" y="-283" font-family="Helvetica,sans-Serif" font-size="10.00"> myPosition</text>
</g>
<!-- Node13 -->
<g id="node13" class="node"><title>Node13</title>
<polygon fill="white" stroke="#bfbfbf" points="542.5,-245.5 542.5,-264.5 703.5,-264.5 703.5,-245.5 542.5,-245.5"/>
<text text-anchor="middle" x="623" y="-252.5" font-family="Helvetica,sans-Serif" font-size="10.00">EventHandler&lt; ActionEvent &gt;</text>
</g>
<!-- Node13&#45;&gt;Node4 -->
<g id="edge12" class="edge"><title>Node13&#45;&gt;Node4</title>
<path fill="none" stroke="#9a32cd" stroke-dasharray="5,2" d="M713.996,-248.105C756.765,-244.828 805.384,-241.104 837.26,-238.662"/>
<polygon fill="#9a32cd" stroke="#9a32cd" points="713.537,-244.63 703.834,-248.884 714.072,-251.609 713.537,-244.63"/>
<text text-anchor="middle" x="763" y="-251" font-family="Helvetica,sans-Serif" font-size="10.00"> myEvent</text>
</g>
<!-- Node14 -->
<g id="node14" class="node"><title>Node14</title>
<g id="a_node14"><a xlink:href="../../d7/d98/class_view_1_1_grid_tracker.html" target="_top" xlink:title="View.GridTracker">
<polygon fill="white" stroke="black" points="826,-81.5 826,-100.5 920,-100.5 920,-81.5 826,-81.5"/>
<text text-anchor="middle" x="873" y="-88.5" font-family="Helvetica,sans-Serif" font-size="10.00">View.GridTracker</text>
</a>
</g>
</g>
<!-- Node14&#45;&gt;Node1 -->
<g id="edge13" class="edge"><title>Node14&#45;&gt;Node1</title>
<path fill="none" stroke="#9a32cd" stroke-dasharray="5,2" d="M894.796,-106.705C934.603,-136.768 1020.51,-201.646 1053.1,-226.261"/>
<polygon fill="#9a32cd" stroke="#9a32cd" points="896.687,-103.747 886.598,-100.514 892.468,-109.333 896.687,-103.747"/>
<text text-anchor="middle" x="964" y="-176" font-family="Helvetica,sans-Serif" font-size="10.00"> myGrid</text>
</g>
<!-- Node15 -->
<g id="node15" class="node"><title>Node15</title>
<polygon fill="white" stroke="#bfbfbf" points="571,-32 571,-62 675,-62 675,-32 571,-32"/>
<text text-anchor="start" x="579" y="-50" font-family="Helvetica,sans-Serif" font-size="10.00">java::util::HashSet</text>
<text text-anchor="middle" x="623" y="-39" font-family="Helvetica,sans-Serif" font-size="10.00">&lt; Grid &gt;</text>
</g>
<!-- Node15&#45;&gt;Node14 -->
<g id="edge14" class="edge"><title>Node15&#45;&gt;Node14</title>
<path fill="none" stroke="midnightblue" d="M684.994,-57.8216C728.566,-65.552 786.271,-75.79 825.996,-82.838"/>
<polygon fill="midnightblue" stroke="midnightblue" points="685.543,-54.3643 675.085,-56.0635 684.32,-61.2567 685.543,-54.3643"/>
</g>
<!-- Node16&#45;&gt;Node14 -->
<g id="edge15" class="edge"><title>Node16&#45;&gt;Node14</title>
<path fill="none" stroke="#9a32cd" stroke-dasharray="5,2" d="M678.021,-91C722.145,-91 783.847,-91 825.727,-91"/>
<polygon fill="#9a32cd" stroke="#9a32cd" points="677.767,-87.5001 667.767,-91 677.767,-94.5001 677.767,-87.5001"/>
<text text-anchor="middle" x="763" y="-94" font-family="Helvetica,sans-Serif" font-size="10.00"> myActiveGrid</text>
</g>
<!-- Node17 -->
<g id="node17" class="node"><title>Node17</title>
<g id="a_node17"><a xlink:href="../../d0/d92/class_view_1_1_grid.html" target="_top" xlink:title="View.Grid">
<polygon fill="white" stroke="black" points="287,-126.5 287,-145.5 347,-145.5 347,-126.5 287,-126.5"/>
<text text-anchor="middle" x="317" y="-133.5" font-family="Helvetica,sans-Serif" font-size="10.00">View.Grid</text>
</a>
</g>
</g>
<!-- Node17&#45;&gt;Node16 -->
<g id="edge16" class="edge"><title>Node17&#45;&gt;Node16</title>
<path fill="none" stroke="midnightblue" d="M357.282,-138.555C399.52,-140.07 468.132,-138.934 524,-121 532.927,-118.134 533.332,-113.572 542,-110 553.483,-105.268 566.4,-101.558 578.451,-98.7221"/>
<polygon fill="midnightblue" stroke="midnightblue" points="357.276,-135.052 347.135,-138.121 356.977,-142.045 357.276,-135.052"/>
</g>
<!-- Node18 -->
<g id="node18" class="node"><title>Node18</title>
<polygon fill="white" stroke="#bfbfbf" points="54,-164.5 54,-183.5 94,-183.5 94,-164.5 54,-164.5"/>
<text text-anchor="middle" x="74" y="-171.5" font-family="Helvetica,sans-Serif" font-size="10.00">Pane</text>
</g>
<!-- Node18&#45;&gt;Node17 -->
<g id="edge17" class="edge"><title>Node18&#45;&gt;Node17</title>
<path fill="none" stroke="midnightblue" d="M104.314,-169.378C150.656,-162.071 240.324,-147.932 286.674,-140.624"/>
<polygon fill="midnightblue" stroke="midnightblue" points="103.647,-165.94 94.3147,-170.955 104.738,-172.854 103.647,-165.94"/>
</g>
<!-- Node19 -->
<g id="node19" class="node"><title>Node19</title>
<polygon fill="white" stroke="#bfbfbf" points="2,-126.5 2,-145.5 146,-145.5 146,-126.5 2,-126.5"/>
<text text-anchor="middle" x="74" y="-133.5" font-family="Helvetica,sans-Serif" font-size="10.00">HashMap&lt; String, Class &gt;</text>
</g>
<!-- Node19&#45;&gt;Node17 -->
<g id="edge18" class="edge"><title>Node19&#45;&gt;Node17</title>
<path fill="none" stroke="#9a32cd" stroke-dasharray="5,2" d="M156.071,-136C201.118,-136 254.428,-136 286.705,-136"/>
<polygon fill="#9a32cd" stroke="#9a32cd" points="156.004,-132.5 146.004,-136 156.004,-139.5 156.004,-132.5"/>
<text text-anchor="middle" x="189" y="-139" font-family="Helvetica,sans-Serif" font-size="10.00"> myMap</text>
</g>
<!-- Node20 -->
<g id="node20" class="node"><title>Node20</title>
<polygon fill="white" stroke="#bfbfbf" points="0.5,-88.5 0.5,-107.5 147.5,-107.5 147.5,-88.5 0.5,-88.5"/>
<text text-anchor="middle" x="74" y="-95.5" font-family="Helvetica,sans-Serif" font-size="10.00">EventHandler&lt; KeyEvent &gt;</text>
</g>
<!-- Node20&#45;&gt;Node17 -->
<g id="edge19" class="edge"><title>Node20&#45;&gt;Node17</title>
<path fill="none" stroke="#9a32cd" stroke-dasharray="5,2" d="M145.654,-109.14C192.737,-116.564 252.146,-125.932 286.92,-131.415"/>
<polygon fill="#9a32cd" stroke="#9a32cd" points="145.927,-105.64 135.503,-107.54 144.836,-112.555 145.927,-105.64"/>
<text text-anchor="middle" x="189" y="-123" font-family="Helvetica,sans-Serif" font-size="10.00"> myEvent</text>
</g>
<!-- Node21 -->
<g id="node21" class="node"><title>Node21</title>
<polygon fill="white" stroke="#bfbfbf" points="250,-88.5 250,-107.5 384,-107.5 384,-88.5 250,-88.5"/>
<text text-anchor="middle" x="317" y="-95.5" font-family="Helvetica,sans-Serif" font-size="10.00">HashSet&lt; turtle.Turtle &gt;</text>
</g>
<!-- Node21&#45;&gt;Node16 -->
<g id="edge20" class="edge"><title>Node21&#45;&gt;Node16</title>
<path fill="none" stroke="#9a32cd" stroke-dasharray="5,2" d="M394.577,-96.2367C452.66,-94.8993 530.424,-93.1087 578.32,-92.0058"/>
<polygon fill="#9a32cd" stroke="#9a32cd" points="394.255,-92.7431 384.338,-96.4725 394.416,-99.7412 394.255,-92.7431"/>
<text text-anchor="middle" x="473" y="-110" font-family="Helvetica,sans-Serif" font-size="10.00"> allTurtles</text>
<text text-anchor="middle" x="473" y="-99" font-family="Helvetica,sans-Serif" font-size="10.00">activeTurtles</text>
</g>
<!-- Node22 -->
<g id="node22" class="node"><title>Node22</title>
<polygon fill="white" stroke="#bfbfbf" points="230.5,-39 230.5,-69 403.5,-69 403.5,-39 230.5,-39"/>
<text text-anchor="start" x="238.5" y="-57" font-family="Helvetica,sans-Serif" font-size="10.00">HashMap&lt; String, GUIFunctions.</text>
<text text-anchor="middle" x="317" y="-46" font-family="Helvetica,sans-Serif" font-size="10.00">GUIFunction &gt;</text>
</g>
<!-- Node22&#45;&gt;Node16 -->
<g id="edge21" class="edge"><title>Node22&#45;&gt;Node16</title>
<path fill="none" stroke="#9a32cd" stroke-dasharray="5,2" d="M413.826,-65.6077C448.533,-69.8176 488.034,-74.6156 524,-79 541.696,-81.1572 561.187,-83.5421 578.095,-85.6137"/>
<polygon fill="#9a32cd" stroke="#9a32cd" points="414.045,-62.1087 403.696,-64.3791 413.202,-69.0577 414.045,-62.1087"/>
<text text-anchor="middle" x="473" y="-82" font-family="Helvetica,sans-Serif" font-size="10.00"> myGridFunctions</text>
</g>
<!-- Node23 -->
<g id="node23" class="node"><title>Node23</title>
<polygon fill="white" stroke="#bfbfbf" points="283,-0.5 283,-19.5 351,-19.5 351,-0.5 283,-0.5"/>
<text text-anchor="middle" x="317" y="-7.5" font-family="Helvetica,sans-Serif" font-size="10.00">Dimension</text>
</g>
<!-- Node23&#45;&gt;Node16 -->
<g id="edge23" class="edge"><title>Node23&#45;&gt;Node16</title>
<path fill="none" stroke="#9a32cd" stroke-dasharray="5,2" d="M361.131,-11.2964C404.709,-14.263 472.742,-23.545 524,-52 534.17,-57.6458 531.956,-65.1326 542,-71 553.002,-77.427 566.023,-81.8025 578.33,-84.7761"/>
<polygon fill="#9a32cd" stroke="#9a32cd" points="361.334,-7.80236 351.143,-10.698 360.915,-14.7898 361.334,-7.80236"/>
<text text-anchor="middle" x="473" y="-55" font-family="Helvetica,sans-Serif" font-size="10.00"> DEFAULT_GRID_SIZE</text>
</g>
</g>
</svg>
        <g id="navigator" transform="translate(0 0)" fill="#404254">
                <rect fill="#f2f5e9" fill-opacity="0.5" stroke="#606060" stroke-width=".5" x="0" y="0" width="60" height="60"/>
                <use id="zoomplus" xlink:href="#zoomPlus" x="17" y="9" onmousedown="handleZoom(evt,'in')"/>
                <use id="zoomminus" xlink:href="#zoomMin" x="42" y="9" onmousedown="handleZoom(evt,'out')"/>
                <use id="reset" xlink:href="#resetDef" x="30" y="36" onmousedown="handleReset()"/>
                <g id="arrowUp" xlink:href="#dirArrow" transform="translate(30 24)" onmousedown="handlePan(0,-1)">
                  <use xlink:href="#rim" fill="#404040">
                        <set attributeName="fill" to="#808080" begin="arrowUp.mouseover" end="arrowUp.mouseout"/>
                  </use>
                  <path fill="none" stroke="white" stroke-width="1.5" d="M0,-3.0v7 M-2.5,-0.5L0,-3.0L2.5,-0.5"/>
                </g>
                <g id="arrowRight" xlink:href="#dirArrow" transform="rotate(90) translate(36 -43)" onmousedown="handlePan(1,0)">
                  <use xlink:href="#rim" fill="#404040">
                        <set attributeName="fill" to="#808080" begin="arrowRight.mouseover" end="arrowRight.mouseout"/>
                  </use>
                  <path fill="none" stroke="white" stroke-width="1.5" d="M0,-3.0v7 M-2.5,-0.5L0,-3.0L2.5,-0.5"/>
                </g>
                <g id="arrowDown" xlink:href="#dirArrow" transform="rotate(180) translate(-30 -48)" onmousedown="handlePan(0,1)">
                  <use xlink:href="#rim" fill="#404040">
                        <set attributeName="fill" to="#808080" begin="arrowDown.mouseover" end="arrowDown.mouseout"/>
                  </use>
                  <path fill="none" stroke="white" stroke-width="1.5" d="M0,-3.0v7 M-2.5,-0.5L0,-3.0L2.5,-0.5"/>
                </g>
                <g id="arrowLeft" xlink:href="#dirArrow" transform="rotate(270) translate(-36 17)" onmousedown="handlePan(-1,0)">
                  <use xlink:href="#rim" fill="#404040">
                        <set attributeName="fill" to="#808080" begin="arrowLeft.mouseover" end="arrowLeft.mouseout"/>
                  </use>
                  <path fill="none" stroke="white" stroke-width="1.5" d="M0,-3.0v7 M-2.5,-0.5L0,-3.0L2.5,-0.5"/>
                </g>
        </g>
        <svg viewBox="0 0 15 15" width="100%" height="30px" preserveAspectRatio="xMaxYMin meet">
         <g id="arrow_out" transform="scale(0.3 0.3)">
          <a xlink:href="class_g_u_i_functions_1_1_add_turtle__coll__graph_org.svg" target="_base">
           <rect id="button" ry="5" rx="5" y="6" x="6" height="38" width="38"
                fill="#f2f5e9" fill-opacity="0.5" stroke="#606060" stroke-width="1.0"/>
           <path id="arrow"
             d="M 11.500037,31.436501 C 11.940474,20.09759 22.043105,11.32322 32.158766,21.979434 L 37.068811,17.246167 C 37.068811,17.246167 37.088388,32 37.088388,32 L 22.160133,31.978069 C 22.160133,31.978069 26.997745,27.140456 26.997745,27.140456 C 18.528582,18.264221 13.291696,25.230495 11.500037,31.436501 z"
             style="fill:#404040;"/>
          </a>
         </g>
        </svg>
</svg>
