<?xml version="1.0" encoding="UTF-8" standalone="no"?>
<!DOCTYPE svg PUBLIC "-//W3C//DTD SVG 1.1//EN"
 "http://www.w3.org/Graphics/SVG/1.1/DTD/svg11.dtd">
<!-- Generated by graphviz version 2.36.0 (20140111.2315)
 -->
<!-- Title: View.MenuTemplate.addMenuItem Pages: 1 -->
<!--zoomable 207 -->
<svg id="main" version="1.1" xmlns="http://www.w3.org/2000/svg" xmlns:xlink="http://www.w3.org/1999/xlink" xml:space="preserve" onload="init(evt)">
<style type="text/css"><![CDATA[
.edge:hover path { stroke: red; }
.edge:hover polygon { stroke: red; fill: red; }
]]></style>
<script type="text/javascript"><![CDATA[
var edges = document.getElementsByTagName('g');
if (edges && edges.length) {
  for (var i=0;i<edges.length;i++) {
    if (edges[i].id.substr(0,4)=='edge') {
      edges[i].setAttribute('class','edge');
    }
  }
}
]]></script>
        <defs>
                <circle id="rim" cx="0" cy="0" r="7"/>
                <circle id="rim2" cx="0" cy="0" r="3.5"/>
                <g id="zoomPlus">
                        <use xlink:href="#rim" fill="#404040">
                                <set attributeName="fill" to="#808080" begin="zoomplus.mouseover" end="zoomplus.mouseout"/>
                        </use>
                        <path d="M-4,0h8M0,-4v8" fill="none" stroke="white" stroke-width="1.5" pointer-events="none"/>
                </g>
                <g id="zoomMin">
                        <use xlink:href="#rim" fill="#404040">
                                <set attributeName="fill" to="#808080" begin="zoomminus.mouseover" end="zoomminus.mouseout"/>
                        </use>
                        <path d="M-4,0h8" fill="none" stroke="white" stroke-width="1.5" pointer-events="none"/>
                </g>
                <g id="dirArrow">
                        <path fill="none" stroke="white" stroke-width="1.5" d="M0,-3.0v7 M-2.5,-0.5L0,-3.0L2.5,-0.5"/>
                </g>
               <g id="resetDef">
                       <use xlink:href="#rim2" fill="#404040">
                               <set attributeName="fill" to="#808080" begin="reset.mouseover" end="reset.mouseout"/>
                       </use>
               </g>
        </defs>

<script type="text/javascript">
var viewWidth = 1102;
var viewHeight = 207;
var sectionId = 'dynsection-2';
</script>
<script xlink:href="../../svgpan.js"/>
<svg id="graph" class="graph">
<g id="viewport">
<title>View.MenuTemplate.addMenuItem</title>
<polygon fill="white" stroke="none" points="-4,4 -4,-202.593 1098,-202.593 1098,4 -4,4"/>
<!-- Node1 -->
<g id="node1" class="node"><title>Node1</title>
<polygon fill="#bfbfbf" stroke="black" points="0.5,-95.5 0.5,-114.5 179.5,-114.5 179.5,-95.5 0.5,-95.5"/>
<text text-anchor="middle" x="90" y="-102.5" font-family="Helvetica,sans-Serif" font-size="10.00">View.MenuTemplate.addMenuItem</text>
</g>
<!-- Node2 -->
<g id="node2" class="node"><title>Node2</title>
<g id="a_node2"><a xlink:href="../../d6/d33/class_view_1_1_slogo_view.html#a7c84b547efa8603bbd40e36795873355" target="_top" xlink:title="View.SlogoView.addMenuBar">
<polygon fill="white" stroke="black" points="453,-95.5 453,-114.5 605,-114.5 605,-95.5 453,-95.5"/>
<text text-anchor="middle" x="529" y="-102.5" font-family="Helvetica,sans-Serif" font-size="10.00">View.SlogoView.addMenuBar</text>
</a>
</g>
</g>
<!-- Node1&#45;&gt;Node2 -->
<g id="edge1" class="edge"><title>Node1&#45;&gt;Node2</title>
<path fill="none" stroke="midnightblue" d="M110.028,-121.235C133.255,-139.882 174.58,-169.397 216,-181 298.17,-204.019 326.044,-204.77 408,-181 453.237,-167.88 497.77,-132.032 517.469,-114.673"/>
<polygon fill="midnightblue" stroke="midnightblue" points="111.998,-118.324 102.049,-114.68 107.554,-123.732 111.998,-118.324"/>
</g>
<!-- Node5 -->
<g id="node5" class="node"><title>Node5</title>
<g id="a_node5"><a xlink:href="../../d6/d33/class_view_1_1_slogo_view.html#a94e611bbf375514e3fa7b29042a51652" target="_top" xlink:title="View.SlogoView.createfileMenu">
<polygon fill="white" stroke="black" points="231,-152.5 231,-171.5 393,-171.5 393,-152.5 231,-152.5"/>
<text text-anchor="middle" x="312" y="-159.5" font-family="Helvetica,sans-Serif" font-size="10.00">View.SlogoView.createfileMenu</text>
</a>
</g>
</g>
<!-- Node1&#45;&gt;Node5 -->
<g id="edge4" class="edge"><title>Node1&#45;&gt;Node5</title>
<path fill="none" stroke="midnightblue" d="M129.249,-117.689C153.856,-125.587 186.612,-135.613 216,-143 229.702,-146.444 244.641,-149.674 258.529,-152.459"/>
<polygon fill="midnightblue" stroke="midnightblue" points="130.165,-114.306 119.573,-114.558 128.01,-120.966 130.165,-114.306"/>
</g>
<!-- Node6 -->
<g id="node6" class="node"><title>Node6</title>
<g id="a_node6"><a xlink:href="../../d6/d33/class_view_1_1_slogo_view.html#a7c3c0d79f810cf238ca386b75f12876e" target="_top" xlink:title="View.SlogoView.makeAddMenu">
<polygon fill="white" stroke="black" points="230,-114.5 230,-133.5 394,-133.5 394,-114.5 230,-114.5"/>
<text text-anchor="middle" x="312" y="-121.5" font-family="Helvetica,sans-Serif" font-size="10.00">View.SlogoView.makeAddMenu</text>
</a>
</g>
</g>
<!-- Node1&#45;&gt;Node6 -->
<g id="edge6" class="edge"><title>Node1&#45;&gt;Node6</title>
<path fill="none" stroke="midnightblue" d="M189.716,-113.525C203.108,-114.682 216.726,-115.858 229.764,-116.984"/>
<polygon fill="midnightblue" stroke="midnightblue" points="189.796,-110.019 179.531,-112.646 189.193,-116.993 189.796,-110.019"/>
</g>
<!-- Node7 -->
<g id="node7" class="node"><title>Node7</title>
<g id="a_node7"><a xlink:href="../../d6/d33/class_view_1_1_slogo_view.html#a8ae824124d33ee8cc64ad232b3751863" target="_top" xlink:title="View.SlogoView.makeLanguageMenu">
<polygon fill="white" stroke="black" points="216,-76.5 216,-95.5 408,-95.5 408,-76.5 216,-76.5"/>
<text text-anchor="middle" x="312" y="-83.5" font-family="Helvetica,sans-Serif" font-size="10.00">View.SlogoView.makeLanguageMenu</text>
</a>
</g>
</g>
<!-- Node1&#45;&gt;Node7 -->
<g id="edge8" class="edge"><title>Node1&#45;&gt;Node7</title>
<path fill="none" stroke="midnightblue" d="M189.676,-96.478C198.366,-95.7275 207.151,-94.9688 215.812,-94.2208"/>
<polygon fill="midnightblue" stroke="midnightblue" points="189.193,-93.0066 179.531,-97.3541 189.796,-99.9806 189.193,-93.0066"/>
</g>
<!-- Node8 -->
<g id="node8" class="node"><title>Node8</title>
<g id="a_node8"><a xlink:href="../../d6/d33/class_view_1_1_slogo_view.html#a1e19e84acd176c9ac6fe027e1ecae216" target="_top" xlink:title="View.SlogoView.makeMenu">
<polygon fill="white" stroke="black" points="239.5,-38.5 239.5,-57.5 384.5,-57.5 384.5,-38.5 239.5,-38.5"/>
<text text-anchor="middle" x="312" y="-45.5" font-family="Helvetica,sans-Serif" font-size="10.00">View.SlogoView.makeMenu</text>
</a>
</g>
</g>
<!-- Node1&#45;&gt;Node8 -->
<g id="edge10" class="edge"><title>Node1&#45;&gt;Node8</title>
<path fill="none" stroke="midnightblue" d="M129.249,-92.3112C153.856,-84.4125 186.612,-74.3869 216,-67 229.702,-63.5558 244.641,-60.3262 258.529,-57.5412"/>
<polygon fill="midnightblue" stroke="midnightblue" points="128.01,-89.0336 119.573,-95.4424 130.165,-95.6936 128.01,-89.0336"/>
</g>
<!-- Node9 -->
<g id="node9" class="node"><title>Node9</title>
<g id="a_node9"><a xlink:href="../../d6/d33/class_view_1_1_slogo_view.html#aaa1b5c8bf46a00ed935d768efcea28ef" target="_top" xlink:title="View.SlogoView.makeUserCommand">
<polygon fill="white" stroke="black" points="216.5,-0.5 216.5,-19.5 407.5,-19.5 407.5,-0.5 216.5,-0.5"/>
<text text-anchor="middle" x="312" y="-7.5" font-family="Helvetica,sans-Serif" font-size="10.00">View.SlogoView.makeUserCommand</text>
</a>
</g>
</g>
<!-- Node1&#45;&gt;Node9 -->
<g id="edge12" class="edge"><title>Node1&#45;&gt;Node9</title>
<path fill="none" stroke="midnightblue" d="M111.619,-89.3248C135.477,-71.9587 176.555,-44.3829 216,-29 225.872,-25.15 236.639,-22.0443 247.262,-19.5496"/>
<polygon fill="midnightblue" stroke="midnightblue" points="109.317,-86.674 103.357,-95.4339 113.479,-92.3023 109.317,-86.674"/>
</g>
<!-- Node3 -->
<g id="node3" class="node"><title>Node3</title>
<g id="a_node3"><a xlink:href="../../d6/d33/class_view_1_1_slogo_view.html#acfeff052503655d2ac419d2bf4ea9bd5" target="_top" xlink:title="View.SlogoView.initialize">
<polygon fill="white" stroke="black" points="834,-67.5 834,-86.5 964,-86.5 964,-67.5 834,-67.5"/>
<text text-anchor="middle" x="899" y="-74.5" font-family="Helvetica,sans-Serif" font-size="10.00">View.SlogoView.initialize</text>
</a>
</g>
</g>
<!-- Node2&#45;&gt;Node3 -->
<g id="edge2" class="edge"><title>Node2&#45;&gt;Node3</title>
<path fill="none" stroke="midnightblue" d="M615.424,-98.5004C682.088,-93.4281 773.247,-86.4921 833.794,-81.8852"/>
<polygon fill="midnightblue" stroke="midnightblue" points="615.064,-95.0175 605.358,-99.2662 615.595,-101.997 615.064,-95.0175"/>
</g>
<!-- Node4 -->
<g id="node4" class="node"><title>Node4</title>
<g id="a_node4"><a xlink:href="../../db/d27/class_view_1_1_slogo.html#a6ab76a53160b61d8501aec91c55b85c8" target="_top" xlink:title="View.Slogo.start">
<polygon fill="white" stroke="black" points="1000.5,-67.5 1000.5,-86.5 1093.5,-86.5 1093.5,-67.5 1000.5,-67.5"/>
<text text-anchor="middle" x="1047" y="-74.5" font-family="Helvetica,sans-Serif" font-size="10.00">View.Slogo.start</text>
</a>
</g>
</g>
<!-- Node3&#45;&gt;Node4 -->
<g id="edge3" class="edge"><title>Node3&#45;&gt;Node4</title>
<path fill="none" stroke="midnightblue" d="M974.142,-77C983.108,-77 992.051,-77 1000.43,-77"/>
<polygon fill="midnightblue" stroke="midnightblue" points="974.038,-73.5001 964.038,-77 974.038,-80.5001 974.038,-73.5001"/>
</g>
<!-- Node5&#45;&gt;Node2 -->
<g id="edge5" class="edge"><title>Node5&#45;&gt;Node2</title>
<path fill="none" stroke="midnightblue" d="M375.796,-150.45C386.584,-148.178 397.649,-145.665 408,-143 440.167,-134.717 476.44,-122.873 500.604,-114.618"/>
<polygon fill="midnightblue" stroke="midnightblue" points="375.085,-147.023 365.995,-152.466 376.495,-153.88 375.085,-147.023"/>
</g>
<!-- Node6&#45;&gt;Node2 -->
<g id="edge7" class="edge"><title>Node6&#45;&gt;Node2</title>
<path fill="none" stroke="midnightblue" d="M404.308,-115.931C420.536,-114.497 437.268,-113.018 452.978,-111.63"/>
<polygon fill="midnightblue" stroke="midnightblue" points="403.935,-112.45 394.282,-116.817 404.552,-119.423 403.935,-112.45"/>
</g>
<!-- Node7&#45;&gt;Node2 -->
<g id="edge9" class="edge"><title>Node7&#45;&gt;Node2</title>
<path fill="none" stroke="midnightblue" d="M418.43,-95.3171C430.05,-96.344 441.702,-97.3737 452.843,-98.3582"/>
<polygon fill="midnightblue" stroke="midnightblue" points="418.51,-91.8106 408.241,-94.4167 417.894,-98.7834 418.51,-91.8106"/>
</g>
<!-- Node8&#45;&gt;Node2 -->
<g id="edge11" class="edge"><title>Node8&#45;&gt;Node2</title>
<path fill="none" stroke="midnightblue" d="M375.796,-59.5498C386.584,-61.8217 397.649,-64.3346 408,-67 440.167,-75.2834 476.44,-87.1267 500.604,-95.3824"/>
<polygon fill="midnightblue" stroke="midnightblue" points="376.495,-56.1205 365.995,-57.5337 375.085,-62.9769 376.495,-56.1205"/>
</g>
<!-- Node10 -->
<g id="node10" class="node"><title>Node10</title>
<g id="a_node10"><a xlink:href="../../d6/d33/class_view_1_1_slogo_view.html#ac53c6ee17a0184deaf3e50be2ee738b2" target="_top" xlink:title="View.SlogoView.makeCommand\lButton">
<polygon fill="white" stroke="black" points="444.5,-30 444.5,-60 613.5,-60 613.5,-30 444.5,-30"/>
<text text-anchor="start" x="452.5" y="-48" font-family="Helvetica,sans-Serif" font-size="10.00">View.SlogoView.makeCommand</text>
<text text-anchor="middle" x="529" y="-37" font-family="Helvetica,sans-Serif" font-size="10.00">Button</text>
</a>
</g>
</g>
<!-- Node9&#45;&gt;Node10 -->
<g id="edge13" class="edge"><title>Node9&#45;&gt;Node10</title>
<path fill="none" stroke="midnightblue" d="M381.381,-21.1318C401.326,-24.3787 423.352,-27.9642 444.137,-31.3479"/>
<polygon fill="midnightblue" stroke="midnightblue" points="381.898,-17.67 371.466,-19.5177 380.773,-24.579 381.898,-17.67"/>
</g>
<!-- Node11 -->
<g id="node11" class="node"><title>Node11</title>
<g id="a_node11"><a xlink:href="../../d6/d33/class_view_1_1_slogo_view.html#ac64a43649ed5417854c37ec25320e925" target="_top" xlink:title="View.SlogoView.setTextArea">
<polygon fill="white" stroke="black" points="650,-46.5 650,-65.5 798,-65.5 798,-46.5 650,-46.5"/>
<text text-anchor="middle" x="724" y="-53.5" font-family="Helvetica,sans-Serif" font-size="10.00">View.SlogoView.setTextArea</text>
</a>
</g>
</g>
<!-- Node10&#45;&gt;Node11 -->
<g id="edge14" class="edge"><title>Node10&#45;&gt;Node11</title>
<path fill="none" stroke="midnightblue" d="M623.521,-50.3302C632.398,-50.8361 641.307,-51.3439 649.95,-51.8365"/>
<polygon fill="midnightblue" stroke="midnightblue" points="623.713,-46.8356 613.53,-49.7608 623.315,-53.8242 623.713,-46.8356"/>
</g>
<!-- Node11&#45;&gt;Node3 -->
<g id="edge15" class="edge"><title>Node11&#45;&gt;Node3</title>
<path fill="none" stroke="midnightblue" d="M808.216,-66.1013C816.853,-67.1498 825.534,-68.2036 833.914,-69.2208"/>
<polygon fill="midnightblue" stroke="midnightblue" points="808.466,-62.6061 798.117,-64.8755 807.622,-69.5551 808.466,-62.6061"/>
</g>
</g>
</svg>
        <g id="navigator" transform="translate(0 0)" fill="#404254">
                <rect fill="#f2f5e9" fill-opacity="0.5" stroke="#606060" stroke-width=".5" x="0" y="0" width="60" height="60"/>
                <use id="zoomplus" xlink:href="#zoomPlus" x="17" y="9" onmousedown="handleZoom(evt,'in')"/>
                <use id="zoomminus" xlink:href="#zoomMin" x="42" y="9" onmousedown="handleZoom(evt,'out')"/>
                <use id="reset" xlink:href="#resetDef" x="30" y="36" onmousedown="handleReset()"/>
                <g id="arrowUp" xlink:href="#dirArrow" transform="translate(30 24)" onmousedown="handlePan(0,-1)">
                  <use xlink:href="#rim" fill="#404040">
                        <set attributeName="fill" to="#808080" begin="arrowUp.mouseover" end="arrowUp.mouseout"/>
                  </use>
                  <path fill="none" stroke="white" stroke-width="1.5" d="M0,-3.0v7 M-2.5,-0.5L0,-3.0L2.5,-0.5"/>
                </g>
                <g id="arrowRight" xlink:href="#dirArrow" transform="rotate(90) translate(36 -43)" onmousedown="handlePan(1,0)">
                  <use xlink:href="#rim" fill="#404040">
                        <set attributeName="fill" to="#808080" begin="arrowRight.mouseover" end="arrowRight.mouseout"/>
                  </use>
                  <path fill="none" stroke="white" stroke-width="1.5" d="M0,-3.0v7 M-2.5,-0.5L0,-3.0L2.5,-0.5"/>
                </g>
                <g id="arrowDown" xlink:href="#dirArrow" transform="rotate(180) translate(-30 -48)" onmousedown="handlePan(0,1)">
                  <use xlink:href="#rim" fill="#404040">
                        <set attributeName="fill" to="#808080" begin="arrowDown.mouseover" end="arrowDown.mouseout"/>
                  </use>
                  <path fill="none" stroke="white" stroke-width="1.5" d="M0,-3.0v7 M-2.5,-0.5L0,-3.0L2.5,-0.5"/>
                </g>
                <g id="arrowLeft" xlink:href="#dirArrow" transform="rotate(270) translate(-36 17)" onmousedown="handlePan(-1,0)">
                  <use xlink:href="#rim" fill="#404040">
                        <set attributeName="fill" to="#808080" begin="arrowLeft.mouseover" end="arrowLeft.mouseout"/>
                  </use>
                  <path fill="none" stroke="white" stroke-width="1.5" d="M0,-3.0v7 M-2.5,-0.5L0,-3.0L2.5,-0.5"/>
                </g>
        </g>
        <svg viewBox="0 0 15 15" width="100%" height="30px" preserveAspectRatio="xMaxYMin meet">
         <g id="arrow_out" transform="scale(0.3 0.3)">
          <a xlink:href="class_view_1_1_menu_template_a36b57849adefaed2c993b566b36117fc_icgraph_org.svg" target="_base">
           <rect id="button" ry="5" rx="5" y="6" x="6" height="38" width="38"
                fill="#f2f5e9" fill-opacity="0.5" stroke="#606060" stroke-width="1.0"/>
           <path id="arrow"
             d="M 11.500037,31.436501 C 11.940474,20.09759 22.043105,11.32322 32.158766,21.979434 L 37.068811,17.246167 C 37.068811,17.246167 37.088388,32 37.088388,32 L 22.160133,31.978069 C 22.160133,31.978069 26.997745,27.140456 26.997745,27.140456 C 18.528582,18.264221 13.291696,25.230495 11.500037,31.436501 z"
             style="fill:#404040;"/>
          </a>
         </g>
        </svg>
</svg>
