<?xml version="1.0" encoding="UTF-8" standalone="no"?>
<!DOCTYPE svg PUBLIC "-//W3C//DTD SVG 1.1//EN"
 "http://www.w3.org/Graphics/SVG/1.1/DTD/svg11.dtd">
<!-- Generated by graphviz version 2.36.0 (20140111.2315)
 -->
<!-- Title: commands.viewCommands.SetPaletteCommand Pages: 1 -->
<svg width="455pt" height="248pt"
 viewBox="0.00 0.00 455.00 248.00" xmlns="http://www.w3.org/2000/svg" xmlns:xlink="http://www.w3.org/1999/xlink">
<g id="graph0" class="graph" transform="scale(1 1) rotate(0) translate(4 244)">
<title>commands.viewCommands.SetPaletteCommand</title>
<polygon fill="white" stroke="none" points="-4,4 -4,-244 451,-244 451,4 -4,4"/>
<!-- Node1 -->
<g id="node1" class="node"><title>Node1</title>
<polygon fill="#bfbfbf" stroke="black" points="22.5,-1 22.5,-31 191.5,-31 191.5,-1 22.5,-1"/>
<text text-anchor="start" x="30.5" y="-19" font-family="Helvetica,sans-Serif" font-size="10.00">commands.viewCommands.Set</text>
<text text-anchor="middle" x="107" y="-8" font-family="Helvetica,sans-Serif" font-size="10.00">PaletteCommand</text>
</g>
<!-- Node2 -->
<g id="node2" class="node"><title>Node2</title>
<g id="a_node2"><a xlink:href="../../de/d53/classcommands_1_1_view_command.html" target="_top" xlink:title="commands.ViewCommand">
<polygon fill="white" stroke="black" points="34,-70.5 34,-89.5 180,-89.5 180,-70.5 34,-70.5"/>
<text text-anchor="middle" x="107" y="-77.5" font-family="Helvetica,sans-Serif" font-size="10.00">commands.ViewCommand</text>
</a>
</g>
</g>
<!-- Node2&#45;&gt;Node1 -->
<g id="edge1" class="edge"><title>Node2&#45;&gt;Node1</title>
<path fill="none" stroke="midnightblue" d="M107,-60.1826C107,-50.8859 107,-39.8507 107,-31.263"/>
<polygon fill="midnightblue" stroke="midnightblue" points="103.5,-60.3791 107,-70.3792 110.5,-60.3792 103.5,-60.3791"/>
</g>
<!-- Node3 -->
<g id="node3" class="node"><title>Node3</title>
<g id="a_node3"><a xlink:href="../../da/d90/classcommands_1_1_base_command.html" target="_top" xlink:title="commands.BaseCommand">
<polygon fill="white" stroke="black" points="0,-144.5 0,-163.5 148,-163.5 148,-144.5 0,-144.5"/>
<text text-anchor="middle" x="74" y="-151.5" font-family="Helvetica,sans-Serif" font-size="10.00">commands.BaseCommand</text>
</a>
</g>
</g>
<!-- Node3&#45;&gt;Node2 -->
<g id="edge2" class="edge"><title>Node3&#45;&gt;Node2</title>
<path fill="none" stroke="midnightblue" d="M78.3398,-134.555C80.6522,-126.213 83.8797,-116.371 88,-108 91.2401,-101.418 95.9901,-94.6675 99.9301,-89.5631"/>
<polygon fill="midnightblue" stroke="midnightblue" points="74.9071,-133.852 75.8288,-144.406 81.6902,-135.581 74.9071,-133.852"/>
</g>
<!-- Node3&#45;&gt;Node2 -->
<g id="edge7" class="edge"><title>Node3&#45;&gt;Node2</title>
<path fill="none" stroke="#9a32cd" stroke-dasharray="5,2" d="M82.2461,-135.008C88.9059,-120.478 97.9819,-100.676 103.09,-89.531"/>
<polygon fill="#9a32cd" stroke="#9a32cd" points="78.9,-133.909 77.9151,-144.458 85.2635,-136.826 78.9,-133.909"/>
<text text-anchor="middle" x="136.5" y="-111.5" font-family="Helvetica,sans-Serif" font-size="10.00"> myArgumentList</text>
</g>
<!-- Node3&#45;&gt;Node3 -->
<g id="edge4" class="edge"><title>Node3&#45;&gt;Node3</title>
<path fill="none" stroke="#9a32cd" stroke-dasharray="5,2" d="M158.58,-158.266C163.233,-157.227 166,-155.805 166,-154 166,-151.111 158.916,-149.204 148.36,-148.279"/>
<polygon fill="#9a32cd" stroke="#9a32cd" points="157.767,-154.846 148.36,-159.721 158.754,-161.776 157.767,-154.846"/>
<text text-anchor="middle" x="211.5" y="-151.5" font-family="Helvetica,sans-Serif" font-size="10.00"> myNextCommand</text>
</g>
<!-- Node4 -->
<g id="node4" class="node"><title>Node4</title>
<polygon fill="white" stroke="#bfbfbf" points="38.5,-214.5 38.5,-233.5 109.5,-233.5 109.5,-214.5 38.5,-214.5"/>
<text text-anchor="middle" x="74" y="-221.5" font-family="Helvetica,sans-Serif" font-size="10.00">Serializable</text>
</g>
<!-- Node4&#45;&gt;Node3 -->
<g id="edge3" class="edge"><title>Node4&#45;&gt;Node3</title>
<path fill="none" stroke="midnightblue" d="M74,-204.039C74,-190.852 74,-173.884 74,-163.757"/>
<polygon fill="midnightblue" stroke="midnightblue" points="70.5001,-204.388 74,-214.388 77.5001,-204.388 70.5001,-204.388"/>
</g>
<!-- Node5 -->
<g id="node5" class="node"><title>Node5</title>
<g id="a_node5"><a xlink:href="../../d4/d37/classcommands_1_1information_1_1_base_grid_container.html" target="_top" xlink:title="commands.information.Base\lGridContainer">
<polygon fill="white" stroke="black" points="275.5,-139 275.5,-169 430.5,-169 430.5,-139 275.5,-139"/>
<text text-anchor="start" x="283.5" y="-157" font-family="Helvetica,sans-Serif" font-size="10.00">commands.information.Base</text>
<text text-anchor="middle" x="353" y="-146" font-family="Helvetica,sans-Serif" font-size="10.00">GridContainer</text>
</a>
</g>
</g>
<!-- Node5&#45;&gt;Node2 -->
<g id="edge5" class="edge"><title>Node5&#45;&gt;Node2</title>
<path fill="none" stroke="#9a32cd" stroke-dasharray="5,2" d="M295.3,-136.112C245.458,-121.524 175.47,-101.04 136.374,-89.5972"/>
<polygon fill="#9a32cd" stroke="#9a32cd" points="294.404,-139.497 304.985,-138.947 296.371,-132.779 294.404,-139.497"/>
<text text-anchor="middle" x="280.5" y="-111.5" font-family="Helvetica,sans-Serif" font-size="10.00"> myGridContainer</text>
</g>
<!-- Node6 -->
<g id="node6" class="node"><title>Node6</title>
<g id="a_node6"><a xlink:href="../../d4/d4e/interfacecommands_1_1information_1_1_i_information_container.html" target="_top" xlink:title="commands.information.IInformation\lContainer">
<polygon fill="white" stroke="black" points="259,-209 259,-239 447,-239 447,-209 259,-209"/>
<text text-anchor="start" x="267" y="-227" font-family="Helvetica,sans-Serif" font-size="10.00">commands.information.IInformation</text>
<text text-anchor="middle" x="353" y="-216" font-family="Helvetica,sans-Serif" font-size="10.00">Container</text>
</a>
</g>
</g>
<!-- Node6&#45;&gt;Node5 -->
<g id="edge6" class="edge"><title>Node6&#45;&gt;Node5</title>
<path fill="none" stroke="midnightblue" d="M353,-198.769C353,-188.814 353,-177.638 353,-169.072"/>
<polygon fill="midnightblue" stroke="midnightblue" points="349.5,-198.91 353,-208.91 356.5,-198.91 349.5,-198.91"/>
</g>
</g>
</svg>
