<?xml version="1.0" encoding="UTF-8" standalone="no"?>
<!DOCTYPE svg PUBLIC "-//W3C//DTD SVG 1.1//EN"
 "http://www.w3.org/Graphics/SVG/1.1/DTD/svg11.dtd">
<!-- Generated by graphviz version 2.36.0 (20140111.2315)
 -->
<!-- Title: commands.expressionCommands.OneExpressionCommand Pages: 1 -->
<!--zoomable 381 -->
<svg id="main" version="1.1" xmlns="http://www.w3.org/2000/svg" xmlns:xlink="http://www.w3.org/1999/xlink" xml:space="preserve" onload="init(evt)">
<style type="text/css"><![CDATA[
.edge:hover path { stroke: red; }
.edge:hover polygon { stroke: red; fill: red; }
]]></style>
<script type="text/javascript"><![CDATA[
var edges = document.getElementsByTagName('g');
if (edges && edges.length) {
  for (var i=0;i<edges.length;i++) {
    if (edges[i].id.substr(0,4)=='edge') {
      edges[i].setAttribute('class','edge');
    }
  }
}
]]></script>
        <defs>
                <circle id="rim" cx="0" cy="0" r="7"/>
                <circle id="rim2" cx="0" cy="0" r="3.5"/>
                <g id="zoomPlus">
                        <use xlink:href="#rim" fill="#404040">
                                <set attributeName="fill" to="#808080" begin="zoomplus.mouseover" end="zoomplus.mouseout"/>
                        </use>
                        <path d="M-4,0h8M0,-4v8" fill="none" stroke="white" stroke-width="1.5" pointer-events="none"/>
                </g>
                <g id="zoomMin">
                        <use xlink:href="#rim" fill="#404040">
                                <set attributeName="fill" to="#808080" begin="zoomminus.mouseover" end="zoomminus.mouseout"/>
                        </use>
                        <path d="M-4,0h8" fill="none" stroke="white" stroke-width="1.5" pointer-events="none"/>
                </g>
                <g id="dirArrow">
                        <path fill="none" stroke="white" stroke-width="1.5" d="M0,-3.0v7 M-2.5,-0.5L0,-3.0L2.5,-0.5"/>
                </g>
               <g id="resetDef">
                       <use xlink:href="#rim2" fill="#404040">
                               <set attributeName="fill" to="#808080" begin="reset.mouseover" end="reset.mouseout"/>
                       </use>
               </g>
        </defs>

<script type="text/javascript">
var viewWidth = 924;
var viewHeight = 381;
var sectionId = 'dynsection-0';
</script>
<script xlink:href="../../svgpan.js"/>
<svg id="graph" class="graph">
<g id="viewport">
<title>commands.expressionCommands.OneExpressionCommand</title>
<polygon fill="white" stroke="none" points="-4,4 -4,-377 920,-377 920,4 -4,4"/>
<!-- Node1 -->
<g id="node1" class="node"><title>Node1</title>
<polygon fill="#bfbfbf" stroke="black" points="512,-171 512,-201 696,-201 696,-171 512,-171"/>
<text text-anchor="start" x="520" y="-189" font-family="Helvetica,sans-Serif" font-size="10.00">commands.expressionCommands.</text>
<text text-anchor="middle" x="604" y="-178" font-family="Helvetica,sans-Serif" font-size="10.00">OneExpressionCommand</text>
</g>
<!-- Node5 -->
<g id="node5" class="node"><title>Node5</title>
<g id="a_node5"><a xlink:href="../../d1/dcc/classcommands_1_1expression_commands_1_1_arc_tan_command.html" target="_top" xlink:title="commands.expressionCommands.\lArcTanCommand">
<polygon fill="white" stroke="black" points="732,-343 732,-373 916,-373 916,-343 732,-343"/>
<text text-anchor="start" x="740" y="-361" font-family="Helvetica,sans-Serif" font-size="10.00">commands.expressionCommands.</text>
<text text-anchor="middle" x="824" y="-350" font-family="Helvetica,sans-Serif" font-size="10.00">ArcTanCommand</text>
</a>
</g>
</g>
<!-- Node1&#45;&gt;Node5 -->
<g id="edge4" class="edge"><title>Node1&#45;&gt;Node5</title>
<path fill="none" stroke="midnightblue" d="M619.229,-209.985C639.911,-242.742 681.387,-301.043 732,-333 738.096,-336.849 744.784,-340.113 751.682,-342.88"/>
<polygon fill="midnightblue" stroke="midnightblue" points="621.96,-207.746 613.724,-201.081 616.006,-211.427 621.96,-207.746"/>
</g>
<!-- Node6 -->
<g id="node6" class="node"><title>Node6</title>
<g id="a_node6"><a xlink:href="../../d0/d37/classcommands_1_1expression_commands_1_1_cos_command.html" target="_top" xlink:title="commands.expressionCommands.\lCosCommand">
<polygon fill="white" stroke="black" points="732,-294 732,-324 916,-324 916,-294 732,-294"/>
<text text-anchor="start" x="740" y="-312" font-family="Helvetica,sans-Serif" font-size="10.00">commands.expressionCommands.</text>
<text text-anchor="middle" x="824" y="-301" font-family="Helvetica,sans-Serif" font-size="10.00">CosCommand</text>
</a>
</g>
</g>
<!-- Node1&#45;&gt;Node6 -->
<g id="edge5" class="edge"><title>Node1&#45;&gt;Node6</title>
<path fill="none" stroke="midnightblue" d="M627.992,-208.277C652.078,-230.46 691.921,-264.01 732,-284 739.624,-287.803 747.905,-291.092 756.262,-293.92"/>
<polygon fill="midnightblue" stroke="midnightblue" points="630.145,-205.499 620.45,-201.226 625.364,-210.612 630.145,-205.499"/>
</g>
<!-- Node7 -->
<g id="node7" class="node"><title>Node7</title>
<g id="a_node7"><a xlink:href="../../de/d1a/classcommands_1_1expression_commands_1_1_natural_log_command.html" target="_top" xlink:title="commands.expressionCommands.\lNaturalLogCommand">
<polygon fill="white" stroke="black" points="732,-245 732,-275 916,-275 916,-245 732,-245"/>
<text text-anchor="start" x="740" y="-263" font-family="Helvetica,sans-Serif" font-size="10.00">commands.expressionCommands.</text>
<text text-anchor="middle" x="824" y="-252" font-family="Helvetica,sans-Serif" font-size="10.00">NaturalLogCommand</text>
</a>
</g>
</g>
<!-- Node1&#45;&gt;Node7 -->
<g id="edge6" class="edge"><title>Node1&#45;&gt;Node7</title>
<path fill="none" stroke="midnightblue" d="M650.613,-204.872C674.622,-214.481 704.676,-226.001 732,-235 742.582,-238.485 753.963,-241.883 764.972,-244.994"/>
<polygon fill="midnightblue" stroke="midnightblue" points="651.639,-201.512 641.056,-201.021 649.023,-208.005 651.639,-201.512"/>
</g>
<!-- Node8 -->
<g id="node8" class="node"><title>Node8</title>
<g id="a_node8"><a xlink:href="../../df/dc2/classcommands_1_1expression_commands_1_1_negative_command.html" target="_top" xlink:title="commands.expressionCommands.\lNegativeCommand">
<polygon fill="white" stroke="black" points="732,-196 732,-226 916,-226 916,-196 732,-196"/>
<text text-anchor="start" x="740" y="-214" font-family="Helvetica,sans-Serif" font-size="10.00">commands.expressionCommands.</text>
<text text-anchor="middle" x="824" y="-203" font-family="Helvetica,sans-Serif" font-size="10.00">NegativeCommand</text>
</a>
</g>
</g>
<!-- Node1&#45;&gt;Node8 -->
<g id="edge7" class="edge"><title>Node1&#45;&gt;Node8</title>
<path fill="none" stroke="midnightblue" d="M706.186,-197.604C714.739,-198.585 723.357,-199.573 731.826,-200.544"/>
<polygon fill="midnightblue" stroke="midnightblue" points="706.522,-194.12 696.188,-196.457 705.725,-201.074 706.522,-194.12"/>
</g>
<!-- Node9 -->
<g id="node9" class="node"><title>Node9</title>
<g id="a_node9"><a xlink:href="../../d4/d2f/classcommands_1_1expression_commands_1_1_not_command.html" target="_top" xlink:title="commands.expressionCommands.\lNotCommand">
<polygon fill="white" stroke="black" points="732,-147 732,-177 916,-177 916,-147 732,-147"/>
<text text-anchor="start" x="740" y="-165" font-family="Helvetica,sans-Serif" font-size="10.00">commands.expressionCommands.</text>
<text text-anchor="middle" x="824" y="-154" font-family="Helvetica,sans-Serif" font-size="10.00">NotCommand</text>
</a>
</g>
</g>
<!-- Node1&#45;&gt;Node9 -->
<g id="edge8" class="edge"><title>Node1&#45;&gt;Node9</title>
<path fill="none" stroke="midnightblue" d="M706.186,-174.86C714.739,-173.919 723.357,-172.97 731.826,-172.037"/>
<polygon fill="midnightblue" stroke="midnightblue" points="705.745,-171.388 696.188,-175.961 706.511,-178.345 705.745,-171.388"/>
</g>
<!-- Node10 -->
<g id="node10" class="node"><title>Node10</title>
<g id="a_node10"><a xlink:href="../../da/d7f/classcommands_1_1expression_commands_1_1_random_integer_command.html" target="_top" xlink:title="commands.expressionCommands.\lRandomIntegerCommand">
<polygon fill="white" stroke="black" points="732,-98 732,-128 916,-128 916,-98 732,-98"/>
<text text-anchor="start" x="740" y="-116" font-family="Helvetica,sans-Serif" font-size="10.00">commands.expressionCommands.</text>
<text text-anchor="middle" x="824" y="-105" font-family="Helvetica,sans-Serif" font-size="10.00">RandomIntegerCommand</text>
</a>
</g>
</g>
<!-- Node1&#45;&gt;Node10 -->
<g id="edge9" class="edge"><title>Node1&#45;&gt;Node10</title>
<path fill="none" stroke="midnightblue" d="M650.315,-167.117C674.357,-157.456 704.531,-145.891 732,-137 741.638,-133.88 751.945,-130.864 762.032,-128.084"/>
<polygon fill="midnightblue" stroke="midnightblue" points="648.706,-163.992 640.75,-170.99 651.333,-170.481 648.706,-163.992"/>
</g>
<!-- Node11 -->
<g id="node11" class="node"><title>Node11</title>
<g id="a_node11"><a xlink:href="../../d8/d1f/classcommands_1_1expression_commands_1_1_sin_command.html" target="_top" xlink:title="commands.expressionCommands.\lSinCommand">
<polygon fill="white" stroke="black" points="732,-49 732,-79 916,-79 916,-49 732,-49"/>
<text text-anchor="start" x="740" y="-67" font-family="Helvetica,sans-Serif" font-size="10.00">commands.expressionCommands.</text>
<text text-anchor="middle" x="824" y="-56" font-family="Helvetica,sans-Serif" font-size="10.00">SinCommand</text>
</a>
</g>
</g>
<!-- Node1&#45;&gt;Node11 -->
<g id="edge10" class="edge"><title>Node1&#45;&gt;Node11</title>
<path fill="none" stroke="midnightblue" d="M627.949,-163.638C652.002,-141.387 691.819,-107.785 732,-88 738.889,-84.6077 746.316,-81.6521 753.851,-79.0872"/>
<polygon fill="midnightblue" stroke="midnightblue" points="625.311,-161.314 620.419,-170.712 630.104,-166.416 625.311,-161.314"/>
</g>
<!-- Node12 -->
<g id="node12" class="node"><title>Node12</title>
<g id="a_node12"><a xlink:href="../../d6/d9d/classcommands_1_1expression_commands_1_1_tan_command.html" target="_top" xlink:title="commands.expressionCommands.\lTanCommand">
<polygon fill="white" stroke="black" points="732,-0 732,-30 916,-30 916,-0 732,-0"/>
<text text-anchor="start" x="740" y="-18" font-family="Helvetica,sans-Serif" font-size="10.00">commands.expressionCommands.</text>
<text text-anchor="middle" x="824" y="-7" font-family="Helvetica,sans-Serif" font-size="10.00">TanCommand</text>
</a>
</g>
</g>
<!-- Node1&#45;&gt;Node12 -->
<g id="edge11" class="edge"><title>Node1&#45;&gt;Node12</title>
<path fill="none" stroke="midnightblue" d="M619.183,-161.942C639.811,-129.098 681.224,-70.6971 732,-39 737.544,-35.5391 743.577,-32.5739 749.811,-30.0338"/>
<polygon fill="midnightblue" stroke="midnightblue" points="615.95,-160.519 613.693,-170.871 621.913,-164.185 615.95,-160.519"/>
</g>
<!-- Node2 -->
<g id="node2" class="node"><title>Node2</title>
<g id="a_node2"><a xlink:href="../../dc/d85/classcommands_1_1expression_commands_1_1_expression_command.html" target="_top" xlink:title="commands.expressionCommands.\lExpressionCommand">
<polygon fill="white" stroke="black" points="292,-171 292,-201 476,-201 476,-171 292,-171"/>
<text text-anchor="start" x="300" y="-189" font-family="Helvetica,sans-Serif" font-size="10.00">commands.expressionCommands.</text>
<text text-anchor="middle" x="384" y="-178" font-family="Helvetica,sans-Serif" font-size="10.00">ExpressionCommand</text>
</a>
</g>
</g>
<!-- Node2&#45;&gt;Node1 -->
<g id="edge1" class="edge"><title>Node2&#45;&gt;Node1</title>
<path fill="none" stroke="midnightblue" d="M486.465,-186C494.927,-186 503.449,-186 511.826,-186"/>
<polygon fill="midnightblue" stroke="midnightblue" points="486.189,-182.5 476.188,-186 486.188,-189.5 486.189,-182.5"/>
</g>
<!-- Node3 -->
<g id="node3" class="node"><title>Node3</title>
<g id="a_node3"><a xlink:href="../../da/d90/classcommands_1_1_base_command.html" target="_top" xlink:title="commands.BaseCommand">
<polygon fill="white" stroke="black" points="108,-176.5 108,-195.5 256,-195.5 256,-176.5 108,-176.5"/>
<text text-anchor="middle" x="182" y="-183.5" font-family="Helvetica,sans-Serif" font-size="10.00">commands.BaseCommand</text>
</a>
</g>
</g>
<!-- Node3&#45;&gt;Node2 -->
<g id="edge2" class="edge"><title>Node3&#45;&gt;Node2</title>
<path fill="none" stroke="midnightblue" d="M266.232,-186C274.656,-186 283.244,-186 291.747,-186"/>
<polygon fill="midnightblue" stroke="midnightblue" points="266.054,-182.5 256.054,-186 266.054,-189.5 266.054,-182.5"/>
</g>
<!-- Node4 -->
<g id="node4" class="node"><title>Node4</title>
<polygon fill="white" stroke="#bfbfbf" points="0.5,-176.5 0.5,-195.5 71.5,-195.5 71.5,-176.5 0.5,-176.5"/>
<text text-anchor="middle" x="36" y="-183.5" font-family="Helvetica,sans-Serif" font-size="10.00">Serializable</text>
</g>
<!-- Node4&#45;&gt;Node3 -->
<g id="edge3" class="edge"><title>Node4&#45;&gt;Node3</title>
<path fill="none" stroke="midnightblue" d="M81.9439,-186C90.1703,-186 98.9482,-186 107.751,-186"/>
<polygon fill="midnightblue" stroke="midnightblue" points="81.8584,-182.5 71.8584,-186 81.8583,-189.5 81.8584,-182.5"/>
</g>
</g>
</svg>
        <g id="navigator" transform="translate(0 0)" fill="#404254">
                <rect fill="#f2f5e9" fill-opacity="0.5" stroke="#606060" stroke-width=".5" x="0" y="0" width="60" height="60"/>
                <use id="zoomplus" xlink:href="#zoomPlus" x="17" y="9" onmousedown="handleZoom(evt,'in')"/>
                <use id="zoomminus" xlink:href="#zoomMin" x="42" y="9" onmousedown="handleZoom(evt,'out')"/>
                <use id="reset" xlink:href="#resetDef" x="30" y="36" onmousedown="handleReset()"/>
                <g id="arrowUp" xlink:href="#dirArrow" transform="translate(30 24)" onmousedown="handlePan(0,-1)">
                  <use xlink:href="#rim" fill="#404040">
                        <set attributeName="fill" to="#808080" begin="arrowUp.mouseover" end="arrowUp.mouseout"/>
                  </use>
                  <path fill="none" stroke="white" stroke-width="1.5" d="M0,-3.0v7 M-2.5,-0.5L0,-3.0L2.5,-0.5"/>
                </g>
                <g id="arrowRight" xlink:href="#dirArrow" transform="rotate(90) translate(36 -43)" onmousedown="handlePan(1,0)">
                  <use xlink:href="#rim" fill="#404040">
                        <set attributeName="fill" to="#808080" begin="arrowRight.mouseover" end="arrowRight.mouseout"/>
                  </use>
                  <path fill="none" stroke="white" stroke-width="1.5" d="M0,-3.0v7 M-2.5,-0.5L0,-3.0L2.5,-0.5"/>
                </g>
                <g id="arrowDown" xlink:href="#dirArrow" transform="rotate(180) translate(-30 -48)" onmousedown="handlePan(0,1)">
                  <use xlink:href="#rim" fill="#404040">
                        <set attributeName="fill" to="#808080" begin="arrowDown.mouseover" end="arrowDown.mouseout"/>
                  </use>
                  <path fill="none" stroke="white" stroke-width="1.5" d="M0,-3.0v7 M-2.5,-0.5L0,-3.0L2.5,-0.5"/>
                </g>
                <g id="arrowLeft" xlink:href="#dirArrow" transform="rotate(270) translate(-36 17)" onmousedown="handlePan(-1,0)">
                  <use xlink:href="#rim" fill="#404040">
                        <set attributeName="fill" to="#808080" begin="arrowLeft.mouseover" end="arrowLeft.mouseout"/>
                  </use>
                  <path fill="none" stroke="white" stroke-width="1.5" d="M0,-3.0v7 M-2.5,-0.5L0,-3.0L2.5,-0.5"/>
                </g>
        </g>
        <svg viewBox="0 0 15 15" width="100%" height="30px" preserveAspectRatio="xMaxYMin meet">
         <g id="arrow_out" transform="scale(0.3 0.3)">
          <a xlink:href="classcommands_1_1expression_commands_1_1_one_expression_command__inherit__graph_org.svg" target="_base">
           <rect id="button" ry="5" rx="5" y="6" x="6" height="38" width="38"
                fill="#f2f5e9" fill-opacity="0.5" stroke="#606060" stroke-width="1.0"/>
           <path id="arrow"
             d="M 11.500037,31.436501 C 11.940474,20.09759 22.043105,11.32322 32.158766,21.979434 L 37.068811,17.246167 C 37.068811,17.246167 37.088388,32 37.088388,32 L 22.160133,31.978069 C 22.160133,31.978069 26.997745,27.140456 26.997745,27.140456 C 18.528582,18.264221 13.291696,25.230495 11.500037,31.436501 z"
             style="fill:#404040;"/>
          </a>
         </g>
        </svg>
</svg>
