<?xml version="1.0" encoding="UTF-8" standalone="no"?>
<!DOCTYPE svg PUBLIC "-//W3C//DTD SVG 1.1//EN"
 "http://www.w3.org/Graphics/SVG/1.1/DTD/svg11.dtd">
<!-- Generated by graphviz version 2.36.0 (20140111.2315)
 -->
<!-- Title: commands.turtleCommands.TurtleCommand.parseArguments Pages: 1 -->
<svg width="1140pt" height="304pt"
 viewBox="0.00 0.00 1140.00 304.00" xmlns="http://www.w3.org/2000/svg" xmlns:xlink="http://www.w3.org/1999/xlink">
<g id="graph0" class="graph" transform="scale(1 1) rotate(0) translate(4 300)">
<title>commands.turtleCommands.TurtleCommand.parseArguments</title>
<polygon fill="white" stroke="none" points="-4,4 -4,-300 1136,-300 1136,4 -4,4"/>
<!-- Node1 -->
<g id="node1" class="node"><title>Node1</title>
<polygon fill="#bfbfbf" stroke="black" points="0,-127 0,-157 176,-157 176,-127 0,-127"/>
<text text-anchor="start" x="8" y="-145" font-family="Helvetica,sans-Serif" font-size="10.00">commands.turtleCommands.</text>
<text text-anchor="middle" x="88" y="-134" font-family="Helvetica,sans-Serif" font-size="10.00">TurtleCommand.parseArguments</text>
</g>
<!-- Node2 -->
<g id="node2" class="node"><title>Node2</title>
<g id="a_node2"><a xlink:href="../../da/dc6/classcommand_parser_1_1_command_factory.html#a84097b97d8a8ff95b3118ebddff9f33a" target="_top" xlink:title="commandParser.CommandFactory.create\lCommand">
<polygon fill="white" stroke="black" points="436.5,-125 436.5,-155 651.5,-155 651.5,-125 436.5,-125"/>
<text text-anchor="start" x="444.5" y="-143" font-family="Helvetica,sans-Serif" font-size="10.00">commandParser.CommandFactory.create</text>
<text text-anchor="middle" x="544" y="-132" font-family="Helvetica,sans-Serif" font-size="10.00">Command</text>
</a>
</g>
</g>
<!-- Node1&#45;&gt;Node2 -->
<g id="edge1" class="edge"><title>Node1&#45;&gt;Node2</title>
<path fill="none" stroke="midnightblue" d="M117.873,-157.143C142.215,-169.006 178.364,-184.547 212,-191 294.059,-206.743 317.667,-205.242 400,-191 435.314,-184.891 473.456,-170.885 501.459,-159.093"/>
<polygon fill="midnightblue" stroke="midnightblue" points="503.112,-162.192 510.92,-155.031 500.35,-155.76 503.112,-162.192"/>
</g>
<!-- Node10 -->
<g id="node10" class="node"><title>Node10</title>
<g id="a_node10"><a xlink:href="../../d3/d03/classcommands_1_1turtle_commands_1_1_turtle_command.html#a62eae0742e5fa40775bdc157cb0efadb" target="_top" xlink:title="commands.turtleCommands.\lTurtleCommand.getArgumentCount">
<polygon fill="white" stroke="black" points="212,-152 212,-182 400,-182 400,-152 212,-152"/>
<text text-anchor="start" x="220" y="-170" font-family="Helvetica,sans-Serif" font-size="10.00">commands.turtleCommands.</text>
<text text-anchor="middle" x="306" y="-159" font-family="Helvetica,sans-Serif" font-size="10.00">TurtleCommand.getArgumentCount</text>
</a>
</g>
</g>
<!-- Node1&#45;&gt;Node10 -->
<g id="edge9" class="edge"><title>Node1&#45;&gt;Node10</title>
<path fill="none" stroke="midnightblue" d="M176.233,-152.096C184.648,-153.07 193.239,-154.065 201.789,-155.054"/>
<polygon fill="midnightblue" stroke="midnightblue" points="201.459,-158.539 211.795,-156.212 202.264,-151.586 201.459,-158.539"/>
</g>
<!-- Node11 -->
<g id="node11" class="node"><title>Node11</title>
<g id="a_node11"><a xlink:href="../../da/d90/classcommands_1_1_base_command.html#a85767c9546674c964eac77bb7d67e253" target="_top" xlink:title="commands.BaseCommand.get\lLeftoverString">
<polygon fill="white" stroke="black" points="222.5,-103 222.5,-133 389.5,-133 389.5,-103 222.5,-103"/>
<text text-anchor="start" x="230.5" y="-121" font-family="Helvetica,sans-Serif" font-size="10.00">commands.BaseCommand.get</text>
<text text-anchor="middle" x="306" y="-110" font-family="Helvetica,sans-Serif" font-size="10.00">LeftoverString</text>
</a>
</g>
</g>
<!-- Node1&#45;&gt;Node11 -->
<g id="edge10" class="edge"><title>Node1&#45;&gt;Node11</title>
<path fill="none" stroke="midnightblue" d="M176.233,-132.307C188.124,-130.986 200.365,-129.626 212.348,-128.295"/>
<polygon fill="midnightblue" stroke="midnightblue" points="212.788,-131.767 222.34,-127.184 212.015,-124.81 212.788,-131.767"/>
</g>
<!-- Node12 -->
<g id="node12" class="node"><title>Node12</title>
<g id="a_node12"><a xlink:href="../../da/d90/classcommands_1_1_base_command.html#a4f771af3c6b3345e720f2ef455e6d1e2" target="_top" xlink:title="commands.BaseCommand.set\lLeftoverCommands">
<polygon fill="white" stroke="black" points="223,-54 223,-84 389,-84 389,-54 223,-54"/>
<text text-anchor="start" x="231" y="-72" font-family="Helvetica,sans-Serif" font-size="10.00">commands.BaseCommand.set</text>
<text text-anchor="middle" x="306" y="-61" font-family="Helvetica,sans-Serif" font-size="10.00">LeftoverCommands</text>
</a>
</g>
</g>
<!-- Node1&#45;&gt;Node12 -->
<g id="edge11" class="edge"><title>Node1&#45;&gt;Node12</title>
<path fill="none" stroke="midnightblue" d="M123.297,-126.981C147.735,-116.615 181.52,-102.96 212,-93 218.496,-90.8773 225.296,-88.8192 232.135,-86.8593"/>
<polygon fill="midnightblue" stroke="midnightblue" points="233.464,-90.1223 242.154,-84.0621 231.581,-83.3802 233.464,-90.1223"/>
</g>
<!-- Node3 -->
<g id="node3" class="node"><title>Node3</title>
<g id="a_node3"><a xlink:href="../../d4/d05/classcommands_1_1information_1_1_base_user_defined_container.html#abbef8e1f3137aa92b5ca708b18981aac" target="_top" xlink:title="commands.information.Base\lUserDefinedContainer.containsCustom\lCommand">
<polygon fill="white" stroke="black" points="695.5,-254.5 695.5,-295.5 898.5,-295.5 898.5,-254.5 695.5,-254.5"/>
<text text-anchor="start" x="703.5" y="-283.5" font-family="Helvetica,sans-Serif" font-size="10.00">commands.information.Base</text>
<text text-anchor="start" x="703.5" y="-272.5" font-family="Helvetica,sans-Serif" font-size="10.00">UserDefinedContainer.containsCustom</text>
<text text-anchor="middle" x="797" y="-261.5" font-family="Helvetica,sans-Serif" font-size="10.00">Command</text>
</a>
</g>
</g>
<!-- Node2&#45;&gt;Node3 -->
<g id="edge2" class="edge"><title>Node2&#45;&gt;Node3</title>
<path fill="none" stroke="midnightblue" d="M561.299,-155.109C586.572,-177.771 637.577,-220.509 688,-245 692.261,-247.07 696.689,-249.017 701.212,-250.847"/>
<polygon fill="midnightblue" stroke="midnightblue" points="700.019,-254.138 710.609,-254.438 702.518,-247.599 700.019,-254.138"/>
</g>
<!-- Node5 -->
<g id="node5" class="node"><title>Node5</title>
<g id="a_node5"><a xlink:href="../../dd/df5/interfacecommands_1_1information_1_1_i_information_gateway.html#a7288ceac89a0755490d929dc28df39f0" target="_top" xlink:title="commands.information.IInformation\lGateway.getContainers">
<polygon fill="white" stroke="black" points="703,-206 703,-236 891,-236 891,-206 703,-206"/>
<text text-anchor="start" x="711" y="-224" font-family="Helvetica,sans-Serif" font-size="10.00">commands.information.IInformation</text>
<text text-anchor="middle" x="797" y="-213" font-family="Helvetica,sans-Serif" font-size="10.00">Gateway.getContainers</text>
</a>
</g>
</g>
<!-- Node2&#45;&gt;Node5 -->
<g id="edge4" class="edge"><title>Node2&#45;&gt;Node5</title>
<path fill="none" stroke="midnightblue" d="M579.174,-155.011C607.835,-167.204 650.052,-184.246 688,-196 696.573,-198.655 705.606,-201.173 714.648,-203.515"/>
<polygon fill="midnightblue" stroke="midnightblue" points="713.888,-206.933 724.441,-205.985 715.601,-200.145 713.888,-206.933"/>
</g>
<!-- Node6 -->
<g id="node6" class="node"><title>Node6</title>
<g id="a_node6"><a xlink:href="../../d4/d05/classcommands_1_1information_1_1_base_user_defined_container.html#a22a65948b69ed0032f4d904e13c69491" target="_top" xlink:title="commands.information.Base\lUserDefinedContainer.getCreated\lCommand">
<polygon fill="white" stroke="black" points="707.5,-146.5 707.5,-187.5 886.5,-187.5 886.5,-146.5 707.5,-146.5"/>
<text text-anchor="start" x="715.5" y="-175.5" font-family="Helvetica,sans-Serif" font-size="10.00">commands.information.Base</text>
<text text-anchor="start" x="715.5" y="-164.5" font-family="Helvetica,sans-Serif" font-size="10.00">UserDefinedContainer.getCreated</text>
<text text-anchor="middle" x="797" y="-153.5" font-family="Helvetica,sans-Serif" font-size="10.00">Command</text>
</a>
</g>
</g>
<!-- Node2&#45;&gt;Node6 -->
<g id="edge5" class="edge"><title>Node2&#45;&gt;Node6</title>
<path fill="none" stroke="midnightblue" d="M651.811,-151.49C666.88,-153.111 682.317,-154.771 697.226,-156.375"/>
<polygon fill="midnightblue" stroke="midnightblue" points="697.135,-159.885 707.452,-157.475 697.884,-152.925 697.135,-159.885"/>
</g>
<!-- Node7 -->
<g id="node7" class="node"><title>Node7</title>
<g id="a_node7"><a xlink:href="../../da/d90/classcommands_1_1_base_command.html#a03dca0b542f5be4aa804297cea2688b5" target="_top" xlink:title="commands.BaseCommand.get\lRequiredInformationTypes">
<polygon fill="white" stroke="black" points="713.5,-98 713.5,-128 880.5,-128 880.5,-98 713.5,-98"/>
<text text-anchor="start" x="721.5" y="-116" font-family="Helvetica,sans-Serif" font-size="10.00">commands.BaseCommand.get</text>
<text text-anchor="middle" x="797" y="-105" font-family="Helvetica,sans-Serif" font-size="10.00">RequiredInformationTypes</text>
</a>
</g>
</g>
<!-- Node2&#45;&gt;Node7 -->
<g id="edge6" class="edge"><title>Node2&#45;&gt;Node7</title>
<path fill="none" stroke="midnightblue" d="M651.811,-128.51C668.827,-126.68 686.312,-124.799 702.977,-123.006"/>
<polygon fill="midnightblue" stroke="midnightblue" points="703.668,-126.452 713.236,-121.903 702.919,-119.493 703.668,-126.452"/>
</g>
<!-- Node8 -->
<g id="node8" class="node"><title>Node8</title>
<g id="a_node8"><a xlink:href="../../da/dc6/classcommand_parser_1_1_command_factory.html#a5c750e1a1a32bd314bf662dd5cfdc951" target="_top" xlink:title="commandParser.CommandFactory.identify\lFirstCommand">
<polygon fill="white" stroke="black" points="688,-49 688,-79 906,-79 906,-49 688,-49"/>
<text text-anchor="start" x="696" y="-67" font-family="Helvetica,sans-Serif" font-size="10.00">commandParser.CommandFactory.identify</text>
<text text-anchor="middle" x="797" y="-56" font-family="Helvetica,sans-Serif" font-size="10.00">FirstCommand</text>
</a>
</g>
</g>
<!-- Node2&#45;&gt;Node8 -->
<g id="edge7" class="edge"><title>Node2&#45;&gt;Node8</title>
<path fill="none" stroke="midnightblue" d="M582.193,-124.964C610.799,-113.771 651.481,-98.6486 688,-88 695.886,-85.7006 704.151,-83.4997 712.448,-81.4286"/>
<polygon fill="midnightblue" stroke="midnightblue" points="713.295,-84.8248 722.183,-79.0587 711.639,-78.0235 713.295,-84.8248"/>
</g>
<!-- Node9 -->
<g id="node9" class="node"><title>Node9</title>
<g id="a_node9"><a xlink:href="../../da/d90/classcommands_1_1_base_command.html#aa64b92d5d7753574941c38218a271b0d" target="_top" xlink:title="commands.BaseCommand.set\lRequiredInformation">
<polygon fill="white" stroke="black" points="714,-0 714,-30 880,-30 880,-0 714,-0"/>
<text text-anchor="start" x="722" y="-18" font-family="Helvetica,sans-Serif" font-size="10.00">commands.BaseCommand.set</text>
<text text-anchor="middle" x="797" y="-7" font-family="Helvetica,sans-Serif" font-size="10.00">RequiredInformation</text>
</a>
</g>
</g>
<!-- Node2&#45;&gt;Node9 -->
<g id="edge8" class="edge"><title>Node2&#45;&gt;Node9</title>
<path fill="none" stroke="midnightblue" d="M561.677,-124.808C587.04,-102.539 637.696,-61.2717 688,-39 693.104,-36.7401 698.441,-34.684 703.893,-32.8146"/>
<polygon fill="midnightblue" stroke="midnightblue" points="705.344,-36.0255 713.804,-29.6475 703.213,-29.3577 705.344,-36.0255"/>
</g>
<!-- Node4 -->
<g id="node4" class="node"><title>Node4</title>
<g id="a_node4"><a xlink:href="../../d4/d05/classcommands_1_1information_1_1_base_user_defined_container.html#a2c1da98631c577bddaaa7f4ad5ae8aaa" target="_top" xlink:title="commands.information.Base\lUserDefinedContainer.getAllCustom\lCommands">
<polygon fill="white" stroke="black" points="942.5,-254.5 942.5,-295.5 1131.5,-295.5 1131.5,-254.5 942.5,-254.5"/>
<text text-anchor="start" x="950.5" y="-283.5" font-family="Helvetica,sans-Serif" font-size="10.00">commands.information.Base</text>
<text text-anchor="start" x="950.5" y="-272.5" font-family="Helvetica,sans-Serif" font-size="10.00">UserDefinedContainer.getAllCustom</text>
<text text-anchor="middle" x="1037" y="-261.5" font-family="Helvetica,sans-Serif" font-size="10.00">Commands</text>
</a>
</g>
</g>
<!-- Node3&#45;&gt;Node4 -->
<g id="edge3" class="edge"><title>Node3&#45;&gt;Node4</title>
<path fill="none" stroke="midnightblue" d="M898.588,-275C909.662,-275 920.953,-275 932.065,-275"/>
<polygon fill="midnightblue" stroke="midnightblue" points="932.21,-278.5 942.21,-275 932.21,-271.5 932.21,-278.5"/>
</g>
<!-- Node12&#45;&gt;Node2 -->
<g id="edge12" class="edge"><title>Node12&#45;&gt;Node2</title>
<path fill="none" stroke="midnightblue" d="M367.688,-84.0541C378.484,-86.9047 389.599,-89.9521 400,-93 430.041,-101.803 463.279,-112.659 490.144,-121.718"/>
<polygon fill="midnightblue" stroke="midnightblue" points="489.141,-125.074 499.735,-124.968 491.387,-118.444 489.141,-125.074"/>
</g>
</g>
</svg>
