<?xml version="1.0" encoding="UTF-8" standalone="no"?>
<!DOCTYPE svg PUBLIC "-//W3C//DTD SVG 1.1//EN"
 "http://www.w3.org/Graphics/SVG/1.1/DTD/svg11.dtd">
<!-- Generated by graphviz version 2.36.0 (20140111.2315)
 -->
<!-- Title: commands.turtleCommands.TurtleCommand.getTurtleContainer Pages: 1 -->
<!--zoomable 921 -->
<svg id="main" version="1.1" xmlns="http://www.w3.org/2000/svg" xmlns:xlink="http://www.w3.org/1999/xlink" xml:space="preserve" onload="init(evt)">
<style type="text/css"><![CDATA[
.edge:hover path { stroke: red; }
.edge:hover polygon { stroke: red; fill: red; }
]]></style>
<script type="text/javascript"><![CDATA[
var edges = document.getElementsByTagName('g');
if (edges && edges.length) {
  for (var i=0;i<edges.length;i++) {
    if (edges[i].id.substr(0,4)=='edge') {
      edges[i].setAttribute('class','edge');
    }
  }
}
]]></script>
        <defs>
                <circle id="rim" cx="0" cy="0" r="7"/>
                <circle id="rim2" cx="0" cy="0" r="3.5"/>
                <g id="zoomPlus">
                        <use xlink:href="#rim" fill="#404040">
                                <set attributeName="fill" to="#808080" begin="zoomplus.mouseover" end="zoomplus.mouseout"/>
                        </use>
                        <path d="M-4,0h8M0,-4v8" fill="none" stroke="white" stroke-width="1.5" pointer-events="none"/>
                </g>
                <g id="zoomMin">
                        <use xlink:href="#rim" fill="#404040">
                                <set attributeName="fill" to="#808080" begin="zoomminus.mouseover" end="zoomminus.mouseout"/>
                        </use>
                        <path d="M-4,0h8" fill="none" stroke="white" stroke-width="1.5" pointer-events="none"/>
                </g>
                <g id="dirArrow">
                        <path fill="none" stroke="white" stroke-width="1.5" d="M0,-3.0v7 M-2.5,-0.5L0,-3.0L2.5,-0.5"/>
                </g>
               <g id="resetDef">
                       <use xlink:href="#rim2" fill="#404040">
                               <set attributeName="fill" to="#808080" begin="reset.mouseover" end="reset.mouseout"/>
                       </use>
               </g>
        </defs>

<script type="text/javascript">
var viewWidth = 622;
var viewHeight = 921;
var sectionId = 'dynsection-5';
</script>
<script xlink:href="../../svgpan.js"/>
<svg id="graph" class="graph">
<g id="viewport">
<title>commands.turtleCommands.TurtleCommand.getTurtleContainer</title>
<polygon fill="white" stroke="none" points="-4,4 -4,-917 618,-917 618,4 -4,4"/>
<!-- Node1 -->
<g id="node1" class="node"><title>Node1</title>
<polygon fill="#bfbfbf" stroke="black" points="0.5,-441 0.5,-471 183.5,-471 183.5,-441 0.5,-441"/>
<text text-anchor="start" x="8.5" y="-459" font-family="Helvetica,sans-Serif" font-size="10.00">commands.turtleCommands.</text>
<text text-anchor="middle" x="92" y="-448" font-family="Helvetica,sans-Serif" font-size="10.00">TurtleCommand.getTurtleContainer</text>
</g>
<!-- Node2 -->
<g id="node2" class="node"><title>Node2</title>
<g id="a_node2"><a xlink:href="../../d9/d20/classcommands_1_1turtle_commands_1_1_multiple_turtle_command.html#a226d71bf1a9b6f4287eef7ee607e0742" target="_top" xlink:title="commands.turtleCommands.\lMultipleTurtleCommand.addFuture\lActiveTurtleTurtles">
<polygon fill="white" stroke="black" points="230,-871.5 230,-912.5 410,-912.5 410,-871.5 230,-871.5"/>
<text text-anchor="start" x="238" y="-900.5" font-family="Helvetica,sans-Serif" font-size="10.00">commands.turtleCommands.</text>
<text text-anchor="start" x="238" y="-889.5" font-family="Helvetica,sans-Serif" font-size="10.00">MultipleTurtleCommand.addFuture</text>
<text text-anchor="middle" x="320" y="-878.5" font-family="Helvetica,sans-Serif" font-size="10.00">ActiveTurtleTurtles</text>
</a>
</g>
</g>
<!-- Node1&#45;&gt;Node2 -->
<g id="edge1" class="edge"><title>Node1&#45;&gt;Node2</title>
<path fill="none" stroke="midnightblue" d="M93.5663,-481.137C96.4949,-550.671 114.208,-747.646 220,-857 225.45,-862.634 231.863,-867.363 238.761,-871.331"/>
<polygon fill="midnightblue" stroke="midnightblue" points="97.0629,-480.975 93.212,-471.105 90.0672,-481.222 97.0629,-480.975"/>
</g>
<!-- Node4 -->
<g id="node4" class="node"><title>Node4</title>
<g id="a_node4"><a xlink:href="../../d6/de1/classcommands_1_1turtle_commands_1_1_ask_command.html#af55174501ae461af21d6546f83cdc521" target="_top" xlink:title="commands.turtleCommands.\lAskCommand.onExecute">
<polygon fill="white" stroke="black" points="456,-828 456,-858 614,-858 614,-828 456,-828"/>
<text text-anchor="start" x="464" y="-846" font-family="Helvetica,sans-Serif" font-size="10.00">commands.turtleCommands.</text>
<text text-anchor="middle" x="535" y="-835" font-family="Helvetica,sans-Serif" font-size="10.00">AskCommand.onExecute</text>
</a>
</g>
</g>
<!-- Node1&#45;&gt;Node4 -->
<g id="edge19" class="edge"><title>Node1&#45;&gt;Node4</title>
<path fill="none" stroke="midnightblue" d="M92.9622,-481.451C94.3896,-549.868 108.706,-738.284 220,-823 255.695,-850.171 374.845,-850.709 455.666,-847.605"/>
<polygon fill="midnightblue" stroke="midnightblue" points="96.4585,-481.132 92.8291,-471.178 89.459,-481.223 96.4585,-481.132"/>
</g>
<!-- Node5 -->
<g id="node5" class="node"><title>Node5</title>
<g id="a_node5"><a xlink:href="../../dd/d29/classcommands_1_1view_queries_1_1_y_cor_query.html#a7696faaaf9f1945921769d65f2968918" target="_top" xlink:title="commands.viewQueries.YCor\lQuery.onExecute">
<polygon fill="white" stroke="black" points="242.5,-784 242.5,-814 397.5,-814 397.5,-784 242.5,-784"/>
<text text-anchor="start" x="250.5" y="-802" font-family="Helvetica,sans-Serif" font-size="10.00">commands.viewQueries.YCor</text>
<text text-anchor="middle" x="320" y="-791" font-family="Helvetica,sans-Serif" font-size="10.00">Query.onExecute</text>
</a>
</g>
</g>
<!-- Node1&#45;&gt;Node5 -->
<g id="edge4" class="edge"><title>Node1&#45;&gt;Node5</title>
<path fill="none" stroke="midnightblue" d="M95.4143,-481.138C102.579,-541.319 129.257,-694.557 220,-774 226.536,-779.722 234.196,-784.169 242.312,-787.62"/>
<polygon fill="midnightblue" stroke="midnightblue" points="98.8735,-480.576 94.2925,-471.022 91.9161,-481.347 98.8735,-480.576"/>
</g>
<!-- Node6 -->
<g id="node6" class="node"><title>Node6</title>
<g id="a_node6"><a xlink:href="../../d2/d08/classcommands_1_1view_queries_1_1_x_cor_query.html#a44c55e9da2eb3e1ed1347c6a78594c13" target="_top" xlink:title="commands.viewQueries.XCor\lQuery.onExecute">
<polygon fill="white" stroke="black" points="242.5,-735 242.5,-765 397.5,-765 397.5,-735 242.5,-735"/>
<text text-anchor="start" x="250.5" y="-753" font-family="Helvetica,sans-Serif" font-size="10.00">commands.viewQueries.XCor</text>
<text text-anchor="middle" x="320" y="-742" font-family="Helvetica,sans-Serif" font-size="10.00">Query.onExecute</text>
</a>
</g>
</g>
<!-- Node1&#45;&gt;Node6 -->
<g id="edge5" class="edge"><title>Node1&#45;&gt;Node6</title>
<path fill="none" stroke="midnightblue" d="M97.4654,-481.269C108.293,-534.808 141.092,-660.07 220,-725 226.639,-730.463 234.316,-734.753 242.399,-738.119"/>
<polygon fill="midnightblue" stroke="midnightblue" points="100.867,-480.422 95.5326,-471.267 93.9937,-481.75 100.867,-480.422"/>
</g>
<!-- Node7 -->
<g id="node7" class="node"><title>Node7</title>
<g id="a_node7"><a xlink:href="../../df/d1b/classcommands_1_1turtle_commands_1_1_back_command.html#a2f60b951011f138ae8916447519fe166" target="_top" xlink:title="commands.turtleCommands.\lBackCommand.onExecute">
<polygon fill="white" stroke="black" points="241,-686 241,-716 399,-716 399,-686 241,-686"/>
<text text-anchor="start" x="249" y="-704" font-family="Helvetica,sans-Serif" font-size="10.00">commands.turtleCommands.</text>
<text text-anchor="middle" x="320" y="-693" font-family="Helvetica,sans-Serif" font-size="10.00">BackCommand.onExecute</text>
</a>
</g>
</g>
<!-- Node1&#45;&gt;Node7 -->
<g id="edge6" class="edge"><title>Node1&#45;&gt;Node7</title>
<path fill="none" stroke="midnightblue" d="M100.169,-480.771C114.773,-526.677 152.439,-624.927 220,-676 226.293,-680.757 233.389,-684.616 240.82,-687.745"/>
<polygon fill="midnightblue" stroke="midnightblue" points="103.462,-479.571 97.1733,-471.044 96.772,-481.631 103.462,-479.571"/>
</g>
<!-- Node8 -->
<g id="node8" class="node"><title>Node8</title>
<g id="a_node8"><a xlink:href="../../d5/dea/classcommands_1_1turtle_commands_1_1_number_of_turtles_command.html#aa0091aa4a3148089f959da1270e88c0d" target="_top" xlink:title="commands.turtleCommands.\lNumberOfTurtlesCommand.onExecute">
<polygon fill="white" stroke="black" points="220,-637 220,-667 420,-667 420,-637 220,-637"/>
<text text-anchor="start" x="228" y="-655" font-family="Helvetica,sans-Serif" font-size="10.00">commands.turtleCommands.</text>
<text text-anchor="middle" x="320" y="-644" font-family="Helvetica,sans-Serif" font-size="10.00">NumberOfTurtlesCommand.onExecute</text>
</a>
</g>
</g>
<!-- Node1&#45;&gt;Node8 -->
<g id="edge7" class="edge"><title>Node1&#45;&gt;Node8</title>
<path fill="none" stroke="midnightblue" d="M104.19,-480.24C122.762,-517.694 163.573,-589.246 220,-627 225.82,-630.894 232.2,-634.181 238.83,-636.957"/>
<polygon fill="midnightblue" stroke="midnightblue" points="107.256,-478.54 99.7485,-471.064 100.955,-481.59 107.256,-478.54"/>
</g>
<!-- Node9 -->
<g id="node9" class="node"><title>Node9</title>
<g id="a_node9"><a xlink:href="../../df/d9a/classcommands_1_1view_queries_1_1_heading_query.html#acf74ab2c96e2c261837f9a6df863d4b1" target="_top" xlink:title="commands.viewQueries.Heading\lQuery.onExecute">
<polygon fill="white" stroke="black" points="233.5,-588 233.5,-618 406.5,-618 406.5,-588 233.5,-588"/>
<text text-anchor="start" x="241.5" y="-606" font-family="Helvetica,sans-Serif" font-size="10.00">commands.viewQueries.Heading</text>
<text text-anchor="middle" x="320" y="-595" font-family="Helvetica,sans-Serif" font-size="10.00">Query.onExecute</text>
</a>
</g>
</g>
<!-- Node1&#45;&gt;Node9 -->
<g id="edge8" class="edge"><title>Node1&#45;&gt;Node9</title>
<path fill="none" stroke="midnightblue" d="M110.83,-479.337C133.275,-507.064 174.446,-552.737 220,-578 226.976,-581.869 234.559,-585.15 242.319,-587.93"/>
<polygon fill="midnightblue" stroke="midnightblue" points="113.444,-477 104.482,-471.35 107.965,-481.356 113.444,-477"/>
</g>
<!-- Node10 -->
<g id="node10" class="node"><title>Node10</title>
<g id="a_node10"><a xlink:href="../../dd/db2/classcommands_1_1turtle_commands_1_1_right_command.html#a0eddcf5dbe1361c0dab5433a3f42aae7" target="_top" xlink:title="commands.turtleCommands.\lRightCommand.onExecute">
<polygon fill="white" stroke="black" points="241,-539 241,-569 399,-569 399,-539 241,-539"/>
<text text-anchor="start" x="249" y="-557" font-family="Helvetica,sans-Serif" font-size="10.00">commands.turtleCommands.</text>
<text text-anchor="middle" x="320" y="-546" font-family="Helvetica,sans-Serif" font-size="10.00">RightCommand.onExecute</text>
</a>
</g>
</g>
<!-- Node1&#45;&gt;Node10 -->
<g id="edge9" class="edge"><title>Node1&#45;&gt;Node10</title>
<path fill="none" stroke="midnightblue" d="M123.642,-476.821C148.638,-493.002 185.357,-514.981 220,-529 229.284,-532.757 239.293,-536.073 249.254,-538.961"/>
<polygon fill="midnightblue" stroke="midnightblue" points="125.27,-473.704 114.988,-471.148 121.432,-479.558 125.27,-473.704"/>
</g>
<!-- Node11 -->
<g id="node11" class="node"><title>Node11</title>
<g id="a_node11"><a xlink:href="../../da/db6/classcommands_1_1turtle_commands_1_1_forward_command.html#a804cd1b0300e3c10498b66ea5edeb18c" target="_top" xlink:title="commands.turtleCommands.\lForwardCommand.onExecute">
<polygon fill="white" stroke="black" points="241,-490 241,-520 399,-520 399,-490 241,-490"/>
<text text-anchor="start" x="249" y="-508" font-family="Helvetica,sans-Serif" font-size="10.00">commands.turtleCommands.</text>
<text text-anchor="middle" x="320" y="-497" font-family="Helvetica,sans-Serif" font-size="10.00">ForwardCommand.onExecute</text>
</a>
</g>
</g>
<!-- Node1&#45;&gt;Node11 -->
<g id="edge10" class="edge"><title>Node1&#45;&gt;Node11</title>
<path fill="none" stroke="midnightblue" d="M172.263,-473.185C197.535,-478.665 225.286,-484.682 249.788,-489.994"/>
<polygon fill="midnightblue" stroke="midnightblue" points="172.858,-469.733 162.343,-471.035 171.375,-476.574 172.858,-469.733"/>
</g>
<!-- Node12 -->
<g id="node12" class="node"><title>Node12</title>
<g id="a_node12"><a xlink:href="../../d5/d5b/classcommands_1_1turtle_commands_1_1_set_heading_command.html#a5e2f849ee53234e4f095c3a5db842222" target="_top" xlink:title="commands.turtleCommands.\lSetHeadingCommand.onExecute">
<polygon fill="white" stroke="black" points="232,-441 232,-471 408,-471 408,-441 232,-441"/>
<text text-anchor="start" x="240" y="-459" font-family="Helvetica,sans-Serif" font-size="10.00">commands.turtleCommands.</text>
<text text-anchor="middle" x="320" y="-448" font-family="Helvetica,sans-Serif" font-size="10.00">SetHeadingCommand.onExecute</text>
</a>
</g>
</g>
<!-- Node1&#45;&gt;Node12 -->
<g id="edge11" class="edge"><title>Node1&#45;&gt;Node12</title>
<path fill="none" stroke="midnightblue" d="M193.715,-456C206.372,-456 219.237,-456 231.665,-456"/>
<polygon fill="midnightblue" stroke="midnightblue" points="193.621,-452.5 183.621,-456 193.621,-459.5 193.621,-452.5"/>
</g>
<!-- Node13 -->
<g id="node13" class="node"><title>Node13</title>
<g id="a_node13"><a xlink:href="../../db/d66/classcommands_1_1turtle_commands_1_1_left_command.html#ad05f5e31458463730a6a78444f481db3" target="_top" xlink:title="commands.turtleCommands.\lLeftCommand.onExecute">
<polygon fill="white" stroke="black" points="241,-392 241,-422 399,-422 399,-392 241,-392"/>
<text text-anchor="start" x="249" y="-410" font-family="Helvetica,sans-Serif" font-size="10.00">commands.turtleCommands.</text>
<text text-anchor="middle" x="320" y="-399" font-family="Helvetica,sans-Serif" font-size="10.00">LeftCommand.onExecute</text>
</a>
</g>
</g>
<!-- Node1&#45;&gt;Node13 -->
<g id="edge12" class="edge"><title>Node1&#45;&gt;Node13</title>
<path fill="none" stroke="midnightblue" d="M172.263,-438.815C197.535,-433.335 225.286,-427.318 249.788,-422.006"/>
<polygon fill="midnightblue" stroke="midnightblue" points="171.375,-435.426 162.343,-440.965 172.858,-442.267 171.375,-435.426"/>
</g>
<!-- Node14 -->
<g id="node14" class="node"><title>Node14</title>
<g id="a_node14"><a xlink:href="../../dd/d47/classcommands_1_1view_commands_1_1_hide_turtle_command.html#ae576730cb9ad5d764e58521e520ae61a" target="_top" xlink:title="commands.viewCommands.Hide\lTurtleCommand.onExecute">
<polygon fill="white" stroke="black" points="233,-343 233,-373 407,-373 407,-343 233,-343"/>
<text text-anchor="start" x="241" y="-361" font-family="Helvetica,sans-Serif" font-size="10.00">commands.viewCommands.Hide</text>
<text text-anchor="middle" x="320" y="-350" font-family="Helvetica,sans-Serif" font-size="10.00">TurtleCommand.onExecute</text>
</a>
</g>
</g>
<!-- Node1&#45;&gt;Node14 -->
<g id="edge13" class="edge"><title>Node1&#45;&gt;Node14</title>
<path fill="none" stroke="midnightblue" d="M123.642,-435.179C148.638,-418.998 185.357,-397.019 220,-383 229.284,-379.243 239.293,-375.927 249.254,-373.039"/>
<polygon fill="midnightblue" stroke="midnightblue" points="121.432,-432.442 114.988,-440.852 125.27,-438.296 121.432,-432.442"/>
</g>
<!-- Node15 -->
<g id="node15" class="node"><title>Node15</title>
<g id="a_node15"><a xlink:href="../../df/d5c/classcommands_1_1view_commands_1_1_show_turtle_command.html#a0b9a1c9976d375d5a7d63b03b0ed83d4" target="_top" xlink:title="commands.viewCommands.Show\lTurtleCommand.onExecute">
<polygon fill="white" stroke="black" points="231,-294 231,-324 409,-324 409,-294 231,-294"/>
<text text-anchor="start" x="239" y="-312" font-family="Helvetica,sans-Serif" font-size="10.00">commands.viewCommands.Show</text>
<text text-anchor="middle" x="320" y="-301" font-family="Helvetica,sans-Serif" font-size="10.00">TurtleCommand.onExecute</text>
</a>
</g>
</g>
<!-- Node1&#45;&gt;Node15 -->
<g id="edge14" class="edge"><title>Node1&#45;&gt;Node15</title>
<path fill="none" stroke="midnightblue" d="M110.83,-432.663C133.275,-404.936 174.446,-359.263 220,-334 226.976,-330.131 234.559,-326.85 242.319,-324.07"/>
<polygon fill="midnightblue" stroke="midnightblue" points="107.965,-430.644 104.482,-440.65 113.444,-435 107.965,-430.644"/>
</g>
<!-- Node16 -->
<g id="node16" class="node"><title>Node16</title>
<g id="a_node16"><a xlink:href="../../d4/d3f/classcommands_1_1turtle_commands_1_1_i_d_command.html#aa6bb976aa3927f85d3f009b4e4e2e253" target="_top" xlink:title="commands.turtleCommands.\lIDCommand.onExecute">
<polygon fill="white" stroke="black" points="241,-245 241,-275 399,-275 399,-245 241,-245"/>
<text text-anchor="start" x="249" y="-263" font-family="Helvetica,sans-Serif" font-size="10.00">commands.turtleCommands.</text>
<text text-anchor="middle" x="320" y="-252" font-family="Helvetica,sans-Serif" font-size="10.00">IDCommand.onExecute</text>
</a>
</g>
</g>
<!-- Node1&#45;&gt;Node16 -->
<g id="edge15" class="edge"><title>Node1&#45;&gt;Node16</title>
<path fill="none" stroke="midnightblue" d="M104.19,-431.76C122.762,-394.306 163.573,-322.754 220,-285 226.409,-280.712 233.498,-277.159 240.852,-274.216"/>
<polygon fill="midnightblue" stroke="midnightblue" points="100.955,-430.41 99.7485,-440.936 107.256,-433.46 100.955,-430.41"/>
</g>
<!-- Node17 -->
<g id="node17" class="node"><title>Node17</title>
<g id="a_node17"><a xlink:href="../../df/d55/classcommands_1_1view_commands_1_1_clear_screen_command.html#ae22b9c821c2d07903bdcea4eaad1f959" target="_top" xlink:title="commands.viewCommands.Clear\lScreenCommand.onExecute">
<polygon fill="white" stroke="black" points="231.5,-196 231.5,-226 408.5,-226 408.5,-196 231.5,-196"/>
<text text-anchor="start" x="239.5" y="-214" font-family="Helvetica,sans-Serif" font-size="10.00">commands.viewCommands.Clear</text>
<text text-anchor="middle" x="320" y="-203" font-family="Helvetica,sans-Serif" font-size="10.00">ScreenCommand.onExecute</text>
</a>
</g>
</g>
<!-- Node1&#45;&gt;Node17 -->
<g id="edge16" class="edge"><title>Node1&#45;&gt;Node17</title>
<path fill="none" stroke="midnightblue" d="M100.169,-431.229C114.773,-385.323 152.439,-287.073 220,-236 225.091,-232.152 230.708,-228.891 236.602,-226.129"/>
<polygon fill="midnightblue" stroke="midnightblue" points="96.772,-430.369 97.1733,-440.956 103.462,-432.429 96.772,-430.369"/>
</g>
<!-- Node18 -->
<g id="node18" class="node"><title>Node18</title>
<g id="a_node18"><a xlink:href="../../d2/d96/classcommands_1_1turtle_commands_1_1_towards_command.html#acf88e2411c3dbf606349900a9dea4727" target="_top" xlink:title="commands.turtleCommands.\lTowardsCommand.onExecute">
<polygon fill="white" stroke="black" points="241,-147 241,-177 399,-177 399,-147 241,-147"/>
<text text-anchor="start" x="249" y="-165" font-family="Helvetica,sans-Serif" font-size="10.00">commands.turtleCommands.</text>
<text text-anchor="middle" x="320" y="-154" font-family="Helvetica,sans-Serif" font-size="10.00">TowardsCommand.onExecute</text>
</a>
</g>
</g>
<!-- Node1&#45;&gt;Node18 -->
<g id="edge17" class="edge"><title>Node1&#45;&gt;Node18</title>
<path fill="none" stroke="midnightblue" d="M97.4654,-430.731C108.293,-377.192 141.092,-251.93 220,-187 226.16,-181.931 233.213,-177.872 240.655,-174.624"/>
<polygon fill="midnightblue" stroke="midnightblue" points="93.9937,-430.25 95.5326,-440.733 100.867,-431.578 93.9937,-430.25"/>
</g>
<!-- Node19 -->
<g id="node19" class="node"><title>Node19</title>
<g id="a_node19"><a xlink:href="../../d9/d14/classcommands_1_1turtle_commands_1_1_set_position_command.html#a1ff02e56e7927a1002a7412040c98e77" target="_top" xlink:title="commands.turtleCommands.\lSetPositionCommand.onExecute">
<polygon fill="white" stroke="black" points="233,-98 233,-128 407,-128 407,-98 233,-98"/>
<text text-anchor="start" x="241" y="-116" font-family="Helvetica,sans-Serif" font-size="10.00">commands.turtleCommands.</text>
<text text-anchor="middle" x="320" y="-105" font-family="Helvetica,sans-Serif" font-size="10.00">SetPositionCommand.onExecute</text>
</a>
</g>
</g>
<!-- Node1&#45;&gt;Node19 -->
<g id="edge18" class="edge"><title>Node1&#45;&gt;Node19</title>
<path fill="none" stroke="midnightblue" d="M95.4143,-430.862C102.579,-370.681 129.257,-217.443 220,-138 224.402,-134.147 229.313,-130.871 234.531,-128.089"/>
<polygon fill="midnightblue" stroke="midnightblue" points="91.9161,-430.653 94.2925,-440.978 98.8735,-431.424 91.9161,-430.653"/>
</g>
<!-- Node20 -->
<g id="node20" class="node"><title>Node20</title>
<g id="a_node20"><a xlink:href="../../db/dc5/classcommands_1_1view_commands_1_1_home_command.html#a91670541a28ed18996a9bc3433029857" target="_top" xlink:title="commands.viewCommands.Home\lCommand.onExecute">
<polygon fill="white" stroke="black" points="229,-49 229,-79 411,-79 411,-49 229,-49"/>
<text text-anchor="start" x="237" y="-67" font-family="Helvetica,sans-Serif" font-size="10.00">commands.viewCommands.Home</text>
<text text-anchor="middle" x="320" y="-56" font-family="Helvetica,sans-Serif" font-size="10.00">Command.onExecute</text>
</a>
</g>
</g>
<!-- Node1&#45;&gt;Node20 -->
<g id="edge20" class="edge"><title>Node1&#45;&gt;Node20</title>
<path fill="none" stroke="midnightblue" d="M93.9026,-430.705C97.6947,-364.207 117.418,-183.138 220,-89 224.18,-85.1645 228.861,-81.8973 233.854,-79.1162"/>
<polygon fill="midnightblue" stroke="midnightblue" points="90.4061,-430.549 93.4058,-440.711 97.3975,-430.896 90.4061,-430.549"/>
</g>
<!-- Node21 -->
<g id="node21" class="node"><title>Node21</title>
<g id="a_node21"><a xlink:href="../../d5/d06/classcommands_1_1turtle_commands_1_1_ask_with_command.html#a07b217e59066d96b04c498c1be9b905a" target="_top" xlink:title="commands.turtleCommands.\lAskWithCommand.onExecute">
<polygon fill="white" stroke="black" points="241,-0 241,-30 399,-30 399,-0 241,-0"/>
<text text-anchor="start" x="249" y="-18" font-family="Helvetica,sans-Serif" font-size="10.00">commands.turtleCommands.</text>
<text text-anchor="middle" x="320" y="-7" font-family="Helvetica,sans-Serif" font-size="10.00">AskWithCommand.onExecute</text>
</a>
</g>
</g>
<!-- Node1&#45;&gt;Node21 -->
<g id="edge21" class="edge"><title>Node1&#45;&gt;Node21</title>
<path fill="none" stroke="midnightblue" d="M92.7101,-430.404C93.3491,-357.838 105.54,-148.99 220,-40 226.034,-34.2545 233.189,-29.7761 240.851,-26.293"/>
<polygon fill="midnightblue" stroke="midnightblue" points="89.2095,-430.838 92.6928,-440.844 96.2095,-430.85 89.2095,-430.838"/>
</g>
<!-- Node3 -->
<g id="node3" class="node"><title>Node3</title>
<g id="a_node3"><a xlink:href="../../d3/d71/classcommands_1_1turtle_commands_1_1_tell_command.html#aa72781f5952898b86ddd628eddb559c3" target="_top" xlink:title="commands.turtleCommands.\lTellCommand.onExecute">
<polygon fill="white" stroke="black" points="456,-877 456,-907 614,-907 614,-877 456,-877"/>
<text text-anchor="start" x="464" y="-895" font-family="Helvetica,sans-Serif" font-size="10.00">commands.turtleCommands.</text>
<text text-anchor="middle" x="535" y="-884" font-family="Helvetica,sans-Serif" font-size="10.00">TellCommand.onExecute</text>
</a>
</g>
</g>
<!-- Node2&#45;&gt;Node3 -->
<g id="edge2" class="edge"><title>Node2&#45;&gt;Node3</title>
<path fill="none" stroke="midnightblue" d="M420.103,-892C432.066,-892 444.154,-892 455.759,-892"/>
<polygon fill="midnightblue" stroke="midnightblue" points="420.097,-888.5 410.097,-892 420.097,-895.5 420.097,-888.5"/>
</g>
<!-- Node2&#45;&gt;Node4 -->
<g id="edge3" class="edge"><title>Node2&#45;&gt;Node4</title>
<path fill="none" stroke="midnightblue" d="M420.265,-869.164C436.666,-865.391 453.296,-861.566 468.591,-858.047"/>
<polygon fill="midnightblue" stroke="midnightblue" points="419.058,-865.851 410.097,-871.504 420.627,-872.672 419.058,-865.851"/>
</g>
</g>
</svg>
        <g id="navigator" transform="translate(0 0)" fill="#404254">
                <rect fill="#f2f5e9" fill-opacity="0.5" stroke="#606060" stroke-width=".5" x="0" y="0" width="60" height="60"/>
                <use id="zoomplus" xlink:href="#zoomPlus" x="17" y="9" onmousedown="handleZoom(evt,'in')"/>
                <use id="zoomminus" xlink:href="#zoomMin" x="42" y="9" onmousedown="handleZoom(evt,'out')"/>
                <use id="reset" xlink:href="#resetDef" x="30" y="36" onmousedown="handleReset()"/>
                <g id="arrowUp" xlink:href="#dirArrow" transform="translate(30 24)" onmousedown="handlePan(0,-1)">
                  <use xlink:href="#rim" fill="#404040">
                        <set attributeName="fill" to="#808080" begin="arrowUp.mouseover" end="arrowUp.mouseout"/>
                  </use>
                  <path fill="none" stroke="white" stroke-width="1.5" d="M0,-3.0v7 M-2.5,-0.5L0,-3.0L2.5,-0.5"/>
                </g>
                <g id="arrowRight" xlink:href="#dirArrow" transform="rotate(90) translate(36 -43)" onmousedown="handlePan(1,0)">
                  <use xlink:href="#rim" fill="#404040">
                        <set attributeName="fill" to="#808080" begin="arrowRight.mouseover" end="arrowRight.mouseout"/>
                  </use>
                  <path fill="none" stroke="white" stroke-width="1.5" d="M0,-3.0v7 M-2.5,-0.5L0,-3.0L2.5,-0.5"/>
                </g>
                <g id="arrowDown" xlink:href="#dirArrow" transform="rotate(180) translate(-30 -48)" onmousedown="handlePan(0,1)">
                  <use xlink:href="#rim" fill="#404040">
                        <set attributeName="fill" to="#808080" begin="arrowDown.mouseover" end="arrowDown.mouseout"/>
                  </use>
                  <path fill="none" stroke="white" stroke-width="1.5" d="M0,-3.0v7 M-2.5,-0.5L0,-3.0L2.5,-0.5"/>
                </g>
                <g id="arrowLeft" xlink:href="#dirArrow" transform="rotate(270) translate(-36 17)" onmousedown="handlePan(-1,0)">
                  <use xlink:href="#rim" fill="#404040">
                        <set attributeName="fill" to="#808080" begin="arrowLeft.mouseover" end="arrowLeft.mouseout"/>
                  </use>
                  <path fill="none" stroke="white" stroke-width="1.5" d="M0,-3.0v7 M-2.5,-0.5L0,-3.0L2.5,-0.5"/>
                </g>
        </g>
        <svg viewBox="0 0 15 15" width="100%" height="30px" preserveAspectRatio="xMaxYMin meet">
         <g id="arrow_out" transform="scale(0.3 0.3)">
          <a xlink:href="classcommands_1_1turtle_commands_1_1_turtle_command_a82f290b3a2e14029a8a525bafa35994f_icgraph_org.svg" target="_base">
           <rect id="button" ry="5" rx="5" y="6" x="6" height="38" width="38"
                fill="#f2f5e9" fill-opacity="0.5" stroke="#606060" stroke-width="1.0"/>
           <path id="arrow"
             d="M 11.500037,31.436501 C 11.940474,20.09759 22.043105,11.32322 32.158766,21.979434 L 37.068811,17.246167 C 37.068811,17.246167 37.088388,32 37.088388,32 L 22.160133,31.978069 C 22.160133,31.978069 26.997745,27.140456 26.997745,27.140456 C 18.528582,18.264221 13.291696,25.230495 11.500037,31.436501 z"
             style="fill:#404040;"/>
          </a>
         </g>
        </svg>
</svg>
