<?xml version="1.0" encoding="UTF-8" standalone="no"?>
<!DOCTYPE svg PUBLIC "-//W3C//DTD SVG 1.1//EN"
 "http://www.w3.org/Graphics/SVG/1.1/DTD/svg11.dtd">
<!-- Generated by graphviz version 2.36.0 (20140111.2315)
 -->
<!-- Title: commands.turtleCommands.TurtleCommand.getGridContainer Pages: 1 -->
<svg width="598pt" height="508pt"
 viewBox="0.00 0.00 598.00 508.00" xmlns="http://www.w3.org/2000/svg" xmlns:xlink="http://www.w3.org/1999/xlink">
<g id="graph0" class="graph" transform="scale(1 1) rotate(0) translate(4 504)">
<title>commands.turtleCommands.TurtleCommand.getGridContainer</title>
<polygon fill="white" stroke="none" points="-4,4 -4,-504 594,-504 594,4 -4,4"/>
<!-- Node1 -->
<g id="node1" class="node"><title>Node1</title>
<polygon fill="#bfbfbf" stroke="black" points="0.5,-220 0.5,-250 177.5,-250 177.5,-220 0.5,-220"/>
<text text-anchor="start" x="8.5" y="-238" font-family="Helvetica,sans-Serif" font-size="10.00">commands.turtleCommands.</text>
<text text-anchor="middle" x="89" y="-227" font-family="Helvetica,sans-Serif" font-size="10.00">TurtleCommand.getGridContainer</text>
</g>
<!-- Node2 -->
<g id="node2" class="node"><title>Node2</title>
<g id="a_node2"><a xlink:href="../../d9/d20/classcommands_1_1turtle_commands_1_1_multiple_turtle_command.html#a226d71bf1a9b6f4287eef7ee607e0742" target="_top" xlink:title="commands.turtleCommands.\lMultipleTurtleCommand.addFuture\lActiveTurtleTurtles">
<polygon fill="white" stroke="black" points="215,-440.5 215,-481.5 395,-481.5 395,-440.5 215,-440.5"/>
<text text-anchor="start" x="223" y="-469.5" font-family="Helvetica,sans-Serif" font-size="10.00">commands.turtleCommands.</text>
<text text-anchor="start" x="223" y="-458.5" font-family="Helvetica,sans-Serif" font-size="10.00">MultipleTurtleCommand.addFuture</text>
<text text-anchor="middle" x="305" y="-447.5" font-family="Helvetica,sans-Serif" font-size="10.00">ActiveTurtleTurtles</text>
</a>
</g>
</g>
<!-- Node1&#45;&gt;Node2 -->
<g id="edge1" class="edge"><title>Node1&#45;&gt;Node2</title>
<path fill="none" stroke="midnightblue" d="M99.1046,-259.568C115.653,-300.917 154.542,-384.449 214,-431 218.539,-434.554 223.519,-437.696 228.735,-440.474"/>
<polygon fill="midnightblue" stroke="midnightblue" points="102.363,-258.29 95.468,-250.245 95.8413,-260.833 102.363,-258.29"/>
</g>
<!-- Node5 -->
<g id="node5" class="node"><title>Node5</title>
<g id="a_node5"><a xlink:href="../../df/d1b/classcommands_1_1turtle_commands_1_1_back_command.html#a2f60b951011f138ae8916447519fe166" target="_top" xlink:title="commands.turtleCommands.\lBackCommand.onExecute">
<polygon fill="white" stroke="black" points="226,-392 226,-422 384,-422 384,-392 226,-392"/>
<text text-anchor="start" x="234" y="-410" font-family="Helvetica,sans-Serif" font-size="10.00">commands.turtleCommands.</text>
<text text-anchor="middle" x="305" y="-399" font-family="Helvetica,sans-Serif" font-size="10.00">BackCommand.onExecute</text>
</a>
</g>
</g>
<!-- Node1&#45;&gt;Node5 -->
<g id="edge4" class="edge"><title>Node1&#45;&gt;Node5</title>
<path fill="none" stroke="midnightblue" d="M103.765,-258.972C123.807,-291.714 164.128,-349.998 214,-382 220.005,-385.853 226.605,-389.121 233.417,-391.89"/>
<polygon fill="midnightblue" stroke="midnightblue" points="106.575,-256.852 98.4326,-250.072 100.57,-260.449 106.575,-256.852"/>
</g>
<!-- Node6 -->
<g id="node6" class="node"><title>Node6</title>
<g id="a_node6"><a xlink:href="../../db/d66/classcommands_1_1turtle_commands_1_1_left_command.html#ad05f5e31458463730a6a78444f481db3" target="_top" xlink:title="commands.turtleCommands.\lLeftCommand.onExecute">
<polygon fill="white" stroke="black" points="226,-343 226,-373 384,-373 384,-343 226,-343"/>
<text text-anchor="start" x="234" y="-361" font-family="Helvetica,sans-Serif" font-size="10.00">commands.turtleCommands.</text>
<text text-anchor="middle" x="305" y="-350" font-family="Helvetica,sans-Serif" font-size="10.00">LeftCommand.onExecute</text>
</a>
</g>
</g>
<!-- Node1&#45;&gt;Node6 -->
<g id="edge5" class="edge"><title>Node1&#45;&gt;Node6</title>
<path fill="none" stroke="midnightblue" d="M112.36,-257.281C135.808,-279.468 174.654,-313.02 214,-333 221.519,-336.818 229.696,-340.117 237.955,-342.949"/>
<polygon fill="midnightblue" stroke="midnightblue" points="114.656,-254.633 105.02,-250.229 109.806,-259.681 114.656,-254.633"/>
</g>
<!-- Node7 -->
<g id="node7" class="node"><title>Node7</title>
<g id="a_node7"><a xlink:href="../../dd/db2/classcommands_1_1turtle_commands_1_1_right_command.html#a0eddcf5dbe1361c0dab5433a3f42aae7" target="_top" xlink:title="commands.turtleCommands.\lRightCommand.onExecute">
<polygon fill="white" stroke="black" points="226,-294 226,-324 384,-324 384,-294 226,-294"/>
<text text-anchor="start" x="234" y="-312" font-family="Helvetica,sans-Serif" font-size="10.00">commands.turtleCommands.</text>
<text text-anchor="middle" x="305" y="-301" font-family="Helvetica,sans-Serif" font-size="10.00">RightCommand.onExecute</text>
</a>
</g>
</g>
<!-- Node1&#45;&gt;Node7 -->
<g id="edge6" class="edge"><title>Node1&#45;&gt;Node7</title>
<path fill="none" stroke="midnightblue" d="M134.506,-253.904C157.94,-263.521 187.286,-275.039 214,-284 224.301,-287.455 235.375,-290.814 246.111,-293.891"/>
<polygon fill="midnightblue" stroke="midnightblue" points="135.757,-250.634 125.178,-250.049 133.083,-257.103 135.757,-250.634"/>
</g>
<!-- Node8 -->
<g id="node8" class="node"><title>Node8</title>
<g id="a_node8"><a xlink:href="../../da/db6/classcommands_1_1turtle_commands_1_1_forward_command.html#a804cd1b0300e3c10498b66ea5edeb18c" target="_top" xlink:title="commands.turtleCommands.\lForwardCommand.onExecute">
<polygon fill="white" stroke="black" points="226,-245 226,-275 384,-275 384,-245 226,-245"/>
<text text-anchor="start" x="234" y="-263" font-family="Helvetica,sans-Serif" font-size="10.00">commands.turtleCommands.</text>
<text text-anchor="middle" x="305" y="-252" font-family="Helvetica,sans-Serif" font-size="10.00">ForwardCommand.onExecute</text>
</a>
</g>
</g>
<!-- Node1&#45;&gt;Node8 -->
<g id="edge7" class="edge"><title>Node1&#45;&gt;Node8</title>
<path fill="none" stroke="midnightblue" d="M187.805,-246.426C200.519,-247.911 213.407,-249.417 225.745,-250.858"/>
<polygon fill="midnightblue" stroke="midnightblue" points="187.998,-242.925 177.659,-245.241 187.186,-249.877 187.998,-242.925"/>
</g>
<!-- Node9 -->
<g id="node9" class="node"><title>Node9</title>
<g id="a_node9"><a xlink:href="../../d5/d5b/classcommands_1_1turtle_commands_1_1_set_heading_command.html#a5e2f849ee53234e4f095c3a5db842222" target="_top" xlink:title="commands.turtleCommands.\lSetHeadingCommand.onExecute">
<polygon fill="white" stroke="black" points="217,-196 217,-226 393,-226 393,-196 217,-196"/>
<text text-anchor="start" x="225" y="-214" font-family="Helvetica,sans-Serif" font-size="10.00">commands.turtleCommands.</text>
<text text-anchor="middle" x="305" y="-203" font-family="Helvetica,sans-Serif" font-size="10.00">SetHeadingCommand.onExecute</text>
</a>
</g>
</g>
<!-- Node1&#45;&gt;Node9 -->
<g id="edge8" class="edge"><title>Node1&#45;&gt;Node9</title>
<path fill="none" stroke="midnightblue" d="M187.723,-224.04C197.428,-222.952 207.235,-221.852 216.823,-220.777"/>
<polygon fill="midnightblue" stroke="midnightblue" points="187.207,-220.576 177.659,-225.169 187.987,-227.533 187.207,-220.576"/>
</g>
<!-- Node10 -->
<g id="node10" class="node"><title>Node10</title>
<g id="a_node10"><a xlink:href="../../df/d55/classcommands_1_1view_commands_1_1_clear_screen_command.html#ae22b9c821c2d07903bdcea4eaad1f959" target="_top" xlink:title="commands.viewCommands.Clear\lScreenCommand.onExecute">
<polygon fill="white" stroke="black" points="216.5,-147 216.5,-177 393.5,-177 393.5,-147 216.5,-147"/>
<text text-anchor="start" x="224.5" y="-165" font-family="Helvetica,sans-Serif" font-size="10.00">commands.viewCommands.Clear</text>
<text text-anchor="middle" x="305" y="-154" font-family="Helvetica,sans-Serif" font-size="10.00">ScreenCommand.onExecute</text>
</a>
</g>
</g>
<!-- Node1&#45;&gt;Node10 -->
<g id="edge9" class="edge"><title>Node1&#45;&gt;Node10</title>
<path fill="none" stroke="midnightblue" d="M135.304,-216.229C158.619,-206.885 187.616,-195.747 214,-187 224.467,-183.53 235.724,-180.139 246.612,-177.031"/>
<polygon fill="midnightblue" stroke="midnightblue" points="133.976,-212.991 126.012,-219.979 136.596,-219.482 133.976,-212.991"/>
</g>
<!-- Node11 -->
<g id="node11" class="node"><title>Node11</title>
<g id="a_node11"><a xlink:href="../../d2/d96/classcommands_1_1turtle_commands_1_1_towards_command.html#acf88e2411c3dbf606349900a9dea4727" target="_top" xlink:title="commands.turtleCommands.\lTowardsCommand.onExecute">
<polygon fill="white" stroke="black" points="226,-98 226,-128 384,-128 384,-98 226,-98"/>
<text text-anchor="start" x="234" y="-116" font-family="Helvetica,sans-Serif" font-size="10.00">commands.turtleCommands.</text>
<text text-anchor="middle" x="305" y="-105" font-family="Helvetica,sans-Serif" font-size="10.00">TowardsCommand.onExecute</text>
</a>
</g>
</g>
<!-- Node1&#45;&gt;Node11 -->
<g id="edge10" class="edge"><title>Node1&#45;&gt;Node11</title>
<path fill="none" stroke="midnightblue" d="M112.403,-212.958C135.885,-191.007 174.759,-157.804 214,-138 221.528,-134.201 229.711,-130.913 237.973,-128.087"/>
<polygon fill="midnightblue" stroke="midnightblue" points="109.896,-210.512 105.052,-219.935 114.715,-215.59 109.896,-210.512"/>
</g>
<!-- Node12 -->
<g id="node12" class="node"><title>Node12</title>
<g id="a_node12"><a xlink:href="../../d9/d14/classcommands_1_1turtle_commands_1_1_set_position_command.html#a1ff02e56e7927a1002a7412040c98e77" target="_top" xlink:title="commands.turtleCommands.\lSetPositionCommand.onExecute">
<polygon fill="white" stroke="black" points="218,-49 218,-79 392,-79 392,-49 218,-49"/>
<text text-anchor="start" x="226" y="-67" font-family="Helvetica,sans-Serif" font-size="10.00">commands.turtleCommands.</text>
<text text-anchor="middle" x="305" y="-56" font-family="Helvetica,sans-Serif" font-size="10.00">SetPositionCommand.onExecute</text>
</a>
</g>
</g>
<!-- Node1&#45;&gt;Node12 -->
<g id="edge11" class="edge"><title>Node1&#45;&gt;Node12</title>
<path fill="none" stroke="midnightblue" d="M104.116,-210.691C124.31,-178.083 164.527,-120.629 214,-89 220.012,-85.1566 226.616,-81.8959 233.431,-79.131"/>
<polygon fill="midnightblue" stroke="midnightblue" points="100.923,-209.206 98.7318,-219.572 106.909,-212.835 100.923,-209.206"/>
</g>
<!-- Node13 -->
<g id="node13" class="node"><title>Node13</title>
<g id="a_node13"><a xlink:href="../../db/dc5/classcommands_1_1view_commands_1_1_home_command.html#a91670541a28ed18996a9bc3433029857" target="_top" xlink:title="commands.viewCommands.Home\lCommand.onExecute">
<polygon fill="white" stroke="black" points="214,-0 214,-30 396,-30 396,-0 214,-0"/>
<text text-anchor="start" x="222" y="-18" font-family="Helvetica,sans-Serif" font-size="10.00">commands.viewCommands.Home</text>
<text text-anchor="middle" x="305" y="-7" font-family="Helvetica,sans-Serif" font-size="10.00">Command.onExecute</text>
</a>
</g>
</g>
<!-- Node1&#45;&gt;Node13 -->
<g id="edge12" class="edge"><title>Node1&#45;&gt;Node13</title>
<path fill="none" stroke="midnightblue" d="M98.7718,-210.537C114.932,-169.018 153.398,-84.9018 214,-40 219.212,-36.1383 224.992,-32.8731 231.036,-30.1121"/>
<polygon fill="midnightblue" stroke="midnightblue" points="95.4973,-209.301 95.2296,-219.893 102.044,-211.78 95.4973,-209.301"/>
</g>
<!-- Node3 -->
<g id="node3" class="node"><title>Node3</title>
<g id="a_node3"><a xlink:href="../../d3/d71/classcommands_1_1turtle_commands_1_1_tell_command.html#aa72781f5952898b86ddd628eddb559c3" target="_top" xlink:title="commands.turtleCommands.\lTellCommand.onExecute">
<polygon fill="white" stroke="black" points="432,-470 432,-500 590,-500 590,-470 432,-470"/>
<text text-anchor="start" x="440" y="-488" font-family="Helvetica,sans-Serif" font-size="10.00">commands.turtleCommands.</text>
<text text-anchor="middle" x="511" y="-477" font-family="Helvetica,sans-Serif" font-size="10.00">TellCommand.onExecute</text>
</a>
</g>
</g>
<!-- Node2&#45;&gt;Node3 -->
<g id="edge2" class="edge"><title>Node2&#45;&gt;Node3</title>
<path fill="none" stroke="midnightblue" d="M405.248,-472.676C414.189,-473.728 423.157,-474.783 431.879,-475.809"/>
<polygon fill="midnightblue" stroke="midnightblue" points="405.521,-469.184 395.181,-471.492 404.703,-476.136 405.521,-469.184"/>
</g>
<!-- Node4 -->
<g id="node4" class="node"><title>Node4</title>
<g id="a_node4"><a xlink:href="../../d6/de1/classcommands_1_1turtle_commands_1_1_ask_command.html#af55174501ae461af21d6546f83cdc521" target="_top" xlink:title="commands.turtleCommands.\lAskCommand.onExecute">
<polygon fill="white" stroke="black" points="432,-421 432,-451 590,-451 590,-421 432,-421"/>
<text text-anchor="start" x="440" y="-439" font-family="Helvetica,sans-Serif" font-size="10.00">commands.turtleCommands.</text>
<text text-anchor="middle" x="511" y="-428" font-family="Helvetica,sans-Serif" font-size="10.00">AskCommand.onExecute</text>
</a>
</g>
</g>
<!-- Node2&#45;&gt;Node4 -->
<g id="edge3" class="edge"><title>Node2&#45;&gt;Node4</title>
<path fill="none" stroke="midnightblue" d="M405.248,-448.837C414.189,-447.742 423.157,-446.643 431.879,-445.574"/>
<polygon fill="midnightblue" stroke="midnightblue" points="404.681,-445.381 395.181,-450.071 405.532,-452.329 404.681,-445.381"/>
</g>
</g>
</svg>
