<?xml version="1.0" encoding="UTF-8" standalone="no"?>
<!DOCTYPE svg PUBLIC "-//W3C//DTD SVG 1.1//EN"
 "http://www.w3.org/Graphics/SVG/1.1/DTD/svg11.dtd">
<!-- Generated by graphviz version 2.36.0 (20140111.2315)
 -->
<!-- Title: commands.ViewQuery Pages: 1 -->
<svg width="828pt" height="283pt"
 viewBox="0.00 0.00 828.00 283.00" xmlns="http://www.w3.org/2000/svg" xmlns:xlink="http://www.w3.org/1999/xlink">
<g id="graph0" class="graph" transform="scale(1 1) rotate(0) translate(4 279)">
<title>commands.ViewQuery</title>
<polygon fill="white" stroke="none" points="-4,4 -4,-279 824,-279 824,4 -4,4"/>
<!-- Node1 -->
<g id="node1" class="node"><title>Node1</title>
<polygon fill="#bfbfbf" stroke="black" points="474,-127.5 474,-146.5 598,-146.5 598,-127.5 474,-127.5"/>
<text text-anchor="middle" x="536" y="-134.5" font-family="Helvetica,sans-Serif" font-size="10.00">commands.ViewQuery</text>
</g>
<!-- Node5 -->
<g id="node5" class="node"><title>Node5</title>
<g id="a_node5"><a xlink:href="../../dc/d00/classcommands_1_1view_commands_1_1_clear_stamps_command.html" target="_top" xlink:title="commands.viewCommands.Clear\lStampsCommand">
<polygon fill="white" stroke="black" points="638.5,-245 638.5,-275 815.5,-275 815.5,-245 638.5,-245"/>
<text text-anchor="start" x="646.5" y="-263" font-family="Helvetica,sans-Serif" font-size="10.00">commands.viewCommands.Clear</text>
<text text-anchor="middle" x="727" y="-252" font-family="Helvetica,sans-Serif" font-size="10.00">StampsCommand</text>
</a>
</g>
</g>
<!-- Node1&#45;&gt;Node5 -->
<g id="edge4" class="edge"><title>Node1&#45;&gt;Node5</title>
<path fill="none" stroke="midnightblue" d="M549.91,-154.928C566.773,-177.035 598.376,-214.226 634,-235 640.577,-238.835 647.761,-242.1 655.121,-244.874"/>
<polygon fill="midnightblue" stroke="midnightblue" points="552.587,-152.662 543.808,-146.731 546.973,-156.843 552.587,-152.662"/>
</g>
<!-- Node6 -->
<g id="node6" class="node"><title>Node6</title>
<g id="a_node6"><a xlink:href="../../db/dbd/classcommands_1_1view_commands_1_1_stamp_command.html" target="_top" xlink:title="commands.viewCommands.Stamp\lCommand">
<polygon fill="white" stroke="black" points="634.5,-196 634.5,-226 819.5,-226 819.5,-196 634.5,-196"/>
<text text-anchor="start" x="642.5" y="-214" font-family="Helvetica,sans-Serif" font-size="10.00">commands.viewCommands.Stamp</text>
<text text-anchor="middle" x="727" y="-203" font-family="Helvetica,sans-Serif" font-size="10.00">Command</text>
</a>
</g>
</g>
<!-- Node1&#45;&gt;Node6 -->
<g id="edge5" class="edge"><title>Node1&#45;&gt;Node6</title>
<path fill="none" stroke="midnightblue" d="M562.084,-151.446C581.301,-162.072 608.722,-176.296 634,-186 643.426,-189.618 653.583,-192.932 663.588,-195.88"/>
<polygon fill="midnightblue" stroke="midnightblue" points="563.789,-148.39 553.354,-146.555 560.367,-154.497 563.789,-148.39"/>
</g>
<!-- Node7 -->
<g id="node7" class="node"><title>Node7</title>
<g id="a_node7"><a xlink:href="../../d2/d1c/classcommands_1_1view_queries_1_1_pen_color_query.html" target="_top" xlink:title="commands.viewQueries.Pen\lColorQuery">
<polygon fill="white" stroke="black" points="651,-147 651,-177 803,-177 803,-147 651,-147"/>
<text text-anchor="start" x="659" y="-165" font-family="Helvetica,sans-Serif" font-size="10.00">commands.viewQueries.Pen</text>
<text text-anchor="middle" x="727" y="-154" font-family="Helvetica,sans-Serif" font-size="10.00">ColorQuery</text>
</a>
</g>
</g>
<!-- Node1&#45;&gt;Node7 -->
<g id="edge6" class="edge"><title>Node1&#45;&gt;Node7</title>
<path fill="none" stroke="midnightblue" d="M608.127,-146.408C622.096,-148.256 636.793,-150.2 650.889,-152.065"/>
<polygon fill="midnightblue" stroke="midnightblue" points="608.475,-142.924 598.102,-145.082 607.557,-149.863 608.475,-142.924"/>
</g>
<!-- Node8 -->
<g id="node8" class="node"><title>Node8</title>
<g id="a_node8"><a xlink:href="../../db/dbc/classcommands_1_1view_queries_1_1_pen_down_query.html" target="_top" xlink:title="commands.viewQueries.Pen\lDownQuery">
<polygon fill="white" stroke="black" points="651,-98 651,-128 803,-128 803,-98 651,-98"/>
<text text-anchor="start" x="659" y="-116" font-family="Helvetica,sans-Serif" font-size="10.00">commands.viewQueries.Pen</text>
<text text-anchor="middle" x="727" y="-105" font-family="Helvetica,sans-Serif" font-size="10.00">DownQuery</text>
</a>
</g>
</g>
<!-- Node1&#45;&gt;Node8 -->
<g id="edge7" class="edge"><title>Node1&#45;&gt;Node8</title>
<path fill="none" stroke="midnightblue" d="M608.127,-127.968C622.096,-126.194 636.793,-124.328 650.889,-122.538"/>
<polygon fill="midnightblue" stroke="midnightblue" points="607.581,-124.509 598.102,-129.241 608.463,-131.453 607.581,-124.509"/>
</g>
<!-- Node9 -->
<g id="node9" class="node"><title>Node9</title>
<g id="a_node9"><a xlink:href="../../d8/de1/classcommands_1_1view_queries_1_1_shape_query.html" target="_top" xlink:title="commands.viewQueries.Shape\lQuery">
<polygon fill="white" stroke="black" points="645,-49 645,-79 809,-79 809,-49 645,-49"/>
<text text-anchor="start" x="653" y="-67" font-family="Helvetica,sans-Serif" font-size="10.00">commands.viewQueries.Shape</text>
<text text-anchor="middle" x="727" y="-56" font-family="Helvetica,sans-Serif" font-size="10.00">Query</text>
</a>
</g>
</g>
<!-- Node1&#45;&gt;Node9 -->
<g id="edge8" class="edge"><title>Node1&#45;&gt;Node9</title>
<path fill="none" stroke="midnightblue" d="M562.055,-122.479C581.258,-111.815 608.673,-97.5759 634,-88 642.646,-84.7309 651.912,-81.7436 661.113,-79.0713"/>
<polygon fill="midnightblue" stroke="midnightblue" points="560.329,-119.434 553.334,-127.391 563.764,-125.534 560.329,-119.434"/>
</g>
<!-- Node10 -->
<g id="node10" class="node"><title>Node10</title>
<g id="a_node10"><a xlink:href="../../d1/dba/classcommands_1_1view_queries_1_1_showing_query.html" target="_top" xlink:title="commands.viewQueries.Showing\lQuery">
<polygon fill="white" stroke="black" points="640.5,-0 640.5,-30 813.5,-30 813.5,-0 640.5,-0"/>
<text text-anchor="start" x="648.5" y="-18" font-family="Helvetica,sans-Serif" font-size="10.00">commands.viewQueries.Showing</text>
<text text-anchor="middle" x="727" y="-7" font-family="Helvetica,sans-Serif" font-size="10.00">Query</text>
</a>
</g>
</g>
<!-- Node1&#45;&gt;Node10 -->
<g id="edge9" class="edge"><title>Node1&#45;&gt;Node10</title>
<path fill="none" stroke="midnightblue" d="M549.877,-119.014C566.704,-96.8467 598.271,-59.5926 634,-39 640.007,-35.5381 646.519,-32.5661 653.208,-30.0164"/>
<polygon fill="midnightblue" stroke="midnightblue" points="546.928,-117.116 543.788,-127.235 552.553,-121.282 546.928,-117.116"/>
</g>
<!-- Node2 -->
<g id="node2" class="node"><title>Node2</title>
<g id="a_node2"><a xlink:href="../../de/d53/classcommands_1_1_view_command.html" target="_top" xlink:title="commands.ViewCommand">
<polygon fill="white" stroke="black" points="292,-127.5 292,-146.5 438,-146.5 438,-127.5 292,-127.5"/>
<text text-anchor="middle" x="365" y="-134.5" font-family="Helvetica,sans-Serif" font-size="10.00">commands.ViewCommand</text>
</a>
</g>
</g>
<!-- Node2&#45;&gt;Node1 -->
<g id="edge1" class="edge"><title>Node2&#45;&gt;Node1</title>
<path fill="none" stroke="midnightblue" d="M448.287,-137C456.943,-137 465.63,-137 473.984,-137"/>
<polygon fill="midnightblue" stroke="midnightblue" points="448.161,-133.5 438.161,-137 448.161,-140.5 448.161,-133.5"/>
</g>
<!-- Node3 -->
<g id="node3" class="node"><title>Node3</title>
<g id="a_node3"><a xlink:href="../../da/d90/classcommands_1_1_base_command.html" target="_top" xlink:title="commands.BaseCommand">
<polygon fill="white" stroke="black" points="108,-127.5 108,-146.5 256,-146.5 256,-127.5 108,-127.5"/>
<text text-anchor="middle" x="182" y="-134.5" font-family="Helvetica,sans-Serif" font-size="10.00">commands.BaseCommand</text>
</a>
</g>
</g>
<!-- Node3&#45;&gt;Node2 -->
<g id="edge2" class="edge"><title>Node3&#45;&gt;Node2</title>
<path fill="none" stroke="midnightblue" d="M266.11,-137C274.69,-137 283.359,-137 291.806,-137"/>
<polygon fill="midnightblue" stroke="midnightblue" points="266.098,-133.5 256.098,-137 266.098,-140.5 266.098,-133.5"/>
</g>
<!-- Node4 -->
<g id="node4" class="node"><title>Node4</title>
<polygon fill="white" stroke="#bfbfbf" points="0.5,-127.5 0.5,-146.5 71.5,-146.5 71.5,-127.5 0.5,-127.5"/>
<text text-anchor="middle" x="36" y="-134.5" font-family="Helvetica,sans-Serif" font-size="10.00">Serializable</text>
</g>
<!-- Node4&#45;&gt;Node3 -->
<g id="edge3" class="edge"><title>Node4&#45;&gt;Node3</title>
<path fill="none" stroke="midnightblue" d="M81.9439,-137C90.1703,-137 98.9482,-137 107.751,-137"/>
<polygon fill="midnightblue" stroke="midnightblue" points="81.8584,-133.5 71.8584,-137 81.8583,-140.5 81.8584,-133.5"/>
</g>
</g>
</svg>
