<?xml version="1.0" encoding="UTF-8" standalone="no"?>
<!DOCTYPE svg PUBLIC "-//W3C//DTD SVG 1.1//EN"
 "http://www.w3.org/Graphics/SVG/1.1/DTD/svg11.dtd">
<!-- Generated by graphviz version 2.36.0 (20140111.2315)
 -->
<!-- Title: View.ButtonTemplate Pages: 1 -->
<svg width="173pt" height="84pt"
 viewBox="0.00 0.00 173.00 84.00" xmlns="http://www.w3.org/2000/svg" xmlns:xlink="http://www.w3.org/1999/xlink">
<g id="graph0" class="graph" transform="scale(1 1) rotate(0) translate(4 80)">
<title>View.ButtonTemplate</title>
<polygon fill="white" stroke="none" points="-4,4 -4,-80 169,-80 169,4 -4,4"/>
<!-- Node1 -->
<g id="node1" class="node"><title>Node1</title>
<polygon fill="#bfbfbf" stroke="black" points="12,-0.5 12,-19.5 128,-19.5 128,-0.5 12,-0.5"/>
<text text-anchor="middle" x="70" y="-7.5" font-family="Helvetica,sans-Serif" font-size="10.00">View.ButtonTemplate</text>
</g>
<!-- Node2 -->
<g id="node2" class="node"><title>Node2</title>
<polygon fill="white" stroke="#bfbfbf" points="-0.5,-56.5 -0.5,-75.5 48.5,-75.5 48.5,-56.5 -0.5,-56.5"/>
<text text-anchor="middle" x="24" y="-63.5" font-family="Helvetica,sans-Serif" font-size="10.00">Button</text>
</g>
<!-- Node2&#45;&gt;Node1 -->
<g id="edge1" class="edge"><title>Node2&#45;&gt;Node1</title>
<path fill="none" stroke="midnightblue" d="M38.114,-48.4314C46.176,-38.9673 55.9592,-27.4827 62.5454,-19.7511"/>
<polygon fill="midnightblue" stroke="midnightblue" points="35.4163,-46.2009 31.596,-56.083 40.745,-50.7402 35.4163,-46.2009"/>
</g>
<!-- Node3 -->
<g id="node3" class="node"><title>Node3</title>
<g id="a_node3"><a xlink:href="../../dd/dfc/interface_view_1_1_user_objects.html" target="_top" xlink:title="View.UserObjects">
<polygon fill="white" stroke="black" points="66.5,-56.5 66.5,-75.5 165.5,-75.5 165.5,-56.5 66.5,-56.5"/>
<text text-anchor="middle" x="116" y="-63.5" font-family="Helvetica,sans-Serif" font-size="10.00">View.UserObjects</text>
</a>
</g>
</g>
<!-- Node3&#45;&gt;Node1 -->
<g id="edge2" class="edge"><title>Node3&#45;&gt;Node1</title>
<path fill="none" stroke="midnightblue" d="M101.886,-48.4314C93.824,-38.9673 84.0408,-27.4827 77.4546,-19.7511"/>
<polygon fill="midnightblue" stroke="midnightblue" points="99.255,-50.7402 108.404,-56.083 104.584,-46.2009 99.255,-50.7402"/>
</g>
</g>
</svg>
