<?xml version="1.0" encoding="UTF-8" standalone="no"?>
<!DOCTYPE svg PUBLIC "-//W3C//DTD SVG 1.1//EN"
 "http://www.w3.org/Graphics/SVG/1.1/DTD/svg11.dtd">
<!-- Generated by graphviz version 2.36.0 (20140111.2315)
 -->
<!-- Title: View.ColorLabel Pages: 1 -->
<svg width="1486pt" height="230pt"
 viewBox="0.00 0.00 1486.00 230.00" xmlns="http://www.w3.org/2000/svg" xmlns:xlink="http://www.w3.org/1999/xlink">
<g id="graph0" class="graph" transform="scale(1 1) rotate(0) translate(4 226)">
<title>View.ColorLabel</title>
<polygon fill="white" stroke="none" points="-4,4 -4,-226 1482,-226 1482,4 -4,4"/>
<!-- Node1 -->
<g id="node1" class="node"><title>Node1</title>
<polygon fill="#bfbfbf" stroke="black" points="1386.5,-136.5 1386.5,-155.5 1477.5,-155.5 1477.5,-136.5 1386.5,-136.5"/>
<text text-anchor="middle" x="1432" y="-143.5" font-family="Helvetica,sans-Serif" font-size="10.00">View.ColorLabel</text>
</g>
<!-- Node2 -->
<g id="node2" class="node"><title>Node2</title>
<polygon fill="white" stroke="#bfbfbf" points="1194.5,-152.5 1194.5,-171.5 1243.5,-171.5 1243.5,-152.5 1194.5,-152.5"/>
<text text-anchor="middle" x="1219" y="-159.5" font-family="Helvetica,sans-Serif" font-size="10.00">Button</text>
</g>
<!-- Node2&#45;&gt;Node1 -->
<g id="edge1" class="edge"><title>Node2&#45;&gt;Node1</title>
<path fill="none" stroke="midnightblue" d="M1253.78,-159.438C1289.7,-156.714 1346.7,-152.393 1386.32,-149.388"/>
<polygon fill="midnightblue" stroke="midnightblue" points="1253.5,-155.95 1243.79,-160.196 1254.03,-162.929 1253.5,-155.95"/>
</g>
<!-- Node3 -->
<g id="node3" class="node"><title>Node3</title>
<g id="a_node3"><a xlink:href="../../d4/df9/class_g_u_i_functions_1_1_color_function.html" target="_top" xlink:title="GUIFunctions.ColorFunction">
<polygon fill="white" stroke="black" points="1146,-114.5 1146,-133.5 1292,-133.5 1292,-114.5 1146,-114.5"/>
<text text-anchor="middle" x="1219" y="-121.5" font-family="Helvetica,sans-Serif" font-size="10.00">GUIFunctions.ColorFunction</text>
</a>
</g>
</g>
<!-- Node3&#45;&gt;Node1 -->
<g id="edge2" class="edge"><title>Node3&#45;&gt;Node1</title>
<path fill="none" stroke="#9a32cd" stroke-dasharray="5,2" d="M1302.37,-130.437C1323.77,-132.327 1346.76,-134.552 1368,-137 1373.93,-137.683 1380.16,-138.479 1386.3,-139.308"/>
<polygon fill="#9a32cd" stroke="#9a32cd" points="1302.61,-126.944 1292.35,-129.564 1302,-133.918 1302.61,-126.944"/>
<text text-anchor="middle" x="1339" y="-140" font-family="Helvetica,sans-Serif" font-size="10.00"> myFunction</text>
</g>
<!-- Node4 -->
<g id="node4" class="node"><title>Node4</title>
<g id="a_node4"><a xlink:href="../../de/dbd/class_g_u_i_functions_1_1_grid_function.html" target="_top" xlink:title="GUIFunctions.GridFunction">
<polygon fill="white" stroke="black" points="966.5,-137.5 966.5,-156.5 1107.5,-156.5 1107.5,-137.5 966.5,-137.5"/>
<text text-anchor="middle" x="1037" y="-144.5" font-family="Helvetica,sans-Serif" font-size="10.00">GUIFunctions.GridFunction</text>
</a>
</g>
</g>
<!-- Node4&#45;&gt;Node3 -->
<g id="edge3" class="edge"><title>Node4&#45;&gt;Node3</title>
<path fill="none" stroke="midnightblue" d="M1117.7,-136.816C1127.09,-135.616 1136.64,-134.396 1145.91,-133.211"/>
<polygon fill="midnightblue" stroke="midnightblue" points="1117.07,-133.368 1107.59,-138.108 1117.96,-140.312 1117.07,-133.368"/>
</g>
<!-- Node5 -->
<g id="node5" class="node"><title>Node5</title>
<g id="a_node5"><a xlink:href="../../d1/df5/interface_g_u_i_functions_1_1_g_u_i_function.html" target="_top" xlink:title="GUIFunctions.GUIFunction">
<polygon fill="white" stroke="black" points="750.5,-157.5 750.5,-176.5 889.5,-176.5 889.5,-157.5 750.5,-157.5"/>
<text text-anchor="middle" x="820" y="-164.5" font-family="Helvetica,sans-Serif" font-size="10.00">GUIFunctions.GUIFunction</text>
</a>
</g>
</g>
<!-- Node5&#45;&gt;Node4 -->
<g id="edge4" class="edge"><title>Node5&#45;&gt;Node4</title>
<path fill="none" stroke="midnightblue" d="M899.808,-159.669C921.554,-157.646 944.99,-155.466 966.188,-153.494"/>
<polygon fill="midnightblue" stroke="midnightblue" points="899.251,-156.206 889.618,-160.617 899.9,-163.176 899.251,-156.206"/>
</g>
<!-- Node6 -->
<g id="node6" class="node"><title>Node6</title>
<g id="a_node6"><a xlink:href="../../d7/d98/class_view_1_1_grid_tracker.html" target="_top" xlink:title="View.GridTracker">
<polygon fill="white" stroke="black" points="773,-108.5 773,-127.5 867,-127.5 867,-108.5 773,-108.5"/>
<text text-anchor="middle" x="820" y="-115.5" font-family="Helvetica,sans-Serif" font-size="10.00">View.GridTracker</text>
</a>
</g>
</g>
<!-- Node6&#45;&gt;Node3 -->
<g id="edge16" class="edge"><title>Node6&#45;&gt;Node3</title>
<path fill="none" stroke="#9a32cd" stroke-dasharray="5,2" d="M877.28,-116.633C935.157,-115.502 1027.9,-114.454 1108,-117 1120.24,-117.389 1133.24,-118.021 1145.84,-118.75"/>
<polygon fill="#9a32cd" stroke="#9a32cd" points="877.169,-113.134 867.242,-116.837 877.311,-120.133 877.169,-113.134"/>
<text text-anchor="middle" x="1037" y="-120" font-family="Helvetica,sans-Serif" font-size="10.00"> myGrids</text>
</g>
<!-- Node6&#45;&gt;Node4 -->
<g id="edge5" class="edge"><title>Node6&#45;&gt;Node4</title>
<path fill="none" stroke="#9a32cd" stroke-dasharray="5,2" d="M877.256,-125.588C904.482,-129.26 937.432,-133.705 966.24,-137.59"/>
<polygon fill="#9a32cd" stroke="#9a32cd" points="877.501,-122.089 867.123,-124.221 876.565,-129.027 877.501,-122.089"/>
<text text-anchor="middle" x="928" y="-139" font-family="Helvetica,sans-Serif" font-size="10.00"> allGrids</text>
</g>
<!-- Node7 -->
<g id="node7" class="node"><title>Node7</title>
<polygon fill="white" stroke="#bfbfbf" points="542,-121 542,-151 646,-151 646,-121 542,-121"/>
<text text-anchor="start" x="550" y="-139" font-family="Helvetica,sans-Serif" font-size="10.00">java::util::HashSet</text>
<text text-anchor="middle" x="594" y="-128" font-family="Helvetica,sans-Serif" font-size="10.00">&lt; Grid &gt;</text>
</g>
<!-- Node7&#45;&gt;Node6 -->
<g id="edge6" class="edge"><title>Node7&#45;&gt;Node6</title>
<path fill="none" stroke="midnightblue" d="M656.211,-131.081C692.96,-128.128 738.963,-124.432 772.683,-121.722"/>
<polygon fill="midnightblue" stroke="midnightblue" points="655.797,-127.603 646.109,-131.893 656.358,-134.581 655.797,-127.603"/>
</g>
<!-- Node8 -->
<g id="node8" class="node"><title>Node8</title>
<g id="a_node8"><a xlink:href="../../d9/db1/class_view_1_1_single_grid.html" target="_top" xlink:title="View.SingleGrid">
<polygon fill="white" stroke="black" points="549.5,-82.5 549.5,-101.5 638.5,-101.5 638.5,-82.5 549.5,-82.5"/>
<text text-anchor="middle" x="594" y="-89.5" font-family="Helvetica,sans-Serif" font-size="10.00">View.SingleGrid</text>
</a>
</g>
</g>
<!-- Node8&#45;&gt;Node6 -->
<g id="edge7" class="edge"><title>Node8&#45;&gt;Node6</title>
<path fill="none" stroke="#9a32cd" stroke-dasharray="5,2" d="M649.033,-98.2716C686.81,-102.657 736.735,-108.451 772.69,-112.625"/>
<polygon fill="#9a32cd" stroke="#9a32cd" points="649.058,-94.7512 638.721,-97.0748 648.251,-101.705 649.058,-94.7512"/>
<text text-anchor="middle" x="698" y="-111" font-family="Helvetica,sans-Serif" font-size="10.00"> myActiveGrid</text>
</g>
<!-- Node9 -->
<g id="node9" class="node"><title>Node9</title>
<g id="a_node9"><a xlink:href="../../d0/d92/class_view_1_1_grid.html" target="_top" xlink:title="View.Grid">
<polygon fill="white" stroke="black" points="287,-164.5 287,-183.5 347,-183.5 347,-164.5 287,-164.5"/>
<text text-anchor="middle" x="317" y="-171.5" font-family="Helvetica,sans-Serif" font-size="10.00">View.Grid</text>
</a>
</g>
</g>
<!-- Node9&#45;&gt;Node8 -->
<g id="edge8" class="edge"><title>Node9&#45;&gt;Node8</title>
<path fill="none" stroke="midnightblue" d="M357.232,-179.749C401.907,-184.1 475.03,-184.301 524,-149 539.16,-138.072 528.231,-123.636 542,-111 546.177,-107.167 551.197,-104.087 556.437,-101.617"/>
<polygon fill="midnightblue" stroke="midnightblue" points="357.384,-176.245 347.063,-178.639 356.624,-183.203 357.384,-176.245"/>
</g>
<!-- Node10 -->
<g id="node10" class="node"><title>Node10</title>
<polygon fill="white" stroke="#bfbfbf" points="54,-202.5 54,-221.5 94,-221.5 94,-202.5 54,-202.5"/>
<text text-anchor="middle" x="74" y="-209.5" font-family="Helvetica,sans-Serif" font-size="10.00">Pane</text>
</g>
<!-- Node10&#45;&gt;Node9 -->
<g id="edge9" class="edge"><title>Node10&#45;&gt;Node9</title>
<path fill="none" stroke="midnightblue" d="M104.314,-207.378C150.656,-200.071 240.324,-185.932 286.674,-178.624"/>
<polygon fill="midnightblue" stroke="midnightblue" points="103.647,-203.94 94.3147,-208.955 104.738,-210.854 103.647,-203.94"/>
</g>
<!-- Node11 -->
<g id="node11" class="node"><title>Node11</title>
<polygon fill="white" stroke="#bfbfbf" points="2,-164.5 2,-183.5 146,-183.5 146,-164.5 2,-164.5"/>
<text text-anchor="middle" x="74" y="-171.5" font-family="Helvetica,sans-Serif" font-size="10.00">HashMap&lt; String, Class &gt;</text>
</g>
<!-- Node11&#45;&gt;Node9 -->
<g id="edge10" class="edge"><title>Node11&#45;&gt;Node9</title>
<path fill="none" stroke="#9a32cd" stroke-dasharray="5,2" d="M156.071,-174C201.118,-174 254.428,-174 286.705,-174"/>
<polygon fill="#9a32cd" stroke="#9a32cd" points="156.004,-170.5 146.004,-174 156.004,-177.5 156.004,-170.5"/>
<text text-anchor="middle" x="189" y="-177" font-family="Helvetica,sans-Serif" font-size="10.00"> myMap</text>
</g>
<!-- Node12 -->
<g id="node12" class="node"><title>Node12</title>
<polygon fill="white" stroke="#bfbfbf" points="0.5,-126.5 0.5,-145.5 147.5,-145.5 147.5,-126.5 0.5,-126.5"/>
<text text-anchor="middle" x="74" y="-133.5" font-family="Helvetica,sans-Serif" font-size="10.00">EventHandler&lt; KeyEvent &gt;</text>
</g>
<!-- Node12&#45;&gt;Node9 -->
<g id="edge11" class="edge"><title>Node12&#45;&gt;Node9</title>
<path fill="none" stroke="#9a32cd" stroke-dasharray="5,2" d="M145.654,-147.14C192.737,-154.564 252.146,-163.932 286.92,-169.415"/>
<polygon fill="#9a32cd" stroke="#9a32cd" points="145.927,-143.64 135.503,-145.54 144.836,-150.555 145.927,-143.64"/>
<text text-anchor="middle" x="189" y="-161" font-family="Helvetica,sans-Serif" font-size="10.00"> myEvent</text>
</g>
<!-- Node13 -->
<g id="node13" class="node"><title>Node13</title>
<polygon fill="white" stroke="#bfbfbf" points="250,-126.5 250,-145.5 384,-145.5 384,-126.5 250,-126.5"/>
<text text-anchor="middle" x="317" y="-133.5" font-family="Helvetica,sans-Serif" font-size="10.00">HashSet&lt; turtle.Turtle &gt;</text>
</g>
<!-- Node13&#45;&gt;Node8 -->
<g id="edge12" class="edge"><title>Node13&#45;&gt;Node8</title>
<path fill="none" stroke="#9a32cd" stroke-dasharray="5,2" d="M394.275,-126.635C433.204,-121.507 481.247,-114.646 524,-107 532.93,-105.403 542.463,-103.476 551.504,-101.543"/>
<polygon fill="#9a32cd" stroke="#9a32cd" points="393.53,-123.202 384.067,-127.967 394.436,-130.143 393.53,-123.202"/>
<text text-anchor="middle" x="473" y="-137" font-family="Helvetica,sans-Serif" font-size="10.00"> allTurtles</text>
<text text-anchor="middle" x="473" y="-126" font-family="Helvetica,sans-Serif" font-size="10.00">activeTurtles</text>
</g>
<!-- Node14 -->
<g id="node14" class="node"><title>Node14</title>
<polygon fill="white" stroke="#bfbfbf" points="230.5,-77 230.5,-107 403.5,-107 403.5,-77 230.5,-77"/>
<text text-anchor="start" x="238.5" y="-95" font-family="Helvetica,sans-Serif" font-size="10.00">HashMap&lt; String, GUIFunctions.</text>
<text text-anchor="middle" x="317" y="-84" font-family="Helvetica,sans-Serif" font-size="10.00">GUIFunction &gt;</text>
</g>
<!-- Node14&#45;&gt;Node8 -->
<g id="edge13" class="edge"><title>Node14&#45;&gt;Node8</title>
<path fill="none" stroke="#9a32cd" stroke-dasharray="5,2" d="M413.563,-92C459.814,-92 513.067,-92 549.471,-92"/>
<polygon fill="#9a32cd" stroke="#9a32cd" points="413.504,-88.5001 403.504,-92 413.504,-95.5001 413.504,-88.5001"/>
<text text-anchor="middle" x="473" y="-95" font-family="Helvetica,sans-Serif" font-size="10.00"> myGridFunctions</text>
</g>
<!-- Node15 -->
<g id="node15" class="node"><title>Node15</title>
<polygon fill="white" stroke="#bfbfbf" points="283,-38.5 283,-57.5 351,-57.5 351,-38.5 283,-38.5"/>
<text text-anchor="middle" x="317" y="-45.5" font-family="Helvetica,sans-Serif" font-size="10.00">ImageView</text>
</g>
<!-- Node15&#45;&gt;Node8 -->
<g id="edge14" class="edge"><title>Node15&#45;&gt;Node8</title>
<path fill="none" stroke="#9a32cd" stroke-dasharray="5,2" d="M361.409,-53.1604C403.201,-58.3526 468.119,-67.0068 524,-77 532.93,-78.5969 542.463,-80.524 551.504,-82.4569"/>
<polygon fill="#9a32cd" stroke="#9a32cd" points="361.654,-49.6643 351.302,-51.9162 360.799,-56.6118 361.654,-49.6643"/>
<text text-anchor="middle" x="473" y="-80" font-family="Helvetica,sans-Serif" font-size="10.00"> myImageView</text>
</g>
<!-- Node16 -->
<g id="node16" class="node"><title>Node16</title>
<polygon fill="white" stroke="#bfbfbf" points="283,-0.5 283,-19.5 351,-19.5 351,-0.5 283,-0.5"/>
<text text-anchor="middle" x="317" y="-7.5" font-family="Helvetica,sans-Serif" font-size="10.00">Dimension</text>
</g>
<!-- Node16&#45;&gt;Node8 -->
<g id="edge15" class="edge"><title>Node16&#45;&gt;Node8</title>
<path fill="none" stroke="#9a32cd" stroke-dasharray="5,2" d="M361.266,-12.7387C403.924,-16.588 470.334,-25.7014 524,-47 546.066,-55.7576 568.528,-72.0789 581.594,-82.4724"/>
<polygon fill="#9a32cd" stroke="#9a32cd" points="361.479,-9.24426 351.219,-11.89 360.889,-16.2194 361.479,-9.24426"/>
<text text-anchor="middle" x="473" y="-50" font-family="Helvetica,sans-Serif" font-size="10.00"> DEFAULT_GRID_SIZE</text>
</g>
</g>
</svg>
