<?xml version="1.0" encoding="UTF-8" standalone="no"?>
<!DOCTYPE svg PUBLIC "-//W3C//DTD SVG 1.1//EN"
 "http://www.w3.org/Graphics/SVG/1.1/DTD/svg11.dtd">
<!-- Generated by graphviz version 2.36.0 (20140111.2315)
 -->
<!-- Title: GUIFunctions.SetPenDown.doAction Pages: 1 -->
<svg width="538pt" height="93pt"
 viewBox="0.00 0.00 538.00 93.00" xmlns="http://www.w3.org/2000/svg" xmlns:xlink="http://www.w3.org/1999/xlink">
<g id="graph0" class="graph" transform="scale(1 1) rotate(0) translate(4 89)">
<title>GUIFunctions.SetPenDown.doAction</title>
<polygon fill="white" stroke="none" points="-4,4 -4,-89 534,-89 534,4 -4,4"/>
<!-- Node1 -->
<g id="node1" class="node"><title>Node1</title>
<polygon fill="#bfbfbf" stroke="black" points="0,-41 0,-71 158,-71 158,-41 0,-41"/>
<text text-anchor="start" x="8" y="-59" font-family="Helvetica,sans-Serif" font-size="10.00">GUIFunctions.SetPenDown.do</text>
<text text-anchor="middle" x="79" y="-48" font-family="Helvetica,sans-Serif" font-size="10.00">Action</text>
</g>
<!-- Node2 -->
<g id="node2" class="node"><title>Node2</title>
<g id="a_node2"><a xlink:href="../../d7/d98/class_view_1_1_grid_tracker.html#af7c2413584c58030e606ae6692ea564f" target="_top" xlink:title="View.GridTracker.getActiveGrid">
<polygon fill="white" stroke="black" points="194.5,-65.5 194.5,-84.5 355.5,-84.5 355.5,-65.5 194.5,-65.5"/>
<text text-anchor="middle" x="275" y="-72.5" font-family="Helvetica,sans-Serif" font-size="10.00">View.GridTracker.getActiveGrid</text>
</a>
</g>
</g>
<!-- Node1&#45;&gt;Node2 -->
<g id="edge1" class="edge"><title>Node1&#45;&gt;Node2</title>
<path fill="none" stroke="midnightblue" d="M158.069,-63.6459C166.62,-64.4834 175.376,-65.3409 184.055,-66.191"/>
<polygon fill="midnightblue" stroke="midnightblue" points="183.9,-69.6924 194.193,-67.1839 184.582,-62.7257 183.9,-69.6924"/>
</g>
<!-- Node3 -->
<g id="node3" class="node"><title>Node3</title>
<g id="a_node3"><a xlink:href="../../d9/db1/class_view_1_1_single_grid.html#a10f914014fc090d2d57192c8678242fd" target="_top" xlink:title="View.SingleGrid.getActivePens">
<polygon fill="white" stroke="black" points="194.5,-27.5 194.5,-46.5 355.5,-46.5 355.5,-27.5 194.5,-27.5"/>
<text text-anchor="middle" x="275" y="-34.5" font-family="Helvetica,sans-Serif" font-size="10.00">View.SingleGrid.getActivePens</text>
</a>
</g>
</g>
<!-- Node1&#45;&gt;Node3 -->
<g id="edge2" class="edge"><title>Node1&#45;&gt;Node3</title>
<path fill="none" stroke="midnightblue" d="M158.069,-48.3541C166.62,-47.5166 175.376,-46.6591 184.055,-45.809"/>
<polygon fill="midnightblue" stroke="midnightblue" points="184.582,-49.2743 194.193,-44.8161 183.9,-42.3076 184.582,-49.2743"/>
</g>
<!-- Node4 -->
<g id="node4" class="node"><title>Node4</title>
<g id="a_node4"><a xlink:href="../../d9/db1/class_view_1_1_single_grid.html#a9bc0c792d3ba336bddf804936337af7c" target="_top" xlink:title="View.SingleGrid.getPens">
<polygon fill="white" stroke="black" points="395.5,-49.5 395.5,-68.5 526.5,-68.5 526.5,-49.5 395.5,-49.5"/>
<text text-anchor="middle" x="461" y="-56.5" font-family="Helvetica,sans-Serif" font-size="10.00">View.SingleGrid.getPens</text>
</a>
</g>
</g>
<!-- Node3&#45;&gt;Node4 -->
<g id="edge3" class="edge"><title>Node3&#45;&gt;Node4</title>
<path fill="none" stroke="midnightblue" d="M355.635,-46.5216C365.511,-47.7024 375.58,-48.9063 385.376,-50.0776"/>
<polygon fill="midnightblue" stroke="midnightblue" points="385.122,-53.5721 395.467,-51.2841 385.953,-46.6216 385.122,-53.5721"/>
</g>
<!-- Node5 -->
<g id="node5" class="node"><title>Node5</title>
<g id="a_node5"><a xlink:href="../../d9/db1/class_view_1_1_single_grid.html#a63dce7bacaea4b387aeef30975ad678b" target="_top" xlink:title="View.SingleGrid.getActive\lTurtles">
<polygon fill="white" stroke="black" points="392.5,-0 392.5,-30 529.5,-30 529.5,-0 392.5,-0"/>
<text text-anchor="start" x="400.5" y="-18" font-family="Helvetica,sans-Serif" font-size="10.00">View.SingleGrid.getActive</text>
<text text-anchor="middle" x="461" y="-7" font-family="Helvetica,sans-Serif" font-size="10.00">Turtles</text>
</a>
</g>
</g>
<!-- Node3&#45;&gt;Node5 -->
<g id="edge4" class="edge"><title>Node3&#45;&gt;Node5</title>
<path fill="none" stroke="midnightblue" d="M355.635,-27.4784C364.431,-26.4267 373.38,-25.3567 382.154,-24.3077"/>
<polygon fill="midnightblue" stroke="midnightblue" points="382.839,-27.7508 392.353,-23.0883 382.008,-20.8003 382.839,-27.7508"/>
</g>
</g>
</svg>
