<?xml version="1.0" encoding="UTF-8" standalone="no"?>
<!DOCTYPE svg PUBLIC "-//W3C//DTD SVG 1.1//EN"
 "http://www.w3.org/Graphics/SVG/1.1/DTD/svg11.dtd">
<!-- Generated by graphviz version 2.36.0 (20140111.2315)
 -->
<!-- Title: GUIFunctions.StampImage.StampImage Pages: 1 -->
<svg width="520pt" height="115pt"
 viewBox="0.00 0.00 520.00 115.00" xmlns="http://www.w3.org/2000/svg" xmlns:xlink="http://www.w3.org/1999/xlink">
<g id="graph0" class="graph" transform="scale(1 1) rotate(0) translate(4 111)">
<title>GUIFunctions.StampImage.StampImage</title>
<polygon fill="white" stroke="none" points="-4,4 -4,-111 516,-111 516,4 -4,4"/>
<!-- Node1 -->
<g id="node1" class="node"><title>Node1</title>
<polygon fill="#bfbfbf" stroke="black" points="0.5,-33 0.5,-63 147.5,-63 147.5,-33 0.5,-33"/>
<text text-anchor="start" x="8.5" y="-51" font-family="Helvetica,sans-Serif" font-size="10.00">GUIFunctions.StampImage.</text>
<text text-anchor="middle" x="74" y="-40" font-family="Helvetica,sans-Serif" font-size="10.00">StampImage</text>
</g>
<!-- Node2 -->
<g id="node2" class="node"><title>Node2</title>
<g id="a_node2"><a xlink:href="../../d2/da9/class_g_u_i_functions_1_1_stamp_image.html#a83112c85efcd360d121c9258424c646e" target="_top" xlink:title="GUIFunctions.StampImage.add\lEffect">
<polygon fill="white" stroke="black" points="184.5,-77 184.5,-107 349.5,-107 349.5,-77 184.5,-77"/>
<text text-anchor="start" x="192.5" y="-95" font-family="Helvetica,sans-Serif" font-size="10.00">GUIFunctions.StampImage.add</text>
<text text-anchor="middle" x="267" y="-84" font-family="Helvetica,sans-Serif" font-size="10.00">Effect</text>
</a>
</g>
</g>
<!-- Node1&#45;&gt;Node2 -->
<g id="edge1" class="edge"><title>Node1&#45;&gt;Node2</title>
<path fill="none" stroke="midnightblue" d="M140.197,-63.0192C156.548,-66.786 174.222,-70.8574 191.008,-74.7244"/>
<polygon fill="midnightblue" stroke="midnightblue" points="190.242,-78.1395 200.773,-76.9738 191.814,-71.3182 190.242,-78.1395"/>
</g>
<!-- Node3 -->
<g id="node3" class="node"><title>Node3</title>
<g id="a_node3"><a xlink:href="../../df/dcb/classturtle_1_1_turtle.html#aa576ade68e2f453b037ea2a3c456d466" target="_top" xlink:title="turtle.Turtle.getXPos">
<polygon fill="white" stroke="black" points="210.5,-38.5 210.5,-57.5 323.5,-57.5 323.5,-38.5 210.5,-38.5"/>
<text text-anchor="middle" x="267" y="-45.5" font-family="Helvetica,sans-Serif" font-size="10.00">turtle.Turtle.getXPos</text>
</a>
</g>
</g>
<!-- Node1&#45;&gt;Node3 -->
<g id="edge2" class="edge"><title>Node1&#45;&gt;Node3</title>
<path fill="none" stroke="midnightblue" d="M147.754,-48C164.953,-48 183.196,-48 200.073,-48"/>
<polygon fill="midnightblue" stroke="midnightblue" points="200.383,-51.5001 210.383,-48 200.383,-44.5001 200.383,-51.5001"/>
</g>
<!-- Node5 -->
<g id="node5" class="node"><title>Node5</title>
<g id="a_node5"><a xlink:href="../../df/dcb/classturtle_1_1_turtle.html#a735b5aa0bce5a53d2c75322fb2ad9130" target="_top" xlink:title="turtle.Turtle.getYPos">
<polygon fill="white" stroke="black" points="211,-0.5 211,-19.5 323,-19.5 323,-0.5 211,-0.5"/>
<text text-anchor="middle" x="267" y="-7.5" font-family="Helvetica,sans-Serif" font-size="10.00">turtle.Turtle.getYPos</text>
</a>
</g>
</g>
<!-- Node1&#45;&gt;Node5 -->
<g id="edge4" class="edge"><title>Node1&#45;&gt;Node5</title>
<path fill="none" stroke="midnightblue" d="M147.754,-33.5254C167.682,-29.5607 189.012,-25.3169 207.994,-21.5405"/>
<polygon fill="midnightblue" stroke="midnightblue" points="208.854,-24.938 217.979,-19.5539 207.488,-18.0726 208.854,-24.938"/>
</g>
<!-- Node4 -->
<g id="node4" class="node"><title>Node4</title>
<g id="a_node4"><a xlink:href="../../d1/dbe/classturtle_1_1_position.html#a1d079c846ce96bf1c57da388c46669e1" target="_top" xlink:title="turtle.Position.getXPos">
<polygon fill="white" stroke="black" points="386.5,-38.5 386.5,-57.5 511.5,-57.5 511.5,-38.5 386.5,-38.5"/>
<text text-anchor="middle" x="449" y="-45.5" font-family="Helvetica,sans-Serif" font-size="10.00">turtle.Position.getXPos</text>
</a>
</g>
</g>
<!-- Node3&#45;&gt;Node4 -->
<g id="edge3" class="edge"><title>Node3&#45;&gt;Node4</title>
<path fill="none" stroke="midnightblue" d="M323.966,-48C340.53,-48 358.898,-48 376.311,-48"/>
<polygon fill="midnightblue" stroke="midnightblue" points="376.432,-51.5001 386.432,-48 376.432,-44.5001 376.432,-51.5001"/>
</g>
<!-- Node6 -->
<g id="node6" class="node"><title>Node6</title>
<g id="a_node6"><a xlink:href="../../d1/dbe/classturtle_1_1_position.html#a3a68708e4dc3290c4ef0ecd511cc8c1f" target="_top" xlink:title="turtle.Position.getYPos">
<polygon fill="white" stroke="black" points="387,-0.5 387,-19.5 511,-19.5 511,-0.5 387,-0.5"/>
<text text-anchor="middle" x="449" y="-7.5" font-family="Helvetica,sans-Serif" font-size="10.00">turtle.Position.getYPos</text>
</a>
</g>
</g>
<!-- Node5&#45;&gt;Node6 -->
<g id="edge5" class="edge"><title>Node5&#45;&gt;Node6</title>
<path fill="none" stroke="midnightblue" d="M323.475,-10C340.227,-10 358.86,-10 376.501,-10"/>
<polygon fill="midnightblue" stroke="midnightblue" points="376.752,-13.5001 386.752,-10 376.752,-6.5001 376.752,-13.5001"/>
</g>
</g>
</svg>
