<?xml version="1.0" encoding="UTF-8" standalone="no"?>
<!DOCTYPE svg PUBLIC "-//W3C//DTD SVG 1.1//EN"
 "http://www.w3.org/Graphics/SVG/1.1/DTD/svg11.dtd">
<!-- Generated by graphviz version 2.36.0 (20140111.2315)
 -->
<!-- Title: commands.ControlCommand Pages: 1 -->
<svg width="660pt" height="283pt"
 viewBox="0.00 0.00 660.00 283.00" xmlns="http://www.w3.org/2000/svg" xmlns:xlink="http://www.w3.org/1999/xlink">
<g id="graph0" class="graph" transform="scale(1 1) rotate(0) translate(4 279)">
<title>commands.ControlCommand</title>
<polygon fill="white" stroke="none" points="-4,4 -4,-279 656,-279 656,4 -4,4"/>
<!-- Node1 -->
<g id="node1" class="node"><title>Node1</title>
<polygon fill="#bfbfbf" stroke="black" points="292,-127.5 292,-146.5 450,-146.5 450,-127.5 292,-127.5"/>
<text text-anchor="middle" x="371" y="-134.5" font-family="Helvetica,sans-Serif" font-size="10.00">commands.ControlCommand</text>
</g>
<!-- Node4 -->
<g id="node4" class="node"><title>Node4</title>
<g id="a_node4"><a xlink:href="../../d8/d84/classcommands_1_1control_commands_1_1_do_command.html" target="_top" xlink:title="commands.controlCommands.\lDoCommand">
<polygon fill="white" stroke="black" points="486.5,-245 486.5,-275 651.5,-275 651.5,-245 486.5,-245"/>
<text text-anchor="start" x="494.5" y="-263" font-family="Helvetica,sans-Serif" font-size="10.00">commands.controlCommands.</text>
<text text-anchor="middle" x="569" y="-252" font-family="Helvetica,sans-Serif" font-size="10.00">DoCommand</text>
</a>
</g>
</g>
<!-- Node1&#45;&gt;Node4 -->
<g id="edge3" class="edge"><title>Node1&#45;&gt;Node4</title>
<path fill="none" stroke="midnightblue" d="M387.421,-154.061C407.935,-175.789 446.258,-213.134 486,-235 492.911,-238.802 500.475,-242.102 508.126,-244.944"/>
<polygon fill="midnightblue" stroke="midnightblue" points="389.832,-151.514 380.465,-146.563 384.7,-156.274 389.832,-151.514"/>
</g>
<!-- Node5 -->
<g id="node5" class="node"><title>Node5</title>
<g id="a_node5"><a xlink:href="../../da/dbb/classcommands_1_1control_commands_1_1_for_command.html" target="_top" xlink:title="commands.controlCommands.\lForCommand">
<polygon fill="white" stroke="black" points="486.5,-196 486.5,-226 651.5,-226 651.5,-196 486.5,-196"/>
<text text-anchor="start" x="494.5" y="-214" font-family="Helvetica,sans-Serif" font-size="10.00">commands.controlCommands.</text>
<text text-anchor="middle" x="569" y="-203" font-family="Helvetica,sans-Serif" font-size="10.00">ForCommand</text>
</a>
</g>
</g>
<!-- Node1&#45;&gt;Node5 -->
<g id="edge4" class="edge"><title>Node1&#45;&gt;Node5</title>
<path fill="none" stroke="midnightblue" d="M401.463,-150.726C424.272,-161.091 456.794,-175.308 486,-186 495.504,-189.479 505.744,-192.874 515.659,-195.984"/>
<polygon fill="midnightblue" stroke="midnightblue" points="402.87,-147.52 392.321,-146.541 399.956,-153.885 402.87,-147.52"/>
</g>
<!-- Node6 -->
<g id="node6" class="node"><title>Node6</title>
<g id="a_node6"><a xlink:href="../../d5/d60/classcommands_1_1control_commands_1_1_if_command.html" target="_top" xlink:title="commands.controlCommands.\lIfCommand">
<polygon fill="white" stroke="black" points="486.5,-147 486.5,-177 651.5,-177 651.5,-147 486.5,-147"/>
<text text-anchor="start" x="494.5" y="-165" font-family="Helvetica,sans-Serif" font-size="10.00">commands.controlCommands.</text>
<text text-anchor="middle" x="569" y="-154" font-family="Helvetica,sans-Serif" font-size="10.00">IfCommand</text>
</a>
</g>
</g>
<!-- Node1&#45;&gt;Node6 -->
<g id="edge5" class="edge"><title>Node1&#45;&gt;Node6</title>
<path fill="none" stroke="midnightblue" d="M456.798,-147.816C466.606,-149.067 476.594,-150.341 486.36,-151.587"/>
<polygon fill="midnightblue" stroke="midnightblue" points="457.021,-144.316 446.658,-146.523 456.135,-151.26 457.021,-144.316"/>
</g>
<!-- Node7 -->
<g id="node7" class="node"><title>Node7</title>
<g id="a_node7"><a xlink:href="../../d8/d8f/classcommands_1_1control_commands_1_1_if_else_command.html" target="_top" xlink:title="commands.controlCommands.\lIfElseCommand">
<polygon fill="white" stroke="black" points="486.5,-98 486.5,-128 651.5,-128 651.5,-98 486.5,-98"/>
<text text-anchor="start" x="494.5" y="-116" font-family="Helvetica,sans-Serif" font-size="10.00">commands.controlCommands.</text>
<text text-anchor="middle" x="569" y="-105" font-family="Helvetica,sans-Serif" font-size="10.00">IfElseCommand</text>
</a>
</g>
</g>
<!-- Node1&#45;&gt;Node7 -->
<g id="edge6" class="edge"><title>Node1&#45;&gt;Node7</title>
<path fill="none" stroke="midnightblue" d="M459.733,-126.257C468.637,-125.167 477.654,-124.063 486.488,-122.981"/>
<polygon fill="midnightblue" stroke="midnightblue" points="459.246,-122.791 449.746,-127.48 460.097,-129.739 459.246,-122.791"/>
</g>
<!-- Node8 -->
<g id="node8" class="node"><title>Node8</title>
<g id="a_node8"><a xlink:href="../../d0/da1/classcommands_1_1control_commands_1_1_repeat_command.html" target="_top" xlink:title="commands.controlCommands.\lRepeatCommand">
<polygon fill="white" stroke="black" points="486.5,-49 486.5,-79 651.5,-79 651.5,-49 486.5,-49"/>
<text text-anchor="start" x="494.5" y="-67" font-family="Helvetica,sans-Serif" font-size="10.00">commands.controlCommands.</text>
<text text-anchor="middle" x="569" y="-56" font-family="Helvetica,sans-Serif" font-size="10.00">RepeatCommand</text>
</a>
</g>
</g>
<!-- Node1&#45;&gt;Node8 -->
<g id="edge7" class="edge"><title>Node1&#45;&gt;Node8</title>
<path fill="none" stroke="midnightblue" d="M401.429,-123.181C424.22,-112.766 456.734,-98.5285 486,-88 494.654,-84.8868 503.925,-81.8738 513.008,-79.0951"/>
<polygon fill="midnightblue" stroke="midnightblue" points="399.913,-120.026 392.295,-127.388 402.842,-126.384 399.913,-120.026"/>
</g>
<!-- Node9 -->
<g id="node9" class="node"><title>Node9</title>
<g id="a_node9"><a xlink:href="../../d9/d3f/classcommands_1_1control_commands_1_1_to_command.html" target="_top" xlink:title="commands.controlCommands.\lToCommand">
<polygon fill="white" stroke="black" points="486.5,-0 486.5,-30 651.5,-30 651.5,-0 486.5,-0"/>
<text text-anchor="start" x="494.5" y="-18" font-family="Helvetica,sans-Serif" font-size="10.00">commands.controlCommands.</text>
<text text-anchor="middle" x="569" y="-7" font-family="Helvetica,sans-Serif" font-size="10.00">ToCommand</text>
</a>
</g>
</g>
<!-- Node1&#45;&gt;Node9 -->
<g id="edge8" class="edge"><title>Node1&#45;&gt;Node9</title>
<path fill="none" stroke="midnightblue" d="M387.384,-119.87C407.857,-98.0674 446.136,-60.6432 486,-39 492.257,-35.6027 499.051,-32.6357 505.96,-30.057"/>
<polygon fill="midnightblue" stroke="midnightblue" points="384.65,-117.672 380.443,-127.396 389.795,-122.418 384.65,-117.672"/>
</g>
<!-- Node2 -->
<g id="node2" class="node"><title>Node2</title>
<g id="a_node2"><a xlink:href="../../da/d90/classcommands_1_1_base_command.html" target="_top" xlink:title="commands.BaseCommand">
<polygon fill="white" stroke="black" points="108,-127.5 108,-146.5 256,-146.5 256,-127.5 108,-127.5"/>
<text text-anchor="middle" x="182" y="-134.5" font-family="Helvetica,sans-Serif" font-size="10.00">commands.BaseCommand</text>
</a>
</g>
</g>
<!-- Node2&#45;&gt;Node1 -->
<g id="edge1" class="edge"><title>Node2&#45;&gt;Node1</title>
<path fill="none" stroke="midnightblue" d="M266.323,-137C274.762,-137 283.313,-137 291.697,-137"/>
<polygon fill="midnightblue" stroke="midnightblue" points="266.103,-133.5 256.103,-137 266.102,-140.5 266.103,-133.5"/>
</g>
<!-- Node3 -->
<g id="node3" class="node"><title>Node3</title>
<polygon fill="white" stroke="#bfbfbf" points="0.5,-127.5 0.5,-146.5 71.5,-146.5 71.5,-127.5 0.5,-127.5"/>
<text text-anchor="middle" x="36" y="-134.5" font-family="Helvetica,sans-Serif" font-size="10.00">Serializable</text>
</g>
<!-- Node3&#45;&gt;Node2 -->
<g id="edge2" class="edge"><title>Node3&#45;&gt;Node2</title>
<path fill="none" stroke="midnightblue" d="M81.9439,-137C90.1703,-137 98.9482,-137 107.751,-137"/>
<polygon fill="midnightblue" stroke="midnightblue" points="81.8584,-133.5 71.8584,-137 81.8583,-140.5 81.8584,-133.5"/>
</g>
</g>
</svg>
