<?xml version="1.0" encoding="UTF-8" standalone="no"?>
<!DOCTYPE svg PUBLIC "-//W3C//DTD SVG 1.1//EN"
 "http://www.w3.org/Graphics/SVG/1.1/DTD/svg11.dtd">
<!-- Generated by graphviz version 2.36.0 (20140111.2315)
 -->
<!-- Title: p Pages: 1 -->
<svg width="220pt" height="289pt"
 viewBox="0.00 0.00 220.00 289.00" xmlns="http://www.w3.org/2000/svg" xmlns:xlink="http://www.w3.org/1999/xlink">
<g id="graph0" class="graph" transform="scale(1 1) rotate(0) translate(4 285)">
<title>p</title>
<polygon fill="white" stroke="none" points="-4,4 -4,-285 216,-285 216,4 -4,4"/>
<!-- Node1 -->
<g id="node1" class="node"><title>Node1</title>
<polygon fill="#bfbfbf" stroke="black" points="0.5,-114.5 0.5,-133.5 29.5,-133.5 29.5,-114.5 0.5,-114.5"/>
<text text-anchor="middle" x="15" y="-121.5" font-family="Helvetica,sans-Serif" font-size="10.00">p</text>
</g>
<!-- Node2 -->
<g id="node2" class="node"><title>Node2</title>
<g id="a_node2"><a xlink:href="../../d8/d40/class_g_u_i_functions_1_1_set_pen_up.html#a66b0a694c32b985e22e6814d48fa7a5c" target="_top" xlink:title="GUIFunctions.SetPenUp.do\lAction">
<polygon fill="white" stroke="black" points="66.5,-251 66.5,-281 211.5,-281 211.5,-251 66.5,-251"/>
<text text-anchor="start" x="74.5" y="-269" font-family="Helvetica,sans-Serif" font-size="10.00">GUIFunctions.SetPenUp.do</text>
<text text-anchor="middle" x="139" y="-258" font-family="Helvetica,sans-Serif" font-size="10.00">Action</text>
</a>
</g>
</g>
<!-- Node1&#45;&gt;Node2 -->
<g id="edge1" class="edge"><title>Node1&#45;&gt;Node2</title>
<path fill="none" stroke="midnightblue" d="M19.3505,-143.769C24.7322,-169.595 37.7157,-214.62 66,-241 70.161,-244.881 74.9555,-248.163 80.0533,-250.939"/>
<polygon fill="midnightblue" stroke="midnightblue" points="22.7403,-142.859 17.4358,-133.687 15.8632,-144.165 22.7403,-142.859"/>
</g>
<!-- Node3 -->
<g id="node3" class="node"><title>Node3</title>
<g id="a_node3"><a xlink:href="../../d0/d77/class_g_u_i_functions_1_1_pen_style.html#a8e84d8f42da0306329a5e0266012b118" target="_top" xlink:title="GUIFunctions.PenStyle.do\lAction">
<polygon fill="white" stroke="black" points="69.5,-202 69.5,-232 208.5,-232 208.5,-202 69.5,-202"/>
<text text-anchor="start" x="77.5" y="-220" font-family="Helvetica,sans-Serif" font-size="10.00">GUIFunctions.PenStyle.do</text>
<text text-anchor="middle" x="139" y="-209" font-family="Helvetica,sans-Serif" font-size="10.00">Action</text>
</a>
</g>
</g>
<!-- Node1&#45;&gt;Node3 -->
<g id="edge2" class="edge"><title>Node1&#45;&gt;Node3</title>
<path fill="none" stroke="midnightblue" d="M25.642,-142.825C34.3174,-158.047 48.3937,-179.014 66,-192 71.218,-195.849 77.0763,-199.14 83.1386,-201.946"/>
<polygon fill="midnightblue" stroke="midnightblue" points="28.5855,-140.911 20.7381,-133.793 22.4337,-144.251 28.5855,-140.911"/>
</g>
<!-- Node4 -->
<g id="node4" class="node"><title>Node4</title>
<g id="a_node4"><a xlink:href="../../da/d16/class_g_u_i_functions_1_1_pen_color.html#a40da853af47e7550f10ebb66756a8548" target="_top" xlink:title="GUIFunctions.PenColor.do\lAction">
<polygon fill="white" stroke="black" points="69.5,-153 69.5,-183 208.5,-183 208.5,-153 69.5,-153"/>
<text text-anchor="start" x="77.5" y="-171" font-family="Helvetica,sans-Serif" font-size="10.00">GUIFunctions.PenColor.do</text>
<text text-anchor="middle" x="139" y="-160" font-family="Helvetica,sans-Serif" font-size="10.00">Action</text>
</a>
</g>
</g>
<!-- Node1&#45;&gt;Node4 -->
<g id="edge3" class="edge"><title>Node1&#45;&gt;Node4</title>
<path fill="none" stroke="midnightblue" d="M39.1104,-132.942C47.5522,-136.166 57.1894,-139.797 66,-143 75.0782,-146.3 84.8336,-149.751 94.1418,-152.998"/>
<polygon fill="midnightblue" stroke="midnightblue" points="40.1322,-129.585 29.5421,-129.267 37.6228,-136.12 40.1322,-129.585"/>
</g>
<!-- Node5 -->
<g id="node5" class="node"><title>Node5</title>
<g id="a_node5"><a xlink:href="../../d0/d30/classturtle_1_1_left.html#a62cdfb6f69dfab320b057de821a4f015" target="_top" xlink:title="turtle.Left.move">
<polygon fill="white" stroke="black" points="92.5,-114.5 92.5,-133.5 185.5,-133.5 185.5,-114.5 92.5,-114.5"/>
<text text-anchor="middle" x="139" y="-121.5" font-family="Helvetica,sans-Serif" font-size="10.00">turtle.Left.move</text>
</a>
</g>
</g>
<!-- Node1&#45;&gt;Node5 -->
<g id="edge4" class="edge"><title>Node1&#45;&gt;Node5</title>
<path fill="none" stroke="midnightblue" d="M39.9,-124C54.8347,-124 74.5534,-124 92.3928,-124"/>
<polygon fill="midnightblue" stroke="midnightblue" points="39.5223,-120.5 29.5223,-124 39.5222,-127.5 39.5223,-120.5"/>
</g>
<!-- Node6 -->
<g id="node6" class="node"><title>Node6</title>
<g id="a_node6"><a xlink:href="../../d4/db5/classturtle_1_1_down.html#a13de87a6a6ac547adb82232c64968916" target="_top" xlink:title="turtle.Down.move">
<polygon fill="white" stroke="black" points="88.5,-76.5 88.5,-95.5 189.5,-95.5 189.5,-76.5 88.5,-76.5"/>
<text text-anchor="middle" x="139" y="-83.5" font-family="Helvetica,sans-Serif" font-size="10.00">turtle.Down.move</text>
</a>
</g>
</g>
<!-- Node1&#45;&gt;Node6 -->
<g id="edge5" class="edge"><title>Node1&#45;&gt;Node6</title>
<path fill="none" stroke="midnightblue" d="M39.3401,-114.548C47.6842,-111.325 57.1996,-107.825 66,-105 76.5861,-101.602 88.1851,-98.3431 98.9219,-95.513"/>
<polygon fill="midnightblue" stroke="midnightblue" points="37.891,-111.357 29.8698,-118.279 40.4568,-117.87 37.891,-111.357"/>
</g>
<!-- Node7 -->
<g id="node7" class="node"><title>Node7</title>
<g id="a_node7"><a xlink:href="../../d9/d75/classturtle_1_1_right.html#a84d248152f585b2ad868acfbf548afc7" target="_top" xlink:title="turtle.Right.move">
<polygon fill="white" stroke="black" points="89.5,-38.5 89.5,-57.5 188.5,-57.5 188.5,-38.5 89.5,-38.5"/>
<text text-anchor="middle" x="139" y="-45.5" font-family="Helvetica,sans-Serif" font-size="10.00">turtle.Right.move</text>
</a>
</g>
</g>
<!-- Node1&#45;&gt;Node7 -->
<g id="edge6" class="edge"><title>Node1&#45;&gt;Node7</title>
<path fill="none" stroke="midnightblue" d="M27.5314,-105.91C36.5336,-93.2142 50.1492,-76.8137 66,-67 73.1446,-62.5765 81.3029,-59.1745 89.4994,-56.5603"/>
<polygon fill="midnightblue" stroke="midnightblue" points="24.5253,-104.108 21.8257,-114.353 30.325,-108.027 24.5253,-104.108"/>
</g>
<!-- Node8 -->
<g id="node8" class="node"><title>Node8</title>
<g id="a_node8"><a xlink:href="../../df/d4e/classturtle_1_1_up.html#a2a4bb4d5da9f09e70c1ef4baa33e6c02" target="_top" xlink:title="turtle.Up.move">
<polygon fill="white" stroke="black" points="94.5,-0.5 94.5,-19.5 183.5,-19.5 183.5,-0.5 94.5,-0.5"/>
<text text-anchor="middle" x="139" y="-7.5" font-family="Helvetica,sans-Serif" font-size="10.00">turtle.Up.move</text>
</a>
</g>
</g>
<!-- Node1&#45;&gt;Node8 -->
<g id="edge7" class="edge"><title>Node1&#45;&gt;Node8</title>
<path fill="none" stroke="midnightblue" d="M21.1189,-104.493C27.8186,-82.8275 41.6719,-48.3598 66,-29 74.0926,-22.56 84.1586,-18.2896 94.1743,-15.4616"/>
<polygon fill="midnightblue" stroke="midnightblue" points="17.7151,-103.666 18.3198,-114.244 24.4433,-105.598 17.7151,-103.666"/>
</g>
</g>
</svg>
