<?xml version="1.0" encoding="UTF-8" standalone="no"?>
<!DOCTYPE svg PUBLIC "-//W3C//DTD SVG 1.1//EN"
 "http://www.w3.org/Graphics/SVG/1.1/DTD/svg11.dtd">
<!-- Generated by graphviz version 2.36.0 (20140111.2315)
 -->
<!-- Title: GUIFunctions.LanguageMenu.doAction Pages: 1 -->
<svg width="890pt" height="38pt"
 viewBox="0.00 0.00 890.00 38.00" xmlns="http://www.w3.org/2000/svg" xmlns:xlink="http://www.w3.org/1999/xlink">
<g id="graph0" class="graph" transform="scale(1 1) rotate(0) translate(4 34)">
<title>GUIFunctions.LanguageMenu.doAction</title>
<polygon fill="white" stroke="none" points="-4,4 -4,-34 886,-34 886,4 -4,4"/>
<!-- Node1 -->
<g id="node1" class="node"><title>Node1</title>
<polygon fill="#bfbfbf" stroke="black" points="0,-0 0,-30 170,-30 170,-0 0,-0"/>
<text text-anchor="start" x="8" y="-18" font-family="Helvetica,sans-Serif" font-size="10.00">GUIFunctions.LanguageMenu.do</text>
<text text-anchor="middle" x="85" y="-7" font-family="Helvetica,sans-Serif" font-size="10.00">Action</text>
</g>
<!-- Node2 -->
<g id="node2" class="node"><title>Node2</title>
<g id="a_node2"><a xlink:href="../../d6/d33/class_view_1_1_slogo_view.html#a8ae824124d33ee8cc64ad232b3751863" target="_top" xlink:title="View.SlogoView.makeLanguageMenu">
<polygon fill="white" stroke="black" points="206,-5.5 206,-24.5 398,-24.5 398,-5.5 206,-5.5"/>
<text text-anchor="middle" x="302" y="-12.5" font-family="Helvetica,sans-Serif" font-size="10.00">View.SlogoView.makeLanguageMenu</text>
</a>
</g>
</g>
<!-- Node1&#45;&gt;Node2 -->
<g id="edge1" class="edge"><title>Node1&#45;&gt;Node2</title>
<path fill="none" stroke="midnightblue" d="M180.066,-15C188.656,-15 197.363,-15 205.962,-15"/>
<polygon fill="midnightblue" stroke="midnightblue" points="180.048,-11.5001 170.048,-15 180.048,-18.5001 180.048,-11.5001"/>
</g>
<!-- Node3 -->
<g id="node3" class="node"><title>Node3</title>
<g id="a_node3"><a xlink:href="../../d6/d33/class_view_1_1_slogo_view.html#a7c84b547efa8603bbd40e36795873355" target="_top" xlink:title="View.SlogoView.addMenuBar">
<polygon fill="white" stroke="black" points="434,-5.5 434,-24.5 586,-24.5 586,-5.5 434,-5.5"/>
<text text-anchor="middle" x="510" y="-12.5" font-family="Helvetica,sans-Serif" font-size="10.00">View.SlogoView.addMenuBar</text>
</a>
</g>
</g>
<!-- Node2&#45;&gt;Node3 -->
<g id="edge2" class="edge"><title>Node2&#45;&gt;Node3</title>
<path fill="none" stroke="midnightblue" d="M408.321,-15C416.979,-15 425.615,-15 433.985,-15"/>
<polygon fill="midnightblue" stroke="midnightblue" points="408.161,-11.5001 398.161,-15 408.161,-18.5001 408.161,-11.5001"/>
</g>
<!-- Node4 -->
<g id="node4" class="node"><title>Node4</title>
<g id="a_node4"><a xlink:href="../../d6/d33/class_view_1_1_slogo_view.html#acfeff052503655d2ac419d2bf4ea9bd5" target="_top" xlink:title="View.SlogoView.initialize">
<polygon fill="white" stroke="black" points="622,-5.5 622,-24.5 752,-24.5 752,-5.5 622,-5.5"/>
<text text-anchor="middle" x="687" y="-12.5" font-family="Helvetica,sans-Serif" font-size="10.00">View.SlogoView.initialize</text>
</a>
</g>
</g>
<!-- Node3&#45;&gt;Node4 -->
<g id="edge3" class="edge"><title>Node3&#45;&gt;Node4</title>
<path fill="none" stroke="midnightblue" d="M596.289,-15C604.885,-15 613.509,-15 621.83,-15"/>
<polygon fill="midnightblue" stroke="midnightblue" points="596.231,-11.5001 586.231,-15 596.231,-18.5001 596.231,-11.5001"/>
</g>
<!-- Node5 -->
<g id="node5" class="node"><title>Node5</title>
<g id="a_node5"><a xlink:href="../../db/d27/class_view_1_1_slogo.html#a6ab76a53160b61d8501aec91c55b85c8" target="_top" xlink:title="View.Slogo.start">
<polygon fill="white" stroke="black" points="788.5,-5.5 788.5,-24.5 881.5,-24.5 881.5,-5.5 788.5,-5.5"/>
<text text-anchor="middle" x="835" y="-12.5" font-family="Helvetica,sans-Serif" font-size="10.00">View.Slogo.start</text>
</a>
</g>
</g>
<!-- Node4&#45;&gt;Node5 -->
<g id="edge4" class="edge"><title>Node4&#45;&gt;Node5</title>
<path fill="none" stroke="midnightblue" d="M762.142,-15C771.108,-15 780.051,-15 788.43,-15"/>
<polygon fill="midnightblue" stroke="midnightblue" points="762.038,-11.5001 752.038,-15 762.038,-18.5001 762.038,-11.5001"/>
</g>
</g>
</svg>
