<?xml version="1.0" encoding="UTF-8" standalone="no"?>
<!DOCTYPE svg PUBLIC "-//W3C//DTD SVG 1.1//EN"
 "http://www.w3.org/Graphics/SVG/1.1/DTD/svg11.dtd">
<!-- Generated by graphviz version 2.36.0 (20140111.2315)
 -->
<!-- Title: turtle.Up.move Pages: 1 -->
<svg width="258pt" height="104pt"
 viewBox="0.00 0.00 258.00 104.00" xmlns="http://www.w3.org/2000/svg" xmlns:xlink="http://www.w3.org/1999/xlink">
<g id="graph0" class="graph" transform="scale(1 1) rotate(0) translate(4 100)">
<title>turtle.Up.move</title>
<polygon fill="white" stroke="none" points="-4,4 -4,-100 254,-100 254,4 -4,4"/>
<!-- Node1 -->
<g id="node1" class="node"><title>Node1</title>
<polygon fill="#bfbfbf" stroke="black" points="0.5,-38.5 0.5,-57.5 89.5,-57.5 89.5,-38.5 0.5,-38.5"/>
<text text-anchor="middle" x="45" y="-45.5" font-family="Helvetica,sans-Serif" font-size="10.00">turtle.Up.move</text>
</g>
<!-- Node2 -->
<g id="node2" class="node"><title>Node2</title>
<g id="a_node2"><a xlink:href="../../d1/dbe/classturtle_1_1_position.html#a3a68708e4dc3290c4ef0ecd511cc8c1f" target="_top" xlink:title="turtle.Position.getYPos">
<polygon fill="white" stroke="black" points="126,-76.5 126,-95.5 250,-95.5 250,-76.5 126,-76.5"/>
<text text-anchor="middle" x="188" y="-83.5" font-family="Helvetica,sans-Serif" font-size="10.00">turtle.Position.getYPos</text>
</a>
</g>
</g>
<!-- Node1&#45;&gt;Node2 -->
<g id="edge1" class="edge"><title>Node1&#45;&gt;Node2</title>
<path fill="none" stroke="midnightblue" d="M81.5803,-57.589C99.782,-62.4944 122.138,-68.5196 141.572,-73.7571"/>
<polygon fill="midnightblue" stroke="midnightblue" points="140.865,-77.1912 151.431,-76.4141 142.686,-70.4324 140.865,-77.1912"/>
</g>
<!-- Node3 -->
<g id="node3" class="node"><title>Node3</title>
<g id="a_node3"><a xlink:href="../../d5/de7/jquery_8js.html#a2335e57f79b6acfb6de59c235dc8a83e" target="_top" xlink:title="p">
<polygon fill="white" stroke="black" points="173.5,-38.5 173.5,-57.5 202.5,-57.5 202.5,-38.5 173.5,-38.5"/>
<text text-anchor="middle" x="188" y="-45.5" font-family="Helvetica,sans-Serif" font-size="10.00">p</text>
</a>
</g>
</g>
<!-- Node1&#45;&gt;Node3 -->
<g id="edge2" class="edge"><title>Node1&#45;&gt;Node3</title>
<path fill="none" stroke="midnightblue" d="M89.8404,-48C114.123,-48 143.355,-48 163.37,-48"/>
<polygon fill="midnightblue" stroke="midnightblue" points="163.452,-51.5001 173.452,-48 163.452,-44.5001 163.452,-51.5001"/>
</g>
<!-- Node4 -->
<g id="node4" class="node"><title>Node4</title>
<g id="a_node4"><a xlink:href="../../d1/dbe/classturtle_1_1_position.html#a7c26cf9316a28fb4821731864ed28c95" target="_top" xlink:title="turtle.Position.setYPos">
<polygon fill="white" stroke="black" points="126.5,-0.5 126.5,-19.5 249.5,-19.5 249.5,-0.5 126.5,-0.5"/>
<text text-anchor="middle" x="188" y="-7.5" font-family="Helvetica,sans-Serif" font-size="10.00">turtle.Position.setYPos</text>
</a>
</g>
</g>
<!-- Node1&#45;&gt;Node4 -->
<g id="edge3" class="edge"><title>Node1&#45;&gt;Node4</title>
<path fill="none" stroke="midnightblue" d="M81.5803,-38.411C99.782,-33.5056 122.138,-27.4804 141.572,-22.2429"/>
<polygon fill="midnightblue" stroke="midnightblue" points="142.686,-25.5676 151.431,-19.5859 140.865,-18.8088 142.686,-25.5676"/>
</g>
</g>
</svg>
