<?xml version="1.0" encoding="UTF-8" standalone="no"?>
<!DOCTYPE svg PUBLIC "-//W3C//DTD SVG 1.1//EN"
 "http://www.w3.org/Graphics/SVG/1.1/DTD/svg11.dtd">
<!-- Generated by graphviz version 2.36.0 (20140111.2315)
 -->
<!-- Title: commands.turtleCommands.MultipleTurtleCommand Pages: 1 -->
<svg width="988pt" height="168pt"
 viewBox="0.00 0.00 988.00 168.00" xmlns="http://www.w3.org/2000/svg" xmlns:xlink="http://www.w3.org/1999/xlink">
<g id="graph0" class="graph" transform="scale(1 1) rotate(0) translate(4 164)">
<title>commands.turtleCommands.MultipleTurtleCommand</title>
<polygon fill="white" stroke="none" points="-4,4 -4,-164 984,-164 984,4 -4,4"/>
<!-- Node1 -->
<g id="node1" class="node"><title>Node1</title>
<polygon fill="#bfbfbf" stroke="black" points="822,-79 822,-109 980,-109 980,-79 822,-79"/>
<text text-anchor="start" x="830" y="-97" font-family="Helvetica,sans-Serif" font-size="10.00">commands.turtleCommands.</text>
<text text-anchor="middle" x="901" y="-86" font-family="Helvetica,sans-Serif" font-size="10.00">MultipleTurtleCommand</text>
</g>
<!-- Node2 -->
<g id="node2" class="node"><title>Node2</title>
<g id="a_node2"><a xlink:href="../../d3/d03/classcommands_1_1turtle_commands_1_1_turtle_command.html" target="_top" xlink:title="commands.turtleCommands.\lTurtleCommand">
<polygon fill="white" stroke="black" points="510,-79 510,-109 668,-109 668,-79 510,-79"/>
<text text-anchor="start" x="518" y="-97" font-family="Helvetica,sans-Serif" font-size="10.00">commands.turtleCommands.</text>
<text text-anchor="middle" x="589" y="-86" font-family="Helvetica,sans-Serif" font-size="10.00">TurtleCommand</text>
</a>
</g>
</g>
<!-- Node2&#45;&gt;Node1 -->
<g id="edge1" class="edge"><title>Node2&#45;&gt;Node1</title>
<path fill="none" stroke="midnightblue" d="M678.317,-94C723.537,-94 778.114,-94 821.799,-94"/>
<polygon fill="midnightblue" stroke="midnightblue" points="678.226,-90.5001 668.226,-94 678.226,-97.5001 678.226,-90.5001"/>
</g>
<!-- Node3 -->
<g id="node3" class="node"><title>Node3</title>
<g id="a_node3"><a xlink:href="../../da/d90/classcommands_1_1_base_command.html" target="_top" xlink:title="commands.BaseCommand">
<polygon fill="white" stroke="black" points="230,-111.5 230,-130.5 378,-130.5 378,-111.5 230,-111.5"/>
<text text-anchor="middle" x="304" y="-118.5" font-family="Helvetica,sans-Serif" font-size="10.00">commands.BaseCommand</text>
</a>
</g>
</g>
<!-- Node3&#45;&gt;Node1 -->
<g id="edge11" class="edge"><title>Node3&#45;&gt;Node1</title>
<path fill="none" stroke="#9a32cd" stroke-dasharray="5,2" d="M388.14,-124.703C392.149,-124.818 396.119,-124.918 400,-125 579.675,-128.781 625.354,-127.569 804,-108 809.86,-107.358 815.912,-106.63 821.994,-105.851"/>
<polygon fill="#9a32cd" stroke="#9a32cd" points="388.226,-121.204 378.121,-124.389 388.006,-128.201 388.226,-121.204"/>
<text text-anchor="middle" x="589" y="-130" font-family="Helvetica,sans-Serif" font-size="10.00"> myInternalCommand</text>
</g>
<!-- Node3&#45;&gt;Node2 -->
<g id="edge2" class="edge"><title>Node3&#45;&gt;Node2</title>
<path fill="none" stroke="midnightblue" d="M388.67,-115.81C420.993,-113.524 458.255,-110.545 492,-107 497.854,-106.385 503.902,-105.695 509.982,-104.963"/>
<polygon fill="midnightblue" stroke="midnightblue" points="388.093,-112.342 378.36,-116.528 388.579,-119.325 388.093,-112.342"/>
</g>
<!-- Node3&#45;&gt;Node2 -->
<g id="edge10" class="edge"><title>Node3&#45;&gt;Node2</title>
<path fill="none" stroke="#9a32cd" stroke-dasharray="5,2" d="M341.021,-108.217C358.568,-102.649 380.126,-96.7694 400,-94 435.882,-88.9999 475.993,-88.3358 509.919,-89.1877"/>
<polygon fill="#9a32cd" stroke="#9a32cd" points="339.61,-104.996 331.195,-111.434 341.788,-111.649 339.61,-104.996"/>
<text text-anchor="middle" x="446" y="-97" font-family="Helvetica,sans-Serif" font-size="10.00"> myArgumentList</text>
</g>
<!-- Node3&#45;&gt;Node3 -->
<g id="edge4" class="edge"><title>Node3&#45;&gt;Node3</title>
<path fill="none" stroke="#9a32cd" stroke-dasharray="5,2" d="M286.223,-140.4C287.41,-145.315 293.336,-149 304,-149 321.062,-149 325.995,-139.565 318.796,-130.757"/>
<polygon fill="#9a32cd" stroke="#9a32cd" points="289.594,-141.345 289.204,-130.757 282.907,-139.278 289.594,-141.345"/>
<text text-anchor="middle" x="304" y="-152" font-family="Helvetica,sans-Serif" font-size="10.00"> myNextCommand</text>
</g>
<!-- Node4 -->
<g id="node4" class="node"><title>Node4</title>
<polygon fill="white" stroke="#bfbfbf" points="58.5,-111.5 58.5,-130.5 129.5,-130.5 129.5,-111.5 58.5,-111.5"/>
<text text-anchor="middle" x="94" y="-118.5" font-family="Helvetica,sans-Serif" font-size="10.00">Serializable</text>
</g>
<!-- Node4&#45;&gt;Node3 -->
<g id="edge3" class="edge"><title>Node4&#45;&gt;Node3</title>
<path fill="none" stroke="midnightblue" d="M139.818,-121C166,-121 199.683,-121 229.641,-121"/>
<polygon fill="midnightblue" stroke="midnightblue" points="139.815,-117.5 129.815,-121 139.814,-124.5 139.815,-117.5"/>
</g>
<!-- Node5 -->
<g id="node5" class="node"><title>Node5</title>
<g id="a_node5"><a xlink:href="../../d4/d37/classcommands_1_1information_1_1_base_grid_container.html" target="_top" xlink:title="commands.information.Base\lGridContainer">
<polygon fill="white" stroke="black" points="226.5,-50 226.5,-80 381.5,-80 381.5,-50 226.5,-50"/>
<text text-anchor="start" x="234.5" y="-68" font-family="Helvetica,sans-Serif" font-size="10.00">commands.information.Base</text>
<text text-anchor="middle" x="304" y="-57" font-family="Helvetica,sans-Serif" font-size="10.00">GridContainer</text>
</a>
</g>
</g>
<!-- Node5&#45;&gt;Node2 -->
<g id="edge5" class="edge"><title>Node5&#45;&gt;Node2</title>
<path fill="none" stroke="#9a32cd" stroke-dasharray="5,2" d="M391.773,-66.3368C423.414,-67.5714 459.415,-69.8478 492,-74 501.964,-75.2697 512.434,-77.0164 522.648,-78.9529"/>
<polygon fill="#9a32cd" stroke="#9a32cd" points="391.782,-62.835 381.663,-65.9715 391.53,-69.8304 391.782,-62.835"/>
<text text-anchor="middle" x="446" y="-77" font-family="Helvetica,sans-Serif" font-size="10.00"> myGridContainer</text>
</g>
<!-- Node6 -->
<g id="node6" class="node"><title>Node6</title>
<g id="a_node6"><a xlink:href="../../d4/d4e/interfacecommands_1_1information_1_1_i_information_container.html" target="_top" xlink:title="commands.information.IInformation\lContainer">
<polygon fill="white" stroke="black" points="0,-50 0,-80 188,-80 188,-50 0,-50"/>
<text text-anchor="start" x="8" y="-68" font-family="Helvetica,sans-Serif" font-size="10.00">commands.information.IInformation</text>
<text text-anchor="middle" x="94" y="-57" font-family="Helvetica,sans-Serif" font-size="10.00">Container</text>
</a>
</g>
</g>
<!-- Node6&#45;&gt;Node5 -->
<g id="edge6" class="edge"><title>Node6&#45;&gt;Node5</title>
<path fill="none" stroke="midnightblue" d="M198.253,-65C207.672,-65 217.1,-65 226.227,-65"/>
<polygon fill="midnightblue" stroke="midnightblue" points="198.049,-61.5001 188.049,-65 198.049,-68.5001 198.049,-61.5001"/>
</g>
<!-- Node7 -->
<g id="node7" class="node"><title>Node7</title>
<g id="a_node7"><a xlink:href="../../d7/d28/classcommands_1_1information_1_1_base_turtle_container.html" target="_top" xlink:title="commands.information.Base\lTurtleContainer">
<polygon fill="white" stroke="black" points="226.5,-1 226.5,-31 381.5,-31 381.5,-1 226.5,-1"/>
<text text-anchor="start" x="234.5" y="-19" font-family="Helvetica,sans-Serif" font-size="10.00">commands.information.Base</text>
<text text-anchor="middle" x="304" y="-8" font-family="Helvetica,sans-Serif" font-size="10.00">TurtleContainer</text>
</a>
</g>
</g>
<!-- Node6&#45;&gt;Node7 -->
<g id="edge9" class="edge"><title>Node6&#45;&gt;Node7</title>
<path fill="none" stroke="midnightblue" d="M168.568,-47.6691C191.661,-42.2288 216.95,-36.2715 239.3,-31.0062"/>
<polygon fill="midnightblue" stroke="midnightblue" points="167.751,-44.2656 158.82,-49.9654 169.357,-51.0791 167.751,-44.2656"/>
</g>
<!-- Node7&#45;&gt;Node2 -->
<g id="edge7" class="edge"><title>Node7&#45;&gt;Node2</title>
<path fill="none" stroke="#9a32cd" stroke-dasharray="5,2" d="M391.919,-22.3886C424.645,-27.4019 461.335,-36.2875 492,-52 501.793,-57.0179 500.525,-63.4039 510,-69 516.367,-72.7605 523.366,-76.0248 530.477,-78.8393"/>
<polygon fill="#9a32cd" stroke="#9a32cd" points="392.296,-18.907 381.9,-20.9539 391.303,-25.8363 392.296,-18.907"/>
<text text-anchor="middle" x="446" y="-55" font-family="Helvetica,sans-Serif" font-size="10.00"> myTurtleContainer</text>
</g>
<!-- Node8 -->
<g id="node8" class="node"><title>Node8</title>
<g id="a_node8"><a xlink:href="../../d8/db5/interfacecommands_1_1information_1_1_i_turtle_behavior.html" target="_top" xlink:title="commands.information.ITurtle\lBehavior">
<polygon fill="white" stroke="black" points="14.5,-0 14.5,-30 173.5,-30 173.5,-0 14.5,-0"/>
<text text-anchor="start" x="22.5" y="-18" font-family="Helvetica,sans-Serif" font-size="10.00">commands.information.ITurtle</text>
<text text-anchor="middle" x="94" y="-7" font-family="Helvetica,sans-Serif" font-size="10.00">Behavior</text>
</a>
</g>
</g>
<!-- Node8&#45;&gt;Node7 -->
<g id="edge8" class="edge"><title>Node8&#45;&gt;Node7</title>
<path fill="none" stroke="midnightblue" d="M183.845,-15.4271C197.98,-15.4951 212.496,-15.5649 226.319,-15.6313"/>
<polygon fill="midnightblue" stroke="midnightblue" points="183.653,-11.9263 173.636,-15.3781 183.619,-18.9262 183.653,-11.9263"/>
</g>
<!-- Node9 -->
<g id="node9" class="node"><title>Node9</title>
<polygon fill="white" stroke="#bfbfbf" points="544.5,-40.5 544.5,-59.5 633.5,-59.5 633.5,-40.5 544.5,-40.5"/>
<text text-anchor="middle" x="589" y="-47.5" font-family="Helvetica,sans-Serif" font-size="10.00">List&lt; Integer &gt;</text>
</g>
<!-- Node9&#45;&gt;Node1 -->
<g id="edge12" class="edge"><title>Node9&#45;&gt;Node1</title>
<path fill="none" stroke="#9a32cd" stroke-dasharray="5,2" d="M643.923,-56.9993C687.221,-62.6937 749.561,-71.0592 804,-79 809.842,-79.8522 815.882,-80.7517 821.955,-81.6698"/>
<polygon fill="#9a32cd" stroke="#9a32cd" points="644.261,-53.5138 633.891,-55.6829 643.35,-60.4543 644.261,-53.5138"/>
<text text-anchor="middle" x="745" y="-82" font-family="Helvetica,sans-Serif" font-size="10.00"> myFutureActiveTurtleIDs</text>
</g>
</g>
</svg>
