<?xml version="1.0" encoding="UTF-8" standalone="no"?>
<!DOCTYPE svg PUBLIC "-//W3C//DTD SVG 1.1//EN"
 "http://www.w3.org/Graphics/SVG/1.1/DTD/svg11.dtd">
<!-- Generated by graphviz version 2.36.0 (20140111.2315)
 -->
<!-- Title: commands.viewQueries.ShowingQuery.onExecute Pages: 1 -->
<svg width="408pt" height="87pt"
 viewBox="0.00 0.00 408.00 87.00" xmlns="http://www.w3.org/2000/svg" xmlns:xlink="http://www.w3.org/1999/xlink">
<g id="graph0" class="graph" transform="scale(1 1) rotate(0) translate(4 83)">
<title>commands.viewQueries.ShowingQuery.onExecute</title>
<polygon fill="white" stroke="none" points="-4,4 -4,-83 404,-83 404,4 -4,4"/>
<!-- Node1 -->
<g id="node1" class="node"><title>Node1</title>
<polygon fill="#bfbfbf" stroke="black" points="0.5,-24 0.5,-54 173.5,-54 173.5,-24 0.5,-24"/>
<text text-anchor="start" x="8.5" y="-42" font-family="Helvetica,sans-Serif" font-size="10.00">commands.viewQueries.Showing</text>
<text text-anchor="middle" x="87" y="-31" font-family="Helvetica,sans-Serif" font-size="10.00">Query.onExecute</text>
</g>
<!-- Node2 -->
<g id="node2" class="node"><title>Node2</title>
<g id="a_node2"><a xlink:href="../../de/d53/classcommands_1_1_view_command.html#a32c2e34744e1d5c26ad5825a77e24ac1" target="_top" xlink:title="commands.ViewCommand.get\lGridContainer">
<polygon fill="white" stroke="black" points="223,-49 223,-79 387,-79 387,-49 223,-49"/>
<text text-anchor="start" x="231" y="-67" font-family="Helvetica,sans-Serif" font-size="10.00">commands.ViewCommand.get</text>
<text text-anchor="middle" x="305" y="-56" font-family="Helvetica,sans-Serif" font-size="10.00">GridContainer</text>
</a>
</g>
</g>
<!-- Node1&#45;&gt;Node2 -->
<g id="edge1" class="edge"><title>Node1&#45;&gt;Node2</title>
<path fill="none" stroke="midnightblue" d="M173.679,-48.9166C186.505,-50.401 199.77,-51.9363 212.707,-53.4336"/>
<polygon fill="midnightblue" stroke="midnightblue" points="212.661,-56.9516 222.997,-54.6247 213.466,-49.9981 212.661,-56.9516"/>
</g>
<!-- Node3 -->
<g id="node3" class="node"><title>Node3</title>
<g id="a_node3"><a xlink:href="../../d4/d37/classcommands_1_1information_1_1_base_grid_container.html#a7236ecf27bd2b6a6af63209fdb651131" target="_top" xlink:title="commands.information.Base\lGridContainer.updateDisplayOptions">
<polygon fill="white" stroke="black" points="210,-0 210,-30 400,-30 400,-0 210,-0"/>
<text text-anchor="start" x="218" y="-18" font-family="Helvetica,sans-Serif" font-size="10.00">commands.information.Base</text>
<text text-anchor="middle" x="305" y="-7" font-family="Helvetica,sans-Serif" font-size="10.00">GridContainer.updateDisplayOptions</text>
</a>
</g>
</g>
<!-- Node1&#45;&gt;Node3 -->
<g id="edge2" class="edge"><title>Node1&#45;&gt;Node3</title>
<path fill="none" stroke="midnightblue" d="M173.679,-29.4801C182.23,-28.53 190.975,-27.5583 199.689,-26.5901"/>
<polygon fill="midnightblue" stroke="midnightblue" points="200.337,-30.0397 209.889,-25.4567 199.564,-23.0825 200.337,-30.0397"/>
</g>
</g>
</svg>
