<?xml version="1.0" encoding="UTF-8" standalone="no"?>
<!DOCTYPE svg PUBLIC "-//W3C//DTD SVG 1.1//EN"
 "http://www.w3.org/Graphics/SVG/1.1/DTD/svg11.dtd">
<!-- Generated by graphviz version 2.36.0 (20140111.2315)
 -->
<!-- Title: communicator.MainController.addTurtle Pages: 1 -->
<svg width="622pt" height="87pt"
 viewBox="0.00 0.00 622.00 87.00" xmlns="http://www.w3.org/2000/svg" xmlns:xlink="http://www.w3.org/1999/xlink">
<g id="graph0" class="graph" transform="scale(1 1) rotate(0) translate(4 83)">
<title>communicator.MainController.addTurtle</title>
<polygon fill="white" stroke="none" points="-4,4 -4,-83 618,-83 618,4 -4,4"/>
<!-- Node1 -->
<g id="node1" class="node"><title>Node1</title>
<polygon fill="#bfbfbf" stroke="black" points="0,-24 0,-54 178,-54 178,-24 0,-24"/>
<text text-anchor="start" x="8" y="-42" font-family="Helvetica,sans-Serif" font-size="10.00">communicator.MainController.add</text>
<text text-anchor="middle" x="89" y="-31" font-family="Helvetica,sans-Serif" font-size="10.00">Turtle</text>
</g>
<!-- Node2 -->
<g id="node2" class="node"><title>Node2</title>
<g id="a_node2"><a xlink:href="../../d7/d28/classcommands_1_1information_1_1_base_turtle_container.html#ac2cb88e2ac1647e0035de6e5b1e89c0e" target="_top" xlink:title="commands.information.Base\lTurtleContainer.addTurtle">
<polygon fill="white" stroke="black" points="224.5,-49 224.5,-79 379.5,-79 379.5,-49 224.5,-49"/>
<text text-anchor="start" x="232.5" y="-67" font-family="Helvetica,sans-Serif" font-size="10.00">commands.information.Base</text>
<text text-anchor="middle" x="302" y="-56" font-family="Helvetica,sans-Serif" font-size="10.00">TurtleContainer.addTurtle</text>
</a>
</g>
</g>
<!-- Node1&#45;&gt;Node2 -->
<g id="edge1" class="edge"><title>Node1&#45;&gt;Node2</title>
<path fill="none" stroke="midnightblue" d="M178.26,-49.4574C190.259,-50.879 202.564,-52.3369 214.53,-53.7548"/>
<polygon fill="midnightblue" stroke="midnightblue" points="214.146,-57.2337 224.489,-54.9347 214.97,-50.2823 214.146,-57.2337"/>
</g>
<!-- Node3 -->
<g id="node3" class="node"><title>Node3</title>
<g id="a_node3"><a xlink:href="../../d9/d00/classcommunicator_1_1_main_controller.html#a72f0f382cec8d7912eba576e77ed31cf" target="_top" xlink:title="communicator.MainController.get\lTurtleContainer">
<polygon fill="white" stroke="black" points="214,-0 214,-30 390,-30 390,-0 214,-0"/>
<text text-anchor="start" x="222" y="-18" font-family="Helvetica,sans-Serif" font-size="10.00">communicator.MainController.get</text>
<text text-anchor="middle" x="302" y="-7" font-family="Helvetica,sans-Serif" font-size="10.00">TurtleContainer</text>
</a>
</g>
</g>
<!-- Node1&#45;&gt;Node3 -->
<g id="edge2" class="edge"><title>Node1&#45;&gt;Node3</title>
<path fill="none" stroke="midnightblue" d="M178.26,-28.9609C186.702,-28.0007 195.295,-27.0234 203.815,-26.0543"/>
<polygon fill="midnightblue" stroke="midnightblue" points="204.229,-29.5298 213.769,-24.922 203.438,-22.5746 204.229,-29.5298"/>
</g>
<!-- Node4 -->
<g id="node4" class="node"><title>Node4</title>
<g id="a_node4"><a xlink:href="../../dd/df5/interfacecommands_1_1information_1_1_i_information_gateway.html#a6cc32177bef6b1d98f96ecab8af478e8" target="_top" xlink:title="commands.information.IInformation\lGateway.getContainer">
<polygon fill="white" stroke="black" points="426,-0 426,-30 614,-30 614,-0 426,-0"/>
<text text-anchor="start" x="434" y="-18" font-family="Helvetica,sans-Serif" font-size="10.00">commands.information.IInformation</text>
<text text-anchor="middle" x="520" y="-7" font-family="Helvetica,sans-Serif" font-size="10.00">Gateway.getContainer</text>
</a>
</g>
</g>
<!-- Node3&#45;&gt;Node4 -->
<g id="edge3" class="edge"><title>Node3&#45;&gt;Node4</title>
<path fill="none" stroke="midnightblue" d="M390.233,-15C398.648,-15 407.239,-15 415.789,-15"/>
<polygon fill="midnightblue" stroke="midnightblue" points="415.795,-18.5001 425.795,-15 415.795,-11.5001 415.795,-18.5001"/>
</g>
</g>
</svg>
