<?xml version="1.0" encoding="UTF-8" standalone="no"?>
<!DOCTYPE svg PUBLIC "-//W3C//DTD SVG 1.1//EN"
 "http://www.w3.org/Graphics/SVG/1.1/DTD/svg11.dtd">
<!-- Generated by graphviz version 2.36.0 (20140111.2315)
 -->
<!-- Title: communicator.MainController.MainController Pages: 1 -->
<!--zoomable 591 -->
<svg id="main" version="1.1" xmlns="http://www.w3.org/2000/svg" xmlns:xlink="http://www.w3.org/1999/xlink" xml:space="preserve" onload="init(evt)">
<style type="text/css"><![CDATA[
.edge:hover path { stroke: red; }
.edge:hover polygon { stroke: red; fill: red; }
]]></style>
<script type="text/javascript"><![CDATA[
var edges = document.getElementsByTagName('g');
if (edges && edges.length) {
  for (var i=0;i<edges.length;i++) {
    if (edges[i].id.substr(0,4)=='edge') {
      edges[i].setAttribute('class','edge');
    }
  }
}
]]></script>
        <defs>
                <circle id="rim" cx="0" cy="0" r="7"/>
                <circle id="rim2" cx="0" cy="0" r="3.5"/>
                <g id="zoomPlus">
                        <use xlink:href="#rim" fill="#404040">
                                <set attributeName="fill" to="#808080" begin="zoomplus.mouseover" end="zoomplus.mouseout"/>
                        </use>
                        <path d="M-4,0h8M0,-4v8" fill="none" stroke="white" stroke-width="1.5" pointer-events="none"/>
                </g>
                <g id="zoomMin">
                        <use xlink:href="#rim" fill="#404040">
                                <set attributeName="fill" to="#808080" begin="zoomminus.mouseover" end="zoomminus.mouseout"/>
                        </use>
                        <path d="M-4,0h8" fill="none" stroke="white" stroke-width="1.5" pointer-events="none"/>
                </g>
                <g id="dirArrow">
                        <path fill="none" stroke="white" stroke-width="1.5" d="M0,-3.0v7 M-2.5,-0.5L0,-3.0L2.5,-0.5"/>
                </g>
               <g id="resetDef">
                       <use xlink:href="#rim2" fill="#404040">
                               <set attributeName="fill" to="#808080" begin="reset.mouseover" end="reset.mouseout"/>
                       </use>
               </g>
        </defs>

<script type="text/javascript">
var viewWidth = 1324;
var viewHeight = 591;
var sectionId = 'dynsection-2';
</script>
<script xlink:href="../../svgpan.js"/>
<svg id="graph" class="graph">
<g id="viewport">
<title>communicator.MainController.MainController</title>
<polygon fill="white" stroke="none" points="-4,4 -4,-587 1320,-587 1320,4 -4,4"/>
<!-- Node1 -->
<g id="node1" class="node"><title>Node1</title>
<polygon fill="#bfbfbf" stroke="black" points="0,-374 0,-404 160,-404 160,-374 0,-374"/>
<text text-anchor="start" x="8" y="-392" font-family="Helvetica,sans-Serif" font-size="10.00">communicator.MainController.</text>
<text text-anchor="middle" x="80" y="-381" font-family="Helvetica,sans-Serif" font-size="10.00">MainController</text>
</g>
<!-- Node2 -->
<g id="node2" class="node"><title>Node2</title>
<g id="a_node2"><a xlink:href="../../d9/d00/classcommunicator_1_1_main_controller.html#a65cd5059a843dc8261445e09403810fb" target="_top" xlink:title="communicator.MainController.report\lErrorToView">
<polygon fill="white" stroke="black" points="944.5,-553 944.5,-583 1133.5,-583 1133.5,-553 944.5,-553"/>
<text text-anchor="start" x="952.5" y="-571" font-family="Helvetica,sans-Serif" font-size="10.00">communicator.MainController.report</text>
<text text-anchor="middle" x="1039" y="-560" font-family="Helvetica,sans-Serif" font-size="10.00">ErrorToView</text>
</a>
</g>
</g>
<!-- Node1&#45;&gt;Node2 -->
<g id="edge1" class="edge"><title>Node1&#45;&gt;Node2</title>
<path fill="none" stroke="midnightblue" d="M112.127,-404.132C134.931,-414.753 166.857,-428.67 196,-438 407.2,-505.614 464.361,-511.406 684,-542 767.77,-553.669 863.469,-560.299 934.228,-563.939"/>
<polygon fill="midnightblue" stroke="midnightblue" points="934.319,-567.448 944.483,-564.455 934.671,-560.457 934.319,-567.448"/>
</g>
<!-- Node4 -->
<g id="node4" class="node"><title>Node4</title>
<g id="a_node4"><a xlink:href="../../da/dc6/classcommand_parser_1_1_command_factory.html#aee6c4eac0b9f39d4cbaaa390da2e46ab" target="_top" xlink:title="commandParser.CommandFactory.set\lCommandToClassRelation">
<polygon fill="white" stroke="black" points="196.5,-350 196.5,-380 395.5,-380 395.5,-350 196.5,-350"/>
<text text-anchor="start" x="204.5" y="-368" font-family="Helvetica,sans-Serif" font-size="10.00">commandParser.CommandFactory.set</text>
<text text-anchor="middle" x="296" y="-357" font-family="Helvetica,sans-Serif" font-size="10.00">CommandToClassRelation</text>
</a>
</g>
</g>
<!-- Node1&#45;&gt;Node4 -->
<g id="edge3" class="edge"><title>Node1&#45;&gt;Node4</title>
<path fill="none" stroke="midnightblue" d="M160.078,-380.131C168.642,-379.171 177.463,-378.182 186.299,-377.191"/>
<polygon fill="midnightblue" stroke="midnightblue" points="186.722,-380.665 196.269,-376.073 185.941,-373.709 186.722,-380.665"/>
</g>
<!-- Node5 -->
<g id="node5" class="node"><title>Node5</title>
<g id="a_node5"><a xlink:href="../../da/dc6/classcommand_parser_1_1_command_factory.html#ad69817a49aeef55b4a7d69e23b437be9" target="_top" xlink:title="commandParser.CommandFactory.set\lInformationGateway">
<polygon fill="white" stroke="black" points="196.5,-301 196.5,-331 395.5,-331 395.5,-301 196.5,-301"/>
<text text-anchor="start" x="204.5" y="-319" font-family="Helvetica,sans-Serif" font-size="10.00">commandParser.CommandFactory.set</text>
<text text-anchor="middle" x="296" y="-308" font-family="Helvetica,sans-Serif" font-size="10.00">InformationGateway</text>
</a>
</g>
</g>
<!-- Node1&#45;&gt;Node5 -->
<g id="edge4" class="edge"><title>Node1&#45;&gt;Node5</title>
<path fill="none" stroke="midnightblue" d="M113.72,-373.818C136.468,-363.642 167.673,-350.431 196,-341 203.653,-338.452 211.713,-336.02 219.793,-333.744"/>
<polygon fill="midnightblue" stroke="midnightblue" points="220.915,-337.065 229.634,-331.046 219.064,-330.314 220.915,-337.065"/>
</g>
<!-- Node6 -->
<g id="node6" class="node"><title>Node6</title>
<g id="a_node6"><a xlink:href="../../d9/d00/classcommunicator_1_1_main_controller.html#af264c9f29730dceac2573645019a401a" target="_top" xlink:title="communicator.MainController.set\lTimers">
<polygon fill="white" stroke="black" points="208.5,-399 208.5,-429 383.5,-429 383.5,-399 208.5,-399"/>
<text text-anchor="start" x="216.5" y="-417" font-family="Helvetica,sans-Serif" font-size="10.00">communicator.MainController.set</text>
<text text-anchor="middle" x="296" y="-406" font-family="Helvetica,sans-Serif" font-size="10.00">Timers</text>
</a>
</g>
</g>
<!-- Node1&#45;&gt;Node6 -->
<g id="edge5" class="edge"><title>Node1&#45;&gt;Node6</title>
<path fill="none" stroke="midnightblue" d="M160.078,-398.238C172.479,-399.687 185.418,-401.198 198.163,-402.687"/>
<polygon fill="midnightblue" stroke="midnightblue" points="197.991,-406.191 208.329,-403.875 198.803,-399.238 197.991,-406.191"/>
</g>
<!-- Node3 -->
<g id="node3" class="node"><title>Node3</title>
<g id="a_node3"><a xlink:href="../../d6/d33/class_view_1_1_slogo_view.html#abe7981d0dd5275d2a4fbce6444b0c6f9" target="_top" xlink:title="View.SlogoView.showError">
<polygon fill="white" stroke="black" points="1176.5,-558.5 1176.5,-577.5 1315.5,-577.5 1315.5,-558.5 1176.5,-558.5"/>
<text text-anchor="middle" x="1246" y="-565.5" font-family="Helvetica,sans-Serif" font-size="10.00">View.SlogoView.showError</text>
</a>
</g>
</g>
<!-- Node2&#45;&gt;Node3 -->
<g id="edge2" class="edge"><title>Node2&#45;&gt;Node3</title>
<path fill="none" stroke="midnightblue" d="M1133.5,-568C1144.46,-568 1155.57,-568 1166.3,-568"/>
<polygon fill="midnightblue" stroke="midnightblue" points="1166.46,-571.5 1176.46,-568 1166.46,-564.5 1166.46,-571.5"/>
</g>
<!-- Node6&#45;&gt;Node2 -->
<g id="edge15" class="edge"><title>Node6&#45;&gt;Node2</title>
<path fill="none" stroke="midnightblue" d="M352.457,-429.014C427.328,-448.963 565.077,-484.53 684,-509 767.76,-526.235 863.46,-541.948 934.222,-552.818"/>
<polygon fill="midnightblue" stroke="midnightblue" points="934.063,-556.334 944.477,-554.386 935.121,-549.414 934.063,-556.334"/>
</g>
<!-- Node7 -->
<g id="node7" class="node"><title>Node7</title>
<g id="a_node7"><a xlink:href="../../d6/d33/class_view_1_1_slogo_view.html#a1a17d5b15c98f706f7ed91ca9d8e341c" target="_top" xlink:title="View.SlogoView.setDisable">
<polygon fill="white" stroke="black" points="722,-337.5 722,-356.5 864,-356.5 864,-337.5 722,-337.5"/>
<text text-anchor="middle" x="793" y="-344.5" font-family="Helvetica,sans-Serif" font-size="10.00">View.SlogoView.setDisable</text>
</a>
</g>
</g>
<!-- Node6&#45;&gt;Node7 -->
<g id="edge6" class="edge"><title>Node6&#45;&gt;Node7</title>
<path fill="none" stroke="midnightblue" d="M377.186,-398.968C395.188,-395.81 414.222,-392.64 432,-390 527.887,-375.762 638.692,-363.093 711.763,-355.258"/>
<polygon fill="midnightblue" stroke="midnightblue" points="712.246,-358.726 721.818,-354.185 711.503,-351.766 712.246,-358.726"/>
</g>
<!-- Node8 -->
<g id="node8" class="node"><title>Node8</title>
<g id="a_node8"><a xlink:href="../../da/dc6/classcommand_parser_1_1_command_factory.html#a84097b97d8a8ff95b3118ebddff9f33a" target="_top" xlink:title="commandParser.CommandFactory.create\lCommand">
<polygon fill="white" stroke="black" points="432.5,-152 432.5,-182 647.5,-182 647.5,-152 432.5,-152"/>
<text text-anchor="start" x="440.5" y="-170" font-family="Helvetica,sans-Serif" font-size="10.00">commandParser.CommandFactory.create</text>
<text text-anchor="middle" x="540" y="-159" font-family="Helvetica,sans-Serif" font-size="10.00">Command</text>
</a>
</g>
</g>
<!-- Node6&#45;&gt;Node8 -->
<g id="edge7" class="edge"><title>Node6&#45;&gt;Node8</title>
<path fill="none" stroke="midnightblue" d="M378.698,-398.817C384.818,-396.07 390.673,-392.827 396,-389 414.787,-375.504 492.831,-245.307 525.022,-190.805"/>
<polygon fill="midnightblue" stroke="midnightblue" points="528.065,-192.536 530.128,-182.144 522.035,-188.981 528.065,-192.536"/>
</g>
<!-- Node16 -->
<g id="node16" class="node"><title>Node16</title>
<g id="a_node16"><a xlink:href="../../d9/d00/classcommunicator_1_1_main_controller.html#a93252865a008fed9217c345899e3869a" target="_top" xlink:title="communicator.MainController.execute\lCommand">
<polygon fill="white" stroke="black" points="441,-399 441,-429 639,-429 639,-399 441,-399"/>
<text text-anchor="start" x="449" y="-417" font-family="Helvetica,sans-Serif" font-size="10.00">communicator.MainController.execute</text>
<text text-anchor="middle" x="540" y="-406" font-family="Helvetica,sans-Serif" font-size="10.00">Command</text>
</a>
</g>
</g>
<!-- Node6&#45;&gt;Node16 -->
<g id="edge16" class="edge"><title>Node6&#45;&gt;Node16</title>
<path fill="none" stroke="midnightblue" d="M383.684,-414C398.926,-414 414.959,-414 430.703,-414"/>
<polygon fill="midnightblue" stroke="midnightblue" points="430.996,-417.5 440.996,-414 430.996,-410.5 430.996,-417.5"/>
</g>
<!-- Node9 -->
<g id="node9" class="node"><title>Node9</title>
<g id="a_node9"><a xlink:href="../../d4/d05/classcommands_1_1information_1_1_base_user_defined_container.html#abbef8e1f3137aa92b5ca708b18981aac" target="_top" xlink:title="commands.information.Base\lUserDefinedContainer.containsCustom\lCommand">
<polygon fill="white" stroke="black" points="691.5,-254.5 691.5,-295.5 894.5,-295.5 894.5,-254.5 691.5,-254.5"/>
<text text-anchor="start" x="699.5" y="-283.5" font-family="Helvetica,sans-Serif" font-size="10.00">commands.information.Base</text>
<text text-anchor="start" x="699.5" y="-272.5" font-family="Helvetica,sans-Serif" font-size="10.00">UserDefinedContainer.containsCustom</text>
<text text-anchor="middle" x="793" y="-261.5" font-family="Helvetica,sans-Serif" font-size="10.00">Command</text>
</a>
</g>
</g>
<!-- Node8&#45;&gt;Node9 -->
<g id="edge8" class="edge"><title>Node8&#45;&gt;Node9</title>
<path fill="none" stroke="midnightblue" d="M564.715,-182.14C592.43,-199.304 640.102,-227.204 684,-245 689.372,-247.178 694.957,-249.255 700.631,-251.226"/>
<polygon fill="midnightblue" stroke="midnightblue" points="699.65,-254.588 710.244,-254.44 701.87,-247.949 699.65,-254.588"/>
</g>
<!-- Node11 -->
<g id="node11" class="node"><title>Node11</title>
<g id="a_node11"><a xlink:href="../../dd/df5/interfacecommands_1_1information_1_1_i_information_gateway.html#a7288ceac89a0755490d929dc28df39f0" target="_top" xlink:title="commands.information.IInformation\lGateway.getContainers">
<polygon fill="white" stroke="black" points="699,-206 699,-236 887,-236 887,-206 699,-206"/>
<text text-anchor="start" x="707" y="-224" font-family="Helvetica,sans-Serif" font-size="10.00">commands.information.IInformation</text>
<text text-anchor="middle" x="793" y="-213" font-family="Helvetica,sans-Serif" font-size="10.00">Gateway.getContainers</text>
</a>
</g>
</g>
<!-- Node8&#45;&gt;Node11 -->
<g id="edge10" class="edge"><title>Node8&#45;&gt;Node11</title>
<path fill="none" stroke="midnightblue" d="M610.917,-182.042C642.336,-188.801 679.578,-196.814 712.095,-203.809"/>
<polygon fill="midnightblue" stroke="midnightblue" points="711.51,-207.263 722.023,-205.945 712.982,-200.42 711.51,-207.263"/>
</g>
<!-- Node12 -->
<g id="node12" class="node"><title>Node12</title>
<g id="a_node12"><a xlink:href="../../d4/d05/classcommands_1_1information_1_1_base_user_defined_container.html#a22a65948b69ed0032f4d904e13c69491" target="_top" xlink:title="commands.information.Base\lUserDefinedContainer.getCreated\lCommand">
<polygon fill="white" stroke="black" points="703.5,-146.5 703.5,-187.5 882.5,-187.5 882.5,-146.5 703.5,-146.5"/>
<text text-anchor="start" x="711.5" y="-175.5" font-family="Helvetica,sans-Serif" font-size="10.00">commands.information.Base</text>
<text text-anchor="start" x="711.5" y="-164.5" font-family="Helvetica,sans-Serif" font-size="10.00">UserDefinedContainer.getCreated</text>
<text text-anchor="middle" x="793" y="-153.5" font-family="Helvetica,sans-Serif" font-size="10.00">Command</text>
</a>
</g>
</g>
<!-- Node8&#45;&gt;Node12 -->
<g id="edge11" class="edge"><title>Node8&#45;&gt;Node12</title>
<path fill="none" stroke="midnightblue" d="M647.811,-167C662.88,-167 678.317,-167 693.226,-167"/>
<polygon fill="midnightblue" stroke="midnightblue" points="693.452,-170.5 703.452,-167 693.452,-163.5 693.452,-170.5"/>
</g>
<!-- Node13 -->
<g id="node13" class="node"><title>Node13</title>
<g id="a_node13"><a xlink:href="../../da/d90/classcommands_1_1_base_command.html#a03dca0b542f5be4aa804297cea2688b5" target="_top" xlink:title="commands.BaseCommand.get\lRequiredInformationTypes">
<polygon fill="white" stroke="black" points="709.5,-98 709.5,-128 876.5,-128 876.5,-98 709.5,-98"/>
<text text-anchor="start" x="717.5" y="-116" font-family="Helvetica,sans-Serif" font-size="10.00">commands.BaseCommand.get</text>
<text text-anchor="middle" x="793" y="-105" font-family="Helvetica,sans-Serif" font-size="10.00">RequiredInformationTypes</text>
</a>
</g>
</g>
<!-- Node8&#45;&gt;Node13 -->
<g id="edge12" class="edge"><title>Node8&#45;&gt;Node13</title>
<path fill="none" stroke="midnightblue" d="M610.917,-151.958C642.336,-145.199 679.578,-137.186 712.095,-130.191"/>
<polygon fill="midnightblue" stroke="midnightblue" points="712.982,-133.58 722.023,-128.055 711.51,-126.737 712.982,-133.58"/>
</g>
<!-- Node14 -->
<g id="node14" class="node"><title>Node14</title>
<g id="a_node14"><a xlink:href="../../da/dc6/classcommand_parser_1_1_command_factory.html#a5c750e1a1a32bd314bf662dd5cfdc951" target="_top" xlink:title="commandParser.CommandFactory.identify\lFirstCommand">
<polygon fill="white" stroke="black" points="684,-49 684,-79 902,-79 902,-49 684,-49"/>
<text text-anchor="start" x="692" y="-67" font-family="Helvetica,sans-Serif" font-size="10.00">commandParser.CommandFactory.identify</text>
<text text-anchor="middle" x="793" y="-56" font-family="Helvetica,sans-Serif" font-size="10.00">FirstCommand</text>
</a>
</g>
</g>
<!-- Node8&#45;&gt;Node14 -->
<g id="edge13" class="edge"><title>Node8&#45;&gt;Node14</title>
<path fill="none" stroke="midnightblue" d="M563.788,-151.706C591.208,-133.957 639.168,-104.962 684,-88 689.895,-85.7698 696.052,-83.7171 702.309,-81.8329"/>
<polygon fill="midnightblue" stroke="midnightblue" points="703.544,-85.1203 712.199,-79.0095 701.622,-78.3892 703.544,-85.1203"/>
</g>
<!-- Node15 -->
<g id="node15" class="node"><title>Node15</title>
<g id="a_node15"><a xlink:href="../../da/d90/classcommands_1_1_base_command.html#aa64b92d5d7753574941c38218a271b0d" target="_top" xlink:title="commands.BaseCommand.set\lRequiredInformation">
<polygon fill="white" stroke="black" points="710,-0 710,-30 876,-30 876,-0 710,-0"/>
<text text-anchor="start" x="718" y="-18" font-family="Helvetica,sans-Serif" font-size="10.00">commands.BaseCommand.set</text>
<text text-anchor="middle" x="793" y="-7" font-family="Helvetica,sans-Serif" font-size="10.00">RequiredInformation</text>
</a>
</g>
</g>
<!-- Node8&#45;&gt;Node15 -->
<g id="edge14" class="edge"><title>Node8&#45;&gt;Node15</title>
<path fill="none" stroke="midnightblue" d="M553.384,-151.63C576.192,-124.419 627.684,-67.918 684,-39 689.199,-36.3302 694.689,-33.9559 700.325,-31.8448"/>
<polygon fill="midnightblue" stroke="midnightblue" points="701.613,-35.1031 709.926,-28.5344 699.331,-28.4855 701.613,-35.1031"/>
</g>
<!-- Node10 -->
<g id="node10" class="node"><title>Node10</title>
<g id="a_node10"><a xlink:href="../../d4/d05/classcommands_1_1information_1_1_base_user_defined_container.html#a2c1da98631c577bddaaa7f4ad5ae8aaa" target="_top" xlink:title="commands.information.Base\lUserDefinedContainer.getAllCustom\lCommands">
<polygon fill="white" stroke="black" points="944.5,-231.5 944.5,-272.5 1133.5,-272.5 1133.5,-231.5 944.5,-231.5"/>
<text text-anchor="start" x="952.5" y="-260.5" font-family="Helvetica,sans-Serif" font-size="10.00">commands.information.Base</text>
<text text-anchor="start" x="952.5" y="-249.5" font-family="Helvetica,sans-Serif" font-size="10.00">UserDefinedContainer.getAllCustom</text>
<text text-anchor="middle" x="1039" y="-238.5" font-family="Helvetica,sans-Serif" font-size="10.00">Commands</text>
</a>
</g>
</g>
<!-- Node9&#45;&gt;Node10 -->
<g id="edge9" class="edge"><title>Node9&#45;&gt;Node10</title>
<path fill="none" stroke="midnightblue" d="M894.653,-265.512C907.729,-264.28 921.143,-263.015 934.268,-261.778"/>
<polygon fill="midnightblue" stroke="midnightblue" points="934.611,-265.261 944.238,-260.838 933.954,-258.292 934.611,-265.261"/>
</g>
<!-- Node16&#45;&gt;Node2 -->
<g id="edge30" class="edge"><title>Node16&#45;&gt;Node2</title>
<path fill="none" stroke="midnightblue" d="M571.85,-429.094C600.365,-442.524 644.213,-461.866 684,-474 778.461,-502.808 811.434,-477.625 902,-517 920.1,-524.869 920.103,-534.679 938,-543 943.302,-545.465 948.879,-547.708 954.575,-549.746"/>
<polygon fill="midnightblue" stroke="midnightblue" points="953.652,-553.128 964.246,-552.984 955.874,-546.49 953.652,-553.128"/>
</g>
<!-- Node16&#45;&gt;Node7 -->
<g id="edge31" class="edge"><title>Node16&#45;&gt;Node7</title>
<path fill="none" stroke="midnightblue" d="M581.868,-398.943C610.236,-388.893 649.061,-375.934 684,-367 696.318,-363.85 709.546,-360.985 722.374,-358.469"/>
<polygon fill="midnightblue" stroke="midnightblue" points="723.384,-361.839 732.551,-356.527 722.072,-354.963 723.384,-361.839"/>
</g>
<!-- Node17 -->
<g id="node17" class="node"><title>Node17</title>
<g id="a_node17"><a xlink:href="../../da/d90/classcommands_1_1_base_command.html#a68a349a085c4b05af0a55943da86598b" target="_top" xlink:title="commands.BaseCommand.execute">
<polygon fill="white" stroke="black" points="698.5,-427.5 698.5,-446.5 887.5,-446.5 887.5,-427.5 698.5,-427.5"/>
<text text-anchor="middle" x="793" y="-434.5" font-family="Helvetica,sans-Serif" font-size="10.00">commands.BaseCommand.execute</text>
</a>
</g>
</g>
<!-- Node16&#45;&gt;Node17 -->
<g id="edge17" class="edge"><title>Node16&#45;&gt;Node17</title>
<path fill="none" stroke="midnightblue" d="M639.122,-422.991C655.29,-424.473 672.096,-426.013 688.394,-427.506"/>
<polygon fill="midnightblue" stroke="midnightblue" points="688.188,-431.002 698.466,-428.429 688.827,-424.031 688.188,-431.002"/>
</g>
<!-- Node21 -->
<g id="node21" class="node"><title>Node21</title>
<g id="a_node21"><a xlink:href="../../d9/d00/classcommunicator_1_1_main_controller.html#a93c06bf29d915465f289df78a653e44c" target="_top" xlink:title="communicator.MainController.send\lUserDefinedVariablesAndCommands">
<polygon fill="white" stroke="black" points="696,-376 696,-406 890,-406 890,-376 696,-376"/>
<text text-anchor="start" x="704" y="-394" font-family="Helvetica,sans-Serif" font-size="10.00">communicator.MainController.send</text>
<text text-anchor="middle" x="793" y="-383" font-family="Helvetica,sans-Serif" font-size="10.00">UserDefinedVariablesAndCommands</text>
</a>
</g>
</g>
<!-- Node16&#45;&gt;Node21 -->
<g id="edge22" class="edge"><title>Node16&#45;&gt;Node21</title>
<path fill="none" stroke="midnightblue" d="M639.122,-405.009C654.348,-403.614 670.14,-402.166 685.54,-400.755"/>
<polygon fill="midnightblue" stroke="midnightblue" points="685.955,-404.232 695.594,-399.834 685.316,-397.261 685.955,-404.232"/>
</g>
<!-- Node17&#45;&gt;Node17 -->
<g id="edge18" class="edge"><title>Node17&#45;&gt;Node17</title>
<path fill="none" stroke="midnightblue" d="M755.391,-446.612C736.501,-455.461 749.037,-465 793,-465 826.659,-465 841.896,-459.409 838.712,-452.816"/>
<polygon fill="midnightblue" stroke="midnightblue" points="840.677,-449.912 830.609,-446.612 836.421,-455.47 840.677,-449.912"/>
</g>
<!-- Node18 -->
<g id="node18" class="node"><title>Node18</title>
<g id="a_node18"><a xlink:href="../../da/d90/classcommands_1_1_base_command.html#a90abff4a812d84d0454cb095e03c6e08" target="_top" xlink:title="commands.BaseCommand.get\lNextCommand">
<polygon fill="white" stroke="black" points="955.5,-504 955.5,-534 1122.5,-534 1122.5,-504 955.5,-504"/>
<text text-anchor="start" x="963.5" y="-522" font-family="Helvetica,sans-Serif" font-size="10.00">commands.BaseCommand.get</text>
<text text-anchor="middle" x="1039" y="-511" font-family="Helvetica,sans-Serif" font-size="10.00">NextCommand</text>
</a>
</g>
</g>
<!-- Node17&#45;&gt;Node18 -->
<g id="edge19" class="edge"><title>Node17&#45;&gt;Node18</title>
<path fill="none" stroke="midnightblue" d="M818.946,-446.507C840.879,-454.912 873.634,-467.577 902,-479 918.079,-485.475 921.546,-488.549 938,-494 945.814,-496.589 954.049,-499.054 962.301,-501.357"/>
<polygon fill="midnightblue" stroke="midnightblue" points="961.404,-504.74 971.972,-503.984 963.239,-497.985 961.404,-504.74"/>
</g>
<!-- Node19 -->
<g id="node19" class="node"><title>Node19</title>
<g id="a_node19"><a xlink:href="../../da/d90/classcommands_1_1_base_command.html#aad4544c0bd9d40769d8997e4d6d97b08" target="_top" xlink:title="commands.BaseCommand.onExecute">
<polygon fill="white" stroke="black" points="938.5,-465.5 938.5,-484.5 1139.5,-484.5 1139.5,-465.5 938.5,-465.5"/>
<text text-anchor="middle" x="1039" y="-472.5" font-family="Helvetica,sans-Serif" font-size="10.00">commands.BaseCommand.onExecute</text>
</a>
</g>
</g>
<!-- Node17&#45;&gt;Node19 -->
<g id="edge20" class="edge"><title>Node17&#45;&gt;Node19</title>
<path fill="none" stroke="midnightblue" d="M855.257,-446.54C889.048,-451.803 931.186,-458.365 966.481,-463.862"/>
<polygon fill="midnightblue" stroke="midnightblue" points="966.299,-467.376 976.718,-465.456 967.376,-460.459 966.299,-467.376"/>
</g>
<!-- Node20 -->
<g id="node20" class="node"><title>Node20</title>
<g id="a_node20"><a xlink:href="../../da/d90/classcommands_1_1_base_command.html#a37ff254bd611b07ea38aaaf85447a2c3" target="_top" xlink:title="commands.BaseCommand.reset">
<polygon fill="white" stroke="black" points="951,-427.5 951,-446.5 1127,-446.5 1127,-427.5 951,-427.5"/>
<text text-anchor="middle" x="1039" y="-434.5" font-family="Helvetica,sans-Serif" font-size="10.00">commands.BaseCommand.reset</text>
</a>
</g>
</g>
<!-- Node17&#45;&gt;Node20 -->
<g id="edge21" class="edge"><title>Node17&#45;&gt;Node20</title>
<path fill="none" stroke="midnightblue" d="M887.639,-437C904.94,-437 923.047,-437 940.46,-437"/>
<polygon fill="midnightblue" stroke="midnightblue" points="940.621,-440.5 950.621,-437 940.621,-433.5 940.621,-440.5"/>
</g>
<!-- Node21&#45;&gt;Node2 -->
<g id="edge29" class="edge"><title>Node21&#45;&gt;Node2</title>
<path fill="none" stroke="midnightblue" d="M885.614,-406.121C891.578,-409.384 897.133,-413.302 902,-418 943.598,-458.15 896.402,-502.85 938,-543 939.497,-544.445 941.064,-545.81 942.692,-547.099"/>
<polygon fill="midnightblue" stroke="midnightblue" points="941.055,-550.218 951.294,-552.939 944.986,-544.427 941.055,-550.218"/>
</g>
<!-- Node21&#45;&gt;Node10 -->
<g id="edge26" class="edge"><title>Node21&#45;&gt;Node10</title>
<path fill="none" stroke="midnightblue" d="M887.028,-375.883C892.373,-373.096 897.424,-369.828 902,-366 933.152,-339.936 907.697,-309.047 938,-282 939.348,-280.797 940.743,-279.642 942.178,-278.533"/>
<polygon fill="midnightblue" stroke="midnightblue" points="944.5,-281.188 950.809,-272.676 940.569,-275.395 944.5,-281.188"/>
</g>
<!-- Node22 -->
<g id="node22" class="node"><title>Node22</title>
<g id="a_node22"><a xlink:href="../../d4/d05/classcommands_1_1information_1_1_base_user_defined_container.html#aadcdc884269f34620215ca47d2cc70b4" target="_top" xlink:title="commands.information.Base\lUserDefinedContainer.getAllVariables\lAndValues">
<polygon fill="white" stroke="black" points="941.5,-367.5 941.5,-408.5 1136.5,-408.5 1136.5,-367.5 941.5,-367.5"/>
<text text-anchor="start" x="949.5" y="-396.5" font-family="Helvetica,sans-Serif" font-size="10.00">commands.information.Base</text>
<text text-anchor="start" x="949.5" y="-385.5" font-family="Helvetica,sans-Serif" font-size="10.00">UserDefinedContainer.getAllVariables</text>
<text text-anchor="middle" x="1039" y="-374.5" font-family="Helvetica,sans-Serif" font-size="10.00">AndValues</text>
</a>
</g>
</g>
<!-- Node21&#45;&gt;Node22 -->
<g id="edge23" class="edge"><title>Node21&#45;&gt;Node22</title>
<path fill="none" stroke="midnightblue" d="M890.085,-389.819C903.475,-389.654 917.302,-389.484 930.879,-389.317"/>
<polygon fill="midnightblue" stroke="midnightblue" points="931.246,-392.813 941.202,-389.19 931.16,-385.813 931.246,-392.813"/>
</g>
<!-- Node23 -->
<g id="node23" class="node"><title>Node23</title>
<g id="a_node23"><a xlink:href="../../d6/d33/class_view_1_1_slogo_view.html#a8b4cd9aa5be55a1fded4a81d05eaef49" target="_top" xlink:title="View.SlogoView.addVariables">
<polygon fill="white" stroke="black" points="962.5,-329.5 962.5,-348.5 1115.5,-348.5 1115.5,-329.5 962.5,-329.5"/>
<text text-anchor="middle" x="1039" y="-336.5" font-family="Helvetica,sans-Serif" font-size="10.00">View.SlogoView.addVariables</text>
</a>
</g>
</g>
<!-- Node21&#45;&gt;Node23 -->
<g id="edge24" class="edge"><title>Node21&#45;&gt;Node23</title>
<path fill="none" stroke="midnightblue" d="M859.179,-375.946C893.403,-368.062 929.904,-359.696 938,-358 950.215,-355.441 963.3,-352.848 975.847,-350.434"/>
<polygon fill="midnightblue" stroke="midnightblue" points="976.6,-353.854 985.766,-348.541 975.287,-346.978 976.6,-353.854"/>
</g>
<!-- Node25 -->
<g id="node25" class="node"><title>Node25</title>
<g id="a_node25"><a xlink:href="../../d6/d33/class_view_1_1_slogo_view.html#a6955cd9bb756387808caf0cad5a15396" target="_top" xlink:title="View.SlogoView.addUserFunctions">
<polygon fill="white" stroke="black" points="950.5,-291.5 950.5,-310.5 1127.5,-310.5 1127.5,-291.5 950.5,-291.5"/>
<text text-anchor="middle" x="1039" y="-298.5" font-family="Helvetica,sans-Serif" font-size="10.00">View.SlogoView.addUserFunctions</text>
</a>
</g>
</g>
<!-- Node21&#45;&gt;Node25 -->
<g id="edge27" class="edge"><title>Node21&#45;&gt;Node25</title>
<path fill="none" stroke="midnightblue" d="M882.423,-375.925C889.291,-373.155 895.913,-369.877 902,-366 923.897,-352.054 915.83,-333.509 938,-320 941.466,-317.888 945.115,-316.002 948.887,-314.318"/>
<polygon fill="midnightblue" stroke="midnightblue" points="950.459,-317.461 958.479,-310.537 947.892,-310.948 950.459,-317.461"/>
</g>
<!-- Node24 -->
<g id="node24" class="node"><title>Node24</title>
<g id="a_node24"><a xlink:href="../../dc/d54/class_table_information_1_1_variable_table.html#ad455cb9722ba6a9fc1b9bb9358a8d56f" target="_top" xlink:title="TableInformation.Variable\lTable.addVariables">
<polygon fill="white" stroke="black" points="1177.5,-330 1177.5,-360 1314.5,-360 1314.5,-330 1177.5,-330"/>
<text text-anchor="start" x="1185.5" y="-348" font-family="Helvetica,sans-Serif" font-size="10.00">TableInformation.Variable</text>
<text text-anchor="middle" x="1246" y="-337" font-family="Helvetica,sans-Serif" font-size="10.00">Table.addVariables</text>
</a>
</g>
</g>
<!-- Node23&#45;&gt;Node24 -->
<g id="edge25" class="edge"><title>Node23&#45;&gt;Node24</title>
<path fill="none" stroke="midnightblue" d="M1115.75,-341.217C1132.47,-341.706 1150.21,-342.226 1167.01,-342.717"/>
<polygon fill="midnightblue" stroke="midnightblue" points="1167.24,-346.226 1177.34,-343.02 1167.45,-339.229 1167.24,-346.226"/>
</g>
<!-- Node26 -->
<g id="node26" class="node"><title>Node26</title>
<g id="a_node26"><a xlink:href="../../dc/d54/class_table_information_1_1_variable_table.html#ab2f0b0ff6afc9f1f05ac429934013aed" target="_top" xlink:title="TableInformation.Variable\lTable.addInputs">
<polygon fill="white" stroke="black" points="1177.5,-281 1177.5,-311 1314.5,-311 1314.5,-281 1177.5,-281"/>
<text text-anchor="start" x="1185.5" y="-299" font-family="Helvetica,sans-Serif" font-size="10.00">TableInformation.Variable</text>
<text text-anchor="middle" x="1246" y="-288" font-family="Helvetica,sans-Serif" font-size="10.00">Table.addInputs</text>
</a>
</g>
</g>
<!-- Node25&#45;&gt;Node26 -->
<g id="edge28" class="edge"><title>Node25&#45;&gt;Node26</title>
<path fill="none" stroke="midnightblue" d="M1127.53,-298.865C1140.67,-298.545 1154.14,-298.216 1167.06,-297.901"/>
<polygon fill="midnightblue" stroke="midnightblue" points="1167.38,-301.394 1177.29,-297.651 1167.21,-294.396 1167.38,-301.394"/>
</g>
</g>
</svg>
        <g id="navigator" transform="translate(0 0)" fill="#404254">
                <rect fill="#f2f5e9" fill-opacity="0.5" stroke="#606060" stroke-width=".5" x="0" y="0" width="60" height="60"/>
                <use id="zoomplus" xlink:href="#zoomPlus" x="17" y="9" onmousedown="handleZoom(evt,'in')"/>
                <use id="zoomminus" xlink:href="#zoomMin" x="42" y="9" onmousedown="handleZoom(evt,'out')"/>
                <use id="reset" xlink:href="#resetDef" x="30" y="36" onmousedown="handleReset()"/>
                <g id="arrowUp" xlink:href="#dirArrow" transform="translate(30 24)" onmousedown="handlePan(0,-1)">
                  <use xlink:href="#rim" fill="#404040">
                        <set attributeName="fill" to="#808080" begin="arrowUp.mouseover" end="arrowUp.mouseout"/>
                  </use>
                  <path fill="none" stroke="white" stroke-width="1.5" d="M0,-3.0v7 M-2.5,-0.5L0,-3.0L2.5,-0.5"/>
                </g>
                <g id="arrowRight" xlink:href="#dirArrow" transform="rotate(90) translate(36 -43)" onmousedown="handlePan(1,0)">
                  <use xlink:href="#rim" fill="#404040">
                        <set attributeName="fill" to="#808080" begin="arrowRight.mouseover" end="arrowRight.mouseout"/>
                  </use>
                  <path fill="none" stroke="white" stroke-width="1.5" d="M0,-3.0v7 M-2.5,-0.5L0,-3.0L2.5,-0.5"/>
                </g>
                <g id="arrowDown" xlink:href="#dirArrow" transform="rotate(180) translate(-30 -48)" onmousedown="handlePan(0,1)">
                  <use xlink:href="#rim" fill="#404040">
                        <set attributeName="fill" to="#808080" begin="arrowDown.mouseover" end="arrowDown.mouseout"/>
                  </use>
                  <path fill="none" stroke="white" stroke-width="1.5" d="M0,-3.0v7 M-2.5,-0.5L0,-3.0L2.5,-0.5"/>
                </g>
                <g id="arrowLeft" xlink:href="#dirArrow" transform="rotate(270) translate(-36 17)" onmousedown="handlePan(-1,0)">
                  <use xlink:href="#rim" fill="#404040">
                        <set attributeName="fill" to="#808080" begin="arrowLeft.mouseover" end="arrowLeft.mouseout"/>
                  </use>
                  <path fill="none" stroke="white" stroke-width="1.5" d="M0,-3.0v7 M-2.5,-0.5L0,-3.0L2.5,-0.5"/>
                </g>
        </g>
        <svg viewBox="0 0 15 15" width="100%" height="30px" preserveAspectRatio="xMaxYMin meet">
         <g id="arrow_out" transform="scale(0.3 0.3)">
          <a xlink:href="classcommunicator_1_1_main_controller_aeeb4240e58af659d4b448cbfc3fbe76f_cgraph_org.svg" target="_base">
           <rect id="button" ry="5" rx="5" y="6" x="6" height="38" width="38"
                fill="#f2f5e9" fill-opacity="0.5" stroke="#606060" stroke-width="1.0"/>
           <path id="arrow"
             d="M 11.500037,31.436501 C 11.940474,20.09759 22.043105,11.32322 32.158766,21.979434 L 37.068811,17.246167 C 37.068811,17.246167 37.088388,32 37.088388,32 L 22.160133,31.978069 C 22.160133,31.978069 26.997745,27.140456 26.997745,27.140456 C 18.528582,18.264221 13.291696,25.230495 11.500037,31.436501 z"
             style="fill:#404040;"/>
          </a>
         </g>
        </svg>
</svg>
