<?xml version="1.0" encoding="UTF-8" standalone="no"?>
<!DOCTYPE svg PUBLIC "-//W3C//DTD SVG 1.1//EN"
 "http://www.w3.org/Graphics/SVG/1.1/DTD/svg11.dtd">
<!-- Generated by graphviz version 2.36.0 (20140111.2315)
 -->
<!-- Title: communicator.MainController.sendUserDefinedVariablesAndCommands Pages: 1 -->
<svg width="844pt" height="38pt"
 viewBox="0.00 0.00 844.00 38.00" xmlns="http://www.w3.org/2000/svg" xmlns:xlink="http://www.w3.org/1999/xlink">
<g id="graph0" class="graph" transform="scale(1 1) rotate(0) translate(4 34)">
<title>communicator.MainController.sendUserDefinedVariablesAndCommands</title>
<polygon fill="white" stroke="none" points="-4,4 -4,-34 840,-34 840,4 -4,4"/>
<!-- Node1 -->
<g id="node1" class="node"><title>Node1</title>
<polygon fill="#bfbfbf" stroke="black" points="0,-0 0,-30 194,-30 194,-0 0,-0"/>
<text text-anchor="start" x="8" y="-18" font-family="Helvetica,sans-Serif" font-size="10.00">communicator.MainController.send</text>
<text text-anchor="middle" x="97" y="-7" font-family="Helvetica,sans-Serif" font-size="10.00">UserDefinedVariablesAndCommands</text>
</g>
<!-- Node2 -->
<g id="node2" class="node"><title>Node2</title>
<g id="a_node2"><a xlink:href="../../d9/d00/classcommunicator_1_1_main_controller.html#a93252865a008fed9217c345899e3869a" target="_top" xlink:title="communicator.MainController.execute\lCommand">
<polygon fill="white" stroke="black" points="230,-0 230,-30 428,-30 428,-0 230,-0"/>
<text text-anchor="start" x="238" y="-18" font-family="Helvetica,sans-Serif" font-size="10.00">communicator.MainController.execute</text>
<text text-anchor="middle" x="329" y="-7" font-family="Helvetica,sans-Serif" font-size="10.00">Command</text>
</a>
</g>
</g>
<!-- Node1&#45;&gt;Node2 -->
<g id="edge1" class="edge"><title>Node1&#45;&gt;Node2</title>
<path fill="none" stroke="midnightblue" d="M204.232,-15C212.806,-15 221.446,-15 229.959,-15"/>
<polygon fill="midnightblue" stroke="midnightblue" points="204.208,-11.5001 194.208,-15 204.208,-18.5001 204.208,-11.5001"/>
</g>
<!-- Node3 -->
<g id="node3" class="node"><title>Node3</title>
<g id="a_node3"><a xlink:href="../../d9/d00/classcommunicator_1_1_main_controller.html#af264c9f29730dceac2573645019a401a" target="_top" xlink:title="communicator.MainController.set\lTimers">
<polygon fill="white" stroke="black" points="464.5,-0 464.5,-30 639.5,-30 639.5,-0 464.5,-0"/>
<text text-anchor="start" x="472.5" y="-18" font-family="Helvetica,sans-Serif" font-size="10.00">communicator.MainController.set</text>
<text text-anchor="middle" x="552" y="-7" font-family="Helvetica,sans-Serif" font-size="10.00">Timers</text>
</a>
</g>
</g>
<!-- Node2&#45;&gt;Node3 -->
<g id="edge2" class="edge"><title>Node2&#45;&gt;Node3</title>
<path fill="none" stroke="midnightblue" d="M438.37,-15C447.034,-15 455.715,-15 464.2,-15"/>
<polygon fill="midnightblue" stroke="midnightblue" points="438.221,-11.5001 428.221,-15 438.221,-18.5001 438.221,-11.5001"/>
</g>
<!-- Node4 -->
<g id="node4" class="node"><title>Node4</title>
<g id="a_node4"><a xlink:href="../../d9/d00/classcommunicator_1_1_main_controller.html#aeeb4240e58af659d4b448cbfc3fbe76f" target="_top" xlink:title="communicator.MainController.\lMainController">
<polygon fill="white" stroke="black" points="676,-0 676,-30 836,-30 836,-0 676,-0"/>
<text text-anchor="start" x="684" y="-18" font-family="Helvetica,sans-Serif" font-size="10.00">communicator.MainController.</text>
<text text-anchor="middle" x="756" y="-7" font-family="Helvetica,sans-Serif" font-size="10.00">MainController</text>
</a>
</g>
</g>
<!-- Node3&#45;&gt;Node4 -->
<g id="edge3" class="edge"><title>Node3&#45;&gt;Node4</title>
<path fill="none" stroke="midnightblue" d="M649.806,-15C658.577,-15 667.39,-15 675.98,-15"/>
<polygon fill="midnightblue" stroke="midnightblue" points="649.545,-11.5001 639.545,-15 649.545,-18.5001 649.545,-11.5001"/>
</g>
</g>
</svg>
