<?xml version="1.0" encoding="UTF-8" standalone="no"?>
<!DOCTYPE svg PUBLIC "-//W3C//DTD SVG 1.1//EN"
 "http://www.w3.org/Graphics/SVG/1.1/DTD/svg11.dtd">
<!-- Generated by graphviz version 2.36.0 (20140111.2315)
 -->
<!-- Title: communicator.MainController.setGridAsActive Pages: 1 -->
<svg width="396pt" height="87pt"
 viewBox="0.00 0.00 396.00 87.00" xmlns="http://www.w3.org/2000/svg" xmlns:xlink="http://www.w3.org/1999/xlink">
<g id="graph0" class="graph" transform="scale(1 1) rotate(0) translate(4 83)">
<title>communicator.MainController.setGridAsActive</title>
<polygon fill="white" stroke="none" points="-4,4 -4,-83 392,-83 392,4 -4,4"/>
<!-- Node1 -->
<g id="node1" class="node"><title>Node1</title>
<polygon fill="#bfbfbf" stroke="black" points="0.5,-24 0.5,-54 175.5,-54 175.5,-24 0.5,-24"/>
<text text-anchor="start" x="8.5" y="-42" font-family="Helvetica,sans-Serif" font-size="10.00">communicator.MainController.set</text>
<text text-anchor="middle" x="88" y="-31" font-family="Helvetica,sans-Serif" font-size="10.00">GridAsActive</text>
</g>
<!-- Node2 -->
<g id="node2" class="node"><title>Node2</title>
<g id="a_node2"><a xlink:href="../../d9/d00/classcommunicator_1_1_main_controller.html#ac535ad5404d0e180a1de6526a967a581" target="_top" xlink:title="communicator.MainController.get\lGridContainer">
<polygon fill="white" stroke="black" points="212,-49 212,-79 388,-79 388,-49 212,-49"/>
<text text-anchor="start" x="220" y="-67" font-family="Helvetica,sans-Serif" font-size="10.00">communicator.MainController.get</text>
<text text-anchor="middle" x="300" y="-56" font-family="Helvetica,sans-Serif" font-size="10.00">GridContainer</text>
</a>
</g>
</g>
<!-- Node1&#45;&gt;Node2 -->
<g id="edge1" class="edge"><title>Node1&#45;&gt;Node2</title>
<path fill="none" stroke="midnightblue" d="M175.627,-49.3128C184.235,-50.3375 193.013,-51.3825 201.72,-52.419"/>
<polygon fill="midnightblue" stroke="midnightblue" points="201.55,-55.9234 211.894,-53.6302 202.377,-48.9725 201.55,-55.9234"/>
</g>
<!-- Node3 -->
<g id="node3" class="node"><title>Node3</title>
<g id="a_node3"><a xlink:href="../../d4/d37/classcommands_1_1information_1_1_base_grid_container.html#a8e6f306cdcef5b2cc076521e40de0138" target="_top" xlink:title="commands.information.Base\lGridContainer.setGridAsActive">
<polygon fill="white" stroke="black" points="219.5,-0 219.5,-30 380.5,-30 380.5,-0 219.5,-0"/>
<text text-anchor="start" x="227.5" y="-18" font-family="Helvetica,sans-Serif" font-size="10.00">commands.information.Base</text>
<text text-anchor="middle" x="300" y="-7" font-family="Helvetica,sans-Serif" font-size="10.00">GridContainer.setGridAsActive</text>
</a>
</g>
</g>
<!-- Node1&#45;&gt;Node3 -->
<g id="edge2" class="edge"><title>Node1&#45;&gt;Node3</title>
<path fill="none" stroke="midnightblue" d="M175.627,-29.0997C186.7,-27.8343 198.053,-26.5368 209.175,-25.2657"/>
<polygon fill="midnightblue" stroke="midnightblue" points="209.771,-28.7205 219.309,-24.1076 208.976,-21.7658 209.771,-28.7205"/>
</g>
</g>
</svg>
