<?xml version="1.0" encoding="UTF-8" standalone="no"?>
<!DOCTYPE svg PUBLIC "-//W3C//DTD SVG 1.1//EN"
 "http://www.w3.org/Graphics/SVG/1.1/DTD/svg11.dtd">
<!-- Generated by graphviz version 2.36.0 (20140111.2315)
 -->
<!-- Title: communicator.MainController.getGridContainer Pages: 1 -->
<svg width="890pt" height="77pt"
 viewBox="0.00 0.00 890.00 77.00" xmlns="http://www.w3.org/2000/svg" xmlns:xlink="http://www.w3.org/1999/xlink">
<g id="graph0" class="graph" transform="scale(1 1) rotate(0) translate(4 73)">
<title>communicator.MainController.getGridContainer</title>
<polygon fill="white" stroke="none" points="-4,4 -4,-73 886,-73 886,4 -4,4"/>
<!-- Node1 -->
<g id="node1" class="node"><title>Node1</title>
<polygon fill="#bfbfbf" stroke="black" points="0,-22 0,-52 176,-52 176,-22 0,-22"/>
<text text-anchor="start" x="8" y="-40" font-family="Helvetica,sans-Serif" font-size="10.00">communicator.MainController.get</text>
<text text-anchor="middle" x="88" y="-29" font-family="Helvetica,sans-Serif" font-size="10.00">GridContainer</text>
</g>
<!-- Node2 -->
<g id="node2" class="node"><title>Node2</title>
<g id="a_node2"><a xlink:href="../../d9/d00/classcommunicator_1_1_main_controller.html#a98cd8689b5d896054e50172fefb556c4" target="_top" xlink:title="communicator.MainController.addGrid">
<polygon fill="white" stroke="black" points="212.5,-49.5 212.5,-68.5 409.5,-68.5 409.5,-49.5 212.5,-49.5"/>
<text text-anchor="middle" x="311" y="-56.5" font-family="Helvetica,sans-Serif" font-size="10.00">communicator.MainController.addGrid</text>
</a>
</g>
</g>
<!-- Node1&#45;&gt;Node2 -->
<g id="edge1" class="edge"><title>Node1&#45;&gt;Node2</title>
<path fill="none" stroke="midnightblue" d="M186.115,-46.6676C195.47,-47.5988 204.955,-48.543 214.296,-49.4729"/>
<polygon fill="midnightblue" stroke="midnightblue" points="186.325,-43.1713 176.028,-45.6634 185.632,-50.1369 186.325,-43.1713"/>
</g>
<!-- Node6 -->
<g id="node6" class="node"><title>Node6</title>
<g id="a_node6"><a xlink:href="../../d9/d00/classcommunicator_1_1_main_controller.html#a5f47f446231c8725088701e8adc79eee" target="_top" xlink:title="communicator.MainController.set\lGridAsActive">
<polygon fill="white" stroke="black" points="223.5,-0 223.5,-30 398.5,-30 398.5,-0 223.5,-0"/>
<text text-anchor="start" x="231.5" y="-18" font-family="Helvetica,sans-Serif" font-size="10.00">communicator.MainController.set</text>
<text text-anchor="middle" x="311" y="-7" font-family="Helvetica,sans-Serif" font-size="10.00">GridAsActive</text>
</a>
</g>
</g>
<!-- Node1&#45;&gt;Node6 -->
<g id="edge5" class="edge"><title>Node1&#45;&gt;Node6</title>
<path fill="none" stroke="midnightblue" d="M186.333,-27.3107C198.68,-26.0816 211.25,-24.8303 223.414,-23.6195"/>
<polygon fill="midnightblue" stroke="midnightblue" points="185.632,-23.8631 176.028,-28.3366 186.325,-30.8287 185.632,-23.8631"/>
</g>
<!-- Node3 -->
<g id="node3" class="node"><title>Node3</title>
<g id="a_node3"><a xlink:href="../../d6/d33/class_view_1_1_slogo_view.html#a5759fa529a24ab1e80d37348f3dd395b" target="_top" xlink:title="View.SlogoView.addGrid">
<polygon fill="white" stroke="black" points="446.5,-49.5 446.5,-68.5 575.5,-68.5 575.5,-49.5 446.5,-49.5"/>
<text text-anchor="middle" x="511" y="-56.5" font-family="Helvetica,sans-Serif" font-size="10.00">View.SlogoView.addGrid</text>
</a>
</g>
</g>
<!-- Node2&#45;&gt;Node3 -->
<g id="edge2" class="edge"><title>Node2&#45;&gt;Node3</title>
<path fill="none" stroke="midnightblue" d="M419.79,-59C428.837,-59 437.786,-59 446.33,-59"/>
<polygon fill="midnightblue" stroke="midnightblue" points="419.55,-55.5001 409.55,-59 419.55,-62.5001 419.55,-55.5001"/>
</g>
<!-- Node4 -->
<g id="node4" class="node"><title>Node4</title>
<g id="a_node4"><a xlink:href="../../d6/d33/class_view_1_1_slogo_view.html#acfeff052503655d2ac419d2bf4ea9bd5" target="_top" xlink:title="View.SlogoView.initialize">
<polygon fill="white" stroke="black" points="617,-49.5 617,-68.5 747,-68.5 747,-49.5 617,-49.5"/>
<text text-anchor="middle" x="682" y="-56.5" font-family="Helvetica,sans-Serif" font-size="10.00">View.SlogoView.initialize</text>
</a>
</g>
</g>
<!-- Node3&#45;&gt;Node4 -->
<g id="edge3" class="edge"><title>Node3&#45;&gt;Node4</title>
<path fill="none" stroke="midnightblue" d="M586.031,-59C596.263,-59 606.702,-59 616.737,-59"/>
<polygon fill="midnightblue" stroke="midnightblue" points="585.892,-55.5001 575.892,-59 585.892,-62.5001 585.892,-55.5001"/>
</g>
<!-- Node5 -->
<g id="node5" class="node"><title>Node5</title>
<g id="a_node5"><a xlink:href="../../db/d27/class_view_1_1_slogo.html#a6ab76a53160b61d8501aec91c55b85c8" target="_top" xlink:title="View.Slogo.start">
<polygon fill="white" stroke="black" points="788.5,-49.5 788.5,-68.5 881.5,-68.5 881.5,-49.5 788.5,-49.5"/>
<text text-anchor="middle" x="835" y="-56.5" font-family="Helvetica,sans-Serif" font-size="10.00">View.Slogo.start</text>
</a>
</g>
</g>
<!-- Node4&#45;&gt;Node5 -->
<g id="edge4" class="edge"><title>Node4&#45;&gt;Node5</title>
<path fill="none" stroke="midnightblue" d="M757.148,-59C767.733,-59 778.353,-59 788.176,-59"/>
<polygon fill="midnightblue" stroke="midnightblue" points="757.038,-55.5001 747.038,-59 757.038,-62.5001 757.038,-55.5001"/>
</g>
<!-- Node7 -->
<g id="node7" class="node"><title>Node7</title>
<g id="a_node7"><a xlink:href="../../d6/d33/class_view_1_1_slogo_view.html#acfc9a29c260e063a27320bd12275a939" target="_top" xlink:title="View.SlogoView.build">
<polygon fill="white" stroke="black" points="454,-5.5 454,-24.5 568,-24.5 568,-5.5 454,-5.5"/>
<text text-anchor="middle" x="511" y="-12.5" font-family="Helvetica,sans-Serif" font-size="10.00">View.SlogoView.build</text>
</a>
</g>
</g>
<!-- Node6&#45;&gt;Node7 -->
<g id="edge6" class="edge"><title>Node6&#45;&gt;Node7</title>
<path fill="none" stroke="midnightblue" d="M408.697,-15C424.168,-15 439.713,-15 453.822,-15"/>
<polygon fill="midnightblue" stroke="midnightblue" points="408.558,-11.5001 398.558,-15 408.558,-18.5001 408.558,-11.5001"/>
</g>
<!-- Node8 -->
<g id="node8" class="node"><title>Node8</title>
<g id="a_node8"><a xlink:href="../../d6/d33/class_view_1_1_slogo_view.html#a426ca98709fa7bf17d4e233519c504b4" target="_top" xlink:title="View.SlogoView.SlogoView">
<polygon fill="white" stroke="black" points="612,-5.5 612,-24.5 752,-24.5 752,-5.5 612,-5.5"/>
<text text-anchor="middle" x="682" y="-12.5" font-family="Helvetica,sans-Serif" font-size="10.00">View.SlogoView.SlogoView</text>
</a>
</g>
</g>
<!-- Node7&#45;&gt;Node8 -->
<g id="edge7" class="edge"><title>Node7&#45;&gt;Node8</title>
<path fill="none" stroke="midnightblue" d="M578.568,-15C589.465,-15 600.778,-15 611.737,-15"/>
<polygon fill="midnightblue" stroke="midnightblue" points="578.275,-11.5001 568.275,-15 578.275,-18.5001 578.275,-11.5001"/>
</g>
</g>
</svg>
