<?xml version="1.0" encoding="UTF-8" standalone="no"?>
<!DOCTYPE svg PUBLIC "-//W3C//DTD SVG 1.1//EN"
 "http://www.w3.org/Graphics/SVG/1.1/DTD/svg11.dtd">
<!-- Generated by graphviz version 2.36.0 (20140111.2315)
 -->
<!-- Title: communicator.MainController.addGrid Pages: 1 -->
<svg width="418pt" height="87pt"
 viewBox="0.00 0.00 418.00 87.00" xmlns="http://www.w3.org/2000/svg" xmlns:xlink="http://www.w3.org/1999/xlink">
<g id="graph0" class="graph" transform="scale(1 1) rotate(0) translate(4 83)">
<title>communicator.MainController.addGrid</title>
<polygon fill="white" stroke="none" points="-4,4 -4,-83 414,-83 414,4 -4,4"/>
<!-- Node1 -->
<g id="node1" class="node"><title>Node1</title>
<polygon fill="#bfbfbf" stroke="black" points="0.5,-29.5 0.5,-48.5 197.5,-48.5 197.5,-29.5 0.5,-29.5"/>
<text text-anchor="middle" x="99" y="-36.5" font-family="Helvetica,sans-Serif" font-size="10.00">communicator.MainController.addGrid</text>
</g>
<!-- Node2 -->
<g id="node2" class="node"><title>Node2</title>
<g id="a_node2"><a xlink:href="../../d4/d37/classcommands_1_1information_1_1_base_grid_container.html#ae1538dce40e2eba95703fcee49bc1bc1" target="_top" xlink:title="commands.information.Base\lGridContainer.addGrid">
<polygon fill="white" stroke="black" points="244.5,-49 244.5,-79 399.5,-79 399.5,-49 244.5,-49"/>
<text text-anchor="start" x="252.5" y="-67" font-family="Helvetica,sans-Serif" font-size="10.00">commands.information.Base</text>
<text text-anchor="middle" x="322" y="-56" font-family="Helvetica,sans-Serif" font-size="10.00">GridContainer.addGrid</text>
</a>
</g>
</g>
<!-- Node1&#45;&gt;Node2 -->
<g id="edge1" class="edge"><title>Node1&#45;&gt;Node2</title>
<path fill="none" stroke="midnightblue" d="M184.181,-48.5227C200.546,-50.3739 217.728,-52.3176 234.176,-54.1783"/>
<polygon fill="midnightblue" stroke="midnightblue" points="233.978,-57.6781 244.308,-55.3245 234.765,-50.7225 233.978,-57.6781"/>
</g>
<!-- Node3 -->
<g id="node3" class="node"><title>Node3</title>
<g id="a_node3"><a xlink:href="../../d9/d00/classcommunicator_1_1_main_controller.html#ac535ad5404d0e180a1de6526a967a581" target="_top" xlink:title="communicator.MainController.get\lGridContainer">
<polygon fill="white" stroke="black" points="234,-0 234,-30 410,-30 410,-0 234,-0"/>
<text text-anchor="start" x="242" y="-18" font-family="Helvetica,sans-Serif" font-size="10.00">communicator.MainController.get</text>
<text text-anchor="middle" x="322" y="-7" font-family="Helvetica,sans-Serif" font-size="10.00">GridContainer</text>
</a>
</g>
</g>
<!-- Node1&#45;&gt;Node3 -->
<g id="edge2" class="edge"><title>Node1&#45;&gt;Node3</title>
<path fill="none" stroke="midnightblue" d="M187.662,-29.4801C199.525,-28.1918 211.755,-26.8637 223.773,-25.5586"/>
<polygon fill="midnightblue" stroke="midnightblue" points="224.241,-29.0284 233.805,-24.4691 223.485,-22.0693 224.241,-29.0284"/>
</g>
</g>
</svg>
