<?xml version="1.0" encoding="UTF-8" standalone="no"?>
<!DOCTYPE svg PUBLIC "-//W3C//DTD SVG 1.1//EN"
 "http://www.w3.org/Graphics/SVG/1.1/DTD/svg11.dtd">
<!-- Generated by graphviz version 2.36.0 (20140111.2315)
 -->
<!-- Title: communicator.MainController.setTimers Pages: 1 -->
<!--zoomable 609 -->
<svg id="main" version="1.1" xmlns="http://www.w3.org/2000/svg" xmlns:xlink="http://www.w3.org/1999/xlink" xml:space="preserve" onload="init(evt)">
<style type="text/css"><![CDATA[
.edge:hover path { stroke: red; }
.edge:hover polygon { stroke: red; fill: red; }
]]></style>
<script type="text/javascript"><![CDATA[
var edges = document.getElementsByTagName('g');
if (edges && edges.length) {
  for (var i=0;i<edges.length;i++) {
    if (edges[i].id.substr(0,4)=='edge') {
      edges[i].setAttribute('class','edge');
    }
  }
}
]]></script>
        <defs>
                <circle id="rim" cx="0" cy="0" r="7"/>
                <circle id="rim2" cx="0" cy="0" r="3.5"/>
                <g id="zoomPlus">
                        <use xlink:href="#rim" fill="#404040">
                                <set attributeName="fill" to="#808080" begin="zoomplus.mouseover" end="zoomplus.mouseout"/>
                        </use>
                        <path d="M-4,0h8M0,-4v8" fill="none" stroke="white" stroke-width="1.5" pointer-events="none"/>
                </g>
                <g id="zoomMin">
                        <use xlink:href="#rim" fill="#404040">
                                <set attributeName="fill" to="#808080" begin="zoomminus.mouseover" end="zoomminus.mouseout"/>
                        </use>
                        <path d="M-4,0h8" fill="none" stroke="white" stroke-width="1.5" pointer-events="none"/>
                </g>
                <g id="dirArrow">
                        <path fill="none" stroke="white" stroke-width="1.5" d="M0,-3.0v7 M-2.5,-0.5L0,-3.0L2.5,-0.5"/>
                </g>
               <g id="resetDef">
                       <use xlink:href="#rim2" fill="#404040">
                               <set attributeName="fill" to="#808080" begin="reset.mouseover" end="reset.mouseout"/>
                       </use>
               </g>
        </defs>

<script type="text/javascript">
var viewWidth = 1104;
var viewHeight = 609;
var sectionId = 'dynsection-27';
</script>
<script xlink:href="../../svgpan.js"/>
<svg id="graph" class="graph">
<g id="viewport">
<title>communicator.MainController.setTimers</title>
<polygon fill="white" stroke="none" points="-4,4 -4,-605 1100,-605 1100,4 -4,4"/>
<!-- Node1 -->
<g id="node1" class="node"><title>Node1</title>
<polygon fill="#bfbfbf" stroke="black" points="0.5,-221 0.5,-251 175.5,-251 175.5,-221 0.5,-221"/>
<text text-anchor="start" x="8.5" y="-239" font-family="Helvetica,sans-Serif" font-size="10.00">communicator.MainController.set</text>
<text text-anchor="middle" x="88" y="-228" font-family="Helvetica,sans-Serif" font-size="10.00">Timers</text>
</g>
<!-- Node2 -->
<g id="node2" class="node"><title>Node2</title>
<g id="a_node2"><a xlink:href="../../da/dc6/classcommand_parser_1_1_command_factory.html#a84097b97d8a8ff95b3118ebddff9f33a" target="_top" xlink:title="commandParser.CommandFactory.create\lCommand">
<polygon fill="white" stroke="black" points="212.5,-419 212.5,-449 427.5,-449 427.5,-419 212.5,-419"/>
<text text-anchor="start" x="220.5" y="-437" font-family="Helvetica,sans-Serif" font-size="10.00">commandParser.CommandFactory.create</text>
<text text-anchor="middle" x="320" y="-426" font-family="Helvetica,sans-Serif" font-size="10.00">Command</text>
</a>
</g>
</g>
<!-- Node1&#45;&gt;Node2 -->
<g id="edge1" class="edge"><title>Node1&#45;&gt;Node2</title>
<path fill="none" stroke="midnightblue" d="M106.666,-251.208C147.137,-286.048 246.684,-371.745 293.669,-412.193"/>
<polygon fill="midnightblue" stroke="midnightblue" points="291.412,-414.869 301.274,-418.74 295.979,-409.563 291.412,-414.869"/>
</g>
<!-- Node10 -->
<g id="node10" class="node"><title>Node10</title>
<g id="a_node10"><a xlink:href="../../d9/d00/classcommunicator_1_1_main_controller.html#a93252865a008fed9217c345899e3869a" target="_top" xlink:title="communicator.MainController.execute\lCommand">
<polygon fill="white" stroke="black" points="221,-180 221,-210 419,-210 419,-180 221,-180"/>
<text text-anchor="start" x="229" y="-198" font-family="Helvetica,sans-Serif" font-size="10.00">communicator.MainController.execute</text>
<text text-anchor="middle" x="320" y="-187" font-family="Helvetica,sans-Serif" font-size="10.00">Command</text>
</a>
</g>
</g>
<!-- Node1&#45;&gt;Node10 -->
<g id="edge9" class="edge"><title>Node1&#45;&gt;Node10</title>
<path fill="none" stroke="midnightblue" d="M173.338,-220.966C190.056,-217.986 207.708,-214.839 224.733,-211.804"/>
<polygon fill="midnightblue" stroke="midnightblue" points="225.442,-215.233 234.673,-210.032 224.214,-208.342 225.442,-215.233"/>
</g>
<!-- Node15 -->
<g id="node15" class="node"><title>Node15</title>
<g id="a_node15"><a xlink:href="../../d9/d00/classcommunicator_1_1_main_controller.html#a65cd5059a843dc8261445e09403810fb" target="_top" xlink:title="communicator.MainController.report\lErrorToView">
<polygon fill="white" stroke="black" points="724.5,-262 724.5,-292 913.5,-292 913.5,-262 724.5,-262"/>
<text text-anchor="start" x="732.5" y="-280" font-family="Helvetica,sans-Serif" font-size="10.00">communicator.MainController.report</text>
<text text-anchor="middle" x="819" y="-269" font-family="Helvetica,sans-Serif" font-size="10.00">ErrorToView</text>
</a>
</g>
</g>
<!-- Node1&#45;&gt;Node15 -->
<g id="edge26" class="edge"><title>Node1&#45;&gt;Node15</title>
<path fill="none" stroke="midnightblue" d="M175.849,-240.885C310.607,-248.464 569.56,-263.027 714.055,-271.154"/>
<polygon fill="midnightblue" stroke="midnightblue" points="714.076,-274.661 724.257,-271.728 714.469,-267.672 714.076,-274.661"/>
</g>
<!-- Node23 -->
<g id="node23" class="node"><title>Node23</title>
<g id="a_node23"><a xlink:href="../../d6/d33/class_view_1_1_slogo_view.html#a1a17d5b15c98f706f7ed91ca9d8e341c" target="_top" xlink:title="View.SlogoView.setDisable">
<polygon fill="white" stroke="black" points="502,-67.5 502,-86.5 644,-86.5 644,-67.5 502,-67.5"/>
<text text-anchor="middle" x="573" y="-74.5" font-family="Helvetica,sans-Serif" font-size="10.00">View.SlogoView.setDisable</text>
</a>
</g>
</g>
<!-- Node1&#45;&gt;Node23 -->
<g id="edge27" class="edge"><title>Node1&#45;&gt;Node23</title>
<path fill="none" stroke="midnightblue" d="M113.699,-220.774C138.022,-206.261 176.572,-184.524 212,-170 320.006,-125.723 350.342,-122.598 464,-96 475.921,-93.2103 488.668,-90.6231 501.074,-88.3129"/>
<polygon fill="midnightblue" stroke="midnightblue" points="501.715,-91.7537 510.927,-86.5209 500.463,-84.8667 501.715,-91.7537"/>
</g>
<!-- Node3 -->
<g id="node3" class="node"><title>Node3</title>
<g id="a_node3"><a xlink:href="../../d4/d05/classcommands_1_1information_1_1_base_user_defined_container.html#abbef8e1f3137aa92b5ca708b18981aac" target="_top" xlink:title="commands.information.Base\lUserDefinedContainer.containsCustom\lCommand">
<polygon fill="white" stroke="black" points="471.5,-413.5 471.5,-454.5 674.5,-454.5 674.5,-413.5 471.5,-413.5"/>
<text text-anchor="start" x="479.5" y="-442.5" font-family="Helvetica,sans-Serif" font-size="10.00">commands.information.Base</text>
<text text-anchor="start" x="479.5" y="-431.5" font-family="Helvetica,sans-Serif" font-size="10.00">UserDefinedContainer.containsCustom</text>
<text text-anchor="middle" x="573" y="-420.5" font-family="Helvetica,sans-Serif" font-size="10.00">Command</text>
</a>
</g>
</g>
<!-- Node2&#45;&gt;Node3 -->
<g id="edge2" class="edge"><title>Node2&#45;&gt;Node3</title>
<path fill="none" stroke="midnightblue" d="M427.811,-434C438.843,-434 450.074,-434 461.149,-434"/>
<polygon fill="midnightblue" stroke="midnightblue" points="461.268,-437.5 471.267,-434 461.267,-430.5 461.268,-437.5"/>
</g>
<!-- Node5 -->
<g id="node5" class="node"><title>Node5</title>
<g id="a_node5"><a xlink:href="../../dd/df5/interfacecommands_1_1information_1_1_i_information_gateway.html#a7288ceac89a0755490d929dc28df39f0" target="_top" xlink:title="commands.information.IInformation\lGateway.getContainers">
<polygon fill="white" stroke="black" points="479,-365 479,-395 667,-395 667,-365 479,-365"/>
<text text-anchor="start" x="487" y="-383" font-family="Helvetica,sans-Serif" font-size="10.00">commands.information.IInformation</text>
<text text-anchor="middle" x="573" y="-372" font-family="Helvetica,sans-Serif" font-size="10.00">Gateway.getContainers</text>
</a>
</g>
</g>
<!-- Node2&#45;&gt;Node5 -->
<g id="edge4" class="edge"><title>Node2&#45;&gt;Node5</title>
<path fill="none" stroke="midnightblue" d="M390.917,-418.958C422.336,-412.199 459.578,-404.186 492.095,-397.191"/>
<polygon fill="midnightblue" stroke="midnightblue" points="492.982,-400.58 502.023,-395.055 491.51,-393.737 492.982,-400.58"/>
</g>
<!-- Node6 -->
<g id="node6" class="node"><title>Node6</title>
<g id="a_node6"><a xlink:href="../../d4/d05/classcommands_1_1information_1_1_base_user_defined_container.html#a22a65948b69ed0032f4d904e13c69491" target="_top" xlink:title="commands.information.Base\lUserDefinedContainer.getCreated\lCommand">
<polygon fill="white" stroke="black" points="483.5,-305.5 483.5,-346.5 662.5,-346.5 662.5,-305.5 483.5,-305.5"/>
<text text-anchor="start" x="491.5" y="-334.5" font-family="Helvetica,sans-Serif" font-size="10.00">commands.information.Base</text>
<text text-anchor="start" x="491.5" y="-323.5" font-family="Helvetica,sans-Serif" font-size="10.00">UserDefinedContainer.getCreated</text>
<text text-anchor="middle" x="573" y="-312.5" font-family="Helvetica,sans-Serif" font-size="10.00">Command</text>
</a>
</g>
</g>
<!-- Node2&#45;&gt;Node6 -->
<g id="edge5" class="edge"><title>Node2&#45;&gt;Node6</title>
<path fill="none" stroke="midnightblue" d="M344.715,-418.86C372.43,-401.696 420.102,-373.796 464,-356 469.372,-353.822 474.957,-351.745 480.631,-349.774"/>
<polygon fill="midnightblue" stroke="midnightblue" points="481.87,-353.051 490.244,-346.56 479.65,-346.412 481.87,-353.051"/>
</g>
<!-- Node7 -->
<g id="node7" class="node"><title>Node7</title>
<g id="a_node7"><a xlink:href="../../da/d90/classcommands_1_1_base_command.html#a03dca0b542f5be4aa804297cea2688b5" target="_top" xlink:title="commands.BaseCommand.get\lRequiredInformationTypes">
<polygon fill="white" stroke="black" points="489.5,-571 489.5,-601 656.5,-601 656.5,-571 489.5,-571"/>
<text text-anchor="start" x="497.5" y="-589" font-family="Helvetica,sans-Serif" font-size="10.00">commands.BaseCommand.get</text>
<text text-anchor="middle" x="573" y="-578" font-family="Helvetica,sans-Serif" font-size="10.00">RequiredInformationTypes</text>
</a>
</g>
</g>
<!-- Node2&#45;&gt;Node7 -->
<g id="edge6" class="edge"><title>Node2&#45;&gt;Node7</title>
<path fill="none" stroke="midnightblue" d="M333.437,-449.198C356.329,-476.113 407.95,-532.045 464,-561 468.969,-563.567 474.202,-565.874 479.575,-567.946"/>
<polygon fill="midnightblue" stroke="midnightblue" points="478.775,-571.376 489.37,-571.427 481.12,-564.78 478.775,-571.376"/>
</g>
<!-- Node8 -->
<g id="node8" class="node"><title>Node8</title>
<g id="a_node8"><a xlink:href="../../da/dc6/classcommand_parser_1_1_command_factory.html#a5c750e1a1a32bd314bf662dd5cfdc951" target="_top" xlink:title="commandParser.CommandFactory.identify\lFirstCommand">
<polygon fill="white" stroke="black" points="464,-522 464,-552 682,-552 682,-522 464,-522"/>
<text text-anchor="start" x="472" y="-540" font-family="Helvetica,sans-Serif" font-size="10.00">commandParser.CommandFactory.identify</text>
<text text-anchor="middle" x="573" y="-529" font-family="Helvetica,sans-Serif" font-size="10.00">FirstCommand</text>
</a>
</g>
</g>
<!-- Node2&#45;&gt;Node8 -->
<g id="edge7" class="edge"><title>Node2&#45;&gt;Node8</title>
<path fill="none" stroke="midnightblue" d="M343.844,-449.016C371.317,-466.46 419.329,-495.012 464,-512 470.802,-514.587 477.951,-516.955 485.196,-519.112"/>
<polygon fill="midnightblue" stroke="midnightblue" points="484.535,-522.563 495.111,-521.925 486.446,-515.829 484.535,-522.563"/>
</g>
<!-- Node9 -->
<g id="node9" class="node"><title>Node9</title>
<g id="a_node9"><a xlink:href="../../da/d90/classcommands_1_1_base_command.html#aa64b92d5d7753574941c38218a271b0d" target="_top" xlink:title="commands.BaseCommand.set\lRequiredInformation">
<polygon fill="white" stroke="black" points="490,-473 490,-503 656,-503 656,-473 490,-473"/>
<text text-anchor="start" x="498" y="-491" font-family="Helvetica,sans-Serif" font-size="10.00">commands.BaseCommand.set</text>
<text text-anchor="middle" x="573" y="-480" font-family="Helvetica,sans-Serif" font-size="10.00">RequiredInformation</text>
</a>
</g>
</g>
<!-- Node2&#45;&gt;Node9 -->
<g id="edge8" class="edge"><title>Node2&#45;&gt;Node9</title>
<path fill="none" stroke="midnightblue" d="M390.917,-449.042C422.336,-455.801 459.578,-463.814 492.095,-470.809"/>
<polygon fill="midnightblue" stroke="midnightblue" points="491.51,-474.263 502.023,-472.945 492.982,-467.42 491.51,-474.263"/>
</g>
<!-- Node4 -->
<g id="node4" class="node"><title>Node4</title>
<g id="a_node4"><a xlink:href="../../d4/d05/classcommands_1_1information_1_1_base_user_defined_container.html#a2c1da98631c577bddaaa7f4ad5ae8aaa" target="_top" xlink:title="commands.information.Base\lUserDefinedContainer.getAllCustom\lCommands">
<polygon fill="white" stroke="black" points="724.5,-362.5 724.5,-403.5 913.5,-403.5 913.5,-362.5 724.5,-362.5"/>
<text text-anchor="start" x="732.5" y="-391.5" font-family="Helvetica,sans-Serif" font-size="10.00">commands.information.Base</text>
<text text-anchor="start" x="732.5" y="-380.5" font-family="Helvetica,sans-Serif" font-size="10.00">UserDefinedContainer.getAllCustom</text>
<text text-anchor="middle" x="819" y="-369.5" font-family="Helvetica,sans-Serif" font-size="10.00">Commands</text>
</a>
</g>
</g>
<!-- Node3&#45;&gt;Node4 -->
<g id="edge3" class="edge"><title>Node3&#45;&gt;Node4</title>
<path fill="none" stroke="midnightblue" d="M672.189,-413.477C686.042,-410.581 700.321,-407.597 714.274,-404.68"/>
<polygon fill="midnightblue" stroke="midnightblue" points="715.293,-408.043 724.365,-402.571 713.861,-401.191 715.293,-408.043"/>
</g>
<!-- Node11 -->
<g id="node11" class="node"><title>Node11</title>
<g id="a_node11"><a xlink:href="../../da/d90/classcommands_1_1_base_command.html#a68a349a085c4b05af0a55943da86598b" target="_top" xlink:title="commands.BaseCommand.execute">
<polygon fill="white" stroke="black" points="478.5,-105.5 478.5,-124.5 667.5,-124.5 667.5,-105.5 478.5,-105.5"/>
<text text-anchor="middle" x="573" y="-112.5" font-family="Helvetica,sans-Serif" font-size="10.00">commands.BaseCommand.execute</text>
</a>
</g>
</g>
<!-- Node10&#45;&gt;Node11 -->
<g id="edge10" class="edge"><title>Node10&#45;&gt;Node11</title>
<path fill="none" stroke="midnightblue" d="M368.211,-179.953C415.608,-164.846 487.809,-141.834 532.335,-127.642"/>
<polygon fill="midnightblue" stroke="midnightblue" points="533.475,-130.952 541.94,-124.581 531.349,-124.283 533.475,-130.952"/>
</g>
<!-- Node10&#45;&gt;Node15 -->
<g id="edge15" class="edge"><title>Node10&#45;&gt;Node15</title>
<path fill="none" stroke="midnightblue" d="M410.241,-210.032C428.047,-213.016 446.616,-216.117 464,-219 548.617,-233.033 644.648,-248.754 715.321,-260.285"/>
<polygon fill="midnightblue" stroke="midnightblue" points="715.126,-263.799 725.559,-261.955 716.253,-256.891 715.126,-263.799"/>
</g>
<!-- Node17 -->
<g id="node17" class="node"><title>Node17</title>
<g id="a_node17"><a xlink:href="../../d9/d00/classcommunicator_1_1_main_controller.html#a93c06bf29d915465f289df78a653e44c" target="_top" xlink:title="communicator.MainController.send\lUserDefinedVariablesAndCommands">
<polygon fill="white" stroke="black" points="476,-180 476,-210 670,-210 670,-180 476,-180"/>
<text text-anchor="start" x="484" y="-198" font-family="Helvetica,sans-Serif" font-size="10.00">communicator.MainController.send</text>
<text text-anchor="middle" x="573" y="-187" font-family="Helvetica,sans-Serif" font-size="10.00">UserDefinedVariablesAndCommands</text>
</a>
</g>
</g>
<!-- Node10&#45;&gt;Node17 -->
<g id="edge17" class="edge"><title>Node10&#45;&gt;Node17</title>
<path fill="none" stroke="midnightblue" d="M419.122,-195C434.348,-195 450.14,-195 465.54,-195"/>
<polygon fill="midnightblue" stroke="midnightblue" points="465.594,-198.5 475.594,-195 465.594,-191.5 465.594,-198.5"/>
</g>
<!-- Node10&#45;&gt;Node23 -->
<g id="edge25" class="edge"><title>Node10&#45;&gt;Node23</title>
<path fill="none" stroke="midnightblue" d="M342.386,-179.836C380.612,-152.782 457.314,-98.747 464,-96 472.822,-92.3753 482.327,-89.4416 491.91,-87.0674"/>
<polygon fill="midnightblue" stroke="midnightblue" points="492.928,-90.4253 501.9,-84.7901 491.372,-83.6004 492.928,-90.4253"/>
</g>
<!-- Node11&#45;&gt;Node11 -->
<g id="edge11" class="edge"><title>Node11&#45;&gt;Node11</title>
<path fill="none" stroke="midnightblue" d="M535.391,-124.612C516.501,-133.461 529.037,-143 573,-143 606.659,-143 621.896,-137.409 618.712,-130.816"/>
<polygon fill="midnightblue" stroke="midnightblue" points="620.677,-127.912 610.609,-124.612 616.421,-133.47 620.677,-127.912"/>
</g>
<!-- Node12 -->
<g id="node12" class="node"><title>Node12</title>
<g id="a_node12"><a xlink:href="../../da/d90/classcommands_1_1_base_command.html#a90abff4a812d84d0454cb095e03c6e08" target="_top" xlink:title="commands.BaseCommand.get\lNextCommand">
<polygon fill="white" stroke="black" points="735.5,-0 735.5,-30 902.5,-30 902.5,-0 735.5,-0"/>
<text text-anchor="start" x="743.5" y="-18" font-family="Helvetica,sans-Serif" font-size="10.00">commands.BaseCommand.get</text>
<text text-anchor="middle" x="819" y="-7" font-family="Helvetica,sans-Serif" font-size="10.00">NextCommand</text>
</a>
</g>
</g>
<!-- Node11&#45;&gt;Node12 -->
<g id="edge12" class="edge"><title>Node11&#45;&gt;Node12</title>
<path fill="none" stroke="midnightblue" d="M663.549,-105.429C670.055,-102.898 676.293,-99.7949 682,-96 706.639,-79.617 693.957,-57.2451 718,-40 720.69,-38.0704 723.514,-36.2892 726.437,-34.6449"/>
<polygon fill="midnightblue" stroke="midnightblue" points="728.106,-37.7236 735.475,-30.1116 724.968,-31.4666 728.106,-37.7236"/>
</g>
<!-- Node13 -->
<g id="node13" class="node"><title>Node13</title>
<g id="a_node13"><a xlink:href="../../da/d90/classcommands_1_1_base_command.html#aad4544c0bd9d40769d8997e4d6d97b08" target="_top" xlink:title="commands.BaseCommand.onExecute">
<polygon fill="white" stroke="black" points="718.5,-87.5 718.5,-106.5 919.5,-106.5 919.5,-87.5 718.5,-87.5"/>
<text text-anchor="middle" x="819" y="-94.5" font-family="Helvetica,sans-Serif" font-size="10.00">commands.BaseCommand.onExecute</text>
</a>
</g>
</g>
<!-- Node11&#45;&gt;Node13 -->
<g id="edge13" class="edge"><title>Node11&#45;&gt;Node13</title>
<path fill="none" stroke="midnightblue" d="M667.639,-108.092C680.812,-107.12 694.451,-106.114 707.896,-105.122"/>
<polygon fill="midnightblue" stroke="midnightblue" points="708.414,-108.594 718.129,-104.368 707.898,-101.613 708.414,-108.594"/>
</g>
<!-- Node14 -->
<g id="node14" class="node"><title>Node14</title>
<g id="a_node14"><a xlink:href="../../da/d90/classcommands_1_1_base_command.html#a37ff254bd611b07ea38aaaf85447a2c3" target="_top" xlink:title="commands.BaseCommand.reset">
<polygon fill="white" stroke="black" points="731,-49.5 731,-68.5 907,-68.5 907,-49.5 731,-49.5"/>
<text text-anchor="middle" x="819" y="-56.5" font-family="Helvetica,sans-Serif" font-size="10.00">commands.BaseCommand.reset</text>
</a>
</g>
</g>
<!-- Node11&#45;&gt;Node14 -->
<g id="edge14" class="edge"><title>Node11&#45;&gt;Node14</title>
<path fill="none" stroke="midnightblue" d="M645.313,-105.473C657.699,-102.966 670.34,-99.8498 682,-96 698.987,-90.3916 701.052,-83.7239 718,-78 726.211,-75.2269 734.946,-72.8189 743.703,-70.738"/>
<polygon fill="midnightblue" stroke="midnightblue" points="744.58,-74.1283 753.573,-68.5256 743.049,-67.2979 744.58,-74.1283"/>
</g>
<!-- Node16 -->
<g id="node16" class="node"><title>Node16</title>
<g id="a_node16"><a xlink:href="../../d6/d33/class_view_1_1_slogo_view.html#abe7981d0dd5275d2a4fbce6444b0c6f9" target="_top" xlink:title="View.SlogoView.showError">
<polygon fill="white" stroke="black" points="956.5,-267.5 956.5,-286.5 1095.5,-286.5 1095.5,-267.5 956.5,-267.5"/>
<text text-anchor="middle" x="1026" y="-274.5" font-family="Helvetica,sans-Serif" font-size="10.00">View.SlogoView.showError</text>
</a>
</g>
</g>
<!-- Node15&#45;&gt;Node16 -->
<g id="edge16" class="edge"><title>Node15&#45;&gt;Node16</title>
<path fill="none" stroke="midnightblue" d="M913.502,-277C924.465,-277 935.567,-277 946.3,-277"/>
<polygon fill="midnightblue" stroke="midnightblue" points="946.461,-280.5 956.461,-277 946.461,-273.5 946.461,-280.5"/>
</g>
<!-- Node17&#45;&gt;Node4 -->
<g id="edge22" class="edge"><title>Node17&#45;&gt;Node4</title>
<path fill="none" stroke="midnightblue" d="M593.555,-210.067C634.775,-241.827 731.058,-316.012 783.113,-356.12"/>
<polygon fill="midnightblue" stroke="midnightblue" points="781.015,-358.922 791.073,-362.253 785.287,-353.377 781.015,-358.922"/>
</g>
<!-- Node17&#45;&gt;Node15 -->
<g id="edge24" class="edge"><title>Node17&#45;&gt;Node15</title>
<path fill="none" stroke="midnightblue" d="M643.12,-210.061C656.358,-214.09 669.865,-219.029 682,-225 699.946,-233.829 699.941,-243.405 718,-252 723.05,-254.403 728.356,-256.593 733.782,-258.584"/>
<polygon fill="midnightblue" stroke="midnightblue" points="733.054,-262.034 743.648,-261.959 735.319,-255.411 733.054,-262.034"/>
</g>
<!-- Node18 -->
<g id="node18" class="node"><title>Node18</title>
<g id="a_node18"><a xlink:href="../../d6/d33/class_view_1_1_slogo_view.html#a6955cd9bb756387808caf0cad5a15396" target="_top" xlink:title="View.SlogoView.addUserFunctions">
<polygon fill="white" stroke="black" points="730.5,-223.5 730.5,-242.5 907.5,-242.5 907.5,-223.5 730.5,-223.5"/>
<text text-anchor="middle" x="819" y="-230.5" font-family="Helvetica,sans-Serif" font-size="10.00">View.SlogoView.addUserFunctions</text>
</a>
</g>
</g>
<!-- Node17&#45;&gt;Node18 -->
<g id="edge18" class="edge"><title>Node17&#45;&gt;Node18</title>
<path fill="none" stroke="midnightblue" d="M670.085,-209.964C695.64,-213.944 722.786,-218.172 746.752,-221.904"/>
<polygon fill="midnightblue" stroke="midnightblue" points="746.395,-225.39 756.814,-223.471 747.472,-218.474 746.395,-225.39"/>
</g>
<!-- Node20 -->
<g id="node20" class="node"><title>Node20</title>
<g id="a_node20"><a xlink:href="../../d6/d33/class_view_1_1_slogo_view.html#a8b4cd9aa5be55a1fded4a81d05eaef49" target="_top" xlink:title="View.SlogoView.addVariables">
<polygon fill="white" stroke="black" points="742.5,-185.5 742.5,-204.5 895.5,-204.5 895.5,-185.5 742.5,-185.5"/>
<text text-anchor="middle" x="819" y="-192.5" font-family="Helvetica,sans-Serif" font-size="10.00">View.SlogoView.addVariables</text>
</a>
</g>
</g>
<!-- Node17&#45;&gt;Node20 -->
<g id="edge20" class="edge"><title>Node17&#45;&gt;Node20</title>
<path fill="none" stroke="midnightblue" d="M670.085,-195C690.62,-195 712.183,-195 732.297,-195"/>
<polygon fill="midnightblue" stroke="midnightblue" points="732.356,-198.5 742.356,-195 732.356,-191.5 732.356,-198.5"/>
</g>
<!-- Node22 -->
<g id="node22" class="node"><title>Node22</title>
<g id="a_node22"><a xlink:href="../../d4/d05/classcommands_1_1information_1_1_base_user_defined_container.html#aadcdc884269f34620215ca47d2cc70b4" target="_top" xlink:title="commands.information.Base\lUserDefinedContainer.getAllVariables\lAndValues">
<polygon fill="white" stroke="black" points="721.5,-125.5 721.5,-166.5 916.5,-166.5 916.5,-125.5 721.5,-125.5"/>
<text text-anchor="start" x="729.5" y="-154.5" font-family="Helvetica,sans-Serif" font-size="10.00">commands.information.Base</text>
<text text-anchor="start" x="729.5" y="-143.5" font-family="Helvetica,sans-Serif" font-size="10.00">UserDefinedContainer.getAllVariables</text>
<text text-anchor="middle" x="819" y="-132.5" font-family="Helvetica,sans-Serif" font-size="10.00">AndValues</text>
</a>
</g>
</g>
<!-- Node17&#45;&gt;Node22 -->
<g id="edge23" class="edge"><title>Node17&#45;&gt;Node22</title>
<path fill="none" stroke="midnightblue" d="M648.866,-179.965C668.579,-176.007 690.231,-171.659 711.268,-167.434"/>
<polygon fill="midnightblue" stroke="midnightblue" points="712.092,-170.838 721.207,-165.438 710.713,-163.975 712.092,-170.838"/>
</g>
<!-- Node19 -->
<g id="node19" class="node"><title>Node19</title>
<g id="a_node19"><a xlink:href="../../dc/d54/class_table_information_1_1_variable_table.html#ab2f0b0ff6afc9f1f05ac429934013aed" target="_top" xlink:title="TableInformation.Variable\lTable.addInputs">
<polygon fill="white" stroke="black" points="957.5,-218 957.5,-248 1094.5,-248 1094.5,-218 957.5,-218"/>
<text text-anchor="start" x="965.5" y="-236" font-family="Helvetica,sans-Serif" font-size="10.00">TableInformation.Variable</text>
<text text-anchor="middle" x="1026" y="-225" font-family="Helvetica,sans-Serif" font-size="10.00">Table.addInputs</text>
</a>
</g>
</g>
<!-- Node18&#45;&gt;Node19 -->
<g id="edge19" class="edge"><title>Node18&#45;&gt;Node19</title>
<path fill="none" stroke="midnightblue" d="M907.533,-233C920.671,-233 934.144,-233 947.065,-233"/>
<polygon fill="midnightblue" stroke="midnightblue" points="947.291,-236.5 957.291,-233 947.29,-229.5 947.291,-236.5"/>
</g>
<!-- Node21 -->
<g id="node21" class="node"><title>Node21</title>
<g id="a_node21"><a xlink:href="../../dc/d54/class_table_information_1_1_variable_table.html#ad455cb9722ba6a9fc1b9bb9358a8d56f" target="_top" xlink:title="TableInformation.Variable\lTable.addVariables">
<polygon fill="white" stroke="black" points="957.5,-169 957.5,-199 1094.5,-199 1094.5,-169 957.5,-169"/>
<text text-anchor="start" x="965.5" y="-187" font-family="Helvetica,sans-Serif" font-size="10.00">TableInformation.Variable</text>
<text text-anchor="middle" x="1026" y="-176" font-family="Helvetica,sans-Serif" font-size="10.00">Table.addVariables</text>
</a>
</g>
</g>
<!-- Node20&#45;&gt;Node21 -->
<g id="edge21" class="edge"><title>Node20&#45;&gt;Node21</title>
<path fill="none" stroke="midnightblue" d="M895.752,-190.935C912.47,-190.038 930.209,-189.086 947.014,-188.185"/>
<polygon fill="midnightblue" stroke="midnightblue" points="947.541,-191.661 957.339,-187.631 947.166,-184.672 947.541,-191.661"/>
</g>
</g>
</svg>
        <g id="navigator" transform="translate(0 0)" fill="#404254">
                <rect fill="#f2f5e9" fill-opacity="0.5" stroke="#606060" stroke-width=".5" x="0" y="0" width="60" height="60"/>
                <use id="zoomplus" xlink:href="#zoomPlus" x="17" y="9" onmousedown="handleZoom(evt,'in')"/>
                <use id="zoomminus" xlink:href="#zoomMin" x="42" y="9" onmousedown="handleZoom(evt,'out')"/>
                <use id="reset" xlink:href="#resetDef" x="30" y="36" onmousedown="handleReset()"/>
                <g id="arrowUp" xlink:href="#dirArrow" transform="translate(30 24)" onmousedown="handlePan(0,-1)">
                  <use xlink:href="#rim" fill="#404040">
                        <set attributeName="fill" to="#808080" begin="arrowUp.mouseover" end="arrowUp.mouseout"/>
                  </use>
                  <path fill="none" stroke="white" stroke-width="1.5" d="M0,-3.0v7 M-2.5,-0.5L0,-3.0L2.5,-0.5"/>
                </g>
                <g id="arrowRight" xlink:href="#dirArrow" transform="rotate(90) translate(36 -43)" onmousedown="handlePan(1,0)">
                  <use xlink:href="#rim" fill="#404040">
                        <set attributeName="fill" to="#808080" begin="arrowRight.mouseover" end="arrowRight.mouseout"/>
                  </use>
                  <path fill="none" stroke="white" stroke-width="1.5" d="M0,-3.0v7 M-2.5,-0.5L0,-3.0L2.5,-0.5"/>
                </g>
                <g id="arrowDown" xlink:href="#dirArrow" transform="rotate(180) translate(-30 -48)" onmousedown="handlePan(0,1)">
                  <use xlink:href="#rim" fill="#404040">
                        <set attributeName="fill" to="#808080" begin="arrowDown.mouseover" end="arrowDown.mouseout"/>
                  </use>
                  <path fill="none" stroke="white" stroke-width="1.5" d="M0,-3.0v7 M-2.5,-0.5L0,-3.0L2.5,-0.5"/>
                </g>
                <g id="arrowLeft" xlink:href="#dirArrow" transform="rotate(270) translate(-36 17)" onmousedown="handlePan(-1,0)">
                  <use xlink:href="#rim" fill="#404040">
                        <set attributeName="fill" to="#808080" begin="arrowLeft.mouseover" end="arrowLeft.mouseout"/>
                  </use>
                  <path fill="none" stroke="white" stroke-width="1.5" d="M0,-3.0v7 M-2.5,-0.5L0,-3.0L2.5,-0.5"/>
                </g>
        </g>
        <svg viewBox="0 0 15 15" width="100%" height="30px" preserveAspectRatio="xMaxYMin meet">
         <g id="arrow_out" transform="scale(0.3 0.3)">
          <a xlink:href="classcommunicator_1_1_main_controller_af264c9f29730dceac2573645019a401a_cgraph_org.svg" target="_base">
           <rect id="button" ry="5" rx="5" y="6" x="6" height="38" width="38"
                fill="#f2f5e9" fill-opacity="0.5" stroke="#606060" stroke-width="1.0"/>
           <path id="arrow"
             d="M 11.500037,31.436501 C 11.940474,20.09759 22.043105,11.32322 32.158766,21.979434 L 37.068811,17.246167 C 37.068811,17.246167 37.088388,32 37.088388,32 L 22.160133,31.978069 C 22.160133,31.978069 26.997745,27.140456 26.997745,27.140456 C 18.528582,18.264221 13.291696,25.230495 11.500037,31.436501 z"
             style="fill:#404040;"/>
          </a>
         </g>
        </svg>
</svg>
