<?xml version="1.0" encoding="UTF-8" standalone="no"?>
<!DOCTYPE svg PUBLIC "-//W3C//DTD SVG 1.1//EN"
 "http://www.w3.org/Graphics/SVG/1.1/DTD/svg11.dtd">
<!-- Generated by graphviz version 2.36.0 (20140111.2315)
 -->
<!-- Title: communicator.MainController.addTurtle Pages: 1 -->
<svg width="654pt" height="38pt"
 viewBox="0.00 0.00 654.00 38.00" xmlns="http://www.w3.org/2000/svg" xmlns:xlink="http://www.w3.org/1999/xlink">
<g id="graph0" class="graph" transform="scale(1 1) rotate(0) translate(4 34)">
<title>communicator.MainController.addTurtle</title>
<polygon fill="white" stroke="none" points="-4,4 -4,-34 650,-34 650,4 -4,4"/>
<!-- Node1 -->
<g id="node1" class="node"><title>Node1</title>
<polygon fill="#bfbfbf" stroke="black" points="0,-0 0,-30 178,-30 178,-0 0,-0"/>
<text text-anchor="start" x="8" y="-18" font-family="Helvetica,sans-Serif" font-size="10.00">communicator.MainController.add</text>
<text text-anchor="middle" x="89" y="-7" font-family="Helvetica,sans-Serif" font-size="10.00">Turtle</text>
</g>
<!-- Node2 -->
<g id="node2" class="node"><title>Node2</title>
<g id="a_node2"><a xlink:href="../../d6/d33/class_view_1_1_slogo_view.html#a05ea476b14d0f5b642dbcd4449cdb9cb" target="_top" xlink:title="View.SlogoView.addTurtle">
<polygon fill="white" stroke="black" points="214.5,-5.5 214.5,-24.5 349.5,-24.5 349.5,-5.5 214.5,-5.5"/>
<text text-anchor="middle" x="282" y="-12.5" font-family="Helvetica,sans-Serif" font-size="10.00">View.SlogoView.addTurtle</text>
</a>
</g>
</g>
<!-- Node1&#45;&gt;Node2 -->
<g id="edge1" class="edge"><title>Node1&#45;&gt;Node2</title>
<path fill="none" stroke="midnightblue" d="M188.478,-15C197.208,-15 205.905,-15 214.277,-15"/>
<polygon fill="midnightblue" stroke="midnightblue" points="188.232,-11.5001 178.232,-15 188.232,-18.5001 188.232,-11.5001"/>
</g>
<!-- Node3 -->
<g id="node3" class="node"><title>Node3</title>
<g id="a_node3"><a xlink:href="../../d6/d33/class_view_1_1_slogo_view.html#acfeff052503655d2ac419d2bf4ea9bd5" target="_top" xlink:title="View.SlogoView.initialize">
<polygon fill="white" stroke="black" points="386,-5.5 386,-24.5 516,-24.5 516,-5.5 386,-5.5"/>
<text text-anchor="middle" x="451" y="-12.5" font-family="Helvetica,sans-Serif" font-size="10.00">View.SlogoView.initialize</text>
</a>
</g>
</g>
<!-- Node2&#45;&gt;Node3 -->
<g id="edge2" class="edge"><title>Node2&#45;&gt;Node3</title>
<path fill="none" stroke="midnightblue" d="M360.003,-15C368.611,-15 377.312,-15 385.736,-15"/>
<polygon fill="midnightblue" stroke="midnightblue" points="359.963,-11.5001 349.963,-15 359.963,-18.5001 359.963,-11.5001"/>
</g>
<!-- Node4 -->
<g id="node4" class="node"><title>Node4</title>
<g id="a_node4"><a xlink:href="../../db/d27/class_view_1_1_slogo.html#a6ab76a53160b61d8501aec91c55b85c8" target="_top" xlink:title="View.Slogo.start">
<polygon fill="white" stroke="black" points="552.5,-5.5 552.5,-24.5 645.5,-24.5 645.5,-5.5 552.5,-5.5"/>
<text text-anchor="middle" x="599" y="-12.5" font-family="Helvetica,sans-Serif" font-size="10.00">View.Slogo.start</text>
</a>
</g>
</g>
<!-- Node3&#45;&gt;Node4 -->
<g id="edge3" class="edge"><title>Node3&#45;&gt;Node4</title>
<path fill="none" stroke="midnightblue" d="M526.142,-15C535.108,-15 544.051,-15 552.43,-15"/>
<polygon fill="midnightblue" stroke="midnightblue" points="526.038,-11.5001 516.038,-15 526.038,-18.5001 526.038,-11.5001"/>
</g>
</g>
</svg>
