<?xml version="1.0" encoding="UTF-8" standalone="no"?>
<!DOCTYPE svg PUBLIC "-//W3C//DTD SVG 1.1//EN"
 "http://www.w3.org/Graphics/SVG/1.1/DTD/svg11.dtd">
<!-- Generated by graphviz version 2.36.0 (20140111.2315)
 -->
<!-- Title: communicator.MainController.getTurtleContainer Pages: 1 -->
<svg width="866pt" height="87pt"
 viewBox="0.00 0.00 866.00 87.00" xmlns="http://www.w3.org/2000/svg" xmlns:xlink="http://www.w3.org/1999/xlink">
<g id="graph0" class="graph" transform="scale(1 1) rotate(0) translate(4 83)">
<title>communicator.MainController.getTurtleContainer</title>
<polygon fill="white" stroke="none" points="-4,4 -4,-83 862,-83 862,4 -4,4"/>
<!-- Node1 -->
<g id="node1" class="node"><title>Node1</title>
<polygon fill="#bfbfbf" stroke="black" points="0,-24 0,-54 176,-54 176,-24 0,-24"/>
<text text-anchor="start" x="8" y="-42" font-family="Helvetica,sans-Serif" font-size="10.00">communicator.MainController.get</text>
<text text-anchor="middle" x="88" y="-31" font-family="Helvetica,sans-Serif" font-size="10.00">TurtleContainer</text>
</g>
<!-- Node2 -->
<g id="node2" class="node"><title>Node2</title>
<g id="a_node2"><a xlink:href="../../d9/d00/classcommunicator_1_1_main_controller.html#a93573f54d48c3a5154789c8267ef4834" target="_top" xlink:title="communicator.MainController.add\lTurtle">
<polygon fill="white" stroke="black" points="212,-49 212,-79 390,-79 390,-49 212,-49"/>
<text text-anchor="start" x="220" y="-67" font-family="Helvetica,sans-Serif" font-size="10.00">communicator.MainController.add</text>
<text text-anchor="middle" x="301" y="-56" font-family="Helvetica,sans-Serif" font-size="10.00">Turtle</text>
</a>
</g>
</g>
<!-- Node1&#45;&gt;Node2 -->
<g id="edge1" class="edge"><title>Node1&#45;&gt;Node2</title>
<path fill="none" stroke="midnightblue" d="M186.063,-50.5004C194.642,-51.5169 203.297,-52.5423 211.797,-53.5494"/>
<polygon fill="midnightblue" stroke="midnightblue" points="186.382,-47.0138 176.04,-49.3128 185.559,-53.9652 186.382,-47.0138"/>
</g>
<!-- Node6 -->
<g id="node6" class="node"><title>Node6</title>
<g id="a_node6"><a xlink:href="../../d9/d00/classcommunicator_1_1_main_controller.html#a0b1541b8d548e7beffbf192b599ecd80" target="_top" xlink:title="communicator.MainController.get\lActiveTurtles">
<polygon fill="white" stroke="black" points="213,-0 213,-30 389,-30 389,-0 213,-0"/>
<text text-anchor="start" x="221" y="-18" font-family="Helvetica,sans-Serif" font-size="10.00">communicator.MainController.get</text>
<text text-anchor="middle" x="301" y="-7" font-family="Helvetica,sans-Serif" font-size="10.00">ActiveTurtles</text>
</a>
</g>
</g>
<!-- Node1&#45;&gt;Node6 -->
<g id="edge5" class="edge"><title>Node1&#45;&gt;Node6</title>
<path fill="none" stroke="midnightblue" d="M186.066,-27.9593C194.989,-26.9444 203.992,-25.9203 212.82,-24.9163"/>
<polygon fill="midnightblue" stroke="midnightblue" points="185.58,-24.4919 176.04,-29.0997 186.371,-31.4471 185.58,-24.4919"/>
</g>
<!-- Node3 -->
<g id="node3" class="node"><title>Node3</title>
<g id="a_node3"><a xlink:href="../../d6/d33/class_view_1_1_slogo_view.html#a05ea476b14d0f5b642dbcd4449cdb9cb" target="_top" xlink:title="View.SlogoView.addTurtle">
<polygon fill="white" stroke="black" points="426.5,-54.5 426.5,-73.5 561.5,-73.5 561.5,-54.5 426.5,-54.5"/>
<text text-anchor="middle" x="494" y="-61.5" font-family="Helvetica,sans-Serif" font-size="10.00">View.SlogoView.addTurtle</text>
</a>
</g>
</g>
<!-- Node2&#45;&gt;Node3 -->
<g id="edge2" class="edge"><title>Node2&#45;&gt;Node3</title>
<path fill="none" stroke="midnightblue" d="M400.478,-64C409.208,-64 417.905,-64 426.277,-64"/>
<polygon fill="midnightblue" stroke="midnightblue" points="400.232,-60.5001 390.232,-64 400.232,-67.5001 400.232,-60.5001"/>
</g>
<!-- Node4 -->
<g id="node4" class="node"><title>Node4</title>
<g id="a_node4"><a xlink:href="../../d6/d33/class_view_1_1_slogo_view.html#acfeff052503655d2ac419d2bf4ea9bd5" target="_top" xlink:title="View.SlogoView.initialize">
<polygon fill="white" stroke="black" points="598,-54.5 598,-73.5 728,-73.5 728,-54.5 598,-54.5"/>
<text text-anchor="middle" x="663" y="-61.5" font-family="Helvetica,sans-Serif" font-size="10.00">View.SlogoView.initialize</text>
</a>
</g>
</g>
<!-- Node3&#45;&gt;Node4 -->
<g id="edge3" class="edge"><title>Node3&#45;&gt;Node4</title>
<path fill="none" stroke="midnightblue" d="M572.003,-64C580.611,-64 589.312,-64 597.736,-64"/>
<polygon fill="midnightblue" stroke="midnightblue" points="571.963,-60.5001 561.963,-64 571.963,-67.5001 571.963,-60.5001"/>
</g>
<!-- Node5 -->
<g id="node5" class="node"><title>Node5</title>
<g id="a_node5"><a xlink:href="../../db/d27/class_view_1_1_slogo.html#a6ab76a53160b61d8501aec91c55b85c8" target="_top" xlink:title="View.Slogo.start">
<polygon fill="white" stroke="black" points="764.5,-54.5 764.5,-73.5 857.5,-73.5 857.5,-54.5 764.5,-54.5"/>
<text text-anchor="middle" x="811" y="-61.5" font-family="Helvetica,sans-Serif" font-size="10.00">View.Slogo.start</text>
</a>
</g>
</g>
<!-- Node4&#45;&gt;Node5 -->
<g id="edge4" class="edge"><title>Node4&#45;&gt;Node5</title>
<path fill="none" stroke="midnightblue" d="M738.142,-64C747.108,-64 756.051,-64 764.43,-64"/>
<polygon fill="midnightblue" stroke="midnightblue" points="738.038,-60.5001 728.038,-64 738.038,-67.5001 738.038,-60.5001"/>
</g>
</g>
</svg>
