<?xml version="1.0" encoding="UTF-8" standalone="no"?>
<!DOCTYPE svg PUBLIC "-//W3C//DTD SVG 1.1//EN"
 "http://www.w3.org/Graphics/SVG/1.1/DTD/svg11.dtd">
<!-- Generated by graphviz version 2.36.0 (20140111.2315)
 -->
<!-- Title: communicator.MainController.loadPreferences Pages: 1 -->
<svg width="590pt" height="87pt"
 viewBox="0.00 0.00 590.00 87.00" xmlns="http://www.w3.org/2000/svg" xmlns:xlink="http://www.w3.org/1999/xlink">
<g id="graph0" class="graph" transform="scale(1 1) rotate(0) translate(4 83)">
<title>communicator.MainController.loadPreferences</title>
<polygon fill="white" stroke="none" points="-4,4 -4,-83 586,-83 586,4 -4,4"/>
<!-- Node1 -->
<g id="node1" class="node"><title>Node1</title>
<polygon fill="#bfbfbf" stroke="black" points="0,-24 0,-54 180,-54 180,-24 0,-24"/>
<text text-anchor="start" x="8" y="-42" font-family="Helvetica,sans-Serif" font-size="10.00">communicator.MainController.load</text>
<text text-anchor="middle" x="90" y="-31" font-family="Helvetica,sans-Serif" font-size="10.00">Preferences</text>
</g>
<!-- Node2 -->
<g id="node2" class="node"><title>Node2</title>
<g id="a_node2"><a xlink:href="../../dd/df5/interfacecommands_1_1information_1_1_i_information_gateway.html#afcf67bea7af57e3487ab183f73dc07be" target="_top" xlink:title="commands.information.IInformation\lGateway.addContainer">
<polygon fill="white" stroke="black" points="217,-49 217,-79 405,-79 405,-49 217,-49"/>
<text text-anchor="start" x="225" y="-67" font-family="Helvetica,sans-Serif" font-size="10.00">commands.information.IInformation</text>
<text text-anchor="middle" x="311" y="-56" font-family="Helvetica,sans-Serif" font-size="10.00">Gateway.addContainer</text>
</a>
</g>
</g>
<!-- Node1&#45;&gt;Node2 -->
<g id="edge1" class="edge"><title>Node1&#45;&gt;Node2</title>
<path fill="none" stroke="midnightblue" d="M180.076,-49.1685C188.852,-50.1703 197.809,-51.1928 206.712,-52.2091"/>
<polygon fill="midnightblue" stroke="midnightblue" points="206.395,-55.6956 216.727,-53.3524 207.189,-48.7407 206.395,-55.6956"/>
</g>
<!-- Node3 -->
<g id="node3" class="node"><title>Node3</title>
<g id="a_node3"><a xlink:href="../../d9/d00/classcommunicator_1_1_main_controller.html#a65cd5059a843dc8261445e09403810fb" target="_top" xlink:title="communicator.MainController.report\lErrorToView">
<polygon fill="white" stroke="black" points="216.5,-0 216.5,-30 405.5,-30 405.5,-0 216.5,-0"/>
<text text-anchor="start" x="224.5" y="-18" font-family="Helvetica,sans-Serif" font-size="10.00">communicator.MainController.report</text>
<text text-anchor="middle" x="311" y="-7" font-family="Helvetica,sans-Serif" font-size="10.00">ErrorToView</text>
</a>
</g>
</g>
<!-- Node1&#45;&gt;Node3 -->
<g id="edge2" class="edge"><title>Node1&#45;&gt;Node3</title>
<path fill="none" stroke="midnightblue" d="M180.076,-29.2383C188.672,-28.2962 197.443,-27.335 206.166,-26.3791"/>
<polygon fill="midnightblue" stroke="midnightblue" points="206.811,-29.8295 216.37,-25.2608 206.048,-22.8711 206.811,-29.8295"/>
</g>
<!-- Node4 -->
<g id="node4" class="node"><title>Node4</title>
<g id="a_node4"><a xlink:href="../../d6/d33/class_view_1_1_slogo_view.html#abe7981d0dd5275d2a4fbce6444b0c6f9" target="_top" xlink:title="View.SlogoView.showError">
<polygon fill="white" stroke="black" points="442.5,-5.5 442.5,-24.5 581.5,-24.5 581.5,-5.5 442.5,-5.5"/>
<text text-anchor="middle" x="512" y="-12.5" font-family="Helvetica,sans-Serif" font-size="10.00">View.SlogoView.showError</text>
</a>
</g>
</g>
<!-- Node3&#45;&gt;Node4 -->
<g id="edge3" class="edge"><title>Node3&#45;&gt;Node4</title>
<path fill="none" stroke="midnightblue" d="M405.673,-15C414.585,-15 423.56,-15 432.31,-15"/>
<polygon fill="midnightblue" stroke="midnightblue" points="432.461,-18.5001 442.461,-15 432.461,-11.5001 432.461,-18.5001"/>
</g>
</g>
</svg>
