<?xml version="1.0" encoding="UTF-8" standalone="no"?>
<!DOCTYPE svg PUBLIC "-//W3C//DTD SVG 1.1//EN"
 "http://www.w3.org/Graphics/SVG/1.1/DTD/svg11.dtd">
<!-- Generated by graphviz version 2.36.0 (20140111.2315)
 -->
<!-- Title: commands.viewQueries.YCorQuery Pages: 1 -->
<svg width="164pt" height="276pt"
 viewBox="0.00 0.00 164.00 276.00" xmlns="http://www.w3.org/2000/svg" xmlns:xlink="http://www.w3.org/1999/xlink">
<g id="graph0" class="graph" transform="scale(1 1) rotate(0) translate(4 272)">
<title>commands.viewQueries.YCorQuery</title>
<polygon fill="white" stroke="none" points="-4,4 -4,-272 160,-272 160,4 -4,4"/>
<!-- Node1 -->
<g id="node1" class="node"><title>Node1</title>
<polygon fill="#bfbfbf" stroke="black" points="0.5,-1 0.5,-31 155.5,-31 155.5,-1 0.5,-1"/>
<text text-anchor="start" x="8.5" y="-19" font-family="Helvetica,sans-Serif" font-size="10.00">commands.viewQueries.YCor</text>
<text text-anchor="middle" x="78" y="-8" font-family="Helvetica,sans-Serif" font-size="10.00">Query</text>
</g>
<!-- Node2 -->
<g id="node2" class="node"><title>Node2</title>
<g id="a_node2"><a xlink:href="../../d0/d90/classcommands_1_1_turtle_query.html" target="_top" xlink:title="commands.TurtleQuery">
<polygon fill="white" stroke="black" points="14,-68.5 14,-87.5 142,-87.5 142,-68.5 14,-68.5"/>
<text text-anchor="middle" x="78" y="-75.5" font-family="Helvetica,sans-Serif" font-size="10.00">commands.TurtleQuery</text>
</a>
</g>
</g>
<!-- Node2&#45;&gt;Node1 -->
<g id="edge1" class="edge"><title>Node2&#45;&gt;Node1</title>
<path fill="none" stroke="midnightblue" d="M78,-58.3707C78,-49.5849 78,-39.2721 78,-31.1408"/>
<polygon fill="midnightblue" stroke="midnightblue" points="74.5001,-58.4034 78,-68.4035 81.5001,-58.4035 74.5001,-58.4034"/>
</g>
<!-- Node3 -->
<g id="node3" class="node"><title>Node3</title>
<g id="a_node3"><a xlink:href="../../d3/d03/classcommands_1_1turtle_commands_1_1_turtle_command.html" target="_top" xlink:title="commands.turtleCommands.\lTurtleCommand">
<polygon fill="white" stroke="black" points="-1,-125 -1,-155 157,-155 157,-125 -1,-125"/>
<text text-anchor="start" x="7" y="-143" font-family="Helvetica,sans-Serif" font-size="10.00">commands.turtleCommands.</text>
<text text-anchor="middle" x="78" y="-132" font-family="Helvetica,sans-Serif" font-size="10.00">TurtleCommand</text>
</a>
</g>
</g>
<!-- Node3&#45;&gt;Node2 -->
<g id="edge2" class="edge"><title>Node3&#45;&gt;Node2</title>
<path fill="none" stroke="midnightblue" d="M78,-114.586C78,-105.074 78,-94.7864 78,-87.7305"/>
<polygon fill="midnightblue" stroke="midnightblue" points="74.5001,-114.781 78,-124.781 81.5001,-114.781 74.5001,-114.781"/>
</g>
<!-- Node4 -->
<g id="node4" class="node"><title>Node4</title>
<g id="a_node4"><a xlink:href="../../da/d90/classcommands_1_1_base_command.html" target="_top" xlink:title="commands.BaseCommand">
<polygon fill="white" stroke="black" points="4,-192.5 4,-211.5 152,-211.5 152,-192.5 4,-192.5"/>
<text text-anchor="middle" x="78" y="-199.5" font-family="Helvetica,sans-Serif" font-size="10.00">commands.BaseCommand</text>
</a>
</g>
</g>
<!-- Node4&#45;&gt;Node3 -->
<g id="edge3" class="edge"><title>Node4&#45;&gt;Node3</title>
<path fill="none" stroke="midnightblue" d="M78,-182.371C78,-173.585 78,-163.272 78,-155.141"/>
<polygon fill="midnightblue" stroke="midnightblue" points="74.5001,-182.403 78,-192.403 81.5001,-182.403 74.5001,-182.403"/>
</g>
<!-- Node5 -->
<g id="node5" class="node"><title>Node5</title>
<polygon fill="white" stroke="#bfbfbf" points="42.5,-248.5 42.5,-267.5 113.5,-267.5 113.5,-248.5 42.5,-248.5"/>
<text text-anchor="middle" x="78" y="-255.5" font-family="Helvetica,sans-Serif" font-size="10.00">Serializable</text>
</g>
<!-- Node5&#45;&gt;Node4 -->
<g id="edge4" class="edge"><title>Node5&#45;&gt;Node4</title>
<path fill="none" stroke="midnightblue" d="M78,-237.805C78,-228.91 78,-218.78 78,-211.751"/>
<polygon fill="midnightblue" stroke="midnightblue" points="74.5001,-238.083 78,-248.083 81.5001,-238.083 74.5001,-238.083"/>
</g>
</g>
</svg>
