<?xml version="1.0" encoding="UTF-8" standalone="no"?>
<!DOCTYPE svg PUBLIC "-//W3C//DTD SVG 1.1//EN"
 "http://www.w3.org/Graphics/SVG/1.1/DTD/svg11.dtd">
<!-- Generated by graphviz version 2.36.0 (20140111.2315)
 -->
<!-- Title: commands.ViewCommand Pages: 1 -->
<!--zoomable 498 -->
<svg id="main" version="1.1" xmlns="http://www.w3.org/2000/svg" xmlns:xlink="http://www.w3.org/1999/xlink" xml:space="preserve" onload="init(evt)">
<style type="text/css"><![CDATA[
.edge:hover path { stroke: red; }
.edge:hover polygon { stroke: red; fill: red; }
]]></style>
<script type="text/javascript"><![CDATA[
var edges = document.getElementsByTagName('g');
if (edges && edges.length) {
  for (var i=0;i<edges.length;i++) {
    if (edges[i].id.substr(0,4)=='edge') {
      edges[i].setAttribute('class','edge');
    }
  }
}
]]></script>
        <defs>
                <circle id="rim" cx="0" cy="0" r="7"/>
                <circle id="rim2" cx="0" cy="0" r="3.5"/>
                <g id="zoomPlus">
                        <use xlink:href="#rim" fill="#404040">
                                <set attributeName="fill" to="#808080" begin="zoomplus.mouseover" end="zoomplus.mouseout"/>
                        </use>
                        <path d="M-4,0h8M0,-4v8" fill="none" stroke="white" stroke-width="1.5" pointer-events="none"/>
                </g>
                <g id="zoomMin">
                        <use xlink:href="#rim" fill="#404040">
                                <set attributeName="fill" to="#808080" begin="zoomminus.mouseover" end="zoomminus.mouseout"/>
                        </use>
                        <path d="M-4,0h8" fill="none" stroke="white" stroke-width="1.5" pointer-events="none"/>
                </g>
                <g id="dirArrow">
                        <path fill="none" stroke="white" stroke-width="1.5" d="M0,-3.0v7 M-2.5,-0.5L0,-3.0L2.5,-0.5"/>
                </g>
               <g id="resetDef">
                       <use xlink:href="#rim2" fill="#404040">
                               <set attributeName="fill" to="#808080" begin="reset.mouseover" end="reset.mouseout"/>
                       </use>
               </g>
        </defs>

<script type="text/javascript">
var viewWidth = 874;
var viewHeight = 498;
var sectionId = 'dynsection-0';
</script>
<script xlink:href="../../svgpan.js"/>
<svg id="graph" class="graph">
<g id="viewport">
<title>commands.ViewCommand</title>
<polygon fill="white" stroke="none" points="-4,4 -4,-494 870,-494 870,4 -4,4"/>
<!-- Node1 -->
<g id="node1" class="node"><title>Node1</title>
<polygon fill="#bfbfbf" stroke="black" points="292,-293.5 292,-312.5 438,-312.5 438,-293.5 292,-293.5"/>
<text text-anchor="middle" x="365" y="-300.5" font-family="Helvetica,sans-Serif" font-size="10.00">commands.ViewCommand</text>
</g>
<!-- Node4 -->
<g id="node4" class="node"><title>Node4</title>
<g id="a_node4"><a xlink:href="../../db/d78/classcommands_1_1view_commands_1_1_pen_down_command.html" target="_top" xlink:title="commands.viewCommands.Pen\lDownCommand">
<polygon fill="white" stroke="black" points="474,-460 474,-490 644,-490 644,-460 474,-460"/>
<text text-anchor="start" x="482" y="-478" font-family="Helvetica,sans-Serif" font-size="10.00">commands.viewCommands.Pen</text>
<text text-anchor="middle" x="559" y="-467" font-family="Helvetica,sans-Serif" font-size="10.00">DownCommand</text>
</a>
</g>
</g>
<!-- Node1&#45;&gt;Node4 -->
<g id="edge3" class="edge"><title>Node1&#45;&gt;Node4</title>
<path fill="none" stroke="midnightblue" d="M374.785,-321.916C390.313,-353.275 425.603,-415.942 474,-450 479.475,-453.853 485.549,-457.12 491.856,-459.889"/>
<polygon fill="midnightblue" stroke="midnightblue" points="377.776,-320.061 370.285,-312.568 371.468,-323.096 377.776,-320.061"/>
</g>
<!-- Node5 -->
<g id="node5" class="node"><title>Node5</title>
<g id="a_node5"><a xlink:href="../../dd/d35/classcommands_1_1view_commands_1_1_pen_up_command.html" target="_top" xlink:title="commands.viewCommands.Pen\lUpCommand">
<polygon fill="white" stroke="black" points="474,-411 474,-441 644,-441 644,-411 474,-411"/>
<text text-anchor="start" x="482" y="-429" font-family="Helvetica,sans-Serif" font-size="10.00">commands.viewCommands.Pen</text>
<text text-anchor="middle" x="559" y="-418" font-family="Helvetica,sans-Serif" font-size="10.00">UpCommand</text>
</a>
</g>
</g>
<!-- Node1&#45;&gt;Node5 -->
<g id="edge4" class="edge"><title>Node1&#45;&gt;Node5</title>
<path fill="none" stroke="midnightblue" d="M380.652,-320.433C399.92,-342.29 435.832,-379.496 474,-401 480.761,-404.809 488.162,-408.093 495.679,-410.909"/>
<polygon fill="midnightblue" stroke="midnightblue" points="383.079,-317.889 373.892,-312.612 377.784,-322.467 383.079,-317.889"/>
</g>
<!-- Node6 -->
<g id="node6" class="node"><title>Node6</title>
<g id="a_node6"><a xlink:href="../../d7/dea/classcommands_1_1view_commands_1_1_set_background_command.html" target="_top" xlink:title="commands.viewCommands.Set\lBackgroundCommand">
<polygon fill="white" stroke="black" points="474.5,-362 474.5,-392 643.5,-392 643.5,-362 474.5,-362"/>
<text text-anchor="start" x="482.5" y="-380" font-family="Helvetica,sans-Serif" font-size="10.00">commands.viewCommands.Set</text>
<text text-anchor="middle" x="559" y="-369" font-family="Helvetica,sans-Serif" font-size="10.00">BackgroundCommand</text>
</a>
</g>
</g>
<!-- Node1&#45;&gt;Node6 -->
<g id="edge5" class="edge"><title>Node1&#45;&gt;Node6</title>
<path fill="none" stroke="midnightblue" d="M394.391,-317.17C415.916,-327.596 446.403,-341.688 474,-352 483.407,-355.515 493.547,-358.879 503.416,-361.937"/>
<polygon fill="midnightblue" stroke="midnightblue" points="395.696,-313.912 385.175,-312.665 392.622,-320.201 395.696,-313.912"/>
</g>
<!-- Node7 -->
<g id="node7" class="node"><title>Node7</title>
<g id="a_node7"><a xlink:href="../../de/d77/classcommands_1_1view_commands_1_1_set_palette_command.html" target="_top" xlink:title="commands.viewCommands.Set\lPaletteCommand">
<polygon fill="white" stroke="black" points="474.5,-313 474.5,-343 643.5,-343 643.5,-313 474.5,-313"/>
<text text-anchor="start" x="482.5" y="-331" font-family="Helvetica,sans-Serif" font-size="10.00">commands.viewCommands.Set</text>
<text text-anchor="middle" x="559" y="-320" font-family="Helvetica,sans-Serif" font-size="10.00">PaletteCommand</text>
</a>
</g>
</g>
<!-- Node1&#45;&gt;Node7 -->
<g id="edge6" class="edge"><title>Node1&#45;&gt;Node7</title>
<path fill="none" stroke="midnightblue" d="M448.111,-313.692C456.765,-314.818 465.573,-315.965 474.245,-317.094"/>
<polygon fill="midnightblue" stroke="midnightblue" points="448.408,-310.201 438.04,-312.38 447.504,-317.142 448.408,-310.201"/>
</g>
<!-- Node8 -->
<g id="node8" class="node"><title>Node8</title>
<g id="a_node8"><a xlink:href="../../de/d79/classcommands_1_1view_commands_1_1_set_pen_color_command.html" target="_top" xlink:title="commands.viewCommands.Set\lPenColorCommand">
<polygon fill="white" stroke="black" points="474.5,-264 474.5,-294 643.5,-294 643.5,-264 474.5,-264"/>
<text text-anchor="start" x="482.5" y="-282" font-family="Helvetica,sans-Serif" font-size="10.00">commands.viewCommands.Set</text>
<text text-anchor="middle" x="559" y="-271" font-family="Helvetica,sans-Serif" font-size="10.00">PenColorCommand</text>
</a>
</g>
</g>
<!-- Node1&#45;&gt;Node8 -->
<g id="edge7" class="edge"><title>Node1&#45;&gt;Node8</title>
<path fill="none" stroke="midnightblue" d="M448.111,-292.736C456.765,-291.654 465.573,-290.553 474.245,-289.469"/>
<polygon fill="midnightblue" stroke="midnightblue" points="447.529,-289.282 438.04,-293.995 448.397,-296.228 447.529,-289.282"/>
</g>
<!-- Node9 -->
<g id="node9" class="node"><title>Node9</title>
<g id="a_node9"><a xlink:href="../../de/d48/classcommands_1_1view_commands_1_1_set_pen_size_command.html" target="_top" xlink:title="commands.viewCommands.Set\lPenSizeCommand">
<polygon fill="white" stroke="black" points="474.5,-215 474.5,-245 643.5,-245 643.5,-215 474.5,-215"/>
<text text-anchor="start" x="482.5" y="-233" font-family="Helvetica,sans-Serif" font-size="10.00">commands.viewCommands.Set</text>
<text text-anchor="middle" x="559" y="-222" font-family="Helvetica,sans-Serif" font-size="10.00">PenSizeCommand</text>
</a>
</g>
</g>
<!-- Node1&#45;&gt;Node9 -->
<g id="edge8" class="edge"><title>Node1&#45;&gt;Node9</title>
<path fill="none" stroke="midnightblue" d="M393.968,-288.931C415.497,-278.442 446.179,-264.222 474,-254 482.684,-250.809 491.999,-247.776 501.151,-245.007"/>
<polygon fill="midnightblue" stroke="midnightblue" points="392.191,-285.905 384.764,-293.46 395.282,-292.186 392.191,-285.905"/>
</g>
<!-- Node10 -->
<g id="node10" class="node"><title>Node10</title>
<g id="a_node10"><a xlink:href="../../d2/d03/classcommands_1_1view_commands_1_1_set_shape_command.html" target="_top" xlink:title="commands.viewCommands.Set\lShapeCommand">
<polygon fill="white" stroke="black" points="474.5,-166 474.5,-196 643.5,-196 643.5,-166 474.5,-166"/>
<text text-anchor="start" x="482.5" y="-184" font-family="Helvetica,sans-Serif" font-size="10.00">commands.viewCommands.Set</text>
<text text-anchor="middle" x="559" y="-173" font-family="Helvetica,sans-Serif" font-size="10.00">ShapeCommand</text>
</a>
</g>
</g>
<!-- Node1&#45;&gt;Node10 -->
<g id="edge9" class="edge"><title>Node1&#45;&gt;Node10</title>
<path fill="none" stroke="midnightblue" d="M380.615,-285.501C399.844,-263.574 435.714,-226.295 474,-205 480.097,-201.609 486.715,-198.661 493.47,-196.108"/>
<polygon fill="midnightblue" stroke="midnightblue" points="377.734,-283.483 373.87,-293.349 383.043,-288.046 377.734,-283.483"/>
</g>
<!-- Node11 -->
<g id="node11" class="node"><title>Node11</title>
<g id="a_node11"><a xlink:href="../../d1/de4/classcommands_1_1_view_query.html" target="_top" xlink:title="commands.ViewQuery">
<polygon fill="white" stroke="black" points="497,-127.5 497,-146.5 621,-146.5 621,-127.5 497,-127.5"/>
<text text-anchor="middle" x="559" y="-134.5" font-family="Helvetica,sans-Serif" font-size="10.00">commands.ViewQuery</text>
</a>
</g>
</g>
<!-- Node1&#45;&gt;Node11 -->
<g id="edge10" class="edge"><title>Node1&#45;&gt;Node11</title>
<path fill="none" stroke="midnightblue" d="M374.345,-284.14C389.411,-252.394 424.277,-188.563 474,-156 480.879,-151.495 488.68,-148.048 496.689,-145.414"/>
<polygon fill="midnightblue" stroke="midnightblue" points="371.158,-282.693 370.155,-293.24 377.517,-285.621 371.158,-282.693"/>
</g>
<!-- Node2 -->
<g id="node2" class="node"><title>Node2</title>
<g id="a_node2"><a xlink:href="../../da/d90/classcommands_1_1_base_command.html" target="_top" xlink:title="commands.BaseCommand">
<polygon fill="white" stroke="black" points="108,-293.5 108,-312.5 256,-312.5 256,-293.5 108,-293.5"/>
<text text-anchor="middle" x="182" y="-300.5" font-family="Helvetica,sans-Serif" font-size="10.00">commands.BaseCommand</text>
</a>
</g>
</g>
<!-- Node2&#45;&gt;Node1 -->
<g id="edge1" class="edge"><title>Node2&#45;&gt;Node1</title>
<path fill="none" stroke="midnightblue" d="M266.11,-303C274.69,-303 283.359,-303 291.806,-303"/>
<polygon fill="midnightblue" stroke="midnightblue" points="266.098,-299.5 256.098,-303 266.098,-306.5 266.098,-299.5"/>
</g>
<!-- Node3 -->
<g id="node3" class="node"><title>Node3</title>
<polygon fill="white" stroke="#bfbfbf" points="0.5,-293.5 0.5,-312.5 71.5,-312.5 71.5,-293.5 0.5,-293.5"/>
<text text-anchor="middle" x="36" y="-300.5" font-family="Helvetica,sans-Serif" font-size="10.00">Serializable</text>
</g>
<!-- Node3&#45;&gt;Node2 -->
<g id="edge2" class="edge"><title>Node3&#45;&gt;Node2</title>
<path fill="none" stroke="midnightblue" d="M81.9439,-303C90.1703,-303 98.9482,-303 107.751,-303"/>
<polygon fill="midnightblue" stroke="midnightblue" points="81.8584,-299.5 71.8584,-303 81.8583,-306.5 81.8584,-299.5"/>
</g>
<!-- Node12 -->
<g id="node12" class="node"><title>Node12</title>
<g id="a_node12"><a xlink:href="../../dc/d00/classcommands_1_1view_commands_1_1_clear_stamps_command.html" target="_top" xlink:title="commands.viewCommands.Clear\lStampsCommand">
<polygon fill="white" stroke="black" points="684.5,-245 684.5,-275 861.5,-275 861.5,-245 684.5,-245"/>
<text text-anchor="start" x="692.5" y="-263" font-family="Helvetica,sans-Serif" font-size="10.00">commands.viewCommands.Clear</text>
<text text-anchor="middle" x="773" y="-252" font-family="Helvetica,sans-Serif" font-size="10.00">StampsCommand</text>
</a>
</g>
</g>
<!-- Node11&#45;&gt;Node12 -->
<g id="edge11" class="edge"><title>Node11&#45;&gt;Node12</title>
<path fill="none" stroke="midnightblue" d="M630.751,-147.701C635.489,-149.985 639.971,-152.723 644,-156 673.934,-180.347 650.595,-210.017 680,-235 684.541,-238.858 689.624,-242.125 695.007,-244.892"/>
<polygon fill="midnightblue" stroke="midnightblue" points="631.955,-144.412 621.376,-143.845 629.293,-150.886 631.955,-144.412"/>
</g>
<!-- Node13 -->
<g id="node13" class="node"><title>Node13</title>
<g id="a_node13"><a xlink:href="../../db/dbd/classcommands_1_1view_commands_1_1_stamp_command.html" target="_top" xlink:title="commands.viewCommands.Stamp\lCommand">
<polygon fill="white" stroke="black" points="680.5,-196 680.5,-226 865.5,-226 865.5,-196 680.5,-196"/>
<text text-anchor="start" x="688.5" y="-214" font-family="Helvetica,sans-Serif" font-size="10.00">commands.viewCommands.Stamp</text>
<text text-anchor="middle" x="773" y="-203" font-family="Helvetica,sans-Serif" font-size="10.00">Command</text>
</a>
</g>
</g>
<!-- Node11&#45;&gt;Node13 -->
<g id="edge12" class="edge"><title>Node11&#45;&gt;Node13</title>
<path fill="none" stroke="midnightblue" d="M628.681,-149.661C633.972,-151.5 639.14,-153.601 644,-156 662.675,-165.22 661.527,-176.382 680,-186 687.34,-189.822 695.323,-193.104 703.417,-195.913"/>
<polygon fill="midnightblue" stroke="midnightblue" points="629.653,-146.298 619.064,-146.627 627.547,-152.973 629.653,-146.298"/>
</g>
<!-- Node14 -->
<g id="node14" class="node"><title>Node14</title>
<g id="a_node14"><a xlink:href="../../d2/d1c/classcommands_1_1view_queries_1_1_pen_color_query.html" target="_top" xlink:title="commands.viewQueries.Pen\lColorQuery">
<polygon fill="white" stroke="black" points="697,-147 697,-177 849,-177 849,-147 697,-147"/>
<text text-anchor="start" x="705" y="-165" font-family="Helvetica,sans-Serif" font-size="10.00">commands.viewQueries.Pen</text>
<text text-anchor="middle" x="773" y="-154" font-family="Helvetica,sans-Serif" font-size="10.00">ColorQuery</text>
</a>
</g>
</g>
<!-- Node11&#45;&gt;Node14 -->
<g id="edge13" class="edge"><title>Node11&#45;&gt;Node14</title>
<path fill="none" stroke="midnightblue" d="M631.194,-145.396C652.262,-147.88 675.392,-150.608 696.709,-153.121"/>
<polygon fill="midnightblue" stroke="midnightblue" points="631.376,-141.893 621.035,-144.197 630.556,-148.845 631.376,-141.893"/>
</g>
<!-- Node15 -->
<g id="node15" class="node"><title>Node15</title>
<g id="a_node15"><a xlink:href="../../db/dbc/classcommands_1_1view_queries_1_1_pen_down_query.html" target="_top" xlink:title="commands.viewQueries.Pen\lDownQuery">
<polygon fill="white" stroke="black" points="697,-98 697,-128 849,-128 849,-98 697,-98"/>
<text text-anchor="start" x="705" y="-116" font-family="Helvetica,sans-Serif" font-size="10.00">commands.viewQueries.Pen</text>
<text text-anchor="middle" x="773" y="-105" font-family="Helvetica,sans-Serif" font-size="10.00">DownQuery</text>
</a>
</g>
</g>
<!-- Node11&#45;&gt;Node15 -->
<g id="edge14" class="edge"><title>Node11&#45;&gt;Node15</title>
<path fill="none" stroke="midnightblue" d="M631.194,-128.94C652.262,-126.555 675.392,-123.937 696.709,-121.523"/>
<polygon fill="midnightblue" stroke="midnightblue" points="630.578,-125.488 621.035,-130.09 631.365,-132.443 630.578,-125.488"/>
</g>
<!-- Node16 -->
<g id="node16" class="node"><title>Node16</title>
<g id="a_node16"><a xlink:href="../../d8/de1/classcommands_1_1view_queries_1_1_shape_query.html" target="_top" xlink:title="commands.viewQueries.Shape\lQuery">
<polygon fill="white" stroke="black" points="691,-49 691,-79 855,-79 855,-49 691,-49"/>
<text text-anchor="start" x="699" y="-67" font-family="Helvetica,sans-Serif" font-size="10.00">commands.viewQueries.Shape</text>
<text text-anchor="middle" x="773" y="-56" font-family="Helvetica,sans-Serif" font-size="10.00">Query</text>
</a>
</g>
</g>
<!-- Node11&#45;&gt;Node16 -->
<g id="edge15" class="edge"><title>Node11&#45;&gt;Node16</title>
<path fill="none" stroke="midnightblue" d="M590.211,-123.361C614.229,-112.837 648.85,-98.3722 680,-88 689.553,-84.819 699.778,-81.7912 709.811,-79.0243"/>
<polygon fill="midnightblue" stroke="midnightblue" points="588.656,-120.222 580.925,-127.465 591.486,-126.624 588.656,-120.222"/>
</g>
<!-- Node17 -->
<g id="node17" class="node"><title>Node17</title>
<g id="a_node17"><a xlink:href="../../d1/dba/classcommands_1_1view_queries_1_1_showing_query.html" target="_top" xlink:title="commands.viewQueries.Showing\lQuery">
<polygon fill="white" stroke="black" points="686.5,-0 686.5,-30 859.5,-30 859.5,-0 686.5,-0"/>
<text text-anchor="start" x="694.5" y="-18" font-family="Helvetica,sans-Serif" font-size="10.00">commands.viewQueries.Showing</text>
<text text-anchor="middle" x="773" y="-7" font-family="Helvetica,sans-Serif" font-size="10.00">Query</text>
</a>
</g>
</g>
<!-- Node11&#45;&gt;Node17 -->
<g id="edge16" class="edge"><title>Node11&#45;&gt;Node17</title>
<path fill="none" stroke="midnightblue" d="M575.996,-120.014C597.57,-98.0961 638.138,-60.2648 680,-39 686.77,-35.5612 694.077,-32.5833 701.51,-30.0117"/>
<polygon fill="midnightblue" stroke="midnightblue" points="573.377,-117.687 568.94,-127.308 578.408,-122.554 573.377,-117.687"/>
</g>
</g>
</svg>
        <g id="navigator" transform="translate(0 0)" fill="#404254">
                <rect fill="#f2f5e9" fill-opacity="0.5" stroke="#606060" stroke-width=".5" x="0" y="0" width="60" height="60"/>
                <use id="zoomplus" xlink:href="#zoomPlus" x="17" y="9" onmousedown="handleZoom(evt,'in')"/>
                <use id="zoomminus" xlink:href="#zoomMin" x="42" y="9" onmousedown="handleZoom(evt,'out')"/>
                <use id="reset" xlink:href="#resetDef" x="30" y="36" onmousedown="handleReset()"/>
                <g id="arrowUp" xlink:href="#dirArrow" transform="translate(30 24)" onmousedown="handlePan(0,-1)">
                  <use xlink:href="#rim" fill="#404040">
                        <set attributeName="fill" to="#808080" begin="arrowUp.mouseover" end="arrowUp.mouseout"/>
                  </use>
                  <path fill="none" stroke="white" stroke-width="1.5" d="M0,-3.0v7 M-2.5,-0.5L0,-3.0L2.5,-0.5"/>
                </g>
                <g id="arrowRight" xlink:href="#dirArrow" transform="rotate(90) translate(36 -43)" onmousedown="handlePan(1,0)">
                  <use xlink:href="#rim" fill="#404040">
                        <set attributeName="fill" to="#808080" begin="arrowRight.mouseover" end="arrowRight.mouseout"/>
                  </use>
                  <path fill="none" stroke="white" stroke-width="1.5" d="M0,-3.0v7 M-2.5,-0.5L0,-3.0L2.5,-0.5"/>
                </g>
                <g id="arrowDown" xlink:href="#dirArrow" transform="rotate(180) translate(-30 -48)" onmousedown="handlePan(0,1)">
                  <use xlink:href="#rim" fill="#404040">
                        <set attributeName="fill" to="#808080" begin="arrowDown.mouseover" end="arrowDown.mouseout"/>
                  </use>
                  <path fill="none" stroke="white" stroke-width="1.5" d="M0,-3.0v7 M-2.5,-0.5L0,-3.0L2.5,-0.5"/>
                </g>
                <g id="arrowLeft" xlink:href="#dirArrow" transform="rotate(270) translate(-36 17)" onmousedown="handlePan(-1,0)">
                  <use xlink:href="#rim" fill="#404040">
                        <set attributeName="fill" to="#808080" begin="arrowLeft.mouseover" end="arrowLeft.mouseout"/>
                  </use>
                  <path fill="none" stroke="white" stroke-width="1.5" d="M0,-3.0v7 M-2.5,-0.5L0,-3.0L2.5,-0.5"/>
                </g>
        </g>
        <svg viewBox="0 0 15 15" width="100%" height="30px" preserveAspectRatio="xMaxYMin meet">
         <g id="arrow_out" transform="scale(0.3 0.3)">
          <a xlink:href="classcommands_1_1_view_command__inherit__graph_org.svg" target="_base">
           <rect id="button" ry="5" rx="5" y="6" x="6" height="38" width="38"
                fill="#f2f5e9" fill-opacity="0.5" stroke="#606060" stroke-width="1.0"/>
           <path id="arrow"
             d="M 11.500037,31.436501 C 11.940474,20.09759 22.043105,11.32322 32.158766,21.979434 L 37.068811,17.246167 C 37.068811,17.246167 37.088388,32 37.088388,32 L 22.160133,31.978069 C 22.160133,31.978069 26.997745,27.140456 26.997745,27.140456 C 18.528582,18.264221 13.291696,25.230495 11.500037,31.436501 z"
             style="fill:#404040;"/>
          </a>
         </g>
        </svg>
</svg>
