<?xml version="1.0" encoding="UTF-8" standalone="no"?>
<!DOCTYPE svg PUBLIC "-//W3C//DTD SVG 1.1//EN"
 "http://www.w3.org/Graphics/SVG/1.1/DTD/svg11.dtd">
<!-- Generated by graphviz version 2.36.0 (20140111.2315)
 -->
<!-- Title: toggleLevel Pages: 1 -->
<svg width="200pt" height="104pt"
 viewBox="0.00 0.00 200.00 104.00" xmlns="http://www.w3.org/2000/svg" xmlns:xlink="http://www.w3.org/1999/xlink">
<g id="graph0" class="graph" transform="scale(1 1) rotate(0) translate(4 100)">
<title>toggleLevel</title>
<polygon fill="white" stroke="none" points="-4,4 -4,-100 196,-100 196,4 -4,4"/>
<!-- Node1 -->
<g id="node1" class="node"><title>Node1</title>
<polygon fill="#bfbfbf" stroke="black" points="0.5,-38.5 0.5,-57.5 71.5,-57.5 71.5,-38.5 0.5,-38.5"/>
<text text-anchor="middle" x="36" y="-45.5" font-family="Helvetica,sans-Serif" font-size="10.00">toggleLevel</text>
</g>
<!-- Node2 -->
<g id="node2" class="node"><title>Node2</title>
<g id="a_node2"><a xlink:href="../../d5/de7/jquery_8js.html#a871ff39db627c54c710a3e9909b8234c" target="_top" xlink:title="each">
<polygon fill="white" stroke="black" points="130,-76.5 130,-95.5 170,-95.5 170,-76.5 130,-76.5"/>
<text text-anchor="middle" x="150" y="-83.5" font-family="Helvetica,sans-Serif" font-size="10.00">each</text>
</a>
</g>
</g>
<!-- Node1&#45;&gt;Node2 -->
<g id="edge1" class="edge"><title>Node1&#45;&gt;Node2</title>
<path fill="none" stroke="midnightblue" d="M65.2623,-57.589C82.0058,-63.2698 103.175,-70.4523 120.039,-76.1741"/>
<polygon fill="midnightblue" stroke="midnightblue" points="119.311,-79.6229 129.906,-79.5215 121.56,-72.9941 119.311,-79.6229"/>
</g>
<!-- Node3 -->
<g id="node3" class="node"><title>Node3</title>
<g id="a_node3"><a xlink:href="../../de/d5f/svgpan_8js.html#aa8d9f2083cafa2af98efafed94901079" target="_top" xlink:title="show">
<polygon fill="white" stroke="black" points="129.5,-38.5 129.5,-57.5 170.5,-57.5 170.5,-38.5 129.5,-38.5"/>
<text text-anchor="middle" x="150" y="-45.5" font-family="Helvetica,sans-Serif" font-size="10.00">show</text>
</a>
</g>
</g>
<!-- Node1&#45;&gt;Node3 -->
<g id="edge2" class="edge"><title>Node1&#45;&gt;Node3</title>
<path fill="none" stroke="midnightblue" d="M71.5176,-48C86.8268,-48 104.661,-48 119.357,-48"/>
<polygon fill="midnightblue" stroke="midnightblue" points="119.423,-51.5001 129.423,-48 119.423,-44.5001 119.423,-51.5001"/>
</g>
<!-- Node4 -->
<g id="node4" class="node"><title>Node4</title>
<g id="a_node4"><a xlink:href="../../d7/dc3/dynsections_8js.html#a8f7493ad859d4fbf2523917511ee7177" target="_top" xlink:title="updateStripes">
<polygon fill="white" stroke="black" points="108,-0.5 108,-19.5 192,-19.5 192,-0.5 108,-0.5"/>
<text text-anchor="middle" x="150" y="-7.5" font-family="Helvetica,sans-Serif" font-size="10.00">updateStripes</text>
</a>
</g>
</g>
<!-- Node1&#45;&gt;Node4 -->
<g id="edge3" class="edge"><title>Node1&#45;&gt;Node4</title>
<path fill="none" stroke="midnightblue" d="M65.2623,-38.411C79.1899,-33.6856 96.1798,-27.9211 111.207,-22.8226"/>
<polygon fill="midnightblue" stroke="midnightblue" points="112.401,-26.1134 120.747,-19.5859 110.152,-19.4845 112.401,-26.1134"/>
</g>
</g>
</svg>
