<?xml version="1.0" encoding="UTF-8" standalone="no"?>
<!DOCTYPE svg PUBLIC "-//W3C//DTD SVG 1.1//EN"
 "http://www.w3.org/Graphics/SVG/1.1/DTD/svg11.dtd">
<!-- Generated by graphviz version 2.36.0 (20140111.2315)
 -->
<!-- Title: commands.viewQueries.HeadingQuery Pages: 1 -->
<svg width="180pt" height="276pt"
 viewBox="0.00 0.00 180.00 276.00" xmlns="http://www.w3.org/2000/svg" xmlns:xlink="http://www.w3.org/1999/xlink">
<g id="graph0" class="graph" transform="scale(1 1) rotate(0) translate(4 272)">
<title>commands.viewQueries.HeadingQuery</title>
<polygon fill="white" stroke="none" points="-4,4 -4,-272 176,-272 176,4 -4,4"/>
<!-- Node1 -->
<g id="node1" class="node"><title>Node1</title>
<polygon fill="#bfbfbf" stroke="black" points="-0.5,-1 -0.5,-31 172.5,-31 172.5,-1 -0.5,-1"/>
<text text-anchor="start" x="7.5" y="-19" font-family="Helvetica,sans-Serif" font-size="10.00">commands.viewQueries.Heading</text>
<text text-anchor="middle" x="86" y="-8" font-family="Helvetica,sans-Serif" font-size="10.00">Query</text>
</g>
<!-- Node2 -->
<g id="node2" class="node"><title>Node2</title>
<g id="a_node2"><a xlink:href="../../d0/d90/classcommands_1_1_turtle_query.html" target="_top" xlink:title="commands.TurtleQuery">
<polygon fill="white" stroke="black" points="22,-68.5 22,-87.5 150,-87.5 150,-68.5 22,-68.5"/>
<text text-anchor="middle" x="86" y="-75.5" font-family="Helvetica,sans-Serif" font-size="10.00">commands.TurtleQuery</text>
</a>
</g>
</g>
<!-- Node2&#45;&gt;Node1 -->
<g id="edge1" class="edge"><title>Node2&#45;&gt;Node1</title>
<path fill="none" stroke="midnightblue" d="M86,-58.3707C86,-49.5849 86,-39.2721 86,-31.1408"/>
<polygon fill="midnightblue" stroke="midnightblue" points="82.5001,-58.4034 86,-68.4035 89.5001,-58.4035 82.5001,-58.4034"/>
</g>
<!-- Node3 -->
<g id="node3" class="node"><title>Node3</title>
<g id="a_node3"><a xlink:href="../../d3/d03/classcommands_1_1turtle_commands_1_1_turtle_command.html" target="_top" xlink:title="commands.turtleCommands.\lTurtleCommand">
<polygon fill="white" stroke="black" points="7,-125 7,-155 165,-155 165,-125 7,-125"/>
<text text-anchor="start" x="15" y="-143" font-family="Helvetica,sans-Serif" font-size="10.00">commands.turtleCommands.</text>
<text text-anchor="middle" x="86" y="-132" font-family="Helvetica,sans-Serif" font-size="10.00">TurtleCommand</text>
</a>
</g>
</g>
<!-- Node3&#45;&gt;Node2 -->
<g id="edge2" class="edge"><title>Node3&#45;&gt;Node2</title>
<path fill="none" stroke="midnightblue" d="M86,-114.586C86,-105.074 86,-94.7864 86,-87.7305"/>
<polygon fill="midnightblue" stroke="midnightblue" points="82.5001,-114.781 86,-124.781 89.5001,-114.781 82.5001,-114.781"/>
</g>
<!-- Node4 -->
<g id="node4" class="node"><title>Node4</title>
<g id="a_node4"><a xlink:href="../../da/d90/classcommands_1_1_base_command.html" target="_top" xlink:title="commands.BaseCommand">
<polygon fill="white" stroke="black" points="12,-192.5 12,-211.5 160,-211.5 160,-192.5 12,-192.5"/>
<text text-anchor="middle" x="86" y="-199.5" font-family="Helvetica,sans-Serif" font-size="10.00">commands.BaseCommand</text>
</a>
</g>
</g>
<!-- Node4&#45;&gt;Node3 -->
<g id="edge3" class="edge"><title>Node4&#45;&gt;Node3</title>
<path fill="none" stroke="midnightblue" d="M86,-182.371C86,-173.585 86,-163.272 86,-155.141"/>
<polygon fill="midnightblue" stroke="midnightblue" points="82.5001,-182.403 86,-192.403 89.5001,-182.403 82.5001,-182.403"/>
</g>
<!-- Node5 -->
<g id="node5" class="node"><title>Node5</title>
<polygon fill="white" stroke="#bfbfbf" points="50.5,-248.5 50.5,-267.5 121.5,-267.5 121.5,-248.5 50.5,-248.5"/>
<text text-anchor="middle" x="86" y="-255.5" font-family="Helvetica,sans-Serif" font-size="10.00">Serializable</text>
</g>
<!-- Node5&#45;&gt;Node4 -->
<g id="edge4" class="edge"><title>Node5&#45;&gt;Node4</title>
<path fill="none" stroke="midnightblue" d="M86,-237.805C86,-228.91 86,-218.78 86,-211.751"/>
<polygon fill="midnightblue" stroke="midnightblue" points="82.5001,-238.083 86,-248.083 89.5001,-238.083 82.5001,-238.083"/>
</g>
</g>
</svg>
