<?xml version="1.0" encoding="UTF-8" standalone="no"?>
<!DOCTYPE svg PUBLIC "-//W3C//DTD SVG 1.1//EN"
 "http://www.w3.org/Graphics/SVG/1.1/DTD/svg11.dtd">
<!-- Generated by graphviz version 2.36.0 (20140111.2315)
 -->
<!-- Title: turtle.Direction Pages: 1 -->
<svg width="287pt" height="108pt"
 viewBox="0.00 0.00 287.00 108.00" xmlns="http://www.w3.org/2000/svg" xmlns:xlink="http://www.w3.org/1999/xlink">
<g id="graph0" class="graph" transform="scale(1 1) rotate(0) translate(4 104)">
<title>turtle.Direction</title>
<polygon fill="white" stroke="none" points="-4,4 -4,-104 283,-104 283,4 -4,4"/>
<!-- Node1 -->
<g id="node1" class="node"><title>Node1</title>
<polygon fill="#bfbfbf" stroke="black" points="86,-0.5 86,-19.5 174,-19.5 174,-0.5 86,-0.5"/>
<text text-anchor="middle" x="130" y="-7.5" font-family="Helvetica,sans-Serif" font-size="10.00">turtle.Direction</text>
</g>
<!-- Node2 -->
<g id="node2" class="node"><title>Node2</title>
<g id="a_node2"><a xlink:href="../../d5/d6c/classturtle_1_1_move_direction.html" target="_top" xlink:title="turtle.MoveDirection">
<polygon fill="white" stroke="black" points="-0.5,-74.5 -0.5,-93.5 112.5,-93.5 112.5,-74.5 -0.5,-74.5"/>
<text text-anchor="middle" x="56" y="-81.5" font-family="Helvetica,sans-Serif" font-size="10.00">turtle.MoveDirection</text>
</a>
</g>
</g>
<!-- Node2&#45;&gt;Node1 -->
<g id="edge1" class="edge"><title>Node2&#45;&gt;Node1</title>
<path fill="none" stroke="#9a32cd" stroke-dasharray="5,2" d="M72.3564,-67.0857C87.4284,-52.421 109.222,-31.2168 121.232,-19.531"/>
<polygon fill="#9a32cd" stroke="#9a32cd" points="69.5059,-64.9758 64.7794,-74.4579 74.3874,-69.9929 69.5059,-64.9758"/>
<text text-anchor="middle" x="124.5" y="-41.5" font-family="Helvetica,sans-Serif" font-size="10.00"> direction</text>
</g>
<!-- Node3 -->
<g id="node3" class="node"><title>Node3</title>
<polygon fill="white" stroke="#bfbfbf" points="130.5,-69 130.5,-99 279.5,-99 279.5,-69 130.5,-69"/>
<text text-anchor="start" x="138.5" y="-87" font-family="Helvetica,sans-Serif" font-size="10.00">HashMap&lt; KeyCode, turtle.</text>
<text text-anchor="middle" x="205" y="-76" font-family="Helvetica,sans-Serif" font-size="10.00">MoveDirection &gt;</text>
</g>
<!-- Node3&#45;&gt;Node1 -->
<g id="edge2" class="edge"><title>Node3&#45;&gt;Node1</title>
<path fill="none" stroke="#9a32cd" stroke-dasharray="5,2" d="M182.949,-61.8307C168.34,-47.8062 149.94,-30.1426 139.124,-19.7589"/>
<polygon fill="#9a32cd" stroke="#9a32cd" points="180.545,-64.3746 190.182,-68.7751 185.392,-59.3249 180.545,-64.3746"/>
<text text-anchor="middle" x="202.5" y="-41.5" font-family="Helvetica,sans-Serif" font-size="10.00"> myDirections</text>
</g>
</g>
</svg>
