<?xml version="1.0" encoding="UTF-8" standalone="no"?>
<!DOCTYPE svg PUBLIC "-//W3C//DTD SVG 1.1//EN"
 "http://www.w3.org/Graphics/SVG/1.1/DTD/svg11.dtd">
<!-- Generated by graphviz version 2.36.0 (20140111.2315)
 -->
<!-- Title: commands.turtleCommands.AskWithCommand Pages: 1 -->
<svg width="872pt" height="168pt"
 viewBox="0.00 0.00 872.00 168.00" xmlns="http://www.w3.org/2000/svg" xmlns:xlink="http://www.w3.org/1999/xlink">
<g id="graph0" class="graph" transform="scale(1 1) rotate(0) translate(4 164)">
<title>commands.turtleCommands.AskWithCommand</title>
<polygon fill="white" stroke="none" points="-4,4 -4,-164 868,-164 868,4 -4,4"/>
<!-- Node1 -->
<g id="node1" class="node"><title>Node1</title>
<polygon fill="#bfbfbf" stroke="black" points="706,-112 706,-142 864,-142 864,-112 706,-112"/>
<text text-anchor="start" x="714" y="-130" font-family="Helvetica,sans-Serif" font-size="10.00">commands.turtleCommands.</text>
<text text-anchor="middle" x="785" y="-119" font-family="Helvetica,sans-Serif" font-size="10.00">AskWithCommand</text>
</g>
<!-- Node2 -->
<g id="node2" class="node"><title>Node2</title>
<g id="a_node2"><a xlink:href="../../d3/d03/classcommands_1_1turtle_commands_1_1_turtle_command.html" target="_top" xlink:title="commands.turtleCommands.\lTurtleCommand">
<polygon fill="white" stroke="black" points="510,-79 510,-109 668,-109 668,-79 510,-79"/>
<text text-anchor="start" x="518" y="-97" font-family="Helvetica,sans-Serif" font-size="10.00">commands.turtleCommands.</text>
<text text-anchor="middle" x="589" y="-86" font-family="Helvetica,sans-Serif" font-size="10.00">TurtleCommand</text>
</a>
</g>
</g>
<!-- Node2&#45;&gt;Node1 -->
<g id="edge1" class="edge"><title>Node2&#45;&gt;Node1</title>
<path fill="none" stroke="midnightblue" d="M678.044,-108.977C687.292,-110.55 696.649,-112.141 705.775,-113.694"/>
<polygon fill="midnightblue" stroke="midnightblue" points="678.514,-105.506 668.069,-107.28 677.34,-112.407 678.514,-105.506"/>
</g>
<!-- Node3 -->
<g id="node3" class="node"><title>Node3</title>
<g id="a_node3"><a xlink:href="../../da/d90/classcommands_1_1_base_command.html" target="_top" xlink:title="commands.BaseCommand">
<polygon fill="white" stroke="black" points="230,-111.5 230,-130.5 378,-130.5 378,-111.5 230,-111.5"/>
<text text-anchor="middle" x="304" y="-118.5" font-family="Helvetica,sans-Serif" font-size="10.00">commands.BaseCommand</text>
</a>
</g>
</g>
<!-- Node3&#45;&gt;Node1 -->
<g id="edge11" class="edge"><title>Node3&#45;&gt;Node1</title>
<path fill="none" stroke="#9a32cd" stroke-dasharray="5,2" d="M388.144,-123.74C392.152,-123.836 396.12,-123.924 400,-124 505.816,-126.084 628.061,-126.737 705.668,-126.932"/>
<polygon fill="#9a32cd" stroke="#9a32cd" points="388.212,-120.24 378.126,-123.484 388.034,-127.238 388.212,-120.24"/>
<text text-anchor="middle" x="589" y="-140" font-family="Helvetica,sans-Serif" font-size="10.00"> myCondition</text>
<text text-anchor="middle" x="589" y="-129" font-family="Helvetica,sans-Serif" font-size="10.00">myInternalCommand</text>
</g>
<!-- Node3&#45;&gt;Node2 -->
<g id="edge2" class="edge"><title>Node3&#45;&gt;Node2</title>
<path fill="none" stroke="midnightblue" d="M388.67,-115.81C420.993,-113.524 458.255,-110.545 492,-107 497.854,-106.385 503.902,-105.695 509.982,-104.963"/>
<polygon fill="midnightblue" stroke="midnightblue" points="388.093,-112.342 378.36,-116.528 388.579,-119.325 388.093,-112.342"/>
</g>
<!-- Node3&#45;&gt;Node2 -->
<g id="edge10" class="edge"><title>Node3&#45;&gt;Node2</title>
<path fill="none" stroke="#9a32cd" stroke-dasharray="5,2" d="M341.021,-108.217C358.568,-102.649 380.126,-96.7694 400,-94 435.882,-88.9999 475.993,-88.3358 509.919,-89.1877"/>
<polygon fill="#9a32cd" stroke="#9a32cd" points="339.61,-104.996 331.195,-111.434 341.788,-111.649 339.61,-104.996"/>
<text text-anchor="middle" x="446" y="-97" font-family="Helvetica,sans-Serif" font-size="10.00"> myArgumentList</text>
</g>
<!-- Node3&#45;&gt;Node3 -->
<g id="edge4" class="edge"><title>Node3&#45;&gt;Node3</title>
<path fill="none" stroke="#9a32cd" stroke-dasharray="5,2" d="M286.223,-140.4C287.41,-145.315 293.336,-149 304,-149 321.062,-149 325.995,-139.565 318.796,-130.757"/>
<polygon fill="#9a32cd" stroke="#9a32cd" points="289.594,-141.345 289.204,-130.757 282.907,-139.278 289.594,-141.345"/>
<text text-anchor="middle" x="304" y="-152" font-family="Helvetica,sans-Serif" font-size="10.00"> myNextCommand</text>
</g>
<!-- Node4 -->
<g id="node4" class="node"><title>Node4</title>
<polygon fill="white" stroke="#bfbfbf" points="58.5,-111.5 58.5,-130.5 129.5,-130.5 129.5,-111.5 58.5,-111.5"/>
<text text-anchor="middle" x="94" y="-118.5" font-family="Helvetica,sans-Serif" font-size="10.00">Serializable</text>
</g>
<!-- Node4&#45;&gt;Node3 -->
<g id="edge3" class="edge"><title>Node4&#45;&gt;Node3</title>
<path fill="none" stroke="midnightblue" d="M139.818,-121C166,-121 199.683,-121 229.641,-121"/>
<polygon fill="midnightblue" stroke="midnightblue" points="139.815,-117.5 129.815,-121 139.814,-124.5 139.815,-117.5"/>
</g>
<!-- Node5 -->
<g id="node5" class="node"><title>Node5</title>
<g id="a_node5"><a xlink:href="../../d4/d37/classcommands_1_1information_1_1_base_grid_container.html" target="_top" xlink:title="commands.information.Base\lGridContainer">
<polygon fill="white" stroke="black" points="226.5,-50 226.5,-80 381.5,-80 381.5,-50 226.5,-50"/>
<text text-anchor="start" x="234.5" y="-68" font-family="Helvetica,sans-Serif" font-size="10.00">commands.information.Base</text>
<text text-anchor="middle" x="304" y="-57" font-family="Helvetica,sans-Serif" font-size="10.00">GridContainer</text>
</a>
</g>
</g>
<!-- Node5&#45;&gt;Node2 -->
<g id="edge5" class="edge"><title>Node5&#45;&gt;Node2</title>
<path fill="none" stroke="#9a32cd" stroke-dasharray="5,2" d="M391.773,-66.3368C423.414,-67.5714 459.415,-69.8478 492,-74 501.964,-75.2697 512.434,-77.0164 522.648,-78.9529"/>
<polygon fill="#9a32cd" stroke="#9a32cd" points="391.782,-62.835 381.663,-65.9715 391.53,-69.8304 391.782,-62.835"/>
<text text-anchor="middle" x="446" y="-77" font-family="Helvetica,sans-Serif" font-size="10.00"> myGridContainer</text>
</g>
<!-- Node6 -->
<g id="node6" class="node"><title>Node6</title>
<g id="a_node6"><a xlink:href="../../d4/d4e/interfacecommands_1_1information_1_1_i_information_container.html" target="_top" xlink:title="commands.information.IInformation\lContainer">
<polygon fill="white" stroke="black" points="0,-50 0,-80 188,-80 188,-50 0,-50"/>
<text text-anchor="start" x="8" y="-68" font-family="Helvetica,sans-Serif" font-size="10.00">commands.information.IInformation</text>
<text text-anchor="middle" x="94" y="-57" font-family="Helvetica,sans-Serif" font-size="10.00">Container</text>
</a>
</g>
</g>
<!-- Node6&#45;&gt;Node5 -->
<g id="edge6" class="edge"><title>Node6&#45;&gt;Node5</title>
<path fill="none" stroke="midnightblue" d="M198.253,-65C207.672,-65 217.1,-65 226.227,-65"/>
<polygon fill="midnightblue" stroke="midnightblue" points="198.049,-61.5001 188.049,-65 198.049,-68.5001 198.049,-61.5001"/>
</g>
<!-- Node7 -->
<g id="node7" class="node"><title>Node7</title>
<g id="a_node7"><a xlink:href="../../d7/d28/classcommands_1_1information_1_1_base_turtle_container.html" target="_top" xlink:title="commands.information.Base\lTurtleContainer">
<polygon fill="white" stroke="black" points="226.5,-1 226.5,-31 381.5,-31 381.5,-1 226.5,-1"/>
<text text-anchor="start" x="234.5" y="-19" font-family="Helvetica,sans-Serif" font-size="10.00">commands.information.Base</text>
<text text-anchor="middle" x="304" y="-8" font-family="Helvetica,sans-Serif" font-size="10.00">TurtleContainer</text>
</a>
</g>
</g>
<!-- Node6&#45;&gt;Node7 -->
<g id="edge9" class="edge"><title>Node6&#45;&gt;Node7</title>
<path fill="none" stroke="midnightblue" d="M168.568,-47.6691C191.661,-42.2288 216.95,-36.2715 239.3,-31.0062"/>
<polygon fill="midnightblue" stroke="midnightblue" points="167.751,-44.2656 158.82,-49.9654 169.357,-51.0791 167.751,-44.2656"/>
</g>
<!-- Node7&#45;&gt;Node2 -->
<g id="edge7" class="edge"><title>Node7&#45;&gt;Node2</title>
<path fill="none" stroke="#9a32cd" stroke-dasharray="5,2" d="M392.092,-28.6261C423.914,-34.3185 459.95,-42.0402 492,-52 514.932,-59.1262 539.738,-70.07 558.39,-78.9999"/>
<polygon fill="#9a32cd" stroke="#9a32cd" points="392.372,-25.1221 381.919,-26.849 391.168,-32.0177 392.372,-25.1221"/>
<text text-anchor="middle" x="446" y="-55" font-family="Helvetica,sans-Serif" font-size="10.00"> myTurtleContainer</text>
</g>
<!-- Node8 -->
<g id="node8" class="node"><title>Node8</title>
<g id="a_node8"><a xlink:href="../../d8/db5/interfacecommands_1_1information_1_1_i_turtle_behavior.html" target="_top" xlink:title="commands.information.ITurtle\lBehavior">
<polygon fill="white" stroke="black" points="14.5,-0 14.5,-30 173.5,-30 173.5,-0 14.5,-0"/>
<text text-anchor="start" x="22.5" y="-18" font-family="Helvetica,sans-Serif" font-size="10.00">commands.information.ITurtle</text>
<text text-anchor="middle" x="94" y="-7" font-family="Helvetica,sans-Serif" font-size="10.00">Behavior</text>
</a>
</g>
</g>
<!-- Node8&#45;&gt;Node7 -->
<g id="edge8" class="edge"><title>Node8&#45;&gt;Node7</title>
<path fill="none" stroke="midnightblue" d="M183.845,-15.4271C197.98,-15.4951 212.496,-15.5649 226.319,-15.6313"/>
<polygon fill="midnightblue" stroke="midnightblue" points="183.653,-11.9263 173.636,-15.3781 183.619,-18.9262 183.653,-11.9263"/>
</g>
</g>
</svg>
