<?xml version="1.0" encoding="UTF-8" standalone="no"?>
<!DOCTYPE svg PUBLIC "-//W3C//DTD SVG 1.1//EN"
 "http://www.w3.org/Graphics/SVG/1.1/DTD/svg11.dtd">
<!-- Generated by graphviz version 2.36.0 (20140111.2315)
 -->
<!-- Title: GUIFunctions.SetBackgroundImage.gridSetAction Pages: 1 -->
<svg width="530pt" height="180pt"
 viewBox="0.00 0.00 530.00 180.00" xmlns="http://www.w3.org/2000/svg" xmlns:xlink="http://www.w3.org/1999/xlink">
<g id="graph0" class="graph" transform="scale(1 1) rotate(0) translate(4 176)">
<title>GUIFunctions.SetBackgroundImage.gridSetAction</title>
<polygon fill="white" stroke="none" points="-4,4 -4,-176 526,-176 526,4 -4,4"/>
<!-- Node1 -->
<g id="node1" class="node"><title>Node1</title>
<polygon fill="#bfbfbf" stroke="black" points="0.5,-71 0.5,-101 155.5,-101 155.5,-71 0.5,-71"/>
<text text-anchor="start" x="8.5" y="-89" font-family="Helvetica,sans-Serif" font-size="10.00">GUIFunctions.SetBackground</text>
<text text-anchor="middle" x="78" y="-78" font-family="Helvetica,sans-Serif" font-size="10.00">Image.gridSetAction</text>
</g>
<!-- Node2 -->
<g id="node2" class="node"><title>Node2</title>
<g id="a_node2"><a xlink:href="../../d7/d98/class_view_1_1_grid_tracker.html#af7c2413584c58030e606ae6692ea564f" target="_top" xlink:title="View.GridTracker.getActiveGrid">
<polygon fill="white" stroke="black" points="192.5,-152.5 192.5,-171.5 353.5,-171.5 353.5,-152.5 192.5,-152.5"/>
<text text-anchor="middle" x="273" y="-159.5" font-family="Helvetica,sans-Serif" font-size="10.00">View.GridTracker.getActiveGrid</text>
</a>
</g>
</g>
<!-- Node1&#45;&gt;Node2 -->
<g id="edge1" class="edge"><title>Node1&#45;&gt;Node2</title>
<path fill="none" stroke="midnightblue" d="M104.707,-101.156C127.12,-113.832 160.835,-131.617 192,-143 198.993,-145.554 206.456,-147.856 213.908,-149.902"/>
<polygon fill="midnightblue" stroke="midnightblue" points="213.098,-153.308 223.658,-152.445 214.865,-146.535 213.098,-153.308"/>
</g>
<!-- Node3 -->
<g id="node3" class="node"><title>Node3</title>
<g id="a_node3"><a xlink:href="../../d9/db1/class_view_1_1_single_grid.html#a925405ab0fe1325224799d84745a44c1" target="_top" xlink:title="View.SingleGrid.getAllPens">
<polygon fill="white" stroke="black" points="201.5,-114.5 201.5,-133.5 344.5,-133.5 344.5,-114.5 201.5,-114.5"/>
<text text-anchor="middle" x="273" y="-121.5" font-family="Helvetica,sans-Serif" font-size="10.00">View.SingleGrid.getAllPens</text>
</a>
</g>
</g>
<!-- Node1&#45;&gt;Node3 -->
<g id="edge2" class="edge"><title>Node1&#45;&gt;Node3</title>
<path fill="none" stroke="midnightblue" d="M155.279,-101.019C174.748,-104.852 195.367,-108.912 213.771,-112.535"/>
<polygon fill="midnightblue" stroke="midnightblue" points="213.258,-116.001 223.745,-114.499 214.61,-109.133 213.258,-116.001"/>
</g>
<!-- Node5 -->
<g id="node5" class="node"><title>Node5</title>
<g id="a_node5"><a xlink:href="../../d9/db1/class_view_1_1_single_grid.html#a4f5ac29735861f044f439278afea0957" target="_top" xlink:title="View.SingleGrid.getAllTurtles">
<polygon fill="white" stroke="black" points="198,-76.5 198,-95.5 348,-95.5 348,-76.5 198,-76.5"/>
<text text-anchor="middle" x="273" y="-83.5" font-family="Helvetica,sans-Serif" font-size="10.00">View.SingleGrid.getAllTurtles</text>
</a>
</g>
</g>
<!-- Node1&#45;&gt;Node5 -->
<g id="edge4" class="edge"><title>Node1&#45;&gt;Node5</title>
<path fill="none" stroke="midnightblue" d="M155.556,-86C166.083,-86 176.942,-86 187.601,-86"/>
<polygon fill="midnightblue" stroke="midnightblue" points="187.741,-89.5001 197.741,-86 187.741,-82.5001 187.741,-89.5001"/>
</g>
<!-- Node6 -->
<g id="node6" class="node"><title>Node6</title>
<g id="a_node6"><a xlink:href="../../d9/db1/class_view_1_1_single_grid.html#ae8506f6c15fbb963a16613ed3410d8b6" target="_top" xlink:title="View.SingleGrid.getMyHeight">
<polygon fill="white" stroke="black" points="196.5,-38.5 196.5,-57.5 349.5,-57.5 349.5,-38.5 196.5,-38.5"/>
<text text-anchor="middle" x="273" y="-45.5" font-family="Helvetica,sans-Serif" font-size="10.00">View.SingleGrid.getMyHeight</text>
</a>
</g>
</g>
<!-- Node1&#45;&gt;Node6 -->
<g id="edge5" class="edge"><title>Node1&#45;&gt;Node6</title>
<path fill="none" stroke="midnightblue" d="M155.279,-70.9814C174.748,-67.148 195.367,-63.0883 213.771,-59.4648"/>
<polygon fill="midnightblue" stroke="midnightblue" points="214.61,-62.8669 223.745,-57.5009 213.258,-55.9988 214.61,-62.8669"/>
</g>
<!-- Node7 -->
<g id="node7" class="node"><title>Node7</title>
<g id="a_node7"><a xlink:href="../../d9/db1/class_view_1_1_single_grid.html#abf0fa2de53fc785c35795d2b13ad4c24" target="_top" xlink:title="View.SingleGrid.getMyWidth">
<polygon fill="white" stroke="black" points="199,-0.5 199,-19.5 347,-19.5 347,-0.5 199,-0.5"/>
<text text-anchor="middle" x="273" y="-7.5" font-family="Helvetica,sans-Serif" font-size="10.00">View.SingleGrid.getMyWidth</text>
</a>
</g>
</g>
<!-- Node1&#45;&gt;Node7 -->
<g id="edge6" class="edge"><title>Node1&#45;&gt;Node7</title>
<path fill="none" stroke="midnightblue" d="M104.707,-70.8435C127.12,-58.1684 160.835,-40.3825 192,-29 198.993,-26.4461 206.456,-24.1443 213.908,-22.0978"/>
<polygon fill="midnightblue" stroke="midnightblue" points="214.865,-25.4654 223.658,-19.5548 213.098,-18.692 214.865,-25.4654"/>
</g>
<!-- Node4 -->
<g id="node4" class="node"><title>Node4</title>
<g id="a_node4"><a xlink:href="../../d9/db1/class_view_1_1_single_grid.html#a9bc0c792d3ba336bddf804936337af7c" target="_top" xlink:title="View.SingleGrid.getPens">
<polygon fill="white" stroke="black" points="390.5,-114.5 390.5,-133.5 521.5,-133.5 521.5,-114.5 390.5,-114.5"/>
<text text-anchor="middle" x="456" y="-121.5" font-family="Helvetica,sans-Serif" font-size="10.00">View.SingleGrid.getPens</text>
</a>
</g>
</g>
<!-- Node3&#45;&gt;Node4 -->
<g id="edge3" class="edge"><title>Node3&#45;&gt;Node4</title>
<path fill="none" stroke="midnightblue" d="M344.757,-124C356.413,-124 368.529,-124 380.279,-124"/>
<polygon fill="midnightblue" stroke="midnightblue" points="380.489,-127.5 390.489,-124 380.489,-120.5 380.489,-127.5"/>
</g>
</g>
</svg>
