<?xml version="1.0" encoding="UTF-8" standalone="no"?>
<!DOCTYPE svg PUBLIC "-//W3C//DTD SVG 1.1//EN"
 "http://www.w3.org/Graphics/SVG/1.1/DTD/svg11.dtd">
<!-- Generated by graphviz version 2.36.0 (20140111.2315)
 -->
<!-- Title: GUIFunctions.SetBackgroundImage.doAction Pages: 1 -->
<svg width="722pt" height="180pt"
 viewBox="0.00 0.00 722.00 180.00" xmlns="http://www.w3.org/2000/svg" xmlns:xlink="http://www.w3.org/1999/xlink">
<g id="graph0" class="graph" transform="scale(1 1) rotate(0) translate(4 176)">
<title>GUIFunctions.SetBackgroundImage.doAction</title>
<polygon fill="white" stroke="none" points="-4,4 -4,-176 718,-176 718,4 -4,4"/>
<!-- Node1 -->
<g id="node1" class="node"><title>Node1</title>
<polygon fill="#bfbfbf" stroke="black" points="0.5,-109 0.5,-139 155.5,-139 155.5,-109 0.5,-109"/>
<text text-anchor="start" x="8.5" y="-127" font-family="Helvetica,sans-Serif" font-size="10.00">GUIFunctions.SetBackground</text>
<text text-anchor="middle" x="78" y="-116" font-family="Helvetica,sans-Serif" font-size="10.00">Image.doAction</text>
</g>
<!-- Node2 -->
<g id="node2" class="node"><title>Node2</title>
<g id="a_node2"><a xlink:href="../../d7/d98/class_view_1_1_grid_tracker.html#af7c2413584c58030e606ae6692ea564f" target="_top" xlink:title="View.GridTracker.getActiveGrid">
<polygon fill="white" stroke="black" points="384.5,-152.5 384.5,-171.5 545.5,-171.5 545.5,-152.5 384.5,-152.5"/>
<text text-anchor="middle" x="465" y="-159.5" font-family="Helvetica,sans-Serif" font-size="10.00">View.GridTracker.getActiveGrid</text>
</a>
</g>
</g>
<!-- Node1&#45;&gt;Node2 -->
<g id="edge1" class="edge"><title>Node1&#45;&gt;Node2</title>
<path fill="none" stroke="midnightblue" d="M155.524,-131.553C218.516,-137.77 307.925,-146.595 374.28,-153.145"/>
<polygon fill="midnightblue" stroke="midnightblue" points="374.014,-156.635 384.31,-154.134 374.702,-149.669 374.014,-156.635"/>
</g>
<!-- Node3 -->
<g id="node3" class="node"><title>Node3</title>
<g id="a_node3"><a xlink:href="../../dc/d8a/class_g_u_i_functions_1_1_set_background_image.html#a99d94e1ecf90e9c6b550220a1a92e69a" target="_top" xlink:title="GUIFunctions.SetBackground\lImage.gridSetAction">
<polygon fill="white" stroke="black" points="192.5,-79 192.5,-109 347.5,-109 347.5,-79 192.5,-79"/>
<text text-anchor="start" x="200.5" y="-97" font-family="Helvetica,sans-Serif" font-size="10.00">GUIFunctions.SetBackground</text>
<text text-anchor="middle" x="270" y="-86" font-family="Helvetica,sans-Serif" font-size="10.00">Image.gridSetAction</text>
</a>
</g>
</g>
<!-- Node1&#45;&gt;Node3 -->
<g id="edge2" class="edge"><title>Node1&#45;&gt;Node3</title>
<path fill="none" stroke="midnightblue" d="M155.733,-111.884C164.488,-110.502 173.458,-109.086 182.331,-107.685"/>
<polygon fill="midnightblue" stroke="midnightblue" points="182.958,-111.129 192.29,-106.112 181.866,-104.215 182.958,-111.129"/>
</g>
<!-- Node3&#45;&gt;Node2 -->
<g id="edge3" class="edge"><title>Node3&#45;&gt;Node2</title>
<path fill="none" stroke="midnightblue" d="M301.603,-109.018C324.017,-119.584 355.392,-133.482 384,-143 391.608,-145.531 399.728,-147.866 407.769,-149.969"/>
<polygon fill="midnightblue" stroke="midnightblue" points="406.948,-153.371 417.5,-152.417 408.656,-146.583 406.948,-153.371"/>
</g>
<!-- Node4 -->
<g id="node4" class="node"><title>Node4</title>
<g id="a_node4"><a xlink:href="../../d9/db1/class_view_1_1_single_grid.html#ae8506f6c15fbb963a16613ed3410d8b6" target="_top" xlink:title="View.SingleGrid.getMyHeight">
<polygon fill="white" stroke="black" points="388.5,-114.5 388.5,-133.5 541.5,-133.5 541.5,-114.5 388.5,-114.5"/>
<text text-anchor="middle" x="465" y="-121.5" font-family="Helvetica,sans-Serif" font-size="10.00">View.SingleGrid.getMyHeight</text>
</a>
</g>
</g>
<!-- Node3&#45;&gt;Node4 -->
<g id="edge4" class="edge"><title>Node3&#45;&gt;Node4</title>
<path fill="none" stroke="midnightblue" d="M347.556,-105.9C362.435,-108.213 377.975,-110.628 392.677,-112.913"/>
<polygon fill="midnightblue" stroke="midnightblue" points="392.284,-116.394 402.703,-114.472 393.359,-109.477 392.284,-116.394"/>
</g>
<!-- Node5 -->
<g id="node5" class="node"><title>Node5</title>
<g id="a_node5"><a xlink:href="../../d9/db1/class_view_1_1_single_grid.html#abf0fa2de53fc785c35795d2b13ad4c24" target="_top" xlink:title="View.SingleGrid.getMyWidth">
<polygon fill="white" stroke="black" points="391,-76.5 391,-95.5 539,-95.5 539,-76.5 391,-76.5"/>
<text text-anchor="middle" x="465" y="-83.5" font-family="Helvetica,sans-Serif" font-size="10.00">View.SingleGrid.getMyWidth</text>
</a>
</g>
</g>
<!-- Node3&#45;&gt;Node5 -->
<g id="edge5" class="edge"><title>Node3&#45;&gt;Node5</title>
<path fill="none" stroke="midnightblue" d="M347.556,-90.8267C358.514,-90.3725 369.832,-89.9034 380.908,-89.4442"/>
<polygon fill="midnightblue" stroke="midnightblue" points="381.15,-92.9373 390.996,-89.0261 380.86,-85.9433 381.15,-92.9373"/>
</g>
<!-- Node6 -->
<g id="node6" class="node"><title>Node6</title>
<g id="a_node6"><a xlink:href="../../d9/db1/class_view_1_1_single_grid.html#a4f5ac29735861f044f439278afea0957" target="_top" xlink:title="View.SingleGrid.getAllTurtles">
<polygon fill="white" stroke="black" points="390,-38.5 390,-57.5 540,-57.5 540,-38.5 390,-38.5"/>
<text text-anchor="middle" x="465" y="-45.5" font-family="Helvetica,sans-Serif" font-size="10.00">View.SingleGrid.getAllTurtles</text>
</a>
</g>
</g>
<!-- Node3&#45;&gt;Node6 -->
<g id="edge6" class="edge"><title>Node3&#45;&gt;Node6</title>
<path fill="none" stroke="midnightblue" d="M333.755,-78.9893C350.111,-75.0816 367.714,-70.8795 384,-67 393.686,-64.6926 404.033,-62.2321 413.961,-59.8732"/>
<polygon fill="midnightblue" stroke="midnightblue" points="414.789,-63.2739 423.71,-57.5576 413.172,-56.4634 414.789,-63.2739"/>
</g>
<!-- Node7 -->
<g id="node7" class="node"><title>Node7</title>
<g id="a_node7"><a xlink:href="../../d9/db1/class_view_1_1_single_grid.html#a925405ab0fe1325224799d84745a44c1" target="_top" xlink:title="View.SingleGrid.getAllPens">
<polygon fill="white" stroke="black" points="393.5,-0.5 393.5,-19.5 536.5,-19.5 536.5,-0.5 393.5,-0.5"/>
<text text-anchor="middle" x="465" y="-7.5" font-family="Helvetica,sans-Serif" font-size="10.00">View.SingleGrid.getAllPens</text>
</a>
</g>
</g>
<!-- Node3&#45;&gt;Node7 -->
<g id="edge7" class="edge"><title>Node3&#45;&gt;Node7</title>
<path fill="none" stroke="midnightblue" d="M292.969,-78.79C315.06,-64.1282 350.55,-42.267 384,-29 390.33,-26.4894 397.079,-24.2547 403.87,-22.2803"/>
<polygon fill="midnightblue" stroke="midnightblue" points="405.08,-25.5783 413.808,-19.5719 403.239,-18.8246 405.08,-25.5783"/>
</g>
<!-- Node8 -->
<g id="node8" class="node"><title>Node8</title>
<g id="a_node8"><a xlink:href="../../d9/db1/class_view_1_1_single_grid.html#a9bc0c792d3ba336bddf804936337af7c" target="_top" xlink:title="View.SingleGrid.getPens">
<polygon fill="white" stroke="black" points="582.5,-0.5 582.5,-19.5 713.5,-19.5 713.5,-0.5 582.5,-0.5"/>
<text text-anchor="middle" x="648" y="-7.5" font-family="Helvetica,sans-Serif" font-size="10.00">View.SingleGrid.getPens</text>
</a>
</g>
</g>
<!-- Node7&#45;&gt;Node8 -->
<g id="edge8" class="edge"><title>Node7&#45;&gt;Node8</title>
<path fill="none" stroke="midnightblue" d="M536.757,-10C548.413,-10 560.529,-10 572.279,-10"/>
<polygon fill="midnightblue" stroke="midnightblue" points="572.489,-13.5001 582.489,-10 572.489,-6.5001 572.489,-13.5001"/>
</g>
</g>
</svg>
