<?xml version="1.0" encoding="UTF-8" standalone="no"?>
<!DOCTYPE svg PUBLIC "-//W3C//DTD SVG 1.1//EN"
 "http://www.w3.org/Graphics/SVG/1.1/DTD/svg11.dtd">
<!-- Generated by graphviz version 2.36.0 (20140111.2315)
 -->
<!-- Title: commands.information.MapBasedUserDefinedContainer.addVariable Pages: 1 -->
<svg width="392pt" height="48pt"
 viewBox="0.00 0.00 392.00 48.00" xmlns="http://www.w3.org/2000/svg" xmlns:xlink="http://www.w3.org/1999/xlink">
<g id="graph0" class="graph" transform="scale(1 1) rotate(0) translate(4 44)">
<title>commands.information.MapBasedUserDefinedContainer.addVariable</title>
<polygon fill="white" stroke="none" points="-4,4 -4,-44 388,-44 388,4 -4,4"/>
<!-- Node1 -->
<g id="node1" class="node"><title>Node1</title>
<polygon fill="#bfbfbf" stroke="black" points="0.5,0.5 0.5,-40.5 173.5,-40.5 173.5,0.5 0.5,0.5"/>
<text text-anchor="start" x="8.5" y="-28.5" font-family="Helvetica,sans-Serif" font-size="10.00">commands.information.Map</text>
<text text-anchor="start" x="8.5" y="-17.5" font-family="Helvetica,sans-Serif" font-size="10.00">BasedUserDefinedContainer.add</text>
<text text-anchor="middle" x="87" y="-6.5" font-family="Helvetica,sans-Serif" font-size="10.00">Variable</text>
</g>
<!-- Node2 -->
<g id="node2" class="node"><title>Node2</title>
<g id="a_node2"><a xlink:href="../../d0/d69/classcommands_1_1information_1_1_map_based_user_defined_container.html#ada311836bb7416da801912ca5a239bc5" target="_top" xlink:title="commands.information.Map\lBasedUserDefinedContainer.add\lVariable">
<polygon fill="white" stroke="black" points="210.5,0.5 210.5,-40.5 383.5,-40.5 383.5,0.5 210.5,0.5"/>
<text text-anchor="start" x="218.5" y="-28.5" font-family="Helvetica,sans-Serif" font-size="10.00">commands.information.Map</text>
<text text-anchor="start" x="218.5" y="-17.5" font-family="Helvetica,sans-Serif" font-size="10.00">BasedUserDefinedContainer.add</text>
<text text-anchor="middle" x="297" y="-6.5" font-family="Helvetica,sans-Serif" font-size="10.00">Variable</text>
</a>
</g>
</g>
<!-- Node1&#45;&gt;Node2 -->
<g id="edge1" class="edge"><title>Node1&#45;&gt;Node2</title>
<path fill="none" stroke="midnightblue" d="M183.585,-20C192.561,-20 201.62,-20 210.494,-20"/>
<polygon fill="midnightblue" stroke="midnightblue" points="183.502,-16.5001 173.502,-20 183.502,-23.5001 183.502,-16.5001"/>
</g>
</g>
</svg>
