<?xml version="1.0" encoding="UTF-8" standalone="no"?>
<!DOCTYPE svg PUBLIC "-//W3C//DTD SVG 1.1//EN"
 "http://www.w3.org/Graphics/SVG/1.1/DTD/svg11.dtd">
<!-- Generated by graphviz version 2.36.0 (20140111.2315)
 -->
<!-- Title: commands.information.MapBasedUserDefinedContainer.getAllVariablesAndValues Pages: 1 -->
<svg width="642pt" height="115pt"
 viewBox="0.00 0.00 642.00 115.00" xmlns="http://www.w3.org/2000/svg" xmlns:xlink="http://www.w3.org/1999/xlink">
<g id="graph0" class="graph" transform="scale(1 1) rotate(0) translate(4 111)">
<title>commands.information.MapBasedUserDefinedContainer.getAllVariablesAndValues</title>
<polygon fill="white" stroke="none" points="-4,4 -4,-111 638,-111 638,4 -4,4"/>
<!-- Node1 -->
<g id="node1" class="node"><title>Node1</title>
<polygon fill="#bfbfbf" stroke="black" points="0,-27.5 0,-68.5 170,-68.5 170,-27.5 0,-27.5"/>
<text text-anchor="start" x="8" y="-56.5" font-family="Helvetica,sans-Serif" font-size="10.00">commands.information.Map</text>
<text text-anchor="start" x="8" y="-45.5" font-family="Helvetica,sans-Serif" font-size="10.00">BasedUserDefinedContainer.get</text>
<text text-anchor="middle" x="85" y="-34.5" font-family="Helvetica,sans-Serif" font-size="10.00">AllVariablesAndValues</text>
</g>
<!-- Node2 -->
<g id="node2" class="node"><title>Node2</title>
<g id="a_node2"><a xlink:href="../../da/d90/classcommands_1_1_base_command.html#a68a349a085c4b05af0a55943da86598b" target="_top" xlink:title="commands.BaseCommand.execute">
<polygon fill="white" stroke="black" points="206.5,-38.5 206.5,-57.5 395.5,-57.5 395.5,-38.5 206.5,-38.5"/>
<text text-anchor="middle" x="301" y="-45.5" font-family="Helvetica,sans-Serif" font-size="10.00">commands.BaseCommand.execute</text>
</a>
</g>
</g>
<!-- Node1&#45;&gt;Node2 -->
<g id="edge1" class="edge"><title>Node1&#45;&gt;Node2</title>
<path fill="none" stroke="midnightblue" d="M170.271,-48C178.762,-48 187.453,-48 196.117,-48"/>
<polygon fill="midnightblue" stroke="midnightblue" points="196.261,-51.5001 206.261,-48 196.261,-44.5001 196.261,-51.5001"/>
</g>
<!-- Node2&#45;&gt;Node2 -->
<g id="edge2" class="edge"><title>Node2&#45;&gt;Node2</title>
<path fill="none" stroke="midnightblue" d="M267.978,-57.6119C251.391,-66.4613 262.398,-76 301,-76 329.348,-76 342.814,-70.8557 341.399,-64.618"/>
<polygon fill="midnightblue" stroke="midnightblue" points="343.684,-61.9608 334.022,-57.6119 338.863,-67.0364 343.684,-61.9608"/>
</g>
<!-- Node3 -->
<g id="node3" class="node"><title>Node3</title>
<g id="a_node3"><a xlink:href="../../da/d90/classcommands_1_1_base_command.html#a90abff4a812d84d0454cb095e03c6e08" target="_top" xlink:title="commands.BaseCommand.get\lNextCommand">
<polygon fill="white" stroke="black" points="449.5,-77 449.5,-107 616.5,-107 616.5,-77 449.5,-77"/>
<text text-anchor="start" x="457.5" y="-95" font-family="Helvetica,sans-Serif" font-size="10.00">commands.BaseCommand.get</text>
<text text-anchor="middle" x="533" y="-84" font-family="Helvetica,sans-Serif" font-size="10.00">NextCommand</text>
</a>
</g>
</g>
<!-- Node2&#45;&gt;Node3 -->
<g id="edge3" class="edge"><title>Node2&#45;&gt;Node3</title>
<path fill="none" stroke="midnightblue" d="M351.907,-57.5473C378.611,-62.656 412.298,-69.1005 443.293,-75.0299"/>
<polygon fill="midnightblue" stroke="midnightblue" points="442.77,-78.4932 453.249,-76.9346 444.085,-71.6179 442.77,-78.4932"/>
</g>
<!-- Node4 -->
<g id="node4" class="node"><title>Node4</title>
<g id="a_node4"><a xlink:href="../../da/d90/classcommands_1_1_base_command.html#aad4544c0bd9d40769d8997e4d6d97b08" target="_top" xlink:title="commands.BaseCommand.onExecute">
<polygon fill="white" stroke="black" points="432.5,-38.5 432.5,-57.5 633.5,-57.5 633.5,-38.5 432.5,-38.5"/>
<text text-anchor="middle" x="533" y="-45.5" font-family="Helvetica,sans-Serif" font-size="10.00">commands.BaseCommand.onExecute</text>
</a>
</g>
</g>
<!-- Node2&#45;&gt;Node4 -->
<g id="edge4" class="edge"><title>Node2&#45;&gt;Node4</title>
<path fill="none" stroke="midnightblue" d="M395.55,-48C404.315,-48 413.252,-48 422.149,-48"/>
<polygon fill="midnightblue" stroke="midnightblue" points="422.164,-51.5001 432.164,-48 422.164,-44.5001 422.164,-51.5001"/>
</g>
<!-- Node5 -->
<g id="node5" class="node"><title>Node5</title>
<g id="a_node5"><a xlink:href="../../da/d90/classcommands_1_1_base_command.html#a37ff254bd611b07ea38aaaf85447a2c3" target="_top" xlink:title="commands.BaseCommand.reset">
<polygon fill="white" stroke="black" points="445,-0.5 445,-19.5 621,-19.5 621,-0.5 445,-0.5"/>
<text text-anchor="middle" x="533" y="-7.5" font-family="Helvetica,sans-Serif" font-size="10.00">commands.BaseCommand.reset</text>
</a>
</g>
</g>
<!-- Node2&#45;&gt;Node5 -->
<g id="edge5" class="edge"><title>Node2&#45;&gt;Node5</title>
<path fill="none" stroke="midnightblue" d="M359.742,-38.46C391.458,-33.2201 430.974,-26.6912 464.156,-21.2091"/>
<polygon fill="midnightblue" stroke="midnightblue" points="464.939,-24.6272 474.234,-19.5439 463.798,-17.7209 464.939,-24.6272"/>
</g>
</g>
</svg>
