<?xml version="1.0" encoding="UTF-8" standalone="no"?>
<!DOCTYPE svg PUBLIC "-//W3C//DTD SVG 1.1//EN"
 "http://www.w3.org/Graphics/SVG/1.1/DTD/svg11.dtd">
<!-- Generated by graphviz version 2.36.0 (20140111.2315)
 -->
<!-- Title: View.TabsOfGrids Pages: 1 -->
<svg width="163pt" height="96pt"
 viewBox="0.00 0.00 163.00 96.00" xmlns="http://www.w3.org/2000/svg" xmlns:xlink="http://www.w3.org/1999/xlink">
<g id="graph0" class="graph" transform="scale(1 1) rotate(0) translate(4 92)">
<title>View.TabsOfGrids</title>
<polygon fill="white" stroke="none" points="-4,4 -4,-92 159,-92 159,4 -4,4"/>
<!-- Node1 -->
<g id="node1" class="node"><title>Node1</title>
<polygon fill="#bfbfbf" stroke="black" points="22.5,-0.5 22.5,-19.5 119.5,-19.5 119.5,-0.5 22.5,-0.5"/>
<text text-anchor="middle" x="71" y="-7.5" font-family="Helvetica,sans-Serif" font-size="10.00">View.TabsOfGrids</text>
</g>
<!-- Node2 -->
<g id="node2" class="node"><title>Node2</title>
<polygon fill="white" stroke="#bfbfbf" points="0,-68.5 0,-87.5 56,-87.5 56,-68.5 0,-68.5"/>
<text text-anchor="middle" x="28" y="-75.5" font-family="Helvetica,sans-Serif" font-size="10.00">TabPane</text>
</g>
<!-- Node2&#45;&gt;Node1 -->
<g id="edge1" class="edge"><title>Node2&#45;&gt;Node1</title>
<path fill="none" stroke="midnightblue" d="M39.1163,-59.9377C47.4725,-47.112 58.5827,-30.0591 65.2399,-19.8411"/>
<polygon fill="midnightblue" stroke="midnightblue" points="36.1478,-58.0824 33.6215,-68.3717 42.0129,-61.9036 36.1478,-58.0824"/>
</g>
<!-- Node3 -->
<g id="node3" class="node"><title>Node3</title>
<polygon fill="white" stroke="#bfbfbf" points="74.5,-68.5 74.5,-87.5 155.5,-87.5 155.5,-68.5 74.5,-68.5"/>
<text text-anchor="middle" x="115" y="-75.5" font-family="Helvetica,sans-Serif" font-size="10.00">EventHandler</text>
</g>
<!-- Node3&#45;&gt;Node1 -->
<g id="edge2" class="edge"><title>Node3&#45;&gt;Node1</title>
<path fill="none" stroke="#9a32cd" stroke-dasharray="5,2" d="M103.625,-59.9377C95.0746,-47.112 83.7061,-30.0591 76.8941,-19.8411"/>
<polygon fill="#9a32cd" stroke="#9a32cd" points="100.789,-61.9926 109.248,-68.3717 106.613,-58.1097 100.789,-61.9926"/>
<text text-anchor="middle" x="120" y="-41.5" font-family="Helvetica,sans-Serif" font-size="10.00"> myEvent</text>
</g>
</g>
</svg>
