<?xml version="1.0" encoding="UTF-8" standalone="no"?>
<!DOCTYPE svg PUBLIC "-//W3C//DTD SVG 1.1//EN"
 "http://www.w3.org/Graphics/SVG/1.1/DTD/svg11.dtd">
<!-- Generated by graphviz version 2.36.0 (20140111.2315)
 -->
<!-- Title: GUIFunctions.SetBackgroundImage Pages: 1 -->
<svg width="170pt" height="208pt"
 viewBox="0.00 0.00 170.00 208.00" xmlns="http://www.w3.org/2000/svg" xmlns:xlink="http://www.w3.org/1999/xlink">
<g id="graph0" class="graph" transform="scale(1 1) rotate(0) translate(4 204)">
<title>GUIFunctions.SetBackgroundImage</title>
<polygon fill="white" stroke="none" points="-4,4 -4,-204 166,-204 166,4 -4,4"/>
<!-- Node1 -->
<g id="node1" class="node"><title>Node1</title>
<polygon fill="#bfbfbf" stroke="black" points="3.5,-1 3.5,-31 158.5,-31 158.5,-1 3.5,-1"/>
<text text-anchor="start" x="11.5" y="-19" font-family="Helvetica,sans-Serif" font-size="10.00">GUIFunctions.SetBackground</text>
<text text-anchor="middle" x="81" y="-8" font-family="Helvetica,sans-Serif" font-size="10.00">Image</text>
</g>
<!-- Node2 -->
<g id="node2" class="node"><title>Node2</title>
<g id="a_node2"><a xlink:href="../../da/dc9/class_g_u_i_functions_1_1_personalize_menu.html" target="_top" xlink:title="GUIFunctions.PersonalizeMenu">
<polygon fill="white" stroke="black" points="-0.5,-68.5 -0.5,-87.5 162.5,-87.5 162.5,-68.5 -0.5,-68.5"/>
<text text-anchor="middle" x="81" y="-75.5" font-family="Helvetica,sans-Serif" font-size="10.00">GUIFunctions.PersonalizeMenu</text>
</a>
</g>
</g>
<!-- Node2&#45;&gt;Node1 -->
<g id="edge1" class="edge"><title>Node2&#45;&gt;Node1</title>
<path fill="none" stroke="midnightblue" d="M81,-58.3707C81,-49.5849 81,-39.2721 81,-31.1408"/>
<polygon fill="midnightblue" stroke="midnightblue" points="77.5001,-58.4034 81,-68.4035 84.5001,-58.4035 77.5001,-58.4034"/>
</g>
<!-- Node3 -->
<g id="node3" class="node"><title>Node3</title>
<g id="a_node3"><a xlink:href="../../de/dbd/class_g_u_i_functions_1_1_grid_function.html" target="_top" xlink:title="GUIFunctions.GridFunction">
<polygon fill="white" stroke="black" points="10.5,-124.5 10.5,-143.5 151.5,-143.5 151.5,-124.5 10.5,-124.5"/>
<text text-anchor="middle" x="81" y="-131.5" font-family="Helvetica,sans-Serif" font-size="10.00">GUIFunctions.GridFunction</text>
</a>
</g>
</g>
<!-- Node3&#45;&gt;Node2 -->
<g id="edge2" class="edge"><title>Node3&#45;&gt;Node2</title>
<path fill="none" stroke="midnightblue" d="M81,-113.805C81,-104.91 81,-94.7798 81,-87.7511"/>
<polygon fill="midnightblue" stroke="midnightblue" points="77.5001,-114.083 81,-124.083 84.5001,-114.083 77.5001,-114.083"/>
</g>
<!-- Node4 -->
<g id="node4" class="node"><title>Node4</title>
<g id="a_node4"><a xlink:href="../../d1/df5/interface_g_u_i_functions_1_1_g_u_i_function.html" target="_top" xlink:title="GUIFunctions.GUIFunction">
<polygon fill="white" stroke="black" points="11.5,-180.5 11.5,-199.5 150.5,-199.5 150.5,-180.5 11.5,-180.5"/>
<text text-anchor="middle" x="81" y="-187.5" font-family="Helvetica,sans-Serif" font-size="10.00">GUIFunctions.GUIFunction</text>
</a>
</g>
</g>
<!-- Node4&#45;&gt;Node3 -->
<g id="edge3" class="edge"><title>Node4&#45;&gt;Node3</title>
<path fill="none" stroke="midnightblue" d="M81,-169.805C81,-160.91 81,-150.78 81,-143.751"/>
<polygon fill="midnightblue" stroke="midnightblue" points="77.5001,-170.083 81,-180.083 84.5001,-170.083 77.5001,-170.083"/>
</g>
</g>
</svg>
