<?xml version="1.0" encoding="UTF-8" standalone="no"?>
<!DOCTYPE svg PUBLIC "-//W3C//DTD SVG 1.1//EN"
 "http://www.w3.org/Graphics/SVG/1.1/DTD/svg11.dtd">
<!-- Generated by graphviz version 2.36.0 (20140111.2315)
 -->
<!-- Title: turtle.MoveDirection Pages: 1 -->
<svg width="448pt" height="84pt"
 viewBox="0.00 0.00 448.00 84.00" xmlns="http://www.w3.org/2000/svg" xmlns:xlink="http://www.w3.org/1999/xlink">
<g id="graph0" class="graph" transform="scale(1 1) rotate(0) translate(4 80)">
<title>turtle.MoveDirection</title>
<polygon fill="white" stroke="none" points="-4,4 -4,-80 444,-80 444,4 -4,4"/>
<!-- Node1 -->
<g id="node1" class="node"><title>Node1</title>
<polygon fill="#bfbfbf" stroke="black" points="166.5,-56.5 166.5,-75.5 279.5,-75.5 279.5,-56.5 166.5,-56.5"/>
<text text-anchor="middle" x="223" y="-63.5" font-family="Helvetica,sans-Serif" font-size="10.00">turtle.MoveDirection</text>
</g>
<!-- Node2 -->
<g id="node2" class="node"><title>Node2</title>
<g id="a_node2"><a xlink:href="../../d4/db5/classturtle_1_1_down.html" target="_top" xlink:title="turtle.Down">
<polygon fill="white" stroke="black" points="-0.5,-0.5 -0.5,-19.5 70.5,-19.5 70.5,-0.5 -0.5,-0.5"/>
<text text-anchor="middle" x="35" y="-7.5" font-family="Helvetica,sans-Serif" font-size="10.00">turtle.Down</text>
</a>
</g>
</g>
<!-- Node1&#45;&gt;Node2 -->
<g id="edge1" class="edge"><title>Node1&#45;&gt;Node2</title>
<path fill="none" stroke="midnightblue" d="M183.199,-53.5677C147.734,-43.381 96.6342,-28.7034 64.6498,-19.5164"/>
<polygon fill="midnightblue" stroke="midnightblue" points="182.633,-57.0467 193.211,-56.4435 184.566,-50.3188 182.633,-57.0467"/>
</g>
<!-- Node3 -->
<g id="node3" class="node"><title>Node3</title>
<g id="a_node3"><a xlink:href="../../d0/d30/classturtle_1_1_left.html" target="_top" xlink:title="turtle.Left">
<polygon fill="white" stroke="black" points="88.5,-0.5 88.5,-19.5 151.5,-19.5 151.5,-0.5 88.5,-0.5"/>
<text text-anchor="middle" x="120" y="-7.5" font-family="Helvetica,sans-Serif" font-size="10.00">turtle.Left</text>
</a>
</g>
</g>
<!-- Node1&#45;&gt;Node3 -->
<g id="edge2" class="edge"><title>Node1&#45;&gt;Node3</title>
<path fill="none" stroke="midnightblue" d="M197.421,-51.5895C178.377,-41.6052 152.936,-28.2672 136.508,-19.6545"/>
<polygon fill="midnightblue" stroke="midnightblue" points="195.969,-54.7805 206.451,-56.324 199.22,-48.5808 195.969,-54.7805"/>
</g>
<!-- Node4 -->
<g id="node4" class="node"><title>Node4</title>
<g id="a_node4"><a xlink:href="../../d8/d04/classturtle_1_1_null_direction.html" target="_top" xlink:title="turtle.NullDirection">
<polygon fill="white" stroke="black" points="170,-0.5 170,-19.5 276,-19.5 276,-0.5 170,-0.5"/>
<text text-anchor="middle" x="223" y="-7.5" font-family="Helvetica,sans-Serif" font-size="10.00">turtle.NullDirection</text>
</a>
</g>
</g>
<!-- Node1&#45;&gt;Node4 -->
<g id="edge3" class="edge"><title>Node1&#45;&gt;Node4</title>
<path fill="none" stroke="midnightblue" d="M223,-45.8045C223,-36.9102 223,-26.7798 223,-19.7511"/>
<polygon fill="midnightblue" stroke="midnightblue" points="219.5,-46.083 223,-56.083 226.5,-46.083 219.5,-46.083"/>
</g>
<!-- Node5 -->
<g id="node5" class="node"><title>Node5</title>
<g id="a_node5"><a xlink:href="../../d9/d75/classturtle_1_1_right.html" target="_top" xlink:title="turtle.Right">
<polygon fill="white" stroke="black" points="294.5,-0.5 294.5,-19.5 363.5,-19.5 363.5,-0.5 294.5,-0.5"/>
<text text-anchor="middle" x="329" y="-7.5" font-family="Helvetica,sans-Serif" font-size="10.00">turtle.Right</text>
</a>
</g>
</g>
<!-- Node1&#45;&gt;Node5 -->
<g id="edge4" class="edge"><title>Node1&#45;&gt;Node5</title>
<path fill="none" stroke="midnightblue" d="M249.056,-51.7261C268.684,-41.7271 295.028,-28.3065 312.012,-19.6545"/>
<polygon fill="midnightblue" stroke="midnightblue" points="247.352,-48.666 240.031,-56.324 250.53,-54.9033 247.352,-48.666"/>
</g>
<!-- Node6 -->
<g id="node6" class="node"><title>Node6</title>
<g id="a_node6"><a xlink:href="../../df/d4e/classturtle_1_1_up.html" target="_top" xlink:title="turtle.Up">
<polygon fill="white" stroke="black" points="381.5,-0.5 381.5,-19.5 440.5,-19.5 440.5,-0.5 381.5,-0.5"/>
<text text-anchor="middle" x="411" y="-7.5" font-family="Helvetica,sans-Serif" font-size="10.00">turtle.Up</text>
</a>
</g>
</g>
<!-- Node1&#45;&gt;Node6 -->
<g id="edge5" class="edge"><title>Node1&#45;&gt;Node6</title>
<path fill="none" stroke="midnightblue" d="M262.801,-53.5677C298.266,-43.381 349.366,-28.7034 381.35,-19.5164"/>
<polygon fill="midnightblue" stroke="midnightblue" points="261.434,-50.3188 252.789,-56.4435 263.367,-57.0467 261.434,-50.3188"/>
</g>
</g>
</svg>
