<?xml version="1.0" encoding="UTF-8" standalone="no"?>
<!DOCTYPE svg PUBLIC "-//W3C//DTD SVG 1.1//EN"
 "http://www.w3.org/Graphics/SVG/1.1/DTD/svg11.dtd">
<!-- Generated by graphviz version 2.36.0 (20140111.2315)
 -->
<!-- Title: commands.viewQueries.ShapeQuery Pages: 1 -->
<svg width="172pt" height="264pt"
 viewBox="0.00 0.00 172.00 264.00" xmlns="http://www.w3.org/2000/svg" xmlns:xlink="http://www.w3.org/1999/xlink">
<g id="graph0" class="graph" transform="scale(1 1) rotate(0) translate(4 260)">
<title>commands.viewQueries.ShapeQuery</title>
<polygon fill="white" stroke="none" points="-4,4 -4,-260 168,-260 168,4 -4,4"/>
<!-- Node1 -->
<g id="node1" class="node"><title>Node1</title>
<polygon fill="#bfbfbf" stroke="black" points="0,-1 0,-31 164,-31 164,-1 0,-1"/>
<text text-anchor="start" x="8" y="-19" font-family="Helvetica,sans-Serif" font-size="10.00">commands.viewQueries.Shape</text>
<text text-anchor="middle" x="82" y="-8" font-family="Helvetica,sans-Serif" font-size="10.00">Query</text>
</g>
<!-- Node2 -->
<g id="node2" class="node"><title>Node2</title>
<g id="a_node2"><a xlink:href="../../d1/de4/classcommands_1_1_view_query.html" target="_top" xlink:title="commands.ViewQuery">
<polygon fill="white" stroke="black" points="20,-68.5 20,-87.5 144,-87.5 144,-68.5 20,-68.5"/>
<text text-anchor="middle" x="82" y="-75.5" font-family="Helvetica,sans-Serif" font-size="10.00">commands.ViewQuery</text>
</a>
</g>
</g>
<!-- Node2&#45;&gt;Node1 -->
<g id="edge1" class="edge"><title>Node2&#45;&gt;Node1</title>
<path fill="none" stroke="midnightblue" d="M82,-58.3707C82,-49.5849 82,-39.2721 82,-31.1408"/>
<polygon fill="midnightblue" stroke="midnightblue" points="78.5001,-58.4034 82,-68.4035 85.5001,-58.4035 78.5001,-58.4034"/>
</g>
<!-- Node3 -->
<g id="node3" class="node"><title>Node3</title>
<g id="a_node3"><a xlink:href="../../de/d53/classcommands_1_1_view_command.html" target="_top" xlink:title="commands.ViewCommand">
<polygon fill="white" stroke="black" points="9,-124.5 9,-143.5 155,-143.5 155,-124.5 9,-124.5"/>
<text text-anchor="middle" x="82" y="-131.5" font-family="Helvetica,sans-Serif" font-size="10.00">commands.ViewCommand</text>
</a>
</g>
</g>
<!-- Node3&#45;&gt;Node2 -->
<g id="edge2" class="edge"><title>Node3&#45;&gt;Node2</title>
<path fill="none" stroke="midnightblue" d="M82,-113.805C82,-104.91 82,-94.7798 82,-87.7511"/>
<polygon fill="midnightblue" stroke="midnightblue" points="78.5001,-114.083 82,-124.083 85.5001,-114.083 78.5001,-114.083"/>
</g>
<!-- Node4 -->
<g id="node4" class="node"><title>Node4</title>
<g id="a_node4"><a xlink:href="../../da/d90/classcommands_1_1_base_command.html" target="_top" xlink:title="commands.BaseCommand">
<polygon fill="white" stroke="black" points="8,-180.5 8,-199.5 156,-199.5 156,-180.5 8,-180.5"/>
<text text-anchor="middle" x="82" y="-187.5" font-family="Helvetica,sans-Serif" font-size="10.00">commands.BaseCommand</text>
</a>
</g>
</g>
<!-- Node4&#45;&gt;Node3 -->
<g id="edge3" class="edge"><title>Node4&#45;&gt;Node3</title>
<path fill="none" stroke="midnightblue" d="M82,-169.805C82,-160.91 82,-150.78 82,-143.751"/>
<polygon fill="midnightblue" stroke="midnightblue" points="78.5001,-170.083 82,-180.083 85.5001,-170.083 78.5001,-170.083"/>
</g>
<!-- Node5 -->
<g id="node5" class="node"><title>Node5</title>
<polygon fill="white" stroke="#bfbfbf" points="46.5,-236.5 46.5,-255.5 117.5,-255.5 117.5,-236.5 46.5,-236.5"/>
<text text-anchor="middle" x="82" y="-243.5" font-family="Helvetica,sans-Serif" font-size="10.00">Serializable</text>
</g>
<!-- Node5&#45;&gt;Node4 -->
<g id="edge4" class="edge"><title>Node5&#45;&gt;Node4</title>
<path fill="none" stroke="midnightblue" d="M82,-225.805C82,-216.91 82,-206.78 82,-199.751"/>
<polygon fill="midnightblue" stroke="midnightblue" points="78.5001,-226.083 82,-236.083 85.5001,-226.083 78.5001,-226.083"/>
</g>
</g>
</svg>
