<?xml version="1.0" encoding="UTF-8" standalone="no"?>
<!DOCTYPE svg PUBLIC "-//W3C//DTD SVG 1.1//EN"
 "http://www.w3.org/Graphics/SVG/1.1/DTD/svg11.dtd">
<!-- Generated by graphviz version 2.36.0 (20140111.2315)
 -->
<!-- Title: commands.viewQueries.YCorQuery.onExecute Pages: 1 -->
<svg width="784pt" height="164pt"
 viewBox="0.00 0.00 784.00 164.00" xmlns="http://www.w3.org/2000/svg" xmlns:xlink="http://www.w3.org/1999/xlink">
<g id="graph0" class="graph" transform="scale(1 1) rotate(0) translate(4 160)">
<title>commands.viewQueries.YCorQuery.onExecute</title>
<polygon fill="white" stroke="none" points="-4,4 -4,-160 780,-160 780,4 -4,4"/>
<!-- Node1 -->
<g id="node1" class="node"><title>Node1</title>
<polygon fill="#bfbfbf" stroke="black" points="0.5,-101 0.5,-131 155.5,-131 155.5,-101 0.5,-101"/>
<text text-anchor="start" x="8.5" y="-119" font-family="Helvetica,sans-Serif" font-size="10.00">commands.viewQueries.YCor</text>
<text text-anchor="middle" x="78" y="-108" font-family="Helvetica,sans-Serif" font-size="10.00">Query.onExecute</text>
</g>
<!-- Node2 -->
<g id="node2" class="node"><title>Node2</title>
<g id="a_node2"><a xlink:href="../../d3/d03/classcommands_1_1turtle_commands_1_1_turtle_command.html#a82f290b3a2e14029a8a525bafa35994f" target="_top" xlink:title="commands.turtleCommands.\lTurtleCommand.getTurtleContainer">
<polygon fill="white" stroke="black" points="192.5,-126 192.5,-156 375.5,-156 375.5,-126 192.5,-126"/>
<text text-anchor="start" x="200.5" y="-144" font-family="Helvetica,sans-Serif" font-size="10.00">commands.turtleCommands.</text>
<text text-anchor="middle" x="284" y="-133" font-family="Helvetica,sans-Serif" font-size="10.00">TurtleCommand.getTurtleContainer</text>
</a>
</g>
</g>
<!-- Node1&#45;&gt;Node2 -->
<g id="edge1" class="edge"><title>Node1&#45;&gt;Node2</title>
<path fill="none" stroke="midnightblue" d="M155.542,-125.38C164.25,-126.447 173.221,-127.547 182.181,-128.645"/>
<polygon fill="midnightblue" stroke="midnightblue" points="181.925,-132.139 192.277,-129.882 182.777,-125.191 181.925,-132.139"/>
</g>
<!-- Node3 -->
<g id="node3" class="node"><title>Node3</title>
<g id="a_node3"><a xlink:href="../../d7/d28/classcommands_1_1information_1_1_base_turtle_container.html#a7191dbe21eb4c3f13baaef4a648f8a4c" target="_top" xlink:title="commands.information.Base\lTurtleContainer.getYPos">
<polygon fill="white" stroke="black" points="206.5,-77 206.5,-107 361.5,-107 361.5,-77 206.5,-77"/>
<text text-anchor="start" x="214.5" y="-95" font-family="Helvetica,sans-Serif" font-size="10.00">commands.information.Base</text>
<text text-anchor="middle" x="284" y="-84" font-family="Helvetica,sans-Serif" font-size="10.00">TurtleContainer.getYPos</text>
</a>
</g>
</g>
<!-- Node1&#45;&gt;Node3 -->
<g id="edge2" class="edge"><title>Node1&#45;&gt;Node3</title>
<path fill="none" stroke="midnightblue" d="M155.542,-106.995C168.786,-105.437 182.642,-103.807 196.136,-102.219"/>
<polygon fill="midnightblue" stroke="midnightblue" points="196.845,-105.66 206.368,-101.016 196.027,-98.708 196.845,-105.66"/>
</g>
<!-- Node4 -->
<g id="node4" class="node"><title>Node4</title>
<g id="a_node4"><a xlink:href="../../df/dcb/classturtle_1_1_turtle.html#a735b5aa0bce5a53d2c75322fb2ad9130" target="_top" xlink:title="turtle.Turtle.getYPos">
<polygon fill="white" stroke="black" points="436,-105.5 436,-124.5 548,-124.5 548,-105.5 436,-105.5"/>
<text text-anchor="middle" x="492" y="-112.5" font-family="Helvetica,sans-Serif" font-size="10.00">turtle.Turtle.getYPos</text>
</a>
</g>
</g>
<!-- Node3&#45;&gt;Node4 -->
<g id="edge3" class="edge"><title>Node3&#45;&gt;Node4</title>
<path fill="none" stroke="midnightblue" d="M361.707,-100.564C382.746,-102.913 405.355,-105.438 425.69,-107.708"/>
<polygon fill="midnightblue" stroke="midnightblue" points="425.456,-111.204 435.783,-108.835 426.233,-104.247 425.456,-111.204"/>
</g>
<!-- Node6 -->
<g id="node6" class="node"><title>Node6</title>
<g id="a_node6"><a xlink:href="../../d7/d28/classcommands_1_1information_1_1_base_turtle_container.html#ae3f987ec79fb3318d8c3a1c8bd65f67b" target="_top" xlink:title="commands.information.Base\lTurtleContainer.loopOverTurtle">
<polygon fill="white" stroke="black" points="412.5,-54 412.5,-84 571.5,-84 571.5,-54 412.5,-54"/>
<text text-anchor="start" x="420.5" y="-72" font-family="Helvetica,sans-Serif" font-size="10.00">commands.information.Base</text>
<text text-anchor="middle" x="492" y="-61" font-family="Helvetica,sans-Serif" font-size="10.00">TurtleContainer.loopOverTurtle</text>
</a>
</g>
</g>
<!-- Node3&#45;&gt;Node6 -->
<g id="edge5" class="edge"><title>Node3&#45;&gt;Node6</title>
<path fill="none" stroke="midnightblue" d="M361.707,-83.4356C374.833,-81.9701 388.57,-80.4363 401.985,-78.9386"/>
<polygon fill="midnightblue" stroke="midnightblue" points="402.615,-82.3901 412.165,-77.802 401.838,-75.4333 402.615,-82.3901"/>
</g>
<!-- Node5 -->
<g id="node5" class="node"><title>Node5</title>
<g id="a_node5"><a xlink:href="../../d1/dbe/classturtle_1_1_position.html#a3a68708e4dc3290c4ef0ecd511cc8c1f" target="_top" xlink:title="turtle.Position.getYPos">
<polygon fill="white" stroke="black" points="630,-108.5 630,-127.5 754,-127.5 754,-108.5 630,-108.5"/>
<text text-anchor="middle" x="692" y="-115.5" font-family="Helvetica,sans-Serif" font-size="10.00">turtle.Position.getYPos</text>
</a>
</g>
</g>
<!-- Node4&#45;&gt;Node5 -->
<g id="edge4" class="edge"><title>Node4&#45;&gt;Node5</title>
<path fill="none" stroke="midnightblue" d="M548.154,-115.836C570.282,-116.171 596.073,-116.562 619.603,-116.918"/>
<polygon fill="midnightblue" stroke="midnightblue" points="619.829,-120.422 629.881,-117.074 619.935,-113.423 619.829,-120.422"/>
</g>
<!-- Node7 -->
<g id="node7" class="node"><title>Node7</title>
<g id="a_node7"><a xlink:href="../../d1/d39/interfacecommands_1_1information_1_1_base_turtle_container_1_1_turtle_action_with_result.html#a5043750fe9ea0b38e426614c999c9d60" target="_top" xlink:title="commands.information.Base\lTurtleContainer.TurtleActionWith\lResult.execute">
<polygon fill="white" stroke="black" points="608.5,-48.5 608.5,-89.5 775.5,-89.5 775.5,-48.5 608.5,-48.5"/>
<text text-anchor="start" x="616.5" y="-77.5" font-family="Helvetica,sans-Serif" font-size="10.00">commands.information.Base</text>
<text text-anchor="start" x="616.5" y="-66.5" font-family="Helvetica,sans-Serif" font-size="10.00">TurtleContainer.TurtleActionWith</text>
<text text-anchor="middle" x="692" y="-55.5" font-family="Helvetica,sans-Serif" font-size="10.00">Result.execute</text>
</a>
</g>
</g>
<!-- Node6&#45;&gt;Node7 -->
<g id="edge6" class="edge"><title>Node6&#45;&gt;Node7</title>
<path fill="none" stroke="midnightblue" d="M571.539,-69C580.325,-69 589.336,-69 598.278,-69"/>
<polygon fill="midnightblue" stroke="midnightblue" points="598.33,-72.5001 608.33,-69 598.33,-65.5001 598.33,-72.5001"/>
</g>
<!-- Node8 -->
<g id="node8" class="node"><title>Node8</title>
<g id="a_node8"><a xlink:href="../../d7/d28/classcommands_1_1information_1_1_base_turtle_container.html#a704eca72b47c6a35888f2868beaec2d3" target="_top" xlink:title="commands.information.Base\lTurtleContainer.getActiveTurtles">
<polygon fill="white" stroke="black" points="608.5,-0 608.5,-30 775.5,-30 775.5,-0 608.5,-0"/>
<text text-anchor="start" x="616.5" y="-18" font-family="Helvetica,sans-Serif" font-size="10.00">commands.information.Base</text>
<text text-anchor="middle" x="692" y="-7" font-family="Helvetica,sans-Serif" font-size="10.00">TurtleContainer.getActiveTurtles</text>
</a>
</g>
</g>
<!-- Node6&#45;&gt;Node8 -->
<g id="edge7" class="edge"><title>Node6&#45;&gt;Node8</title>
<path fill="none" stroke="midnightblue" d="M548.154,-53.958C572.297,-47.3735 600.8,-39.5999 625.97,-32.7355"/>
<polygon fill="midnightblue" stroke="midnightblue" points="627.072,-36.0628 635.799,-30.0549 625.23,-29.3095 627.072,-36.0628"/>
</g>
</g>
</svg>
