<?xml version="1.0" encoding="UTF-8" standalone="no"?>
<!DOCTYPE svg PUBLIC "-//W3C//DTD SVG 1.1//EN"
 "http://www.w3.org/Graphics/SVG/1.1/DTD/svg11.dtd">
<!-- Generated by graphviz version 2.36.0 (20140111.2315)
 -->
<!-- Title: commands.viewCommands.ClearScreenCommand Pages: 1 -->
<svg width="184pt" height="276pt"
 viewBox="0.00 0.00 184.00 276.00" xmlns="http://www.w3.org/2000/svg" xmlns:xlink="http://www.w3.org/1999/xlink">
<g id="graph0" class="graph" transform="scale(1 1) rotate(0) translate(4 272)">
<title>commands.viewCommands.ClearScreenCommand</title>
<polygon fill="white" stroke="none" points="-4,4 -4,-272 180,-272 180,4 -4,4"/>
<!-- Node1 -->
<g id="node1" class="node"><title>Node1</title>
<polygon fill="#bfbfbf" stroke="black" points="-0.5,-1 -0.5,-31 176.5,-31 176.5,-1 -0.5,-1"/>
<text text-anchor="start" x="7.5" y="-19" font-family="Helvetica,sans-Serif" font-size="10.00">commands.viewCommands.Clear</text>
<text text-anchor="middle" x="88" y="-8" font-family="Helvetica,sans-Serif" font-size="10.00">ScreenCommand</text>
</g>
<!-- Node2 -->
<g id="node2" class="node"><title>Node2</title>
<g id="a_node2"><a xlink:href="../../d0/d90/classcommands_1_1_turtle_query.html" target="_top" xlink:title="commands.TurtleQuery">
<polygon fill="white" stroke="black" points="24,-68.5 24,-87.5 152,-87.5 152,-68.5 24,-68.5"/>
<text text-anchor="middle" x="88" y="-75.5" font-family="Helvetica,sans-Serif" font-size="10.00">commands.TurtleQuery</text>
</a>
</g>
</g>
<!-- Node2&#45;&gt;Node1 -->
<g id="edge1" class="edge"><title>Node2&#45;&gt;Node1</title>
<path fill="none" stroke="midnightblue" d="M88,-58.3707C88,-49.5849 88,-39.2721 88,-31.1408"/>
<polygon fill="midnightblue" stroke="midnightblue" points="84.5001,-58.4034 88,-68.4035 91.5001,-58.4035 84.5001,-58.4034"/>
</g>
<!-- Node3 -->
<g id="node3" class="node"><title>Node3</title>
<g id="a_node3"><a xlink:href="../../d3/d03/classcommands_1_1turtle_commands_1_1_turtle_command.html" target="_top" xlink:title="commands.turtleCommands.\lTurtleCommand">
<polygon fill="white" stroke="black" points="9,-125 9,-155 167,-155 167,-125 9,-125"/>
<text text-anchor="start" x="17" y="-143" font-family="Helvetica,sans-Serif" font-size="10.00">commands.turtleCommands.</text>
<text text-anchor="middle" x="88" y="-132" font-family="Helvetica,sans-Serif" font-size="10.00">TurtleCommand</text>
</a>
</g>
</g>
<!-- Node3&#45;&gt;Node2 -->
<g id="edge2" class="edge"><title>Node3&#45;&gt;Node2</title>
<path fill="none" stroke="midnightblue" d="M88,-114.586C88,-105.074 88,-94.7864 88,-87.7305"/>
<polygon fill="midnightblue" stroke="midnightblue" points="84.5001,-114.781 88,-124.781 91.5001,-114.781 84.5001,-114.781"/>
</g>
<!-- Node4 -->
<g id="node4" class="node"><title>Node4</title>
<g id="a_node4"><a xlink:href="../../da/d90/classcommands_1_1_base_command.html" target="_top" xlink:title="commands.BaseCommand">
<polygon fill="white" stroke="black" points="14,-192.5 14,-211.5 162,-211.5 162,-192.5 14,-192.5"/>
<text text-anchor="middle" x="88" y="-199.5" font-family="Helvetica,sans-Serif" font-size="10.00">commands.BaseCommand</text>
</a>
</g>
</g>
<!-- Node4&#45;&gt;Node3 -->
<g id="edge3" class="edge"><title>Node4&#45;&gt;Node3</title>
<path fill="none" stroke="midnightblue" d="M88,-182.371C88,-173.585 88,-163.272 88,-155.141"/>
<polygon fill="midnightblue" stroke="midnightblue" points="84.5001,-182.403 88,-192.403 91.5001,-182.403 84.5001,-182.403"/>
</g>
<!-- Node5 -->
<g id="node5" class="node"><title>Node5</title>
<polygon fill="white" stroke="#bfbfbf" points="52.5,-248.5 52.5,-267.5 123.5,-267.5 123.5,-248.5 52.5,-248.5"/>
<text text-anchor="middle" x="88" y="-255.5" font-family="Helvetica,sans-Serif" font-size="10.00">Serializable</text>
</g>
<!-- Node5&#45;&gt;Node4 -->
<g id="edge4" class="edge"><title>Node5&#45;&gt;Node4</title>
<path fill="none" stroke="midnightblue" d="M88,-237.805C88,-228.91 88,-218.78 88,-211.751"/>
<polygon fill="midnightblue" stroke="midnightblue" points="84.5001,-238.083 88,-248.083 91.5001,-238.083 84.5001,-238.083"/>
</g>
</g>
</svg>
