<?xml version="1.0" encoding="UTF-8" standalone="no"?>
<!DOCTYPE svg PUBLIC "-//W3C//DTD SVG 1.1//EN"
 "http://www.w3.org/Graphics/SVG/1.1/DTD/svg11.dtd">
<!-- Generated by graphviz version 2.36.0 (20140111.2315)
 -->
<!-- Title: GUIFunctions.MyImages Pages: 1 -->
<!--zoomable 248 -->
<svg id="main" version="1.1" xmlns="http://www.w3.org/2000/svg" xmlns:xlink="http://www.w3.org/1999/xlink" xml:space="preserve" onload="init(evt)">
<style type="text/css"><![CDATA[
.edge:hover path { stroke: red; }
.edge:hover polygon { stroke: red; fill: red; }
]]></style>
<script type="text/javascript"><![CDATA[
var edges = document.getElementsByTagName('g');
if (edges && edges.length) {
  for (var i=0;i<edges.length;i++) {
    if (edges[i].id.substr(0,4)=='edge') {
      edges[i].setAttribute('class','edge');
    }
  }
}
]]></script>
        <defs>
                <circle id="rim" cx="0" cy="0" r="7"/>
                <circle id="rim2" cx="0" cy="0" r="3.5"/>
                <g id="zoomPlus">
                        <use xlink:href="#rim" fill="#404040">
                                <set attributeName="fill" to="#808080" begin="zoomplus.mouseover" end="zoomplus.mouseout"/>
                        </use>
                        <path d="M-4,0h8M0,-4v8" fill="none" stroke="white" stroke-width="1.5" pointer-events="none"/>
                </g>
                <g id="zoomMin">
                        <use xlink:href="#rim" fill="#404040">
                                <set attributeName="fill" to="#808080" begin="zoomminus.mouseover" end="zoomminus.mouseout"/>
                        </use>
                        <path d="M-4,0h8" fill="none" stroke="white" stroke-width="1.5" pointer-events="none"/>
                </g>
                <g id="dirArrow">
                        <path fill="none" stroke="white" stroke-width="1.5" d="M0,-3.0v7 M-2.5,-0.5L0,-3.0L2.5,-0.5"/>
                </g>
               <g id="resetDef">
                       <use xlink:href="#rim2" fill="#404040">
                               <set attributeName="fill" to="#808080" begin="reset.mouseover" end="reset.mouseout"/>
                       </use>
               </g>
        </defs>

<script type="text/javascript">
var viewWidth = 1856;
var viewHeight = 248;
var sectionId = 'dynsection-1';
</script>
<script xlink:href="../../svgpan.js"/>
<svg id="graph" class="graph">
<g id="viewport">
<title>GUIFunctions.MyImages</title>
<polygon fill="white" stroke="none" points="-4,4 -4,-244 1852,-244 1852,4 -4,4"/>
<!-- Node1 -->
<g id="node1" class="node"><title>Node1</title>
<polygon fill="#bfbfbf" stroke="black" points="1716.5,-87.5 1716.5,-106.5 1847.5,-106.5 1847.5,-87.5 1716.5,-87.5"/>
<text text-anchor="middle" x="1782" y="-94.5" font-family="Helvetica,sans-Serif" font-size="10.00">GUIFunctions.MyImages</text>
</g>
<!-- Node2 -->
<g id="node2" class="node"><title>Node2</title>
<polygon fill="white" stroke="#bfbfbf" points="1472.5,-131.5 1472.5,-150.5 1531.5,-150.5 1531.5,-131.5 1472.5,-131.5"/>
<text text-anchor="middle" x="1502" y="-138.5" font-family="Helvetica,sans-Serif" font-size="10.00">MenuBar</text>
</g>
<!-- Node2&#45;&gt;Node1 -->
<g id="edge1" class="edge"><title>Node2&#45;&gt;Node1</title>
<path fill="none" stroke="midnightblue" d="M1541.77,-135.598C1581.16,-130.023 1643.9,-120.909 1698,-112 1708.26,-110.311 1719.21,-108.405 1729.68,-106.532"/>
<polygon fill="midnightblue" stroke="midnightblue" points="1541.2,-132.142 1531.79,-137.005 1542.18,-139.074 1541.2,-132.142"/>
</g>
<!-- Node3 -->
<g id="node3" class="node"><title>Node3</title>
<polygon fill="white" stroke="#bfbfbf" points="1431,-82 1431,-112 1573,-112 1573,-82 1431,-82"/>
<text text-anchor="start" x="1439" y="-100" font-family="Helvetica,sans-Serif" font-size="10.00">ArrayList&lt; View.MenuItem</text>
<text text-anchor="middle" x="1502" y="-89" font-family="Helvetica,sans-Serif" font-size="10.00">Template &gt;</text>
</g>
<!-- Node3&#45;&gt;Node1 -->
<g id="edge2" class="edge"><title>Node3&#45;&gt;Node1</title>
<path fill="none" stroke="#9a32cd" stroke-dasharray="5,2" d="M1583.39,-97C1625.54,-97 1676.51,-97 1716.12,-97"/>
<polygon fill="#9a32cd" stroke="#9a32cd" points="1583.15,-93.5001 1573.15,-97 1583.15,-100.5 1583.15,-93.5001"/>
<text text-anchor="middle" x="1648" y="-100" font-family="Helvetica,sans-Serif" font-size="10.00"> myImages</text>
</g>
<!-- Node4 -->
<g id="node4" class="node"><title>Node4</title>
<g id="a_node4"><a xlink:href="../../dc/d8a/class_g_u_i_functions_1_1_set_background_image.html" target="_top" xlink:title="GUIFunctions.SetBackground\lImage">
<polygon fill="white" stroke="black" points="1424.5,-33 1424.5,-63 1579.5,-63 1579.5,-33 1424.5,-33"/>
<text text-anchor="start" x="1432.5" y="-51" font-family="Helvetica,sans-Serif" font-size="10.00">GUIFunctions.SetBackground</text>
<text text-anchor="middle" x="1502" y="-40" font-family="Helvetica,sans-Serif" font-size="10.00">Image</text>
</a>
</g>
</g>
<!-- Node4&#45;&gt;Node1 -->
<g id="edge3" class="edge"><title>Node4&#45;&gt;Node1</title>
<path fill="none" stroke="#9a32cd" stroke-dasharray="5,2" d="M1590.17,-63.0809C1623.87,-68.9413 1662.74,-75.7394 1698,-82 1707.8,-83.7406 1718.26,-85.6149 1728.32,-87.429"/>
<polygon fill="#9a32cd" stroke="#9a32cd" points="1590.34,-59.5581 1579.89,-61.2939 1589.14,-66.4547 1590.34,-59.5581"/>
<text text-anchor="middle" x="1648" y="-85" font-family="Helvetica,sans-Serif" font-size="10.00"> backgroundFunction</text>
</g>
<!-- Node5 -->
<g id="node5" class="node"><title>Node5</title>
<g id="a_node5"><a xlink:href="../../da/dc9/class_g_u_i_functions_1_1_personalize_menu.html" target="_top" xlink:title="GUIFunctions.PersonalizeMenu">
<polygon fill="white" stroke="black" points="1176.5,-76.5 1176.5,-95.5 1339.5,-95.5 1339.5,-76.5 1176.5,-76.5"/>
<text text-anchor="middle" x="1258" y="-83.5" font-family="Helvetica,sans-Serif" font-size="10.00">GUIFunctions.PersonalizeMenu</text>
</a>
</g>
</g>
<!-- Node5&#45;&gt;Node4 -->
<g id="edge4" class="edge"><title>Node5&#45;&gt;Node4</title>
<path fill="none" stroke="midnightblue" d="M1330,-74.8516C1359.57,-70.2082 1393.98,-64.8056 1424.14,-60.0689"/>
<polygon fill="midnightblue" stroke="midnightblue" points="1329.09,-71.4511 1319.75,-76.46 1330.18,-78.3664 1329.09,-71.4511"/>
</g>
<!-- Node6 -->
<g id="node6" class="node"><title>Node6</title>
<g id="a_node6"><a xlink:href="../../de/dbd/class_g_u_i_functions_1_1_grid_function.html" target="_top" xlink:title="GUIFunctions.GridFunction">
<polygon fill="white" stroke="black" points="996.5,-76.5 996.5,-95.5 1137.5,-95.5 1137.5,-76.5 996.5,-76.5"/>
<text text-anchor="middle" x="1067" y="-83.5" font-family="Helvetica,sans-Serif" font-size="10.00">GUIFunctions.GridFunction</text>
</a>
</g>
</g>
<!-- Node6&#45;&gt;Node5 -->
<g id="edge5" class="edge"><title>Node6&#45;&gt;Node5</title>
<path fill="none" stroke="midnightblue" d="M1147.75,-86C1157.23,-86 1166.9,-86 1176.39,-86"/>
<polygon fill="midnightblue" stroke="midnightblue" points="1147.57,-82.5001 1137.57,-86 1147.57,-89.5001 1147.57,-82.5001"/>
</g>
<!-- Node7 -->
<g id="node7" class="node"><title>Node7</title>
<g id="a_node7"><a xlink:href="../../d1/df5/interface_g_u_i_functions_1_1_g_u_i_function.html" target="_top" xlink:title="GUIFunctions.GUIFunction">
<polygon fill="white" stroke="black" points="750.5,-76.5 750.5,-95.5 889.5,-95.5 889.5,-76.5 750.5,-76.5"/>
<text text-anchor="middle" x="820" y="-83.5" font-family="Helvetica,sans-Serif" font-size="10.00">GUIFunctions.GUIFunction</text>
</a>
</g>
</g>
<!-- Node7&#45;&gt;Node6 -->
<g id="edge6" class="edge"><title>Node7&#45;&gt;Node6</title>
<path fill="none" stroke="midnightblue" d="M899.899,-86C930.876,-86 966.131,-86 996.167,-86"/>
<polygon fill="midnightblue" stroke="midnightblue" points="899.572,-82.5001 889.572,-86 899.572,-89.5001 899.572,-82.5001"/>
</g>
<!-- Node8 -->
<g id="node8" class="node"><title>Node8</title>
<g id="a_node8"><a xlink:href="../../d7/d98/class_view_1_1_grid_tracker.html" target="_top" xlink:title="View.GridTracker">
<polygon fill="white" stroke="black" points="773,-114.5 773,-133.5 867,-133.5 867,-114.5 773,-114.5"/>
<text text-anchor="middle" x="820" y="-121.5" font-family="Helvetica,sans-Serif" font-size="10.00">View.GridTracker</text>
</a>
</g>
</g>
<!-- Node8&#45;&gt;Node6 -->
<g id="edge7" class="edge"><title>Node8&#45;&gt;Node6</title>
<path fill="none" stroke="#9a32cd" stroke-dasharray="5,2" d="M877.447,-115.245C915.397,-109.359 965.412,-101.601 1004.39,-95.5553"/>
<polygon fill="#9a32cd" stroke="#9a32cd" points="876.428,-111.861 867.083,-116.852 877.501,-118.778 876.428,-111.861"/>
<text text-anchor="middle" x="943" y="-113" font-family="Helvetica,sans-Serif" font-size="10.00"> allGrids</text>
</g>
<!-- Node9 -->
<g id="node9" class="node"><title>Node9</title>
<polygon fill="white" stroke="#bfbfbf" points="542,-95 542,-125 646,-125 646,-95 542,-95"/>
<text text-anchor="start" x="550" y="-113" font-family="Helvetica,sans-Serif" font-size="10.00">java::util::HashSet</text>
<text text-anchor="middle" x="594" y="-102" font-family="Helvetica,sans-Serif" font-size="10.00">&lt; Grid &gt;</text>
</g>
<!-- Node9&#45;&gt;Node8 -->
<g id="edge8" class="edge"><title>Node9&#45;&gt;Node8</title>
<path fill="none" stroke="midnightblue" d="M656.211,-113.826C692.96,-116.122 738.963,-118.998 772.683,-121.105"/>
<polygon fill="midnightblue" stroke="midnightblue" points="656.308,-110.325 646.109,-113.194 655.872,-117.311 656.308,-110.325"/>
</g>
<!-- Node10 -->
<g id="node10" class="node"><title>Node10</title>
<g id="a_node10"><a xlink:href="../../d9/db1/class_view_1_1_single_grid.html" target="_top" xlink:title="View.SingleGrid">
<polygon fill="white" stroke="black" points="549.5,-144.5 549.5,-163.5 638.5,-163.5 638.5,-144.5 549.5,-144.5"/>
<text text-anchor="middle" x="594" y="-151.5" font-family="Helvetica,sans-Serif" font-size="10.00">View.SingleGrid</text>
</a>
</g>
</g>
<!-- Node10&#45;&gt;Node8 -->
<g id="edge9" class="edge"><title>Node10&#45;&gt;Node8</title>
<path fill="none" stroke="#9a32cd" stroke-dasharray="5,2" d="M649.033,-146.763C686.81,-141.704 736.735,-135.018 772.69,-130.202"/>
<polygon fill="#9a32cd" stroke="#9a32cd" points="648.168,-143.348 638.721,-148.144 649.097,-150.286 648.168,-143.348"/>
<text text-anchor="middle" x="698" y="-148" font-family="Helvetica,sans-Serif" font-size="10.00"> myActiveGrid</text>
</g>
<!-- Node11 -->
<g id="node11" class="node"><title>Node11</title>
<g id="a_node11"><a xlink:href="../../d0/d92/class_view_1_1_grid.html" target="_top" xlink:title="View.Grid">
<polygon fill="white" stroke="black" points="287,-182.5 287,-201.5 347,-201.5 347,-182.5 287,-182.5"/>
<text text-anchor="middle" x="317" y="-189.5" font-family="Helvetica,sans-Serif" font-size="10.00">View.Grid</text>
</a>
</g>
</g>
<!-- Node11&#45;&gt;Node10 -->
<g id="edge10" class="edge"><title>Node11&#45;&gt;Node10</title>
<path fill="none" stroke="midnightblue" d="M357.363,-192.423C399.13,-192.155 466.852,-189.662 524,-178 539.907,-174.754 557.157,-168.754 570.43,-163.566"/>
<polygon fill="midnightblue" stroke="midnightblue" points="357.317,-188.923 347.325,-192.448 357.334,-195.923 357.317,-188.923"/>
</g>
<!-- Node12 -->
<g id="node12" class="node"><title>Node12</title>
<polygon fill="white" stroke="#bfbfbf" points="54,-220.5 54,-239.5 94,-239.5 94,-220.5 54,-220.5"/>
<text text-anchor="middle" x="74" y="-227.5" font-family="Helvetica,sans-Serif" font-size="10.00">Pane</text>
</g>
<!-- Node12&#45;&gt;Node11 -->
<g id="edge11" class="edge"><title>Node12&#45;&gt;Node11</title>
<path fill="none" stroke="midnightblue" d="M104.314,-225.378C150.656,-218.071 240.324,-203.932 286.674,-196.624"/>
<polygon fill="midnightblue" stroke="midnightblue" points="103.647,-221.94 94.3147,-226.955 104.738,-228.854 103.647,-221.94"/>
</g>
<!-- Node13 -->
<g id="node13" class="node"><title>Node13</title>
<polygon fill="white" stroke="#bfbfbf" points="2,-182.5 2,-201.5 146,-201.5 146,-182.5 2,-182.5"/>
<text text-anchor="middle" x="74" y="-189.5" font-family="Helvetica,sans-Serif" font-size="10.00">HashMap&lt; String, Class &gt;</text>
</g>
<!-- Node13&#45;&gt;Node11 -->
<g id="edge12" class="edge"><title>Node13&#45;&gt;Node11</title>
<path fill="none" stroke="#9a32cd" stroke-dasharray="5,2" d="M156.071,-192C201.118,-192 254.428,-192 286.705,-192"/>
<polygon fill="#9a32cd" stroke="#9a32cd" points="156.004,-188.5 146.004,-192 156.004,-195.5 156.004,-188.5"/>
<text text-anchor="middle" x="189" y="-195" font-family="Helvetica,sans-Serif" font-size="10.00"> myMap</text>
</g>
<!-- Node14 -->
<g id="node14" class="node"><title>Node14</title>
<polygon fill="white" stroke="#bfbfbf" points="0.5,-144.5 0.5,-163.5 147.5,-163.5 147.5,-144.5 0.5,-144.5"/>
<text text-anchor="middle" x="74" y="-151.5" font-family="Helvetica,sans-Serif" font-size="10.00">EventHandler&lt; KeyEvent &gt;</text>
</g>
<!-- Node14&#45;&gt;Node11 -->
<g id="edge13" class="edge"><title>Node14&#45;&gt;Node11</title>
<path fill="none" stroke="#9a32cd" stroke-dasharray="5,2" d="M145.654,-165.14C192.737,-172.564 252.146,-181.932 286.92,-187.415"/>
<polygon fill="#9a32cd" stroke="#9a32cd" points="145.927,-161.64 135.503,-163.54 144.836,-168.555 145.927,-161.64"/>
<text text-anchor="middle" x="189" y="-179" font-family="Helvetica,sans-Serif" font-size="10.00"> myEvent</text>
</g>
<!-- Node15 -->
<g id="node15" class="node"><title>Node15</title>
<polygon fill="white" stroke="#bfbfbf" points="250,-144.5 250,-163.5 384,-163.5 384,-144.5 250,-144.5"/>
<text text-anchor="middle" x="317" y="-151.5" font-family="Helvetica,sans-Serif" font-size="10.00">HashSet&lt; turtle.Turtle &gt;</text>
</g>
<!-- Node15&#45;&gt;Node10 -->
<g id="edge14" class="edge"><title>Node15&#45;&gt;Node10</title>
<path fill="none" stroke="#9a32cd" stroke-dasharray="5,2" d="M394.33,-154C444.235,-154 507.644,-154 549.227,-154"/>
<polygon fill="#9a32cd" stroke="#9a32cd" points="394.219,-150.5 384.219,-154 394.219,-157.5 394.219,-150.5"/>
<text text-anchor="middle" x="473" y="-168" font-family="Helvetica,sans-Serif" font-size="10.00"> allTurtles</text>
<text text-anchor="middle" x="473" y="-157" font-family="Helvetica,sans-Serif" font-size="10.00">activeTurtles</text>
</g>
<!-- Node16 -->
<g id="node16" class="node"><title>Node16</title>
<polygon fill="white" stroke="#bfbfbf" points="230.5,-95 230.5,-125 403.5,-125 403.5,-95 230.5,-95"/>
<text text-anchor="start" x="238.5" y="-113" font-family="Helvetica,sans-Serif" font-size="10.00">HashMap&lt; String, GUIFunctions.</text>
<text text-anchor="middle" x="317" y="-102" font-family="Helvetica,sans-Serif" font-size="10.00">GUIFunction &gt;</text>
</g>
<!-- Node16&#45;&gt;Node10 -->
<g id="edge15" class="edge"><title>Node16&#45;&gt;Node10</title>
<path fill="none" stroke="#9a32cd" stroke-dasharray="5,2" d="M413.823,-121.986C448.61,-126.733 488.163,-132.591 524,-139 532.93,-140.597 542.463,-142.524 551.504,-144.457"/>
<polygon fill="#9a32cd" stroke="#9a32cd" points="414.047,-118.485 403.669,-120.613 413.109,-125.421 414.047,-118.485"/>
<text text-anchor="middle" x="473" y="-142" font-family="Helvetica,sans-Serif" font-size="10.00"> myGridFunctions</text>
</g>
<!-- Node17 -->
<g id="node17" class="node"><title>Node17</title>
<polygon fill="white" stroke="#bfbfbf" points="283,-47.5 283,-66.5 351,-66.5 351,-47.5 283,-47.5"/>
<text text-anchor="middle" x="317" y="-54.5" font-family="Helvetica,sans-Serif" font-size="10.00">ImageView</text>
</g>
<!-- Node17&#45;&gt;Node4 -->
<g id="edge19" class="edge"><title>Node17&#45;&gt;Node4</title>
<path fill="none" stroke="#9a32cd" stroke-dasharray="5,2" d="M361.269,-54.7085C415.43,-52.0421 511.047,-48 593,-48 593,-48 593,-48 1259,-48 1314.35,-48 1376.83,-48 1424.43,-48"/>
<polygon fill="#9a32cd" stroke="#9a32cd" points="360.819,-51.2266 351.007,-55.2219 361.169,-58.2179 360.819,-51.2266"/>
<text text-anchor="middle" x="943" y="-51" font-family="Helvetica,sans-Serif" font-size="10.00"> myImageView</text>
</g>
<!-- Node17&#45;&gt;Node10 -->
<g id="edge16" class="edge"><title>Node17&#45;&gt;Node10</title>
<path fill="none" stroke="#9a32cd" stroke-dasharray="5,2" d="M361.308,-59.332C405.602,-63.5732 474.719,-75.5007 524,-109 535.323,-116.697 531.186,-125.603 542,-134 547.484,-138.258 553.987,-141.714 560.482,-144.479"/>
<polygon fill="#9a32cd" stroke="#9a32cd" points="361.421,-55.8288 351.157,-58.453 360.817,-62.8027 361.421,-55.8288"/>
<text text-anchor="middle" x="473" y="-112" font-family="Helvetica,sans-Serif" font-size="10.00"> myImageView</text>
</g>
<!-- Node18 -->
<g id="node18" class="node"><title>Node18</title>
<polygon fill="white" stroke="#bfbfbf" points="283,-220.5 283,-239.5 351,-239.5 351,-220.5 283,-220.5"/>
<text text-anchor="middle" x="317" y="-227.5" font-family="Helvetica,sans-Serif" font-size="10.00">Dimension</text>
</g>
<!-- Node18&#45;&gt;Node10 -->
<g id="edge17" class="edge"><title>Node18&#45;&gt;Node10</title>
<path fill="none" stroke="#9a32cd" stroke-dasharray="5,2" d="M361.247,-228.825C403.89,-226.449 470.29,-219.44 524,-199 546.188,-190.556 568.614,-174.142 581.639,-163.644"/>
<polygon fill="#9a32cd" stroke="#9a32cd" points="361.018,-225.332 351.204,-229.324 361.365,-232.324 361.018,-225.332"/>
<text text-anchor="middle" x="473" y="-226" font-family="Helvetica,sans-Serif" font-size="10.00"> DEFAULT_GRID_SIZE</text>
</g>
<!-- Node19 -->
<g id="node19" class="node"><title>Node19</title>
<polygon fill="white" stroke="#bfbfbf" points="1235.5,-0.5 1235.5,-19.5 1280.5,-19.5 1280.5,-0.5 1235.5,-0.5"/>
<text text-anchor="middle" x="1258" y="-7.5" font-family="Helvetica,sans-Serif" font-size="10.00">Stage</text>
</g>
<!-- Node19&#45;&gt;Node4 -->
<g id="edge18" class="edge"><title>Node19&#45;&gt;Node4</title>
<path fill="none" stroke="#9a32cd" stroke-dasharray="5,2" d="M1290.82,-11.2602C1320.74,-12.8108 1366.66,-16.1354 1406,-23 1420.45,-25.5213 1435.91,-29.17 1450.07,-32.904"/>
<polygon fill="#9a32cd" stroke="#9a32cd" points="1290.73,-7.7516 1280.57,-10.7659 1290.39,-14.7435 1290.73,-7.7516"/>
<text text-anchor="middle" x="1382" y="-26" font-family="Helvetica,sans-Serif" font-size="10.00"> myStage</text>
</g>
</g>
</svg>
        <g id="navigator" transform="translate(0 0)" fill="#404254">
                <rect fill="#f2f5e9" fill-opacity="0.5" stroke="#606060" stroke-width=".5" x="0" y="0" width="60" height="60"/>
                <use id="zoomplus" xlink:href="#zoomPlus" x="17" y="9" onmousedown="handleZoom(evt,'in')"/>
                <use id="zoomminus" xlink:href="#zoomMin" x="42" y="9" onmousedown="handleZoom(evt,'out')"/>
                <use id="reset" xlink:href="#resetDef" x="30" y="36" onmousedown="handleReset()"/>
                <g id="arrowUp" xlink:href="#dirArrow" transform="translate(30 24)" onmousedown="handlePan(0,-1)">
                  <use xlink:href="#rim" fill="#404040">
                        <set attributeName="fill" to="#808080" begin="arrowUp.mouseover" end="arrowUp.mouseout"/>
                  </use>
                  <path fill="none" stroke="white" stroke-width="1.5" d="M0,-3.0v7 M-2.5,-0.5L0,-3.0L2.5,-0.5"/>
                </g>
                <g id="arrowRight" xlink:href="#dirArrow" transform="rotate(90) translate(36 -43)" onmousedown="handlePan(1,0)">
                  <use xlink:href="#rim" fill="#404040">
                        <set attributeName="fill" to="#808080" begin="arrowRight.mouseover" end="arrowRight.mouseout"/>
                  </use>
                  <path fill="none" stroke="white" stroke-width="1.5" d="M0,-3.0v7 M-2.5,-0.5L0,-3.0L2.5,-0.5"/>
                </g>
                <g id="arrowDown" xlink:href="#dirArrow" transform="rotate(180) translate(-30 -48)" onmousedown="handlePan(0,1)">
                  <use xlink:href="#rim" fill="#404040">
                        <set attributeName="fill" to="#808080" begin="arrowDown.mouseover" end="arrowDown.mouseout"/>
                  </use>
                  <path fill="none" stroke="white" stroke-width="1.5" d="M0,-3.0v7 M-2.5,-0.5L0,-3.0L2.5,-0.5"/>
                </g>
                <g id="arrowLeft" xlink:href="#dirArrow" transform="rotate(270) translate(-36 17)" onmousedown="handlePan(-1,0)">
                  <use xlink:href="#rim" fill="#404040">
                        <set attributeName="fill" to="#808080" begin="arrowLeft.mouseover" end="arrowLeft.mouseout"/>
                  </use>
                  <path fill="none" stroke="white" stroke-width="1.5" d="M0,-3.0v7 M-2.5,-0.5L0,-3.0L2.5,-0.5"/>
                </g>
        </g>
        <svg viewBox="0 0 15 15" width="100%" height="30px" preserveAspectRatio="xMaxYMin meet">
         <g id="arrow_out" transform="scale(0.3 0.3)">
          <a xlink:href="class_g_u_i_functions_1_1_my_images__coll__graph_org.svg" target="_base">
           <rect id="button" ry="5" rx="5" y="6" x="6" height="38" width="38"
                fill="#f2f5e9" fill-opacity="0.5" stroke="#606060" stroke-width="1.0"/>
           <path id="arrow"
             d="M 11.500037,31.436501 C 11.940474,20.09759 22.043105,11.32322 32.158766,21.979434 L 37.068811,17.246167 C 37.068811,17.246167 37.088388,32 37.088388,32 L 22.160133,31.978069 C 22.160133,31.978069 26.997745,27.140456 26.997745,27.140456 C 18.528582,18.264221 13.291696,25.230495 11.500037,31.436501 z"
             style="fill:#404040;"/>
          </a>
         </g>
        </svg>
</svg>
