<?xml version="1.0" encoding="UTF-8" standalone="no"?>
<!DOCTYPE svg PUBLIC "-//W3C//DTD SVG 1.1//EN"
 "http://www.w3.org/Graphics/SVG/1.1/DTD/svg11.dtd">
<!-- Generated by graphviz version 2.36.0 (20140111.2315)
 -->
<!-- Title: commands.viewCommands.ShowTurtleCommand.onExecute Pages: 1 -->
<svg width="806pt" height="110pt"
 viewBox="0.00 0.00 806.00 110.00" xmlns="http://www.w3.org/2000/svg" xmlns:xlink="http://www.w3.org/1999/xlink">
<g id="graph0" class="graph" transform="scale(1 1) rotate(0) translate(4 106)">
<title>commands.viewCommands.ShowTurtleCommand.onExecute</title>
<polygon fill="white" stroke="none" points="-4,4 -4,-106 802,-106 802,4 -4,4"/>
<!-- Node1 -->
<g id="node1" class="node"><title>Node1</title>
<polygon fill="#bfbfbf" stroke="black" points="0,-41 0,-71 178,-71 178,-41 0,-41"/>
<text text-anchor="start" x="8" y="-59" font-family="Helvetica,sans-Serif" font-size="10.00">commands.viewCommands.Show</text>
<text text-anchor="middle" x="89" y="-48" font-family="Helvetica,sans-Serif" font-size="10.00">TurtleCommand.onExecute</text>
</g>
<!-- Node2 -->
<g id="node2" class="node"><title>Node2</title>
<g id="a_node2"><a xlink:href="../../d3/d03/classcommands_1_1turtle_commands_1_1_turtle_command.html#a82f290b3a2e14029a8a525bafa35994f" target="_top" xlink:title="commands.turtleCommands.\lTurtleCommand.getTurtleContainer">
<polygon fill="white" stroke="black" points="214.5,-66 214.5,-96 397.5,-96 397.5,-66 214.5,-66"/>
<text text-anchor="start" x="222.5" y="-84" font-family="Helvetica,sans-Serif" font-size="10.00">commands.turtleCommands.</text>
<text text-anchor="middle" x="306" y="-73" font-family="Helvetica,sans-Serif" font-size="10.00">TurtleCommand.getTurtleContainer</text>
</a>
</g>
</g>
<!-- Node1&#45;&gt;Node2 -->
<g id="edge1" class="edge"><title>Node1&#45;&gt;Node2</title>
<path fill="none" stroke="midnightblue" d="M178.069,-66.2406C186.654,-67.2389 195.41,-68.257 204.109,-69.2685"/>
<polygon fill="midnightblue" stroke="midnightblue" points="203.942,-72.7726 214.28,-70.4511 204.751,-65.8194 203.942,-72.7726"/>
</g>
<!-- Node3 -->
<g id="node3" class="node"><title>Node3</title>
<g id="a_node3"><a xlink:href="../../d7/d28/classcommands_1_1information_1_1_base_turtle_container.html#abaad2067c7aa6d30d7307d9ec89dcb09" target="_top" xlink:title="commands.information.Base\lTurtleContainer.setVisibility">
<polygon fill="white" stroke="black" points="228.5,-17 228.5,-47 383.5,-47 383.5,-17 228.5,-17"/>
<text text-anchor="start" x="236.5" y="-35" font-family="Helvetica,sans-Serif" font-size="10.00">commands.information.Base</text>
<text text-anchor="middle" x="306" y="-24" font-family="Helvetica,sans-Serif" font-size="10.00">TurtleContainer.setVisibility</text>
</a>
</g>
</g>
<!-- Node1&#45;&gt;Node3 -->
<g id="edge2" class="edge"><title>Node1&#45;&gt;Node3</title>
<path fill="none" stroke="midnightblue" d="M178.069,-46.169C191.376,-44.6836 205.094,-43.1522 218.371,-41.6702"/>
<polygon fill="midnightblue" stroke="midnightblue" points="218.873,-45.136 228.423,-40.5481 218.097,-38.1792 218.873,-45.136"/>
</g>
<!-- Node4 -->
<g id="node4" class="node"><title>Node4</title>
<g id="a_node4"><a xlink:href="../../d7/d28/classcommands_1_1information_1_1_base_turtle_container.html#ae3f987ec79fb3318d8c3a1c8bd65f67b" target="_top" xlink:title="commands.information.Base\lTurtleContainer.loopOverTurtle">
<polygon fill="white" stroke="black" points="434.5,-39 434.5,-69 593.5,-69 593.5,-39 434.5,-39"/>
<text text-anchor="start" x="442.5" y="-57" font-family="Helvetica,sans-Serif" font-size="10.00">commands.information.Base</text>
<text text-anchor="middle" x="514" y="-46" font-family="Helvetica,sans-Serif" font-size="10.00">TurtleContainer.loopOverTurtle</text>
</a>
</g>
</g>
<!-- Node3&#45;&gt;Node4 -->
<g id="edge3" class="edge"><title>Node3&#45;&gt;Node4</title>
<path fill="none" stroke="midnightblue" d="M383.707,-40.192C396.833,-41.5938 410.57,-43.0609 423.985,-44.4935"/>
<polygon fill="midnightblue" stroke="midnightblue" points="423.85,-47.9989 434.165,-45.5807 424.593,-41.0385 423.85,-47.9989"/>
</g>
<!-- Node7 -->
<g id="node7" class="node"><title>Node7</title>
<g id="a_node7"><a xlink:href="../../df/dcb/classturtle_1_1_turtle.html#ad4dfb04902d608e2f19920540a4e54ca" target="_top" xlink:title="turtle.Turtle.setVisibility">
<polygon fill="white" stroke="black" points="450.5,-0.5 450.5,-19.5 577.5,-19.5 577.5,-0.5 450.5,-0.5"/>
<text text-anchor="middle" x="514" y="-7.5" font-family="Helvetica,sans-Serif" font-size="10.00">turtle.Turtle.setVisibility</text>
</a>
</g>
</g>
<!-- Node3&#45;&gt;Node7 -->
<g id="edge6" class="edge"><title>Node3&#45;&gt;Node7</title>
<path fill="none" stroke="midnightblue" d="M383.707,-23.808C402.238,-21.8289 421.987,-19.7199 440.327,-17.7612"/>
<polygon fill="midnightblue" stroke="midnightblue" points="440.782,-21.2326 450.354,-16.6903 440.039,-14.2721 440.782,-21.2326"/>
</g>
<!-- Node5 -->
<g id="node5" class="node"><title>Node5</title>
<g id="a_node5"><a xlink:href="../../d1/d39/interfacecommands_1_1information_1_1_base_turtle_container_1_1_turtle_action_with_result.html#a5043750fe9ea0b38e426614c999c9d60" target="_top" xlink:title="commands.information.Base\lTurtleContainer.TurtleActionWith\lResult.execute">
<polygon fill="white" stroke="black" points="630.5,-60.5 630.5,-101.5 797.5,-101.5 797.5,-60.5 630.5,-60.5"/>
<text text-anchor="start" x="638.5" y="-89.5" font-family="Helvetica,sans-Serif" font-size="10.00">commands.information.Base</text>
<text text-anchor="start" x="638.5" y="-78.5" font-family="Helvetica,sans-Serif" font-size="10.00">TurtleContainer.TurtleActionWith</text>
<text text-anchor="middle" x="714" y="-67.5" font-family="Helvetica,sans-Serif" font-size="10.00">Result.execute</text>
</a>
</g>
</g>
<!-- Node4&#45;&gt;Node5 -->
<g id="edge4" class="edge"><title>Node4&#45;&gt;Node5</title>
<path fill="none" stroke="midnightblue" d="M593.539,-64.7099C602.325,-65.908 611.336,-67.1367 620.278,-68.3561"/>
<polygon fill="midnightblue" stroke="midnightblue" points="619.948,-71.8435 630.33,-69.7268 620.894,-64.9076 619.948,-71.8435"/>
</g>
<!-- Node6 -->
<g id="node6" class="node"><title>Node6</title>
<g id="a_node6"><a xlink:href="../../d7/d28/classcommands_1_1information_1_1_base_turtle_container.html#a704eca72b47c6a35888f2868beaec2d3" target="_top" xlink:title="commands.information.Base\lTurtleContainer.getActiveTurtles">
<polygon fill="white" stroke="black" points="630.5,-12 630.5,-42 797.5,-42 797.5,-12 630.5,-12"/>
<text text-anchor="start" x="638.5" y="-30" font-family="Helvetica,sans-Serif" font-size="10.00">commands.information.Base</text>
<text text-anchor="middle" x="714" y="-19" font-family="Helvetica,sans-Serif" font-size="10.00">TurtleContainer.getActiveTurtles</text>
</a>
</g>
</g>
<!-- Node4&#45;&gt;Node6 -->
<g id="edge5" class="edge"><title>Node4&#45;&gt;Node6</title>
<path fill="none" stroke="midnightblue" d="M593.539,-43.2901C602.325,-42.092 611.336,-40.8633 620.278,-39.6439"/>
<polygon fill="midnightblue" stroke="midnightblue" points="620.894,-43.0924 630.33,-38.2732 619.948,-36.1565 620.894,-43.0924"/>
</g>
</g>
</svg>
