<?xml version="1.0" encoding="UTF-8" standalone="no"?>
<!DOCTYPE svg PUBLIC "-//W3C//DTD SVG 1.1//EN"
 "http://www.w3.org/Graphics/SVG/1.1/DTD/svg11.dtd">
<!-- Generated by graphviz version 2.36.0 (20140111.2315)
 -->
<!-- Title: View.ScrollingBar Pages: 1 -->
<svg width="391pt" height="96pt"
 viewBox="0.00 0.00 391.00 96.00" xmlns="http://www.w3.org/2000/svg" xmlns:xlink="http://www.w3.org/1999/xlink">
<g id="graph0" class="graph" transform="scale(1 1) rotate(0) translate(4 92)">
<title>View.ScrollingBar</title>
<polygon fill="white" stroke="none" points="-4,4 -4,-92 387,-92 387,4 -4,4"/>
<!-- Node1 -->
<g id="node1" class="node"><title>Node1</title>
<polygon fill="#bfbfbf" stroke="black" points="110,-0.5 110,-19.5 208,-19.5 208,-0.5 110,-0.5"/>
<text text-anchor="middle" x="159" y="-7.5" font-family="Helvetica,sans-Serif" font-size="10.00">View.ScrollingBar</text>
</g>
<!-- Node2 -->
<g id="node2" class="node"><title>Node2</title>
<polygon fill="white" stroke="#bfbfbf" points="0,-68.5 0,-87.5 46,-87.5 46,-68.5 0,-68.5"/>
<text text-anchor="middle" x="23" y="-75.5" font-family="Helvetica,sans-Serif" font-size="10.00">Group</text>
</g>
<!-- Node2&#45;&gt;Node1 -->
<g id="edge1" class="edge"><title>Node2&#45;&gt;Node1</title>
<path fill="none" stroke="midnightblue" d="M50.072,-63.8621C77.1447,-50.7239 118,-30.8969 141.216,-19.6305"/>
<polygon fill="midnightblue" stroke="midnightblue" points="48.2481,-60.8568 40.7796,-68.3717 51.3043,-67.1544 48.2481,-60.8568"/>
</g>
<!-- Node3 -->
<g id="node3" class="node"><title>Node3</title>
<g id="a_node3"><a xlink:href="../../dd/dfc/interface_view_1_1_user_objects.html" target="_top" xlink:title="View.UserObjects">
<polygon fill="white" stroke="black" points="64.5,-68.5 64.5,-87.5 163.5,-87.5 163.5,-68.5 64.5,-68.5"/>
<text text-anchor="middle" x="114" y="-75.5" font-family="Helvetica,sans-Serif" font-size="10.00">View.UserObjects</text>
</a>
</g>
</g>
<!-- Node3&#45;&gt;Node1 -->
<g id="edge2" class="edge"><title>Node3&#45;&gt;Node1</title>
<path fill="none" stroke="midnightblue" d="M125.633,-59.9377C134.378,-47.112 146.005,-30.0591 152.972,-19.8411"/>
<polygon fill="midnightblue" stroke="midnightblue" points="122.625,-58.1377 119.883,-68.3717 128.408,-62.0811 122.625,-58.1377"/>
</g>
<!-- Node4 -->
<g id="node4" class="node"><title>Node4</title>
<polygon fill="white" stroke="#bfbfbf" points="182,-68.5 182,-87.5 226,-87.5 226,-68.5 182,-68.5"/>
<text text-anchor="middle" x="204" y="-75.5" font-family="Helvetica,sans-Serif" font-size="10.00">Slider</text>
</g>
<!-- Node4&#45;&gt;Node1 -->
<g id="edge3" class="edge"><title>Node4&#45;&gt;Node1</title>
<path fill="none" stroke="#9a32cd" stroke-dasharray="5,2" d="M192.367,-59.9377C183.622,-47.112 171.995,-30.0591 165.028,-19.8411"/>
<polygon fill="#9a32cd" stroke="#9a32cd" points="189.592,-62.0811 198.117,-68.3717 195.375,-58.1377 189.592,-62.0811"/>
<text text-anchor="middle" x="203.5" y="-41.5" font-family="Helvetica,sans-Serif" font-size="10.00"> myBar</text>
</g>
<!-- Node5 -->
<g id="node5" class="node"><title>Node5</title>
<g id="a_node5"><a xlink:href="../../d1/df5/interface_g_u_i_functions_1_1_g_u_i_function.html" target="_top" xlink:title="GUIFunctions.GUIFunction">
<polygon fill="white" stroke="black" points="244.5,-68.5 244.5,-87.5 383.5,-87.5 383.5,-68.5 244.5,-68.5"/>
<text text-anchor="middle" x="314" y="-75.5" font-family="Helvetica,sans-Serif" font-size="10.00">GUIFunctions.GUIFunction</text>
</a>
</g>
</g>
<!-- Node5&#45;&gt;Node1 -->
<g id="edge4" class="edge"><title>Node5&#45;&gt;Node1</title>
<path fill="none" stroke="#9a32cd" stroke-dasharray="5,2" d="M285.382,-64.2453C267.971,-56.539 245.257,-46.5803 225,-38 210.067,-31.6746 193.134,-24.7527 180.159,-19.5012"/>
<polygon fill="#9a32cd" stroke="#9a32cd" points="284.401,-67.6393 294.961,-68.495 287.24,-61.2406 284.401,-67.6393"/>
<text text-anchor="middle" x="281" y="-41.5" font-family="Helvetica,sans-Serif" font-size="10.00"> myFunction</text>
</g>
</g>
</svg>
