<?xml version="1.0" encoding="UTF-8" standalone="no"?>
<!DOCTYPE svg PUBLIC "-//W3C//DTD SVG 1.1//EN"
 "http://www.w3.org/Graphics/SVG/1.1/DTD/svg11.dtd">
<!-- Generated by graphviz version 2.36.0 (20140111.2315)
 -->
<!-- Title: commands.information.SingleActiveGridContainer Pages: 1 -->
<svg width="700pt" height="153pt"
 viewBox="0.00 0.00 700.00 153.00" xmlns="http://www.w3.org/2000/svg" xmlns:xlink="http://www.w3.org/1999/xlink">
<g id="graph0" class="graph" transform="scale(1 1) rotate(0) translate(4 149)">
<title>commands.information.SingleActiveGridContainer</title>
<polygon fill="white" stroke="none" points="-4,4 -4,-149 696,-149 696,4 -4,4"/>
<!-- Node1 -->
<g id="node1" class="node"><title>Node1</title>
<polygon fill="#bfbfbf" stroke="black" points="530.5,-71 530.5,-101 691.5,-101 691.5,-71 530.5,-71"/>
<text text-anchor="start" x="538.5" y="-89" font-family="Helvetica,sans-Serif" font-size="10.00">commands.information.Single</text>
<text text-anchor="middle" x="611" y="-78" font-family="Helvetica,sans-Serif" font-size="10.00">ActiveGridContainer</text>
</g>
<!-- Node2 -->
<g id="node2" class="node"><title>Node2</title>
<g id="a_node2"><a xlink:href="../../d4/d37/classcommands_1_1information_1_1_base_grid_container.html" target="_top" xlink:title="commands.information.Base\lGridContainer">
<polygon fill="white" stroke="black" points="270.5,-115 270.5,-145 425.5,-145 425.5,-115 270.5,-115"/>
<text text-anchor="start" x="278.5" y="-133" font-family="Helvetica,sans-Serif" font-size="10.00">commands.information.Base</text>
<text text-anchor="middle" x="348" y="-122" font-family="Helvetica,sans-Serif" font-size="10.00">GridContainer</text>
</a>
</g>
</g>
<!-- Node2&#45;&gt;Node1 -->
<g id="edge1" class="edge"><title>Node2&#45;&gt;Node1</title>
<path fill="none" stroke="midnightblue" d="M435.743,-115.377C466.255,-110.233 500.375,-104.481 530.281,-99.4392"/>
<polygon fill="midnightblue" stroke="midnightblue" points="434.824,-111.982 425.545,-117.096 435.988,-118.885 434.824,-111.982"/>
</g>
<!-- Node3 -->
<g id="node3" class="node"><title>Node3</title>
<g id="a_node3"><a xlink:href="../../d4/d4e/interfacecommands_1_1information_1_1_i_information_container.html" target="_top" xlink:title="commands.information.IInformation\lContainer">
<polygon fill="white" stroke="black" points="0,-115 0,-145 188,-145 188,-115 0,-115"/>
<text text-anchor="start" x="8" y="-133" font-family="Helvetica,sans-Serif" font-size="10.00">commands.information.IInformation</text>
<text text-anchor="middle" x="94" y="-122" font-family="Helvetica,sans-Serif" font-size="10.00">Container</text>
</a>
</g>
</g>
<!-- Node3&#45;&gt;Node2 -->
<g id="edge2" class="edge"><title>Node3&#45;&gt;Node2</title>
<path fill="none" stroke="midnightblue" d="M198.358,-130C222.436,-130 247.655,-130 270.34,-130"/>
<polygon fill="midnightblue" stroke="midnightblue" points="198.12,-126.5 188.12,-130 198.119,-133.5 198.12,-126.5"/>
</g>
<!-- Node4 -->
<g id="node4" class="node"><title>Node4</title>
<polygon fill="white" stroke="#bfbfbf" points="298.5,-76.5 298.5,-95.5 397.5,-95.5 397.5,-76.5 298.5,-76.5"/>
<text text-anchor="middle" x="348" y="-83.5" font-family="Helvetica,sans-Serif" font-size="10.00">List&lt; View.Grid &gt;</text>
</g>
<!-- Node4&#45;&gt;Node1 -->
<g id="edge3" class="edge"><title>Node4&#45;&gt;Node1</title>
<path fill="none" stroke="#9a32cd" stroke-dasharray="5,2" d="M408.17,-86C444.335,-86 491.05,-86 530.428,-86"/>
<polygon fill="#9a32cd" stroke="#9a32cd" points="407.786,-82.5001 397.786,-86 407.786,-89.5001 407.786,-82.5001"/>
<text text-anchor="middle" x="478" y="-89" font-family="Helvetica,sans-Serif" font-size="10.00"> myGridList</text>
</g>
<!-- Node5 -->
<g id="node5" class="node"><title>Node5</title>
<g id="a_node5"><a xlink:href="../../d0/d92/class_view_1_1_grid.html" target="_top" xlink:title="View.Grid">
<polygon fill="white" stroke="black" points="318,-38.5 318,-57.5 378,-57.5 378,-38.5 318,-38.5"/>
<text text-anchor="middle" x="348" y="-45.5" font-family="Helvetica,sans-Serif" font-size="10.00">View.Grid</text>
</a>
</g>
</g>
<!-- Node5&#45;&gt;Node1 -->
<g id="edge4" class="edge"><title>Node5&#45;&gt;Node1</title>
<path fill="none" stroke="#9a32cd" stroke-dasharray="5,2" d="M388.319,-53.4167C421.345,-57.9981 469.775,-64.7897 512,-71 517.96,-71.8766 524.122,-72.7939 530.32,-73.7243"/>
<polygon fill="#9a32cd" stroke="#9a32cd" points="388.551,-49.9155 378.165,-52.0105 387.59,-56.8493 388.551,-49.9155"/>
<text text-anchor="middle" x="478" y="-74" font-family="Helvetica,sans-Serif" font-size="10.00"> myActiveGrid</text>
</g>
<!-- Node6 -->
<g id="node6" class="node"><title>Node6</title>
<polygon fill="white" stroke="#bfbfbf" points="74,-76.5 74,-95.5 114,-95.5 114,-76.5 74,-76.5"/>
<text text-anchor="middle" x="94" y="-83.5" font-family="Helvetica,sans-Serif" font-size="10.00">Pane</text>
</g>
<!-- Node6&#45;&gt;Node5 -->
<g id="edge5" class="edge"><title>Node6&#45;&gt;Node5</title>
<path fill="none" stroke="midnightblue" d="M124.643,-81.7578C156.22,-77.2152 207.661,-69.7479 252,-63 274.12,-59.6336 299.112,-55.6816 317.908,-52.6794"/>
<polygon fill="midnightblue" stroke="midnightblue" points="123.747,-78.3504 114.346,-83.2366 124.742,-85.2793 123.747,-78.3504"/>
</g>
<!-- Node7 -->
<g id="node7" class="node"><title>Node7</title>
<polygon fill="white" stroke="#bfbfbf" points="22,-38.5 22,-57.5 166,-57.5 166,-38.5 22,-38.5"/>
<text text-anchor="middle" x="94" y="-45.5" font-family="Helvetica,sans-Serif" font-size="10.00">HashMap&lt; String, Class &gt;</text>
</g>
<!-- Node7&#45;&gt;Node5 -->
<g id="edge6" class="edge"><title>Node7&#45;&gt;Node5</title>
<path fill="none" stroke="#9a32cd" stroke-dasharray="5,2" d="M176.384,-48C224.877,-48 283.494,-48 317.87,-48"/>
<polygon fill="#9a32cd" stroke="#9a32cd" points="176.203,-44.5001 166.203,-48 176.203,-51.5001 176.203,-44.5001"/>
<text text-anchor="middle" x="229" y="-51" font-family="Helvetica,sans-Serif" font-size="10.00"> myMap</text>
</g>
<!-- Node8 -->
<g id="node8" class="node"><title>Node8</title>
<polygon fill="white" stroke="#bfbfbf" points="20.5,-0.5 20.5,-19.5 167.5,-19.5 167.5,-0.5 20.5,-0.5"/>
<text text-anchor="middle" x="94" y="-7.5" font-family="Helvetica,sans-Serif" font-size="10.00">EventHandler&lt; KeyEvent &gt;</text>
</g>
<!-- Node8&#45;&gt;Node5 -->
<g id="edge7" class="edge"><title>Node8&#45;&gt;Node5</title>
<path fill="none" stroke="#9a32cd" stroke-dasharray="5,2" d="M171.153,-20.9819C196.842,-24.733 225.673,-28.9933 252,-33 274.12,-36.3664 299.112,-40.3184 317.908,-43.3206"/>
<polygon fill="#9a32cd" stroke="#9a32cd" points="171.502,-17.4959 161.101,-19.5168 170.492,-24.4227 171.502,-17.4959"/>
<text text-anchor="middle" x="229" y="-36" font-family="Helvetica,sans-Serif" font-size="10.00"> myEvent</text>
</g>
</g>
</svg>
