<?xml version="1.0" encoding="UTF-8" standalone="no"?>
<!DOCTYPE svg PUBLIC "-//W3C//DTD SVG 1.1//EN"
 "http://www.w3.org/Graphics/SVG/1.1/DTD/svg11.dtd">
<!-- Generated by graphviz version 2.36.0 (20140111.2315)
 -->
<!-- Title: commands.expressionCommands.OneExpressionCommand Pages: 1 -->
<svg width="283pt" height="236pt"
 viewBox="0.00 0.00 283.00 236.00" xmlns="http://www.w3.org/2000/svg" xmlns:xlink="http://www.w3.org/1999/xlink">
<g id="graph0" class="graph" transform="scale(1 1) rotate(0) translate(4 232)">
<title>commands.expressionCommands.OneExpressionCommand</title>
<polygon fill="white" stroke="none" points="-4,4 -4,-232 279,-232 279,4 -4,4"/>
<!-- Node1 -->
<g id="node1" class="node"><title>Node1</title>
<polygon fill="#bfbfbf" stroke="black" points="0,-1 0,-31 184,-31 184,-1 0,-1"/>
<text text-anchor="start" x="8" y="-19" font-family="Helvetica,sans-Serif" font-size="10.00">commands.expressionCommands.</text>
<text text-anchor="middle" x="92" y="-8" font-family="Helvetica,sans-Serif" font-size="10.00">OneExpressionCommand</text>
</g>
<!-- Node2 -->
<g id="node2" class="node"><title>Node2</title>
<g id="a_node2"><a xlink:href="../../dc/d85/classcommands_1_1expression_commands_1_1_expression_command.html" target="_top" xlink:title="commands.expressionCommands.\lExpressionCommand">
<polygon fill="white" stroke="black" points="0,-71 0,-101 184,-101 184,-71 0,-71"/>
<text text-anchor="start" x="8" y="-89" font-family="Helvetica,sans-Serif" font-size="10.00">commands.expressionCommands.</text>
<text text-anchor="middle" x="92" y="-78" font-family="Helvetica,sans-Serif" font-size="10.00">ExpressionCommand</text>
</a>
</g>
</g>
<!-- Node2&#45;&gt;Node1 -->
<g id="edge1" class="edge"><title>Node2&#45;&gt;Node1</title>
<path fill="none" stroke="midnightblue" d="M92,-60.7688C92,-50.8141 92,-39.6384 92,-31.0716"/>
<polygon fill="midnightblue" stroke="midnightblue" points="88.5001,-60.9103 92,-70.9104 95.5001,-60.9104 88.5001,-60.9103"/>
</g>
<!-- Node3 -->
<g id="node3" class="node"><title>Node3</title>
<g id="a_node3"><a xlink:href="../../da/d90/classcommands_1_1_base_command.html" target="_top" xlink:title="commands.BaseCommand">
<polygon fill="white" stroke="black" points="18,-150.5 18,-169.5 166,-169.5 166,-150.5 18,-150.5"/>
<text text-anchor="middle" x="92" y="-157.5" font-family="Helvetica,sans-Serif" font-size="10.00">commands.BaseCommand</text>
</a>
</g>
</g>
<!-- Node3&#45;&gt;Node2 -->
<g id="edge2" class="edge"><title>Node3&#45;&gt;Node2</title>
<path fill="none" stroke="midnightblue" d="M90.4399,-140.382C90.2572,-137.575 90.1003,-134.713 90,-132 89.6185,-121.684 90.1621,-110.043 90.7783,-101.185"/>
<polygon fill="midnightblue" stroke="midnightblue" points="86.9607,-140.791 91.2083,-150.497 93.9406,-140.26 86.9607,-140.791"/>
</g>
<!-- Node3&#45;&gt;Node2 -->
<g id="edge5" class="edge"><title>Node3&#45;&gt;Node2</title>
<path fill="none" stroke="#9a32cd" stroke-dasharray="5,2" d="M92,-140.085C92,-127.915 92,-112.354 92,-101.232"/>
<polygon fill="#9a32cd" stroke="#9a32cd" points="88.5001,-140.458 92,-150.458 95.5001,-140.458 88.5001,-140.458"/>
<text text-anchor="middle" x="133.5" y="-123.5" font-family="Helvetica,sans-Serif" font-size="10.00"> myArgumentList</text>
</g>
<!-- Node3&#45;&gt;Node3 -->
<g id="edge4" class="edge"><title>Node3&#45;&gt;Node3</title>
<path fill="none" stroke="#9a32cd" stroke-dasharray="5,2" d="M176.58,-163.513C181.233,-162.658 184,-161.487 184,-160 184,-157.621 176.916,-156.051 166.36,-155.289"/>
<polygon fill="#9a32cd" stroke="#9a32cd" points="175.884,-160.071 166.36,-164.711 176.7,-167.023 175.884,-160.071"/>
<text text-anchor="middle" x="229.5" y="-157.5" font-family="Helvetica,sans-Serif" font-size="10.00"> myNextCommand</text>
</g>
<!-- Node4 -->
<g id="node4" class="node"><title>Node4</title>
<polygon fill="white" stroke="#bfbfbf" points="56.5,-208.5 56.5,-227.5 127.5,-227.5 127.5,-208.5 56.5,-208.5"/>
<text text-anchor="middle" x="92" y="-215.5" font-family="Helvetica,sans-Serif" font-size="10.00">Serializable</text>
</g>
<!-- Node4&#45;&gt;Node3 -->
<g id="edge3" class="edge"><title>Node4&#45;&gt;Node3</title>
<path fill="none" stroke="midnightblue" d="M92,-197.953C92,-188.287 92,-177.031 92,-169.505"/>
<polygon fill="midnightblue" stroke="midnightblue" points="88.5001,-198.25 92,-208.25 95.5001,-198.25 88.5001,-198.25"/>
</g>
</g>
</svg>
