<?xml version="1.0" encoding="UTF-8" standalone="no"?>
<!DOCTYPE svg PUBLIC "-//W3C//DTD SVG 1.1//EN"
 "http://www.w3.org/Graphics/SVG/1.1/DTD/svg11.dtd">
<!-- Generated by graphviz version 2.36.0 (20140111.2315)
 -->
<!-- Title: backendExceptions.SlogoFileNotFoundException Pages: 1 -->
<svg width="162pt" height="164pt"
 viewBox="0.00 0.00 162.00 164.00" xmlns="http://www.w3.org/2000/svg" xmlns:xlink="http://www.w3.org/1999/xlink">
<g id="graph0" class="graph" transform="scale(1 1) rotate(0) translate(4 160)">
<title>backendExceptions.SlogoFileNotFoundException</title>
<polygon fill="white" stroke="none" points="-4,4 -4,-160 158,-160 158,4 -4,4"/>
<!-- Node1 -->
<g id="node1" class="node"><title>Node1</title>
<polygon fill="#bfbfbf" stroke="black" points="0,-1 0,-31 154,-31 154,-1 0,-1"/>
<text text-anchor="start" x="8" y="-19" font-family="Helvetica,sans-Serif" font-size="10.00">backendExceptions.SlogoFile</text>
<text text-anchor="middle" x="77" y="-8" font-family="Helvetica,sans-Serif" font-size="10.00">NotFoundException</text>
</g>
<!-- Node2 -->
<g id="node2" class="node"><title>Node2</title>
<g id="a_node2"><a xlink:href="../../dc/da2/classbackend_exceptions_1_1_backend_exception.html" target="_top" xlink:title="backendExceptions.Backend\lException">
<polygon fill="white" stroke="black" points="0.5,-69 0.5,-99 153.5,-99 153.5,-69 0.5,-69"/>
<text text-anchor="start" x="8.5" y="-87" font-family="Helvetica,sans-Serif" font-size="10.00">backendExceptions.Backend</text>
<text text-anchor="middle" x="77" y="-76" font-family="Helvetica,sans-Serif" font-size="10.00">Exception</text>
</a>
</g>
</g>
<!-- Node2&#45;&gt;Node1 -->
<g id="edge1" class="edge"><title>Node2&#45;&gt;Node1</title>
<path fill="none" stroke="midnightblue" d="M77,-58.5322C77,-49.3606 77,-39.2449 77,-31.2931"/>
<polygon fill="midnightblue" stroke="midnightblue" points="73.5001,-58.6789 77,-68.679 80.5001,-58.679 73.5001,-58.6789"/>
</g>
<!-- Node3 -->
<g id="node3" class="node"><title>Node3</title>
<polygon fill="white" stroke="#bfbfbf" points="45.5,-136.5 45.5,-155.5 108.5,-155.5 108.5,-136.5 45.5,-136.5"/>
<text text-anchor="middle" x="77" y="-143.5" font-family="Helvetica,sans-Serif" font-size="10.00">Exception</text>
</g>
<!-- Node3&#45;&gt;Node2 -->
<g id="edge2" class="edge"><title>Node3&#45;&gt;Node2</title>
<path fill="none" stroke="midnightblue" d="M77,-126.371C77,-117.585 77,-107.272 77,-99.1408"/>
<polygon fill="midnightblue" stroke="midnightblue" points="73.5001,-126.403 77,-136.403 80.5001,-126.403 73.5001,-126.403"/>
</g>
</g>
</svg>
