<?xml version="1.0" encoding="UTF-8" standalone="no"?>
<!DOCTYPE svg PUBLIC "-//W3C//DTD SVG 1.1//EN"
 "http://www.w3.org/Graphics/SVG/1.1/DTD/svg11.dtd">
<!-- Generated by graphviz version 2.36.0 (20140111.2315)
 -->
<!-- Title: commands.information.BaseUserDefinedContainer.containsVariable Pages: 1 -->
<svg width="444pt" height="48pt"
 viewBox="0.00 0.00 444.00 48.00" xmlns="http://www.w3.org/2000/svg" xmlns:xlink="http://www.w3.org/1999/xlink">
<g id="graph0" class="graph" transform="scale(1 1) rotate(0) translate(4 44)">
<title>commands.information.BaseUserDefinedContainer.containsVariable</title>
<polygon fill="white" stroke="none" points="-4,4 -4,-44 440,-44 440,4 -4,4"/>
<!-- Node1 -->
<g id="node1" class="node"><title>Node1</title>
<polygon fill="#bfbfbf" stroke="black" points="0.5,-5 0.5,-35 203.5,-35 203.5,-5 0.5,-5"/>
<text text-anchor="start" x="8.5" y="-23" font-family="Helvetica,sans-Serif" font-size="10.00">commands.information.Base</text>
<text text-anchor="middle" x="102" y="-12" font-family="Helvetica,sans-Serif" font-size="10.00">UserDefinedContainer.containsVariable</text>
</g>
<!-- Node2 -->
<g id="node2" class="node"><title>Node2</title>
<g id="a_node2"><a xlink:href="../../d4/d05/classcommands_1_1information_1_1_base_user_defined_container.html#aadcdc884269f34620215ca47d2cc70b4" target="_top" xlink:title="commands.information.Base\lUserDefinedContainer.getAllVariables\lAndValues">
<polygon fill="white" stroke="black" points="240.5,0.5 240.5,-40.5 435.5,-40.5 435.5,0.5 240.5,0.5"/>
<text text-anchor="start" x="248.5" y="-28.5" font-family="Helvetica,sans-Serif" font-size="10.00">commands.information.Base</text>
<text text-anchor="start" x="248.5" y="-17.5" font-family="Helvetica,sans-Serif" font-size="10.00">UserDefinedContainer.getAllVariables</text>
<text text-anchor="middle" x="338" y="-6.5" font-family="Helvetica,sans-Serif" font-size="10.00">AndValues</text>
</a>
</g>
</g>
<!-- Node1&#45;&gt;Node2 -->
<g id="edge1" class="edge"><title>Node1&#45;&gt;Node2</title>
<path fill="none" stroke="midnightblue" d="M203.595,-20C212.32,-20 221.17,-20 229.944,-20"/>
<polygon fill="midnightblue" stroke="midnightblue" points="230.198,-23.5001 240.198,-20 230.197,-16.5001 230.198,-23.5001"/>
</g>
</g>
</svg>
