<?xml version="1.0" encoding="UTF-8" standalone="no"?>
<!DOCTYPE svg PUBLIC "-//W3C//DTD SVG 1.1//EN"
 "http://www.w3.org/Graphics/SVG/1.1/DTD/svg11.dtd">
<!-- Generated by graphviz version 2.36.0 (20140111.2315)
 -->
<!-- Title: commands.information.BaseUserDefinedContainer.getAllVariablesAndValues Pages: 1 -->
<!--zoomable 185 -->
<svg id="main" version="1.1" xmlns="http://www.w3.org/2000/svg" xmlns:xlink="http://www.w3.org/1999/xlink" xml:space="preserve" onload="init(evt)">
<style type="text/css"><![CDATA[
.edge:hover path { stroke: red; }
.edge:hover polygon { stroke: red; fill: red; }
]]></style>
<script type="text/javascript"><![CDATA[
var edges = document.getElementsByTagName('g');
if (edges && edges.length) {
  for (var i=0;i<edges.length;i++) {
    if (edges[i].id.substr(0,4)=='edge') {
      edges[i].setAttribute('class','edge');
    }
  }
}
]]></script>
        <defs>
                <circle id="rim" cx="0" cy="0" r="7"/>
                <circle id="rim2" cx="0" cy="0" r="3.5"/>
                <g id="zoomPlus">
                        <use xlink:href="#rim" fill="#404040">
                                <set attributeName="fill" to="#808080" begin="zoomplus.mouseover" end="zoomplus.mouseout"/>
                        </use>
                        <path d="M-4,0h8M0,-4v8" fill="none" stroke="white" stroke-width="1.5" pointer-events="none"/>
                </g>
                <g id="zoomMin">
                        <use xlink:href="#rim" fill="#404040">
                                <set attributeName="fill" to="#808080" begin="zoomminus.mouseover" end="zoomminus.mouseout"/>
                        </use>
                        <path d="M-4,0h8" fill="none" stroke="white" stroke-width="1.5" pointer-events="none"/>
                </g>
                <g id="dirArrow">
                        <path fill="none" stroke="white" stroke-width="1.5" d="M0,-3.0v7 M-2.5,-0.5L0,-3.0L2.5,-0.5"/>
                </g>
               <g id="resetDef">
                       <use xlink:href="#rim2" fill="#404040">
                               <set attributeName="fill" to="#808080" begin="reset.mouseover" end="reset.mouseout"/>
                       </use>
               </g>
        </defs>

<script type="text/javascript">
var viewWidth = 1086;
var viewHeight = 185;
var sectionId = 'dynsection-9';
</script>
<script xlink:href="../../svgpan.js"/>
<svg id="graph" class="graph">
<g id="viewport">
<title>commands.information.BaseUserDefinedContainer.getAllVariablesAndValues</title>
<polygon fill="white" stroke="none" points="-4,4 -4,-181 1082,-181 1082,4 -4,4"/>
<!-- Node1 -->
<g id="node1" class="node"><title>Node1</title>
<polygon fill="#bfbfbf" stroke="black" points="0.5,-42.5 0.5,-83.5 195.5,-83.5 195.5,-42.5 0.5,-42.5"/>
<text text-anchor="start" x="8.5" y="-71.5" font-family="Helvetica,sans-Serif" font-size="10.00">commands.information.Base</text>
<text text-anchor="start" x="8.5" y="-60.5" font-family="Helvetica,sans-Serif" font-size="10.00">UserDefinedContainer.getAllVariables</text>
<text text-anchor="middle" x="98" y="-49.5" font-family="Helvetica,sans-Serif" font-size="10.00">AndValues</text>
</g>
<!-- Node2 -->
<g id="node2" class="node"><title>Node2</title>
<g id="a_node2"><a xlink:href="../../d4/d05/classcommands_1_1information_1_1_base_user_defined_container.html#a297576d243f5cac8a61ecbc097115350" target="_top" xlink:title="commands.information.Base\lUserDefinedContainer.containsVariable">
<polygon fill="white" stroke="black" points="232.5,-73 232.5,-103 435.5,-103 435.5,-73 232.5,-73"/>
<text text-anchor="start" x="240.5" y="-91" font-family="Helvetica,sans-Serif" font-size="10.00">commands.information.Base</text>
<text text-anchor="middle" x="334" y="-80" font-family="Helvetica,sans-Serif" font-size="10.00">UserDefinedContainer.containsVariable</text>
</a>
</g>
</g>
<!-- Node1&#45;&gt;Node2 -->
<g id="edge1" class="edge"><title>Node1&#45;&gt;Node2</title>
<path fill="none" stroke="midnightblue" d="M205.498,-74.378C214.37,-75.3258 223.322,-76.2823 232.15,-77.2254"/>
<polygon fill="midnightblue" stroke="midnightblue" points="205.843,-70.895 195.528,-73.3128 205.099,-77.8554 205.843,-70.895"/>
</g>
<!-- Node7 -->
<g id="node7" class="node"><title>Node7</title>
<g id="a_node7"><a xlink:href="../../d9/d00/classcommunicator_1_1_main_controller.html#a93c06bf29d915465f289df78a653e44c" target="_top" xlink:title="communicator.MainController.send\lUserDefinedVariablesAndCommands">
<polygon fill="white" stroke="black" points="237,-24 237,-54 431,-54 431,-24 237,-24"/>
<text text-anchor="start" x="245" y="-42" font-family="Helvetica,sans-Serif" font-size="10.00">communicator.MainController.send</text>
<text text-anchor="middle" x="334" y="-31" font-family="Helvetica,sans-Serif" font-size="10.00">UserDefinedVariablesAndCommands</text>
</a>
</g>
</g>
<!-- Node1&#45;&gt;Node7 -->
<g id="edge6" class="edge"><title>Node1&#45;&gt;Node7</title>
<path fill="none" stroke="midnightblue" d="M205.785,-52.0477C216.089,-50.9909 226.5,-49.9231 236.694,-48.8775"/>
<polygon fill="midnightblue" stroke="midnightblue" points="205.118,-48.5976 195.528,-53.0997 205.833,-55.5611 205.118,-48.5976"/>
</g>
<!-- Node3 -->
<g id="node3" class="node"><title>Node3</title>
<g id="a_node3"><a xlink:href="../../d8/d84/classcommands_1_1control_commands_1_1_do_command.html#aa4653733a73cf8ab1e68e8cb66ddb817" target="_top" xlink:title="commands.controlCommands.\lDoCommand.onExecute">
<polygon fill="white" stroke="black" points="488.5,-147 488.5,-177 653.5,-177 653.5,-147 488.5,-147"/>
<text text-anchor="start" x="496.5" y="-165" font-family="Helvetica,sans-Serif" font-size="10.00">commands.controlCommands.</text>
<text text-anchor="middle" x="571" y="-154" font-family="Helvetica,sans-Serif" font-size="10.00">DoCommand.onExecute</text>
</a>
</g>
</g>
<!-- Node2&#45;&gt;Node3 -->
<g id="edge2" class="edge"><title>Node2&#45;&gt;Node3</title>
<path fill="none" stroke="midnightblue" d="M383.572,-106.626C409.601,-116.288 442.333,-127.932 472,-137 483.335,-140.464 495.505,-143.84 507.283,-146.933"/>
<polygon fill="midnightblue" stroke="midnightblue" points="384.538,-103.25 373.945,-103.029 382.088,-109.807 384.538,-103.25"/>
</g>
<!-- Node4 -->
<g id="node4" class="node"><title>Node4</title>
<g id="a_node4"><a xlink:href="../../da/dbb/classcommands_1_1control_commands_1_1_for_command.html#af28d867a7450dc1e8c13ab56e62570d6" target="_top" xlink:title="commands.controlCommands.\lForCommand.onExecute">
<polygon fill="white" stroke="black" points="488.5,-98 488.5,-128 653.5,-128 653.5,-98 488.5,-98"/>
<text text-anchor="start" x="496.5" y="-116" font-family="Helvetica,sans-Serif" font-size="10.00">commands.controlCommands.</text>
<text text-anchor="middle" x="571" y="-105" font-family="Helvetica,sans-Serif" font-size="10.00">ForCommand.onExecute</text>
</a>
</g>
</g>
<!-- Node2&#45;&gt;Node4 -->
<g id="edge3" class="edge"><title>Node2&#45;&gt;Node4</title>
<path fill="none" stroke="midnightblue" d="M446.023,-99.8109C460.268,-101.326 474.642,-102.855 488.301,-104.309"/>
<polygon fill="midnightblue" stroke="midnightblue" points="445.998,-96.2886 435.684,-98.711 445.257,-103.249 445.998,-96.2886"/>
</g>
<!-- Node5 -->
<g id="node5" class="node"><title>Node5</title>
<g id="a_node5"><a xlink:href="../../de/de4/classcommands_1_1variable_commands_1_1_created_command.html#aabf56d02933dddd1de08692a1b416c98" target="_top" xlink:title="commands.variableCommands.\lCreatedCommand.setNewVariables">
<polygon fill="white" stroke="black" points="477.5,-49 477.5,-79 664.5,-79 664.5,-49 477.5,-49"/>
<text text-anchor="start" x="485.5" y="-67" font-family="Helvetica,sans-Serif" font-size="10.00">commands.variableCommands.</text>
<text text-anchor="middle" x="571" y="-56" font-family="Helvetica,sans-Serif" font-size="10.00">CreatedCommand.setNewVariables</text>
</a>
</g>
</g>
<!-- Node2&#45;&gt;Node5 -->
<g id="edge4" class="edge"><title>Node2&#45;&gt;Node5</title>
<path fill="none" stroke="midnightblue" d="M445.775,-76.6868C456.336,-75.6083 466.969,-74.5223 477.332,-73.464"/>
<polygon fill="midnightblue" stroke="midnightblue" points="445.276,-73.2194 435.684,-77.7174 445.988,-80.1832 445.276,-73.2194"/>
</g>
<!-- Node6 -->
<g id="node6" class="node"><title>Node6</title>
<g id="a_node6"><a xlink:href="../../de/de4/classcommands_1_1variable_commands_1_1_created_command.html#a1a15495411a7de97970a003a442dd3a0" target="_top" xlink:title="commands.variableCommands.\lCreatedCommand.onExecute">
<polygon fill="white" stroke="black" points="709,-49 709,-79 879,-79 879,-49 709,-49"/>
<text text-anchor="start" x="717" y="-67" font-family="Helvetica,sans-Serif" font-size="10.00">commands.variableCommands.</text>
<text text-anchor="middle" x="794" y="-56" font-family="Helvetica,sans-Serif" font-size="10.00">CreatedCommand.onExecute</text>
</a>
</g>
</g>
<!-- Node5&#45;&gt;Node6 -->
<g id="edge5" class="edge"><title>Node5&#45;&gt;Node6</title>
<path fill="none" stroke="midnightblue" d="M674.772,-64C686.208,-64 697.755,-64 708.92,-64"/>
<polygon fill="midnightblue" stroke="midnightblue" points="674.763,-60.5001 664.763,-64 674.763,-67.5001 674.763,-60.5001"/>
</g>
<!-- Node8 -->
<g id="node8" class="node"><title>Node8</title>
<g id="a_node8"><a xlink:href="../../d9/d00/classcommunicator_1_1_main_controller.html#a93252865a008fed9217c345899e3869a" target="_top" xlink:title="communicator.MainController.execute\lCommand">
<polygon fill="white" stroke="black" points="472,-0 472,-30 670,-30 670,-0 472,-0"/>
<text text-anchor="start" x="480" y="-18" font-family="Helvetica,sans-Serif" font-size="10.00">communicator.MainController.execute</text>
<text text-anchor="middle" x="571" y="-7" font-family="Helvetica,sans-Serif" font-size="10.00">Command</text>
</a>
</g>
</g>
<!-- Node7&#45;&gt;Node8 -->
<g id="edge7" class="edge"><title>Node7&#45;&gt;Node8</title>
<path fill="none" stroke="midnightblue" d="M441.399,-28.1337C451.585,-27.0934 461.884,-26.0417 471.985,-25.0101"/>
<polygon fill="midnightblue" stroke="midnightblue" points="440.854,-24.6711 431.262,-29.169 441.565,-31.6348 440.854,-24.6711"/>
</g>
<!-- Node9 -->
<g id="node9" class="node"><title>Node9</title>
<g id="a_node9"><a xlink:href="../../d9/d00/classcommunicator_1_1_main_controller.html#af264c9f29730dceac2573645019a401a" target="_top" xlink:title="communicator.MainController.set\lTimers">
<polygon fill="white" stroke="black" points="706.5,-0 706.5,-30 881.5,-30 881.5,-0 706.5,-0"/>
<text text-anchor="start" x="714.5" y="-18" font-family="Helvetica,sans-Serif" font-size="10.00">communicator.MainController.set</text>
<text text-anchor="middle" x="794" y="-7" font-family="Helvetica,sans-Serif" font-size="10.00">Timers</text>
</a>
</g>
</g>
<!-- Node8&#45;&gt;Node9 -->
<g id="edge8" class="edge"><title>Node8&#45;&gt;Node9</title>
<path fill="none" stroke="midnightblue" d="M680.37,-15C689.034,-15 697.715,-15 706.2,-15"/>
<polygon fill="midnightblue" stroke="midnightblue" points="680.221,-11.5001 670.221,-15 680.221,-18.5001 680.221,-11.5001"/>
</g>
<!-- Node10 -->
<g id="node10" class="node"><title>Node10</title>
<g id="a_node10"><a xlink:href="../../d9/d00/classcommunicator_1_1_main_controller.html#aeeb4240e58af659d4b448cbfc3fbe76f" target="_top" xlink:title="communicator.MainController.\lMainController">
<polygon fill="white" stroke="black" points="918,-0 918,-30 1078,-30 1078,-0 918,-0"/>
<text text-anchor="start" x="926" y="-18" font-family="Helvetica,sans-Serif" font-size="10.00">communicator.MainController.</text>
<text text-anchor="middle" x="998" y="-7" font-family="Helvetica,sans-Serif" font-size="10.00">MainController</text>
</a>
</g>
</g>
<!-- Node9&#45;&gt;Node10 -->
<g id="edge9" class="edge"><title>Node9&#45;&gt;Node10</title>
<path fill="none" stroke="midnightblue" d="M891.806,-15C900.577,-15 909.39,-15 917.98,-15"/>
<polygon fill="midnightblue" stroke="midnightblue" points="891.545,-11.5001 881.545,-15 891.545,-18.5001 891.545,-11.5001"/>
</g>
</g>
</svg>
        <g id="navigator" transform="translate(0 0)" fill="#404254">
                <rect fill="#f2f5e9" fill-opacity="0.5" stroke="#606060" stroke-width=".5" x="0" y="0" width="60" height="60"/>
                <use id="zoomplus" xlink:href="#zoomPlus" x="17" y="9" onmousedown="handleZoom(evt,'in')"/>
                <use id="zoomminus" xlink:href="#zoomMin" x="42" y="9" onmousedown="handleZoom(evt,'out')"/>
                <use id="reset" xlink:href="#resetDef" x="30" y="36" onmousedown="handleReset()"/>
                <g id="arrowUp" xlink:href="#dirArrow" transform="translate(30 24)" onmousedown="handlePan(0,-1)">
                  <use xlink:href="#rim" fill="#404040">
                        <set attributeName="fill" to="#808080" begin="arrowUp.mouseover" end="arrowUp.mouseout"/>
                  </use>
                  <path fill="none" stroke="white" stroke-width="1.5" d="M0,-3.0v7 M-2.5,-0.5L0,-3.0L2.5,-0.5"/>
                </g>
                <g id="arrowRight" xlink:href="#dirArrow" transform="rotate(90) translate(36 -43)" onmousedown="handlePan(1,0)">
                  <use xlink:href="#rim" fill="#404040">
                        <set attributeName="fill" to="#808080" begin="arrowRight.mouseover" end="arrowRight.mouseout"/>
                  </use>
                  <path fill="none" stroke="white" stroke-width="1.5" d="M0,-3.0v7 M-2.5,-0.5L0,-3.0L2.5,-0.5"/>
                </g>
                <g id="arrowDown" xlink:href="#dirArrow" transform="rotate(180) translate(-30 -48)" onmousedown="handlePan(0,1)">
                  <use xlink:href="#rim" fill="#404040">
                        <set attributeName="fill" to="#808080" begin="arrowDown.mouseover" end="arrowDown.mouseout"/>
                  </use>
                  <path fill="none" stroke="white" stroke-width="1.5" d="M0,-3.0v7 M-2.5,-0.5L0,-3.0L2.5,-0.5"/>
                </g>
                <g id="arrowLeft" xlink:href="#dirArrow" transform="rotate(270) translate(-36 17)" onmousedown="handlePan(-1,0)">
                  <use xlink:href="#rim" fill="#404040">
                        <set attributeName="fill" to="#808080" begin="arrowLeft.mouseover" end="arrowLeft.mouseout"/>
                  </use>
                  <path fill="none" stroke="white" stroke-width="1.5" d="M0,-3.0v7 M-2.5,-0.5L0,-3.0L2.5,-0.5"/>
                </g>
        </g>
        <svg viewBox="0 0 15 15" width="100%" height="30px" preserveAspectRatio="xMaxYMin meet">
         <g id="arrow_out" transform="scale(0.3 0.3)">
          <a xlink:href="classcommands_1_1information_1_1_base_user_defined_container_aadcdc884269f34620215ca47d2cc70b4_icgraph_org.svg" target="_base">
           <rect id="button" ry="5" rx="5" y="6" x="6" height="38" width="38"
                fill="#f2f5e9" fill-opacity="0.5" stroke="#606060" stroke-width="1.0"/>
           <path id="arrow"
             d="M 11.500037,31.436501 C 11.940474,20.09759 22.043105,11.32322 32.158766,21.979434 L 37.068811,17.246167 C 37.068811,17.246167 37.088388,32 37.088388,32 L 22.160133,31.978069 C 22.160133,31.978069 26.997745,27.140456 26.997745,27.140456 C 18.528582,18.264221 13.291696,25.230495 11.500037,31.436501 z"
             style="fill:#404040;"/>
          </a>
         </g>
        </svg>
</svg>
