<?xml version="1.0" encoding="UTF-8" standalone="no"?>
<!DOCTYPE svg PUBLIC "-//W3C//DTD SVG 1.1//EN"
 "http://www.w3.org/Graphics/SVG/1.1/DTD/svg11.dtd">
<!-- Generated by graphviz version 2.36.0 (20140111.2315)
 -->
<!-- Title: commands.information.BaseUserDefinedContainer.addVariable Pages: 1 -->
<!--zoomable 392 -->
<svg id="main" version="1.1" xmlns="http://www.w3.org/2000/svg" xmlns:xlink="http://www.w3.org/1999/xlink" xml:space="preserve" onload="init(evt)">
<style type="text/css"><![CDATA[
.edge:hover path { stroke: red; }
.edge:hover polygon { stroke: red; fill: red; }
]]></style>
<script type="text/javascript"><![CDATA[
var edges = document.getElementsByTagName('g');
if (edges && edges.length) {
  for (var i=0;i<edges.length;i++) {
    if (edges[i].id.substr(0,4)=='edge') {
      edges[i].setAttribute('class','edge');
    }
  }
}
]]></script>
        <defs>
                <circle id="rim" cx="0" cy="0" r="7"/>
                <circle id="rim2" cx="0" cy="0" r="3.5"/>
                <g id="zoomPlus">
                        <use xlink:href="#rim" fill="#404040">
                                <set attributeName="fill" to="#808080" begin="zoomplus.mouseover" end="zoomplus.mouseout"/>
                        </use>
                        <path d="M-4,0h8M0,-4v8" fill="none" stroke="white" stroke-width="1.5" pointer-events="none"/>
                </g>
                <g id="zoomMin">
                        <use xlink:href="#rim" fill="#404040">
                                <set attributeName="fill" to="#808080" begin="zoomminus.mouseover" end="zoomminus.mouseout"/>
                        </use>
                        <path d="M-4,0h8" fill="none" stroke="white" stroke-width="1.5" pointer-events="none"/>
                </g>
                <g id="dirArrow">
                        <path fill="none" stroke="white" stroke-width="1.5" d="M0,-3.0v7 M-2.5,-0.5L0,-3.0L2.5,-0.5"/>
                </g>
               <g id="resetDef">
                       <use xlink:href="#rim2" fill="#404040">
                               <set attributeName="fill" to="#808080" begin="reset.mouseover" end="reset.mouseout"/>
                       </use>
               </g>
        </defs>

<script type="text/javascript">
var viewWidth = 626;
var viewHeight = 392;
var sectionId = 'dynsection-3';
</script>
<script xlink:href="../../svgpan.js"/>
<svg id="graph" class="graph">
<g id="viewport">
<title>commands.information.BaseUserDefinedContainer.addVariable</title>
<polygon fill="white" stroke="none" points="-4,4 -4,-388 622,-388 622,4 -4,4"/>
<!-- Node1 -->
<g id="node1" class="node"><title>Node1</title>
<polygon fill="#bfbfbf" stroke="black" points="0.5,-179 0.5,-209 181.5,-209 181.5,-179 0.5,-179"/>
<text text-anchor="start" x="8.5" y="-197" font-family="Helvetica,sans-Serif" font-size="10.00">commands.information.Base</text>
<text text-anchor="middle" x="91" y="-186" font-family="Helvetica,sans-Serif" font-size="10.00">UserDefinedContainer.addVariable</text>
</g>
<!-- Node2 -->
<g id="node2" class="node"><title>Node2</title>
<g id="a_node2"><a xlink:href="../../da/dbb/classcommands_1_1control_commands_1_1_for_command.html#a058fd01602e05516d684aec34648a0ec" target="_top" xlink:title="commands.controlCommands.\lForCommand.checkIfVariableExists\lPreviously">
<polygon fill="white" stroke="black" points="223,-342.5 223,-383.5 407,-383.5 407,-342.5 223,-342.5"/>
<text text-anchor="start" x="231" y="-371.5" font-family="Helvetica,sans-Serif" font-size="10.00">commands.controlCommands.</text>
<text text-anchor="start" x="231" y="-360.5" font-family="Helvetica,sans-Serif" font-size="10.00">ForCommand.checkIfVariableExists</text>
<text text-anchor="middle" x="315" y="-349.5" font-family="Helvetica,sans-Serif" font-size="10.00">Previously</text>
</a>
</g>
</g>
<!-- Node1&#45;&gt;Node2 -->
<g id="edge1" class="edge"><title>Node1&#45;&gt;Node2</title>
<path fill="none" stroke="midnightblue" d="M108.566,-217.486C130.506,-247.032 171.853,-297.575 218,-328 226.368,-333.517 235.718,-338.304 245.21,-342.413"/>
<polygon fill="midnightblue" stroke="midnightblue" points="111.119,-215.049 102.396,-209.036 105.466,-219.177 111.119,-215.049"/>
</g>
<!-- Node3 -->
<g id="node3" class="node"><title>Node3</title>
<g id="a_node3"><a xlink:href="../../da/dbb/classcommands_1_1control_commands_1_1_for_command.html#af28d867a7450dc1e8c13ab56e62570d6" target="_top" xlink:title="commands.controlCommands.\lForCommand.onExecute">
<polygon fill="white" stroke="black" points="450.5,-323 450.5,-353 615.5,-353 615.5,-323 450.5,-323"/>
<text text-anchor="start" x="458.5" y="-341" font-family="Helvetica,sans-Serif" font-size="10.00">commands.controlCommands.</text>
<text text-anchor="middle" x="533" y="-330" font-family="Helvetica,sans-Serif" font-size="10.00">ForCommand.onExecute</text>
</a>
</g>
</g>
<!-- Node1&#45;&gt;Node3 -->
<g id="edge7" class="edge"><title>Node1&#45;&gt;Node3</title>
<path fill="none" stroke="midnightblue" d="M113.019,-216.678C136.27,-240.2 176.03,-276.005 218,-294 258.6,-311.407 371.716,-324.283 450.46,-331.466"/>
<polygon fill="midnightblue" stroke="midnightblue" points="115.26,-213.962 105.788,-209.216 110.233,-218.833 115.26,-213.962"/>
</g>
<!-- Node4 -->
<g id="node4" class="node"><title>Node4</title>
<g id="a_node4"><a xlink:href="../../d8/d84/classcommands_1_1control_commands_1_1_do_command.html#a4da282e8dea638aa493cc151a8622a57" target="_top" xlink:title="commands.controlCommands.\lDoCommand.checkIfVariableExists\lPreviously">
<polygon fill="white" stroke="black" points="224,-244.5 224,-285.5 406,-285.5 406,-244.5 224,-244.5"/>
<text text-anchor="start" x="232" y="-273.5" font-family="Helvetica,sans-Serif" font-size="10.00">commands.controlCommands.</text>
<text text-anchor="start" x="232" y="-262.5" font-family="Helvetica,sans-Serif" font-size="10.00">DoCommand.checkIfVariableExists</text>
<text text-anchor="middle" x="315" y="-251.5" font-family="Helvetica,sans-Serif" font-size="10.00">Previously</text>
</a>
</g>
</g>
<!-- Node1&#45;&gt;Node4 -->
<g id="edge3" class="edge"><title>Node1&#45;&gt;Node4</title>
<path fill="none" stroke="midnightblue" d="M148.809,-212.169C179.624,-222.024 217.822,-234.241 249.723,-244.443"/>
<polygon fill="midnightblue" stroke="midnightblue" points="149.671,-208.77 139.08,-209.057 147.539,-215.437 149.671,-208.77"/>
</g>
<!-- Node5 -->
<g id="node5" class="node"><title>Node5</title>
<g id="a_node5"><a xlink:href="../../d8/d84/classcommands_1_1control_commands_1_1_do_command.html#aa4653733a73cf8ab1e68e8cb66ddb817" target="_top" xlink:title="commands.controlCommands.\lDoCommand.onExecute">
<polygon fill="white" stroke="black" points="450.5,-225 450.5,-255 615.5,-255 615.5,-225 450.5,-225"/>
<text text-anchor="start" x="458.5" y="-243" font-family="Helvetica,sans-Serif" font-size="10.00">commands.controlCommands.</text>
<text text-anchor="middle" x="533" y="-232" font-family="Helvetica,sans-Serif" font-size="10.00">DoCommand.onExecute</text>
</a>
</g>
</g>
<!-- Node1&#45;&gt;Node5 -->
<g id="edge6" class="edge"><title>Node1&#45;&gt;Node5</title>
<path fill="none" stroke="midnightblue" d="M191.913,-204.445C270.045,-212.614 377.311,-223.828 450.345,-231.463"/>
<polygon fill="midnightblue" stroke="midnightblue" points="191.881,-200.923 181.571,-203.364 191.153,-207.885 191.881,-200.923"/>
</g>
<!-- Node6 -->
<g id="node6" class="node"><title>Node6</title>
<g id="a_node6"><a xlink:href="../../d0/de5/classcommands_1_1variable_commands_1_1_set_variable_command.html#a91a026c4a6ca49e36b941845f7baf209" target="_top" xlink:title="commands.variableCommands.\lSetVariableCommand.onExecute">
<polygon fill="white" stroke="black" points="227.5,-157 227.5,-187 402.5,-187 402.5,-157 227.5,-157"/>
<text text-anchor="start" x="235.5" y="-175" font-family="Helvetica,sans-Serif" font-size="10.00">commands.variableCommands.</text>
<text text-anchor="middle" x="315" y="-164" font-family="Helvetica,sans-Serif" font-size="10.00">SetVariableCommand.onExecute</text>
</a>
</g>
</g>
<!-- Node1&#45;&gt;Node6 -->
<g id="edge5" class="edge"><title>Node1&#45;&gt;Node6</title>
<path fill="none" stroke="midnightblue" d="M191.95,-184.095C203.729,-182.928 215.675,-181.744 227.251,-180.597"/>
<polygon fill="midnightblue" stroke="midnightblue" points="191.262,-180.646 181.656,-185.115 191.952,-187.612 191.262,-180.646"/>
</g>
<!-- Node7 -->
<g id="node7" class="node"><title>Node7</title>
<g id="a_node7"><a xlink:href="../../de/de4/classcommands_1_1variable_commands_1_1_created_command.html#a803cceba070de496c5e1d0704f32202e" target="_top" xlink:title="commands.variableCommands.\lCreatedCommand.revertVariables">
<polygon fill="white" stroke="black" points="225,-108 225,-138 405,-138 405,-108 225,-108"/>
<text text-anchor="start" x="233" y="-126" font-family="Helvetica,sans-Serif" font-size="10.00">commands.variableCommands.</text>
<text text-anchor="middle" x="315" y="-115" font-family="Helvetica,sans-Serif" font-size="10.00">CreatedCommand.revertVariables</text>
</a>
</g>
</g>
<!-- Node1&#45;&gt;Node7 -->
<g id="edge8" class="edge"><title>Node1&#45;&gt;Node7</title>
<path fill="none" stroke="midnightblue" d="M139.635,-175.393C163.059,-166.556 191.818,-156.168 218,-148 229.18,-144.512 241.194,-141.113 252.81,-138.002"/>
<polygon fill="midnightblue" stroke="midnightblue" points="138.383,-172.125 130.277,-178.948 140.868,-178.669 138.383,-172.125"/>
</g>
<!-- Node9 -->
<g id="node9" class="node"><title>Node9</title>
<g id="a_node9"><a xlink:href="../../de/de4/classcommands_1_1variable_commands_1_1_created_command.html#aabf56d02933dddd1de08692a1b416c98" target="_top" xlink:title="commands.variableCommands.\lCreatedCommand.setNewVariables">
<polygon fill="white" stroke="black" points="221.5,-59 221.5,-89 408.5,-89 408.5,-59 221.5,-59"/>
<text text-anchor="start" x="229.5" y="-77" font-family="Helvetica,sans-Serif" font-size="10.00">commands.variableCommands.</text>
<text text-anchor="middle" x="315" y="-66" font-family="Helvetica,sans-Serif" font-size="10.00">CreatedCommand.setNewVariables</text>
</a>
</g>
</g>
<!-- Node1&#45;&gt;Node9 -->
<g id="edge10" class="edge"><title>Node1&#45;&gt;Node9</title>
<path fill="none" stroke="midnightblue" d="M115.254,-171.96C139.223,-150.389 178.557,-118.072 218,-99 225.908,-95.1763 234.475,-91.884 243.124,-89.063"/>
<polygon fill="midnightblue" stroke="midnightblue" points="112.758,-169.499 107.737,-178.829 117.48,-174.667 112.758,-169.499"/>
</g>
<!-- Node10 -->
<g id="node10" class="node"><title>Node10</title>
<g id="a_node10"><a xlink:href="../../d1/d08/classcommands_1_1variable_commands_1_1_variable_command_parse_test.html#a5510e9369499cabedeb2f6825b3e5f1a" target="_top" xlink:title="commands.variableCommands.\lVariableCommandParseTest.testThat\lVariableIsGet">
<polygon fill="white" stroke="black" points="218.5,0.5 218.5,-40.5 411.5,-40.5 411.5,0.5 218.5,0.5"/>
<text text-anchor="start" x="226.5" y="-28.5" font-family="Helvetica,sans-Serif" font-size="10.00">commands.variableCommands.</text>
<text text-anchor="start" x="226.5" y="-17.5" font-family="Helvetica,sans-Serif" font-size="10.00">VariableCommandParseTest.testThat</text>
<text text-anchor="middle" x="315" y="-6.5" font-family="Helvetica,sans-Serif" font-size="10.00">VariableIsGet</text>
</a>
</g>
</g>
<!-- Node1&#45;&gt;Node10 -->
<g id="edge12" class="edge"><title>Node1&#45;&gt;Node10</title>
<path fill="none" stroke="midnightblue" d="M106.669,-170.261C127.562,-138.373 168.854,-82.0181 218,-50 223.413,-46.4733 229.267,-43.3393 235.321,-40.5583"/>
<polygon fill="midnightblue" stroke="midnightblue" points="103.552,-168.638 101.09,-178.942 109.441,-172.422 103.552,-168.638"/>
</g>
<!-- Node2&#45;&gt;Node3 -->
<g id="edge2" class="edge"><title>Node2&#45;&gt;Node3</title>
<path fill="none" stroke="midnightblue" d="M417.382,-351.266C428.413,-349.989 439.536,-348.702 450.289,-347.457"/>
<polygon fill="midnightblue" stroke="midnightblue" points="416.822,-347.807 407.29,-352.434 417.626,-354.761 416.822,-347.807"/>
</g>
<!-- Node4&#45;&gt;Node5 -->
<g id="edge4" class="edge"><title>Node4&#45;&gt;Node5</title>
<path fill="none" stroke="midnightblue" d="M416.089,-253.416C427.574,-252.086 439.18,-250.743 450.382,-249.446"/>
<polygon fill="midnightblue" stroke="midnightblue" points="415.571,-249.952 406.039,-254.579 416.375,-256.906 415.571,-249.952"/>
</g>
<!-- Node8 -->
<g id="node8" class="node"><title>Node8</title>
<g id="a_node8"><a xlink:href="../../de/de4/classcommands_1_1variable_commands_1_1_created_command.html#a1a15495411a7de97970a003a442dd3a0" target="_top" xlink:title="commands.variableCommands.\lCreatedCommand.onExecute">
<polygon fill="white" stroke="black" points="448,-84 448,-114 618,-114 618,-84 448,-84"/>
<text text-anchor="start" x="456" y="-102" font-family="Helvetica,sans-Serif" font-size="10.00">commands.variableCommands.</text>
<text text-anchor="middle" x="533" y="-91" font-family="Helvetica,sans-Serif" font-size="10.00">CreatedCommand.onExecute</text>
</a>
</g>
</g>
<!-- Node7&#45;&gt;Node8 -->
<g id="edge9" class="edge"><title>Node7&#45;&gt;Node8</title>
<path fill="none" stroke="midnightblue" d="M415.132,-111.985C426.105,-110.766 437.201,-109.533 447.962,-108.338"/>
<polygon fill="midnightblue" stroke="midnightblue" points="414.655,-108.517 405.103,-113.1 415.428,-115.474 414.655,-108.517"/>
</g>
<!-- Node9&#45;&gt;Node8 -->
<g id="edge11" class="edge"><title>Node9&#45;&gt;Node8</title>
<path fill="none" stroke="midnightblue" d="M418.687,-85.8851C428.454,-87.0156 438.28,-88.1527 447.842,-89.2595"/>
<polygon fill="midnightblue" stroke="midnightblue" points="418.88,-82.3841 408.543,-84.711 418.075,-89.3377 418.88,-82.3841"/>
</g>
</g>
</svg>
        <g id="navigator" transform="translate(0 0)" fill="#404254">
                <rect fill="#f2f5e9" fill-opacity="0.5" stroke="#606060" stroke-width=".5" x="0" y="0" width="60" height="60"/>
                <use id="zoomplus" xlink:href="#zoomPlus" x="17" y="9" onmousedown="handleZoom(evt,'in')"/>
                <use id="zoomminus" xlink:href="#zoomMin" x="42" y="9" onmousedown="handleZoom(evt,'out')"/>
                <use id="reset" xlink:href="#resetDef" x="30" y="36" onmousedown="handleReset()"/>
                <g id="arrowUp" xlink:href="#dirArrow" transform="translate(30 24)" onmousedown="handlePan(0,-1)">
                  <use xlink:href="#rim" fill="#404040">
                        <set attributeName="fill" to="#808080" begin="arrowUp.mouseover" end="arrowUp.mouseout"/>
                  </use>
                  <path fill="none" stroke="white" stroke-width="1.5" d="M0,-3.0v7 M-2.5,-0.5L0,-3.0L2.5,-0.5"/>
                </g>
                <g id="arrowRight" xlink:href="#dirArrow" transform="rotate(90) translate(36 -43)" onmousedown="handlePan(1,0)">
                  <use xlink:href="#rim" fill="#404040">
                        <set attributeName="fill" to="#808080" begin="arrowRight.mouseover" end="arrowRight.mouseout"/>
                  </use>
                  <path fill="none" stroke="white" stroke-width="1.5" d="M0,-3.0v7 M-2.5,-0.5L0,-3.0L2.5,-0.5"/>
                </g>
                <g id="arrowDown" xlink:href="#dirArrow" transform="rotate(180) translate(-30 -48)" onmousedown="handlePan(0,1)">
                  <use xlink:href="#rim" fill="#404040">
                        <set attributeName="fill" to="#808080" begin="arrowDown.mouseover" end="arrowDown.mouseout"/>
                  </use>
                  <path fill="none" stroke="white" stroke-width="1.5" d="M0,-3.0v7 M-2.5,-0.5L0,-3.0L2.5,-0.5"/>
                </g>
                <g id="arrowLeft" xlink:href="#dirArrow" transform="rotate(270) translate(-36 17)" onmousedown="handlePan(-1,0)">
                  <use xlink:href="#rim" fill="#404040">
                        <set attributeName="fill" to="#808080" begin="arrowLeft.mouseover" end="arrowLeft.mouseout"/>
                  </use>
                  <path fill="none" stroke="white" stroke-width="1.5" d="M0,-3.0v7 M-2.5,-0.5L0,-3.0L2.5,-0.5"/>
                </g>
        </g>
        <svg viewBox="0 0 15 15" width="100%" height="30px" preserveAspectRatio="xMaxYMin meet">
         <g id="arrow_out" transform="scale(0.3 0.3)">
          <a xlink:href="classcommands_1_1information_1_1_base_user_defined_container_a649c0be733d7500611b12da612ac4913_icgraph_org.svg" target="_base">
           <rect id="button" ry="5" rx="5" y="6" x="6" height="38" width="38"
                fill="#f2f5e9" fill-opacity="0.5" stroke="#606060" stroke-width="1.0"/>
           <path id="arrow"
             d="M 11.500037,31.436501 C 11.940474,20.09759 22.043105,11.32322 32.158766,21.979434 L 37.068811,17.246167 C 37.068811,17.246167 37.088388,32 37.088388,32 L 22.160133,31.978069 C 22.160133,31.978069 26.997745,27.140456 26.997745,27.140456 C 18.528582,18.264221 13.291696,25.230495 11.500037,31.436501 z"
             style="fill:#404040;"/>
          </a>
         </g>
        </svg>
</svg>
