<?xml version="1.0" encoding="UTF-8" standalone="no"?>
<!DOCTYPE svg PUBLIC "-//W3C//DTD SVG 1.1//EN"
 "http://www.w3.org/Graphics/SVG/1.1/DTD/svg11.dtd">
<!-- Generated by graphviz version 2.36.0 (20140111.2315)
 -->
<!-- Title: commandParser.CommandFactory.setCommandToClassRelation Pages: 1 -->
<svg width="690pt" height="1356pt"
 viewBox="0.00 0.00 690.00 1356.00" xmlns="http://www.w3.org/2000/svg" xmlns:xlink="http://www.w3.org/1999/xlink">
<g id="graph0" class="graph" transform="scale(1 1) rotate(0) translate(4 1352)">
<title>commandParser.CommandFactory.setCommandToClassRelation</title>
<polygon fill="white" stroke="none" points="-4,4 -4,-1352 686,-1352 686,4 -4,4"/>
<!-- Node1 -->
<g id="node1" class="node"><title>Node1</title>
<polygon fill="#bfbfbf" stroke="black" points="0.5,-1156 0.5,-1186 199.5,-1186 199.5,-1156 0.5,-1156"/>
<text text-anchor="start" x="8.5" y="-1174" font-family="Helvetica,sans-Serif" font-size="10.00">commandParser.CommandFactory.set</text>
<text text-anchor="middle" x="100" y="-1163" font-family="Helvetica,sans-Serif" font-size="10.00">CommandToClassRelation</text>
</g>
<!-- Node2 -->
<g id="node2" class="node"><title>Node2</title>
<g id="a_node2"><a xlink:href="../../d9/d00/classcommunicator_1_1_main_controller.html#aeeb4240e58af659d4b448cbfc3fbe76f" target="_top" xlink:title="communicator.MainController.\lMainController">
<polygon fill="white" stroke="black" points="264,-1318 264,-1348 424,-1348 424,-1318 264,-1318"/>
<text text-anchor="start" x="272" y="-1336" font-family="Helvetica,sans-Serif" font-size="10.00">communicator.MainController.</text>
<text text-anchor="middle" x="344" y="-1325" font-family="Helvetica,sans-Serif" font-size="10.00">MainController</text>
</a>
</g>
</g>
<!-- Node1&#45;&gt;Node2 -->
<g id="edge1" class="edge"><title>Node1&#45;&gt;Node2</title>
<path fill="none" stroke="midnightblue" d="M117.427,-1194.53C140.327,-1225.49 184.84,-1279.31 236,-1308 244.652,-1312.85 254.204,-1316.77 263.933,-1319.92"/>
<polygon fill="midnightblue" stroke="midnightblue" points="119.998,-1192.12 111.291,-1186.08 114.333,-1196.23 119.998,-1192.12"/>
</g>
<!-- Node3 -->
<g id="node3" class="node"><title>Node3</title>
<g id="a_node3"><a xlink:href="../../d7/db4/classcommands_1_1control_commands_1_1_container_test.html#a5af8d678d8f10708dd2a6051aa069b62" target="_top" xlink:title="commands.controlCommands.\lContainerTest.processInput">
<polygon fill="white" stroke="black" points="261.5,-1269 261.5,-1299 426.5,-1299 426.5,-1269 261.5,-1269"/>
<text text-anchor="start" x="269.5" y="-1287" font-family="Helvetica,sans-Serif" font-size="10.00">commands.controlCommands.</text>
<text text-anchor="middle" x="344" y="-1276" font-family="Helvetica,sans-Serif" font-size="10.00">ContainerTest.processInput</text>
</a>
</g>
</g>
<!-- Node1&#45;&gt;Node3 -->
<g id="edge2" class="edge"><title>Node1&#45;&gt;Node3</title>
<path fill="none" stroke="midnightblue" d="M127.376,-1192.22C153.499,-1212.22 195.371,-1241.65 236,-1259 244.947,-1262.82 254.576,-1266.11 264.26,-1268.93"/>
<polygon fill="midnightblue" stroke="midnightblue" points="129.516,-1189.45 119.47,-1186.08 125.224,-1194.98 129.516,-1189.45"/>
</g>
<!-- Node5 -->
<g id="node5" class="node"><title>Node5</title>
<g id="a_node5"><a xlink:href="../../dd/d30/classtests_1_1_ask_test.html#a8d408863dc53f60d7a73c7dad924325a" target="_top" xlink:title="tests.AskTest.processInput">
<polygon fill="white" stroke="black" points="272,-1230.5 272,-1249.5 416,-1249.5 416,-1230.5 272,-1230.5"/>
<text text-anchor="middle" x="344" y="-1237.5" font-family="Helvetica,sans-Serif" font-size="10.00">tests.AskTest.processInput</text>
</a>
</g>
</g>
<!-- Node1&#45;&gt;Node5 -->
<g id="edge4" class="edge"><title>Node1&#45;&gt;Node5</title>
<path fill="none" stroke="midnightblue" d="M146.962,-1189.8C172.794,-1199.83 205.82,-1211.76 236,-1220 250.949,-1224.08 267.3,-1227.6 282.621,-1230.5"/>
<polygon fill="midnightblue" stroke="midnightblue" points="148.022,-1186.46 137.435,-1186.06 145.465,-1192.97 148.022,-1186.46"/>
</g>
<!-- Node7 -->
<g id="node7" class="node"><title>Node7</title>
<g id="a_node7"><a xlink:href="../../d9/d76/classtests_1_1_turtle_commands_test.html#a26b7fee4439a47d622fb58826d281a1f" target="_top" xlink:title="tests.TurtleCommandsTest.process\lInput">
<polygon fill="white" stroke="black" points="252,-1181 252,-1211 436,-1211 436,-1181 252,-1181"/>
<text text-anchor="start" x="260" y="-1199" font-family="Helvetica,sans-Serif" font-size="10.00">tests.TurtleCommandsTest.process</text>
<text text-anchor="middle" x="344" y="-1188" font-family="Helvetica,sans-Serif" font-size="10.00">Input</text>
</a>
</g>
</g>
<!-- Node1&#45;&gt;Node7 -->
<g id="edge6" class="edge"><title>Node1&#45;&gt;Node7</title>
<path fill="none" stroke="midnightblue" d="M209.949,-1182.26C223.982,-1183.7 238.234,-1185.18 251.938,-1186.59"/>
<polygon fill="midnightblue" stroke="midnightblue" points="210.086,-1178.75 199.78,-1181.2 209.367,-1185.71 210.086,-1178.75"/>
</g>
<!-- Node9 -->
<g id="node9" class="node"><title>Node9</title>
<g id="a_node9"><a xlink:href="../../d1/d08/classcommands_1_1variable_commands_1_1_variable_command_parse_test.html#a3536cbcf387f53c8d880c166c15e10d2" target="_top" xlink:title="commands.variableCommands.\lVariableCommandParseTest.processInput">
<polygon fill="white" stroke="black" points="236.5,-1132 236.5,-1162 451.5,-1162 451.5,-1132 236.5,-1132"/>
<text text-anchor="start" x="244.5" y="-1150" font-family="Helvetica,sans-Serif" font-size="10.00">commands.variableCommands.</text>
<text text-anchor="middle" x="344" y="-1139" font-family="Helvetica,sans-Serif" font-size="10.00">VariableCommandParseTest.processInput</text>
</a>
</g>
</g>
<!-- Node1&#45;&gt;Node9 -->
<g id="edge8" class="edge"><title>Node1&#45;&gt;Node9</title>
<path fill="none" stroke="midnightblue" d="M209.986,-1160.19C218.722,-1159.33 227.543,-1158.45 236.264,-1157.59"/>
<polygon fill="midnightblue" stroke="midnightblue" points="209.385,-1156.73 199.78,-1161.2 210.076,-1163.7 209.385,-1156.73"/>
</g>
<!-- Node11 -->
<g id="node11" class="node"><title>Node11</title>
<g id="a_node11"><a xlink:href="../../d0/d33/classtests_1_1_to_command_test.html#a4eaf8f664432093c7eb1c552923097c3" target="_top" xlink:title="tests.ToCommandTest.process\lInput">
<polygon fill="white" stroke="black" points="262.5,-1081 262.5,-1111 425.5,-1111 425.5,-1081 262.5,-1081"/>
<text text-anchor="start" x="270.5" y="-1099" font-family="Helvetica,sans-Serif" font-size="10.00">tests.ToCommandTest.process</text>
<text text-anchor="middle" x="344" y="-1088" font-family="Helvetica,sans-Serif" font-size="10.00">Input</text>
</a>
</g>
</g>
<!-- Node1&#45;&gt;Node11 -->
<g id="edge10" class="edge"><title>Node1&#45;&gt;Node11</title>
<path fill="none" stroke="midnightblue" d="M149.698,-1152.43C175.209,-1143.02 207.082,-1131.77 236,-1123 249.934,-1118.78 265.025,-1114.68 279.358,-1111.01"/>
<polygon fill="midnightblue" stroke="midnightblue" points="148.409,-1149.18 140.252,-1155.94 150.845,-1155.74 148.409,-1149.18"/>
</g>
<!-- Node13 -->
<g id="node13" class="node"><title>Node13</title>
<g id="a_node13"><a xlink:href="../../d3/d0c/classtests_1_1_ask_with_test.html#a9d43a79de385803c300e7b2cf0c13b00" target="_top" xlink:title="tests.AskWithTest.process\lInput">
<polygon fill="white" stroke="black" points="274,-1029 274,-1059 414,-1059 414,-1029 274,-1029"/>
<text text-anchor="start" x="282" y="-1047" font-family="Helvetica,sans-Serif" font-size="10.00">tests.AskWithTest.process</text>
<text text-anchor="middle" x="344" y="-1036" font-family="Helvetica,sans-Serif" font-size="10.00">Input</text>
</a>
</g>
</g>
<!-- Node1&#45;&gt;Node13 -->
<g id="edge12" class="edge"><title>Node1&#45;&gt;Node13</title>
<path fill="none" stroke="midnightblue" d="M124.843,-1149.12C150.497,-1126.69 193.378,-1092.29 236,-1072 247.876,-1066.35 261.057,-1061.71 273.996,-1057.96"/>
<polygon fill="midnightblue" stroke="midnightblue" points="122.3,-1146.7 117.141,-1155.95 126.945,-1151.93 122.3,-1146.7"/>
</g>
<!-- Node16 -->
<g id="node16" class="node"><title>Node16</title>
<g id="a_node16"><a xlink:href="../../de/d2e/classtests_1_1_expression_command_parse_test.html#ad0311bdfc0b2540e3206d6cd41a23d13" target="_top" xlink:title="tests.ExpressionCommandParse\lTest.processInput">
<polygon fill="white" stroke="black" points="258,-490 258,-520 430,-520 430,-490 258,-490"/>
<text text-anchor="start" x="266" y="-508" font-family="Helvetica,sans-Serif" font-size="10.00">tests.ExpressionCommandParse</text>
<text text-anchor="middle" x="344" y="-497" font-family="Helvetica,sans-Serif" font-size="10.00">Test.processInput</text>
</a>
</g>
</g>
<!-- Node1&#45;&gt;Node16 -->
<g id="edge15" class="edge"><title>Node1&#45;&gt;Node16</title>
<path fill="none" stroke="midnightblue" d="M109.936,-1146.41C149.227,-1038.28 306.068,-606.639 337.499,-520.138"/>
<polygon fill="midnightblue" stroke="midnightblue" points="106.635,-1145.24 106.509,-1155.84 113.214,-1147.63 106.635,-1145.24"/>
</g>
<!-- Node4 -->
<g id="node4" class="node"><title>Node4</title>
<g id="a_node4"><a xlink:href="../../d7/db4/classcommands_1_1control_commands_1_1_container_test.html#a5ff9cdf49eafe0435d4b9e0ce3eb38a9" target="_top" xlink:title="commands.controlCommands.\lContainerTest.testThatIfWorks">
<polygon fill="white" stroke="black" points="502.5,-1284 502.5,-1314 667.5,-1314 667.5,-1284 502.5,-1284"/>
<text text-anchor="start" x="510.5" y="-1302" font-family="Helvetica,sans-Serif" font-size="10.00">commands.controlCommands.</text>
<text text-anchor="middle" x="585" y="-1291" font-family="Helvetica,sans-Serif" font-size="10.00">ContainerTest.testThatIfWorks</text>
</a>
</g>
</g>
<!-- Node3&#45;&gt;Node4 -->
<g id="edge3" class="edge"><title>Node3&#45;&gt;Node4</title>
<path fill="none" stroke="midnightblue" d="M436.742,-1289.76C458.354,-1291.11 481.248,-1292.55 502.38,-1293.88"/>
<polygon fill="midnightblue" stroke="midnightblue" points="436.781,-1286.25 426.582,-1289.12 436.343,-1293.24 436.781,-1286.25"/>
</g>
<!-- Node6 -->
<g id="node6" class="node"><title>Node6</title>
<g id="a_node6"><a xlink:href="../../dd/d30/classtests_1_1_ask_test.html#a35ae726a31ba673fc7d80bcbc4a69e24" target="_top" xlink:title="tests.AskTest.testThatAsk\lCreatesTurtles">
<polygon fill="white" stroke="black" points="515,-1235 515,-1265 655,-1265 655,-1235 515,-1235"/>
<text text-anchor="start" x="523" y="-1253" font-family="Helvetica,sans-Serif" font-size="10.00">tests.AskTest.testThatAsk</text>
<text text-anchor="middle" x="585" y="-1242" font-family="Helvetica,sans-Serif" font-size="10.00">CreatesTurtles</text>
</a>
</g>
</g>
<!-- Node5&#45;&gt;Node6 -->
<g id="edge5" class="edge"><title>Node5&#45;&gt;Node6</title>
<path fill="none" stroke="midnightblue" d="M426.108,-1243.39C454.944,-1244.6 487.116,-1245.95 514.858,-1247.11"/>
<polygon fill="midnightblue" stroke="midnightblue" points="426.198,-1239.89 416.061,-1242.97 425.906,-1246.89 426.198,-1239.89"/>
</g>
<!-- Node8 -->
<g id="node8" class="node"><title>Node8</title>
<g id="a_node8"><a xlink:href="../../d9/d76/classtests_1_1_turtle_commands_test.html#a7f4c719ee0d2a11ff4b04f38b5cda951" target="_top" xlink:title="tests.TurtleCommandsTest.test\lToParsing">
<polygon fill="white" stroke="black" points="502.5,-1186 502.5,-1216 667.5,-1216 667.5,-1186 502.5,-1186"/>
<text text-anchor="start" x="510.5" y="-1204" font-family="Helvetica,sans-Serif" font-size="10.00">tests.TurtleCommandsTest.test</text>
<text text-anchor="middle" x="585" y="-1193" font-family="Helvetica,sans-Serif" font-size="10.00">ToParsing</text>
</a>
</g>
</g>
<!-- Node7&#45;&gt;Node8 -->
<g id="edge7" class="edge"><title>Node7&#45;&gt;Node8</title>
<path fill="none" stroke="midnightblue" d="M446.067,-1198.11C464.802,-1198.51 484.155,-1198.91 502.226,-1199.29"/>
<polygon fill="midnightblue" stroke="midnightblue" points="446.108,-1194.61 436.037,-1197.9 445.962,-1201.61 446.108,-1194.61"/>
</g>
<!-- Node10 -->
<g id="node10" class="node"><title>Node10</title>
<g id="a_node10"><a xlink:href="../../d1/d08/classcommands_1_1variable_commands_1_1_variable_command_parse_test.html#a5510e9369499cabedeb2f6825b3e5f1a" target="_top" xlink:title="commands.variableCommands.\lVariableCommandParseTest.testThat\lVariableIsGet">
<polygon fill="white" stroke="black" points="488.5,-1126.5 488.5,-1167.5 681.5,-1167.5 681.5,-1126.5 488.5,-1126.5"/>
<text text-anchor="start" x="496.5" y="-1155.5" font-family="Helvetica,sans-Serif" font-size="10.00">commands.variableCommands.</text>
<text text-anchor="start" x="496.5" y="-1144.5" font-family="Helvetica,sans-Serif" font-size="10.00">VariableCommandParseTest.testThat</text>
<text text-anchor="middle" x="585" y="-1133.5" font-family="Helvetica,sans-Serif" font-size="10.00">VariableIsGet</text>
</a>
</g>
</g>
<!-- Node9&#45;&gt;Node10 -->
<g id="edge9" class="edge"><title>Node9&#45;&gt;Node10</title>
<path fill="none" stroke="midnightblue" d="M461.606,-1147C470.514,-1147 479.443,-1147 488.195,-1147"/>
<polygon fill="midnightblue" stroke="midnightblue" points="461.569,-1143.5 451.569,-1147 461.569,-1150.5 461.569,-1143.5"/>
</g>
<!-- Node12 -->
<g id="node12" class="node"><title>Node12</title>
<g id="a_node12"><a xlink:href="../../d0/d33/classtests_1_1_to_command_test.html#a682364d0f31489938f7ab8e4504e7c7e" target="_top" xlink:title="tests.ToCommandTest.test\lToParsing">
<polygon fill="white" stroke="black" points="513,-1078 513,-1108 657,-1108 657,-1078 513,-1078"/>
<text text-anchor="start" x="521" y="-1096" font-family="Helvetica,sans-Serif" font-size="10.00">tests.ToCommandTest.test</text>
<text text-anchor="middle" x="585" y="-1085" font-family="Helvetica,sans-Serif" font-size="10.00">ToParsing</text>
</a>
</g>
</g>
<!-- Node11&#45;&gt;Node12 -->
<g id="edge11" class="edge"><title>Node11&#45;&gt;Node12</title>
<path fill="none" stroke="midnightblue" d="M435.662,-1094.86C461.253,-1094.54 488.722,-1094.2 512.98,-1093.89"/>
<polygon fill="midnightblue" stroke="midnightblue" points="435.537,-1091.36 425.581,-1094.99 435.624,-1098.36 435.537,-1091.36"/>
</g>
<!-- Node14 -->
<g id="node14" class="node"><title>Node14</title>
<g id="a_node14"><a xlink:href="../../d3/d0c/classtests_1_1_ask_with_test.html#a54f2ed263239909256bb93e91afc3ecc" target="_top" xlink:title="tests.AskWithTest.testAlways\lTrueAskWith">
<polygon fill="white" stroke="black" points="508,-1029 508,-1059 662,-1059 662,-1029 508,-1029"/>
<text text-anchor="start" x="516" y="-1047" font-family="Helvetica,sans-Serif" font-size="10.00">tests.AskWithTest.testAlways</text>
<text text-anchor="middle" x="585" y="-1036" font-family="Helvetica,sans-Serif" font-size="10.00">TrueAskWith</text>
</a>
</g>
</g>
<!-- Node13&#45;&gt;Node14 -->
<g id="edge13" class="edge"><title>Node13&#45;&gt;Node14</title>
<path fill="none" stroke="midnightblue" d="M424.286,-1044C451.217,-1044 481.233,-1044 507.909,-1044"/>
<polygon fill="midnightblue" stroke="midnightblue" points="424.129,-1040.5 414.129,-1044 424.129,-1047.5 424.129,-1040.5"/>
</g>
<!-- Node15 -->
<g id="node15" class="node"><title>Node15</title>
<g id="a_node15"><a xlink:href="../../d3/d0c/classtests_1_1_ask_with_test.html#a49a8519276b23ed93a3f90d7c2058fc5" target="_top" xlink:title="tests.AskWithTest.testXCor\lAskWith">
<polygon fill="white" stroke="black" points="513.5,-980 513.5,-1010 656.5,-1010 656.5,-980 513.5,-980"/>
<text text-anchor="start" x="521.5" y="-998" font-family="Helvetica,sans-Serif" font-size="10.00">tests.AskWithTest.testXCor</text>
<text text-anchor="middle" x="585" y="-987" font-family="Helvetica,sans-Serif" font-size="10.00">AskWith</text>
</a>
</g>
</g>
<!-- Node13&#45;&gt;Node15 -->
<g id="edge14" class="edge"><title>Node13&#45;&gt;Node15</title>
<path fill="none" stroke="midnightblue" d="M424.161,-1027.77C452.977,-1021.86 485.339,-1015.23 513.368,-1009.48"/>
<polygon fill="midnightblue" stroke="midnightblue" points="423.222,-1024.39 414.129,-1029.83 424.628,-1031.25 423.222,-1024.39"/>
</g>
<!-- Node17 -->
<g id="node17" class="node"><title>Node17</title>
<g id="a_node17"><a xlink:href="../../de/d2e/classtests_1_1_expression_command_parse_test.html#a9e9aaaa5a415abbcc708a4be262e1199" target="_top" xlink:title="tests.ExpressionCommandParse\lTest.testSumParses">
<polygon fill="white" stroke="black" points="499,-931 499,-961 671,-961 671,-931 499,-931"/>
<text text-anchor="start" x="507" y="-949" font-family="Helvetica,sans-Serif" font-size="10.00">tests.ExpressionCommandParse</text>
<text text-anchor="middle" x="585" y="-938" font-family="Helvetica,sans-Serif" font-size="10.00">Test.testSumParses</text>
</a>
</g>
</g>
<!-- Node16&#45;&gt;Node17 -->
<g id="edge16" class="edge"><title>Node16&#45;&gt;Node17</title>
<path fill="none" stroke="midnightblue" d="M345.81,-530.185C349.547,-602.432 370.501,-812.145 488,-921 492.169,-924.863 496.859,-928.145 501.865,-930.932"/>
<polygon fill="midnightblue" stroke="midnightblue" points="349.306,-530.011 345.36,-520.178 342.313,-530.325 349.306,-530.011"/>
</g>
<!-- Node18 -->
<g id="node18" class="node"><title>Node18</title>
<g id="a_node18"><a xlink:href="../../de/d2e/classtests_1_1_expression_command_parse_test.html#a9c09cab3c9f9a85ec6be2f101780ce25" target="_top" xlink:title="tests.ExpressionCommandParse\lTest.testDifference">
<polygon fill="white" stroke="black" points="499,-882 499,-912 671,-912 671,-882 499,-882"/>
<text text-anchor="start" x="507" y="-900" font-family="Helvetica,sans-Serif" font-size="10.00">tests.ExpressionCommandParse</text>
<text text-anchor="middle" x="585" y="-889" font-family="Helvetica,sans-Serif" font-size="10.00">Test.testDifference</text>
</a>
</g>
</g>
<!-- Node16&#45;&gt;Node18 -->
<g id="edge17" class="edge"><title>Node16&#45;&gt;Node18</title>
<path fill="none" stroke="midnightblue" d="M347.138,-530.327C354.152,-596.904 382.492,-778.147 488,-872 492.375,-875.892 497.282,-879.191 502.501,-881.986"/>
<polygon fill="midnightblue" stroke="midnightblue" points="350.614,-529.92 346.155,-520.309 343.648,-530.603 350.614,-529.92"/>
</g>
<!-- Node19 -->
<g id="node19" class="node"><title>Node19</title>
<g id="a_node19"><a xlink:href="../../de/d2e/classtests_1_1_expression_command_parse_test.html#a2d4c7f15e08a1ebac70ccce175caafa8" target="_top" xlink:title="tests.ExpressionCommandParse\lTest.testProduct">
<polygon fill="white" stroke="black" points="499,-833 499,-863 671,-863 671,-833 499,-833"/>
<text text-anchor="start" x="507" y="-851" font-family="Helvetica,sans-Serif" font-size="10.00">tests.ExpressionCommandParse</text>
<text text-anchor="middle" x="585" y="-840" font-family="Helvetica,sans-Serif" font-size="10.00">Test.testProduct</text>
</a>
</g>
</g>
<!-- Node16&#45;&gt;Node19 -->
<g id="edge18" class="edge"><title>Node16&#45;&gt;Node19</title>
<path fill="none" stroke="midnightblue" d="M348.799,-530.162C359.258,-590.398 394.19,-743.747 488,-823 492.605,-826.89 497.745,-830.184 503.187,-832.971"/>
<polygon fill="midnightblue" stroke="midnightblue" points="352.209,-529.331 347.123,-520.038 345.303,-530.475 352.209,-529.331"/>
</g>
<!-- Node20 -->
<g id="node20" class="node"><title>Node20</title>
<g id="a_node20"><a xlink:href="../../de/d2e/classtests_1_1_expression_command_parse_test.html#acf648d3a09aa6a2a05c1bb2b405eb3d3" target="_top" xlink:title="tests.ExpressionCommandParse\lTest.testQuotient">
<polygon fill="white" stroke="black" points="499,-784 499,-814 671,-814 671,-784 499,-784"/>
<text text-anchor="start" x="507" y="-802" font-family="Helvetica,sans-Serif" font-size="10.00">tests.ExpressionCommandParse</text>
<text text-anchor="middle" x="585" y="-791" font-family="Helvetica,sans-Serif" font-size="10.00">Test.testQuotient</text>
</a>
</g>
</g>
<!-- Node16&#45;&gt;Node20 -->
<g id="edge19" class="edge"><title>Node16&#45;&gt;Node20</title>
<path fill="none" stroke="midnightblue" d="M351.068,-530.279C365.272,-583.839 405.872,-709.137 488,-774 492.866,-777.843 498.261,-781.099 503.942,-783.858"/>
<polygon fill="midnightblue" stroke="midnightblue" points="354.376,-529.092 348.503,-520.274 347.596,-530.83 354.376,-529.092"/>
</g>
<!-- Node21 -->
<g id="node21" class="node"><title>Node21</title>
<g id="a_node21"><a xlink:href="../../de/d2e/classtests_1_1_expression_command_parse_test.html#adc00834efe87e3bd1a9763276552daf8" target="_top" xlink:title="tests.ExpressionCommandParse\lTest.testRemainder">
<polygon fill="white" stroke="black" points="499,-735 499,-765 671,-765 671,-735 499,-735"/>
<text text-anchor="start" x="507" y="-753" font-family="Helvetica,sans-Serif" font-size="10.00">tests.ExpressionCommandParse</text>
<text text-anchor="middle" x="585" y="-742" font-family="Helvetica,sans-Serif" font-size="10.00">Test.testRemainder</text>
</a>
</g>
</g>
<!-- Node16&#45;&gt;Node21 -->
<g id="edge20" class="edge"><title>Node16&#45;&gt;Node21</title>
<path fill="none" stroke="midnightblue" d="M353.915,-529.467C371.879,-575.222 416.885,-673.736 488,-725 493.309,-728.827 499.157,-732.069 505.267,-734.815"/>
<polygon fill="midnightblue" stroke="midnightblue" points="357.148,-528.122 350.304,-520.034 350.611,-530.624 357.148,-528.122"/>
</g>
<!-- Node22 -->
<g id="node22" class="node"><title>Node22</title>
<g id="a_node22"><a xlink:href="../../de/d2e/classtests_1_1_expression_command_parse_test.html#adaa43c42c9c25f456ee97a540afdc3e8" target="_top" xlink:title="tests.ExpressionCommandParse\lTest.testRandom">
<polygon fill="white" stroke="black" points="499,-686 499,-716 671,-716 671,-686 499,-686"/>
<text text-anchor="start" x="507" y="-704" font-family="Helvetica,sans-Serif" font-size="10.00">tests.ExpressionCommandParse</text>
<text text-anchor="middle" x="585" y="-693" font-family="Helvetica,sans-Serif" font-size="10.00">Test.testRandom</text>
</a>
</g>
</g>
<!-- Node16&#45;&gt;Node22 -->
<g id="edge21" class="edge"><title>Node16&#45;&gt;Node22</title>
<path fill="none" stroke="midnightblue" d="M358.162,-528.702C380.093,-565.938 427.719,-637.824 488,-676 494.111,-679.87 500.801,-683.143 507.715,-685.911"/>
<polygon fill="midnightblue" stroke="midnightblue" points="361.181,-526.931 353.148,-520.023 355.12,-530.433 361.181,-526.931"/>
</g>
<!-- Node23 -->
<g id="node23" class="node"><title>Node23</title>
<g id="a_node23"><a xlink:href="../../de/d2e/classtests_1_1_expression_command_parse_test.html#aad5b7d0a5182da6dd0abba756ad0e751" target="_top" xlink:title="tests.ExpressionCommandParse\lTest.testMinus">
<polygon fill="white" stroke="black" points="499,-637 499,-667 671,-667 671,-637 499,-637"/>
<text text-anchor="start" x="507" y="-655" font-family="Helvetica,sans-Serif" font-size="10.00">tests.ExpressionCommandParse</text>
<text text-anchor="middle" x="585" y="-644" font-family="Helvetica,sans-Serif" font-size="10.00">Test.testMinus</text>
</a>
</g>
</g>
<!-- Node16&#45;&gt;Node23 -->
<g id="edge22" class="edge"><title>Node16&#45;&gt;Node23</title>
<path fill="none" stroke="midnightblue" d="M365.41,-527.834C391.275,-555.377 438.485,-601.188 488,-627 495.407,-630.861 503.453,-634.157 511.63,-636.962"/>
<polygon fill="midnightblue" stroke="midnightblue" points="367.753,-525.212 358.393,-520.248 362.614,-529.965 367.753,-525.212"/>
</g>
<!-- Node24 -->
<g id="node24" class="node"><title>Node24</title>
<g id="a_node24"><a xlink:href="../../de/d2e/classtests_1_1_expression_command_parse_test.html#ae638345ab0fe49a27e67c764ed342a80" target="_top" xlink:title="tests.ExpressionCommandParse\lTest.testPower">
<polygon fill="white" stroke="black" points="499,-588 499,-618 671,-618 671,-588 499,-588"/>
<text text-anchor="start" x="507" y="-606" font-family="Helvetica,sans-Serif" font-size="10.00">tests.ExpressionCommandParse</text>
<text text-anchor="middle" x="585" y="-595" font-family="Helvetica,sans-Serif" font-size="10.00">Test.testPower</text>
</a>
</g>
</g>
<!-- Node16&#45;&gt;Node24 -->
<g id="edge23" class="edge"><title>Node16&#45;&gt;Node24</title>
<path fill="none" stroke="midnightblue" d="M379.04,-525.044C407.425,-541.099 449.327,-563.294 488,-578 497.659,-581.673 508.063,-584.997 518.334,-587.935"/>
<polygon fill="midnightblue" stroke="midnightblue" points="380.74,-521.985 370.32,-520.065 377.268,-528.063 380.74,-521.985"/>
</g>
<!-- Node25 -->
<g id="node25" class="node"><title>Node25</title>
<g id="a_node25"><a xlink:href="../../de/d2e/classtests_1_1_expression_command_parse_test.html#a136204feb445f26c107203e5d0a248bf" target="_top" xlink:title="tests.ExpressionCommandParse\lTest.testSin">
<polygon fill="white" stroke="black" points="499,-539 499,-569 671,-569 671,-539 499,-539"/>
<text text-anchor="start" x="507" y="-557" font-family="Helvetica,sans-Serif" font-size="10.00">tests.ExpressionCommandParse</text>
<text text-anchor="middle" x="585" y="-546" font-family="Helvetica,sans-Serif" font-size="10.00">Test.testSin</text>
</a>
</g>
</g>
<!-- Node16&#45;&gt;Node25 -->
<g id="edge24" class="edge"><title>Node16&#45;&gt;Node25</title>
<path fill="none" stroke="midnightblue" d="M428.468,-522.113C455.289,-527.611 484.781,-533.658 510.807,-538.994"/>
<polygon fill="midnightblue" stroke="midnightblue" points="428.831,-518.614 418.332,-520.035 427.425,-525.472 428.831,-518.614"/>
</g>
<!-- Node26 -->
<g id="node26" class="node"><title>Node26</title>
<g id="a_node26"><a xlink:href="../../de/d2e/classtests_1_1_expression_command_parse_test.html#a7c091eeaa6fcdf81f42b1f4999a4c3b4" target="_top" xlink:title="tests.ExpressionCommandParse\lTest.testCos">
<polygon fill="white" stroke="black" points="499,-490 499,-520 671,-520 671,-490 499,-490"/>
<text text-anchor="start" x="507" y="-508" font-family="Helvetica,sans-Serif" font-size="10.00">tests.ExpressionCommandParse</text>
<text text-anchor="middle" x="585" y="-497" font-family="Helvetica,sans-Serif" font-size="10.00">Test.testCos</text>
</a>
</g>
</g>
<!-- Node16&#45;&gt;Node26 -->
<g id="edge25" class="edge"><title>Node16&#45;&gt;Node26</title>
<path fill="none" stroke="midnightblue" d="M440.285,-505C459.608,-505 479.812,-505 498.761,-505"/>
<polygon fill="midnightblue" stroke="midnightblue" points="440.272,-501.5 430.272,-505 440.272,-508.5 440.272,-501.5"/>
</g>
<!-- Node27 -->
<g id="node27" class="node"><title>Node27</title>
<g id="a_node27"><a xlink:href="../../de/d2e/classtests_1_1_expression_command_parse_test.html#a2b2cb32a4e303a753c5b516252061cb1" target="_top" xlink:title="tests.ExpressionCommandParse\lTest.testTan">
<polygon fill="white" stroke="black" points="499,-441 499,-471 671,-471 671,-441 499,-441"/>
<text text-anchor="start" x="507" y="-459" font-family="Helvetica,sans-Serif" font-size="10.00">tests.ExpressionCommandParse</text>
<text text-anchor="middle" x="585" y="-448" font-family="Helvetica,sans-Serif" font-size="10.00">Test.testTan</text>
</a>
</g>
</g>
<!-- Node16&#45;&gt;Node27 -->
<g id="edge26" class="edge"><title>Node16&#45;&gt;Node27</title>
<path fill="none" stroke="midnightblue" d="M428.468,-487.887C455.289,-482.389 484.781,-476.342 510.807,-471.006"/>
<polygon fill="midnightblue" stroke="midnightblue" points="427.425,-484.528 418.332,-489.965 428.831,-491.386 427.425,-484.528"/>
</g>
<!-- Node28 -->
<g id="node28" class="node"><title>Node28</title>
<g id="a_node28"><a xlink:href="../../de/d2e/classtests_1_1_expression_command_parse_test.html#ab16d8f3c97b33e37ade041424eaede28" target="_top" xlink:title="tests.ExpressionCommandParse\lTest.testATan">
<polygon fill="white" stroke="black" points="499,-392 499,-422 671,-422 671,-392 499,-392"/>
<text text-anchor="start" x="507" y="-410" font-family="Helvetica,sans-Serif" font-size="10.00">tests.ExpressionCommandParse</text>
<text text-anchor="middle" x="585" y="-399" font-family="Helvetica,sans-Serif" font-size="10.00">Test.testATan</text>
</a>
</g>
</g>
<!-- Node16&#45;&gt;Node28 -->
<g id="edge27" class="edge"><title>Node16&#45;&gt;Node28</title>
<path fill="none" stroke="midnightblue" d="M379.04,-484.956C407.425,-468.901 449.327,-446.706 488,-432 497.659,-428.327 508.063,-425.003 518.334,-422.065"/>
<polygon fill="midnightblue" stroke="midnightblue" points="377.268,-481.937 370.32,-489.935 380.74,-488.015 377.268,-481.937"/>
</g>
<!-- Node29 -->
<g id="node29" class="node"><title>Node29</title>
<g id="a_node29"><a xlink:href="../../de/d2e/classtests_1_1_expression_command_parse_test.html#abc8349e349751cefe738aeec853eb33a" target="_top" xlink:title="tests.ExpressionCommandParse\lTest.naturalLogTest">
<polygon fill="white" stroke="black" points="499,-343 499,-373 671,-373 671,-343 499,-343"/>
<text text-anchor="start" x="507" y="-361" font-family="Helvetica,sans-Serif" font-size="10.00">tests.ExpressionCommandParse</text>
<text text-anchor="middle" x="585" y="-350" font-family="Helvetica,sans-Serif" font-size="10.00">Test.naturalLogTest</text>
</a>
</g>
</g>
<!-- Node16&#45;&gt;Node29 -->
<g id="edge28" class="edge"><title>Node16&#45;&gt;Node29</title>
<path fill="none" stroke="midnightblue" d="M365.41,-482.166C391.275,-454.623 438.485,-408.812 488,-383 495.407,-379.139 503.453,-375.843 511.63,-373.038"/>
<polygon fill="midnightblue" stroke="midnightblue" points="362.614,-480.035 358.393,-489.752 367.753,-484.788 362.614,-480.035"/>
</g>
<!-- Node30 -->
<g id="node30" class="node"><title>Node30</title>
<g id="a_node30"><a xlink:href="../../de/d2e/classtests_1_1_expression_command_parse_test.html#ae220f7496c25bae0b0b20e298ef3917b" target="_top" xlink:title="tests.ExpressionCommandParse\lTest.testLess">
<polygon fill="white" stroke="black" points="499,-294 499,-324 671,-324 671,-294 499,-294"/>
<text text-anchor="start" x="507" y="-312" font-family="Helvetica,sans-Serif" font-size="10.00">tests.ExpressionCommandParse</text>
<text text-anchor="middle" x="585" y="-301" font-family="Helvetica,sans-Serif" font-size="10.00">Test.testLess</text>
</a>
</g>
</g>
<!-- Node16&#45;&gt;Node30 -->
<g id="edge29" class="edge"><title>Node16&#45;&gt;Node30</title>
<path fill="none" stroke="midnightblue" d="M358.162,-481.298C380.093,-444.062 427.719,-372.176 488,-334 494.111,-330.13 500.801,-326.857 507.715,-324.089"/>
<polygon fill="midnightblue" stroke="midnightblue" points="355.12,-479.567 353.148,-489.977 361.181,-483.069 355.12,-479.567"/>
</g>
<!-- Node31 -->
<g id="node31" class="node"><title>Node31</title>
<g id="a_node31"><a xlink:href="../../de/d2e/classtests_1_1_expression_command_parse_test.html#a351a467c7e11ef82aa9cfca9e383d5bb" target="_top" xlink:title="tests.ExpressionCommandParse\lTest.testGreater">
<polygon fill="white" stroke="black" points="499,-245 499,-275 671,-275 671,-245 499,-245"/>
<text text-anchor="start" x="507" y="-263" font-family="Helvetica,sans-Serif" font-size="10.00">tests.ExpressionCommandParse</text>
<text text-anchor="middle" x="585" y="-252" font-family="Helvetica,sans-Serif" font-size="10.00">Test.testGreater</text>
</a>
</g>
</g>
<!-- Node16&#45;&gt;Node31 -->
<g id="edge30" class="edge"><title>Node16&#45;&gt;Node31</title>
<path fill="none" stroke="midnightblue" d="M353.915,-480.533C371.879,-434.778 416.885,-336.264 488,-285 493.309,-281.173 499.157,-277.931 505.267,-275.185"/>
<polygon fill="midnightblue" stroke="midnightblue" points="350.611,-479.376 350.304,-489.966 357.148,-481.878 350.611,-479.376"/>
</g>
<!-- Node32 -->
<g id="node32" class="node"><title>Node32</title>
<g id="a_node32"><a xlink:href="../../de/d2e/classtests_1_1_expression_command_parse_test.html#a39b53cd607a64fd6c3f8d8a9dc383029" target="_top" xlink:title="tests.ExpressionCommandParse\lTest.testEqual">
<polygon fill="white" stroke="black" points="499,-196 499,-226 671,-226 671,-196 499,-196"/>
<text text-anchor="start" x="507" y="-214" font-family="Helvetica,sans-Serif" font-size="10.00">tests.ExpressionCommandParse</text>
<text text-anchor="middle" x="585" y="-203" font-family="Helvetica,sans-Serif" font-size="10.00">Test.testEqual</text>
</a>
</g>
</g>
<!-- Node16&#45;&gt;Node32 -->
<g id="edge31" class="edge"><title>Node16&#45;&gt;Node32</title>
<path fill="none" stroke="midnightblue" d="M350.89,-479.947C364.852,-426.285 405.171,-299.864 488,-235 492.328,-231.611 497.074,-228.693 502.066,-226.184"/>
<polygon fill="midnightblue" stroke="midnightblue" points="347.417,-479.407 348.375,-489.958 354.206,-481.112 347.417,-479.407"/>
</g>
<!-- Node33 -->
<g id="node33" class="node"><title>Node33</title>
<g id="a_node33"><a xlink:href="../../de/d2e/classtests_1_1_expression_command_parse_test.html#a3e02dc5721ebda96dd3061e5598f2b89" target="_top" xlink:title="tests.ExpressionCommandParse\lTest.testNotEqual">
<polygon fill="white" stroke="black" points="499,-147 499,-177 671,-177 671,-147 499,-147"/>
<text text-anchor="start" x="507" y="-165" font-family="Helvetica,sans-Serif" font-size="10.00">tests.ExpressionCommandParse</text>
<text text-anchor="middle" x="585" y="-154" font-family="Helvetica,sans-Serif" font-size="10.00">Test.testNotEqual</text>
</a>
</g>
</g>
<!-- Node16&#45;&gt;Node33 -->
<g id="edge32" class="edge"><title>Node16&#45;&gt;Node33</title>
<path fill="none" stroke="midnightblue" d="M348.724,-479.701C359.014,-419.148 393.603,-265.055 488,-186 492.083,-182.581 496.585,-179.637 501.344,-177.105"/>
<polygon fill="midnightblue" stroke="midnightblue" points="345.219,-479.449 347.076,-489.879 352.129,-480.567 345.219,-479.449"/>
</g>
<!-- Node34 -->
<g id="node34" class="node"><title>Node34</title>
<g id="a_node34"><a xlink:href="../../de/d2e/classtests_1_1_expression_command_parse_test.html#a6d3b6bdb079ef876815c288c064f4b33" target="_top" xlink:title="tests.ExpressionCommandParse\lTest.testAnd">
<polygon fill="white" stroke="black" points="499,-98 499,-128 671,-128 671,-98 499,-98"/>
<text text-anchor="start" x="507" y="-116" font-family="Helvetica,sans-Serif" font-size="10.00">tests.ExpressionCommandParse</text>
<text text-anchor="middle" x="585" y="-105" font-family="Helvetica,sans-Serif" font-size="10.00">Test.testAnd</text>
</a>
</g>
</g>
<!-- Node16&#45;&gt;Node34 -->
<g id="edge33" class="edge"><title>Node16&#45;&gt;Node34</title>
<path fill="none" stroke="midnightblue" d="M347.016,-480.006C353.767,-413.487 381.583,-230.82 488,-137 491.866,-133.592 496.144,-130.653 500.685,-128.12"/>
<polygon fill="midnightblue" stroke="midnightblue" points="343.528,-479.716 346.075,-490 350.497,-480.372 343.528,-479.716"/>
</g>
<!-- Node35 -->
<g id="node35" class="node"><title>Node35</title>
<g id="a_node35"><a xlink:href="../../de/d2e/classtests_1_1_expression_command_parse_test.html#a5c10408ef137b64e44db51e6ac34a5c8" target="_top" xlink:title="tests.ExpressionCommandParse\lTest.testOr">
<polygon fill="white" stroke="black" points="499,-49 499,-79 671,-79 671,-49 499,-49"/>
<text text-anchor="start" x="507" y="-67" font-family="Helvetica,sans-Serif" font-size="10.00">tests.ExpressionCommandParse</text>
<text text-anchor="middle" x="585" y="-56" font-family="Helvetica,sans-Serif" font-size="10.00">Test.testOr</text>
</a>
</g>
</g>
<!-- Node16&#45;&gt;Node35 -->
<g id="edge34" class="edge"><title>Node16&#45;&gt;Node35</title>
<path fill="none" stroke="midnightblue" d="M345.738,-479.699C349.277,-407.131 369.756,-196.556 488,-88 491.67,-84.6307 495.74,-81.7168 500.074,-79.1983"/>
<polygon fill="midnightblue" stroke="midnightblue" points="342.238,-479.613 345.315,-489.751 349.232,-479.907 342.238,-479.613"/>
</g>
<!-- Node36 -->
<g id="node36" class="node"><title>Node36</title>
<g id="a_node36"><a xlink:href="../../de/d2e/classtests_1_1_expression_command_parse_test.html#a5b4d7321351f966e1261e1afbe14dd7c" target="_top" xlink:title="tests.ExpressionCommandParse\lTest.testNot">
<polygon fill="white" stroke="black" points="499,-0 499,-30 671,-30 671,-0 499,-0"/>
<text text-anchor="start" x="507" y="-18" font-family="Helvetica,sans-Serif" font-size="10.00">tests.ExpressionCommandParse</text>
<text text-anchor="middle" x="585" y="-7" font-family="Helvetica,sans-Serif" font-size="10.00">Test.testNot</text>
</a>
</g>
</g>
<!-- Node16&#45;&gt;Node36 -->
<g id="edge35" class="edge"><title>Node16&#45;&gt;Node36</title>
<path fill="none" stroke="midnightblue" d="M344.685,-479.454C345.18,-401.18 357.794,-162.511 488,-39 491.615,-35.5713 495.642,-32.6114 499.943,-30.0582"/>
<polygon fill="midnightblue" stroke="midnightblue" points="341.185,-479.807 344.687,-489.806 348.185,-479.805 341.185,-479.807"/>
</g>
</g>
</svg>
