<?xml version="1.0" encoding="UTF-8" standalone="no"?>
<!DOCTYPE svg PUBLIC "-//W3C//DTD SVG 1.1//EN"
 "http://www.w3.org/Graphics/SVG/1.1/DTD/svg11.dtd">
<!-- Generated by graphviz version 2.36.0 (20140111.2315)
 -->
<!-- Title: commandParser.CommandFactory.setInformationGateway Pages: 1 -->
<svg width="622pt" height="322pt"
 viewBox="0.00 0.00 622.00 322.00" xmlns="http://www.w3.org/2000/svg" xmlns:xlink="http://www.w3.org/1999/xlink">
<g id="graph0" class="graph" transform="scale(1 1) rotate(0) translate(4 318)">
<title>commandParser.CommandFactory.setInformationGateway</title>
<polygon fill="white" stroke="none" points="-4,4 -4,-318 618,-318 618,4 -4,4"/>
<!-- Node1 -->
<g id="node1" class="node"><title>Node1</title>
<polygon fill="#bfbfbf" stroke="black" points="0.5,-169 0.5,-199 199.5,-199 199.5,-169 0.5,-169"/>
<text text-anchor="start" x="8.5" y="-187" font-family="Helvetica,sans-Serif" font-size="10.00">commandParser.CommandFactory.set</text>
<text text-anchor="middle" x="100" y="-176" font-family="Helvetica,sans-Serif" font-size="10.00">InformationGateway</text>
</g>
<!-- Node2 -->
<g id="node2" class="node"><title>Node2</title>
<g id="a_node2"><a xlink:href="../../d9/d00/classcommunicator_1_1_main_controller.html#aeeb4240e58af659d4b448cbfc3fbe76f" target="_top" xlink:title="communicator.MainController.\lMainController">
<polygon fill="white" stroke="black" points="244,-284 244,-314 404,-314 404,-284 244,-284"/>
<text text-anchor="start" x="252" y="-302" font-family="Helvetica,sans-Serif" font-size="10.00">communicator.MainController.</text>
<text text-anchor="middle" x="324" y="-291" font-family="Helvetica,sans-Serif" font-size="10.00">MainController</text>
</a>
</g>
</g>
<!-- Node1&#45;&gt;Node2 -->
<g id="edge1" class="edge"><title>Node1&#45;&gt;Node2</title>
<path fill="none" stroke="midnightblue" d="M127.496,-205.278C153.706,-225.425 195.641,-255.299 236,-274 244.128,-277.766 252.949,-281.094 261.752,-283.993"/>
<polygon fill="midnightblue" stroke="midnightblue" points="129.602,-202.482 119.56,-199.104 125.304,-208.007 129.602,-202.482"/>
</g>
<!-- Node3 -->
<g id="node3" class="node"><title>Node3</title>
<g id="a_node3"><a xlink:href="../../d7/db4/classcommands_1_1control_commands_1_1_container_test.html#a5af8d678d8f10708dd2a6051aa069b62" target="_top" xlink:title="commands.controlCommands.\lContainerTest.processInput">
<polygon fill="white" stroke="black" points="241.5,-235 241.5,-265 406.5,-265 406.5,-235 241.5,-235"/>
<text text-anchor="start" x="249.5" y="-253" font-family="Helvetica,sans-Serif" font-size="10.00">commands.controlCommands.</text>
<text text-anchor="middle" x="324" y="-242" font-family="Helvetica,sans-Serif" font-size="10.00">ContainerTest.processInput</text>
</a>
</g>
</g>
<!-- Node1&#45;&gt;Node3 -->
<g id="edge2" class="edge"><title>Node1&#45;&gt;Node3</title>
<path fill="none" stroke="midnightblue" d="M159.876,-202.091C183.513,-209.299 211.027,-217.62 236,-225 247.002,-228.251 258.804,-231.681 270.054,-234.923"/>
<polygon fill="midnightblue" stroke="midnightblue" points="160.589,-198.649 150.002,-199.076 158.544,-205.344 160.589,-198.649"/>
</g>
<!-- Node5 -->
<g id="node5" class="node"><title>Node5</title>
<g id="a_node5"><a xlink:href="../../dd/d30/classtests_1_1_ask_test.html#afb0073941794dce7b5990575b51f7fcb" target="_top" xlink:title="tests.AskTest.setFactory">
<polygon fill="white" stroke="black" points="258,-196.5 258,-215.5 390,-215.5 390,-196.5 258,-196.5"/>
<text text-anchor="middle" x="324" y="-203.5" font-family="Helvetica,sans-Serif" font-size="10.00">tests.AskTest.setFactory</text>
</a>
</g>
</g>
<!-- Node1&#45;&gt;Node5 -->
<g id="edge4" class="edge"><title>Node1&#45;&gt;Node5</title>
<path fill="none" stroke="midnightblue" d="M209.85,-194.787C226.24,-196.411 242.693,-198.042 257.778,-199.537"/>
<polygon fill="midnightblue" stroke="midnightblue" points="209.962,-191.281 199.665,-193.778 209.271,-198.247 209.962,-191.281"/>
</g>
<!-- Node7 -->
<g id="node7" class="node"><title>Node7</title>
<g id="a_node7"><a xlink:href="../../d9/d76/classtests_1_1_turtle_commands_test.html#a11b65bea989b367cb3d97a2c9c70fc7c" target="_top" xlink:title="tests.TurtleCommandsTest.set\lFactory">
<polygon fill="white" stroke="black" points="243.5,-147 243.5,-177 404.5,-177 404.5,-147 243.5,-147"/>
<text text-anchor="start" x="251.5" y="-165" font-family="Helvetica,sans-Serif" font-size="10.00">tests.TurtleCommandsTest.set</text>
<text text-anchor="middle" x="324" y="-154" font-family="Helvetica,sans-Serif" font-size="10.00">Factory</text>
</a>
</g>
</g>
<!-- Node1&#45;&gt;Node7 -->
<g id="edge6" class="edge"><title>Node1&#45;&gt;Node7</title>
<path fill="none" stroke="midnightblue" d="M209.959,-173.202C221.19,-172.089 232.45,-170.973 243.277,-169.901"/>
<polygon fill="midnightblue" stroke="midnightblue" points="209.271,-169.753 199.665,-174.222 209.962,-176.719 209.271,-169.753"/>
</g>
<!-- Node9 -->
<g id="node9" class="node"><title>Node9</title>
<g id="a_node9"><a xlink:href="../../d0/d33/classtests_1_1_to_command_test.html#aac05da4632615e22901f00b14299cf04" target="_top" xlink:title="tests.ToCommandTest.setFactory">
<polygon fill="white" stroke="black" points="236.5,-105.5 236.5,-124.5 411.5,-124.5 411.5,-105.5 236.5,-105.5"/>
<text text-anchor="middle" x="324" y="-112.5" font-family="Helvetica,sans-Serif" font-size="10.00">tests.ToCommandTest.setFactory</text>
</a>
</g>
</g>
<!-- Node1&#45;&gt;Node9 -->
<g id="edge8" class="edge"><title>Node1&#45;&gt;Node9</title>
<path fill="none" stroke="midnightblue" d="M150.572,-165.577C175.95,-156.443 207.439,-145.565 236,-137 250.923,-132.525 267.463,-128.189 282.079,-124.566"/>
<polygon fill="midnightblue" stroke="midnightblue" points="149.375,-162.288 141.165,-168.984 151.759,-168.87 149.375,-162.288"/>
</g>
<!-- Node11 -->
<g id="node11" class="node"><title>Node11</title>
<g id="a_node11"><a xlink:href="../../d3/d0c/classtests_1_1_ask_with_test.html#a799076287011ef49d94aa61298cd311e" target="_top" xlink:title="tests.AskWithTest.setFactory">
<polygon fill="white" stroke="black" points="248,-54.5 248,-73.5 400,-73.5 400,-54.5 248,-54.5"/>
<text text-anchor="middle" x="324" y="-61.5" font-family="Helvetica,sans-Serif" font-size="10.00">tests.AskWithTest.setFactory</text>
</a>
</g>
</g>
<!-- Node1&#45;&gt;Node11 -->
<g id="edge10" class="edge"><title>Node1&#45;&gt;Node11</title>
<path fill="none" stroke="midnightblue" d="M129.256,-162.872C155.818,-143.68 197.19,-115.474 236,-96 253.836,-87.0501 274.806,-79.2626 291.688,-73.6113"/>
<polygon fill="midnightblue" stroke="midnightblue" points="127.193,-160.045 121.174,-168.765 131.316,-165.702 127.193,-160.045"/>
</g>
<!-- Node4 -->
<g id="node4" class="node"><title>Node4</title>
<g id="a_node4"><a xlink:href="../../d7/db4/classcommands_1_1control_commands_1_1_container_test.html#a5ff9cdf49eafe0435d4b9e0ce3eb38a9" target="_top" xlink:title="commands.controlCommands.\lContainerTest.testThatIfWorks">
<polygon fill="white" stroke="black" points="448.5,-245 448.5,-275 613.5,-275 613.5,-245 448.5,-245"/>
<text text-anchor="start" x="456.5" y="-263" font-family="Helvetica,sans-Serif" font-size="10.00">commands.controlCommands.</text>
<text text-anchor="middle" x="531" y="-252" font-family="Helvetica,sans-Serif" font-size="10.00">ContainerTest.testThatIfWorks</text>
</a>
</g>
</g>
<!-- Node3&#45;&gt;Node4 -->
<g id="edge3" class="edge"><title>Node3&#45;&gt;Node4</title>
<path fill="none" stroke="midnightblue" d="M416.666,-254.472C427.219,-254.986 437.927,-255.509 448.335,-256.016"/>
<polygon fill="midnightblue" stroke="midnightblue" points="416.769,-250.972 406.61,-253.981 416.428,-257.964 416.769,-250.972"/>
</g>
<!-- Node6 -->
<g id="node6" class="node"><title>Node6</title>
<g id="a_node6"><a xlink:href="../../dd/d30/classtests_1_1_ask_test.html#a35ae726a31ba673fc7d80bcbc4a69e24" target="_top" xlink:title="tests.AskTest.testThatAsk\lCreatesTurtles">
<polygon fill="white" stroke="black" points="461,-196 461,-226 601,-226 601,-196 461,-196"/>
<text text-anchor="start" x="469" y="-214" font-family="Helvetica,sans-Serif" font-size="10.00">tests.AskTest.testThatAsk</text>
<text text-anchor="middle" x="531" y="-203" font-family="Helvetica,sans-Serif" font-size="10.00">CreatesTurtles</text>
</a>
</g>
</g>
<!-- Node5&#45;&gt;Node6 -->
<g id="edge5" class="edge"><title>Node5&#45;&gt;Node6</title>
<path fill="none" stroke="midnightblue" d="M400.336,-207.837C420.11,-208.32 441.338,-208.838 460.775,-209.312"/>
<polygon fill="midnightblue" stroke="midnightblue" points="400.227,-204.334 390.145,-207.589 400.057,-211.332 400.227,-204.334"/>
</g>
<!-- Node8 -->
<g id="node8" class="node"><title>Node8</title>
<g id="a_node8"><a xlink:href="../../d9/d76/classtests_1_1_turtle_commands_test.html#a7f4c719ee0d2a11ff4b04f38b5cda951" target="_top" xlink:title="tests.TurtleCommandsTest.test\lToParsing">
<polygon fill="white" stroke="black" points="448.5,-147 448.5,-177 613.5,-177 613.5,-147 448.5,-147"/>
<text text-anchor="start" x="456.5" y="-165" font-family="Helvetica,sans-Serif" font-size="10.00">tests.TurtleCommandsTest.test</text>
<text text-anchor="middle" x="531" y="-154" font-family="Helvetica,sans-Serif" font-size="10.00">ToParsing</text>
</a>
</g>
</g>
<!-- Node7&#45;&gt;Node8 -->
<g id="edge7" class="edge"><title>Node7&#45;&gt;Node8</title>
<path fill="none" stroke="midnightblue" d="M414.77,-162C425.977,-162 437.391,-162 448.463,-162"/>
<polygon fill="midnightblue" stroke="midnightblue" points="414.552,-158.5 404.552,-162 414.552,-165.5 414.552,-158.5"/>
</g>
<!-- Node10 -->
<g id="node10" class="node"><title>Node10</title>
<g id="a_node10"><a xlink:href="../../d0/d33/classtests_1_1_to_command_test.html#a682364d0f31489938f7ab8e4504e7c7e" target="_top" xlink:title="tests.ToCommandTest.test\lToParsing">
<polygon fill="white" stroke="black" points="459,-98 459,-128 603,-128 603,-98 459,-98"/>
<text text-anchor="start" x="467" y="-116" font-family="Helvetica,sans-Serif" font-size="10.00">tests.ToCommandTest.test</text>
<text text-anchor="middle" x="531" y="-105" font-family="Helvetica,sans-Serif" font-size="10.00">ToParsing</text>
</a>
</g>
</g>
<!-- Node9&#45;&gt;Node10 -->
<g id="edge9" class="edge"><title>Node9&#45;&gt;Node10</title>
<path fill="none" stroke="midnightblue" d="M421.653,-114.057C434.186,-113.935 446.835,-113.811 458.849,-113.694"/>
<polygon fill="midnightblue" stroke="midnightblue" points="421.607,-110.557 411.641,-114.155 421.675,-117.557 421.607,-110.557"/>
</g>
<!-- Node12 -->
<g id="node12" class="node"><title>Node12</title>
<g id="a_node12"><a xlink:href="../../d3/d0c/classtests_1_1_ask_with_test.html#a54f2ed263239909256bb93e91afc3ecc" target="_top" xlink:title="tests.AskWithTest.testAlways\lTrueAskWith">
<polygon fill="white" stroke="black" points="454,-49 454,-79 608,-79 608,-49 454,-49"/>
<text text-anchor="start" x="462" y="-67" font-family="Helvetica,sans-Serif" font-size="10.00">tests.AskWithTest.testAlways</text>
<text text-anchor="middle" x="531" y="-56" font-family="Helvetica,sans-Serif" font-size="10.00">TrueAskWith</text>
</a>
</g>
</g>
<!-- Node11&#45;&gt;Node12 -->
<g id="edge11" class="edge"><title>Node11&#45;&gt;Node12</title>
<path fill="none" stroke="midnightblue" d="M410.529,-64C424.888,-64 439.705,-64 453.809,-64"/>
<polygon fill="midnightblue" stroke="midnightblue" points="410.17,-60.5001 400.17,-64 410.17,-67.5001 410.17,-60.5001"/>
</g>
<!-- Node13 -->
<g id="node13" class="node"><title>Node13</title>
<g id="a_node13"><a xlink:href="../../d3/d0c/classtests_1_1_ask_with_test.html#a49a8519276b23ed93a3f90d7c2058fc5" target="_top" xlink:title="tests.AskWithTest.testXCor\lAskWith">
<polygon fill="white" stroke="black" points="459.5,-0 459.5,-30 602.5,-30 602.5,-0 459.5,-0"/>
<text text-anchor="start" x="467.5" y="-18" font-family="Helvetica,sans-Serif" font-size="10.00">tests.AskWithTest.testXCor</text>
<text text-anchor="middle" x="531" y="-7" font-family="Helvetica,sans-Serif" font-size="10.00">AskWith</text>
</a>
</g>
</g>
<!-- Node11&#45;&gt;Node13 -->
<g id="edge12" class="edge"><title>Node11&#45;&gt;Node13</title>
<path fill="none" stroke="midnightblue" d="M374.898,-52.0732C402.657,-45.438 437.478,-37.1149 467.09,-30.037"/>
<polygon fill="midnightblue" stroke="midnightblue" points="373.925,-48.707 365.013,-54.436 375.552,-55.5153 373.925,-48.707"/>
</g>
</g>
</svg>
