<?xml version="1.0" encoding="UTF-8" standalone="no"?>
<!DOCTYPE svg PUBLIC "-//W3C//DTD SVG 1.1//EN"
 "http://www.w3.org/Graphics/SVG/1.1/DTD/svg11.dtd">
<!-- Generated by graphviz version 2.36.0 (20140111.2315)
 -->
<!-- Title: GUIFunctions.BackgroundColor.doAction Pages: 1 -->
<svg width="392pt" height="126pt"
 viewBox="0.00 0.00 392.00 126.00" xmlns="http://www.w3.org/2000/svg" xmlns:xlink="http://www.w3.org/1999/xlink">
<g id="graph0" class="graph" transform="scale(1 1) rotate(0) translate(4 122)">
<title>GUIFunctions.BackgroundColor.doAction</title>
<polygon fill="white" stroke="none" points="-4,4 -4,-122 388,-122 388,4 -4,4"/>
<!-- Node1 -->
<g id="node1" class="node"><title>Node1</title>
<polygon fill="#bfbfbf" stroke="black" points="0,-49 0,-79 178,-79 178,-49 0,-49"/>
<text text-anchor="start" x="8" y="-67" font-family="Helvetica,sans-Serif" font-size="10.00">GUIFunctions.BackgroundColor.do</text>
<text text-anchor="middle" x="89" y="-56" font-family="Helvetica,sans-Serif" font-size="10.00">Action</text>
</g>
<!-- Node2 -->
<g id="node2" class="node"><title>Node2</title>
<g id="a_node2"><a xlink:href="../../d7/d98/class_view_1_1_grid_tracker.html#af7c2413584c58030e606ae6692ea564f" target="_top" xlink:title="View.GridTracker.getActiveGrid">
<polygon fill="white" stroke="black" points="218.5,-98.5 218.5,-117.5 379.5,-117.5 379.5,-98.5 218.5,-98.5"/>
<text text-anchor="middle" x="299" y="-105.5" font-family="Helvetica,sans-Serif" font-size="10.00">View.GridTracker.getActiveGrid</text>
</a>
</g>
</g>
<!-- Node1&#45;&gt;Node2 -->
<g id="edge1" class="edge"><title>Node1&#45;&gt;Node2</title>
<path fill="none" stroke="midnightblue" d="M161,-79.0192C187.79,-84.6864 217.839,-91.0429 242.954,-96.3556"/>
<polygon fill="midnightblue" stroke="midnightblue" points="242.524,-99.8421 253.032,-98.4876 243.973,-92.9937 242.524,-99.8421"/>
</g>
<!-- Node3 -->
<g id="node3" class="node"><title>Node3</title>
<g id="a_node3"><a xlink:href="../../da/d31/class_view_1_1_color_selection.html#afa190585564a3012cefc95efffb0705d" target="_top" xlink:title="View.ColorSelection.getAvailable\lColors">
<polygon fill="white" stroke="black" points="214,-49 214,-79 384,-79 384,-49 214,-49"/>
<text text-anchor="start" x="222" y="-67" font-family="Helvetica,sans-Serif" font-size="10.00">View.ColorSelection.getAvailable</text>
<text text-anchor="middle" x="299" y="-56" font-family="Helvetica,sans-Serif" font-size="10.00">Colors</text>
</a>
</g>
</g>
<!-- Node1&#45;&gt;Node3 -->
<g id="edge2" class="edge"><title>Node1&#45;&gt;Node3</title>
<path fill="none" stroke="midnightblue" d="M178.211,-64C186.726,-64 195.386,-64 203.955,-64"/>
<polygon fill="midnightblue" stroke="midnightblue" points="203.958,-67.5001 213.958,-64 203.958,-60.5001 203.958,-67.5001"/>
</g>
<!-- Node4 -->
<g id="node4" class="node"><title>Node4</title>
<g id="a_node4"><a xlink:href="../../d9/db1/class_view_1_1_single_grid.html#a9de151d6487413e8c97ddb72ada9f7d0" target="_top" xlink:title="View.SingleGrid.setBackground\lColor">
<polygon fill="white" stroke="black" points="217,-0 217,-30 381,-30 381,-0 217,-0"/>
<text text-anchor="start" x="225" y="-18" font-family="Helvetica,sans-Serif" font-size="10.00">View.SingleGrid.setBackground</text>
<text text-anchor="middle" x="299" y="-7" font-family="Helvetica,sans-Serif" font-size="10.00">Color</text>
</a>
</g>
</g>
<!-- Node1&#45;&gt;Node4 -->
<g id="edge3" class="edge"><title>Node1&#45;&gt;Node4</title>
<path fill="none" stroke="midnightblue" d="M153.82,-48.9654C176.182,-43.6976 201.471,-37.7399 224.557,-32.3016"/>
<polygon fill="midnightblue" stroke="midnightblue" points="225.369,-35.706 234.3,-30.0062 223.764,-28.8925 225.369,-35.706"/>
</g>
</g>
</svg>
