<?xml version="1.0" encoding="UTF-8" standalone="no"?>
<!DOCTYPE svg PUBLIC "-//W3C//DTD SVG 1.1//EN"
 "http://www.w3.org/Graphics/SVG/1.1/DTD/svg11.dtd">
<!-- Generated by graphviz version 2.36.0 (20140111.2315)
 -->
<!-- Title: GUIFunctions.BackgroundColor.doAction Pages: 1 -->
<svg width="386pt" height="77pt"
 viewBox="0.00 0.00 386.00 77.00" xmlns="http://www.w3.org/2000/svg" xmlns:xlink="http://www.w3.org/1999/xlink">
<g id="graph0" class="graph" transform="scale(1 1) rotate(0) translate(4 73)">
<title>GUIFunctions.BackgroundColor.doAction</title>
<polygon fill="white" stroke="none" points="-4,4 -4,-73 382,-73 382,4 -4,4"/>
<!-- Node1 -->
<g id="node1" class="node"><title>Node1</title>
<polygon fill="#bfbfbf" stroke="black" points="0,-22 0,-52 178,-52 178,-22 0,-22"/>
<text text-anchor="start" x="8" y="-40" font-family="Helvetica,sans-Serif" font-size="10.00">GUIFunctions.BackgroundColor.do</text>
<text text-anchor="middle" x="89" y="-29" font-family="Helvetica,sans-Serif" font-size="10.00">Action</text>
</g>
<!-- Node2 -->
<g id="node2" class="node"><title>Node2</title>
<g id="a_node2"><a xlink:href="../../d7/d98/class_view_1_1_grid_tracker.html#af7c2413584c58030e606ae6692ea564f" target="_top" xlink:title="View.GridTracker.getActiveGrid">
<polygon fill="white" stroke="black" points="215.5,-49.5 215.5,-68.5 376.5,-68.5 376.5,-49.5 215.5,-49.5"/>
<text text-anchor="middle" x="296" y="-56.5" font-family="Helvetica,sans-Serif" font-size="10.00">View.GridTracker.getActiveGrid</text>
</a>
</g>
</g>
<!-- Node1&#45;&gt;Node2 -->
<g id="edge1" class="edge"><title>Node1&#45;&gt;Node2</title>
<path fill="none" stroke="midnightblue" d="M178.128,-46.4577C187.117,-47.4223 196.256,-48.403 205.261,-49.3695"/>
<polygon fill="midnightblue" stroke="midnightblue" points="205.04,-52.8658 215.357,-50.4529 205.787,-45.9057 205.04,-52.8658"/>
</g>
<!-- Node3 -->
<g id="node3" class="node"><title>Node3</title>
<g id="a_node3"><a xlink:href="../../d9/db1/class_view_1_1_single_grid.html#a9de151d6487413e8c97ddb72ada9f7d0" target="_top" xlink:title="View.SingleGrid.setBackground\lColor">
<polygon fill="white" stroke="black" points="214,-0 214,-30 378,-30 378,-0 214,-0"/>
<text text-anchor="start" x="222" y="-18" font-family="Helvetica,sans-Serif" font-size="10.00">View.SingleGrid.setBackground</text>
<text text-anchor="middle" x="296" y="-7" font-family="Helvetica,sans-Serif" font-size="10.00">Color</text>
</a>
</g>
</g>
<!-- Node1&#45;&gt;Node3 -->
<g id="edge2" class="edge"><title>Node1&#45;&gt;Node3</title>
<path fill="none" stroke="midnightblue" d="M178.128,-27.5423C186.63,-26.63 195.266,-25.7031 203.797,-24.7876"/>
<polygon fill="midnightblue" stroke="midnightblue" points="204.179,-28.2668 213.749,-23.7197 203.432,-21.3068 204.179,-28.2668"/>
</g>
</g>
</svg>
