<?xml version="1.0" encoding="UTF-8" standalone="no"?>
<!DOCTYPE svg PUBLIC "-//W3C//DTD SVG 1.1//EN"
 "http://www.w3.org/Graphics/SVG/1.1/DTD/svg11.dtd">
<!-- Generated by graphviz version 2.36.0 (20140111.2315)
 -->
<!-- Title: commands.viewCommands.PenDownCommand Pages: 1 -->
<svg width="178pt" height="208pt"
 viewBox="0.00 0.00 178.00 208.00" xmlns="http://www.w3.org/2000/svg" xmlns:xlink="http://www.w3.org/1999/xlink">
<g id="graph0" class="graph" transform="scale(1 1) rotate(0) translate(4 204)">
<title>commands.viewCommands.PenDownCommand</title>
<polygon fill="white" stroke="none" points="-4,4 -4,-204 174,-204 174,4 -4,4"/>
<!-- Node1 -->
<g id="node1" class="node"><title>Node1</title>
<polygon fill="#bfbfbf" stroke="black" points="0,-1 0,-31 170,-31 170,-1 0,-1"/>
<text text-anchor="start" x="8" y="-19" font-family="Helvetica,sans-Serif" font-size="10.00">commands.viewCommands.Pen</text>
<text text-anchor="middle" x="85" y="-8" font-family="Helvetica,sans-Serif" font-size="10.00">DownCommand</text>
</g>
<!-- Node2 -->
<g id="node2" class="node"><title>Node2</title>
<g id="a_node2"><a xlink:href="../../de/d53/classcommands_1_1_view_command.html" target="_top" xlink:title="commands.ViewCommand">
<polygon fill="white" stroke="black" points="12,-68.5 12,-87.5 158,-87.5 158,-68.5 12,-68.5"/>
<text text-anchor="middle" x="85" y="-75.5" font-family="Helvetica,sans-Serif" font-size="10.00">commands.ViewCommand</text>
</a>
</g>
</g>
<!-- Node2&#45;&gt;Node1 -->
<g id="edge1" class="edge"><title>Node2&#45;&gt;Node1</title>
<path fill="none" stroke="midnightblue" d="M85,-58.3707C85,-49.5849 85,-39.2721 85,-31.1408"/>
<polygon fill="midnightblue" stroke="midnightblue" points="81.5001,-58.4034 85,-68.4035 88.5001,-58.4035 81.5001,-58.4034"/>
</g>
<!-- Node3 -->
<g id="node3" class="node"><title>Node3</title>
<g id="a_node3"><a xlink:href="../../da/d90/classcommands_1_1_base_command.html" target="_top" xlink:title="commands.BaseCommand">
<polygon fill="white" stroke="black" points="11,-124.5 11,-143.5 159,-143.5 159,-124.5 11,-124.5"/>
<text text-anchor="middle" x="85" y="-131.5" font-family="Helvetica,sans-Serif" font-size="10.00">commands.BaseCommand</text>
</a>
</g>
</g>
<!-- Node3&#45;&gt;Node2 -->
<g id="edge2" class="edge"><title>Node3&#45;&gt;Node2</title>
<path fill="none" stroke="midnightblue" d="M85,-113.805C85,-104.91 85,-94.7798 85,-87.7511"/>
<polygon fill="midnightblue" stroke="midnightblue" points="81.5001,-114.083 85,-124.083 88.5001,-114.083 81.5001,-114.083"/>
</g>
<!-- Node4 -->
<g id="node4" class="node"><title>Node4</title>
<polygon fill="white" stroke="#bfbfbf" points="49.5,-180.5 49.5,-199.5 120.5,-199.5 120.5,-180.5 49.5,-180.5"/>
<text text-anchor="middle" x="85" y="-187.5" font-family="Helvetica,sans-Serif" font-size="10.00">Serializable</text>
</g>
<!-- Node4&#45;&gt;Node3 -->
<g id="edge3" class="edge"><title>Node4&#45;&gt;Node3</title>
<path fill="none" stroke="midnightblue" d="M85,-169.805C85,-160.91 85,-150.78 85,-143.751"/>
<polygon fill="midnightblue" stroke="midnightblue" points="81.5001,-170.083 85,-180.083 88.5001,-170.083 81.5001,-170.083"/>
</g>
</g>
</svg>
