<?xml version="1.0" encoding="UTF-8" standalone="no"?>
<!DOCTYPE svg PUBLIC "-//W3C//DTD SVG 1.1//EN"
 "http://www.w3.org/Graphics/SVG/1.1/DTD/svg11.dtd">
<!-- Generated by graphviz version 2.36.0 (20140111.2315)
 -->
<!-- Title: commands.viewCommands.SetShapeCommand.onExecute Pages: 1 -->
<svg width="642pt" height="175pt"
 viewBox="0.00 0.00 642.00 175.00" xmlns="http://www.w3.org/2000/svg" xmlns:xlink="http://www.w3.org/1999/xlink">
<g id="graph0" class="graph" transform="scale(1 1) rotate(0) translate(4 171)">
<title>commands.viewCommands.SetShapeCommand.onExecute</title>
<polygon fill="white" stroke="none" points="-4,4 -4,-171 638,-171 638,4 -4,4"/>
<!-- Node1 -->
<g id="node1" class="node"><title>Node1</title>
<polygon fill="#bfbfbf" stroke="black" points="0.5,-49 0.5,-79 169.5,-79 169.5,-49 0.5,-49"/>
<text text-anchor="start" x="8.5" y="-67" font-family="Helvetica,sans-Serif" font-size="10.00">commands.viewCommands.Set</text>
<text text-anchor="middle" x="85" y="-56" font-family="Helvetica,sans-Serif" font-size="10.00">ShapeCommand.onExecute</text>
</g>
<!-- Node2 -->
<g id="node2" class="node"><title>Node2</title>
<g id="a_node2"><a xlink:href="../../da/d90/classcommands_1_1_base_command.html#a68a349a085c4b05af0a55943da86598b" target="_top" xlink:title="commands.BaseCommand.execute">
<polygon fill="white" stroke="black" points="206.5,-98.5 206.5,-117.5 395.5,-117.5 395.5,-98.5 206.5,-98.5"/>
<text text-anchor="middle" x="301" y="-105.5" font-family="Helvetica,sans-Serif" font-size="10.00">commands.BaseCommand.execute</text>
</a>
</g>
</g>
<!-- Node1&#45;&gt;Node2 -->
<g id="edge1" class="edge"><title>Node1&#45;&gt;Node2</title>
<path fill="none" stroke="midnightblue" d="M159.048,-79.0192C186.733,-84.7115 217.802,-91.0994 243.71,-96.4264"/>
<polygon fill="midnightblue" stroke="midnightblue" points="243.235,-99.9018 253.735,-98.4876 244.645,-93.0453 243.235,-99.9018"/>
</g>
<!-- Node6 -->
<g id="node6" class="node"><title>Node6</title>
<g id="a_node6"><a xlink:href="../../de/d53/classcommands_1_1_view_command.html#a0d1f20b664d16af5ddd93941b6178637" target="_top" xlink:title="commands.ViewCommand.get\lExpressionList">
<polygon fill="white" stroke="black" points="219,-49 219,-79 383,-79 383,-49 219,-49"/>
<text text-anchor="start" x="227" y="-67" font-family="Helvetica,sans-Serif" font-size="10.00">commands.ViewCommand.get</text>
<text text-anchor="middle" x="301" y="-56" font-family="Helvetica,sans-Serif" font-size="10.00">ExpressionList</text>
</a>
</g>
</g>
<!-- Node1&#45;&gt;Node6 -->
<g id="edge6" class="edge"><title>Node1&#45;&gt;Node6</title>
<path fill="none" stroke="midnightblue" d="M169.657,-64C182.422,-64 195.653,-64 208.575,-64"/>
<polygon fill="midnightblue" stroke="midnightblue" points="208.856,-67.5001 218.856,-64 208.856,-60.5001 208.856,-67.5001"/>
</g>
<!-- Node7 -->
<g id="node7" class="node"><title>Node7</title>
<g id="a_node7"><a xlink:href="../../de/d53/classcommands_1_1_view_command.html#a32c2e34744e1d5c26ad5825a77e24ac1" target="_top" xlink:title="commands.ViewCommand.get\lGridContainer">
<polygon fill="white" stroke="black" points="219,-0 219,-30 383,-30 383,-0 219,-0"/>
<text text-anchor="start" x="227" y="-18" font-family="Helvetica,sans-Serif" font-size="10.00">commands.ViewCommand.get</text>
<text text-anchor="middle" x="301" y="-7" font-family="Helvetica,sans-Serif" font-size="10.00">GridContainer</text>
</a>
</g>
</g>
<!-- Node1&#45;&gt;Node7 -->
<g id="edge7" class="edge"><title>Node1&#45;&gt;Node7</title>
<path fill="none" stroke="midnightblue" d="M151.661,-48.9654C174.668,-43.6976 200.687,-37.7399 224.438,-32.3016"/>
<polygon fill="midnightblue" stroke="midnightblue" points="225.496,-35.6499 234.463,-30.0062 223.934,-28.8265 225.496,-35.6499"/>
</g>
<!-- Node2&#45;&gt;Node2 -->
<g id="edge2" class="edge"><title>Node2&#45;&gt;Node2</title>
<path fill="none" stroke="midnightblue" d="M267.978,-117.612C251.391,-126.461 262.398,-136 301,-136 329.348,-136 342.814,-130.856 341.399,-124.618"/>
<polygon fill="midnightblue" stroke="midnightblue" points="343.684,-121.961 334.022,-117.612 338.863,-127.036 343.684,-121.961"/>
</g>
<!-- Node3 -->
<g id="node3" class="node"><title>Node3</title>
<g id="a_node3"><a xlink:href="../../da/d90/classcommands_1_1_base_command.html#a90abff4a812d84d0454cb095e03c6e08" target="_top" xlink:title="commands.BaseCommand.get\lNextCommand">
<polygon fill="white" stroke="black" points="449.5,-137 449.5,-167 616.5,-167 616.5,-137 449.5,-137"/>
<text text-anchor="start" x="457.5" y="-155" font-family="Helvetica,sans-Serif" font-size="10.00">commands.BaseCommand.get</text>
<text text-anchor="middle" x="533" y="-144" font-family="Helvetica,sans-Serif" font-size="10.00">NextCommand</text>
</a>
</g>
</g>
<!-- Node2&#45;&gt;Node3 -->
<g id="edge3" class="edge"><title>Node2&#45;&gt;Node3</title>
<path fill="none" stroke="midnightblue" d="M351.907,-117.547C378.611,-122.656 412.298,-129.101 443.293,-135.03"/>
<polygon fill="midnightblue" stroke="midnightblue" points="442.77,-138.493 453.249,-136.935 444.085,-131.618 442.77,-138.493"/>
</g>
<!-- Node4 -->
<g id="node4" class="node"><title>Node4</title>
<g id="a_node4"><a xlink:href="../../da/d90/classcommands_1_1_base_command.html#aad4544c0bd9d40769d8997e4d6d97b08" target="_top" xlink:title="commands.BaseCommand.onExecute">
<polygon fill="white" stroke="black" points="432.5,-98.5 432.5,-117.5 633.5,-117.5 633.5,-98.5 432.5,-98.5"/>
<text text-anchor="middle" x="533" y="-105.5" font-family="Helvetica,sans-Serif" font-size="10.00">commands.BaseCommand.onExecute</text>
</a>
</g>
</g>
<!-- Node2&#45;&gt;Node4 -->
<g id="edge4" class="edge"><title>Node2&#45;&gt;Node4</title>
<path fill="none" stroke="midnightblue" d="M395.55,-108C404.315,-108 413.252,-108 422.149,-108"/>
<polygon fill="midnightblue" stroke="midnightblue" points="422.164,-111.5 432.164,-108 422.164,-104.5 422.164,-111.5"/>
</g>
<!-- Node5 -->
<g id="node5" class="node"><title>Node5</title>
<g id="a_node5"><a xlink:href="../../da/d90/classcommands_1_1_base_command.html#a37ff254bd611b07ea38aaaf85447a2c3" target="_top" xlink:title="commands.BaseCommand.reset">
<polygon fill="white" stroke="black" points="445,-60.5 445,-79.5 621,-79.5 621,-60.5 445,-60.5"/>
<text text-anchor="middle" x="533" y="-67.5" font-family="Helvetica,sans-Serif" font-size="10.00">commands.BaseCommand.reset</text>
</a>
</g>
</g>
<!-- Node2&#45;&gt;Node5 -->
<g id="edge5" class="edge"><title>Node2&#45;&gt;Node5</title>
<path fill="none" stroke="midnightblue" d="M359.742,-98.46C391.458,-93.2201 430.974,-86.6912 464.156,-81.2091"/>
<polygon fill="midnightblue" stroke="midnightblue" points="464.939,-84.6272 474.234,-79.5439 463.798,-77.7209 464.939,-84.6272"/>
</g>
</g>
</svg>
