<?xml version="1.0" encoding="UTF-8" standalone="no"?>
<!DOCTYPE svg PUBLIC "-//W3C//DTD SVG 1.1//EN"
 "http://www.w3.org/Graphics/SVG/1.1/DTD/svg11.dtd">
<!-- Generated by graphviz version 2.36.0 (20140111.2315)
 -->
<!-- Title: commands.controlCommands.ForCommand.onExecute Pages: 1 -->
<svg width="652pt" height="296pt"
 viewBox="0.00 0.00 652.00 296.00" xmlns="http://www.w3.org/2000/svg" xmlns:xlink="http://www.w3.org/1999/xlink">
<g id="graph0" class="graph" transform="scale(1 1) rotate(0) translate(4 292)">
<title>commands.controlCommands.ForCommand.onExecute</title>
<polygon fill="white" stroke="none" points="-4,4 -4,-292 648,-292 648,4 -4,4"/>
<!-- Node1 -->
<g id="node1" class="node"><title>Node1</title>
<polygon fill="#bfbfbf" stroke="black" points="0.5,-124 0.5,-154 165.5,-154 165.5,-124 0.5,-124"/>
<text text-anchor="start" x="8.5" y="-142" font-family="Helvetica,sans-Serif" font-size="10.00">commands.controlCommands.</text>
<text text-anchor="middle" x="83" y="-131" font-family="Helvetica,sans-Serif" font-size="10.00">ForCommand.onExecute</text>
</g>
<!-- Node2 -->
<g id="node2" class="node"><title>Node2</title>
<g id="a_node2"><a xlink:href="../../d4/d05/classcommands_1_1information_1_1_base_user_defined_container.html#a649c0be733d7500611b12da612ac4913" target="_top" xlink:title="commands.information.Base\lUserDefinedContainer.addVariable">
<polygon fill="white" stroke="black" points="452.5,-258 452.5,-288 633.5,-288 633.5,-258 452.5,-258"/>
<text text-anchor="start" x="460.5" y="-276" font-family="Helvetica,sans-Serif" font-size="10.00">commands.information.Base</text>
<text text-anchor="middle" x="543" y="-265" font-family="Helvetica,sans-Serif" font-size="10.00">UserDefinedContainer.addVariable</text>
</a>
</g>
</g>
<!-- Node1&#45;&gt;Node2 -->
<g id="edge1" class="edge"><title>Node1&#45;&gt;Node2</title>
<path fill="none" stroke="midnightblue" d="M94.1739,-154.303C112.31,-180.089 152.961,-231.484 202,-253 277.608,-286.173 371.888,-289.108 441.978,-284.922"/>
<polygon fill="midnightblue" stroke="midnightblue" points="442.389,-288.403 452.138,-284.256 441.931,-281.418 442.389,-288.403"/>
</g>
<!-- Node3 -->
<g id="node3" class="node"><title>Node3</title>
<g id="a_node3"><a xlink:href="../../da/dbb/classcommands_1_1control_commands_1_1_for_command.html#a058fd01602e05516d684aec34648a0ec" target="_top" xlink:title="commands.controlCommands.\lForCommand.checkIfVariableExists\lPreviously">
<polygon fill="white" stroke="black" points="212,-203.5 212,-244.5 396,-244.5 396,-203.5 212,-203.5"/>
<text text-anchor="start" x="220" y="-232.5" font-family="Helvetica,sans-Serif" font-size="10.00">commands.controlCommands.</text>
<text text-anchor="start" x="220" y="-221.5" font-family="Helvetica,sans-Serif" font-size="10.00">ForCommand.checkIfVariableExists</text>
<text text-anchor="middle" x="304" y="-210.5" font-family="Helvetica,sans-Serif" font-size="10.00">Previously</text>
</a>
</g>
</g>
<!-- Node1&#45;&gt;Node3 -->
<g id="edge2" class="edge"><title>Node1&#45;&gt;Node3</title>
<path fill="none" stroke="midnightblue" d="M113.064,-154.015C136.637,-165.833 170.933,-182.22 202,-194 207.724,-196.171 213.678,-198.287 219.704,-200.325"/>
<polygon fill="midnightblue" stroke="midnightblue" points="218.616,-203.651 229.209,-203.461 220.809,-197.004 218.616,-203.651"/>
</g>
<!-- Node5 -->
<g id="node5" class="node"><title>Node5</title>
<g id="a_node5"><a xlink:href="../../d4/d05/classcommands_1_1information_1_1_base_user_defined_container.html#a297576d243f5cac8a61ecbc097115350" target="_top" xlink:title="commands.information.Base\lUserDefinedContainer.containsVariable">
<polygon fill="white" stroke="black" points="202.5,-155 202.5,-185 405.5,-185 405.5,-155 202.5,-155"/>
<text text-anchor="start" x="210.5" y="-173" font-family="Helvetica,sans-Serif" font-size="10.00">commands.information.Base</text>
<text text-anchor="middle" x="304" y="-162" font-family="Helvetica,sans-Serif" font-size="10.00">UserDefinedContainer.containsVariable</text>
</a>
</g>
</g>
<!-- Node1&#45;&gt;Node5 -->
<g id="edge5" class="edge"><title>Node1&#45;&gt;Node5</title>
<path fill="none" stroke="midnightblue" d="M165.548,-150.543C174.295,-151.781 183.297,-153.056 192.311,-154.332"/>
<polygon fill="midnightblue" stroke="midnightblue" points="192.087,-157.835 202.478,-155.771 193.068,-150.904 192.087,-157.835"/>
</g>
<!-- Node7 -->
<g id="node7" class="node"><title>Node7</title>
<g id="a_node7"><a xlink:href="../../da/d90/classcommands_1_1_base_command.html#a68a349a085c4b05af0a55943da86598b" target="_top" xlink:title="commands.BaseCommand.execute">
<polygon fill="white" stroke="black" points="209.5,-98.5 209.5,-117.5 398.5,-117.5 398.5,-98.5 209.5,-98.5"/>
<text text-anchor="middle" x="304" y="-105.5" font-family="Helvetica,sans-Serif" font-size="10.00">commands.BaseCommand.execute</text>
</a>
</g>
</g>
<!-- Node1&#45;&gt;Node7 -->
<g id="edge7" class="edge"><title>Node1&#45;&gt;Node7</title>
<path fill="none" stroke="midnightblue" d="M165.548,-127.457C185.224,-124.672 206.191,-121.704 225.667,-118.947"/>
<polygon fill="midnightblue" stroke="midnightblue" points="226.291,-122.393 235.702,-117.526 225.31,-115.462 226.291,-122.393"/>
</g>
<!-- Node11 -->
<g id="node11" class="node"><title>Node11</title>
<g id="a_node11"><a xlink:href="../../d4/d05/classcommands_1_1information_1_1_base_user_defined_container.html#a6cae0ee70f94ed6534205d1d620ec815" target="_top" xlink:title="commands.information.Base\lUserDefinedContainer.getValue">
<polygon fill="white" stroke="black" points="220.5,-49 220.5,-79 387.5,-79 387.5,-49 220.5,-49"/>
<text text-anchor="start" x="228.5" y="-67" font-family="Helvetica,sans-Serif" font-size="10.00">commands.information.Base</text>
<text text-anchor="middle" x="304" y="-56" font-family="Helvetica,sans-Serif" font-size="10.00">UserDefinedContainer.getValue</text>
</a>
</g>
</g>
<!-- Node1&#45;&gt;Node11 -->
<g id="edge12" class="edge"><title>Node1&#45;&gt;Node11</title>
<path fill="none" stroke="midnightblue" d="M116.025,-123.801C139.464,-113.08 172.238,-98.9197 202,-89 209.676,-86.4417 217.757,-84.0134 225.867,-81.7478"/>
<polygon fill="midnightblue" stroke="midnightblue" points="227.014,-85.0633 235.749,-79.0673 225.181,-78.3075 227.014,-85.0633"/>
</g>
<!-- Node12 -->
<g id="node12" class="node"><title>Node12</title>
<g id="a_node12"><a xlink:href="../../da/d8a/classcommands_1_1_control_command.html#a11374c51f66b60220ca5bc8b4995a957" target="_top" xlink:title="commands.ControlCommand.get\lVariableContainer">
<polygon fill="white" stroke="black" points="215.5,-0 215.5,-30 392.5,-30 392.5,-0 215.5,-0"/>
<text text-anchor="start" x="223.5" y="-18" font-family="Helvetica,sans-Serif" font-size="10.00">commands.ControlCommand.get</text>
<text text-anchor="middle" x="304" y="-7" font-family="Helvetica,sans-Serif" font-size="10.00">VariableContainer</text>
</a>
</g>
</g>
<!-- Node1&#45;&gt;Node12 -->
<g id="edge13" class="edge"><title>Node1&#45;&gt;Node12</title>
<path fill="none" stroke="midnightblue" d="M97.2811,-123.927C117.598,-101.84 158.626,-60.9322 202,-39 205.952,-37.0018 210.075,-35.166 214.302,-33.48"/>
<polygon fill="midnightblue" stroke="midnightblue" points="215.515,-36.7629 223.69,-30.0231 213.096,-30.1941 215.515,-36.7629"/>
</g>
<!-- Node3&#45;&gt;Node2 -->
<g id="edge3" class="edge"><title>Node3&#45;&gt;Node2</title>
<path fill="none" stroke="midnightblue" d="M396.291,-242.875C417.023,-247.161 438.928,-251.69 459.28,-255.898"/>
<polygon fill="midnightblue" stroke="midnightblue" points="458.633,-259.338 469.135,-257.935 460.05,-252.483 458.633,-259.338"/>
</g>
<!-- Node4 -->
<g id="node4" class="node"><title>Node4</title>
<g id="a_node4"><a xlink:href="../../d4/d05/classcommands_1_1information_1_1_base_user_defined_container.html#a3a3cf23996f51aad8e2ad7cf14af1949" target="_top" xlink:title="commands.information.Base\lUserDefinedContainer.popOffVariable">
<polygon fill="white" stroke="black" points="446,-209 446,-239 640,-239 640,-209 446,-209"/>
<text text-anchor="start" x="454" y="-227" font-family="Helvetica,sans-Serif" font-size="10.00">commands.information.Base</text>
<text text-anchor="middle" x="543" y="-216" font-family="Helvetica,sans-Serif" font-size="10.00">UserDefinedContainer.popOffVariable</text>
</a>
</g>
</g>
<!-- Node3&#45;&gt;Node4 -->
<g id="edge4" class="edge"><title>Node3&#45;&gt;Node4</title>
<path fill="none" stroke="midnightblue" d="M396.291,-224C409.05,-224 422.254,-224 435.266,-224"/>
<polygon fill="midnightblue" stroke="midnightblue" points="435.648,-227.5 445.648,-224 435.648,-220.5 435.648,-227.5"/>
</g>
<!-- Node6 -->
<g id="node6" class="node"><title>Node6</title>
<g id="a_node6"><a xlink:href="../../d4/d05/classcommands_1_1information_1_1_base_user_defined_container.html#aadcdc884269f34620215ca47d2cc70b4" target="_top" xlink:title="commands.information.Base\lUserDefinedContainer.getAllVariables\lAndValues">
<polygon fill="white" stroke="black" points="445.5,-149.5 445.5,-190.5 640.5,-190.5 640.5,-149.5 445.5,-149.5"/>
<text text-anchor="start" x="453.5" y="-178.5" font-family="Helvetica,sans-Serif" font-size="10.00">commands.information.Base</text>
<text text-anchor="start" x="453.5" y="-167.5" font-family="Helvetica,sans-Serif" font-size="10.00">UserDefinedContainer.getAllVariables</text>
<text text-anchor="middle" x="543" y="-156.5" font-family="Helvetica,sans-Serif" font-size="10.00">AndValues</text>
</a>
</g>
</g>
<!-- Node5&#45;&gt;Node6 -->
<g id="edge6" class="edge"><title>Node5&#45;&gt;Node6</title>
<path fill="none" stroke="midnightblue" d="M405.509,-170C415.341,-170 425.342,-170 435.233,-170"/>
<polygon fill="midnightblue" stroke="midnightblue" points="435.488,-173.5 445.488,-170 435.488,-166.5 435.488,-173.5"/>
</g>
<!-- Node7&#45;&gt;Node7 -->
<g id="edge8" class="edge"><title>Node7&#45;&gt;Node7</title>
<path fill="none" stroke="midnightblue" d="M270.366,-117.612C253.472,-126.461 264.684,-136 304,-136 332.873,-136 346.589,-130.856 345.147,-124.618"/>
<polygon fill="midnightblue" stroke="midnightblue" points="347.335,-121.872 337.634,-117.612 342.561,-126.992 347.335,-121.872"/>
</g>
<!-- Node8 -->
<g id="node8" class="node"><title>Node8</title>
<g id="a_node8"><a xlink:href="../../da/d90/classcommands_1_1_base_command.html#a90abff4a812d84d0454cb095e03c6e08" target="_top" xlink:title="commands.BaseCommand.get\lNextCommand">
<polygon fill="white" stroke="black" points="459.5,-101 459.5,-131 626.5,-131 626.5,-101 459.5,-101"/>
<text text-anchor="start" x="467.5" y="-119" font-family="Helvetica,sans-Serif" font-size="10.00">commands.BaseCommand.get</text>
<text text-anchor="middle" x="543" y="-108" font-family="Helvetica,sans-Serif" font-size="10.00">NextCommand</text>
</a>
</g>
</g>
<!-- Node7&#45;&gt;Node8 -->
<g id="edge9" class="edge"><title>Node7&#45;&gt;Node8</title>
<path fill="none" stroke="midnightblue" d="M398.669,-111.162C415.277,-111.722 432.566,-112.306 449.151,-112.866"/>
<polygon fill="midnightblue" stroke="midnightblue" points="449.262,-116.371 459.374,-113.211 449.498,-109.375 449.262,-116.371"/>
</g>
<!-- Node9 -->
<g id="node9" class="node"><title>Node9</title>
<g id="a_node9"><a xlink:href="../../da/d90/classcommands_1_1_base_command.html#aad4544c0bd9d40769d8997e4d6d97b08" target="_top" xlink:title="commands.BaseCommand.onExecute">
<polygon fill="white" stroke="black" points="442.5,-62.5 442.5,-81.5 643.5,-81.5 643.5,-62.5 442.5,-62.5"/>
<text text-anchor="middle" x="543" y="-69.5" font-family="Helvetica,sans-Serif" font-size="10.00">commands.BaseCommand.onExecute</text>
</a>
</g>
</g>
<!-- Node7&#45;&gt;Node9 -->
<g id="edge10" class="edge"><title>Node7&#45;&gt;Node9</title>
<path fill="none" stroke="midnightblue" d="M367.579,-98.4943C398.774,-93.7558 436.678,-87.9982 469.173,-83.0624"/>
<polygon fill="midnightblue" stroke="midnightblue" points="469.709,-86.5212 479.07,-81.559 468.658,-79.6005 469.709,-86.5212"/>
</g>
<!-- Node10 -->
<g id="node10" class="node"><title>Node10</title>
<g id="a_node10"><a xlink:href="../../da/d90/classcommands_1_1_base_command.html#a37ff254bd611b07ea38aaaf85447a2c3" target="_top" xlink:title="commands.BaseCommand.reset">
<polygon fill="white" stroke="black" points="455,-24.5 455,-43.5 631,-43.5 631,-24.5 455,-24.5"/>
<text text-anchor="middle" x="543" y="-31.5" font-family="Helvetica,sans-Serif" font-size="10.00">commands.BaseCommand.reset</text>
</a>
</g>
</g>
<!-- Node7&#45;&gt;Node10 -->
<g id="edge11" class="edge"><title>Node7&#45;&gt;Node10</title>
<path fill="none" stroke="midnightblue" d="M379.247,-98.4472C388.542,-95.7758 397.691,-92.3619 406,-88 425.758,-77.6279 422.202,-63.2956 442,-53 446.538,-50.64 451.329,-48.5708 456.256,-46.7568"/>
<polygon fill="midnightblue" stroke="midnightblue" points="457.478,-50.0393 465.871,-43.5736 455.277,-43.394 457.478,-50.0393"/>
</g>
</g>
</svg>
