<?xml version="1.0" encoding="UTF-8" standalone="no"?>
<!DOCTYPE svg PUBLIC "-//W3C//DTD SVG 1.1//EN"
 "http://www.w3.org/Graphics/SVG/1.1/DTD/svg11.dtd">
<!-- Generated by graphviz version 2.36.0 (20140111.2315)
 -->
<!-- Title: GUIFunctions.EditingCell&lt; T, G &gt; Pages: 1 -->
<svg width="206pt" height="120pt"
 viewBox="0.00 0.00 206.00 120.00" xmlns="http://www.w3.org/2000/svg" xmlns:xlink="http://www.w3.org/1999/xlink">
<g id="graph0" class="graph" transform="scale(1 1) rotate(0) translate(4 116)">
<title>GUIFunctions.EditingCell&lt; T, G &gt;</title>
<polygon fill="white" stroke="none" points="-4,4 -4,-116 202,-116 202,4 -4,4"/>
<!-- Node1 -->
<g id="node1" class="node"><title>Node1</title>
<polygon fill="#bfbfbf" stroke="black" points="45.5,-1 45.5,-31 176.5,-31 176.5,-1 45.5,-1"/>
<text text-anchor="start" x="53.5" y="-19" font-family="Helvetica,sans-Serif" font-size="10.00">GUIFunctions.EditingCell</text>
<text text-anchor="middle" x="111" y="-8" font-family="Helvetica,sans-Serif" font-size="10.00">&lt; T, G &gt;</text>
</g>
<!-- Node2 -->
<g id="node2" class="node"><title>Node2</title>
<polygon fill="white" stroke="#bfbfbf" points="0,-81 0,-111 118,-111 118,-81 0,-81"/>
<text text-anchor="start" x="8" y="-99" font-family="Helvetica,sans-Serif" font-size="10.00">javafx::scene::control</text>
<text text-anchor="middle" x="59" y="-88" font-family="Helvetica,sans-Serif" font-size="10.00">::TableCell&lt; T, G &gt;</text>
</g>
<!-- Node2&#45;&gt;Node1 -->
<g id="edge1" class="edge"><title>Node2&#45;&gt;Node1</title>
<path fill="none" stroke="midnightblue" d="M74.2635,-72.1048C83.089,-58.8665 93.9166,-42.6251 101.523,-31.2157"/>
<polygon fill="midnightblue" stroke="midnightblue" points="71.1725,-70.4316 68.5376,-80.6936 76.9968,-74.3145 71.1725,-70.4316"/>
</g>
<!-- Node3 -->
<g id="node3" class="node"><title>Node3</title>
<polygon fill="white" stroke="#bfbfbf" points="136,-86.5 136,-105.5 192,-105.5 192,-86.5 136,-86.5"/>
<text text-anchor="middle" x="164" y="-93.5" font-family="Helvetica,sans-Serif" font-size="10.00">TextField</text>
</g>
<!-- Node3&#45;&gt;Node1 -->
<g id="edge2" class="edge"><title>Node3&#45;&gt;Node1</title>
<path fill="none" stroke="#9a32cd" stroke-dasharray="5,2" d="M152.243,-77.6976C142.75,-63.7262 129.554,-44.3055 120.667,-31.227"/>
<polygon fill="#9a32cd" stroke="#9a32cd" points="149.61,-80.0504 158.126,-86.3546 155.4,-76.1163 149.61,-80.0504"/>
<text text-anchor="middle" x="169" y="-53.5" font-family="Helvetica,sans-Serif" font-size="10.00"> myTextField</text>
</g>
</g>
</svg>
