<?xml version="1.0" encoding="UTF-8" standalone="no"?>
<!DOCTYPE svg PUBLIC "-//W3C//DTD SVG 1.1//EN"
 "http://www.w3.org/Graphics/SVG/1.1/DTD/svg11.dtd">
<!-- Generated by graphviz version 2.36.0 (20140111.2315)
 -->
<!-- Title: commands.turtleCommands.MultipleTurtleCommand Pages: 1 -->
<svg width="342pt" height="288pt"
 viewBox="0.00 0.00 342.00 288.00" xmlns="http://www.w3.org/2000/svg" xmlns:xlink="http://www.w3.org/1999/xlink">
<g id="graph0" class="graph" transform="scale(1 1) rotate(0) translate(4 284)">
<title>commands.turtleCommands.MultipleTurtleCommand</title>
<polygon fill="white" stroke="none" points="-4,4 -4,-284 338,-284 338,4 -4,4"/>
<!-- Node1 -->
<g id="node1" class="node"><title>Node1</title>
<polygon fill="#bfbfbf" stroke="black" points="88,-69 88,-99 246,-99 246,-69 88,-69"/>
<text text-anchor="start" x="96" y="-87" font-family="Helvetica,sans-Serif" font-size="10.00">commands.turtleCommands.</text>
<text text-anchor="middle" x="167" y="-76" font-family="Helvetica,sans-Serif" font-size="10.00">MultipleTurtleCommand</text>
</g>
<!-- Node5 -->
<g id="node5" class="node"><title>Node5</title>
<g id="a_node5"><a xlink:href="../../d6/de1/classcommands_1_1turtle_commands_1_1_ask_command.html" target="_top" xlink:title="commands.turtleCommands.\lAskCommand">
<polygon fill="white" stroke="black" points="0,-1 0,-31 158,-31 158,-1 0,-1"/>
<text text-anchor="start" x="8" y="-19" font-family="Helvetica,sans-Serif" font-size="10.00">commands.turtleCommands.</text>
<text text-anchor="middle" x="79" y="-8" font-family="Helvetica,sans-Serif" font-size="10.00">AskCommand</text>
</a>
</g>
</g>
<!-- Node1&#45;&gt;Node5 -->
<g id="edge4" class="edge"><title>Node1&#45;&gt;Node5</title>
<path fill="none" stroke="midnightblue" d="M139.799,-62.5994C126.162,-52.3712 109.99,-40.2428 97.7551,-31.0663"/>
<polygon fill="midnightblue" stroke="midnightblue" points="137.805,-65.479 147.905,-68.679 142.005,-59.8789 137.805,-65.479"/>
</g>
<!-- Node6 -->
<g id="node6" class="node"><title>Node6</title>
<g id="a_node6"><a xlink:href="../../d3/d71/classcommands_1_1turtle_commands_1_1_tell_command.html" target="_top" xlink:title="commands.turtleCommands.\lTellCommand">
<polygon fill="white" stroke="black" points="176,-1 176,-31 334,-31 334,-1 176,-1"/>
<text text-anchor="start" x="184" y="-19" font-family="Helvetica,sans-Serif" font-size="10.00">commands.turtleCommands.</text>
<text text-anchor="middle" x="255" y="-8" font-family="Helvetica,sans-Serif" font-size="10.00">TellCommand</text>
</a>
</g>
</g>
<!-- Node1&#45;&gt;Node6 -->
<g id="edge5" class="edge"><title>Node1&#45;&gt;Node6</title>
<path fill="none" stroke="midnightblue" d="M194.201,-62.5994C207.838,-52.3712 224.01,-40.2428 236.245,-31.0663"/>
<polygon fill="midnightblue" stroke="midnightblue" points="191.995,-59.8789 186.095,-68.679 196.195,-65.479 191.995,-59.8789"/>
</g>
<!-- Node2 -->
<g id="node2" class="node"><title>Node2</title>
<g id="a_node2"><a xlink:href="../../d3/d03/classcommands_1_1turtle_commands_1_1_turtle_command.html" target="_top" xlink:title="commands.turtleCommands.\lTurtleCommand">
<polygon fill="white" stroke="black" points="88,-137 88,-167 246,-167 246,-137 88,-137"/>
<text text-anchor="start" x="96" y="-155" font-family="Helvetica,sans-Serif" font-size="10.00">commands.turtleCommands.</text>
<text text-anchor="middle" x="167" y="-144" font-family="Helvetica,sans-Serif" font-size="10.00">TurtleCommand</text>
</a>
</g>
</g>
<!-- Node2&#45;&gt;Node1 -->
<g id="edge1" class="edge"><title>Node2&#45;&gt;Node1</title>
<path fill="none" stroke="midnightblue" d="M167,-126.532C167,-117.361 167,-107.245 167,-99.2931"/>
<polygon fill="midnightblue" stroke="midnightblue" points="163.5,-126.679 167,-136.679 170.5,-126.679 163.5,-126.679"/>
</g>
<!-- Node3 -->
<g id="node3" class="node"><title>Node3</title>
<g id="a_node3"><a xlink:href="../../da/d90/classcommands_1_1_base_command.html" target="_top" xlink:title="commands.BaseCommand">
<polygon fill="white" stroke="black" points="93,-204.5 93,-223.5 241,-223.5 241,-204.5 93,-204.5"/>
<text text-anchor="middle" x="167" y="-211.5" font-family="Helvetica,sans-Serif" font-size="10.00">commands.BaseCommand</text>
</a>
</g>
</g>
<!-- Node3&#45;&gt;Node2 -->
<g id="edge2" class="edge"><title>Node3&#45;&gt;Node2</title>
<path fill="none" stroke="midnightblue" d="M167,-194.371C167,-185.585 167,-175.272 167,-167.141"/>
<polygon fill="midnightblue" stroke="midnightblue" points="163.5,-194.403 167,-204.403 170.5,-194.403 163.5,-194.403"/>
</g>
<!-- Node4 -->
<g id="node4" class="node"><title>Node4</title>
<polygon fill="white" stroke="#bfbfbf" points="131.5,-260.5 131.5,-279.5 202.5,-279.5 202.5,-260.5 131.5,-260.5"/>
<text text-anchor="middle" x="167" y="-267.5" font-family="Helvetica,sans-Serif" font-size="10.00">Serializable</text>
</g>
<!-- Node4&#45;&gt;Node3 -->
<g id="edge3" class="edge"><title>Node4&#45;&gt;Node3</title>
<path fill="none" stroke="midnightblue" d="M167,-249.805C167,-240.91 167,-230.78 167,-223.751"/>
<polygon fill="midnightblue" stroke="midnightblue" points="163.5,-250.083 167,-260.083 170.5,-250.083 163.5,-250.083"/>
</g>
</g>
</svg>
