<?xml version="1.0" encoding="UTF-8" standalone="no"?>
<!DOCTYPE svg PUBLIC "-//W3C//DTD SVG 1.1//EN"
 "http://www.w3.org/Graphics/SVG/1.1/DTD/svg11.dtd">
<!-- Generated by graphviz version 2.36.0 (20140111.2315)
 -->
<!-- Title: commands.information.IInformationContainer Pages: 1 -->
<svg width="586pt" height="136pt"
 viewBox="0.00 0.00 586.00 136.00" xmlns="http://www.w3.org/2000/svg" xmlns:xlink="http://www.w3.org/1999/xlink">
<g id="graph0" class="graph" transform="scale(1 1) rotate(0) translate(4 132)">
<title>commands.information.IInformationContainer</title>
<polygon fill="white" stroke="none" points="-4,4 -4,-132 582,-132 582,4 -4,4"/>
<!-- Node1 -->
<g id="node1" class="node"><title>Node1</title>
<polygon fill="#bfbfbf" stroke="black" points="0,-49 0,-79 188,-79 188,-49 0,-49"/>
<text text-anchor="start" x="8" y="-67" font-family="Helvetica,sans-Serif" font-size="10.00">commands.information.IInformation</text>
<text text-anchor="middle" x="94" y="-56" font-family="Helvetica,sans-Serif" font-size="10.00">Container</text>
</g>
<!-- Node2 -->
<g id="node2" class="node"><title>Node2</title>
<g id="a_node2"><a xlink:href="../../d4/d37/classcommands_1_1information_1_1_base_grid_container.html" target="_top" xlink:title="commands.information.Base\lGridContainer">
<polygon fill="white" stroke="black" points="224.5,-98 224.5,-128 379.5,-128 379.5,-98 224.5,-98"/>
<text text-anchor="start" x="232.5" y="-116" font-family="Helvetica,sans-Serif" font-size="10.00">commands.information.Base</text>
<text text-anchor="middle" x="302" y="-105" font-family="Helvetica,sans-Serif" font-size="10.00">GridContainer</text>
</a>
</g>
</g>
<!-- Node1&#45;&gt;Node2 -->
<g id="edge1" class="edge"><title>Node1&#45;&gt;Node2</title>
<path fill="none" stroke="midnightblue" d="M168.167,-81.4038C190.955,-86.8243 215.876,-92.752 237.913,-97.9938"/>
<polygon fill="midnightblue" stroke="midnightblue" points="168.745,-77.9438 158.207,-79.0346 167.125,-84.7538 168.745,-77.9438"/>
</g>
<!-- Node4 -->
<g id="node4" class="node"><title>Node4</title>
<g id="a_node4"><a xlink:href="../../d7/d28/classcommands_1_1information_1_1_base_turtle_container.html" target="_top" xlink:title="commands.information.Base\lTurtleContainer">
<polygon fill="white" stroke="black" points="224.5,-49 224.5,-79 379.5,-79 379.5,-49 224.5,-49"/>
<text text-anchor="start" x="232.5" y="-67" font-family="Helvetica,sans-Serif" font-size="10.00">commands.information.Base</text>
<text text-anchor="middle" x="302" y="-56" font-family="Helvetica,sans-Serif" font-size="10.00">TurtleContainer</text>
</a>
</g>
</g>
<!-- Node1&#45;&gt;Node4 -->
<g id="edge3" class="edge"><title>Node1&#45;&gt;Node4</title>
<path fill="none" stroke="midnightblue" d="M198.341,-64C207.114,-64 215.883,-64 224.395,-64"/>
<polygon fill="midnightblue" stroke="midnightblue" points="198.056,-60.5001 188.056,-64 198.056,-67.5001 198.056,-60.5001"/>
</g>
<!-- Node6 -->
<g id="node6" class="node"><title>Node6</title>
<g id="a_node6"><a xlink:href="../../d4/d05/classcommands_1_1information_1_1_base_user_defined_container.html" target="_top" xlink:title="commands.information.Base\lUserDefinedContainer">
<polygon fill="white" stroke="black" points="224.5,-0 224.5,-30 379.5,-30 379.5,-0 224.5,-0"/>
<text text-anchor="start" x="232.5" y="-18" font-family="Helvetica,sans-Serif" font-size="10.00">commands.information.Base</text>
<text text-anchor="middle" x="302" y="-7" font-family="Helvetica,sans-Serif" font-size="10.00">UserDefinedContainer</text>
</a>
</g>
</g>
<!-- Node1&#45;&gt;Node6 -->
<g id="edge5" class="edge"><title>Node1&#45;&gt;Node6</title>
<path fill="none" stroke="midnightblue" d="M168.167,-46.5962C190.955,-41.1757 215.876,-35.248 237.913,-30.0062"/>
<polygon fill="midnightblue" stroke="midnightblue" points="167.125,-43.2462 158.207,-48.9654 168.745,-50.0562 167.125,-43.2462"/>
</g>
<!-- Node3 -->
<g id="node3" class="node"><title>Node3</title>
<g id="a_node3"><a xlink:href="../../da/d10/classcommands_1_1information_1_1_single_active_grid_container.html" target="_top" xlink:title="commands.information.Single\lActiveGridContainer">
<polygon fill="white" stroke="black" points="416.5,-98 416.5,-128 577.5,-128 577.5,-98 416.5,-98"/>
<text text-anchor="start" x="424.5" y="-116" font-family="Helvetica,sans-Serif" font-size="10.00">commands.information.Single</text>
<text text-anchor="middle" x="497" y="-105" font-family="Helvetica,sans-Serif" font-size="10.00">ActiveGridContainer</text>
</a>
</g>
</g>
<!-- Node2&#45;&gt;Node3 -->
<g id="edge2" class="edge"><title>Node2&#45;&gt;Node3</title>
<path fill="none" stroke="midnightblue" d="M389.566,-113C398.489,-113 407.527,-113 416.371,-113"/>
<polygon fill="midnightblue" stroke="midnightblue" points="389.556,-109.5 379.556,-113 389.556,-116.5 389.556,-109.5"/>
</g>
<!-- Node5 -->
<g id="node5" class="node"><title>Node5</title>
<g id="a_node5"><a xlink:href="../../dd/d99/classcommands_1_1information_1_1_single_grid_turtle_container.html" target="_top" xlink:title="commands.information.Single\lGridTurtleContainer">
<polygon fill="white" stroke="black" points="416.5,-49 416.5,-79 577.5,-79 577.5,-49 416.5,-49"/>
<text text-anchor="start" x="424.5" y="-67" font-family="Helvetica,sans-Serif" font-size="10.00">commands.information.Single</text>
<text text-anchor="middle" x="497" y="-56" font-family="Helvetica,sans-Serif" font-size="10.00">GridTurtleContainer</text>
</a>
</g>
</g>
<!-- Node4&#45;&gt;Node5 -->
<g id="edge4" class="edge"><title>Node4&#45;&gt;Node5</title>
<path fill="none" stroke="midnightblue" d="M389.566,-64C398.489,-64 407.527,-64 416.371,-64"/>
<polygon fill="midnightblue" stroke="midnightblue" points="389.556,-60.5001 379.556,-64 389.556,-67.5001 389.556,-60.5001"/>
</g>
<!-- Node7 -->
<g id="node7" class="node"><title>Node7</title>
<g id="a_node7"><a xlink:href="../../d0/d69/classcommands_1_1information_1_1_map_based_user_defined_container.html" target="_top" xlink:title="commands.information.Map\lBasedUserDefinedContainer">
<polygon fill="white" stroke="black" points="421,-0 421,-30 573,-30 573,-0 421,-0"/>
<text text-anchor="start" x="429" y="-18" font-family="Helvetica,sans-Serif" font-size="10.00">commands.information.Map</text>
<text text-anchor="middle" x="497" y="-7" font-family="Helvetica,sans-Serif" font-size="10.00">BasedUserDefinedContainer</text>
</a>
</g>
</g>
<!-- Node6&#45;&gt;Node7 -->
<g id="edge6" class="edge"><title>Node6&#45;&gt;Node7</title>
<path fill="none" stroke="midnightblue" d="M389.824,-15C400.159,-15 410.644,-15 420.798,-15"/>
<polygon fill="midnightblue" stroke="midnightblue" points="389.556,-11.5001 379.556,-15 389.556,-18.5001 389.556,-11.5001"/>
</g>
</g>
</svg>
