<?xml version="1.0" encoding="UTF-8" standalone="no"?>
<!DOCTYPE svg PUBLIC "-//W3C//DTD SVG 1.1//EN"
 "http://www.w3.org/Graphics/SVG/1.1/DTD/svg11.dtd">
<!-- Generated by graphviz version 2.36.0 (20140111.2315)
 -->
<!-- Title: TableInformation.Column.makeColumn Pages: 1 -->
<svg width="346pt" height="38pt"
 viewBox="0.00 0.00 346.00 38.00" xmlns="http://www.w3.org/2000/svg" xmlns:xlink="http://www.w3.org/1999/xlink">
<g id="graph0" class="graph" transform="scale(1 1) rotate(0) translate(4 34)">
<title>TableInformation.Column.makeColumn</title>
<polygon fill="white" stroke="none" points="-4,4 -4,-34 342,-34 342,4 -4,4"/>
<!-- Node1 -->
<g id="node1" class="node"><title>Node1</title>
<polygon fill="#bfbfbf" stroke="black" points="0.5,-0 0.5,-30 165.5,-30 165.5,-0 0.5,-0"/>
<text text-anchor="start" x="8.5" y="-18" font-family="Helvetica,sans-Serif" font-size="10.00">TableInformation.Column.make</text>
<text text-anchor="middle" x="83" y="-7" font-family="Helvetica,sans-Serif" font-size="10.00">Column</text>
</g>
<!-- Node2 -->
<g id="node2" class="node"><title>Node2</title>
<g id="a_node2"><a xlink:href="../../df/dc5/class_table_information_1_1_column.html#a683daf58228d0de337b501bc4d82f90e" target="_top" xlink:title="TableInformation.Column\l\&lt; Integer \&gt;::Column">
<polygon fill="white" stroke="black" points="202.5,-0 202.5,-30 337.5,-30 337.5,-0 202.5,-0"/>
<text text-anchor="start" x="210.5" y="-18" font-family="Helvetica,sans-Serif" font-size="10.00">TableInformation.Column</text>
<text text-anchor="middle" x="270" y="-7" font-family="Helvetica,sans-Serif" font-size="10.00">&lt; Integer &gt;::Column</text>
</a>
</g>
</g>
<!-- Node1&#45;&gt;Node2 -->
<g id="edge1" class="edge"><title>Node1&#45;&gt;Node2</title>
<path fill="none" stroke="midnightblue" d="M175.806,-15C184.792,-15 193.787,-15 202.452,-15"/>
<polygon fill="midnightblue" stroke="midnightblue" points="175.682,-11.5001 165.682,-15 175.682,-18.5001 175.682,-11.5001"/>
</g>
</g>
</svg>
