<?xml version="1.0" encoding="UTF-8" standalone="no"?>
<!DOCTYPE svg PUBLIC "-//W3C//DTD SVG 1.1//EN"
 "http://www.w3.org/Graphics/SVG/1.1/DTD/svg11.dtd">
<!-- Generated by graphviz version 2.36.0 (20140111.2315)
 -->
<!-- Title: turtle.MoveDirection.move Pages: 1 -->
<svg width="444pt" height="28pt"
 viewBox="0.00 0.00 444.00 28.00" xmlns="http://www.w3.org/2000/svg" xmlns:xlink="http://www.w3.org/1999/xlink">
<g id="graph0" class="graph" transform="scale(1 1) rotate(0) translate(4 24)">
<title>turtle.MoveDirection.move</title>
<polygon fill="white" stroke="none" points="-4,4 -4,-24 440,-24 440,4 -4,4"/>
<!-- Node1 -->
<g id="node1" class="node"><title>Node1</title>
<polygon fill="#bfbfbf" stroke="black" points="0.5,-0.5 0.5,-19.5 143.5,-19.5 143.5,-0.5 0.5,-0.5"/>
<text text-anchor="middle" x="72" y="-7.5" font-family="Helvetica,sans-Serif" font-size="10.00">turtle.MoveDirection.move</text>
</g>
<!-- Node2 -->
<g id="node2" class="node"><title>Node2</title>
<g id="a_node2"><a xlink:href="../../d2/d61/classturtle_1_1_direction.html#a3025867378b8f9aebbe32e8a24d814ab" target="_top" xlink:title="turtle.Direction.move">
<polygon fill="white" stroke="black" points="180,-0.5 180,-19.5 298,-19.5 298,-0.5 180,-0.5"/>
<text text-anchor="middle" x="239" y="-7.5" font-family="Helvetica,sans-Serif" font-size="10.00">turtle.Direction.move</text>
</a>
</g>
</g>
<!-- Node1&#45;&gt;Node2 -->
<g id="edge1" class="edge"><title>Node1&#45;&gt;Node2</title>
<path fill="none" stroke="midnightblue" d="M154.085,-10C162.76,-10 171.457,-10 179.791,-10"/>
<polygon fill="midnightblue" stroke="midnightblue" points="153.932,-6.5001 143.932,-10 153.932,-13.5001 153.932,-6.5001"/>
</g>
<!-- Node3 -->
<g id="node3" class="node"><title>Node3</title>
<g id="a_node3"><a xlink:href="../../df/dcb/classturtle_1_1_turtle.html#ab0436087c9153bdd2ccf3bb1f3dfafed" target="_top" xlink:title="turtle.Turtle.move">
<polygon fill="white" stroke="black" points="334.5,-0.5 334.5,-19.5 435.5,-19.5 435.5,-0.5 334.5,-0.5"/>
<text text-anchor="middle" x="385" y="-7.5" font-family="Helvetica,sans-Serif" font-size="10.00">turtle.Turtle.move</text>
</a>
</g>
</g>
<!-- Node2&#45;&gt;Node3 -->
<g id="edge2" class="edge"><title>Node2&#45;&gt;Node3</title>
<path fill="none" stroke="midnightblue" d="M308.393,-10C317.17,-10 326.017,-10 334.413,-10"/>
<polygon fill="midnightblue" stroke="midnightblue" points="308.155,-6.5001 298.155,-10 308.155,-13.5001 308.155,-6.5001"/>
</g>
</g>
</svg>
