<?xml version="1.0" encoding="UTF-8" standalone="no"?>
<!DOCTYPE svg PUBLIC "-//W3C//DTD SVG 1.1//EN"
 "http://www.w3.org/Graphics/SVG/1.1/DTD/svg11.dtd">
<!-- Generated by graphviz version 2.36.0 (20140111.2315)
 -->
<!-- Title: GUIFunctions.GridFunction Pages: 1 -->
<!--zoomable 470 -->
<svg id="main" version="1.1" xmlns="http://www.w3.org/2000/svg" xmlns:xlink="http://www.w3.org/1999/xlink" xml:space="preserve" onload="init(evt)">
<style type="text/css"><![CDATA[
.edge:hover path { stroke: red; }
.edge:hover polygon { stroke: red; fill: red; }
]]></style>
<script type="text/javascript"><![CDATA[
var edges = document.getElementsByTagName('g');
if (edges && edges.length) {
  for (var i=0;i<edges.length;i++) {
    if (edges[i].id.substr(0,4)=='edge') {
      edges[i].setAttribute('class','edge');
    }
  }
}
]]></script>
        <defs>
                <circle id="rim" cx="0" cy="0" r="7"/>
                <circle id="rim2" cx="0" cy="0" r="3.5"/>
                <g id="zoomPlus">
                        <use xlink:href="#rim" fill="#404040">
                                <set attributeName="fill" to="#808080" begin="zoomplus.mouseover" end="zoomplus.mouseout"/>
                        </use>
                        <path d="M-4,0h8M0,-4v8" fill="none" stroke="white" stroke-width="1.5" pointer-events="none"/>
                </g>
                <g id="zoomMin">
                        <use xlink:href="#rim" fill="#404040">
                                <set attributeName="fill" to="#808080" begin="zoomminus.mouseover" end="zoomminus.mouseout"/>
                        </use>
                        <path d="M-4,0h8" fill="none" stroke="white" stroke-width="1.5" pointer-events="none"/>
                </g>
                <g id="dirArrow">
                        <path fill="none" stroke="white" stroke-width="1.5" d="M0,-3.0v7 M-2.5,-0.5L0,-3.0L2.5,-0.5"/>
                </g>
               <g id="resetDef">
                       <use xlink:href="#rim2" fill="#404040">
                               <set attributeName="fill" to="#808080" begin="reset.mouseover" end="reset.mouseout"/>
                       </use>
               </g>
        </defs>

<script type="text/javascript">
var viewWidth = 726;
var viewHeight = 470;
var sectionId = 'dynsection-0';
</script>
<script xlink:href="../../svgpan.js"/>
<svg id="graph" class="graph">
<g id="viewport">
<title>GUIFunctions.GridFunction</title>
<polygon fill="white" stroke="none" points="-4,4 -4,-466 722,-466 722,4 -4,4"/>
<!-- Node1 -->
<g id="node1" class="node"><title>Node1</title>
<polygon fill="#bfbfbf" stroke="black" points="176.5,-113.5 176.5,-132.5 317.5,-132.5 317.5,-113.5 176.5,-113.5"/>
<text text-anchor="middle" x="247" y="-120.5" font-family="Helvetica,sans-Serif" font-size="10.00">GUIFunctions.GridFunction</text>
</g>
<!-- Node3 -->
<g id="node3" class="node"><title>Node3</title>
<g id="a_node3"><a xlink:href="../../d3/dc6/class_g_u_i_functions_1_1_bottom_functions.html" target="_top" xlink:title="GUIFunctions.BottomFunctions">
<polygon fill="white" stroke="black" points="354.5,-328.5 354.5,-347.5 517.5,-347.5 517.5,-328.5 354.5,-328.5"/>
<text text-anchor="middle" x="436" y="-335.5" font-family="Helvetica,sans-Serif" font-size="10.00">GUIFunctions.BottomFunctions</text>
</a>
</g>
</g>
<!-- Node1&#45;&gt;Node3 -->
<g id="edge2" class="edge"><title>Node1&#45;&gt;Node3</title>
<path fill="none" stroke="midnightblue" d="M262.921,-140.155C300.287,-183.116 396.989,-294.297 426.392,-328.104"/>
<polygon fill="midnightblue" stroke="midnightblue" points="265.48,-137.764 256.276,-132.516 260.198,-142.358 265.48,-137.764"/>
</g>
<!-- Node10 -->
<g id="node10" class="node"><title>Node10</title>
<g id="a_node10"><a xlink:href="../../d4/df9/class_g_u_i_functions_1_1_color_function.html" target="_top" xlink:title="GUIFunctions.ColorFunction">
<polygon fill="white" stroke="black" points="363,-176.5 363,-195.5 509,-195.5 509,-176.5 363,-176.5"/>
<text text-anchor="middle" x="436" y="-183.5" font-family="Helvetica,sans-Serif" font-size="10.00">GUIFunctions.ColorFunction</text>
</a>
</g>
</g>
<!-- Node1&#45;&gt;Node10 -->
<g id="edge9" class="edge"><title>Node1&#45;&gt;Node10</title>
<path fill="none" stroke="midnightblue" d="M283.173,-136.056C303.742,-143.579 330.252,-153.083 354,-161 370.056,-166.353 388.032,-171.941 402.963,-176.474"/>
<polygon fill="midnightblue" stroke="midnightblue" points="284.185,-132.699 273.591,-132.538 281.772,-139.27 284.185,-132.699"/>
</g>
<!-- Node13 -->
<g id="node13" class="node"><title>Node13</title>
<g id="a_node13"><a xlink:href="../../d5/dfa/class_g_u_i_functions_1_1_pen_thickness.html" target="_top" xlink:title="GUIFunctions.PenThickness">
<polygon fill="white" stroke="black" points="363,-132.5 363,-151.5 509,-151.5 509,-132.5 363,-132.5"/>
<text text-anchor="middle" x="436" y="-139.5" font-family="Helvetica,sans-Serif" font-size="10.00">GUIFunctions.PenThickness</text>
</a>
</g>
</g>
<!-- Node1&#45;&gt;Node13 -->
<g id="edge12" class="edge"><title>Node1&#45;&gt;Node13</title>
<path fill="none" stroke="midnightblue" d="M327.766,-131.105C339.405,-132.287 351.333,-133.499 362.81,-134.665"/>
<polygon fill="midnightblue" stroke="midnightblue" points="327.935,-127.604 317.632,-130.075 327.227,-134.568 327.935,-127.604"/>
</g>
<!-- Node14 -->
<g id="node14" class="node"><title>Node14</title>
<g id="a_node14"><a xlink:href="../../da/dc9/class_g_u_i_functions_1_1_personalize_menu.html" target="_top" xlink:title="GUIFunctions.PersonalizeMenu">
<polygon fill="white" stroke="black" points="354.5,-94.5 354.5,-113.5 517.5,-113.5 517.5,-94.5 354.5,-94.5"/>
<text text-anchor="middle" x="436" y="-101.5" font-family="Helvetica,sans-Serif" font-size="10.00">GUIFunctions.PersonalizeMenu</text>
</a>
</g>
</g>
<!-- Node1&#45;&gt;Node14 -->
<g id="edge13" class="edge"><title>Node1&#45;&gt;Node14</title>
<path fill="none" stroke="midnightblue" d="M327.821,-114.89C336.581,-114 345.504,-113.093 354.275,-112.202"/>
<polygon fill="midnightblue" stroke="midnightblue" points="327.227,-111.432 317.632,-115.925 327.935,-118.396 327.227,-111.432"/>
</g>
<!-- Node18 -->
<g id="node18" class="node"><title>Node18</title>
<g id="a_node18"><a xlink:href="../../d7/d63/class_view_1_1_pen_menu.html" target="_top" xlink:title="View.PenMenu">
<polygon fill="white" stroke="black" points="393.5,-56.5 393.5,-75.5 478.5,-75.5 478.5,-56.5 393.5,-56.5"/>
<text text-anchor="middle" x="436" y="-63.5" font-family="Helvetica,sans-Serif" font-size="10.00">View.PenMenu</text>
</a>
</g>
</g>
<!-- Node1&#45;&gt;Node18 -->
<g id="edge17" class="edge"><title>Node1&#45;&gt;Node18</title>
<path fill="none" stroke="midnightblue" d="M281.748,-109.791C302.414,-101.982 329.51,-92.2364 354,-85 366.605,-81.2753 380.484,-77.7978 393.138,-74.8624"/>
<polygon fill="midnightblue" stroke="midnightblue" points="280.254,-106.615 272.159,-113.45 282.75,-113.155 280.254,-106.615"/>
</g>
<!-- Node20 -->
<g id="node20" class="node"><title>Node20</title>
<g id="a_node20"><a xlink:href="../../db/dd1/class_view_1_1_set_palette.html" target="_top" xlink:title="View.SetPalette">
<polygon fill="white" stroke="black" points="391,-18.5 391,-37.5 481,-37.5 481,-18.5 391,-18.5"/>
<text text-anchor="middle" x="436" y="-25.5" font-family="Helvetica,sans-Serif" font-size="10.00">View.SetPalette</text>
</a>
</g>
</g>
<!-- Node1&#45;&gt;Node20 -->
<g id="edge19" class="edge"><title>Node1&#45;&gt;Node20</title>
<path fill="none" stroke="midnightblue" d="M265.946,-106.715C285.986,-89.3895 320.083,-62.4001 354,-47 365.442,-41.8047 378.462,-37.9461 390.666,-35.1159"/>
<polygon fill="midnightblue" stroke="midnightblue" points="263.449,-104.251 258.259,-113.487 268.076,-109.503 263.449,-104.251"/>
</g>
<!-- Node2 -->
<g id="node2" class="node"><title>Node2</title>
<g id="a_node2"><a xlink:href="../../d1/df5/interface_g_u_i_functions_1_1_g_u_i_function.html" target="_top" xlink:title="GUIFunctions.GUIFunction">
<polygon fill="white" stroke="black" points="0.5,-113.5 0.5,-132.5 139.5,-132.5 139.5,-113.5 0.5,-113.5"/>
<text text-anchor="middle" x="70" y="-120.5" font-family="Helvetica,sans-Serif" font-size="10.00">GUIFunctions.GUIFunction</text>
</a>
</g>
</g>
<!-- Node2&#45;&gt;Node1 -->
<g id="edge1" class="edge"><title>Node2&#45;&gt;Node1</title>
<path fill="none" stroke="midnightblue" d="M149.94,-123C158.759,-123 167.695,-123 176.386,-123"/>
<polygon fill="midnightblue" stroke="midnightblue" points="149.662,-119.5 139.662,-123 149.662,-126.5 149.662,-119.5"/>
</g>
<!-- Node4 -->
<g id="node4" class="node"><title>Node4</title>
<g id="a_node4"><a xlink:href="../../d6/d9d/class_g_u_i_functions_1_1_clear_function.html" target="_top" xlink:title="GUIFunctions.ClearFunction">
<polygon fill="white" stroke="black" points="563,-442.5 563,-461.5 709,-461.5 709,-442.5 563,-442.5"/>
<text text-anchor="middle" x="636" y="-449.5" font-family="Helvetica,sans-Serif" font-size="10.00">GUIFunctions.ClearFunction</text>
</a>
</g>
</g>
<!-- Node3&#45;&gt;Node4 -->
<g id="edge3" class="edge"><title>Node3&#45;&gt;Node4</title>
<path fill="none" stroke="midnightblue" d="M453.139,-355.228C474.259,-376.722 513.384,-413.069 554,-433 561.91,-436.882 570.649,-439.992 579.374,-442.479"/>
<polygon fill="midnightblue" stroke="midnightblue" points="455.422,-352.553 445.961,-347.783 450.382,-357.411 455.422,-352.553"/>
</g>
<!-- Node5 -->
<g id="node5" class="node"><title>Node5</title>
<g id="a_node5"><a xlink:href="../../db/d29/class_g_u_i_functions_1_1_clear_stamps.html" target="_top" xlink:title="GUIFunctions.ClearStamps">
<polygon fill="white" stroke="black" points="564,-404.5 564,-423.5 708,-423.5 708,-404.5 564,-404.5"/>
<text text-anchor="middle" x="636" y="-411.5" font-family="Helvetica,sans-Serif" font-size="10.00">GUIFunctions.ClearStamps</text>
</a>
</g>
</g>
<!-- Node3&#45;&gt;Node5 -->
<g id="edge4" class="edge"><title>Node3&#45;&gt;Node5</title>
<path fill="none" stroke="midnightblue" d="M462.395,-352.427C485.626,-365.123 521.258,-383.349 554,-395 564.342,-398.68 575.683,-401.85 586.517,-404.488"/>
<polygon fill="midnightblue" stroke="midnightblue" points="463.983,-349.306 453.539,-347.527 460.594,-355.431 463.983,-349.306"/>
</g>
<!-- Node6 -->
<g id="node6" class="node"><title>Node6</title>
<g id="a_node6"><a xlink:href="../../d2/dd2/class_g_u_i_functions_1_1_set_pen_down.html" target="_top" xlink:title="GUIFunctions.SetPenDown">
<polygon fill="white" stroke="black" points="564.5,-366.5 564.5,-385.5 707.5,-385.5 707.5,-366.5 564.5,-366.5"/>
<text text-anchor="middle" x="636" y="-373.5" font-family="Helvetica,sans-Serif" font-size="10.00">GUIFunctions.SetPenDown</text>
</a>
</g>
</g>
<!-- Node3&#45;&gt;Node6 -->
<g id="edge5" class="edge"><title>Node3&#45;&gt;Node6</title>
<path fill="none" stroke="midnightblue" d="M496.866,-349.489C525.117,-354.911 558.436,-361.306 585.271,-366.456"/>
<polygon fill="midnightblue" stroke="midnightblue" points="497.189,-345.988 486.708,-347.54 495.869,-352.862 497.189,-345.988"/>
</g>
<!-- Node7 -->
<g id="node7" class="node"><title>Node7</title>
<g id="a_node7"><a xlink:href="../../d8/d40/class_g_u_i_functions_1_1_set_pen_up.html" target="_top" xlink:title="GUIFunctions.SetPenUp">
<polygon fill="white" stroke="black" points="571,-328.5 571,-347.5 701,-347.5 701,-328.5 571,-328.5"/>
<text text-anchor="middle" x="636" y="-335.5" font-family="Helvetica,sans-Serif" font-size="10.00">GUIFunctions.SetPenUp</text>
</a>
</g>
</g>
<!-- Node3&#45;&gt;Node7 -->
<g id="edge6" class="edge"><title>Node3&#45;&gt;Node7</title>
<path fill="none" stroke="midnightblue" d="M527.602,-338C542.225,-338 557.094,-338 570.92,-338"/>
<polygon fill="midnightblue" stroke="midnightblue" points="527.534,-334.5 517.534,-338 527.534,-341.5 527.534,-334.5"/>
</g>
<!-- Node8 -->
<g id="node8" class="node"><title>Node8</title>
<g id="a_node8"><a xlink:href="../../de/def/class_g_u_i_functions_1_1_stamp.html" target="_top" xlink:title="GUIFunctions.Stamp">
<polygon fill="white" stroke="black" points="579,-290.5 579,-309.5 693,-309.5 693,-290.5 579,-290.5"/>
<text text-anchor="middle" x="636" y="-297.5" font-family="Helvetica,sans-Serif" font-size="10.00">GUIFunctions.Stamp</text>
</a>
</g>
</g>
<!-- Node3&#45;&gt;Node8 -->
<g id="edge7" class="edge"><title>Node3&#45;&gt;Node8</title>
<path fill="none" stroke="midnightblue" d="M496.866,-326.511C525.117,-321.089 558.436,-314.694 585.271,-309.544"/>
<polygon fill="midnightblue" stroke="midnightblue" points="495.869,-323.138 486.708,-328.46 497.189,-330.012 495.869,-323.138"/>
</g>
<!-- Node9 -->
<g id="node9" class="node"><title>Node9</title>
<g id="a_node9"><a xlink:href="../../d1/de7/class_g_u_i_functions_1_1_undo.html" target="_top" xlink:title="GUIFunctions.Undo">
<polygon fill="white" stroke="black" points="582.5,-252.5 582.5,-271.5 689.5,-271.5 689.5,-252.5 582.5,-252.5"/>
<text text-anchor="middle" x="636" y="-259.5" font-family="Helvetica,sans-Serif" font-size="10.00">GUIFunctions.Undo</text>
</a>
</g>
</g>
<!-- Node3&#45;&gt;Node9 -->
<g id="edge8" class="edge"><title>Node3&#45;&gt;Node9</title>
<path fill="none" stroke="midnightblue" d="M462.395,-323.573C485.626,-310.877 521.258,-292.651 554,-281 564.342,-277.32 575.683,-274.15 586.517,-271.512"/>
<polygon fill="midnightblue" stroke="midnightblue" points="460.594,-320.569 453.539,-328.473 463.983,-326.694 460.594,-320.569"/>
</g>
<!-- Node11 -->
<g id="node11" class="node"><title>Node11</title>
<g id="a_node11"><a xlink:href="../../dd/d80/class_g_u_i_functions_1_1_background_color.html" target="_top" xlink:title="GUIFunctions.BackgroundColor">
<polygon fill="white" stroke="black" points="554,-214.5 554,-233.5 718,-233.5 718,-214.5 554,-214.5"/>
<text text-anchor="middle" x="636" y="-221.5" font-family="Helvetica,sans-Serif" font-size="10.00">GUIFunctions.BackgroundColor</text>
</a>
</g>
</g>
<!-- Node10&#45;&gt;Node11 -->
<g id="edge10" class="edge"><title>Node10&#45;&gt;Node11</title>
<path fill="none" stroke="midnightblue" d="M496.866,-197.489C525.117,-202.911 558.436,-209.306 585.271,-214.456"/>
<polygon fill="midnightblue" stroke="midnightblue" points="497.189,-193.988 486.708,-195.54 495.869,-200.862 497.189,-193.988"/>
</g>
<!-- Node12 -->
<g id="node12" class="node"><title>Node12</title>
<g id="a_node12"><a xlink:href="../../da/d16/class_g_u_i_functions_1_1_pen_color.html" target="_top" xlink:title="GUIFunctions.PenColor">
<polygon fill="white" stroke="black" points="573.5,-176.5 573.5,-195.5 698.5,-195.5 698.5,-176.5 573.5,-176.5"/>
<text text-anchor="middle" x="636" y="-183.5" font-family="Helvetica,sans-Serif" font-size="10.00">GUIFunctions.PenColor</text>
</a>
</g>
</g>
<!-- Node10&#45;&gt;Node12 -->
<g id="edge11" class="edge"><title>Node10&#45;&gt;Node12</title>
<path fill="none" stroke="midnightblue" d="M519.056,-186C537.255,-186 556.241,-186 573.455,-186"/>
<polygon fill="midnightblue" stroke="midnightblue" points="519.043,-182.5 509.043,-186 519.043,-189.5 519.043,-182.5"/>
</g>
<!-- Node15 -->
<g id="node15" class="node"><title>Node15</title>
<g id="a_node15"><a xlink:href="../../dc/d8a/class_g_u_i_functions_1_1_set_background_image.html" target="_top" xlink:title="GUIFunctions.SetBackground\lImage">
<polygon fill="white" stroke="black" points="558.5,-127 558.5,-157 713.5,-157 713.5,-127 558.5,-127"/>
<text text-anchor="start" x="566.5" y="-145" font-family="Helvetica,sans-Serif" font-size="10.00">GUIFunctions.SetBackground</text>
<text text-anchor="middle" x="636" y="-134" font-family="Helvetica,sans-Serif" font-size="10.00">Image</text>
</a>
</g>
</g>
<!-- Node14&#45;&gt;Node15 -->
<g id="edge14" class="edge"><title>Node14&#45;&gt;Node15</title>
<path fill="none" stroke="midnightblue" d="M496.609,-115.44C515.999,-119.161 537.799,-123.345 558.26,-127.272"/>
<polygon fill="midnightblue" stroke="midnightblue" points="497.189,-111.988 486.708,-113.54 495.869,-118.862 497.189,-111.988"/>
</g>
<!-- Node16 -->
<g id="node16" class="node"><title>Node16</title>
<g id="a_node16"><a xlink:href="../../d8/df7/class_g_u_i_functions_1_1_toggle_grid_lines.html" target="_top" xlink:title="GUIFunctions.ToggleGridLines">
<polygon fill="white" stroke="black" points="558,-88.5 558,-107.5 714,-107.5 714,-88.5 558,-88.5"/>
<text text-anchor="middle" x="636" y="-95.5" font-family="Helvetica,sans-Serif" font-size="10.00">GUIFunctions.ToggleGridLines</text>
</a>
</g>
</g>
<!-- Node14&#45;&gt;Node16 -->
<g id="edge15" class="edge"><title>Node14&#45;&gt;Node16</title>
<path fill="none" stroke="midnightblue" d="M527.562,-101.256C537.644,-100.95 547.844,-100.641 557.739,-100.341"/>
<polygon fill="midnightblue" stroke="midnightblue" points="527.424,-97.7582 517.534,-101.56 527.636,-104.755 527.424,-97.7582"/>
</g>
<!-- Node17 -->
<g id="node17" class="node"><title>Node17</title>
<g id="a_node17"><a xlink:href="../../db/dd9/class_g_u_i_functions_1_1_turtle_image_change.html" target="_top" xlink:title="GUIFunctions.TurtleImage\lChange">
<polygon fill="white" stroke="black" points="567.5,-39 567.5,-69 704.5,-69 704.5,-39 567.5,-39"/>
<text text-anchor="start" x="575.5" y="-57" font-family="Helvetica,sans-Serif" font-size="10.00">GUIFunctions.TurtleImage</text>
<text text-anchor="middle" x="636" y="-46" font-family="Helvetica,sans-Serif" font-size="10.00">Change</text>
</a>
</g>
</g>
<!-- Node14&#45;&gt;Node17 -->
<g id="edge16" class="edge"><title>Node14&#45;&gt;Node17</title>
<path fill="none" stroke="midnightblue" d="M488.673,-92.1122C498.427,-89.8023 508.535,-87.3635 518,-85 538.082,-79.9855 560.031,-74.2404 579.438,-69.0693"/>
<polygon fill="midnightblue" stroke="midnightblue" points="487.611,-88.7665 478.678,-94.4642 489.214,-95.5803 487.611,-88.7665"/>
</g>
<!-- Node19 -->
<g id="node19" class="node"><title>Node19</title>
<g id="a_node19"><a xlink:href="../../d0/d77/class_g_u_i_functions_1_1_pen_style.html" target="_top" xlink:title="GUIFunctions.PenStyle">
<polygon fill="white" stroke="black" points="574,-0.5 574,-19.5 698,-19.5 698,-0.5 574,-0.5"/>
<text text-anchor="middle" x="636" y="-7.5" font-family="Helvetica,sans-Serif" font-size="10.00">GUIFunctions.PenStyle</text>
</a>
</g>
</g>
<!-- Node18&#45;&gt;Node19 -->
<g id="edge18" class="edge"><title>Node18&#45;&gt;Node19</title>
<path fill="none" stroke="midnightblue" d="M488.516,-55.8228C498.423,-53.3323 508.628,-50.3896 518,-47 534.822,-40.9161 537.178,-35.0839 554,-29 564.187,-25.3156 575.358,-22.1593 586.061,-19.5378"/>
<polygon fill="midnightblue" stroke="midnightblue" points="487.659,-52.4289 478.75,-58.1623 489.29,-59.2363 487.659,-52.4289"/>
</g>
</g>
</svg>
        <g id="navigator" transform="translate(0 0)" fill="#404254">
                <rect fill="#f2f5e9" fill-opacity="0.5" stroke="#606060" stroke-width=".5" x="0" y="0" width="60" height="60"/>
                <use id="zoomplus" xlink:href="#zoomPlus" x="17" y="9" onmousedown="handleZoom(evt,'in')"/>
                <use id="zoomminus" xlink:href="#zoomMin" x="42" y="9" onmousedown="handleZoom(evt,'out')"/>
                <use id="reset" xlink:href="#resetDef" x="30" y="36" onmousedown="handleReset()"/>
                <g id="arrowUp" xlink:href="#dirArrow" transform="translate(30 24)" onmousedown="handlePan(0,-1)">
                  <use xlink:href="#rim" fill="#404040">
                        <set attributeName="fill" to="#808080" begin="arrowUp.mouseover" end="arrowUp.mouseout"/>
                  </use>
                  <path fill="none" stroke="white" stroke-width="1.5" d="M0,-3.0v7 M-2.5,-0.5L0,-3.0L2.5,-0.5"/>
                </g>
                <g id="arrowRight" xlink:href="#dirArrow" transform="rotate(90) translate(36 -43)" onmousedown="handlePan(1,0)">
                  <use xlink:href="#rim" fill="#404040">
                        <set attributeName="fill" to="#808080" begin="arrowRight.mouseover" end="arrowRight.mouseout"/>
                  </use>
                  <path fill="none" stroke="white" stroke-width="1.5" d="M0,-3.0v7 M-2.5,-0.5L0,-3.0L2.5,-0.5"/>
                </g>
                <g id="arrowDown" xlink:href="#dirArrow" transform="rotate(180) translate(-30 -48)" onmousedown="handlePan(0,1)">
                  <use xlink:href="#rim" fill="#404040">
                        <set attributeName="fill" to="#808080" begin="arrowDown.mouseover" end="arrowDown.mouseout"/>
                  </use>
                  <path fill="none" stroke="white" stroke-width="1.5" d="M0,-3.0v7 M-2.5,-0.5L0,-3.0L2.5,-0.5"/>
                </g>
                <g id="arrowLeft" xlink:href="#dirArrow" transform="rotate(270) translate(-36 17)" onmousedown="handlePan(-1,0)">
                  <use xlink:href="#rim" fill="#404040">
                        <set attributeName="fill" to="#808080" begin="arrowLeft.mouseover" end="arrowLeft.mouseout"/>
                  </use>
                  <path fill="none" stroke="white" stroke-width="1.5" d="M0,-3.0v7 M-2.5,-0.5L0,-3.0L2.5,-0.5"/>
                </g>
        </g>
        <svg viewBox="0 0 15 15" width="100%" height="30px" preserveAspectRatio="xMaxYMin meet">
         <g id="arrow_out" transform="scale(0.3 0.3)">
          <a xlink:href="class_g_u_i_functions_1_1_grid_function__inherit__graph_org.svg" target="_base">
           <rect id="button" ry="5" rx="5" y="6" x="6" height="38" width="38"
                fill="#f2f5e9" fill-opacity="0.5" stroke="#606060" stroke-width="1.0"/>
           <path id="arrow"
             d="M 11.500037,31.436501 C 11.940474,20.09759 22.043105,11.32322 32.158766,21.979434 L 37.068811,17.246167 C 37.068811,17.246167 37.088388,32 37.088388,32 L 22.160133,31.978069 C 22.160133,31.978069 26.997745,27.140456 26.997745,27.140456 C 18.528582,18.264221 13.291696,25.230495 11.500037,31.436501 z"
             style="fill:#404040;"/>
          </a>
         </g>
        </svg>
</svg>
