<?xml version="1.0" encoding="UTF-8" standalone="no"?>
<!DOCTYPE svg PUBLIC "-//W3C//DTD SVG 1.1//EN"
 "http://www.w3.org/Graphics/SVG/1.1/DTD/svg11.dtd">
<!-- Generated by graphviz version 2.36.0 (20140111.2315)
 -->
<!-- Title: backendExceptions.SlogoIOException Pages: 1 -->
<svg width="202pt" height="152pt"
 viewBox="0.00 0.00 202.00 152.00" xmlns="http://www.w3.org/2000/svg" xmlns:xlink="http://www.w3.org/1999/xlink">
<g id="graph0" class="graph" transform="scale(1 1) rotate(0) translate(4 148)">
<title>backendExceptions.SlogoIOException</title>
<polygon fill="white" stroke="none" points="-4,4 -4,-148 198,-148 198,4 -4,4"/>
<!-- Node1 -->
<g id="node1" class="node"><title>Node1</title>
<polygon fill="#bfbfbf" stroke="black" points="-0.5,-0.5 -0.5,-19.5 194.5,-19.5 194.5,-0.5 -0.5,-0.5"/>
<text text-anchor="middle" x="97" y="-7.5" font-family="Helvetica,sans-Serif" font-size="10.00">backendExceptions.SlogoIOException</text>
</g>
<!-- Node2 -->
<g id="node2" class="node"><title>Node2</title>
<g id="a_node2"><a xlink:href="../../dc/da2/classbackend_exceptions_1_1_backend_exception.html" target="_top" xlink:title="backendExceptions.Backend\lException">
<polygon fill="white" stroke="black" points="20.5,-57 20.5,-87 173.5,-87 173.5,-57 20.5,-57"/>
<text text-anchor="start" x="28.5" y="-75" font-family="Helvetica,sans-Serif" font-size="10.00">backendExceptions.Backend</text>
<text text-anchor="middle" x="97" y="-64" font-family="Helvetica,sans-Serif" font-size="10.00">Exception</text>
</a>
</g>
</g>
<!-- Node2&#45;&gt;Node1 -->
<g id="edge1" class="edge"><title>Node2&#45;&gt;Node1</title>
<path fill="none" stroke="midnightblue" d="M97,-46.5858C97,-37.0743 97,-26.7864 97,-19.7305"/>
<polygon fill="midnightblue" stroke="midnightblue" points="93.5001,-46.7808 97,-56.7808 100.5,-46.7809 93.5001,-46.7808"/>
</g>
<!-- Node3 -->
<g id="node3" class="node"><title>Node3</title>
<polygon fill="white" stroke="#bfbfbf" points="65.5,-124.5 65.5,-143.5 128.5,-143.5 128.5,-124.5 65.5,-124.5"/>
<text text-anchor="middle" x="97" y="-131.5" font-family="Helvetica,sans-Serif" font-size="10.00">Exception</text>
</g>
<!-- Node3&#45;&gt;Node2 -->
<g id="edge2" class="edge"><title>Node3&#45;&gt;Node2</title>
<path fill="none" stroke="midnightblue" d="M97,-114.371C97,-105.585 97,-95.2721 97,-87.1408"/>
<polygon fill="midnightblue" stroke="midnightblue" points="93.5001,-114.403 97,-124.403 100.5,-114.403 93.5001,-114.403"/>
</g>
</g>
</svg>
