<?xml version="1.0" encoding="UTF-8" standalone="no"?>
<!DOCTYPE svg PUBLIC "-//W3C//DTD SVG 1.1//EN"
 "http://www.w3.org/Graphics/SVG/1.1/DTD/svg11.dtd">
<!-- Generated by graphviz version 2.36.0 (20140111.2315)
 -->
<!-- Title: commands.ControlCommand Pages: 1 -->
<svg width="455pt" height="178pt"
 viewBox="0.00 0.00 455.00 178.00" xmlns="http://www.w3.org/2000/svg" xmlns:xlink="http://www.w3.org/1999/xlink">
<g id="graph0" class="graph" transform="scale(1 1) rotate(0) translate(4 174)">
<title>commands.ControlCommand</title>
<polygon fill="white" stroke="none" points="-4,4 -4,-174 451,-174 451,4 -4,4"/>
<!-- Node1 -->
<g id="node1" class="node"><title>Node1</title>
<polygon fill="#bfbfbf" stroke="black" points="165,-0.5 165,-19.5 323,-19.5 323,-0.5 165,-0.5"/>
<text text-anchor="middle" x="244" y="-7.5" font-family="Helvetica,sans-Serif" font-size="10.00">commands.ControlCommand</text>
</g>
<!-- Node2 -->
<g id="node2" class="node"><title>Node2</title>
<g id="a_node2"><a xlink:href="../../da/d90/classcommands_1_1_base_command.html" target="_top" xlink:title="commands.BaseCommand">
<polygon fill="white" stroke="black" points="0,-74.5 0,-93.5 148,-93.5 148,-74.5 0,-74.5"/>
<text text-anchor="middle" x="74" y="-81.5" font-family="Helvetica,sans-Serif" font-size="10.00">commands.BaseCommand</text>
</a>
</g>
</g>
<!-- Node2&#45;&gt;Node1 -->
<g id="edge1" class="edge"><title>Node2&#45;&gt;Node1</title>
<path fill="none" stroke="midnightblue" d="M103.706,-70.4188C138.18,-55.8177 194.094,-32.1365 223.857,-19.531"/>
<polygon fill="midnightblue" stroke="midnightblue" points="102.012,-67.3351 94.1688,-74.4579 104.742,-73.7808 102.012,-67.3351"/>
</g>
<!-- Node2&#45;&gt;Node2 -->
<g id="edge3" class="edge"><title>Node2&#45;&gt;Node2</title>
<path fill="none" stroke="#9a32cd" stroke-dasharray="5,2" d="M158.58,-88.2658C163.233,-87.2274 166,-85.8054 166,-84 166,-81.1113 158.916,-79.2044 148.36,-78.2791"/>
<polygon fill="#9a32cd" stroke="#9a32cd" points="157.767,-84.8463 148.36,-89.7209 158.754,-91.7764 157.767,-84.8463"/>
<text text-anchor="middle" x="211.5" y="-81.5" font-family="Helvetica,sans-Serif" font-size="10.00"> myNextCommand</text>
</g>
<!-- Node3 -->
<g id="node3" class="node"><title>Node3</title>
<polygon fill="white" stroke="#bfbfbf" points="38.5,-144.5 38.5,-163.5 109.5,-163.5 109.5,-144.5 38.5,-144.5"/>
<text text-anchor="middle" x="74" y="-151.5" font-family="Helvetica,sans-Serif" font-size="10.00">Serializable</text>
</g>
<!-- Node3&#45;&gt;Node2 -->
<g id="edge2" class="edge"><title>Node3&#45;&gt;Node2</title>
<path fill="none" stroke="midnightblue" d="M74,-134.039C74,-120.852 74,-103.884 74,-93.7571"/>
<polygon fill="midnightblue" stroke="midnightblue" points="70.5001,-134.388 74,-144.388 77.5001,-134.388 70.5001,-134.388"/>
</g>
<!-- Node4 -->
<g id="node4" class="node"><title>Node4</title>
<g id="a_node4"><a xlink:href="../../d4/d05/classcommands_1_1information_1_1_base_user_defined_container.html" target="_top" xlink:title="commands.information.Base\lUserDefinedContainer">
<polygon fill="white" stroke="black" points="275.5,-69 275.5,-99 430.5,-99 430.5,-69 275.5,-69"/>
<text text-anchor="start" x="283.5" y="-87" font-family="Helvetica,sans-Serif" font-size="10.00">commands.information.Base</text>
<text text-anchor="middle" x="353" y="-76" font-family="Helvetica,sans-Serif" font-size="10.00">UserDefinedContainer</text>
</a>
</g>
</g>
<!-- Node4&#45;&gt;Node1 -->
<g id="edge4" class="edge"><title>Node4&#45;&gt;Node1</title>
<path fill="none" stroke="#9a32cd" stroke-dasharray="5,2" d="M323.194,-63.3115C301.526,-48.9991 273.255,-30.3247 257.015,-19.5972"/>
<polygon fill="#9a32cd" stroke="#9a32cd" points="321.452,-66.3555 331.725,-68.9468 325.31,-60.5147 321.452,-66.3555"/>
<text text-anchor="middle" x="353.5" y="-41.5" font-family="Helvetica,sans-Serif" font-size="10.00"> myVariableContainer</text>
</g>
<!-- Node5 -->
<g id="node5" class="node"><title>Node5</title>
<g id="a_node5"><a xlink:href="../../d4/d4e/interfacecommands_1_1information_1_1_i_information_container.html" target="_top" xlink:title="commands.information.IInformation\lContainer">
<polygon fill="white" stroke="black" points="259,-139 259,-169 447,-169 447,-139 259,-139"/>
<text text-anchor="start" x="267" y="-157" font-family="Helvetica,sans-Serif" font-size="10.00">commands.information.IInformation</text>
<text text-anchor="middle" x="353" y="-146" font-family="Helvetica,sans-Serif" font-size="10.00">Container</text>
</a>
</g>
</g>
<!-- Node5&#45;&gt;Node4 -->
<g id="edge5" class="edge"><title>Node5&#45;&gt;Node4</title>
<path fill="none" stroke="midnightblue" d="M353,-128.769C353,-118.814 353,-107.638 353,-99.0716"/>
<polygon fill="midnightblue" stroke="midnightblue" points="349.5,-128.91 353,-138.91 356.5,-128.91 349.5,-128.91"/>
</g>
</g>
</svg>
