<?xml version="1.0" encoding="UTF-8" standalone="no"?>
<!DOCTYPE svg PUBLIC "-//W3C//DTD SVG 1.1//EN"
 "http://www.w3.org/Graphics/SVG/1.1/DTD/svg11.dtd">
<!-- Generated by graphviz version 2.36.0 (20140111.2315)
 -->
<!-- Title: model.TurtleFactory.createTurtle Pages: 1 -->
<svg width="514pt" height="38pt"
 viewBox="0.00 0.00 514.00 38.00" xmlns="http://www.w3.org/2000/svg" xmlns:xlink="http://www.w3.org/1999/xlink">
<g id="graph0" class="graph" transform="scale(1 1) rotate(0) translate(4 34)">
<title>model.TurtleFactory.createTurtle</title>
<polygon fill="white" stroke="none" points="-4,4 -4,-34 510,-34 510,4 -4,4"/>
<!-- Node1 -->
<g id="node1" class="node"><title>Node1</title>
<polygon fill="#bfbfbf" stroke="black" points="0,-0 0,-30 142,-30 142,-0 0,-0"/>
<text text-anchor="start" x="8" y="-18" font-family="Helvetica,sans-Serif" font-size="10.00">model.TurtleFactory.create</text>
<text text-anchor="middle" x="71" y="-7" font-family="Helvetica,sans-Serif" font-size="10.00">Turtle</text>
</g>
<!-- Node2 -->
<g id="node2" class="node"><title>Node2</title>
<g id="a_node2"><a xlink:href="../../d3/d88/classmodel_1_1_slogo_model.html#ae121977c3f78f385b680ffa1e61d539c" target="_top" xlink:title="model.SlogoModel.initialize\lTurtle">
<polygon fill="white" stroke="black" points="178,-0 178,-30 324,-30 324,-0 178,-0"/>
<text text-anchor="start" x="186" y="-18" font-family="Helvetica,sans-Serif" font-size="10.00">model.SlogoModel.initialize</text>
<text text-anchor="middle" x="251" y="-7" font-family="Helvetica,sans-Serif" font-size="10.00">Turtle</text>
</a>
</g>
</g>
<!-- Node1&#45;&gt;Node2 -->
<g id="edge1" class="edge"><title>Node1&#45;&gt;Node2</title>
<path fill="none" stroke="midnightblue" d="M152.118,-15C160.716,-15 169.426,-15 177.922,-15"/>
<polygon fill="midnightblue" stroke="midnightblue" points="152.095,-11.5001 142.095,-15 152.095,-18.5001 152.095,-11.5001"/>
</g>
<!-- Node3 -->
<g id="node3" class="node"><title>Node3</title>
<g id="a_node3"><a xlink:href="../../d3/d88/classmodel_1_1_slogo_model.html#a09b49f321199097c5723c612b5553c33" target="_top" xlink:title="model.SlogoModel.initialize\lModel">
<polygon fill="white" stroke="black" points="360,-0 360,-30 506,-30 506,-0 360,-0"/>
<text text-anchor="start" x="368" y="-18" font-family="Helvetica,sans-Serif" font-size="10.00">model.SlogoModel.initialize</text>
<text text-anchor="middle" x="433" y="-7" font-family="Helvetica,sans-Serif" font-size="10.00">Model</text>
</a>
</g>
</g>
<!-- Node2&#45;&gt;Node3 -->
<g id="edge2" class="edge"><title>Node2&#45;&gt;Node3</title>
<path fill="none" stroke="midnightblue" d="M334.439,-15C342.906,-15 351.464,-15 359.808,-15"/>
<polygon fill="midnightblue" stroke="midnightblue" points="334.176,-11.5001 324.176,-15 334.176,-18.5001 334.176,-11.5001"/>
</g>
</g>
</svg>
