<?xml version="1.0" encoding="UTF-8" standalone="no"?>
<!DOCTYPE svg PUBLIC "-//W3C//DTD SVG 1.1//EN"
 "http://www.w3.org/Graphics/SVG/1.1/DTD/svg11.dtd">
<!-- Generated by graphviz version 2.36.0 (20140111.2315)
 -->
<!-- Title: View.SlogoView.addTurtle Pages: 1 -->
<svg width="794pt" height="192pt"
 viewBox="0.00 0.00 794.00 192.00" xmlns="http://www.w3.org/2000/svg" xmlns:xlink="http://www.w3.org/1999/xlink">
<g id="graph0" class="graph" transform="scale(1 1) rotate(0) translate(4 188)">
<title>View.SlogoView.addTurtle</title>
<polygon fill="white" stroke="none" points="-4,4 -4,-188 790,-188 790,4 -4,4"/>
<!-- Node1 -->
<g id="node1" class="node"><title>Node1</title>
<polygon fill="#bfbfbf" stroke="black" points="0.5,-60.5 0.5,-79.5 135.5,-79.5 135.5,-60.5 0.5,-60.5"/>
<text text-anchor="middle" x="68" y="-67.5" font-family="Helvetica,sans-Serif" font-size="10.00">View.SlogoView.addTurtle</text>
</g>
<!-- Node2 -->
<g id="node2" class="node"><title>Node2</title>
<g id="a_node2"><a xlink:href="../../d9/db1/class_view_1_1_single_grid.html#a5e40c65b3193d90383384e53d9542cdb" target="_top" xlink:title="View.SingleGrid.addTurtle">
<polygon fill="white" stroke="black" points="193,-126.5 193,-145.5 329,-145.5 329,-126.5 193,-126.5"/>
<text text-anchor="middle" x="261" y="-133.5" font-family="Helvetica,sans-Serif" font-size="10.00">View.SingleGrid.addTurtle</text>
</a>
</g>
</g>
<!-- Node1&#45;&gt;Node2 -->
<g id="edge1" class="edge"><title>Node1&#45;&gt;Node2</title>
<path fill="none" stroke="midnightblue" d="M87.5407,-79.6175C107.828,-89.8215 141.53,-105.843 172,-116 181.046,-119.015 190.764,-121.727 200.324,-124.11"/>
<polygon fill="midnightblue" stroke="midnightblue" points="199.654,-127.548 210.194,-126.472 201.283,-120.74 199.654,-127.548"/>
</g>
<!-- Node5 -->
<g id="node5" class="node"><title>Node5</title>
<g id="a_node5"><a xlink:href="../../d9/d00/classcommunicator_1_1_main_controller.html#a93573f54d48c3a5154789c8267ef4834" target="_top" xlink:title="communicator.MainController.add\lTurtle">
<polygon fill="white" stroke="black" points="172,-77 172,-107 350,-107 350,-77 172,-77"/>
<text text-anchor="start" x="180" y="-95" font-family="Helvetica,sans-Serif" font-size="10.00">communicator.MainController.add</text>
<text text-anchor="middle" x="261" y="-84" font-family="Helvetica,sans-Serif" font-size="10.00">Turtle</text>
</a>
</g>
</g>
<!-- Node1&#45;&gt;Node5 -->
<g id="edge4" class="edge"><title>Node1&#45;&gt;Node5</title>
<path fill="none" stroke="midnightblue" d="M135.534,-77.6636C144.061,-78.6457 152.927,-79.667 161.825,-80.6918"/>
<polygon fill="midnightblue" stroke="midnightblue" points="161.532,-84.1812 171.867,-81.8485 162.333,-77.2272 161.532,-84.1812"/>
</g>
<!-- Node9 -->
<g id="node9" class="node"><title>Node9</title>
<g id="a_node9"><a xlink:href="../../d7/d98/class_view_1_1_grid_tracker.html#af7c2413584c58030e606ae6692ea564f" target="_top" xlink:title="View.GridTracker.getActiveGrid">
<polygon fill="white" stroke="black" points="180.5,-38.5 180.5,-57.5 341.5,-57.5 341.5,-38.5 180.5,-38.5"/>
<text text-anchor="middle" x="261" y="-45.5" font-family="Helvetica,sans-Serif" font-size="10.00">View.GridTracker.getActiveGrid</text>
</a>
</g>
</g>
<!-- Node1&#45;&gt;Node9 -->
<g id="edge8" class="edge"><title>Node1&#45;&gt;Node9</title>
<path fill="none" stroke="midnightblue" d="M135.534,-62.3364C146.692,-61.0511 158.433,-59.6988 170.064,-58.3592"/>
<polygon fill="midnightblue" stroke="midnightblue" points="170.705,-61.8086 180.238,-57.1872 169.903,-54.8546 170.705,-61.8086"/>
</g>
<!-- Node10 -->
<g id="node10" class="node"><title>Node10</title>
<g id="a_node10"><a xlink:href="../../d0/d92/class_view_1_1_grid.html#a41a30a88e387ffd4c232201536049709" target="_top" xlink:title="View.Grid.getID">
<polygon fill="white" stroke="black" points="216.5,-0.5 216.5,-19.5 305.5,-19.5 305.5,-0.5 216.5,-0.5"/>
<text text-anchor="middle" x="261" y="-7.5" font-family="Helvetica,sans-Serif" font-size="10.00">View.Grid.getID</text>
</a>
</g>
</g>
<!-- Node1&#45;&gt;Node10 -->
<g id="edge9" class="edge"><title>Node1&#45;&gt;Node10</title>
<path fill="none" stroke="midnightblue" d="M89.9373,-60.4715C110.494,-51.4033 142.911,-37.8628 172,-29 182.986,-25.653 194.915,-22.662 206.34,-20.0985"/>
<polygon fill="midnightblue" stroke="midnightblue" points="207.184,-23.497 216.215,-17.9576 205.7,-16.656 207.184,-23.497"/>
</g>
<!-- Node3 -->
<g id="node3" class="node"><title>Node3</title>
<g id="a_node3"><a xlink:href="../../d9/db1/class_view_1_1_single_grid.html#a4f5ac29735861f044f439278afea0957" target="_top" xlink:title="View.SingleGrid.getAllTurtles">
<polygon fill="white" stroke="black" points="399,-164.5 399,-183.5 549,-183.5 549,-164.5 399,-164.5"/>
<text text-anchor="middle" x="474" y="-171.5" font-family="Helvetica,sans-Serif" font-size="10.00">View.SingleGrid.getAllTurtles</text>
</a>
</g>
</g>
<!-- Node2&#45;&gt;Node3 -->
<g id="edge2" class="edge"><title>Node2&#45;&gt;Node3</title>
<path fill="none" stroke="midnightblue" d="M314.972,-145.54C343.817,-150.735 379.695,-157.196 409.972,-162.649"/>
<polygon fill="midnightblue" stroke="midnightblue" points="409.544,-166.128 420.006,-164.456 410.785,-159.239 409.544,-166.128"/>
</g>
<!-- Node4 -->
<g id="node4" class="node"><title>Node4</title>
<g id="a_node4"><a xlink:href="../../df/dcb/classturtle_1_1_turtle.html#a00d4640d9156c2612f3472800fd26428" target="_top" xlink:title="turtle.Turtle.setID">
<polygon fill="white" stroke="black" points="425,-126.5 425,-145.5 523,-145.5 523,-126.5 425,-126.5"/>
<text text-anchor="middle" x="474" y="-133.5" font-family="Helvetica,sans-Serif" font-size="10.00">turtle.Turtle.setID</text>
</a>
</g>
</g>
<!-- Node2&#45;&gt;Node4 -->
<g id="edge3" class="edge"><title>Node2&#45;&gt;Node4</title>
<path fill="none" stroke="midnightblue" d="M329.052,-136C356.536,-136 388.055,-136 414.578,-136"/>
<polygon fill="midnightblue" stroke="midnightblue" points="414.856,-139.5 424.856,-136 414.856,-132.5 414.856,-139.5"/>
</g>
<!-- Node6 -->
<g id="node6" class="node"><title>Node6</title>
<g id="a_node6"><a xlink:href="../../d7/d28/classcommands_1_1information_1_1_base_turtle_container.html#ac2cb88e2ac1647e0035de6e5b1e89c0e" target="_top" xlink:title="commands.information.Base\lTurtleContainer.addTurtle">
<polygon fill="white" stroke="black" points="396.5,-77 396.5,-107 551.5,-107 551.5,-77 396.5,-77"/>
<text text-anchor="start" x="404.5" y="-95" font-family="Helvetica,sans-Serif" font-size="10.00">commands.information.Base</text>
<text text-anchor="middle" x="474" y="-84" font-family="Helvetica,sans-Serif" font-size="10.00">TurtleContainer.addTurtle</text>
</a>
</g>
</g>
<!-- Node5&#45;&gt;Node6 -->
<g id="edge5" class="edge"><title>Node5&#45;&gt;Node6</title>
<path fill="none" stroke="midnightblue" d="M350.26,-92C362.139,-92 374.317,-92 386.171,-92"/>
<polygon fill="midnightblue" stroke="midnightblue" points="386.489,-95.5001 396.489,-92 386.488,-88.5001 386.489,-95.5001"/>
</g>
<!-- Node7 -->
<g id="node7" class="node"><title>Node7</title>
<g id="a_node7"><a xlink:href="../../d9/d00/classcommunicator_1_1_main_controller.html#a72f0f382cec8d7912eba576e77ed31cf" target="_top" xlink:title="communicator.MainController.get\lTurtleContainer">
<polygon fill="white" stroke="black" points="386,-28 386,-58 562,-58 562,-28 386,-28"/>
<text text-anchor="start" x="394" y="-46" font-family="Helvetica,sans-Serif" font-size="10.00">communicator.MainController.get</text>
<text text-anchor="middle" x="474" y="-35" font-family="Helvetica,sans-Serif" font-size="10.00">TurtleContainer</text>
</a>
</g>
</g>
<!-- Node5&#45;&gt;Node7 -->
<g id="edge6" class="edge"><title>Node5&#45;&gt;Node7</title>
<path fill="none" stroke="midnightblue" d="M326.741,-76.9654C349.425,-71.6976 375.079,-65.7399 398.497,-60.3016"/>
<polygon fill="midnightblue" stroke="midnightblue" points="399.432,-63.6776 408.382,-58.0062 397.849,-56.8591 399.432,-63.6776"/>
</g>
<!-- Node8 -->
<g id="node8" class="node"><title>Node8</title>
<g id="a_node8"><a xlink:href="../../dd/df5/interfacecommands_1_1information_1_1_i_information_gateway.html#a6cc32177bef6b1d98f96ecab8af478e8" target="_top" xlink:title="commands.information.IInformation\lGateway.getContainer">
<polygon fill="white" stroke="black" points="598,-28 598,-58 786,-58 786,-28 598,-28"/>
<text text-anchor="start" x="606" y="-46" font-family="Helvetica,sans-Serif" font-size="10.00">commands.information.IInformation</text>
<text text-anchor="middle" x="692" y="-35" font-family="Helvetica,sans-Serif" font-size="10.00">Gateway.getContainer</text>
</a>
</g>
</g>
<!-- Node7&#45;&gt;Node8 -->
<g id="edge7" class="edge"><title>Node7&#45;&gt;Node8</title>
<path fill="none" stroke="midnightblue" d="M562.233,-43C570.648,-43 579.239,-43 587.789,-43"/>
<polygon fill="midnightblue" stroke="midnightblue" points="587.795,-46.5001 597.795,-43 587.795,-39.5001 587.795,-46.5001"/>
</g>
</g>
</svg>
