<?xml version="1.0" encoding="UTF-8" standalone="no"?>
<!DOCTYPE svg PUBLIC "-//W3C//DTD SVG 1.1//EN"
 "http://www.w3.org/Graphics/SVG/1.1/DTD/svg11.dtd">
<!-- Generated by graphviz version 2.36.0 (20140111.2315)
 -->
<!-- Title: View.SlogoView.createCommandLineWithLabel Pages: 1 -->
<!--zoomable 131 -->
<svg id="main" version="1.1" xmlns="http://www.w3.org/2000/svg" xmlns:xlink="http://www.w3.org/1999/xlink" xml:space="preserve" onload="init(evt)">
<style type="text/css"><![CDATA[
.edge:hover path { stroke: red; }
.edge:hover polygon { stroke: red; fill: red; }
]]></style>
<script type="text/javascript"><![CDATA[
var edges = document.getElementsByTagName('g');
if (edges && edges.length) {
  for (var i=0;i<edges.length;i++) {
    if (edges[i].id.substr(0,4)=='edge') {
      edges[i].setAttribute('class','edge');
    }
  }
}
]]></script>
        <defs>
                <circle id="rim" cx="0" cy="0" r="7"/>
                <circle id="rim2" cx="0" cy="0" r="3.5"/>
                <g id="zoomPlus">
                        <use xlink:href="#rim" fill="#404040">
                                <set attributeName="fill" to="#808080" begin="zoomplus.mouseover" end="zoomplus.mouseout"/>
                        </use>
                        <path d="M-4,0h8M0,-4v8" fill="none" stroke="white" stroke-width="1.5" pointer-events="none"/>
                </g>
                <g id="zoomMin">
                        <use xlink:href="#rim" fill="#404040">
                                <set attributeName="fill" to="#808080" begin="zoomminus.mouseover" end="zoomminus.mouseout"/>
                        </use>
                        <path d="M-4,0h8" fill="none" stroke="white" stroke-width="1.5" pointer-events="none"/>
                </g>
                <g id="dirArrow">
                        <path fill="none" stroke="white" stroke-width="1.5" d="M0,-3.0v7 M-2.5,-0.5L0,-3.0L2.5,-0.5"/>
                </g>
               <g id="resetDef">
                       <use xlink:href="#rim2" fill="#404040">
                               <set attributeName="fill" to="#808080" begin="reset.mouseover" end="reset.mouseout"/>
                       </use>
               </g>
        </defs>

<script type="text/javascript">
var viewWidth = 1232;
var viewHeight = 131;
var sectionId = 'dynsection-18';
</script>
<script xlink:href="../../svgpan.js"/>
<svg id="graph" class="graph">
<g id="viewport">
<title>View.SlogoView.createCommandLineWithLabel</title>
<polygon fill="white" stroke="none" points="-4,4 -4,-127 1228,-127 1228,4 -4,4"/>
<!-- Node1 -->
<g id="node1" class="node"><title>Node1</title>
<polygon fill="#bfbfbf" stroke="black" points="0.5,-24 0.5,-54 173.5,-54 173.5,-24 0.5,-24"/>
<text text-anchor="start" x="8.5" y="-42" font-family="Helvetica,sans-Serif" font-size="10.00">View.SlogoView.createCommand</text>
<text text-anchor="middle" x="87" y="-31" font-family="Helvetica,sans-Serif" font-size="10.00">LineWithLabel</text>
</g>
<!-- Node2 -->
<g id="node2" class="node"><title>Node2</title>
<g id="a_node2"><a xlink:href="../../d6/d33/class_view_1_1_slogo_view.html#a1a67765bb114e471855080a9938049a7" target="_top" xlink:title="View.SlogoView.sendCommand\lAndMakeButton">
<polygon fill="white" stroke="black" points="210.5,-24 210.5,-54 375.5,-54 375.5,-24 210.5,-24"/>
<text text-anchor="start" x="218.5" y="-42" font-family="Helvetica,sans-Serif" font-size="10.00">View.SlogoView.sendCommand</text>
<text text-anchor="middle" x="293" y="-31" font-family="Helvetica,sans-Serif" font-size="10.00">AndMakeButton</text>
</a>
</g>
</g>
<!-- Node1&#45;&gt;Node2 -->
<g id="edge1" class="edge"><title>Node1&#45;&gt;Node2</title>
<path fill="none" stroke="midnightblue" d="M173.628,-39C182.327,-39 191.189,-39 199.952,-39"/>
<polygon fill="midnightblue" stroke="midnightblue" points="200.179,-42.5001 210.178,-39 200.178,-35.5001 200.179,-42.5001"/>
</g>
<!-- Node3 -->
<g id="node3" class="node"><title>Node3</title>
<g id="a_node3"><a xlink:href="../../d9/d00/classcommunicator_1_1_main_controller.html#a63543f74d98f650f2ee4026151189fa8" target="_top" xlink:title="communicator.MainController.receive\lCommand">
<polygon fill="white" stroke="black" points="412,-49 412,-79 606,-79 606,-49 412,-49"/>
<text text-anchor="start" x="420" y="-67" font-family="Helvetica,sans-Serif" font-size="10.00">communicator.MainController.receive</text>
<text text-anchor="middle" x="509" y="-56" font-family="Helvetica,sans-Serif" font-size="10.00">Command</text>
</a>
</g>
</g>
<!-- Node2&#45;&gt;Node3 -->
<g id="edge2" class="edge"><title>Node2&#45;&gt;Node3</title>
<path fill="none" stroke="midnightblue" d="M375.515,-48.5227C384.004,-49.5145 392.721,-50.5329 401.435,-51.5508"/>
<polygon fill="midnightblue" stroke="midnightblue" points="401.309,-55.0598 411.647,-52.7439 402.121,-48.1071 401.309,-55.0598"/>
</g>
<!-- Node10 -->
<g id="node10" class="node"><title>Node10</title>
<g id="a_node10"><a xlink:href="../../d6/d33/class_view_1_1_slogo_view.html#ae43c4fa1c72ae66403b040613e9ba285" target="_top" xlink:title="View.SlogoView.updateCommand\lHistory">
<polygon fill="white" stroke="black" points="421,-0 421,-30 597,-30 597,-0 421,-0"/>
<text text-anchor="start" x="429" y="-18" font-family="Helvetica,sans-Serif" font-size="10.00">View.SlogoView.updateCommand</text>
<text text-anchor="middle" x="509" y="-7" font-family="Helvetica,sans-Serif" font-size="10.00">History</text>
</a>
</g>
</g>
<!-- Node2&#45;&gt;Node10 -->
<g id="edge9" class="edge"><title>Node2&#45;&gt;Node10</title>
<path fill="none" stroke="midnightblue" d="M375.515,-29.8582C386.934,-28.5775 398.765,-27.2506 410.445,-25.9408"/>
<polygon fill="midnightblue" stroke="midnightblue" points="411.108,-29.3884 420.655,-24.7957 410.328,-22.4321 411.108,-29.3884"/>
</g>
<!-- Node4 -->
<g id="node4" class="node"><title>Node4</title>
<g id="a_node4"><a xlink:href="../../d9/d00/classcommunicator_1_1_main_controller.html#a65cd5059a843dc8261445e09403810fb" target="_top" xlink:title="communicator.MainController.report\lErrorToView">
<polygon fill="white" stroke="black" points="642.5,-93 642.5,-123 831.5,-123 831.5,-93 642.5,-93"/>
<text text-anchor="start" x="650.5" y="-111" font-family="Helvetica,sans-Serif" font-size="10.00">communicator.MainController.report</text>
<text text-anchor="middle" x="737" y="-100" font-family="Helvetica,sans-Serif" font-size="10.00">ErrorToView</text>
</a>
</g>
</g>
<!-- Node3&#45;&gt;Node4 -->
<g id="edge3" class="edge"><title>Node3&#45;&gt;Node4</title>
<path fill="none" stroke="midnightblue" d="M587.144,-79.0192C607.034,-82.8916 628.578,-87.086 648.935,-91.0492"/>
<polygon fill="midnightblue" stroke="midnightblue" points="648.335,-94.4982 658.82,-92.9738 649.673,-87.6272 648.335,-94.4982"/>
</g>
<!-- Node6 -->
<g id="node6" class="node"><title>Node6</title>
<g id="a_node6"><a xlink:href="../../d6/d33/class_view_1_1_slogo_view.html#a1a17d5b15c98f706f7ed91ca9d8e341c" target="_top" xlink:title="View.SlogoView.setDisable">
<polygon fill="white" stroke="black" points="666,-54.5 666,-73.5 808,-73.5 808,-54.5 666,-54.5"/>
<text text-anchor="middle" x="737" y="-61.5" font-family="Helvetica,sans-Serif" font-size="10.00">View.SlogoView.setDisable</text>
</a>
</g>
</g>
<!-- Node3&#45;&gt;Node6 -->
<g id="edge5" class="edge"><title>Node3&#45;&gt;Node6</title>
<path fill="none" stroke="midnightblue" d="M606.172,-64C622.63,-64 639.576,-64 655.569,-64"/>
<polygon fill="midnightblue" stroke="midnightblue" points="655.927,-67.5001 665.927,-64 655.927,-60.5001 655.927,-67.5001"/>
</g>
<!-- Node7 -->
<g id="node7" class="node"><title>Node7</title>
<g id="a_node7"><a xlink:href="../../d8/d54/classcommand_parser_1_1_language_file_parser.html#ae28bcd29168ebd799eed22a0661dc383" target="_top" xlink:title="commandParser.LanguageFile\lParser.translateUserInputIntoEnglish">
<polygon fill="white" stroke="black" points="642,-5 642,-35 832,-35 832,-5 642,-5"/>
<text text-anchor="start" x="650" y="-23" font-family="Helvetica,sans-Serif" font-size="10.00">commandParser.LanguageFile</text>
<text text-anchor="middle" x="737" y="-12" font-family="Helvetica,sans-Serif" font-size="10.00">Parser.translateUserInputIntoEnglish</text>
</a>
</g>
</g>
<!-- Node3&#45;&gt;Node7 -->
<g id="edge6" class="edge"><title>Node3&#45;&gt;Node7</title>
<path fill="none" stroke="midnightblue" d="M587.144,-48.9808C607.034,-45.1084 628.578,-40.914 648.935,-36.9508"/>
<polygon fill="midnightblue" stroke="midnightblue" points="649.673,-40.3728 658.82,-35.0262 648.335,-33.5018 649.673,-40.3728"/>
</g>
<!-- Node5 -->
<g id="node5" class="node"><title>Node5</title>
<g id="a_node5"><a xlink:href="../../d6/d33/class_view_1_1_slogo_view.html#abe7981d0dd5275d2a4fbce6444b0c6f9" target="_top" xlink:title="View.SlogoView.showError">
<polygon fill="white" stroke="black" points="878.5,-98.5 878.5,-117.5 1017.5,-117.5 1017.5,-98.5 878.5,-98.5"/>
<text text-anchor="middle" x="948" y="-105.5" font-family="Helvetica,sans-Serif" font-size="10.00">View.SlogoView.showError</text>
</a>
</g>
</g>
<!-- Node4&#45;&gt;Node5 -->
<g id="edge4" class="edge"><title>Node4&#45;&gt;Node5</title>
<path fill="none" stroke="midnightblue" d="M831.801,-108C843.887,-108 856.167,-108 867.983,-108"/>
<polygon fill="midnightblue" stroke="midnightblue" points="868.231,-111.5 878.231,-108 868.231,-104.5 868.231,-111.5"/>
</g>
<!-- Node8 -->
<g id="node8" class="node"><title>Node8</title>
<g id="a_node8"><a xlink:href="../../d8/d54/classcommand_parser_1_1_language_file_parser.html#ae72a7da2ee20fd99c35ef282d1b455d5" target="_top" xlink:title="commandParser.LanguageFile\lParser.translateCommand">
<polygon fill="white" stroke="black" points="868,-5 868,-35 1028,-35 1028,-5 868,-5"/>
<text text-anchor="start" x="876" y="-23" font-family="Helvetica,sans-Serif" font-size="10.00">commandParser.LanguageFile</text>
<text text-anchor="middle" x="948" y="-12" font-family="Helvetica,sans-Serif" font-size="10.00">Parser.translateCommand</text>
</a>
</g>
</g>
<!-- Node7&#45;&gt;Node8 -->
<g id="edge7" class="edge"><title>Node7&#45;&gt;Node8</title>
<path fill="none" stroke="midnightblue" d="M832.106,-20C840.579,-20 849.144,-20 857.576,-20"/>
<polygon fill="midnightblue" stroke="midnightblue" points="857.779,-23.5001 867.779,-20 857.779,-16.5001 857.779,-23.5001"/>
</g>
<!-- Node9 -->
<g id="node9" class="node"><title>Node9</title>
<g id="a_node9"><a xlink:href="../../d8/d54/classcommand_parser_1_1_language_file_parser.html#abe53661bbe3e228951f62d97bddc5eb1" target="_top" xlink:title="commandParser.LanguageFile\lParser.translateByRegex">
<polygon fill="white" stroke="black" points="1064,-5 1064,-35 1224,-35 1224,-5 1064,-5"/>
<text text-anchor="start" x="1072" y="-23" font-family="Helvetica,sans-Serif" font-size="10.00">commandParser.LanguageFile</text>
<text text-anchor="middle" x="1144" y="-12" font-family="Helvetica,sans-Serif" font-size="10.00">Parser.translateByRegex</text>
</a>
</g>
</g>
<!-- Node8&#45;&gt;Node9 -->
<g id="edge8" class="edge"><title>Node8&#45;&gt;Node9</title>
<path fill="none" stroke="midnightblue" d="M1028.19,-20C1036.53,-20 1045.05,-20 1053.5,-20"/>
<polygon fill="midnightblue" stroke="midnightblue" points="1053.75,-23.5001 1063.75,-20 1053.75,-16.5001 1053.75,-23.5001"/>
</g>
</g>
</svg>
        <g id="navigator" transform="translate(0 0)" fill="#404254">
                <rect fill="#f2f5e9" fill-opacity="0.5" stroke="#606060" stroke-width=".5" x="0" y="0" width="60" height="60"/>
                <use id="zoomplus" xlink:href="#zoomPlus" x="17" y="9" onmousedown="handleZoom(evt,'in')"/>
                <use id="zoomminus" xlink:href="#zoomMin" x="42" y="9" onmousedown="handleZoom(evt,'out')"/>
                <use id="reset" xlink:href="#resetDef" x="30" y="36" onmousedown="handleReset()"/>
                <g id="arrowUp" xlink:href="#dirArrow" transform="translate(30 24)" onmousedown="handlePan(0,-1)">
                  <use xlink:href="#rim" fill="#404040">
                        <set attributeName="fill" to="#808080" begin="arrowUp.mouseover" end="arrowUp.mouseout"/>
                  </use>
                  <path fill="none" stroke="white" stroke-width="1.5" d="M0,-3.0v7 M-2.5,-0.5L0,-3.0L2.5,-0.5"/>
                </g>
                <g id="arrowRight" xlink:href="#dirArrow" transform="rotate(90) translate(36 -43)" onmousedown="handlePan(1,0)">
                  <use xlink:href="#rim" fill="#404040">
                        <set attributeName="fill" to="#808080" begin="arrowRight.mouseover" end="arrowRight.mouseout"/>
                  </use>
                  <path fill="none" stroke="white" stroke-width="1.5" d="M0,-3.0v7 M-2.5,-0.5L0,-3.0L2.5,-0.5"/>
                </g>
                <g id="arrowDown" xlink:href="#dirArrow" transform="rotate(180) translate(-30 -48)" onmousedown="handlePan(0,1)">
                  <use xlink:href="#rim" fill="#404040">
                        <set attributeName="fill" to="#808080" begin="arrowDown.mouseover" end="arrowDown.mouseout"/>
                  </use>
                  <path fill="none" stroke="white" stroke-width="1.5" d="M0,-3.0v7 M-2.5,-0.5L0,-3.0L2.5,-0.5"/>
                </g>
                <g id="arrowLeft" xlink:href="#dirArrow" transform="rotate(270) translate(-36 17)" onmousedown="handlePan(-1,0)">
                  <use xlink:href="#rim" fill="#404040">
                        <set attributeName="fill" to="#808080" begin="arrowLeft.mouseover" end="arrowLeft.mouseout"/>
                  </use>
                  <path fill="none" stroke="white" stroke-width="1.5" d="M0,-3.0v7 M-2.5,-0.5L0,-3.0L2.5,-0.5"/>
                </g>
        </g>
        <svg viewBox="0 0 15 15" width="100%" height="30px" preserveAspectRatio="xMaxYMin meet">
         <g id="arrow_out" transform="scale(0.3 0.3)">
          <a xlink:href="class_view_1_1_slogo_view_a468acf266470c356f2f36e7eb2f327e8_cgraph_org.svg" target="_base">
           <rect id="button" ry="5" rx="5" y="6" x="6" height="38" width="38"
                fill="#f2f5e9" fill-opacity="0.5" stroke="#606060" stroke-width="1.0"/>
           <path id="arrow"
             d="M 11.500037,31.436501 C 11.940474,20.09759 22.043105,11.32322 32.158766,21.979434 L 37.068811,17.246167 C 37.068811,17.246167 37.088388,32 37.088388,32 L 22.160133,31.978069 C 22.160133,31.978069 26.997745,27.140456 26.997745,27.140456 C 18.528582,18.264221 13.291696,25.230495 11.500037,31.436501 z"
             style="fill:#404040;"/>
          </a>
         </g>
        </svg>
</svg>
