<?xml version="1.0" encoding="UTF-8" standalone="no"?>
<!DOCTYPE svg PUBLIC "-//W3C//DTD SVG 1.1//EN"
 "http://www.w3.org/Graphics/SVG/1.1/DTD/svg11.dtd">
<!-- Generated by graphviz version 2.36.0 (20140111.2315)
 -->
<!-- Title: View.SlogoView.addButtons Pages: 1 -->
<svg width="364pt" height="66pt"
 viewBox="0.00 0.00 364.00 66.00" xmlns="http://www.w3.org/2000/svg" xmlns:xlink="http://www.w3.org/1999/xlink">
<g id="graph0" class="graph" transform="scale(1 1) rotate(0) translate(4 62)">
<title>View.SlogoView.addButtons</title>
<polygon fill="white" stroke="none" points="-4,4 -4,-62 360,-62 360,4 -4,4"/>
<!-- Node1 -->
<g id="node1" class="node"><title>Node1</title>
<polygon fill="#bfbfbf" stroke="black" points="0.5,-19.5 0.5,-38.5 147.5,-38.5 147.5,-19.5 0.5,-19.5"/>
<text text-anchor="middle" x="74" y="-26.5" font-family="Helvetica,sans-Serif" font-size="10.00">View.SlogoView.addButtons</text>
</g>
<!-- Node2 -->
<g id="node2" class="node"><title>Node2</title>
<g id="a_node2"><a xlink:href="../../d6/d33/class_view_1_1_slogo_view.html#ac50f93e8f6e588381d2a4fedb793ef3c" target="_top" xlink:title="View.SlogoView.makeButtons">
<polygon fill="white" stroke="black" points="192,-38.5 192,-57.5 348,-57.5 348,-38.5 192,-38.5"/>
<text text-anchor="middle" x="270" y="-45.5" font-family="Helvetica,sans-Serif" font-size="10.00">View.SlogoView.makeButtons</text>
</a>
</g>
</g>
<!-- Node1&#45;&gt;Node2 -->
<g id="edge1" class="edge"><title>Node1&#45;&gt;Node2</title>
<path fill="none" stroke="midnightblue" d="M147.514,-36.1019C158.668,-37.1943 170.285,-38.332 181.719,-39.4519"/>
<polygon fill="midnightblue" stroke="midnightblue" points="181.411,-42.9383 191.704,-40.4298 182.093,-35.9717 181.411,-42.9383"/>
</g>
<!-- Node3 -->
<g id="node3" class="node"><title>Node3</title>
<g id="a_node3"><a xlink:href="../../d6/d33/class_view_1_1_slogo_view.html#a45af2356a53cf1ca2ac9b55d34f5383b" target="_top" xlink:title="View.SlogoView.makeSlidingBars">
<polygon fill="white" stroke="black" points="184,-0.5 184,-19.5 356,-19.5 356,-0.5 184,-0.5"/>
<text text-anchor="middle" x="270" y="-7.5" font-family="Helvetica,sans-Serif" font-size="10.00">View.SlogoView.makeSlidingBars</text>
</a>
</g>
</g>
<!-- Node1&#45;&gt;Node3 -->
<g id="edge2" class="edge"><title>Node1&#45;&gt;Node3</title>
<path fill="none" stroke="midnightblue" d="M147.514,-21.8981C156.116,-21.0557 164.992,-20.1863 173.848,-19.319"/>
<polygon fill="midnightblue" stroke="midnightblue" points="174.21,-22.8004 183.822,-18.3422 173.528,-15.8337 174.21,-22.8004"/>
</g>
</g>
</svg>
