<?xml version="1.0" encoding="UTF-8" standalone="no"?>
<!DOCTYPE svg PUBLIC "-//W3C//DTD SVG 1.1//EN"
 "http://www.w3.org/Graphics/SVG/1.1/DTD/svg11.dtd">
<!-- Generated by graphviz version 2.36.0 (20140111.2315)
 -->
<!-- Title: View.SlogoView.setTextArea Pages: 1 -->
<!--zoomable 324 -->
<svg id="main" version="1.1" xmlns="http://www.w3.org/2000/svg" xmlns:xlink="http://www.w3.org/1999/xlink" xml:space="preserve" onload="init(evt)">
<style type="text/css"><![CDATA[
.edge:hover path { stroke: red; }
.edge:hover polygon { stroke: red; fill: red; }
]]></style>
<script type="text/javascript"><![CDATA[
var edges = document.getElementsByTagName('g');
if (edges && edges.length) {
  for (var i=0;i<edges.length;i++) {
    if (edges[i].id.substr(0,4)=='edge') {
      edges[i].setAttribute('class','edge');
    }
  }
}
]]></script>
        <defs>
                <circle id="rim" cx="0" cy="0" r="7"/>
                <circle id="rim2" cx="0" cy="0" r="3.5"/>
                <g id="zoomPlus">
                        <use xlink:href="#rim" fill="#404040">
                                <set attributeName="fill" to="#808080" begin="zoomplus.mouseover" end="zoomplus.mouseout"/>
                        </use>
                        <path d="M-4,0h8M0,-4v8" fill="none" stroke="white" stroke-width="1.5" pointer-events="none"/>
                </g>
                <g id="zoomMin">
                        <use xlink:href="#rim" fill="#404040">
                                <set attributeName="fill" to="#808080" begin="zoomminus.mouseover" end="zoomminus.mouseout"/>
                        </use>
                        <path d="M-4,0h8" fill="none" stroke="white" stroke-width="1.5" pointer-events="none"/>
                </g>
                <g id="dirArrow">
                        <path fill="none" stroke="white" stroke-width="1.5" d="M0,-3.0v7 M-2.5,-0.5L0,-3.0L2.5,-0.5"/>
                </g>
               <g id="resetDef">
                       <use xlink:href="#rim2" fill="#404040">
                               <set attributeName="fill" to="#808080" begin="reset.mouseover" end="reset.mouseout"/>
                       </use>
               </g>
        </defs>

<script type="text/javascript">
var viewWidth = 1442;
var viewHeight = 324;
var sectionId = 'dynsection-47';
</script>
<script xlink:href="../../svgpan.js"/>
<svg id="graph" class="graph">
<g id="viewport">
<title>View.SlogoView.setTextArea</title>
<polygon fill="white" stroke="none" points="-4,4 -4,-320 1438,-320 1438,4 -4,4"/>
<!-- Node1 -->
<g id="node1" class="node"><title>Node1</title>
<polygon fill="#bfbfbf" stroke="black" points="0,-103.5 0,-122.5 148,-122.5 148,-103.5 0,-103.5"/>
<text text-anchor="middle" x="74" y="-110.5" font-family="Helvetica,sans-Serif" font-size="10.00">View.SlogoView.setTextArea</text>
</g>
<!-- Node2 -->
<g id="node2" class="node"><title>Node2</title>
<g id="a_node2"><a xlink:href="../../d6/d33/class_view_1_1_slogo_view.html#a468acf266470c356f2f36e7eb2f327e8" target="_top" xlink:title="View.SlogoView.createCommand\lLineWithLabel">
<polygon fill="white" stroke="black" points="184.5,-196 184.5,-226 357.5,-226 357.5,-196 184.5,-196"/>
<text text-anchor="start" x="192.5" y="-214" font-family="Helvetica,sans-Serif" font-size="10.00">View.SlogoView.createCommand</text>
<text text-anchor="middle" x="271" y="-203" font-family="Helvetica,sans-Serif" font-size="10.00">LineWithLabel</text>
</a>
</g>
</g>
<!-- Node1&#45;&gt;Node2 -->
<g id="edge1" class="edge"><title>Node1&#45;&gt;Node2</title>
<path fill="none" stroke="midnightblue" d="M86.6908,-122.62C105.897,-137.996 145.816,-168.186 184,-186 189.02,-188.342 194.308,-190.516 199.692,-192.524"/>
<polygon fill="midnightblue" stroke="midnightblue" points="198.857,-195.94 209.452,-195.959 201.181,-189.337 198.857,-195.94"/>
</g>
<!-- Node12 -->
<g id="node12" class="node"><title>Node12</title>
<g id="a_node12"><a xlink:href="../../d6/d33/class_view_1_1_slogo_view.html#ac53c6ee17a0184deaf3e50be2ee738b2" target="_top" xlink:title="View.SlogoView.makeCommand\lButton">
<polygon fill="white" stroke="black" points="186.5,-147 186.5,-177 355.5,-177 355.5,-147 186.5,-147"/>
<text text-anchor="start" x="194.5" y="-165" font-family="Helvetica,sans-Serif" font-size="10.00">View.SlogoView.makeCommand</text>
<text text-anchor="middle" x="271" y="-154" font-family="Helvetica,sans-Serif" font-size="10.00">Button</text>
</a>
</g>
</g>
<!-- Node1&#45;&gt;Node12 -->
<g id="edge11" class="edge"><title>Node1&#45;&gt;Node12</title>
<path fill="none" stroke="midnightblue" d="M113.061,-122.564C137.856,-128.795 170.945,-137.109 200.347,-144.497"/>
<polygon fill="midnightblue" stroke="midnightblue" points="199.608,-147.92 210.159,-146.963 201.314,-141.131 199.608,-147.92"/>
</g>
<!-- Node15 -->
<g id="node15" class="node"><title>Node15</title>
<g id="a_node15"><a xlink:href="../../d6/d33/class_view_1_1_slogo_view.html#a4824ef91d42fc3dbfc6578318cf08822" target="_top" xlink:title="View.SlogoView.makeCommand\lHistoryBox">
<polygon fill="white" stroke="black" points="186.5,-98 186.5,-128 355.5,-128 355.5,-98 186.5,-98"/>
<text text-anchor="start" x="194.5" y="-116" font-family="Helvetica,sans-Serif" font-size="10.00">View.SlogoView.makeCommand</text>
<text text-anchor="middle" x="271" y="-105" font-family="Helvetica,sans-Serif" font-size="10.00">HistoryBox</text>
</a>
</g>
</g>
<!-- Node1&#45;&gt;Node15 -->
<g id="edge14" class="edge"><title>Node1&#45;&gt;Node15</title>
<path fill="none" stroke="midnightblue" d="M148.166,-113C157.292,-113 166.723,-113 176.109,-113"/>
<polygon fill="midnightblue" stroke="midnightblue" points="176.26,-116.5 186.26,-113 176.26,-109.5 176.26,-116.5"/>
</g>
<!-- Node16 -->
<g id="node16" class="node"><title>Node16</title>
<g id="a_node16"><a xlink:href="../../d6/d33/class_view_1_1_slogo_view.html#a27a9b993753f93e75b952f5755259ff8" target="_top" xlink:title="View.SlogoView.makeCommand\lHistoryLabel">
<polygon fill="white" stroke="black" points="186.5,-49 186.5,-79 355.5,-79 355.5,-49 186.5,-49"/>
<text text-anchor="start" x="194.5" y="-67" font-family="Helvetica,sans-Serif" font-size="10.00">View.SlogoView.makeCommand</text>
<text text-anchor="middle" x="271" y="-56" font-family="Helvetica,sans-Serif" font-size="10.00">HistoryLabel</text>
</a>
</g>
</g>
<!-- Node1&#45;&gt;Node16 -->
<g id="edge15" class="edge"><title>Node1&#45;&gt;Node16</title>
<path fill="none" stroke="midnightblue" d="M113.061,-103.436C137.856,-97.2053 170.945,-88.8906 200.347,-81.5026"/>
<polygon fill="midnightblue" stroke="midnightblue" points="201.314,-84.8686 210.159,-79.037 199.608,-78.0796 201.314,-84.8686"/>
</g>
<!-- Node17 -->
<g id="node17" class="node"><title>Node17</title>
<g id="a_node17"><a xlink:href="../../d6/d33/class_view_1_1_slogo_view.html#a2941755bd6ce8a526d66a549ae35cc3e" target="_top" xlink:title="View.SlogoView.makeEnter\lButton">
<polygon fill="white" stroke="black" points="199,-0 199,-30 343,-30 343,-0 199,-0"/>
<text text-anchor="start" x="207" y="-18" font-family="Helvetica,sans-Serif" font-size="10.00">View.SlogoView.makeEnter</text>
<text text-anchor="middle" x="271" y="-7" font-family="Helvetica,sans-Serif" font-size="10.00">Button</text>
</a>
</g>
</g>
<!-- Node1&#45;&gt;Node17 -->
<g id="edge16" class="edge"><title>Node1&#45;&gt;Node17</title>
<path fill="none" stroke="midnightblue" d="M86.6908,-103.38C105.897,-88.0039 145.816,-57.8136 184,-40 189.02,-37.6581 194.308,-35.4839 199.692,-33.4761"/>
<polygon fill="midnightblue" stroke="midnightblue" points="201.181,-36.6628 209.452,-30.0413 198.857,-30.0598 201.181,-36.6628"/>
</g>
<!-- Node3 -->
<g id="node3" class="node"><title>Node3</title>
<g id="a_node3"><a xlink:href="../../d6/d33/class_view_1_1_slogo_view.html#a1a67765bb114e471855080a9938049a7" target="_top" xlink:title="View.SlogoView.sendCommand\lAndMakeButton">
<polygon fill="white" stroke="black" points="407.5,-196 407.5,-226 572.5,-226 572.5,-196 407.5,-196"/>
<text text-anchor="start" x="415.5" y="-214" font-family="Helvetica,sans-Serif" font-size="10.00">View.SlogoView.sendCommand</text>
<text text-anchor="middle" x="490" y="-203" font-family="Helvetica,sans-Serif" font-size="10.00">AndMakeButton</text>
</a>
</g>
</g>
<!-- Node2&#45;&gt;Node3 -->
<g id="edge2" class="edge"><title>Node2&#45;&gt;Node3</title>
<path fill="none" stroke="midnightblue" d="M357.764,-211C370.664,-211 384.013,-211 397.036,-211"/>
<polygon fill="midnightblue" stroke="midnightblue" points="397.396,-214.5 407.396,-211 397.396,-207.5 397.396,-214.5"/>
</g>
<!-- Node4 -->
<g id="node4" class="node"><title>Node4</title>
<g id="a_node4"><a xlink:href="../../d9/d00/classcommunicator_1_1_main_controller.html#a63543f74d98f650f2ee4026151189fa8" target="_top" xlink:title="communicator.MainController.receive\lCommand">
<polygon fill="white" stroke="black" points="622,-242 622,-272 816,-272 816,-242 622,-242"/>
<text text-anchor="start" x="630" y="-260" font-family="Helvetica,sans-Serif" font-size="10.00">communicator.MainController.receive</text>
<text text-anchor="middle" x="719" y="-249" font-family="Helvetica,sans-Serif" font-size="10.00">Command</text>
</a>
</g>
</g>
<!-- Node3&#45;&gt;Node4 -->
<g id="edge3" class="edge"><title>Node3&#45;&gt;Node4</title>
<path fill="none" stroke="midnightblue" d="M565.328,-226.062C587.292,-230.513 611.486,-235.416 634.014,-239.981"/>
<polygon fill="midnightblue" stroke="midnightblue" points="633.397,-243.427 643.893,-241.983 634.787,-236.566 633.397,-243.427"/>
</g>
<!-- Node11 -->
<g id="node11" class="node"><title>Node11</title>
<g id="a_node11"><a xlink:href="../../d6/d33/class_view_1_1_slogo_view.html#ae43c4fa1c72ae66403b040613e9ba285" target="_top" xlink:title="View.SlogoView.updateCommand\lHistory">
<polygon fill="white" stroke="black" points="631,-193 631,-223 807,-223 807,-193 631,-193"/>
<text text-anchor="start" x="639" y="-211" font-family="Helvetica,sans-Serif" font-size="10.00">View.SlogoView.updateCommand</text>
<text text-anchor="middle" x="719" y="-200" font-family="Helvetica,sans-Serif" font-size="10.00">History</text>
</a>
</g>
</g>
<!-- Node3&#45;&gt;Node11 -->
<g id="edge10" class="edge"><title>Node3&#45;&gt;Node11</title>
<path fill="none" stroke="midnightblue" d="M572.632,-209.921C588.167,-209.716 604.57,-209.499 620.54,-209.288"/>
<polygon fill="midnightblue" stroke="midnightblue" points="621.006,-212.782 630.959,-209.15 620.914,-205.783 621.006,-212.782"/>
</g>
<!-- Node5 -->
<g id="node5" class="node"><title>Node5</title>
<g id="a_node5"><a xlink:href="../../d9/d00/classcommunicator_1_1_main_controller.html#a65cd5059a843dc8261445e09403810fb" target="_top" xlink:title="communicator.MainController.report\lErrorToView">
<polygon fill="white" stroke="black" points="852.5,-286 852.5,-316 1041.5,-316 1041.5,-286 852.5,-286"/>
<text text-anchor="start" x="860.5" y="-304" font-family="Helvetica,sans-Serif" font-size="10.00">communicator.MainController.report</text>
<text text-anchor="middle" x="947" y="-293" font-family="Helvetica,sans-Serif" font-size="10.00">ErrorToView</text>
</a>
</g>
</g>
<!-- Node4&#45;&gt;Node5 -->
<g id="edge4" class="edge"><title>Node4&#45;&gt;Node5</title>
<path fill="none" stroke="midnightblue" d="M797.144,-272.019C817.034,-275.892 838.578,-280.086 858.935,-284.049"/>
<polygon fill="midnightblue" stroke="midnightblue" points="858.335,-287.498 868.82,-285.974 859.673,-280.627 858.335,-287.498"/>
</g>
<!-- Node7 -->
<g id="node7" class="node"><title>Node7</title>
<g id="a_node7"><a xlink:href="../../d6/d33/class_view_1_1_slogo_view.html#a1a17d5b15c98f706f7ed91ca9d8e341c" target="_top" xlink:title="View.SlogoView.setDisable">
<polygon fill="white" stroke="black" points="876,-247.5 876,-266.5 1018,-266.5 1018,-247.5 876,-247.5"/>
<text text-anchor="middle" x="947" y="-254.5" font-family="Helvetica,sans-Serif" font-size="10.00">View.SlogoView.setDisable</text>
</a>
</g>
</g>
<!-- Node4&#45;&gt;Node7 -->
<g id="edge6" class="edge"><title>Node4&#45;&gt;Node7</title>
<path fill="none" stroke="midnightblue" d="M816.172,-257C832.63,-257 849.576,-257 865.569,-257"/>
<polygon fill="midnightblue" stroke="midnightblue" points="865.927,-260.5 875.927,-257 865.927,-253.5 865.927,-260.5"/>
</g>
<!-- Node8 -->
<g id="node8" class="node"><title>Node8</title>
<g id="a_node8"><a xlink:href="../../d8/d54/classcommand_parser_1_1_language_file_parser.html#ae28bcd29168ebd799eed22a0661dc383" target="_top" xlink:title="commandParser.LanguageFile\lParser.translateUserInputIntoEnglish">
<polygon fill="white" stroke="black" points="852,-198 852,-228 1042,-228 1042,-198 852,-198"/>
<text text-anchor="start" x="860" y="-216" font-family="Helvetica,sans-Serif" font-size="10.00">commandParser.LanguageFile</text>
<text text-anchor="middle" x="947" y="-205" font-family="Helvetica,sans-Serif" font-size="10.00">Parser.translateUserInputIntoEnglish</text>
</a>
</g>
</g>
<!-- Node4&#45;&gt;Node8 -->
<g id="edge7" class="edge"><title>Node4&#45;&gt;Node8</title>
<path fill="none" stroke="midnightblue" d="M797.144,-241.981C817.034,-238.108 838.578,-233.914 858.935,-229.951"/>
<polygon fill="midnightblue" stroke="midnightblue" points="859.673,-233.373 868.82,-228.026 858.335,-226.502 859.673,-233.373"/>
</g>
<!-- Node6 -->
<g id="node6" class="node"><title>Node6</title>
<g id="a_node6"><a xlink:href="../../d6/d33/class_view_1_1_slogo_view.html#abe7981d0dd5275d2a4fbce6444b0c6f9" target="_top" xlink:title="View.SlogoView.showError">
<polygon fill="white" stroke="black" points="1088.5,-291.5 1088.5,-310.5 1227.5,-310.5 1227.5,-291.5 1088.5,-291.5"/>
<text text-anchor="middle" x="1158" y="-298.5" font-family="Helvetica,sans-Serif" font-size="10.00">View.SlogoView.showError</text>
</a>
</g>
</g>
<!-- Node5&#45;&gt;Node6 -->
<g id="edge5" class="edge"><title>Node5&#45;&gt;Node6</title>
<path fill="none" stroke="midnightblue" d="M1041.8,-301C1053.89,-301 1066.17,-301 1077.98,-301"/>
<polygon fill="midnightblue" stroke="midnightblue" points="1078.23,-304.5 1088.23,-301 1078.23,-297.5 1078.23,-304.5"/>
</g>
<!-- Node9 -->
<g id="node9" class="node"><title>Node9</title>
<g id="a_node9"><a xlink:href="../../d8/d54/classcommand_parser_1_1_language_file_parser.html#ae72a7da2ee20fd99c35ef282d1b455d5" target="_top" xlink:title="commandParser.LanguageFile\lParser.translateCommand">
<polygon fill="white" stroke="black" points="1078,-198 1078,-228 1238,-228 1238,-198 1078,-198"/>
<text text-anchor="start" x="1086" y="-216" font-family="Helvetica,sans-Serif" font-size="10.00">commandParser.LanguageFile</text>
<text text-anchor="middle" x="1158" y="-205" font-family="Helvetica,sans-Serif" font-size="10.00">Parser.translateCommand</text>
</a>
</g>
</g>
<!-- Node8&#45;&gt;Node9 -->
<g id="edge8" class="edge"><title>Node8&#45;&gt;Node9</title>
<path fill="none" stroke="midnightblue" d="M1042.11,-213C1050.58,-213 1059.14,-213 1067.58,-213"/>
<polygon fill="midnightblue" stroke="midnightblue" points="1067.78,-216.5 1077.78,-213 1067.78,-209.5 1067.78,-216.5"/>
</g>
<!-- Node10 -->
<g id="node10" class="node"><title>Node10</title>
<g id="a_node10"><a xlink:href="../../d8/d54/classcommand_parser_1_1_language_file_parser.html#abe53661bbe3e228951f62d97bddc5eb1" target="_top" xlink:title="commandParser.LanguageFile\lParser.translateByRegex">
<polygon fill="white" stroke="black" points="1274,-198 1274,-228 1434,-228 1434,-198 1274,-198"/>
<text text-anchor="start" x="1282" y="-216" font-family="Helvetica,sans-Serif" font-size="10.00">commandParser.LanguageFile</text>
<text text-anchor="middle" x="1354" y="-205" font-family="Helvetica,sans-Serif" font-size="10.00">Parser.translateByRegex</text>
</a>
</g>
</g>
<!-- Node9&#45;&gt;Node10 -->
<g id="edge9" class="edge"><title>Node9&#45;&gt;Node10</title>
<path fill="none" stroke="midnightblue" d="M1238.19,-213C1246.53,-213 1255.05,-213 1263.5,-213"/>
<polygon fill="midnightblue" stroke="midnightblue" points="1263.75,-216.5 1273.75,-213 1263.75,-209.5 1263.75,-216.5"/>
</g>
<!-- Node13 -->
<g id="node13" class="node"><title>Node13</title>
<g id="a_node13"><a xlink:href="../../d6/d33/class_view_1_1_slogo_view.html#aaa1b5c8bf46a00ed935d768efcea28ef" target="_top" xlink:title="View.SlogoView.makeUserCommand">
<polygon fill="white" stroke="black" points="394.5,-152.5 394.5,-171.5 585.5,-171.5 585.5,-152.5 394.5,-152.5"/>
<text text-anchor="middle" x="490" y="-159.5" font-family="Helvetica,sans-Serif" font-size="10.00">View.SlogoView.makeUserCommand</text>
</a>
</g>
</g>
<!-- Node12&#45;&gt;Node13 -->
<g id="edge12" class="edge"><title>Node12&#45;&gt;Node13</title>
<path fill="none" stroke="midnightblue" d="M355.587,-162C364.882,-162 374.433,-162 383.95,-162"/>
<polygon fill="midnightblue" stroke="midnightblue" points="384.249,-165.5 394.249,-162 384.248,-158.5 384.249,-165.5"/>
</g>
<!-- Node14 -->
<g id="node14" class="node"><title>Node14</title>
<g id="a_node14"><a xlink:href="../../d7/d52/class_view_1_1_menu_template.html#a36b57849adefaed2c993b566b36117fc" target="_top" xlink:title="View.MenuTemplate.addMenuItem">
<polygon fill="white" stroke="black" points="629.5,-152.5 629.5,-171.5 808.5,-171.5 808.5,-152.5 629.5,-152.5"/>
<text text-anchor="middle" x="719" y="-159.5" font-family="Helvetica,sans-Serif" font-size="10.00">View.MenuTemplate.addMenuItem</text>
</a>
</g>
</g>
<!-- Node13&#45;&gt;Node14 -->
<g id="edge13" class="edge"><title>Node13&#45;&gt;Node14</title>
<path fill="none" stroke="midnightblue" d="M585.625,-162C596.708,-162 608.039,-162 619.178,-162"/>
<polygon fill="midnightblue" stroke="midnightblue" points="619.341,-165.5 629.341,-162 619.341,-158.5 619.341,-165.5"/>
</g>
</g>
</svg>
        <g id="navigator" transform="translate(0 0)" fill="#404254">
                <rect fill="#f2f5e9" fill-opacity="0.5" stroke="#606060" stroke-width=".5" x="0" y="0" width="60" height="60"/>
                <use id="zoomplus" xlink:href="#zoomPlus" x="17" y="9" onmousedown="handleZoom(evt,'in')"/>
                <use id="zoomminus" xlink:href="#zoomMin" x="42" y="9" onmousedown="handleZoom(evt,'out')"/>
                <use id="reset" xlink:href="#resetDef" x="30" y="36" onmousedown="handleReset()"/>
                <g id="arrowUp" xlink:href="#dirArrow" transform="translate(30 24)" onmousedown="handlePan(0,-1)">
                  <use xlink:href="#rim" fill="#404040">
                        <set attributeName="fill" to="#808080" begin="arrowUp.mouseover" end="arrowUp.mouseout"/>
                  </use>
                  <path fill="none" stroke="white" stroke-width="1.5" d="M0,-3.0v7 M-2.5,-0.5L0,-3.0L2.5,-0.5"/>
                </g>
                <g id="arrowRight" xlink:href="#dirArrow" transform="rotate(90) translate(36 -43)" onmousedown="handlePan(1,0)">
                  <use xlink:href="#rim" fill="#404040">
                        <set attributeName="fill" to="#808080" begin="arrowRight.mouseover" end="arrowRight.mouseout"/>
                  </use>
                  <path fill="none" stroke="white" stroke-width="1.5" d="M0,-3.0v7 M-2.5,-0.5L0,-3.0L2.5,-0.5"/>
                </g>
                <g id="arrowDown" xlink:href="#dirArrow" transform="rotate(180) translate(-30 -48)" onmousedown="handlePan(0,1)">
                  <use xlink:href="#rim" fill="#404040">
                        <set attributeName="fill" to="#808080" begin="arrowDown.mouseover" end="arrowDown.mouseout"/>
                  </use>
                  <path fill="none" stroke="white" stroke-width="1.5" d="M0,-3.0v7 M-2.5,-0.5L0,-3.0L2.5,-0.5"/>
                </g>
                <g id="arrowLeft" xlink:href="#dirArrow" transform="rotate(270) translate(-36 17)" onmousedown="handlePan(-1,0)">
                  <use xlink:href="#rim" fill="#404040">
                        <set attributeName="fill" to="#808080" begin="arrowLeft.mouseover" end="arrowLeft.mouseout"/>
                  </use>
                  <path fill="none" stroke="white" stroke-width="1.5" d="M0,-3.0v7 M-2.5,-0.5L0,-3.0L2.5,-0.5"/>
                </g>
        </g>
        <svg viewBox="0 0 15 15" width="100%" height="30px" preserveAspectRatio="xMaxYMin meet">
         <g id="arrow_out" transform="scale(0.3 0.3)">
          <a xlink:href="class_view_1_1_slogo_view_ac64a43649ed5417854c37ec25320e925_cgraph_org.svg" target="_base">
           <rect id="button" ry="5" rx="5" y="6" x="6" height="38" width="38"
                fill="#f2f5e9" fill-opacity="0.5" stroke="#606060" stroke-width="1.0"/>
           <path id="arrow"
             d="M 11.500037,31.436501 C 11.940474,20.09759 22.043105,11.32322 32.158766,21.979434 L 37.068811,17.246167 C 37.068811,17.246167 37.088388,32 37.088388,32 L 22.160133,31.978069 C 22.160133,31.978069 26.997745,27.140456 26.997745,27.140456 C 18.528582,18.264221 13.291696,25.230495 11.500037,31.436501 z"
             style="fill:#404040;"/>
          </a>
         </g>
        </svg>
</svg>
