<?xml version="1.0" encoding="UTF-8" standalone="no"?>
<!DOCTYPE svg PUBLIC "-//W3C//DTD SVG 1.1//EN"
 "http://www.w3.org/Graphics/SVG/1.1/DTD/svg11.dtd">
<!-- Generated by graphviz version 2.36.0 (20140111.2315)
 -->
<!-- Title: View.SlogoView.makeLanguageMenu Pages: 1 -->
<svg width="416pt" height="77pt"
 viewBox="0.00 0.00 416.00 77.00" xmlns="http://www.w3.org/2000/svg" xmlns:xlink="http://www.w3.org/1999/xlink">
<g id="graph0" class="graph" transform="scale(1 1) rotate(0) translate(4 73)">
<title>View.SlogoView.makeLanguageMenu</title>
<polygon fill="white" stroke="none" points="-4,4 -4,-73 412,-73 412,4 -4,4"/>
<!-- Node1 -->
<g id="node1" class="node"><title>Node1</title>
<polygon fill="#bfbfbf" stroke="black" points="0,-27.5 0,-46.5 192,-46.5 192,-27.5 0,-27.5"/>
<text text-anchor="middle" x="96" y="-34.5" font-family="Helvetica,sans-Serif" font-size="10.00">View.SlogoView.makeLanguageMenu</text>
</g>
<!-- Node2 -->
<g id="node2" class="node"><title>Node2</title>
<g id="a_node2"><a xlink:href="../../d7/d52/class_view_1_1_menu_template.html#a36b57849adefaed2c993b566b36117fc" target="_top" xlink:title="View.MenuTemplate.addMenuItem">
<polygon fill="white" stroke="black" points="228.5,-49.5 228.5,-68.5 407.5,-68.5 407.5,-49.5 228.5,-49.5"/>
<text text-anchor="middle" x="318" y="-56.5" font-family="Helvetica,sans-Serif" font-size="10.00">View.MenuTemplate.addMenuItem</text>
</a>
</g>
</g>
<!-- Node1&#45;&gt;Node2 -->
<g id="edge1" class="edge"><title>Node1&#45;&gt;Node2</title>
<path fill="none" stroke="midnightblue" d="M192.216,-46.5216C200.813,-47.3813 209.533,-48.2533 218.16,-49.116"/>
<polygon fill="midnightblue" stroke="midnightblue" points="217.934,-52.6107 228.232,-50.1232 218.63,-45.6455 217.934,-52.6107"/>
</g>
<!-- Node3 -->
<g id="node3" class="node"><title>Node3</title>
<g id="a_node3"><a xlink:href="../../d5/da9/class_g_u_i_functions_1_1_language_menu.html#a47430a240fe8ac9f5631f089a81ff80e" target="_top" xlink:title="GUIFunctions.LanguageMenu.do\lAction">
<polygon fill="white" stroke="black" points="233,-0 233,-30 403,-30 403,-0 233,-0"/>
<text text-anchor="start" x="241" y="-18" font-family="Helvetica,sans-Serif" font-size="10.00">GUIFunctions.LanguageMenu.do</text>
<text text-anchor="middle" x="318" y="-7" font-family="Helvetica,sans-Serif" font-size="10.00">Action</text>
</a>
</g>
</g>
<!-- Node1&#45;&gt;Node3 -->
<g id="edge2" class="edge"><title>Node1&#45;&gt;Node3</title>
<path fill="none" stroke="midnightblue" d="M192.216,-27.4784C202.319,-26.4681 212.591,-25.4409 222.684,-24.4316"/>
<polygon fill="midnightblue" stroke="midnightblue" points="223.102,-27.9074 232.704,-23.4296 222.405,-20.9421 223.102,-27.9074"/>
</g>
</g>
</svg>
