<?xml version="1.0" encoding="UTF-8" standalone="no"?>
<!DOCTYPE svg PUBLIC "-//W3C//DTD SVG 1.1//EN"
 "http://www.w3.org/Graphics/SVG/1.1/DTD/svg11.dtd">
<!-- Generated by graphviz version 2.36.0 (20140111.2315)
 -->
<!-- Title: View.SlogoView.setDisable Pages: 1 -->
<svg width="1286pt" height="165pt"
 viewBox="0.00 0.00 1286.00 165.00" xmlns="http://www.w3.org/2000/svg" xmlns:xlink="http://www.w3.org/1999/xlink">
<g id="graph0" class="graph" transform="scale(1 1) rotate(0) translate(4 161)">
<title>View.SlogoView.setDisable</title>
<polygon fill="white" stroke="none" points="-4,4 -4,-161 1282,-161 1282,4 -4,4"/>
<!-- Node1 -->
<g id="node1" class="node"><title>Node1</title>
<polygon fill="#bfbfbf" stroke="black" points="0,-88.5 0,-107.5 142,-107.5 142,-88.5 0,-88.5"/>
<text text-anchor="middle" x="71" y="-95.5" font-family="Helvetica,sans-Serif" font-size="10.00">View.SlogoView.setDisable</text>
</g>
<!-- Node2 -->
<g id="node2" class="node"><title>Node2</title>
<g id="a_node2"><a xlink:href="../../d9/d00/classcommunicator_1_1_main_controller.html#a93252865a008fed9217c345899e3869a" target="_top" xlink:title="communicator.MainController.execute\lCommand">
<polygon fill="white" stroke="black" points="178,-127 178,-157 376,-157 376,-127 178,-127"/>
<text text-anchor="start" x="186" y="-145" font-family="Helvetica,sans-Serif" font-size="10.00">communicator.MainController.execute</text>
<text text-anchor="middle" x="277" y="-134" font-family="Helvetica,sans-Serif" font-size="10.00">Command</text>
</a>
</g>
</g>
<!-- Node1&#45;&gt;Node2 -->
<g id="edge1" class="edge"><title>Node1&#45;&gt;Node2</title>
<path fill="none" stroke="midnightblue" d="M126.115,-109.672C150.654,-114.965 179.976,-121.289 206.151,-126.935"/>
<polygon fill="midnightblue" stroke="midnightblue" points="126.778,-106.234 116.265,-107.547 125.302,-113.077 126.778,-106.234"/>
</g>
<!-- Node3 -->
<g id="node3" class="node"><title>Node3</title>
<g id="a_node3"><a xlink:href="../../d9/d00/classcommunicator_1_1_main_controller.html#af264c9f29730dceac2573645019a401a" target="_top" xlink:title="communicator.MainController.set\lTimers">
<polygon fill="white" stroke="black" points="412.5,-117 412.5,-147 587.5,-147 587.5,-117 412.5,-117"/>
<text text-anchor="start" x="420.5" y="-135" font-family="Helvetica,sans-Serif" font-size="10.00">communicator.MainController.set</text>
<text text-anchor="middle" x="500" y="-124" font-family="Helvetica,sans-Serif" font-size="10.00">Timers</text>
</a>
</g>
</g>
<!-- Node1&#45;&gt;Node3 -->
<g id="edge12" class="edge"><title>Node1&#45;&gt;Node3</title>
<path fill="none" stroke="midnightblue" d="M152.109,-102.226C213.454,-105.715 300.149,-111.192 376,-118 387.773,-119.057 400.165,-120.306 412.366,-121.615"/>
<polygon fill="midnightblue" stroke="midnightblue" points="152.286,-98.7308 142.105,-101.662 151.892,-105.72 152.286,-98.7308"/>
</g>
<!-- Node5 -->
<g id="node5" class="node"><title>Node5</title>
<g id="a_node5"><a xlink:href="../../d9/d00/classcommunicator_1_1_main_controller.html#a63543f74d98f650f2ee4026151189fa8" target="_top" xlink:title="communicator.MainController.receive\lCommand">
<polygon fill="white" stroke="black" points="180,-39 180,-69 374,-69 374,-39 180,-39"/>
<text text-anchor="start" x="188" y="-57" font-family="Helvetica,sans-Serif" font-size="10.00">communicator.MainController.receive</text>
<text text-anchor="middle" x="277" y="-46" font-family="Helvetica,sans-Serif" font-size="10.00">Command</text>
</a>
</g>
</g>
<!-- Node1&#45;&gt;Node5 -->
<g id="edge4" class="edge"><title>Node1&#45;&gt;Node5</title>
<path fill="none" stroke="midnightblue" d="M126.115,-86.3282C150.654,-81.0355 179.976,-74.7111 206.151,-69.0654"/>
<polygon fill="midnightblue" stroke="midnightblue" points="125.302,-82.9229 116.265,-88.4527 126.778,-89.7655 125.302,-82.9229"/>
</g>
<!-- Node2&#45;&gt;Node3 -->
<g id="edge2" class="edge"><title>Node2&#45;&gt;Node3</title>
<path fill="none" stroke="midnightblue" d="M386.37,-137.096C395.034,-136.704 403.715,-136.312 412.2,-135.928"/>
<polygon fill="midnightblue" stroke="midnightblue" points="386.052,-133.607 376.221,-137.556 386.369,-140.6 386.052,-133.607"/>
</g>
<!-- Node4 -->
<g id="node4" class="node"><title>Node4</title>
<g id="a_node4"><a xlink:href="../../d9/d00/classcommunicator_1_1_main_controller.html#aeeb4240e58af659d4b448cbfc3fbe76f" target="_top" xlink:title="communicator.MainController.\lMainController">
<polygon fill="white" stroke="black" points="631,-117 631,-147 791,-147 791,-117 631,-117"/>
<text text-anchor="start" x="639" y="-135" font-family="Helvetica,sans-Serif" font-size="10.00">communicator.MainController.</text>
<text text-anchor="middle" x="711" y="-124" font-family="Helvetica,sans-Serif" font-size="10.00">MainController</text>
</a>
</g>
</g>
<!-- Node3&#45;&gt;Node4 -->
<g id="edge3" class="edge"><title>Node3&#45;&gt;Node4</title>
<path fill="none" stroke="midnightblue" d="M597.686,-132C608.812,-132 620.057,-132 630.912,-132"/>
<polygon fill="midnightblue" stroke="midnightblue" points="597.517,-128.5 587.517,-132 597.517,-135.5 597.517,-128.5"/>
</g>
<!-- Node6 -->
<g id="node6" class="node"><title>Node6</title>
<g id="a_node6"><a xlink:href="../../d6/d33/class_view_1_1_slogo_view.html#acaa2b33418cebb60111d0acfef03e832" target="_top" xlink:title="View.SlogoView.executeUser\lCommand">
<polygon fill="white" stroke="black" points="635,-49 635,-79 787,-79 787,-49 635,-49"/>
<text text-anchor="start" x="643" y="-67" font-family="Helvetica,sans-Serif" font-size="10.00">View.SlogoView.executeUser</text>
<text text-anchor="middle" x="711" y="-56" font-family="Helvetica,sans-Serif" font-size="10.00">Command</text>
</a>
</g>
</g>
<!-- Node5&#45;&gt;Node6 -->
<g id="edge5" class="edge"><title>Node5&#45;&gt;Node6</title>
<path fill="none" stroke="midnightblue" d="M384.453,-56.4642C462.195,-58.2638 565.684,-60.6594 634.911,-62.2618"/>
<polygon fill="midnightblue" stroke="midnightblue" points="384.221,-52.958 374.143,-56.2255 384.059,-59.9561 384.221,-52.958"/>
</g>
<!-- Node7 -->
<g id="node7" class="node"><title>Node7</title>
<g id="a_node7"><a xlink:href="../../d6/d33/class_view_1_1_slogo_view.html#a1a67765bb114e471855080a9938049a7" target="_top" xlink:title="View.SlogoView.sendCommand\lAndMakeButton">
<polygon fill="white" stroke="black" points="417.5,-5 417.5,-35 582.5,-35 582.5,-5 417.5,-5"/>
<text text-anchor="start" x="425.5" y="-23" font-family="Helvetica,sans-Serif" font-size="10.00">View.SlogoView.sendCommand</text>
<text text-anchor="middle" x="500" y="-12" font-family="Helvetica,sans-Serif" font-size="10.00">AndMakeButton</text>
</a>
</g>
</g>
<!-- Node5&#45;&gt;Node7 -->
<g id="edge6" class="edge"><title>Node5&#45;&gt;Node7</title>
<path fill="none" stroke="midnightblue" d="M384.391,-37.6321C395.42,-35.9354 406.503,-34.2303 417.201,-32.5845"/>
<polygon fill="midnightblue" stroke="midnightblue" points="383.642,-34.2061 374.291,-39.186 384.707,-41.1247 383.642,-34.2061"/>
</g>
<!-- Node7&#45;&gt;Node6 -->
<g id="edge11" class="edge"><title>Node7&#45;&gt;Node6</title>
<path fill="none" stroke="midnightblue" d="M582.253,-37.1059C600.85,-41.021 620.481,-45.1538 638.626,-48.9738"/>
<polygon fill="midnightblue" stroke="midnightblue" points="582.848,-33.6545 572.341,-35.0192 581.406,-40.5043 582.848,-33.6545"/>
</g>
<!-- Node8 -->
<g id="node8" class="node"><title>Node8</title>
<g id="a_node8"><a xlink:href="../../d6/d33/class_view_1_1_slogo_view.html#a468acf266470c356f2f36e7eb2f327e8" target="_top" xlink:title="View.SlogoView.createCommand\lLineWithLabel">
<polygon fill="white" stroke="black" points="624.5,-0 624.5,-30 797.5,-30 797.5,-0 624.5,-0"/>
<text text-anchor="start" x="632.5" y="-18" font-family="Helvetica,sans-Serif" font-size="10.00">View.SlogoView.createCommand</text>
<text text-anchor="middle" x="711" y="-7" font-family="Helvetica,sans-Serif" font-size="10.00">LineWithLabel</text>
</a>
</g>
</g>
<!-- Node7&#45;&gt;Node8 -->
<g id="edge7" class="edge"><title>Node7&#45;&gt;Node8</title>
<path fill="none" stroke="midnightblue" d="M593.007,-17.7989C603.383,-17.5506 613.925,-17.2984 624.217,-17.0522"/>
<polygon fill="midnightblue" stroke="midnightblue" points="592.616,-14.3071 582.703,-18.0454 592.784,-21.3051 592.616,-14.3071"/>
</g>
<!-- Node9 -->
<g id="node9" class="node"><title>Node9</title>
<g id="a_node9"><a xlink:href="../../d6/d33/class_view_1_1_slogo_view.html#ac64a43649ed5417854c37ec25320e925" target="_top" xlink:title="View.SlogoView.setTextArea">
<polygon fill="white" stroke="black" points="834,-5.5 834,-24.5 982,-24.5 982,-5.5 834,-5.5"/>
<text text-anchor="middle" x="908" y="-12.5" font-family="Helvetica,sans-Serif" font-size="10.00">View.SlogoView.setTextArea</text>
</a>
</g>
</g>
<!-- Node8&#45;&gt;Node9 -->
<g id="edge8" class="edge"><title>Node8&#45;&gt;Node9</title>
<path fill="none" stroke="midnightblue" d="M807.76,-15C816.497,-15 825.252,-15 833.745,-15"/>
<polygon fill="midnightblue" stroke="midnightblue" points="807.53,-11.5001 797.53,-15 807.53,-18.5001 807.53,-11.5001"/>
</g>
<!-- Node10 -->
<g id="node10" class="node"><title>Node10</title>
<g id="a_node10"><a xlink:href="../../d6/d33/class_view_1_1_slogo_view.html#acfeff052503655d2ac419d2bf4ea9bd5" target="_top" xlink:title="View.SlogoView.initialize">
<polygon fill="white" stroke="black" points="1018,-5.5 1018,-24.5 1148,-24.5 1148,-5.5 1018,-5.5"/>
<text text-anchor="middle" x="1083" y="-12.5" font-family="Helvetica,sans-Serif" font-size="10.00">View.SlogoView.initialize</text>
</a>
</g>
</g>
<!-- Node9&#45;&gt;Node10 -->
<g id="edge9" class="edge"><title>Node9&#45;&gt;Node10</title>
<path fill="none" stroke="midnightblue" d="M992.216,-15C1000.85,-15 1009.53,-15 1017.91,-15"/>
<polygon fill="midnightblue" stroke="midnightblue" points="992.117,-11.5001 982.117,-15 992.117,-18.5001 992.117,-11.5001"/>
</g>
<!-- Node11 -->
<g id="node11" class="node"><title>Node11</title>
<g id="a_node11"><a xlink:href="../../db/d27/class_view_1_1_slogo.html#a6ab76a53160b61d8501aec91c55b85c8" target="_top" xlink:title="View.Slogo.start">
<polygon fill="white" stroke="black" points="1184.5,-5.5 1184.5,-24.5 1277.5,-24.5 1277.5,-5.5 1184.5,-5.5"/>
<text text-anchor="middle" x="1231" y="-12.5" font-family="Helvetica,sans-Serif" font-size="10.00">View.Slogo.start</text>
</a>
</g>
</g>
<!-- Node10&#45;&gt;Node11 -->
<g id="edge10" class="edge"><title>Node10&#45;&gt;Node11</title>
<path fill="none" stroke="midnightblue" d="M1158.14,-15C1167.11,-15 1176.05,-15 1184.43,-15"/>
<polygon fill="midnightblue" stroke="midnightblue" points="1158.04,-11.5001 1148.04,-15 1158.04,-18.5001 1158.04,-11.5001"/>
</g>
</g>
</svg>
