<?xml version="1.0" encoding="UTF-8" standalone="no"?>
<!DOCTYPE svg PUBLIC "-//W3C//DTD SVG 1.1//EN"
 "http://www.w3.org/Graphics/SVG/1.1/DTD/svg11.dtd">
<!-- Generated by graphviz version 2.36.0 (20140111.2315)
 -->
<!-- Title: View.SlogoView.addLanguages Pages: 1 -->
<svg width="528pt" height="38pt"
 viewBox="0.00 0.00 528.00 38.00" xmlns="http://www.w3.org/2000/svg" xmlns:xlink="http://www.w3.org/1999/xlink">
<g id="graph0" class="graph" transform="scale(1 1) rotate(0) translate(4 34)">
<title>View.SlogoView.addLanguages</title>
<polygon fill="white" stroke="none" points="-4,4 -4,-34 524,-34 524,4 -4,4"/>
<!-- Node1 -->
<g id="node1" class="node"><title>Node1</title>
<polygon fill="#bfbfbf" stroke="black" points="0,-5.5 0,-24.5 162,-24.5 162,-5.5 0,-5.5"/>
<text text-anchor="middle" x="81" y="-12.5" font-family="Helvetica,sans-Serif" font-size="10.00">View.SlogoView.addLanguages</text>
</g>
<!-- Node2 -->
<g id="node2" class="node"><title>Node2</title>
<g id="a_node2"><a xlink:href="../../d6/d33/class_view_1_1_slogo_view.html#ad6bced2aad0ccaef7521c9840ab53a5f" target="_top" xlink:title="View.SlogoView.makeListOf\lFunctions">
<polygon fill="white" stroke="black" points="198,-0 198,-30 344,-30 344,-0 198,-0"/>
<text text-anchor="start" x="206" y="-18" font-family="Helvetica,sans-Serif" font-size="10.00">View.SlogoView.makeListOf</text>
<text text-anchor="middle" x="271" y="-7" font-family="Helvetica,sans-Serif" font-size="10.00">Functions</text>
</a>
</g>
</g>
<!-- Node1&#45;&gt;Node2 -->
<g id="edge1" class="edge"><title>Node1&#45;&gt;Node2</title>
<path fill="none" stroke="midnightblue" d="M172.091,-15C180.718,-15 189.389,-15 197.813,-15"/>
<polygon fill="midnightblue" stroke="midnightblue" points="172.002,-11.5001 162.002,-15 172.001,-18.5001 172.002,-11.5001"/>
</g>
<!-- Node3 -->
<g id="node3" class="node"><title>Node3</title>
<g id="a_node3"><a xlink:href="../../d6/d33/class_view_1_1_slogo_view.html#a426ca98709fa7bf17d4e233519c504b4" target="_top" xlink:title="View.SlogoView.SlogoView">
<polygon fill="white" stroke="black" points="380,-5.5 380,-24.5 520,-24.5 520,-5.5 380,-5.5"/>
<text text-anchor="middle" x="450" y="-12.5" font-family="Helvetica,sans-Serif" font-size="10.00">View.SlogoView.SlogoView</text>
</a>
</g>
</g>
<!-- Node2&#45;&gt;Node3 -->
<g id="edge2" class="edge"><title>Node2&#45;&gt;Node3</title>
<path fill="none" stroke="midnightblue" d="M354.522,-15C362.993,-15 371.536,-15 379.841,-15"/>
<polygon fill="midnightblue" stroke="midnightblue" points="354.248,-11.5001 344.248,-15 354.248,-18.5001 354.248,-11.5001"/>
</g>
</g>
</svg>
