<?xml version="1.0" encoding="UTF-8" standalone="no"?>
<!DOCTYPE svg PUBLIC "-//W3C//DTD SVG 1.1//EN"
 "http://www.w3.org/Graphics/SVG/1.1/DTD/svg11.dtd">
<!-- Generated by graphviz version 2.36.0 (20140111.2315)
 -->
<!-- Title: View.SlogoView.makeSlidingBars Pages: 1 -->
<svg width="660pt" height="28pt"
 viewBox="0.00 0.00 660.00 28.00" xmlns="http://www.w3.org/2000/svg" xmlns:xlink="http://www.w3.org/1999/xlink">
<g id="graph0" class="graph" transform="scale(1 1) rotate(0) translate(4 24)">
<title>View.SlogoView.makeSlidingBars</title>
<polygon fill="white" stroke="none" points="-4,4 -4,-24 656,-24 656,4 -4,4"/>
<!-- Node1 -->
<g id="node1" class="node"><title>Node1</title>
<polygon fill="#bfbfbf" stroke="black" points="0,-0.5 0,-19.5 172,-19.5 172,-0.5 0,-0.5"/>
<text text-anchor="middle" x="86" y="-7.5" font-family="Helvetica,sans-Serif" font-size="10.00">View.SlogoView.makeSlidingBars</text>
</g>
<!-- Node2 -->
<g id="node2" class="node"><title>Node2</title>
<g id="a_node2"><a xlink:href="../../d6/d33/class_view_1_1_slogo_view.html#a5c9af6908c5cebd7798d09735206d966" target="_top" xlink:title="View.SlogoView.addButtons">
<polygon fill="white" stroke="black" points="208.5,-0.5 208.5,-19.5 355.5,-19.5 355.5,-0.5 208.5,-0.5"/>
<text text-anchor="middle" x="282" y="-7.5" font-family="Helvetica,sans-Serif" font-size="10.00">View.SlogoView.addButtons</text>
</a>
</g>
</g>
<!-- Node1&#45;&gt;Node2 -->
<g id="edge1" class="edge"><title>Node1&#45;&gt;Node2</title>
<path fill="none" stroke="midnightblue" d="M182.356,-10C191.121,-10 199.905,-10 208.42,-10"/>
<polygon fill="midnightblue" stroke="midnightblue" points="182.091,-6.5001 172.091,-10 182.091,-13.5001 182.091,-6.5001"/>
</g>
<!-- Node3 -->
<g id="node3" class="node"><title>Node3</title>
<g id="a_node3"><a xlink:href="../../d6/d33/class_view_1_1_slogo_view.html#acfeff052503655d2ac419d2bf4ea9bd5" target="_top" xlink:title="View.SlogoView.initialize">
<polygon fill="white" stroke="black" points="392,-0.5 392,-19.5 522,-19.5 522,-0.5 392,-0.5"/>
<text text-anchor="middle" x="457" y="-7.5" font-family="Helvetica,sans-Serif" font-size="10.00">View.SlogoView.initialize</text>
</a>
</g>
</g>
<!-- Node2&#45;&gt;Node3 -->
<g id="edge2" class="edge"><title>Node2&#45;&gt;Node3</title>
<path fill="none" stroke="midnightblue" d="M365.824,-10C374.558,-10 383.342,-10 391.818,-10"/>
<polygon fill="midnightblue" stroke="midnightblue" points="365.616,-6.5001 355.616,-10 365.616,-13.5001 365.616,-6.5001"/>
</g>
<!-- Node4 -->
<g id="node4" class="node"><title>Node4</title>
<g id="a_node4"><a xlink:href="../../db/d27/class_view_1_1_slogo.html#a6ab76a53160b61d8501aec91c55b85c8" target="_top" xlink:title="View.Slogo.start">
<polygon fill="white" stroke="black" points="558.5,-0.5 558.5,-19.5 651.5,-19.5 651.5,-0.5 558.5,-0.5"/>
<text text-anchor="middle" x="605" y="-7.5" font-family="Helvetica,sans-Serif" font-size="10.00">View.Slogo.start</text>
</a>
</g>
</g>
<!-- Node3&#45;&gt;Node4 -->
<g id="edge3" class="edge"><title>Node3&#45;&gt;Node4</title>
<path fill="none" stroke="midnightblue" d="M532.142,-10C541.108,-10 550.051,-10 558.43,-10"/>
<polygon fill="midnightblue" stroke="midnightblue" points="532.038,-6.5001 522.038,-10 532.038,-13.5001 532.038,-6.5001"/>
</g>
</g>
</svg>
