<?xml version="1.0" encoding="UTF-8" standalone="no"?>
<!DOCTYPE svg PUBLIC "-//W3C//DTD SVG 1.1//EN"
 "http://www.w3.org/Graphics/SVG/1.1/DTD/svg11.dtd">
<!-- Generated by graphviz version 2.36.0 (20140111.2315)
 -->
<!-- Title: View.SlogoView.makeButtons Pages: 1 -->
<svg width="644pt" height="28pt"
 viewBox="0.00 0.00 644.00 28.00" xmlns="http://www.w3.org/2000/svg" xmlns:xlink="http://www.w3.org/1999/xlink">
<g id="graph0" class="graph" transform="scale(1 1) rotate(0) translate(4 24)">
<title>View.SlogoView.makeButtons</title>
<polygon fill="white" stroke="none" points="-4,4 -4,-24 640,-24 640,4 -4,4"/>
<!-- Node1 -->
<g id="node1" class="node"><title>Node1</title>
<polygon fill="#bfbfbf" stroke="black" points="0,-0.5 0,-19.5 156,-19.5 156,-0.5 0,-0.5"/>
<text text-anchor="middle" x="78" y="-7.5" font-family="Helvetica,sans-Serif" font-size="10.00">View.SlogoView.makeButtons</text>
</g>
<!-- Node2 -->
<g id="node2" class="node"><title>Node2</title>
<g id="a_node2"><a xlink:href="../../d6/d33/class_view_1_1_slogo_view.html#a5c9af6908c5cebd7798d09735206d966" target="_top" xlink:title="View.SlogoView.addButtons">
<polygon fill="white" stroke="black" points="192.5,-0.5 192.5,-19.5 339.5,-19.5 339.5,-0.5 192.5,-0.5"/>
<text text-anchor="middle" x="266" y="-7.5" font-family="Helvetica,sans-Serif" font-size="10.00">View.SlogoView.addButtons</text>
</a>
</g>
</g>
<!-- Node1&#45;&gt;Node2 -->
<g id="edge1" class="edge"><title>Node1&#45;&gt;Node2</title>
<path fill="none" stroke="midnightblue" d="M166.437,-10C175.144,-10 183.916,-10 192.447,-10"/>
<polygon fill="midnightblue" stroke="midnightblue" points="166.265,-6.5001 156.265,-10 166.265,-13.5001 166.265,-6.5001"/>
</g>
<!-- Node3 -->
<g id="node3" class="node"><title>Node3</title>
<g id="a_node3"><a xlink:href="../../d6/d33/class_view_1_1_slogo_view.html#acfeff052503655d2ac419d2bf4ea9bd5" target="_top" xlink:title="View.SlogoView.initialize">
<polygon fill="white" stroke="black" points="376,-0.5 376,-19.5 506,-19.5 506,-0.5 376,-0.5"/>
<text text-anchor="middle" x="441" y="-7.5" font-family="Helvetica,sans-Serif" font-size="10.00">View.SlogoView.initialize</text>
</a>
</g>
</g>
<!-- Node2&#45;&gt;Node3 -->
<g id="edge2" class="edge"><title>Node2&#45;&gt;Node3</title>
<path fill="none" stroke="midnightblue" d="M349.824,-10C358.558,-10 367.342,-10 375.818,-10"/>
<polygon fill="midnightblue" stroke="midnightblue" points="349.616,-6.5001 339.616,-10 349.616,-13.5001 349.616,-6.5001"/>
</g>
<!-- Node4 -->
<g id="node4" class="node"><title>Node4</title>
<g id="a_node4"><a xlink:href="../../db/d27/class_view_1_1_slogo.html#a6ab76a53160b61d8501aec91c55b85c8" target="_top" xlink:title="View.Slogo.start">
<polygon fill="white" stroke="black" points="542.5,-0.5 542.5,-19.5 635.5,-19.5 635.5,-0.5 542.5,-0.5"/>
<text text-anchor="middle" x="589" y="-7.5" font-family="Helvetica,sans-Serif" font-size="10.00">View.Slogo.start</text>
</a>
</g>
</g>
<!-- Node3&#45;&gt;Node4 -->
<g id="edge3" class="edge"><title>Node3&#45;&gt;Node4</title>
<path fill="none" stroke="midnightblue" d="M516.142,-10C525.108,-10 534.051,-10 542.43,-10"/>
<polygon fill="midnightblue" stroke="midnightblue" points="516.038,-6.5001 506.038,-10 516.038,-13.5001 516.038,-6.5001"/>
</g>
</g>
</svg>
