<?xml version="1.0" encoding="UTF-8" standalone="no"?>
<!DOCTYPE svg PUBLIC "-//W3C//DTD SVG 1.1//EN"
 "http://www.w3.org/Graphics/SVG/1.1/DTD/svg11.dtd">
<!-- Generated by graphviz version 2.36.0 (20140111.2315)
 -->
<!-- Title: View.SlogoView.createCommandLineWithLabel Pages: 1 -->
<svg width="662pt" height="38pt"
 viewBox="0.00 0.00 662.00 38.00" xmlns="http://www.w3.org/2000/svg" xmlns:xlink="http://www.w3.org/1999/xlink">
<g id="graph0" class="graph" transform="scale(1 1) rotate(0) translate(4 34)">
<title>View.SlogoView.createCommandLineWithLabel</title>
<polygon fill="white" stroke="none" points="-4,4 -4,-34 658,-34 658,4 -4,4"/>
<!-- Node1 -->
<g id="node1" class="node"><title>Node1</title>
<polygon fill="#bfbfbf" stroke="black" points="0.5,-0 0.5,-30 173.5,-30 173.5,-0 0.5,-0"/>
<text text-anchor="start" x="8.5" y="-18" font-family="Helvetica,sans-Serif" font-size="10.00">View.SlogoView.createCommand</text>
<text text-anchor="middle" x="87" y="-7" font-family="Helvetica,sans-Serif" font-size="10.00">LineWithLabel</text>
</g>
<!-- Node2 -->
<g id="node2" class="node"><title>Node2</title>
<g id="a_node2"><a xlink:href="../../d6/d33/class_view_1_1_slogo_view.html#ac64a43649ed5417854c37ec25320e925" target="_top" xlink:title="View.SlogoView.setTextArea">
<polygon fill="white" stroke="black" points="210,-5.5 210,-24.5 358,-24.5 358,-5.5 210,-5.5"/>
<text text-anchor="middle" x="284" y="-12.5" font-family="Helvetica,sans-Serif" font-size="10.00">View.SlogoView.setTextArea</text>
</a>
</g>
</g>
<!-- Node1&#45;&gt;Node2 -->
<g id="edge1" class="edge"><title>Node1&#45;&gt;Node2</title>
<path fill="none" stroke="midnightblue" d="M183.76,-15C192.497,-15 201.252,-15 209.745,-15"/>
<polygon fill="midnightblue" stroke="midnightblue" points="183.53,-11.5001 173.53,-15 183.53,-18.5001 183.53,-11.5001"/>
</g>
<!-- Node3 -->
<g id="node3" class="node"><title>Node3</title>
<g id="a_node3"><a xlink:href="../../d6/d33/class_view_1_1_slogo_view.html#acfeff052503655d2ac419d2bf4ea9bd5" target="_top" xlink:title="View.SlogoView.initialize">
<polygon fill="white" stroke="black" points="394,-5.5 394,-24.5 524,-24.5 524,-5.5 394,-5.5"/>
<text text-anchor="middle" x="459" y="-12.5" font-family="Helvetica,sans-Serif" font-size="10.00">View.SlogoView.initialize</text>
</a>
</g>
</g>
<!-- Node2&#45;&gt;Node3 -->
<g id="edge2" class="edge"><title>Node2&#45;&gt;Node3</title>
<path fill="none" stroke="midnightblue" d="M368.216,-15C376.853,-15 385.534,-15 393.914,-15"/>
<polygon fill="midnightblue" stroke="midnightblue" points="368.117,-11.5001 358.117,-15 368.117,-18.5001 368.117,-11.5001"/>
</g>
<!-- Node4 -->
<g id="node4" class="node"><title>Node4</title>
<g id="a_node4"><a xlink:href="../../db/d27/class_view_1_1_slogo.html#a6ab76a53160b61d8501aec91c55b85c8" target="_top" xlink:title="View.Slogo.start">
<polygon fill="white" stroke="black" points="560.5,-5.5 560.5,-24.5 653.5,-24.5 653.5,-5.5 560.5,-5.5"/>
<text text-anchor="middle" x="607" y="-12.5" font-family="Helvetica,sans-Serif" font-size="10.00">View.Slogo.start</text>
</a>
</g>
</g>
<!-- Node3&#45;&gt;Node4 -->
<g id="edge3" class="edge"><title>Node3&#45;&gt;Node4</title>
<path fill="none" stroke="midnightblue" d="M534.142,-15C543.108,-15 552.051,-15 560.43,-15"/>
<polygon fill="midnightblue" stroke="midnightblue" points="534.038,-11.5001 524.038,-15 534.038,-18.5001 534.038,-11.5001"/>
</g>
</g>
</svg>
