<?xml version="1.0" encoding="UTF-8" standalone="no"?>
<!DOCTYPE svg PUBLIC "-//W3C//DTD SVG 1.1//EN"
 "http://www.w3.org/Graphics/SVG/1.1/DTD/svg11.dtd">
<!-- Generated by graphviz version 2.36.0 (20140111.2315)
 -->
<!-- Title: View.SlogoView.addGrid Pages: 1 -->
<!--zoomable 515 -->
<svg id="main" version="1.1" xmlns="http://www.w3.org/2000/svg" xmlns:xlink="http://www.w3.org/1999/xlink" xml:space="preserve" onload="init(evt)">
<style type="text/css"><![CDATA[
.edge:hover path { stroke: red; }
.edge:hover polygon { stroke: red; fill: red; }
]]></style>
<script type="text/javascript"><![CDATA[
var edges = document.getElementsByTagName('g');
if (edges && edges.length) {
  for (var i=0;i<edges.length;i++) {
    if (edges[i].id.substr(0,4)=='edge') {
      edges[i].setAttribute('class','edge');
    }
  }
}
]]></script>
        <defs>
                <circle id="rim" cx="0" cy="0" r="7"/>
                <circle id="rim2" cx="0" cy="0" r="3.5"/>
                <g id="zoomPlus">
                        <use xlink:href="#rim" fill="#404040">
                                <set attributeName="fill" to="#808080" begin="zoomplus.mouseover" end="zoomplus.mouseout"/>
                        </use>
                        <path d="M-4,0h8M0,-4v8" fill="none" stroke="white" stroke-width="1.5" pointer-events="none"/>
                </g>
                <g id="zoomMin">
                        <use xlink:href="#rim" fill="#404040">
                                <set attributeName="fill" to="#808080" begin="zoomminus.mouseover" end="zoomminus.mouseout"/>
                        </use>
                        <path d="M-4,0h8" fill="none" stroke="white" stroke-width="1.5" pointer-events="none"/>
                </g>
                <g id="dirArrow">
                        <path fill="none" stroke="white" stroke-width="1.5" d="M0,-3.0v7 M-2.5,-0.5L0,-3.0L2.5,-0.5"/>
                </g>
               <g id="resetDef">
                       <use xlink:href="#rim2" fill="#404040">
                               <set attributeName="fill" to="#808080" begin="reset.mouseover" end="reset.mouseout"/>
                       </use>
               </g>
        </defs>

<script type="text/javascript">
var viewWidth = 1488;
var viewHeight = 515;
var sectionId = 'dynsection-4';
</script>
<script xlink:href="../../svgpan.js"/>
<svg id="graph" class="graph">
<g id="viewport">
<title>View.SlogoView.addGrid</title>
<polygon fill="white" stroke="none" points="-4,4 -4,-511 1484,-511 1484,4 -4,4"/>
<!-- Node1 -->
<g id="node1" class="node"><title>Node1</title>
<polygon fill="#bfbfbf" stroke="black" points="0.5,-302.5 0.5,-321.5 129.5,-321.5 129.5,-302.5 0.5,-302.5"/>
<text text-anchor="middle" x="65" y="-309.5" font-family="Helvetica,sans-Serif" font-size="10.00">View.SlogoView.addGrid</text>
</g>
<!-- Node2 -->
<g id="node2" class="node"><title>Node2</title>
<g id="a_node2"><a xlink:href="../../d9/d00/classcommunicator_1_1_main_controller.html#a98cd8689b5d896054e50172fefb556c4" target="_top" xlink:title="communicator.MainController.addGrid">
<polygon fill="white" stroke="black" points="166.5,-433.5 166.5,-452.5 363.5,-452.5 363.5,-433.5 166.5,-433.5"/>
<text text-anchor="middle" x="265" y="-440.5" font-family="Helvetica,sans-Serif" font-size="10.00">communicator.MainController.addGrid</text>
</a>
</g>
</g>
<!-- Node1&#45;&gt;Node2 -->
<g id="edge1" class="edge"><title>Node1&#45;&gt;Node2</title>
<path fill="none" stroke="midnightblue" d="M80.5594,-321.633C114.601,-344.155 199.627,-400.41 240.857,-427.688"/>
<polygon fill="midnightblue" stroke="midnightblue" points="239.148,-430.754 249.419,-433.353 243.011,-424.916 239.148,-430.754"/>
</g>
<!-- Node5 -->
<g id="node5" class="node"><title>Node5</title>
<g id="a_node5"><a xlink:href="../../d5/d30/class_view_1_1_tabs_of_grids.html#aa186cd880ee36327ffc0d66951a23fb5" target="_top" xlink:title="View.TabsOfGrids.addTab">
<polygon fill="white" stroke="black" points="198,-321.5 198,-340.5 332,-340.5 332,-321.5 198,-321.5"/>
<text text-anchor="middle" x="265" y="-328.5" font-family="Helvetica,sans-Serif" font-size="10.00">View.TabsOfGrids.addTab</text>
</a>
</g>
</g>
<!-- Node1&#45;&gt;Node5 -->
<g id="edge4" class="edge"><title>Node1&#45;&gt;Node5</title>
<path fill="none" stroke="midnightblue" d="M129.738,-318.116C148.233,-319.891 168.616,-321.847 187.793,-323.687"/>
<polygon fill="midnightblue" stroke="midnightblue" points="187.709,-327.195 197.998,-324.666 188.378,-320.227 187.709,-327.195"/>
</g>
<!-- Node31 -->
<g id="node31" class="node"><title>Node31</title>
<g id="a_node31"><a xlink:href="../../dc/dbd/class_view_1_1_grid_factory.html#a7afbee3a5b35bbd28e43f3db5502e037" target="_top" xlink:title="View.GridFactory.makeGrid">
<polygon fill="white" stroke="black" points="193.5,-283.5 193.5,-302.5 336.5,-302.5 336.5,-283.5 193.5,-283.5"/>
<text text-anchor="middle" x="265" y="-290.5" font-family="Helvetica,sans-Serif" font-size="10.00">View.GridFactory.makeGrid</text>
</a>
</g>
</g>
<!-- Node1&#45;&gt;Node31 -->
<g id="edge36" class="edge"><title>Node1&#45;&gt;Node31</title>
<path fill="none" stroke="midnightblue" d="M129.738,-305.884C146.654,-304.26 165.15,-302.486 182.858,-300.786"/>
<polygon fill="midnightblue" stroke="midnightblue" points="183.555,-304.236 193.175,-299.796 182.886,-297.268 183.555,-304.236"/>
</g>
<!-- Node32 -->
<g id="node32" class="node"><title>Node32</title>
<g id="a_node32"><a xlink:href="../../d7/d98/class_view_1_1_grid_tracker.html#a10f28999bec118593817f480836c5a94" target="_top" xlink:title="View.GridTracker.setActiveGrid">
<polygon fill="white" stroke="black" points="185,-245.5 185,-264.5 345,-264.5 345,-245.5 185,-245.5"/>
<text text-anchor="middle" x="265" y="-252.5" font-family="Helvetica,sans-Serif" font-size="10.00">View.GridTracker.setActiveGrid</text>
</a>
</g>
</g>
<!-- Node1&#45;&gt;Node32 -->
<g id="edge37" class="edge"><title>Node1&#45;&gt;Node32</title>
<path fill="none" stroke="midnightblue" d="M87.874,-302.439C107.891,-293.991 138.491,-281.831 166,-274 175.626,-271.26 185.896,-268.789 196.03,-266.606"/>
<polygon fill="midnightblue" stroke="midnightblue" points="197.009,-269.977 206.09,-264.519 195.587,-263.123 197.009,-269.977"/>
</g>
<!-- Node3 -->
<g id="node3" class="node"><title>Node3</title>
<g id="a_node3"><a xlink:href="../../d4/d37/classcommands_1_1information_1_1_base_grid_container.html#ae1538dce40e2eba95703fcee49bc1bc1" target="_top" xlink:title="commands.information.Base\lGridContainer.addGrid">
<polygon fill="white" stroke="black" points="410.5,-428 410.5,-458 565.5,-458 565.5,-428 410.5,-428"/>
<text text-anchor="start" x="418.5" y="-446" font-family="Helvetica,sans-Serif" font-size="10.00">commands.information.Base</text>
<text text-anchor="middle" x="488" y="-435" font-family="Helvetica,sans-Serif" font-size="10.00">GridContainer.addGrid</text>
</a>
</g>
</g>
<!-- Node2&#45;&gt;Node3 -->
<g id="edge2" class="edge"><title>Node2&#45;&gt;Node3</title>
<path fill="none" stroke="midnightblue" d="M363.577,-443C375.651,-443 387.933,-443 399.836,-443"/>
<polygon fill="midnightblue" stroke="midnightblue" points="400.185,-446.5 410.185,-443 400.185,-439.5 400.185,-446.5"/>
</g>
<!-- Node4 -->
<g id="node4" class="node"><title>Node4</title>
<g id="a_node4"><a xlink:href="../../d9/d00/classcommunicator_1_1_main_controller.html#ac535ad5404d0e180a1de6526a967a581" target="_top" xlink:title="communicator.MainController.get\lGridContainer">
<polygon fill="white" stroke="black" points="400,-477 400,-507 576,-507 576,-477 400,-477"/>
<text text-anchor="start" x="408" y="-495" font-family="Helvetica,sans-Serif" font-size="10.00">communicator.MainController.get</text>
<text text-anchor="middle" x="488" y="-484" font-family="Helvetica,sans-Serif" font-size="10.00">GridContainer</text>
</a>
</g>
</g>
<!-- Node2&#45;&gt;Node4 -->
<g id="edge3" class="edge"><title>Node2&#45;&gt;Node4</title>
<path fill="none" stroke="midnightblue" d="M308.873,-452.506C337.32,-458.813 375.484,-467.275 409.188,-474.748"/>
<polygon fill="midnightblue" stroke="midnightblue" points="408.505,-478.181 419.025,-476.929 410.02,-471.347 408.505,-478.181"/>
</g>
<!-- Node6 -->
<g id="node6" class="node"><title>Node6</title>
<g id="a_node6"><a xlink:href="../../d9/db1/class_view_1_1_single_grid.html#abf0fa2de53fc785c35795d2b13ad4c24" target="_top" xlink:title="View.SingleGrid.getMyWidth">
<polygon fill="white" stroke="black" points="414,-340.5 414,-359.5 562,-359.5 562,-340.5 414,-340.5"/>
<text text-anchor="middle" x="488" y="-347.5" font-family="Helvetica,sans-Serif" font-size="10.00">View.SingleGrid.getMyWidth</text>
</a>
</g>
</g>
<!-- Node5&#45;&gt;Node6 -->
<g id="edge5" class="edge"><title>Node5&#45;&gt;Node6</title>
<path fill="none" stroke="midnightblue" d="M332.008,-336.675C354.6,-338.617 380.171,-340.816 403.935,-342.859"/>
<polygon fill="midnightblue" stroke="midnightblue" points="403.731,-346.354 413.995,-343.724 404.331,-339.38 403.731,-346.354"/>
</g>
<!-- Node7 -->
<g id="node7" class="node"><title>Node7</title>
<g id="a_node7"><a xlink:href="../../d9/db1/class_view_1_1_single_grid.html#ae8506f6c15fbb963a16613ed3410d8b6" target="_top" xlink:title="View.SingleGrid.getMyHeight">
<polygon fill="white" stroke="black" points="411.5,-302.5 411.5,-321.5 564.5,-321.5 564.5,-302.5 411.5,-302.5"/>
<text text-anchor="middle" x="488" y="-309.5" font-family="Helvetica,sans-Serif" font-size="10.00">View.SingleGrid.getMyHeight</text>
</a>
</g>
</g>
<!-- Node5&#45;&gt;Node7 -->
<g id="edge6" class="edge"><title>Node5&#45;&gt;Node7</title>
<path fill="none" stroke="midnightblue" d="M332.008,-325.325C353.724,-323.458 378.191,-321.355 401.161,-319.38"/>
<polygon fill="midnightblue" stroke="midnightblue" points="401.583,-322.857 411.246,-318.513 400.983,-315.882 401.583,-322.857"/>
</g>
<!-- Node8 -->
<g id="node8" class="node"><title>Node8</title>
<g id="a_node8"><a xlink:href="../../d5/d30/class_view_1_1_tabs_of_grids.html#addda546d87ab37b3c6d812b33c0118c9" target="_top" xlink:title="View.TabsOfGrids.setUpKey\lBoardHandler">
<polygon fill="white" stroke="black" points="415.5,-253 415.5,-283 560.5,-283 560.5,-253 415.5,-253"/>
<text text-anchor="start" x="423.5" y="-271" font-family="Helvetica,sans-Serif" font-size="10.00">View.TabsOfGrids.setUpKey</text>
<text text-anchor="middle" x="488" y="-260" font-family="Helvetica,sans-Serif" font-size="10.00">BoardHandler</text>
</a>
</g>
</g>
<!-- Node5&#45;&gt;Node8 -->
<g id="edge7" class="edge"><title>Node5&#45;&gt;Node8</title>
<path fill="none" stroke="midnightblue" d="M329.727,-321.472C341.293,-318.949 353.129,-315.828 364,-312 381.065,-305.991 383.217,-299.756 400,-293 405.932,-290.612 412.175,-288.352 418.482,-286.239"/>
<polygon fill="midnightblue" stroke="midnightblue" points="419.963,-289.439 428.409,-283.042 417.818,-282.776 419.963,-289.439"/>
</g>
<!-- Node29 -->
<g id="node29" class="node"><title>Node29</title>
<g id="a_node29"><a xlink:href="../../d5/d30/class_view_1_1_tabs_of_grids.html#ab9e29f9dc0e03a6d3a49d56f3dffc81d" target="_top" xlink:title="View.TabsOfGrids.setGrid\lTabsFocused">
<polygon fill="white" stroke="black" points="421,-204 421,-234 555,-234 555,-204 421,-204"/>
<text text-anchor="start" x="429" y="-222" font-family="Helvetica,sans-Serif" font-size="10.00">View.TabsOfGrids.setGrid</text>
<text text-anchor="middle" x="488" y="-211" font-family="Helvetica,sans-Serif" font-size="10.00">TabsFocused</text>
</a>
</g>
</g>
<!-- Node5&#45;&gt;Node29 -->
<g id="edge34" class="edge"><title>Node5&#45;&gt;Node29</title>
<path fill="none" stroke="midnightblue" d="M332.154,-326.573C343.542,-323.55 354.691,-318.941 364,-312 391.73,-291.324 373.094,-264.737 400,-243 403.594,-240.097 407.513,-237.544 411.637,-235.299"/>
<polygon fill="midnightblue" stroke="midnightblue" points="413.422,-238.326 420.94,-230.861 410.408,-232.008 413.422,-238.326"/>
</g>
<!-- Node30 -->
<g id="node30" class="node"><title>Node30</title>
<g id="a_node30"><a xlink:href="../../d5/d30/class_view_1_1_tabs_of_grids.html#a108cf54cfaac21aea75babd7f7dd68b7" target="_top" xlink:title="View.TabsOfGrids.disable\lTabPanes">
<polygon fill="white" stroke="black" points="421,-379 421,-409 555,-409 555,-379 421,-379"/>
<text text-anchor="start" x="429" y="-397" font-family="Helvetica,sans-Serif" font-size="10.00">View.TabsOfGrids.disable</text>
<text text-anchor="middle" x="488" y="-386" font-family="Helvetica,sans-Serif" font-size="10.00">TabPanes</text>
</a>
</g>
</g>
<!-- Node5&#45;&gt;Node30 -->
<g id="edge35" class="edge"><title>Node5&#45;&gt;Node30</title>
<path fill="none" stroke="midnightblue" d="M299.565,-340.568C332.585,-349.981 383.799,-364.581 424.355,-376.142"/>
<polygon fill="midnightblue" stroke="midnightblue" points="423.576,-379.559 434.153,-378.935 425.495,-372.828 423.576,-379.559"/>
</g>
<!-- Node9 -->
<g id="node9" class="node"><title>Node9</title>
<g id="a_node9"><a xlink:href="../../d9/db1/class_view_1_1_single_grid.html#a63dce7bacaea4b387aeef30975ad678b" target="_top" xlink:title="View.SingleGrid.getActive\lTurtles">
<polygon fill="white" stroke="black" points="796.5,-275 796.5,-305 933.5,-305 933.5,-275 796.5,-275"/>
<text text-anchor="start" x="804.5" y="-293" font-family="Helvetica,sans-Serif" font-size="10.00">View.SingleGrid.getActive</text>
<text text-anchor="middle" x="865" y="-282" font-family="Helvetica,sans-Serif" font-size="10.00">Turtles</text>
</a>
</g>
</g>
<!-- Node8&#45;&gt;Node9 -->
<g id="edge8" class="edge"><title>Node8&#45;&gt;Node9</title>
<path fill="none" stroke="midnightblue" d="M560.86,-272.216C625.358,-276 719.807,-281.541 786.095,-285.43"/>
<polygon fill="midnightblue" stroke="midnightblue" points="786.295,-288.947 796.483,-286.039 786.706,-281.959 786.295,-288.947"/>
</g>
<!-- Node10 -->
<g id="node10" class="node"><title>Node10</title>
<g id="a_node10"><a xlink:href="../../d9/db1/class_view_1_1_single_grid.html#a4c6eabf92c3205a22dc266cf0923f836" target="_top" xlink:title="View.SingleGrid.keyUpdate">
<polygon fill="white" stroke="black" points="612,-237.5 612,-256.5 756,-256.5 756,-237.5 612,-237.5"/>
<text text-anchor="middle" x="684" y="-244.5" font-family="Helvetica,sans-Serif" font-size="10.00">View.SingleGrid.keyUpdate</text>
</a>
</g>
</g>
<!-- Node8&#45;&gt;Node10 -->
<g id="edge9" class="edge"><title>Node8&#45;&gt;Node10</title>
<path fill="none" stroke="midnightblue" d="M560.687,-260.24C574.019,-258.797 588.037,-257.28 601.634,-255.808"/>
<polygon fill="midnightblue" stroke="midnightblue" points="602.366,-259.249 611.931,-254.693 601.612,-252.29 602.366,-259.249"/>
</g>
<!-- Node10&#45;&gt;Node9 -->
<g id="edge10" class="edge"><title>Node10&#45;&gt;Node9</title>
<path fill="none" stroke="midnightblue" d="M724.726,-256.543C744.375,-261.263 768.717,-267.111 791.526,-272.59"/>
<polygon fill="midnightblue" stroke="midnightblue" points="790.991,-276.061 801.532,-274.994 792.626,-269.255 790.991,-276.061"/>
</g>
<!-- Node11 -->
<g id="node11" class="node"><title>Node11</title>
<g id="a_node11"><a xlink:href="../../d9/db1/class_view_1_1_single_grid.html#a9093eac50d88370f86cb4757b996210e" target="_top" xlink:title="View.SingleGrid.keepTurtle\lInBounds">
<polygon fill="white" stroke="black" points="794.5,-152 794.5,-182 935.5,-182 935.5,-152 794.5,-152"/>
<text text-anchor="start" x="802.5" y="-170" font-family="Helvetica,sans-Serif" font-size="10.00">View.SingleGrid.keepTurtle</text>
<text text-anchor="middle" x="865" y="-159" font-family="Helvetica,sans-Serif" font-size="10.00">InBounds</text>
</a>
</g>
</g>
<!-- Node10&#45;&gt;Node11 -->
<g id="edge11" class="edge"><title>Node10&#45;&gt;Node11</title>
<path fill="none" stroke="midnightblue" d="M706.592,-237.35C734.845,-224.723 785.001,-202.307 821.113,-186.167"/>
<polygon fill="midnightblue" stroke="midnightblue" points="822.731,-189.278 830.432,-182.002 819.875,-182.887 822.731,-189.278"/>
</g>
<!-- Node27 -->
<g id="node27" class="node"><title>Node27</title>
<g id="a_node27"><a xlink:href="../../d9/db1/class_view_1_1_single_grid.html#a7fced187abf44b802950675ee590f493" target="_top" xlink:title="View.SingleGrid.moveTurtle">
<polygon fill="white" stroke="black" points="792.5,-236.5 792.5,-255.5 937.5,-255.5 937.5,-236.5 792.5,-236.5"/>
<text text-anchor="middle" x="865" y="-243.5" font-family="Helvetica,sans-Serif" font-size="10.00">View.SingleGrid.moveTurtle</text>
</a>
</g>
</g>
<!-- Node10&#45;&gt;Node27 -->
<g id="edge29" class="edge"><title>Node10&#45;&gt;Node27</title>
<path fill="none" stroke="midnightblue" d="M756.003,-246.603C764.632,-246.555 773.501,-246.506 782.27,-246.457"/>
<polygon fill="midnightblue" stroke="midnightblue" points="782.517,-249.955 792.497,-246.399 782.478,-242.955 782.517,-249.955"/>
</g>
<!-- Node12 -->
<g id="node12" class="node"><title>Node12</title>
<g id="a_node12"><a xlink:href="../../dc/d19/class_view_1_1_pen.html#a9baa63a91f8cd62a806147fdeaf44865" target="_top" xlink:title="View.Pen.drawLine">
<polygon fill="white" stroke="black" points="994,-5.5 994,-24.5 1098,-24.5 1098,-5.5 994,-5.5"/>
<text text-anchor="middle" x="1046" y="-12.5" font-family="Helvetica,sans-Serif" font-size="10.00">View.Pen.drawLine</text>
</a>
</g>
</g>
<!-- Node11&#45;&gt;Node12 -->
<g id="edge12" class="edge"><title>Node11&#45;&gt;Node12</title>
<path fill="none" stroke="midnightblue" d="M874.132,-151.608C889.673,-123.728 926.328,-64.9019 974,-34 977.185,-31.9351 980.589,-30.0936 984.118,-28.4514"/>
<polygon fill="midnightblue" stroke="midnightblue" points="985.745,-31.5679 993.685,-24.5533 983.104,-25.0853 985.745,-31.5679"/>
</g>
<!-- Node15 -->
<g id="node15" class="node"><title>Node15</title>
<g id="a_node15"><a xlink:href="../../df/dcb/classturtle_1_1_turtle.html#a0b8bdf8fc097cab5bf51d46567c2d749" target="_top" xlink:title="turtle.Turtle.getPen">
<polygon fill="white" stroke="black" points="992.5,-43.5 992.5,-62.5 1099.5,-62.5 1099.5,-43.5 992.5,-43.5"/>
<text text-anchor="middle" x="1046" y="-50.5" font-family="Helvetica,sans-Serif" font-size="10.00">turtle.Turtle.getPen</text>
</a>
</g>
</g>
<!-- Node11&#45;&gt;Node15 -->
<g id="edge15" class="edge"><title>Node11&#45;&gt;Node15</title>
<path fill="none" stroke="midnightblue" d="M879.055,-151.758C897.906,-130.711 934.811,-92.9764 974,-72 978.275,-69.7118 982.845,-67.6842 987.529,-65.8903"/>
<polygon fill="midnightblue" stroke="midnightblue" points="988.938,-69.1062 997.244,-62.5278 986.649,-62.4912 988.938,-69.1062"/>
</g>
<!-- Node16 -->
<g id="node16" class="node"><title>Node16</title>
<g id="a_node16"><a xlink:href="../../dc/d19/class_view_1_1_pen.html#a837537c2d8cd3a98e918a3ab6d72ebd9" target="_top" xlink:title="View.Pen.getPenDown">
<polygon fill="white" stroke="black" points="985,-119.5 985,-138.5 1107,-138.5 1107,-119.5 985,-119.5"/>
<text text-anchor="middle" x="1046" y="-126.5" font-family="Helvetica,sans-Serif" font-size="10.00">View.Pen.getPenDown</text>
</a>
</g>
</g>
<!-- Node11&#45;&gt;Node16 -->
<g id="edge16" class="edge"><title>Node11&#45;&gt;Node16</title>
<path fill="none" stroke="midnightblue" d="M935.719,-152.199C953.854,-148.349 973.129,-144.257 990.362,-140.599"/>
<polygon fill="midnightblue" stroke="midnightblue" points="991.192,-144.001 1000.25,-138.501 989.739,-137.154 991.192,-144.001"/>
</g>
<!-- Node17 -->
<g id="node17" class="node"><title>Node17</title>
<g id="a_node17"><a xlink:href="../../df/dcb/classturtle_1_1_turtle.html#aa576ade68e2f453b037ea2a3c456d466" target="_top" xlink:title="turtle.Turtle.getXPos">
<polygon fill="white" stroke="black" points="989.5,-195.5 989.5,-214.5 1102.5,-214.5 1102.5,-195.5 989.5,-195.5"/>
<text text-anchor="middle" x="1046" y="-202.5" font-family="Helvetica,sans-Serif" font-size="10.00">turtle.Turtle.getXPos</text>
</a>
</g>
</g>
<!-- Node11&#45;&gt;Node17 -->
<g id="edge17" class="edge"><title>Node11&#45;&gt;Node17</title>
<path fill="none" stroke="midnightblue" d="M935.719,-181.801C953.854,-185.651 973.129,-189.743 990.362,-193.401"/>
<polygon fill="midnightblue" stroke="midnightblue" points="989.739,-196.846 1000.25,-195.499 991.192,-189.999 989.739,-196.846"/>
</g>
<!-- Node19 -->
<g id="node19" class="node"><title>Node19</title>
<g id="a_node19"><a xlink:href="../../df/dcb/classturtle_1_1_turtle.html#a735b5aa0bce5a53d2c75322fb2ad9130" target="_top" xlink:title="turtle.Turtle.getYPos">
<polygon fill="white" stroke="black" points="990,-271.5 990,-290.5 1102,-290.5 1102,-271.5 990,-271.5"/>
<text text-anchor="middle" x="1046" y="-278.5" font-family="Helvetica,sans-Serif" font-size="10.00">turtle.Turtle.getYPos</text>
</a>
</g>
</g>
<!-- Node11&#45;&gt;Node19 -->
<g id="edge19" class="edge"><title>Node11&#45;&gt;Node19</title>
<path fill="none" stroke="midnightblue" d="M884.981,-182.155C899.696,-194.061 920.466,-211.213 938,-227 954.584,-241.932 954.594,-250.982 974,-262 977.913,-264.222 982.096,-266.192 986.399,-267.938"/>
<polygon fill="midnightblue" stroke="midnightblue" points="985.36,-271.285 995.955,-271.412 987.752,-264.706 985.36,-271.285"/>
</g>
<!-- Node21 -->
<g id="node21" class="node"><title>Node21</title>
<g id="a_node21"><a xlink:href="../../dc/d19/class_view_1_1_pen.html#a8709e1eb5749d8575a4ba9a26acffa0f" target="_top" xlink:title="View.Pen.setPenDown">
<polygon fill="white" stroke="black" points="985.5,-81.5 985.5,-100.5 1106.5,-100.5 1106.5,-81.5 985.5,-81.5"/>
<text text-anchor="middle" x="1046" y="-88.5" font-family="Helvetica,sans-Serif" font-size="10.00">View.Pen.setPenDown</text>
</a>
</g>
</g>
<!-- Node11&#45;&gt;Node21 -->
<g id="edge21" class="edge"><title>Node11&#45;&gt;Node21</title>
<path fill="none" stroke="midnightblue" d="M890.559,-151.995C911.975,-139.415 944.194,-121.683 974,-110 980.226,-107.56 986.878,-105.322 993.521,-103.307"/>
<polygon fill="midnightblue" stroke="midnightblue" points="994.559,-106.65 1003.2,-100.515 992.619,-99.9247 994.559,-106.65"/>
</g>
<!-- Node22 -->
<g id="node22" class="node"><title>Node22</title>
<g id="a_node22"><a xlink:href="../../df/dcb/classturtle_1_1_turtle.html#a5db281fc734edd965ff0faddbab871d7" target="_top" xlink:title="turtle.Turtle.setXPos">
<polygon fill="white" stroke="black" points="990,-233.5 990,-252.5 1102,-252.5 1102,-233.5 990,-233.5"/>
<text text-anchor="middle" x="1046" y="-240.5" font-family="Helvetica,sans-Serif" font-size="10.00">turtle.Turtle.setXPos</text>
</a>
</g>
</g>
<!-- Node11&#45;&gt;Node22 -->
<g id="edge22" class="edge"><title>Node11&#45;&gt;Node22</title>
<path fill="none" stroke="midnightblue" d="M890.559,-182.005C911.975,-194.585 944.194,-212.317 974,-224 980.226,-226.44 986.878,-228.678 993.521,-230.693"/>
<polygon fill="midnightblue" stroke="midnightblue" points="992.619,-234.075 1003.2,-233.485 994.559,-227.35 992.619,-234.075"/>
</g>
<!-- Node25 -->
<g id="node25" class="node"><title>Node25</title>
<g id="a_node25"><a xlink:href="../../df/dcb/classturtle_1_1_turtle.html#a1107426e66ec049d5e3d1c1783a463db" target="_top" xlink:title="turtle.Turtle.setYPos">
<polygon fill="white" stroke="black" points="990.5,-157.5 990.5,-176.5 1101.5,-176.5 1101.5,-157.5 990.5,-157.5"/>
<text text-anchor="middle" x="1046" y="-164.5" font-family="Helvetica,sans-Serif" font-size="10.00">turtle.Turtle.setYPos</text>
</a>
</g>
</g>
<!-- Node11&#45;&gt;Node25 -->
<g id="edge27" class="edge"><title>Node11&#45;&gt;Node25</title>
<path fill="none" stroke="midnightblue" d="M935.719,-167C950.332,-167 965.686,-167 980.115,-167"/>
<polygon fill="midnightblue" stroke="midnightblue" points="980.434,-170.5 990.434,-167 980.434,-163.5 980.434,-170.5"/>
</g>
<!-- Node13 -->
<g id="node13" class="node"><title>Node13</title>
<g id="a_node13"><a xlink:href="../../dc/d19/class_view_1_1_pen.html#ad2b5fd226e4003bbb48f13018bc72916" target="_top" xlink:title="View.Pen.setLineStyle">
<polygon fill="white" stroke="black" points="1160,-5.5 1160,-24.5 1280,-24.5 1280,-5.5 1160,-5.5"/>
<text text-anchor="middle" x="1220" y="-12.5" font-family="Helvetica,sans-Serif" font-size="10.00">View.Pen.setLineStyle</text>
</a>
</g>
</g>
<!-- Node12&#45;&gt;Node13 -->
<g id="edge13" class="edge"><title>Node12&#45;&gt;Node13</title>
<path fill="none" stroke="midnightblue" d="M1098.14,-15C1114.36,-15 1132.58,-15 1149.86,-15"/>
<polygon fill="midnightblue" stroke="midnightblue" points="1149.89,-18.5001 1159.89,-15 1149.89,-11.5001 1149.89,-18.5001"/>
</g>
<!-- Node14 -->
<g id="node14" class="node"><title>Node14</title>
<g id="a_node14"><a xlink:href="../../dc/d86/class_g_u_i_functions_1_1_border_style.html#a20c91294c08c9b4b555f41cdf5941e45" target="_top" xlink:title="GUIFunctions.BorderStyle.get\lStyle">
<polygon fill="white" stroke="black" points="1322.5,-0 1322.5,-30 1479.5,-30 1479.5,-0 1322.5,-0"/>
<text text-anchor="start" x="1330.5" y="-18" font-family="Helvetica,sans-Serif" font-size="10.00">GUIFunctions.BorderStyle.get</text>
<text text-anchor="middle" x="1401" y="-7" font-family="Helvetica,sans-Serif" font-size="10.00">Style</text>
</a>
</g>
</g>
<!-- Node13&#45;&gt;Node14 -->
<g id="edge14" class="edge"><title>Node13&#45;&gt;Node14</title>
<path fill="none" stroke="midnightblue" d="M1280.11,-15C1290.48,-15 1301.46,-15 1312.41,-15"/>
<polygon fill="midnightblue" stroke="midnightblue" points="1312.44,-18.5001 1322.44,-15 1312.44,-11.5001 1312.44,-18.5001"/>
</g>
<!-- Node18 -->
<g id="node18" class="node"><title>Node18</title>
<g id="a_node18"><a xlink:href="../../d1/dbe/classturtle_1_1_position.html#a1d079c846ce96bf1c57da388c46669e1" target="_top" xlink:title="turtle.Position.getXPos">
<polygon fill="white" stroke="black" points="1157.5,-195.5 1157.5,-214.5 1282.5,-214.5 1282.5,-195.5 1157.5,-195.5"/>
<text text-anchor="middle" x="1220" y="-202.5" font-family="Helvetica,sans-Serif" font-size="10.00">turtle.Position.getXPos</text>
</a>
</g>
</g>
<!-- Node17&#45;&gt;Node18 -->
<g id="edge18" class="edge"><title>Node17&#45;&gt;Node18</title>
<path fill="none" stroke="midnightblue" d="M1102.84,-205C1117.03,-205 1132.47,-205 1147.32,-205"/>
<polygon fill="midnightblue" stroke="midnightblue" points="1147.49,-208.5 1157.49,-205 1147.49,-201.5 1147.49,-208.5"/>
</g>
<!-- Node20 -->
<g id="node20" class="node"><title>Node20</title>
<g id="a_node20"><a xlink:href="../../d1/dbe/classturtle_1_1_position.html#a3a68708e4dc3290c4ef0ecd511cc8c1f" target="_top" xlink:title="turtle.Position.getYPos">
<polygon fill="white" stroke="black" points="1158,-271.5 1158,-290.5 1282,-290.5 1282,-271.5 1158,-271.5"/>
<text text-anchor="middle" x="1220" y="-278.5" font-family="Helvetica,sans-Serif" font-size="10.00">turtle.Position.getYPos</text>
</a>
</g>
</g>
<!-- Node19&#45;&gt;Node20 -->
<g id="edge20" class="edge"><title>Node19&#45;&gt;Node20</title>
<path fill="none" stroke="midnightblue" d="M1102.37,-281C1116.73,-281 1132.4,-281 1147.47,-281"/>
<polygon fill="midnightblue" stroke="midnightblue" points="1147.78,-284.5 1157.78,-281 1147.78,-277.5 1147.78,-284.5"/>
</g>
<!-- Node22&#45;&gt;Node18 -->
<g id="edge24" class="edge"><title>Node22&#45;&gt;Node18</title>
<path fill="none" stroke="midnightblue" d="M1090.4,-233.411C1113.41,-228.329 1141.85,-222.045 1166.13,-216.68"/>
<polygon fill="midnightblue" stroke="midnightblue" points="1166.9,-220.095 1175.91,-214.52 1165.39,-213.26 1166.9,-220.095"/>
</g>
<!-- Node22&#45;&gt;Node20 -->
<g id="edge25" class="edge"><title>Node22&#45;&gt;Node20</title>
<path fill="none" stroke="midnightblue" d="M1090.4,-252.589C1113.41,-257.671 1141.85,-263.955 1166.13,-269.32"/>
<polygon fill="midnightblue" stroke="midnightblue" points="1165.39,-272.74 1175.91,-271.48 1166.9,-265.905 1165.39,-272.74"/>
</g>
<!-- Node23 -->
<g id="node23" class="node"><title>Node23</title>
<g id="a_node23"><a xlink:href="../../d1/dbe/classturtle_1_1_position.html#a7bfd27ea2bf5e22d8de4a4e87b4df2ec" target="_top" xlink:title="turtle.Position.getRotate">
<polygon fill="white" stroke="black" points="1154,-309.5 1154,-328.5 1286,-328.5 1286,-309.5 1154,-309.5"/>
<text text-anchor="middle" x="1220" y="-316.5" font-family="Helvetica,sans-Serif" font-size="10.00">turtle.Position.getRotate</text>
</a>
</g>
</g>
<!-- Node22&#45;&gt;Node23 -->
<g id="edge23" class="edge"><title>Node22&#45;&gt;Node23</title>
<path fill="none" stroke="midnightblue" d="M1096.93,-252.596C1104.27,-255.064 1111.53,-258.149 1118,-262 1137.99,-273.9 1134.15,-287.872 1154,-300 1157.56,-302.172 1161.37,-304.107 1165.31,-305.828"/>
<polygon fill="midnightblue" stroke="midnightblue" points="1164.06,-309.098 1174.65,-309.47 1166.6,-302.576 1164.06,-309.098"/>
</g>
<!-- Node24 -->
<g id="node24" class="node"><title>Node24</title>
<g id="a_node24"><a xlink:href="../../d1/dbe/classturtle_1_1_position.html#af03c1c3b306f6c12d2ec52a00fde50eb" target="_top" xlink:title="turtle.Position.setXPos">
<polygon fill="white" stroke="black" points="1158,-233.5 1158,-252.5 1282,-252.5 1282,-233.5 1158,-233.5"/>
<text text-anchor="middle" x="1220" y="-240.5" font-family="Helvetica,sans-Serif" font-size="10.00">turtle.Position.setXPos</text>
</a>
</g>
</g>
<!-- Node22&#45;&gt;Node24 -->
<g id="edge26" class="edge"><title>Node22&#45;&gt;Node24</title>
<path fill="none" stroke="midnightblue" d="M1102.37,-243C1116.73,-243 1132.4,-243 1147.47,-243"/>
<polygon fill="midnightblue" stroke="midnightblue" points="1147.78,-246.5 1157.78,-243 1147.78,-239.5 1147.78,-246.5"/>
</g>
<!-- Node26 -->
<g id="node26" class="node"><title>Node26</title>
<g id="a_node26"><a xlink:href="../../d1/dbe/classturtle_1_1_position.html#a7c26cf9316a28fb4821731864ed28c95" target="_top" xlink:title="turtle.Position.setYPos">
<polygon fill="white" stroke="black" points="1158.5,-157.5 1158.5,-176.5 1281.5,-176.5 1281.5,-157.5 1158.5,-157.5"/>
<text text-anchor="middle" x="1220" y="-164.5" font-family="Helvetica,sans-Serif" font-size="10.00">turtle.Position.setYPos</text>
</a>
</g>
</g>
<!-- Node25&#45;&gt;Node26 -->
<g id="edge28" class="edge"><title>Node25&#45;&gt;Node26</title>
<path fill="none" stroke="midnightblue" d="M1101.89,-167C1116.65,-167 1132.82,-167 1148.31,-167"/>
<polygon fill="midnightblue" stroke="midnightblue" points="1148.37,-170.5 1158.37,-167 1148.37,-163.5 1148.37,-170.5"/>
</g>
<!-- Node27&#45;&gt;Node17 -->
<g id="edge32" class="edge"><title>Node27&#45;&gt;Node17</title>
<path fill="none" stroke="midnightblue" d="M907.516,-236.491C933.179,-230.613 966.315,-223.023 993.626,-216.767"/>
<polygon fill="midnightblue" stroke="midnightblue" points="994.433,-220.173 1003.4,-214.529 992.87,-213.35 994.433,-220.173"/>
</g>
<!-- Node27&#45;&gt;Node19 -->
<g id="edge33" class="edge"><title>Node27&#45;&gt;Node19</title>
<path fill="none" stroke="midnightblue" d="M914.913,-255.564C936.914,-259.866 963.067,-264.98 986.133,-269.49"/>
<polygon fill="midnightblue" stroke="midnightblue" points="985.661,-272.964 996.147,-271.448 987.004,-266.094 985.661,-272.964"/>
</g>
<!-- Node28 -->
<g id="node28" class="node"><title>Node28</title>
<g id="a_node28"><a xlink:href="../../df/dcb/classturtle_1_1_turtle.html#af4afc304cb9394e02381563fad7c34ce" target="_top" xlink:title="turtle.Turtle.getOrientation">
<polygon fill="white" stroke="black" points="974.5,-309.5 974.5,-328.5 1117.5,-328.5 1117.5,-309.5 974.5,-309.5"/>
<text text-anchor="middle" x="1046" y="-316.5" font-family="Helvetica,sans-Serif" font-size="10.00">turtle.Turtle.getOrientation</text>
</a>
</g>
</g>
<!-- Node27&#45;&gt;Node28 -->
<g id="edge30" class="edge"><title>Node27&#45;&gt;Node28</title>
<path fill="none" stroke="midnightblue" d="M913.029,-255.5C921.636,-258.22 930.318,-261.663 938,-266 957.165,-276.818 954.784,-289.272 974,-300 977.994,-302.229 982.261,-304.207 986.647,-305.96"/>
<polygon fill="midnightblue" stroke="midnightblue" points="985.783,-309.368 996.377,-309.447 988.145,-302.778 985.783,-309.368"/>
</g>
<!-- Node28&#45;&gt;Node23 -->
<g id="edge31" class="edge"><title>Node28&#45;&gt;Node23</title>
<path fill="none" stroke="midnightblue" d="M1117.95,-319C1126.37,-319 1134.99,-319 1143.47,-319"/>
<polygon fill="midnightblue" stroke="midnightblue" points="1143.73,-322.5 1153.73,-319 1143.73,-315.5 1143.73,-322.5"/>
</g>
</g>
</svg>
        <g id="navigator" transform="translate(0 0)" fill="#404254">
                <rect fill="#f2f5e9" fill-opacity="0.5" stroke="#606060" stroke-width=".5" x="0" y="0" width="60" height="60"/>
                <use id="zoomplus" xlink:href="#zoomPlus" x="17" y="9" onmousedown="handleZoom(evt,'in')"/>
                <use id="zoomminus" xlink:href="#zoomMin" x="42" y="9" onmousedown="handleZoom(evt,'out')"/>
                <use id="reset" xlink:href="#resetDef" x="30" y="36" onmousedown="handleReset()"/>
                <g id="arrowUp" xlink:href="#dirArrow" transform="translate(30 24)" onmousedown="handlePan(0,-1)">
                  <use xlink:href="#rim" fill="#404040">
                        <set attributeName="fill" to="#808080" begin="arrowUp.mouseover" end="arrowUp.mouseout"/>
                  </use>
                  <path fill="none" stroke="white" stroke-width="1.5" d="M0,-3.0v7 M-2.5,-0.5L0,-3.0L2.5,-0.5"/>
                </g>
                <g id="arrowRight" xlink:href="#dirArrow" transform="rotate(90) translate(36 -43)" onmousedown="handlePan(1,0)">
                  <use xlink:href="#rim" fill="#404040">
                        <set attributeName="fill" to="#808080" begin="arrowRight.mouseover" end="arrowRight.mouseout"/>
                  </use>
                  <path fill="none" stroke="white" stroke-width="1.5" d="M0,-3.0v7 M-2.5,-0.5L0,-3.0L2.5,-0.5"/>
                </g>
                <g id="arrowDown" xlink:href="#dirArrow" transform="rotate(180) translate(-30 -48)" onmousedown="handlePan(0,1)">
                  <use xlink:href="#rim" fill="#404040">
                        <set attributeName="fill" to="#808080" begin="arrowDown.mouseover" end="arrowDown.mouseout"/>
                  </use>
                  <path fill="none" stroke="white" stroke-width="1.5" d="M0,-3.0v7 M-2.5,-0.5L0,-3.0L2.5,-0.5"/>
                </g>
                <g id="arrowLeft" xlink:href="#dirArrow" transform="rotate(270) translate(-36 17)" onmousedown="handlePan(-1,0)">
                  <use xlink:href="#rim" fill="#404040">
                        <set attributeName="fill" to="#808080" begin="arrowLeft.mouseover" end="arrowLeft.mouseout"/>
                  </use>
                  <path fill="none" stroke="white" stroke-width="1.5" d="M0,-3.0v7 M-2.5,-0.5L0,-3.0L2.5,-0.5"/>
                </g>
        </g>
        <svg viewBox="0 0 15 15" width="100%" height="30px" preserveAspectRatio="xMaxYMin meet">
         <g id="arrow_out" transform="scale(0.3 0.3)">
          <a xlink:href="class_view_1_1_slogo_view_a5759fa529a24ab1e80d37348f3dd395b_cgraph_org.svg" target="_base">
           <rect id="button" ry="5" rx="5" y="6" x="6" height="38" width="38"
                fill="#f2f5e9" fill-opacity="0.5" stroke="#606060" stroke-width="1.0"/>
           <path id="arrow"
             d="M 11.500037,31.436501 C 11.940474,20.09759 22.043105,11.32322 32.158766,21.979434 L 37.068811,17.246167 C 37.068811,17.246167 37.088388,32 37.088388,32 L 22.160133,31.978069 C 22.160133,31.978069 26.997745,27.140456 26.997745,27.140456 C 18.528582,18.264221 13.291696,25.230495 11.500037,31.436501 z"
             style="fill:#404040;"/>
          </a>
         </g>
        </svg>
</svg>
