<?xml version="1.0" encoding="UTF-8" standalone="no"?>
<!DOCTYPE svg PUBLIC "-//W3C//DTD SVG 1.1//EN"
 "http://www.w3.org/Graphics/SVG/1.1/DTD/svg11.dtd">
<!-- Generated by graphviz version 2.36.0 (20140111.2315)
 -->
<!-- Title: View.SlogoView.SlogoView Pages: 1 -->
<svg width="754pt" height="230pt"
 viewBox="0.00 0.00 754.00 230.00" xmlns="http://www.w3.org/2000/svg" xmlns:xlink="http://www.w3.org/1999/xlink">
<g id="graph0" class="graph" transform="scale(1 1) rotate(0) translate(4 226)">
<title>View.SlogoView.SlogoView</title>
<polygon fill="white" stroke="none" points="-4,4 -4,-226 750,-226 750,4 -4,4"/>
<!-- Node1 -->
<g id="node1" class="node"><title>Node1</title>
<polygon fill="#bfbfbf" stroke="black" points="0,-72.5 0,-91.5 140,-91.5 140,-72.5 0,-72.5"/>
<text text-anchor="middle" x="70" y="-79.5" font-family="Helvetica,sans-Serif" font-size="10.00">View.SlogoView.SlogoView</text>
</g>
<!-- Node2 -->
<g id="node2" class="node"><title>Node2</title>
<g id="a_node2"><a xlink:href="../../d6/d33/class_view_1_1_slogo_view.html#acfc9a29c260e063a27320bd12275a939" target="_top" xlink:title="View.SlogoView.build">
<polygon fill="white" stroke="black" points="192,-104.5 192,-123.5 306,-123.5 306,-104.5 192,-104.5"/>
<text text-anchor="middle" x="249" y="-111.5" font-family="Helvetica,sans-Serif" font-size="10.00">View.SlogoView.build</text>
</a>
</g>
</g>
<!-- Node1&#45;&gt;Node2 -->
<g id="edge1" class="edge"><title>Node1&#45;&gt;Node2</title>
<path fill="none" stroke="midnightblue" d="M123.627,-91.5144C142.98,-95.0133 165.088,-99.0102 185.244,-102.654"/>
<polygon fill="midnightblue" stroke="midnightblue" points="184.807,-106.132 195.271,-104.467 186.053,-99.2437 184.807,-106.132"/>
</g>
<!-- Node10 -->
<g id="node10" class="node"><title>Node10</title>
<g id="a_node10"><a xlink:href="../../d6/d33/class_view_1_1_slogo_view.html#ad6bced2aad0ccaef7521c9840ab53a5f" target="_top" xlink:title="View.SlogoView.makeListOf\lFunctions">
<polygon fill="white" stroke="black" points="176,-36 176,-66 322,-66 322,-36 176,-36"/>
<text text-anchor="start" x="184" y="-54" font-family="Helvetica,sans-Serif" font-size="10.00">View.SlogoView.makeListOf</text>
<text text-anchor="middle" x="249" y="-43" font-family="Helvetica,sans-Serif" font-size="10.00">Functions</text>
</a>
</g>
</g>
<!-- Node1&#45;&gt;Node10 -->
<g id="edge9" class="edge"><title>Node1&#45;&gt;Node10</title>
<path fill="none" stroke="midnightblue" d="M125.55,-72.446C138.301,-70.2128 152.16,-67.7855 165.818,-65.3935"/>
<polygon fill="midnightblue" stroke="midnightblue" points="166.462,-68.834 175.708,-63.6613 165.254,-61.939 166.462,-68.834"/>
</g>
<!-- Node3 -->
<g id="node3" class="node"><title>Node3</title>
<g id="a_node3"><a xlink:href="../../d7/d98/class_view_1_1_grid_tracker.html#af7c2413584c58030e606ae6692ea564f" target="_top" xlink:title="View.GridTracker.getActiveGrid">
<polygon fill="white" stroke="black" points="365.5,-202.5 365.5,-221.5 526.5,-221.5 526.5,-202.5 365.5,-202.5"/>
<text text-anchor="middle" x="446" y="-209.5" font-family="Helvetica,sans-Serif" font-size="10.00">View.GridTracker.getActiveGrid</text>
</a>
</g>
</g>
<!-- Node2&#45;&gt;Node3 -->
<g id="edge2" class="edge"><title>Node2&#45;&gt;Node3</title>
<path fill="none" stroke="midnightblue" d="M260.095,-123.695C278.18,-140.5 317.969,-174.965 358,-193 363.643,-195.542 369.648,-197.754 375.765,-199.676"/>
<polygon fill="midnightblue" stroke="midnightblue" points="374.853,-203.056 385.432,-202.465 376.794,-196.33 374.853,-203.056"/>
</g>
<!-- Node4 -->
<g id="node4" class="node"><title>Node4</title>
<g id="a_node4"><a xlink:href="../../d5/d30/class_view_1_1_tabs_of_grids.html#af8af94baac6e068e15173384481341c9" target="_top" xlink:title="View.TabsOfGrids.getActiveGrid">
<polygon fill="white" stroke="black" points="364,-164.5 364,-183.5 528,-183.5 528,-164.5 364,-164.5"/>
<text text-anchor="middle" x="446" y="-171.5" font-family="Helvetica,sans-Serif" font-size="10.00">View.TabsOfGrids.getActiveGrid</text>
</a>
</g>
</g>
<!-- Node2&#45;&gt;Node4 -->
<g id="edge3" class="edge"><title>Node2&#45;&gt;Node4</title>
<path fill="none" stroke="midnightblue" d="M272.421,-123.627C294.036,-132.641 327.818,-146.029 358,-155 366.706,-157.588 375.999,-159.989 385.149,-162.152"/>
<polygon fill="midnightblue" stroke="midnightblue" points="384.46,-165.584 394.989,-164.403 386.022,-158.761 384.46,-165.584"/>
</g>
<!-- Node5 -->
<g id="node5" class="node"><title>Node5</title>
<g id="a_node5"><a xlink:href="../../d7/d98/class_view_1_1_grid_tracker.html#a10f28999bec118593817f480836c5a94" target="_top" xlink:title="View.GridTracker.setActiveGrid">
<polygon fill="white" stroke="black" points="366,-126.5 366,-145.5 526,-145.5 526,-126.5 366,-126.5"/>
<text text-anchor="middle" x="446" y="-133.5" font-family="Helvetica,sans-Serif" font-size="10.00">View.GridTracker.setActiveGrid</text>
</a>
</g>
</g>
<!-- Node2&#45;&gt;Node5 -->
<g id="edge4" class="edge"><title>Node2&#45;&gt;Node5</title>
<path fill="none" stroke="midnightblue" d="M306.14,-120.334C321.514,-122.068 338.572,-123.993 355.321,-125.882"/>
<polygon fill="midnightblue" stroke="midnightblue" points="355.362,-129.409 365.691,-127.052 356.146,-122.453 355.362,-129.409"/>
</g>
<!-- Node6 -->
<g id="node6" class="node"><title>Node6</title>
<g id="a_node6"><a xlink:href="../../d9/d00/classcommunicator_1_1_main_controller.html#a5f47f446231c8725088701e8adc79eee" target="_top" xlink:title="communicator.MainController.set\lGridAsActive">
<polygon fill="white" stroke="black" points="358.5,-77 358.5,-107 533.5,-107 533.5,-77 358.5,-77"/>
<text text-anchor="start" x="366.5" y="-95" font-family="Helvetica,sans-Serif" font-size="10.00">communicator.MainController.set</text>
<text text-anchor="middle" x="446" y="-84" font-family="Helvetica,sans-Serif" font-size="10.00">GridAsActive</text>
</a>
</g>
</g>
<!-- Node2&#45;&gt;Node6 -->
<g id="edge5" class="edge"><title>Node2&#45;&gt;Node6</title>
<path fill="none" stroke="midnightblue" d="M306.14,-107.666C319.396,-106.171 333.903,-104.534 348.385,-102.9"/>
<polygon fill="midnightblue" stroke="midnightblue" points="348.846,-106.37 358.391,-101.771 348.061,-99.4146 348.846,-106.37"/>
</g>
<!-- Node9 -->
<g id="node9" class="node"><title>Node9</title>
<g id="a_node9"><a xlink:href="../../d0/d92/class_view_1_1_grid.html#a41a30a88e387ffd4c232201536049709" target="_top" xlink:title="View.Grid.getID">
<polygon fill="white" stroke="black" points="401.5,-38.5 401.5,-57.5 490.5,-57.5 490.5,-38.5 401.5,-38.5"/>
<text text-anchor="middle" x="446" y="-45.5" font-family="Helvetica,sans-Serif" font-size="10.00">View.Grid.getID</text>
</a>
</g>
</g>
<!-- Node2&#45;&gt;Node9 -->
<g id="edge8" class="edge"><title>Node2&#45;&gt;Node9</title>
<path fill="none" stroke="midnightblue" d="M269.068,-104.341C290.311,-93.9048 325.896,-77.3807 358,-67 368.587,-63.5767 380.097,-60.5766 391.175,-58.0322"/>
<polygon fill="midnightblue" stroke="midnightblue" points="392.176,-61.3957 401.188,-55.8246 390.668,-54.5599 392.176,-61.3957"/>
</g>
<!-- Node7 -->
<g id="node7" class="node"><title>Node7</title>
<g id="a_node7"><a xlink:href="../../d9/d00/classcommunicator_1_1_main_controller.html#ac535ad5404d0e180a1de6526a967a581" target="_top" xlink:title="communicator.MainController.get\lGridContainer">
<polygon fill="white" stroke="black" points="570,-102 570,-132 746,-132 746,-102 570,-102"/>
<text text-anchor="start" x="578" y="-120" font-family="Helvetica,sans-Serif" font-size="10.00">communicator.MainController.get</text>
<text text-anchor="middle" x="658" y="-109" font-family="Helvetica,sans-Serif" font-size="10.00">GridContainer</text>
</a>
</g>
</g>
<!-- Node6&#45;&gt;Node7 -->
<g id="edge6" class="edge"><title>Node6&#45;&gt;Node7</title>
<path fill="none" stroke="midnightblue" d="M533.627,-102.313C542.235,-103.338 551.013,-104.383 559.72,-105.419"/>
<polygon fill="midnightblue" stroke="midnightblue" points="559.55,-108.923 569.894,-106.63 560.377,-101.973 559.55,-108.923"/>
</g>
<!-- Node8 -->
<g id="node8" class="node"><title>Node8</title>
<g id="a_node8"><a xlink:href="../../d4/d37/classcommands_1_1information_1_1_base_grid_container.html#a8e6f306cdcef5b2cc076521e40de0138" target="_top" xlink:title="commands.information.Base\lGridContainer.setGridAsActive">
<polygon fill="white" stroke="black" points="577.5,-53 577.5,-83 738.5,-83 738.5,-53 577.5,-53"/>
<text text-anchor="start" x="585.5" y="-71" font-family="Helvetica,sans-Serif" font-size="10.00">commands.information.Base</text>
<text text-anchor="middle" x="658" y="-60" font-family="Helvetica,sans-Serif" font-size="10.00">GridContainer.setGridAsActive</text>
</a>
</g>
</g>
<!-- Node6&#45;&gt;Node8 -->
<g id="edge7" class="edge"><title>Node6&#45;&gt;Node8</title>
<path fill="none" stroke="midnightblue" d="M533.627,-82.0997C544.7,-80.8343 556.053,-79.5368 567.175,-78.2657"/>
<polygon fill="midnightblue" stroke="midnightblue" points="567.771,-81.7205 577.309,-77.1076 566.976,-74.7658 567.771,-81.7205"/>
</g>
<!-- Node11 -->
<g id="node11" class="node"><title>Node11</title>
<g id="a_node11"><a xlink:href="../../d6/d33/class_view_1_1_slogo_view.html#a70321c45a395aea8955b429fc3c754ed" target="_top" xlink:title="View.SlogoView.addLanguages">
<polygon fill="white" stroke="black" points="365,-0.5 365,-19.5 527,-19.5 527,-0.5 365,-0.5"/>
<text text-anchor="middle" x="446" y="-7.5" font-family="Helvetica,sans-Serif" font-size="10.00">View.SlogoView.addLanguages</text>
</a>
</g>
</g>
<!-- Node10&#45;&gt;Node11 -->
<g id="edge10" class="edge"><title>Node10&#45;&gt;Node11</title>
<path fill="none" stroke="midnightblue" d="M321.504,-35.9659C344.024,-31.2308 368.541,-26.076 389.751,-21.6165"/>
<polygon fill="midnightblue" stroke="midnightblue" points="390.492,-25.0372 399.558,-19.5545 389.052,-18.187 390.492,-25.0372"/>
</g>
</g>
</svg>
