<?xml version="1.0" encoding="UTF-8" standalone="no"?>
<!DOCTYPE svg PUBLIC "-//W3C//DTD SVG 1.1//EN"
 "http://www.w3.org/Graphics/SVG/1.1/DTD/svg11.dtd">
<!-- Generated by graphviz version 2.36.0 (20140111.2315)
 -->
<!-- Title: View.SlogoView.makeUserCommand Pages: 1 -->
<svg width="886pt" height="38pt"
 viewBox="0.00 0.00 886.00 38.00" xmlns="http://www.w3.org/2000/svg" xmlns:xlink="http://www.w3.org/1999/xlink">
<g id="graph0" class="graph" transform="scale(1 1) rotate(0) translate(4 34)">
<title>View.SlogoView.makeUserCommand</title>
<polygon fill="white" stroke="none" points="-4,4 -4,-34 882,-34 882,4 -4,4"/>
<!-- Node1 -->
<g id="node1" class="node"><title>Node1</title>
<polygon fill="#bfbfbf" stroke="black" points="0.5,-5.5 0.5,-24.5 191.5,-24.5 191.5,-5.5 0.5,-5.5"/>
<text text-anchor="middle" x="96" y="-12.5" font-family="Helvetica,sans-Serif" font-size="10.00">View.SlogoView.makeUserCommand</text>
</g>
<!-- Node2 -->
<g id="node2" class="node"><title>Node2</title>
<g id="a_node2"><a xlink:href="../../d6/d33/class_view_1_1_slogo_view.html#ac53c6ee17a0184deaf3e50be2ee738b2" target="_top" xlink:title="View.SlogoView.makeCommand\lButton">
<polygon fill="white" stroke="black" points="228.5,-0 228.5,-30 397.5,-30 397.5,-0 228.5,-0"/>
<text text-anchor="start" x="236.5" y="-18" font-family="Helvetica,sans-Serif" font-size="10.00">View.SlogoView.makeCommand</text>
<text text-anchor="middle" x="313" y="-7" font-family="Helvetica,sans-Serif" font-size="10.00">Button</text>
</a>
</g>
</g>
<!-- Node1&#45;&gt;Node2 -->
<g id="edge1" class="edge"><title>Node1&#45;&gt;Node2</title>
<path fill="none" stroke="midnightblue" d="M201.726,-15C210.703,-15 219.706,-15 228.484,-15"/>
<polygon fill="midnightblue" stroke="midnightblue" points="201.615,-11.5001 191.615,-15 201.615,-18.5001 201.615,-11.5001"/>
</g>
<!-- Node3 -->
<g id="node3" class="node"><title>Node3</title>
<g id="a_node3"><a xlink:href="../../d6/d33/class_view_1_1_slogo_view.html#ac64a43649ed5417854c37ec25320e925" target="_top" xlink:title="View.SlogoView.setTextArea">
<polygon fill="white" stroke="black" points="434,-5.5 434,-24.5 582,-24.5 582,-5.5 434,-5.5"/>
<text text-anchor="middle" x="508" y="-12.5" font-family="Helvetica,sans-Serif" font-size="10.00">View.SlogoView.setTextArea</text>
</a>
</g>
</g>
<!-- Node2&#45;&gt;Node3 -->
<g id="edge2" class="edge"><title>Node2&#45;&gt;Node3</title>
<path fill="none" stroke="midnightblue" d="M407.808,-15C416.589,-15 425.4,-15 433.95,-15"/>
<polygon fill="midnightblue" stroke="midnightblue" points="407.53,-11.5001 397.53,-15 407.53,-18.5001 407.53,-11.5001"/>
</g>
<!-- Node4 -->
<g id="node4" class="node"><title>Node4</title>
<g id="a_node4"><a xlink:href="../../d6/d33/class_view_1_1_slogo_view.html#acfeff052503655d2ac419d2bf4ea9bd5" target="_top" xlink:title="View.SlogoView.initialize">
<polygon fill="white" stroke="black" points="618,-5.5 618,-24.5 748,-24.5 748,-5.5 618,-5.5"/>
<text text-anchor="middle" x="683" y="-12.5" font-family="Helvetica,sans-Serif" font-size="10.00">View.SlogoView.initialize</text>
</a>
</g>
</g>
<!-- Node3&#45;&gt;Node4 -->
<g id="edge3" class="edge"><title>Node3&#45;&gt;Node4</title>
<path fill="none" stroke="midnightblue" d="M592.216,-15C600.853,-15 609.534,-15 617.914,-15"/>
<polygon fill="midnightblue" stroke="midnightblue" points="592.117,-11.5001 582.117,-15 592.117,-18.5001 592.117,-11.5001"/>
</g>
<!-- Node5 -->
<g id="node5" class="node"><title>Node5</title>
<g id="a_node5"><a xlink:href="../../db/d27/class_view_1_1_slogo.html#a6ab76a53160b61d8501aec91c55b85c8" target="_top" xlink:title="View.Slogo.start">
<polygon fill="white" stroke="black" points="784.5,-5.5 784.5,-24.5 877.5,-24.5 877.5,-5.5 784.5,-5.5"/>
<text text-anchor="middle" x="831" y="-12.5" font-family="Helvetica,sans-Serif" font-size="10.00">View.Slogo.start</text>
</a>
</g>
</g>
<!-- Node4&#45;&gt;Node5 -->
<g id="edge4" class="edge"><title>Node4&#45;&gt;Node5</title>
<path fill="none" stroke="midnightblue" d="M758.142,-15C767.108,-15 776.051,-15 784.43,-15"/>
<polygon fill="midnightblue" stroke="midnightblue" points="758.038,-11.5001 748.038,-15 758.038,-18.5001 758.038,-11.5001"/>
</g>
</g>
</svg>
