<?xml version="1.0" encoding="UTF-8" standalone="no"?>
<!DOCTYPE svg PUBLIC "-//W3C//DTD SVG 1.1//EN"
 "http://www.w3.org/Graphics/SVG/1.1/DTD/svg11.dtd">
<!-- Generated by graphviz version 2.36.0 (20140111.2315)
 -->
<!-- Title: View.SlogoView.addUserFunctions Pages: 1 -->
<svg width="1058pt" height="38pt"
 viewBox="0.00 0.00 1058.00 38.00" xmlns="http://www.w3.org/2000/svg" xmlns:xlink="http://www.w3.org/1999/xlink">
<g id="graph0" class="graph" transform="scale(1 1) rotate(0) translate(4 34)">
<title>View.SlogoView.addUserFunctions</title>
<polygon fill="white" stroke="none" points="-4,4 -4,-34 1054,-34 1054,4 -4,4"/>
<!-- Node1 -->
<g id="node1" class="node"><title>Node1</title>
<polygon fill="#bfbfbf" stroke="black" points="0.5,-5.5 0.5,-24.5 177.5,-24.5 177.5,-5.5 0.5,-5.5"/>
<text text-anchor="middle" x="89" y="-12.5" font-family="Helvetica,sans-Serif" font-size="10.00">View.SlogoView.addUserFunctions</text>
</g>
<!-- Node2 -->
<g id="node2" class="node"><title>Node2</title>
<g id="a_node2"><a xlink:href="../../d9/d00/classcommunicator_1_1_main_controller.html#a93c06bf29d915465f289df78a653e44c" target="_top" xlink:title="communicator.MainController.send\lUserDefinedVariablesAndCommands">
<polygon fill="white" stroke="black" points="214,-0 214,-30 408,-30 408,-0 214,-0"/>
<text text-anchor="start" x="222" y="-18" font-family="Helvetica,sans-Serif" font-size="10.00">communicator.MainController.send</text>
<text text-anchor="middle" x="311" y="-7" font-family="Helvetica,sans-Serif" font-size="10.00">UserDefinedVariablesAndCommands</text>
</a>
</g>
</g>
<!-- Node1&#45;&gt;Node2 -->
<g id="edge1" class="edge"><title>Node1&#45;&gt;Node2</title>
<path fill="none" stroke="midnightblue" d="M187.664,-15C196.304,-15 205.047,-15 213.676,-15"/>
<polygon fill="midnightblue" stroke="midnightblue" points="187.582,-11.5001 177.582,-15 187.582,-18.5001 187.582,-11.5001"/>
</g>
<!-- Node3 -->
<g id="node3" class="node"><title>Node3</title>
<g id="a_node3"><a xlink:href="../../d9/d00/classcommunicator_1_1_main_controller.html#a93252865a008fed9217c345899e3869a" target="_top" xlink:title="communicator.MainController.execute\lCommand">
<polygon fill="white" stroke="black" points="444,-0 444,-30 642,-30 642,-0 444,-0"/>
<text text-anchor="start" x="452" y="-18" font-family="Helvetica,sans-Serif" font-size="10.00">communicator.MainController.execute</text>
<text text-anchor="middle" x="543" y="-7" font-family="Helvetica,sans-Serif" font-size="10.00">Command</text>
</a>
</g>
</g>
<!-- Node2&#45;&gt;Node3 -->
<g id="edge2" class="edge"><title>Node2&#45;&gt;Node3</title>
<path fill="none" stroke="midnightblue" d="M418.232,-15C426.806,-15 435.446,-15 443.959,-15"/>
<polygon fill="midnightblue" stroke="midnightblue" points="418.208,-11.5001 408.208,-15 418.208,-18.5001 418.208,-11.5001"/>
</g>
<!-- Node4 -->
<g id="node4" class="node"><title>Node4</title>
<g id="a_node4"><a xlink:href="../../d9/d00/classcommunicator_1_1_main_controller.html#af264c9f29730dceac2573645019a401a" target="_top" xlink:title="communicator.MainController.set\lTimers">
<polygon fill="white" stroke="black" points="678.5,-0 678.5,-30 853.5,-30 853.5,-0 678.5,-0"/>
<text text-anchor="start" x="686.5" y="-18" font-family="Helvetica,sans-Serif" font-size="10.00">communicator.MainController.set</text>
<text text-anchor="middle" x="766" y="-7" font-family="Helvetica,sans-Serif" font-size="10.00">Timers</text>
</a>
</g>
</g>
<!-- Node3&#45;&gt;Node4 -->
<g id="edge3" class="edge"><title>Node3&#45;&gt;Node4</title>
<path fill="none" stroke="midnightblue" d="M652.37,-15C661.034,-15 669.715,-15 678.2,-15"/>
<polygon fill="midnightblue" stroke="midnightblue" points="652.221,-11.5001 642.221,-15 652.221,-18.5001 652.221,-11.5001"/>
</g>
<!-- Node5 -->
<g id="node5" class="node"><title>Node5</title>
<g id="a_node5"><a xlink:href="../../d9/d00/classcommunicator_1_1_main_controller.html#aeeb4240e58af659d4b448cbfc3fbe76f" target="_top" xlink:title="communicator.MainController.\lMainController">
<polygon fill="white" stroke="black" points="890,-0 890,-30 1050,-30 1050,-0 890,-0"/>
<text text-anchor="start" x="898" y="-18" font-family="Helvetica,sans-Serif" font-size="10.00">communicator.MainController.</text>
<text text-anchor="middle" x="970" y="-7" font-family="Helvetica,sans-Serif" font-size="10.00">MainController</text>
</a>
</g>
</g>
<!-- Node4&#45;&gt;Node5 -->
<g id="edge4" class="edge"><title>Node4&#45;&gt;Node5</title>
<path fill="none" stroke="midnightblue" d="M863.806,-15C872.577,-15 881.39,-15 889.98,-15"/>
<polygon fill="midnightblue" stroke="midnightblue" points="863.545,-11.5001 853.545,-15 863.545,-18.5001 863.545,-11.5001"/>
</g>
</g>
</svg>
