<?xml version="1.0" encoding="UTF-8" standalone="no"?>
<!DOCTYPE svg PUBLIC "-//W3C//DTD SVG 1.1//EN"
 "http://www.w3.org/Graphics/SVG/1.1/DTD/svg11.dtd">
<!-- Generated by graphviz version 2.36.0 (20140111.2315)
 -->
<!-- Title: View.SlogoView.makeCommandButton Pages: 1 -->
<svg width="622pt" height="38pt"
 viewBox="0.00 0.00 622.00 38.00" xmlns="http://www.w3.org/2000/svg" xmlns:xlink="http://www.w3.org/1999/xlink">
<g id="graph0" class="graph" transform="scale(1 1) rotate(0) translate(4 34)">
<title>View.SlogoView.makeCommandButton</title>
<polygon fill="white" stroke="none" points="-4,4 -4,-34 618,-34 618,4 -4,4"/>
<!-- Node1 -->
<g id="node1" class="node"><title>Node1</title>
<polygon fill="#bfbfbf" stroke="black" points="0.5,-0 0.5,-30 169.5,-30 169.5,-0 0.5,-0"/>
<text text-anchor="start" x="8.5" y="-18" font-family="Helvetica,sans-Serif" font-size="10.00">View.SlogoView.makeCommand</text>
<text text-anchor="middle" x="85" y="-7" font-family="Helvetica,sans-Serif" font-size="10.00">Button</text>
</g>
<!-- Node2 -->
<g id="node2" class="node"><title>Node2</title>
<g id="a_node2"><a xlink:href="../../d6/d33/class_view_1_1_slogo_view.html#aaa1b5c8bf46a00ed935d768efcea28ef" target="_top" xlink:title="View.SlogoView.makeUserCommand">
<polygon fill="white" stroke="black" points="206.5,-5.5 206.5,-24.5 397.5,-24.5 397.5,-5.5 206.5,-5.5"/>
<text text-anchor="middle" x="302" y="-12.5" font-family="Helvetica,sans-Serif" font-size="10.00">View.SlogoView.makeUserCommand</text>
</a>
</g>
</g>
<!-- Node1&#45;&gt;Node2 -->
<g id="edge1" class="edge"><title>Node1&#45;&gt;Node2</title>
<path fill="none" stroke="midnightblue" d="M169.74,-15C178.478,-15 187.437,-15 196.369,-15"/>
<polygon fill="midnightblue" stroke="midnightblue" points="196.429,-18.5001 206.429,-15 196.429,-11.5001 196.429,-18.5001"/>
</g>
<!-- Node3 -->
<g id="node3" class="node"><title>Node3</title>
<g id="a_node3"><a xlink:href="../../d7/d52/class_view_1_1_menu_template.html#a36b57849adefaed2c993b566b36117fc" target="_top" xlink:title="View.MenuTemplate.addMenuItem">
<polygon fill="white" stroke="black" points="434.5,-5.5 434.5,-24.5 613.5,-24.5 613.5,-5.5 434.5,-5.5"/>
<text text-anchor="middle" x="524" y="-12.5" font-family="Helvetica,sans-Serif" font-size="10.00">View.MenuTemplate.addMenuItem</text>
</a>
</g>
</g>
<!-- Node2&#45;&gt;Node3 -->
<g id="edge2" class="edge"><title>Node2&#45;&gt;Node3</title>
<path fill="none" stroke="midnightblue" d="M397.577,-15C406.461,-15 415.483,-15 424.403,-15"/>
<polygon fill="midnightblue" stroke="midnightblue" points="424.419,-18.5001 434.419,-15 424.419,-11.5001 424.419,-18.5001"/>
</g>
</g>
</svg>
