<?xml version="1.0" encoding="UTF-8" standalone="no"?>
<!DOCTYPE svg PUBLIC "-//W3C//DTD SVG 1.1//EN"
 "http://www.w3.org/Graphics/SVG/1.1/DTD/svg11.dtd">
<!-- Generated by graphviz version 2.36.0 (20140111.2315)
 -->
<!-- Title: View.SlogoView.executeUserCommand Pages: 1 -->
<svg width="1210pt" height="141pt"
 viewBox="0.00 0.00 1210.00 141.00" xmlns="http://www.w3.org/2000/svg" xmlns:xlink="http://www.w3.org/1999/xlink">
<g id="graph0" class="graph" transform="scale(1 1) rotate(0) translate(4 137)">
<title>View.SlogoView.executeUserCommand</title>
<polygon fill="white" stroke="none" points="-4,4 -4,-137 1206,-137 1206,4 -4,4"/>
<!-- Node1 -->
<g id="node1" class="node"><title>Node1</title>
<polygon fill="#bfbfbf" stroke="black" points="0,-25 0,-55 152,-55 152,-25 0,-25"/>
<text text-anchor="start" x="8" y="-43" font-family="Helvetica,sans-Serif" font-size="10.00">View.SlogoView.executeUser</text>
<text text-anchor="middle" x="76" y="-32" font-family="Helvetica,sans-Serif" font-size="10.00">Command</text>
</g>
<!-- Node2 -->
<g id="node2" class="node"><title>Node2</title>
<g id="a_node2"><a xlink:href="../../d9/d00/classcommunicator_1_1_main_controller.html#a63543f74d98f650f2ee4026151189fa8" target="_top" xlink:title="communicator.MainController.receive\lCommand">
<polygon fill="white" stroke="black" points="390,-59 390,-89 584,-89 584,-59 390,-59"/>
<text text-anchor="start" x="398" y="-77" font-family="Helvetica,sans-Serif" font-size="10.00">communicator.MainController.receive</text>
<text text-anchor="middle" x="487" y="-66" font-family="Helvetica,sans-Serif" font-size="10.00">Command</text>
</a>
</g>
</g>
<!-- Node1&#45;&gt;Node2 -->
<g id="edge1" class="edge"><title>Node1&#45;&gt;Node2</title>
<path fill="none" stroke="midnightblue" d="M137.153,-55.0618C153.544,-58.6019 171.368,-61.9399 188,-64 251.244,-71.834 322.576,-74.4459 379.591,-75.0467"/>
<polygon fill="midnightblue" stroke="midnightblue" points="379.671,-78.5474 389.701,-75.1338 379.731,-71.5476 379.671,-78.5474"/>
</g>
<!-- Node9 -->
<g id="node9" class="node"><title>Node9</title>
<g id="a_node9"><a xlink:href="../../d6/d33/class_view_1_1_slogo_view.html#a1a67765bb114e471855080a9938049a7" target="_top" xlink:title="View.SlogoView.sendCommand\lAndMakeButton">
<polygon fill="white" stroke="black" points="188.5,-25 188.5,-55 353.5,-55 353.5,-25 188.5,-25"/>
<text text-anchor="start" x="196.5" y="-43" font-family="Helvetica,sans-Serif" font-size="10.00">View.SlogoView.sendCommand</text>
<text text-anchor="middle" x="271" y="-32" font-family="Helvetica,sans-Serif" font-size="10.00">AndMakeButton</text>
</a>
</g>
</g>
<!-- Node1&#45;&gt;Node9 -->
<g id="edge8" class="edge"><title>Node1&#45;&gt;Node9</title>
<path fill="none" stroke="midnightblue" d="M152.171,-40C160.692,-40 169.446,-40 178.149,-40"/>
<polygon fill="midnightblue" stroke="midnightblue" points="178.326,-43.5001 188.325,-40 178.325,-36.5001 178.326,-43.5001"/>
</g>
<!-- Node10 -->
<g id="node10" class="node"><title>Node10</title>
<g id="a_node10"><a xlink:href="../../d6/d33/class_view_1_1_slogo_view.html#ae43c4fa1c72ae66403b040613e9ba285" target="_top" xlink:title="View.SlogoView.updateCommand\lHistory">
<polygon fill="white" stroke="black" points="399,-0 399,-30 575,-30 575,-0 399,-0"/>
<text text-anchor="start" x="407" y="-18" font-family="Helvetica,sans-Serif" font-size="10.00">View.SlogoView.updateCommand</text>
<text text-anchor="middle" x="487" y="-7" font-family="Helvetica,sans-Serif" font-size="10.00">History</text>
</a>
</g>
</g>
<!-- Node1&#45;&gt;Node10 -->
<g id="edge11" class="edge"><title>Node1&#45;&gt;Node10</title>
<path fill="none" stroke="midnightblue" d="M132.49,-24.9706C150.1,-20.8853 169.742,-17.0307 188,-15 254.575,-7.59551 330.036,-7.6809 388.364,-9.57398"/>
<polygon fill="midnightblue" stroke="midnightblue" points="388.563,-13.083 398.679,-9.93328 388.807,-6.0872 388.563,-13.083"/>
</g>
<!-- Node3 -->
<g id="node3" class="node"><title>Node3</title>
<g id="a_node3"><a xlink:href="../../d9/d00/classcommunicator_1_1_main_controller.html#a65cd5059a843dc8261445e09403810fb" target="_top" xlink:title="communicator.MainController.report\lErrorToView">
<polygon fill="white" stroke="black" points="620.5,-103 620.5,-133 809.5,-133 809.5,-103 620.5,-103"/>
<text text-anchor="start" x="628.5" y="-121" font-family="Helvetica,sans-Serif" font-size="10.00">communicator.MainController.report</text>
<text text-anchor="middle" x="715" y="-110" font-family="Helvetica,sans-Serif" font-size="10.00">ErrorToView</text>
</a>
</g>
</g>
<!-- Node2&#45;&gt;Node3 -->
<g id="edge2" class="edge"><title>Node2&#45;&gt;Node3</title>
<path fill="none" stroke="midnightblue" d="M565.144,-89.0192C585.034,-92.8916 606.578,-97.086 626.935,-101.049"/>
<polygon fill="midnightblue" stroke="midnightblue" points="626.335,-104.498 636.82,-102.974 627.673,-97.6272 626.335,-104.498"/>
</g>
<!-- Node5 -->
<g id="node5" class="node"><title>Node5</title>
<g id="a_node5"><a xlink:href="../../d6/d33/class_view_1_1_slogo_view.html#a1a17d5b15c98f706f7ed91ca9d8e341c" target="_top" xlink:title="View.SlogoView.setDisable">
<polygon fill="white" stroke="black" points="644,-64.5 644,-83.5 786,-83.5 786,-64.5 644,-64.5"/>
<text text-anchor="middle" x="715" y="-71.5" font-family="Helvetica,sans-Serif" font-size="10.00">View.SlogoView.setDisable</text>
</a>
</g>
</g>
<!-- Node2&#45;&gt;Node5 -->
<g id="edge4" class="edge"><title>Node2&#45;&gt;Node5</title>
<path fill="none" stroke="midnightblue" d="M584.172,-74C600.63,-74 617.576,-74 633.569,-74"/>
<polygon fill="midnightblue" stroke="midnightblue" points="633.927,-77.5001 643.927,-74 633.927,-70.5001 633.927,-77.5001"/>
</g>
<!-- Node6 -->
<g id="node6" class="node"><title>Node6</title>
<g id="a_node6"><a xlink:href="../../d8/d54/classcommand_parser_1_1_language_file_parser.html#ae28bcd29168ebd799eed22a0661dc383" target="_top" xlink:title="commandParser.LanguageFile\lParser.translateUserInputIntoEnglish">
<polygon fill="white" stroke="black" points="620,-15 620,-45 810,-45 810,-15 620,-15"/>
<text text-anchor="start" x="628" y="-33" font-family="Helvetica,sans-Serif" font-size="10.00">commandParser.LanguageFile</text>
<text text-anchor="middle" x="715" y="-22" font-family="Helvetica,sans-Serif" font-size="10.00">Parser.translateUserInputIntoEnglish</text>
</a>
</g>
</g>
<!-- Node2&#45;&gt;Node6 -->
<g id="edge5" class="edge"><title>Node2&#45;&gt;Node6</title>
<path fill="none" stroke="midnightblue" d="M565.144,-58.9808C585.034,-55.1084 606.578,-50.914 626.935,-46.9508"/>
<polygon fill="midnightblue" stroke="midnightblue" points="627.673,-50.3728 636.82,-45.0262 626.335,-43.5018 627.673,-50.3728"/>
</g>
<!-- Node4 -->
<g id="node4" class="node"><title>Node4</title>
<g id="a_node4"><a xlink:href="../../d6/d33/class_view_1_1_slogo_view.html#abe7981d0dd5275d2a4fbce6444b0c6f9" target="_top" xlink:title="View.SlogoView.showError">
<polygon fill="white" stroke="black" points="856.5,-108.5 856.5,-127.5 995.5,-127.5 995.5,-108.5 856.5,-108.5"/>
<text text-anchor="middle" x="926" y="-115.5" font-family="Helvetica,sans-Serif" font-size="10.00">View.SlogoView.showError</text>
</a>
</g>
</g>
<!-- Node3&#45;&gt;Node4 -->
<g id="edge3" class="edge"><title>Node3&#45;&gt;Node4</title>
<path fill="none" stroke="midnightblue" d="M809.801,-118C821.887,-118 834.167,-118 845.983,-118"/>
<polygon fill="midnightblue" stroke="midnightblue" points="846.231,-121.5 856.231,-118 846.231,-114.5 846.231,-121.5"/>
</g>
<!-- Node7 -->
<g id="node7" class="node"><title>Node7</title>
<g id="a_node7"><a xlink:href="../../d8/d54/classcommand_parser_1_1_language_file_parser.html#ae72a7da2ee20fd99c35ef282d1b455d5" target="_top" xlink:title="commandParser.LanguageFile\lParser.translateCommand">
<polygon fill="white" stroke="black" points="846,-15 846,-45 1006,-45 1006,-15 846,-15"/>
<text text-anchor="start" x="854" y="-33" font-family="Helvetica,sans-Serif" font-size="10.00">commandParser.LanguageFile</text>
<text text-anchor="middle" x="926" y="-22" font-family="Helvetica,sans-Serif" font-size="10.00">Parser.translateCommand</text>
</a>
</g>
</g>
<!-- Node6&#45;&gt;Node7 -->
<g id="edge6" class="edge"><title>Node6&#45;&gt;Node7</title>
<path fill="none" stroke="midnightblue" d="M810.106,-30C818.579,-30 827.144,-30 835.576,-30"/>
<polygon fill="midnightblue" stroke="midnightblue" points="835.779,-33.5001 845.779,-30 835.779,-26.5001 835.779,-33.5001"/>
</g>
<!-- Node8 -->
<g id="node8" class="node"><title>Node8</title>
<g id="a_node8"><a xlink:href="../../d8/d54/classcommand_parser_1_1_language_file_parser.html#abe53661bbe3e228951f62d97bddc5eb1" target="_top" xlink:title="commandParser.LanguageFile\lParser.translateByRegex">
<polygon fill="white" stroke="black" points="1042,-15 1042,-45 1202,-45 1202,-15 1042,-15"/>
<text text-anchor="start" x="1050" y="-33" font-family="Helvetica,sans-Serif" font-size="10.00">commandParser.LanguageFile</text>
<text text-anchor="middle" x="1122" y="-22" font-family="Helvetica,sans-Serif" font-size="10.00">Parser.translateByRegex</text>
</a>
</g>
</g>
<!-- Node7&#45;&gt;Node8 -->
<g id="edge7" class="edge"><title>Node7&#45;&gt;Node8</title>
<path fill="none" stroke="midnightblue" d="M1006.19,-30C1014.53,-30 1023.05,-30 1031.5,-30"/>
<polygon fill="midnightblue" stroke="midnightblue" points="1031.75,-33.5001 1041.75,-30 1031.75,-26.5001 1031.75,-33.5001"/>
</g>
<!-- Node9&#45;&gt;Node2 -->
<g id="edge9" class="edge"><title>Node9&#45;&gt;Node2</title>
<path fill="none" stroke="midnightblue" d="M353.515,-52.9509C362.623,-54.398 371.992,-55.8866 381.338,-57.3715"/>
<polygon fill="midnightblue" stroke="midnightblue" points="381.031,-60.8665 391.456,-58.979 382.129,-53.9532 381.031,-60.8665"/>
</g>
<!-- Node9&#45;&gt;Node10 -->
<g id="edge10" class="edge"><title>Node9&#45;&gt;Node10</title>
<path fill="none" stroke="midnightblue" d="M353.515,-30.4773C364.934,-29.1432 376.765,-27.7611 388.445,-26.3967"/>
<polygon fill="midnightblue" stroke="midnightblue" points="389.129,-29.8406 398.655,-25.2038 388.317,-22.8879 389.129,-29.8406"/>
</g>
</g>
</svg>
