<?xml version="1.0" encoding="UTF-8" standalone="no"?>
<!DOCTYPE svg PUBLIC "-//W3C//DTD SVG 1.1//EN"
 "http://www.w3.org/Graphics/SVG/1.1/DTD/svg11.dtd">
<!-- Generated by graphviz version 2.36.0 (20140111.2315)
 -->
<!-- Title: View.SlogoView.createfileMenu Pages: 1 -->
<svg width="386pt" height="115pt"
 viewBox="0.00 0.00 386.00 115.00" xmlns="http://www.w3.org/2000/svg" xmlns:xlink="http://www.w3.org/1999/xlink">
<g id="graph0" class="graph" transform="scale(1 1) rotate(0) translate(4 111)">
<title>View.SlogoView.createfileMenu</title>
<polygon fill="white" stroke="none" points="-4,4 -4,-111 382,-111 382,4 -4,4"/>
<!-- Node1 -->
<g id="node1" class="node"><title>Node1</title>
<polygon fill="#bfbfbf" stroke="black" points="0,-49.5 0,-68.5 162,-68.5 162,-49.5 0,-49.5"/>
<text text-anchor="middle" x="81" y="-56.5" font-family="Helvetica,sans-Serif" font-size="10.00">View.SlogoView.createfileMenu</text>
</g>
<!-- Node2 -->
<g id="node2" class="node"><title>Node2</title>
<g id="a_node2"><a xlink:href="../../d7/d52/class_view_1_1_menu_template.html#a36b57849adefaed2c993b566b36117fc" target="_top" xlink:title="View.MenuTemplate.addMenuItem">
<polygon fill="white" stroke="black" points="198.5,-87.5 198.5,-106.5 377.5,-106.5 377.5,-87.5 198.5,-87.5"/>
<text text-anchor="middle" x="288" y="-94.5" font-family="Helvetica,sans-Serif" font-size="10.00">View.MenuTemplate.addMenuItem</text>
</a>
</g>
</g>
<!-- Node1&#45;&gt;Node2 -->
<g id="edge1" class="edge"><title>Node1&#45;&gt;Node2</title>
<path fill="none" stroke="midnightblue" d="M133.466,-68.54C161.368,-73.7122 196.045,-80.1401 225.38,-85.5778"/>
<polygon fill="midnightblue" stroke="midnightblue" points="225.043,-89.0748 235.513,-87.4561 226.319,-82.1921 225.043,-89.0748"/>
</g>
<!-- Node3 -->
<g id="node3" class="node"><title>Node3</title>
<g id="a_node3"><a xlink:href="../../d6/d33/class_view_1_1_slogo_view.html#aa2d332f7f13c1e73d0d08f90eda894fc" target="_top" xlink:title="View.SlogoView.saveFile">
<polygon fill="white" stroke="black" points="223.5,-49.5 223.5,-68.5 352.5,-68.5 352.5,-49.5 223.5,-49.5"/>
<text text-anchor="middle" x="288" y="-56.5" font-family="Helvetica,sans-Serif" font-size="10.00">View.SlogoView.saveFile</text>
</a>
</g>
</g>
<!-- Node1&#45;&gt;Node3 -->
<g id="edge2" class="edge"><title>Node1&#45;&gt;Node3</title>
<path fill="none" stroke="midnightblue" d="M162.139,-59C178.972,-59 196.65,-59 213.236,-59"/>
<polygon fill="midnightblue" stroke="midnightblue" points="213.404,-62.5001 223.404,-59 213.404,-55.5001 213.404,-62.5001"/>
</g>
<!-- Node4 -->
<g id="node4" class="node"><title>Node4</title>
<g id="a_node4"><a xlink:href="../../d0/dec/class_g_u_i_functions_1_1_ask_for_initial_file.html#a3494792f1fb4a3e7c698a3e98e896ae6" target="_top" xlink:title="GUIFunctions.AskForInitial\lFile.sendFile">
<polygon fill="white" stroke="black" points="218.5,-0 218.5,-30 357.5,-30 357.5,-0 218.5,-0"/>
<text text-anchor="start" x="226.5" y="-18" font-family="Helvetica,sans-Serif" font-size="10.00">GUIFunctions.AskForInitial</text>
<text text-anchor="middle" x="288" y="-7" font-family="Helvetica,sans-Serif" font-size="10.00">File.sendFile</text>
</a>
</g>
</g>
<!-- Node1&#45;&gt;Node4 -->
<g id="edge3" class="edge"><title>Node1&#45;&gt;Node4</title>
<path fill="none" stroke="midnightblue" d="M126.482,-49.4527C150.394,-44.3203 180.588,-37.8397 208.319,-31.8876"/>
<polygon fill="midnightblue" stroke="midnightblue" points="209.366,-35.2428 218.408,-29.7221 207.897,-28.3987 209.366,-35.2428"/>
</g>
</g>
</svg>
