<?xml version="1.0" encoding="UTF-8" standalone="no"?>
<!DOCTYPE svg PUBLIC "-//W3C//DTD SVG 1.1//EN"
 "http://www.w3.org/Graphics/SVG/1.1/DTD/svg11.dtd">
<!-- Generated by graphviz version 2.36.0 (20140111.2315)
 -->
<!-- Title: View.SlogoView.makeMenu Pages: 1 -->
<svg width="638pt" height="28pt"
 viewBox="0.00 0.00 638.00 28.00" xmlns="http://www.w3.org/2000/svg" xmlns:xlink="http://www.w3.org/1999/xlink">
<g id="graph0" class="graph" transform="scale(1 1) rotate(0) translate(4 24)">
<title>View.SlogoView.makeMenu</title>
<polygon fill="white" stroke="none" points="-4,4 -4,-24 634,-24 634,4 -4,4"/>
<!-- Node1 -->
<g id="node1" class="node"><title>Node1</title>
<polygon fill="#bfbfbf" stroke="black" points="0.5,-0.5 0.5,-19.5 145.5,-19.5 145.5,-0.5 0.5,-0.5"/>
<text text-anchor="middle" x="73" y="-7.5" font-family="Helvetica,sans-Serif" font-size="10.00">View.SlogoView.makeMenu</text>
</g>
<!-- Node2 -->
<g id="node2" class="node"><title>Node2</title>
<g id="a_node2"><a xlink:href="../../d6/d33/class_view_1_1_slogo_view.html#a7c84b547efa8603bbd40e36795873355" target="_top" xlink:title="View.SlogoView.addMenuBar">
<polygon fill="white" stroke="black" points="182,-0.5 182,-19.5 334,-19.5 334,-0.5 182,-0.5"/>
<text text-anchor="middle" x="258" y="-7.5" font-family="Helvetica,sans-Serif" font-size="10.00">View.SlogoView.addMenuBar</text>
</a>
</g>
</g>
<!-- Node1&#45;&gt;Node2 -->
<g id="edge1" class="edge"><title>Node1&#45;&gt;Node2</title>
<path fill="none" stroke="midnightblue" d="M155.698,-10C164.415,-10 173.253,-10 181.889,-10"/>
<polygon fill="midnightblue" stroke="midnightblue" points="155.539,-6.5001 145.539,-10 155.539,-13.5001 155.539,-6.5001"/>
</g>
<!-- Node3 -->
<g id="node3" class="node"><title>Node3</title>
<g id="a_node3"><a xlink:href="../../d6/d33/class_view_1_1_slogo_view.html#acfeff052503655d2ac419d2bf4ea9bd5" target="_top" xlink:title="View.SlogoView.initialize">
<polygon fill="white" stroke="black" points="370,-0.5 370,-19.5 500,-19.5 500,-0.5 370,-0.5"/>
<text text-anchor="middle" x="435" y="-7.5" font-family="Helvetica,sans-Serif" font-size="10.00">View.SlogoView.initialize</text>
</a>
</g>
</g>
<!-- Node2&#45;&gt;Node3 -->
<g id="edge2" class="edge"><title>Node2&#45;&gt;Node3</title>
<path fill="none" stroke="midnightblue" d="M344.289,-10C352.885,-10 361.509,-10 369.83,-10"/>
<polygon fill="midnightblue" stroke="midnightblue" points="344.231,-6.5001 334.231,-10 344.231,-13.5001 344.231,-6.5001"/>
</g>
<!-- Node4 -->
<g id="node4" class="node"><title>Node4</title>
<g id="a_node4"><a xlink:href="../../db/d27/class_view_1_1_slogo.html#a6ab76a53160b61d8501aec91c55b85c8" target="_top" xlink:title="View.Slogo.start">
<polygon fill="white" stroke="black" points="536.5,-0.5 536.5,-19.5 629.5,-19.5 629.5,-0.5 536.5,-0.5"/>
<text text-anchor="middle" x="583" y="-7.5" font-family="Helvetica,sans-Serif" font-size="10.00">View.Slogo.start</text>
</a>
</g>
</g>
<!-- Node3&#45;&gt;Node4 -->
<g id="edge3" class="edge"><title>Node3&#45;&gt;Node4</title>
<path fill="none" stroke="midnightblue" d="M510.142,-10C519.108,-10 528.051,-10 536.43,-10"/>
<polygon fill="midnightblue" stroke="midnightblue" points="510.038,-6.5001 500.038,-10 510.038,-13.5001 510.038,-6.5001"/>
</g>
</g>
</svg>
