<?xml version="1.0" encoding="UTF-8" standalone="no"?>
<!DOCTYPE svg PUBLIC "-//W3C//DTD SVG 1.1//EN"
 "http://www.w3.org/Graphics/SVG/1.1/DTD/svg11.dtd">
<!-- Generated by graphviz version 2.36.0 (20140111.2315)
 -->
<!-- Title: View.SlogoView.showError Pages: 1 -->
<!--zoomable 417 -->
<svg id="main" version="1.1" xmlns="http://www.w3.org/2000/svg" xmlns:xlink="http://www.w3.org/1999/xlink" xml:space="preserve" onload="init(evt)">
<style type="text/css"><![CDATA[
.edge:hover path { stroke: red; }
.edge:hover polygon { stroke: red; fill: red; }
]]></style>
<script type="text/javascript"><![CDATA[
var edges = document.getElementsByTagName('g');
if (edges && edges.length) {
  for (var i=0;i<edges.length;i++) {
    if (edges[i].id.substr(0,4)=='edge') {
      edges[i].setAttribute('class','edge');
    }
  }
}
]]></script>
        <defs>
                <circle id="rim" cx="0" cy="0" r="7"/>
                <circle id="rim2" cx="0" cy="0" r="3.5"/>
                <g id="zoomPlus">
                        <use xlink:href="#rim" fill="#404040">
                                <set attributeName="fill" to="#808080" begin="zoomplus.mouseover" end="zoomplus.mouseout"/>
                        </use>
                        <path d="M-4,0h8M0,-4v8" fill="none" stroke="white" stroke-width="1.5" pointer-events="none"/>
                </g>
                <g id="zoomMin">
                        <use xlink:href="#rim" fill="#404040">
                                <set attributeName="fill" to="#808080" begin="zoomminus.mouseover" end="zoomminus.mouseout"/>
                        </use>
                        <path d="M-4,0h8" fill="none" stroke="white" stroke-width="1.5" pointer-events="none"/>
                </g>
                <g id="dirArrow">
                        <path fill="none" stroke="white" stroke-width="1.5" d="M0,-3.0v7 M-2.5,-0.5L0,-3.0L2.5,-0.5"/>
                </g>
               <g id="resetDef">
                       <use xlink:href="#rim2" fill="#404040">
                               <set attributeName="fill" to="#808080" begin="reset.mouseover" end="reset.mouseout"/>
                       </use>
               </g>
        </defs>

<script type="text/javascript">
var viewWidth = 1542;
var viewHeight = 417;
var sectionId = 'dynsection-49';
</script>
<script xlink:href="../../svgpan.js"/>
<svg id="graph" class="graph">
<g id="viewport">
<title>View.SlogoView.showError</title>
<polygon fill="white" stroke="none" points="-4,4 -4,-413.329 1538,-413.329 1538,4 -4,4"/>
<!-- Node1 -->
<g id="node1" class="node"><title>Node1</title>
<polygon fill="#bfbfbf" stroke="black" points="0.5,-248.5 0.5,-267.5 139.5,-267.5 139.5,-248.5 0.5,-248.5"/>
<text text-anchor="middle" x="70" y="-255.5" font-family="Helvetica,sans-Serif" font-size="10.00">View.SlogoView.showError</text>
</g>
<!-- Node2 -->
<g id="node2" class="node"><title>Node2</title>
<g id="a_node2"><a xlink:href="../../d9/d00/classcommunicator_1_1_main_controller.html#a65cd5059a843dc8261445e09403810fb" target="_top" xlink:title="communicator.MainController.report\lErrorToView">
<polygon fill="white" stroke="black" points="176.5,-243 176.5,-273 365.5,-273 365.5,-243 176.5,-243"/>
<text text-anchor="start" x="184.5" y="-261" font-family="Helvetica,sans-Serif" font-size="10.00">communicator.MainController.report</text>
<text text-anchor="middle" x="271" y="-250" font-family="Helvetica,sans-Serif" font-size="10.00">ErrorToView</text>
</a>
</g>
</g>
<!-- Node1&#45;&gt;Node2 -->
<g id="edge1" class="edge"><title>Node1&#45;&gt;Node2</title>
<path fill="none" stroke="midnightblue" d="M149.851,-258C158.545,-258 167.458,-258 176.311,-258"/>
<polygon fill="midnightblue" stroke="midnightblue" points="149.763,-254.5 139.763,-258 149.763,-261.5 149.763,-254.5"/>
</g>
<!-- Node3 -->
<g id="node3" class="node"><title>Node3</title>
<g id="a_node3"><a xlink:href="../../d9/d00/classcommunicator_1_1_main_controller.html#a93252865a008fed9217c345899e3869a" target="_top" xlink:title="communicator.MainController.execute\lCommand">
<polygon fill="white" stroke="black" points="632,-333 632,-363 830,-363 830,-333 632,-333"/>
<text text-anchor="start" x="640" y="-351" font-family="Helvetica,sans-Serif" font-size="10.00">communicator.MainController.execute</text>
<text text-anchor="middle" x="731" y="-340" font-family="Helvetica,sans-Serif" font-size="10.00">Command</text>
</a>
</g>
</g>
<!-- Node2&#45;&gt;Node3 -->
<g id="edge2" class="edge"><title>Node2&#45;&gt;Node3</title>
<path fill="none" stroke="midnightblue" d="M293.317,-280.381C317.211,-303.69 358.359,-338.754 402,-353 484.562,-379.952 585.154,-373.019 652.997,-363.008"/>
<polygon fill="midnightblue" stroke="midnightblue" points="295.736,-277.85 286.184,-273.267 290.793,-282.807 295.736,-277.85"/>
</g>
<!-- Node4 -->
<g id="node4" class="node"><title>Node4</title>
<g id="a_node4"><a xlink:href="../../d9/d00/classcommunicator_1_1_main_controller.html#af264c9f29730dceac2573645019a401a" target="_top" xlink:title="communicator.MainController.set\lTimers">
<polygon fill="white" stroke="black" points="866.5,-333 866.5,-363 1041.5,-363 1041.5,-333 866.5,-333"/>
<text text-anchor="start" x="874.5" y="-351" font-family="Helvetica,sans-Serif" font-size="10.00">communicator.MainController.set</text>
<text text-anchor="middle" x="954" y="-340" font-family="Helvetica,sans-Serif" font-size="10.00">Timers</text>
</a>
</g>
</g>
<!-- Node2&#45;&gt;Node4 -->
<g id="edge22" class="edge"><title>Node2&#45;&gt;Node4</title>
<path fill="none" stroke="midnightblue" d="M288.935,-281.583C311.13,-310.237 353.04,-357.093 402,-376 577.13,-443.63 807.078,-391.288 905.246,-363.038"/>
<polygon fill="midnightblue" stroke="midnightblue" points="291.516,-279.193 282.694,-273.325 285.932,-283.413 291.516,-279.193"/>
</g>
<!-- Node5 -->
<g id="node5" class="node"><title>Node5</title>
<g id="a_node5"><a xlink:href="../../d9/d00/classcommunicator_1_1_main_controller.html#aeeb4240e58af659d4b448cbfc3fbe76f" target="_top" xlink:title="communicator.MainController.\lMainController">
<polygon fill="white" stroke="black" points="1078,-277 1078,-307 1238,-307 1238,-277 1078,-277"/>
<text text-anchor="start" x="1086" y="-295" font-family="Helvetica,sans-Serif" font-size="10.00">communicator.MainController.</text>
<text text-anchor="middle" x="1158" y="-284" font-family="Helvetica,sans-Serif" font-size="10.00">MainController</text>
</a>
</g>
</g>
<!-- Node2&#45;&gt;Node5 -->
<g id="edge8" class="edge"><title>Node2&#45;&gt;Node5</title>
<path fill="none" stroke="midnightblue" d="M375.75,-255.391C384.628,-255.233 393.471,-255.098 402,-255 488.216,-254.005 509.825,-252.161 596,-255 767.94,-260.664 969.041,-276.067 1077.65,-285.114"/>
<polygon fill="midnightblue" stroke="midnightblue" points="375.658,-251.892 365.726,-255.579 375.789,-258.891 375.658,-251.892"/>
</g>
<!-- Node6 -->
<g id="node6" class="node"><title>Node6</title>
<g id="a_node6"><a xlink:href="../../d9/d00/classcommunicator_1_1_main_controller.html#a0bba9c29f17d2fefc61a1d608c273b27" target="_top" xlink:title="communicator.MainController.load\lLanguage">
<polygon fill="white" stroke="black" points="409,-265 409,-295 589,-295 589,-265 409,-265"/>
<text text-anchor="start" x="417" y="-283" font-family="Helvetica,sans-Serif" font-size="10.00">communicator.MainController.load</text>
<text text-anchor="middle" x="499" y="-272" font-family="Helvetica,sans-Serif" font-size="10.00">Language</text>
</a>
</g>
</g>
<!-- Node2&#45;&gt;Node6 -->
<g id="edge5" class="edge"><title>Node2&#45;&gt;Node6</title>
<path fill="none" stroke="midnightblue" d="M375.688,-268.094C386.773,-269.173 397.978,-270.263 408.873,-271.324"/>
<polygon fill="midnightblue" stroke="midnightblue" points="375.846,-264.592 365.554,-267.107 375.168,-271.56 375.846,-264.592"/>
</g>
<!-- Node7 -->
<g id="node7" class="node"><title>Node7</title>
<g id="a_node7"><a xlink:href="../../d9/d00/classcommunicator_1_1_main_controller.html#a687d62c9fabb703033a144bf30437415" target="_top" xlink:title="communicator.MainController.load\lPreferences">
<polygon fill="white" stroke="black" points="409,-177 409,-207 589,-207 589,-177 409,-177"/>
<text text-anchor="start" x="417" y="-195" font-family="Helvetica,sans-Serif" font-size="10.00">communicator.MainController.load</text>
<text text-anchor="middle" x="499" y="-184" font-family="Helvetica,sans-Serif" font-size="10.00">Preferences</text>
</a>
</g>
</g>
<!-- Node2&#45;&gt;Node7 -->
<g id="edge6" class="edge"><title>Node2&#45;&gt;Node7</title>
<path fill="none" stroke="midnightblue" d="M333.297,-240.099C368.666,-229.77 412.649,-216.925 446.265,-207.108"/>
<polygon fill="midnightblue" stroke="midnightblue" points="332.184,-236.778 323.566,-242.941 334.146,-243.497 332.184,-236.778"/>
</g>
<!-- Node9 -->
<g id="node9" class="node"><title>Node9</title>
<g id="a_node9"><a xlink:href="../../d9/d00/classcommunicator_1_1_main_controller.html#a63543f74d98f650f2ee4026151189fa8" target="_top" xlink:title="communicator.MainController.receive\lCommand">
<polygon fill="white" stroke="black" points="402,-128 402,-158 596,-158 596,-128 402,-128"/>
<text text-anchor="start" x="410" y="-146" font-family="Helvetica,sans-Serif" font-size="10.00">communicator.MainController.receive</text>
<text text-anchor="middle" x="499" y="-135" font-family="Helvetica,sans-Serif" font-size="10.00">Command</text>
</a>
</g>
</g>
<!-- Node2&#45;&gt;Node9 -->
<g id="edge9" class="edge"><title>Node2&#45;&gt;Node9</title>
<path fill="none" stroke="midnightblue" d="M297.096,-236.192C322.094,-215.54 362.364,-185.075 402,-167 409.503,-163.579 417.567,-160.596 425.719,-158.009"/>
<polygon fill="midnightblue" stroke="midnightblue" points="294.642,-233.682 289.227,-242.788 299.139,-239.047 294.642,-233.682"/>
</g>
<!-- Node16 -->
<g id="node16" class="node"><title>Node16</title>
<g id="a_node16"><a xlink:href="../../d9/d00/classcommunicator_1_1_main_controller.html#a050d887bccb0ef44c52984470e329bc6" target="_top" xlink:title="communicator.MainController.save\lPreferences">
<polygon fill="white" stroke="black" points="408,-49 408,-79 590,-79 590,-49 408,-49"/>
<text text-anchor="start" x="416" y="-67" font-family="Helvetica,sans-Serif" font-size="10.00">communicator.MainController.save</text>
<text text-anchor="middle" x="499" y="-56" font-family="Helvetica,sans-Serif" font-size="10.00">Preferences</text>
</a>
</g>
</g>
<!-- Node2&#45;&gt;Node16 -->
<g id="edge17" class="edge"><title>Node2&#45;&gt;Node16</title>
<path fill="none" stroke="midnightblue" d="M289.951,-234.557C313.442,-204.923 356.949,-153.502 402,-118 421.525,-102.613 445.976,-88.9287 465.315,-79.1851"/>
<polygon fill="midnightblue" stroke="midnightblue" points="287.014,-232.631 283.597,-242.66 292.522,-236.95 287.014,-232.631"/>
</g>
<!-- Node19 -->
<g id="node19" class="node"><title>Node19</title>
<g id="a_node19"><a xlink:href="../../d9/d00/classcommunicator_1_1_main_controller.html#a93c06bf29d915465f289df78a653e44c" target="_top" xlink:title="communicator.MainController.send\lUserDefinedVariablesAndCommands">
<polygon fill="white" stroke="black" points="402,-314 402,-344 596,-344 596,-314 402,-314"/>
<text text-anchor="start" x="410" y="-332" font-family="Helvetica,sans-Serif" font-size="10.00">communicator.MainController.send</text>
<text text-anchor="middle" x="499" y="-321" font-family="Helvetica,sans-Serif" font-size="10.00">UserDefinedVariablesAndCommands</text>
</a>
</g>
</g>
<!-- Node2&#45;&gt;Node19 -->
<g id="edge20" class="edge"><title>Node2&#45;&gt;Node19</title>
<path fill="none" stroke="midnightblue" d="M321.466,-276.622C345.595,-285.418 375.143,-295.768 402,-304 413.279,-307.457 425.396,-310.854 437.094,-313.976"/>
<polygon fill="midnightblue" stroke="midnightblue" points="322.416,-273.243 311.822,-273.084 320.005,-279.814 322.416,-273.243"/>
</g>
<!-- Node3&#45;&gt;Node4 -->
<g id="edge3" class="edge"><title>Node3&#45;&gt;Node4</title>
<path fill="none" stroke="midnightblue" d="M840.37,-348C849.034,-348 857.715,-348 866.2,-348"/>
<polygon fill="midnightblue" stroke="midnightblue" points="840.221,-344.5 830.221,-348 840.221,-351.5 840.221,-344.5"/>
</g>
<!-- Node4&#45;&gt;Node5 -->
<g id="edge4" class="edge"><title>Node4&#45;&gt;Node5</title>
<path fill="none" stroke="midnightblue" d="M1018.86,-330.296C1045.82,-322.821 1076.89,-314.21 1102.72,-307.048"/>
<polygon fill="midnightblue" stroke="midnightblue" points="1017.83,-326.949 1009.13,-332.993 1019.7,-333.694 1017.83,-326.949"/>
</g>
<!-- Node8 -->
<g id="node8" class="node"><title>Node8</title>
<g id="a_node8"><a xlink:href="../../d6/d33/class_view_1_1_slogo_view.html#a5ab3ee32bfffc50d2049cc7fcca65709" target="_top" xlink:title="View.SlogoView.checkNullFile">
<polygon fill="white" stroke="black" points="655,-185.5 655,-204.5 807,-204.5 807,-185.5 655,-185.5"/>
<text text-anchor="middle" x="731" y="-192.5" font-family="Helvetica,sans-Serif" font-size="10.00">View.SlogoView.checkNullFile</text>
</a>
</g>
</g>
<!-- Node7&#45;&gt;Node8 -->
<g id="edge7" class="edge"><title>Node7&#45;&gt;Node8</title>
<path fill="none" stroke="midnightblue" d="M599.258,-193.295C617.936,-193.538 637.179,-193.789 654.965,-194.021"/>
<polygon fill="midnightblue" stroke="midnightblue" points="599.298,-189.795 589.253,-193.164 599.207,-196.794 599.298,-189.795"/>
</g>
<!-- Node10 -->
<g id="node10" class="node"><title>Node10</title>
<g id="a_node10"><a xlink:href="../../d6/d33/class_view_1_1_slogo_view.html#acaa2b33418cebb60111d0acfef03e832" target="_top" xlink:title="View.SlogoView.executeUser\lCommand">
<polygon fill="white" stroke="black" points="878,-142 878,-172 1030,-172 1030,-142 878,-142"/>
<text text-anchor="start" x="886" y="-160" font-family="Helvetica,sans-Serif" font-size="10.00">View.SlogoView.executeUser</text>
<text text-anchor="middle" x="954" y="-149" font-family="Helvetica,sans-Serif" font-size="10.00">Command</text>
</a>
</g>
</g>
<!-- Node9&#45;&gt;Node10 -->
<g id="edge10" class="edge"><title>Node9&#45;&gt;Node10</title>
<path fill="none" stroke="midnightblue" d="M606.077,-146.278C689.423,-148.854 803.443,-152.378 877.648,-154.671"/>
<polygon fill="midnightblue" stroke="midnightblue" points="606.173,-142.78 596.07,-145.969 605.957,-149.776 606.173,-142.78"/>
</g>
<!-- Node11 -->
<g id="node11" class="node"><title>Node11</title>
<g id="a_node11"><a xlink:href="../../d6/d33/class_view_1_1_slogo_view.html#a1a67765bb114e471855080a9938049a7" target="_top" xlink:title="View.SlogoView.sendCommand\lAndMakeButton">
<polygon fill="white" stroke="black" points="648.5,-98 648.5,-128 813.5,-128 813.5,-98 648.5,-98"/>
<text text-anchor="start" x="656.5" y="-116" font-family="Helvetica,sans-Serif" font-size="10.00">View.SlogoView.sendCommand</text>
<text text-anchor="middle" x="731" y="-105" font-family="Helvetica,sans-Serif" font-size="10.00">AndMakeButton</text>
</a>
</g>
</g>
<!-- Node9&#45;&gt;Node11 -->
<g id="edge11" class="edge"><title>Node9&#45;&gt;Node11</title>
<path fill="none" stroke="midnightblue" d="M606.433,-129.117C620.534,-127.278 634.808,-125.416 648.4,-123.644"/>
<polygon fill="midnightblue" stroke="midnightblue" points="605.671,-125.687 596.208,-130.451 606.577,-132.628 605.671,-125.687"/>
</g>
<!-- Node11&#45;&gt;Node10 -->
<g id="edge16" class="edge"><title>Node11&#45;&gt;Node10</title>
<path fill="none" stroke="midnightblue" d="M817.43,-130.009C837.367,-133.978 858.453,-138.176 877.902,-142.048"/>
<polygon fill="midnightblue" stroke="midnightblue" points="817.929,-126.539 807.438,-128.019 816.562,-133.405 817.929,-126.539"/>
</g>
<!-- Node12 -->
<g id="node12" class="node"><title>Node12</title>
<g id="a_node12"><a xlink:href="../../d6/d33/class_view_1_1_slogo_view.html#a468acf266470c356f2f36e7eb2f327e8" target="_top" xlink:title="View.SlogoView.createCommand\lLineWithLabel">
<polygon fill="white" stroke="black" points="867.5,-93 867.5,-123 1040.5,-123 1040.5,-93 867.5,-93"/>
<text text-anchor="start" x="875.5" y="-111" font-family="Helvetica,sans-Serif" font-size="10.00">View.SlogoView.createCommand</text>
<text text-anchor="middle" x="954" y="-100" font-family="Helvetica,sans-Serif" font-size="10.00">LineWithLabel</text>
</a>
</g>
</g>
<!-- Node11&#45;&gt;Node12 -->
<g id="edge12" class="edge"><title>Node11&#45;&gt;Node12</title>
<path fill="none" stroke="midnightblue" d="M823.999,-110.919C838.314,-110.595 853.057,-110.261 867.227,-109.941"/>
<polygon fill="midnightblue" stroke="midnightblue" points="823.583,-107.427 813.664,-111.152 823.741,-114.425 823.583,-107.427"/>
</g>
<!-- Node13 -->
<g id="node13" class="node"><title>Node13</title>
<g id="a_node13"><a xlink:href="../../d6/d33/class_view_1_1_slogo_view.html#ac64a43649ed5417854c37ec25320e925" target="_top" xlink:title="View.SlogoView.setTextArea">
<polygon fill="white" stroke="black" points="1084,-98.5 1084,-117.5 1232,-117.5 1232,-98.5 1084,-98.5"/>
<text text-anchor="middle" x="1158" y="-105.5" font-family="Helvetica,sans-Serif" font-size="10.00">View.SlogoView.setTextArea</text>
</a>
</g>
</g>
<!-- Node12&#45;&gt;Node13 -->
<g id="edge13" class="edge"><title>Node12&#45;&gt;Node13</title>
<path fill="none" stroke="midnightblue" d="M1050.85,-108C1061.99,-108 1073.2,-108 1083.96,-108"/>
<polygon fill="midnightblue" stroke="midnightblue" points="1050.67,-104.5 1040.67,-108 1050.67,-111.5 1050.67,-104.5"/>
</g>
<!-- Node14 -->
<g id="node14" class="node"><title>Node14</title>
<g id="a_node14"><a xlink:href="../../d6/d33/class_view_1_1_slogo_view.html#acfeff052503655d2ac419d2bf4ea9bd5" target="_top" xlink:title="View.SlogoView.initialize">
<polygon fill="white" stroke="black" points="1274,-98.5 1274,-117.5 1404,-117.5 1404,-98.5 1274,-98.5"/>
<text text-anchor="middle" x="1339" y="-105.5" font-family="Helvetica,sans-Serif" font-size="10.00">View.SlogoView.initialize</text>
</a>
</g>
</g>
<!-- Node13&#45;&gt;Node14 -->
<g id="edge14" class="edge"><title>Node13&#45;&gt;Node14</title>
<path fill="none" stroke="midnightblue" d="M1242.18,-108C1252.8,-108 1263.53,-108 1273.78,-108"/>
<polygon fill="midnightblue" stroke="midnightblue" points="1242.06,-104.5 1232.06,-108 1242.06,-111.5 1242.06,-104.5"/>
</g>
<!-- Node15 -->
<g id="node15" class="node"><title>Node15</title>
<g id="a_node15"><a xlink:href="../../db/d27/class_view_1_1_slogo.html#a6ab76a53160b61d8501aec91c55b85c8" target="_top" xlink:title="View.Slogo.start">
<polygon fill="white" stroke="black" points="1440.5,-98.5 1440.5,-117.5 1533.5,-117.5 1533.5,-98.5 1440.5,-98.5"/>
<text text-anchor="middle" x="1487" y="-105.5" font-family="Helvetica,sans-Serif" font-size="10.00">View.Slogo.start</text>
</a>
</g>
</g>
<!-- Node14&#45;&gt;Node15 -->
<g id="edge15" class="edge"><title>Node14&#45;&gt;Node15</title>
<path fill="none" stroke="midnightblue" d="M1414.14,-108C1423.11,-108 1432.05,-108 1440.43,-108"/>
<polygon fill="midnightblue" stroke="midnightblue" points="1414.04,-104.5 1404.04,-108 1414.04,-111.5 1414.04,-104.5"/>
</g>
<!-- Node17 -->
<g id="node17" class="node"><title>Node17</title>
<g id="a_node17"><a xlink:href="../../d6/d33/class_view_1_1_slogo_view.html#a4aac62ea6fb6f901a5598048f41d366c" target="_top" xlink:title="View.SlogoView.saveFileTo\lController">
<polygon fill="white" stroke="black" points="661.5,-49 661.5,-79 800.5,-79 800.5,-49 661.5,-49"/>
<text text-anchor="start" x="669.5" y="-67" font-family="Helvetica,sans-Serif" font-size="10.00">View.SlogoView.saveFileTo</text>
<text text-anchor="middle" x="731" y="-56" font-family="Helvetica,sans-Serif" font-size="10.00">Controller</text>
</a>
</g>
</g>
<!-- Node16&#45;&gt;Node17 -->
<g id="edge18" class="edge"><title>Node16&#45;&gt;Node17</title>
<path fill="none" stroke="midnightblue" d="M600.299,-64C620.914,-64 642.17,-64 661.357,-64"/>
<polygon fill="midnightblue" stroke="midnightblue" points="600.242,-60.5001 590.242,-64 600.242,-67.5001 600.242,-60.5001"/>
</g>
<!-- Node18 -->
<g id="node18" class="node"><title>Node18</title>
<g id="a_node18"><a xlink:href="../../d9/d00/classcommunicator_1_1_main_controller.html#a514a0999f906dd925adcc102f23fdd61" target="_top" xlink:title="communicator.MainController.save\lPreferences">
<polygon fill="white" stroke="black" points="640,-0 640,-30 822,-30 822,-0 640,-0"/>
<text text-anchor="start" x="648" y="-18" font-family="Helvetica,sans-Serif" font-size="10.00">communicator.MainController.save</text>
<text text-anchor="middle" x="731" y="-7" font-family="Helvetica,sans-Serif" font-size="10.00">Preferences</text>
</a>
</g>
</g>
<!-- Node16&#45;&gt;Node18 -->
<g id="edge19" class="edge"><title>Node16&#45;&gt;Node18</title>
<path fill="none" stroke="midnightblue" d="M580.666,-46.8146C606.385,-41.3353 634.627,-35.3185 659.563,-30.0062"/>
<polygon fill="midnightblue" stroke="midnightblue" points="579.622,-43.4585 570.571,-48.9654 581.08,-50.3048 579.622,-43.4585"/>
</g>
<!-- Node19&#45;&gt;Node3 -->
<g id="edge21" class="edge"><title>Node19&#45;&gt;Node3</title>
<path fill="none" stroke="midnightblue" d="M606.232,-337.776C614.806,-338.484 623.446,-339.198 631.959,-339.901"/>
<polygon fill="midnightblue" stroke="midnightblue" points="606.462,-334.283 596.208,-336.948 605.886,-341.259 606.462,-334.283"/>
</g>
</g>
</svg>
        <g id="navigator" transform="translate(0 0)" fill="#404254">
                <rect fill="#f2f5e9" fill-opacity="0.5" stroke="#606060" stroke-width=".5" x="0" y="0" width="60" height="60"/>
                <use id="zoomplus" xlink:href="#zoomPlus" x="17" y="9" onmousedown="handleZoom(evt,'in')"/>
                <use id="zoomminus" xlink:href="#zoomMin" x="42" y="9" onmousedown="handleZoom(evt,'out')"/>
                <use id="reset" xlink:href="#resetDef" x="30" y="36" onmousedown="handleReset()"/>
                <g id="arrowUp" xlink:href="#dirArrow" transform="translate(30 24)" onmousedown="handlePan(0,-1)">
                  <use xlink:href="#rim" fill="#404040">
                        <set attributeName="fill" to="#808080" begin="arrowUp.mouseover" end="arrowUp.mouseout"/>
                  </use>
                  <path fill="none" stroke="white" stroke-width="1.5" d="M0,-3.0v7 M-2.5,-0.5L0,-3.0L2.5,-0.5"/>
                </g>
                <g id="arrowRight" xlink:href="#dirArrow" transform="rotate(90) translate(36 -43)" onmousedown="handlePan(1,0)">
                  <use xlink:href="#rim" fill="#404040">
                        <set attributeName="fill" to="#808080" begin="arrowRight.mouseover" end="arrowRight.mouseout"/>
                  </use>
                  <path fill="none" stroke="white" stroke-width="1.5" d="M0,-3.0v7 M-2.5,-0.5L0,-3.0L2.5,-0.5"/>
                </g>
                <g id="arrowDown" xlink:href="#dirArrow" transform="rotate(180) translate(-30 -48)" onmousedown="handlePan(0,1)">
                  <use xlink:href="#rim" fill="#404040">
                        <set attributeName="fill" to="#808080" begin="arrowDown.mouseover" end="arrowDown.mouseout"/>
                  </use>
                  <path fill="none" stroke="white" stroke-width="1.5" d="M0,-3.0v7 M-2.5,-0.5L0,-3.0L2.5,-0.5"/>
                </g>
                <g id="arrowLeft" xlink:href="#dirArrow" transform="rotate(270) translate(-36 17)" onmousedown="handlePan(-1,0)">
                  <use xlink:href="#rim" fill="#404040">
                        <set attributeName="fill" to="#808080" begin="arrowLeft.mouseover" end="arrowLeft.mouseout"/>
                  </use>
                  <path fill="none" stroke="white" stroke-width="1.5" d="M0,-3.0v7 M-2.5,-0.5L0,-3.0L2.5,-0.5"/>
                </g>
        </g>
        <svg viewBox="0 0 15 15" width="100%" height="30px" preserveAspectRatio="xMaxYMin meet">
         <g id="arrow_out" transform="scale(0.3 0.3)">
          <a xlink:href="class_view_1_1_slogo_view_abe7981d0dd5275d2a4fbce6444b0c6f9_icgraph_org.svg" target="_base">
           <rect id="button" ry="5" rx="5" y="6" x="6" height="38" width="38"
                fill="#f2f5e9" fill-opacity="0.5" stroke="#606060" stroke-width="1.0"/>
           <path id="arrow"
             d="M 11.500037,31.436501 C 11.940474,20.09759 22.043105,11.32322 32.158766,21.979434 L 37.068811,17.246167 C 37.068811,17.246167 37.088388,32 37.088388,32 L 22.160133,31.978069 C 22.160133,31.978069 26.997745,27.140456 26.997745,27.140456 C 18.528582,18.264221 13.291696,25.230495 11.500037,31.436501 z"
             style="fill:#404040;"/>
          </a>
         </g>
        </svg>
</svg>
