<?xml version="1.0" encoding="UTF-8" standalone="no"?>
<!DOCTYPE svg PUBLIC "-//W3C//DTD SVG 1.1//EN"
 "http://www.w3.org/Graphics/SVG/1.1/DTD/svg11.dtd">
<!-- Generated by graphviz version 2.36.0 (20140111.2315)
 -->
<!-- Title: View.SlogoView.addMenuBar Pages: 1 -->
<!--zoomable 205 -->
<svg id="main" version="1.1" xmlns="http://www.w3.org/2000/svg" xmlns:xlink="http://www.w3.org/1999/xlink" xml:space="preserve" onload="init(evt)">
<style type="text/css"><![CDATA[
.edge:hover path { stroke: red; }
.edge:hover polygon { stroke: red; fill: red; }
]]></style>
<script type="text/javascript"><![CDATA[
var edges = document.getElementsByTagName('g');
if (edges && edges.length) {
  for (var i=0;i<edges.length;i++) {
    if (edges[i].id.substr(0,4)=='edge') {
      edges[i].setAttribute('class','edge');
    }
  }
}
]]></script>
        <defs>
                <circle id="rim" cx="0" cy="0" r="7"/>
                <circle id="rim2" cx="0" cy="0" r="3.5"/>
                <g id="zoomPlus">
                        <use xlink:href="#rim" fill="#404040">
                                <set attributeName="fill" to="#808080" begin="zoomplus.mouseover" end="zoomplus.mouseout"/>
                        </use>
                        <path d="M-4,0h8M0,-4v8" fill="none" stroke="white" stroke-width="1.5" pointer-events="none"/>
                </g>
                <g id="zoomMin">
                        <use xlink:href="#rim" fill="#404040">
                                <set attributeName="fill" to="#808080" begin="zoomminus.mouseover" end="zoomminus.mouseout"/>
                        </use>
                        <path d="M-4,0h8" fill="none" stroke="white" stroke-width="1.5" pointer-events="none"/>
                </g>
                <g id="dirArrow">
                        <path fill="none" stroke="white" stroke-width="1.5" d="M0,-3.0v7 M-2.5,-0.5L0,-3.0L2.5,-0.5"/>
                </g>
               <g id="resetDef">
                       <use xlink:href="#rim2" fill="#404040">
                               <set attributeName="fill" to="#808080" begin="reset.mouseover" end="reset.mouseout"/>
                       </use>
               </g>
        </defs>

<script type="text/javascript">
var viewWidth = 604;
var viewHeight = 205;
var sectionId = 'dynsection-7';
</script>
<script xlink:href="../../svgpan.js"/>
<svg id="graph" class="graph">
<g id="viewport">
<title>View.SlogoView.addMenuBar</title>
<polygon fill="white" stroke="none" points="-4,4 -4,-200.693 600,-200.693 600,4 -4,4"/>
<!-- Node1 -->
<g id="node1" class="node"><title>Node1</title>
<polygon fill="#bfbfbf" stroke="black" points="0,-117.5 0,-136.5 152,-136.5 152,-117.5 0,-117.5"/>
<text text-anchor="middle" x="76" y="-124.5" font-family="Helvetica,sans-Serif" font-size="10.00">View.SlogoView.addMenuBar</text>
</g>
<!-- Node2 -->
<g id="node2" class="node"><title>Node2</title>
<g id="a_node2"><a xlink:href="../../d7/d52/class_view_1_1_menu_template.html#a36b57849adefaed2c993b566b36117fc" target="_top" xlink:title="View.MenuTemplate.addMenuItem">
<polygon fill="white" stroke="black" points="416.5,-136.5 416.5,-155.5 595.5,-155.5 595.5,-136.5 416.5,-136.5"/>
<text text-anchor="middle" x="506" y="-143.5" font-family="Helvetica,sans-Serif" font-size="10.00">View.MenuTemplate.addMenuItem</text>
</a>
</g>
</g>
<!-- Node1&#45;&gt;Node2 -->
<g id="edge1" class="edge"><title>Node1&#45;&gt;Node2</title>
<path fill="none" stroke="midnightblue" d="M90.5188,-136.666C110.619,-150.38 150.098,-174.837 188,-184 270.944,-204.052 295.594,-196.546 380,-184 411.747,-179.281 446.589,-168.169 471.405,-159.173"/>
<polygon fill="midnightblue" stroke="midnightblue" points="472.896,-162.353 481.057,-155.597 470.464,-155.789 472.896,-162.353"/>
</g>
<!-- Node3 -->
<g id="node3" class="node"><title>Node3</title>
<g id="a_node3"><a xlink:href="../../d6/d33/class_view_1_1_slogo_view.html#a94e611bbf375514e3fa7b29042a51652" target="_top" xlink:title="View.SlogoView.createfileMenu">
<polygon fill="white" stroke="black" points="203,-79.5 203,-98.5 365,-98.5 365,-79.5 203,-79.5"/>
<text text-anchor="middle" x="284" y="-86.5" font-family="Helvetica,sans-Serif" font-size="10.00">View.SlogoView.createfileMenu</text>
</a>
</g>
</g>
<!-- Node1&#45;&gt;Node3 -->
<g id="edge2" class="edge"><title>Node1&#45;&gt;Node3</title>
<path fill="none" stroke="midnightblue" d="M128.717,-117.46C156.756,-112.288 191.602,-105.86 221.079,-100.422"/>
<polygon fill="midnightblue" stroke="midnightblue" points="222.063,-103.8 231.262,-98.5439 220.793,-96.9161 222.063,-103.8"/>
</g>
<!-- Node6 -->
<g id="node6" class="node"><title>Node6</title>
<g id="a_node6"><a xlink:href="../../d6/d33/class_view_1_1_slogo_view.html#a7c3c0d79f810cf238ca386b75f12876e" target="_top" xlink:title="View.SlogoView.makeAddMenu">
<polygon fill="white" stroke="black" points="202,-155.5 202,-174.5 366,-174.5 366,-155.5 202,-155.5"/>
<text text-anchor="middle" x="284" y="-162.5" font-family="Helvetica,sans-Serif" font-size="10.00">View.SlogoView.makeAddMenu</text>
</a>
</g>
</g>
<!-- Node1&#45;&gt;Node6 -->
<g id="edge6" class="edge"><title>Node1&#45;&gt;Node6</title>
<path fill="none" stroke="midnightblue" d="M128.717,-136.54C156.756,-141.712 191.602,-148.14 221.079,-153.578"/>
<polygon fill="midnightblue" stroke="midnightblue" points="220.793,-157.084 231.262,-155.456 222.063,-150.2 220.793,-157.084"/>
</g>
<!-- Node7 -->
<g id="node7" class="node"><title>Node7</title>
<g id="a_node7"><a xlink:href="../../d6/d33/class_view_1_1_slogo_view.html#a8ae824124d33ee8cc64ad232b3751863" target="_top" xlink:title="View.SlogoView.makeLanguageMenu">
<polygon fill="white" stroke="black" points="188,-41.5 188,-60.5 380,-60.5 380,-41.5 188,-41.5"/>
<text text-anchor="middle" x="284" y="-48.5" font-family="Helvetica,sans-Serif" font-size="10.00">View.SlogoView.makeLanguageMenu</text>
</a>
</g>
</g>
<!-- Node1&#45;&gt;Node7 -->
<g id="edge8" class="edge"><title>Node1&#45;&gt;Node7</title>
<path fill="none" stroke="midnightblue" d="M92.1988,-117.462C113.037,-104.796 152.004,-82.5674 188,-70 195.818,-67.2704 204.143,-64.888 212.491,-62.8201"/>
<polygon fill="midnightblue" stroke="midnightblue" points="213.329,-66.2185 222.271,-60.5352 211.737,-59.402 213.329,-66.2185"/>
</g>
<!-- Node9 -->
<g id="node9" class="node"><title>Node9</title>
<g id="a_node9"><a xlink:href="../../d6/d33/class_view_1_1_slogo_view.html#a1e19e84acd176c9ac6fe027e1ecae216" target="_top" xlink:title="View.SlogoView.makeMenu">
<polygon fill="white" stroke="black" points="211.5,-117.5 211.5,-136.5 356.5,-136.5 356.5,-117.5 211.5,-117.5"/>
<text text-anchor="middle" x="284" y="-124.5" font-family="Helvetica,sans-Serif" font-size="10.00">View.SlogoView.makeMenu</text>
</a>
</g>
</g>
<!-- Node1&#45;&gt;Node9 -->
<g id="edge11" class="edge"><title>Node1&#45;&gt;Node9</title>
<path fill="none" stroke="midnightblue" d="M152.245,-127C168.085,-127 184.87,-127 200.945,-127"/>
<polygon fill="midnightblue" stroke="midnightblue" points="201.389,-130.5 211.389,-127 201.389,-123.5 201.389,-130.5"/>
</g>
<!-- Node3&#45;&gt;Node2 -->
<g id="edge3" class="edge"><title>Node3&#45;&gt;Node2</title>
<path fill="none" stroke="midnightblue" d="M346.269,-98.5492C357.641,-101.08 369.302,-104.198 380,-108 397.047,-114.059 398.993,-120.831 416,-127 423.31,-129.652 431.099,-131.986 438.913,-134.027"/>
<polygon fill="midnightblue" stroke="midnightblue" points="438.243,-137.466 448.789,-136.457 439.915,-130.669 438.243,-137.466"/>
</g>
<!-- Node4 -->
<g id="node4" class="node"><title>Node4</title>
<g id="a_node4"><a xlink:href="../../d6/d33/class_view_1_1_slogo_view.html#aa2d332f7f13c1e73d0d08f90eda894fc" target="_top" xlink:title="View.SlogoView.saveFile">
<polygon fill="white" stroke="black" points="441.5,-98.5 441.5,-117.5 570.5,-117.5 570.5,-98.5 441.5,-98.5"/>
<text text-anchor="middle" x="506" y="-105.5" font-family="Helvetica,sans-Serif" font-size="10.00">View.SlogoView.saveFile</text>
</a>
</g>
</g>
<!-- Node3&#45;&gt;Node4 -->
<g id="edge4" class="edge"><title>Node3&#45;&gt;Node4</title>
<path fill="none" stroke="midnightblue" d="M365.047,-95.9132C386.586,-97.7733 409.783,-99.7767 430.978,-101.607"/>
<polygon fill="midnightblue" stroke="midnightblue" points="430.941,-105.117 441.205,-102.49 431.544,-98.1429 430.941,-105.117"/>
</g>
<!-- Node5 -->
<g id="node5" class="node"><title>Node5</title>
<g id="a_node5"><a xlink:href="../../d0/dec/class_g_u_i_functions_1_1_ask_for_initial_file.html#a3494792f1fb4a3e7c698a3e98e896ae6" target="_top" xlink:title="GUIFunctions.AskForInitial\lFile.sendFile">
<polygon fill="white" stroke="black" points="436.5,-49 436.5,-79 575.5,-79 575.5,-49 436.5,-49"/>
<text text-anchor="start" x="444.5" y="-67" font-family="Helvetica,sans-Serif" font-size="10.00">GUIFunctions.AskForInitial</text>
<text text-anchor="middle" x="506" y="-56" font-family="Helvetica,sans-Serif" font-size="10.00">File.sendFile</text>
</a>
</g>
</g>
<!-- Node3&#45;&gt;Node5 -->
<g id="edge5" class="edge"><title>Node3&#45;&gt;Node5</title>
<path fill="none" stroke="midnightblue" d="M365.047,-79.9037C385.017,-77.6345 406.412,-75.2032 426.314,-72.9415"/>
<polygon fill="midnightblue" stroke="midnightblue" points="426.719,-76.4181 436.26,-71.8113 425.929,-69.4629 426.719,-76.4181"/>
</g>
<!-- Node6&#45;&gt;Node2 -->
<g id="edge7" class="edge"><title>Node6&#45;&gt;Node2</title>
<path fill="none" stroke="midnightblue" d="M366.295,-157.979C379.268,-156.859 392.813,-155.689 406.138,-154.538"/>
<polygon fill="midnightblue" stroke="midnightblue" points="406.61,-158.01 416.272,-153.663 406.008,-151.036 406.61,-158.01"/>
</g>
<!-- Node7&#45;&gt;Node2 -->
<g id="edge9" class="edge"><title>Node7&#45;&gt;Node2</title>
<path fill="none" stroke="midnightblue" d="M361.927,-60.6111C368.326,-63.1028 374.457,-66.1876 380,-70 404.688,-86.9786 391.422,-109.862 416,-127 418.873,-129.004 421.917,-130.803 425.079,-132.418"/>
<polygon fill="midnightblue" stroke="midnightblue" points="423.703,-135.636 434.263,-136.498 426.546,-129.239 423.703,-135.636"/>
</g>
<!-- Node8 -->
<g id="node8" class="node"><title>Node8</title>
<g id="a_node8"><a xlink:href="../../d5/da9/class_g_u_i_functions_1_1_language_menu.html#a47430a240fe8ac9f5631f089a81ff80e" target="_top" xlink:title="GUIFunctions.LanguageMenu.do\lAction">
<polygon fill="white" stroke="black" points="421,-0 421,-30 591,-30 591,-0 421,-0"/>
<text text-anchor="start" x="429" y="-18" font-family="Helvetica,sans-Serif" font-size="10.00">GUIFunctions.LanguageMenu.do</text>
<text text-anchor="middle" x="506" y="-7" font-family="Helvetica,sans-Serif" font-size="10.00">Action</text>
</a>
</g>
</g>
<!-- Node7&#45;&gt;Node8 -->
<g id="edge10" class="edge"><title>Node7&#45;&gt;Node8</title>
<path fill="none" stroke="midnightblue" d="M343.09,-41.4943C363.827,-38.101 387.758,-34.1851 410.751,-30.4225"/>
<polygon fill="midnightblue" stroke="midnightblue" points="411.58,-33.8335 420.884,-28.7645 410.45,-26.9254 411.58,-33.8335"/>
</g>
<!-- Node9&#45;&gt;Node2 -->
<g id="edge12" class="edge"><title>Node9&#45;&gt;Node2</title>
<path fill="none" stroke="midnightblue" d="M356.732,-133.195C372.515,-134.558 389.5,-136.025 406.141,-137.462"/>
<polygon fill="midnightblue" stroke="midnightblue" points="406.18,-140.978 416.444,-138.352 406.782,-134.004 406.18,-140.978"/>
</g>
</g>
</svg>
        <g id="navigator" transform="translate(0 0)" fill="#404254">
                <rect fill="#f2f5e9" fill-opacity="0.5" stroke="#606060" stroke-width=".5" x="0" y="0" width="60" height="60"/>
                <use id="zoomplus" xlink:href="#zoomPlus" x="17" y="9" onmousedown="handleZoom(evt,'in')"/>
                <use id="zoomminus" xlink:href="#zoomMin" x="42" y="9" onmousedown="handleZoom(evt,'out')"/>
                <use id="reset" xlink:href="#resetDef" x="30" y="36" onmousedown="handleReset()"/>
                <g id="arrowUp" xlink:href="#dirArrow" transform="translate(30 24)" onmousedown="handlePan(0,-1)">
                  <use xlink:href="#rim" fill="#404040">
                        <set attributeName="fill" to="#808080" begin="arrowUp.mouseover" end="arrowUp.mouseout"/>
                  </use>
                  <path fill="none" stroke="white" stroke-width="1.5" d="M0,-3.0v7 M-2.5,-0.5L0,-3.0L2.5,-0.5"/>
                </g>
                <g id="arrowRight" xlink:href="#dirArrow" transform="rotate(90) translate(36 -43)" onmousedown="handlePan(1,0)">
                  <use xlink:href="#rim" fill="#404040">
                        <set attributeName="fill" to="#808080" begin="arrowRight.mouseover" end="arrowRight.mouseout"/>
                  </use>
                  <path fill="none" stroke="white" stroke-width="1.5" d="M0,-3.0v7 M-2.5,-0.5L0,-3.0L2.5,-0.5"/>
                </g>
                <g id="arrowDown" xlink:href="#dirArrow" transform="rotate(180) translate(-30 -48)" onmousedown="handlePan(0,1)">
                  <use xlink:href="#rim" fill="#404040">
                        <set attributeName="fill" to="#808080" begin="arrowDown.mouseover" end="arrowDown.mouseout"/>
                  </use>
                  <path fill="none" stroke="white" stroke-width="1.5" d="M0,-3.0v7 M-2.5,-0.5L0,-3.0L2.5,-0.5"/>
                </g>
                <g id="arrowLeft" xlink:href="#dirArrow" transform="rotate(270) translate(-36 17)" onmousedown="handlePan(-1,0)">
                  <use xlink:href="#rim" fill="#404040">
                        <set attributeName="fill" to="#808080" begin="arrowLeft.mouseover" end="arrowLeft.mouseout"/>
                  </use>
                  <path fill="none" stroke="white" stroke-width="1.5" d="M0,-3.0v7 M-2.5,-0.5L0,-3.0L2.5,-0.5"/>
                </g>
        </g>
        <svg viewBox="0 0 15 15" width="100%" height="30px" preserveAspectRatio="xMaxYMin meet">
         <g id="arrow_out" transform="scale(0.3 0.3)">
          <a xlink:href="class_view_1_1_slogo_view_a7c84b547efa8603bbd40e36795873355_cgraph_org.svg" target="_base">
           <rect id="button" ry="5" rx="5" y="6" x="6" height="38" width="38"
                fill="#f2f5e9" fill-opacity="0.5" stroke="#606060" stroke-width="1.0"/>
           <path id="arrow"
             d="M 11.500037,31.436501 C 11.940474,20.09759 22.043105,11.32322 32.158766,21.979434 L 37.068811,17.246167 C 37.068811,17.246167 37.088388,32 37.088388,32 L 22.160133,31.978069 C 22.160133,31.978069 26.997745,27.140456 26.997745,27.140456 C 18.528582,18.264221 13.291696,25.230495 11.500037,31.436501 z"
             style="fill:#404040;"/>
          </a>
         </g>
        </svg>
</svg>
