<?xml version="1.0" encoding="UTF-8" standalone="no"?>
<!DOCTYPE svg PUBLIC "-//W3C//DTD SVG 1.1//EN"
 "http://www.w3.org/Graphics/SVG/1.1/DTD/svg11.dtd">
<!-- Generated by graphviz version 2.36.0 (20140111.2315)
 -->
<!-- Title: View.SlogoView.checkNullFile Pages: 1 -->
<svg width="778pt" height="87pt"
 viewBox="0.00 0.00 778.00 87.00" xmlns="http://www.w3.org/2000/svg" xmlns:xlink="http://www.w3.org/1999/xlink">
<g id="graph0" class="graph" transform="scale(1 1) rotate(0) translate(4 83)">
<title>View.SlogoView.checkNullFile</title>
<polygon fill="white" stroke="none" points="-4,4 -4,-83 774,-83 774,4 -4,4"/>
<!-- Node1 -->
<g id="node1" class="node"><title>Node1</title>
<polygon fill="#bfbfbf" stroke="black" points="0,-29.5 0,-48.5 152,-48.5 152,-29.5 0,-29.5"/>
<text text-anchor="middle" x="76" y="-36.5" font-family="Helvetica,sans-Serif" font-size="10.00">View.SlogoView.checkNullFile</text>
</g>
<!-- Node2 -->
<g id="node2" class="node"><title>Node2</title>
<g id="a_node2"><a xlink:href="../../d9/d00/classcommunicator_1_1_main_controller.html#a687d62c9fabb703033a144bf30437415" target="_top" xlink:title="communicator.MainController.load\lPreferences">
<polygon fill="white" stroke="black" points="188,-24 188,-54 368,-54 368,-24 188,-24"/>
<text text-anchor="start" x="196" y="-42" font-family="Helvetica,sans-Serif" font-size="10.00">communicator.MainController.load</text>
<text text-anchor="middle" x="278" y="-31" font-family="Helvetica,sans-Serif" font-size="10.00">Preferences</text>
</a>
</g>
</g>
<!-- Node1&#45;&gt;Node2 -->
<g id="edge1" class="edge"><title>Node1&#45;&gt;Node2</title>
<path fill="none" stroke="midnightblue" d="M152.042,-39C160.407,-39 169.021,-39 177.628,-39"/>
<polygon fill="midnightblue" stroke="midnightblue" points="177.715,-42.5001 187.715,-39 177.715,-35.5001 177.715,-42.5001"/>
</g>
<!-- Node3 -->
<g id="node3" class="node"><title>Node3</title>
<g id="a_node3"><a xlink:href="../../dd/df5/interfacecommands_1_1information_1_1_i_information_gateway.html#afcf67bea7af57e3487ab183f73dc07be" target="_top" xlink:title="commands.information.IInformation\lGateway.addContainer">
<polygon fill="white" stroke="black" points="405,-49 405,-79 593,-79 593,-49 405,-49"/>
<text text-anchor="start" x="413" y="-67" font-family="Helvetica,sans-Serif" font-size="10.00">commands.information.IInformation</text>
<text text-anchor="middle" x="499" y="-56" font-family="Helvetica,sans-Serif" font-size="10.00">Gateway.addContainer</text>
</a>
</g>
</g>
<!-- Node2&#45;&gt;Node3 -->
<g id="edge2" class="edge"><title>Node2&#45;&gt;Node3</title>
<path fill="none" stroke="midnightblue" d="M368.076,-49.1685C376.852,-50.1703 385.809,-51.1928 394.712,-52.2091"/>
<polygon fill="midnightblue" stroke="midnightblue" points="394.395,-55.6956 404.727,-53.3524 395.189,-48.7407 394.395,-55.6956"/>
</g>
<!-- Node4 -->
<g id="node4" class="node"><title>Node4</title>
<g id="a_node4"><a xlink:href="../../d9/d00/classcommunicator_1_1_main_controller.html#a65cd5059a843dc8261445e09403810fb" target="_top" xlink:title="communicator.MainController.report\lErrorToView">
<polygon fill="white" stroke="black" points="404.5,-0 404.5,-30 593.5,-30 593.5,-0 404.5,-0"/>
<text text-anchor="start" x="412.5" y="-18" font-family="Helvetica,sans-Serif" font-size="10.00">communicator.MainController.report</text>
<text text-anchor="middle" x="499" y="-7" font-family="Helvetica,sans-Serif" font-size="10.00">ErrorToView</text>
</a>
</g>
</g>
<!-- Node2&#45;&gt;Node4 -->
<g id="edge3" class="edge"><title>Node2&#45;&gt;Node4</title>
<path fill="none" stroke="midnightblue" d="M368.076,-29.2383C376.672,-28.2962 385.443,-27.335 394.166,-26.3791"/>
<polygon fill="midnightblue" stroke="midnightblue" points="394.811,-29.8295 404.37,-25.2608 394.048,-22.8711 394.811,-29.8295"/>
</g>
<!-- Node5 -->
<g id="node5" class="node"><title>Node5</title>
<g id="a_node5"><a xlink:href="../../d6/d33/class_view_1_1_slogo_view.html#abe7981d0dd5275d2a4fbce6444b0c6f9" target="_top" xlink:title="View.SlogoView.showError">
<polygon fill="white" stroke="black" points="630.5,-5.5 630.5,-24.5 769.5,-24.5 769.5,-5.5 630.5,-5.5"/>
<text text-anchor="middle" x="700" y="-12.5" font-family="Helvetica,sans-Serif" font-size="10.00">View.SlogoView.showError</text>
</a>
</g>
</g>
<!-- Node4&#45;&gt;Node5 -->
<g id="edge4" class="edge"><title>Node4&#45;&gt;Node5</title>
<path fill="none" stroke="midnightblue" d="M593.673,-15C602.585,-15 611.56,-15 620.31,-15"/>
<polygon fill="midnightblue" stroke="midnightblue" points="620.461,-18.5001 630.461,-15 620.461,-11.5001 620.461,-18.5001"/>
</g>
</g>
</svg>
