<?xml version="1.0" encoding="UTF-8" standalone="no"?>
<!DOCTYPE svg PUBLIC "-//W3C//DTD SVG 1.1//EN"
 "http://www.w3.org/Graphics/SVG/1.1/DTD/svg11.dtd">
<!-- Generated by graphviz version 2.36.0 (20140111.2315)
 -->
<!-- Title: View.SlogoView.build Pages: 1 -->
<svg width="546pt" height="215pt"
 viewBox="0.00 0.00 546.00 215.00" xmlns="http://www.w3.org/2000/svg" xmlns:xlink="http://www.w3.org/1999/xlink">
<g id="graph0" class="graph" transform="scale(1 1) rotate(0) translate(4 211)">
<title>View.SlogoView.build</title>
<polygon fill="white" stroke="none" points="-4,4 -4,-211 542,-211 542,4 -4,4"/>
<!-- Node1 -->
<g id="node1" class="node"><title>Node1</title>
<polygon fill="#bfbfbf" stroke="black" points="0,-111.5 0,-130.5 114,-130.5 114,-111.5 0,-111.5"/>
<text text-anchor="middle" x="57" y="-118.5" font-family="Helvetica,sans-Serif" font-size="10.00">View.SlogoView.build</text>
</g>
<!-- Node2 -->
<g id="node2" class="node"><title>Node2</title>
<g id="a_node2"><a xlink:href="../../d7/d98/class_view_1_1_grid_tracker.html#af7c2413584c58030e606ae6692ea564f" target="_top" xlink:title="View.GridTracker.getActiveGrid">
<polygon fill="white" stroke="black" points="157.5,-187.5 157.5,-206.5 318.5,-206.5 318.5,-187.5 157.5,-187.5"/>
<text text-anchor="middle" x="238" y="-194.5" font-family="Helvetica,sans-Serif" font-size="10.00">View.GridTracker.getActiveGrid</text>
</a>
</g>
</g>
<!-- Node1&#45;&gt;Node2 -->
<g id="edge1" class="edge"><title>Node1&#45;&gt;Node2</title>
<path fill="none" stroke="midnightblue" d="M70.3583,-130.583C87.3591,-143.299 119.35,-165.585 150,-178 156.354,-180.574 163.117,-182.826 169.957,-184.791"/>
<polygon fill="midnightblue" stroke="midnightblue" points="169.431,-188.273 179.995,-187.468 171.235,-181.509 169.431,-188.273"/>
</g>
<!-- Node3 -->
<g id="node3" class="node"><title>Node3</title>
<g id="a_node3"><a xlink:href="../../d5/d30/class_view_1_1_tabs_of_grids.html#af8af94baac6e068e15173384481341c9" target="_top" xlink:title="View.TabsOfGrids.getActiveGrid">
<polygon fill="white" stroke="black" points="156,-149.5 156,-168.5 320,-168.5 320,-149.5 156,-149.5"/>
<text text-anchor="middle" x="238" y="-156.5" font-family="Helvetica,sans-Serif" font-size="10.00">View.TabsOfGrids.getActiveGrid</text>
</a>
</g>
</g>
<!-- Node1&#45;&gt;Node3 -->
<g id="edge2" class="edge"><title>Node1&#45;&gt;Node3</title>
<path fill="none" stroke="midnightblue" d="M103.169,-130.589C127.216,-135.694 156.974,-142.011 182.319,-147.392"/>
<polygon fill="midnightblue" stroke="midnightblue" points="181.647,-150.827 192.156,-149.48 183.1,-143.98 181.647,-150.827"/>
</g>
<!-- Node4 -->
<g id="node4" class="node"><title>Node4</title>
<g id="a_node4"><a xlink:href="../../d0/d92/class_view_1_1_grid.html#a41a30a88e387ffd4c232201536049709" target="_top" xlink:title="View.Grid.getID">
<polygon fill="white" stroke="black" points="193.5,-111.5 193.5,-130.5 282.5,-130.5 282.5,-111.5 193.5,-111.5"/>
<text text-anchor="middle" x="238" y="-118.5" font-family="Helvetica,sans-Serif" font-size="10.00">View.Grid.getID</text>
</a>
</g>
</g>
<!-- Node1&#45;&gt;Node4 -->
<g id="edge3" class="edge"><title>Node1&#45;&gt;Node4</title>
<path fill="none" stroke="midnightblue" d="M114.146,-121C136.185,-121 161.373,-121 183.181,-121"/>
<polygon fill="midnightblue" stroke="midnightblue" points="183.263,-124.5 193.263,-121 183.263,-117.5 183.263,-124.5"/>
</g>
<!-- Node5 -->
<g id="node5" class="node"><title>Node5</title>
<g id="a_node5"><a xlink:href="../../d7/d98/class_view_1_1_grid_tracker.html#a10f28999bec118593817f480836c5a94" target="_top" xlink:title="View.GridTracker.setActiveGrid">
<polygon fill="white" stroke="black" points="158,-73.5 158,-92.5 318,-92.5 318,-73.5 158,-73.5"/>
<text text-anchor="middle" x="238" y="-80.5" font-family="Helvetica,sans-Serif" font-size="10.00">View.GridTracker.setActiveGrid</text>
</a>
</g>
</g>
<!-- Node1&#45;&gt;Node5 -->
<g id="edge4" class="edge"><title>Node1&#45;&gt;Node5</title>
<path fill="none" stroke="midnightblue" d="M103.169,-111.411C127.216,-106.306 156.974,-99.9887 182.319,-94.6082"/>
<polygon fill="midnightblue" stroke="midnightblue" points="183.1,-98.0205 192.156,-92.5201 181.647,-91.1731 183.1,-98.0205"/>
</g>
<!-- Node6 -->
<g id="node6" class="node"><title>Node6</title>
<g id="a_node6"><a xlink:href="../../d9/d00/classcommunicator_1_1_main_controller.html#a5f47f446231c8725088701e8adc79eee" target="_top" xlink:title="communicator.MainController.set\lGridAsActive">
<polygon fill="white" stroke="black" points="150.5,-24 150.5,-54 325.5,-54 325.5,-24 150.5,-24"/>
<text text-anchor="start" x="158.5" y="-42" font-family="Helvetica,sans-Serif" font-size="10.00">communicator.MainController.set</text>
<text text-anchor="middle" x="238" y="-31" font-family="Helvetica,sans-Serif" font-size="10.00">GridAsActive</text>
</a>
</g>
</g>
<!-- Node1&#45;&gt;Node6 -->
<g id="edge5" class="edge"><title>Node1&#45;&gt;Node6</title>
<path fill="none" stroke="midnightblue" d="M70.7744,-111.494C87.9858,-99.0684 119.94,-77.3251 150,-64 155.338,-61.6337 160.96,-59.4276 166.67,-57.3851"/>
<polygon fill="midnightblue" stroke="midnightblue" points="167.986,-60.6343 176.328,-54.1027 165.734,-54.0066 167.986,-60.6343"/>
</g>
<!-- Node7 -->
<g id="node7" class="node"><title>Node7</title>
<g id="a_node7"><a xlink:href="../../d9/d00/classcommunicator_1_1_main_controller.html#ac535ad5404d0e180a1de6526a967a581" target="_top" xlink:title="communicator.MainController.get\lGridContainer">
<polygon fill="white" stroke="black" points="362,-49 362,-79 538,-79 538,-49 362,-49"/>
<text text-anchor="start" x="370" y="-67" font-family="Helvetica,sans-Serif" font-size="10.00">communicator.MainController.get</text>
<text text-anchor="middle" x="450" y="-56" font-family="Helvetica,sans-Serif" font-size="10.00">GridContainer</text>
</a>
</g>
</g>
<!-- Node6&#45;&gt;Node7 -->
<g id="edge6" class="edge"><title>Node6&#45;&gt;Node7</title>
<path fill="none" stroke="midnightblue" d="M325.627,-49.3128C334.235,-50.3375 343.013,-51.3825 351.72,-52.419"/>
<polygon fill="midnightblue" stroke="midnightblue" points="351.55,-55.9234 361.894,-53.6302 352.377,-48.9725 351.55,-55.9234"/>
</g>
<!-- Node8 -->
<g id="node8" class="node"><title>Node8</title>
<g id="a_node8"><a xlink:href="../../d4/d37/classcommands_1_1information_1_1_base_grid_container.html#a8e6f306cdcef5b2cc076521e40de0138" target="_top" xlink:title="commands.information.Base\lGridContainer.setGridAsActive">
<polygon fill="white" stroke="black" points="369.5,-0 369.5,-30 530.5,-30 530.5,-0 369.5,-0"/>
<text text-anchor="start" x="377.5" y="-18" font-family="Helvetica,sans-Serif" font-size="10.00">commands.information.Base</text>
<text text-anchor="middle" x="450" y="-7" font-family="Helvetica,sans-Serif" font-size="10.00">GridContainer.setGridAsActive</text>
</a>
</g>
</g>
<!-- Node6&#45;&gt;Node8 -->
<g id="edge7" class="edge"><title>Node6&#45;&gt;Node8</title>
<path fill="none" stroke="midnightblue" d="M325.627,-29.0997C336.7,-27.8343 348.053,-26.5368 359.175,-25.2657"/>
<polygon fill="midnightblue" stroke="midnightblue" points="359.771,-28.7205 369.309,-24.1076 358.976,-21.7658 359.771,-28.7205"/>
</g>
</g>
</svg>
