<?xml version="1.0" encoding="UTF-8" standalone="no"?>
<!DOCTYPE svg PUBLIC "-//W3C//DTD SVG 1.1//EN"
 "http://www.w3.org/Graphics/SVG/1.1/DTD/svg11.dtd">
<!-- Generated by graphviz version 2.36.0 (20140111.2315)
 -->
<!-- Title: View.SlogoView.saveFile Pages: 1 -->
<svg width="820pt" height="28pt"
 viewBox="0.00 0.00 820.00 28.00" xmlns="http://www.w3.org/2000/svg" xmlns:xlink="http://www.w3.org/1999/xlink">
<g id="graph0" class="graph" transform="scale(1 1) rotate(0) translate(4 24)">
<title>View.SlogoView.saveFile</title>
<polygon fill="white" stroke="none" points="-4,4 -4,-24 816,-24 816,4 -4,4"/>
<!-- Node1 -->
<g id="node1" class="node"><title>Node1</title>
<polygon fill="#bfbfbf" stroke="black" points="0.5,-0.5 0.5,-19.5 129.5,-19.5 129.5,-0.5 0.5,-0.5"/>
<text text-anchor="middle" x="65" y="-7.5" font-family="Helvetica,sans-Serif" font-size="10.00">View.SlogoView.saveFile</text>
</g>
<!-- Node2 -->
<g id="node2" class="node"><title>Node2</title>
<g id="a_node2"><a xlink:href="../../d6/d33/class_view_1_1_slogo_view.html#a94e611bbf375514e3fa7b29042a51652" target="_top" xlink:title="View.SlogoView.createfileMenu">
<polygon fill="white" stroke="black" points="166,-0.5 166,-19.5 328,-19.5 328,-0.5 166,-0.5"/>
<text text-anchor="middle" x="247" y="-7.5" font-family="Helvetica,sans-Serif" font-size="10.00">View.SlogoView.createfileMenu</text>
</a>
</g>
</g>
<!-- Node1&#45;&gt;Node2 -->
<g id="edge1" class="edge"><title>Node1&#45;&gt;Node2</title>
<path fill="none" stroke="midnightblue" d="M139.748,-10C148.393,-10 157.245,-10 165.97,-10"/>
<polygon fill="midnightblue" stroke="midnightblue" points="139.715,-6.5001 129.715,-10 139.715,-13.5001 139.715,-6.5001"/>
</g>
<!-- Node3 -->
<g id="node3" class="node"><title>Node3</title>
<g id="a_node3"><a xlink:href="../../d6/d33/class_view_1_1_slogo_view.html#a7c84b547efa8603bbd40e36795873355" target="_top" xlink:title="View.SlogoView.addMenuBar">
<polygon fill="white" stroke="black" points="364,-0.5 364,-19.5 516,-19.5 516,-0.5 364,-0.5"/>
<text text-anchor="middle" x="440" y="-7.5" font-family="Helvetica,sans-Serif" font-size="10.00">View.SlogoView.addMenuBar</text>
</a>
</g>
</g>
<!-- Node2&#45;&gt;Node3 -->
<g id="edge2" class="edge"><title>Node2&#45;&gt;Node3</title>
<path fill="none" stroke="midnightblue" d="M338.223,-10C346.822,-10 355.479,-10 363.912,-10"/>
<polygon fill="midnightblue" stroke="midnightblue" points="338.171,-6.5001 328.171,-10 338.171,-13.5001 338.171,-6.5001"/>
</g>
<!-- Node4 -->
<g id="node4" class="node"><title>Node4</title>
<g id="a_node4"><a xlink:href="../../d6/d33/class_view_1_1_slogo_view.html#acfeff052503655d2ac419d2bf4ea9bd5" target="_top" xlink:title="View.SlogoView.initialize">
<polygon fill="white" stroke="black" points="552,-0.5 552,-19.5 682,-19.5 682,-0.5 552,-0.5"/>
<text text-anchor="middle" x="617" y="-7.5" font-family="Helvetica,sans-Serif" font-size="10.00">View.SlogoView.initialize</text>
</a>
</g>
</g>
<!-- Node3&#45;&gt;Node4 -->
<g id="edge3" class="edge"><title>Node3&#45;&gt;Node4</title>
<path fill="none" stroke="midnightblue" d="M526.289,-10C534.885,-10 543.509,-10 551.83,-10"/>
<polygon fill="midnightblue" stroke="midnightblue" points="526.231,-6.5001 516.231,-10 526.231,-13.5001 526.231,-6.5001"/>
</g>
<!-- Node5 -->
<g id="node5" class="node"><title>Node5</title>
<g id="a_node5"><a xlink:href="../../db/d27/class_view_1_1_slogo.html#a6ab76a53160b61d8501aec91c55b85c8" target="_top" xlink:title="View.Slogo.start">
<polygon fill="white" stroke="black" points="718.5,-0.5 718.5,-19.5 811.5,-19.5 811.5,-0.5 718.5,-0.5"/>
<text text-anchor="middle" x="765" y="-7.5" font-family="Helvetica,sans-Serif" font-size="10.00">View.Slogo.start</text>
</a>
</g>
</g>
<!-- Node4&#45;&gt;Node5 -->
<g id="edge4" class="edge"><title>Node4&#45;&gt;Node5</title>
<path fill="none" stroke="midnightblue" d="M692.142,-10C701.108,-10 710.051,-10 718.43,-10"/>
<polygon fill="midnightblue" stroke="midnightblue" points="692.038,-6.5001 682.038,-10 692.038,-13.5001 692.038,-6.5001"/>
</g>
</g>
</svg>
