<?xml version="1.0" encoding="UTF-8" standalone="no"?>
<!DOCTYPE svg PUBLIC "-//W3C//DTD SVG 1.1//EN"
 "http://www.w3.org/Graphics/SVG/1.1/DTD/svg11.dtd">
<!-- Generated by graphviz version 2.36.0 (20140111.2315)
 -->
<!-- Title: View.SlogoView.sendCommandAndMakeButton Pages: 1 -->
<svg width="864pt" height="87pt"
 viewBox="0.00 0.00 864.00 87.00" xmlns="http://www.w3.org/2000/svg" xmlns:xlink="http://www.w3.org/1999/xlink">
<g id="graph0" class="graph" transform="scale(1 1) rotate(0) translate(4 83)">
<title>View.SlogoView.sendCommandAndMakeButton</title>
<polygon fill="white" stroke="none" points="-4,4 -4,-83 860,-83 860,4 -4,4"/>
<!-- Node1 -->
<g id="node1" class="node"><title>Node1</title>
<polygon fill="#bfbfbf" stroke="black" points="0.5,-24 0.5,-54 165.5,-54 165.5,-24 0.5,-24"/>
<text text-anchor="start" x="8.5" y="-42" font-family="Helvetica,sans-Serif" font-size="10.00">View.SlogoView.sendCommand</text>
<text text-anchor="middle" x="83" y="-31" font-family="Helvetica,sans-Serif" font-size="10.00">AndMakeButton</text>
</g>
<!-- Node2 -->
<g id="node2" class="node"><title>Node2</title>
<g id="a_node2"><a xlink:href="../../d6/d33/class_view_1_1_slogo_view.html#a468acf266470c356f2f36e7eb2f327e8" target="_top" xlink:title="View.SlogoView.createCommand\lLineWithLabel">
<polygon fill="white" stroke="black" points="202.5,-49 202.5,-79 375.5,-79 375.5,-49 202.5,-49"/>
<text text-anchor="start" x="210.5" y="-67" font-family="Helvetica,sans-Serif" font-size="10.00">View.SlogoView.createCommand</text>
<text text-anchor="middle" x="289" y="-56" font-family="Helvetica,sans-Serif" font-size="10.00">LineWithLabel</text>
</a>
</g>
</g>
<!-- Node1&#45;&gt;Node2 -->
<g id="edge1" class="edge"><title>Node1&#45;&gt;Node2</title>
<path fill="none" stroke="midnightblue" d="M175.504,-50.2137C184.414,-51.3056 193.431,-52.4107 202.281,-53.4952"/>
<polygon fill="midnightblue" stroke="midnightblue" points="175.857,-46.7309 165.506,-48.9884 175.006,-53.6789 175.857,-46.7309"/>
</g>
<!-- Node6 -->
<g id="node6" class="node"><title>Node6</title>
<g id="a_node6"><a xlink:href="../../d6/d33/class_view_1_1_slogo_view.html#acaa2b33418cebb60111d0acfef03e832" target="_top" xlink:title="View.SlogoView.executeUser\lCommand">
<polygon fill="white" stroke="black" points="213,-0 213,-30 365,-30 365,-0 213,-0"/>
<text text-anchor="start" x="221" y="-18" font-family="Helvetica,sans-Serif" font-size="10.00">View.SlogoView.executeUser</text>
<text text-anchor="middle" x="289" y="-7" font-family="Helvetica,sans-Serif" font-size="10.00">Command</text>
</a>
</g>
</g>
<!-- Node1&#45;&gt;Node6 -->
<g id="edge5" class="edge"><title>Node1&#45;&gt;Node6</title>
<path fill="none" stroke="midnightblue" d="M175.483,-28.2373C187.999,-26.7648 200.729,-25.2672 212.908,-23.8344"/>
<polygon fill="midnightblue" stroke="midnightblue" points="175.028,-24.7666 165.506,-29.4111 175.846,-31.7186 175.028,-24.7666"/>
</g>
<!-- Node3 -->
<g id="node3" class="node"><title>Node3</title>
<g id="a_node3"><a xlink:href="../../d6/d33/class_view_1_1_slogo_view.html#ac64a43649ed5417854c37ec25320e925" target="_top" xlink:title="View.SlogoView.setTextArea">
<polygon fill="white" stroke="black" points="412,-54.5 412,-73.5 560,-73.5 560,-54.5 412,-54.5"/>
<text text-anchor="middle" x="486" y="-61.5" font-family="Helvetica,sans-Serif" font-size="10.00">View.SlogoView.setTextArea</text>
</a>
</g>
</g>
<!-- Node2&#45;&gt;Node3 -->
<g id="edge2" class="edge"><title>Node2&#45;&gt;Node3</title>
<path fill="none" stroke="midnightblue" d="M385.76,-64C394.497,-64 403.252,-64 411.745,-64"/>
<polygon fill="midnightblue" stroke="midnightblue" points="385.53,-60.5001 375.53,-64 385.53,-67.5001 385.53,-60.5001"/>
</g>
<!-- Node4 -->
<g id="node4" class="node"><title>Node4</title>
<g id="a_node4"><a xlink:href="../../d6/d33/class_view_1_1_slogo_view.html#acfeff052503655d2ac419d2bf4ea9bd5" target="_top" xlink:title="View.SlogoView.initialize">
<polygon fill="white" stroke="black" points="596,-54.5 596,-73.5 726,-73.5 726,-54.5 596,-54.5"/>
<text text-anchor="middle" x="661" y="-61.5" font-family="Helvetica,sans-Serif" font-size="10.00">View.SlogoView.initialize</text>
</a>
</g>
</g>
<!-- Node3&#45;&gt;Node4 -->
<g id="edge3" class="edge"><title>Node3&#45;&gt;Node4</title>
<path fill="none" stroke="midnightblue" d="M570.216,-64C578.853,-64 587.534,-64 595.914,-64"/>
<polygon fill="midnightblue" stroke="midnightblue" points="570.117,-60.5001 560.117,-64 570.117,-67.5001 570.117,-60.5001"/>
</g>
<!-- Node5 -->
<g id="node5" class="node"><title>Node5</title>
<g id="a_node5"><a xlink:href="../../db/d27/class_view_1_1_slogo.html#a6ab76a53160b61d8501aec91c55b85c8" target="_top" xlink:title="View.Slogo.start">
<polygon fill="white" stroke="black" points="762.5,-54.5 762.5,-73.5 855.5,-73.5 855.5,-54.5 762.5,-54.5"/>
<text text-anchor="middle" x="809" y="-61.5" font-family="Helvetica,sans-Serif" font-size="10.00">View.Slogo.start</text>
</a>
</g>
</g>
<!-- Node4&#45;&gt;Node5 -->
<g id="edge4" class="edge"><title>Node4&#45;&gt;Node5</title>
<path fill="none" stroke="midnightblue" d="M736.142,-64C745.108,-64 754.051,-64 762.43,-64"/>
<polygon fill="midnightblue" stroke="midnightblue" points="736.038,-60.5001 726.038,-64 736.038,-67.5001 736.038,-60.5001"/>
</g>
</g>
</svg>
