<?xml version="1.0" encoding="UTF-8" standalone="no"?>
<!DOCTYPE svg PUBLIC "-//W3C//DTD SVG 1.1//EN"
 "http://www.w3.org/Graphics/SVG/1.1/DTD/svg11.dtd">
<!-- Generated by graphviz version 2.36.0 (20140111.2315)
 -->
<!-- Title: View.SlogoView.updateCommandHistory Pages: 1 -->
<svg width="1076pt" height="87pt"
 viewBox="0.00 0.00 1076.00 87.00" xmlns="http://www.w3.org/2000/svg" xmlns:xlink="http://www.w3.org/1999/xlink">
<g id="graph0" class="graph" transform="scale(1 1) rotate(0) translate(4 83)">
<title>View.SlogoView.updateCommandHistory</title>
<polygon fill="white" stroke="none" points="-4,4 -4,-83 1072,-83 1072,4 -4,4"/>
<!-- Node1 -->
<g id="node1" class="node"><title>Node1</title>
<polygon fill="#bfbfbf" stroke="black" points="0,-27 0,-57 176,-57 176,-27 0,-27"/>
<text text-anchor="start" x="8" y="-45" font-family="Helvetica,sans-Serif" font-size="10.00">View.SlogoView.updateCommand</text>
<text text-anchor="middle" x="88" y="-34" font-family="Helvetica,sans-Serif" font-size="10.00">History</text>
</g>
<!-- Node2 -->
<g id="node2" class="node"><title>Node2</title>
<g id="a_node2"><a xlink:href="../../d6/d33/class_view_1_1_slogo_view.html#acaa2b33418cebb60111d0acfef03e832" target="_top" xlink:title="View.SlogoView.executeUser\lCommand">
<polygon fill="white" stroke="black" points="425,-49 425,-79 577,-79 577,-49 425,-49"/>
<text text-anchor="start" x="433" y="-67" font-family="Helvetica,sans-Serif" font-size="10.00">View.SlogoView.executeUser</text>
<text text-anchor="middle" x="501" y="-56" font-family="Helvetica,sans-Serif" font-size="10.00">Command</text>
</a>
</g>
</g>
<!-- Node1&#45;&gt;Node2 -->
<g id="edge1" class="edge"><title>Node1&#45;&gt;Node2</title>
<path fill="none" stroke="midnightblue" d="M186.283,-47.2074C259.245,-51.1129 357.672,-56.3815 424.691,-59.9689"/>
<polygon fill="midnightblue" stroke="midnightblue" points="186.335,-43.7052 176.163,-46.6656 185.961,-50.6952 186.335,-43.7052"/>
</g>
<!-- Node3 -->
<g id="node3" class="node"><title>Node3</title>
<g id="a_node3"><a xlink:href="../../d6/d33/class_view_1_1_slogo_view.html#a1a67765bb114e471855080a9938049a7" target="_top" xlink:title="View.SlogoView.sendCommand\lAndMakeButton">
<polygon fill="white" stroke="black" points="212.5,-5 212.5,-35 377.5,-35 377.5,-5 212.5,-5"/>
<text text-anchor="start" x="220.5" y="-23" font-family="Helvetica,sans-Serif" font-size="10.00">View.SlogoView.sendCommand</text>
<text text-anchor="middle" x="295" y="-12" font-family="Helvetica,sans-Serif" font-size="10.00">AndMakeButton</text>
</a>
</g>
</g>
<!-- Node1&#45;&gt;Node3 -->
<g id="edge2" class="edge"><title>Node1&#45;&gt;Node3</title>
<path fill="none" stroke="midnightblue" d="M186.403,-31.547C195.095,-30.6142 203.837,-29.676 212.377,-28.7596"/>
<polygon fill="midnightblue" stroke="midnightblue" points="185.805,-28.091 176.236,-32.6381 186.552,-35.051 185.805,-28.091"/>
</g>
<!-- Node3&#45;&gt;Node2 -->
<g id="edge7" class="edge"><title>Node3&#45;&gt;Node2</title>
<path fill="none" stroke="midnightblue" d="M375.56,-37.1601C393.637,-41.059 412.704,-45.1714 430.333,-48.9738"/>
<polygon fill="midnightblue" stroke="midnightblue" points="376.148,-33.7064 365.635,-35.0192 374.672,-40.549 376.148,-33.7064"/>
</g>
<!-- Node4 -->
<g id="node4" class="node"><title>Node4</title>
<g id="a_node4"><a xlink:href="../../d6/d33/class_view_1_1_slogo_view.html#a468acf266470c356f2f36e7eb2f327e8" target="_top" xlink:title="View.SlogoView.createCommand\lLineWithLabel">
<polygon fill="white" stroke="black" points="414.5,-0 414.5,-30 587.5,-30 587.5,-0 414.5,-0"/>
<text text-anchor="start" x="422.5" y="-18" font-family="Helvetica,sans-Serif" font-size="10.00">View.SlogoView.createCommand</text>
<text text-anchor="middle" x="501" y="-7" font-family="Helvetica,sans-Serif" font-size="10.00">LineWithLabel</text>
</a>
</g>
</g>
<!-- Node3&#45;&gt;Node4 -->
<g id="edge3" class="edge"><title>Node3&#45;&gt;Node4</title>
<path fill="none" stroke="midnightblue" d="M387.504,-17.7573C396.414,-17.5389 405.431,-17.3179 414.281,-17.101"/>
<polygon fill="midnightblue" stroke="midnightblue" points="387.417,-14.2582 377.506,-18.0023 387.588,-21.2561 387.417,-14.2582"/>
</g>
<!-- Node5 -->
<g id="node5" class="node"><title>Node5</title>
<g id="a_node5"><a xlink:href="../../d6/d33/class_view_1_1_slogo_view.html#ac64a43649ed5417854c37ec25320e925" target="_top" xlink:title="View.SlogoView.setTextArea">
<polygon fill="white" stroke="black" points="624,-5.5 624,-24.5 772,-24.5 772,-5.5 624,-5.5"/>
<text text-anchor="middle" x="698" y="-12.5" font-family="Helvetica,sans-Serif" font-size="10.00">View.SlogoView.setTextArea</text>
</a>
</g>
</g>
<!-- Node4&#45;&gt;Node5 -->
<g id="edge4" class="edge"><title>Node4&#45;&gt;Node5</title>
<path fill="none" stroke="midnightblue" d="M597.76,-15C606.497,-15 615.252,-15 623.745,-15"/>
<polygon fill="midnightblue" stroke="midnightblue" points="597.53,-11.5001 587.53,-15 597.53,-18.5001 597.53,-11.5001"/>
</g>
<!-- Node6 -->
<g id="node6" class="node"><title>Node6</title>
<g id="a_node6"><a xlink:href="../../d6/d33/class_view_1_1_slogo_view.html#acfeff052503655d2ac419d2bf4ea9bd5" target="_top" xlink:title="View.SlogoView.initialize">
<polygon fill="white" stroke="black" points="808,-5.5 808,-24.5 938,-24.5 938,-5.5 808,-5.5"/>
<text text-anchor="middle" x="873" y="-12.5" font-family="Helvetica,sans-Serif" font-size="10.00">View.SlogoView.initialize</text>
</a>
</g>
</g>
<!-- Node5&#45;&gt;Node6 -->
<g id="edge5" class="edge"><title>Node5&#45;&gt;Node6</title>
<path fill="none" stroke="midnightblue" d="M782.216,-15C790.853,-15 799.534,-15 807.914,-15"/>
<polygon fill="midnightblue" stroke="midnightblue" points="782.117,-11.5001 772.117,-15 782.117,-18.5001 782.117,-11.5001"/>
</g>
<!-- Node7 -->
<g id="node7" class="node"><title>Node7</title>
<g id="a_node7"><a xlink:href="../../db/d27/class_view_1_1_slogo.html#a6ab76a53160b61d8501aec91c55b85c8" target="_top" xlink:title="View.Slogo.start">
<polygon fill="white" stroke="black" points="974.5,-5.5 974.5,-24.5 1067.5,-24.5 1067.5,-5.5 974.5,-5.5"/>
<text text-anchor="middle" x="1021" y="-12.5" font-family="Helvetica,sans-Serif" font-size="10.00">View.Slogo.start</text>
</a>
</g>
</g>
<!-- Node6&#45;&gt;Node7 -->
<g id="edge6" class="edge"><title>Node6&#45;&gt;Node7</title>
<path fill="none" stroke="midnightblue" d="M948.142,-15C957.108,-15 966.051,-15 974.43,-15"/>
<polygon fill="midnightblue" stroke="midnightblue" points="948.038,-11.5001 938.038,-15 948.038,-18.5001 948.038,-11.5001"/>
</g>
</g>
</svg>
