<?xml version="1.0" encoding="UTF-8" standalone="no"?>
<!DOCTYPE svg PUBLIC "-//W3C//DTD SVG 1.1//EN"
 "http://www.w3.org/Graphics/SVG/1.1/DTD/svg11.dtd">
<!-- Generated by graphviz version 2.36.0 (20140111.2315)
 -->
<!-- Title: View.SetPalette Pages: 1 -->
<!--zoomable 311 -->
<svg id="main" version="1.1" xmlns="http://www.w3.org/2000/svg" xmlns:xlink="http://www.w3.org/1999/xlink" xml:space="preserve" onload="init(evt)">
<style type="text/css"><![CDATA[
.edge:hover path { stroke: red; }
.edge:hover polygon { stroke: red; fill: red; }
]]></style>
<script type="text/javascript"><![CDATA[
var edges = document.getElementsByTagName('g');
if (edges && edges.length) {
  for (var i=0;i<edges.length;i++) {
    if (edges[i].id.substr(0,4)=='edge') {
      edges[i].setAttribute('class','edge');
    }
  }
}
]]></script>
        <defs>
                <circle id="rim" cx="0" cy="0" r="7"/>
                <circle id="rim2" cx="0" cy="0" r="3.5"/>
                <g id="zoomPlus">
                        <use xlink:href="#rim" fill="#404040">
                                <set attributeName="fill" to="#808080" begin="zoomplus.mouseover" end="zoomplus.mouseout"/>
                        </use>
                        <path d="M-4,0h8M0,-4v8" fill="none" stroke="white" stroke-width="1.5" pointer-events="none"/>
                </g>
                <g id="zoomMin">
                        <use xlink:href="#rim" fill="#404040">
                                <set attributeName="fill" to="#808080" begin="zoomminus.mouseover" end="zoomminus.mouseout"/>
                        </use>
                        <path d="M-4,0h8" fill="none" stroke="white" stroke-width="1.5" pointer-events="none"/>
                </g>
                <g id="dirArrow">
                        <path fill="none" stroke="white" stroke-width="1.5" d="M0,-3.0v7 M-2.5,-0.5L0,-3.0L2.5,-0.5"/>
                </g>
               <g id="resetDef">
                       <use xlink:href="#rim2" fill="#404040">
                               <set attributeName="fill" to="#808080" begin="reset.mouseover" end="reset.mouseout"/>
                       </use>
               </g>
        </defs>

<script type="text/javascript">
var viewWidth = 1318;
var viewHeight = 311;
var sectionId = 'dynsection-1';
</script>
<script xlink:href="../../svgpan.js"/>
<svg id="graph" class="graph">
<g id="viewport">
<title>View.SetPalette</title>
<polygon fill="white" stroke="none" points="-4,4 -4,-307 1314,-307 1314,4 -4,4"/>
<!-- Node1 -->
<g id="node1" class="node"><title>Node1</title>
<polygon fill="#bfbfbf" stroke="black" points="1220,-146.5 1220,-165.5 1310,-165.5 1310,-146.5 1220,-146.5"/>
<text text-anchor="middle" x="1265" y="-153.5" font-family="Helvetica,sans-Serif" font-size="10.00">View.SetPalette</text>
</g>
<!-- Node2 -->
<g id="node2" class="node"><title>Node2</title>
<g id="a_node2"><a xlink:href="../../de/dbd/class_g_u_i_functions_1_1_grid_function.html" target="_top" xlink:title="GUIFunctions.GridFunction">
<polygon fill="white" stroke="black" points="992.5,-179.5 992.5,-198.5 1133.5,-198.5 1133.5,-179.5 992.5,-179.5"/>
<text text-anchor="middle" x="1063" y="-186.5" font-family="Helvetica,sans-Serif" font-size="10.00">GUIFunctions.GridFunction</text>
</a>
</g>
</g>
<!-- Node2&#45;&gt;Node1 -->
<g id="edge1" class="edge"><title>Node2&#45;&gt;Node1</title>
<path fill="none" stroke="midnightblue" d="M1131.68,-177.832C1160.78,-173.031 1193.97,-167.555 1219.83,-163.288"/>
<polygon fill="midnightblue" stroke="midnightblue" points="1130.88,-174.418 1121.58,-179.499 1132.02,-181.325 1130.88,-174.418"/>
</g>
<!-- Node3 -->
<g id="node3" class="node"><title>Node3</title>
<g id="a_node3"><a xlink:href="../../d1/df5/interface_g_u_i_functions_1_1_g_u_i_function.html" target="_top" xlink:title="GUIFunctions.GUIFunction">
<polygon fill="white" stroke="black" points="758.5,-211.5 758.5,-230.5 897.5,-230.5 897.5,-211.5 758.5,-211.5"/>
<text text-anchor="middle" x="828" y="-218.5" font-family="Helvetica,sans-Serif" font-size="10.00">GUIFunctions.GUIFunction</text>
</a>
</g>
</g>
<!-- Node3&#45;&gt;Node2 -->
<g id="edge2" class="edge"><title>Node3&#45;&gt;Node2</title>
<path fill="none" stroke="midnightblue" d="M907.698,-210.926C929.207,-208.108 952.509,-204.995 974,-202 981.801,-200.913 989.986,-199.743 998.093,-198.566"/>
<polygon fill="midnightblue" stroke="midnightblue" points="907.09,-207.476 897.628,-212.242 907.997,-214.417 907.09,-207.476"/>
</g>
<!-- Node4 -->
<g id="node4" class="node"><title>Node4</title>
<g id="a_node4"><a xlink:href="../../d7/d98/class_view_1_1_grid_tracker.html" target="_top" xlink:title="View.GridTracker">
<polygon fill="white" stroke="black" points="781,-173.5 781,-192.5 875,-192.5 875,-173.5 781,-173.5"/>
<text text-anchor="middle" x="828" y="-180.5" font-family="Helvetica,sans-Serif" font-size="10.00">View.GridTracker</text>
</a>
</g>
</g>
<!-- Node4&#45;&gt;Node2 -->
<g id="edge3" class="edge"><title>Node4&#45;&gt;Node2</title>
<path fill="none" stroke="#9a32cd" stroke-dasharray="5,2" d="M885.16,-184.446C917.327,-185.275 957.971,-186.321 992.181,-187.202"/>
<polygon fill="#9a32cd" stroke="#9a32cd" points="885.12,-180.944 875.033,-184.185 884.94,-187.942 885.12,-180.944"/>
<text text-anchor="middle" x="949" y="-190" font-family="Helvetica,sans-Serif" font-size="10.00"> allGrids</text>
</g>
<!-- Node15 -->
<g id="node15" class="node"><title>Node15</title>
<g id="a_node15"><a xlink:href="../../da/d31/class_view_1_1_color_selection.html" target="_top" xlink:title="View.ColorSelection">
<polygon fill="white" stroke="black" points="1008,-86.5 1008,-105.5 1118,-105.5 1118,-86.5 1008,-86.5"/>
<text text-anchor="middle" x="1063" y="-93.5" font-family="Helvetica,sans-Serif" font-size="10.00">View.ColorSelection</text>
</a>
</g>
</g>
<!-- Node4&#45;&gt;Node15 -->
<g id="edge19" class="edge"><title>Node4&#45;&gt;Node15</title>
<path fill="none" stroke="#9a32cd" stroke-dasharray="5,2" d="M864.366,-169.795C911.734,-152.108 994.647,-121.149 1036.41,-105.554"/>
<polygon fill="#9a32cd" stroke="#9a32cd" points="862.969,-166.58 854.825,-173.357 865.418,-173.138 862.969,-166.58"/>
<text text-anchor="middle" x="949" y="-151" font-family="Helvetica,sans-Serif" font-size="10.00"> myGrids</text>
</g>
<!-- Node5 -->
<g id="node5" class="node"><title>Node5</title>
<polygon fill="white" stroke="#bfbfbf" points="542,-212 542,-242 646,-242 646,-212 542,-212"/>
<text text-anchor="start" x="550" y="-230" font-family="Helvetica,sans-Serif" font-size="10.00">java::util::HashSet</text>
<text text-anchor="middle" x="594" y="-219" font-family="Helvetica,sans-Serif" font-size="10.00">&lt; Grid &gt;</text>
</g>
<!-- Node5&#45;&gt;Node4 -->
<g id="edge4" class="edge"><title>Node5&#45;&gt;Node4</title>
<path fill="none" stroke="midnightblue" d="M656.376,-215.36C695.348,-207.968 744.981,-198.555 780.655,-191.79"/>
<polygon fill="midnightblue" stroke="midnightblue" points="655.373,-211.987 646.201,-217.29 656.678,-218.865 655.373,-211.987"/>
</g>
<!-- Node6 -->
<g id="node6" class="node"><title>Node6</title>
<g id="a_node6"><a xlink:href="../../d9/db1/class_view_1_1_single_grid.html" target="_top" xlink:title="View.SingleGrid">
<polygon fill="white" stroke="black" points="549.5,-173.5 549.5,-192.5 638.5,-192.5 638.5,-173.5 549.5,-173.5"/>
<text text-anchor="middle" x="594" y="-180.5" font-family="Helvetica,sans-Serif" font-size="10.00">View.SingleGrid</text>
</a>
</g>
</g>
<!-- Node6&#45;&gt;Node4 -->
<g id="edge5" class="edge"><title>Node6&#45;&gt;Node4</title>
<path fill="none" stroke="#9a32cd" stroke-dasharray="5,2" d="M648.739,-183C688.719,-183 742.72,-183 780.776,-183"/>
<polygon fill="#9a32cd" stroke="#9a32cd" points="648.637,-179.5 638.637,-183 648.637,-186.5 648.637,-179.5"/>
<text text-anchor="middle" x="698" y="-186" font-family="Helvetica,sans-Serif" font-size="10.00"> myActiveGrid</text>
</g>
<!-- Node7 -->
<g id="node7" class="node"><title>Node7</title>
<g id="a_node7"><a xlink:href="../../d0/d92/class_view_1_1_grid.html" target="_top" xlink:title="View.Grid">
<polygon fill="white" stroke="black" points="287,-240.5 287,-259.5 347,-259.5 347,-240.5 287,-240.5"/>
<text text-anchor="middle" x="317" y="-247.5" font-family="Helvetica,sans-Serif" font-size="10.00">View.Grid</text>
</a>
</g>
</g>
<!-- Node7&#45;&gt;Node6 -->
<g id="edge6" class="edge"><title>Node7&#45;&gt;Node6</title>
<path fill="none" stroke="midnightblue" d="M357.217,-254.638C400.969,-257.869 472.373,-257.179 524,-227 535.82,-220.091 531.115,-210.304 542,-202 546.958,-198.218 552.749,-195.123 558.615,-192.612"/>
<polygon fill="midnightblue" stroke="midnightblue" points="357.511,-251.151 347.253,-253.799 356.924,-258.126 357.511,-251.151"/>
</g>
<!-- Node8 -->
<g id="node8" class="node"><title>Node8</title>
<polygon fill="white" stroke="#bfbfbf" points="54,-130.5 54,-149.5 94,-149.5 94,-130.5 54,-130.5"/>
<text text-anchor="middle" x="74" y="-137.5" font-family="Helvetica,sans-Serif" font-size="10.00">Pane</text>
</g>
<!-- Node8&#45;&gt;Node7 -->
<g id="edge7" class="edge"><title>Node8&#45;&gt;Node7</title>
<path fill="none" stroke="midnightblue" d="M96.4395,-155.552C125.369,-175.824 179.154,-211.035 230,-231 248.218,-238.153 269.718,-242.903 286.663,-245.865"/>
<polygon fill="midnightblue" stroke="midnightblue" points="98.1367,-152.465 87.9554,-149.534 94.0866,-158.175 98.1367,-152.465"/>
</g>
<!-- Node8&#45;&gt;Node15 -->
<g id="edge15" class="edge"><title>Node8&#45;&gt;Node15</title>
<path fill="none" stroke="midnightblue" d="M103.646,-129.27C148.329,-113.523 237.635,-86 316,-86 316,-86 316,-86 829,-86 890.34,-86 960.681,-89.5022 1007.89,-92.3615"/>
<polygon fill="midnightblue" stroke="midnightblue" points="102.272,-126.045 94.0424,-132.717 104.637,-132.633 102.272,-126.045"/>
</g>
<!-- Node9 -->
<g id="node9" class="node"><title>Node9</title>
<polygon fill="white" stroke="#bfbfbf" points="2,-221.5 2,-240.5 146,-240.5 146,-221.5 2,-221.5"/>
<text text-anchor="middle" x="74" y="-228.5" font-family="Helvetica,sans-Serif" font-size="10.00">HashMap&lt; String, Class &gt;</text>
</g>
<!-- Node9&#45;&gt;Node7 -->
<g id="edge8" class="edge"><title>Node9&#45;&gt;Node7</title>
<path fill="none" stroke="#9a32cd" stroke-dasharray="5,2" d="M156.26,-232.66C174.613,-233.398 193.992,-234.463 212,-236 237.413,-238.169 266.134,-242.153 286.945,-245.318"/>
<polygon fill="#9a32cd" stroke="#9a32cd" points="156.31,-229.159 146.186,-232.283 156.048,-236.155 156.31,-229.159"/>
<text text-anchor="middle" x="189" y="-239" font-family="Helvetica,sans-Serif" font-size="10.00"> myMap</text>
</g>
<!-- Node10 -->
<g id="node10" class="node"><title>Node10</title>
<polygon fill="white" stroke="#bfbfbf" points="0.5,-259.5 0.5,-278.5 147.5,-278.5 147.5,-259.5 0.5,-259.5"/>
<text text-anchor="middle" x="74" y="-266.5" font-family="Helvetica,sans-Serif" font-size="10.00">EventHandler&lt; KeyEvent &gt;</text>
</g>
<!-- Node10&#45;&gt;Node7 -->
<g id="edge9" class="edge"><title>Node10&#45;&gt;Node7</title>
<path fill="none" stroke="#9a32cd" stroke-dasharray="5,2" d="M157.645,-262.484C202.403,-258.956 254.916,-254.816 286.807,-252.301"/>
<polygon fill="#9a32cd" stroke="#9a32cd" points="157.329,-258.998 147.635,-263.274 157.879,-265.977 157.329,-258.998"/>
<text text-anchor="middle" x="189" y="-265" font-family="Helvetica,sans-Serif" font-size="10.00"> myEvent</text>
</g>
<!-- Node11 -->
<g id="node11" class="node"><title>Node11</title>
<polygon fill="white" stroke="#bfbfbf" points="250,-202.5 250,-221.5 384,-221.5 384,-202.5 250,-202.5"/>
<text text-anchor="middle" x="317" y="-209.5" font-family="Helvetica,sans-Serif" font-size="10.00">HashSet&lt; turtle.Turtle &gt;</text>
</g>
<!-- Node11&#45;&gt;Node6 -->
<g id="edge10" class="edge"><title>Node11&#45;&gt;Node6</title>
<path fill="none" stroke="#9a32cd" stroke-dasharray="5,2" d="M394.33,-203.951C444.235,-198.688 507.644,-192.001 549.227,-187.616"/>
<polygon fill="#9a32cd" stroke="#9a32cd" points="393.797,-200.487 384.219,-205.017 394.531,-207.449 393.797,-200.487"/>
<text text-anchor="middle" x="473" y="-215" font-family="Helvetica,sans-Serif" font-size="10.00"> allTurtles</text>
<text text-anchor="middle" x="473" y="-204" font-family="Helvetica,sans-Serif" font-size="10.00">activeTurtles</text>
</g>
<!-- Node12 -->
<g id="node12" class="node"><title>Node12</title>
<polygon fill="white" stroke="#bfbfbf" points="230.5,-153 230.5,-183 403.5,-183 403.5,-153 230.5,-153"/>
<text text-anchor="start" x="238.5" y="-171" font-family="Helvetica,sans-Serif" font-size="10.00">HashMap&lt; String, GUIFunctions.</text>
<text text-anchor="middle" x="317" y="-160" font-family="Helvetica,sans-Serif" font-size="10.00">GUIFunction &gt;</text>
</g>
<!-- Node12&#45;&gt;Node6 -->
<g id="edge11" class="edge"><title>Node12&#45;&gt;Node6</title>
<path fill="none" stroke="#9a32cd" stroke-dasharray="5,2" d="M413.828,-173.026C448.536,-174.871 488.036,-176.997 524,-179 532.147,-179.454 540.834,-179.949 549.2,-180.431"/>
<polygon fill="#9a32cd" stroke="#9a32cd" points="413.87,-169.523 403.698,-172.489 413.499,-176.514 413.87,-169.523"/>
<text text-anchor="middle" x="473" y="-182" font-family="Helvetica,sans-Serif" font-size="10.00"> myGridFunctions</text>
</g>
<!-- Node13 -->
<g id="node13" class="node"><title>Node13</title>
<polygon fill="white" stroke="#bfbfbf" points="283,-114.5 283,-133.5 351,-133.5 351,-114.5 283,-114.5"/>
<text text-anchor="middle" x="317" y="-121.5" font-family="Helvetica,sans-Serif" font-size="10.00">ImageView</text>
</g>
<!-- Node13&#45;&gt;Node6 -->
<g id="edge12" class="edge"><title>Node13&#45;&gt;Node6</title>
<path fill="none" stroke="#9a32cd" stroke-dasharray="5,2" d="M361.333,-129.227C403.326,-134.792 468.613,-144.768 524,-159 539.109,-162.882 555.628,-168.575 568.714,-173.441"/>
<polygon fill="#9a32cd" stroke="#9a32cd" points="361.547,-125.726 351.179,-127.907 360.645,-132.667 361.547,-125.726"/>
<text text-anchor="middle" x="473" y="-162" font-family="Helvetica,sans-Serif" font-size="10.00"> myImageView</text>
</g>
<!-- Node14 -->
<g id="node14" class="node"><title>Node14</title>
<polygon fill="white" stroke="#bfbfbf" points="283,-278.5 283,-297.5 351,-297.5 351,-278.5 283,-278.5"/>
<text text-anchor="middle" x="317" y="-285.5" font-family="Helvetica,sans-Serif" font-size="10.00">Dimension</text>
</g>
<!-- Node14&#45;&gt;Node6 -->
<g id="edge13" class="edge"><title>Node14&#45;&gt;Node6</title>
<path fill="none" stroke="#9a32cd" stroke-dasharray="5,2" d="M361.32,-293.137C407.057,-296.075 478.681,-293.258 524,-255 543.009,-238.953 524.668,-219.846 542,-202 545.752,-198.136 550.362,-195.051 555.261,-192.59"/>
<polygon fill="#9a32cd" stroke="#9a32cd" points="361.365,-289.631 351.128,-292.36 360.833,-296.611 361.365,-289.631"/>
<text text-anchor="middle" x="473" y="-295" font-family="Helvetica,sans-Serif" font-size="10.00"> DEFAULT_GRID_SIZE</text>
</g>
<!-- Node15&#45;&gt;Node1 -->
<g id="edge14" class="edge"><title>Node15&#45;&gt;Node1</title>
<path fill="none" stroke="#9a32cd" stroke-dasharray="5,2" d="M1105.34,-108.403C1142.99,-119.696 1197.78,-136.133 1232.13,-146.438"/>
<polygon fill="#9a32cd" stroke="#9a32cd" points="1106.27,-105.028 1095.69,-105.507 1104.26,-111.733 1106.27,-105.028"/>
<text text-anchor="middle" x="1177" y="-140" font-family="Helvetica,sans-Serif" font-size="10.00"> myColors</text>
</g>
<!-- Node16 -->
<g id="node16" class="node"><title>Node16</title>
<polygon fill="white" stroke="#bfbfbf" points="773,-0.5 773,-19.5 883,-19.5 883,-0.5 773,-0.5"/>
<text text-anchor="middle" x="828" y="-7.5" font-family="Helvetica,sans-Serif" font-size="10.00">ArrayList&lt; String &gt;</text>
</g>
<!-- Node16&#45;&gt;Node15 -->
<g id="edge16" class="edge"><title>Node16&#45;&gt;Node15</title>
<path fill="none" stroke="#9a32cd" stroke-dasharray="5,2" d="M893.172,-16.8681C918.949,-21.0314 948.531,-27.6274 974,-38 1003.99,-50.2156 1034.58,-73.2658 1050.6,-86.3288"/>
<polygon fill="#9a32cd" stroke="#9a32cd" points="893.54,-13.3839 883.127,-15.3357 892.484,-20.3038 893.54,-13.3839"/>
<text text-anchor="middle" x="949" y="-41" font-family="Helvetica,sans-Serif" font-size="10.00"> myColors</text>
</g>
<!-- Node17 -->
<g id="node17" class="node"><title>Node17</title>
<polygon fill="white" stroke="#bfbfbf" points="750.5,-114.5 750.5,-133.5 905.5,-133.5 905.5,-114.5 750.5,-114.5"/>
<text text-anchor="middle" x="828" y="-121.5" font-family="Helvetica,sans-Serif" font-size="10.00">HashSet&lt; View.ColorLabel &gt;</text>
</g>
<!-- Node17&#45;&gt;Node15 -->
<g id="edge17" class="edge"><title>Node17&#45;&gt;Node15</title>
<path fill="none" stroke="#9a32cd" stroke-dasharray="5,2" d="M915.94,-113.552C946.759,-109.849 980.533,-105.79 1007.83,-102.509"/>
<polygon fill="#9a32cd" stroke="#9a32cd" points="915.127,-110.125 905.616,-114.793 915.962,-117.075 915.127,-110.125"/>
<text text-anchor="middle" x="949" y="-116" font-family="Helvetica,sans-Serif" font-size="10.00"> myLabels</text>
</g>
<!-- Node18 -->
<g id="node18" class="node"><title>Node18</title>
<polygon fill="white" stroke="#bfbfbf" points="807,-38.5 807,-57.5 849,-57.5 849,-38.5 807,-38.5"/>
<text text-anchor="middle" x="828" y="-45.5" font-family="Helvetica,sans-Serif" font-size="10.00">HBox</text>
</g>
<!-- Node18&#45;&gt;Node15 -->
<g id="edge18" class="edge"><title>Node18&#45;&gt;Node15</title>
<path fill="none" stroke="#9a32cd" stroke-dasharray="5,2" d="M859.603,-48.1915C889.235,-48.972 935.243,-51.7623 974,-61 998.47,-66.8325 1025.12,-78.1951 1042.61,-86.3942"/>
<polygon fill="#9a32cd" stroke="#9a32cd" points="859.539,-44.6896 849.47,-47.9867 859.398,-51.6882 859.539,-44.6896"/>
<text text-anchor="middle" x="949" y="-64" font-family="Helvetica,sans-Serif" font-size="10.00"> colorBox</text>
</g>
</g>
</svg>
        <g id="navigator" transform="translate(0 0)" fill="#404254">
                <rect fill="#f2f5e9" fill-opacity="0.5" stroke="#606060" stroke-width=".5" x="0" y="0" width="60" height="60"/>
                <use id="zoomplus" xlink:href="#zoomPlus" x="17" y="9" onmousedown="handleZoom(evt,'in')"/>
                <use id="zoomminus" xlink:href="#zoomMin" x="42" y="9" onmousedown="handleZoom(evt,'out')"/>
                <use id="reset" xlink:href="#resetDef" x="30" y="36" onmousedown="handleReset()"/>
                <g id="arrowUp" xlink:href="#dirArrow" transform="translate(30 24)" onmousedown="handlePan(0,-1)">
                  <use xlink:href="#rim" fill="#404040">
                        <set attributeName="fill" to="#808080" begin="arrowUp.mouseover" end="arrowUp.mouseout"/>
                  </use>
                  <path fill="none" stroke="white" stroke-width="1.5" d="M0,-3.0v7 M-2.5,-0.5L0,-3.0L2.5,-0.5"/>
                </g>
                <g id="arrowRight" xlink:href="#dirArrow" transform="rotate(90) translate(36 -43)" onmousedown="handlePan(1,0)">
                  <use xlink:href="#rim" fill="#404040">
                        <set attributeName="fill" to="#808080" begin="arrowRight.mouseover" end="arrowRight.mouseout"/>
                  </use>
                  <path fill="none" stroke="white" stroke-width="1.5" d="M0,-3.0v7 M-2.5,-0.5L0,-3.0L2.5,-0.5"/>
                </g>
                <g id="arrowDown" xlink:href="#dirArrow" transform="rotate(180) translate(-30 -48)" onmousedown="handlePan(0,1)">
                  <use xlink:href="#rim" fill="#404040">
                        <set attributeName="fill" to="#808080" begin="arrowDown.mouseover" end="arrowDown.mouseout"/>
                  </use>
                  <path fill="none" stroke="white" stroke-width="1.5" d="M0,-3.0v7 M-2.5,-0.5L0,-3.0L2.5,-0.5"/>
                </g>
                <g id="arrowLeft" xlink:href="#dirArrow" transform="rotate(270) translate(-36 17)" onmousedown="handlePan(-1,0)">
                  <use xlink:href="#rim" fill="#404040">
                        <set attributeName="fill" to="#808080" begin="arrowLeft.mouseover" end="arrowLeft.mouseout"/>
                  </use>
                  <path fill="none" stroke="white" stroke-width="1.5" d="M0,-3.0v7 M-2.5,-0.5L0,-3.0L2.5,-0.5"/>
                </g>
        </g>
        <svg viewBox="0 0 15 15" width="100%" height="30px" preserveAspectRatio="xMaxYMin meet">
         <g id="arrow_out" transform="scale(0.3 0.3)">
          <a xlink:href="class_view_1_1_set_palette__coll__graph_org.svg" target="_base">
           <rect id="button" ry="5" rx="5" y="6" x="6" height="38" width="38"
                fill="#f2f5e9" fill-opacity="0.5" stroke="#606060" stroke-width="1.0"/>
           <path id="arrow"
             d="M 11.500037,31.436501 C 11.940474,20.09759 22.043105,11.32322 32.158766,21.979434 L 37.068811,17.246167 C 37.068811,17.246167 37.088388,32 37.088388,32 L 22.160133,31.978069 C 22.160133,31.978069 26.997745,27.140456 26.997745,27.140456 C 18.528582,18.264221 13.291696,25.230495 11.500037,31.436501 z"
             style="fill:#404040;"/>
          </a>
         </g>
        </svg>
</svg>
