<?xml version="1.0" encoding="UTF-8" standalone="no"?>
<!DOCTYPE svg PUBLIC "-//W3C//DTD SVG 1.1//EN"
 "http://www.w3.org/Graphics/SVG/1.1/DTD/svg11.dtd">
<!-- Generated by graphviz version 2.36.0 (20140111.2315)
 -->
<!-- Title: commands.turtleCommands.TurtleCommand Pages: 1 -->
<svg width="890pt" height="622pt"
 viewBox="0.00 0.00 890.00 622.00" xmlns="http://www.w3.org/2000/svg" xmlns:xlink="http://www.w3.org/1999/xlink">
<g id="graph0" class="graph" transform="scale(1 1) rotate(0) translate(4 618)">
<title>commands.turtleCommands.TurtleCommand</title>
<polygon fill="white" stroke="none" points="-4,4 -4,-618 886,-618 886,4 -4,4"/>
<!-- Node1 -->
<g id="node1" class="node"><title>Node1</title>
<polygon fill="#bfbfbf" stroke="black" points="292,-313 292,-343 450,-343 450,-313 292,-313"/>
<text text-anchor="start" x="300" y="-331" font-family="Helvetica,sans-Serif" font-size="10.00">commands.turtleCommands.</text>
<text text-anchor="middle" x="371" y="-320" font-family="Helvetica,sans-Serif" font-size="10.00">TurtleCommand</text>
</g>
<!-- Node4 -->
<g id="node4" class="node"><title>Node4</title>
<g id="a_node4"><a xlink:href="../../d5/d06/classcommands_1_1turtle_commands_1_1_ask_with_command.html" target="_top" xlink:title="commands.turtleCommands.\lAskWithCommand">
<polygon fill="white" stroke="black" points="496,-583 496,-613 654,-613 654,-583 496,-583"/>
<text text-anchor="start" x="504" y="-601" font-family="Helvetica,sans-Serif" font-size="10.00">commands.turtleCommands.</text>
<text text-anchor="middle" x="575" y="-590" font-family="Helvetica,sans-Serif" font-size="10.00">AskWithCommand</text>
</a>
</g>
</g>
<!-- Node1&#45;&gt;Node4 -->
<g id="edge3" class="edge"><title>Node1&#45;&gt;Node4</title>
<path fill="none" stroke="midnightblue" d="M376.448,-352.856C386.627,-402.357 416.324,-513.59 486,-573 490.472,-576.813 495.489,-580.046 500.801,-582.787"/>
<polygon fill="midnightblue" stroke="midnightblue" points="379.875,-352.141 374.515,-343.002 373.006,-353.488 379.875,-352.141"/>
</g>
<!-- Node5 -->
<g id="node5" class="node"><title>Node5</title>
<g id="a_node5"><a xlink:href="../../df/d1b/classcommands_1_1turtle_commands_1_1_back_command.html" target="_top" xlink:title="commands.turtleCommands.\lBackCommand">
<polygon fill="white" stroke="black" points="496,-534 496,-564 654,-564 654,-534 496,-534"/>
<text text-anchor="start" x="504" y="-552" font-family="Helvetica,sans-Serif" font-size="10.00">commands.turtleCommands.</text>
<text text-anchor="middle" x="575" y="-541" font-family="Helvetica,sans-Serif" font-size="10.00">BackCommand</text>
</a>
</g>
</g>
<!-- Node1&#45;&gt;Node5 -->
<g id="edge4" class="edge"><title>Node1&#45;&gt;Node5</title>
<path fill="none" stroke="midnightblue" d="M379.575,-352.797C393.614,-394.536 427.678,-478.699 486,-524 491.017,-527.897 496.615,-531.187 502.489,-533.963"/>
<polygon fill="midnightblue" stroke="midnightblue" points="382.858,-351.574 376.435,-343.148 376.202,-353.741 382.858,-351.574"/>
</g>
<!-- Node6 -->
<g id="node6" class="node"><title>Node6</title>
<g id="a_node6"><a xlink:href="../../da/db6/classcommands_1_1turtle_commands_1_1_forward_command.html" target="_top" xlink:title="commands.turtleCommands.\lForwardCommand">
<polygon fill="white" stroke="black" points="496,-485 496,-515 654,-515 654,-485 496,-485"/>
<text text-anchor="start" x="504" y="-503" font-family="Helvetica,sans-Serif" font-size="10.00">commands.turtleCommands.</text>
<text text-anchor="middle" x="575" y="-492" font-family="Helvetica,sans-Serif" font-size="10.00">ForwardCommand</text>
</a>
</g>
</g>
<!-- Node1&#45;&gt;Node6 -->
<g id="edge5" class="edge"><title>Node1&#45;&gt;Node6</title>
<path fill="none" stroke="midnightblue" d="M384.189,-351.95C402.068,-384.667 438.499,-442.921 486,-475 491.66,-478.822 497.901,-482.066 504.368,-484.817"/>
<polygon fill="midnightblue" stroke="midnightblue" points="387.239,-350.233 379.444,-343.058 381.064,-353.528 387.239,-350.233"/>
</g>
<!-- Node7 -->
<g id="node7" class="node"><title>Node7</title>
<g id="a_node7"><a xlink:href="../../db/d66/classcommands_1_1turtle_commands_1_1_left_command.html" target="_top" xlink:title="commands.turtleCommands.\lLeftCommand">
<polygon fill="white" stroke="black" points="496,-436 496,-466 654,-466 654,-436 496,-436"/>
<text text-anchor="start" x="504" y="-454" font-family="Helvetica,sans-Serif" font-size="10.00">commands.turtleCommands.</text>
<text text-anchor="middle" x="575" y="-443" font-family="Helvetica,sans-Serif" font-size="10.00">LeftCommand</text>
</a>
</g>
</g>
<!-- Node1&#45;&gt;Node7 -->
<g id="edge6" class="edge"><title>Node1&#45;&gt;Node7</title>
<path fill="none" stroke="midnightblue" d="M392.506,-350.613C413.832,-372.834 449.194,-406.206 486,-426 493.134,-429.837 500.918,-433.137 508.81,-435.962"/>
<polygon fill="midnightblue" stroke="midnightblue" points="394.977,-348.132 385.569,-343.259 389.885,-352.935 394.977,-348.132"/>
</g>
<!-- Node8 -->
<g id="node8" class="node"><title>Node8</title>
<g id="a_node8"><a xlink:href="../../d9/d20/classcommands_1_1turtle_commands_1_1_multiple_turtle_command.html" target="_top" xlink:title="commands.turtleCommands.\lMultipleTurtleCommand">
<polygon fill="white" stroke="black" points="496,-387 496,-417 654,-417 654,-387 496,-387"/>
<text text-anchor="start" x="504" y="-405" font-family="Helvetica,sans-Serif" font-size="10.00">commands.turtleCommands.</text>
<text text-anchor="middle" x="575" y="-394" font-family="Helvetica,sans-Serif" font-size="10.00">MultipleTurtleCommand</text>
</a>
</g>
</g>
<!-- Node1&#45;&gt;Node8 -->
<g id="edge7" class="edge"><title>Node1&#45;&gt;Node8</title>
<path fill="none" stroke="midnightblue" d="M413.136,-347.208C434.59,-356.834 461.421,-368.268 486,-377 495.877,-380.509 506.511,-383.871 516.854,-386.927"/>
<polygon fill="midnightblue" stroke="midnightblue" points="414.543,-344.003 403.989,-343.068 411.656,-350.38 414.543,-344.003"/>
</g>
<!-- Node11 -->
<g id="node11" class="node"><title>Node11</title>
<g id="a_node11"><a xlink:href="../../dd/db2/classcommands_1_1turtle_commands_1_1_right_command.html" target="_top" xlink:title="commands.turtleCommands.\lRightCommand">
<polygon fill="white" stroke="black" points="496,-338 496,-368 654,-368 654,-338 496,-338"/>
<text text-anchor="start" x="504" y="-356" font-family="Helvetica,sans-Serif" font-size="10.00">commands.turtleCommands.</text>
<text text-anchor="middle" x="575" y="-345" font-family="Helvetica,sans-Serif" font-size="10.00">RightCommand</text>
</a>
</g>
</g>
<!-- Node1&#45;&gt;Node11 -->
<g id="edge10" class="edge"><title>Node1&#45;&gt;Node11</title>
<path fill="none" stroke="midnightblue" d="M460.378,-338.938C472.163,-340.396 484.181,-341.884 495.776,-343.319"/>
<polygon fill="midnightblue" stroke="midnightblue" points="460.453,-335.42 450.098,-337.666 459.593,-342.367 460.453,-335.42"/>
</g>
<!-- Node12 -->
<g id="node12" class="node"><title>Node12</title>
<g id="a_node12"><a xlink:href="../../d5/d5b/classcommands_1_1turtle_commands_1_1_set_heading_command.html" target="_top" xlink:title="commands.turtleCommands.\lSetHeadingCommand">
<polygon fill="white" stroke="black" points="496,-289 496,-319 654,-319 654,-289 496,-289"/>
<text text-anchor="start" x="504" y="-307" font-family="Helvetica,sans-Serif" font-size="10.00">commands.turtleCommands.</text>
<text text-anchor="middle" x="575" y="-296" font-family="Helvetica,sans-Serif" font-size="10.00">SetHeadingCommand</text>
</a>
</g>
</g>
<!-- Node1&#45;&gt;Node12 -->
<g id="edge11" class="edge"><title>Node1&#45;&gt;Node12</title>
<path fill="none" stroke="midnightblue" d="M460.378,-317.5C472.163,-316.099 484.181,-314.672 495.776,-313.294"/>
<polygon fill="midnightblue" stroke="midnightblue" points="459.616,-314.066 450.098,-318.721 460.442,-321.017 459.616,-314.066"/>
</g>
<!-- Node13 -->
<g id="node13" class="node"><title>Node13</title>
<g id="a_node13"><a xlink:href="../../d9/d14/classcommands_1_1turtle_commands_1_1_set_position_command.html" target="_top" xlink:title="commands.turtleCommands.\lSetPositionCommand">
<polygon fill="white" stroke="black" points="496,-240 496,-270 654,-270 654,-240 496,-240"/>
<text text-anchor="start" x="504" y="-258" font-family="Helvetica,sans-Serif" font-size="10.00">commands.turtleCommands.</text>
<text text-anchor="middle" x="575" y="-247" font-family="Helvetica,sans-Serif" font-size="10.00">SetPositionCommand</text>
</a>
</g>
</g>
<!-- Node1&#45;&gt;Node13 -->
<g id="edge12" class="edge"><title>Node1&#45;&gt;Node13</title>
<path fill="none" stroke="midnightblue" d="M413.098,-308.684C434.542,-299.029 461.375,-287.603 486,-279 495.119,-275.814 504.889,-272.784 514.482,-270.016"/>
<polygon fill="midnightblue" stroke="midnightblue" points="411.612,-305.515 403.956,-312.839 414.508,-311.887 411.612,-305.515"/>
</g>
<!-- Node14 -->
<g id="node14" class="node"><title>Node14</title>
<g id="a_node14"><a xlink:href="../../d2/d96/classcommands_1_1turtle_commands_1_1_towards_command.html" target="_top" xlink:title="commands.turtleCommands.\lTowardsCommand">
<polygon fill="white" stroke="black" points="496,-191 496,-221 654,-221 654,-191 496,-191"/>
<text text-anchor="start" x="504" y="-209" font-family="Helvetica,sans-Serif" font-size="10.00">commands.turtleCommands.</text>
<text text-anchor="middle" x="575" y="-198" font-family="Helvetica,sans-Serif" font-size="10.00">TowardsCommand</text>
</a>
</g>
</g>
<!-- Node1&#45;&gt;Node14 -->
<g id="edge13" class="edge"><title>Node1&#45;&gt;Node14</title>
<path fill="none" stroke="midnightblue" d="M392.463,-305.305C413.754,-283.021 449.091,-249.6 486,-230 492.434,-226.584 499.396,-223.62 506.491,-221.057"/>
<polygon fill="midnightblue" stroke="midnightblue" points="389.83,-302.996 385.538,-312.682 394.934,-307.787 389.83,-302.996"/>
</g>
<!-- Node15 -->
<g id="node15" class="node"><title>Node15</title>
<g id="a_node15"><a xlink:href="../../d0/d90/classcommands_1_1_turtle_query.html" target="_top" xlink:title="commands.TurtleQuery">
<polygon fill="white" stroke="black" points="511,-152.5 511,-171.5 639,-171.5 639,-152.5 511,-152.5"/>
<text text-anchor="middle" x="575" y="-159.5" font-family="Helvetica,sans-Serif" font-size="10.00">commands.TurtleQuery</text>
</a>
</g>
</g>
<!-- Node1&#45;&gt;Node15 -->
<g id="edge14" class="edge"><title>Node1&#45;&gt;Node15</title>
<path fill="none" stroke="midnightblue" d="M383.905,-303.615C401.452,-270.388 437.494,-211.54 486,-181 493.539,-176.253 502.084,-172.678 510.812,-169.989"/>
<polygon fill="midnightblue" stroke="midnightblue" points="380.718,-302.16 379.256,-312.654 386.942,-305.363 380.718,-302.16"/>
</g>
<!-- Node23 -->
<g id="node23" class="node"><title>Node23</title>
<g id="a_node23"><a xlink:href="../../dd/d47/classcommands_1_1view_commands_1_1_hide_turtle_command.html" target="_top" xlink:title="commands.viewCommands.Hide\lTurtleCommand">
<polygon fill="white" stroke="black" points="488,-103 488,-133 662,-133 662,-103 488,-103"/>
<text text-anchor="start" x="496" y="-121" font-family="Helvetica,sans-Serif" font-size="10.00">commands.viewCommands.Hide</text>
<text text-anchor="middle" x="575" y="-110" font-family="Helvetica,sans-Serif" font-size="10.00">TurtleCommand</text>
</a>
</g>
</g>
<!-- Node1&#45;&gt;Node23 -->
<g id="edge22" class="edge"><title>Node1&#45;&gt;Node23</title>
<path fill="none" stroke="midnightblue" d="M380.399,-303.452C395.282,-263.665 430.092,-185.296 486,-143 491.066,-139.167 496.698,-135.922 502.594,-133.174"/>
<polygon fill="midnightblue" stroke="midnightblue" points="377.086,-302.321 376.965,-312.915 383.666,-304.709 377.086,-302.321"/>
</g>
<!-- Node24 -->
<g id="node24" class="node"><title>Node24</title>
<g id="a_node24"><a xlink:href="../../df/d5c/classcommands_1_1view_commands_1_1_show_turtle_command.html" target="_top" xlink:title="commands.viewCommands.Show\lTurtleCommand">
<polygon fill="white" stroke="black" points="486,-54 486,-84 664,-84 664,-54 486,-54"/>
<text text-anchor="start" x="494" y="-72" font-family="Helvetica,sans-Serif" font-size="10.00">commands.viewCommands.Show</text>
<text text-anchor="middle" x="575" y="-61" font-family="Helvetica,sans-Serif" font-size="10.00">TurtleCommand</text>
</a>
</g>
</g>
<!-- Node1&#45;&gt;Node24 -->
<g id="edge23" class="edge"><title>Node1&#45;&gt;Node24</title>
<path fill="none" stroke="midnightblue" d="M376.936,-303.091C387.792,-254.993 418.36,-149.133 486,-93 490.143,-89.5616 494.738,-86.6132 499.592,-84.0853"/>
<polygon fill="midnightblue" stroke="midnightblue" points="373.493,-302.453 374.803,-312.967 380.335,-303.931 373.493,-302.453"/>
</g>
<!-- Node2 -->
<g id="node2" class="node"><title>Node2</title>
<g id="a_node2"><a xlink:href="../../da/d90/classcommands_1_1_base_command.html" target="_top" xlink:title="commands.BaseCommand">
<polygon fill="white" stroke="black" points="108,-318.5 108,-337.5 256,-337.5 256,-318.5 108,-318.5"/>
<text text-anchor="middle" x="182" y="-325.5" font-family="Helvetica,sans-Serif" font-size="10.00">commands.BaseCommand</text>
</a>
</g>
</g>
<!-- Node2&#45;&gt;Node1 -->
<g id="edge1" class="edge"><title>Node2&#45;&gt;Node1</title>
<path fill="none" stroke="midnightblue" d="M266.323,-328C274.762,-328 283.313,-328 291.697,-328"/>
<polygon fill="midnightblue" stroke="midnightblue" points="266.103,-324.5 256.103,-328 266.102,-331.5 266.103,-324.5"/>
</g>
<!-- Node3 -->
<g id="node3" class="node"><title>Node3</title>
<polygon fill="white" stroke="#bfbfbf" points="0.5,-318.5 0.5,-337.5 71.5,-337.5 71.5,-318.5 0.5,-318.5"/>
<text text-anchor="middle" x="36" y="-325.5" font-family="Helvetica,sans-Serif" font-size="10.00">Serializable</text>
</g>
<!-- Node3&#45;&gt;Node2 -->
<g id="edge2" class="edge"><title>Node3&#45;&gt;Node2</title>
<path fill="none" stroke="midnightblue" d="M81.9439,-328C90.1703,-328 98.9482,-328 107.751,-328"/>
<polygon fill="midnightblue" stroke="midnightblue" points="81.8584,-324.5 71.8584,-328 81.8583,-331.5 81.8584,-324.5"/>
</g>
<!-- Node9 -->
<g id="node9" class="node"><title>Node9</title>
<g id="a_node9"><a xlink:href="../../d6/de1/classcommands_1_1turtle_commands_1_1_ask_command.html" target="_top" xlink:title="commands.turtleCommands.\lAskCommand">
<polygon fill="white" stroke="black" points="712,-414 712,-444 870,-444 870,-414 712,-414"/>
<text text-anchor="start" x="720" y="-432" font-family="Helvetica,sans-Serif" font-size="10.00">commands.turtleCommands.</text>
<text text-anchor="middle" x="791" y="-421" font-family="Helvetica,sans-Serif" font-size="10.00">AskCommand</text>
</a>
</g>
</g>
<!-- Node8&#45;&gt;Node9 -->
<g id="edge8" class="edge"><title>Node8&#45;&gt;Node9</title>
<path fill="none" stroke="midnightblue" d="M664.381,-413.151C680.067,-415.13 696.304,-417.179 711.686,-419.119"/>
<polygon fill="midnightblue" stroke="midnightblue" points="664.527,-409.642 654.167,-411.862 663.651,-416.587 664.527,-409.642"/>
</g>
<!-- Node10 -->
<g id="node10" class="node"><title>Node10</title>
<g id="a_node10"><a xlink:href="../../d3/d71/classcommands_1_1turtle_commands_1_1_tell_command.html" target="_top" xlink:title="commands.turtleCommands.\lTellCommand">
<polygon fill="white" stroke="black" points="712,-365 712,-395 870,-395 870,-365 712,-365"/>
<text text-anchor="start" x="720" y="-383" font-family="Helvetica,sans-Serif" font-size="10.00">commands.turtleCommands.</text>
<text text-anchor="middle" x="791" y="-372" font-family="Helvetica,sans-Serif" font-size="10.00">TellCommand</text>
</a>
</g>
</g>
<!-- Node8&#45;&gt;Node10 -->
<g id="edge9" class="edge"><title>Node8&#45;&gt;Node10</title>
<path fill="none" stroke="midnightblue" d="M664.381,-392.914C680.067,-391.302 696.304,-389.632 711.686,-388.051"/>
<polygon fill="midnightblue" stroke="midnightblue" points="663.757,-389.46 654.167,-393.964 664.473,-396.423 663.757,-389.46"/>
</g>
<!-- Node16 -->
<g id="node16" class="node"><title>Node16</title>
<g id="a_node16"><a xlink:href="../../d4/d3f/classcommands_1_1turtle_commands_1_1_i_d_command.html" target="_top" xlink:title="commands.turtleCommands.\lIDCommand">
<polygon fill="white" stroke="black" points="712,-294 712,-324 870,-324 870,-294 712,-294"/>
<text text-anchor="start" x="720" y="-312" font-family="Helvetica,sans-Serif" font-size="10.00">commands.turtleCommands.</text>
<text text-anchor="middle" x="791" y="-301" font-family="Helvetica,sans-Serif" font-size="10.00">IDCommand</text>
</a>
</g>
</g>
<!-- Node15&#45;&gt;Node16 -->
<g id="edge15" class="edge"><title>Node15&#45;&gt;Node16</title>
<path fill="none" stroke="midnightblue" d="M648.889,-171.225C654.363,-173.811 659.498,-177.022 664,-181 700.342,-213.107 664.609,-250.848 700,-284 704.142,-287.88 708.834,-291.167 713.848,-293.949"/>
<polygon fill="midnightblue" stroke="midnightblue" points="649.99,-167.896 639.405,-167.439 647.395,-174.397 649.99,-167.896"/>
</g>
<!-- Node17 -->
<g id="node17" class="node"><title>Node17</title>
<g id="a_node17"><a xlink:href="../../d5/dea/classcommands_1_1turtle_commands_1_1_number_of_turtles_command.html" target="_top" xlink:title="commands.turtleCommands.\lNumberOfTurtlesCommand">
<polygon fill="white" stroke="black" points="712,-245 712,-275 870,-275 870,-245 712,-245"/>
<text text-anchor="start" x="720" y="-263" font-family="Helvetica,sans-Serif" font-size="10.00">commands.turtleCommands.</text>
<text text-anchor="middle" x="791" y="-252" font-family="Helvetica,sans-Serif" font-size="10.00">NumberOfTurtlesCommand</text>
</a>
</g>
</g>
<!-- Node15&#45;&gt;Node17 -->
<g id="edge16" class="edge"><title>Node15&#45;&gt;Node17</title>
<path fill="none" stroke="midnightblue" d="M648.853,-172.917C654.195,-175.145 659.317,-177.812 664,-181 687.843,-197.232 676.64,-218.079 700,-235 705.385,-238.9 711.353,-242.193 717.58,-244.971"/>
<polygon fill="midnightblue" stroke="midnightblue" points="649.642,-169.48 639.047,-169.361 647.255,-176.06 649.642,-169.48"/>
</g>
<!-- Node18 -->
<g id="node18" class="node"><title>Node18</title>
<g id="a_node18"><a xlink:href="../../df/d55/classcommands_1_1view_commands_1_1_clear_screen_command.html" target="_top" xlink:title="commands.viewCommands.Clear\lScreenCommand">
<polygon fill="white" stroke="black" points="702.5,-196 702.5,-226 879.5,-226 879.5,-196 702.5,-196"/>
<text text-anchor="start" x="710.5" y="-214" font-family="Helvetica,sans-Serif" font-size="10.00">commands.viewCommands.Clear</text>
<text text-anchor="middle" x="791" y="-203" font-family="Helvetica,sans-Serif" font-size="10.00">ScreenCommand</text>
</a>
</g>
</g>
<!-- Node15&#45;&gt;Node18 -->
<g id="edge17" class="edge"><title>Node15&#45;&gt;Node18</title>
<path fill="none" stroke="midnightblue" d="M631.116,-173.713C642.023,-176.084 653.381,-178.59 664,-181 684.832,-185.728 707.555,-191.079 727.895,-195.938"/>
<polygon fill="midnightblue" stroke="midnightblue" points="631.775,-170.275 621.261,-171.581 630.294,-177.117 631.775,-170.275"/>
</g>
<!-- Node19 -->
<g id="node19" class="node"><title>Node19</title>
<g id="a_node19"><a xlink:href="../../db/dc5/classcommands_1_1view_commands_1_1_home_command.html" target="_top" xlink:title="commands.viewCommands.Home\lCommand">
<polygon fill="white" stroke="black" points="700,-147 700,-177 882,-177 882,-147 700,-147"/>
<text text-anchor="start" x="708" y="-165" font-family="Helvetica,sans-Serif" font-size="10.00">commands.viewCommands.Home</text>
<text text-anchor="middle" x="791" y="-154" font-family="Helvetica,sans-Serif" font-size="10.00">Command</text>
</a>
</g>
</g>
<!-- Node15&#45;&gt;Node19 -->
<g id="edge18" class="edge"><title>Node15&#45;&gt;Node19</title>
<path fill="none" stroke="midnightblue" d="M649.483,-162C665.636,-162 682.922,-162 699.652,-162"/>
<polygon fill="midnightblue" stroke="midnightblue" points="649.05,-158.5 639.05,-162 649.05,-165.5 649.05,-158.5"/>
</g>
<!-- Node20 -->
<g id="node20" class="node"><title>Node20</title>
<g id="a_node20"><a xlink:href="../../df/d9a/classcommands_1_1view_queries_1_1_heading_query.html" target="_top" xlink:title="commands.viewQueries.Heading\lQuery">
<polygon fill="white" stroke="black" points="704.5,-98 704.5,-128 877.5,-128 877.5,-98 704.5,-98"/>
<text text-anchor="start" x="712.5" y="-116" font-family="Helvetica,sans-Serif" font-size="10.00">commands.viewQueries.Heading</text>
<text text-anchor="middle" x="791" y="-105" font-family="Helvetica,sans-Serif" font-size="10.00">Query</text>
</a>
</g>
</g>
<!-- Node15&#45;&gt;Node20 -->
<g id="edge19" class="edge"><title>Node15&#45;&gt;Node20</title>
<path fill="none" stroke="midnightblue" d="M627.86,-150.239C639.736,-147.538 652.307,-144.674 664,-142 683.803,-137.471 705.351,-132.52 724.936,-128.011"/>
<polygon fill="midnightblue" stroke="midnightblue" points="627.057,-146.832 618.081,-152.461 628.608,-153.658 627.057,-146.832"/>
</g>
<!-- Node21 -->
<g id="node21" class="node"><title>Node21</title>
<g id="a_node21"><a xlink:href="../../d2/d08/classcommands_1_1view_queries_1_1_x_cor_query.html" target="_top" xlink:title="commands.viewQueries.XCor\lQuery">
<polygon fill="white" stroke="black" points="713.5,-49 713.5,-79 868.5,-79 868.5,-49 713.5,-49"/>
<text text-anchor="start" x="721.5" y="-67" font-family="Helvetica,sans-Serif" font-size="10.00">commands.viewQueries.XCor</text>
<text text-anchor="middle" x="791" y="-56" font-family="Helvetica,sans-Serif" font-size="10.00">Query</text>
</a>
</g>
</g>
<!-- Node15&#45;&gt;Node21 -->
<g id="edge20" class="edge"><title>Node15&#45;&gt;Node21</title>
<path fill="none" stroke="midnightblue" d="M648.466,-150.381C653.949,-148.067 659.206,-145.302 664,-142 687.755,-125.639 676.553,-104.799 700,-88 704.732,-84.6094 709.913,-81.6978 715.324,-79.1976"/>
<polygon fill="midnightblue" stroke="midnightblue" points="647.226,-147.108 639.065,-153.865 649.658,-153.672 647.226,-147.108"/>
</g>
<!-- Node22 -->
<g id="node22" class="node"><title>Node22</title>
<g id="a_node22"><a xlink:href="../../dd/d29/classcommands_1_1view_queries_1_1_y_cor_query.html" target="_top" xlink:title="commands.viewQueries.YCor\lQuery">
<polygon fill="white" stroke="black" points="713.5,-0 713.5,-30 868.5,-30 868.5,-0 713.5,-0"/>
<text text-anchor="start" x="721.5" y="-18" font-family="Helvetica,sans-Serif" font-size="10.00">commands.viewQueries.YCor</text>
<text text-anchor="middle" x="791" y="-7" font-family="Helvetica,sans-Serif" font-size="10.00">Query</text>
</a>
</g>
</g>
<!-- Node15&#45;&gt;Node22 -->
<g id="edge21" class="edge"><title>Node15&#45;&gt;Node22</title>
<path fill="none" stroke="midnightblue" d="M648.912,-151.909C654.382,-149.269 659.508,-146.012 664,-142 700.168,-109.697 664.438,-71.9689 700,-39 704.032,-35.262 708.581,-32.0936 713.437,-29.4094"/>
<polygon fill="midnightblue" stroke="midnightblue" points="647.361,-148.762 639.435,-155.793 650.015,-155.24 647.361,-148.762"/>
</g>
</g>
</svg>
