<?xml version="1.0" encoding="UTF-8" standalone="no"?>
<!DOCTYPE svg PUBLIC "-//W3C//DTD SVG 1.1//EN"
 "http://www.w3.org/Graphics/SVG/1.1/DTD/svg11.dtd">
<!-- Generated by graphviz version 2.36.0 (20140111.2315)
 -->
<!-- Title: commands.expressionCommands.RemainderCommand Pages: 1 -->
<svg width="192pt" height="288pt"
 viewBox="0.00 0.00 192.00 288.00" xmlns="http://www.w3.org/2000/svg" xmlns:xlink="http://www.w3.org/1999/xlink">
<g id="graph0" class="graph" transform="scale(1 1) rotate(0) translate(4 284)">
<title>commands.expressionCommands.RemainderCommand</title>
<polygon fill="white" stroke="none" points="-4,4 -4,-284 188,-284 188,4 -4,4"/>
<!-- Node1 -->
<g id="node1" class="node"><title>Node1</title>
<polygon fill="#bfbfbf" stroke="black" points="0,-1 0,-31 184,-31 184,-1 0,-1"/>
<text text-anchor="start" x="8" y="-19" font-family="Helvetica,sans-Serif" font-size="10.00">commands.expressionCommands.</text>
<text text-anchor="middle" x="92" y="-8" font-family="Helvetica,sans-Serif" font-size="10.00">RemainderCommand</text>
</g>
<!-- Node2 -->
<g id="node2" class="node"><title>Node2</title>
<g id="a_node2"><a xlink:href="../../dc/d23/classcommands_1_1expression_commands_1_1_two_expression_command.html" target="_top" xlink:title="commands.expressionCommands.\lTwoExpressionCommand">
<polygon fill="white" stroke="black" points="0,-69 0,-99 184,-99 184,-69 0,-69"/>
<text text-anchor="start" x="8" y="-87" font-family="Helvetica,sans-Serif" font-size="10.00">commands.expressionCommands.</text>
<text text-anchor="middle" x="92" y="-76" font-family="Helvetica,sans-Serif" font-size="10.00">TwoExpressionCommand</text>
</a>
</g>
</g>
<!-- Node2&#45;&gt;Node1 -->
<g id="edge1" class="edge"><title>Node2&#45;&gt;Node1</title>
<path fill="none" stroke="midnightblue" d="M92,-58.5322C92,-49.3606 92,-39.2449 92,-31.2931"/>
<polygon fill="midnightblue" stroke="midnightblue" points="88.5001,-58.6789 92,-68.679 95.5001,-58.679 88.5001,-58.6789"/>
</g>
<!-- Node3 -->
<g id="node3" class="node"><title>Node3</title>
<g id="a_node3"><a xlink:href="../../dc/d85/classcommands_1_1expression_commands_1_1_expression_command.html" target="_top" xlink:title="commands.expressionCommands.\lExpressionCommand">
<polygon fill="white" stroke="black" points="0,-137 0,-167 184,-167 184,-137 0,-137"/>
<text text-anchor="start" x="8" y="-155" font-family="Helvetica,sans-Serif" font-size="10.00">commands.expressionCommands.</text>
<text text-anchor="middle" x="92" y="-144" font-family="Helvetica,sans-Serif" font-size="10.00">ExpressionCommand</text>
</a>
</g>
</g>
<!-- Node3&#45;&gt;Node2 -->
<g id="edge2" class="edge"><title>Node3&#45;&gt;Node2</title>
<path fill="none" stroke="midnightblue" d="M92,-126.532C92,-117.361 92,-107.245 92,-99.2931"/>
<polygon fill="midnightblue" stroke="midnightblue" points="88.5001,-126.679 92,-136.679 95.5001,-126.679 88.5001,-126.679"/>
</g>
<!-- Node4 -->
<g id="node4" class="node"><title>Node4</title>
<g id="a_node4"><a xlink:href="../../da/d90/classcommands_1_1_base_command.html" target="_top" xlink:title="commands.BaseCommand">
<polygon fill="white" stroke="black" points="18,-204.5 18,-223.5 166,-223.5 166,-204.5 18,-204.5"/>
<text text-anchor="middle" x="92" y="-211.5" font-family="Helvetica,sans-Serif" font-size="10.00">commands.BaseCommand</text>
</a>
</g>
</g>
<!-- Node4&#45;&gt;Node3 -->
<g id="edge3" class="edge"><title>Node4&#45;&gt;Node3</title>
<path fill="none" stroke="midnightblue" d="M92,-194.371C92,-185.585 92,-175.272 92,-167.141"/>
<polygon fill="midnightblue" stroke="midnightblue" points="88.5001,-194.403 92,-204.403 95.5001,-194.403 88.5001,-194.403"/>
</g>
<!-- Node5 -->
<g id="node5" class="node"><title>Node5</title>
<polygon fill="white" stroke="#bfbfbf" points="56.5,-260.5 56.5,-279.5 127.5,-279.5 127.5,-260.5 56.5,-260.5"/>
<text text-anchor="middle" x="92" y="-267.5" font-family="Helvetica,sans-Serif" font-size="10.00">Serializable</text>
</g>
<!-- Node5&#45;&gt;Node4 -->
<g id="edge4" class="edge"><title>Node5&#45;&gt;Node4</title>
<path fill="none" stroke="midnightblue" d="M92,-249.805C92,-240.91 92,-230.78 92,-223.751"/>
<polygon fill="midnightblue" stroke="midnightblue" points="88.5001,-250.083 92,-260.083 95.5001,-250.083 88.5001,-250.083"/>
</g>
</g>
</svg>
