<?xml version="1.0" encoding="UTF-8" standalone="no"?>
<!DOCTYPE svg PUBLIC "-//W3C//DTD SVG 1.1//EN"
 "http://www.w3.org/Graphics/SVG/1.1/DTD/svg11.dtd">
<!-- Generated by graphviz version 2.36.0 (20140111.2315)
 -->
<!-- Title: commands.variableCommands.SetVariableCommand.onExecute Pages: 1 -->
<svg width="668pt" height="144pt"
 viewBox="0.00 0.00 668.00 144.00" xmlns="http://www.w3.org/2000/svg" xmlns:xlink="http://www.w3.org/1999/xlink">
<g id="graph0" class="graph" transform="scale(1 1) rotate(0) translate(4 140)">
<title>commands.variableCommands.SetVariableCommand.onExecute</title>
<polygon fill="white" stroke="none" points="-4,4 -4,-140 664,-140 664,4 -4,4"/>
<!-- Node1 -->
<g id="node1" class="node"><title>Node1</title>
<polygon fill="#bfbfbf" stroke="black" points="0.5,-44 0.5,-74 175.5,-74 175.5,-44 0.5,-44"/>
<text text-anchor="start" x="8.5" y="-62" font-family="Helvetica,sans-Serif" font-size="10.00">commands.variableCommands.</text>
<text text-anchor="middle" x="88" y="-51" font-family="Helvetica,sans-Serif" font-size="10.00">SetVariableCommand.onExecute</text>
</g>
<!-- Node2 -->
<g id="node2" class="node"><title>Node2</title>
<g id="a_node2"><a xlink:href="../../d4/d05/classcommands_1_1information_1_1_base_user_defined_container.html#a649c0be733d7500611b12da612ac4913" target="_top" xlink:title="commands.information.Base\lUserDefinedContainer.addVariable">
<polygon fill="white" stroke="black" points="226.5,-106 226.5,-136 407.5,-136 407.5,-106 226.5,-106"/>
<text text-anchor="start" x="234.5" y="-124" font-family="Helvetica,sans-Serif" font-size="10.00">commands.information.Base</text>
<text text-anchor="middle" x="317" y="-113" font-family="Helvetica,sans-Serif" font-size="10.00">UserDefinedContainer.addVariable</text>
</a>
</g>
</g>
<!-- Node1&#45;&gt;Node2 -->
<g id="edge1" class="edge"><title>Node1&#45;&gt;Node2</title>
<path fill="none" stroke="midnightblue" d="M136.719,-74.0366C159.434,-81.0188 187.029,-89.2487 212,-96 221.411,-98.5445 231.336,-101.097 241.169,-103.547"/>
<polygon fill="midnightblue" stroke="midnightblue" points="240.401,-106.962 250.948,-105.958 242.077,-100.166 240.401,-106.962"/>
</g>
<!-- Node3 -->
<g id="node3" class="node"><title>Node3</title>
<g id="a_node3"><a xlink:href="../../da/d90/classcommands_1_1_base_command.html#a68a349a085c4b05af0a55943da86598b" target="_top" xlink:title="commands.BaseCommand.execute">
<polygon fill="white" stroke="black" points="222.5,-49.5 222.5,-68.5 411.5,-68.5 411.5,-49.5 222.5,-49.5"/>
<text text-anchor="middle" x="317" y="-56.5" font-family="Helvetica,sans-Serif" font-size="10.00">commands.BaseCommand.execute</text>
</a>
</g>
</g>
<!-- Node1&#45;&gt;Node3 -->
<g id="edge2" class="edge"><title>Node1&#45;&gt;Node3</title>
<path fill="none" stroke="midnightblue" d="M175.791,-59C187.72,-59 200.067,-59 212.262,-59"/>
<polygon fill="midnightblue" stroke="midnightblue" points="212.459,-62.5001 222.458,-59 212.458,-55.5001 212.459,-62.5001"/>
</g>
<!-- Node7 -->
<g id="node7" class="node"><title>Node7</title>
<g id="a_node7"><a xlink:href="../../d2/d4f/classcommands_1_1variable_commands_1_1_variable_command.html#ae837bcbd49f0ccbd6fa5a46c15c181ab" target="_top" xlink:title="commands.variableCommands.\lVariableCommand.getVariableContainer">
<polygon fill="white" stroke="black" points="212.5,-0 212.5,-30 421.5,-30 421.5,-0 212.5,-0"/>
<text text-anchor="start" x="220.5" y="-18" font-family="Helvetica,sans-Serif" font-size="10.00">commands.variableCommands.</text>
<text text-anchor="middle" x="317" y="-7" font-family="Helvetica,sans-Serif" font-size="10.00">VariableCommand.getVariableContainer</text>
</a>
</g>
</g>
<!-- Node1&#45;&gt;Node7 -->
<g id="edge7" class="edge"><title>Node1&#45;&gt;Node7</title>
<path fill="none" stroke="midnightblue" d="M166.486,-43.9808C186.464,-40.1084 208.103,-35.914 228.549,-31.9508"/>
<polygon fill="midnightblue" stroke="midnightblue" points="229.327,-35.3652 238.478,-30.0262 227.995,-28.4931 229.327,-35.3652"/>
</g>
<!-- Node3&#45;&gt;Node3 -->
<g id="edge3" class="edge"><title>Node3&#45;&gt;Node3</title>
<path fill="none" stroke="midnightblue" d="M282.143,-68.6119C264.635,-77.4613 276.254,-87 317,-87 347.56,-87 361.735,-81.6345 359.527,-75.2184"/>
<polygon fill="midnightblue" stroke="midnightblue" points="361.718,-72.4864 351.857,-68.6119 357.15,-77.7902 361.718,-72.4864"/>
</g>
<!-- Node4 -->
<g id="node4" class="node"><title>Node4</title>
<g id="a_node4"><a xlink:href="../../da/d90/classcommands_1_1_base_command.html#a90abff4a812d84d0454cb095e03c6e08" target="_top" xlink:title="commands.BaseCommand.get\lNextCommand">
<polygon fill="white" stroke="black" points="475.5,-88 475.5,-118 642.5,-118 642.5,-88 475.5,-88"/>
<text text-anchor="start" x="483.5" y="-106" font-family="Helvetica,sans-Serif" font-size="10.00">commands.BaseCommand.get</text>
<text text-anchor="middle" x="559" y="-95" font-family="Helvetica,sans-Serif" font-size="10.00">NextCommand</text>
</a>
</g>
</g>
<!-- Node3&#45;&gt;Node4 -->
<g id="edge4" class="edge"><title>Node3&#45;&gt;Node4</title>
<path fill="none" stroke="midnightblue" d="M370.076,-68.5473C398.063,-73.6782 433.398,-80.1563 465.856,-86.1069"/>
<polygon fill="midnightblue" stroke="midnightblue" points="465.358,-89.5739 475.825,-87.9346 466.62,-82.6887 465.358,-89.5739"/>
</g>
<!-- Node5 -->
<g id="node5" class="node"><title>Node5</title>
<g id="a_node5"><a xlink:href="../../da/d90/classcommands_1_1_base_command.html#aad4544c0bd9d40769d8997e4d6d97b08" target="_top" xlink:title="commands.BaseCommand.onExecute">
<polygon fill="white" stroke="black" points="458.5,-49.5 458.5,-68.5 659.5,-68.5 659.5,-49.5 458.5,-49.5"/>
<text text-anchor="middle" x="559" y="-56.5" font-family="Helvetica,sans-Serif" font-size="10.00">commands.BaseCommand.onExecute</text>
</a>
</g>
</g>
<!-- Node3&#45;&gt;Node5 -->
<g id="edge5" class="edge"><title>Node3&#45;&gt;Node5</title>
<path fill="none" stroke="midnightblue" d="M411.821,-59C423.736,-59 436.012,-59 448.149,-59"/>
<polygon fill="midnightblue" stroke="midnightblue" points="448.301,-62.5001 458.301,-59 448.301,-55.5001 448.301,-62.5001"/>
</g>
<!-- Node6 -->
<g id="node6" class="node"><title>Node6</title>
<g id="a_node6"><a xlink:href="../../da/d90/classcommands_1_1_base_command.html#a37ff254bd611b07ea38aaaf85447a2c3" target="_top" xlink:title="commands.BaseCommand.reset">
<polygon fill="white" stroke="black" points="471,-11.5 471,-30.5 647,-30.5 647,-11.5 471,-11.5"/>
<text text-anchor="middle" x="559" y="-18.5" font-family="Helvetica,sans-Serif" font-size="10.00">commands.BaseCommand.reset</text>
</a>
</g>
</g>
<!-- Node3&#45;&gt;Node6 -->
<g id="edge6" class="edge"><title>Node3&#45;&gt;Node6</title>
<path fill="none" stroke="midnightblue" d="M378.252,-49.46C411.49,-44.1975 452.937,-37.6349 487.653,-32.1382"/>
<polygon fill="midnightblue" stroke="midnightblue" points="488.393,-35.5648 497.723,-30.5439 487.299,-28.6509 488.393,-35.5648"/>
</g>
</g>
</svg>
