<?xml version="1.0" encoding="UTF-8" standalone="no"?>
<!DOCTYPE svg PUBLIC "-//W3C//DTD SVG 1.1//EN"
 "http://www.w3.org/Graphics/SVG/1.1/DTD/svg11.dtd">
<!-- Generated by graphviz version 2.36.0 (20140111.2315)
 -->
<!-- Title: GUIFunctions.Variable.compareNameAndValue Pages: 1 -->
<svg width="386pt" height="77pt"
 viewBox="0.00 0.00 386.00 77.00" xmlns="http://www.w3.org/2000/svg" xmlns:xlink="http://www.w3.org/1999/xlink">
<g id="graph0" class="graph" transform="scale(1 1) rotate(0) translate(4 73)">
<title>GUIFunctions.Variable.compareNameAndValue</title>
<polygon fill="white" stroke="none" points="-4,4 -4,-73 382,-73 382,4 -4,4"/>
<!-- Node1 -->
<g id="node1" class="node"><title>Node1</title>
<polygon fill="#bfbfbf" stroke="black" points="0,-22 0,-52 166,-52 166,-22 0,-22"/>
<text text-anchor="start" x="8" y="-40" font-family="Helvetica,sans-Serif" font-size="10.00">GUIFunctions.Variable.compare</text>
<text text-anchor="middle" x="83" y="-29" font-family="Helvetica,sans-Serif" font-size="10.00">NameAndValue</text>
</g>
<!-- Node2 -->
<g id="node2" class="node"><title>Node2</title>
<g id="a_node2"><a xlink:href="../../d8/d95/class_g_u_i_functions_1_1_user_input.html#aa06e79f118073b8e8a208ecb96cd6911" target="_top" xlink:title="GUIFunctions.UserInput.getName">
<polygon fill="white" stroke="black" points="202,-49.5 202,-68.5 378,-68.5 378,-49.5 202,-49.5"/>
<text text-anchor="middle" x="290" y="-56.5" font-family="Helvetica,sans-Serif" font-size="10.00">GUIFunctions.UserInput.getName</text>
</a>
</g>
</g>
<!-- Node1&#45;&gt;Node2 -->
<g id="edge1" class="edge"><title>Node1&#45;&gt;Node2</title>
<path fill="none" stroke="midnightblue" d="M166.2,-45.8215C174.607,-46.7236 183.203,-47.6462 191.751,-48.5635"/>
<polygon fill="midnightblue" stroke="midnightblue" points="191.432,-52.0493 201.748,-49.6364 192.179,-45.0892 191.432,-52.0493"/>
</g>
<!-- Node3 -->
<g id="node3" class="node"><title>Node3</title>
<g id="a_node3"><a xlink:href="../../de/dcf/class_g_u_i_functions_1_1_variable.html#a5c932f02129c3127d4dc3882d074347b" target="_top" xlink:title="GUIFunctions.Variable.get\lValue">
<polygon fill="white" stroke="black" points="220.5,-0 220.5,-30 359.5,-30 359.5,-0 220.5,-0"/>
<text text-anchor="start" x="228.5" y="-18" font-family="Helvetica,sans-Serif" font-size="10.00">GUIFunctions.Variable.get</text>
<text text-anchor="middle" x="290" y="-7" font-family="Helvetica,sans-Serif" font-size="10.00">Value</text>
</a>
</g>
</g>
<!-- Node1&#45;&gt;Node3 -->
<g id="edge2" class="edge"><title>Node1&#45;&gt;Node3</title>
<path fill="none" stroke="midnightblue" d="M166.2,-28.1785C180.631,-26.6298 195.622,-25.021 209.965,-23.4818"/>
<polygon fill="midnightblue" stroke="midnightblue" points="210.708,-26.9223 220.277,-22.3752 209.961,-19.9623 210.708,-26.9223"/>
</g>
</g>
</svg>
