<?xml version="1.0" encoding="UTF-8" standalone="no"?>
<!DOCTYPE svg PUBLIC "-//W3C//DTD SVG 1.1//EN"
 "http://www.w3.org/Graphics/SVG/1.1/DTD/svg11.dtd">
<!-- Generated by graphviz version 2.36.0 (20140111.2315)
 -->
<!-- Title: GUIFunctions.Variable.equals Pages: 1 -->
<svg width="578pt" height="77pt"
 viewBox="0.00 0.00 578.00 77.00" xmlns="http://www.w3.org/2000/svg" xmlns:xlink="http://www.w3.org/1999/xlink">
<g id="graph0" class="graph" transform="scale(1 1) rotate(0) translate(4 73)">
<title>GUIFunctions.Variable.equals</title>
<polygon fill="white" stroke="none" points="-4,4 -4,-73 574,-73 574,4 -4,4"/>
<!-- Node1 -->
<g id="node1" class="node"><title>Node1</title>
<polygon fill="#bfbfbf" stroke="black" points="0.5,-27.5 0.5,-46.5 155.5,-46.5 155.5,-27.5 0.5,-27.5"/>
<text text-anchor="middle" x="78" y="-34.5" font-family="Helvetica,sans-Serif" font-size="10.00">GUIFunctions.Variable.equals</text>
</g>
<!-- Node2 -->
<g id="node2" class="node"><title>Node2</title>
<g id="a_node2"><a xlink:href="../../de/dcf/class_g_u_i_functions_1_1_variable.html#ae5d72da81e1d54dbda026b48a2a6bf7e" target="_top" xlink:title="GUIFunctions.Variable.compare\lNameAndValue">
<polygon fill="white" stroke="black" points="192,-22 192,-52 358,-52 358,-22 192,-22"/>
<text text-anchor="start" x="200" y="-40" font-family="Helvetica,sans-Serif" font-size="10.00">GUIFunctions.Variable.compare</text>
<text text-anchor="middle" x="275" y="-29" font-family="Helvetica,sans-Serif" font-size="10.00">NameAndValue</text>
</a>
</g>
</g>
<!-- Node1&#45;&gt;Node2 -->
<g id="edge1" class="edge"><title>Node1&#45;&gt;Node2</title>
<path fill="none" stroke="midnightblue" d="M155.509,-37C164.099,-37 172.916,-37 181.678,-37"/>
<polygon fill="midnightblue" stroke="midnightblue" points="181.921,-40.5001 191.921,-37 181.921,-33.5001 181.921,-40.5001"/>
</g>
<!-- Node3 -->
<g id="node3" class="node"><title>Node3</title>
<g id="a_node3"><a xlink:href="../../d8/d95/class_g_u_i_functions_1_1_user_input.html#aa06e79f118073b8e8a208ecb96cd6911" target="_top" xlink:title="GUIFunctions.UserInput.getName">
<polygon fill="white" stroke="black" points="394,-49.5 394,-68.5 570,-68.5 570,-49.5 394,-49.5"/>
<text text-anchor="middle" x="482" y="-56.5" font-family="Helvetica,sans-Serif" font-size="10.00">GUIFunctions.UserInput.getName</text>
</a>
</g>
</g>
<!-- Node2&#45;&gt;Node3 -->
<g id="edge2" class="edge"><title>Node2&#45;&gt;Node3</title>
<path fill="none" stroke="midnightblue" d="M358.2,-45.8215C366.607,-46.7236 375.203,-47.6462 383.751,-48.5635"/>
<polygon fill="midnightblue" stroke="midnightblue" points="383.432,-52.0493 393.748,-49.6364 384.179,-45.0892 383.432,-52.0493"/>
</g>
<!-- Node4 -->
<g id="node4" class="node"><title>Node4</title>
<g id="a_node4"><a xlink:href="../../de/dcf/class_g_u_i_functions_1_1_variable.html#a5c932f02129c3127d4dc3882d074347b" target="_top" xlink:title="GUIFunctions.Variable.get\lValue">
<polygon fill="white" stroke="black" points="412.5,-0 412.5,-30 551.5,-30 551.5,-0 412.5,-0"/>
<text text-anchor="start" x="420.5" y="-18" font-family="Helvetica,sans-Serif" font-size="10.00">GUIFunctions.Variable.get</text>
<text text-anchor="middle" x="482" y="-7" font-family="Helvetica,sans-Serif" font-size="10.00">Value</text>
</a>
</g>
</g>
<!-- Node2&#45;&gt;Node4 -->
<g id="edge3" class="edge"><title>Node2&#45;&gt;Node4</title>
<path fill="none" stroke="midnightblue" d="M358.2,-28.1785C372.631,-26.6298 387.622,-25.021 401.965,-23.4818"/>
<polygon fill="midnightblue" stroke="midnightblue" points="402.708,-26.9223 412.277,-22.3752 401.961,-19.9623 402.708,-26.9223"/>
</g>
</g>
</svg>
