<?xml version="1.0" encoding="UTF-8" standalone="no"?>
<!DOCTYPE svg PUBLIC "-//W3C//DTD SVG 1.1//EN"
 "http://www.w3.org/Graphics/SVG/1.1/DTD/svg11.dtd">
<!-- Generated by graphviz version 2.36.0 (20140111.2315)
 -->
<!-- Title: commands.information.BaseGridContainer.update Pages: 1 -->
<svg width="382pt" height="430pt"
 viewBox="0.00 0.00 382.00 430.00" xmlns="http://www.w3.org/2000/svg" xmlns:xlink="http://www.w3.org/1999/xlink">
<g id="graph0" class="graph" transform="scale(1 1) rotate(0) translate(4 426)">
<title>commands.information.BaseGridContainer.update</title>
<polygon fill="white" stroke="none" points="-4,4 -4,-426 378,-426 378,4 -4,4"/>
<!-- Node1 -->
<g id="node1" class="node"><title>Node1</title>
<polygon fill="#bfbfbf" stroke="black" points="0.5,-196 0.5,-226 155.5,-226 155.5,-196 0.5,-196"/>
<text text-anchor="start" x="8.5" y="-214" font-family="Helvetica,sans-Serif" font-size="10.00">commands.information.Base</text>
<text text-anchor="middle" x="78" y="-203" font-family="Helvetica,sans-Serif" font-size="10.00">GridContainer.update</text>
</g>
<!-- Node2 -->
<g id="node2" class="node"><title>Node2</title>
<g id="a_node2"><a xlink:href="../../df/d1b/classcommands_1_1turtle_commands_1_1_back_command.html#a2f60b951011f138ae8916447519fe166" target="_top" xlink:title="commands.turtleCommands.\lBackCommand.onExecute">
<polygon fill="white" stroke="black" points="204,-392 204,-422 362,-422 362,-392 204,-392"/>
<text text-anchor="start" x="212" y="-410" font-family="Helvetica,sans-Serif" font-size="10.00">commands.turtleCommands.</text>
<text text-anchor="middle" x="283" y="-399" font-family="Helvetica,sans-Serif" font-size="10.00">BackCommand.onExecute</text>
</a>
</g>
</g>
<!-- Node1&#45;&gt;Node2 -->
<g id="edge1" class="edge"><title>Node1&#45;&gt;Node2</title>
<path fill="none" stroke="midnightblue" d="M88.6463,-235.835C104.472,-273.271 139.526,-343.829 192,-382 197.377,-385.911 203.34,-389.211 209.563,-391.995"/>
<polygon fill="midnightblue" stroke="midnightblue" points="91.7299,-234.13 84.6941,-226.209 85.2545,-236.789 91.7299,-234.13"/>
</g>
<!-- Node3 -->
<g id="node3" class="node"><title>Node3</title>
<g id="a_node3"><a xlink:href="../../da/db6/classcommands_1_1turtle_commands_1_1_forward_command.html#a804cd1b0300e3c10498b66ea5edeb18c" target="_top" xlink:title="commands.turtleCommands.\lForwardCommand.onExecute">
<polygon fill="white" stroke="black" points="204,-343 204,-373 362,-373 362,-343 204,-343"/>
<text text-anchor="start" x="212" y="-361" font-family="Helvetica,sans-Serif" font-size="10.00">commands.turtleCommands.</text>
<text text-anchor="middle" x="283" y="-350" font-family="Helvetica,sans-Serif" font-size="10.00">ForwardCommand.onExecute</text>
</a>
</g>
</g>
<!-- Node1&#45;&gt;Node3 -->
<g id="edge2" class="edge"><title>Node1&#45;&gt;Node3</title>
<path fill="none" stroke="midnightblue" d="M94.6242,-234.583C114.164,-262.232 150.179,-307.513 192,-333 198.37,-336.882 205.357,-340.176 212.533,-342.968"/>
<polygon fill="midnightblue" stroke="midnightblue" points="97.4416,-232.503 88.8727,-226.272 91.6857,-236.487 97.4416,-232.503"/>
</g>
<!-- Node4 -->
<g id="node4" class="node"><title>Node4</title>
<g id="a_node4"><a xlink:href="../../dd/db2/classcommands_1_1turtle_commands_1_1_right_command.html#a0eddcf5dbe1361c0dab5433a3f42aae7" target="_top" xlink:title="commands.turtleCommands.\lRightCommand.onExecute">
<polygon fill="white" stroke="black" points="204,-294 204,-324 362,-324 362,-294 204,-294"/>
<text text-anchor="start" x="212" y="-312" font-family="Helvetica,sans-Serif" font-size="10.00">commands.turtleCommands.</text>
<text text-anchor="middle" x="283" y="-301" font-family="Helvetica,sans-Serif" font-size="10.00">RightCommand.onExecute</text>
</a>
</g>
</g>
<!-- Node1&#45;&gt;Node4 -->
<g id="edge3" class="edge"><title>Node1&#45;&gt;Node4</title>
<path fill="none" stroke="midnightblue" d="M106.585,-232.223C128.665,-248.347 160.967,-270.058 192,-284 200.284,-287.722 209.25,-291.011 218.204,-293.88"/>
<polygon fill="midnightblue" stroke="midnightblue" points="108.478,-229.269 98.3591,-226.128 104.31,-234.893 108.478,-229.269"/>
</g>
<!-- Node5 -->
<g id="node5" class="node"><title>Node5</title>
<g id="a_node5"><a xlink:href="../../d5/d5b/classcommands_1_1turtle_commands_1_1_set_heading_command.html#a5e2f849ee53234e4f095c3a5db842222" target="_top" xlink:title="commands.turtleCommands.\lSetHeadingCommand.onExecute">
<polygon fill="white" stroke="black" points="195,-245 195,-275 371,-275 371,-245 195,-245"/>
<text text-anchor="start" x="203" y="-263" font-family="Helvetica,sans-Serif" font-size="10.00">commands.turtleCommands.</text>
<text text-anchor="middle" x="283" y="-252" font-family="Helvetica,sans-Serif" font-size="10.00">SetHeadingCommand.onExecute</text>
</a>
</g>
</g>
<!-- Node1&#45;&gt;Node5 -->
<g id="edge4" class="edge"><title>Node1&#45;&gt;Node5</title>
<path fill="none" stroke="midnightblue" d="M151.102,-228.404C173.558,-233.824 198.116,-239.752 219.832,-244.994"/>
<polygon fill="midnightblue" stroke="midnightblue" points="151.828,-224.979 141.286,-226.035 150.186,-231.783 151.828,-224.979"/>
</g>
<!-- Node6 -->
<g id="node6" class="node"><title>Node6</title>
<g id="a_node6"><a xlink:href="../../db/d66/classcommands_1_1turtle_commands_1_1_left_command.html#ad05f5e31458463730a6a78444f481db3" target="_top" xlink:title="commands.turtleCommands.\lLeftCommand.onExecute">
<polygon fill="white" stroke="black" points="204,-196 204,-226 362,-226 362,-196 204,-196"/>
<text text-anchor="start" x="212" y="-214" font-family="Helvetica,sans-Serif" font-size="10.00">commands.turtleCommands.</text>
<text text-anchor="middle" x="283" y="-203" font-family="Helvetica,sans-Serif" font-size="10.00">LeftCommand.onExecute</text>
</a>
</g>
</g>
<!-- Node1&#45;&gt;Node6 -->
<g id="edge5" class="edge"><title>Node1&#45;&gt;Node6</title>
<path fill="none" stroke="midnightblue" d="M165.79,-211C178.416,-211 191.353,-211 203.796,-211"/>
<polygon fill="midnightblue" stroke="midnightblue" points="165.746,-207.5 155.746,-211 165.746,-214.5 165.746,-207.5"/>
</g>
<!-- Node7 -->
<g id="node7" class="node"><title>Node7</title>
<g id="a_node7"><a xlink:href="../../df/d55/classcommands_1_1view_commands_1_1_clear_screen_command.html#ae22b9c821c2d07903bdcea4eaad1f959" target="_top" xlink:title="commands.viewCommands.Clear\lScreenCommand.onExecute">
<polygon fill="white" stroke="black" points="194.5,-147 194.5,-177 371.5,-177 371.5,-147 194.5,-147"/>
<text text-anchor="start" x="202.5" y="-165" font-family="Helvetica,sans-Serif" font-size="10.00">commands.viewCommands.Clear</text>
<text text-anchor="middle" x="283" y="-154" font-family="Helvetica,sans-Serif" font-size="10.00">ScreenCommand.onExecute</text>
</a>
</g>
</g>
<!-- Node1&#45;&gt;Node7 -->
<g id="edge6" class="edge"><title>Node1&#45;&gt;Node7</title>
<path fill="none" stroke="midnightblue" d="M151.102,-193.596C173.558,-188.176 198.116,-182.248 219.832,-177.006"/>
<polygon fill="midnightblue" stroke="midnightblue" points="150.186,-190.217 141.286,-195.965 151.828,-197.021 150.186,-190.217"/>
</g>
<!-- Node8 -->
<g id="node8" class="node"><title>Node8</title>
<g id="a_node8"><a xlink:href="../../d2/d96/classcommands_1_1turtle_commands_1_1_towards_command.html#acf88e2411c3dbf606349900a9dea4727" target="_top" xlink:title="commands.turtleCommands.\lTowardsCommand.onExecute">
<polygon fill="white" stroke="black" points="204,-98 204,-128 362,-128 362,-98 204,-98"/>
<text text-anchor="start" x="212" y="-116" font-family="Helvetica,sans-Serif" font-size="10.00">commands.turtleCommands.</text>
<text text-anchor="middle" x="283" y="-105" font-family="Helvetica,sans-Serif" font-size="10.00">TowardsCommand.onExecute</text>
</a>
</g>
</g>
<!-- Node1&#45;&gt;Node8 -->
<g id="edge7" class="edge"><title>Node1&#45;&gt;Node8</title>
<path fill="none" stroke="midnightblue" d="M106.585,-189.777C128.665,-173.653 160.967,-151.942 192,-138 200.284,-134.278 209.25,-130.989 218.204,-128.12"/>
<polygon fill="midnightblue" stroke="midnightblue" points="104.31,-187.107 98.3591,-195.872 108.478,-192.731 104.31,-187.107"/>
</g>
<!-- Node9 -->
<g id="node9" class="node"><title>Node9</title>
<g id="a_node9"><a xlink:href="../../d9/d14/classcommands_1_1turtle_commands_1_1_set_position_command.html#a1ff02e56e7927a1002a7412040c98e77" target="_top" xlink:title="commands.turtleCommands.\lSetPositionCommand.onExecute">
<polygon fill="white" stroke="black" points="196,-49 196,-79 370,-79 370,-49 196,-49"/>
<text text-anchor="start" x="204" y="-67" font-family="Helvetica,sans-Serif" font-size="10.00">commands.turtleCommands.</text>
<text text-anchor="middle" x="283" y="-56" font-family="Helvetica,sans-Serif" font-size="10.00">SetPositionCommand.onExecute</text>
</a>
</g>
</g>
<!-- Node1&#45;&gt;Node9 -->
<g id="edge8" class="edge"><title>Node1&#45;&gt;Node9</title>
<path fill="none" stroke="midnightblue" d="M94.6242,-187.417C114.164,-159.768 150.179,-114.487 192,-89 198.37,-85.118 205.357,-81.824 212.533,-79.0319"/>
<polygon fill="midnightblue" stroke="midnightblue" points="91.6857,-185.513 88.8727,-195.728 97.4416,-189.497 91.6857,-185.513"/>
</g>
<!-- Node10 -->
<g id="node10" class="node"><title>Node10</title>
<g id="a_node10"><a xlink:href="../../db/dc5/classcommands_1_1view_commands_1_1_home_command.html#a91670541a28ed18996a9bc3433029857" target="_top" xlink:title="commands.viewCommands.Home\lCommand.onExecute">
<polygon fill="white" stroke="black" points="192,-0 192,-30 374,-30 374,-0 192,-0"/>
<text text-anchor="start" x="200" y="-18" font-family="Helvetica,sans-Serif" font-size="10.00">commands.viewCommands.Home</text>
<text text-anchor="middle" x="283" y="-7" font-family="Helvetica,sans-Serif" font-size="10.00">Command.onExecute</text>
</a>
</g>
</g>
<!-- Node1&#45;&gt;Node10 -->
<g id="edge9" class="edge"><title>Node1&#45;&gt;Node10</title>
<path fill="none" stroke="midnightblue" d="M88.6463,-186.165C104.472,-148.729 139.526,-78.1715 192,-40 197.377,-36.0888 203.34,-32.7892 209.563,-30.0055"/>
<polygon fill="midnightblue" stroke="midnightblue" points="85.2545,-185.211 84.6941,-195.791 91.7299,-187.87 85.2545,-185.211"/>
</g>
</g>
</svg>
