<?xml version="1.0" encoding="UTF-8" standalone="no"?>
<!DOCTYPE svg PUBLIC "-//W3C//DTD SVG 1.1//EN"
 "http://www.w3.org/Graphics/SVG/1.1/DTD/svg11.dtd">
<!-- Generated by graphviz version 2.36.0 (20140111.2315)
 -->
<!-- Title: commands.variableCommands.VariableCommand Pages: 1 -->
<svg width="676pt" height="136pt"
 viewBox="0.00 0.00 676.00 136.00" xmlns="http://www.w3.org/2000/svg" xmlns:xlink="http://www.w3.org/1999/xlink">
<g id="graph0" class="graph" transform="scale(1 1) rotate(0) translate(4 132)">
<title>commands.variableCommands.VariableCommand</title>
<polygon fill="white" stroke="none" points="-4,4 -4,-132 672,-132 672,4 -4,4"/>
<!-- Node1 -->
<g id="node1" class="node"><title>Node1</title>
<polygon fill="#bfbfbf" stroke="black" points="292,-49 292,-79 462,-79 462,-49 292,-49"/>
<text text-anchor="start" x="300" y="-67" font-family="Helvetica,sans-Serif" font-size="10.00">commands.variableCommands.</text>
<text text-anchor="middle" x="377" y="-56" font-family="Helvetica,sans-Serif" font-size="10.00">VariableCommand</text>
</g>
<!-- Node4 -->
<g id="node4" class="node"><title>Node4</title>
<g id="a_node4"><a xlink:href="../../de/de4/classcommands_1_1variable_commands_1_1_created_command.html" target="_top" xlink:title="commands.variableCommands.\lCreatedCommand">
<polygon fill="white" stroke="black" points="498,-98 498,-128 668,-128 668,-98 498,-98"/>
<text text-anchor="start" x="506" y="-116" font-family="Helvetica,sans-Serif" font-size="10.00">commands.variableCommands.</text>
<text text-anchor="middle" x="583" y="-105" font-family="Helvetica,sans-Serif" font-size="10.00">CreatedCommand</text>
</a>
</g>
</g>
<!-- Node1&#45;&gt;Node4 -->
<g id="edge3" class="edge"><title>Node1&#45;&gt;Node4</title>
<path fill="none" stroke="midnightblue" d="M450.457,-81.4038C473.024,-86.8243 497.702,-92.752 519.525,-97.9938"/>
<polygon fill="midnightblue" stroke="midnightblue" points="451.134,-77.967 440.593,-79.0346 449.499,-84.7734 451.134,-77.967"/>
</g>
<!-- Node5 -->
<g id="node5" class="node"><title>Node5</title>
<g id="a_node5"><a xlink:href="../../de/d2a/classcommands_1_1variable_commands_1_1_get_variable_command.html" target="_top" xlink:title="commands.variableCommands.\lGetVariableCommand">
<polygon fill="white" stroke="black" points="498,-49 498,-79 668,-79 668,-49 498,-49"/>
<text text-anchor="start" x="506" y="-67" font-family="Helvetica,sans-Serif" font-size="10.00">commands.variableCommands.</text>
<text text-anchor="middle" x="583" y="-56" font-family="Helvetica,sans-Serif" font-size="10.00">GetVariableCommand</text>
</a>
</g>
</g>
<!-- Node1&#45;&gt;Node5 -->
<g id="edge4" class="edge"><title>Node1&#45;&gt;Node5</title>
<path fill="none" stroke="midnightblue" d="M472.402,-64C480.847,-64 489.361,-64 497.712,-64"/>
<polygon fill="midnightblue" stroke="midnightblue" points="472.152,-60.5001 462.152,-64 472.152,-67.5001 472.152,-60.5001"/>
</g>
<!-- Node6 -->
<g id="node6" class="node"><title>Node6</title>
<g id="a_node6"><a xlink:href="../../d0/de5/classcommands_1_1variable_commands_1_1_set_variable_command.html" target="_top" xlink:title="commands.variableCommands.\lSetVariableCommand">
<polygon fill="white" stroke="black" points="498,-0 498,-30 668,-30 668,-0 498,-0"/>
<text text-anchor="start" x="506" y="-18" font-family="Helvetica,sans-Serif" font-size="10.00">commands.variableCommands.</text>
<text text-anchor="middle" x="583" y="-7" font-family="Helvetica,sans-Serif" font-size="10.00">SetVariableCommand</text>
</a>
</g>
</g>
<!-- Node1&#45;&gt;Node6 -->
<g id="edge5" class="edge"><title>Node1&#45;&gt;Node6</title>
<path fill="none" stroke="midnightblue" d="M450.457,-46.5962C473.024,-41.1757 497.702,-35.248 519.525,-30.0062"/>
<polygon fill="midnightblue" stroke="midnightblue" points="449.499,-43.2266 440.593,-48.9654 451.134,-50.033 449.499,-43.2266"/>
</g>
<!-- Node2 -->
<g id="node2" class="node"><title>Node2</title>
<g id="a_node2"><a xlink:href="../../da/d90/classcommands_1_1_base_command.html" target="_top" xlink:title="commands.BaseCommand">
<polygon fill="white" stroke="black" points="108,-54.5 108,-73.5 256,-73.5 256,-54.5 108,-54.5"/>
<text text-anchor="middle" x="182" y="-61.5" font-family="Helvetica,sans-Serif" font-size="10.00">commands.BaseCommand</text>
</a>
</g>
</g>
<!-- Node2&#45;&gt;Node1 -->
<g id="edge1" class="edge"><title>Node2&#45;&gt;Node1</title>
<path fill="none" stroke="midnightblue" d="M266.422,-64C274.839,-64 283.391,-64 291.816,-64"/>
<polygon fill="midnightblue" stroke="midnightblue" points="266.24,-60.5001 256.24,-64 266.24,-67.5001 266.24,-60.5001"/>
</g>
<!-- Node3 -->
<g id="node3" class="node"><title>Node3</title>
<polygon fill="white" stroke="#bfbfbf" points="0.5,-54.5 0.5,-73.5 71.5,-73.5 71.5,-54.5 0.5,-54.5"/>
<text text-anchor="middle" x="36" y="-61.5" font-family="Helvetica,sans-Serif" font-size="10.00">Serializable</text>
</g>
<!-- Node3&#45;&gt;Node2 -->
<g id="edge2" class="edge"><title>Node3&#45;&gt;Node2</title>
<path fill="none" stroke="midnightblue" d="M81.9439,-64C90.1703,-64 98.9482,-64 107.751,-64"/>
<polygon fill="midnightblue" stroke="midnightblue" points="81.8584,-60.5001 71.8584,-64 81.8583,-67.5001 81.8584,-60.5001"/>
</g>
</g>
</svg>
