<?xml version="1.0" encoding="UTF-8" standalone="no"?>
<!DOCTYPE svg PUBLIC "-//W3C//DTD SVG 1.1//EN"
 "http://www.w3.org/Graphics/SVG/1.1/DTD/svg11.dtd">
<!-- Generated by graphviz version 2.36.0 (20140111.2315)
 -->
<!-- Title: commands.information.SingleGridInformationGateway.getContainers Pages: 1 -->
<svg width="568pt" height="38pt"
 viewBox="0.00 0.00 568.00 38.00" xmlns="http://www.w3.org/2000/svg" xmlns:xlink="http://www.w3.org/1999/xlink">
<g id="graph0" class="graph" transform="scale(1 1) rotate(0) translate(4 34)">
<title>commands.information.SingleGridInformationGateway.getContainers</title>
<polygon fill="white" stroke="none" points="-4,4 -4,-34 564,-34 564,4 -4,4"/>
<!-- Node1 -->
<g id="node1" class="node"><title>Node1</title>
<polygon fill="#bfbfbf" stroke="black" points="0.5,-0 0.5,-30 201.5,-30 201.5,-0 0.5,-0"/>
<text text-anchor="start" x="8.5" y="-18" font-family="Helvetica,sans-Serif" font-size="10.00">commands.information.Single</text>
<text text-anchor="middle" x="101" y="-7" font-family="Helvetica,sans-Serif" font-size="10.00">GridInformationGateway.getContainers</text>
</g>
<!-- Node2 -->
<g id="node2" class="node"><title>Node2</title>
<g id="a_node2"><a xlink:href="../../d1/d2c/classcommands_1_1information_1_1_single_grid_information_gateway.html#ad0b75250870736b7810aecdef19eb3d4" target="_top" xlink:title="commands.information.Single\lGridInformationGateway.getContainer">
<polygon fill="white" stroke="black" points="238,-0 238,-30 434,-30 434,-0 238,-0"/>
<text text-anchor="start" x="246" y="-18" font-family="Helvetica,sans-Serif" font-size="10.00">commands.information.Single</text>
<text text-anchor="middle" x="336" y="-7" font-family="Helvetica,sans-Serif" font-size="10.00">GridInformationGateway.getContainer</text>
</a>
</g>
</g>
<!-- Node1&#45;&gt;Node2 -->
<g id="edge1" class="edge"><title>Node1&#45;&gt;Node2</title>
<path fill="none" stroke="midnightblue" d="M201.827,-15C210.438,-15 219.174,-15 227.84,-15"/>
<polygon fill="midnightblue" stroke="midnightblue" points="227.97,-18.5001 237.97,-15 227.97,-11.5001 227.97,-18.5001"/>
</g>
<!-- Node3 -->
<g id="node3" class="node"><title>Node3</title>
<g id="a_node3"><a xlink:href="../../d0/d92/class_view_1_1_grid.html#a41a30a88e387ffd4c232201536049709" target="_top" xlink:title="View.Grid.getID">
<polygon fill="white" stroke="black" points="470.5,-5.5 470.5,-24.5 559.5,-24.5 559.5,-5.5 470.5,-5.5"/>
<text text-anchor="middle" x="515" y="-12.5" font-family="Helvetica,sans-Serif" font-size="10.00">View.Grid.getID</text>
</a>
</g>
</g>
<!-- Node2&#45;&gt;Node3 -->
<g id="edge2" class="edge"><title>Node2&#45;&gt;Node3</title>
<path fill="none" stroke="midnightblue" d="M434.044,-15C442.99,-15 451.817,-15 460.157,-15"/>
<polygon fill="midnightblue" stroke="midnightblue" points="460.433,-18.5001 470.433,-15 460.433,-11.5001 460.433,-18.5001"/>
</g>
</g>
</svg>
