<?xml version="1.0" encoding="UTF-8" standalone="no"?>
<!DOCTYPE svg PUBLIC "-//W3C//DTD SVG 1.1//EN"
 "http://www.w3.org/Graphics/SVG/1.1/DTD/svg11.dtd">
<!-- Generated by graphviz version 2.36.0 (20140111.2315)
 -->
<!-- Title: commands.information.SingleGridInformationGateway.getContainer Pages: 1 -->
<svg width="442pt" height="38pt"
 viewBox="0.00 0.00 442.00 38.00" xmlns="http://www.w3.org/2000/svg" xmlns:xlink="http://www.w3.org/1999/xlink">
<g id="graph0" class="graph" transform="scale(1 1) rotate(0) translate(4 34)">
<title>commands.information.SingleGridInformationGateway.getContainer</title>
<polygon fill="white" stroke="none" points="-4,4 -4,-34 438,-34 438,4 -4,4"/>
<!-- Node1 -->
<g id="node1" class="node"><title>Node1</title>
<polygon fill="#bfbfbf" stroke="black" points="0,-0 0,-30 196,-30 196,-0 0,-0"/>
<text text-anchor="start" x="8" y="-18" font-family="Helvetica,sans-Serif" font-size="10.00">commands.information.Single</text>
<text text-anchor="middle" x="98" y="-7" font-family="Helvetica,sans-Serif" font-size="10.00">GridInformationGateway.getContainer</text>
</g>
<!-- Node2 -->
<g id="node2" class="node"><title>Node2</title>
<g id="a_node2"><a xlink:href="../../d1/d2c/classcommands_1_1information_1_1_single_grid_information_gateway.html#ac03e09cb79838bc9e13bb51fca1e8142" target="_top" xlink:title="commands.information.Single\lGridInformationGateway.getContainers">
<polygon fill="white" stroke="black" points="232.5,-0 232.5,-30 433.5,-30 433.5,-0 232.5,-0"/>
<text text-anchor="start" x="240.5" y="-18" font-family="Helvetica,sans-Serif" font-size="10.00">commands.information.Single</text>
<text text-anchor="middle" x="333" y="-7" font-family="Helvetica,sans-Serif" font-size="10.00">GridInformationGateway.getContainers</text>
</a>
</g>
</g>
<!-- Node1&#45;&gt;Node2 -->
<g id="edge1" class="edge"><title>Node1&#45;&gt;Node2</title>
<path fill="none" stroke="midnightblue" d="M206.295,-15C214.995,-15 223.764,-15 232.406,-15"/>
<polygon fill="midnightblue" stroke="midnightblue" points="206.126,-11.5001 196.126,-15 206.126,-18.5001 206.126,-11.5001"/>
</g>
</g>
</svg>
