<?xml version="1.0" encoding="UTF-8" standalone="no"?>
<!DOCTYPE svg PUBLIC "-//W3C//DTD SVG 1.1//EN"
 "http://www.w3.org/Graphics/SVG/1.1/DTD/svg11.dtd">
<!-- Generated by graphviz version 2.36.0 (20140111.2315)
 -->
<!-- Title: commands.viewCommands.HomeCommand Pages: 1 -->
<svg width="190pt" height="276pt"
 viewBox="0.00 0.00 190.00 276.00" xmlns="http://www.w3.org/2000/svg" xmlns:xlink="http://www.w3.org/1999/xlink">
<g id="graph0" class="graph" transform="scale(1 1) rotate(0) translate(4 272)">
<title>commands.viewCommands.HomeCommand</title>
<polygon fill="white" stroke="none" points="-4,4 -4,-272 186,-272 186,4 -4,4"/>
<!-- Node1 -->
<g id="node1" class="node"><title>Node1</title>
<polygon fill="#bfbfbf" stroke="black" points="0,-1 0,-31 182,-31 182,-1 0,-1"/>
<text text-anchor="start" x="8" y="-19" font-family="Helvetica,sans-Serif" font-size="10.00">commands.viewCommands.Home</text>
<text text-anchor="middle" x="91" y="-8" font-family="Helvetica,sans-Serif" font-size="10.00">Command</text>
</g>
<!-- Node2 -->
<g id="node2" class="node"><title>Node2</title>
<g id="a_node2"><a xlink:href="../../d0/d90/classcommands_1_1_turtle_query.html" target="_top" xlink:title="commands.TurtleQuery">
<polygon fill="white" stroke="black" points="27,-68.5 27,-87.5 155,-87.5 155,-68.5 27,-68.5"/>
<text text-anchor="middle" x="91" y="-75.5" font-family="Helvetica,sans-Serif" font-size="10.00">commands.TurtleQuery</text>
</a>
</g>
</g>
<!-- Node2&#45;&gt;Node1 -->
<g id="edge1" class="edge"><title>Node2&#45;&gt;Node1</title>
<path fill="none" stroke="midnightblue" d="M91,-58.3707C91,-49.5849 91,-39.2721 91,-31.1408"/>
<polygon fill="midnightblue" stroke="midnightblue" points="87.5001,-58.4034 91,-68.4035 94.5001,-58.4035 87.5001,-58.4034"/>
</g>
<!-- Node3 -->
<g id="node3" class="node"><title>Node3</title>
<g id="a_node3"><a xlink:href="../../d3/d03/classcommands_1_1turtle_commands_1_1_turtle_command.html" target="_top" xlink:title="commands.turtleCommands.\lTurtleCommand">
<polygon fill="white" stroke="black" points="12,-125 12,-155 170,-155 170,-125 12,-125"/>
<text text-anchor="start" x="20" y="-143" font-family="Helvetica,sans-Serif" font-size="10.00">commands.turtleCommands.</text>
<text text-anchor="middle" x="91" y="-132" font-family="Helvetica,sans-Serif" font-size="10.00">TurtleCommand</text>
</a>
</g>
</g>
<!-- Node3&#45;&gt;Node2 -->
<g id="edge2" class="edge"><title>Node3&#45;&gt;Node2</title>
<path fill="none" stroke="midnightblue" d="M91,-114.586C91,-105.074 91,-94.7864 91,-87.7305"/>
<polygon fill="midnightblue" stroke="midnightblue" points="87.5001,-114.781 91,-124.781 94.5001,-114.781 87.5001,-114.781"/>
</g>
<!-- Node4 -->
<g id="node4" class="node"><title>Node4</title>
<g id="a_node4"><a xlink:href="../../da/d90/classcommands_1_1_base_command.html" target="_top" xlink:title="commands.BaseCommand">
<polygon fill="white" stroke="black" points="17,-192.5 17,-211.5 165,-211.5 165,-192.5 17,-192.5"/>
<text text-anchor="middle" x="91" y="-199.5" font-family="Helvetica,sans-Serif" font-size="10.00">commands.BaseCommand</text>
</a>
</g>
</g>
<!-- Node4&#45;&gt;Node3 -->
<g id="edge3" class="edge"><title>Node4&#45;&gt;Node3</title>
<path fill="none" stroke="midnightblue" d="M91,-182.371C91,-173.585 91,-163.272 91,-155.141"/>
<polygon fill="midnightblue" stroke="midnightblue" points="87.5001,-182.403 91,-192.403 94.5001,-182.403 87.5001,-182.403"/>
</g>
<!-- Node5 -->
<g id="node5" class="node"><title>Node5</title>
<polygon fill="white" stroke="#bfbfbf" points="55.5,-248.5 55.5,-267.5 126.5,-267.5 126.5,-248.5 55.5,-248.5"/>
<text text-anchor="middle" x="91" y="-255.5" font-family="Helvetica,sans-Serif" font-size="10.00">Serializable</text>
</g>
<!-- Node5&#45;&gt;Node4 -->
<g id="edge4" class="edge"><title>Node5&#45;&gt;Node4</title>
<path fill="none" stroke="midnightblue" d="M91,-237.805C91,-228.91 91,-218.78 91,-211.751"/>
<polygon fill="midnightblue" stroke="midnightblue" points="87.5001,-238.083 91,-248.083 94.5001,-238.083 87.5001,-238.083"/>
</g>
</g>
</svg>
