<?xml version="1.0" encoding="UTF-8" standalone="no"?>
<!DOCTYPE svg PUBLIC "-//W3C//DTD SVG 1.1//EN"
 "http://www.w3.org/Graphics/SVG/1.1/DTD/svg11.dtd">
<!-- Generated by graphviz version 2.36.0 (20140111.2315)
 -->
<!-- Title: View.TabsOfGrids.setUpKeyBoardHandler Pages: 1 -->
<svg width="1058pt" height="337pt"
 viewBox="0.00 0.00 1058.00 337.00" xmlns="http://www.w3.org/2000/svg" xmlns:xlink="http://www.w3.org/1999/xlink">
<g id="graph0" class="graph" transform="scale(1 1) rotate(0) translate(4 333)">
<title>View.TabsOfGrids.setUpKeyBoardHandler</title>
<polygon fill="white" stroke="none" points="-4,4 -4,-333 1054,-333 1054,4 -4,4"/>
<!-- Node1 -->
<g id="node1" class="node"><title>Node1</title>
<polygon fill="#bfbfbf" stroke="black" points="0.5,-252 0.5,-282 145.5,-282 145.5,-252 0.5,-252"/>
<text text-anchor="start" x="8.5" y="-270" font-family="Helvetica,sans-Serif" font-size="10.00">View.TabsOfGrids.setUpKey</text>
<text text-anchor="middle" x="73" y="-259" font-family="Helvetica,sans-Serif" font-size="10.00">BoardHandler</text>
</g>
<!-- Node2 -->
<g id="node2" class="node"><title>Node2</title>
<g id="a_node2"><a xlink:href="../../d9/db1/class_view_1_1_single_grid.html#a63dce7bacaea4b387aeef30975ad678b" target="_top" xlink:title="View.SingleGrid.getActive\lTurtles">
<polygon fill="white" stroke="black" points="366.5,-275 366.5,-305 503.5,-305 503.5,-275 366.5,-275"/>
<text text-anchor="start" x="374.5" y="-293" font-family="Helvetica,sans-Serif" font-size="10.00">View.SingleGrid.getActive</text>
<text text-anchor="middle" x="435" y="-282" font-family="Helvetica,sans-Serif" font-size="10.00">Turtles</text>
</a>
</g>
</g>
<!-- Node1&#45;&gt;Node2 -->
<g id="edge1" class="edge"><title>Node1&#45;&gt;Node2</title>
<path fill="none" stroke="midnightblue" d="M145.555,-271.572C206.352,-275.456 293.464,-281.021 356.025,-285.018"/>
<polygon fill="midnightblue" stroke="midnightblue" points="356.034,-288.526 366.236,-285.671 356.48,-281.54 356.034,-288.526"/>
</g>
<!-- Node3 -->
<g id="node3" class="node"><title>Node3</title>
<g id="a_node3"><a xlink:href="../../d9/db1/class_view_1_1_single_grid.html#a4c6eabf92c3205a22dc266cf0923f836" target="_top" xlink:title="View.SingleGrid.keyUpdate">
<polygon fill="white" stroke="black" points="182,-237.5 182,-256.5 326,-256.5 326,-237.5 182,-237.5"/>
<text text-anchor="middle" x="254" y="-244.5" font-family="Helvetica,sans-Serif" font-size="10.00">View.SingleGrid.keyUpdate</text>
</a>
</g>
</g>
<!-- Node1&#45;&gt;Node3 -->
<g id="edge2" class="edge"><title>Node1&#45;&gt;Node3</title>
<path fill="none" stroke="midnightblue" d="M145.517,-259.009C154.126,-258.047 162.967,-257.06 171.702,-256.084"/>
<polygon fill="midnightblue" stroke="midnightblue" points="172.339,-259.534 181.888,-254.945 171.562,-252.578 172.339,-259.534"/>
</g>
<!-- Node3&#45;&gt;Node2 -->
<g id="edge3" class="edge"><title>Node3&#45;&gt;Node2</title>
<path fill="none" stroke="midnightblue" d="M294.726,-256.543C314.375,-261.263 338.717,-267.111 361.526,-272.59"/>
<polygon fill="midnightblue" stroke="midnightblue" points="360.991,-276.061 371.532,-274.994 362.626,-269.255 360.991,-276.061"/>
</g>
<!-- Node4 -->
<g id="node4" class="node"><title>Node4</title>
<g id="a_node4"><a xlink:href="../../d9/db1/class_view_1_1_single_grid.html#a9093eac50d88370f86cb4757b996210e" target="_top" xlink:title="View.SingleGrid.keepTurtle\lInBounds">
<polygon fill="white" stroke="black" points="364.5,-152 364.5,-182 505.5,-182 505.5,-152 364.5,-152"/>
<text text-anchor="start" x="372.5" y="-170" font-family="Helvetica,sans-Serif" font-size="10.00">View.SingleGrid.keepTurtle</text>
<text text-anchor="middle" x="435" y="-159" font-family="Helvetica,sans-Serif" font-size="10.00">InBounds</text>
</a>
</g>
</g>
<!-- Node3&#45;&gt;Node4 -->
<g id="edge4" class="edge"><title>Node3&#45;&gt;Node4</title>
<path fill="none" stroke="midnightblue" d="M276.592,-237.35C304.845,-224.723 355.001,-202.307 391.113,-186.167"/>
<polygon fill="midnightblue" stroke="midnightblue" points="392.731,-189.278 400.432,-182.002 389.875,-182.887 392.731,-189.278"/>
</g>
<!-- Node20 -->
<g id="node20" class="node"><title>Node20</title>
<g id="a_node20"><a xlink:href="../../d9/db1/class_view_1_1_single_grid.html#a7fced187abf44b802950675ee590f493" target="_top" xlink:title="View.SingleGrid.moveTurtle">
<polygon fill="white" stroke="black" points="362.5,-236.5 362.5,-255.5 507.5,-255.5 507.5,-236.5 362.5,-236.5"/>
<text text-anchor="middle" x="435" y="-243.5" font-family="Helvetica,sans-Serif" font-size="10.00">View.SingleGrid.moveTurtle</text>
</a>
</g>
</g>
<!-- Node3&#45;&gt;Node20 -->
<g id="edge22" class="edge"><title>Node3&#45;&gt;Node20</title>
<path fill="none" stroke="midnightblue" d="M326.003,-246.603C334.632,-246.555 343.501,-246.506 352.27,-246.457"/>
<polygon fill="midnightblue" stroke="midnightblue" points="352.517,-249.955 362.497,-246.399 352.478,-242.955 352.517,-249.955"/>
</g>
<!-- Node5 -->
<g id="node5" class="node"><title>Node5</title>
<g id="a_node5"><a xlink:href="../../dc/d19/class_view_1_1_pen.html#a9baa63a91f8cd62a806147fdeaf44865" target="_top" xlink:title="View.Pen.drawLine">
<polygon fill="white" stroke="black" points="564,-5.5 564,-24.5 668,-24.5 668,-5.5 564,-5.5"/>
<text text-anchor="middle" x="616" y="-12.5" font-family="Helvetica,sans-Serif" font-size="10.00">View.Pen.drawLine</text>
</a>
</g>
</g>
<!-- Node4&#45;&gt;Node5 -->
<g id="edge5" class="edge"><title>Node4&#45;&gt;Node5</title>
<path fill="none" stroke="midnightblue" d="M444.132,-151.608C459.673,-123.728 496.328,-64.9019 544,-34 547.185,-31.9351 550.589,-30.0936 554.118,-28.4514"/>
<polygon fill="midnightblue" stroke="midnightblue" points="555.745,-31.5679 563.685,-24.5533 553.104,-25.0853 555.745,-31.5679"/>
</g>
<!-- Node8 -->
<g id="node8" class="node"><title>Node8</title>
<g id="a_node8"><a xlink:href="../../df/dcb/classturtle_1_1_turtle.html#a0b8bdf8fc097cab5bf51d46567c2d749" target="_top" xlink:title="turtle.Turtle.getPen">
<polygon fill="white" stroke="black" points="562.5,-43.5 562.5,-62.5 669.5,-62.5 669.5,-43.5 562.5,-43.5"/>
<text text-anchor="middle" x="616" y="-50.5" font-family="Helvetica,sans-Serif" font-size="10.00">turtle.Turtle.getPen</text>
</a>
</g>
</g>
<!-- Node4&#45;&gt;Node8 -->
<g id="edge8" class="edge"><title>Node4&#45;&gt;Node8</title>
<path fill="none" stroke="midnightblue" d="M449.055,-151.758C467.906,-130.711 504.811,-92.9764 544,-72 548.275,-69.7118 552.845,-67.6842 557.529,-65.8903"/>
<polygon fill="midnightblue" stroke="midnightblue" points="558.938,-69.1062 567.244,-62.5278 556.649,-62.4912 558.938,-69.1062"/>
</g>
<!-- Node9 -->
<g id="node9" class="node"><title>Node9</title>
<g id="a_node9"><a xlink:href="../../dc/d19/class_view_1_1_pen.html#a837537c2d8cd3a98e918a3ab6d72ebd9" target="_top" xlink:title="View.Pen.getPenDown">
<polygon fill="white" stroke="black" points="555,-119.5 555,-138.5 677,-138.5 677,-119.5 555,-119.5"/>
<text text-anchor="middle" x="616" y="-126.5" font-family="Helvetica,sans-Serif" font-size="10.00">View.Pen.getPenDown</text>
</a>
</g>
</g>
<!-- Node4&#45;&gt;Node9 -->
<g id="edge9" class="edge"><title>Node4&#45;&gt;Node9</title>
<path fill="none" stroke="midnightblue" d="M505.719,-152.199C523.854,-148.349 543.129,-144.257 560.362,-140.599"/>
<polygon fill="midnightblue" stroke="midnightblue" points="561.192,-144.001 570.247,-138.501 559.739,-137.154 561.192,-144.001"/>
</g>
<!-- Node10 -->
<g id="node10" class="node"><title>Node10</title>
<g id="a_node10"><a xlink:href="../../df/dcb/classturtle_1_1_turtle.html#aa576ade68e2f453b037ea2a3c456d466" target="_top" xlink:title="turtle.Turtle.getXPos">
<polygon fill="white" stroke="black" points="559.5,-195.5 559.5,-214.5 672.5,-214.5 672.5,-195.5 559.5,-195.5"/>
<text text-anchor="middle" x="616" y="-202.5" font-family="Helvetica,sans-Serif" font-size="10.00">turtle.Turtle.getXPos</text>
</a>
</g>
</g>
<!-- Node4&#45;&gt;Node10 -->
<g id="edge10" class="edge"><title>Node4&#45;&gt;Node10</title>
<path fill="none" stroke="midnightblue" d="M505.719,-181.801C523.854,-185.651 543.129,-189.743 560.362,-193.401"/>
<polygon fill="midnightblue" stroke="midnightblue" points="559.739,-196.846 570.247,-195.499 561.192,-189.999 559.739,-196.846"/>
</g>
<!-- Node12 -->
<g id="node12" class="node"><title>Node12</title>
<g id="a_node12"><a xlink:href="../../df/dcb/classturtle_1_1_turtle.html#a735b5aa0bce5a53d2c75322fb2ad9130" target="_top" xlink:title="turtle.Turtle.getYPos">
<polygon fill="white" stroke="black" points="560,-271.5 560,-290.5 672,-290.5 672,-271.5 560,-271.5"/>
<text text-anchor="middle" x="616" y="-278.5" font-family="Helvetica,sans-Serif" font-size="10.00">turtle.Turtle.getYPos</text>
</a>
</g>
</g>
<!-- Node4&#45;&gt;Node12 -->
<g id="edge12" class="edge"><title>Node4&#45;&gt;Node12</title>
<path fill="none" stroke="midnightblue" d="M454.981,-182.155C469.696,-194.061 490.466,-211.213 508,-227 524.584,-241.932 524.594,-250.982 544,-262 547.913,-264.222 552.096,-266.192 556.399,-267.938"/>
<polygon fill="midnightblue" stroke="midnightblue" points="555.36,-271.285 565.955,-271.412 557.752,-264.706 555.36,-271.285"/>
</g>
<!-- Node14 -->
<g id="node14" class="node"><title>Node14</title>
<g id="a_node14"><a xlink:href="../../dc/d19/class_view_1_1_pen.html#a8709e1eb5749d8575a4ba9a26acffa0f" target="_top" xlink:title="View.Pen.setPenDown">
<polygon fill="white" stroke="black" points="555.5,-81.5 555.5,-100.5 676.5,-100.5 676.5,-81.5 555.5,-81.5"/>
<text text-anchor="middle" x="616" y="-88.5" font-family="Helvetica,sans-Serif" font-size="10.00">View.Pen.setPenDown</text>
</a>
</g>
</g>
<!-- Node4&#45;&gt;Node14 -->
<g id="edge14" class="edge"><title>Node4&#45;&gt;Node14</title>
<path fill="none" stroke="midnightblue" d="M460.559,-151.995C481.975,-139.415 514.194,-121.683 544,-110 550.226,-107.56 556.878,-105.322 563.521,-103.307"/>
<polygon fill="midnightblue" stroke="midnightblue" points="564.559,-106.65 573.197,-100.515 562.619,-99.9247 564.559,-106.65"/>
</g>
<!-- Node15 -->
<g id="node15" class="node"><title>Node15</title>
<g id="a_node15"><a xlink:href="../../df/dcb/classturtle_1_1_turtle.html#a5db281fc734edd965ff0faddbab871d7" target="_top" xlink:title="turtle.Turtle.setXPos">
<polygon fill="white" stroke="black" points="560,-233.5 560,-252.5 672,-252.5 672,-233.5 560,-233.5"/>
<text text-anchor="middle" x="616" y="-240.5" font-family="Helvetica,sans-Serif" font-size="10.00">turtle.Turtle.setXPos</text>
</a>
</g>
</g>
<!-- Node4&#45;&gt;Node15 -->
<g id="edge15" class="edge"><title>Node4&#45;&gt;Node15</title>
<path fill="none" stroke="midnightblue" d="M460.559,-182.005C481.975,-194.585 514.194,-212.317 544,-224 550.226,-226.44 556.878,-228.678 563.521,-230.693"/>
<polygon fill="midnightblue" stroke="midnightblue" points="562.619,-234.075 573.197,-233.485 564.559,-227.35 562.619,-234.075"/>
</g>
<!-- Node18 -->
<g id="node18" class="node"><title>Node18</title>
<g id="a_node18"><a xlink:href="../../df/dcb/classturtle_1_1_turtle.html#a1107426e66ec049d5e3d1c1783a463db" target="_top" xlink:title="turtle.Turtle.setYPos">
<polygon fill="white" stroke="black" points="560.5,-157.5 560.5,-176.5 671.5,-176.5 671.5,-157.5 560.5,-157.5"/>
<text text-anchor="middle" x="616" y="-164.5" font-family="Helvetica,sans-Serif" font-size="10.00">turtle.Turtle.setYPos</text>
</a>
</g>
</g>
<!-- Node4&#45;&gt;Node18 -->
<g id="edge20" class="edge"><title>Node4&#45;&gt;Node18</title>
<path fill="none" stroke="midnightblue" d="M505.719,-167C520.332,-167 535.686,-167 550.115,-167"/>
<polygon fill="midnightblue" stroke="midnightblue" points="550.434,-170.5 560.434,-167 550.434,-163.5 550.434,-170.5"/>
</g>
<!-- Node6 -->
<g id="node6" class="node"><title>Node6</title>
<g id="a_node6"><a xlink:href="../../dc/d19/class_view_1_1_pen.html#ad2b5fd226e4003bbb48f13018bc72916" target="_top" xlink:title="View.Pen.setLineStyle">
<polygon fill="white" stroke="black" points="730,-5.5 730,-24.5 850,-24.5 850,-5.5 730,-5.5"/>
<text text-anchor="middle" x="790" y="-12.5" font-family="Helvetica,sans-Serif" font-size="10.00">View.Pen.setLineStyle</text>
</a>
</g>
</g>
<!-- Node5&#45;&gt;Node6 -->
<g id="edge6" class="edge"><title>Node5&#45;&gt;Node6</title>
<path fill="none" stroke="midnightblue" d="M668.14,-15C684.365,-15 702.582,-15 719.855,-15"/>
<polygon fill="midnightblue" stroke="midnightblue" points="719.894,-18.5001 729.894,-15 719.894,-11.5001 719.894,-18.5001"/>
</g>
<!-- Node7 -->
<g id="node7" class="node"><title>Node7</title>
<g id="a_node7"><a xlink:href="../../dc/d86/class_g_u_i_functions_1_1_border_style.html#a20c91294c08c9b4b555f41cdf5941e45" target="_top" xlink:title="GUIFunctions.BorderStyle.get\lStyle">
<polygon fill="white" stroke="black" points="892.5,-0 892.5,-30 1049.5,-30 1049.5,-0 892.5,-0"/>
<text text-anchor="start" x="900.5" y="-18" font-family="Helvetica,sans-Serif" font-size="10.00">GUIFunctions.BorderStyle.get</text>
<text text-anchor="middle" x="971" y="-7" font-family="Helvetica,sans-Serif" font-size="10.00">Style</text>
</a>
</g>
</g>
<!-- Node6&#45;&gt;Node7 -->
<g id="edge7" class="edge"><title>Node6&#45;&gt;Node7</title>
<path fill="none" stroke="midnightblue" d="M850.107,-15C860.477,-15 871.464,-15 882.413,-15"/>
<polygon fill="midnightblue" stroke="midnightblue" points="882.439,-18.5001 892.439,-15 882.439,-11.5001 882.439,-18.5001"/>
</g>
<!-- Node11 -->
<g id="node11" class="node"><title>Node11</title>
<g id="a_node11"><a xlink:href="../../d1/dbe/classturtle_1_1_position.html#a1d079c846ce96bf1c57da388c46669e1" target="_top" xlink:title="turtle.Position.getXPos">
<polygon fill="white" stroke="black" points="727.5,-195.5 727.5,-214.5 852.5,-214.5 852.5,-195.5 727.5,-195.5"/>
<text text-anchor="middle" x="790" y="-202.5" font-family="Helvetica,sans-Serif" font-size="10.00">turtle.Position.getXPos</text>
</a>
</g>
</g>
<!-- Node10&#45;&gt;Node11 -->
<g id="edge11" class="edge"><title>Node10&#45;&gt;Node11</title>
<path fill="none" stroke="midnightblue" d="M672.843,-205C687.03,-205 702.47,-205 717.324,-205"/>
<polygon fill="midnightblue" stroke="midnightblue" points="717.49,-208.5 727.49,-205 717.49,-201.5 717.49,-208.5"/>
</g>
<!-- Node13 -->
<g id="node13" class="node"><title>Node13</title>
<g id="a_node13"><a xlink:href="../../d1/dbe/classturtle_1_1_position.html#a3a68708e4dc3290c4ef0ecd511cc8c1f" target="_top" xlink:title="turtle.Position.getYPos">
<polygon fill="white" stroke="black" points="728,-271.5 728,-290.5 852,-290.5 852,-271.5 728,-271.5"/>
<text text-anchor="middle" x="790" y="-278.5" font-family="Helvetica,sans-Serif" font-size="10.00">turtle.Position.getYPos</text>
</a>
</g>
</g>
<!-- Node12&#45;&gt;Node13 -->
<g id="edge13" class="edge"><title>Node12&#45;&gt;Node13</title>
<path fill="none" stroke="midnightblue" d="M672.369,-281C686.731,-281 702.405,-281 717.469,-281"/>
<polygon fill="midnightblue" stroke="midnightblue" points="717.777,-284.5 727.776,-281 717.776,-277.5 717.777,-284.5"/>
</g>
<!-- Node15&#45;&gt;Node11 -->
<g id="edge17" class="edge"><title>Node15&#45;&gt;Node11</title>
<path fill="none" stroke="midnightblue" d="M660.403,-233.411C683.407,-228.329 711.851,-222.045 736.134,-216.68"/>
<polygon fill="midnightblue" stroke="midnightblue" points="736.9,-220.095 745.909,-214.52 735.39,-213.26 736.9,-220.095"/>
</g>
<!-- Node15&#45;&gt;Node13 -->
<g id="edge18" class="edge"><title>Node15&#45;&gt;Node13</title>
<path fill="none" stroke="midnightblue" d="M660.403,-252.589C683.407,-257.671 711.851,-263.955 736.134,-269.32"/>
<polygon fill="midnightblue" stroke="midnightblue" points="735.39,-272.74 745.909,-271.48 736.9,-265.905 735.39,-272.74"/>
</g>
<!-- Node16 -->
<g id="node16" class="node"><title>Node16</title>
<g id="a_node16"><a xlink:href="../../d1/dbe/classturtle_1_1_position.html#a7bfd27ea2bf5e22d8de4a4e87b4df2ec" target="_top" xlink:title="turtle.Position.getRotate">
<polygon fill="white" stroke="black" points="724,-309.5 724,-328.5 856,-328.5 856,-309.5 724,-309.5"/>
<text text-anchor="middle" x="790" y="-316.5" font-family="Helvetica,sans-Serif" font-size="10.00">turtle.Position.getRotate</text>
</a>
</g>
</g>
<!-- Node15&#45;&gt;Node16 -->
<g id="edge16" class="edge"><title>Node15&#45;&gt;Node16</title>
<path fill="none" stroke="midnightblue" d="M666.932,-252.596C674.273,-255.064 681.531,-258.149 688,-262 707.991,-273.9 704.147,-287.872 724,-300 727.555,-302.172 731.372,-304.107 735.309,-305.828"/>
<polygon fill="midnightblue" stroke="midnightblue" points="734.061,-309.098 744.65,-309.47 736.604,-302.576 734.061,-309.098"/>
</g>
<!-- Node17 -->
<g id="node17" class="node"><title>Node17</title>
<g id="a_node17"><a xlink:href="../../d1/dbe/classturtle_1_1_position.html#af03c1c3b306f6c12d2ec52a00fde50eb" target="_top" xlink:title="turtle.Position.setXPos">
<polygon fill="white" stroke="black" points="728,-233.5 728,-252.5 852,-252.5 852,-233.5 728,-233.5"/>
<text text-anchor="middle" x="790" y="-240.5" font-family="Helvetica,sans-Serif" font-size="10.00">turtle.Position.setXPos</text>
</a>
</g>
</g>
<!-- Node15&#45;&gt;Node17 -->
<g id="edge19" class="edge"><title>Node15&#45;&gt;Node17</title>
<path fill="none" stroke="midnightblue" d="M672.369,-243C686.731,-243 702.405,-243 717.469,-243"/>
<polygon fill="midnightblue" stroke="midnightblue" points="717.777,-246.5 727.776,-243 717.776,-239.5 717.777,-246.5"/>
</g>
<!-- Node19 -->
<g id="node19" class="node"><title>Node19</title>
<g id="a_node19"><a xlink:href="../../d1/dbe/classturtle_1_1_position.html#a7c26cf9316a28fb4821731864ed28c95" target="_top" xlink:title="turtle.Position.setYPos">
<polygon fill="white" stroke="black" points="728.5,-157.5 728.5,-176.5 851.5,-176.5 851.5,-157.5 728.5,-157.5"/>
<text text-anchor="middle" x="790" y="-164.5" font-family="Helvetica,sans-Serif" font-size="10.00">turtle.Position.setYPos</text>
</a>
</g>
</g>
<!-- Node18&#45;&gt;Node19 -->
<g id="edge21" class="edge"><title>Node18&#45;&gt;Node19</title>
<path fill="none" stroke="midnightblue" d="M671.895,-167C686.653,-167 702.825,-167 718.311,-167"/>
<polygon fill="midnightblue" stroke="midnightblue" points="718.368,-170.5 728.368,-167 718.368,-163.5 718.368,-170.5"/>
</g>
<!-- Node20&#45;&gt;Node10 -->
<g id="edge25" class="edge"><title>Node20&#45;&gt;Node10</title>
<path fill="none" stroke="midnightblue" d="M477.516,-236.491C503.179,-230.613 536.315,-223.023 563.626,-216.767"/>
<polygon fill="midnightblue" stroke="midnightblue" points="564.433,-220.173 573.399,-214.529 562.87,-213.35 564.433,-220.173"/>
</g>
<!-- Node20&#45;&gt;Node12 -->
<g id="edge26" class="edge"><title>Node20&#45;&gt;Node12</title>
<path fill="none" stroke="midnightblue" d="M484.913,-255.564C506.914,-259.866 533.067,-264.98 556.133,-269.49"/>
<polygon fill="midnightblue" stroke="midnightblue" points="555.661,-272.964 566.147,-271.448 557.004,-266.094 555.661,-272.964"/>
</g>
<!-- Node21 -->
<g id="node21" class="node"><title>Node21</title>
<g id="a_node21"><a xlink:href="../../df/dcb/classturtle_1_1_turtle.html#af4afc304cb9394e02381563fad7c34ce" target="_top" xlink:title="turtle.Turtle.getOrientation">
<polygon fill="white" stroke="black" points="544.5,-309.5 544.5,-328.5 687.5,-328.5 687.5,-309.5 544.5,-309.5"/>
<text text-anchor="middle" x="616" y="-316.5" font-family="Helvetica,sans-Serif" font-size="10.00">turtle.Turtle.getOrientation</text>
</a>
</g>
</g>
<!-- Node20&#45;&gt;Node21 -->
<g id="edge23" class="edge"><title>Node20&#45;&gt;Node21</title>
<path fill="none" stroke="midnightblue" d="M485.736,-255.521C493.454,-258.008 501.136,-261.118 508,-265 527.425,-275.985 524.594,-288.982 544,-300 547.913,-302.222 552.096,-304.192 556.399,-305.938"/>
<polygon fill="midnightblue" stroke="midnightblue" points="555.36,-309.285 565.955,-309.412 557.752,-302.706 555.36,-309.285"/>
</g>
<!-- Node21&#45;&gt;Node16 -->
<g id="edge24" class="edge"><title>Node21&#45;&gt;Node16</title>
<path fill="none" stroke="midnightblue" d="M687.952,-319C696.373,-319 704.993,-319 713.474,-319"/>
<polygon fill="midnightblue" stroke="midnightblue" points="713.729,-322.5 723.729,-319 713.729,-315.5 713.729,-322.5"/>
</g>
</g>
</svg>
