<?xml version="1.0" encoding="UTF-8" standalone="no"?>
<!DOCTYPE svg PUBLIC "-//W3C//DTD SVG 1.1//EN"
 "http://www.w3.org/Graphics/SVG/1.1/DTD/svg11.dtd">
<!-- Generated by graphviz version 2.36.0 (20140111.2315)
 -->
<!-- Title: View.TabsOfGrids.setUpKeyBoardHandler Pages: 1 -->
<svg width="786pt" height="38pt"
 viewBox="0.00 0.00 786.00 38.00" xmlns="http://www.w3.org/2000/svg" xmlns:xlink="http://www.w3.org/1999/xlink">
<g id="graph0" class="graph" transform="scale(1 1) rotate(0) translate(4 34)">
<title>View.TabsOfGrids.setUpKeyBoardHandler</title>
<polygon fill="white" stroke="none" points="-4,4 -4,-34 782,-34 782,4 -4,4"/>
<!-- Node1 -->
<g id="node1" class="node"><title>Node1</title>
<polygon fill="#bfbfbf" stroke="black" points="0.5,-0 0.5,-30 145.5,-30 145.5,-0 0.5,-0"/>
<text text-anchor="start" x="8.5" y="-18" font-family="Helvetica,sans-Serif" font-size="10.00">View.TabsOfGrids.setUpKey</text>
<text text-anchor="middle" x="73" y="-7" font-family="Helvetica,sans-Serif" font-size="10.00">BoardHandler</text>
</g>
<!-- Node2 -->
<g id="node2" class="node"><title>Node2</title>
<g id="a_node2"><a xlink:href="../../d5/d30/class_view_1_1_tabs_of_grids.html#aa186cd880ee36327ffc0d66951a23fb5" target="_top" xlink:title="View.TabsOfGrids.addTab">
<polygon fill="white" stroke="black" points="182,-5.5 182,-24.5 316,-24.5 316,-5.5 182,-5.5"/>
<text text-anchor="middle" x="249" y="-12.5" font-family="Helvetica,sans-Serif" font-size="10.00">View.TabsOfGrids.addTab</text>
</a>
</g>
</g>
<!-- Node1&#45;&gt;Node2 -->
<g id="edge1" class="edge"><title>Node1&#45;&gt;Node2</title>
<path fill="none" stroke="midnightblue" d="M155.724,-15C164.457,-15 173.262,-15 181.784,-15"/>
<polygon fill="midnightblue" stroke="midnightblue" points="155.526,-11.5001 145.526,-15 155.526,-18.5001 155.526,-11.5001"/>
</g>
<!-- Node3 -->
<g id="node3" class="node"><title>Node3</title>
<g id="a_node3"><a xlink:href="../../d6/d33/class_view_1_1_slogo_view.html#a5759fa529a24ab1e80d37348f3dd395b" target="_top" xlink:title="View.SlogoView.addGrid">
<polygon fill="white" stroke="black" points="352.5,-5.5 352.5,-24.5 481.5,-24.5 481.5,-5.5 352.5,-5.5"/>
<text text-anchor="middle" x="417" y="-12.5" font-family="Helvetica,sans-Serif" font-size="10.00">View.SlogoView.addGrid</text>
</a>
</g>
</g>
<!-- Node2&#45;&gt;Node3 -->
<g id="edge2" class="edge"><title>Node2&#45;&gt;Node3</title>
<path fill="none" stroke="midnightblue" d="M326.247,-15C334.963,-15 343.778,-15 352.306,-15"/>
<polygon fill="midnightblue" stroke="midnightblue" points="326.085,-11.5001 316.085,-15 326.085,-18.5001 326.085,-11.5001"/>
</g>
<!-- Node4 -->
<g id="node4" class="node"><title>Node4</title>
<g id="a_node4"><a xlink:href="../../d6/d33/class_view_1_1_slogo_view.html#acfeff052503655d2ac419d2bf4ea9bd5" target="_top" xlink:title="View.SlogoView.initialize">
<polygon fill="white" stroke="black" points="518,-5.5 518,-24.5 648,-24.5 648,-5.5 518,-5.5"/>
<text text-anchor="middle" x="583" y="-12.5" font-family="Helvetica,sans-Serif" font-size="10.00">View.SlogoView.initialize</text>
</a>
</g>
</g>
<!-- Node3&#45;&gt;Node4 -->
<g id="edge3" class="edge"><title>Node3&#45;&gt;Node4</title>
<path fill="none" stroke="midnightblue" d="M491.919,-15C500.54,-15 509.282,-15 517.758,-15"/>
<polygon fill="midnightblue" stroke="midnightblue" points="491.876,-11.5001 481.876,-15 491.876,-18.5001 491.876,-11.5001"/>
</g>
<!-- Node5 -->
<g id="node5" class="node"><title>Node5</title>
<g id="a_node5"><a xlink:href="../../db/d27/class_view_1_1_slogo.html#a6ab76a53160b61d8501aec91c55b85c8" target="_top" xlink:title="View.Slogo.start">
<polygon fill="white" stroke="black" points="684.5,-5.5 684.5,-24.5 777.5,-24.5 777.5,-5.5 684.5,-5.5"/>
<text text-anchor="middle" x="731" y="-12.5" font-family="Helvetica,sans-Serif" font-size="10.00">View.Slogo.start</text>
</a>
</g>
</g>
<!-- Node4&#45;&gt;Node5 -->
<g id="edge4" class="edge"><title>Node4&#45;&gt;Node5</title>
<path fill="none" stroke="midnightblue" d="M658.142,-15C667.108,-15 676.051,-15 684.43,-15"/>
<polygon fill="midnightblue" stroke="midnightblue" points="658.038,-11.5001 648.038,-15 658.038,-18.5001 658.038,-11.5001"/>
</g>
</g>
</svg>
