<?xml version="1.0" encoding="UTF-8" standalone="no"?>
<!DOCTYPE svg PUBLIC "-//W3C//DTD SVG 1.1//EN"
 "http://www.w3.org/Graphics/SVG/1.1/DTD/svg11.dtd">
<!-- Generated by graphviz version 2.36.0 (20140111.2315)
 -->
<!-- Title: View.TabsOfGrids.getActiveGrid Pages: 1 -->
<svg width="498pt" height="28pt"
 viewBox="0.00 0.00 498.00 28.00" xmlns="http://www.w3.org/2000/svg" xmlns:xlink="http://www.w3.org/1999/xlink">
<g id="graph0" class="graph" transform="scale(1 1) rotate(0) translate(4 24)">
<title>View.TabsOfGrids.getActiveGrid</title>
<polygon fill="white" stroke="none" points="-4,4 -4,-24 494,-24 494,4 -4,4"/>
<!-- Node1 -->
<g id="node1" class="node"><title>Node1</title>
<polygon fill="#bfbfbf" stroke="black" points="0,-0.5 0,-19.5 164,-19.5 164,-0.5 0,-0.5"/>
<text text-anchor="middle" x="82" y="-7.5" font-family="Helvetica,sans-Serif" font-size="10.00">View.TabsOfGrids.getActiveGrid</text>
</g>
<!-- Node2 -->
<g id="node2" class="node"><title>Node2</title>
<g id="a_node2"><a xlink:href="../../d6/d33/class_view_1_1_slogo_view.html#acfc9a29c260e063a27320bd12275a939" target="_top" xlink:title="View.SlogoView.build">
<polygon fill="white" stroke="black" points="200,-0.5 200,-19.5 314,-19.5 314,-0.5 200,-0.5"/>
<text text-anchor="middle" x="257" y="-7.5" font-family="Helvetica,sans-Serif" font-size="10.00">View.SlogoView.build</text>
</a>
</g>
</g>
<!-- Node1&#45;&gt;Node2 -->
<g id="edge1" class="edge"><title>Node1&#45;&gt;Node2</title>
<path fill="none" stroke="midnightblue" d="M174.415,-10C183.125,-10 191.768,-10 199.99,-10"/>
<polygon fill="midnightblue" stroke="midnightblue" points="174.181,-6.5001 164.181,-10 174.181,-13.5001 174.181,-6.5001"/>
</g>
<!-- Node3 -->
<g id="node3" class="node"><title>Node3</title>
<g id="a_node3"><a xlink:href="../../d6/d33/class_view_1_1_slogo_view.html#a426ca98709fa7bf17d4e233519c504b4" target="_top" xlink:title="View.SlogoView.SlogoView">
<polygon fill="white" stroke="black" points="350,-0.5 350,-19.5 490,-19.5 490,-0.5 350,-0.5"/>
<text text-anchor="middle" x="420" y="-7.5" font-family="Helvetica,sans-Serif" font-size="10.00">View.SlogoView.SlogoView</text>
</a>
</g>
</g>
<!-- Node2&#45;&gt;Node3 -->
<g id="edge2" class="edge"><title>Node2&#45;&gt;Node3</title>
<path fill="none" stroke="midnightblue" d="M324.453,-10C332.876,-10 341.511,-10 349.973,-10"/>
<polygon fill="midnightblue" stroke="midnightblue" points="324.31,-6.5001 314.31,-10 324.31,-13.5001 324.31,-6.5001"/>
</g>
</g>
</svg>
