<?xml version="1.0" encoding="UTF-8" standalone="no"?>
<!DOCTYPE svg PUBLIC "-//W3C//DTD SVG 1.1//EN"
 "http://www.w3.org/Graphics/SVG/1.1/DTD/svg11.dtd">
<!-- Generated by graphviz version 2.36.0 (20140111.2315)
 -->
<!-- Title: commands.turtleCommands.SetPositionCommand.onExecute Pages: 1 -->
<!--zoomable 398 -->
<svg id="main" version="1.1" xmlns="http://www.w3.org/2000/svg" xmlns:xlink="http://www.w3.org/1999/xlink" xml:space="preserve" onload="init(evt)">
<style type="text/css"><![CDATA[
.edge:hover path { stroke: red; }
.edge:hover polygon { stroke: red; fill: red; }
]]></style>
<script type="text/javascript"><![CDATA[
var edges = document.getElementsByTagName('g');
if (edges && edges.length) {
  for (var i=0;i<edges.length;i++) {
    if (edges[i].id.substr(0,4)=='edge') {
      edges[i].setAttribute('class','edge');
    }
  }
}
]]></script>
        <defs>
                <circle id="rim" cx="0" cy="0" r="7"/>
                <circle id="rim2" cx="0" cy="0" r="3.5"/>
                <g id="zoomPlus">
                        <use xlink:href="#rim" fill="#404040">
                                <set attributeName="fill" to="#808080" begin="zoomplus.mouseover" end="zoomplus.mouseout"/>
                        </use>
                        <path d="M-4,0h8M0,-4v8" fill="none" stroke="white" stroke-width="1.5" pointer-events="none"/>
                </g>
                <g id="zoomMin">
                        <use xlink:href="#rim" fill="#404040">
                                <set attributeName="fill" to="#808080" begin="zoomminus.mouseover" end="zoomminus.mouseout"/>
                        </use>
                        <path d="M-4,0h8" fill="none" stroke="white" stroke-width="1.5" pointer-events="none"/>
                </g>
                <g id="dirArrow">
                        <path fill="none" stroke="white" stroke-width="1.5" d="M0,-3.0v7 M-2.5,-0.5L0,-3.0L2.5,-0.5"/>
                </g>
               <g id="resetDef">
                       <use xlink:href="#rim2" fill="#404040">
                               <set attributeName="fill" to="#808080" begin="reset.mouseover" end="reset.mouseout"/>
                       </use>
               </g>
        </defs>

<script type="text/javascript">
var viewWidth = 1178;
var viewHeight = 398;
var sectionId = 'dynsection-2';
</script>
<script xlink:href="../../svgpan.js"/>
<svg id="graph" class="graph">
<g id="viewport">
<title>commands.turtleCommands.SetPositionCommand.onExecute</title>
<polygon fill="white" stroke="none" points="-4,4 -4,-394 1174,-394 1174,4 -4,4"/>
<!-- Node1 -->
<g id="node1" class="node"><title>Node1</title>
<polygon fill="#bfbfbf" stroke="black" points="0,-147 0,-177 174,-177 174,-147 0,-147"/>
<text text-anchor="start" x="8" y="-165" font-family="Helvetica,sans-Serif" font-size="10.00">commands.turtleCommands.</text>
<text text-anchor="middle" x="87" y="-154" font-family="Helvetica,sans-Serif" font-size="10.00">SetPositionCommand.onExecute</text>
</g>
<!-- Node2 -->
<g id="node2" class="node"><title>Node2</title>
<g id="a_node2"><a xlink:href="../../da/d90/classcommands_1_1_base_command.html#a68a349a085c4b05af0a55943da86598b" target="_top" xlink:title="commands.BaseCommand.execute">
<polygon fill="white" stroke="black" points="210.5,-302.5 210.5,-321.5 399.5,-321.5 399.5,-302.5 210.5,-302.5"/>
<text text-anchor="middle" x="305" y="-309.5" font-family="Helvetica,sans-Serif" font-size="10.00">commands.BaseCommand.execute</text>
</a>
</g>
</g>
<!-- Node1&#45;&gt;Node2 -->
<g id="edge1" class="edge"><title>Node1&#45;&gt;Node2</title>
<path fill="none" stroke="midnightblue" d="M102.256,-177.035C123.931,-199.275 167.194,-241.29 210,-269 228.177,-280.767 250.1,-290.994 268.201,-298.518"/>
<polygon fill="midnightblue" stroke="midnightblue" points="267.233,-301.903 277.816,-302.413 269.862,-295.415 267.233,-301.903"/>
</g>
<!-- Node6 -->
<g id="node6" class="node"><title>Node6</title>
<g id="a_node6"><a xlink:href="../../d7/d28/classcommands_1_1information_1_1_base_turtle_container.html#a704eca72b47c6a35888f2868beaec2d3" target="_top" xlink:title="commands.information.Base\lTurtleContainer.getActiveTurtles">
<polygon fill="white" stroke="black" points="674.5,-245 674.5,-275 841.5,-275 841.5,-245 674.5,-245"/>
<text text-anchor="start" x="682.5" y="-263" font-family="Helvetica,sans-Serif" font-size="10.00">commands.information.Base</text>
<text text-anchor="middle" x="758" y="-252" font-family="Helvetica,sans-Serif" font-size="10.00">TurtleContainer.getActiveTurtles</text>
</a>
</g>
</g>
<!-- Node1&#45;&gt;Node6 -->
<g id="edge6" class="edge"><title>Node1&#45;&gt;Node6</title>
<path fill="none" stroke="midnightblue" d="M106.451,-177.084C129.205,-194.681 169.821,-222.903 210,-235 292.23,-259.757 530.835,-262.022 664.14,-261.211"/>
<polygon fill="midnightblue" stroke="midnightblue" points="664.364,-264.71 674.34,-261.142 664.316,-257.71 664.364,-264.71"/>
</g>
<!-- Node7 -->
<g id="node7" class="node"><title>Node7</title>
<g id="a_node7"><a xlink:href="../../d3/d03/classcommands_1_1turtle_commands_1_1_turtle_command.html#af02dda0b6028af7d3db8af04ad3ce800" target="_top" xlink:title="commands.turtleCommands.\lTurtleCommand.getExpressionList">
<polygon fill="white" stroke="black" points="215.5,-147 215.5,-177 394.5,-177 394.5,-147 215.5,-147"/>
<text text-anchor="start" x="223.5" y="-165" font-family="Helvetica,sans-Serif" font-size="10.00">commands.turtleCommands.</text>
<text text-anchor="middle" x="305" y="-154" font-family="Helvetica,sans-Serif" font-size="10.00">TurtleCommand.getExpressionList</text>
</a>
</g>
</g>
<!-- Node1&#45;&gt;Node7 -->
<g id="edge7" class="edge"><title>Node1&#45;&gt;Node7</title>
<path fill="none" stroke="midnightblue" d="M174.3,-162C184.435,-162 194.836,-162 205.126,-162"/>
<polygon fill="midnightblue" stroke="midnightblue" points="205.365,-165.5 215.365,-162 205.365,-158.5 205.365,-165.5"/>
</g>
<!-- Node8 -->
<g id="node8" class="node"><title>Node8</title>
<g id="a_node8"><a xlink:href="../../d3/d03/classcommands_1_1turtle_commands_1_1_turtle_command.html#ae8d98992e825d4b47ef321fe8c6c63dd" target="_top" xlink:title="commands.turtleCommands.\lTurtleCommand.getGridContainer">
<polygon fill="white" stroke="black" points="216.5,-98 216.5,-128 393.5,-128 393.5,-98 216.5,-98"/>
<text text-anchor="start" x="224.5" y="-116" font-family="Helvetica,sans-Serif" font-size="10.00">commands.turtleCommands.</text>
<text text-anchor="middle" x="305" y="-105" font-family="Helvetica,sans-Serif" font-size="10.00">TurtleCommand.getGridContainer</text>
</a>
</g>
</g>
<!-- Node1&#45;&gt;Node8 -->
<g id="edge8" class="edge"><title>Node1&#45;&gt;Node8</title>
<path fill="none" stroke="midnightblue" d="M154.275,-146.965C177.6,-141.674 203.993,-135.687 228.053,-130.229"/>
<polygon fill="midnightblue" stroke="midnightblue" points="228.872,-133.632 237.85,-128.006 227.324,-126.805 228.872,-133.632"/>
</g>
<!-- Node9 -->
<g id="node9" class="node"><title>Node9</title>
<g id="a_node9"><a xlink:href="../../d3/d03/classcommands_1_1turtle_commands_1_1_turtle_command.html#a82f290b3a2e14029a8a525bafa35994f" target="_top" xlink:title="commands.turtleCommands.\lTurtleCommand.getTurtleContainer">
<polygon fill="white" stroke="black" points="213.5,-49 213.5,-79 396.5,-79 396.5,-49 213.5,-49"/>
<text text-anchor="start" x="221.5" y="-67" font-family="Helvetica,sans-Serif" font-size="10.00">commands.turtleCommands.</text>
<text text-anchor="middle" x="305" y="-56" font-family="Helvetica,sans-Serif" font-size="10.00">TurtleCommand.getTurtleContainer</text>
</a>
</g>
</g>
<!-- Node1&#45;&gt;Node9 -->
<g id="edge9" class="edge"><title>Node1&#45;&gt;Node9</title>
<path fill="none" stroke="midnightblue" d="M109.065,-146.891C132.646,-130.59 172.482,-104.844 210,-89 215.819,-86.5426 221.945,-84.2696 228.163,-82.1796"/>
<polygon fill="midnightblue" stroke="midnightblue" points="229.518,-85.4211 237.98,-79.0456 227.389,-78.7527 229.518,-85.4211"/>
</g>
<!-- Node10 -->
<g id="node10" class="node"><title>Node10</title>
<g id="a_node10"><a xlink:href="../../d7/d28/classcommands_1_1information_1_1_base_turtle_container.html#a5d86cfae201525f3446fc58eb5c7df7c" target="_top" xlink:title="commands.information.Base\lTurtleContainer.setPosition">
<polygon fill="white" stroke="black" points="227.5,-196 227.5,-226 382.5,-226 382.5,-196 227.5,-196"/>
<text text-anchor="start" x="235.5" y="-214" font-family="Helvetica,sans-Serif" font-size="10.00">commands.information.Base</text>
<text text-anchor="middle" x="305" y="-203" font-family="Helvetica,sans-Serif" font-size="10.00">TurtleContainer.setPosition</text>
</a>
</g>
</g>
<!-- Node1&#45;&gt;Node10 -->
<g id="edge10" class="edge"><title>Node1&#45;&gt;Node10</title>
<path fill="none" stroke="midnightblue" d="M154.275,-177.035C177.6,-182.326 203.993,-188.313 228.053,-193.771"/>
<polygon fill="midnightblue" stroke="midnightblue" points="227.324,-197.195 237.85,-195.994 228.872,-190.368 227.324,-197.195"/>
</g>
<!-- Node24 -->
<g id="node24" class="node"><title>Node24</title>
<g id="a_node24"><a xlink:href="../../d4/d37/classcommands_1_1information_1_1_base_grid_container.html#ae8e4c8b6e12b79c4249c4d7b36c96a70" target="_top" xlink:title="commands.information.Base\lGridContainer.update">
<polygon fill="white" stroke="black" points="227.5,-0 227.5,-30 382.5,-30 382.5,-0 227.5,-0"/>
<text text-anchor="start" x="235.5" y="-18" font-family="Helvetica,sans-Serif" font-size="10.00">commands.information.Base</text>
<text text-anchor="middle" x="305" y="-7" font-family="Helvetica,sans-Serif" font-size="10.00">GridContainer.update</text>
</a>
</g>
</g>
<!-- Node1&#45;&gt;Node24 -->
<g id="edge27" class="edge"><title>Node1&#45;&gt;Node24</title>
<path fill="none" stroke="midnightblue" d="M98.9224,-146.7C118.282,-120.73 161.205,-68.1113 210,-40 213.891,-37.7582 217.988,-35.7124 222.207,-33.846"/>
<polygon fill="midnightblue" stroke="midnightblue" points="223.648,-37.0387 231.602,-30.0405 221.02,-30.5507 223.648,-37.0387"/>
</g>
<!-- Node2&#45;&gt;Node2 -->
<g id="edge2" class="edge"><title>Node2&#45;&gt;Node2</title>
<path fill="none" stroke="midnightblue" d="M271.672,-321.612C254.932,-330.461 266.041,-340 305,-340 333.611,-340 347.202,-334.856 345.773,-328.618"/>
<polygon fill="midnightblue" stroke="midnightblue" points="348.009,-325.916 338.328,-321.612 343.212,-331.014 348.009,-325.916"/>
</g>
<!-- Node3 -->
<g id="node3" class="node"><title>Node3</title>
<g id="a_node3"><a xlink:href="../../da/d90/classcommands_1_1_base_command.html#a90abff4a812d84d0454cb095e03c6e08" target="_top" xlink:title="commands.BaseCommand.get\lNextCommand">
<polygon fill="white" stroke="black" points="453.5,-360 453.5,-390 620.5,-390 620.5,-360 453.5,-360"/>
<text text-anchor="start" x="461.5" y="-378" font-family="Helvetica,sans-Serif" font-size="10.00">commands.BaseCommand.get</text>
<text text-anchor="middle" x="537" y="-367" font-family="Helvetica,sans-Serif" font-size="10.00">NextCommand</text>
</a>
</g>
</g>
<!-- Node2&#45;&gt;Node3 -->
<g id="edge3" class="edge"><title>Node2&#45;&gt;Node3</title>
<path fill="none" stroke="midnightblue" d="M337.425,-321.563C363.693,-329.465 402.184,-340.835 436,-350 445.166,-352.484 454.828,-355.013 464.388,-357.461"/>
<polygon fill="midnightblue" stroke="midnightblue" points="463.734,-360.906 474.288,-359.977 465.459,-354.121 463.734,-360.906"/>
</g>
<!-- Node4 -->
<g id="node4" class="node"><title>Node4</title>
<g id="a_node4"><a xlink:href="../../da/d90/classcommands_1_1_base_command.html#aad4544c0bd9d40769d8997e4d6d97b08" target="_top" xlink:title="commands.BaseCommand.onExecute">
<polygon fill="white" stroke="black" points="436.5,-321.5 436.5,-340.5 637.5,-340.5 637.5,-321.5 436.5,-321.5"/>
<text text-anchor="middle" x="537" y="-328.5" font-family="Helvetica,sans-Serif" font-size="10.00">commands.BaseCommand.onExecute</text>
</a>
</g>
</g>
<!-- Node2&#45;&gt;Node4 -->
<g id="edge4" class="edge"><title>Node2&#45;&gt;Node4</title>
<path fill="none" stroke="midnightblue" d="M399.55,-319.728C408.315,-320.452 417.252,-321.19 426.149,-321.925"/>
<polygon fill="midnightblue" stroke="midnightblue" points="425.91,-325.417 436.164,-322.753 426.486,-318.441 425.91,-325.417"/>
</g>
<!-- Node5 -->
<g id="node5" class="node"><title>Node5</title>
<g id="a_node5"><a xlink:href="../../da/d90/classcommands_1_1_base_command.html#a37ff254bd611b07ea38aaaf85447a2c3" target="_top" xlink:title="commands.BaseCommand.reset">
<polygon fill="white" stroke="black" points="449,-283.5 449,-302.5 625,-302.5 625,-283.5 449,-283.5"/>
<text text-anchor="middle" x="537" y="-290.5" font-family="Helvetica,sans-Serif" font-size="10.00">commands.BaseCommand.reset</text>
</a>
</g>
</g>
<!-- Node2&#45;&gt;Node5 -->
<g id="edge5" class="edge"><title>Node2&#45;&gt;Node5</title>
<path fill="none" stroke="midnightblue" d="M399.55,-304.272C412.405,-303.21 425.632,-302.117 438.555,-301.05"/>
<polygon fill="midnightblue" stroke="midnightblue" points="439.164,-304.512 448.842,-300.2 438.588,-297.535 439.164,-304.512"/>
</g>
<!-- Node11 -->
<g id="node11" class="node"><title>Node11</title>
<g id="a_node11"><a xlink:href="../../d7/d28/classcommands_1_1information_1_1_base_turtle_container.html#ae3f987ec79fb3318d8c3a1c8bd65f67b" target="_top" xlink:title="commands.information.Base\lTurtleContainer.loopOverTurtle">
<polygon fill="white" stroke="black" points="457.5,-196 457.5,-226 616.5,-226 616.5,-196 457.5,-196"/>
<text text-anchor="start" x="465.5" y="-214" font-family="Helvetica,sans-Serif" font-size="10.00">commands.information.Base</text>
<text text-anchor="middle" x="537" y="-203" font-family="Helvetica,sans-Serif" font-size="10.00">TurtleContainer.loopOverTurtle</text>
</a>
</g>
</g>
<!-- Node10&#45;&gt;Node11 -->
<g id="edge11" class="edge"><title>Node10&#45;&gt;Node11</title>
<path fill="none" stroke="midnightblue" d="M382.587,-211C403.344,-211 425.988,-211 447.35,-211"/>
<polygon fill="midnightblue" stroke="midnightblue" points="447.39,-214.5 457.39,-211 447.39,-207.5 447.39,-214.5"/>
</g>
<!-- Node13 -->
<g id="node13" class="node"><title>Node13</title>
<g id="a_node13"><a xlink:href="../../df/dcb/classturtle_1_1_turtle.html#ab4ccc5acaf4924205497db6d8a8125b9" target="_top" xlink:title="turtle.Turtle.setPosition">
<polygon fill="white" stroke="black" points="474,-128.5 474,-147.5 600,-147.5 600,-128.5 474,-128.5"/>
<text text-anchor="middle" x="537" y="-135.5" font-family="Helvetica,sans-Serif" font-size="10.00">turtle.Turtle.setPosition</text>
</a>
</g>
</g>
<!-- Node10&#45;&gt;Node13 -->
<g id="edge14" class="edge"><title>Node10&#45;&gt;Node13</title>
<path fill="none" stroke="midnightblue" d="M365.374,-195.975C376.907,-192.84 388.867,-189.439 400,-186 434.836,-175.239 474.045,-161.189 501.38,-151.074"/>
<polygon fill="midnightblue" stroke="midnightblue" points="502.731,-154.306 510.884,-147.539 500.291,-147.745 502.731,-154.306"/>
</g>
<!-- Node11&#45;&gt;Node6 -->
<g id="edge13" class="edge"><title>Node11&#45;&gt;Node6</title>
<path fill="none" stroke="midnightblue" d="M605.196,-226.035C628.844,-231.326 655.604,-237.313 679.998,-242.771"/>
<polygon fill="midnightblue" stroke="midnightblue" points="679.409,-246.226 689.932,-244.994 680.937,-239.395 679.409,-246.226"/>
</g>
<!-- Node12 -->
<g id="node12" class="node"><title>Node12</title>
<g id="a_node12"><a xlink:href="../../d1/d39/interfacecommands_1_1information_1_1_base_turtle_container_1_1_turtle_action_with_result.html#a5043750fe9ea0b38e426614c999c9d60" target="_top" xlink:title="commands.information.Base\lTurtleContainer.TurtleActionWith\lResult.execute">
<polygon fill="white" stroke="black" points="674.5,-185.5 674.5,-226.5 841.5,-226.5 841.5,-185.5 674.5,-185.5"/>
<text text-anchor="start" x="682.5" y="-214.5" font-family="Helvetica,sans-Serif" font-size="10.00">commands.information.Base</text>
<text text-anchor="start" x="682.5" y="-203.5" font-family="Helvetica,sans-Serif" font-size="10.00">TurtleContainer.TurtleActionWith</text>
<text text-anchor="middle" x="758" y="-192.5" font-family="Helvetica,sans-Serif" font-size="10.00">Result.execute</text>
</a>
</g>
</g>
<!-- Node11&#45;&gt;Node12 -->
<g id="edge12" class="edge"><title>Node11&#45;&gt;Node12</title>
<path fill="none" stroke="midnightblue" d="M616.755,-209.202C632.045,-208.853 648.205,-208.484 663.905,-208.125"/>
<polygon fill="midnightblue" stroke="midnightblue" points="664.225,-211.619 674.142,-207.892 664.065,-204.621 664.225,-211.619"/>
</g>
<!-- Node14 -->
<g id="node14" class="node"><title>Node14</title>
<g id="a_node14"><a xlink:href="../../df/dcb/classturtle_1_1_turtle.html#a569289374749eb6dcf64e0ed1ec7b9b2" target="_top" xlink:title="turtle.Turtle.getXYCoordinates">
<polygon fill="white" stroke="black" points="679,-147.5 679,-166.5 837,-166.5 837,-147.5 679,-147.5"/>
<text text-anchor="middle" x="758" y="-154.5" font-family="Helvetica,sans-Serif" font-size="10.00">turtle.Turtle.getXYCoordinates</text>
</a>
</g>
</g>
<!-- Node13&#45;&gt;Node14 -->
<g id="edge15" class="edge"><title>Node13&#45;&gt;Node14</title>
<path fill="none" stroke="midnightblue" d="M600.171,-143.394C621.431,-145.238 645.639,-147.339 668.566,-149.328"/>
<polygon fill="midnightblue" stroke="midnightblue" points="668.381,-152.825 678.646,-150.202 668.986,-145.851 668.381,-152.825"/>
</g>
<!-- Node19 -->
<g id="node19" class="node"><title>Node19</title>
<g id="a_node19"><a xlink:href="../../df/dcb/classturtle_1_1_turtle.html#a5db281fc734edd965ff0faddbab871d7" target="_top" xlink:title="turtle.Turtle.setXPos">
<polygon fill="white" stroke="black" points="884,-109.5 884,-128.5 996,-128.5 996,-109.5 884,-109.5"/>
<text text-anchor="middle" x="940" y="-116.5" font-family="Helvetica,sans-Serif" font-size="10.00">turtle.Turtle.setXPos</text>
</a>
</g>
</g>
<!-- Node13&#45;&gt;Node19 -->
<g id="edge20" class="edge"><title>Node13&#45;&gt;Node19</title>
<path fill="none" stroke="midnightblue" d="M600.216,-135.052C674.383,-131.538 797.771,-125.692 873.399,-122.108"/>
<polygon fill="midnightblue" stroke="midnightblue" points="873.92,-125.588 883.743,-121.618 873.589,-118.595 873.92,-125.588"/>
</g>
<!-- Node22 -->
<g id="node22" class="node"><title>Node22</title>
<g id="a_node22"><a xlink:href="../../df/dcb/classturtle_1_1_turtle.html#a1107426e66ec049d5e3d1c1783a463db" target="_top" xlink:title="turtle.Turtle.setYPos">
<polygon fill="white" stroke="black" points="702.5,-71.5 702.5,-90.5 813.5,-90.5 813.5,-71.5 702.5,-71.5"/>
<text text-anchor="middle" x="758" y="-78.5" font-family="Helvetica,sans-Serif" font-size="10.00">turtle.Turtle.setYPos</text>
</a>
</g>
</g>
<!-- Node13&#45;&gt;Node22 -->
<g id="edge25" class="edge"><title>Node13&#45;&gt;Node22</title>
<path fill="none" stroke="midnightblue" d="M574.656,-128.459C611.924,-118.76 669.794,-103.697 710.319,-93.1499"/>
<polygon fill="midnightblue" stroke="midnightblue" points="711.429,-96.4777 720.225,-90.5716 709.666,-89.7034 711.429,-96.4777"/>
</g>
<!-- Node15 -->
<g id="node15" class="node"><title>Node15</title>
<g id="a_node15"><a xlink:href="../../df/dcb/classturtle_1_1_turtle.html#aa576ade68e2f453b037ea2a3c456d466" target="_top" xlink:title="turtle.Turtle.getXPos">
<polygon fill="white" stroke="black" points="883.5,-185.5 883.5,-204.5 996.5,-204.5 996.5,-185.5 883.5,-185.5"/>
<text text-anchor="middle" x="940" y="-192.5" font-family="Helvetica,sans-Serif" font-size="10.00">turtle.Turtle.getXPos</text>
</a>
</g>
</g>
<!-- Node14&#45;&gt;Node15 -->
<g id="edge16" class="edge"><title>Node14&#45;&gt;Node15</title>
<path fill="none" stroke="midnightblue" d="M804.422,-166.589C828.603,-171.694 858.527,-178.011 884.014,-183.392"/>
<polygon fill="midnightblue" stroke="midnightblue" points="883.398,-186.839 893.905,-185.48 884.844,-179.99 883.398,-186.839"/>
</g>
<!-- Node17 -->
<g id="node17" class="node"><title>Node17</title>
<g id="a_node17"><a xlink:href="../../df/dcb/classturtle_1_1_turtle.html#a735b5aa0bce5a53d2c75322fb2ad9130" target="_top" xlink:title="turtle.Turtle.getYPos">
<polygon fill="white" stroke="black" points="884,-147.5 884,-166.5 996,-166.5 996,-147.5 884,-147.5"/>
<text text-anchor="middle" x="940" y="-154.5" font-family="Helvetica,sans-Serif" font-size="10.00">turtle.Turtle.getYPos</text>
</a>
</g>
</g>
<!-- Node14&#45;&gt;Node17 -->
<g id="edge18" class="edge"><title>Node14&#45;&gt;Node17</title>
<path fill="none" stroke="midnightblue" d="M837.165,-157C849.347,-157 861.822,-157 873.679,-157"/>
<polygon fill="midnightblue" stroke="midnightblue" points="873.915,-160.5 883.915,-157 873.915,-153.5 873.915,-160.5"/>
</g>
<!-- Node16 -->
<g id="node16" class="node"><title>Node16</title>
<g id="a_node16"><a xlink:href="../../d1/dbe/classturtle_1_1_position.html#a1d079c846ce96bf1c57da388c46669e1" target="_top" xlink:title="turtle.Position.getXPos">
<polygon fill="white" stroke="black" points="1041.5,-185.5 1041.5,-204.5 1166.5,-204.5 1166.5,-185.5 1041.5,-185.5"/>
<text text-anchor="middle" x="1104" y="-192.5" font-family="Helvetica,sans-Serif" font-size="10.00">turtle.Position.getXPos</text>
</a>
</g>
</g>
<!-- Node15&#45;&gt;Node16 -->
<g id="edge17" class="edge"><title>Node15&#45;&gt;Node16</title>
<path fill="none" stroke="midnightblue" d="M996.751,-195C1007.87,-195 1019.68,-195 1031.25,-195"/>
<polygon fill="midnightblue" stroke="midnightblue" points="1031.32,-198.5 1041.32,-195 1031.32,-191.5 1031.32,-198.5"/>
</g>
<!-- Node18 -->
<g id="node18" class="node"><title>Node18</title>
<g id="a_node18"><a xlink:href="../../d1/dbe/classturtle_1_1_position.html#a3a68708e4dc3290c4ef0ecd511cc8c1f" target="_top" xlink:title="turtle.Position.getYPos">
<polygon fill="white" stroke="black" points="1042,-147.5 1042,-166.5 1166,-166.5 1166,-147.5 1042,-147.5"/>
<text text-anchor="middle" x="1104" y="-154.5" font-family="Helvetica,sans-Serif" font-size="10.00">turtle.Position.getYPos</text>
</a>
</g>
</g>
<!-- Node17&#45;&gt;Node18 -->
<g id="edge19" class="edge"><title>Node17&#45;&gt;Node18</title>
<path fill="none" stroke="midnightblue" d="M996.298,-157C1007.64,-157 1019.73,-157 1031.55,-157"/>
<polygon fill="midnightblue" stroke="midnightblue" points="1031.84,-160.5 1041.84,-157 1031.84,-153.5 1031.84,-160.5"/>
</g>
<!-- Node19&#45;&gt;Node16 -->
<g id="edge22" class="edge"><title>Node19&#45;&gt;Node16</title>
<path fill="none" stroke="midnightblue" d="M981.98,-128.58C988.936,-131.086 995.881,-134.187 1002,-138 1021.75,-150.302 1018.15,-163.872 1038,-176 1041.56,-178.172 1045.37,-180.107 1049.31,-181.828"/>
<polygon fill="midnightblue" stroke="midnightblue" points="1048.06,-185.098 1058.65,-185.47 1050.6,-178.576 1048.06,-185.098"/>
</g>
<!-- Node19&#45;&gt;Node18 -->
<g id="edge23" class="edge"><title>Node19&#45;&gt;Node18</title>
<path fill="none" stroke="midnightblue" d="M981.879,-128.589C1003.35,-133.626 1029.86,-139.844 1052.6,-145.177"/>
<polygon fill="midnightblue" stroke="midnightblue" points="1051.88,-148.604 1062.41,-147.48 1053.48,-141.789 1051.88,-148.604"/>
</g>
<!-- Node20 -->
<g id="node20" class="node"><title>Node20</title>
<g id="a_node20"><a xlink:href="../../d1/dbe/classturtle_1_1_position.html#af03c1c3b306f6c12d2ec52a00fde50eb" target="_top" xlink:title="turtle.Position.setXPos">
<polygon fill="white" stroke="black" points="1042,-109.5 1042,-128.5 1166,-128.5 1166,-109.5 1042,-109.5"/>
<text text-anchor="middle" x="1104" y="-116.5" font-family="Helvetica,sans-Serif" font-size="10.00">turtle.Position.setXPos</text>
</a>
</g>
</g>
<!-- Node19&#45;&gt;Node20 -->
<g id="edge21" class="edge"><title>Node19&#45;&gt;Node20</title>
<path fill="none" stroke="midnightblue" d="M996.298,-119C1007.64,-119 1019.73,-119 1031.55,-119"/>
<polygon fill="midnightblue" stroke="midnightblue" points="1031.84,-122.5 1041.84,-119 1031.84,-115.5 1031.84,-122.5"/>
</g>
<!-- Node21 -->
<g id="node21" class="node"><title>Node21</title>
<g id="a_node21"><a xlink:href="../../d1/dbe/classturtle_1_1_position.html#a7bfd27ea2bf5e22d8de4a4e87b4df2ec" target="_top" xlink:title="turtle.Position.getRotate">
<polygon fill="white" stroke="black" points="1038,-71.5 1038,-90.5 1170,-90.5 1170,-71.5 1038,-71.5"/>
<text text-anchor="middle" x="1104" y="-78.5" font-family="Helvetica,sans-Serif" font-size="10.00">turtle.Position.getRotate</text>
</a>
</g>
</g>
<!-- Node19&#45;&gt;Node21 -->
<g id="edge24" class="edge"><title>Node19&#45;&gt;Node21</title>
<path fill="none" stroke="midnightblue" d="M981.879,-109.411C1003.35,-104.374 1029.86,-98.1562 1052.6,-92.8229"/>
<polygon fill="midnightblue" stroke="midnightblue" points="1053.48,-96.2113 1062.41,-90.5201 1051.88,-89.3963 1053.48,-96.2113"/>
</g>
<!-- Node23 -->
<g id="node23" class="node"><title>Node23</title>
<g id="a_node23"><a xlink:href="../../d1/dbe/classturtle_1_1_position.html#a7c26cf9316a28fb4821731864ed28c95" target="_top" xlink:title="turtle.Position.setYPos">
<polygon fill="white" stroke="black" points="878.5,-71.5 878.5,-90.5 1001.5,-90.5 1001.5,-71.5 878.5,-71.5"/>
<text text-anchor="middle" x="940" y="-78.5" font-family="Helvetica,sans-Serif" font-size="10.00">turtle.Position.setYPos</text>
</a>
</g>
</g>
<!-- Node22&#45;&gt;Node23 -->
<g id="edge26" class="edge"><title>Node22&#45;&gt;Node23</title>
<path fill="none" stroke="midnightblue" d="M813.984,-81C831.089,-81 850.194,-81 868.22,-81"/>
<polygon fill="midnightblue" stroke="midnightblue" points="868.393,-84.5001 878.393,-81 868.393,-77.5001 868.393,-84.5001"/>
</g>
</g>
</svg>
        <g id="navigator" transform="translate(0 0)" fill="#404254">
                <rect fill="#f2f5e9" fill-opacity="0.5" stroke="#606060" stroke-width=".5" x="0" y="0" width="60" height="60"/>
                <use id="zoomplus" xlink:href="#zoomPlus" x="17" y="9" onmousedown="handleZoom(evt,'in')"/>
                <use id="zoomminus" xlink:href="#zoomMin" x="42" y="9" onmousedown="handleZoom(evt,'out')"/>
                <use id="reset" xlink:href="#resetDef" x="30" y="36" onmousedown="handleReset()"/>
                <g id="arrowUp" xlink:href="#dirArrow" transform="translate(30 24)" onmousedown="handlePan(0,-1)">
                  <use xlink:href="#rim" fill="#404040">
                        <set attributeName="fill" to="#808080" begin="arrowUp.mouseover" end="arrowUp.mouseout"/>
                  </use>
                  <path fill="none" stroke="white" stroke-width="1.5" d="M0,-3.0v7 M-2.5,-0.5L0,-3.0L2.5,-0.5"/>
                </g>
                <g id="arrowRight" xlink:href="#dirArrow" transform="rotate(90) translate(36 -43)" onmousedown="handlePan(1,0)">
                  <use xlink:href="#rim" fill="#404040">
                        <set attributeName="fill" to="#808080" begin="arrowRight.mouseover" end="arrowRight.mouseout"/>
                  </use>
                  <path fill="none" stroke="white" stroke-width="1.5" d="M0,-3.0v7 M-2.5,-0.5L0,-3.0L2.5,-0.5"/>
                </g>
                <g id="arrowDown" xlink:href="#dirArrow" transform="rotate(180) translate(-30 -48)" onmousedown="handlePan(0,1)">
                  <use xlink:href="#rim" fill="#404040">
                        <set attributeName="fill" to="#808080" begin="arrowDown.mouseover" end="arrowDown.mouseout"/>
                  </use>
                  <path fill="none" stroke="white" stroke-width="1.5" d="M0,-3.0v7 M-2.5,-0.5L0,-3.0L2.5,-0.5"/>
                </g>
                <g id="arrowLeft" xlink:href="#dirArrow" transform="rotate(270) translate(-36 17)" onmousedown="handlePan(-1,0)">
                  <use xlink:href="#rim" fill="#404040">
                        <set attributeName="fill" to="#808080" begin="arrowLeft.mouseover" end="arrowLeft.mouseout"/>
                  </use>
                  <path fill="none" stroke="white" stroke-width="1.5" d="M0,-3.0v7 M-2.5,-0.5L0,-3.0L2.5,-0.5"/>
                </g>
        </g>
        <svg viewBox="0 0 15 15" width="100%" height="30px" preserveAspectRatio="xMaxYMin meet">
         <g id="arrow_out" transform="scale(0.3 0.3)">
          <a xlink:href="classcommands_1_1turtle_commands_1_1_set_position_command_a1ff02e56e7927a1002a7412040c98e77_cgraph_org.svg" target="_base">
           <rect id="button" ry="5" rx="5" y="6" x="6" height="38" width="38"
                fill="#f2f5e9" fill-opacity="0.5" stroke="#606060" stroke-width="1.0"/>
           <path id="arrow"
             d="M 11.500037,31.436501 C 11.940474,20.09759 22.043105,11.32322 32.158766,21.979434 L 37.068811,17.246167 C 37.068811,17.246167 37.088388,32 37.088388,32 L 22.160133,31.978069 C 22.160133,31.978069 26.997745,27.140456 26.997745,27.140456 C 18.528582,18.264221 13.291696,25.230495 11.500037,31.436501 z"
             style="fill:#404040;"/>
          </a>
         </g>
        </svg>
</svg>
