<?xml version="1.0" encoding="UTF-8" standalone="no"?>
<!DOCTYPE svg PUBLIC "-//W3C//DTD SVG 1.1//EN"
 "http://www.w3.org/Graphics/SVG/1.1/DTD/svg11.dtd">
<!-- Generated by graphviz version 2.36.0 (20140111.2315)
 -->
<!-- Title: commands.controlCommands.RepeatCommand.parseArguments Pages: 1 -->
<svg width="1130pt" height="311pt"
 viewBox="0.00 0.00 1130.00 311.00" xmlns="http://www.w3.org/2000/svg" xmlns:xlink="http://www.w3.org/1999/xlink">
<g id="graph0" class="graph" transform="scale(1 1) rotate(0) translate(4 307)">
<title>commands.controlCommands.RepeatCommand.parseArguments</title>
<polygon fill="white" stroke="none" points="-4,4 -4,-307 1126,-307 1126,4 -4,4"/>
<!-- Node1 -->
<g id="node1" class="node"><title>Node1</title>
<polygon fill="#bfbfbf" stroke="black" points="0.5,-97 0.5,-127 183.5,-127 183.5,-97 0.5,-97"/>
<text text-anchor="start" x="8.5" y="-115" font-family="Helvetica,sans-Serif" font-size="10.00">commands.controlCommands.</text>
<text text-anchor="middle" x="92" y="-104" font-family="Helvetica,sans-Serif" font-size="10.00">RepeatCommand.parseArguments</text>
</g>
<!-- Node2 -->
<g id="node2" class="node"><title>Node2</title>
<g id="a_node2"><a xlink:href="../../da/dc6/classcommand_parser_1_1_command_factory.html#a84097b97d8a8ff95b3118ebddff9f33a" target="_top" xlink:title="commandParser.CommandFactory.create\lCommand">
<polygon fill="white" stroke="black" points="426.5,-132 426.5,-162 641.5,-162 641.5,-132 426.5,-132"/>
<text text-anchor="start" x="434.5" y="-150" font-family="Helvetica,sans-Serif" font-size="10.00">commandParser.CommandFactory.create</text>
<text text-anchor="middle" x="534" y="-139" font-family="Helvetica,sans-Serif" font-size="10.00">Command</text>
</a>
</g>
</g>
<!-- Node1&#45;&gt;Node2 -->
<g id="edge1" class="edge"><title>Node1&#45;&gt;Node2</title>
<path fill="none" stroke="midnightblue" d="M122.617,-127.027C147.789,-138.907 185.266,-154.532 220,-161 289.651,-173.971 369.451,-170.119 431.043,-163.205"/>
<polygon fill="midnightblue" stroke="midnightblue" points="431.629,-166.66 441.155,-162.024 430.817,-159.707 431.629,-166.66"/>
</g>
<!-- Node10 -->
<g id="node10" class="node"><title>Node10</title>
<g id="a_node10"><a xlink:href="../../da/d90/classcommands_1_1_base_command.html#a85767c9546674c964eac77bb7d67e253" target="_top" xlink:title="commands.BaseCommand.get\lLeftoverString">
<polygon fill="white" stroke="black" points="221.5,-122 221.5,-152 388.5,-152 388.5,-122 221.5,-122"/>
<text text-anchor="start" x="229.5" y="-140" font-family="Helvetica,sans-Serif" font-size="10.00">commands.BaseCommand.get</text>
<text text-anchor="middle" x="305" y="-129" font-family="Helvetica,sans-Serif" font-size="10.00">LeftoverString</text>
</a>
</g>
</g>
<!-- Node1&#45;&gt;Node10 -->
<g id="edge9" class="edge"><title>Node1&#45;&gt;Node10</title>
<path fill="none" stroke="midnightblue" d="M183.708,-122.747C192.797,-123.824 202.035,-124.919 211.146,-125.998"/>
<polygon fill="midnightblue" stroke="midnightblue" points="211.022,-129.508 221.364,-127.209 211.845,-122.557 211.022,-129.508"/>
</g>
<!-- Node11 -->
<g id="node11" class="node"><title>Node11</title>
<g id="a_node11"><a xlink:href="../../da/d90/classcommands_1_1_base_command.html#a4f771af3c6b3345e720f2ef455e6d1e2" target="_top" xlink:title="commands.BaseCommand.set\lLeftoverCommands">
<polygon fill="white" stroke="black" points="222,-73 222,-103 388,-103 388,-73 222,-73"/>
<text text-anchor="start" x="230" y="-91" font-family="Helvetica,sans-Serif" font-size="10.00">commands.BaseCommand.set</text>
<text text-anchor="middle" x="305" y="-80" font-family="Helvetica,sans-Serif" font-size="10.00">LeftoverCommands</text>
</a>
</g>
</g>
<!-- Node1&#45;&gt;Node11 -->
<g id="edge10" class="edge"><title>Node1&#45;&gt;Node11</title>
<path fill="none" stroke="midnightblue" d="M183.708,-101.683C192.977,-100.628 202.401,-99.5563 211.687,-98.5001"/>
<polygon fill="midnightblue" stroke="midnightblue" points="212.155,-101.97 221.695,-97.3617 211.363,-95.0144 212.155,-101.97"/>
</g>
<!-- Node12 -->
<g id="node12" class="node"><title>Node12</title>
<g id="a_node12"><a xlink:href="../../da/d90/classcommands_1_1_base_command.html#a5c580fafaf7ac4ab165e666af08645c7" target="_top" xlink:title="commands.BaseCommand.split\lByInnerListCommand">
<polygon fill="white" stroke="black" points="220,-24 220,-54 390,-54 390,-24 220,-24"/>
<text text-anchor="start" x="228" y="-42" font-family="Helvetica,sans-Serif" font-size="10.00">commands.BaseCommand.split</text>
<text text-anchor="middle" x="305" y="-31" font-family="Helvetica,sans-Serif" font-size="10.00">ByInnerListCommand</text>
</a>
</g>
</g>
<!-- Node1&#45;&gt;Node12 -->
<g id="edge12" class="edge"><title>Node1&#45;&gt;Node12</title>
<path fill="none" stroke="midnightblue" d="M129.363,-96.9686C154.587,-86.7895 189.076,-73.36 220,-63 226.04,-60.9765 232.359,-58.9709 238.703,-57.0319"/>
<polygon fill="midnightblue" stroke="midnightblue" points="240.084,-60.272 248.657,-54.0466 238.073,-53.567 240.084,-60.272"/>
</g>
<!-- Node3 -->
<g id="node3" class="node"><title>Node3</title>
<g id="a_node3"><a xlink:href="../../d4/d05/classcommands_1_1information_1_1_base_user_defined_container.html#abbef8e1f3137aa92b5ca708b18981aac" target="_top" xlink:title="commands.information.Base\lUserDefinedContainer.containsCustom\lCommand">
<polygon fill="white" stroke="black" points="685.5,-261.5 685.5,-302.5 888.5,-302.5 888.5,-261.5 685.5,-261.5"/>
<text text-anchor="start" x="693.5" y="-290.5" font-family="Helvetica,sans-Serif" font-size="10.00">commands.information.Base</text>
<text text-anchor="start" x="693.5" y="-279.5" font-family="Helvetica,sans-Serif" font-size="10.00">UserDefinedContainer.containsCustom</text>
<text text-anchor="middle" x="787" y="-268.5" font-family="Helvetica,sans-Serif" font-size="10.00">Command</text>
</a>
</g>
</g>
<!-- Node2&#45;&gt;Node3 -->
<g id="edge2" class="edge"><title>Node2&#45;&gt;Node3</title>
<path fill="none" stroke="midnightblue" d="M551.299,-162.109C576.572,-184.771 627.577,-227.509 678,-252 682.261,-254.07 686.689,-256.017 691.212,-257.847"/>
<polygon fill="midnightblue" stroke="midnightblue" points="690.019,-261.138 700.609,-261.438 692.518,-254.599 690.019,-261.138"/>
</g>
<!-- Node5 -->
<g id="node5" class="node"><title>Node5</title>
<g id="a_node5"><a xlink:href="../../dd/df5/interfacecommands_1_1information_1_1_i_information_gateway.html#a7288ceac89a0755490d929dc28df39f0" target="_top" xlink:title="commands.information.IInformation\lGateway.getContainers">
<polygon fill="white" stroke="black" points="693,-213 693,-243 881,-243 881,-213 693,-213"/>
<text text-anchor="start" x="701" y="-231" font-family="Helvetica,sans-Serif" font-size="10.00">commands.information.IInformation</text>
<text text-anchor="middle" x="787" y="-220" font-family="Helvetica,sans-Serif" font-size="10.00">Gateway.getContainers</text>
</a>
</g>
</g>
<!-- Node2&#45;&gt;Node5 -->
<g id="edge4" class="edge"><title>Node2&#45;&gt;Node5</title>
<path fill="none" stroke="midnightblue" d="M569.174,-162.011C597.835,-174.204 640.052,-191.246 678,-203 686.573,-205.655 695.606,-208.173 704.648,-210.515"/>
<polygon fill="midnightblue" stroke="midnightblue" points="703.888,-213.933 714.441,-212.985 705.601,-207.145 703.888,-213.933"/>
</g>
<!-- Node6 -->
<g id="node6" class="node"><title>Node6</title>
<g id="a_node6"><a xlink:href="../../d4/d05/classcommands_1_1information_1_1_base_user_defined_container.html#a22a65948b69ed0032f4d904e13c69491" target="_top" xlink:title="commands.information.Base\lUserDefinedContainer.getCreated\lCommand">
<polygon fill="white" stroke="black" points="697.5,-153.5 697.5,-194.5 876.5,-194.5 876.5,-153.5 697.5,-153.5"/>
<text text-anchor="start" x="705.5" y="-182.5" font-family="Helvetica,sans-Serif" font-size="10.00">commands.information.Base</text>
<text text-anchor="start" x="705.5" y="-171.5" font-family="Helvetica,sans-Serif" font-size="10.00">UserDefinedContainer.getCreated</text>
<text text-anchor="middle" x="787" y="-160.5" font-family="Helvetica,sans-Serif" font-size="10.00">Command</text>
</a>
</g>
</g>
<!-- Node2&#45;&gt;Node6 -->
<g id="edge5" class="edge"><title>Node2&#45;&gt;Node6</title>
<path fill="none" stroke="midnightblue" d="M641.811,-158.49C656.88,-160.111 672.317,-161.771 687.226,-163.375"/>
<polygon fill="midnightblue" stroke="midnightblue" points="687.135,-166.885 697.452,-164.475 687.884,-159.925 687.135,-166.885"/>
</g>
<!-- Node7 -->
<g id="node7" class="node"><title>Node7</title>
<g id="a_node7"><a xlink:href="../../da/d90/classcommands_1_1_base_command.html#a03dca0b542f5be4aa804297cea2688b5" target="_top" xlink:title="commands.BaseCommand.get\lRequiredInformationTypes">
<polygon fill="white" stroke="black" points="703.5,-105 703.5,-135 870.5,-135 870.5,-105 703.5,-105"/>
<text text-anchor="start" x="711.5" y="-123" font-family="Helvetica,sans-Serif" font-size="10.00">commands.BaseCommand.get</text>
<text text-anchor="middle" x="787" y="-112" font-family="Helvetica,sans-Serif" font-size="10.00">RequiredInformationTypes</text>
</a>
</g>
</g>
<!-- Node2&#45;&gt;Node7 -->
<g id="edge6" class="edge"><title>Node2&#45;&gt;Node7</title>
<path fill="none" stroke="midnightblue" d="M641.811,-135.51C658.827,-133.68 676.312,-131.799 692.977,-130.006"/>
<polygon fill="midnightblue" stroke="midnightblue" points="693.668,-133.452 703.236,-128.903 692.919,-126.493 693.668,-133.452"/>
</g>
<!-- Node8 -->
<g id="node8" class="node"><title>Node8</title>
<g id="a_node8"><a xlink:href="../../da/dc6/classcommand_parser_1_1_command_factory.html#a5c750e1a1a32bd314bf662dd5cfdc951" target="_top" xlink:title="commandParser.CommandFactory.identify\lFirstCommand">
<polygon fill="white" stroke="black" points="678,-56 678,-86 896,-86 896,-56 678,-56"/>
<text text-anchor="start" x="686" y="-74" font-family="Helvetica,sans-Serif" font-size="10.00">commandParser.CommandFactory.identify</text>
<text text-anchor="middle" x="787" y="-63" font-family="Helvetica,sans-Serif" font-size="10.00">FirstCommand</text>
</a>
</g>
</g>
<!-- Node2&#45;&gt;Node8 -->
<g id="edge7" class="edge"><title>Node2&#45;&gt;Node8</title>
<path fill="none" stroke="midnightblue" d="M572.193,-131.964C600.799,-120.771 641.481,-105.649 678,-95 685.886,-92.7006 694.151,-90.4997 702.448,-88.4286"/>
<polygon fill="midnightblue" stroke="midnightblue" points="703.295,-91.8248 712.183,-86.0587 701.639,-85.0235 703.295,-91.8248"/>
</g>
<!-- Node9 -->
<g id="node9" class="node"><title>Node9</title>
<g id="a_node9"><a xlink:href="../../da/d90/classcommands_1_1_base_command.html#aa64b92d5d7753574941c38218a271b0d" target="_top" xlink:title="commands.BaseCommand.set\lRequiredInformation">
<polygon fill="white" stroke="black" points="704,-7 704,-37 870,-37 870,-7 704,-7"/>
<text text-anchor="start" x="712" y="-25" font-family="Helvetica,sans-Serif" font-size="10.00">commands.BaseCommand.set</text>
<text text-anchor="middle" x="787" y="-14" font-family="Helvetica,sans-Serif" font-size="10.00">RequiredInformation</text>
</a>
</g>
</g>
<!-- Node2&#45;&gt;Node9 -->
<g id="edge8" class="edge"><title>Node2&#45;&gt;Node9</title>
<path fill="none" stroke="midnightblue" d="M569.719,-131.797C591.668,-121.265 619.951,-105.941 642,-88 661.07,-72.4827 656.918,-58.6491 678,-46 683.117,-42.9296 688.583,-40.251 694.238,-37.9142"/>
<polygon fill="midnightblue" stroke="midnightblue" points="695.766,-41.0795 703.904,-34.2957 693.312,-34.5237 695.766,-41.0795"/>
</g>
<!-- Node4 -->
<g id="node4" class="node"><title>Node4</title>
<g id="a_node4"><a xlink:href="../../d4/d05/classcommands_1_1information_1_1_base_user_defined_container.html#a2c1da98631c577bddaaa7f4ad5ae8aaa" target="_top" xlink:title="commands.information.Base\lUserDefinedContainer.getAllCustom\lCommands">
<polygon fill="white" stroke="black" points="932.5,-261.5 932.5,-302.5 1121.5,-302.5 1121.5,-261.5 932.5,-261.5"/>
<text text-anchor="start" x="940.5" y="-290.5" font-family="Helvetica,sans-Serif" font-size="10.00">commands.information.Base</text>
<text text-anchor="start" x="940.5" y="-279.5" font-family="Helvetica,sans-Serif" font-size="10.00">UserDefinedContainer.getAllCustom</text>
<text text-anchor="middle" x="1027" y="-268.5" font-family="Helvetica,sans-Serif" font-size="10.00">Commands</text>
</a>
</g>
</g>
<!-- Node3&#45;&gt;Node4 -->
<g id="edge3" class="edge"><title>Node3&#45;&gt;Node4</title>
<path fill="none" stroke="midnightblue" d="M888.588,-282C899.662,-282 910.953,-282 922.065,-282"/>
<polygon fill="midnightblue" stroke="midnightblue" points="922.21,-285.5 932.21,-282 922.21,-278.5 922.21,-285.5"/>
</g>
<!-- Node11&#45;&gt;Node2 -->
<g id="edge11" class="edge"><title>Node11&#45;&gt;Node2</title>
<path fill="none" stroke="midnightblue" d="M363.869,-103.041C394.82,-111.085 433.103,-121.036 465.415,-129.434"/>
<polygon fill="midnightblue" stroke="midnightblue" points="464.678,-132.858 475.237,-131.987 466.439,-126.084 464.678,-132.858"/>
</g>
<!-- Node13 -->
<g id="node13" class="node"><title>Node13</title>
<g id="a_node13"><a xlink:href="../../da/d90/classcommands_1_1_base_command.html#a648d67ef5324973db4c43d78d98ec837" target="_top" xlink:title="commands.BaseCommand.find\lIndexOfInnerListCommandEnd">
<polygon fill="white" stroke="black" points="450,-49 450,-79 618,-79 618,-49 450,-49"/>
<text text-anchor="start" x="458" y="-67" font-family="Helvetica,sans-Serif" font-size="10.00">commands.BaseCommand.find</text>
<text text-anchor="middle" x="534" y="-56" font-family="Helvetica,sans-Serif" font-size="10.00">IndexOfInnerListCommandEnd</text>
</a>
</g>
</g>
<!-- Node12&#45;&gt;Node13 -->
<g id="edge13" class="edge"><title>Node12&#45;&gt;Node13</title>
<path fill="none" stroke="midnightblue" d="M390.204,-48.2736C406.295,-50.0457 423.23,-51.9108 439.589,-53.7125"/>
<polygon fill="midnightblue" stroke="midnightblue" points="439.365,-57.2089 449.688,-54.8247 440.132,-50.251 439.365,-57.2089"/>
</g>
<!-- Node14 -->
<g id="node14" class="node"><title>Node14</title>
<g id="a_node14"><a xlink:href="../../da/d90/classcommands_1_1_base_command.html#a74b2695b6b57512dca66f288feb02aee" target="_top" xlink:title="commands.BaseCommand.starts\lWithCommandStartIndicator">
<polygon fill="white" stroke="black" points="444.5,-0 444.5,-30 623.5,-30 623.5,-0 444.5,-0"/>
<text text-anchor="start" x="452.5" y="-18" font-family="Helvetica,sans-Serif" font-size="10.00">commands.BaseCommand.starts</text>
<text text-anchor="middle" x="534" y="-7" font-family="Helvetica,sans-Serif" font-size="10.00">WithCommandStartIndicator</text>
</a>
</g>
</g>
<!-- Node12&#45;&gt;Node14 -->
<g id="edge14" class="edge"><title>Node12&#45;&gt;Node14</title>
<path fill="none" stroke="midnightblue" d="M390.204,-30.0974C404.556,-28.5799 419.58,-26.9916 434.267,-25.4387"/>
<polygon fill="midnightblue" stroke="midnightblue" points="434.793,-28.9027 444.37,-24.3706 434.057,-21.9415 434.793,-28.9027"/>
</g>
</g>
</svg>
