<?xml version="1.0" encoding="UTF-8" standalone="no"?>
<!DOCTYPE svg PUBLIC "-//W3C//DTD SVG 1.1//EN"
 "http://www.w3.org/Graphics/SVG/1.1/DTD/svg11.dtd">
<!-- Generated by graphviz version 2.36.0 (20140111.2315)
 -->
<!-- Title: commands.controlCommands.RepeatCommand.onExecute Pages: 1 -->
<svg width="638pt" height="115pt"
 viewBox="0.00 0.00 638.00 115.00" xmlns="http://www.w3.org/2000/svg" xmlns:xlink="http://www.w3.org/1999/xlink">
<g id="graph0" class="graph" transform="scale(1 1) rotate(0) translate(4 111)">
<title>commands.controlCommands.RepeatCommand.onExecute</title>
<polygon fill="white" stroke="none" points="-4,4 -4,-111 634,-111 634,4 -4,4"/>
<!-- Node1 -->
<g id="node1" class="node"><title>Node1</title>
<polygon fill="#bfbfbf" stroke="black" points="0.5,-33 0.5,-63 165.5,-63 165.5,-33 0.5,-33"/>
<text text-anchor="start" x="8.5" y="-51" font-family="Helvetica,sans-Serif" font-size="10.00">commands.controlCommands.</text>
<text text-anchor="middle" x="83" y="-40" font-family="Helvetica,sans-Serif" font-size="10.00">RepeatCommand.onExecute</text>
</g>
<!-- Node2 -->
<g id="node2" class="node"><title>Node2</title>
<g id="a_node2"><a xlink:href="../../da/d90/classcommands_1_1_base_command.html#a68a349a085c4b05af0a55943da86598b" target="_top" xlink:title="commands.BaseCommand.execute">
<polygon fill="white" stroke="black" points="202.5,-38.5 202.5,-57.5 391.5,-57.5 391.5,-38.5 202.5,-38.5"/>
<text text-anchor="middle" x="297" y="-45.5" font-family="Helvetica,sans-Serif" font-size="10.00">commands.BaseCommand.execute</text>
</a>
</g>
</g>
<!-- Node1&#45;&gt;Node2 -->
<g id="edge1" class="edge"><title>Node1&#45;&gt;Node2</title>
<path fill="none" stroke="midnightblue" d="M165.661,-48C174.391,-48 183.352,-48 192.293,-48"/>
<polygon fill="midnightblue" stroke="midnightblue" points="192.363,-51.5001 202.363,-48 192.363,-44.5001 192.363,-51.5001"/>
</g>
<!-- Node2&#45;&gt;Node2 -->
<g id="edge2" class="edge"><title>Node2&#45;&gt;Node2</title>
<path fill="none" stroke="midnightblue" d="M264.283,-57.6119C247.85,-66.4613 258.756,-76 297,-76 325.086,-76 338.427,-70.8557 337.025,-64.618"/>
<polygon fill="midnightblue" stroke="midnightblue" points="339.358,-62.0056 329.717,-57.6119 334.513,-67.0588 339.358,-62.0056"/>
</g>
<!-- Node3 -->
<g id="node3" class="node"><title>Node3</title>
<g id="a_node3"><a xlink:href="../../da/d90/classcommands_1_1_base_command.html#a90abff4a812d84d0454cb095e03c6e08" target="_top" xlink:title="commands.BaseCommand.get\lNextCommand">
<polygon fill="white" stroke="black" points="445.5,-77 445.5,-107 612.5,-107 612.5,-77 445.5,-77"/>
<text text-anchor="start" x="453.5" y="-95" font-family="Helvetica,sans-Serif" font-size="10.00">commands.BaseCommand.get</text>
<text text-anchor="middle" x="529" y="-84" font-family="Helvetica,sans-Serif" font-size="10.00">NextCommand</text>
</a>
</g>
</g>
<!-- Node2&#45;&gt;Node3 -->
<g id="edge3" class="edge"><title>Node2&#45;&gt;Node3</title>
<path fill="none" stroke="midnightblue" d="M347.907,-57.5473C374.611,-62.656 408.298,-69.1005 439.293,-75.0299"/>
<polygon fill="midnightblue" stroke="midnightblue" points="438.77,-78.4932 449.249,-76.9346 440.085,-71.6179 438.77,-78.4932"/>
</g>
<!-- Node4 -->
<g id="node4" class="node"><title>Node4</title>
<g id="a_node4"><a xlink:href="../../da/d90/classcommands_1_1_base_command.html#aad4544c0bd9d40769d8997e4d6d97b08" target="_top" xlink:title="commands.BaseCommand.onExecute">
<polygon fill="white" stroke="black" points="428.5,-38.5 428.5,-57.5 629.5,-57.5 629.5,-38.5 428.5,-38.5"/>
<text text-anchor="middle" x="529" y="-45.5" font-family="Helvetica,sans-Serif" font-size="10.00">commands.BaseCommand.onExecute</text>
</a>
</g>
</g>
<!-- Node2&#45;&gt;Node4 -->
<g id="edge4" class="edge"><title>Node2&#45;&gt;Node4</title>
<path fill="none" stroke="midnightblue" d="M391.55,-48C400.315,-48 409.252,-48 418.149,-48"/>
<polygon fill="midnightblue" stroke="midnightblue" points="418.164,-51.5001 428.164,-48 418.164,-44.5001 418.164,-51.5001"/>
</g>
<!-- Node5 -->
<g id="node5" class="node"><title>Node5</title>
<g id="a_node5"><a xlink:href="../../da/d90/classcommands_1_1_base_command.html#a37ff254bd611b07ea38aaaf85447a2c3" target="_top" xlink:title="commands.BaseCommand.reset">
<polygon fill="white" stroke="black" points="441,-0.5 441,-19.5 617,-19.5 617,-0.5 441,-0.5"/>
<text text-anchor="middle" x="529" y="-7.5" font-family="Helvetica,sans-Serif" font-size="10.00">commands.BaseCommand.reset</text>
</a>
</g>
</g>
<!-- Node2&#45;&gt;Node5 -->
<g id="edge5" class="edge"><title>Node2&#45;&gt;Node5</title>
<path fill="none" stroke="midnightblue" d="M355.742,-38.46C387.458,-33.2201 426.974,-26.6912 460.156,-21.2091"/>
<polygon fill="midnightblue" stroke="midnightblue" points="460.939,-24.6272 470.234,-19.5439 459.798,-17.7209 460.939,-24.6272"/>
</g>
</g>
</svg>
