<?xml version="1.0" encoding="UTF-8" standalone="no"?>
<!DOCTYPE svg PUBLIC "-//W3C//DTD SVG 1.1//EN"
 "http://www.w3.org/Graphics/SVG/1.1/DTD/svg11.dtd">
<!-- Generated by graphviz version 2.36.0 (20140111.2315)
 -->
<!-- Title: commands.viewCommands.HomeCommand.onExecute Pages: 1 -->
<!--zoomable 368 -->
<svg id="main" version="1.1" xmlns="http://www.w3.org/2000/svg" xmlns:xlink="http://www.w3.org/1999/xlink" xml:space="preserve" onload="init(evt)">
<style type="text/css"><![CDATA[
.edge:hover path { stroke: red; }
.edge:hover polygon { stroke: red; fill: red; }
]]></style>
<script type="text/javascript"><![CDATA[
var edges = document.getElementsByTagName('g');
if (edges && edges.length) {
  for (var i=0;i<edges.length;i++) {
    if (edges[i].id.substr(0,4)=='edge') {
      edges[i].setAttribute('class','edge');
    }
  }
}
]]></script>
        <defs>
                <circle id="rim" cx="0" cy="0" r="7"/>
                <circle id="rim2" cx="0" cy="0" r="3.5"/>
                <g id="zoomPlus">
                        <use xlink:href="#rim" fill="#404040">
                                <set attributeName="fill" to="#808080" begin="zoomplus.mouseover" end="zoomplus.mouseout"/>
                        </use>
                        <path d="M-4,0h8M0,-4v8" fill="none" stroke="white" stroke-width="1.5" pointer-events="none"/>
                </g>
                <g id="zoomMin">
                        <use xlink:href="#rim" fill="#404040">
                                <set attributeName="fill" to="#808080" begin="zoomminus.mouseover" end="zoomminus.mouseout"/>
                        </use>
                        <path d="M-4,0h8" fill="none" stroke="white" stroke-width="1.5" pointer-events="none"/>
                </g>
                <g id="dirArrow">
                        <path fill="none" stroke="white" stroke-width="1.5" d="M0,-3.0v7 M-2.5,-0.5L0,-3.0L2.5,-0.5"/>
                </g>
               <g id="resetDef">
                       <use xlink:href="#rim2" fill="#404040">
                               <set attributeName="fill" to="#808080" begin="reset.mouseover" end="reset.mouseout"/>
                       </use>
               </g>
        </defs>

<script type="text/javascript">
var viewWidth = 1138;
var viewHeight = 368;
var sectionId = 'dynsection-2';
</script>
<script xlink:href="../../svgpan.js"/>
<svg id="graph" class="graph">
<g id="viewport">
<title>commands.viewCommands.HomeCommand.onExecute</title>
<polygon fill="white" stroke="none" points="-4,4 -4,-364 1134,-364 1134,4 -4,4"/>
<!-- Node1 -->
<g id="node1" class="node"><title>Node1</title>
<polygon fill="#bfbfbf" stroke="black" points="0,-120 0,-150 182,-150 182,-120 0,-120"/>
<text text-anchor="start" x="8" y="-138" font-family="Helvetica,sans-Serif" font-size="10.00">commands.viewCommands.Home</text>
<text text-anchor="middle" x="91" y="-127" font-family="Helvetica,sans-Serif" font-size="10.00">Command.onExecute</text>
</g>
<!-- Node2 -->
<g id="node2" class="node"><title>Node2</title>
<g id="a_node2"><a xlink:href="../../d4/d37/classcommands_1_1information_1_1_base_grid_container.html#a38f8c792934b18ab3c595133d0cb3d96" target="_top" xlink:title="commands.information.Base\lGridContainer.getActiveGrids">
<polygon fill="white" stroke="black" points="232.5,-235 232.5,-265 387.5,-265 387.5,-235 232.5,-235"/>
<text text-anchor="start" x="240.5" y="-253" font-family="Helvetica,sans-Serif" font-size="10.00">commands.information.Base</text>
<text text-anchor="middle" x="310" y="-242" font-family="Helvetica,sans-Serif" font-size="10.00">GridContainer.getActiveGrids</text>
</a>
</g>
</g>
<!-- Node1&#45;&gt;Node2 -->
<g id="edge1" class="edge"><title>Node1&#45;&gt;Node2</title>
<path fill="none" stroke="midnightblue" d="M109.102,-150.257C132.239,-170.15 175.521,-204.784 218,-225 222.993,-227.376 228.251,-229.56 233.618,-231.562"/>
<polygon fill="midnightblue" stroke="midnightblue" points="232.766,-234.972 243.361,-234.969 235.077,-228.364 232.766,-234.972"/>
</g>
<!-- Node3 -->
<g id="node3" class="node"><title>Node3</title>
<g id="a_node3"><a xlink:href="../../d7/d28/classcommands_1_1information_1_1_base_turtle_container.html#a704eca72b47c6a35888f2868beaec2d3" target="_top" xlink:title="commands.information.Base\lTurtleContainer.getActiveTurtles">
<polygon fill="white" stroke="black" points="634.5,-137 634.5,-167 801.5,-167 801.5,-137 634.5,-137"/>
<text text-anchor="start" x="642.5" y="-155" font-family="Helvetica,sans-Serif" font-size="10.00">commands.information.Base</text>
<text text-anchor="middle" x="718" y="-144" font-family="Helvetica,sans-Serif" font-size="10.00">TurtleContainer.getActiveTurtles</text>
</a>
</g>
</g>
<!-- Node1&#45;&gt;Node3 -->
<g id="edge2" class="edge"><title>Node1&#45;&gt;Node3</title>
<path fill="none" stroke="midnightblue" d="M182.213,-137.454C299.972,-140.657 505.044,-146.235 624.109,-149.473"/>
<polygon fill="midnightblue" stroke="midnightblue" points="624.205,-152.977 634.297,-149.75 624.395,-145.98 624.205,-152.977"/>
</g>
<!-- Node4 -->
<g id="node4" class="node"><title>Node4</title>
<g id="a_node4"><a xlink:href="../../d3/d03/classcommands_1_1turtle_commands_1_1_turtle_command.html#ae8d98992e825d4b47ef321fe8c6c63dd" target="_top" xlink:title="commands.turtleCommands.\lTurtleCommand.getGridContainer">
<polygon fill="white" stroke="black" points="221.5,-98 221.5,-128 398.5,-128 398.5,-98 221.5,-98"/>
<text text-anchor="start" x="229.5" y="-116" font-family="Helvetica,sans-Serif" font-size="10.00">commands.turtleCommands.</text>
<text text-anchor="middle" x="310" y="-105" font-family="Helvetica,sans-Serif" font-size="10.00">TurtleCommand.getGridContainer</text>
</a>
</g>
</g>
<!-- Node1&#45;&gt;Node4 -->
<g id="edge3" class="edge"><title>Node1&#45;&gt;Node4</title>
<path fill="none" stroke="midnightblue" d="M182.142,-125.861C191.736,-124.889 201.526,-123.896 211.202,-122.915"/>
<polygon fill="midnightblue" stroke="midnightblue" points="211.634,-126.389 221.23,-121.898 210.928,-119.425 211.634,-126.389"/>
</g>
<!-- Node5 -->
<g id="node5" class="node"><title>Node5</title>
<g id="a_node5"><a xlink:href="../../d3/d03/classcommands_1_1turtle_commands_1_1_turtle_command.html#a82f290b3a2e14029a8a525bafa35994f" target="_top" xlink:title="commands.turtleCommands.\lTurtleCommand.getTurtleContainer">
<polygon fill="white" stroke="black" points="218.5,-49 218.5,-79 401.5,-79 401.5,-49 218.5,-49"/>
<text text-anchor="start" x="226.5" y="-67" font-family="Helvetica,sans-Serif" font-size="10.00">commands.turtleCommands.</text>
<text text-anchor="middle" x="310" y="-56" font-family="Helvetica,sans-Serif" font-size="10.00">TurtleCommand.getTurtleContainer</text>
</a>
</g>
</g>
<!-- Node1&#45;&gt;Node5 -->
<g id="edge4" class="edge"><title>Node1&#45;&gt;Node5</title>
<path fill="none" stroke="midnightblue" d="M130.598,-119.977C155.392,-110.56 188.385,-98.4565 218,-89 225.656,-86.5553 233.72,-84.1295 241.753,-81.8052"/>
<polygon fill="midnightblue" stroke="midnightblue" points="242.85,-85.1321 251.508,-79.0259 240.932,-78.4001 242.85,-85.1321"/>
</g>
<!-- Node6 -->
<g id="node6" class="node"><title>Node6</title>
<g id="a_node6"><a xlink:href="../../d7/d28/classcommands_1_1information_1_1_base_turtle_container.html#a5d86cfae201525f3446fc58eb5c7df7c" target="_top" xlink:title="commands.information.Base\lTurtleContainer.setPosition">
<polygon fill="white" stroke="black" points="232.5,-186 232.5,-216 387.5,-216 387.5,-186 232.5,-186"/>
<text text-anchor="start" x="240.5" y="-204" font-family="Helvetica,sans-Serif" font-size="10.00">commands.information.Base</text>
<text text-anchor="middle" x="310" y="-193" font-family="Helvetica,sans-Serif" font-size="10.00">TurtleContainer.setPosition</text>
</a>
</g>
</g>
<!-- Node1&#45;&gt;Node6 -->
<g id="edge5" class="edge"><title>Node1&#45;&gt;Node6</title>
<path fill="none" stroke="midnightblue" d="M141.512,-150.059C173.618,-159.824 215.624,-172.6 249.537,-182.914"/>
<polygon fill="midnightblue" stroke="midnightblue" points="248.74,-186.33 259.325,-185.892 250.777,-179.633 248.74,-186.33"/>
</g>
<!-- Node20 -->
<g id="node20" class="node"><title>Node20</title>
<g id="a_node20"><a xlink:href="../../d4/d37/classcommands_1_1information_1_1_base_grid_container.html#ae8e4c8b6e12b79c4249c4d7b36c96a70" target="_top" xlink:title="commands.information.Base\lGridContainer.update">
<polygon fill="white" stroke="black" points="232.5,-0 232.5,-30 387.5,-30 387.5,-0 232.5,-0"/>
<text text-anchor="start" x="240.5" y="-18" font-family="Helvetica,sans-Serif" font-size="10.00">commands.information.Base</text>
<text text-anchor="middle" x="310" y="-7" font-family="Helvetica,sans-Serif" font-size="10.00">GridContainer.update</text>
</a>
</g>
</g>
<!-- Node1&#45;&gt;Node20 -->
<g id="edge22" class="edge"><title>Node1&#45;&gt;Node20</title>
<path fill="none" stroke="midnightblue" d="M107.776,-119.91C130.419,-99.043 174.241,-61.521 218,-40 222.659,-37.7088 227.558,-35.6018 232.568,-33.6684"/>
<polygon fill="midnightblue" stroke="midnightblue" points="234.081,-36.8437 242.303,-30.1618 231.708,-30.258 234.081,-36.8437"/>
</g>
<!-- Node7 -->
<g id="node7" class="node"><title>Node7</title>
<g id="a_node7"><a xlink:href="../../d7/d28/classcommands_1_1information_1_1_base_turtle_container.html#ae3f987ec79fb3318d8c3a1c8bd65f67b" target="_top" xlink:title="commands.information.Base\lTurtleContainer.loopOverTurtle">
<polygon fill="white" stroke="black" points="438.5,-186 438.5,-216 597.5,-216 597.5,-186 438.5,-186"/>
<text text-anchor="start" x="446.5" y="-204" font-family="Helvetica,sans-Serif" font-size="10.00">commands.information.Base</text>
<text text-anchor="middle" x="518" y="-193" font-family="Helvetica,sans-Serif" font-size="10.00">TurtleContainer.loopOverTurtle</text>
</a>
</g>
</g>
<!-- Node6&#45;&gt;Node7 -->
<g id="edge6" class="edge"><title>Node6&#45;&gt;Node7</title>
<path fill="none" stroke="midnightblue" d="M387.707,-201C400.833,-201 414.57,-201 427.985,-201"/>
<polygon fill="midnightblue" stroke="midnightblue" points="428.165,-204.5 438.165,-201 428.165,-197.5 428.165,-204.5"/>
</g>
<!-- Node9 -->
<g id="node9" class="node"><title>Node9</title>
<g id="a_node9"><a xlink:href="../../df/dcb/classturtle_1_1_turtle.html#ab4ccc5acaf4924205497db6d8a8125b9" target="_top" xlink:title="turtle.Turtle.setPosition">
<polygon fill="white" stroke="black" points="455,-264.5 455,-283.5 581,-283.5 581,-264.5 455,-264.5"/>
<text text-anchor="middle" x="518" y="-271.5" font-family="Helvetica,sans-Serif" font-size="10.00">turtle.Turtle.setPosition</text>
</a>
</g>
</g>
<!-- Node6&#45;&gt;Node9 -->
<g id="edge9" class="edge"><title>Node6&#45;&gt;Node9</title>
<path fill="none" stroke="midnightblue" d="M370.078,-216.052C380.776,-219.11 391.776,-222.478 402,-226 431.353,-236.112 463.933,-249.97 486.899,-260.196"/>
<polygon fill="midnightblue" stroke="midnightblue" points="485.559,-263.432 496.116,-264.336 488.427,-257.046 485.559,-263.432"/>
</g>
<!-- Node7&#45;&gt;Node3 -->
<g id="edge8" class="edge"><title>Node7&#45;&gt;Node3</title>
<path fill="none" stroke="midnightblue" d="M579.752,-185.965C600.848,-180.745 624.682,-174.846 646.498,-169.447"/>
<polygon fill="midnightblue" stroke="midnightblue" points="647.496,-172.806 656.363,-167.006 645.815,-166.011 647.496,-172.806"/>
</g>
<!-- Node8 -->
<g id="node8" class="node"><title>Node8</title>
<g id="a_node8"><a xlink:href="../../d1/d39/interfacecommands_1_1information_1_1_base_turtle_container_1_1_turtle_action_with_result.html#a5043750fe9ea0b38e426614c999c9d60" target="_top" xlink:title="commands.information.Base\lTurtleContainer.TurtleActionWith\lResult.execute">
<polygon fill="white" stroke="black" points="634.5,-185.5 634.5,-226.5 801.5,-226.5 801.5,-185.5 634.5,-185.5"/>
<text text-anchor="start" x="642.5" y="-214.5" font-family="Helvetica,sans-Serif" font-size="10.00">commands.information.Base</text>
<text text-anchor="start" x="642.5" y="-203.5" font-family="Helvetica,sans-Serif" font-size="10.00">TurtleContainer.TurtleActionWith</text>
<text text-anchor="middle" x="718" y="-192.5" font-family="Helvetica,sans-Serif" font-size="10.00">Result.execute</text>
</a>
</g>
</g>
<!-- Node7&#45;&gt;Node8 -->
<g id="edge7" class="edge"><title>Node7&#45;&gt;Node8</title>
<path fill="none" stroke="midnightblue" d="M597.539,-202.983C606.325,-203.205 615.336,-203.433 624.278,-203.659"/>
<polygon fill="midnightblue" stroke="midnightblue" points="624.244,-207.159 634.33,-203.912 624.421,-200.161 624.244,-207.159"/>
</g>
<!-- Node10 -->
<g id="node10" class="node"><title>Node10</title>
<g id="a_node10"><a xlink:href="../../df/dcb/classturtle_1_1_turtle.html#a569289374749eb6dcf64e0ed1ec7b9b2" target="_top" xlink:title="turtle.Turtle.getXYCoordinates">
<polygon fill="white" stroke="black" points="639,-283.5 639,-302.5 797,-302.5 797,-283.5 639,-283.5"/>
<text text-anchor="middle" x="718" y="-290.5" font-family="Helvetica,sans-Serif" font-size="10.00">turtle.Turtle.getXYCoordinates</text>
</a>
</g>
</g>
<!-- Node9&#45;&gt;Node10 -->
<g id="edge10" class="edge"><title>Node9&#45;&gt;Node10</title>
<path fill="none" stroke="midnightblue" d="M581.105,-279.96C596.084,-281.397 612.377,-282.96 628.31,-284.489"/>
<polygon fill="midnightblue" stroke="midnightblue" points="628.422,-288.016 638.711,-285.487 629.091,-281.048 628.422,-288.016"/>
</g>
<!-- Node15 -->
<g id="node15" class="node"><title>Node15</title>
<g id="a_node15"><a xlink:href="../../df/dcb/classturtle_1_1_turtle.html#a5db281fc734edd965ff0faddbab871d7" target="_top" xlink:title="turtle.Turtle.setXPos">
<polygon fill="white" stroke="black" points="844,-226.5 844,-245.5 956,-245.5 956,-226.5 844,-226.5"/>
<text text-anchor="middle" x="900" y="-233.5" font-family="Helvetica,sans-Serif" font-size="10.00">turtle.Turtle.setXPos</text>
</a>
</g>
</g>
<!-- Node9&#45;&gt;Node15 -->
<g id="edge15" class="edge"><title>Node9&#45;&gt;Node15</title>
<path fill="none" stroke="midnightblue" d="M581.324,-267.768C650.862,-260.814 762.866,-249.613 833.62,-242.538"/>
<polygon fill="midnightblue" stroke="midnightblue" points="834.148,-246.003 843.75,-241.525 833.451,-239.038 834.148,-246.003"/>
</g>
<!-- Node18 -->
<g id="node18" class="node"><title>Node18</title>
<g id="a_node18"><a xlink:href="../../df/dcb/classturtle_1_1_turtle.html#a1107426e66ec049d5e3d1c1783a463db" target="_top" xlink:title="turtle.Turtle.setYPos">
<polygon fill="white" stroke="black" points="662.5,-321.5 662.5,-340.5 773.5,-340.5 773.5,-321.5 662.5,-321.5"/>
<text text-anchor="middle" x="718" y="-328.5" font-family="Helvetica,sans-Serif" font-size="10.00">turtle.Turtle.setYPos</text>
</a>
</g>
</g>
<!-- Node9&#45;&gt;Node18 -->
<g id="edge20" class="edge"><title>Node9&#45;&gt;Node18</title>
<path fill="none" stroke="midnightblue" d="M545.734,-283.628C568.902,-291.78 603.417,-303.467 634,-312 642.888,-314.48 652.376,-316.88 661.644,-319.092"/>
<polygon fill="midnightblue" stroke="midnightblue" points="661.041,-322.545 671.575,-321.413 662.634,-315.729 661.041,-322.545"/>
</g>
<!-- Node11 -->
<g id="node11" class="node"><title>Node11</title>
<g id="a_node11"><a xlink:href="../../df/dcb/classturtle_1_1_turtle.html#aa576ade68e2f453b037ea2a3c456d466" target="_top" xlink:title="turtle.Turtle.getXPos">
<polygon fill="white" stroke="black" points="843.5,-264.5 843.5,-283.5 956.5,-283.5 956.5,-264.5 843.5,-264.5"/>
<text text-anchor="middle" x="900" y="-271.5" font-family="Helvetica,sans-Serif" font-size="10.00">turtle.Turtle.getXPos</text>
</a>
</g>
</g>
<!-- Node10&#45;&gt;Node11 -->
<g id="edge11" class="edge"><title>Node10&#45;&gt;Node11</title>
<path fill="none" stroke="midnightblue" d="M797.165,-284.749C809.2,-283.479 821.522,-282.178 833.25,-280.94"/>
<polygon fill="midnightblue" stroke="midnightblue" points="833.804,-284.401 843.381,-279.871 833.069,-277.44 833.804,-284.401"/>
</g>
<!-- Node13 -->
<g id="node13" class="node"><title>Node13</title>
<g id="a_node13"><a xlink:href="../../df/dcb/classturtle_1_1_turtle.html#a735b5aa0bce5a53d2c75322fb2ad9130" target="_top" xlink:title="turtle.Turtle.getYPos">
<polygon fill="white" stroke="black" points="844,-302.5 844,-321.5 956,-321.5 956,-302.5 844,-302.5"/>
<text text-anchor="middle" x="900" y="-309.5" font-family="Helvetica,sans-Serif" font-size="10.00">turtle.Turtle.getYPos</text>
</a>
</g>
</g>
<!-- Node10&#45;&gt;Node13 -->
<g id="edge13" class="edge"><title>Node10&#45;&gt;Node13</title>
<path fill="none" stroke="midnightblue" d="M797.165,-301.251C809.347,-302.537 821.822,-303.853 833.679,-305.105"/>
<polygon fill="midnightblue" stroke="midnightblue" points="833.603,-308.616 843.915,-306.186 834.338,-301.655 833.603,-308.616"/>
</g>
<!-- Node12 -->
<g id="node12" class="node"><title>Node12</title>
<g id="a_node12"><a xlink:href="../../d1/dbe/classturtle_1_1_position.html#a1d079c846ce96bf1c57da388c46669e1" target="_top" xlink:title="turtle.Position.getXPos">
<polygon fill="white" stroke="black" points="1001.5,-264.5 1001.5,-283.5 1126.5,-283.5 1126.5,-264.5 1001.5,-264.5"/>
<text text-anchor="middle" x="1064" y="-271.5" font-family="Helvetica,sans-Serif" font-size="10.00">turtle.Position.getXPos</text>
</a>
</g>
</g>
<!-- Node11&#45;&gt;Node12 -->
<g id="edge12" class="edge"><title>Node11&#45;&gt;Node12</title>
<path fill="none" stroke="midnightblue" d="M956.751,-274C967.865,-274 979.684,-274 991.247,-274"/>
<polygon fill="midnightblue" stroke="midnightblue" points="991.32,-277.5 1001.32,-274 991.32,-270.5 991.32,-277.5"/>
</g>
<!-- Node14 -->
<g id="node14" class="node"><title>Node14</title>
<g id="a_node14"><a xlink:href="../../d1/dbe/classturtle_1_1_position.html#a3a68708e4dc3290c4ef0ecd511cc8c1f" target="_top" xlink:title="turtle.Position.getYPos">
<polygon fill="white" stroke="black" points="1002,-302.5 1002,-321.5 1126,-321.5 1126,-302.5 1002,-302.5"/>
<text text-anchor="middle" x="1064" y="-309.5" font-family="Helvetica,sans-Serif" font-size="10.00">turtle.Position.getYPos</text>
</a>
</g>
</g>
<!-- Node13&#45;&gt;Node14 -->
<g id="edge14" class="edge"><title>Node13&#45;&gt;Node14</title>
<path fill="none" stroke="midnightblue" d="M956.298,-312C967.641,-312 979.734,-312 991.552,-312"/>
<polygon fill="midnightblue" stroke="midnightblue" points="991.841,-315.5 1001.84,-312 991.841,-308.5 991.841,-315.5"/>
</g>
<!-- Node15&#45;&gt;Node12 -->
<g id="edge17" class="edge"><title>Node15&#45;&gt;Node12</title>
<path fill="none" stroke="midnightblue" d="M941.879,-245.589C963.353,-250.626 989.86,-256.844 1012.6,-262.177"/>
<polygon fill="midnightblue" stroke="midnightblue" points="1011.88,-265.604 1022.41,-264.48 1013.48,-258.789 1011.88,-265.604"/>
</g>
<!-- Node15&#45;&gt;Node14 -->
<g id="edge18" class="edge"><title>Node15&#45;&gt;Node14</title>
<path fill="none" stroke="midnightblue" d="M941.98,-245.58C948.936,-248.086 955.881,-251.187 962,-255 981.746,-267.302 978.147,-280.872 998,-293 1001.56,-295.172 1005.37,-297.107 1009.31,-298.828"/>
<polygon fill="midnightblue" stroke="midnightblue" points="1008.06,-302.098 1018.65,-302.47 1010.6,-295.576 1008.06,-302.098"/>
</g>
<!-- Node16 -->
<g id="node16" class="node"><title>Node16</title>
<g id="a_node16"><a xlink:href="../../d1/dbe/classturtle_1_1_position.html#af03c1c3b306f6c12d2ec52a00fde50eb" target="_top" xlink:title="turtle.Position.setXPos">
<polygon fill="white" stroke="black" points="1002,-226.5 1002,-245.5 1126,-245.5 1126,-226.5 1002,-226.5"/>
<text text-anchor="middle" x="1064" y="-233.5" font-family="Helvetica,sans-Serif" font-size="10.00">turtle.Position.setXPos</text>
</a>
</g>
</g>
<!-- Node15&#45;&gt;Node16 -->
<g id="edge16" class="edge"><title>Node15&#45;&gt;Node16</title>
<path fill="none" stroke="midnightblue" d="M956.298,-236C967.641,-236 979.734,-236 991.552,-236"/>
<polygon fill="midnightblue" stroke="midnightblue" points="991.841,-239.5 1001.84,-236 991.841,-232.5 991.841,-239.5"/>
</g>
<!-- Node17 -->
<g id="node17" class="node"><title>Node17</title>
<g id="a_node17"><a xlink:href="../../d1/dbe/classturtle_1_1_position.html#a7bfd27ea2bf5e22d8de4a4e87b4df2ec" target="_top" xlink:title="turtle.Position.getRotate">
<polygon fill="white" stroke="black" points="998,-188.5 998,-207.5 1130,-207.5 1130,-188.5 998,-188.5"/>
<text text-anchor="middle" x="1064" y="-195.5" font-family="Helvetica,sans-Serif" font-size="10.00">turtle.Position.getRotate</text>
</a>
</g>
</g>
<!-- Node15&#45;&gt;Node17 -->
<g id="edge19" class="edge"><title>Node15&#45;&gt;Node17</title>
<path fill="none" stroke="midnightblue" d="M941.879,-226.411C963.353,-221.374 989.86,-215.156 1012.6,-209.823"/>
<polygon fill="midnightblue" stroke="midnightblue" points="1013.48,-213.211 1022.41,-207.52 1011.88,-206.396 1013.48,-213.211"/>
</g>
<!-- Node19 -->
<g id="node19" class="node"><title>Node19</title>
<g id="a_node19"><a xlink:href="../../d1/dbe/classturtle_1_1_position.html#a7c26cf9316a28fb4821731864ed28c95" target="_top" xlink:title="turtle.Position.setYPos">
<polygon fill="white" stroke="black" points="838.5,-340.5 838.5,-359.5 961.5,-359.5 961.5,-340.5 838.5,-340.5"/>
<text text-anchor="middle" x="900" y="-347.5" font-family="Helvetica,sans-Serif" font-size="10.00">turtle.Position.setYPos</text>
</a>
</g>
</g>
<!-- Node18&#45;&gt;Node19 -->
<g id="edge21" class="edge"><title>Node18&#45;&gt;Node19</title>
<path fill="none" stroke="midnightblue" d="M773.984,-336.804C791.089,-338.609 810.194,-340.626 828.22,-342.529"/>
<polygon fill="midnightblue" stroke="midnightblue" points="828.081,-346.033 838.393,-343.603 828.816,-339.072 828.081,-346.033"/>
</g>
</g>
</svg>
        <g id="navigator" transform="translate(0 0)" fill="#404254">
                <rect fill="#f2f5e9" fill-opacity="0.5" stroke="#606060" stroke-width=".5" x="0" y="0" width="60" height="60"/>
                <use id="zoomplus" xlink:href="#zoomPlus" x="17" y="9" onmousedown="handleZoom(evt,'in')"/>
                <use id="zoomminus" xlink:href="#zoomMin" x="42" y="9" onmousedown="handleZoom(evt,'out')"/>
                <use id="reset" xlink:href="#resetDef" x="30" y="36" onmousedown="handleReset()"/>
                <g id="arrowUp" xlink:href="#dirArrow" transform="translate(30 24)" onmousedown="handlePan(0,-1)">
                  <use xlink:href="#rim" fill="#404040">
                        <set attributeName="fill" to="#808080" begin="arrowUp.mouseover" end="arrowUp.mouseout"/>
                  </use>
                  <path fill="none" stroke="white" stroke-width="1.5" d="M0,-3.0v7 M-2.5,-0.5L0,-3.0L2.5,-0.5"/>
                </g>
                <g id="arrowRight" xlink:href="#dirArrow" transform="rotate(90) translate(36 -43)" onmousedown="handlePan(1,0)">
                  <use xlink:href="#rim" fill="#404040">
                        <set attributeName="fill" to="#808080" begin="arrowRight.mouseover" end="arrowRight.mouseout"/>
                  </use>
                  <path fill="none" stroke="white" stroke-width="1.5" d="M0,-3.0v7 M-2.5,-0.5L0,-3.0L2.5,-0.5"/>
                </g>
                <g id="arrowDown" xlink:href="#dirArrow" transform="rotate(180) translate(-30 -48)" onmousedown="handlePan(0,1)">
                  <use xlink:href="#rim" fill="#404040">
                        <set attributeName="fill" to="#808080" begin="arrowDown.mouseover" end="arrowDown.mouseout"/>
                  </use>
                  <path fill="none" stroke="white" stroke-width="1.5" d="M0,-3.0v7 M-2.5,-0.5L0,-3.0L2.5,-0.5"/>
                </g>
                <g id="arrowLeft" xlink:href="#dirArrow" transform="rotate(270) translate(-36 17)" onmousedown="handlePan(-1,0)">
                  <use xlink:href="#rim" fill="#404040">
                        <set attributeName="fill" to="#808080" begin="arrowLeft.mouseover" end="arrowLeft.mouseout"/>
                  </use>
                  <path fill="none" stroke="white" stroke-width="1.5" d="M0,-3.0v7 M-2.5,-0.5L0,-3.0L2.5,-0.5"/>
                </g>
        </g>
        <svg viewBox="0 0 15 15" width="100%" height="30px" preserveAspectRatio="xMaxYMin meet">
         <g id="arrow_out" transform="scale(0.3 0.3)">
          <a xlink:href="classcommands_1_1view_commands_1_1_home_command_a91670541a28ed18996a9bc3433029857_cgraph_org.svg" target="_base">
           <rect id="button" ry="5" rx="5" y="6" x="6" height="38" width="38"
                fill="#f2f5e9" fill-opacity="0.5" stroke="#606060" stroke-width="1.0"/>
           <path id="arrow"
             d="M 11.500037,31.436501 C 11.940474,20.09759 22.043105,11.32322 32.158766,21.979434 L 37.068811,17.246167 C 37.068811,17.246167 37.088388,32 37.088388,32 L 22.160133,31.978069 C 22.160133,31.978069 26.997745,27.140456 26.997745,27.140456 C 18.528582,18.264221 13.291696,25.230495 11.500037,31.436501 z"
             style="fill:#404040;"/>
          </a>
         </g>
        </svg>
</svg>
