<?xml version="1.0" encoding="UTF-8" standalone="no"?>
<!DOCTYPE svg PUBLIC "-//W3C//DTD SVG 1.1//EN"
 "http://www.w3.org/Graphics/SVG/1.1/DTD/svg11.dtd">
<!-- Generated by graphviz version 2.36.0 (20140111.2315)
 -->
<!-- Title: turtle.Turtle.setRotation Pages: 1 -->
<svg width="328pt" height="126pt"
 viewBox="0.00 0.00 328.00 126.00" xmlns="http://www.w3.org/2000/svg" xmlns:xlink="http://www.w3.org/1999/xlink">
<g id="graph0" class="graph" transform="scale(1 1) rotate(0) translate(4 122)">
<title>turtle.Turtle.setRotation</title>
<polygon fill="white" stroke="none" points="-4,4 -4,-122 324,-122 324,4 -4,4"/>
<!-- Node1 -->
<g id="node1" class="node"><title>Node1</title>
<polygon fill="#bfbfbf" stroke="black" points="0,-44.5 0,-63.5 128,-63.5 128,-44.5 0,-44.5"/>
<text text-anchor="middle" x="64" y="-51.5" font-family="Helvetica,sans-Serif" font-size="10.00">turtle.Turtle.setRotation</text>
</g>
<!-- Node2 -->
<g id="node2" class="node"><title>Node2</title>
<g id="a_node2"><a xlink:href="../../d3/d88/classmodel_1_1_slogo_model.html#a0ecb7b4d14308a155afdbe1313ec555f" target="_top" xlink:title="model.SlogoModel.hardSet\lTurtle">
<polygon fill="white" stroke="black" points="169,-88 169,-118 315,-118 315,-88 169,-88"/>
<text text-anchor="start" x="177" y="-106" font-family="Helvetica,sans-Serif" font-size="10.00">model.SlogoModel.hardSet</text>
<text text-anchor="middle" x="242" y="-95" font-family="Helvetica,sans-Serif" font-size="10.00">Turtle</text>
</a>
</g>
</g>
<!-- Node1&#45;&gt;Node2 -->
<g id="edge1" class="edge"><title>Node1&#45;&gt;Node2</title>
<path fill="none" stroke="midnightblue" d="M109.099,-66.2776C132.719,-72.8537 162.013,-81.0092 186.99,-87.963"/>
<polygon fill="midnightblue" stroke="midnightblue" points="109.925,-62.8744 99.3524,-63.564 108.047,-69.6179 109.925,-62.8744"/>
</g>
<!-- Node3 -->
<g id="node3" class="node"><title>Node3</title>
<g id="a_node3"><a xlink:href="../../d7/d28/classcommands_1_1information_1_1_base_turtle_container.html#a908b5c21435a1b8bae56d8f3d83fc12e" target="_top" xlink:title="commands.information.Base\lTurtleContainer.setRotation">
<polygon fill="white" stroke="black" points="164.5,-39 164.5,-69 319.5,-69 319.5,-39 164.5,-39"/>
<text text-anchor="start" x="172.5" y="-57" font-family="Helvetica,sans-Serif" font-size="10.00">commands.information.Base</text>
<text text-anchor="middle" x="242" y="-46" font-family="Helvetica,sans-Serif" font-size="10.00">TurtleContainer.setRotation</text>
</a>
</g>
</g>
<!-- Node1&#45;&gt;Node3 -->
<g id="edge2" class="edge"><title>Node1&#45;&gt;Node3</title>
<path fill="none" stroke="midnightblue" d="M138.079,-54C146.723,-54 155.566,-54 164.259,-54"/>
<polygon fill="midnightblue" stroke="midnightblue" points="138.043,-50.5001 128.043,-54 138.043,-57.5001 138.043,-50.5001"/>
</g>
<!-- Node4 -->
<g id="node4" class="node"><title>Node4</title>
<g id="a_node4"><a xlink:href="../../df/dcb/classturtle_1_1_turtle.html#a5f1e98a10bb09ba8a75ec2c1dffdeb06" target="_top" xlink:title="turtle.Turtle.towardsPosition">
<polygon fill="white" stroke="black" points="167.5,-0.5 167.5,-19.5 316.5,-19.5 316.5,-0.5 167.5,-0.5"/>
<text text-anchor="middle" x="242" y="-7.5" font-family="Helvetica,sans-Serif" font-size="10.00">turtle.Turtle.towardsPosition</text>
</a>
</g>
</g>
<!-- Node1&#45;&gt;Node4 -->
<g id="edge3" class="edge"><title>Node1&#45;&gt;Node4</title>
<path fill="none" stroke="midnightblue" d="M113.247,-41.9383C141.474,-34.8815 176.61,-26.0976 202.885,-19.5287"/>
<polygon fill="midnightblue" stroke="midnightblue" points="112.042,-38.6317 103.189,-44.4527 113.74,-45.4227 112.042,-38.6317"/>
</g>
</g>
</svg>
