<?xml version="1.0" encoding="UTF-8" standalone="no"?>
<!DOCTYPE svg PUBLIC "-//W3C//DTD SVG 1.1//EN"
 "http://www.w3.org/Graphics/SVG/1.1/DTD/svg11.dtd">
<!-- Generated by graphviz version 2.36.0 (20140111.2315)
 -->
<!-- Title: turtle.Turtle.towardsPosition Pages: 1 -->
<svg width="690pt" height="104pt"
 viewBox="0.00 0.00 690.00 104.00" xmlns="http://www.w3.org/2000/svg" xmlns:xlink="http://www.w3.org/1999/xlink">
<g id="graph0" class="graph" transform="scale(1 1) rotate(0) translate(4 100)">
<title>turtle.Turtle.towardsPosition</title>
<polygon fill="white" stroke="none" points="-4,4 -4,-100 686,-100 686,4 -4,4"/>
<!-- Node1 -->
<g id="node1" class="node"><title>Node1</title>
<polygon fill="#bfbfbf" stroke="black" points="0.5,-19.5 0.5,-38.5 149.5,-38.5 149.5,-19.5 0.5,-19.5"/>
<text text-anchor="middle" x="75" y="-26.5" font-family="Helvetica,sans-Serif" font-size="10.00">turtle.Turtle.towardsPosition</text>
</g>
<!-- Node2 -->
<g id="node2" class="node"><title>Node2</title>
<g id="a_node2"><a xlink:href="../../df/dcb/classturtle_1_1_turtle.html#a569289374749eb6dcf64e0ed1ec7b9b2" target="_top" xlink:title="turtle.Turtle.getXYCoordinates">
<polygon fill="white" stroke="black" points="186,-38.5 186,-57.5 344,-57.5 344,-38.5 186,-38.5"/>
<text text-anchor="middle" x="265" y="-45.5" font-family="Helvetica,sans-Serif" font-size="10.00">turtle.Turtle.getXYCoordinates</text>
</a>
</g>
</g>
<!-- Node1&#45;&gt;Node2 -->
<g id="edge1" class="edge"><title>Node1&#45;&gt;Node2</title>
<path fill="none" stroke="midnightblue" d="M149.763,-36.4548C158.266,-37.3141 167.001,-38.1969 175.671,-39.0731"/>
<polygon fill="midnightblue" stroke="midnightblue" points="175.5,-42.5736 185.801,-40.0969 176.204,-35.6091 175.5,-42.5736"/>
</g>
<!-- Node7 -->
<g id="node7" class="node"><title>Node7</title>
<g id="a_node7"><a xlink:href="../../df/dcb/classturtle_1_1_turtle.html#a9283fc51ef8ae9028ac661fd81e92a00" target="_top" xlink:title="turtle.Turtle.setRotation">
<polygon fill="white" stroke="black" points="201,-0.5 201,-19.5 329,-19.5 329,-0.5 201,-0.5"/>
<text text-anchor="middle" x="265" y="-7.5" font-family="Helvetica,sans-Serif" font-size="10.00">turtle.Turtle.setRotation</text>
</a>
</g>
</g>
<!-- Node1&#45;&gt;Node7 -->
<g id="edge6" class="edge"><title>Node1&#45;&gt;Node7</title>
<path fill="none" stroke="midnightblue" d="M149.763,-21.5452C163.207,-20.1865 177.23,-18.7693 190.662,-17.4118"/>
<polygon fill="midnightblue" stroke="midnightblue" points="191.201,-20.8753 200.798,-16.3874 190.497,-13.9108 191.201,-20.8753"/>
</g>
<!-- Node3 -->
<g id="node3" class="node"><title>Node3</title>
<g id="a_node3"><a xlink:href="../../df/dcb/classturtle_1_1_turtle.html#aa576ade68e2f453b037ea2a3c456d466" target="_top" xlink:title="turtle.Turtle.getXPos">
<polygon fill="white" stroke="black" points="393.5,-76.5 393.5,-95.5 506.5,-95.5 506.5,-76.5 393.5,-76.5"/>
<text text-anchor="middle" x="450" y="-83.5" font-family="Helvetica,sans-Serif" font-size="10.00">turtle.Turtle.getXPos</text>
</a>
</g>
</g>
<!-- Node2&#45;&gt;Node3 -->
<g id="edge2" class="edge"><title>Node2&#45;&gt;Node3</title>
<path fill="none" stroke="midnightblue" d="M312.179,-57.589C336.763,-62.6939 367.186,-69.0113 393.097,-74.3918"/>
<polygon fill="midnightblue" stroke="midnightblue" points="392.651,-77.8736 403.153,-76.4799 394.074,-71.0198 392.651,-77.8736"/>
</g>
<!-- Node5 -->
<g id="node5" class="node"><title>Node5</title>
<g id="a_node5"><a xlink:href="../../df/dcb/classturtle_1_1_turtle.html#a735b5aa0bce5a53d2c75322fb2ad9130" target="_top" xlink:title="turtle.Turtle.getYPos">
<polygon fill="white" stroke="black" points="394,-38.5 394,-57.5 506,-57.5 506,-38.5 394,-38.5"/>
<text text-anchor="middle" x="450" y="-45.5" font-family="Helvetica,sans-Serif" font-size="10.00">turtle.Turtle.getYPos</text>
</a>
</g>
</g>
<!-- Node2&#45;&gt;Node5 -->
<g id="edge4" class="edge"><title>Node2&#45;&gt;Node5</title>
<path fill="none" stroke="midnightblue" d="M344.139,-48C357.324,-48 370.887,-48 383.701,-48"/>
<polygon fill="midnightblue" stroke="midnightblue" points="383.795,-51.5001 393.795,-48 383.795,-44.5001 383.795,-51.5001"/>
</g>
<!-- Node4 -->
<g id="node4" class="node"><title>Node4</title>
<g id="a_node4"><a xlink:href="../../d1/dbe/classturtle_1_1_position.html#a1d079c846ce96bf1c57da388c46669e1" target="_top" xlink:title="turtle.Position.getXPos">
<polygon fill="white" stroke="black" points="556.5,-76.5 556.5,-95.5 681.5,-95.5 681.5,-76.5 556.5,-76.5"/>
<text text-anchor="middle" x="619" y="-83.5" font-family="Helvetica,sans-Serif" font-size="10.00">turtle.Position.getXPos</text>
</a>
</g>
</g>
<!-- Node3&#45;&gt;Node4 -->
<g id="edge3" class="edge"><title>Node3&#45;&gt;Node4</title>
<path fill="none" stroke="midnightblue" d="M506.609,-86C519.311,-86 532.987,-86 546.258,-86"/>
<polygon fill="midnightblue" stroke="midnightblue" points="546.305,-89.5001 556.305,-86 546.305,-82.5001 546.305,-89.5001"/>
</g>
<!-- Node6 -->
<g id="node6" class="node"><title>Node6</title>
<g id="a_node6"><a xlink:href="../../d1/dbe/classturtle_1_1_position.html#a3a68708e4dc3290c4ef0ecd511cc8c1f" target="_top" xlink:title="turtle.Position.getYPos">
<polygon fill="white" stroke="black" points="557,-38.5 557,-57.5 681,-57.5 681,-38.5 557,-38.5"/>
<text text-anchor="middle" x="619" y="-45.5" font-family="Helvetica,sans-Serif" font-size="10.00">turtle.Position.getYPos</text>
</a>
</g>
</g>
<!-- Node5&#45;&gt;Node6 -->
<g id="edge5" class="edge"><title>Node5&#45;&gt;Node6</title>
<path fill="none" stroke="midnightblue" d="M506.145,-48C519.091,-48 533.069,-48 546.613,-48"/>
<polygon fill="midnightblue" stroke="midnightblue" points="546.861,-51.5001 556.861,-48 546.861,-44.5001 546.861,-51.5001"/>
</g>
<!-- Node8 -->
<g id="node8" class="node"><title>Node8</title>
<g id="a_node8"><a xlink:href="../../d1/dbe/classturtle_1_1_position.html#a761d5437c7bc66aa635b95d005e23c96" target="_top" xlink:title="turtle.Position.setRotation">
<polygon fill="white" stroke="black" points="380,-0.5 380,-19.5 520,-19.5 520,-0.5 380,-0.5"/>
<text text-anchor="middle" x="450" y="-7.5" font-family="Helvetica,sans-Serif" font-size="10.00">turtle.Position.setRotation</text>
</a>
</g>
</g>
<!-- Node7&#45;&gt;Node8 -->
<g id="edge7" class="edge"><title>Node7&#45;&gt;Node8</title>
<path fill="none" stroke="midnightblue" d="M329.234,-10C342.242,-10 356.095,-10 369.59,-10"/>
<polygon fill="midnightblue" stroke="midnightblue" points="369.821,-13.5001 379.821,-10 369.821,-6.5001 369.821,-13.5001"/>
</g>
</g>
</svg>
