<?xml version="1.0" encoding="UTF-8" standalone="no"?>
<!DOCTYPE svg PUBLIC "-//W3C//DTD SVG 1.1//EN"
 "http://www.w3.org/Graphics/SVG/1.1/DTD/svg11.dtd">
<!-- Generated by graphviz version 2.36.0 (20140111.2315)
 -->
<!-- Title: turtle.Turtle.setYPos Pages: 1 -->
<!--zoomable 283 -->
<svg id="main" version="1.1" xmlns="http://www.w3.org/2000/svg" xmlns:xlink="http://www.w3.org/1999/xlink" xml:space="preserve" onload="init(evt)">
<style type="text/css"><![CDATA[
.edge:hover path { stroke: red; }
.edge:hover polygon { stroke: red; fill: red; }
]]></style>
<script type="text/javascript"><![CDATA[
var edges = document.getElementsByTagName('g');
if (edges && edges.length) {
  for (var i=0;i<edges.length;i++) {
    if (edges[i].id.substr(0,4)=='edge') {
      edges[i].setAttribute('class','edge');
    }
  }
}
]]></script>
        <defs>
                <circle id="rim" cx="0" cy="0" r="7"/>
                <circle id="rim2" cx="0" cy="0" r="3.5"/>
                <g id="zoomPlus">
                        <use xlink:href="#rim" fill="#404040">
                                <set attributeName="fill" to="#808080" begin="zoomplus.mouseover" end="zoomplus.mouseout"/>
                        </use>
                        <path d="M-4,0h8M0,-4v8" fill="none" stroke="white" stroke-width="1.5" pointer-events="none"/>
                </g>
                <g id="zoomMin">
                        <use xlink:href="#rim" fill="#404040">
                                <set attributeName="fill" to="#808080" begin="zoomminus.mouseover" end="zoomminus.mouseout"/>
                        </use>
                        <path d="M-4,0h8" fill="none" stroke="white" stroke-width="1.5" pointer-events="none"/>
                </g>
                <g id="dirArrow">
                        <path fill="none" stroke="white" stroke-width="1.5" d="M0,-3.0v7 M-2.5,-0.5L0,-3.0L2.5,-0.5"/>
                </g>
               <g id="resetDef">
                       <use xlink:href="#rim2" fill="#404040">
                               <set attributeName="fill" to="#808080" begin="reset.mouseover" end="reset.mouseout"/>
                       </use>
               </g>
        </defs>

<script type="text/javascript">
var viewWidth = 1426;
var viewHeight = 283;
var sectionId = 'dynsection-50';
</script>
<script xlink:href="../../svgpan.js"/>
<svg id="graph" class="graph">
<g id="viewport">
<title>turtle.Turtle.setYPos</title>
<polygon fill="white" stroke="none" points="-4,4 -4,-279 1422,-279 1422,4 -4,4"/>
<!-- Node1 -->
<g id="node1" class="node"><title>Node1</title>
<polygon fill="#bfbfbf" stroke="black" points="0.5,-152.5 0.5,-171.5 111.5,-171.5 111.5,-152.5 0.5,-152.5"/>
<text text-anchor="middle" x="56" y="-159.5" font-family="Helvetica,sans-Serif" font-size="10.00">turtle.Turtle.setYPos</text>
</g>
<!-- Node2 -->
<g id="node2" class="node"><title>Node2</title>
<g id="a_node2"><a xlink:href="../../d9/d9e/class_table_information_1_1_y_column.html#a9930f44781f56557fb34fab33d9ae626" target="_top" xlink:title="TableInformation.YColumn.do\lEditingFunction">
<polygon fill="white" stroke="black" points="148.5,-245 148.5,-275 303.5,-275 303.5,-245 148.5,-245"/>
<text text-anchor="start" x="156.5" y="-263" font-family="Helvetica,sans-Serif" font-size="10.00">TableInformation.YColumn.do</text>
<text text-anchor="middle" x="226" y="-252" font-family="Helvetica,sans-Serif" font-size="10.00">EditingFunction</text>
</a>
</g>
</g>
<!-- Node1&#45;&gt;Node2 -->
<g id="edge1" class="edge"><title>Node1&#45;&gt;Node2</title>
<path fill="none" stroke="midnightblue" d="M74.3756,-179.181C91.732,-195.516 119.818,-219.786 148,-235 154.926,-238.739 162.506,-242.038 170.124,-244.912"/>
<polygon fill="midnightblue" stroke="midnightblue" points="76.4016,-176.274 66.7636,-171.874 71.554,-181.324 76.4016,-176.274"/>
</g>
<!-- Node3 -->
<g id="node3" class="node"><title>Node3</title>
<g id="a_node3"><a xlink:href="../../d3/d88/classmodel_1_1_slogo_model.html#a0ecb7b4d14308a155afdbe1313ec555f" target="_top" xlink:title="model.SlogoModel.hardSet\lTurtle">
<polygon fill="white" stroke="black" points="153,-196 153,-226 299,-226 299,-196 153,-196"/>
<text text-anchor="start" x="161" y="-214" font-family="Helvetica,sans-Serif" font-size="10.00">model.SlogoModel.hardSet</text>
<text text-anchor="middle" x="226" y="-203" font-family="Helvetica,sans-Serif" font-size="10.00">Turtle</text>
</a>
</g>
</g>
<!-- Node1&#45;&gt;Node3 -->
<g id="edge2" class="edge"><title>Node1&#45;&gt;Node3</title>
<path fill="none" stroke="midnightblue" d="M99.3967,-174.366C121.891,-180.926 149.71,-189.04 173.445,-195.963"/>
<polygon fill="midnightblue" stroke="midnightblue" points="100.371,-171.004 89.7909,-171.564 98.4109,-177.724 100.371,-171.004"/>
</g>
<!-- Node4 -->
<g id="node4" class="node"><title>Node4</title>
<g id="a_node4"><a xlink:href="../../d9/db1/class_view_1_1_single_grid.html#a9093eac50d88370f86cb4757b996210e" target="_top" xlink:title="View.SingleGrid.keepTurtle\lInBounds">
<polygon fill="white" stroke="black" points="155.5,-147 155.5,-177 296.5,-177 296.5,-147 155.5,-147"/>
<text text-anchor="start" x="163.5" y="-165" font-family="Helvetica,sans-Serif" font-size="10.00">View.SingleGrid.keepTurtle</text>
<text text-anchor="middle" x="226" y="-154" font-family="Helvetica,sans-Serif" font-size="10.00">InBounds</text>
</a>
</g>
</g>
<!-- Node1&#45;&gt;Node4 -->
<g id="edge3" class="edge"><title>Node1&#45;&gt;Node4</title>
<path fill="none" stroke="midnightblue" d="M121.562,-162C132.642,-162 144.199,-162 155.404,-162"/>
<polygon fill="midnightblue" stroke="midnightblue" points="121.545,-158.5 111.545,-162 121.545,-165.5 121.545,-158.5"/>
</g>
<!-- Node16 -->
<g id="node16" class="node"><title>Node16</title>
<g id="a_node16"><a xlink:href="../../df/dcb/classturtle_1_1_turtle.html#ab4ccc5acaf4924205497db6d8a8125b9" target="_top" xlink:title="turtle.Turtle.setPosition">
<polygon fill="white" stroke="black" points="163,-108.5 163,-127.5 289,-127.5 289,-108.5 163,-108.5"/>
<text text-anchor="middle" x="226" y="-115.5" font-family="Helvetica,sans-Serif" font-size="10.00">turtle.Turtle.setPosition</text>
</a>
</g>
</g>
<!-- Node1&#45;&gt;Node16 -->
<g id="edge15" class="edge"><title>Node1&#45;&gt;Node16</title>
<path fill="none" stroke="midnightblue" d="M101.053,-149.648C115.94,-145.54 132.671,-140.996 148,-137 160.125,-133.839 173.359,-130.525 185.382,-127.565"/>
<polygon fill="midnightblue" stroke="midnightblue" points="99.7843,-146.367 91.0814,-152.41 101.653,-153.113 99.7843,-146.367"/>
</g>
<!-- Node21 -->
<g id="node21" class="node"><title>Node21</title>
<g id="a_node21"><a xlink:href="../../d7/d28/classcommands_1_1information_1_1_base_turtle_container.html#aa7a1e6cc65c6f4ddb2ab0b0632e00e8c" target="_top" xlink:title="commands.information.Base\lTurtleContainer.setYPos">
<polygon fill="white" stroke="black" points="148.5,-59 148.5,-89 303.5,-89 303.5,-59 148.5,-59"/>
<text text-anchor="start" x="156.5" y="-77" font-family="Helvetica,sans-Serif" font-size="10.00">commands.information.Base</text>
<text text-anchor="middle" x="226" y="-66" font-family="Helvetica,sans-Serif" font-size="10.00">TurtleContainer.setYPos</text>
</a>
</g>
</g>
<!-- Node1&#45;&gt;Node21 -->
<g id="edge20" class="edge"><title>Node1&#45;&gt;Node21</title>
<path fill="none" stroke="midnightblue" d="M76.257,-146.172C93.9984,-132.216 121.511,-112.116 148,-99 155.431,-95.3205 163.527,-92.0091 171.587,-89.0916"/>
<polygon fill="midnightblue" stroke="midnightblue" points="74.0034,-143.493 68.3798,-152.472 78.3755,-148.96 74.0034,-143.493"/>
</g>
<!-- Node5 -->
<g id="node5" class="node"><title>Node5</title>
<g id="a_node5"><a xlink:href="../../d9/db1/class_view_1_1_single_grid.html#aa718e560e84ad31be3e046029d0226ab" target="_top" xlink:title="View.SingleGrid.update">
<polygon fill="white" stroke="black" points="355,-201.5 355,-220.5 481,-220.5 481,-201.5 355,-201.5"/>
<text text-anchor="middle" x="418" y="-208.5" font-family="Helvetica,sans-Serif" font-size="10.00">View.SingleGrid.update</text>
</a>
</g>
</g>
<!-- Node4&#45;&gt;Node5 -->
<g id="edge4" class="edge"><title>Node4&#45;&gt;Node5</title>
<path fill="none" stroke="midnightblue" d="M295.25,-179.601C323.857,-186.979 355.987,-195.265 380.055,-201.472"/>
<polygon fill="midnightblue" stroke="midnightblue" points="295.855,-176.143 285.297,-177.035 294.107,-182.921 295.855,-176.143"/>
</g>
<!-- Node10 -->
<g id="node10" class="node"><title>Node10</title>
<g id="a_node10"><a xlink:href="../../d9/db1/class_view_1_1_single_grid.html#a4c6eabf92c3205a22dc266cf0923f836" target="_top" xlink:title="View.SingleGrid.keyUpdate">
<polygon fill="white" stroke="black" points="346,-152.5 346,-171.5 490,-171.5 490,-152.5 346,-152.5"/>
<text text-anchor="middle" x="418" y="-159.5" font-family="Helvetica,sans-Serif" font-size="10.00">View.SingleGrid.keyUpdate</text>
</a>
</g>
</g>
<!-- Node4&#45;&gt;Node10 -->
<g id="edge9" class="edge"><title>Node4&#45;&gt;Node10</title>
<path fill="none" stroke="midnightblue" d="M306.909,-162C319.802,-162 333.075,-162 345.746,-162"/>
<polygon fill="midnightblue" stroke="midnightblue" points="306.67,-158.5 296.67,-162 306.67,-165.5 306.67,-158.5"/>
</g>
<!-- Node6 -->
<g id="node6" class="node"><title>Node6</title>
<g id="a_node6"><a xlink:href="../../d1/de7/class_g_u_i_functions_1_1_undo.html#a611c153735c5cbdbbfd8f55faa0adaae" target="_top" xlink:title="GUIFunctions.Undo.doAction">
<polygon fill="white" stroke="black" points="547,-245.5 547,-264.5 699,-264.5 699,-245.5 547,-245.5"/>
<text text-anchor="middle" x="623" y="-252.5" font-family="Helvetica,sans-Serif" font-size="10.00">GUIFunctions.Undo.doAction</text>
</a>
</g>
</g>
<!-- Node5&#45;&gt;Node6 -->
<g id="edge5" class="edge"><title>Node5&#45;&gt;Node6</title>
<path fill="none" stroke="midnightblue" d="M472.942,-222.692C505.781,-229.81 547.2,-238.787 578.038,-245.471"/>
<polygon fill="midnightblue" stroke="midnightblue" points="473.562,-219.245 463.048,-220.547 472.08,-226.086 473.562,-219.245"/>
</g>
<!-- Node7 -->
<g id="node7" class="node"><title>Node7</title>
<g id="a_node7"><a xlink:href="../../d3/d42/class_table_information_1_1_turtle_variables_table.html#a12ef059be78468fe0f09b5bf41d11d4c" target="_top" xlink:title="TableInformation.TurtleVariables\lTable.moveTurtle">
<polygon fill="white" stroke="black" points="539.5,-196 539.5,-226 706.5,-226 706.5,-196 539.5,-196"/>
<text text-anchor="start" x="547.5" y="-214" font-family="Helvetica,sans-Serif" font-size="10.00">TableInformation.TurtleVariables</text>
<text text-anchor="middle" x="623" y="-203" font-family="Helvetica,sans-Serif" font-size="10.00">Table.moveTurtle</text>
</a>
</g>
</g>
<!-- Node5&#45;&gt;Node7 -->
<g id="edge6" class="edge"><title>Node5&#45;&gt;Node7</title>
<path fill="none" stroke="midnightblue" d="M491.122,-211C506.761,-211 523.417,-211 539.423,-211"/>
<polygon fill="midnightblue" stroke="midnightblue" points="491.01,-207.5 481.01,-211 491.01,-214.5 491.01,-207.5"/>
</g>
<!-- Node8 -->
<g id="node8" class="node"><title>Node8</title>
<g id="a_node8"><a xlink:href="../../d3/d42/class_table_information_1_1_turtle_variables_table.html#a3a32e6fd761411925b48c0fa60c29431" target="_top" xlink:title="TableInformation.TurtleVariables\lTable.setColumnEditable">
<polygon fill="white" stroke="black" points="750.5,-196 750.5,-226 917.5,-226 917.5,-196 750.5,-196"/>
<text text-anchor="start" x="758.5" y="-214" font-family="Helvetica,sans-Serif" font-size="10.00">TableInformation.TurtleVariables</text>
<text text-anchor="middle" x="834" y="-203" font-family="Helvetica,sans-Serif" font-size="10.00">Table.setColumnEditable</text>
</a>
</g>
</g>
<!-- Node7&#45;&gt;Node8 -->
<g id="edge7" class="edge"><title>Node7&#45;&gt;Node8</title>
<path fill="none" stroke="midnightblue" d="M716.791,-211C727.958,-211 739.304,-211 750.313,-211"/>
<polygon fill="midnightblue" stroke="midnightblue" points="716.602,-207.5 706.602,-211 716.602,-214.5 716.602,-207.5"/>
</g>
<!-- Node9 -->
<g id="node9" class="node"><title>Node9</title>
<g id="a_node9"><a xlink:href="../../d3/d42/class_table_information_1_1_turtle_variables_table.html#a6bac7fbbffde239e6438ea163f812b08" target="_top" xlink:title="TableInformation.TurtleVariables\lTable.TurtleVariablesTable">
<polygon fill="white" stroke="black" points="954.5,-196 954.5,-226 1121.5,-226 1121.5,-196 954.5,-196"/>
<text text-anchor="start" x="962.5" y="-214" font-family="Helvetica,sans-Serif" font-size="10.00">TableInformation.TurtleVariables</text>
<text text-anchor="middle" x="1038" y="-203" font-family="Helvetica,sans-Serif" font-size="10.00">Table.TurtleVariablesTable</text>
</a>
</g>
</g>
<!-- Node8&#45;&gt;Node9 -->
<g id="edge8" class="edge"><title>Node8&#45;&gt;Node9</title>
<path fill="none" stroke="midnightblue" d="M928.018,-211C936.815,-211 945.694,-211 954.385,-211"/>
<polygon fill="midnightblue" stroke="midnightblue" points="927.744,-207.5 917.744,-211 927.744,-214.5 927.744,-207.5"/>
</g>
<!-- Node11 -->
<g id="node11" class="node"><title>Node11</title>
<g id="a_node11"><a xlink:href="../../d5/d30/class_view_1_1_tabs_of_grids.html#addda546d87ab37b3c6d812b33c0118c9" target="_top" xlink:title="View.TabsOfGrids.setUpKey\lBoardHandler">
<polygon fill="white" stroke="black" points="550.5,-147 550.5,-177 695.5,-177 695.5,-147 550.5,-147"/>
<text text-anchor="start" x="558.5" y="-165" font-family="Helvetica,sans-Serif" font-size="10.00">View.TabsOfGrids.setUpKey</text>
<text text-anchor="middle" x="623" y="-154" font-family="Helvetica,sans-Serif" font-size="10.00">BoardHandler</text>
</a>
</g>
</g>
<!-- Node10&#45;&gt;Node11 -->
<g id="edge10" class="edge"><title>Node10&#45;&gt;Node11</title>
<path fill="none" stroke="midnightblue" d="M500.426,-162C516.893,-162 534.094,-162 550.201,-162"/>
<polygon fill="midnightblue" stroke="midnightblue" points="500.285,-158.5 490.285,-162 500.285,-165.5 500.285,-158.5"/>
</g>
<!-- Node12 -->
<g id="node12" class="node"><title>Node12</title>
<g id="a_node12"><a xlink:href="../../d5/d30/class_view_1_1_tabs_of_grids.html#aa186cd880ee36327ffc0d66951a23fb5" target="_top" xlink:title="View.TabsOfGrids.addTab">
<polygon fill="white" stroke="black" points="767,-152.5 767,-171.5 901,-171.5 901,-152.5 767,-152.5"/>
<text text-anchor="middle" x="834" y="-159.5" font-family="Helvetica,sans-Serif" font-size="10.00">View.TabsOfGrids.addTab</text>
</a>
</g>
</g>
<!-- Node11&#45;&gt;Node12 -->
<g id="edge11" class="edge"><title>Node11&#45;&gt;Node12</title>
<path fill="none" stroke="midnightblue" d="M705.758,-162C725.965,-162 747.364,-162 766.731,-162"/>
<polygon fill="midnightblue" stroke="midnightblue" points="705.634,-158.5 695.634,-162 705.634,-165.5 705.634,-158.5"/>
</g>
<!-- Node13 -->
<g id="node13" class="node"><title>Node13</title>
<g id="a_node13"><a xlink:href="../../d6/d33/class_view_1_1_slogo_view.html#a5759fa529a24ab1e80d37348f3dd395b" target="_top" xlink:title="View.SlogoView.addGrid">
<polygon fill="white" stroke="black" points="973.5,-152.5 973.5,-171.5 1102.5,-171.5 1102.5,-152.5 973.5,-152.5"/>
<text text-anchor="middle" x="1038" y="-159.5" font-family="Helvetica,sans-Serif" font-size="10.00">View.SlogoView.addGrid</text>
</a>
</g>
</g>
<!-- Node12&#45;&gt;Node13 -->
<g id="edge12" class="edge"><title>Node12&#45;&gt;Node13</title>
<path fill="none" stroke="midnightblue" d="M911.378,-162C931.852,-162 953.762,-162 973.458,-162"/>
<polygon fill="midnightblue" stroke="midnightblue" points="911.142,-158.5 901.142,-162 911.142,-165.5 911.142,-158.5"/>
</g>
<!-- Node14 -->
<g id="node14" class="node"><title>Node14</title>
<g id="a_node14"><a xlink:href="../../d6/d33/class_view_1_1_slogo_view.html#acfeff052503655d2ac419d2bf4ea9bd5" target="_top" xlink:title="View.SlogoView.initialize">
<polygon fill="white" stroke="black" points="1158,-152.5 1158,-171.5 1288,-171.5 1288,-152.5 1158,-152.5"/>
<text text-anchor="middle" x="1223" y="-159.5" font-family="Helvetica,sans-Serif" font-size="10.00">View.SlogoView.initialize</text>
</a>
</g>
</g>
<!-- Node13&#45;&gt;Node14 -->
<g id="edge13" class="edge"><title>Node13&#45;&gt;Node14</title>
<path fill="none" stroke="midnightblue" d="M1112.93,-162C1127.81,-162 1143.34,-162 1157.86,-162"/>
<polygon fill="midnightblue" stroke="midnightblue" points="1112.75,-158.5 1102.75,-162 1112.75,-165.5 1112.75,-158.5"/>
</g>
<!-- Node15 -->
<g id="node15" class="node"><title>Node15</title>
<g id="a_node15"><a xlink:href="../../db/d27/class_view_1_1_slogo.html#a6ab76a53160b61d8501aec91c55b85c8" target="_top" xlink:title="View.Slogo.start">
<polygon fill="white" stroke="black" points="1324.5,-152.5 1324.5,-171.5 1417.5,-171.5 1417.5,-152.5 1324.5,-152.5"/>
<text text-anchor="middle" x="1371" y="-159.5" font-family="Helvetica,sans-Serif" font-size="10.00">View.Slogo.start</text>
</a>
</g>
</g>
<!-- Node14&#45;&gt;Node15 -->
<g id="edge14" class="edge"><title>Node14&#45;&gt;Node15</title>
<path fill="none" stroke="midnightblue" d="M1298.14,-162C1307.11,-162 1316.05,-162 1324.43,-162"/>
<polygon fill="midnightblue" stroke="midnightblue" points="1298.04,-158.5 1288.04,-162 1298.04,-165.5 1298.04,-158.5"/>
</g>
<!-- Node17 -->
<g id="node17" class="node"><title>Node17</title>
<g id="a_node17"><a xlink:href="../../d7/d28/classcommands_1_1information_1_1_base_turtle_container.html#a5d86cfae201525f3446fc58eb5c7df7c" target="_top" xlink:title="commands.information.Base\lTurtleContainer.setPosition">
<polygon fill="white" stroke="black" points="340.5,-73 340.5,-103 495.5,-103 495.5,-73 340.5,-73"/>
<text text-anchor="start" x="348.5" y="-91" font-family="Helvetica,sans-Serif" font-size="10.00">commands.information.Base</text>
<text text-anchor="middle" x="418" y="-80" font-family="Helvetica,sans-Serif" font-size="10.00">TurtleContainer.setPosition</text>
</a>
</g>
</g>
<!-- Node16&#45;&gt;Node17 -->
<g id="edge16" class="edge"><title>Node16&#45;&gt;Node17</title>
<path fill="none" stroke="midnightblue" d="M297.42,-106.881C311.423,-104.67 326.191,-102.338 340.39,-100.096"/>
<polygon fill="midnightblue" stroke="midnightblue" points="296.71,-103.45 287.378,-108.467 297.802,-110.364 296.71,-103.45"/>
</g>
<!-- Node18 -->
<g id="node18" class="node"><title>Node18</title>
<g id="a_node18"><a xlink:href="../../df/d55/classcommands_1_1view_commands_1_1_clear_screen_command.html#ae22b9c821c2d07903bdcea4eaad1f959" target="_top" xlink:title="commands.viewCommands.Clear\lScreenCommand.onExecute">
<polygon fill="white" stroke="black" points="534.5,-98 534.5,-128 711.5,-128 711.5,-98 534.5,-98"/>
<text text-anchor="start" x="542.5" y="-116" font-family="Helvetica,sans-Serif" font-size="10.00">commands.viewCommands.Clear</text>
<text text-anchor="middle" x="623" y="-105" font-family="Helvetica,sans-Serif" font-size="10.00">ScreenCommand.onExecute</text>
</a>
</g>
</g>
<!-- Node17&#45;&gt;Node18 -->
<g id="edge17" class="edge"><title>Node17&#45;&gt;Node18</title>
<path fill="none" stroke="midnightblue" d="M505.865,-98.6977C515.267,-99.8555 524.84,-101.034 534.253,-102.194"/>
<polygon fill="midnightblue" stroke="midnightblue" points="506.098,-95.2001 495.746,-97.4514 505.243,-102.148 506.098,-95.2001"/>
</g>
<!-- Node19 -->
<g id="node19" class="node"><title>Node19</title>
<g id="a_node19"><a xlink:href="../../d9/d14/classcommands_1_1turtle_commands_1_1_set_position_command.html#a1ff02e56e7927a1002a7412040c98e77" target="_top" xlink:title="commands.turtleCommands.\lSetPositionCommand.onExecute">
<polygon fill="white" stroke="black" points="536,-49 536,-79 710,-79 710,-49 536,-49"/>
<text text-anchor="start" x="544" y="-67" font-family="Helvetica,sans-Serif" font-size="10.00">commands.turtleCommands.</text>
<text text-anchor="middle" x="623" y="-56" font-family="Helvetica,sans-Serif" font-size="10.00">SetPositionCommand.onExecute</text>
</a>
</g>
</g>
<!-- Node17&#45;&gt;Node19 -->
<g id="edge18" class="edge"><title>Node17&#45;&gt;Node19</title>
<path fill="none" stroke="midnightblue" d="M505.693,-77.7505C515.722,-76.5649 525.948,-75.356 535.967,-74.1714"/>
<polygon fill="midnightblue" stroke="midnightblue" points="505.265,-74.2767 495.746,-78.9266 506.087,-81.2282 505.265,-74.2767"/>
</g>
<!-- Node20 -->
<g id="node20" class="node"><title>Node20</title>
<g id="a_node20"><a xlink:href="../../db/dc5/classcommands_1_1view_commands_1_1_home_command.html#a91670541a28ed18996a9bc3433029857" target="_top" xlink:title="commands.viewCommands.Home\lCommand.onExecute">
<polygon fill="white" stroke="black" points="532,-0 532,-30 714,-30 714,-0 532,-0"/>
<text text-anchor="start" x="540" y="-18" font-family="Helvetica,sans-Serif" font-size="10.00">commands.viewCommands.Home</text>
<text text-anchor="middle" x="623" y="-7" font-family="Helvetica,sans-Serif" font-size="10.00">Command.onExecute</text>
</a>
</g>
</g>
<!-- Node17&#45;&gt;Node20 -->
<g id="edge19" class="edge"><title>Node17&#45;&gt;Node20</title>
<path fill="none" stroke="midnightblue" d="M459.53,-68.6838C480.804,-58.992 507.482,-47.532 532,-39 541.164,-35.8112 550.976,-32.7988 560.629,-30.0552"/>
<polygon fill="midnightblue" stroke="midnightblue" points="457.783,-65.6349 450.163,-72.9955 460.71,-71.9936 457.783,-65.6349"/>
</g>
</g>
</svg>
        <g id="navigator" transform="translate(0 0)" fill="#404254">
                <rect fill="#f2f5e9" fill-opacity="0.5" stroke="#606060" stroke-width=".5" x="0" y="0" width="60" height="60"/>
                <use id="zoomplus" xlink:href="#zoomPlus" x="17" y="9" onmousedown="handleZoom(evt,'in')"/>
                <use id="zoomminus" xlink:href="#zoomMin" x="42" y="9" onmousedown="handleZoom(evt,'out')"/>
                <use id="reset" xlink:href="#resetDef" x="30" y="36" onmousedown="handleReset()"/>
                <g id="arrowUp" xlink:href="#dirArrow" transform="translate(30 24)" onmousedown="handlePan(0,-1)">
                  <use xlink:href="#rim" fill="#404040">
                        <set attributeName="fill" to="#808080" begin="arrowUp.mouseover" end="arrowUp.mouseout"/>
                  </use>
                  <path fill="none" stroke="white" stroke-width="1.5" d="M0,-3.0v7 M-2.5,-0.5L0,-3.0L2.5,-0.5"/>
                </g>
                <g id="arrowRight" xlink:href="#dirArrow" transform="rotate(90) translate(36 -43)" onmousedown="handlePan(1,0)">
                  <use xlink:href="#rim" fill="#404040">
                        <set attributeName="fill" to="#808080" begin="arrowRight.mouseover" end="arrowRight.mouseout"/>
                  </use>
                  <path fill="none" stroke="white" stroke-width="1.5" d="M0,-3.0v7 M-2.5,-0.5L0,-3.0L2.5,-0.5"/>
                </g>
                <g id="arrowDown" xlink:href="#dirArrow" transform="rotate(180) translate(-30 -48)" onmousedown="handlePan(0,1)">
                  <use xlink:href="#rim" fill="#404040">
                        <set attributeName="fill" to="#808080" begin="arrowDown.mouseover" end="arrowDown.mouseout"/>
                  </use>
                  <path fill="none" stroke="white" stroke-width="1.5" d="M0,-3.0v7 M-2.5,-0.5L0,-3.0L2.5,-0.5"/>
                </g>
                <g id="arrowLeft" xlink:href="#dirArrow" transform="rotate(270) translate(-36 17)" onmousedown="handlePan(-1,0)">
                  <use xlink:href="#rim" fill="#404040">
                        <set attributeName="fill" to="#808080" begin="arrowLeft.mouseover" end="arrowLeft.mouseout"/>
                  </use>
                  <path fill="none" stroke="white" stroke-width="1.5" d="M0,-3.0v7 M-2.5,-0.5L0,-3.0L2.5,-0.5"/>
                </g>
        </g>
        <svg viewBox="0 0 15 15" width="100%" height="30px" preserveAspectRatio="xMaxYMin meet">
         <g id="arrow_out" transform="scale(0.3 0.3)">
          <a xlink:href="classturtle_1_1_turtle_a1107426e66ec049d5e3d1c1783a463db_icgraph_org.svg" target="_base">
           <rect id="button" ry="5" rx="5" y="6" x="6" height="38" width="38"
                fill="#f2f5e9" fill-opacity="0.5" stroke="#606060" stroke-width="1.0"/>
           <path id="arrow"
             d="M 11.500037,31.436501 C 11.940474,20.09759 22.043105,11.32322 32.158766,21.979434 L 37.068811,17.246167 C 37.068811,17.246167 37.088388,32 37.088388,32 L 22.160133,31.978069 C 22.160133,31.978069 26.997745,27.140456 26.997745,27.140456 C 18.528582,18.264221 13.291696,25.230495 11.500037,31.436501 z"
             style="fill:#404040;"/>
          </a>
         </g>
        </svg>
</svg>
