<?xml version="1.0" encoding="UTF-8" standalone="no"?>
<!DOCTYPE svg PUBLIC "-//W3C//DTD SVG 1.1//EN"
 "http://www.w3.org/Graphics/SVG/1.1/DTD/svg11.dtd">
<!-- Generated by graphviz version 2.36.0 (20140111.2315)
 -->
<!-- Title: turtle.Turtle.setActive Pages: 1 -->
<svg width="510pt" height="71pt"
 viewBox="0.00 0.00 510.00 71.00" xmlns="http://www.w3.org/2000/svg" xmlns:xlink="http://www.w3.org/1999/xlink">
<g id="graph0" class="graph" transform="scale(1 1) rotate(0) translate(4 67)">
<title>turtle.Turtle.setActive</title>
<polygon fill="white" stroke="none" points="-4,4 -4,-67 506,-67 506,4 -4,4"/>
<!-- Node1 -->
<g id="node1" class="node"><title>Node1</title>
<polygon fill="#bfbfbf" stroke="black" points="0,-19.5 0,-38.5 118,-38.5 118,-19.5 0,-19.5"/>
<text text-anchor="middle" x="59" y="-26.5" font-family="Helvetica,sans-Serif" font-size="10.00">turtle.Turtle.setActive</text>
</g>
<!-- Node2 -->
<g id="node2" class="node"><title>Node2</title>
<g id="a_node2"><a xlink:href="../../df/dcb/classturtle_1_1_turtle.html#a6dfb634504ad14e4496e33c5afd16bd8" target="_top" xlink:title="turtle.Turtle.setActiveStatus">
<polygon fill="white" stroke="black" points="154.5,-38.5 154.5,-57.5 303.5,-57.5 303.5,-38.5 154.5,-38.5"/>
<text text-anchor="middle" x="229" y="-45.5" font-family="Helvetica,sans-Serif" font-size="10.00">turtle.Turtle.setActiveStatus</text>
</a>
</g>
</g>
<!-- Node1&#45;&gt;Node2 -->
<g id="edge1" class="edge"><title>Node1&#45;&gt;Node2</title>
<path fill="none" stroke="midnightblue" d="M128.273,-36.7213C136.889,-37.6957 145.733,-38.696 154.426,-39.6792"/>
<polygon fill="midnightblue" stroke="midnightblue" points="128.617,-33.238 118.287,-35.592 127.83,-40.1937 128.617,-33.238"/>
</g>
<!-- Node4 -->
<g id="node4" class="node"><title>Node4</title>
<g id="a_node4"><a xlink:href="../../df/dcb/classturtle_1_1_turtle.html#a07d5b4ce7bc4b6a066af04139a21e7c4" target="_top" xlink:title="turtle.Turtle.Turtle">
<polygon fill="white" stroke="black" points="179.5,-0.5 179.5,-19.5 278.5,-19.5 278.5,-0.5 179.5,-0.5"/>
<text text-anchor="middle" x="229" y="-7.5" font-family="Helvetica,sans-Serif" font-size="10.00">turtle.Turtle.Turtle</text>
</a>
</g>
</g>
<!-- Node1&#45;&gt;Node4 -->
<g id="edge3" class="edge"><title>Node1&#45;&gt;Node4</title>
<path fill="none" stroke="midnightblue" d="M128.232,-21.2833C145.338,-19.3486 163.35,-17.3116 179.289,-15.5089"/>
<polygon fill="midnightblue" stroke="midnightblue" points="127.83,-17.8063 118.287,-22.408 128.617,-24.762 127.83,-17.8063"/>
</g>
<!-- Node3 -->
<g id="node3" class="node"><title>Node3</title>
<g id="a_node3"><a xlink:href="../../dd/d99/classcommands_1_1information_1_1_single_grid_turtle_container.html#a7e33859e4c8fd9e6c50a4548df5e4899" target="_top" xlink:title="commands.information.Single\lGridTurtleContainer.addTurtle">
<polygon fill="white" stroke="black" points="340.5,-33 340.5,-63 501.5,-63 501.5,-33 340.5,-33"/>
<text text-anchor="start" x="348.5" y="-51" font-family="Helvetica,sans-Serif" font-size="10.00">commands.information.Single</text>
<text text-anchor="middle" x="421" y="-40" font-family="Helvetica,sans-Serif" font-size="10.00">GridTurtleContainer.addTurtle</text>
</a>
</g>
</g>
<!-- Node2&#45;&gt;Node3 -->
<g id="edge2" class="edge"><title>Node2&#45;&gt;Node3</title>
<path fill="none" stroke="midnightblue" d="M313.947,-48C322.716,-48 331.611,-48 340.33,-48"/>
<polygon fill="midnightblue" stroke="midnightblue" points="313.731,-44.5001 303.731,-48 313.731,-51.5001 313.731,-44.5001"/>
</g>
</g>
</svg>
