<?xml version="1.0" encoding="UTF-8" standalone="no"?>
<!DOCTYPE svg PUBLIC "-//W3C//DTD SVG 1.1//EN"
 "http://www.w3.org/Graphics/SVG/1.1/DTD/svg11.dtd">
<!-- Generated by graphviz version 2.36.0 (20140111.2315)
 -->
<!-- Title: turtle.Turtle.setVisibility Pages: 1 -->
<svg width="542pt" height="87pt"
 viewBox="0.00 0.00 542.00 87.00" xmlns="http://www.w3.org/2000/svg" xmlns:xlink="http://www.w3.org/1999/xlink">
<g id="graph0" class="graph" transform="scale(1 1) rotate(0) translate(4 83)">
<title>turtle.Turtle.setVisibility</title>
<polygon fill="white" stroke="none" points="-4,4 -4,-83 538,-83 538,4 -4,4"/>
<!-- Node1 -->
<g id="node1" class="node"><title>Node1</title>
<polygon fill="#bfbfbf" stroke="black" points="0.5,-29.5 0.5,-48.5 127.5,-48.5 127.5,-29.5 0.5,-29.5"/>
<text text-anchor="middle" x="64" y="-36.5" font-family="Helvetica,sans-Serif" font-size="10.00">turtle.Turtle.setVisibility</text>
</g>
<!-- Node2 -->
<g id="node2" class="node"><title>Node2</title>
<g id="a_node2"><a xlink:href="../../d7/d28/classcommands_1_1information_1_1_base_turtle_container.html#abaad2067c7aa6d30d7307d9ec89dcb09" target="_top" xlink:title="commands.information.Base\lTurtleContainer.setVisibility">
<polygon fill="white" stroke="black" points="164.5,-24 164.5,-54 319.5,-54 319.5,-24 164.5,-24"/>
<text text-anchor="start" x="172.5" y="-42" font-family="Helvetica,sans-Serif" font-size="10.00">commands.information.Base</text>
<text text-anchor="middle" x="242" y="-31" font-family="Helvetica,sans-Serif" font-size="10.00">TurtleContainer.setVisibility</text>
</a>
</g>
</g>
<!-- Node1&#45;&gt;Node2 -->
<g id="edge1" class="edge"><title>Node1&#45;&gt;Node2</title>
<path fill="none" stroke="midnightblue" d="M137.774,-39C146.588,-39 155.612,-39 164.478,-39"/>
<polygon fill="midnightblue" stroke="midnightblue" points="137.547,-35.5001 127.547,-39 137.547,-42.5001 137.547,-35.5001"/>
</g>
<!-- Node3 -->
<g id="node3" class="node"><title>Node3</title>
<g id="a_node3"><a xlink:href="../../dd/d47/classcommands_1_1view_commands_1_1_hide_turtle_command.html#ae576730cb9ad5d764e58521e520ae61a" target="_top" xlink:title="commands.viewCommands.Hide\lTurtleCommand.onExecute">
<polygon fill="white" stroke="black" points="358,-49 358,-79 532,-79 532,-49 358,-49"/>
<text text-anchor="start" x="366" y="-67" font-family="Helvetica,sans-Serif" font-size="10.00">commands.viewCommands.Hide</text>
<text text-anchor="middle" x="445" y="-56" font-family="Helvetica,sans-Serif" font-size="10.00">TurtleCommand.onExecute</text>
</a>
</g>
</g>
<!-- Node2&#45;&gt;Node3 -->
<g id="edge2" class="edge"><title>Node2&#45;&gt;Node3</title>
<path fill="none" stroke="midnightblue" d="M329.649,-49.7772C339.017,-50.9425 348.55,-52.1281 357.912,-53.2925"/>
<polygon fill="midnightblue" stroke="midnightblue" points="329.918,-46.2839 319.563,-48.5227 329.054,-53.2303 329.918,-46.2839"/>
</g>
<!-- Node4 -->
<g id="node4" class="node"><title>Node4</title>
<g id="a_node4"><a xlink:href="../../df/d5c/classcommands_1_1view_commands_1_1_show_turtle_command.html#a0b9a1c9976d375d5a7d63b03b0ed83d4" target="_top" xlink:title="commands.viewCommands.Show\lTurtleCommand.onExecute">
<polygon fill="white" stroke="black" points="356,-0 356,-30 534,-30 534,-0 356,-0"/>
<text text-anchor="start" x="364" y="-18" font-family="Helvetica,sans-Serif" font-size="10.00">commands.viewCommands.Show</text>
<text text-anchor="middle" x="445" y="-7" font-family="Helvetica,sans-Serif" font-size="10.00">TurtleCommand.onExecute</text>
</a>
</g>
</g>
<!-- Node2&#45;&gt;Node4 -->
<g id="edge3" class="edge"><title>Node2&#45;&gt;Node4</title>
<path fill="none" stroke="midnightblue" d="M329.675,-28.6507C338.358,-27.614 347.181,-26.5605 355.878,-25.522"/>
<polygon fill="midnightblue" stroke="midnightblue" points="329.077,-25.1972 319.563,-29.8582 329.907,-32.1478 329.077,-25.1972"/>
</g>
</g>
</svg>
