<?xml version="1.0" encoding="UTF-8" standalone="no"?>
<!DOCTYPE svg PUBLIC "-//W3C//DTD SVG 1.1//EN"
 "http://www.w3.org/Graphics/SVG/1.1/DTD/svg11.dtd">
<!-- Generated by graphviz version 2.36.0 (20140111.2315)
 -->
<!-- Title: turtle.Turtle.moveTowardsHeading Pages: 1 -->
<svg width="512pt" height="161pt"
 viewBox="0.00 0.00 512.00 161.00" xmlns="http://www.w3.org/2000/svg" xmlns:xlink="http://www.w3.org/1999/xlink">
<g id="graph0" class="graph" transform="scale(1 1) rotate(0) translate(4 157)">
<title>turtle.Turtle.moveTowardsHeading</title>
<polygon fill="white" stroke="none" points="-4,4 -4,-157 508,-157 508,4 -4,4"/>
<!-- Node1 -->
<g id="node1" class="node"><title>Node1</title>
<polygon fill="#bfbfbf" stroke="black" points="0,-71 0,-101 138,-101 138,-71 0,-71"/>
<text text-anchor="start" x="8" y="-89" font-family="Helvetica,sans-Serif" font-size="10.00">turtle.Turtle.moveTowards</text>
<text text-anchor="middle" x="69" y="-78" font-family="Helvetica,sans-Serif" font-size="10.00">Heading</text>
</g>
<!-- Node2 -->
<g id="node2" class="node"><title>Node2</title>
<g id="a_node2"><a xlink:href="../../d1/dbe/classturtle_1_1_position.html#a7bfd27ea2bf5e22d8de4a4e87b4df2ec" target="_top" xlink:title="turtle.Position.getRotate">
<polygon fill="white" stroke="black" points="174,-133.5 174,-152.5 306,-152.5 306,-133.5 174,-133.5"/>
<text text-anchor="middle" x="240" y="-140.5" font-family="Helvetica,sans-Serif" font-size="10.00">turtle.Position.getRotate</text>
</a>
</g>
</g>
<!-- Node1&#45;&gt;Node2 -->
<g id="edge1" class="edge"><title>Node1&#45;&gt;Node2</title>
<path fill="none" stroke="midnightblue" d="M109.294,-101.051C128.67,-108.295 152.449,-116.922 174,-124 180.679,-126.194 187.785,-128.399 194.753,-130.492"/>
<polygon fill="midnightblue" stroke="midnightblue" points="194.216,-133.982 204.798,-133.461 196.2,-127.27 194.216,-133.982"/>
</g>
<!-- Node3 -->
<g id="node3" class="node"><title>Node3</title>
<g id="a_node3"><a xlink:href="../../d1/dbe/classturtle_1_1_position.html#a1d079c846ce96bf1c57da388c46669e1" target="_top" xlink:title="turtle.Position.getXPos">
<polygon fill="white" stroke="black" points="177.5,-95.5 177.5,-114.5 302.5,-114.5 302.5,-95.5 177.5,-95.5"/>
<text text-anchor="middle" x="240" y="-102.5" font-family="Helvetica,sans-Serif" font-size="10.00">turtle.Position.getXPos</text>
</a>
</g>
</g>
<!-- Node1&#45;&gt;Node3 -->
<g id="edge2" class="edge"><title>Node1&#45;&gt;Node3</title>
<path fill="none" stroke="midnightblue" d="M138.252,-93.6733C147.838,-94.7511 157.715,-95.8615 167.363,-96.9461"/>
<polygon fill="midnightblue" stroke="midnightblue" points="166.983,-100.425 177.312,-98.0646 167.765,-93.4692 166.983,-100.425"/>
</g>
<!-- Node4 -->
<g id="node4" class="node"><title>Node4</title>
<g id="a_node4"><a xlink:href="../../d1/dbe/classturtle_1_1_position.html#a3a68708e4dc3290c4ef0ecd511cc8c1f" target="_top" xlink:title="turtle.Position.getYPos">
<polygon fill="white" stroke="black" points="178,-57.5 178,-76.5 302,-76.5 302,-57.5 178,-57.5"/>
<text text-anchor="middle" x="240" y="-64.5" font-family="Helvetica,sans-Serif" font-size="10.00">turtle.Position.getYPos</text>
</a>
</g>
</g>
<!-- Node1&#45;&gt;Node4 -->
<g id="edge3" class="edge"><title>Node1&#45;&gt;Node4</title>
<path fill="none" stroke="midnightblue" d="M138.252,-78.3267C147.974,-77.2337 157.995,-76.107 167.773,-75.0078"/>
<polygon fill="midnightblue" stroke="midnightblue" points="168.305,-78.47 177.852,-73.8746 167.523,-71.5139 168.305,-78.47"/>
</g>
<!-- Node5 -->
<g id="node5" class="node"><title>Node5</title>
<g id="a_node5"><a xlink:href="../../d1/dbe/classturtle_1_1_position.html#ad1cf245ca8d3e765bac5cc391bf621e1" target="_top" xlink:title="turtle.Position.move">
<polygon fill="white" stroke="black" points="183.5,-19.5 183.5,-38.5 296.5,-38.5 296.5,-19.5 183.5,-19.5"/>
<text text-anchor="middle" x="240" y="-26.5" font-family="Helvetica,sans-Serif" font-size="10.00">turtle.Position.move</text>
</a>
</g>
</g>
<!-- Node1&#45;&gt;Node5 -->
<g id="edge4" class="edge"><title>Node1&#45;&gt;Node5</title>
<path fill="none" stroke="midnightblue" d="M109.294,-70.9486C128.67,-63.7049 152.449,-55.0783 174,-48 180.679,-45.8062 187.785,-43.6006 194.753,-41.5085"/>
<polygon fill="midnightblue" stroke="midnightblue" points="196.2,-44.7303 204.798,-38.5389 194.216,-38.0175 196.2,-44.7303"/>
</g>
<!-- Node6 -->
<g id="node6" class="node"><title>Node6</title>
<g id="a_node6"><a xlink:href="../../d1/dbe/classturtle_1_1_position.html#a62d4a90a8c507a6b714315b13203ddf2" target="_top" xlink:title="turtle.Position.moveHorizontal">
<polygon fill="white" stroke="black" points="342.5,-38.5 342.5,-57.5 503.5,-57.5 503.5,-38.5 342.5,-38.5"/>
<text text-anchor="middle" x="423" y="-45.5" font-family="Helvetica,sans-Serif" font-size="10.00">turtle.Position.moveHorizontal</text>
</a>
</g>
</g>
<!-- Node5&#45;&gt;Node6 -->
<g id="edge5" class="edge"><title>Node5&#45;&gt;Node6</title>
<path fill="none" stroke="midnightblue" d="M296.783,-34.8557C308.063,-36.0397 320.191,-37.3128 332.299,-38.5839"/>
<polygon fill="midnightblue" stroke="midnightblue" points="332.136,-42.086 342.447,-39.6492 332.867,-35.1242 332.136,-42.086"/>
</g>
<!-- Node7 -->
<g id="node7" class="node"><title>Node7</title>
<g id="a_node7"><a xlink:href="../../d1/dbe/classturtle_1_1_position.html#af9d8009ae592a947ee9b50c54e4f7a4b" target="_top" xlink:title="turtle.Position.moveVertical">
<polygon fill="white" stroke="black" points="349,-0.5 349,-19.5 497,-19.5 497,-0.5 349,-0.5"/>
<text text-anchor="middle" x="423" y="-7.5" font-family="Helvetica,sans-Serif" font-size="10.00">turtle.Position.moveVertical</text>
</a>
</g>
</g>
<!-- Node5&#45;&gt;Node7 -->
<g id="edge6" class="edge"><title>Node5&#45;&gt;Node7</title>
<path fill="none" stroke="midnightblue" d="M296.783,-23.1443C309.989,-21.758 324.358,-20.2497 338.498,-18.7654"/>
<polygon fill="midnightblue" stroke="midnightblue" points="339.153,-22.216 348.733,-17.691 338.422,-15.2542 339.153,-22.216"/>
</g>
</g>
</svg>
