<?xml version="1.0" encoding="UTF-8" standalone="no"?>
<!DOCTYPE svg PUBLIC "-//W3C//DTD SVG 1.1//EN"
 "http://www.w3.org/Graphics/SVG/1.1/DTD/svg11.dtd">
<!-- Generated by graphviz version 2.36.0 (20140111.2315)
 -->
<!-- Title: turtle.Turtle.getPen Pages: 1 -->
<svg width="1406pt" height="165pt"
 viewBox="0.00 0.00 1406.00 165.00" xmlns="http://www.w3.org/2000/svg" xmlns:xlink="http://www.w3.org/1999/xlink">
<g id="graph0" class="graph" transform="scale(1 1) rotate(0) translate(4 161)">
<title>turtle.Turtle.getPen</title>
<polygon fill="white" stroke="none" points="-4,4 -4,-161 1402,-161 1402,4 -4,4"/>
<!-- Node1 -->
<g id="node1" class="node"><title>Node1</title>
<polygon fill="#bfbfbf" stroke="black" points="0.5,-68.5 0.5,-87.5 107.5,-87.5 107.5,-68.5 0.5,-68.5"/>
<text text-anchor="middle" x="54" y="-75.5" font-family="Helvetica,sans-Serif" font-size="10.00">turtle.Turtle.getPen</text>
</g>
<!-- Node2 -->
<g id="node2" class="node"><title>Node2</title>
<g id="a_node2"><a xlink:href="../../d9/db1/class_view_1_1_single_grid.html#ace412ccdbcf0cdf6a20ac1e4102a15b5" target="_top" xlink:title="View.SingleGrid.addTurtle">
<polygon fill="white" stroke="black" points="154,-137.5 154,-156.5 290,-156.5 290,-137.5 154,-137.5"/>
<text text-anchor="middle" x="222" y="-144.5" font-family="Helvetica,sans-Serif" font-size="10.00">View.SingleGrid.addTurtle</text>
</a>
</g>
</g>
<!-- Node1&#45;&gt;Node2 -->
<g id="edge1" class="edge"><title>Node1&#45;&gt;Node2</title>
<path fill="none" stroke="midnightblue" d="M78.4762,-93.0441C95.9776,-103.726 120.769,-117.756 144,-127 154.266,-131.085 165.636,-134.57 176.416,-137.431"/>
<polygon fill="midnightblue" stroke="midnightblue" points="79.9009,-89.8089 69.5594,-87.5058 76.2076,-95.7553 79.9009,-89.8089"/>
</g>
<!-- Node3 -->
<g id="node3" class="node"><title>Node3</title>
<g id="a_node3"><a xlink:href="../../d7/d28/classcommands_1_1information_1_1_base_turtle_container.html#af41d42e30b8f2bbb27f22a72000f0324" target="_top" xlink:title="commands.information.Base\lTurtleContainer.getPen">
<polygon fill="white" stroke="black" points="144.5,-88 144.5,-118 299.5,-118 299.5,-88 144.5,-88"/>
<text text-anchor="start" x="152.5" y="-106" font-family="Helvetica,sans-Serif" font-size="10.00">commands.information.Base</text>
<text text-anchor="middle" x="222" y="-95" font-family="Helvetica,sans-Serif" font-size="10.00">TurtleContainer.getPen</text>
</a>
</g>
</g>
<!-- Node1&#45;&gt;Node3 -->
<g id="edge2" class="edge"><title>Node1&#45;&gt;Node3</title>
<path fill="none" stroke="midnightblue" d="M117.578,-87.4244C126.29,-88.7364 135.322,-90.0966 144.256,-91.4422"/>
<polygon fill="midnightblue" stroke="midnightblue" points="117.933,-83.9385 107.523,-85.9102 116.891,-90.8604 117.933,-83.9385"/>
</g>
<!-- Node4 -->
<g id="node4" class="node"><title>Node4</title>
<g id="a_node4"><a xlink:href="../../d9/db1/class_view_1_1_single_grid.html#a9093eac50d88370f86cb4757b996210e" target="_top" xlink:title="View.SingleGrid.keepTurtle\lInBounds">
<polygon fill="white" stroke="black" points="151.5,-39 151.5,-69 292.5,-69 292.5,-39 151.5,-39"/>
<text text-anchor="start" x="159.5" y="-57" font-family="Helvetica,sans-Serif" font-size="10.00">View.SingleGrid.keepTurtle</text>
<text text-anchor="middle" x="222" y="-46" font-family="Helvetica,sans-Serif" font-size="10.00">InBounds</text>
</a>
</g>
</g>
<!-- Node1&#45;&gt;Node4 -->
<g id="edge3" class="edge"><title>Node1&#45;&gt;Node4</title>
<path fill="none" stroke="midnightblue" d="M117.467,-68.9686C128.479,-67.3765 140.005,-65.7101 151.202,-64.0912"/>
<polygon fill="midnightblue" stroke="midnightblue" points="116.92,-65.5113 107.523,-70.4062 117.921,-72.4392 116.92,-65.5113"/>
</g>
<!-- Node16 -->
<g id="node16" class="node"><title>Node16</title>
<g id="a_node16"><a xlink:href="../../d1/de7/class_g_u_i_functions_1_1_undo.html#abc375040abaf5731ac96ef7d7c02aa24" target="_top" xlink:title="GUIFunctions.Undo.undoLine">
<polygon fill="white" stroke="black" points="336,-0.5 336,-19.5 490,-19.5 490,-0.5 336,-0.5"/>
<text text-anchor="middle" x="413" y="-7.5" font-family="Helvetica,sans-Serif" font-size="10.00">GUIFunctions.Undo.undoLine</text>
</a>
</g>
</g>
<!-- Node1&#45;&gt;Node16 -->
<g id="edge15" class="edge"><title>Node1&#45;&gt;Node16</title>
<path fill="none" stroke="midnightblue" d="M76.3281,-62.7824C93.6633,-51.2986 119.222,-36.3138 144,-29 206.855,-10.4468 281.441,-6.53561 335.95,-6.78298"/>
<polygon fill="midnightblue" stroke="midnightblue" points="74.358,-59.8895 68.0602,-68.4094 78.2965,-65.6764 74.358,-59.8895"/>
</g>
<!-- Node5 -->
<g id="node5" class="node"><title>Node5</title>
<g id="a_node5"><a xlink:href="../../d9/db1/class_view_1_1_single_grid.html#aa718e560e84ad31be3e046029d0226ab" target="_top" xlink:title="View.SingleGrid.update">
<polygon fill="white" stroke="black" points="350,-44.5 350,-63.5 476,-63.5 476,-44.5 350,-44.5"/>
<text text-anchor="middle" x="413" y="-51.5" font-family="Helvetica,sans-Serif" font-size="10.00">View.SingleGrid.update</text>
</a>
</g>
</g>
<!-- Node4&#45;&gt;Node5 -->
<g id="edge4" class="edge"><title>Node4&#45;&gt;Node5</title>
<path fill="none" stroke="midnightblue" d="M302.788,-54C318.486,-54 334.739,-54 349.757,-54"/>
<polygon fill="midnightblue" stroke="midnightblue" points="302.571,-50.5001 292.571,-54 302.571,-57.5001 302.571,-50.5001"/>
</g>
<!-- Node10 -->
<g id="node10" class="node"><title>Node10</title>
<g id="a_node10"><a xlink:href="../../d9/db1/class_view_1_1_single_grid.html#a4c6eabf92c3205a22dc266cf0923f836" target="_top" xlink:title="View.SingleGrid.keyUpdate">
<polygon fill="white" stroke="black" points="341,-87.5 341,-106.5 485,-106.5 485,-87.5 341,-87.5"/>
<text text-anchor="middle" x="413" y="-94.5" font-family="Helvetica,sans-Serif" font-size="10.00">View.SingleGrid.keyUpdate</text>
</a>
</g>
</g>
<!-- Node4&#45;&gt;Node10 -->
<g id="edge9" class="edge"><title>Node4&#45;&gt;Node10</title>
<path fill="none" stroke="midnightblue" d="M299.018,-71.2952C323.283,-76.8157 349.239,-82.7211 370.146,-87.4777"/>
<polygon fill="midnightblue" stroke="midnightblue" points="299.63,-67.845 289.103,-69.0393 298.077,-74.6706 299.63,-67.845"/>
</g>
<!-- Node6 -->
<g id="node6" class="node"><title>Node6</title>
<g id="a_node6"><a xlink:href="../../d1/de7/class_g_u_i_functions_1_1_undo.html#a611c153735c5cbdbbfd8f55faa0adaae" target="_top" xlink:title="GUIFunctions.Undo.doAction">
<polygon fill="white" stroke="black" points="534,-0.5 534,-19.5 686,-19.5 686,-0.5 534,-0.5"/>
<text text-anchor="middle" x="610" y="-7.5" font-family="Helvetica,sans-Serif" font-size="10.00">GUIFunctions.Undo.doAction</text>
</a>
</g>
</g>
<!-- Node5&#45;&gt;Node6 -->
<g id="edge5" class="edge"><title>Node5&#45;&gt;Node6</title>
<path fill="none" stroke="midnightblue" d="M466.225,-42.2159C497.703,-35.1131 537.275,-26.184 566.77,-19.5287"/>
<polygon fill="midnightblue" stroke="midnightblue" points="465.296,-38.8373 456.312,-44.4527 466.837,-45.6657 465.296,-38.8373"/>
</g>
<!-- Node7 -->
<g id="node7" class="node"><title>Node7</title>
<g id="a_node7"><a xlink:href="../../d3/d42/class_table_information_1_1_turtle_variables_table.html#a12ef059be78468fe0f09b5bf41d11d4c" target="_top" xlink:title="TableInformation.TurtleVariables\lTable.moveTurtle">
<polygon fill="white" stroke="black" points="526.5,-39 526.5,-69 693.5,-69 693.5,-39 526.5,-39"/>
<text text-anchor="start" x="534.5" y="-57" font-family="Helvetica,sans-Serif" font-size="10.00">TableInformation.TurtleVariables</text>
<text text-anchor="middle" x="610" y="-46" font-family="Helvetica,sans-Serif" font-size="10.00">Table.moveTurtle</text>
</a>
</g>
</g>
<!-- Node5&#45;&gt;Node7 -->
<g id="edge6" class="edge"><title>Node5&#45;&gt;Node7</title>
<path fill="none" stroke="midnightblue" d="M486.496,-54C499.485,-54 513.108,-54 526.357,-54"/>
<polygon fill="midnightblue" stroke="midnightblue" points="486.235,-50.5001 476.235,-54 486.235,-57.5001 486.235,-50.5001"/>
</g>
<!-- Node8 -->
<g id="node8" class="node"><title>Node8</title>
<g id="a_node8"><a xlink:href="../../d3/d42/class_table_information_1_1_turtle_variables_table.html#a3a32e6fd761411925b48c0fa60c29431" target="_top" xlink:title="TableInformation.TurtleVariables\lTable.setColumnEditable">
<polygon fill="white" stroke="black" points="730.5,-39 730.5,-69 897.5,-69 897.5,-39 730.5,-39"/>
<text text-anchor="start" x="738.5" y="-57" font-family="Helvetica,sans-Serif" font-size="10.00">TableInformation.TurtleVariables</text>
<text text-anchor="middle" x="814" y="-46" font-family="Helvetica,sans-Serif" font-size="10.00">Table.setColumnEditable</text>
</a>
</g>
</g>
<!-- Node7&#45;&gt;Node8 -->
<g id="edge7" class="edge"><title>Node7&#45;&gt;Node8</title>
<path fill="none" stroke="midnightblue" d="M704.018,-54C712.815,-54 721.694,-54 730.385,-54"/>
<polygon fill="midnightblue" stroke="midnightblue" points="703.744,-50.5001 693.744,-54 703.744,-57.5001 703.744,-50.5001"/>
</g>
<!-- Node9 -->
<g id="node9" class="node"><title>Node9</title>
<g id="a_node9"><a xlink:href="../../d3/d42/class_table_information_1_1_turtle_variables_table.html#a6bac7fbbffde239e6438ea163f812b08" target="_top" xlink:title="TableInformation.TurtleVariables\lTable.TurtleVariablesTable">
<polygon fill="white" stroke="black" points="934.5,-39 934.5,-69 1101.5,-69 1101.5,-39 934.5,-39"/>
<text text-anchor="start" x="942.5" y="-57" font-family="Helvetica,sans-Serif" font-size="10.00">TableInformation.TurtleVariables</text>
<text text-anchor="middle" x="1018" y="-46" font-family="Helvetica,sans-Serif" font-size="10.00">Table.TurtleVariablesTable</text>
</a>
</g>
</g>
<!-- Node8&#45;&gt;Node9 -->
<g id="edge8" class="edge"><title>Node8&#45;&gt;Node9</title>
<path fill="none" stroke="midnightblue" d="M908.018,-54C916.815,-54 925.694,-54 934.385,-54"/>
<polygon fill="midnightblue" stroke="midnightblue" points="907.744,-50.5001 897.744,-54 907.744,-57.5001 907.744,-50.5001"/>
</g>
<!-- Node11 -->
<g id="node11" class="node"><title>Node11</title>
<g id="a_node11"><a xlink:href="../../d5/d30/class_view_1_1_tabs_of_grids.html#addda546d87ab37b3c6d812b33c0118c9" target="_top" xlink:title="View.TabsOfGrids.setUpKey\lBoardHandler">
<polygon fill="white" stroke="black" points="537.5,-88 537.5,-118 682.5,-118 682.5,-88 537.5,-88"/>
<text text-anchor="start" x="545.5" y="-106" font-family="Helvetica,sans-Serif" font-size="10.00">View.TabsOfGrids.setUpKey</text>
<text text-anchor="middle" x="610" y="-95" font-family="Helvetica,sans-Serif" font-size="10.00">BoardHandler</text>
</a>
</g>
</g>
<!-- Node10&#45;&gt;Node11 -->
<g id="edge10" class="edge"><title>Node10&#45;&gt;Node11</title>
<path fill="none" stroke="midnightblue" d="M495.286,-99.5011C509.235,-99.9303 523.639,-100.374 537.313,-100.794"/>
<polygon fill="midnightblue" stroke="midnightblue" points="495.33,-96.0009 485.227,-99.1916 495.115,-102.998 495.33,-96.0009"/>
</g>
<!-- Node12 -->
<g id="node12" class="node"><title>Node12</title>
<g id="a_node12"><a xlink:href="../../d5/d30/class_view_1_1_tabs_of_grids.html#aa186cd880ee36327ffc0d66951a23fb5" target="_top" xlink:title="View.TabsOfGrids.addTab">
<polygon fill="white" stroke="black" points="747,-93.5 747,-112.5 881,-112.5 881,-93.5 747,-93.5"/>
<text text-anchor="middle" x="814" y="-100.5" font-family="Helvetica,sans-Serif" font-size="10.00">View.TabsOfGrids.addTab</text>
</a>
</g>
</g>
<!-- Node11&#45;&gt;Node12 -->
<g id="edge11" class="edge"><title>Node11&#45;&gt;Node12</title>
<path fill="none" stroke="midnightblue" d="M692.717,-103C710.764,-103 729.664,-103 746.996,-103"/>
<polygon fill="midnightblue" stroke="midnightblue" points="692.502,-99.5001 682.502,-103 692.502,-106.5 692.502,-99.5001"/>
</g>
<!-- Node13 -->
<g id="node13" class="node"><title>Node13</title>
<g id="a_node13"><a xlink:href="../../d6/d33/class_view_1_1_slogo_view.html#a5759fa529a24ab1e80d37348f3dd395b" target="_top" xlink:title="View.SlogoView.addGrid">
<polygon fill="white" stroke="black" points="953.5,-93.5 953.5,-112.5 1082.5,-112.5 1082.5,-93.5 953.5,-93.5"/>
<text text-anchor="middle" x="1018" y="-100.5" font-family="Helvetica,sans-Serif" font-size="10.00">View.SlogoView.addGrid</text>
</a>
</g>
</g>
<!-- Node12&#45;&gt;Node13 -->
<g id="edge12" class="edge"><title>Node12&#45;&gt;Node13</title>
<path fill="none" stroke="midnightblue" d="M891.378,-103C911.852,-103 933.762,-103 953.458,-103"/>
<polygon fill="midnightblue" stroke="midnightblue" points="891.142,-99.5001 881.142,-103 891.142,-106.5 891.142,-99.5001"/>
</g>
<!-- Node14 -->
<g id="node14" class="node"><title>Node14</title>
<g id="a_node14"><a xlink:href="../../d6/d33/class_view_1_1_slogo_view.html#acfeff052503655d2ac419d2bf4ea9bd5" target="_top" xlink:title="View.SlogoView.initialize">
<polygon fill="white" stroke="black" points="1138,-93.5 1138,-112.5 1268,-112.5 1268,-93.5 1138,-93.5"/>
<text text-anchor="middle" x="1203" y="-100.5" font-family="Helvetica,sans-Serif" font-size="10.00">View.SlogoView.initialize</text>
</a>
</g>
</g>
<!-- Node13&#45;&gt;Node14 -->
<g id="edge13" class="edge"><title>Node13&#45;&gt;Node14</title>
<path fill="none" stroke="midnightblue" d="M1092.93,-103C1107.81,-103 1123.34,-103 1137.86,-103"/>
<polygon fill="midnightblue" stroke="midnightblue" points="1092.75,-99.5001 1082.75,-103 1092.75,-106.5 1092.75,-99.5001"/>
</g>
<!-- Node15 -->
<g id="node15" class="node"><title>Node15</title>
<g id="a_node15"><a xlink:href="../../db/d27/class_view_1_1_slogo.html#a6ab76a53160b61d8501aec91c55b85c8" target="_top" xlink:title="View.Slogo.start">
<polygon fill="white" stroke="black" points="1304.5,-93.5 1304.5,-112.5 1397.5,-112.5 1397.5,-93.5 1304.5,-93.5"/>
<text text-anchor="middle" x="1351" y="-100.5" font-family="Helvetica,sans-Serif" font-size="10.00">View.Slogo.start</text>
</a>
</g>
</g>
<!-- Node14&#45;&gt;Node15 -->
<g id="edge14" class="edge"><title>Node14&#45;&gt;Node15</title>
<path fill="none" stroke="midnightblue" d="M1278.14,-103C1287.11,-103 1296.05,-103 1304.43,-103"/>
<polygon fill="midnightblue" stroke="midnightblue" points="1278.04,-99.5001 1268.04,-103 1278.04,-106.5 1278.04,-99.5001"/>
</g>
<!-- Node16&#45;&gt;Node6 -->
<g id="edge16" class="edge"><title>Node16&#45;&gt;Node6</title>
<path fill="none" stroke="midnightblue" d="M500.383,-10C511.518,-10 522.848,-10 533.783,-10"/>
<polygon fill="midnightblue" stroke="midnightblue" points="500.23,-6.5001 490.23,-10 500.23,-13.5001 500.23,-6.5001"/>
</g>
</g>
</svg>
