<?xml version="1.0" encoding="UTF-8" standalone="no"?>
<!DOCTYPE svg PUBLIC "-//W3C//DTD SVG 1.1//EN"
 "http://www.w3.org/Graphics/SVG/1.1/DTD/svg11.dtd">
<!-- Generated by graphviz version 2.36.0 (20140111.2315)
 -->
<!-- Title: turtle.Turtle.dimmer Pages: 1 -->
<svg width="666pt" height="38pt"
 viewBox="0.00 0.00 666.00 38.00" xmlns="http://www.w3.org/2000/svg" xmlns:xlink="http://www.w3.org/1999/xlink">
<g id="graph0" class="graph" transform="scale(1 1) rotate(0) translate(4 34)">
<title>turtle.Turtle.dimmer</title>
<polygon fill="white" stroke="none" points="-4,4 -4,-34 662,-34 662,4 -4,4"/>
<!-- Node1 -->
<g id="node1" class="node"><title>Node1</title>
<polygon fill="#bfbfbf" stroke="black" points="0.5,-5.5 0.5,-24.5 111.5,-24.5 111.5,-5.5 0.5,-5.5"/>
<text text-anchor="middle" x="56" y="-12.5" font-family="Helvetica,sans-Serif" font-size="10.00">turtle.Turtle.dimmer</text>
</g>
<!-- Node2 -->
<g id="node2" class="node"><title>Node2</title>
<g id="a_node2"><a xlink:href="../../df/dcb/classturtle_1_1_turtle.html#af9e8089cba994a27cc2fba25f3c9347d" target="_top" xlink:title="turtle.Turtle.setInactive">
<polygon fill="white" stroke="black" points="148.5,-5.5 148.5,-24.5 273.5,-24.5 273.5,-5.5 148.5,-5.5"/>
<text text-anchor="middle" x="211" y="-12.5" font-family="Helvetica,sans-Serif" font-size="10.00">turtle.Turtle.setInactive</text>
</a>
</g>
</g>
<!-- Node1&#45;&gt;Node2 -->
<g id="edge1" class="edge"><title>Node1&#45;&gt;Node2</title>
<path fill="none" stroke="midnightblue" d="M121.939,-15C130.677,-15 139.622,-15 148.301,-15"/>
<polygon fill="midnightblue" stroke="midnightblue" points="121.804,-11.5001 111.804,-15 121.804,-18.5001 121.804,-11.5001"/>
</g>
<!-- Node3 -->
<g id="node3" class="node"><title>Node3</title>
<g id="a_node3"><a xlink:href="../../df/dcb/classturtle_1_1_turtle.html#a6dfb634504ad14e4496e33c5afd16bd8" target="_top" xlink:title="turtle.Turtle.setActiveStatus">
<polygon fill="white" stroke="black" points="310.5,-5.5 310.5,-24.5 459.5,-24.5 459.5,-5.5 310.5,-5.5"/>
<text text-anchor="middle" x="385" y="-12.5" font-family="Helvetica,sans-Serif" font-size="10.00">turtle.Turtle.setActiveStatus</text>
</a>
</g>
</g>
<!-- Node2&#45;&gt;Node3 -->
<g id="edge2" class="edge"><title>Node2&#45;&gt;Node3</title>
<path fill="none" stroke="midnightblue" d="M283.835,-15C292.644,-15 301.658,-15 310.491,-15"/>
<polygon fill="midnightblue" stroke="midnightblue" points="283.61,-11.5001 273.61,-15 283.61,-18.5001 283.61,-11.5001"/>
</g>
<!-- Node4 -->
<g id="node4" class="node"><title>Node4</title>
<g id="a_node4"><a xlink:href="../../dd/d99/classcommands_1_1information_1_1_single_grid_turtle_container.html#a7e33859e4c8fd9e6c50a4548df5e4899" target="_top" xlink:title="commands.information.Single\lGridTurtleContainer.addTurtle">
<polygon fill="white" stroke="black" points="496.5,-0 496.5,-30 657.5,-30 657.5,-0 496.5,-0"/>
<text text-anchor="start" x="504.5" y="-18" font-family="Helvetica,sans-Serif" font-size="10.00">commands.information.Single</text>
<text text-anchor="middle" x="577" y="-7" font-family="Helvetica,sans-Serif" font-size="10.00">GridTurtleContainer.addTurtle</text>
</a>
</g>
</g>
<!-- Node3&#45;&gt;Node4 -->
<g id="edge3" class="edge"><title>Node3&#45;&gt;Node4</title>
<path fill="none" stroke="midnightblue" d="M469.947,-15C478.716,-15 487.611,-15 496.33,-15"/>
<polygon fill="midnightblue" stroke="midnightblue" points="469.731,-11.5001 459.731,-15 469.731,-18.5001 469.731,-11.5001"/>
</g>
</g>
</svg>
