<?xml version="1.0" encoding="UTF-8" standalone="no"?>
<!DOCTYPE svg PUBLIC "-//W3C//DTD SVG 1.1//EN"
 "http://www.w3.org/Graphics/SVG/1.1/DTD/svg11.dtd">
<!-- Generated by graphviz version 2.36.0 (20140111.2315)
 -->
<!-- Title: turtle.Turtle.setID Pages: 1 -->
<svg width="796pt" height="224pt"
 viewBox="0.00 0.00 796.00 224.00" xmlns="http://www.w3.org/2000/svg" xmlns:xlink="http://www.w3.org/1999/xlink">
<g id="graph0" class="graph" transform="scale(1 1) rotate(0) translate(4 220)">
<title>turtle.Turtle.setID</title>
<polygon fill="white" stroke="none" points="-4,4 -4,-220 792,-220 792,4 -4,4"/>
<!-- Node1 -->
<g id="node1" class="node"><title>Node1</title>
<polygon fill="#bfbfbf" stroke="black" points="0,-125.5 0,-144.5 98,-144.5 98,-125.5 0,-125.5"/>
<text text-anchor="middle" x="49" y="-132.5" font-family="Helvetica,sans-Serif" font-size="10.00">turtle.Turtle.setID</text>
</g>
<!-- Node2 -->
<g id="node2" class="node"><title>Node2</title>
<g id="a_node2"><a xlink:href="../../da/d9b/class_g_u_i_functions_1_1_add_turtle.html#a4324961c5ed55780c7d9d270afe53c6d" target="_top" xlink:title="GUIFunctions.AddTurtle.add\lAction">
<polygon fill="white" stroke="black" points="136.5,-186 136.5,-216 283.5,-216 283.5,-186 136.5,-186"/>
<text text-anchor="start" x="144.5" y="-204" font-family="Helvetica,sans-Serif" font-size="10.00">GUIFunctions.AddTurtle.add</text>
<text text-anchor="middle" x="210" y="-193" font-family="Helvetica,sans-Serif" font-size="10.00">Action</text>
</a>
</g>
</g>
<!-- Node1&#45;&gt;Node2 -->
<g id="edge1" class="edge"><title>Node1&#45;&gt;Node2</title>
<path fill="none" stroke="midnightblue" d="M76.9851,-149.303C93.2563,-157.641 114.536,-168.047 134,-176 142.513,-179.478 151.707,-182.849 160.642,-185.929"/>
<polygon fill="midnightblue" stroke="midnightblue" points="78.5244,-146.159 68.0352,-144.667 75.3046,-152.374 78.5244,-146.159"/>
</g>
<!-- Node3 -->
<g id="node3" class="node"><title>Node3</title>
<g id="a_node3"><a xlink:href="../../d9/db1/class_view_1_1_single_grid.html#a5e40c65b3193d90383384e53d9542cdb" target="_top" xlink:title="View.SingleGrid.addTurtle">
<polygon fill="white" stroke="black" points="142,-147.5 142,-166.5 278,-166.5 278,-147.5 142,-147.5"/>
<text text-anchor="middle" x="210" y="-154.5" font-family="Helvetica,sans-Serif" font-size="10.00">View.SingleGrid.addTurtle</text>
</a>
</g>
</g>
<!-- Node1&#45;&gt;Node3 -->
<g id="edge2" class="edge"><title>Node1&#45;&gt;Node3</title>
<path fill="none" stroke="midnightblue" d="M108.062,-143.034C119.08,-144.558 130.692,-146.165 141.961,-147.724"/>
<polygon fill="midnightblue" stroke="midnightblue" points="108.522,-139.564 98.1367,-141.66 107.563,-146.498 108.522,-139.564"/>
</g>
<!-- Node7 -->
<g id="node7" class="node"><title>Node7</title>
<g id="a_node7"><a xlink:href="../../d6/d94/classmodel_1_1_turtle_factory.html#a8136ab15d06d4567b883a359727a6b87" target="_top" xlink:title="model.TurtleFactory.create\lTurtle">
<polygon fill="white" stroke="black" points="139,-98 139,-128 281,-128 281,-98 139,-98"/>
<text text-anchor="start" x="147" y="-116" font-family="Helvetica,sans-Serif" font-size="10.00">model.TurtleFactory.create</text>
<text text-anchor="middle" x="210" y="-105" font-family="Helvetica,sans-Serif" font-size="10.00">Turtle</text>
</a>
</g>
</g>
<!-- Node1&#45;&gt;Node7 -->
<g id="edge6" class="edge"><title>Node1&#45;&gt;Node7</title>
<path fill="none" stroke="midnightblue" d="M108.263,-126.938C118.172,-125.567 128.556,-124.131 138.736,-122.722"/>
<polygon fill="midnightblue" stroke="midnightblue" points="107.563,-123.502 98.1367,-128.34 108.522,-130.436 107.563,-123.502"/>
</g>
<!-- Node10 -->
<g id="node10" class="node"><title>Node10</title>
<g id="a_node10"><a xlink:href="../../d3/d0c/classtests_1_1_ask_with_test.html#a799076287011ef49d94aa61298cd311e" target="_top" xlink:title="tests.AskWithTest.setFactory">
<polygon fill="white" stroke="black" points="134,-54.5 134,-73.5 286,-73.5 286,-54.5 134,-54.5"/>
<text text-anchor="middle" x="210" y="-61.5" font-family="Helvetica,sans-Serif" font-size="10.00">tests.AskWithTest.setFactory</text>
</a>
</g>
</g>
<!-- Node1&#45;&gt;Node10 -->
<g id="edge9" class="edge"><title>Node1&#45;&gt;Node10</title>
<path fill="none" stroke="midnightblue" d="M73.9326,-119.909C90.3912,-109.96 112.988,-97.1302 134,-88 146.789,-82.4426 161.294,-77.5037 174.116,-73.5727"/>
<polygon fill="midnightblue" stroke="midnightblue" points="71.7026,-117.171 65.0097,-125.384 75.3636,-123.138 71.7026,-117.171"/>
</g>
<!-- Node4 -->
<g id="node4" class="node"><title>Node4</title>
<g id="a_node4"><a xlink:href="../../d6/d33/class_view_1_1_slogo_view.html#a05ea476b14d0f5b642dbcd4449cdb9cb" target="_top" xlink:title="View.SlogoView.addTurtle">
<polygon fill="white" stroke="black" points="331.5,-147.5 331.5,-166.5 466.5,-166.5 466.5,-147.5 331.5,-147.5"/>
<text text-anchor="middle" x="399" y="-154.5" font-family="Helvetica,sans-Serif" font-size="10.00">View.SlogoView.addTurtle</text>
</a>
</g>
</g>
<!-- Node3&#45;&gt;Node4 -->
<g id="edge3" class="edge"><title>Node3&#45;&gt;Node4</title>
<path fill="none" stroke="midnightblue" d="M288.5,-157C302.73,-157 317.471,-157 331.349,-157"/>
<polygon fill="midnightblue" stroke="midnightblue" points="288.247,-153.5 278.247,-157 288.247,-160.5 288.247,-153.5"/>
</g>
<!-- Node5 -->
<g id="node5" class="node"><title>Node5</title>
<g id="a_node5"><a xlink:href="../../d6/d33/class_view_1_1_slogo_view.html#acfeff052503655d2ac419d2bf4ea9bd5" target="_top" xlink:title="View.SlogoView.initialize">
<polygon fill="white" stroke="black" points="520,-147.5 520,-166.5 650,-166.5 650,-147.5 520,-147.5"/>
<text text-anchor="middle" x="585" y="-154.5" font-family="Helvetica,sans-Serif" font-size="10.00">View.SlogoView.initialize</text>
</a>
</g>
</g>
<!-- Node4&#45;&gt;Node5 -->
<g id="edge4" class="edge"><title>Node4&#45;&gt;Node5</title>
<path fill="none" stroke="midnightblue" d="M477.002,-157C491.314,-157 506.125,-157 519.996,-157"/>
<polygon fill="midnightblue" stroke="midnightblue" points="476.688,-153.5 466.688,-157 476.688,-160.5 476.688,-153.5"/>
</g>
<!-- Node6 -->
<g id="node6" class="node"><title>Node6</title>
<g id="a_node6"><a xlink:href="../../db/d27/class_view_1_1_slogo.html#a6ab76a53160b61d8501aec91c55b85c8" target="_top" xlink:title="View.Slogo.start">
<polygon fill="white" stroke="black" points="694.5,-147.5 694.5,-166.5 787.5,-166.5 787.5,-147.5 694.5,-147.5"/>
<text text-anchor="middle" x="741" y="-154.5" font-family="Helvetica,sans-Serif" font-size="10.00">View.Slogo.start</text>
</a>
</g>
</g>
<!-- Node5&#45;&gt;Node6 -->
<g id="edge5" class="edge"><title>Node5&#45;&gt;Node6</title>
<path fill="none" stroke="midnightblue" d="M660.46,-157C671.939,-157 683.493,-157 694.101,-157"/>
<polygon fill="midnightblue" stroke="midnightblue" points="660.418,-153.5 650.418,-157 660.418,-160.5 660.418,-153.5"/>
</g>
<!-- Node8 -->
<g id="node8" class="node"><title>Node8</title>
<g id="a_node8"><a xlink:href="../../d3/d88/classmodel_1_1_slogo_model.html#ae121977c3f78f385b680ffa1e61d539c" target="_top" xlink:title="model.SlogoModel.initialize\lTurtle">
<polygon fill="white" stroke="black" points="326,-98 326,-128 472,-128 472,-98 326,-98"/>
<text text-anchor="start" x="334" y="-116" font-family="Helvetica,sans-Serif" font-size="10.00">model.SlogoModel.initialize</text>
<text text-anchor="middle" x="399" y="-105" font-family="Helvetica,sans-Serif" font-size="10.00">Turtle</text>
</a>
</g>
</g>
<!-- Node7&#45;&gt;Node8 -->
<g id="edge7" class="edge"><title>Node7&#45;&gt;Node8</title>
<path fill="none" stroke="midnightblue" d="M291.203,-113C302.728,-113 314.528,-113 325.884,-113"/>
<polygon fill="midnightblue" stroke="midnightblue" points="291.164,-109.5 281.164,-113 291.164,-116.5 291.164,-109.5"/>
</g>
<!-- Node9 -->
<g id="node9" class="node"><title>Node9</title>
<g id="a_node9"><a xlink:href="../../d3/d88/classmodel_1_1_slogo_model.html#a09b49f321199097c5723c612b5553c33" target="_top" xlink:title="model.SlogoModel.initialize\lModel">
<polygon fill="white" stroke="black" points="512,-98 512,-128 658,-128 658,-98 512,-98"/>
<text text-anchor="start" x="520" y="-116" font-family="Helvetica,sans-Serif" font-size="10.00">model.SlogoModel.initialize</text>
<text text-anchor="middle" x="585" y="-105" font-family="Helvetica,sans-Serif" font-size="10.00">Model</text>
</a>
</g>
</g>
<!-- Node8&#45;&gt;Node9 -->
<g id="edge8" class="edge"><title>Node8&#45;&gt;Node9</title>
<path fill="none" stroke="midnightblue" d="M482.33,-113C492.127,-113 502.071,-113 511.713,-113"/>
<polygon fill="midnightblue" stroke="midnightblue" points="482.194,-109.5 472.194,-113 482.194,-116.5 482.194,-109.5"/>
</g>
<!-- Node11 -->
<g id="node11" class="node"><title>Node11</title>
<g id="a_node11"><a xlink:href="../../d3/d0c/classtests_1_1_ask_with_test.html#a54f2ed263239909256bb93e91afc3ecc" target="_top" xlink:title="tests.AskWithTest.testAlways\lTrueAskWith">
<polygon fill="white" stroke="black" points="322,-49 322,-79 476,-79 476,-49 322,-49"/>
<text text-anchor="start" x="330" y="-67" font-family="Helvetica,sans-Serif" font-size="10.00">tests.AskWithTest.testAlways</text>
<text text-anchor="middle" x="399" y="-56" font-family="Helvetica,sans-Serif" font-size="10.00">TrueAskWith</text>
</a>
</g>
</g>
<!-- Node10&#45;&gt;Node11 -->
<g id="edge10" class="edge"><title>Node10&#45;&gt;Node11</title>
<path fill="none" stroke="midnightblue" d="M296.263,-64C304.842,-64 313.515,-64 321.988,-64"/>
<polygon fill="midnightblue" stroke="midnightblue" points="296.252,-60.5001 286.252,-64 296.252,-67.5001 296.252,-60.5001"/>
</g>
<!-- Node12 -->
<g id="node12" class="node"><title>Node12</title>
<g id="a_node12"><a xlink:href="../../d3/d0c/classtests_1_1_ask_with_test.html#a49a8519276b23ed93a3f90d7c2058fc5" target="_top" xlink:title="tests.AskWithTest.testXCor\lAskWith">
<polygon fill="white" stroke="black" points="327.5,-0 327.5,-30 470.5,-30 470.5,-0 327.5,-0"/>
<text text-anchor="start" x="335.5" y="-18" font-family="Helvetica,sans-Serif" font-size="10.00">tests.AskWithTest.testXCor</text>
<text text-anchor="middle" x="399" y="-7" font-family="Helvetica,sans-Serif" font-size="10.00">AskWith</text>
</a>
</g>
</g>
<!-- Node10&#45;&gt;Node12 -->
<g id="edge11" class="edge"><title>Node10&#45;&gt;Node12</title>
<path fill="none" stroke="midnightblue" d="M257.184,-51.8982C282.396,-45.292 313.839,-37.0529 340.614,-30.037"/>
<polygon fill="midnightblue" stroke="midnightblue" points="256.286,-48.5155 247.499,-54.436 258.06,-55.2869 256.286,-48.5155"/>
</g>
</g>
</svg>
