<?xml version="1.0" encoding="UTF-8" standalone="no"?>
<!DOCTYPE svg PUBLIC "-//W3C//DTD SVG 1.1//EN"
 "http://www.w3.org/Graphics/SVG/1.1/DTD/svg11.dtd">
<!-- Generated by graphviz version 2.36.0 (20140111.2315)
 -->
<!-- Title: turtle.Turtle.setActiveStatus Pages: 1 -->
<svg width="468pt" height="66pt"
 viewBox="0.00 0.00 468.00 66.00" xmlns="http://www.w3.org/2000/svg" xmlns:xlink="http://www.w3.org/1999/xlink">
<g id="graph0" class="graph" transform="scale(1 1) rotate(0) translate(4 62)">
<title>turtle.Turtle.setActiveStatus</title>
<polygon fill="white" stroke="none" points="-4,4 -4,-62 464,-62 464,4 -4,4"/>
<!-- Node1 -->
<g id="node1" class="node"><title>Node1</title>
<polygon fill="#bfbfbf" stroke="black" points="0.5,-19.5 0.5,-38.5 149.5,-38.5 149.5,-19.5 0.5,-19.5"/>
<text text-anchor="middle" x="75" y="-26.5" font-family="Helvetica,sans-Serif" font-size="10.00">turtle.Turtle.setActiveStatus</text>
</g>
<!-- Node2 -->
<g id="node2" class="node"><title>Node2</title>
<g id="a_node2"><a xlink:href="../../df/dcb/classturtle_1_1_turtle.html#a21b702dbca940199ef74f67be4ba7905" target="_top" xlink:title="turtle.Turtle.setActive">
<polygon fill="white" stroke="black" points="190,-38.5 190,-57.5 308,-57.5 308,-38.5 190,-38.5"/>
<text text-anchor="middle" x="249" y="-45.5" font-family="Helvetica,sans-Serif" font-size="10.00">turtle.Turtle.setActive</text>
</a>
</g>
</g>
<!-- Node1&#45;&gt;Node2 -->
<g id="edge1" class="edge"><title>Node1&#45;&gt;Node2</title>
<path fill="none" stroke="midnightblue" d="M149.942,-37.168C159.875,-38.2653 170.028,-39.3868 179.856,-40.4724"/>
<polygon fill="midnightblue" stroke="midnightblue" points="179.632,-43.9689 189.956,-41.5882 180.401,-37.0113 179.632,-43.9689"/>
</g>
<!-- Node4 -->
<g id="node4" class="node"><title>Node4</title>
<g id="a_node4"><a xlink:href="../../df/dcb/classturtle_1_1_turtle.html#af9e8089cba994a27cc2fba25f3c9347d" target="_top" xlink:title="turtle.Turtle.setInactive">
<polygon fill="white" stroke="black" points="186.5,-0.5 186.5,-19.5 311.5,-19.5 311.5,-0.5 186.5,-0.5"/>
<text text-anchor="middle" x="249" y="-7.5" font-family="Helvetica,sans-Serif" font-size="10.00">turtle.Turtle.setInactive</text>
</a>
</g>
</g>
<!-- Node1&#45;&gt;Node4 -->
<g id="edge3" class="edge"><title>Node1&#45;&gt;Node4</title>
<path fill="none" stroke="midnightblue" d="M149.942,-20.832C158.646,-19.8706 167.518,-18.8905 176.191,-17.9323"/>
<polygon fill="midnightblue" stroke="midnightblue" points="176.706,-21.3969 186.261,-16.82 175.937,-14.4392 176.706,-21.3969"/>
</g>
<!-- Node3 -->
<g id="node3" class="node"><title>Node3</title>
<g id="a_node3"><a xlink:href="../../df/dcb/classturtle_1_1_turtle.html#aa707cc43bd4b23536dddc369e17e4d35" target="_top" xlink:title="turtle.Turtle.glow">
<polygon fill="white" stroke="black" points="356.5,-38.5 356.5,-57.5 451.5,-57.5 451.5,-38.5 356.5,-38.5"/>
<text text-anchor="middle" x="404" y="-45.5" font-family="Helvetica,sans-Serif" font-size="10.00">turtle.Turtle.glow</text>
</a>
</g>
</g>
<!-- Node2&#45;&gt;Node3 -->
<g id="edge2" class="edge"><title>Node2&#45;&gt;Node3</title>
<path fill="none" stroke="midnightblue" d="M308.279,-48C320.683,-48 333.765,-48 346.115,-48"/>
<polygon fill="midnightblue" stroke="midnightblue" points="346.286,-51.5001 356.286,-48 346.286,-44.5001 346.286,-51.5001"/>
</g>
<!-- Node5 -->
<g id="node5" class="node"><title>Node5</title>
<g id="a_node5"><a xlink:href="../../df/dcb/classturtle_1_1_turtle.html#ab7604e0b3263bdce34b92cfbfc39eaf0" target="_top" xlink:title="turtle.Turtle.dimmer">
<polygon fill="white" stroke="black" points="348.5,-0.5 348.5,-19.5 459.5,-19.5 459.5,-0.5 348.5,-0.5"/>
<text text-anchor="middle" x="404" y="-7.5" font-family="Helvetica,sans-Serif" font-size="10.00">turtle.Turtle.dimmer</text>
</a>
</g>
</g>
<!-- Node4&#45;&gt;Node5 -->
<g id="edge4" class="edge"><title>Node4&#45;&gt;Node5</title>
<path fill="none" stroke="midnightblue" d="M311.79,-10C320.493,-10 329.46,-10 338.217,-10"/>
<polygon fill="midnightblue" stroke="midnightblue" points="338.373,-13.5001 348.373,-10 338.373,-6.5001 338.373,-13.5001"/>
</g>
</g>
</svg>
