<?xml version="1.0" encoding="UTF-8" standalone="no"?>
<!DOCTYPE svg PUBLIC "-//W3C//DTD SVG 1.1//EN"
 "http://www.w3.org/Graphics/SVG/1.1/DTD/svg11.dtd">
<!-- Generated by graphviz version 2.36.0 (20140111.2315)
 -->
<!-- Title: turtle.Turtle.getXYCoordinates Pages: 1 -->
<svg width="762pt" height="137pt"
 viewBox="0.00 0.00 762.00 137.00" xmlns="http://www.w3.org/2000/svg" xmlns:xlink="http://www.w3.org/1999/xlink">
<g id="graph0" class="graph" transform="scale(1 1) rotate(0) translate(4 133)">
<title>turtle.Turtle.getXYCoordinates</title>
<polygon fill="white" stroke="none" points="-4,4 -4,-133 758,-133 758,4 -4,4"/>
<!-- Node1 -->
<g id="node1" class="node"><title>Node1</title>
<polygon fill="#bfbfbf" stroke="black" points="0,-36.5 0,-55.5 158,-55.5 158,-36.5 0,-36.5"/>
<text text-anchor="middle" x="79" y="-43.5" font-family="Helvetica,sans-Serif" font-size="10.00">turtle.Turtle.getXYCoordinates</text>
</g>
<!-- Node2 -->
<g id="node2" class="node"><title>Node2</title>
<g id="a_node2"><a xlink:href="../../df/dcb/classturtle_1_1_turtle.html#ab4ccc5acaf4924205497db6d8a8125b9" target="_top" xlink:title="turtle.Turtle.setPosition">
<polygon fill="white" stroke="black" points="206,-55.5 206,-74.5 332,-74.5 332,-55.5 206,-55.5"/>
<text text-anchor="middle" x="269" y="-62.5" font-family="Helvetica,sans-Serif" font-size="10.00">turtle.Turtle.setPosition</text>
</a>
</g>
</g>
<!-- Node1&#45;&gt;Node2 -->
<g id="edge1" class="edge"><title>Node1&#45;&gt;Node2</title>
<path fill="none" stroke="midnightblue" d="M168.249,-54.9187C180.968,-56.2042 193.829,-57.504 205.894,-58.7234"/>
<polygon fill="midnightblue" stroke="midnightblue" points="168.397,-51.416 158.096,-53.8926 167.693,-58.3805 168.397,-51.416"/>
</g>
<!-- Node7 -->
<g id="node7" class="node"><title>Node7</title>
<g id="a_node7"><a xlink:href="../../df/dcb/classturtle_1_1_turtle.html#a5f1e98a10bb09ba8a75ec2c1dffdeb06" target="_top" xlink:title="turtle.Turtle.towardsPosition">
<polygon fill="white" stroke="black" points="194.5,-17.5 194.5,-36.5 343.5,-36.5 343.5,-17.5 194.5,-17.5"/>
<text text-anchor="middle" x="269" y="-24.5" font-family="Helvetica,sans-Serif" font-size="10.00">turtle.Turtle.towardsPosition</text>
</a>
</g>
</g>
<!-- Node1&#45;&gt;Node7 -->
<g id="edge6" class="edge"><title>Node1&#45;&gt;Node7</title>
<path fill="none" stroke="midnightblue" d="M168.292,-37.0769C177.018,-36.195 185.811,-35.3064 194.367,-34.4417"/>
<polygon fill="midnightblue" stroke="midnightblue" points="167.693,-33.6195 158.096,-38.1074 168.397,-40.584 167.693,-33.6195"/>
</g>
<!-- Node3 -->
<g id="node3" class="node"><title>Node3</title>
<g id="a_node3"><a xlink:href="../../d7/d28/classcommands_1_1information_1_1_base_turtle_container.html#a5d86cfae201525f3446fc58eb5c7df7c" target="_top" xlink:title="commands.information.Base\lTurtleContainer.setPosition">
<polygon fill="white" stroke="black" points="380.5,-50 380.5,-80 535.5,-80 535.5,-50 380.5,-50"/>
<text text-anchor="start" x="388.5" y="-68" font-family="Helvetica,sans-Serif" font-size="10.00">commands.information.Base</text>
<text text-anchor="middle" x="458" y="-57" font-family="Helvetica,sans-Serif" font-size="10.00">TurtleContainer.setPosition</text>
</a>
</g>
</g>
<!-- Node2&#45;&gt;Node3 -->
<g id="edge2" class="edge"><title>Node2&#45;&gt;Node3</title>
<path fill="none" stroke="midnightblue" d="M342.362,-65C354.862,-65 367.893,-65 380.498,-65"/>
<polygon fill="midnightblue" stroke="midnightblue" points="342.009,-61.5001 332.009,-65 342.009,-68.5001 342.009,-61.5001"/>
</g>
<!-- Node4 -->
<g id="node4" class="node"><title>Node4</title>
<g id="a_node4"><a xlink:href="../../df/d55/classcommands_1_1view_commands_1_1_clear_screen_command.html#ae22b9c821c2d07903bdcea4eaad1f959" target="_top" xlink:title="commands.viewCommands.Clear\lScreenCommand.onExecute">
<polygon fill="white" stroke="black" points="574.5,-99 574.5,-129 751.5,-129 751.5,-99 574.5,-99"/>
<text text-anchor="start" x="582.5" y="-117" font-family="Helvetica,sans-Serif" font-size="10.00">commands.viewCommands.Clear</text>
<text text-anchor="middle" x="663" y="-106" font-family="Helvetica,sans-Serif" font-size="10.00">ScreenCommand.onExecute</text>
</a>
</g>
</g>
<!-- Node3&#45;&gt;Node4 -->
<g id="edge3" class="edge"><title>Node3&#45;&gt;Node4</title>
<path fill="none" stroke="midnightblue" d="M531.102,-82.4038C553.558,-87.8243 578.116,-93.752 599.832,-98.9938"/>
<polygon fill="midnightblue" stroke="midnightblue" points="531.828,-78.9788 521.286,-80.0346 530.186,-85.7834 531.828,-78.9788"/>
</g>
<!-- Node5 -->
<g id="node5" class="node"><title>Node5</title>
<g id="a_node5"><a xlink:href="../../d9/d14/classcommands_1_1turtle_commands_1_1_set_position_command.html#a1ff02e56e7927a1002a7412040c98e77" target="_top" xlink:title="commands.turtleCommands.\lSetPositionCommand.onExecute">
<polygon fill="white" stroke="black" points="576,-50 576,-80 750,-80 750,-50 576,-50"/>
<text text-anchor="start" x="584" y="-68" font-family="Helvetica,sans-Serif" font-size="10.00">commands.turtleCommands.</text>
<text text-anchor="middle" x="663" y="-57" font-family="Helvetica,sans-Serif" font-size="10.00">SetPositionCommand.onExecute</text>
</a>
</g>
</g>
<!-- Node3&#45;&gt;Node5 -->
<g id="edge4" class="edge"><title>Node3&#45;&gt;Node5</title>
<path fill="none" stroke="midnightblue" d="M546.007,-65C555.935,-65 566.052,-65 575.967,-65"/>
<polygon fill="midnightblue" stroke="midnightblue" points="545.746,-61.5001 535.746,-65 545.746,-68.5001 545.746,-61.5001"/>
</g>
<!-- Node6 -->
<g id="node6" class="node"><title>Node6</title>
<g id="a_node6"><a xlink:href="../../db/dc5/classcommands_1_1view_commands_1_1_home_command.html#a91670541a28ed18996a9bc3433029857" target="_top" xlink:title="commands.viewCommands.Home\lCommand.onExecute">
<polygon fill="white" stroke="black" points="572,-1 572,-31 754,-31 754,-1 572,-1"/>
<text text-anchor="start" x="580" y="-19" font-family="Helvetica,sans-Serif" font-size="10.00">commands.viewCommands.Home</text>
<text text-anchor="middle" x="663" y="-8" font-family="Helvetica,sans-Serif" font-size="10.00">Command.onExecute</text>
</a>
</g>
</g>
<!-- Node3&#45;&gt;Node6 -->
<g id="edge5" class="edge"><title>Node3&#45;&gt;Node6</title>
<path fill="none" stroke="midnightblue" d="M531.102,-47.5962C553.558,-42.1757 578.116,-36.248 599.832,-31.0062"/>
<polygon fill="midnightblue" stroke="midnightblue" points="530.186,-44.2166 521.286,-49.9654 531.828,-51.0212 530.186,-44.2166"/>
</g>
</g>
</svg>
