<?xml version="1.0" encoding="UTF-8" standalone="no"?>
<!DOCTYPE svg PUBLIC "-//W3C//DTD SVG 1.1//EN"
 "http://www.w3.org/Graphics/SVG/1.1/DTD/svg11.dtd">
<!-- Generated by graphviz version 2.36.0 (20140111.2315)
 -->
<!-- Title: turtle.Turtle.setPosition Pages: 1 -->
<svg width="656pt" height="142pt"
 viewBox="0.00 0.00 656.00 142.00" xmlns="http://www.w3.org/2000/svg" xmlns:xlink="http://www.w3.org/1999/xlink">
<g id="graph0" class="graph" transform="scale(1 1) rotate(0) translate(4 138)">
<title>turtle.Turtle.setPosition</title>
<polygon fill="white" stroke="none" points="-4,4 -4,-138 652,-138 652,4 -4,4"/>
<!-- Node1 -->
<g id="node1" class="node"><title>Node1</title>
<polygon fill="#bfbfbf" stroke="black" points="0,-38.5 0,-57.5 126,-57.5 126,-38.5 0,-38.5"/>
<text text-anchor="middle" x="63" y="-45.5" font-family="Helvetica,sans-Serif" font-size="10.00">turtle.Turtle.setPosition</text>
</g>
<!-- Node2 -->
<g id="node2" class="node"><title>Node2</title>
<g id="a_node2"><a xlink:href="../../df/dcb/classturtle_1_1_turtle.html#a569289374749eb6dcf64e0ed1ec7b9b2" target="_top" xlink:title="turtle.Turtle.getXYCoordinates">
<polygon fill="white" stroke="black" points="162,-76.5 162,-95.5 320,-95.5 320,-76.5 162,-76.5"/>
<text text-anchor="middle" x="241" y="-83.5" font-family="Helvetica,sans-Serif" font-size="10.00">turtle.Turtle.getXYCoordinates</text>
</a>
</g>
</g>
<!-- Node1&#45;&gt;Node2 -->
<g id="edge1" class="edge"><title>Node1&#45;&gt;Node2</title>
<path fill="none" stroke="midnightblue" d="M108.412,-57.589C131.951,-62.6713 161.057,-68.9554 185.905,-74.3203"/>
<polygon fill="midnightblue" stroke="midnightblue" points="185.394,-77.7906 195.907,-76.4799 186.871,-70.9482 185.394,-77.7906"/>
</g>
<!-- Node7 -->
<g id="node7" class="node"><title>Node7</title>
<g id="a_node7"><a xlink:href="../../df/dcb/classturtle_1_1_turtle.html#a5db281fc734edd965ff0faddbab871d7" target="_top" xlink:title="turtle.Turtle.setXPos">
<polygon fill="white" stroke="black" points="362,-38.5 362,-57.5 474,-57.5 474,-38.5 362,-38.5"/>
<text text-anchor="middle" x="418" y="-45.5" font-family="Helvetica,sans-Serif" font-size="10.00">turtle.Turtle.setXPos</text>
</a>
</g>
</g>
<!-- Node1&#45;&gt;Node7 -->
<g id="edge6" class="edge"><title>Node1&#45;&gt;Node7</title>
<path fill="none" stroke="midnightblue" d="M126.297,-48C189.705,-48 287.576,-48 351.958,-48"/>
<polygon fill="midnightblue" stroke="midnightblue" points="351.993,-51.5001 361.993,-48 351.993,-44.5001 351.993,-51.5001"/>
</g>
<!-- Node10 -->
<g id="node10" class="node"><title>Node10</title>
<g id="a_node10"><a xlink:href="../../df/dcb/classturtle_1_1_turtle.html#a1107426e66ec049d5e3d1c1783a463db" target="_top" xlink:title="turtle.Turtle.setYPos">
<polygon fill="white" stroke="black" points="185.5,-0.5 185.5,-19.5 296.5,-19.5 296.5,-0.5 185.5,-0.5"/>
<text text-anchor="middle" x="241" y="-7.5" font-family="Helvetica,sans-Serif" font-size="10.00">turtle.Turtle.setYPos</text>
</a>
</g>
</g>
<!-- Node1&#45;&gt;Node10 -->
<g id="edge11" class="edge"><title>Node1&#45;&gt;Node10</title>
<path fill="none" stroke="midnightblue" d="M108.412,-38.411C131.951,-33.3287 161.057,-27.0446 185.905,-21.6797"/>
<polygon fill="midnightblue" stroke="midnightblue" points="186.871,-25.0518 195.907,-19.5201 185.394,-18.2094 186.871,-25.0518"/>
</g>
<!-- Node3 -->
<g id="node3" class="node"><title>Node3</title>
<g id="a_node3"><a xlink:href="../../df/dcb/classturtle_1_1_turtle.html#aa576ade68e2f453b037ea2a3c456d466" target="_top" xlink:title="turtle.Turtle.getXPos">
<polygon fill="white" stroke="black" points="361.5,-114.5 361.5,-133.5 474.5,-133.5 474.5,-114.5 361.5,-114.5"/>
<text text-anchor="middle" x="418" y="-121.5" font-family="Helvetica,sans-Serif" font-size="10.00">turtle.Turtle.getXPos</text>
</a>
</g>
</g>
<!-- Node2&#45;&gt;Node3 -->
<g id="edge2" class="edge"><title>Node2&#45;&gt;Node3</title>
<path fill="none" stroke="midnightblue" d="M286.16,-95.589C309.565,-100.671 338.505,-106.955 363.212,-112.32"/>
<polygon fill="midnightblue" stroke="midnightblue" points="362.643,-115.778 373.158,-114.48 364.128,-108.938 362.643,-115.778"/>
</g>
<!-- Node5 -->
<g id="node5" class="node"><title>Node5</title>
<g id="a_node5"><a xlink:href="../../df/dcb/classturtle_1_1_turtle.html#a735b5aa0bce5a53d2c75322fb2ad9130" target="_top" xlink:title="turtle.Turtle.getYPos">
<polygon fill="white" stroke="black" points="362,-76.5 362,-95.5 474,-95.5 474,-76.5 362,-76.5"/>
<text text-anchor="middle" x="418" y="-83.5" font-family="Helvetica,sans-Serif" font-size="10.00">turtle.Turtle.getYPos</text>
</a>
</g>
</g>
<!-- Node2&#45;&gt;Node5 -->
<g id="edge4" class="edge"><title>Node2&#45;&gt;Node5</title>
<path fill="none" stroke="midnightblue" d="M320.032,-86C330.627,-86 341.41,-86 351.75,-86"/>
<polygon fill="midnightblue" stroke="midnightblue" points="351.917,-89.5001 361.917,-86 351.917,-82.5001 351.917,-89.5001"/>
</g>
<!-- Node4 -->
<g id="node4" class="node"><title>Node4</title>
<g id="a_node4"><a xlink:href="../../d1/dbe/classturtle_1_1_position.html#a1d079c846ce96bf1c57da388c46669e1" target="_top" xlink:title="turtle.Position.getXPos">
<polygon fill="white" stroke="black" points="519.5,-114.5 519.5,-133.5 644.5,-133.5 644.5,-114.5 519.5,-114.5"/>
<text text-anchor="middle" x="582" y="-121.5" font-family="Helvetica,sans-Serif" font-size="10.00">turtle.Position.getXPos</text>
</a>
</g>
</g>
<!-- Node3&#45;&gt;Node4 -->
<g id="edge3" class="edge"><title>Node3&#45;&gt;Node4</title>
<path fill="none" stroke="midnightblue" d="M474.751,-124C485.865,-124 497.684,-124 509.247,-124"/>
<polygon fill="midnightblue" stroke="midnightblue" points="509.32,-127.5 519.32,-124 509.32,-120.5 509.32,-127.5"/>
</g>
<!-- Node6 -->
<g id="node6" class="node"><title>Node6</title>
<g id="a_node6"><a xlink:href="../../d1/dbe/classturtle_1_1_position.html#a3a68708e4dc3290c4ef0ecd511cc8c1f" target="_top" xlink:title="turtle.Position.getYPos">
<polygon fill="white" stroke="black" points="520,-76.5 520,-95.5 644,-95.5 644,-76.5 520,-76.5"/>
<text text-anchor="middle" x="582" y="-83.5" font-family="Helvetica,sans-Serif" font-size="10.00">turtle.Position.getYPos</text>
</a>
</g>
</g>
<!-- Node5&#45;&gt;Node6 -->
<g id="edge5" class="edge"><title>Node5&#45;&gt;Node6</title>
<path fill="none" stroke="midnightblue" d="M474.298,-86C485.641,-86 497.734,-86 509.552,-86"/>
<polygon fill="midnightblue" stroke="midnightblue" points="509.841,-89.5001 519.841,-86 509.841,-82.5001 509.841,-89.5001"/>
</g>
<!-- Node7&#45;&gt;Node4 -->
<g id="edge8" class="edge"><title>Node7&#45;&gt;Node4</title>
<path fill="none" stroke="midnightblue" d="M459.98,-57.5805C466.936,-60.086 473.881,-63.1874 480,-67 499.746,-79.3022 496.147,-92.8717 516,-105 519.555,-107.172 523.372,-109.107 527.309,-110.828"/>
<polygon fill="midnightblue" stroke="midnightblue" points="526.061,-114.098 536.65,-114.47 528.604,-107.576 526.061,-114.098"/>
</g>
<!-- Node7&#45;&gt;Node6 -->
<g id="edge9" class="edge"><title>Node7&#45;&gt;Node6</title>
<path fill="none" stroke="midnightblue" d="M459.879,-57.589C481.353,-62.6261 507.86,-68.8438 530.597,-74.1771"/>
<polygon fill="midnightblue" stroke="midnightblue" points="529.879,-77.6037 540.415,-76.4799 531.478,-70.7887 529.879,-77.6037"/>
</g>
<!-- Node8 -->
<g id="node8" class="node"><title>Node8</title>
<g id="a_node8"><a xlink:href="../../d1/dbe/classturtle_1_1_position.html#af03c1c3b306f6c12d2ec52a00fde50eb" target="_top" xlink:title="turtle.Position.setXPos">
<polygon fill="white" stroke="black" points="520,-38.5 520,-57.5 644,-57.5 644,-38.5 520,-38.5"/>
<text text-anchor="middle" x="582" y="-45.5" font-family="Helvetica,sans-Serif" font-size="10.00">turtle.Position.setXPos</text>
</a>
</g>
</g>
<!-- Node7&#45;&gt;Node8 -->
<g id="edge7" class="edge"><title>Node7&#45;&gt;Node8</title>
<path fill="none" stroke="midnightblue" d="M474.298,-48C485.641,-48 497.734,-48 509.552,-48"/>
<polygon fill="midnightblue" stroke="midnightblue" points="509.841,-51.5001 519.841,-48 509.841,-44.5001 509.841,-51.5001"/>
</g>
<!-- Node9 -->
<g id="node9" class="node"><title>Node9</title>
<g id="a_node9"><a xlink:href="../../d1/dbe/classturtle_1_1_position.html#a7bfd27ea2bf5e22d8de4a4e87b4df2ec" target="_top" xlink:title="turtle.Position.getRotate">
<polygon fill="white" stroke="black" points="516,-0.5 516,-19.5 648,-19.5 648,-0.5 516,-0.5"/>
<text text-anchor="middle" x="582" y="-7.5" font-family="Helvetica,sans-Serif" font-size="10.00">turtle.Position.getRotate</text>
</a>
</g>
</g>
<!-- Node7&#45;&gt;Node9 -->
<g id="edge10" class="edge"><title>Node7&#45;&gt;Node9</title>
<path fill="none" stroke="midnightblue" d="M459.879,-38.411C481.353,-33.3739 507.86,-27.1562 530.597,-21.8229"/>
<polygon fill="midnightblue" stroke="midnightblue" points="531.478,-25.2113 540.415,-19.5201 529.879,-18.3963 531.478,-25.2113"/>
</g>
<!-- Node11 -->
<g id="node11" class="node"><title>Node11</title>
<g id="a_node11"><a xlink:href="../../d1/dbe/classturtle_1_1_position.html#a7c26cf9316a28fb4821731864ed28c95" target="_top" xlink:title="turtle.Position.setYPos">
<polygon fill="white" stroke="black" points="356.5,-0.5 356.5,-19.5 479.5,-19.5 479.5,-0.5 356.5,-0.5"/>
<text text-anchor="middle" x="418" y="-7.5" font-family="Helvetica,sans-Serif" font-size="10.00">turtle.Position.setYPos</text>
</a>
</g>
</g>
<!-- Node10&#45;&gt;Node11 -->
<g id="edge12" class="edge"><title>Node10&#45;&gt;Node11</title>
<path fill="none" stroke="midnightblue" d="M296.891,-10C312.497,-10 329.717,-10 346.128,-10"/>
<polygon fill="midnightblue" stroke="midnightblue" points="346.219,-13.5001 356.219,-10 346.219,-6.5001 346.219,-13.5001"/>
</g>
</g>
</svg>
