<?xml version="1.0" encoding="UTF-8" standalone="no"?>
<!DOCTYPE svg PUBLIC "-//W3C//DTD SVG 1.1//EN"
 "http://www.w3.org/Graphics/SVG/1.1/DTD/svg11.dtd">
<!-- Generated by graphviz version 2.36.0 (20140111.2315)
 -->
<!-- Title: turtle.Turtle.setInactive Pages: 1 -->
<svg width="518pt" height="38pt"
 viewBox="0.00 0.00 518.00 38.00" xmlns="http://www.w3.org/2000/svg" xmlns:xlink="http://www.w3.org/1999/xlink">
<g id="graph0" class="graph" transform="scale(1 1) rotate(0) translate(4 34)">
<title>turtle.Turtle.setInactive</title>
<polygon fill="white" stroke="none" points="-4,4 -4,-34 514,-34 514,4 -4,4"/>
<!-- Node1 -->
<g id="node1" class="node"><title>Node1</title>
<polygon fill="#bfbfbf" stroke="black" points="0.5,-5.5 0.5,-24.5 125.5,-24.5 125.5,-5.5 0.5,-5.5"/>
<text text-anchor="middle" x="63" y="-12.5" font-family="Helvetica,sans-Serif" font-size="10.00">turtle.Turtle.setInactive</text>
</g>
<!-- Node2 -->
<g id="node2" class="node"><title>Node2</title>
<g id="a_node2"><a xlink:href="../../df/dcb/classturtle_1_1_turtle.html#a6dfb634504ad14e4496e33c5afd16bd8" target="_top" xlink:title="turtle.Turtle.setActiveStatus">
<polygon fill="white" stroke="black" points="162.5,-5.5 162.5,-24.5 311.5,-24.5 311.5,-5.5 162.5,-5.5"/>
<text text-anchor="middle" x="237" y="-12.5" font-family="Helvetica,sans-Serif" font-size="10.00">turtle.Turtle.setActiveStatus</text>
</a>
</g>
</g>
<!-- Node1&#45;&gt;Node2 -->
<g id="edge1" class="edge"><title>Node1&#45;&gt;Node2</title>
<path fill="none" stroke="midnightblue" d="M135.835,-15C144.644,-15 153.658,-15 162.491,-15"/>
<polygon fill="midnightblue" stroke="midnightblue" points="135.61,-11.5001 125.61,-15 135.61,-18.5001 135.61,-11.5001"/>
</g>
<!-- Node3 -->
<g id="node3" class="node"><title>Node3</title>
<g id="a_node3"><a xlink:href="../../dd/d99/classcommands_1_1information_1_1_single_grid_turtle_container.html#a7e33859e4c8fd9e6c50a4548df5e4899" target="_top" xlink:title="commands.information.Single\lGridTurtleContainer.addTurtle">
<polygon fill="white" stroke="black" points="348.5,-0 348.5,-30 509.5,-30 509.5,-0 348.5,-0"/>
<text text-anchor="start" x="356.5" y="-18" font-family="Helvetica,sans-Serif" font-size="10.00">commands.information.Single</text>
<text text-anchor="middle" x="429" y="-7" font-family="Helvetica,sans-Serif" font-size="10.00">GridTurtleContainer.addTurtle</text>
</a>
</g>
</g>
<!-- Node2&#45;&gt;Node3 -->
<g id="edge2" class="edge"><title>Node2&#45;&gt;Node3</title>
<path fill="none" stroke="midnightblue" d="M321.947,-15C330.716,-15 339.611,-15 348.33,-15"/>
<polygon fill="midnightblue" stroke="midnightblue" points="321.731,-11.5001 311.731,-15 321.731,-18.5001 321.731,-11.5001"/>
</g>
</g>
</svg>
