<?xml version="1.0" encoding="UTF-8" standalone="no"?>
<!DOCTYPE svg PUBLIC "-//W3C//DTD SVG 1.1//EN"
 "http://www.w3.org/Graphics/SVG/1.1/DTD/svg11.dtd">
<!-- Generated by graphviz version 2.36.0 (20140111.2315)
 -->
<!-- Title: turtle.Turtle.moveVertical Pages: 1 -->
<svg width="474pt" height="126pt"
 viewBox="0.00 0.00 474.00 126.00" xmlns="http://www.w3.org/2000/svg" xmlns:xlink="http://www.w3.org/1999/xlink">
<g id="graph0" class="graph" transform="scale(1 1) rotate(0) translate(4 122)">
<title>turtle.Turtle.moveVertical</title>
<polygon fill="white" stroke="none" points="-4,4 -4,-122 470,-122 470,4 -4,4"/>
<!-- Node1 -->
<g id="node1" class="node"><title>Node1</title>
<polygon fill="#bfbfbf" stroke="black" points="0,-54.5 0,-73.5 136,-73.5 136,-54.5 0,-54.5"/>
<text text-anchor="middle" x="68" y="-61.5" font-family="Helvetica,sans-Serif" font-size="10.00">turtle.Turtle.moveVertical</text>
</g>
<!-- Node2 -->
<g id="node2" class="node"><title>Node2</title>
<g id="a_node2"><a xlink:href="../../df/dcb/classturtle_1_1_turtle.html#a81e35bc42c3ccb26e25ded71026cb173" target="_top" xlink:title="turtle.Turtle.move">
<polygon fill="white" stroke="black" points="172.5,-54.5 172.5,-73.5 273.5,-73.5 273.5,-54.5 172.5,-54.5"/>
<text text-anchor="middle" x="223" y="-61.5" font-family="Helvetica,sans-Serif" font-size="10.00">turtle.Turtle.move</text>
</a>
</g>
</g>
<!-- Node1&#45;&gt;Node2 -->
<g id="edge1" class="edge"><title>Node1&#45;&gt;Node2</title>
<path fill="none" stroke="midnightblue" d="M146.166,-64C155.093,-64 164.008,-64 172.424,-64"/>
<polygon fill="midnightblue" stroke="midnightblue" points="146.108,-60.5001 136.108,-64 146.108,-67.5001 146.108,-60.5001"/>
</g>
<!-- Node3 -->
<g id="node3" class="node"><title>Node3</title>
<g id="a_node3"><a xlink:href="../../d9/db1/class_view_1_1_single_grid.html#ace412ccdbcf0cdf6a20ac1e4102a15b5" target="_top" xlink:title="View.SingleGrid.addTurtle">
<polygon fill="white" stroke="black" points="320,-98.5 320,-117.5 456,-117.5 456,-98.5 320,-98.5"/>
<text text-anchor="middle" x="388" y="-105.5" font-family="Helvetica,sans-Serif" font-size="10.00">View.SingleGrid.addTurtle</text>
</a>
</g>
</g>
<!-- Node2&#45;&gt;Node3 -->
<g id="edge2" class="edge"><title>Node2&#45;&gt;Node3</title>
<path fill="none" stroke="midnightblue" d="M267.867,-76.4064C281.367,-80.1801 296.284,-84.3051 310,-88 322.936,-91.4848 337.124,-95.2001 349.758,-98.471"/>
<polygon fill="midnightblue" stroke="midnightblue" points="268.437,-72.9312 257.863,-73.602 266.547,-79.6714 268.437,-72.9312"/>
</g>
<!-- Node4 -->
<g id="node4" class="node"><title>Node4</title>
<g id="a_node4"><a xlink:href="../../d7/d28/classcommands_1_1information_1_1_base_turtle_container.html#aa12129a5802271b2ac4dd6142d77f917" target="_top" xlink:title="commands.information.Base\lTurtleContainer.move">
<polygon fill="white" stroke="black" points="310.5,-49 310.5,-79 465.5,-79 465.5,-49 310.5,-49"/>
<text text-anchor="start" x="318.5" y="-67" font-family="Helvetica,sans-Serif" font-size="10.00">commands.information.Base</text>
<text text-anchor="middle" x="388" y="-56" font-family="Helvetica,sans-Serif" font-size="10.00">TurtleContainer.move</text>
</a>
</g>
</g>
<!-- Node2&#45;&gt;Node4 -->
<g id="edge3" class="edge"><title>Node2&#45;&gt;Node4</title>
<path fill="none" stroke="midnightblue" d="M283.802,-64C292.49,-64 301.534,-64 310.496,-64"/>
<polygon fill="midnightblue" stroke="midnightblue" points="283.791,-60.5001 273.791,-64 283.791,-67.5001 283.791,-60.5001"/>
</g>
<!-- Node5 -->
<g id="node5" class="node"><title>Node5</title>
<g id="a_node5"><a xlink:href="../../d0/d4f/class_view_1_1_turtle_movement.html#ad6ff133518a15c28187a623f058bc6bf" target="_top" xlink:title="View.TurtleMovement.Turtle\lMovement">
<polygon fill="white" stroke="black" points="315,-0 315,-30 461,-30 461,-0 315,-0"/>
<text text-anchor="start" x="323" y="-18" font-family="Helvetica,sans-Serif" font-size="10.00">View.TurtleMovement.Turtle</text>
<text text-anchor="middle" x="388" y="-7" font-family="Helvetica,sans-Serif" font-size="10.00">Movement</text>
</a>
</g>
</g>
<!-- Node2&#45;&gt;Node5 -->
<g id="edge4" class="edge"><title>Node2&#45;&gt;Node5</title>
<path fill="none" stroke="midnightblue" d="M265.429,-51.5459C287.202,-45.0008 314.054,-36.9287 336.979,-30.037"/>
<polygon fill="midnightblue" stroke="midnightblue" points="264.384,-48.2052 255.815,-54.436 266.399,-54.9089 264.384,-48.2052"/>
</g>
</g>
</svg>
