<?xml version="1.0" encoding="UTF-8" standalone="no"?>
<!DOCTYPE svg PUBLIC "-//W3C//DTD SVG 1.1//EN"
 "http://www.w3.org/Graphics/SVG/1.1/DTD/svg11.dtd">
<!-- Generated by graphviz version 2.36.0 (20140111.2315)
 -->
<!-- Title: View.PenScrollingBar Pages: 1 -->
<svg width="391pt" height="154pt"
 viewBox="0.00 0.00 391.00 154.00" xmlns="http://www.w3.org/2000/svg" xmlns:xlink="http://www.w3.org/1999/xlink">
<g id="graph0" class="graph" transform="scale(1 1) rotate(0) translate(4 150)">
<title>View.PenScrollingBar</title>
<polygon fill="white" stroke="none" points="-4,4 -4,-150 387,-150 387,4 -4,4"/>
<!-- Node1 -->
<g id="node1" class="node"><title>Node1</title>
<polygon fill="#bfbfbf" stroke="black" points="101,-0.5 101,-19.5 217,-19.5 217,-0.5 101,-0.5"/>
<text text-anchor="middle" x="159" y="-7.5" font-family="Helvetica,sans-Serif" font-size="10.00">View.PenScrollingBar</text>
</g>
<!-- Node2 -->
<g id="node2" class="node"><title>Node2</title>
<g id="a_node2"><a xlink:href="../../db/dce/class_view_1_1_scrolling_bar.html" target="_top" xlink:title="View.ScrollingBar">
<polygon fill="white" stroke="black" points="110,-58.5 110,-77.5 208,-77.5 208,-58.5 110,-58.5"/>
<text text-anchor="middle" x="159" y="-65.5" font-family="Helvetica,sans-Serif" font-size="10.00">View.ScrollingBar</text>
</a>
</g>
</g>
<!-- Node2&#45;&gt;Node1 -->
<g id="edge1" class="edge"><title>Node2&#45;&gt;Node1</title>
<path fill="none" stroke="midnightblue" d="M159,-47.953C159,-38.2875 159,-27.0312 159,-19.5052"/>
<polygon fill="midnightblue" stroke="midnightblue" points="155.5,-48.25 159,-58.25 162.5,-48.25 155.5,-48.25"/>
</g>
<!-- Node3 -->
<g id="node3" class="node"><title>Node3</title>
<polygon fill="white" stroke="#bfbfbf" points="0,-126.5 0,-145.5 46,-145.5 46,-126.5 0,-126.5"/>
<text text-anchor="middle" x="23" y="-133.5" font-family="Helvetica,sans-Serif" font-size="10.00">Group</text>
</g>
<!-- Node3&#45;&gt;Node2 -->
<g id="edge2" class="edge"><title>Node3&#45;&gt;Node2</title>
<path fill="none" stroke="midnightblue" d="M50.072,-121.862C77.1447,-108.724 118,-88.8969 141.216,-77.6305"/>
<polygon fill="midnightblue" stroke="midnightblue" points="48.2481,-118.857 40.7796,-126.372 51.3043,-125.154 48.2481,-118.857"/>
</g>
<!-- Node4 -->
<g id="node4" class="node"><title>Node4</title>
<g id="a_node4"><a xlink:href="../../dd/dfc/interface_view_1_1_user_objects.html" target="_top" xlink:title="View.UserObjects">
<polygon fill="white" stroke="black" points="64.5,-126.5 64.5,-145.5 163.5,-145.5 163.5,-126.5 64.5,-126.5"/>
<text text-anchor="middle" x="114" y="-133.5" font-family="Helvetica,sans-Serif" font-size="10.00">View.UserObjects</text>
</a>
</g>
</g>
<!-- Node4&#45;&gt;Node2 -->
<g id="edge3" class="edge"><title>Node4&#45;&gt;Node2</title>
<path fill="none" stroke="midnightblue" d="M125.633,-117.938C134.378,-105.112 146.005,-88.0591 152.972,-77.8411"/>
<polygon fill="midnightblue" stroke="midnightblue" points="122.625,-116.138 119.883,-126.372 128.408,-120.081 122.625,-116.138"/>
</g>
<!-- Node5 -->
<g id="node5" class="node"><title>Node5</title>
<polygon fill="white" stroke="#bfbfbf" points="182,-126.5 182,-145.5 226,-145.5 226,-126.5 182,-126.5"/>
<text text-anchor="middle" x="204" y="-133.5" font-family="Helvetica,sans-Serif" font-size="10.00">Slider</text>
</g>
<!-- Node5&#45;&gt;Node2 -->
<g id="edge4" class="edge"><title>Node5&#45;&gt;Node2</title>
<path fill="none" stroke="#9a32cd" stroke-dasharray="5,2" d="M192.367,-117.938C183.622,-105.112 171.995,-88.0591 165.028,-77.8411"/>
<polygon fill="#9a32cd" stroke="#9a32cd" points="189.592,-120.081 198.117,-126.372 195.375,-116.138 189.592,-120.081"/>
<text text-anchor="middle" x="203.5" y="-99.5" font-family="Helvetica,sans-Serif" font-size="10.00"> myBar</text>
</g>
<!-- Node6 -->
<g id="node6" class="node"><title>Node6</title>
<g id="a_node6"><a xlink:href="../../d1/df5/interface_g_u_i_functions_1_1_g_u_i_function.html" target="_top" xlink:title="GUIFunctions.GUIFunction">
<polygon fill="white" stroke="black" points="244.5,-126.5 244.5,-145.5 383.5,-145.5 383.5,-126.5 244.5,-126.5"/>
<text text-anchor="middle" x="314" y="-133.5" font-family="Helvetica,sans-Serif" font-size="10.00">GUIFunctions.GUIFunction</text>
</a>
</g>
</g>
<!-- Node6&#45;&gt;Node2 -->
<g id="edge5" class="edge"><title>Node6&#45;&gt;Node2</title>
<path fill="none" stroke="#9a32cd" stroke-dasharray="5,2" d="M285.382,-122.245C267.971,-114.539 245.257,-104.58 225,-96 210.067,-89.6746 193.134,-82.7527 180.159,-77.5012"/>
<polygon fill="#9a32cd" stroke="#9a32cd" points="284.401,-125.639 294.961,-126.495 287.24,-119.241 284.401,-125.639"/>
<text text-anchor="middle" x="281" y="-99.5" font-family="Helvetica,sans-Serif" font-size="10.00"> myFunction</text>
</g>
</g>
</svg>
