<?xml version="1.0" encoding="UTF-8" standalone="no"?>
<!DOCTYPE svg PUBLIC "-//W3C//DTD SVG 1.1//EN"
 "http://www.w3.org/Graphics/SVG/1.1/DTD/svg11.dtd">
<!-- Generated by graphviz version 2.36.0 (20140111.2315)
 -->
<!-- Title: commands.controlCommands.DoCommand.checkIfVariableExistsPreviously Pages: 1 -->
<svg width="392pt" height="48pt"
 viewBox="0.00 0.00 392.00 48.00" xmlns="http://www.w3.org/2000/svg" xmlns:xlink="http://www.w3.org/1999/xlink">
<g id="graph0" class="graph" transform="scale(1 1) rotate(0) translate(4 44)">
<title>commands.controlCommands.DoCommand.checkIfVariableExistsPreviously</title>
<polygon fill="white" stroke="none" points="-4,4 -4,-44 388,-44 388,4 -4,4"/>
<!-- Node1 -->
<g id="node1" class="node"><title>Node1</title>
<polygon fill="#bfbfbf" stroke="black" points="0,0.5 0,-40.5 182,-40.5 182,0.5 0,0.5"/>
<text text-anchor="start" x="8" y="-28.5" font-family="Helvetica,sans-Serif" font-size="10.00">commands.controlCommands.</text>
<text text-anchor="start" x="8" y="-17.5" font-family="Helvetica,sans-Serif" font-size="10.00">DoCommand.checkIfVariableExists</text>
<text text-anchor="middle" x="91" y="-6.5" font-family="Helvetica,sans-Serif" font-size="10.00">Previously</text>
</g>
<!-- Node2 -->
<g id="node2" class="node"><title>Node2</title>
<g id="a_node2"><a xlink:href="../../d8/d84/classcommands_1_1control_commands_1_1_do_command.html#aa4653733a73cf8ab1e68e8cb66ddb817" target="_top" xlink:title="commands.controlCommands.\lDoCommand.onExecute">
<polygon fill="white" stroke="black" points="218.5,-5 218.5,-35 383.5,-35 383.5,-5 218.5,-5"/>
<text text-anchor="start" x="226.5" y="-23" font-family="Helvetica,sans-Serif" font-size="10.00">commands.controlCommands.</text>
<text text-anchor="middle" x="301" y="-12" font-family="Helvetica,sans-Serif" font-size="10.00">DoCommand.onExecute</text>
</a>
</g>
</g>
<!-- Node1&#45;&gt;Node2 -->
<g id="edge1" class="edge"><title>Node1&#45;&gt;Node2</title>
<path fill="none" stroke="midnightblue" d="M192.258,-20C201.004,-20 209.786,-20 218.355,-20"/>
<polygon fill="midnightblue" stroke="midnightblue" points="192.022,-16.5001 182.022,-20 192.022,-23.5001 192.022,-16.5001"/>
</g>
</g>
</svg>
