<?xml version="1.0" encoding="UTF-8" standalone="no"?>
<!DOCTYPE svg PUBLIC "-//W3C//DTD SVG 1.1//EN"
 "http://www.w3.org/Graphics/SVG/1.1/DTD/svg11.dtd">
<!-- Generated by graphviz version 2.36.0 (20140111.2315)
 -->
<!-- Title: commands.information.BaseTurtleContainer.getAllTurtlesByID Pages: 1 -->
<svg width="588pt" height="116pt"
 viewBox="0.00 0.00 588.00 116.00" xmlns="http://www.w3.org/2000/svg" xmlns:xlink="http://www.w3.org/1999/xlink">
<g id="graph0" class="graph" transform="scale(1 1) rotate(0) translate(4 112)">
<title>commands.information.BaseTurtleContainer.getAllTurtlesByID</title>
<polygon fill="white" stroke="none" points="-4,4 -4,-112 584,-112 584,4 -4,4"/>
<!-- Node1 -->
<g id="node1" class="node"><title>Node1</title>
<polygon fill="#bfbfbf" stroke="black" points="0,-27 0,-57 170,-57 170,-27 0,-27"/>
<text text-anchor="start" x="8" y="-45" font-family="Helvetica,sans-Serif" font-size="10.00">commands.information.Base</text>
<text text-anchor="middle" x="85" y="-34" font-family="Helvetica,sans-Serif" font-size="10.00">TurtleContainer.getAllTurtlesByID</text>
</g>
<!-- Node2 -->
<g id="node2" class="node"><title>Node2</title>
<g id="a_node2"><a xlink:href="../../d9/d20/classcommands_1_1turtle_commands_1_1_multiple_turtle_command.html#a226d71bf1a9b6f4287eef7ee607e0742" target="_top" xlink:title="commands.turtleCommands.\lMultipleTurtleCommand.addFuture\lActiveTurtleTurtles">
<polygon fill="white" stroke="black" points="206,-48.5 206,-89.5 386,-89.5 386,-48.5 206,-48.5"/>
<text text-anchor="start" x="214" y="-77.5" font-family="Helvetica,sans-Serif" font-size="10.00">commands.turtleCommands.</text>
<text text-anchor="start" x="214" y="-66.5" font-family="Helvetica,sans-Serif" font-size="10.00">MultipleTurtleCommand.addFuture</text>
<text text-anchor="middle" x="296" y="-55.5" font-family="Helvetica,sans-Serif" font-size="10.00">ActiveTurtleTurtles</text>
</a>
</g>
</g>
<!-- Node1&#45;&gt;Node2 -->
<g id="edge1" class="edge"><title>Node1&#45;&gt;Node2</title>
<path fill="none" stroke="midnightblue" d="M180.13,-54.1603C188.718,-55.2698 197.401,-56.3916 205.944,-57.4951"/>
<polygon fill="midnightblue" stroke="midnightblue" points="180.471,-50.6754 170.105,-52.8652 179.574,-57.6177 180.471,-50.6754"/>
</g>
<!-- Node5 -->
<g id="node5" class="node"><title>Node5</title>
<g id="a_node5"><a xlink:href="../../d5/d06/classcommands_1_1turtle_commands_1_1_ask_with_command.html#a07b217e59066d96b04c498c1be9b905a" target="_top" xlink:title="commands.turtleCommands.\lAskWithCommand.onExecute">
<polygon fill="white" stroke="black" points="217,-0 217,-30 375,-30 375,-0 217,-0"/>
<text text-anchor="start" x="225" y="-18" font-family="Helvetica,sans-Serif" font-size="10.00">commands.turtleCommands.</text>
<text text-anchor="middle" x="296" y="-7" font-family="Helvetica,sans-Serif" font-size="10.00">AskWithCommand.onExecute</text>
</a>
</g>
</g>
<!-- Node1&#45;&gt;Node5 -->
<g id="edge4" class="edge"><title>Node1&#45;&gt;Node5</title>
<path fill="none" stroke="midnightblue" d="M180.302,-29.8174C192.512,-28.2401 204.909,-26.6385 216.819,-25.1"/>
<polygon fill="midnightblue" stroke="midnightblue" points="179.574,-26.3823 170.105,-31.1348 180.471,-33.3246 179.574,-26.3823"/>
</g>
<!-- Node3 -->
<g id="node3" class="node"><title>Node3</title>
<g id="a_node3"><a xlink:href="../../d6/de1/classcommands_1_1turtle_commands_1_1_ask_command.html#af55174501ae461af21d6546f83cdc521" target="_top" xlink:title="commands.turtleCommands.\lAskCommand.onExecute">
<polygon fill="white" stroke="black" points="422,-78 422,-108 580,-108 580,-78 422,-78"/>
<text text-anchor="start" x="430" y="-96" font-family="Helvetica,sans-Serif" font-size="10.00">commands.turtleCommands.</text>
<text text-anchor="middle" x="501" y="-85" font-family="Helvetica,sans-Serif" font-size="10.00">AskCommand.onExecute</text>
</a>
</g>
</g>
<!-- Node2&#45;&gt;Node3 -->
<g id="edge2" class="edge"><title>Node2&#45;&gt;Node3</title>
<path fill="none" stroke="midnightblue" d="M396.146,-80.7217C404.778,-81.7422 413.432,-82.7654 421.86,-83.7617"/>
<polygon fill="midnightblue" stroke="midnightblue" points="396.381,-77.2251 386.039,-79.5267 395.559,-84.1767 396.381,-77.2251"/>
</g>
<!-- Node4 -->
<g id="node4" class="node"><title>Node4</title>
<g id="a_node4"><a xlink:href="../../d3/d71/classcommands_1_1turtle_commands_1_1_tell_command.html#aa72781f5952898b86ddd628eddb559c3" target="_top" xlink:title="commands.turtleCommands.\lTellCommand.onExecute">
<polygon fill="white" stroke="black" points="422,-29 422,-59 580,-59 580,-29 422,-29"/>
<text text-anchor="start" x="430" y="-47" font-family="Helvetica,sans-Serif" font-size="10.00">commands.turtleCommands.</text>
<text text-anchor="middle" x="501" y="-36" font-family="Helvetica,sans-Serif" font-size="10.00">TellCommand.onExecute</text>
</a>
</g>
</g>
<!-- Node2&#45;&gt;Node4 -->
<g id="edge3" class="edge"><title>Node2&#45;&gt;Node4</title>
<path fill="none" stroke="midnightblue" d="M396.146,-56.7899C404.778,-55.7268 413.432,-54.661 421.86,-53.6232"/>
<polygon fill="midnightblue" stroke="midnightblue" points="395.536,-53.3385 386.039,-58.0346 396.392,-60.286 395.536,-53.3385"/>
</g>
</g>
</svg>
