<?xml version="1.0" encoding="UTF-8" standalone="no"?>
<!DOCTYPE svg PUBLIC "-//W3C//DTD SVG 1.1//EN"
 "http://www.w3.org/Graphics/SVG/1.1/DTD/svg11.dtd">
<!-- Generated by graphviz version 2.36.0 (20140111.2315)
 -->
<!-- Title: commands.information.BaseTurtleContainer.getOrientation Pages: 1 -->
<svg width="378pt" height="38pt"
 viewBox="0.00 0.00 378.00 38.00" xmlns="http://www.w3.org/2000/svg" xmlns:xlink="http://www.w3.org/1999/xlink">
<g id="graph0" class="graph" transform="scale(1 1) rotate(0) translate(4 34)">
<title>commands.information.BaseTurtleContainer.getOrientation</title>
<polygon fill="white" stroke="none" points="-4,4 -4,-34 374,-34 374,4 -4,4"/>
<!-- Node1 -->
<g id="node1" class="node"><title>Node1</title>
<polygon fill="#bfbfbf" stroke="black" points="0,-0 0,-30 160,-30 160,-0 0,-0"/>
<text text-anchor="start" x="8" y="-18" font-family="Helvetica,sans-Serif" font-size="10.00">commands.information.Base</text>
<text text-anchor="middle" x="80" y="-7" font-family="Helvetica,sans-Serif" font-size="10.00">TurtleContainer.getOrientation</text>
</g>
<!-- Node2 -->
<g id="node2" class="node"><title>Node2</title>
<g id="a_node2"><a xlink:href="../../df/d9a/classcommands_1_1view_queries_1_1_heading_query.html#acf74ab2c96e2c261837f9a6df863d4b1" target="_top" xlink:title="commands.viewQueries.Heading\lQuery.onExecute">
<polygon fill="white" stroke="black" points="196.5,-0 196.5,-30 369.5,-30 369.5,-0 196.5,-0"/>
<text text-anchor="start" x="204.5" y="-18" font-family="Helvetica,sans-Serif" font-size="10.00">commands.viewQueries.Heading</text>
<text text-anchor="middle" x="283" y="-7" font-family="Helvetica,sans-Serif" font-size="10.00">Query.onExecute</text>
</a>
</g>
</g>
<!-- Node1&#45;&gt;Node2 -->
<g id="edge1" class="edge"><title>Node1&#45;&gt;Node2</title>
<path fill="none" stroke="midnightblue" d="M170.246,-15C178.902,-15 187.671,-15 196.291,-15"/>
<polygon fill="midnightblue" stroke="midnightblue" points="170.152,-11.5001 160.152,-15 170.152,-18.5001 170.152,-11.5001"/>
</g>
</g>
</svg>
