<?xml version="1.0" encoding="UTF-8" standalone="no"?>
<!DOCTYPE svg PUBLIC "-//W3C//DTD SVG 1.1//EN"
 "http://www.w3.org/Graphics/SVG/1.1/DTD/svg11.dtd">
<!-- Generated by graphviz version 2.36.0 (20140111.2315)
 -->
<!-- Title: commands.information.BaseTurtleContainer.getActiveTurtles Pages: 1 -->
<!--zoomable 1366 -->
<svg id="main" version="1.1" xmlns="http://www.w3.org/2000/svg" xmlns:xlink="http://www.w3.org/1999/xlink" xml:space="preserve" onload="init(evt)">
<style type="text/css"><![CDATA[
.edge:hover path { stroke: red; }
.edge:hover polygon { stroke: red; fill: red; }
]]></style>
<script type="text/javascript"><![CDATA[
var edges = document.getElementsByTagName('g');
if (edges && edges.length) {
  for (var i=0;i<edges.length;i++) {
    if (edges[i].id.substr(0,4)=='edge') {
      edges[i].setAttribute('class','edge');
    }
  }
}
]]></script>
        <defs>
                <circle id="rim" cx="0" cy="0" r="7"/>
                <circle id="rim2" cx="0" cy="0" r="3.5"/>
                <g id="zoomPlus">
                        <use xlink:href="#rim" fill="#404040">
                                <set attributeName="fill" to="#808080" begin="zoomplus.mouseover" end="zoomplus.mouseout"/>
                        </use>
                        <path d="M-4,0h8M0,-4v8" fill="none" stroke="white" stroke-width="1.5" pointer-events="none"/>
                </g>
                <g id="zoomMin">
                        <use xlink:href="#rim" fill="#404040">
                                <set attributeName="fill" to="#808080" begin="zoomminus.mouseover" end="zoomminus.mouseout"/>
                        </use>
                        <path d="M-4,0h8" fill="none" stroke="white" stroke-width="1.5" pointer-events="none"/>
                </g>
                <g id="dirArrow">
                        <path fill="none" stroke="white" stroke-width="1.5" d="M0,-3.0v7 M-2.5,-0.5L0,-3.0L2.5,-0.5"/>
                </g>
               <g id="resetDef">
                       <use xlink:href="#rim2" fill="#404040">
                               <set attributeName="fill" to="#808080" begin="reset.mouseover" end="reset.mouseout"/>
                       </use>
               </g>
        </defs>

<script type="text/javascript">
var viewWidth = 838;
var viewHeight = 1366;
var sectionId = 'dynsection-4';
</script>
<script xlink:href="../../svgpan.js"/>
<svg id="graph" class="graph">
<g id="viewport">
<title>commands.information.BaseTurtleContainer.getActiveTurtles</title>
<polygon fill="white" stroke="none" points="-4,4 -4,-1362 834,-1362 834,4 -4,4"/>
<!-- Node1 -->
<g id="node1" class="node"><title>Node1</title>
<polygon fill="#bfbfbf" stroke="black" points="0.5,-314 0.5,-344 167.5,-344 167.5,-314 0.5,-314"/>
<text text-anchor="start" x="8.5" y="-332" font-family="Helvetica,sans-Serif" font-size="10.00">commands.information.Base</text>
<text text-anchor="middle" x="84" y="-321" font-family="Helvetica,sans-Serif" font-size="10.00">TurtleContainer.getActiveTurtles</text>
</g>
<!-- Node2 -->
<g id="node2" class="node"><title>Node2</title>
<g id="a_node2"><a xlink:href="../../d9/d00/classcommunicator_1_1_main_controller.html#a0b1541b8d548e7beffbf192b599ecd80" target="_top" xlink:title="communicator.MainController.get\lActiveTurtles">
<polygon fill="white" stroke="black" points="204,-1327 204,-1357 380,-1357 380,-1327 204,-1327"/>
<text text-anchor="start" x="212" y="-1345" font-family="Helvetica,sans-Serif" font-size="10.00">communicator.MainController.get</text>
<text text-anchor="middle" x="292" y="-1334" font-family="Helvetica,sans-Serif" font-size="10.00">ActiveTurtles</text>
</a>
</g>
</g>
<!-- Node1&#45;&gt;Node2 -->
<g id="edge1" class="edge"><title>Node1&#45;&gt;Node2</title>
<path fill="none" stroke="midnightblue" d="M84.5649,-354.302C82.6846,-492.848 80.2685,-1158.87 204,-1312 208.92,-1318.09 215.144,-1322.95 221.993,-1326.82"/>
<polygon fill="midnightblue" stroke="midnightblue" points="88.0655,-354.278 84.714,-344.228 81.0663,-354.175 88.0655,-354.278"/>
</g>
<!-- Node3 -->
<g id="node3" class="node"><title>Node3</title>
<g id="a_node3"><a xlink:href="../../d7/d28/classcommands_1_1information_1_1_base_turtle_container.html#ae3f987ec79fb3318d8c3a1c8bd65f67b" target="_top" xlink:title="commands.information.Base\lTurtleContainer.loopOverTurtle">
<polygon fill="white" stroke="black" points="212.5,-697 212.5,-727 371.5,-727 371.5,-697 212.5,-697"/>
<text text-anchor="start" x="220.5" y="-715" font-family="Helvetica,sans-Serif" font-size="10.00">commands.information.Base</text>
<text text-anchor="middle" x="292" y="-704" font-family="Helvetica,sans-Serif" font-size="10.00">TurtleContainer.loopOverTurtle</text>
</a>
</g>
</g>
<!-- Node1&#45;&gt;Node3 -->
<g id="edge2" class="edge"><title>Node1&#45;&gt;Node3</title>
<path fill="none" stroke="midnightblue" d="M98.0393,-353.243C136.878,-425.453 251.061,-637.744 282.757,-696.674"/>
<polygon fill="midnightblue" stroke="midnightblue" points="100.895,-351.163 93.0754,-344.014 94.73,-354.479 100.895,-351.163"/>
</g>
<!-- Node5 -->
<g id="node5" class="node"><title>Node5</title>
<g id="a_node5"><a xlink:href="../../db/d66/classcommands_1_1turtle_commands_1_1_left_command.html#ad05f5e31458463730a6a78444f481db3" target="_top" xlink:title="commands.turtleCommands.\lLeftCommand.onExecute">
<polygon fill="white" stroke="black" points="660,-1273 660,-1303 818,-1303 818,-1273 660,-1273"/>
<text text-anchor="start" x="668" y="-1291" font-family="Helvetica,sans-Serif" font-size="10.00">commands.turtleCommands.</text>
<text text-anchor="middle" x="739" y="-1280" font-family="Helvetica,sans-Serif" font-size="10.00">LeftCommand.onExecute</text>
</a>
</g>
</g>
<!-- Node1&#45;&gt;Node5 -->
<g id="edge37" class="edge"><title>Node1&#45;&gt;Node5</title>
<path fill="none" stroke="midnightblue" d="M86.3025,-354.165C92.8434,-473.366 124.973,-980.982 204,-1115 264.37,-1217.38 304.081,-1238 416,-1278 495.395,-1306.38 592.942,-1304.8 659.732,-1298.71"/>
<polygon fill="midnightblue" stroke="midnightblue" points="89.7965,-353.958 85.764,-344.16 82.8066,-354.334 89.7965,-353.958"/>
</g>
<!-- Node6 -->
<g id="node6" class="node"><title>Node6</title>
<g id="a_node6"><a xlink:href="../../dd/db2/classcommands_1_1turtle_commands_1_1_right_command.html#a0eddcf5dbe1361c0dab5433a3f42aae7" target="_top" xlink:title="commands.turtleCommands.\lRightCommand.onExecute">
<polygon fill="white" stroke="black" points="660,-1205 660,-1235 818,-1235 818,-1205 660,-1205"/>
<text text-anchor="start" x="668" y="-1223" font-family="Helvetica,sans-Serif" font-size="10.00">commands.turtleCommands.</text>
<text text-anchor="middle" x="739" y="-1212" font-family="Helvetica,sans-Serif" font-size="10.00">RightCommand.onExecute</text>
</a>
</g>
</g>
<!-- Node1&#45;&gt;Node6 -->
<g id="edge38" class="edge"><title>Node1&#45;&gt;Node6</title>
<path fill="none" stroke="midnightblue" d="M86.6945,-354.38C94.5546,-466.339 130.251,-915.691 204,-1033 265.432,-1130.72 308.185,-1141.79 416,-1183 495.369,-1213.34 593.136,-1220.76 659.984,-1221.74"/>
<polygon fill="midnightblue" stroke="midnightblue" points="90.163,-353.801 85.9828,-344.066 83.1796,-354.283 90.163,-353.801"/>
</g>
<!-- Node9 -->
<g id="node9" class="node"><title>Node9</title>
<g id="a_node9"><a xlink:href="../../d5/d5b/classcommands_1_1turtle_commands_1_1_set_heading_command.html#a5e2f849ee53234e4f095c3a5db842222" target="_top" xlink:title="commands.turtleCommands.\lSetHeadingCommand.onExecute">
<polygon fill="white" stroke="black" points="651,-1134 651,-1164 827,-1164 827,-1134 651,-1134"/>
<text text-anchor="start" x="659" y="-1152" font-family="Helvetica,sans-Serif" font-size="10.00">commands.turtleCommands.</text>
<text text-anchor="middle" x="739" y="-1141" font-family="Helvetica,sans-Serif" font-size="10.00">SetHeadingCommand.onExecute</text>
</a>
</g>
</g>
<!-- Node1&#45;&gt;Node9 -->
<g id="edge40" class="edge"><title>Node1&#45;&gt;Node9</title>
<path fill="none" stroke="midnightblue" d="M85.3885,-354.33C88.7569,-472.441 120.555,-970.965 416,-1152 500.968,-1204.06 623.723,-1182.17 690.45,-1164.07"/>
<polygon fill="midnightblue" stroke="midnightblue" points="88.8822,-354.024 85.1434,-344.111 81.8843,-354.192 88.8822,-354.024"/>
</g>
<!-- Node11 -->
<g id="node11" class="node"><title>Node11</title>
<g id="a_node11"><a xlink:href="../../d2/d96/classcommands_1_1turtle_commands_1_1_towards_command.html#acf88e2411c3dbf606349900a9dea4727" target="_top" xlink:title="commands.turtleCommands.\lTowardsCommand.onExecute">
<polygon fill="white" stroke="black" points="660,-214 660,-244 818,-244 818,-214 660,-214"/>
<text text-anchor="start" x="668" y="-232" font-family="Helvetica,sans-Serif" font-size="10.00">commands.turtleCommands.</text>
<text text-anchor="middle" x="739" y="-221" font-family="Helvetica,sans-Serif" font-size="10.00">TowardsCommand.onExecute</text>
</a>
</g>
</g>
<!-- Node1&#45;&gt;Node11 -->
<g id="edge44" class="edge"><title>Node1&#45;&gt;Node11</title>
<path fill="none" stroke="midnightblue" d="M122.994,-309.532C145.869,-298.708 175.916,-286.039 204,-279 362.512,-239.273 554.656,-230.517 659.822,-228.938"/>
<polygon fill="midnightblue" stroke="midnightblue" points="121.459,-306.386 113.971,-313.881 124.499,-312.692 121.459,-306.386"/>
</g>
<!-- Node13 -->
<g id="node13" class="node"><title>Node13</title>
<g id="a_node13"><a xlink:href="../../d9/d14/classcommands_1_1turtle_commands_1_1_set_position_command.html#a1ff02e56e7927a1002a7412040c98e77" target="_top" xlink:title="commands.turtleCommands.\lSetPositionCommand.onExecute">
<polygon fill="white" stroke="black" points="652,-153 652,-183 826,-183 826,-153 652,-153"/>
<text text-anchor="start" x="660" y="-171" font-family="Helvetica,sans-Serif" font-size="10.00">commands.turtleCommands.</text>
<text text-anchor="middle" x="739" y="-160" font-family="Helvetica,sans-Serif" font-size="10.00">SetPositionCommand.onExecute</text>
</a>
</g>
</g>
<!-- Node1&#45;&gt;Node13 -->
<g id="edge43" class="edge"><title>Node1&#45;&gt;Node13</title>
<path fill="none" stroke="midnightblue" d="M155.624,-311.587C284.51,-279.81 555.731,-212.939 677.07,-183.022"/>
<polygon fill="midnightblue" stroke="midnightblue" points="154.718,-308.206 145.846,-313.998 156.393,-315.002 154.718,-308.206"/>
</g>
<!-- Node14 -->
<g id="node14" class="node"><title>Node14</title>
<g id="a_node14"><a xlink:href="../../df/d55/classcommands_1_1view_commands_1_1_clear_screen_command.html#ae22b9c821c2d07903bdcea4eaad1f959" target="_top" xlink:title="commands.viewCommands.Clear\lScreenCommand.onExecute">
<polygon fill="white" stroke="black" points="650.5,-98 650.5,-128 827.5,-128 827.5,-98 650.5,-98"/>
<text text-anchor="start" x="658.5" y="-116" font-family="Helvetica,sans-Serif" font-size="10.00">commands.viewCommands.Clear</text>
<text text-anchor="middle" x="739" y="-105" font-family="Helvetica,sans-Serif" font-size="10.00">ScreenCommand.onExecute</text>
</a>
</g>
</g>
<!-- Node1&#45;&gt;Node14 -->
<g id="edge42" class="edge"><title>Node1&#45;&gt;Node14</title>
<path fill="none" stroke="midnightblue" d="M108.294,-306.775C159.122,-260.045 285.884,-152.888 416,-116 493.048,-94.1568 584.693,-95.8199 650.473,-101.522"/>
<polygon fill="midnightblue" stroke="midnightblue" points="105.745,-304.366 100.8,-313.736 110.509,-309.495 105.745,-304.366"/>
</g>
<!-- Node15 -->
<g id="node15" class="node"><title>Node15</title>
<g id="a_node15"><a xlink:href="../../db/dc5/classcommands_1_1view_commands_1_1_home_command.html#a91670541a28ed18996a9bc3433029857" target="_top" xlink:title="commands.viewCommands.Home\lCommand.onExecute">
<polygon fill="white" stroke="black" points="648,-46 648,-76 830,-76 830,-46 648,-46"/>
<text text-anchor="start" x="656" y="-64" font-family="Helvetica,sans-Serif" font-size="10.00">commands.viewCommands.Home</text>
<text text-anchor="middle" x="739" y="-53" font-family="Helvetica,sans-Serif" font-size="10.00">Command.onExecute</text>
</a>
</g>
</g>
<!-- Node1&#45;&gt;Node15 -->
<g id="edge45" class="edge"><title>Node1&#45;&gt;Node15</title>
<path fill="none" stroke="midnightblue" d="M92.0246,-303.88C105.683,-260.084 140.224,-170.297 204,-127 337.511,-36.3595 533.998,-37.9944 647.671,-48.6432"/>
<polygon fill="midnightblue" stroke="midnightblue" points="88.5926,-303.139 89.0674,-313.723 95.2966,-305.153 88.5926,-303.139"/>
</g>
<!-- Node17 -->
<g id="node17" class="node"><title>Node17</title>
<g id="a_node17"><a xlink:href="../../df/d1b/classcommands_1_1turtle_commands_1_1_back_command.html#a2f60b951011f138ae8916447519fe166" target="_top" xlink:title="commands.turtleCommands.\lBackCommand.onExecute">
<polygon fill="white" stroke="black" points="660,-361 660,-391 818,-391 818,-361 660,-361"/>
<text text-anchor="start" x="668" y="-379" font-family="Helvetica,sans-Serif" font-size="10.00">commands.turtleCommands.</text>
<text text-anchor="middle" x="739" y="-368" font-family="Helvetica,sans-Serif" font-size="10.00">BackCommand.onExecute</text>
</a>
</g>
</g>
<!-- Node1&#45;&gt;Node17 -->
<g id="edge36" class="edge"><title>Node1&#45;&gt;Node17</title>
<path fill="none" stroke="midnightblue" d="M173.901,-345.786C240.316,-357.441 333.479,-371.925 416,-378 502.876,-384.396 524.892,-378.691 612,-378 627.423,-377.878 643.908,-377.671 659.699,-377.436"/>
<polygon fill="midnightblue" stroke="midnightblue" points="174.346,-342.31 163.889,-344.015 173.127,-349.203 174.346,-342.31"/>
</g>
<!-- Node18 -->
<g id="node18" class="node"><title>Node18</title>
<g id="a_node18"><a xlink:href="../../da/db6/classcommands_1_1turtle_commands_1_1_forward_command.html#a804cd1b0300e3c10498b66ea5edeb18c" target="_top" xlink:title="commands.turtleCommands.\lForwardCommand.onExecute">
<polygon fill="white" stroke="black" points="660,-288 660,-318 818,-318 818,-288 660,-288"/>
<text text-anchor="start" x="668" y="-306" font-family="Helvetica,sans-Serif" font-size="10.00">commands.turtleCommands.</text>
<text text-anchor="middle" x="739" y="-295" font-family="Helvetica,sans-Serif" font-size="10.00">ForwardCommand.onExecute</text>
</a>
</g>
</g>
<!-- Node1&#45;&gt;Node18 -->
<g id="edge39" class="edge"><title>Node1&#45;&gt;Node18</title>
<path fill="none" stroke="midnightblue" d="M167.104,-312.04C270.761,-292.776 454.577,-265.75 612,-280 630.381,-281.664 650.088,-284.667 668.329,-287.965"/>
<polygon fill="midnightblue" stroke="midnightblue" points="166.2,-308.649 157.019,-313.937 167.494,-315.528 166.2,-308.649"/>
</g>
<!-- Node37 -->
<g id="node37" class="node"><title>Node37</title>
<g id="a_node37"><a xlink:href="../../d4/d3f/classcommands_1_1turtle_commands_1_1_i_d_command.html#aa6bb976aa3927f85d3f009b4e4e2e253" target="_top" xlink:title="commands.turtleCommands.\lIDCommand.onExecute">
<polygon fill="white" stroke="black" points="213,-0 213,-30 371,-30 371,-0 213,-0"/>
<text text-anchor="start" x="221" y="-18" font-family="Helvetica,sans-Serif" font-size="10.00">commands.turtleCommands.</text>
<text text-anchor="middle" x="292" y="-7" font-family="Helvetica,sans-Serif" font-size="10.00">IDCommand.onExecute</text>
</a>
</g>
</g>
<!-- Node1&#45;&gt;Node37 -->
<g id="edge41" class="edge"><title>Node1&#45;&gt;Node37</title>
<path fill="none" stroke="midnightblue" d="M88.4977,-304.032C97.4645,-249.296 126.295,-117.831 204,-45 210.528,-38.8815 218.363,-34.0043 226.621,-30.1181"/>
<polygon fill="midnightblue" stroke="midnightblue" points="85.0389,-303.497 86.9606,-313.916 91.9558,-304.572 85.0389,-303.497"/>
</g>
<!-- Node4 -->
<g id="node4" class="node"><title>Node4</title>
<g id="a_node4"><a xlink:href="../../d7/d28/classcommands_1_1information_1_1_base_turtle_container.html#a73435663cdaa03ca3d95c938c0dac073" target="_top" xlink:title="commands.information.Base\lTurtleContainer.rotate">
<polygon fill="white" stroke="black" points="436.5,-1239 436.5,-1269 591.5,-1269 591.5,-1239 436.5,-1239"/>
<text text-anchor="start" x="444.5" y="-1257" font-family="Helvetica,sans-Serif" font-size="10.00">commands.information.Base</text>
<text text-anchor="middle" x="514" y="-1246" font-family="Helvetica,sans-Serif" font-size="10.00">TurtleContainer.rotate</text>
</a>
</g>
</g>
<!-- Node3&#45;&gt;Node4 -->
<g id="edge3" class="edge"><title>Node3&#45;&gt;Node4</title>
<path fill="none" stroke="midnightblue" d="M295.716,-737.117C304.149,-807.049 334.397,-1008.29 416,-1152 436.272,-1187.7 471.711,-1220.47 493.681,-1238.78"/>
<polygon fill="midnightblue" stroke="midnightblue" points="299.177,-736.579 294.545,-727.05 292.224,-737.387 299.177,-736.579"/>
</g>
<!-- Node7 -->
<g id="node7" class="node"><title>Node7</title>
<g id="a_node7"><a xlink:href="../../d7/d28/classcommands_1_1information_1_1_base_turtle_container.html#aa12129a5802271b2ac4dd6142d77f917" target="_top" xlink:title="commands.information.Base\lTurtleContainer.move">
<polygon fill="white" stroke="black" points="436.5,-819 436.5,-849 591.5,-849 591.5,-819 436.5,-819"/>
<text text-anchor="start" x="444.5" y="-837" font-family="Helvetica,sans-Serif" font-size="10.00">commands.information.Base</text>
<text text-anchor="middle" x="514" y="-826" font-family="Helvetica,sans-Serif" font-size="10.00">TurtleContainer.move</text>
</a>
</g>
</g>
<!-- Node3&#45;&gt;Node7 -->
<g id="edge6" class="edge"><title>Node3&#45;&gt;Node7</title>
<path fill="none" stroke="midnightblue" d="M315.113,-734.203C338.318,-756.282 376.81,-789.583 416,-809 423.791,-812.86 432.24,-816.166 440.791,-818.987"/>
<polygon fill="midnightblue" stroke="midnightblue" points="317.473,-731.616 307.85,-727.182 312.607,-736.649 317.473,-731.616"/>
</g>
<!-- Node8 -->
<g id="node8" class="node"><title>Node8</title>
<g id="a_node8"><a xlink:href="../../d7/d28/classcommands_1_1information_1_1_base_turtle_container.html#ac99ed37d53ab0b0e03d9e410a2e2836f" target="_top" xlink:title="commands.information.Base\lTurtleContainer.setHeading">
<polygon fill="white" stroke="black" points="436.5,-1113 436.5,-1143 591.5,-1143 591.5,-1113 436.5,-1113"/>
<text text-anchor="start" x="444.5" y="-1131" font-family="Helvetica,sans-Serif" font-size="10.00">commands.information.Base</text>
<text text-anchor="middle" x="514" y="-1120" font-family="Helvetica,sans-Serif" font-size="10.00">TurtleContainer.setHeading</text>
</a>
</g>
</g>
<!-- Node3&#45;&gt;Node8 -->
<g id="edge7" class="edge"><title>Node3&#45;&gt;Node8</title>
<path fill="none" stroke="midnightblue" d="M293.028,-737.414C294.545,-806.815 308.663,-1001.16 416,-1103 421.929,-1108.63 428.951,-1113.03 436.464,-1116.47"/>
<polygon fill="midnightblue" stroke="midnightblue" points="296.522,-736.971 292.878,-727.022 289.523,-737.072 296.522,-736.971"/>
</g>
<!-- Node10 -->
<g id="node10" class="node"><title>Node10</title>
<g id="a_node10"><a xlink:href="../../d7/d28/classcommands_1_1information_1_1_base_turtle_container.html#af715aadb5d98b7a0419d923b9c627825" target="_top" xlink:title="commands.information.Base\lTurtleContainer.towardsPosition">
<polygon fill="white" stroke="black" points="431,-290 431,-320 597,-320 597,-290 431,-290"/>
<text text-anchor="start" x="439" y="-308" font-family="Helvetica,sans-Serif" font-size="10.00">commands.information.Base</text>
<text text-anchor="middle" x="514" y="-297" font-family="Helvetica,sans-Serif" font-size="10.00">TurtleContainer.towardsPosition</text>
</a>
</g>
</g>
<!-- Node3&#45;&gt;Node10 -->
<g id="edge9" class="edge"><title>Node3&#45;&gt;Node10</title>
<path fill="none" stroke="midnightblue" d="M293.17,-686.571C295.07,-618.016 310.122,-427.893 416,-329 420.437,-324.855 425.474,-321.396 430.864,-318.511"/>
<polygon fill="midnightblue" stroke="midnightblue" points="289.665,-686.784 292.961,-696.853 296.663,-686.926 289.665,-686.784"/>
</g>
<!-- Node12 -->
<g id="node12" class="node"><title>Node12</title>
<g id="a_node12"><a xlink:href="../../d7/d28/classcommands_1_1information_1_1_base_turtle_container.html#a5d86cfae201525f3446fc58eb5c7df7c" target="_top" xlink:title="commands.information.Base\lTurtleContainer.setPosition">
<polygon fill="white" stroke="black" points="436.5,-126 436.5,-156 591.5,-156 591.5,-126 436.5,-126"/>
<text text-anchor="start" x="444.5" y="-144" font-family="Helvetica,sans-Serif" font-size="10.00">commands.information.Base</text>
<text text-anchor="middle" x="514" y="-133" font-family="Helvetica,sans-Serif" font-size="10.00">TurtleContainer.setPosition</text>
</a>
</g>
</g>
<!-- Node3&#45;&gt;Node12 -->
<g id="edge11" class="edge"><title>Node3&#45;&gt;Node12</title>
<path fill="none" stroke="midnightblue" d="M297.187,-686.582C309.082,-618.23 346.766,-425.8 416,-280 439.226,-231.089 479.175,-180.68 499.809,-156.194"/>
<polygon fill="midnightblue" stroke="midnightblue" points="293.673,-686.368 295.44,-696.815 300.573,-687.547 293.673,-686.368"/>
</g>
<!-- Node16 -->
<g id="node16" class="node"><title>Node16</title>
<g id="a_node16"><a xlink:href="../../d7/d28/classcommands_1_1information_1_1_base_turtle_container.html#afe6445eeeaaa24a41e6579a12baffa74" target="_top" xlink:title="commands.information.Base\lTurtleContainer.moveTowardsHeading">
<polygon fill="white" stroke="black" points="416.5,-339 416.5,-369 611.5,-369 611.5,-339 416.5,-339"/>
<text text-anchor="start" x="424.5" y="-357" font-family="Helvetica,sans-Serif" font-size="10.00">commands.information.Base</text>
<text text-anchor="middle" x="514" y="-346" font-family="Helvetica,sans-Serif" font-size="10.00">TurtleContainer.moveTowardsHeading</text>
</a>
</g>
</g>
<!-- Node3&#45;&gt;Node16 -->
<g id="edge15" class="edge"><title>Node3&#45;&gt;Node16</title>
<path fill="none" stroke="midnightblue" d="M298.108,-687.048C310.278,-632.698 345.384,-501.711 416,-417 433.229,-396.332 458.999,-380.039 479.647,-369.205"/>
<polygon fill="midnightblue" stroke="midnightblue" points="294.679,-686.344 295.976,-696.86 301.52,-687.831 294.679,-686.344"/>
</g>
<!-- Node19 -->
<g id="node19" class="node"><title>Node19</title>
<g id="a_node19"><a xlink:href="../../d7/d28/classcommands_1_1information_1_1_base_turtle_container.html#a8b2880155a7493626eee176e81dd0326" target="_top" xlink:title="commands.information.Base\lTurtleContainer.getOrientation">
<polygon fill="white" stroke="black" points="434,-770 434,-800 594,-800 594,-770 434,-770"/>
<text text-anchor="start" x="442" y="-788" font-family="Helvetica,sans-Serif" font-size="10.00">commands.information.Base</text>
<text text-anchor="middle" x="514" y="-777" font-family="Helvetica,sans-Serif" font-size="10.00">TurtleContainer.getOrientation</text>
</a>
</g>
</g>
<!-- Node3&#45;&gt;Node19 -->
<g id="edge18" class="edge"><title>Node3&#45;&gt;Node19</title>
<path fill="none" stroke="midnightblue" d="M337.662,-730.919C360.801,-740.339 389.659,-751.499 416,-760 426.923,-763.525 438.661,-766.894 450.068,-769.953"/>
<polygon fill="midnightblue" stroke="midnightblue" points="338.699,-727.561 328.119,-727.001 336.041,-734.037 338.699,-727.561"/>
</g>
<!-- Node21 -->
<g id="node21" class="node"><title>Node21</title>
<g id="a_node21"><a xlink:href="../../d7/d28/classcommands_1_1information_1_1_base_turtle_container.html#a1778a548d5fe91333be5749029e339c8" target="_top" xlink:title="commands.information.Base\lTurtleContainer.getXPos">
<polygon fill="white" stroke="black" points="436.5,-721 436.5,-751 591.5,-751 591.5,-721 436.5,-721"/>
<text text-anchor="start" x="444.5" y="-739" font-family="Helvetica,sans-Serif" font-size="10.00">commands.information.Base</text>
<text text-anchor="middle" x="514" y="-728" font-family="Helvetica,sans-Serif" font-size="10.00">TurtleContainer.getXPos</text>
</a>
</g>
</g>
<!-- Node3&#45;&gt;Node21 -->
<g id="edge20" class="edge"><title>Node3&#45;&gt;Node21</title>
<path fill="none" stroke="midnightblue" d="M381.987,-721.708C399.96,-723.668 418.71,-725.714 436.221,-727.624"/>
<polygon fill="midnightblue" stroke="midnightblue" points="382.124,-718.202 371.804,-720.597 381.365,-725.161 382.124,-718.202"/>
</g>
<!-- Node23 -->
<g id="node23" class="node"><title>Node23</title>
<g id="a_node23"><a xlink:href="../../d7/d28/classcommands_1_1information_1_1_base_turtle_container.html#a7191dbe21eb4c3f13baaef4a648f8a4c" target="_top" xlink:title="commands.information.Base\lTurtleContainer.getYPos">
<polygon fill="white" stroke="black" points="436.5,-672 436.5,-702 591.5,-702 591.5,-672 436.5,-672"/>
<text text-anchor="start" x="444.5" y="-690" font-family="Helvetica,sans-Serif" font-size="10.00">commands.information.Base</text>
<text text-anchor="middle" x="514" y="-679" font-family="Helvetica,sans-Serif" font-size="10.00">TurtleContainer.getYPos</text>
</a>
</g>
</g>
<!-- Node3&#45;&gt;Node23 -->
<g id="edge22" class="edge"><title>Node3&#45;&gt;Node23</title>
<path fill="none" stroke="midnightblue" d="M381.987,-701.888C399.96,-699.845 418.71,-697.715 436.221,-695.725"/>
<polygon fill="midnightblue" stroke="midnightblue" points="381.344,-698.438 371.804,-703.045 382.135,-705.393 381.344,-698.438"/>
</g>
<!-- Node25 -->
<g id="node25" class="node"><title>Node25</title>
<g id="a_node25"><a xlink:href="../../d7/d28/classcommands_1_1information_1_1_base_turtle_container.html#a31569b501a1ccb408b65edde4e3719a8" target="_top" xlink:title="commands.information.Base\lTurtleContainer.setXPos">
<polygon fill="white" stroke="black" points="436.5,-623 436.5,-653 591.5,-653 591.5,-623 436.5,-623"/>
<text text-anchor="start" x="444.5" y="-641" font-family="Helvetica,sans-Serif" font-size="10.00">commands.information.Base</text>
<text text-anchor="middle" x="514" y="-630" font-family="Helvetica,sans-Serif" font-size="10.00">TurtleContainer.setXPos</text>
</a>
</g>
</g>
<!-- Node3&#45;&gt;Node25 -->
<g id="edge24" class="edge"><title>Node3&#45;&gt;Node25</title>
<path fill="none" stroke="midnightblue" d="M335.494,-692.966C358.934,-682.915 388.737,-670.863 416,-662 425.899,-658.782 436.486,-655.754 446.895,-653.004"/>
<polygon fill="midnightblue" stroke="midnightblue" points="333.978,-689.808 326.191,-696.993 336.758,-696.232 333.978,-689.808"/>
</g>
<!-- Node26 -->
<g id="node26" class="node"><title>Node26</title>
<g id="a_node26"><a xlink:href="../../d7/d28/classcommands_1_1information_1_1_base_turtle_container.html#aa7a1e6cc65c6f4ddb2ab0b0632e00e8c" target="_top" xlink:title="commands.information.Base\lTurtleContainer.setYPos">
<polygon fill="white" stroke="black" points="436.5,-574 436.5,-604 591.5,-604 591.5,-574 436.5,-574"/>
<text text-anchor="start" x="444.5" y="-592" font-family="Helvetica,sans-Serif" font-size="10.00">commands.information.Base</text>
<text text-anchor="middle" x="514" y="-581" font-family="Helvetica,sans-Serif" font-size="10.00">TurtleContainer.setYPos</text>
</a>
</g>
</g>
<!-- Node3&#45;&gt;Node26 -->
<g id="edge25" class="edge"><title>Node3&#45;&gt;Node26</title>
<path fill="none" stroke="midnightblue" d="M314.599,-689.617C337.659,-667.007 376.28,-632.685 416,-613 422.917,-609.572 430.36,-606.61 437.938,-604.057"/>
<polygon fill="midnightblue" stroke="midnightblue" points="312.007,-687.259 307.396,-696.798 316.949,-692.216 312.007,-687.259"/>
</g>
<!-- Node27 -->
<g id="node27" class="node"><title>Node27</title>
<g id="a_node27"><a xlink:href="../../d7/d28/classcommands_1_1information_1_1_base_turtle_container.html#a908b5c21435a1b8bae56d8f3d83fc12e" target="_top" xlink:title="commands.information.Base\lTurtleContainer.setRotation">
<polygon fill="white" stroke="black" points="436.5,-525 436.5,-555 591.5,-555 591.5,-525 436.5,-525"/>
<text text-anchor="start" x="444.5" y="-543" font-family="Helvetica,sans-Serif" font-size="10.00">commands.information.Base</text>
<text text-anchor="middle" x="514" y="-532" font-family="Helvetica,sans-Serif" font-size="10.00">TurtleContainer.setRotation</text>
</a>
</g>
</g>
<!-- Node3&#45;&gt;Node27 -->
<g id="edge26" class="edge"><title>Node3&#45;&gt;Node27</title>
<path fill="none" stroke="midnightblue" d="M306.437,-687.66C326.063,-654.455 365.761,-595.496 416,-564 422.32,-560.038 429.254,-556.729 436.417,-553.967"/>
<polygon fill="midnightblue" stroke="midnightblue" points="303.192,-686.28 301.221,-696.69 309.254,-689.781 303.192,-686.28"/>
</g>
<!-- Node28 -->
<g id="node28" class="node"><title>Node28</title>
<g id="a_node28"><a xlink:href="../../d7/d28/classcommands_1_1information_1_1_base_turtle_container.html#ae8af295d680388bc8897d7827e36cef5" target="_top" xlink:title="commands.information.Base\lTurtleContainer.setPenColor">
<polygon fill="white" stroke="black" points="436.5,-476 436.5,-506 591.5,-506 591.5,-476 436.5,-476"/>
<text text-anchor="start" x="444.5" y="-494" font-family="Helvetica,sans-Serif" font-size="10.00">commands.information.Base</text>
<text text-anchor="middle" x="514" y="-483" font-family="Helvetica,sans-Serif" font-size="10.00">TurtleContainer.setPenColor</text>
</a>
</g>
</g>
<!-- Node3&#45;&gt;Node28 -->
<g id="edge27" class="edge"><title>Node3&#45;&gt;Node28</title>
<path fill="none" stroke="midnightblue" d="M301.323,-687.417C316.885,-645.309 354.492,-559.621 416,-515 422.179,-510.518 429.099,-506.867 436.323,-503.895"/>
<polygon fill="midnightblue" stroke="midnightblue" points="298.005,-686.302 297.922,-696.896 304.593,-688.665 298.005,-686.302"/>
</g>
<!-- Node29 -->
<g id="node29" class="node"><title>Node29</title>
<g id="a_node29"><a xlink:href="../../d7/d28/classcommands_1_1information_1_1_base_turtle_container.html#ac8b4c662283b4cb2d81e15fcdd0230ab" target="_top" xlink:title="commands.information.Base\lTurtleContainer.setPenBorderStyle">
<polygon fill="white" stroke="black" points="424,-427 424,-457 604,-457 604,-427 424,-427"/>
<text text-anchor="start" x="432" y="-445" font-family="Helvetica,sans-Serif" font-size="10.00">commands.information.Base</text>
<text text-anchor="middle" x="514" y="-434" font-family="Helvetica,sans-Serif" font-size="10.00">TurtleContainer.setPenBorderStyle</text>
</a>
</g>
</g>
<!-- Node3&#45;&gt;Node29 -->
<g id="edge28" class="edge"><title>Node3&#45;&gt;Node29</title>
<path fill="none" stroke="midnightblue" d="M298.207,-686.801C309.926,-636.662 343.232,-524.227 416,-466 420.335,-462.532 425.101,-459.555 430.124,-457.002"/>
<polygon fill="midnightblue" stroke="midnightblue" points="294.741,-686.262 295.969,-696.786 301.572,-687.793 294.741,-686.262"/>
</g>
<!-- Node30 -->
<g id="node30" class="node"><title>Node30</title>
<g id="a_node30"><a xlink:href="../../d7/d28/classcommands_1_1information_1_1_base_turtle_container.html#ab1f6a293b8c08c3847bed1080cc5cdca" target="_top" xlink:title="commands.information.Base\lTurtleContainer.setPenWidth">
<polygon fill="white" stroke="black" points="436.5,-1015 436.5,-1045 591.5,-1045 591.5,-1015 436.5,-1015"/>
<text text-anchor="start" x="444.5" y="-1033" font-family="Helvetica,sans-Serif" font-size="10.00">commands.information.Base</text>
<text text-anchor="middle" x="514" y="-1022" font-family="Helvetica,sans-Serif" font-size="10.00">TurtleContainer.setPenWidth</text>
</a>
</g>
</g>
<!-- Node3&#45;&gt;Node30 -->
<g id="edge29" class="edge"><title>Node3&#45;&gt;Node30</title>
<path fill="none" stroke="midnightblue" d="M296.08,-737.436C304.363,-794.383 332.461,-932.789 416,-1005 422.052,-1010.23 429.061,-1014.39 436.488,-1017.69"/>
<polygon fill="midnightblue" stroke="midnightblue" points="299.499,-736.61 294.677,-727.176 292.564,-737.558 299.499,-736.61"/>
</g>
<!-- Node31 -->
<g id="node31" class="node"><title>Node31</title>
<g id="a_node31"><a xlink:href="../../d7/d28/classcommands_1_1information_1_1_base_turtle_container.html#a55afe0fc58417bc135b159e944101fc4" target="_top" xlink:title="commands.information.Base\lTurtleContainer.penUndo">
<polygon fill="white" stroke="black" points="436.5,-966 436.5,-996 591.5,-996 591.5,-966 436.5,-966"/>
<text text-anchor="start" x="444.5" y="-984" font-family="Helvetica,sans-Serif" font-size="10.00">commands.information.Base</text>
<text text-anchor="middle" x="514" y="-973" font-family="Helvetica,sans-Serif" font-size="10.00">TurtleContainer.penUndo</text>
</a>
</g>
</g>
<!-- Node3&#45;&gt;Node31 -->
<g id="edge30" class="edge"><title>Node3&#45;&gt;Node31</title>
<path fill="none" stroke="midnightblue" d="M298.319,-736.939C310.239,-786.57 343.891,-897.919 416,-956 422.095,-960.909 429.044,-964.865 436.359,-968.05"/>
<polygon fill="midnightblue" stroke="midnightblue" points="301.697,-736.013 296.039,-727.056 294.876,-737.587 301.697,-736.013"/>
</g>
<!-- Node32 -->
<g id="node32" class="node"><title>Node32</title>
<g id="a_node32"><a xlink:href="../../d7/d28/classcommands_1_1information_1_1_base_turtle_container.html#af41d42e30b8f2bbb27f22a72000f0324" target="_top" xlink:title="commands.information.Base\lTurtleContainer.getPen">
<polygon fill="white" stroke="black" points="436.5,-917 436.5,-947 591.5,-947 591.5,-917 436.5,-917"/>
<text text-anchor="start" x="444.5" y="-935" font-family="Helvetica,sans-Serif" font-size="10.00">commands.information.Base</text>
<text text-anchor="middle" x="514" y="-924" font-family="Helvetica,sans-Serif" font-size="10.00">TurtleContainer.getPen</text>
</a>
</g>
</g>
<!-- Node3&#45;&gt;Node32 -->
<g id="edge31" class="edge"><title>Node3&#45;&gt;Node32</title>
<path fill="none" stroke="midnightblue" d="M301.556,-736.581C317.367,-778.279 355.203,-862.658 416,-907 422.182,-911.509 429.105,-915.207 436.331,-918.238"/>
<polygon fill="midnightblue" stroke="midnightblue" points="304.835,-735.357 298.094,-727.184 298.267,-737.777 304.835,-735.357"/>
</g>
<!-- Node33 -->
<g id="node33" class="node"><title>Node33</title>
<g id="a_node33"><a xlink:href="../../d7/d28/classcommands_1_1information_1_1_base_turtle_container.html#a6bd0289d802b819e0076347d651829eb" target="_top" xlink:title="commands.information.Base\lTurtleContainer.undo">
<polygon fill="white" stroke="black" points="436.5,-868 436.5,-898 591.5,-898 591.5,-868 436.5,-868"/>
<text text-anchor="start" x="444.5" y="-886" font-family="Helvetica,sans-Serif" font-size="10.00">commands.information.Base</text>
<text text-anchor="middle" x="514" y="-875" font-family="Helvetica,sans-Serif" font-size="10.00">TurtleContainer.undo</text>
</a>
</g>
</g>
<!-- Node3&#45;&gt;Node33 -->
<g id="edge32" class="edge"><title>Node3&#45;&gt;Node33</title>
<path fill="none" stroke="midnightblue" d="M306.563,-735.94C326.337,-768.614 366.208,-826.681 416,-858 422.33,-861.981 429.27,-865.331 436.437,-868.148"/>
<polygon fill="midnightblue" stroke="midnightblue" points="309.41,-733.879 301.304,-727.057 303.386,-737.445 309.41,-733.879"/>
</g>
<!-- Node34 -->
<g id="node34" class="node"><title>Node34</title>
<g id="a_node34"><a xlink:href="../../d7/d28/classcommands_1_1information_1_1_base_turtle_container.html#abaad2067c7aa6d30d7307d9ec89dcb09" target="_top" xlink:title="commands.information.Base\lTurtleContainer.setVisibility">
<polygon fill="white" stroke="black" points="436.5,-1064 436.5,-1094 591.5,-1094 591.5,-1064 436.5,-1064"/>
<text text-anchor="start" x="444.5" y="-1082" font-family="Helvetica,sans-Serif" font-size="10.00">commands.information.Base</text>
<text text-anchor="middle" x="514" y="-1071" font-family="Helvetica,sans-Serif" font-size="10.00">TurtleContainer.setVisibility</text>
</a>
</g>
</g>
<!-- Node3&#45;&gt;Node34 -->
<g id="edge33" class="edge"><title>Node3&#45;&gt;Node34</title>
<path fill="none" stroke="midnightblue" d="M294.368,-737.648C299.188,-801.223 320.738,-967.209 416,-1054 421.913,-1059.39 428.834,-1063.65 436.208,-1067.01"/>
<polygon fill="midnightblue" stroke="midnightblue" points="297.838,-737.083 293.669,-727.343 290.854,-737.557 297.838,-737.083"/>
</g>
<!-- Node4&#45;&gt;Node5 -->
<g id="edge4" class="edge"><title>Node4&#45;&gt;Node5</title>
<path fill="none" stroke="midnightblue" d="M601.682,-1267.22C620.893,-1270.15 641.138,-1273.23 659.979,-1276.1"/>
<polygon fill="midnightblue" stroke="midnightblue" points="602.157,-1263.75 591.744,-1265.7 601.102,-1270.67 602.157,-1263.75"/>
</g>
<!-- Node4&#45;&gt;Node6 -->
<g id="edge5" class="edge"><title>Node4&#45;&gt;Node6</title>
<path fill="none" stroke="midnightblue" d="M601.682,-1240.78C620.893,-1237.85 641.138,-1234.77 659.979,-1231.9"/>
<polygon fill="midnightblue" stroke="midnightblue" points="601.102,-1237.33 591.744,-1242.3 602.157,-1244.25 601.102,-1237.33"/>
</g>
<!-- Node8&#45;&gt;Node9 -->
<g id="edge8" class="edge"><title>Node8&#45;&gt;Node9</title>
<path fill="none" stroke="midnightblue" d="M602.13,-1136.21C618.11,-1137.71 634.793,-1139.28 650.777,-1140.79"/>
<polygon fill="midnightblue" stroke="midnightblue" points="602.028,-1132.68 591.744,-1135.23 601.372,-1139.65 602.028,-1132.68"/>
</g>
<!-- Node10&#45;&gt;Node11 -->
<g id="edge10" class="edge"><title>Node10&#45;&gt;Node11</title>
<path fill="none" stroke="midnightblue" d="M575.166,-286.906C587.391,-283.085 600.137,-278.997 612,-275 641.13,-265.185 673.719,-253.262 698.456,-244.014"/>
<polygon fill="midnightblue" stroke="midnightblue" points="574.012,-283.599 565.499,-289.906 576.087,-290.285 574.012,-283.599"/>
</g>
<!-- Node12&#45;&gt;Node13 -->
<g id="edge12" class="edge"><title>Node12&#45;&gt;Node13</title>
<path fill="none" stroke="midnightblue" d="M601.873,-151.518C618.318,-153.509 635.516,-155.592 651.937,-157.58"/>
<polygon fill="midnightblue" stroke="midnightblue" points="602.092,-148.019 591.744,-150.292 601.251,-154.969 602.092,-148.019"/>
</g>
<!-- Node12&#45;&gt;Node14 -->
<g id="edge13" class="edge"><title>Node12&#45;&gt;Node14</title>
<path fill="none" stroke="midnightblue" d="M602.06,-130.069C617.933,-128.076 634.501,-125.995 650.39,-124"/>
<polygon fill="midnightblue" stroke="midnightblue" points="601.23,-126.645 591.744,-131.364 602.102,-133.591 601.23,-126.645"/>
</g>
<!-- Node12&#45;&gt;Node15 -->
<g id="edge14" class="edge"><title>Node12&#45;&gt;Node15</title>
<path fill="none" stroke="midnightblue" d="M559.693,-122.053C585.329,-111.472 618.238,-98.372 648,-88 659.861,-83.8664 672.73,-79.7767 684.926,-76.0785"/>
<polygon fill="midnightblue" stroke="midnightblue" points="558.14,-118.908 550.245,-125.974 560.823,-125.373 558.14,-118.908"/>
</g>
<!-- Node16&#45;&gt;Node17 -->
<g id="edge16" class="edge"><title>Node16&#45;&gt;Node17</title>
<path fill="none" stroke="midnightblue" d="M621.763,-364.533C634.581,-365.797 647.483,-367.07 659.789,-368.284"/>
<polygon fill="midnightblue" stroke="midnightblue" points="621.809,-361.02 611.514,-363.522 621.122,-367.987 621.809,-361.02"/>
</g>
<!-- Node16&#45;&gt;Node18 -->
<g id="edge17" class="edge"><title>Node16&#45;&gt;Node18</title>
<path fill="none" stroke="midnightblue" d="M590.702,-336.687C617.22,-330.622 646.76,-323.867 672.383,-318.006"/>
<polygon fill="midnightblue" stroke="midnightblue" points="589.669,-333.333 580.701,-338.974 591.23,-340.157 589.669,-333.333"/>
</g>
<!-- Node20 -->
<g id="node20" class="node"><title>Node20</title>
<g id="a_node20"><a xlink:href="../../df/d9a/classcommands_1_1view_queries_1_1_heading_query.html#acf74ab2c96e2c261837f9a6df863d4b1" target="_top" xlink:title="commands.viewQueries.Heading\lQuery.onExecute">
<polygon fill="white" stroke="black" points="652.5,-770 652.5,-800 825.5,-800 825.5,-770 652.5,-770"/>
<text text-anchor="start" x="660.5" y="-788" font-family="Helvetica,sans-Serif" font-size="10.00">commands.viewQueries.Heading</text>
<text text-anchor="middle" x="739" y="-777" font-family="Helvetica,sans-Serif" font-size="10.00">Query.onExecute</text>
</a>
</g>
</g>
<!-- Node19&#45;&gt;Node20 -->
<g id="edge19" class="edge"><title>Node19&#45;&gt;Node20</title>
<path fill="none" stroke="midnightblue" d="M604.487,-785C620.222,-785 636.565,-785 652.196,-785"/>
<polygon fill="midnightblue" stroke="midnightblue" points="604.249,-781.5 594.249,-785 604.249,-788.5 604.249,-781.5"/>
</g>
<!-- Node22 -->
<g id="node22" class="node"><title>Node22</title>
<g id="a_node22"><a xlink:href="../../d2/d08/classcommands_1_1view_queries_1_1_x_cor_query.html#a44c55e9da2eb3e1ed1347c6a78594c13" target="_top" xlink:title="commands.viewQueries.XCor\lQuery.onExecute">
<polygon fill="white" stroke="black" points="661.5,-721 661.5,-751 816.5,-751 816.5,-721 661.5,-721"/>
<text text-anchor="start" x="669.5" y="-739" font-family="Helvetica,sans-Serif" font-size="10.00">commands.viewQueries.XCor</text>
<text text-anchor="middle" x="739" y="-728" font-family="Helvetica,sans-Serif" font-size="10.00">Query.onExecute</text>
</a>
</g>
</g>
<!-- Node21&#45;&gt;Node22 -->
<g id="edge21" class="edge"><title>Node21&#45;&gt;Node22</title>
<path fill="none" stroke="midnightblue" d="M601.912,-736C621.57,-736 642.301,-736 661.493,-736"/>
<polygon fill="midnightblue" stroke="midnightblue" points="601.744,-732.5 591.744,-736 601.744,-739.5 601.744,-732.5"/>
</g>
<!-- Node24 -->
<g id="node24" class="node"><title>Node24</title>
<g id="a_node24"><a xlink:href="../../dd/d29/classcommands_1_1view_queries_1_1_y_cor_query.html#a7696faaaf9f1945921769d65f2968918" target="_top" xlink:title="commands.viewQueries.YCor\lQuery.onExecute">
<polygon fill="white" stroke="black" points="661.5,-672 661.5,-702 816.5,-702 816.5,-672 661.5,-672"/>
<text text-anchor="start" x="669.5" y="-690" font-family="Helvetica,sans-Serif" font-size="10.00">commands.viewQueries.YCor</text>
<text text-anchor="middle" x="739" y="-679" font-family="Helvetica,sans-Serif" font-size="10.00">Query.onExecute</text>
</a>
</g>
</g>
<!-- Node23&#45;&gt;Node24 -->
<g id="edge23" class="edge"><title>Node23&#45;&gt;Node24</title>
<path fill="none" stroke="midnightblue" d="M601.912,-687C621.57,-687 642.301,-687 661.493,-687"/>
<polygon fill="midnightblue" stroke="midnightblue" points="601.744,-683.5 591.744,-687 601.744,-690.5 601.744,-683.5"/>
</g>
<!-- Node35 -->
<g id="node35" class="node"><title>Node35</title>
<g id="a_node35"><a xlink:href="../../dd/d47/classcommands_1_1view_commands_1_1_hide_turtle_command.html#ae576730cb9ad5d764e58521e520ae61a" target="_top" xlink:title="commands.viewCommands.Hide\lTurtleCommand.onExecute">
<polygon fill="white" stroke="black" points="652,-1074 652,-1104 826,-1104 826,-1074 652,-1074"/>
<text text-anchor="start" x="660" y="-1092" font-family="Helvetica,sans-Serif" font-size="10.00">commands.viewCommands.Hide</text>
<text text-anchor="middle" x="739" y="-1081" font-family="Helvetica,sans-Serif" font-size="10.00">TurtleCommand.onExecute</text>
</a>
</g>
</g>
<!-- Node34&#45;&gt;Node35 -->
<g id="edge34" class="edge"><title>Node34&#45;&gt;Node35</title>
<path fill="none" stroke="midnightblue" d="M601.873,-1082.9C618.318,-1083.63 635.516,-1084.4 651.937,-1085.14"/>
<polygon fill="midnightblue" stroke="midnightblue" points="601.891,-1079.39 591.744,-1082.44 601.577,-1086.39 601.891,-1079.39"/>
</g>
<!-- Node36 -->
<g id="node36" class="node"><title>Node36</title>
<g id="a_node36"><a xlink:href="../../df/d5c/classcommands_1_1view_commands_1_1_show_turtle_command.html#a0b9a1c9976d375d5a7d63b03b0ed83d4" target="_top" xlink:title="commands.viewCommands.Show\lTurtleCommand.onExecute">
<polygon fill="white" stroke="black" points="650,-1025 650,-1055 828,-1055 828,-1025 650,-1025"/>
<text text-anchor="start" x="658" y="-1043" font-family="Helvetica,sans-Serif" font-size="10.00">commands.viewCommands.Show</text>
<text text-anchor="middle" x="739" y="-1032" font-family="Helvetica,sans-Serif" font-size="10.00">TurtleCommand.onExecute</text>
</a>
</g>
</g>
<!-- Node34&#45;&gt;Node36 -->
<g id="edge35" class="edge"><title>Node34&#45;&gt;Node36</title>
<path fill="none" stroke="midnightblue" d="M601.873,-1063.81C618.318,-1060.93 635.516,-1057.92 651.937,-1055.05"/>
<polygon fill="midnightblue" stroke="midnightblue" points="600.991,-1060.41 591.744,-1065.58 602.197,-1067.3 600.991,-1060.41"/>
</g>
</g>
</svg>
        <g id="navigator" transform="translate(0 0)" fill="#404254">
                <rect fill="#f2f5e9" fill-opacity="0.5" stroke="#606060" stroke-width=".5" x="0" y="0" width="60" height="60"/>
                <use id="zoomplus" xlink:href="#zoomPlus" x="17" y="9" onmousedown="handleZoom(evt,'in')"/>
                <use id="zoomminus" xlink:href="#zoomMin" x="42" y="9" onmousedown="handleZoom(evt,'out')"/>
                <use id="reset" xlink:href="#resetDef" x="30" y="36" onmousedown="handleReset()"/>
                <g id="arrowUp" xlink:href="#dirArrow" transform="translate(30 24)" onmousedown="handlePan(0,-1)">
                  <use xlink:href="#rim" fill="#404040">
                        <set attributeName="fill" to="#808080" begin="arrowUp.mouseover" end="arrowUp.mouseout"/>
                  </use>
                  <path fill="none" stroke="white" stroke-width="1.5" d="M0,-3.0v7 M-2.5,-0.5L0,-3.0L2.5,-0.5"/>
                </g>
                <g id="arrowRight" xlink:href="#dirArrow" transform="rotate(90) translate(36 -43)" onmousedown="handlePan(1,0)">
                  <use xlink:href="#rim" fill="#404040">
                        <set attributeName="fill" to="#808080" begin="arrowRight.mouseover" end="arrowRight.mouseout"/>
                  </use>
                  <path fill="none" stroke="white" stroke-width="1.5" d="M0,-3.0v7 M-2.5,-0.5L0,-3.0L2.5,-0.5"/>
                </g>
                <g id="arrowDown" xlink:href="#dirArrow" transform="rotate(180) translate(-30 -48)" onmousedown="handlePan(0,1)">
                  <use xlink:href="#rim" fill="#404040">
                        <set attributeName="fill" to="#808080" begin="arrowDown.mouseover" end="arrowDown.mouseout"/>
                  </use>
                  <path fill="none" stroke="white" stroke-width="1.5" d="M0,-3.0v7 M-2.5,-0.5L0,-3.0L2.5,-0.5"/>
                </g>
                <g id="arrowLeft" xlink:href="#dirArrow" transform="rotate(270) translate(-36 17)" onmousedown="handlePan(-1,0)">
                  <use xlink:href="#rim" fill="#404040">
                        <set attributeName="fill" to="#808080" begin="arrowLeft.mouseover" end="arrowLeft.mouseout"/>
                  </use>
                  <path fill="none" stroke="white" stroke-width="1.5" d="M0,-3.0v7 M-2.5,-0.5L0,-3.0L2.5,-0.5"/>
                </g>
        </g>
        <svg viewBox="0 0 15 15" width="100%" height="30px" preserveAspectRatio="xMaxYMin meet">
         <g id="arrow_out" transform="scale(0.3 0.3)">
          <a xlink:href="classcommands_1_1information_1_1_base_turtle_container_a704eca72b47c6a35888f2868beaec2d3_icgraph_org.svg" target="_base">
           <rect id="button" ry="5" rx="5" y="6" x="6" height="38" width="38"
                fill="#f2f5e9" fill-opacity="0.5" stroke="#606060" stroke-width="1.0"/>
           <path id="arrow"
             d="M 11.500037,31.436501 C 11.940474,20.09759 22.043105,11.32322 32.158766,21.979434 L 37.068811,17.246167 C 37.068811,17.246167 37.088388,32 37.088388,32 L 22.160133,31.978069 C 22.160133,31.978069 26.997745,27.140456 26.997745,27.140456 C 18.528582,18.264221 13.291696,25.230495 11.500037,31.436501 z"
             style="fill:#404040;"/>
          </a>
         </g>
        </svg>
</svg>
