<?xml version="1.0" encoding="UTF-8" standalone="no"?>
<!DOCTYPE svg PUBLIC "-//W3C//DTD SVG 1.1//EN"
 "http://www.w3.org/Graphics/SVG/1.1/DTD/svg11.dtd">
<!-- Generated by graphviz version 2.36.0 (20140111.2315)
 -->
<!-- Title: commands.information.BaseTurtleContainer.addTurtle Pages: 1 -->
<svg width="870pt" height="229pt"
 viewBox="0.00 0.00 870.00 229.00" xmlns="http://www.w3.org/2000/svg" xmlns:xlink="http://www.w3.org/1999/xlink">
<g id="graph0" class="graph" transform="scale(1 1) rotate(0) translate(4 225)">
<title>commands.information.BaseTurtleContainer.addTurtle</title>
<polygon fill="white" stroke="none" points="-4,4 -4,-225 866,-225 866,4 -4,4"/>
<!-- Node1 -->
<g id="node1" class="node"><title>Node1</title>
<polygon fill="#bfbfbf" stroke="black" points="0.5,-93 0.5,-123 155.5,-123 155.5,-93 0.5,-93"/>
<text text-anchor="start" x="8.5" y="-111" font-family="Helvetica,sans-Serif" font-size="10.00">commands.information.Base</text>
<text text-anchor="middle" x="78" y="-100" font-family="Helvetica,sans-Serif" font-size="10.00">TurtleContainer.addTurtle</text>
</g>
<!-- Node2 -->
<g id="node2" class="node"><title>Node2</title>
<g id="a_node2"><a xlink:href="../../d9/d20/classcommands_1_1turtle_commands_1_1_multiple_turtle_command.html#a226d71bf1a9b6f4287eef7ee607e0742" target="_top" xlink:title="commands.turtleCommands.\lMultipleTurtleCommand.addFuture\lActiveTurtleTurtles">
<polygon fill="white" stroke="black" points="192,-141.5 192,-182.5 372,-182.5 372,-141.5 192,-141.5"/>
<text text-anchor="start" x="200" y="-170.5" font-family="Helvetica,sans-Serif" font-size="10.00">commands.turtleCommands.</text>
<text text-anchor="start" x="200" y="-159.5" font-family="Helvetica,sans-Serif" font-size="10.00">MultipleTurtleCommand.addFuture</text>
<text text-anchor="middle" x="282" y="-148.5" font-family="Helvetica,sans-Serif" font-size="10.00">ActiveTurtleTurtles</text>
</a>
</g>
</g>
<!-- Node1&#45;&gt;Node2 -->
<g id="edge1" class="edge"><title>Node1&#45;&gt;Node2</title>
<path fill="none" stroke="midnightblue" d="M144.986,-125.64C163.928,-130.703 184.745,-136.268 204.275,-141.489"/>
<polygon fill="midnightblue" stroke="midnightblue" points="145.833,-122.243 135.268,-123.042 144.025,-129.006 145.833,-122.243"/>
</g>
<!-- Node5 -->
<g id="node5" class="node"><title>Node5</title>
<g id="a_node5"><a xlink:href="../../d9/d00/classcommunicator_1_1_main_controller.html#a93573f54d48c3a5154789c8267ef4834" target="_top" xlink:title="communicator.MainController.add\lTurtle">
<polygon fill="white" stroke="black" points="193,-93 193,-123 371,-123 371,-93 193,-93"/>
<text text-anchor="start" x="201" y="-111" font-family="Helvetica,sans-Serif" font-size="10.00">communicator.MainController.add</text>
<text text-anchor="middle" x="282" y="-100" font-family="Helvetica,sans-Serif" font-size="10.00">Turtle</text>
</a>
</g>
</g>
<!-- Node1&#45;&gt;Node5 -->
<g id="edge4" class="edge"><title>Node1&#45;&gt;Node5</title>
<path fill="none" stroke="midnightblue" d="M165.732,-108C174.728,-108 183.879,-108 192.891,-108"/>
<polygon fill="midnightblue" stroke="midnightblue" points="165.656,-104.5 155.656,-108 165.656,-111.5 165.656,-104.5"/>
</g>
<!-- Node9 -->
<g id="node9" class="node"><title>Node9</title>
<g id="a_node9"><a xlink:href="../../d3/d0c/classtests_1_1_ask_with_test.html#a799076287011ef49d94aa61298cd311e" target="_top" xlink:title="tests.AskWithTest.setFactory">
<polygon fill="white" stroke="black" points="206,-54.5 206,-73.5 358,-73.5 358,-54.5 206,-54.5"/>
<text text-anchor="middle" x="282" y="-61.5" font-family="Helvetica,sans-Serif" font-size="10.00">tests.AskWithTest.setFactory</text>
</a>
</g>
</g>
<!-- Node1&#45;&gt;Node9 -->
<g id="edge8" class="edge"><title>Node1&#45;&gt;Node9</title>
<path fill="none" stroke="midnightblue" d="M156.429,-90.7902C168.338,-88.1661 180.496,-85.5005 192,-83 206.358,-79.8791 222.03,-76.5182 236.166,-73.5036"/>
<polygon fill="midnightblue" stroke="midnightblue" points="155.514,-87.4077 146.503,-92.98 157.022,-94.2433 155.514,-87.4077"/>
</g>
<!-- Node3 -->
<g id="node3" class="node"><title>Node3</title>
<g id="a_node3"><a xlink:href="../../d6/de1/classcommands_1_1turtle_commands_1_1_ask_command.html#af55174501ae461af21d6546f83cdc521" target="_top" xlink:title="commands.turtleCommands.\lAskCommand.onExecute">
<polygon fill="white" stroke="black" points="408,-191 408,-221 566,-221 566,-191 408,-191"/>
<text text-anchor="start" x="416" y="-209" font-family="Helvetica,sans-Serif" font-size="10.00">commands.turtleCommands.</text>
<text text-anchor="middle" x="487" y="-198" font-family="Helvetica,sans-Serif" font-size="10.00">AskCommand.onExecute</text>
</a>
</g>
</g>
<!-- Node2&#45;&gt;Node3 -->
<g id="edge2" class="edge"><title>Node2&#45;&gt;Node3</title>
<path fill="none" stroke="midnightblue" d="M381.865,-183.429C393.592,-185.971 405.366,-188.523 416.56,-190.949"/>
<polygon fill="midnightblue" stroke="midnightblue" points="382.553,-179.997 372.039,-181.299 381.07,-186.838 382.553,-179.997"/>
</g>
<!-- Node4 -->
<g id="node4" class="node"><title>Node4</title>
<g id="a_node4"><a xlink:href="../../d3/d71/classcommands_1_1turtle_commands_1_1_tell_command.html#aa72781f5952898b86ddd628eddb559c3" target="_top" xlink:title="commands.turtleCommands.\lTellCommand.onExecute">
<polygon fill="white" stroke="black" points="408,-142 408,-172 566,-172 566,-142 408,-142"/>
<text text-anchor="start" x="416" y="-160" font-family="Helvetica,sans-Serif" font-size="10.00">commands.turtleCommands.</text>
<text text-anchor="middle" x="487" y="-149" font-family="Helvetica,sans-Serif" font-size="10.00">TellCommand.onExecute</text>
</a>
</g>
</g>
<!-- Node2&#45;&gt;Node4 -->
<g id="edge3" class="edge"><title>Node2&#45;&gt;Node4</title>
<path fill="none" stroke="midnightblue" d="M382.146,-159.558C390.778,-159.345 399.432,-159.132 407.86,-158.925"/>
<polygon fill="midnightblue" stroke="midnightblue" points="381.95,-156.062 372.039,-159.807 382.122,-163.06 381.95,-156.062"/>
</g>
<!-- Node6 -->
<g id="node6" class="node"><title>Node6</title>
<g id="a_node6"><a xlink:href="../../d6/d33/class_view_1_1_slogo_view.html#a05ea476b14d0f5b642dbcd4449cdb9cb" target="_top" xlink:title="View.SlogoView.addTurtle">
<polygon fill="white" stroke="black" points="419.5,-98.5 419.5,-117.5 554.5,-117.5 554.5,-98.5 419.5,-98.5"/>
<text text-anchor="middle" x="487" y="-105.5" font-family="Helvetica,sans-Serif" font-size="10.00">View.SlogoView.addTurtle</text>
</a>
</g>
</g>
<!-- Node5&#45;&gt;Node6 -->
<g id="edge5" class="edge"><title>Node5&#45;&gt;Node6</title>
<path fill="none" stroke="midnightblue" d="M381.423,-108C394.266,-108 407.175,-108 419.325,-108"/>
<polygon fill="midnightblue" stroke="midnightblue" points="381.153,-104.5 371.153,-108 381.153,-111.5 381.153,-104.5"/>
</g>
<!-- Node7 -->
<g id="node7" class="node"><title>Node7</title>
<g id="a_node7"><a xlink:href="../../d6/d33/class_view_1_1_slogo_view.html#acfeff052503655d2ac419d2bf4ea9bd5" target="_top" xlink:title="View.SlogoView.initialize">
<polygon fill="white" stroke="black" points="602,-98.5 602,-117.5 732,-117.5 732,-98.5 602,-98.5"/>
<text text-anchor="middle" x="667" y="-105.5" font-family="Helvetica,sans-Serif" font-size="10.00">View.SlogoView.initialize</text>
</a>
</g>
</g>
<!-- Node6&#45;&gt;Node7 -->
<g id="edge6" class="edge"><title>Node6&#45;&gt;Node7</title>
<path fill="none" stroke="midnightblue" d="M564.826,-108C577.194,-108 589.881,-108 601.908,-108"/>
<polygon fill="midnightblue" stroke="midnightblue" points="564.534,-104.5 554.534,-108 564.534,-111.5 564.534,-104.5"/>
</g>
<!-- Node8 -->
<g id="node8" class="node"><title>Node8</title>
<g id="a_node8"><a xlink:href="../../db/d27/class_view_1_1_slogo.html#a6ab76a53160b61d8501aec91c55b85c8" target="_top" xlink:title="View.Slogo.start">
<polygon fill="white" stroke="black" points="768.5,-98.5 768.5,-117.5 861.5,-117.5 861.5,-98.5 768.5,-98.5"/>
<text text-anchor="middle" x="815" y="-105.5" font-family="Helvetica,sans-Serif" font-size="10.00">View.Slogo.start</text>
</a>
</g>
</g>
<!-- Node7&#45;&gt;Node8 -->
<g id="edge7" class="edge"><title>Node7&#45;&gt;Node8</title>
<path fill="none" stroke="midnightblue" d="M742.142,-108C751.108,-108 760.051,-108 768.43,-108"/>
<polygon fill="midnightblue" stroke="midnightblue" points="742.038,-104.5 732.038,-108 742.038,-111.5 742.038,-104.5"/>
</g>
<!-- Node10 -->
<g id="node10" class="node"><title>Node10</title>
<g id="a_node10"><a xlink:href="../../d3/d0c/classtests_1_1_ask_with_test.html#a54f2ed263239909256bb93e91afc3ecc" target="_top" xlink:title="tests.AskWithTest.testAlways\lTrueAskWith">
<polygon fill="white" stroke="black" points="410,-49 410,-79 564,-79 564,-49 410,-49"/>
<text text-anchor="start" x="418" y="-67" font-family="Helvetica,sans-Serif" font-size="10.00">tests.AskWithTest.testAlways</text>
<text text-anchor="middle" x="487" y="-56" font-family="Helvetica,sans-Serif" font-size="10.00">TrueAskWith</text>
</a>
</g>
</g>
<!-- Node9&#45;&gt;Node10 -->
<g id="edge9" class="edge"><title>Node9&#45;&gt;Node10</title>
<path fill="none" stroke="midnightblue" d="M368.045,-64C381.947,-64 396.272,-64 409.939,-64"/>
<polygon fill="midnightblue" stroke="midnightblue" points="368.013,-60.5001 358.013,-64 368.013,-67.5001 368.013,-60.5001"/>
</g>
<!-- Node11 -->
<g id="node11" class="node"><title>Node11</title>
<g id="a_node11"><a xlink:href="../../d3/d0c/classtests_1_1_ask_with_test.html#a49a8519276b23ed93a3f90d7c2058fc5" target="_top" xlink:title="tests.AskWithTest.testXCor\lAskWith">
<polygon fill="white" stroke="black" points="415.5,-0 415.5,-30 558.5,-30 558.5,-0 415.5,-0"/>
<text text-anchor="start" x="423.5" y="-18" font-family="Helvetica,sans-Serif" font-size="10.00">tests.AskWithTest.testXCor</text>
<text text-anchor="middle" x="487" y="-7" font-family="Helvetica,sans-Serif" font-size="10.00">AskWith</text>
</a>
</g>
</g>
<!-- Node9&#45;&gt;Node11 -->
<g id="edge10" class="edge"><title>Node9&#45;&gt;Node11</title>
<path fill="none" stroke="midnightblue" d="M332.411,-52.0732C359.9,-45.438 394.381,-37.1149 423.704,-30.037"/>
<polygon fill="midnightblue" stroke="midnightblue" points="331.522,-48.6872 322.622,-54.436 333.164,-55.4918 331.522,-48.6872"/>
</g>
</g>
</svg>
