<?xml version="1.0" encoding="UTF-8" standalone="no"?>
<!DOCTYPE svg PUBLIC "-//W3C//DTD SVG 1.1//EN"
 "http://www.w3.org/Graphics/SVG/1.1/DTD/svg11.dtd">
<!-- Generated by graphviz version 2.36.0 (20140111.2315)
 -->
<!-- Title: commands.information.BaseTurtleContainer.setVisibility Pages: 1 -->
<svg width="378pt" height="87pt"
 viewBox="0.00 0.00 378.00 87.00" xmlns="http://www.w3.org/2000/svg" xmlns:xlink="http://www.w3.org/1999/xlink">
<g id="graph0" class="graph" transform="scale(1 1) rotate(0) translate(4 83)">
<title>commands.information.BaseTurtleContainer.setVisibility</title>
<polygon fill="white" stroke="none" points="-4,4 -4,-83 374,-83 374,4 -4,4"/>
<!-- Node1 -->
<g id="node1" class="node"><title>Node1</title>
<polygon fill="#bfbfbf" stroke="black" points="0.5,-24 0.5,-54 155.5,-54 155.5,-24 0.5,-24"/>
<text text-anchor="start" x="8.5" y="-42" font-family="Helvetica,sans-Serif" font-size="10.00">commands.information.Base</text>
<text text-anchor="middle" x="78" y="-31" font-family="Helvetica,sans-Serif" font-size="10.00">TurtleContainer.setVisibility</text>
</g>
<!-- Node2 -->
<g id="node2" class="node"><title>Node2</title>
<g id="a_node2"><a xlink:href="../../dd/d47/classcommands_1_1view_commands_1_1_hide_turtle_command.html#ae576730cb9ad5d764e58521e520ae61a" target="_top" xlink:title="commands.viewCommands.Hide\lTurtleCommand.onExecute">
<polygon fill="white" stroke="black" points="194,-49 194,-79 368,-79 368,-49 194,-49"/>
<text text-anchor="start" x="202" y="-67" font-family="Helvetica,sans-Serif" font-size="10.00">commands.viewCommands.Hide</text>
<text text-anchor="middle" x="281" y="-56" font-family="Helvetica,sans-Serif" font-size="10.00">TurtleCommand.onExecute</text>
</a>
</g>
</g>
<!-- Node1&#45;&gt;Node2 -->
<g id="edge1" class="edge"><title>Node1&#45;&gt;Node2</title>
<path fill="none" stroke="midnightblue" d="M165.649,-49.7772C175.017,-50.9425 184.55,-52.1281 193.912,-53.2925"/>
<polygon fill="midnightblue" stroke="midnightblue" points="165.918,-46.2839 155.563,-48.5227 165.054,-53.2303 165.918,-46.2839"/>
</g>
<!-- Node3 -->
<g id="node3" class="node"><title>Node3</title>
<g id="a_node3"><a xlink:href="../../df/d5c/classcommands_1_1view_commands_1_1_show_turtle_command.html#a0b9a1c9976d375d5a7d63b03b0ed83d4" target="_top" xlink:title="commands.viewCommands.Show\lTurtleCommand.onExecute">
<polygon fill="white" stroke="black" points="192,-0 192,-30 370,-30 370,-0 192,-0"/>
<text text-anchor="start" x="200" y="-18" font-family="Helvetica,sans-Serif" font-size="10.00">commands.viewCommands.Show</text>
<text text-anchor="middle" x="281" y="-7" font-family="Helvetica,sans-Serif" font-size="10.00">TurtleCommand.onExecute</text>
</a>
</g>
</g>
<!-- Node1&#45;&gt;Node3 -->
<g id="edge2" class="edge"><title>Node1&#45;&gt;Node3</title>
<path fill="none" stroke="midnightblue" d="M165.675,-28.6507C174.358,-27.614 183.181,-26.5605 191.878,-25.522"/>
<polygon fill="midnightblue" stroke="midnightblue" points="165.077,-25.1972 155.563,-29.8582 165.907,-32.1478 165.077,-25.1972"/>
</g>
</g>
</svg>
