<?xml version="1.0" encoding="UTF-8" standalone="no"?>
<!DOCTYPE svg PUBLIC "-//W3C//DTD SVG 1.1//EN"
 "http://www.w3.org/Graphics/SVG/1.1/DTD/svg11.dtd">
<!-- Generated by graphviz version 2.36.0 (20140111.2315)
 -->
<!-- Title: commands.information.BaseTurtleContainer.hardSetActiveTurtles Pages: 1 -->
<svg width="608pt" height="141pt"
 viewBox="0.00 0.00 608.00 141.00" xmlns="http://www.w3.org/2000/svg" xmlns:xlink="http://www.w3.org/1999/xlink">
<g id="graph0" class="graph" transform="scale(1 1) rotate(0) translate(4 137)">
<title>commands.information.BaseTurtleContainer.hardSetActiveTurtles</title>
<polygon fill="white" stroke="none" points="-4,4 -4,-137 604,-137 604,4 -4,4"/>
<!-- Node1 -->
<g id="node1" class="node"><title>Node1</title>
<polygon fill="#bfbfbf" stroke="black" points="0.5,-54 0.5,-84 189.5,-84 189.5,-54 0.5,-54"/>
<text text-anchor="start" x="8.5" y="-72" font-family="Helvetica,sans-Serif" font-size="10.00">commands.information.Base</text>
<text text-anchor="middle" x="95" y="-61" font-family="Helvetica,sans-Serif" font-size="10.00">TurtleContainer.hardSetActiveTurtles</text>
</g>
<!-- Node2 -->
<g id="node2" class="node"><title>Node2</title>
<g id="a_node2"><a xlink:href="../../d9/d20/classcommands_1_1turtle_commands_1_1_multiple_turtle_command.html#a226d71bf1a9b6f4287eef7ee607e0742" target="_top" xlink:title="commands.turtleCommands.\lMultipleTurtleCommand.addFuture\lActiveTurtleTurtles">
<polygon fill="white" stroke="black" points="226,-48.5 226,-89.5 406,-89.5 406,-48.5 226,-48.5"/>
<text text-anchor="start" x="234" y="-77.5" font-family="Helvetica,sans-Serif" font-size="10.00">commands.turtleCommands.</text>
<text text-anchor="start" x="234" y="-66.5" font-family="Helvetica,sans-Serif" font-size="10.00">MultipleTurtleCommand.addFuture</text>
<text text-anchor="middle" x="316" y="-55.5" font-family="Helvetica,sans-Serif" font-size="10.00">ActiveTurtleTurtles</text>
</a>
</g>
</g>
<!-- Node1&#45;&gt;Node2 -->
<g id="edge1" class="edge"><title>Node1&#45;&gt;Node2</title>
<path fill="none" stroke="midnightblue" d="M199.762,-69C208.525,-69 217.338,-69 225.974,-69"/>
<polygon fill="midnightblue" stroke="midnightblue" points="199.511,-65.5001 189.511,-69 199.511,-72.5001 199.511,-65.5001"/>
</g>
<!-- Node3 -->
<g id="node3" class="node"><title>Node3</title>
<g id="a_node3"><a xlink:href="../../d6/de1/classcommands_1_1turtle_commands_1_1_ask_command.html#af55174501ae461af21d6546f83cdc521" target="_top" xlink:title="commands.turtleCommands.\lAskCommand.onExecute">
<polygon fill="white" stroke="black" points="442,-103 442,-133 600,-133 600,-103 442,-103"/>
<text text-anchor="start" x="450" y="-121" font-family="Helvetica,sans-Serif" font-size="10.00">commands.turtleCommands.</text>
<text text-anchor="middle" x="521" y="-110" font-family="Helvetica,sans-Serif" font-size="10.00">AskCommand.onExecute</text>
</a>
</g>
</g>
<!-- Node1&#45;&gt;Node3 -->
<g id="edge4" class="edge"><title>Node1&#45;&gt;Node3</title>
<path fill="none" stroke="midnightblue" d="M164.381,-86.2934C184.15,-90.7372 205.835,-95.0821 226,-98 298.784,-108.532 382.529,-113.542 441.976,-115.911"/>
<polygon fill="midnightblue" stroke="midnightblue" points="165.07,-82.8608 154.541,-84.0389 163.507,-89.684 165.07,-82.8608"/>
</g>
<!-- Node5 -->
<g id="node5" class="node"><title>Node5</title>
<g id="a_node5"><a xlink:href="../../d5/d06/classcommands_1_1turtle_commands_1_1_ask_with_command.html#a07b217e59066d96b04c498c1be9b905a" target="_top" xlink:title="commands.turtleCommands.\lAskWithCommand.onExecute">
<polygon fill="white" stroke="black" points="237,-0 237,-30 395,-30 395,-0 237,-0"/>
<text text-anchor="start" x="245" y="-18" font-family="Helvetica,sans-Serif" font-size="10.00">commands.turtleCommands.</text>
<text text-anchor="middle" x="316" y="-7" font-family="Helvetica,sans-Serif" font-size="10.00">AskWithCommand.onExecute</text>
</a>
</g>
</g>
<!-- Node1&#45;&gt;Node5 -->
<g id="edge5" class="edge"><title>Node1&#45;&gt;Node5</title>
<path fill="none" stroke="midnightblue" d="M166.767,-51.5507C194.869,-44.6213 226.879,-36.7284 253.944,-30.0549"/>
<polygon fill="midnightblue" stroke="midnightblue" points="165.875,-48.1656 157.004,-53.958 167.551,-54.9621 165.875,-48.1656"/>
</g>
<!-- Node2&#45;&gt;Node3 -->
<g id="edge2" class="edge"><title>Node2&#45;&gt;Node3</title>
<path fill="none" stroke="midnightblue" d="M412.326,-92.0097C427.788,-95.742 443.442,-99.5205 457.846,-102.997"/>
<polygon fill="midnightblue" stroke="midnightblue" points="412.75,-88.5116 402.208,-89.5674 411.107,-95.3162 412.75,-88.5116"/>
</g>
<!-- Node4 -->
<g id="node4" class="node"><title>Node4</title>
<g id="a_node4"><a xlink:href="../../d3/d71/classcommands_1_1turtle_commands_1_1_tell_command.html#aa72781f5952898b86ddd628eddb559c3" target="_top" xlink:title="commands.turtleCommands.\lTellCommand.onExecute">
<polygon fill="white" stroke="black" points="442,-54 442,-84 600,-84 600,-54 442,-54"/>
<text text-anchor="start" x="450" y="-72" font-family="Helvetica,sans-Serif" font-size="10.00">commands.turtleCommands.</text>
<text text-anchor="middle" x="521" y="-61" font-family="Helvetica,sans-Serif" font-size="10.00">TellCommand.onExecute</text>
</a>
</g>
</g>
<!-- Node2&#45;&gt;Node4 -->
<g id="edge3" class="edge"><title>Node2&#45;&gt;Node4</title>
<path fill="none" stroke="midnightblue" d="M416.146,-69C424.778,-69 433.432,-69 441.86,-69"/>
<polygon fill="midnightblue" stroke="midnightblue" points="416.039,-65.5001 406.039,-69 416.039,-72.5001 416.039,-65.5001"/>
</g>
</g>
</svg>
