<?xml version="1.0" encoding="UTF-8" standalone="no"?>
<!DOCTYPE svg PUBLIC "-//W3C//DTD SVG 1.1//EN"
 "http://www.w3.org/Graphics/SVG/1.1/DTD/svg11.dtd">
<!-- Generated by graphviz version 2.36.0 (20140111.2315)
 -->
<!-- Title: commands.information.BaseTurtleContainer.setPosition Pages: 1 -->
<svg width="892pt" height="212pt"
 viewBox="0.00 0.00 892.00 212.00" xmlns="http://www.w3.org/2000/svg" xmlns:xlink="http://www.w3.org/1999/xlink">
<g id="graph0" class="graph" transform="scale(1 1) rotate(0) translate(4 208)">
<title>commands.information.BaseTurtleContainer.setPosition</title>
<polygon fill="white" stroke="none" points="-4,4 -4,-208 888,-208 888,4 -4,4"/>
<!-- Node1 -->
<g id="node1" class="node"><title>Node1</title>
<polygon fill="#bfbfbf" stroke="black" points="0.5,-95 0.5,-125 155.5,-125 155.5,-95 0.5,-95"/>
<text text-anchor="start" x="8.5" y="-113" font-family="Helvetica,sans-Serif" font-size="10.00">commands.information.Base</text>
<text text-anchor="middle" x="78" y="-102" font-family="Helvetica,sans-Serif" font-size="10.00">TurtleContainer.setPosition</text>
</g>
<!-- Node2 -->
<g id="node2" class="node"><title>Node2</title>
<g id="a_node2"><a xlink:href="../../d7/d28/classcommands_1_1information_1_1_base_turtle_container.html#ae3f987ec79fb3318d8c3a1c8bd65f67b" target="_top" xlink:title="commands.information.Base\lTurtleContainer.loopOverTurtle">
<polygon fill="white" stroke="black" points="192.5,-120 192.5,-150 351.5,-150 351.5,-120 192.5,-120"/>
<text text-anchor="start" x="200.5" y="-138" font-family="Helvetica,sans-Serif" font-size="10.00">commands.information.Base</text>
<text text-anchor="middle" x="272" y="-127" font-family="Helvetica,sans-Serif" font-size="10.00">TurtleContainer.loopOverTurtle</text>
</a>
</g>
</g>
<!-- Node1&#45;&gt;Node2 -->
<g id="edge1" class="edge"><title>Node1&#45;&gt;Node2</title>
<path fill="none" stroke="midnightblue" d="M155.711,-119.988C164.439,-121.125 173.388,-122.29 182.254,-123.445"/>
<polygon fill="midnightblue" stroke="midnightblue" points="181.845,-126.921 192.213,-124.741 182.749,-119.979 181.845,-126.921"/>
</g>
<!-- Node5 -->
<g id="node5" class="node"><title>Node5</title>
<g id="a_node5"><a xlink:href="../../df/dcb/classturtle_1_1_turtle.html#ab4ccc5acaf4924205497db6d8a8125b9" target="_top" xlink:title="turtle.Turtle.setPosition">
<polygon fill="white" stroke="black" points="209,-57.5 209,-76.5 335,-76.5 335,-57.5 209,-57.5"/>
<text text-anchor="middle" x="272" y="-64.5" font-family="Helvetica,sans-Serif" font-size="10.00">turtle.Turtle.setPosition</text>
</a>
</g>
</g>
<!-- Node1&#45;&gt;Node5 -->
<g id="edge4" class="edge"><title>Node1&#45;&gt;Node5</title>
<path fill="none" stroke="midnightblue" d="M146.152,-94.9607C169.878,-89.6471 196.195,-83.7532 218.526,-78.752"/>
<polygon fill="midnightblue" stroke="midnightblue" points="219.489,-82.1232 228.482,-76.5223 217.959,-75.2924 219.489,-82.1232"/>
</g>
<!-- Node3 -->
<g id="node3" class="node"><title>Node3</title>
<g id="a_node3"><a xlink:href="../../d1/d39/interfacecommands_1_1information_1_1_base_turtle_container_1_1_turtle_action_with_result.html#a5043750fe9ea0b38e426614c999c9d60" target="_top" xlink:title="commands.information.Base\lTurtleContainer.TurtleActionWith\lResult.execute">
<polygon fill="white" stroke="black" points="388.5,-114.5 388.5,-155.5 555.5,-155.5 555.5,-114.5 388.5,-114.5"/>
<text text-anchor="start" x="396.5" y="-143.5" font-family="Helvetica,sans-Serif" font-size="10.00">commands.information.Base</text>
<text text-anchor="start" x="396.5" y="-132.5" font-family="Helvetica,sans-Serif" font-size="10.00">TurtleContainer.TurtleActionWith</text>
<text text-anchor="middle" x="472" y="-121.5" font-family="Helvetica,sans-Serif" font-size="10.00">Result.execute</text>
</a>
</g>
</g>
<!-- Node2&#45;&gt;Node3 -->
<g id="edge2" class="edge"><title>Node2&#45;&gt;Node3</title>
<path fill="none" stroke="midnightblue" d="M351.539,-135C360.325,-135 369.336,-135 378.278,-135"/>
<polygon fill="midnightblue" stroke="midnightblue" points="378.33,-138.5 388.33,-135 378.33,-131.5 378.33,-138.5"/>
</g>
<!-- Node4 -->
<g id="node4" class="node"><title>Node4</title>
<g id="a_node4"><a xlink:href="../../d7/d28/classcommands_1_1information_1_1_base_turtle_container.html#a704eca72b47c6a35888f2868beaec2d3" target="_top" xlink:title="commands.information.Base\lTurtleContainer.getActiveTurtles">
<polygon fill="white" stroke="black" points="388.5,-174 388.5,-204 555.5,-204 555.5,-174 388.5,-174"/>
<text text-anchor="start" x="396.5" y="-192" font-family="Helvetica,sans-Serif" font-size="10.00">commands.information.Base</text>
<text text-anchor="middle" x="472" y="-181" font-family="Helvetica,sans-Serif" font-size="10.00">TurtleContainer.getActiveTurtles</text>
</a>
</g>
</g>
<!-- Node2&#45;&gt;Node4 -->
<g id="edge3" class="edge"><title>Node2&#45;&gt;Node4</title>
<path fill="none" stroke="midnightblue" d="M328.154,-150.042C352.297,-156.627 380.8,-164.4 405.97,-171.264"/>
<polygon fill="midnightblue" stroke="midnightblue" points="405.23,-174.691 415.799,-173.945 407.072,-167.937 405.23,-174.691"/>
</g>
<!-- Node6 -->
<g id="node6" class="node"><title>Node6</title>
<g id="a_node6"><a xlink:href="../../df/dcb/classturtle_1_1_turtle.html#a569289374749eb6dcf64e0ed1ec7b9b2" target="_top" xlink:title="turtle.Turtle.getXYCoordinates">
<polygon fill="white" stroke="black" points="393,-76.5 393,-95.5 551,-95.5 551,-76.5 393,-76.5"/>
<text text-anchor="middle" x="472" y="-83.5" font-family="Helvetica,sans-Serif" font-size="10.00">turtle.Turtle.getXYCoordinates</text>
</a>
</g>
</g>
<!-- Node5&#45;&gt;Node6 -->
<g id="edge5" class="edge"><title>Node5&#45;&gt;Node6</title>
<path fill="none" stroke="midnightblue" d="M335.105,-72.9596C350.084,-74.3969 366.377,-75.9604 382.31,-77.4893"/>
<polygon fill="midnightblue" stroke="midnightblue" points="382.422,-81.0161 392.711,-78.4874 383.091,-74.0481 382.422,-81.0161"/>
</g>
<!-- Node11 -->
<g id="node11" class="node"><title>Node11</title>
<g id="a_node11"><a xlink:href="../../df/dcb/classturtle_1_1_turtle.html#a5db281fc734edd965ff0faddbab871d7" target="_top" xlink:title="turtle.Turtle.setXPos">
<polygon fill="white" stroke="black" points="598,-38.5 598,-57.5 710,-57.5 710,-38.5 598,-38.5"/>
<text text-anchor="middle" x="654" y="-45.5" font-family="Helvetica,sans-Serif" font-size="10.00">turtle.Turtle.setXPos</text>
</a>
</g>
</g>
<!-- Node5&#45;&gt;Node11 -->
<g id="edge10" class="edge"><title>Node5&#45;&gt;Node11</title>
<path fill="none" stroke="midnightblue" d="M335.324,-63.8838C404.862,-60.4069 516.866,-54.8067 587.62,-51.269"/>
<polygon fill="midnightblue" stroke="midnightblue" points="587.937,-54.7576 597.75,-50.7625 587.588,-47.7663 587.937,-54.7576"/>
</g>
<!-- Node14 -->
<g id="node14" class="node"><title>Node14</title>
<g id="a_node14"><a xlink:href="../../df/dcb/classturtle_1_1_turtle.html#a1107426e66ec049d5e3d1c1783a463db" target="_top" xlink:title="turtle.Turtle.setYPos">
<polygon fill="white" stroke="black" points="416.5,-0.5 416.5,-19.5 527.5,-19.5 527.5,-0.5 416.5,-0.5"/>
<text text-anchor="middle" x="472" y="-7.5" font-family="Helvetica,sans-Serif" font-size="10.00">turtle.Turtle.setYPos</text>
</a>
</g>
</g>
<!-- Node5&#45;&gt;Node14 -->
<g id="edge15" class="edge"><title>Node5&#45;&gt;Node14</title>
<path fill="none" stroke="midnightblue" d="M306.141,-57.4595C339.549,-47.8418 391.271,-32.9523 427.86,-22.419"/>
<polygon fill="midnightblue" stroke="midnightblue" points="429.11,-25.7016 437.751,-19.5716 427.173,-18.9747 429.11,-25.7016"/>
</g>
<!-- Node7 -->
<g id="node7" class="node"><title>Node7</title>
<g id="a_node7"><a xlink:href="../../df/dcb/classturtle_1_1_turtle.html#aa576ade68e2f453b037ea2a3c456d466" target="_top" xlink:title="turtle.Turtle.getXPos">
<polygon fill="white" stroke="black" points="597.5,-114.5 597.5,-133.5 710.5,-133.5 710.5,-114.5 597.5,-114.5"/>
<text text-anchor="middle" x="654" y="-121.5" font-family="Helvetica,sans-Serif" font-size="10.00">turtle.Turtle.getXPos</text>
</a>
</g>
</g>
<!-- Node6&#45;&gt;Node7 -->
<g id="edge6" class="edge"><title>Node6&#45;&gt;Node7</title>
<path fill="none" stroke="midnightblue" d="M518.422,-95.589C542.603,-100.694 572.527,-107.011 598.014,-112.392"/>
<polygon fill="midnightblue" stroke="midnightblue" points="597.398,-115.839 607.905,-114.48 598.844,-108.99 597.398,-115.839"/>
</g>
<!-- Node9 -->
<g id="node9" class="node"><title>Node9</title>
<g id="a_node9"><a xlink:href="../../df/dcb/classturtle_1_1_turtle.html#a735b5aa0bce5a53d2c75322fb2ad9130" target="_top" xlink:title="turtle.Turtle.getYPos">
<polygon fill="white" stroke="black" points="598,-76.5 598,-95.5 710,-95.5 710,-76.5 598,-76.5"/>
<text text-anchor="middle" x="654" y="-83.5" font-family="Helvetica,sans-Serif" font-size="10.00">turtle.Turtle.getYPos</text>
</a>
</g>
</g>
<!-- Node6&#45;&gt;Node9 -->
<g id="edge8" class="edge"><title>Node6&#45;&gt;Node9</title>
<path fill="none" stroke="midnightblue" d="M551.165,-86C563.347,-86 575.822,-86 587.679,-86"/>
<polygon fill="midnightblue" stroke="midnightblue" points="587.915,-89.5001 597.915,-86 587.915,-82.5001 587.915,-89.5001"/>
</g>
<!-- Node8 -->
<g id="node8" class="node"><title>Node8</title>
<g id="a_node8"><a xlink:href="../../d1/dbe/classturtle_1_1_position.html#a1d079c846ce96bf1c57da388c46669e1" target="_top" xlink:title="turtle.Position.getXPos">
<polygon fill="white" stroke="black" points="755.5,-114.5 755.5,-133.5 880.5,-133.5 880.5,-114.5 755.5,-114.5"/>
<text text-anchor="middle" x="818" y="-121.5" font-family="Helvetica,sans-Serif" font-size="10.00">turtle.Position.getXPos</text>
</a>
</g>
</g>
<!-- Node7&#45;&gt;Node8 -->
<g id="edge7" class="edge"><title>Node7&#45;&gt;Node8</title>
<path fill="none" stroke="midnightblue" d="M710.751,-124C721.865,-124 733.684,-124 745.247,-124"/>
<polygon fill="midnightblue" stroke="midnightblue" points="745.32,-127.5 755.32,-124 745.32,-120.5 745.32,-127.5"/>
</g>
<!-- Node10 -->
<g id="node10" class="node"><title>Node10</title>
<g id="a_node10"><a xlink:href="../../d1/dbe/classturtle_1_1_position.html#a3a68708e4dc3290c4ef0ecd511cc8c1f" target="_top" xlink:title="turtle.Position.getYPos">
<polygon fill="white" stroke="black" points="756,-76.5 756,-95.5 880,-95.5 880,-76.5 756,-76.5"/>
<text text-anchor="middle" x="818" y="-83.5" font-family="Helvetica,sans-Serif" font-size="10.00">turtle.Position.getYPos</text>
</a>
</g>
</g>
<!-- Node9&#45;&gt;Node10 -->
<g id="edge9" class="edge"><title>Node9&#45;&gt;Node10</title>
<path fill="none" stroke="midnightblue" d="M710.298,-86C721.641,-86 733.734,-86 745.552,-86"/>
<polygon fill="midnightblue" stroke="midnightblue" points="745.841,-89.5001 755.841,-86 745.841,-82.5001 745.841,-89.5001"/>
</g>
<!-- Node11&#45;&gt;Node8 -->
<g id="edge12" class="edge"><title>Node11&#45;&gt;Node8</title>
<path fill="none" stroke="midnightblue" d="M695.98,-57.5805C702.936,-60.086 709.881,-63.1874 716,-67 735.746,-79.3022 732.147,-92.8717 752,-105 755.555,-107.172 759.372,-109.107 763.309,-110.828"/>
<polygon fill="midnightblue" stroke="midnightblue" points="762.061,-114.098 772.65,-114.47 764.604,-107.576 762.061,-114.098"/>
</g>
<!-- Node11&#45;&gt;Node10 -->
<g id="edge13" class="edge"><title>Node11&#45;&gt;Node10</title>
<path fill="none" stroke="midnightblue" d="M695.879,-57.589C717.353,-62.6261 743.86,-68.8438 766.597,-74.1771"/>
<polygon fill="midnightblue" stroke="midnightblue" points="765.879,-77.6037 776.415,-76.4799 767.478,-70.7887 765.879,-77.6037"/>
</g>
<!-- Node12 -->
<g id="node12" class="node"><title>Node12</title>
<g id="a_node12"><a xlink:href="../../d1/dbe/classturtle_1_1_position.html#af03c1c3b306f6c12d2ec52a00fde50eb" target="_top" xlink:title="turtle.Position.setXPos">
<polygon fill="white" stroke="black" points="756,-38.5 756,-57.5 880,-57.5 880,-38.5 756,-38.5"/>
<text text-anchor="middle" x="818" y="-45.5" font-family="Helvetica,sans-Serif" font-size="10.00">turtle.Position.setXPos</text>
</a>
</g>
</g>
<!-- Node11&#45;&gt;Node12 -->
<g id="edge11" class="edge"><title>Node11&#45;&gt;Node12</title>
<path fill="none" stroke="midnightblue" d="M710.298,-48C721.641,-48 733.734,-48 745.552,-48"/>
<polygon fill="midnightblue" stroke="midnightblue" points="745.841,-51.5001 755.841,-48 745.841,-44.5001 745.841,-51.5001"/>
</g>
<!-- Node13 -->
<g id="node13" class="node"><title>Node13</title>
<g id="a_node13"><a xlink:href="../../d1/dbe/classturtle_1_1_position.html#a7bfd27ea2bf5e22d8de4a4e87b4df2ec" target="_top" xlink:title="turtle.Position.getRotate">
<polygon fill="white" stroke="black" points="752,-0.5 752,-19.5 884,-19.5 884,-0.5 752,-0.5"/>
<text text-anchor="middle" x="818" y="-7.5" font-family="Helvetica,sans-Serif" font-size="10.00">turtle.Position.getRotate</text>
</a>
</g>
</g>
<!-- Node11&#45;&gt;Node13 -->
<g id="edge14" class="edge"><title>Node11&#45;&gt;Node13</title>
<path fill="none" stroke="midnightblue" d="M695.879,-38.411C717.353,-33.3739 743.86,-27.1562 766.597,-21.8229"/>
<polygon fill="midnightblue" stroke="midnightblue" points="767.478,-25.2113 776.415,-19.5201 765.879,-18.3963 767.478,-25.2113"/>
</g>
<!-- Node15 -->
<g id="node15" class="node"><title>Node15</title>
<g id="a_node15"><a xlink:href="../../d1/dbe/classturtle_1_1_position.html#a7c26cf9316a28fb4821731864ed28c95" target="_top" xlink:title="turtle.Position.setYPos">
<polygon fill="white" stroke="black" points="592.5,-0.5 592.5,-19.5 715.5,-19.5 715.5,-0.5 592.5,-0.5"/>
<text text-anchor="middle" x="654" y="-7.5" font-family="Helvetica,sans-Serif" font-size="10.00">turtle.Position.setYPos</text>
</a>
</g>
</g>
<!-- Node14&#45;&gt;Node15 -->
<g id="edge16" class="edge"><title>Node14&#45;&gt;Node15</title>
<path fill="none" stroke="midnightblue" d="M527.984,-10C545.089,-10 564.194,-10 582.22,-10"/>
<polygon fill="midnightblue" stroke="midnightblue" points="582.393,-13.5001 592.393,-10 582.393,-6.5001 582.393,-13.5001"/>
</g>
</g>
</svg>
