<?xml version="1.0" encoding="UTF-8" standalone="no"?>
<!DOCTYPE svg PUBLIC "-//W3C//DTD SVG 1.1//EN"
 "http://www.w3.org/Graphics/SVG/1.1/DTD/svg11.dtd">
<!-- Generated by graphviz version 2.36.0 (20140111.2315)
 -->
<!-- Title: commands.information.BaseTurtleContainer.rotate Pages: 1 -->
<svg width="358pt" height="87pt"
 viewBox="0.00 0.00 358.00 87.00" xmlns="http://www.w3.org/2000/svg" xmlns:xlink="http://www.w3.org/1999/xlink">
<g id="graph0" class="graph" transform="scale(1 1) rotate(0) translate(4 83)">
<title>commands.information.BaseTurtleContainer.rotate</title>
<polygon fill="white" stroke="none" points="-4,4 -4,-83 354,-83 354,4 -4,4"/>
<!-- Node1 -->
<g id="node1" class="node"><title>Node1</title>
<polygon fill="#bfbfbf" stroke="black" points="0.5,-24 0.5,-54 155.5,-54 155.5,-24 0.5,-24"/>
<text text-anchor="start" x="8.5" y="-42" font-family="Helvetica,sans-Serif" font-size="10.00">commands.information.Base</text>
<text text-anchor="middle" x="78" y="-31" font-family="Helvetica,sans-Serif" font-size="10.00">TurtleContainer.rotate</text>
</g>
<!-- Node2 -->
<g id="node2" class="node"><title>Node2</title>
<g id="a_node2"><a xlink:href="../../db/d66/classcommands_1_1turtle_commands_1_1_left_command.html#ad05f5e31458463730a6a78444f481db3" target="_top" xlink:title="commands.turtleCommands.\lLeftCommand.onExecute">
<polygon fill="white" stroke="black" points="192,-49 192,-79 350,-79 350,-49 192,-49"/>
<text text-anchor="start" x="200" y="-67" font-family="Helvetica,sans-Serif" font-size="10.00">commands.turtleCommands.</text>
<text text-anchor="middle" x="271" y="-56" font-family="Helvetica,sans-Serif" font-size="10.00">LeftCommand.onExecute</text>
</a>
</g>
</g>
<!-- Node1&#45;&gt;Node2 -->
<g id="edge1" class="edge"><title>Node1&#45;&gt;Node2</title>
<path fill="none" stroke="midnightblue" d="M165.737,-50.353C174.436,-51.4917 183.234,-52.6432 191.837,-53.7693"/>
<polygon fill="midnightblue" stroke="midnightblue" points="165.956,-46.8519 155.586,-49.0244 165.048,-53.7927 165.956,-46.8519"/>
</g>
<!-- Node3 -->
<g id="node3" class="node"><title>Node3</title>
<g id="a_node3"><a xlink:href="../../dd/db2/classcommands_1_1turtle_commands_1_1_right_command.html#a0eddcf5dbe1361c0dab5433a3f42aae7" target="_top" xlink:title="commands.turtleCommands.\lRightCommand.onExecute">
<polygon fill="white" stroke="black" points="192,-0 192,-30 350,-30 350,-0 192,-0"/>
<text text-anchor="start" x="200" y="-18" font-family="Helvetica,sans-Serif" font-size="10.00">commands.turtleCommands.</text>
<text text-anchor="middle" x="271" y="-7" font-family="Helvetica,sans-Serif" font-size="10.00">RightCommand.onExecute</text>
</a>
</g>
</g>
<!-- Node1&#45;&gt;Node3 -->
<g id="edge2" class="edge"><title>Node1&#45;&gt;Node3</title>
<path fill="none" stroke="midnightblue" d="M165.737,-28.1011C174.436,-27.008 183.234,-25.9025 191.837,-24.8215"/>
<polygon fill="midnightblue" stroke="midnightblue" points="165.072,-24.6571 155.586,-29.3766 165.945,-31.6024 165.072,-24.6571"/>
</g>
</g>
</svg>
