<?xml version="1.0" encoding="UTF-8" standalone="no"?>
<!DOCTYPE svg PUBLIC "-//W3C//DTD SVG 1.1//EN"
 "http://www.w3.org/Graphics/SVG/1.1/DTD/svg11.dtd">
<!-- Generated by graphviz version 2.36.0 (20140111.2315)
 -->
<!-- Title: commands.information.BaseTurtleContainer.loopOverTurtle Pages: 1 -->
<svg width="618pt" height="920pt"
 viewBox="0.00 0.00 618.00 920.00" xmlns="http://www.w3.org/2000/svg" xmlns:xlink="http://www.w3.org/1999/xlink">
<g id="graph0" class="graph" transform="scale(1 1) rotate(0) translate(4 916)">
<title>commands.information.BaseTurtleContainer.loopOverTurtle</title>
<polygon fill="white" stroke="none" points="-4,4 -4,-916 614,-916 614,4 -4,4"/>
<!-- Node1 -->
<g id="node1" class="node"><title>Node1</title>
<polygon fill="#bfbfbf" stroke="black" points="0.5,-441 0.5,-471 159.5,-471 159.5,-441 0.5,-441"/>
<text text-anchor="start" x="8.5" y="-459" font-family="Helvetica,sans-Serif" font-size="10.00">commands.information.Base</text>
<text text-anchor="middle" x="80" y="-448" font-family="Helvetica,sans-Serif" font-size="10.00">TurtleContainer.loopOverTurtle</text>
</g>
<!-- Node2 -->
<g id="node2" class="node"><title>Node2</title>
<g id="a_node2"><a xlink:href="../../d7/d28/classcommands_1_1information_1_1_base_turtle_container.html#a8b2880155a7493626eee176e81dd0326" target="_top" xlink:title="commands.information.Base\lTurtleContainer.getOrientation">
<polygon fill="white" stroke="black" points="214,-882 214,-912 374,-912 374,-882 214,-882"/>
<text text-anchor="start" x="222" y="-900" font-family="Helvetica,sans-Serif" font-size="10.00">commands.information.Base</text>
<text text-anchor="middle" x="294" y="-889" font-family="Helvetica,sans-Serif" font-size="10.00">TurtleContainer.getOrientation</text>
</a>
</g>
</g>
<!-- Node1&#45;&gt;Node2 -->
<g id="edge1" class="edge"><title>Node1&#45;&gt;Node2</title>
<path fill="none" stroke="midnightblue" d="M84.6635,-481.451C96.8993,-563.011 138.831,-815.82 196,-872 201.21,-877.119 207.321,-881.232 213.897,-884.53"/>
<polygon fill="midnightblue" stroke="midnightblue" points="88.0607,-480.498 83.1355,-471.118 81.136,-481.522 88.0607,-480.498"/>
</g>
<!-- Node4 -->
<g id="node4" class="node"><title>Node4</title>
<g id="a_node4"><a xlink:href="../../d7/d28/classcommands_1_1information_1_1_base_turtle_container.html#af41d42e30b8f2bbb27f22a72000f0324" target="_top" xlink:title="commands.information.Base\lTurtleContainer.getPen">
<polygon fill="white" stroke="black" points="216.5,-833 216.5,-863 371.5,-863 371.5,-833 216.5,-833"/>
<text text-anchor="start" x="224.5" y="-851" font-family="Helvetica,sans-Serif" font-size="10.00">commands.information.Base</text>
<text text-anchor="middle" x="294" y="-840" font-family="Helvetica,sans-Serif" font-size="10.00">TurtleContainer.getPen</text>
</a>
</g>
</g>
<!-- Node1&#45;&gt;Node4 -->
<g id="edge3" class="edge"><title>Node1&#45;&gt;Node4</title>
<path fill="none" stroke="midnightblue" d="M81.0323,-481.615C82.5683,-548.22 96.2341,-728.236 196,-823 201.926,-828.629 208.946,-833.034 216.458,-836.474"/>
<polygon fill="midnightblue" stroke="midnightblue" points="84.5262,-481.177 80.8732,-471.232 77.527,-481.285 84.5262,-481.177"/>
</g>
<!-- Node5 -->
<g id="node5" class="node"><title>Node5</title>
<g id="a_node5"><a xlink:href="../../d7/d28/classcommands_1_1information_1_1_base_turtle_container.html#a1778a548d5fe91333be5749029e339c8" target="_top" xlink:title="commands.information.Base\lTurtleContainer.getXPos">
<polygon fill="white" stroke="black" points="216.5,-784 216.5,-814 371.5,-814 371.5,-784 216.5,-784"/>
<text text-anchor="start" x="224.5" y="-802" font-family="Helvetica,sans-Serif" font-size="10.00">commands.information.Base</text>
<text text-anchor="middle" x="294" y="-791" font-family="Helvetica,sans-Serif" font-size="10.00">TurtleContainer.getXPos</text>
</a>
</g>
</g>
<!-- Node1&#45;&gt;Node5 -->
<g id="edge4" class="edge"><title>Node1&#45;&gt;Node5</title>
<path fill="none" stroke="midnightblue" d="M82.4519,-481.467C87.3036,-541.74 108.093,-694.052 196,-774 201.918,-779.382 208.841,-783.638 216.217,-786.997"/>
<polygon fill="midnightblue" stroke="midnightblue" points="85.9306,-481.044 81.7189,-471.322 78.9488,-481.549 85.9306,-481.044"/>
</g>
<!-- Node7 -->
<g id="node7" class="node"><title>Node7</title>
<g id="a_node7"><a xlink:href="../../d7/d28/classcommands_1_1information_1_1_base_turtle_container.html#a7191dbe21eb4c3f13baaef4a648f8a4c" target="_top" xlink:title="commands.information.Base\lTurtleContainer.getYPos">
<polygon fill="white" stroke="black" points="216.5,-735 216.5,-765 371.5,-765 371.5,-735 216.5,-735"/>
<text text-anchor="start" x="224.5" y="-753" font-family="Helvetica,sans-Serif" font-size="10.00">commands.information.Base</text>
<text text-anchor="middle" x="294" y="-742" font-family="Helvetica,sans-Serif" font-size="10.00">TurtleContainer.getYPos</text>
</a>
</g>
</g>
<!-- Node1&#45;&gt;Node7 -->
<g id="edge6" class="edge"><title>Node1&#45;&gt;Node7</title>
<path fill="none" stroke="midnightblue" d="M84.3021,-481.185C92.671,-534.563 119.755,-659.529 196,-725 201.937,-730.098 208.784,-734.177 216.038,-737.436"/>
<polygon fill="midnightblue" stroke="midnightblue" points="87.7531,-480.596 82.8289,-471.215 80.8283,-481.619 87.7531,-480.596"/>
</g>
<!-- Node9 -->
<g id="node9" class="node"><title>Node9</title>
<g id="a_node9"><a xlink:href="../../d7/d28/classcommands_1_1information_1_1_base_turtle_container.html#aa12129a5802271b2ac4dd6142d77f917" target="_top" xlink:title="commands.information.Base\lTurtleContainer.move">
<polygon fill="white" stroke="black" points="216.5,-686 216.5,-716 371.5,-716 371.5,-686 216.5,-686"/>
<text text-anchor="start" x="224.5" y="-704" font-family="Helvetica,sans-Serif" font-size="10.00">commands.information.Base</text>
<text text-anchor="middle" x="294" y="-693" font-family="Helvetica,sans-Serif" font-size="10.00">TurtleContainer.move</text>
</a>
</g>
</g>
<!-- Node1&#45;&gt;Node9 -->
<g id="edge8" class="edge"><title>Node1&#45;&gt;Node9</title>
<path fill="none" stroke="midnightblue" d="M86.8065,-480.703C98.8866,-526.493 131.162,-624.559 196,-676 202.131,-680.864 209.103,-684.79 216.432,-687.959"/>
<polygon fill="midnightblue" stroke="midnightblue" points="90.1967,-479.833 84.3453,-471 83.4116,-481.554 90.1967,-479.833"/>
</g>
<!-- Node10 -->
<g id="node10" class="node"><title>Node10</title>
<g id="a_node10"><a xlink:href="../../d7/d28/classcommands_1_1information_1_1_base_turtle_container.html#afe6445eeeaaa24a41e6579a12baffa74" target="_top" xlink:title="commands.information.Base\lTurtleContainer.moveTowardsHeading">
<polygon fill="white" stroke="black" points="196.5,-637 196.5,-667 391.5,-667 391.5,-637 196.5,-637"/>
<text text-anchor="start" x="204.5" y="-655" font-family="Helvetica,sans-Serif" font-size="10.00">commands.information.Base</text>
<text text-anchor="middle" x="294" y="-644" font-family="Helvetica,sans-Serif" font-size="10.00">TurtleContainer.moveTowardsHeading</text>
</a>
</g>
</g>
<!-- Node1&#45;&gt;Node10 -->
<g id="edge9" class="edge"><title>Node1&#45;&gt;Node10</title>
<path fill="none" stroke="midnightblue" d="M90.7295,-480.678C106.821,-518.206 142.599,-589.238 196,-627 201.396,-630.815 207.327,-634.049 213.515,-636.789"/>
<polygon fill="midnightblue" stroke="midnightblue" points="93.7901,-478.923 86.7145,-471.037 87.3281,-481.614 93.7901,-478.923"/>
</g>
<!-- Node13 -->
<g id="node13" class="node"><title>Node13</title>
<g id="a_node13"><a xlink:href="../../d7/d28/classcommands_1_1information_1_1_base_turtle_container.html#a55afe0fc58417bc135b159e944101fc4" target="_top" xlink:title="commands.information.Base\lTurtleContainer.penUndo">
<polygon fill="white" stroke="black" points="216.5,-588 216.5,-618 371.5,-618 371.5,-588 216.5,-588"/>
<text text-anchor="start" x="224.5" y="-606" font-family="Helvetica,sans-Serif" font-size="10.00">commands.information.Base</text>
<text text-anchor="middle" x="294" y="-595" font-family="Helvetica,sans-Serif" font-size="10.00">TurtleContainer.penUndo</text>
</a>
</g>
</g>
<!-- Node1&#45;&gt;Node13 -->
<g id="edge12" class="edge"><title>Node1&#45;&gt;Node13</title>
<path fill="none" stroke="midnightblue" d="M96.9172,-479.709C116.818,-507.483 153.486,-552.885 196,-578 202.588,-581.892 209.777,-585.184 217.166,-587.969"/>
<polygon fill="midnightblue" stroke="midnightblue" points="99.6674,-477.535 91.0587,-471.359 93.9371,-481.556 99.6674,-477.535"/>
</g>
<!-- Node14 -->
<g id="node14" class="node"><title>Node14</title>
<g id="a_node14"><a xlink:href="../../d7/d28/classcommands_1_1information_1_1_base_turtle_container.html#a73435663cdaa03ca3d95c938c0dac073" target="_top" xlink:title="commands.information.Base\lTurtleContainer.rotate">
<polygon fill="white" stroke="black" points="216.5,-539 216.5,-569 371.5,-569 371.5,-539 216.5,-539"/>
<text text-anchor="start" x="224.5" y="-557" font-family="Helvetica,sans-Serif" font-size="10.00">commands.information.Base</text>
<text text-anchor="middle" x="294" y="-546" font-family="Helvetica,sans-Serif" font-size="10.00">TurtleContainer.rotate</text>
</a>
</g>
</g>
<!-- Node1&#45;&gt;Node14 -->
<g id="edge13" class="edge"><title>Node1&#45;&gt;Node14</title>
<path fill="none" stroke="midnightblue" d="M108.762,-477.145C131.232,-493.366 164.254,-515.243 196,-529 204.776,-532.803 214.259,-536.126 223.739,-539"/>
<polygon fill="midnightblue" stroke="midnightblue" points="110.827,-474.319 100.691,-471.233 106.69,-479.966 110.827,-474.319"/>
</g>
<!-- Node17 -->
<g id="node17" class="node"><title>Node17</title>
<g id="a_node17"><a xlink:href="../../d7/d28/classcommands_1_1information_1_1_base_turtle_container.html#ac99ed37d53ab0b0e03d9e410a2e2836f" target="_top" xlink:title="commands.information.Base\lTurtleContainer.setHeading">
<polygon fill="white" stroke="black" points="216.5,-490 216.5,-520 371.5,-520 371.5,-490 216.5,-490"/>
<text text-anchor="start" x="224.5" y="-508" font-family="Helvetica,sans-Serif" font-size="10.00">commands.information.Base</text>
<text text-anchor="middle" x="294" y="-497" font-family="Helvetica,sans-Serif" font-size="10.00">TurtleContainer.setHeading</text>
</a>
</g>
</g>
<!-- Node1&#45;&gt;Node17 -->
<g id="edge16" class="edge"><title>Node1&#45;&gt;Node17</title>
<path fill="none" stroke="midnightblue" d="M155.983,-473.331C179.52,-478.771 205.295,-484.729 228.075,-489.994"/>
<polygon fill="midnightblue" stroke="midnightblue" points="156.579,-469.877 146.048,-471.035 155.003,-476.697 156.579,-469.877"/>
</g>
<!-- Node19 -->
<g id="node19" class="node"><title>Node19</title>
<g id="a_node19"><a xlink:href="../../d7/d28/classcommands_1_1information_1_1_base_turtle_container.html#ac8b4c662283b4cb2d81e15fcdd0230ab" target="_top" xlink:title="commands.information.Base\lTurtleContainer.setPenBorderStyle">
<polygon fill="white" stroke="black" points="204,-441 204,-471 384,-471 384,-441 204,-441"/>
<text text-anchor="start" x="212" y="-459" font-family="Helvetica,sans-Serif" font-size="10.00">commands.information.Base</text>
<text text-anchor="middle" x="294" y="-448" font-family="Helvetica,sans-Serif" font-size="10.00">TurtleContainer.setPenBorderStyle</text>
</a>
</g>
</g>
<!-- Node1&#45;&gt;Node19 -->
<g id="edge18" class="edge"><title>Node1&#45;&gt;Node19</title>
<path fill="none" stroke="midnightblue" d="M169.852,-456C181.069,-456 192.548,-456 203.771,-456"/>
<polygon fill="midnightblue" stroke="midnightblue" points="169.64,-452.5 159.64,-456 169.64,-459.5 169.64,-452.5"/>
</g>
<!-- Node20 -->
<g id="node20" class="node"><title>Node20</title>
<g id="a_node20"><a xlink:href="../../d7/d28/classcommands_1_1information_1_1_base_turtle_container.html#ae8af295d680388bc8897d7827e36cef5" target="_top" xlink:title="commands.information.Base\lTurtleContainer.setPenColor">
<polygon fill="white" stroke="black" points="216.5,-392 216.5,-422 371.5,-422 371.5,-392 216.5,-392"/>
<text text-anchor="start" x="224.5" y="-410" font-family="Helvetica,sans-Serif" font-size="10.00">commands.information.Base</text>
<text text-anchor="middle" x="294" y="-399" font-family="Helvetica,sans-Serif" font-size="10.00">TurtleContainer.setPenColor</text>
</a>
</g>
</g>
<!-- Node1&#45;&gt;Node20 -->
<g id="edge19" class="edge"><title>Node1&#45;&gt;Node20</title>
<path fill="none" stroke="midnightblue" d="M155.983,-438.669C179.52,-433.229 205.295,-427.271 228.075,-422.006"/>
<polygon fill="midnightblue" stroke="midnightblue" points="155.003,-435.303 146.048,-440.965 156.579,-442.123 155.003,-435.303"/>
</g>
<!-- Node21 -->
<g id="node21" class="node"><title>Node21</title>
<g id="a_node21"><a xlink:href="../../d7/d28/classcommands_1_1information_1_1_base_turtle_container.html#ab1f6a293b8c08c3847bed1080cc5cdca" target="_top" xlink:title="commands.information.Base\lTurtleContainer.setPenWidth">
<polygon fill="white" stroke="black" points="216.5,-343 216.5,-373 371.5,-373 371.5,-343 216.5,-343"/>
<text text-anchor="start" x="224.5" y="-361" font-family="Helvetica,sans-Serif" font-size="10.00">commands.information.Base</text>
<text text-anchor="middle" x="294" y="-350" font-family="Helvetica,sans-Serif" font-size="10.00">TurtleContainer.setPenWidth</text>
</a>
</g>
</g>
<!-- Node1&#45;&gt;Node21 -->
<g id="edge20" class="edge"><title>Node1&#45;&gt;Node21</title>
<path fill="none" stroke="midnightblue" d="M108.762,-434.855C131.232,-418.634 164.254,-396.757 196,-383 204.776,-379.197 214.259,-375.874 223.739,-373"/>
<polygon fill="midnightblue" stroke="midnightblue" points="106.69,-432.034 100.691,-440.767 110.827,-437.681 106.69,-432.034"/>
</g>
<!-- Node22 -->
<g id="node22" class="node"><title>Node22</title>
<g id="a_node22"><a xlink:href="../../d7/d28/classcommands_1_1information_1_1_base_turtle_container.html#a5d86cfae201525f3446fc58eb5c7df7c" target="_top" xlink:title="commands.information.Base\lTurtleContainer.setPosition">
<polygon fill="white" stroke="black" points="216.5,-294 216.5,-324 371.5,-324 371.5,-294 216.5,-294"/>
<text text-anchor="start" x="224.5" y="-312" font-family="Helvetica,sans-Serif" font-size="10.00">commands.information.Base</text>
<text text-anchor="middle" x="294" y="-301" font-family="Helvetica,sans-Serif" font-size="10.00">TurtleContainer.setPosition</text>
</a>
</g>
</g>
<!-- Node1&#45;&gt;Node22 -->
<g id="edge21" class="edge"><title>Node1&#45;&gt;Node22</title>
<path fill="none" stroke="midnightblue" d="M96.9172,-432.291C116.818,-404.517 153.486,-359.115 196,-334 202.588,-330.108 209.777,-326.816 217.166,-324.031"/>
<polygon fill="midnightblue" stroke="midnightblue" points="93.9371,-430.444 91.0587,-440.641 99.6674,-434.465 93.9371,-430.444"/>
</g>
<!-- Node26 -->
<g id="node26" class="node"><title>Node26</title>
<g id="a_node26"><a xlink:href="../../d7/d28/classcommands_1_1information_1_1_base_turtle_container.html#a908b5c21435a1b8bae56d8f3d83fc12e" target="_top" xlink:title="commands.information.Base\lTurtleContainer.setRotation">
<polygon fill="white" stroke="black" points="216.5,-245 216.5,-275 371.5,-275 371.5,-245 216.5,-245"/>
<text text-anchor="start" x="224.5" y="-263" font-family="Helvetica,sans-Serif" font-size="10.00">commands.information.Base</text>
<text text-anchor="middle" x="294" y="-252" font-family="Helvetica,sans-Serif" font-size="10.00">TurtleContainer.setRotation</text>
</a>
</g>
</g>
<!-- Node1&#45;&gt;Node26 -->
<g id="edge25" class="edge"><title>Node1&#45;&gt;Node26</title>
<path fill="none" stroke="midnightblue" d="M90.7295,-431.322C106.821,-393.794 142.599,-322.762 196,-285 202.248,-280.582 209.213,-276.944 216.465,-273.949"/>
<polygon fill="midnightblue" stroke="midnightblue" points="87.3281,-430.386 86.7145,-440.963 93.7901,-433.077 87.3281,-430.386"/>
</g>
<!-- Node27 -->
<g id="node27" class="node"><title>Node27</title>
<g id="a_node27"><a xlink:href="../../d7/d28/classcommands_1_1information_1_1_base_turtle_container.html#abaad2067c7aa6d30d7307d9ec89dcb09" target="_top" xlink:title="commands.information.Base\lTurtleContainer.setVisibility">
<polygon fill="white" stroke="black" points="216.5,-196 216.5,-226 371.5,-226 371.5,-196 216.5,-196"/>
<text text-anchor="start" x="224.5" y="-214" font-family="Helvetica,sans-Serif" font-size="10.00">commands.information.Base</text>
<text text-anchor="middle" x="294" y="-203" font-family="Helvetica,sans-Serif" font-size="10.00">TurtleContainer.setVisibility</text>
</a>
</g>
</g>
<!-- Node1&#45;&gt;Node27 -->
<g id="edge26" class="edge"><title>Node1&#45;&gt;Node27</title>
<path fill="none" stroke="midnightblue" d="M86.8065,-431.297C98.8866,-385.507 131.162,-287.441 196,-236 202.131,-231.136 209.103,-227.21 216.432,-224.041"/>
<polygon fill="midnightblue" stroke="midnightblue" points="83.4116,-430.446 84.3453,-441 90.1967,-432.167 83.4116,-430.446"/>
</g>
<!-- Node30 -->
<g id="node30" class="node"><title>Node30</title>
<g id="a_node30"><a xlink:href="../../d7/d28/classcommands_1_1information_1_1_base_turtle_container.html#a31569b501a1ccb408b65edde4e3719a8" target="_top" xlink:title="commands.information.Base\lTurtleContainer.setXPos">
<polygon fill="white" stroke="black" points="216.5,-147 216.5,-177 371.5,-177 371.5,-147 216.5,-147"/>
<text text-anchor="start" x="224.5" y="-165" font-family="Helvetica,sans-Serif" font-size="10.00">commands.information.Base</text>
<text text-anchor="middle" x="294" y="-154" font-family="Helvetica,sans-Serif" font-size="10.00">TurtleContainer.setXPos</text>
</a>
</g>
</g>
<!-- Node1&#45;&gt;Node30 -->
<g id="edge29" class="edge"><title>Node1&#45;&gt;Node30</title>
<path fill="none" stroke="midnightblue" d="M84.3021,-430.815C92.671,-377.437 119.755,-252.471 196,-187 201.937,-181.902 208.784,-177.823 216.038,-174.564"/>
<polygon fill="midnightblue" stroke="midnightblue" points="80.8283,-430.381 82.8289,-440.785 87.7531,-431.404 80.8283,-430.381"/>
</g>
<!-- Node31 -->
<g id="node31" class="node"><title>Node31</title>
<g id="a_node31"><a xlink:href="../../d7/d28/classcommands_1_1information_1_1_base_turtle_container.html#aa7a1e6cc65c6f4ddb2ab0b0632e00e8c" target="_top" xlink:title="commands.information.Base\lTurtleContainer.setYPos">
<polygon fill="white" stroke="black" points="216.5,-98 216.5,-128 371.5,-128 371.5,-98 216.5,-98"/>
<text text-anchor="start" x="224.5" y="-116" font-family="Helvetica,sans-Serif" font-size="10.00">commands.information.Base</text>
<text text-anchor="middle" x="294" y="-105" font-family="Helvetica,sans-Serif" font-size="10.00">TurtleContainer.setYPos</text>
</a>
</g>
</g>
<!-- Node1&#45;&gt;Node31 -->
<g id="edge30" class="edge"><title>Node1&#45;&gt;Node31</title>
<path fill="none" stroke="midnightblue" d="M82.4519,-430.533C87.3036,-370.26 108.093,-217.948 196,-138 201.918,-132.618 208.841,-128.362 216.217,-125.003"/>
<polygon fill="midnightblue" stroke="midnightblue" points="78.9488,-430.451 81.7189,-440.678 85.9306,-430.956 78.9488,-430.451"/>
</g>
<!-- Node32 -->
<g id="node32" class="node"><title>Node32</title>
<g id="a_node32"><a xlink:href="../../d7/d28/classcommands_1_1information_1_1_base_turtle_container.html#af715aadb5d98b7a0419d923b9c627825" target="_top" xlink:title="commands.information.Base\lTurtleContainer.towardsPosition">
<polygon fill="white" stroke="black" points="211,-49 211,-79 377,-79 377,-49 211,-49"/>
<text text-anchor="start" x="219" y="-67" font-family="Helvetica,sans-Serif" font-size="10.00">commands.information.Base</text>
<text text-anchor="middle" x="294" y="-56" font-family="Helvetica,sans-Serif" font-size="10.00">TurtleContainer.towardsPosition</text>
</a>
</g>
</g>
<!-- Node1&#45;&gt;Node32 -->
<g id="edge31" class="edge"><title>Node1&#45;&gt;Node32</title>
<path fill="none" stroke="midnightblue" d="M81.0323,-430.385C82.5683,-363.78 96.2341,-183.764 196,-89 200.413,-84.8081 205.433,-81.2951 210.81,-78.3538"/>
<polygon fill="midnightblue" stroke="midnightblue" points="77.527,-430.715 80.8732,-440.768 84.5262,-430.823 77.527,-430.715"/>
</g>
<!-- Node34 -->
<g id="node34" class="node"><title>Node34</title>
<g id="a_node34"><a xlink:href="../../d7/d28/classcommands_1_1information_1_1_base_turtle_container.html#a6bd0289d802b819e0076347d651829eb" target="_top" xlink:title="commands.information.Base\lTurtleContainer.undo">
<polygon fill="white" stroke="black" points="216.5,-0 216.5,-30 371.5,-30 371.5,-0 216.5,-0"/>
<text text-anchor="start" x="224.5" y="-18" font-family="Helvetica,sans-Serif" font-size="10.00">commands.information.Base</text>
<text text-anchor="middle" x="294" y="-7" font-family="Helvetica,sans-Serif" font-size="10.00">TurtleContainer.undo</text>
</a>
</g>
</g>
<!-- Node1&#45;&gt;Node34 -->
<g id="edge33" class="edge"><title>Node1&#45;&gt;Node34</title>
<path fill="none" stroke="midnightblue" d="M84.6635,-430.549C96.8993,-348.989 138.831,-96.1795 196,-40 201.83,-34.2711 208.789,-29.8031 216.265,-26.3261"/>
<polygon fill="midnightblue" stroke="midnightblue" points="81.136,-430.478 83.1355,-440.882 88.0607,-431.502 81.136,-430.478"/>
</g>
<!-- Node3 -->
<g id="node3" class="node"><title>Node3</title>
<g id="a_node3"><a xlink:href="../../df/d9a/classcommands_1_1view_queries_1_1_heading_query.html#acf74ab2c96e2c261837f9a6df863d4b1" target="_top" xlink:title="commands.viewQueries.Heading\lQuery.onExecute">
<polygon fill="white" stroke="black" points="432.5,-882 432.5,-912 605.5,-912 605.5,-882 432.5,-882"/>
<text text-anchor="start" x="440.5" y="-900" font-family="Helvetica,sans-Serif" font-size="10.00">commands.viewQueries.Heading</text>
<text text-anchor="middle" x="519" y="-889" font-family="Helvetica,sans-Serif" font-size="10.00">Query.onExecute</text>
</a>
</g>
</g>
<!-- Node2&#45;&gt;Node3 -->
<g id="edge2" class="edge"><title>Node2&#45;&gt;Node3</title>
<path fill="none" stroke="midnightblue" d="M384.487,-897C400.222,-897 416.565,-897 432.196,-897"/>
<polygon fill="midnightblue" stroke="midnightblue" points="384.249,-893.5 374.249,-897 384.249,-900.5 384.249,-893.5"/>
</g>
<!-- Node6 -->
<g id="node6" class="node"><title>Node6</title>
<g id="a_node6"><a xlink:href="../../d2/d08/classcommands_1_1view_queries_1_1_x_cor_query.html#a44c55e9da2eb3e1ed1347c6a78594c13" target="_top" xlink:title="commands.viewQueries.XCor\lQuery.onExecute">
<polygon fill="white" stroke="black" points="441.5,-784 441.5,-814 596.5,-814 596.5,-784 441.5,-784"/>
<text text-anchor="start" x="449.5" y="-802" font-family="Helvetica,sans-Serif" font-size="10.00">commands.viewQueries.XCor</text>
<text text-anchor="middle" x="519" y="-791" font-family="Helvetica,sans-Serif" font-size="10.00">Query.onExecute</text>
</a>
</g>
</g>
<!-- Node5&#45;&gt;Node6 -->
<g id="edge5" class="edge"><title>Node5&#45;&gt;Node6</title>
<path fill="none" stroke="midnightblue" d="M381.912,-799C401.57,-799 422.301,-799 441.493,-799"/>
<polygon fill="midnightblue" stroke="midnightblue" points="381.744,-795.5 371.744,-799 381.744,-802.5 381.744,-795.5"/>
</g>
<!-- Node8 -->
<g id="node8" class="node"><title>Node8</title>
<g id="a_node8"><a xlink:href="../../dd/d29/classcommands_1_1view_queries_1_1_y_cor_query.html#a7696faaaf9f1945921769d65f2968918" target="_top" xlink:title="commands.viewQueries.YCor\lQuery.onExecute">
<polygon fill="white" stroke="black" points="441.5,-735 441.5,-765 596.5,-765 596.5,-735 441.5,-735"/>
<text text-anchor="start" x="449.5" y="-753" font-family="Helvetica,sans-Serif" font-size="10.00">commands.viewQueries.YCor</text>
<text text-anchor="middle" x="519" y="-742" font-family="Helvetica,sans-Serif" font-size="10.00">Query.onExecute</text>
</a>
</g>
</g>
<!-- Node7&#45;&gt;Node8 -->
<g id="edge7" class="edge"><title>Node7&#45;&gt;Node8</title>
<path fill="none" stroke="midnightblue" d="M381.912,-750C401.57,-750 422.301,-750 441.493,-750"/>
<polygon fill="midnightblue" stroke="midnightblue" points="381.744,-746.5 371.744,-750 381.744,-753.5 381.744,-746.5"/>
</g>
<!-- Node11 -->
<g id="node11" class="node"><title>Node11</title>
<g id="a_node11"><a xlink:href="../../df/d1b/classcommands_1_1turtle_commands_1_1_back_command.html#a2f60b951011f138ae8916447519fe166" target="_top" xlink:title="commands.turtleCommands.\lBackCommand.onExecute">
<polygon fill="white" stroke="black" points="440,-686 440,-716 598,-716 598,-686 440,-686"/>
<text text-anchor="start" x="448" y="-704" font-family="Helvetica,sans-Serif" font-size="10.00">commands.turtleCommands.</text>
<text text-anchor="middle" x="519" y="-693" font-family="Helvetica,sans-Serif" font-size="10.00">BackCommand.onExecute</text>
</a>
</g>
</g>
<!-- Node10&#45;&gt;Node11 -->
<g id="edge10" class="edge"><title>Node10&#45;&gt;Node11</title>
<path fill="none" stroke="midnightblue" d="M373.211,-669.185C398.148,-674.665 425.53,-680.682 449.707,-685.994"/>
<polygon fill="midnightblue" stroke="midnightblue" points="373.941,-665.762 363.423,-667.035 372.439,-672.599 373.941,-665.762"/>
</g>
<!-- Node12 -->
<g id="node12" class="node"><title>Node12</title>
<g id="a_node12"><a xlink:href="../../da/db6/classcommands_1_1turtle_commands_1_1_forward_command.html#a804cd1b0300e3c10498b66ea5edeb18c" target="_top" xlink:title="commands.turtleCommands.\lForwardCommand.onExecute">
<polygon fill="white" stroke="black" points="440,-637 440,-667 598,-667 598,-637 440,-637"/>
<text text-anchor="start" x="448" y="-655" font-family="Helvetica,sans-Serif" font-size="10.00">commands.turtleCommands.</text>
<text text-anchor="middle" x="519" y="-644" font-family="Helvetica,sans-Serif" font-size="10.00">ForwardCommand.onExecute</text>
</a>
</g>
</g>
<!-- Node10&#45;&gt;Node12 -->
<g id="edge11" class="edge"><title>Node10&#45;&gt;Node12</title>
<path fill="none" stroke="midnightblue" d="M401.763,-652C414.581,-652 427.483,-652 439.789,-652"/>
<polygon fill="midnightblue" stroke="midnightblue" points="401.514,-648.5 391.514,-652 401.514,-655.5 401.514,-648.5"/>
</g>
<!-- Node15 -->
<g id="node15" class="node"><title>Node15</title>
<g id="a_node15"><a xlink:href="../../db/d66/classcommands_1_1turtle_commands_1_1_left_command.html#ad05f5e31458463730a6a78444f481db3" target="_top" xlink:title="commands.turtleCommands.\lLeftCommand.onExecute">
<polygon fill="white" stroke="black" points="440,-588 440,-618 598,-618 598,-588 440,-588"/>
<text text-anchor="start" x="448" y="-606" font-family="Helvetica,sans-Serif" font-size="10.00">commands.turtleCommands.</text>
<text text-anchor="middle" x="519" y="-595" font-family="Helvetica,sans-Serif" font-size="10.00">LeftCommand.onExecute</text>
</a>
</g>
</g>
<!-- Node14&#45;&gt;Node15 -->
<g id="edge14" class="edge"><title>Node14&#45;&gt;Node15</title>
<path fill="none" stroke="midnightblue" d="M373.211,-571.185C398.148,-576.665 425.53,-582.682 449.707,-587.994"/>
<polygon fill="midnightblue" stroke="midnightblue" points="373.941,-567.762 363.423,-569.035 372.439,-574.599 373.941,-567.762"/>
</g>
<!-- Node16 -->
<g id="node16" class="node"><title>Node16</title>
<g id="a_node16"><a xlink:href="../../dd/db2/classcommands_1_1turtle_commands_1_1_right_command.html#a0eddcf5dbe1361c0dab5433a3f42aae7" target="_top" xlink:title="commands.turtleCommands.\lRightCommand.onExecute">
<polygon fill="white" stroke="black" points="440,-539 440,-569 598,-569 598,-539 440,-539"/>
<text text-anchor="start" x="448" y="-557" font-family="Helvetica,sans-Serif" font-size="10.00">commands.turtleCommands.</text>
<text text-anchor="middle" x="519" y="-546" font-family="Helvetica,sans-Serif" font-size="10.00">RightCommand.onExecute</text>
</a>
</g>
</g>
<!-- Node14&#45;&gt;Node16 -->
<g id="edge15" class="edge"><title>Node14&#45;&gt;Node16</title>
<path fill="none" stroke="midnightblue" d="M381.947,-554C401.078,-554 421.225,-554 439.979,-554"/>
<polygon fill="midnightblue" stroke="midnightblue" points="381.744,-550.5 371.744,-554 381.744,-557.5 381.744,-550.5"/>
</g>
<!-- Node18 -->
<g id="node18" class="node"><title>Node18</title>
<g id="a_node18"><a xlink:href="../../d5/d5b/classcommands_1_1turtle_commands_1_1_set_heading_command.html#a5e2f849ee53234e4f095c3a5db842222" target="_top" xlink:title="commands.turtleCommands.\lSetHeadingCommand.onExecute">
<polygon fill="white" stroke="black" points="431,-490 431,-520 607,-520 607,-490 431,-490"/>
<text text-anchor="start" x="439" y="-508" font-family="Helvetica,sans-Serif" font-size="10.00">commands.turtleCommands.</text>
<text text-anchor="middle" x="519" y="-497" font-family="Helvetica,sans-Serif" font-size="10.00">SetHeadingCommand.onExecute</text>
</a>
</g>
</g>
<!-- Node17&#45;&gt;Node18 -->
<g id="edge17" class="edge"><title>Node17&#45;&gt;Node18</title>
<path fill="none" stroke="midnightblue" d="M382.13,-505C398.11,-505 414.793,-505 430.777,-505"/>
<polygon fill="midnightblue" stroke="midnightblue" points="381.744,-501.5 371.744,-505 381.744,-508.5 381.744,-501.5"/>
</g>
<!-- Node23 -->
<g id="node23" class="node"><title>Node23</title>
<g id="a_node23"><a xlink:href="../../d9/d14/classcommands_1_1turtle_commands_1_1_set_position_command.html#a1ff02e56e7927a1002a7412040c98e77" target="_top" xlink:title="commands.turtleCommands.\lSetPositionCommand.onExecute">
<polygon fill="white" stroke="black" points="432,-343 432,-373 606,-373 606,-343 432,-343"/>
<text text-anchor="start" x="440" y="-361" font-family="Helvetica,sans-Serif" font-size="10.00">commands.turtleCommands.</text>
<text text-anchor="middle" x="519" y="-350" font-family="Helvetica,sans-Serif" font-size="10.00">SetPositionCommand.onExecute</text>
</a>
</g>
</g>
<!-- Node22&#45;&gt;Node23 -->
<g id="edge22" class="edge"><title>Node22&#45;&gt;Node23</title>
<path fill="none" stroke="midnightblue" d="M373.211,-326.185C398.148,-331.665 425.53,-337.682 449.707,-342.994"/>
<polygon fill="midnightblue" stroke="midnightblue" points="373.941,-322.762 363.423,-324.035 372.439,-329.599 373.941,-322.762"/>
</g>
<!-- Node24 -->
<g id="node24" class="node"><title>Node24</title>
<g id="a_node24"><a xlink:href="../../df/d55/classcommands_1_1view_commands_1_1_clear_screen_command.html#ae22b9c821c2d07903bdcea4eaad1f959" target="_top" xlink:title="commands.viewCommands.Clear\lScreenCommand.onExecute">
<polygon fill="white" stroke="black" points="430.5,-294 430.5,-324 607.5,-324 607.5,-294 430.5,-294"/>
<text text-anchor="start" x="438.5" y="-312" font-family="Helvetica,sans-Serif" font-size="10.00">commands.viewCommands.Clear</text>
<text text-anchor="middle" x="519" y="-301" font-family="Helvetica,sans-Serif" font-size="10.00">ScreenCommand.onExecute</text>
</a>
</g>
</g>
<!-- Node22&#45;&gt;Node24 -->
<g id="edge23" class="edge"><title>Node22&#45;&gt;Node24</title>
<path fill="none" stroke="midnightblue" d="M382.06,-309C397.933,-309 414.501,-309 430.39,-309"/>
<polygon fill="midnightblue" stroke="midnightblue" points="381.744,-305.5 371.744,-309 381.744,-312.5 381.744,-305.5"/>
</g>
<!-- Node25 -->
<g id="node25" class="node"><title>Node25</title>
<g id="a_node25"><a xlink:href="../../db/dc5/classcommands_1_1view_commands_1_1_home_command.html#a91670541a28ed18996a9bc3433029857" target="_top" xlink:title="commands.viewCommands.Home\lCommand.onExecute">
<polygon fill="white" stroke="black" points="428,-245 428,-275 610,-275 610,-245 428,-245"/>
<text text-anchor="start" x="436" y="-263" font-family="Helvetica,sans-Serif" font-size="10.00">commands.viewCommands.Home</text>
<text text-anchor="middle" x="519" y="-252" font-family="Helvetica,sans-Serif" font-size="10.00">Command.onExecute</text>
</a>
</g>
</g>
<!-- Node22&#45;&gt;Node25 -->
<g id="edge24" class="edge"><title>Node22&#45;&gt;Node25</title>
<path fill="none" stroke="midnightblue" d="M373.211,-291.815C398.148,-286.335 425.53,-280.318 449.707,-275.006"/>
<polygon fill="midnightblue" stroke="midnightblue" points="372.439,-288.401 363.423,-293.965 373.941,-295.238 372.439,-288.401"/>
</g>
<!-- Node28 -->
<g id="node28" class="node"><title>Node28</title>
<g id="a_node28"><a xlink:href="../../dd/d47/classcommands_1_1view_commands_1_1_hide_turtle_command.html#ae576730cb9ad5d764e58521e520ae61a" target="_top" xlink:title="commands.viewCommands.Hide\lTurtleCommand.onExecute">
<polygon fill="white" stroke="black" points="432,-196 432,-226 606,-226 606,-196 432,-196"/>
<text text-anchor="start" x="440" y="-214" font-family="Helvetica,sans-Serif" font-size="10.00">commands.viewCommands.Hide</text>
<text text-anchor="middle" x="519" y="-203" font-family="Helvetica,sans-Serif" font-size="10.00">TurtleCommand.onExecute</text>
</a>
</g>
</g>
<!-- Node27&#45;&gt;Node28 -->
<g id="edge27" class="edge"><title>Node27&#45;&gt;Node28</title>
<path fill="none" stroke="midnightblue" d="M381.873,-211C398.318,-211 415.516,-211 431.937,-211"/>
<polygon fill="midnightblue" stroke="midnightblue" points="381.744,-207.5 371.744,-211 381.744,-214.5 381.744,-207.5"/>
</g>
<!-- Node29 -->
<g id="node29" class="node"><title>Node29</title>
<g id="a_node29"><a xlink:href="../../df/d5c/classcommands_1_1view_commands_1_1_show_turtle_command.html#a0b9a1c9976d375d5a7d63b03b0ed83d4" target="_top" xlink:title="commands.viewCommands.Show\lTurtleCommand.onExecute">
<polygon fill="white" stroke="black" points="430,-147 430,-177 608,-177 608,-147 430,-147"/>
<text text-anchor="start" x="438" y="-165" font-family="Helvetica,sans-Serif" font-size="10.00">commands.viewCommands.Show</text>
<text text-anchor="middle" x="519" y="-154" font-family="Helvetica,sans-Serif" font-size="10.00">TurtleCommand.onExecute</text>
</a>
</g>
</g>
<!-- Node27&#45;&gt;Node29 -->
<g id="edge28" class="edge"><title>Node27&#45;&gt;Node29</title>
<path fill="none" stroke="midnightblue" d="M373.211,-193.815C398.148,-188.335 425.53,-182.318 449.707,-177.006"/>
<polygon fill="midnightblue" stroke="midnightblue" points="372.439,-190.401 363.423,-195.965 373.941,-197.238 372.439,-190.401"/>
</g>
<!-- Node33 -->
<g id="node33" class="node"><title>Node33</title>
<g id="a_node33"><a xlink:href="../../d2/d96/classcommands_1_1turtle_commands_1_1_towards_command.html#acf88e2411c3dbf606349900a9dea4727" target="_top" xlink:title="commands.turtleCommands.\lTowardsCommand.onExecute">
<polygon fill="white" stroke="black" points="440,-49 440,-79 598,-79 598,-49 440,-49"/>
<text text-anchor="start" x="448" y="-67" font-family="Helvetica,sans-Serif" font-size="10.00">commands.turtleCommands.</text>
<text text-anchor="middle" x="519" y="-56" font-family="Helvetica,sans-Serif" font-size="10.00">TowardsCommand.onExecute</text>
</a>
</g>
</g>
<!-- Node32&#45;&gt;Node33 -->
<g id="edge32" class="edge"><title>Node32&#45;&gt;Node33</title>
<path fill="none" stroke="midnightblue" d="M387.274,-64C404.726,-64 422.827,-64 439.794,-64"/>
<polygon fill="midnightblue" stroke="midnightblue" points="387.087,-60.5001 377.087,-64 387.087,-67.5001 387.087,-60.5001"/>
</g>
</g>
</svg>
