<?xml version="1.0" encoding="UTF-8" standalone="no"?>
<!DOCTYPE svg PUBLIC "-//W3C//DTD SVG 1.1//EN"
 "http://www.w3.org/Graphics/SVG/1.1/DTD/svg11.dtd">
<!-- Generated by graphviz version 2.36.0 (20140111.2315)
 -->
<!-- Title: commands.information.BaseTurtleContainer.moveTowardsHeading Pages: 1 -->
<svg width="802pt" height="251pt"
 viewBox="0.00 0.00 802.00 251.00" xmlns="http://www.w3.org/2000/svg" xmlns:xlink="http://www.w3.org/1999/xlink">
<g id="graph0" class="graph" transform="scale(1 1) rotate(0) translate(4 247)">
<title>commands.information.BaseTurtleContainer.moveTowardsHeading</title>
<polygon fill="white" stroke="none" points="-4,4 -4,-247 798,-247 798,4 -4,4"/>
<!-- Node1 -->
<g id="node1" class="node"><title>Node1</title>
<polygon fill="#bfbfbf" stroke="black" points="0.5,-112 0.5,-142 195.5,-142 195.5,-112 0.5,-112"/>
<text text-anchor="start" x="8.5" y="-130" font-family="Helvetica,sans-Serif" font-size="10.00">commands.information.Base</text>
<text text-anchor="middle" x="98" y="-119" font-family="Helvetica,sans-Serif" font-size="10.00">TurtleContainer.moveTowardsHeading</text>
</g>
<!-- Node2 -->
<g id="node2" class="node"><title>Node2</title>
<g id="a_node2"><a xlink:href="../../d7/d28/classcommands_1_1information_1_1_base_turtle_container.html#ae3f987ec79fb3318d8c3a1c8bd65f67b" target="_top" xlink:title="commands.information.Base\lTurtleContainer.loopOverTurtle">
<polygon fill="white" stroke="black" points="232.5,-153 232.5,-183 391.5,-183 391.5,-153 232.5,-153"/>
<text text-anchor="start" x="240.5" y="-171" font-family="Helvetica,sans-Serif" font-size="10.00">commands.information.Base</text>
<text text-anchor="middle" x="312" y="-160" font-family="Helvetica,sans-Serif" font-size="10.00">TurtleContainer.loopOverTurtle</text>
</a>
</g>
</g>
<!-- Node1&#45;&gt;Node2 -->
<g id="edge1" class="edge"><title>Node1&#45;&gt;Node2</title>
<path fill="none" stroke="midnightblue" d="M176.737,-142.034C191.86,-144.959 207.81,-148.043 223.23,-151.026"/>
<polygon fill="midnightblue" stroke="midnightblue" points="222.79,-154.505 233.272,-152.968 224.119,-147.633 222.79,-154.505"/>
</g>
<!-- Node5 -->
<g id="node5" class="node"><title>Node5</title>
<g id="a_node5"><a xlink:href="../../df/dcb/classturtle_1_1_turtle.html#aa1a46a871ec163cdff79e9055f8b0519" target="_top" xlink:title="turtle.Turtle.moveTowards\lHeading">
<polygon fill="white" stroke="black" points="243,-71 243,-101 381,-101 381,-71 243,-71"/>
<text text-anchor="start" x="251" y="-89" font-family="Helvetica,sans-Serif" font-size="10.00">turtle.Turtle.moveTowards</text>
<text text-anchor="middle" x="312" y="-78" font-family="Helvetica,sans-Serif" font-size="10.00">Heading</text>
</a>
</g>
</g>
<!-- Node1&#45;&gt;Node5 -->
<g id="edge4" class="edge"><title>Node1&#45;&gt;Node5</title>
<path fill="none" stroke="midnightblue" d="M176.737,-111.966C194.984,-108.437 214.436,-104.675 232.707,-101.142"/>
<polygon fill="midnightblue" stroke="midnightblue" points="233.567,-104.54 242.721,-99.205 232.238,-97.6675 233.567,-104.54"/>
</g>
<!-- Node3 -->
<g id="node3" class="node"><title>Node3</title>
<g id="a_node3"><a xlink:href="../../d1/d39/interfacecommands_1_1information_1_1_base_turtle_container_1_1_turtle_action_with_result.html#a5043750fe9ea0b38e426614c999c9d60" target="_top" xlink:title="commands.information.Base\lTurtleContainer.TurtleActionWith\lResult.execute">
<polygon fill="white" stroke="black" points="428.5,-201.5 428.5,-242.5 595.5,-242.5 595.5,-201.5 428.5,-201.5"/>
<text text-anchor="start" x="436.5" y="-230.5" font-family="Helvetica,sans-Serif" font-size="10.00">commands.information.Base</text>
<text text-anchor="start" x="436.5" y="-219.5" font-family="Helvetica,sans-Serif" font-size="10.00">TurtleContainer.TurtleActionWith</text>
<text text-anchor="middle" x="512" y="-208.5" font-family="Helvetica,sans-Serif" font-size="10.00">Result.execute</text>
</a>
</g>
</g>
<!-- Node2&#45;&gt;Node3 -->
<g id="edge2" class="edge"><title>Node2&#45;&gt;Node3</title>
<path fill="none" stroke="midnightblue" d="M368.154,-183.042C386.068,-187.928 406.381,-193.468 425.953,-198.805"/>
<polygon fill="midnightblue" stroke="midnightblue" points="425.225,-202.235 435.794,-201.489 427.067,-195.481 425.225,-202.235"/>
</g>
<!-- Node4 -->
<g id="node4" class="node"><title>Node4</title>
<g id="a_node4"><a xlink:href="../../d7/d28/classcommands_1_1information_1_1_base_turtle_container.html#a704eca72b47c6a35888f2868beaec2d3" target="_top" xlink:title="commands.information.Base\lTurtleContainer.getActiveTurtles">
<polygon fill="white" stroke="black" points="428.5,-153 428.5,-183 595.5,-183 595.5,-153 428.5,-153"/>
<text text-anchor="start" x="436.5" y="-171" font-family="Helvetica,sans-Serif" font-size="10.00">commands.information.Base</text>
<text text-anchor="middle" x="512" y="-160" font-family="Helvetica,sans-Serif" font-size="10.00">TurtleContainer.getActiveTurtles</text>
</a>
</g>
</g>
<!-- Node2&#45;&gt;Node4 -->
<g id="edge3" class="edge"><title>Node2&#45;&gt;Node4</title>
<path fill="none" stroke="midnightblue" d="M391.539,-168C400.325,-168 409.336,-168 418.278,-168"/>
<polygon fill="midnightblue" stroke="midnightblue" points="418.33,-171.5 428.33,-168 418.33,-164.5 418.33,-171.5"/>
</g>
<!-- Node6 -->
<g id="node6" class="node"><title>Node6</title>
<g id="a_node6"><a xlink:href="../../d1/dbe/classturtle_1_1_position.html#ad1cf245ca8d3e765bac5cc391bf621e1" target="_top" xlink:title="turtle.Position.move">
<polygon fill="white" stroke="black" points="455.5,-114.5 455.5,-133.5 568.5,-133.5 568.5,-114.5 455.5,-114.5"/>
<text text-anchor="middle" x="512" y="-121.5" font-family="Helvetica,sans-Serif" font-size="10.00">turtle.Position.move</text>
</a>
</g>
</g>
<!-- Node5&#45;&gt;Node6 -->
<g id="edge5" class="edge"><title>Node5&#45;&gt;Node6</title>
<path fill="none" stroke="midnightblue" d="M381.14,-99.0774C404.034,-103.471 429.374,-108.334 451.547,-112.59"/>
<polygon fill="midnightblue" stroke="midnightblue" points="451.011,-116.051 461.491,-114.498 452.33,-109.176 451.011,-116.051"/>
</g>
<!-- Node9 -->
<g id="node9" class="node"><title>Node9</title>
<g id="a_node9"><a xlink:href="../../d1/dbe/classturtle_1_1_position.html#a1d079c846ce96bf1c57da388c46669e1" target="_top" xlink:title="turtle.Position.getXPos">
<polygon fill="white" stroke="black" points="449.5,-76.5 449.5,-95.5 574.5,-95.5 574.5,-76.5 449.5,-76.5"/>
<text text-anchor="middle" x="512" y="-83.5" font-family="Helvetica,sans-Serif" font-size="10.00">turtle.Position.getXPos</text>
</a>
</g>
</g>
<!-- Node5&#45;&gt;Node9 -->
<g id="edge8" class="edge"><title>Node5&#45;&gt;Node9</title>
<path fill="none" stroke="midnightblue" d="M381.14,-86C399.915,-86 420.335,-86 439.304,-86"/>
<polygon fill="midnightblue" stroke="midnightblue" points="439.373,-89.5001 449.373,-86 439.373,-82.5001 439.373,-89.5001"/>
</g>
<!-- Node10 -->
<g id="node10" class="node"><title>Node10</title>
<g id="a_node10"><a xlink:href="../../d1/dbe/classturtle_1_1_position.html#a3a68708e4dc3290c4ef0ecd511cc8c1f" target="_top" xlink:title="turtle.Position.getYPos">
<polygon fill="white" stroke="black" points="450,-38.5 450,-57.5 574,-57.5 574,-38.5 450,-38.5"/>
<text text-anchor="middle" x="512" y="-45.5" font-family="Helvetica,sans-Serif" font-size="10.00">turtle.Position.getYPos</text>
</a>
</g>
</g>
<!-- Node5&#45;&gt;Node10 -->
<g id="edge9" class="edge"><title>Node5&#45;&gt;Node10</title>
<path fill="none" stroke="midnightblue" d="M381.14,-72.9226C404.034,-68.5288 429.374,-63.6656 451.547,-59.4102"/>
<polygon fill="midnightblue" stroke="midnightblue" points="452.33,-62.8238 461.491,-57.5017 451.011,-55.9493 452.33,-62.8238"/>
</g>
<!-- Node11 -->
<g id="node11" class="node"><title>Node11</title>
<g id="a_node11"><a xlink:href="../../d1/dbe/classturtle_1_1_position.html#a7bfd27ea2bf5e22d8de4a4e87b4df2ec" target="_top" xlink:title="turtle.Position.getRotate">
<polygon fill="white" stroke="black" points="446,-0.5 446,-19.5 578,-19.5 578,-0.5 446,-0.5"/>
<text text-anchor="middle" x="512" y="-7.5" font-family="Helvetica,sans-Serif" font-size="10.00">turtle.Position.getRotate</text>
</a>
</g>
</g>
<!-- Node5&#45;&gt;Node11 -->
<g id="edge10" class="edge"><title>Node5&#45;&gt;Node11</title>
<path fill="none" stroke="midnightblue" d="M339.174,-70.8037C361.992,-58.1036 396.308,-40.3035 428,-29 435.244,-26.4161 442.973,-24.0977 450.689,-22.0436"/>
<polygon fill="midnightblue" stroke="midnightblue" points="451.582,-25.4279 460.419,-19.5829 449.866,-18.6416 451.582,-25.4279"/>
</g>
<!-- Node7 -->
<g id="node7" class="node"><title>Node7</title>
<g id="a_node7"><a xlink:href="../../d1/dbe/classturtle_1_1_position.html#a62d4a90a8c507a6b714315b13203ddf2" target="_top" xlink:title="turtle.Position.moveHorizontal">
<polygon fill="white" stroke="black" points="632.5,-133.5 632.5,-152.5 793.5,-152.5 793.5,-133.5 632.5,-133.5"/>
<text text-anchor="middle" x="713" y="-140.5" font-family="Helvetica,sans-Serif" font-size="10.00">turtle.Position.moveHorizontal</text>
</a>
</g>
</g>
<!-- Node6&#45;&gt;Node7 -->
<g id="edge6" class="edge"><title>Node6&#45;&gt;Node7</title>
<path fill="none" stroke="midnightblue" d="M568.697,-129.318C585.287,-130.902 603.907,-132.68 622.095,-134.416"/>
<polygon fill="midnightblue" stroke="midnightblue" points="621.852,-137.909 632.139,-135.375 622.517,-130.94 621.852,-137.909"/>
</g>
<!-- Node8 -->
<g id="node8" class="node"><title>Node8</title>
<g id="a_node8"><a xlink:href="../../d1/dbe/classturtle_1_1_position.html#af9d8009ae592a947ee9b50c54e4f7a4b" target="_top" xlink:title="turtle.Position.moveVertical">
<polygon fill="white" stroke="black" points="639,-95.5 639,-114.5 787,-114.5 787,-95.5 639,-95.5"/>
<text text-anchor="middle" x="713" y="-102.5" font-family="Helvetica,sans-Serif" font-size="10.00">turtle.Position.moveVertical</text>
</a>
</g>
</g>
<!-- Node6&#45;&gt;Node8 -->
<g id="edge7" class="edge"><title>Node6&#45;&gt;Node8</title>
<path fill="none" stroke="midnightblue" d="M568.697,-118.682C587.288,-116.907 608.428,-114.889 628.653,-112.958"/>
<polygon fill="midnightblue" stroke="midnightblue" points="629.187,-116.423 638.809,-111.988 628.521,-109.454 629.187,-116.423"/>
</g>
</g>
</svg>
