<?xml version="1.0" encoding="UTF-8" standalone="no"?>
<!DOCTYPE svg PUBLIC "-//W3C//DTD SVG 1.1//EN"
 "http://www.w3.org/Graphics/SVG/1.1/DTD/svg11.dtd">
<!-- Generated by graphviz version 2.36.0 (20140111.2315)
 -->
<!-- Title: commands.information.BaseTurtleContainer.setPenBorderStyle Pages: 1 -->
<svg width="588pt" height="144pt"
 viewBox="0.00 0.00 588.00 144.00" xmlns="http://www.w3.org/2000/svg" xmlns:xlink="http://www.w3.org/1999/xlink">
<g id="graph0" class="graph" transform="scale(1 1) rotate(0) translate(4 140)">
<title>commands.information.BaseTurtleContainer.setPenBorderStyle</title>
<polygon fill="white" stroke="none" points="-4,4 -4,-140 584,-140 584,4 -4,4"/>
<!-- Node1 -->
<g id="node1" class="node"><title>Node1</title>
<polygon fill="#bfbfbf" stroke="black" points="0,-24 0,-54 180,-54 180,-24 0,-24"/>
<text text-anchor="start" x="8" y="-42" font-family="Helvetica,sans-Serif" font-size="10.00">commands.information.Base</text>
<text text-anchor="middle" x="90" y="-31" font-family="Helvetica,sans-Serif" font-size="10.00">TurtleContainer.setPenBorderStyle</text>
</g>
<!-- Node2 -->
<g id="node2" class="node"><title>Node2</title>
<g id="a_node2"><a xlink:href="../../d7/d28/classcommands_1_1information_1_1_base_turtle_container.html#ae3f987ec79fb3318d8c3a1c8bd65f67b" target="_top" xlink:title="commands.information.Base\lTurtleContainer.loopOverTurtle">
<polygon fill="white" stroke="black" points="216.5,-49 216.5,-79 375.5,-79 375.5,-49 216.5,-49"/>
<text text-anchor="start" x="224.5" y="-67" font-family="Helvetica,sans-Serif" font-size="10.00">commands.information.Base</text>
<text text-anchor="middle" x="296" y="-56" font-family="Helvetica,sans-Serif" font-size="10.00">TurtleContainer.loopOverTurtle</text>
</a>
</g>
</g>
<!-- Node1&#45;&gt;Node2 -->
<g id="edge1" class="edge"><title>Node1&#45;&gt;Node2</title>
<path fill="none" stroke="midnightblue" d="M180.181,-49.929C188.811,-50.9867 197.566,-52.0596 206.193,-53.1168"/>
<polygon fill="midnightblue" stroke="midnightblue" points="205.895,-56.6064 216.247,-54.3489 206.747,-49.6584 205.895,-56.6064"/>
</g>
<!-- Node5 -->
<g id="node5" class="node"><title>Node5</title>
<g id="a_node5"><a xlink:href="../../df/dcb/classturtle_1_1_turtle.html#ae68ac0a6037cd692976775eb575942d0" target="_top" xlink:title="turtle.Turtle.setPenBorder\lStyle">
<polygon fill="white" stroke="black" points="226.5,-0 226.5,-30 365.5,-30 365.5,-0 226.5,-0"/>
<text text-anchor="start" x="234.5" y="-18" font-family="Helvetica,sans-Serif" font-size="10.00">turtle.Turtle.setPenBorder</text>
<text text-anchor="middle" x="296" y="-7" font-family="Helvetica,sans-Serif" font-size="10.00">Style</text>
</a>
</g>
</g>
<!-- Node1&#45;&gt;Node5 -->
<g id="edge4" class="edge"><title>Node1&#45;&gt;Node5</title>
<path fill="none" stroke="midnightblue" d="M180.181,-28.5082C192.121,-27.1034 204.301,-25.6705 216.049,-24.2883"/>
<polygon fill="midnightblue" stroke="midnightblue" points="216.723,-27.7332 226.246,-23.0887 215.905,-20.7812 216.723,-27.7332"/>
</g>
<!-- Node3 -->
<g id="node3" class="node"><title>Node3</title>
<g id="a_node3"><a xlink:href="../../d1/d39/interfacecommands_1_1information_1_1_base_turtle_container_1_1_turtle_action_with_result.html#a5043750fe9ea0b38e426614c999c9d60" target="_top" xlink:title="commands.information.Base\lTurtleContainer.TurtleActionWith\lResult.execute">
<polygon fill="white" stroke="black" points="412.5,-94.5 412.5,-135.5 579.5,-135.5 579.5,-94.5 412.5,-94.5"/>
<text text-anchor="start" x="420.5" y="-123.5" font-family="Helvetica,sans-Serif" font-size="10.00">commands.information.Base</text>
<text text-anchor="start" x="420.5" y="-112.5" font-family="Helvetica,sans-Serif" font-size="10.00">TurtleContainer.TurtleActionWith</text>
<text text-anchor="middle" x="496" y="-101.5" font-family="Helvetica,sans-Serif" font-size="10.00">Result.execute</text>
</a>
</g>
</g>
<!-- Node2&#45;&gt;Node3 -->
<g id="edge2" class="edge"><title>Node2&#45;&gt;Node3</title>
<path fill="none" stroke="midnightblue" d="M355.336,-79.0258C370.974,-83.054 388.251,-87.5042 405.168,-91.8616"/>
<polygon fill="midnightblue" stroke="midnightblue" points="404.515,-95.3075 415.072,-94.4125 406.261,-88.5287 404.515,-95.3075"/>
</g>
<!-- Node4 -->
<g id="node4" class="node"><title>Node4</title>
<g id="a_node4"><a xlink:href="../../d7/d28/classcommands_1_1information_1_1_base_turtle_container.html#a704eca72b47c6a35888f2868beaec2d3" target="_top" xlink:title="commands.information.Base\lTurtleContainer.getActiveTurtles">
<polygon fill="white" stroke="black" points="412.5,-46 412.5,-76 579.5,-76 579.5,-46 412.5,-46"/>
<text text-anchor="start" x="420.5" y="-64" font-family="Helvetica,sans-Serif" font-size="10.00">commands.information.Base</text>
<text text-anchor="middle" x="496" y="-53" font-family="Helvetica,sans-Serif" font-size="10.00">TurtleContainer.getActiveTurtles</text>
</a>
</g>
</g>
<!-- Node2&#45;&gt;Node4 -->
<g id="edge3" class="edge"><title>Node2&#45;&gt;Node4</title>
<path fill="none" stroke="midnightblue" d="M375.539,-62.81C384.325,-62.6769 393.336,-62.5404 402.278,-62.4049"/>
<polygon fill="midnightblue" stroke="midnightblue" points="402.384,-65.9038 412.33,-62.2526 402.278,-58.9046 402.384,-65.9038"/>
</g>
<!-- Node6 -->
<g id="node6" class="node"><title>Node6</title>
<g id="a_node6"><a xlink:href="../../dc/d19/class_view_1_1_pen.html#a50b3f45e35e03cb690bad13109656e12" target="_top" xlink:title="View.Pen.setBorderStyle">
<polygon fill="white" stroke="black" points="429.5,-5.5 429.5,-24.5 562.5,-24.5 562.5,-5.5 429.5,-5.5"/>
<text text-anchor="middle" x="496" y="-12.5" font-family="Helvetica,sans-Serif" font-size="10.00">View.Pen.setBorderStyle</text>
</a>
</g>
</g>
<!-- Node5&#45;&gt;Node6 -->
<g id="edge5" class="edge"><title>Node5&#45;&gt;Node6</title>
<path fill="none" stroke="midnightblue" d="M365.695,-15C382.968,-15 401.604,-15 419.203,-15"/>
<polygon fill="midnightblue" stroke="midnightblue" points="419.427,-18.5001 429.427,-15 419.427,-11.5001 419.427,-18.5001"/>
</g>
</g>
</svg>
