<?xml version="1.0" encoding="UTF-8" standalone="no"?>
<!DOCTYPE svg PUBLIC "-//W3C//DTD SVG 1.1//EN"
 "http://www.w3.org/Graphics/SVG/1.1/DTD/svg11.dtd">
<!-- Generated by graphviz version 2.36.0 (20140111.2315)
 -->
<!-- Title: commands.information.BaseTurtleContainer.getAllTurtles Pages: 1 -->
<svg width="400pt" height="185pt"
 viewBox="0.00 0.00 400.00 185.00" xmlns="http://www.w3.org/2000/svg" xmlns:xlink="http://www.w3.org/1999/xlink">
<g id="graph0" class="graph" transform="scale(1 1) rotate(0) translate(4 181)">
<title>commands.information.BaseTurtleContainer.getAllTurtles</title>
<polygon fill="white" stroke="none" points="-4,4 -4,-181 396,-181 396,4 -4,4"/>
<!-- Node1 -->
<g id="node1" class="node"><title>Node1</title>
<polygon fill="#bfbfbf" stroke="black" points="0.5,-73 0.5,-103 155.5,-103 155.5,-73 0.5,-73"/>
<text text-anchor="start" x="8.5" y="-91" font-family="Helvetica,sans-Serif" font-size="10.00">commands.information.Base</text>
<text text-anchor="middle" x="78" y="-80" font-family="Helvetica,sans-Serif" font-size="10.00">TurtleContainer.getAllTurtles</text>
</g>
<!-- Node2 -->
<g id="node2" class="node"><title>Node2</title>
<g id="a_node2"><a xlink:href="../../d5/dea/classcommands_1_1turtle_commands_1_1_number_of_turtles_command.html#aa0091aa4a3148089f959da1270e88c0d" target="_top" xlink:title="commands.turtleCommands.\lNumberOfTurtlesCommand.onExecute">
<polygon fill="white" stroke="black" points="192,-147 192,-177 392,-177 392,-147 192,-147"/>
<text text-anchor="start" x="200" y="-165" font-family="Helvetica,sans-Serif" font-size="10.00">commands.turtleCommands.</text>
<text text-anchor="middle" x="292" y="-154" font-family="Helvetica,sans-Serif" font-size="10.00">NumberOfTurtlesCommand.onExecute</text>
</a>
</g>
</g>
<!-- Node1&#45;&gt;Node2 -->
<g id="edge1" class="edge"><title>Node1&#45;&gt;Node2</title>
<path fill="none" stroke="midnightblue" d="M119.483,-107.451C140.745,-117.179 167.426,-128.631 192,-137 202.572,-140.6 213.936,-143.943 225.062,-146.936"/>
<polygon fill="midnightblue" stroke="midnightblue" points="120.668,-104.143 110.123,-103.12 117.729,-110.496 120.668,-104.143"/>
</g>
<!-- Node3 -->
<g id="node3" class="node"><title>Node3</title>
<g id="a_node3"><a xlink:href="../../d3/d0c/classtests_1_1_ask_with_test.html#a54f2ed263239909256bb93e91afc3ecc" target="_top" xlink:title="tests.AskWithTest.testAlways\lTrueAskWith">
<polygon fill="white" stroke="black" points="215,-98 215,-128 369,-128 369,-98 215,-98"/>
<text text-anchor="start" x="223" y="-116" font-family="Helvetica,sans-Serif" font-size="10.00">tests.AskWithTest.testAlways</text>
<text text-anchor="middle" x="292" y="-105" font-family="Helvetica,sans-Serif" font-size="10.00">TrueAskWith</text>
</a>
</g>
</g>
<!-- Node1&#45;&gt;Node3 -->
<g id="edge2" class="edge"><title>Node1&#45;&gt;Node3</title>
<path fill="none" stroke="midnightblue" d="M165.616,-98.2142C181.96,-100.142 198.941,-102.144 214.931,-104.03"/>
<polygon fill="midnightblue" stroke="midnightblue" points="165.878,-94.7209 155.537,-97.0256 165.058,-101.673 165.878,-94.7209"/>
</g>
<!-- Node4 -->
<g id="node4" class="node"><title>Node4</title>
<g id="a_node4"><a xlink:href="../../dd/d30/classtests_1_1_ask_test.html#a35ae726a31ba673fc7d80bcbc4a69e24" target="_top" xlink:title="tests.AskTest.testThatAsk\lCreatesTurtles">
<polygon fill="white" stroke="black" points="222,-49 222,-79 362,-79 362,-49 222,-49"/>
<text text-anchor="start" x="230" y="-67" font-family="Helvetica,sans-Serif" font-size="10.00">tests.AskTest.testThatAsk</text>
<text text-anchor="middle" x="292" y="-56" font-family="Helvetica,sans-Serif" font-size="10.00">CreatesTurtles</text>
</a>
</g>
</g>
<!-- Node1&#45;&gt;Node4 -->
<g id="edge3" class="edge"><title>Node1&#45;&gt;Node4</title>
<path fill="none" stroke="midnightblue" d="M165.567,-78.2C184.347,-76.0739 203.97,-73.8524 221.968,-71.8149"/>
<polygon fill="midnightblue" stroke="midnightblue" points="165.08,-74.7327 155.537,-79.3354 165.867,-81.6883 165.08,-74.7327"/>
</g>
<!-- Node5 -->
<g id="node5" class="node"><title>Node5</title>
<g id="a_node5"><a xlink:href="../../d3/d0c/classtests_1_1_ask_with_test.html#a49a8519276b23ed93a3f90d7c2058fc5" target="_top" xlink:title="tests.AskWithTest.testXCor\lAskWith">
<polygon fill="white" stroke="black" points="220.5,-0 220.5,-30 363.5,-30 363.5,-0 220.5,-0"/>
<text text-anchor="start" x="228.5" y="-18" font-family="Helvetica,sans-Serif" font-size="10.00">tests.AskWithTest.testXCor</text>
<text text-anchor="middle" x="292" y="-7" font-family="Helvetica,sans-Serif" font-size="10.00">AskWith</text>
</a>
</g>
</g>
<!-- Node1&#45;&gt;Node5 -->
<g id="edge4" class="edge"><title>Node1&#45;&gt;Node5</title>
<path fill="none" stroke="midnightblue" d="M120.438,-68.5805C141.557,-59.1516 167.824,-48.1332 192,-40 202.669,-36.4108 214.137,-33.064 225.35,-30.0601"/>
<polygon fill="midnightblue" stroke="midnightblue" points="118.798,-65.4808 111.123,-72.7847 121.677,-71.8611 118.798,-65.4808"/>
</g>
</g>
</svg>
