<?xml version="1.0" encoding="UTF-8" standalone="no"?>
<!DOCTYPE svg PUBLIC "-//W3C//DTD SVG 1.1//EN"
 "http://www.w3.org/Graphics/SVG/1.1/DTD/svg11.dtd">
<!-- Generated by graphviz version 2.36.0 (20140111.2315)
 -->
<!-- Title: commands.information.BaseTurtleContainer.rotate Pages: 1 -->
<svg width="564pt" height="137pt"
 viewBox="0.00 0.00 564.00 137.00" xmlns="http://www.w3.org/2000/svg" xmlns:xlink="http://www.w3.org/1999/xlink">
<g id="graph0" class="graph" transform="scale(1 1) rotate(0) translate(4 133)">
<title>commands.information.BaseTurtleContainer.rotate</title>
<polygon fill="white" stroke="none" points="-4,4 -4,-133 560,-133 560,4 -4,4"/>
<!-- Node1 -->
<g id="node1" class="node"><title>Node1</title>
<polygon fill="#bfbfbf" stroke="black" points="0.5,-17 0.5,-47 155.5,-47 155.5,-17 0.5,-17"/>
<text text-anchor="start" x="8.5" y="-35" font-family="Helvetica,sans-Serif" font-size="10.00">commands.information.Base</text>
<text text-anchor="middle" x="78" y="-24" font-family="Helvetica,sans-Serif" font-size="10.00">TurtleContainer.rotate</text>
</g>
<!-- Node2 -->
<g id="node2" class="node"><title>Node2</title>
<g id="a_node2"><a xlink:href="../../d7/d28/classcommands_1_1information_1_1_base_turtle_container.html#ae3f987ec79fb3318d8c3a1c8bd65f67b" target="_top" xlink:title="commands.information.Base\lTurtleContainer.loopOverTurtle">
<polygon fill="white" stroke="black" points="192.5,-39 192.5,-69 351.5,-69 351.5,-39 192.5,-39"/>
<text text-anchor="start" x="200.5" y="-57" font-family="Helvetica,sans-Serif" font-size="10.00">commands.information.Base</text>
<text text-anchor="middle" x="272" y="-46" font-family="Helvetica,sans-Serif" font-size="10.00">TurtleContainer.loopOverTurtle</text>
</a>
</g>
</g>
<!-- Node1&#45;&gt;Node2 -->
<g id="edge1" class="edge"><title>Node1&#45;&gt;Node2</title>
<path fill="none" stroke="midnightblue" d="M155.711,-40.7898C164.439,-41.7899 173.388,-42.8153 182.254,-43.8312"/>
<polygon fill="midnightblue" stroke="midnightblue" points="181.88,-47.3111 192.213,-44.9723 182.677,-40.3566 181.88,-47.3111"/>
</g>
<!-- Node5 -->
<g id="node5" class="node"><title>Node5</title>
<g id="a_node5"><a xlink:href="../../df/dcb/classturtle_1_1_turtle.html#a3d8a29c0ff3f9e6dcd59e5b9f5302b64" target="_top" xlink:title="turtle.Turtle.rotate">
<polygon fill="white" stroke="black" points="220.5,-0.5 220.5,-19.5 323.5,-19.5 323.5,-0.5 220.5,-0.5"/>
<text text-anchor="middle" x="272" y="-7.5" font-family="Helvetica,sans-Serif" font-size="10.00">turtle.Turtle.rotate</text>
</a>
</g>
</g>
<!-- Node1&#45;&gt;Node5 -->
<g id="edge4" class="edge"><title>Node1&#45;&gt;Node5</title>
<path fill="none" stroke="midnightblue" d="M155.711,-23.2102C173.873,-21.1292 192.995,-18.9381 210.331,-16.9517"/>
<polygon fill="midnightblue" stroke="midnightblue" points="210.774,-20.4238 220.311,-15.8081 209.978,-13.4693 210.774,-20.4238"/>
</g>
<!-- Node3 -->
<g id="node3" class="node"><title>Node3</title>
<g id="a_node3"><a xlink:href="../../d1/d39/interfacecommands_1_1information_1_1_base_turtle_container_1_1_turtle_action_with_result.html#a5043750fe9ea0b38e426614c999c9d60" target="_top" xlink:title="commands.information.Base\lTurtleContainer.TurtleActionWith\lResult.execute">
<polygon fill="white" stroke="black" points="388.5,-87.5 388.5,-128.5 555.5,-128.5 555.5,-87.5 388.5,-87.5"/>
<text text-anchor="start" x="396.5" y="-116.5" font-family="Helvetica,sans-Serif" font-size="10.00">commands.information.Base</text>
<text text-anchor="start" x="396.5" y="-105.5" font-family="Helvetica,sans-Serif" font-size="10.00">TurtleContainer.TurtleActionWith</text>
<text text-anchor="middle" x="472" y="-94.5" font-family="Helvetica,sans-Serif" font-size="10.00">Result.execute</text>
</a>
</g>
</g>
<!-- Node2&#45;&gt;Node3 -->
<g id="edge2" class="edge"><title>Node2&#45;&gt;Node3</title>
<path fill="none" stroke="midnightblue" d="M328.154,-69.042C346.068,-73.9275 366.381,-79.4677 385.953,-84.8053"/>
<polygon fill="midnightblue" stroke="midnightblue" points="385.225,-88.2347 395.794,-87.4893 387.067,-81.4813 385.225,-88.2347"/>
</g>
<!-- Node4 -->
<g id="node4" class="node"><title>Node4</title>
<g id="a_node4"><a xlink:href="../../d7/d28/classcommands_1_1information_1_1_base_turtle_container.html#a704eca72b47c6a35888f2868beaec2d3" target="_top" xlink:title="commands.information.Base\lTurtleContainer.getActiveTurtles">
<polygon fill="white" stroke="black" points="388.5,-39 388.5,-69 555.5,-69 555.5,-39 388.5,-39"/>
<text text-anchor="start" x="396.5" y="-57" font-family="Helvetica,sans-Serif" font-size="10.00">commands.information.Base</text>
<text text-anchor="middle" x="472" y="-46" font-family="Helvetica,sans-Serif" font-size="10.00">TurtleContainer.getActiveTurtles</text>
</a>
</g>
</g>
<!-- Node2&#45;&gt;Node4 -->
<g id="edge3" class="edge"><title>Node2&#45;&gt;Node4</title>
<path fill="none" stroke="midnightblue" d="M351.539,-54C360.325,-54 369.336,-54 378.278,-54"/>
<polygon fill="midnightblue" stroke="midnightblue" points="378.33,-57.5001 388.33,-54 378.33,-50.5001 378.33,-57.5001"/>
</g>
<!-- Node6 -->
<g id="node6" class="node"><title>Node6</title>
<g id="a_node6"><a xlink:href="../../d1/dbe/classturtle_1_1_position.html#ae87d7c1dd34831062a4e0120668816e1" target="_top" xlink:title="turtle.Position.rotate">
<polygon fill="white" stroke="black" points="414.5,-0.5 414.5,-19.5 529.5,-19.5 529.5,-0.5 414.5,-0.5"/>
<text text-anchor="middle" x="472" y="-7.5" font-family="Helvetica,sans-Serif" font-size="10.00">turtle.Position.rotate</text>
</a>
</g>
</g>
<!-- Node5&#45;&gt;Node6 -->
<g id="edge5" class="edge"><title>Node5&#45;&gt;Node6</title>
<path fill="none" stroke="midnightblue" d="M323.733,-10C348.212,-10 377.903,-10 404.195,-10"/>
<polygon fill="midnightblue" stroke="midnightblue" points="404.465,-13.5001 414.465,-10 404.465,-6.5001 404.465,-13.5001"/>
</g>
</g>
</svg>
