<?xml version="1.0" encoding="UTF-8" standalone="no"?>
<!DOCTYPE svg PUBLIC "-//W3C//DTD SVG 1.1//EN"
 "http://www.w3.org/Graphics/SVG/1.1/DTD/svg11.dtd">
<!-- Generated by graphviz version 2.36.0 (20140111.2315)
 -->
<!-- Title: commands.information.BaseTurtleContainer.setXPos Pages: 1 -->
<svg width="564pt" height="251pt"
 viewBox="0.00 0.00 564.00 251.00" xmlns="http://www.w3.org/2000/svg" xmlns:xlink="http://www.w3.org/1999/xlink">
<g id="graph0" class="graph" transform="scale(1 1) rotate(0) translate(4 247)">
<title>commands.information.BaseTurtleContainer.setXPos</title>
<polygon fill="white" stroke="none" points="-4,4 -4,-247 560,-247 560,4 -4,4"/>
<!-- Node1 -->
<g id="node1" class="node"><title>Node1</title>
<polygon fill="#bfbfbf" stroke="black" points="0.5,-112 0.5,-142 155.5,-142 155.5,-112 0.5,-112"/>
<text text-anchor="start" x="8.5" y="-130" font-family="Helvetica,sans-Serif" font-size="10.00">commands.information.Base</text>
<text text-anchor="middle" x="78" y="-119" font-family="Helvetica,sans-Serif" font-size="10.00">TurtleContainer.setXPos</text>
</g>
<!-- Node2 -->
<g id="node2" class="node"><title>Node2</title>
<g id="a_node2"><a xlink:href="../../d7/d28/classcommands_1_1information_1_1_base_turtle_container.html#ae3f987ec79fb3318d8c3a1c8bd65f67b" target="_top" xlink:title="commands.information.Base\lTurtleContainer.loopOverTurtle">
<polygon fill="white" stroke="black" points="192.5,-153 192.5,-183 351.5,-183 351.5,-153 192.5,-153"/>
<text text-anchor="start" x="200.5" y="-171" font-family="Helvetica,sans-Serif" font-size="10.00">commands.information.Base</text>
<text text-anchor="middle" x="272" y="-160" font-family="Helvetica,sans-Serif" font-size="10.00">TurtleContainer.loopOverTurtle</text>
</a>
</g>
</g>
<!-- Node1&#45;&gt;Node2 -->
<g id="edge1" class="edge"><title>Node1&#45;&gt;Node2</title>
<path fill="none" stroke="midnightblue" d="M149.403,-142.034C162.838,-144.903 176.995,-147.926 190.712,-150.855"/>
<polygon fill="midnightblue" stroke="midnightblue" points="190.095,-154.302 200.605,-152.968 191.556,-147.456 190.095,-154.302"/>
</g>
<!-- Node5 -->
<g id="node5" class="node"><title>Node5</title>
<g id="a_node5"><a xlink:href="../../df/dcb/classturtle_1_1_turtle.html#a5db281fc734edd965ff0faddbab871d7" target="_top" xlink:title="turtle.Turtle.setXPos">
<polygon fill="white" stroke="black" points="216,-76.5 216,-95.5 328,-95.5 328,-76.5 216,-76.5"/>
<text text-anchor="middle" x="272" y="-83.5" font-family="Helvetica,sans-Serif" font-size="10.00">turtle.Turtle.setXPos</text>
</a>
</g>
</g>
<!-- Node1&#45;&gt;Node5 -->
<g id="edge4" class="edge"><title>Node1&#45;&gt;Node5</title>
<path fill="none" stroke="midnightblue" d="M149.403,-111.966C171.477,-107.252 195.499,-102.123 216.317,-97.6771"/>
<polygon fill="midnightblue" stroke="midnightblue" points="217.209,-101.066 226.257,-95.5545 215.747,-94.2201 217.209,-101.066"/>
</g>
<!-- Node3 -->
<g id="node3" class="node"><title>Node3</title>
<g id="a_node3"><a xlink:href="../../d1/d39/interfacecommands_1_1information_1_1_base_turtle_container_1_1_turtle_action_with_result.html#a5043750fe9ea0b38e426614c999c9d60" target="_top" xlink:title="commands.information.Base\lTurtleContainer.TurtleActionWith\lResult.execute">
<polygon fill="white" stroke="black" points="388.5,-201.5 388.5,-242.5 555.5,-242.5 555.5,-201.5 388.5,-201.5"/>
<text text-anchor="start" x="396.5" y="-230.5" font-family="Helvetica,sans-Serif" font-size="10.00">commands.information.Base</text>
<text text-anchor="start" x="396.5" y="-219.5" font-family="Helvetica,sans-Serif" font-size="10.00">TurtleContainer.TurtleActionWith</text>
<text text-anchor="middle" x="472" y="-208.5" font-family="Helvetica,sans-Serif" font-size="10.00">Result.execute</text>
</a>
</g>
</g>
<!-- Node2&#45;&gt;Node3 -->
<g id="edge2" class="edge"><title>Node2&#45;&gt;Node3</title>
<path fill="none" stroke="midnightblue" d="M328.154,-183.042C346.068,-187.928 366.381,-193.468 385.953,-198.805"/>
<polygon fill="midnightblue" stroke="midnightblue" points="385.225,-202.235 395.794,-201.489 387.067,-195.481 385.225,-202.235"/>
</g>
<!-- Node4 -->
<g id="node4" class="node"><title>Node4</title>
<g id="a_node4"><a xlink:href="../../d7/d28/classcommands_1_1information_1_1_base_turtle_container.html#a704eca72b47c6a35888f2868beaec2d3" target="_top" xlink:title="commands.information.Base\lTurtleContainer.getActiveTurtles">
<polygon fill="white" stroke="black" points="388.5,-153 388.5,-183 555.5,-183 555.5,-153 388.5,-153"/>
<text text-anchor="start" x="396.5" y="-171" font-family="Helvetica,sans-Serif" font-size="10.00">commands.information.Base</text>
<text text-anchor="middle" x="472" y="-160" font-family="Helvetica,sans-Serif" font-size="10.00">TurtleContainer.getActiveTurtles</text>
</a>
</g>
</g>
<!-- Node2&#45;&gt;Node4 -->
<g id="edge3" class="edge"><title>Node2&#45;&gt;Node4</title>
<path fill="none" stroke="midnightblue" d="M351.539,-168C360.325,-168 369.336,-168 378.278,-168"/>
<polygon fill="midnightblue" stroke="midnightblue" points="378.33,-171.5 388.33,-168 378.33,-164.5 378.33,-171.5"/>
</g>
<!-- Node6 -->
<g id="node6" class="node"><title>Node6</title>
<g id="a_node6"><a xlink:href="../../d1/dbe/classturtle_1_1_position.html#af03c1c3b306f6c12d2ec52a00fde50eb" target="_top" xlink:title="turtle.Position.setXPos">
<polygon fill="white" stroke="black" points="410,-114.5 410,-133.5 534,-133.5 534,-114.5 410,-114.5"/>
<text text-anchor="middle" x="472" y="-121.5" font-family="Helvetica,sans-Serif" font-size="10.00">turtle.Position.setXPos</text>
</a>
</g>
</g>
<!-- Node5&#45;&gt;Node6 -->
<g id="edge5" class="edge"><title>Node5&#45;&gt;Node6</title>
<path fill="none" stroke="midnightblue" d="M322.708,-95.54C349.541,-100.69 382.859,-107.084 411.113,-112.506"/>
<polygon fill="midnightblue" stroke="midnightblue" points="410.791,-116.009 421.271,-114.456 412.11,-109.134 410.791,-116.009"/>
</g>
<!-- Node7 -->
<g id="node7" class="node"><title>Node7</title>
<g id="a_node7"><a xlink:href="../../d1/dbe/classturtle_1_1_position.html#a1d079c846ce96bf1c57da388c46669e1" target="_top" xlink:title="turtle.Position.getXPos">
<polygon fill="white" stroke="black" points="409.5,-76.5 409.5,-95.5 534.5,-95.5 534.5,-76.5 409.5,-76.5"/>
<text text-anchor="middle" x="472" y="-83.5" font-family="Helvetica,sans-Serif" font-size="10.00">turtle.Position.getXPos</text>
</a>
</g>
</g>
<!-- Node5&#45;&gt;Node7 -->
<g id="edge6" class="edge"><title>Node5&#45;&gt;Node7</title>
<path fill="none" stroke="midnightblue" d="M328.154,-86C350.083,-86 375.608,-86 398.966,-86"/>
<polygon fill="midnightblue" stroke="midnightblue" points="399.175,-89.5001 409.174,-86 399.174,-82.5001 399.175,-89.5001"/>
</g>
<!-- Node8 -->
<g id="node8" class="node"><title>Node8</title>
<g id="a_node8"><a xlink:href="../../d1/dbe/classturtle_1_1_position.html#a3a68708e4dc3290c4ef0ecd511cc8c1f" target="_top" xlink:title="turtle.Position.getYPos">
<polygon fill="white" stroke="black" points="410,-38.5 410,-57.5 534,-57.5 534,-38.5 410,-38.5"/>
<text text-anchor="middle" x="472" y="-45.5" font-family="Helvetica,sans-Serif" font-size="10.00">turtle.Position.getYPos</text>
</a>
</g>
</g>
<!-- Node5&#45;&gt;Node8 -->
<g id="edge7" class="edge"><title>Node5&#45;&gt;Node8</title>
<path fill="none" stroke="midnightblue" d="M322.708,-76.46C349.541,-71.3104 382.859,-64.916 411.113,-59.4935"/>
<polygon fill="midnightblue" stroke="midnightblue" points="412.11,-62.866 421.271,-57.5439 410.791,-55.9915 412.11,-62.866"/>
</g>
<!-- Node9 -->
<g id="node9" class="node"><title>Node9</title>
<g id="a_node9"><a xlink:href="../../d1/dbe/classturtle_1_1_position.html#a7bfd27ea2bf5e22d8de4a4e87b4df2ec" target="_top" xlink:title="turtle.Position.getRotate">
<polygon fill="white" stroke="black" points="406,-0.5 406,-19.5 538,-19.5 538,-0.5 406,-0.5"/>
<text text-anchor="middle" x="472" y="-7.5" font-family="Helvetica,sans-Serif" font-size="10.00">turtle.Position.getRotate</text>
</a>
</g>
</g>
<!-- Node5&#45;&gt;Node9 -->
<g id="edge8" class="edge"><title>Node5&#45;&gt;Node9</title>
<path fill="none" stroke="midnightblue" d="M289.222,-76.4263C311.018,-63.926 351.271,-42.1001 388,-29 395.244,-26.4161 402.973,-24.0977 410.689,-22.0436"/>
<polygon fill="midnightblue" stroke="midnightblue" points="411.582,-25.4279 420.419,-19.5829 409.866,-18.6416 411.582,-25.4279"/>
</g>
</g>
</svg>
