<?xml version="1.0" encoding="UTF-8" standalone="no"?>
<!DOCTYPE svg PUBLIC "-//W3C//DTD SVG 1.1//EN"
 "http://www.w3.org/Graphics/SVG/1.1/DTD/svg11.dtd">
<!-- Generated by graphviz version 2.36.0 (20140111.2315)
 -->
<!-- Title: View.Pen Pages: 1 -->
<svg width="304pt" height="96pt"
 viewBox="0.00 0.00 304.00 96.00" xmlns="http://www.w3.org/2000/svg" xmlns:xlink="http://www.w3.org/1999/xlink">
<g id="graph0" class="graph" transform="scale(1 1) rotate(0) translate(4 92)">
<title>View.Pen</title>
<polygon fill="white" stroke="none" points="-4,4 -4,-92 300,-92 300,4 -4,4"/>
<!-- Node1 -->
<g id="node1" class="node"><title>Node1</title>
<polygon fill="#bfbfbf" stroke="black" points="67.5,-0.5 67.5,-19.5 126.5,-19.5 126.5,-0.5 67.5,-0.5"/>
<text text-anchor="middle" x="97" y="-7.5" font-family="Helvetica,sans-Serif" font-size="10.00">View.Pen</text>
</g>
<!-- Node2 -->
<g id="node2" class="node"><title>Node2</title>
<polygon fill="white" stroke="#bfbfbf" points="0,-68.5 0,-87.5 36,-87.5 36,-68.5 0,-68.5"/>
<text text-anchor="middle" x="18" y="-75.5" font-family="Helvetica,sans-Serif" font-size="10.00">Line</text>
</g>
<!-- Node2&#45;&gt;Node1 -->
<g id="edge1" class="edge"><title>Node2&#45;&gt;Node1</title>
<path fill="none" stroke="midnightblue" d="M36.2726,-61.7343C51.9214,-48.6606 73.8938,-30.3039 86.6696,-19.6305"/>
<polygon fill="midnightblue" stroke="midnightblue" points="33.7581,-59.2742 28.3279,-68.3717 38.2461,-64.6462 33.7581,-59.2742"/>
</g>
<!-- Node3 -->
<g id="node3" class="node"><title>Node3</title>
<polygon fill="white" stroke="#bfbfbf" points="54,-68.5 54,-87.5 140,-87.5 140,-68.5 54,-68.5"/>
<text text-anchor="middle" x="97" y="-75.5" font-family="Helvetica,sans-Serif" font-size="10.00">Stack&lt; Line &gt;</text>
</g>
<!-- Node3&#45;&gt;Node1 -->
<g id="edge2" class="edge"><title>Node3&#45;&gt;Node1</title>
<path fill="none" stroke="#9a32cd" stroke-dasharray="5,2" d="M97,-58.0413C97,-45.4724 97,-29.5631 97,-19.8411"/>
<polygon fill="#9a32cd" stroke="#9a32cd" points="93.5001,-58.3716 97,-68.3717 100.5,-58.3717 93.5001,-58.3716"/>
<text text-anchor="middle" x="118.5" y="-41.5" font-family="Helvetica,sans-Serif" font-size="10.00"> myLines</text>
</g>
<!-- Node4 -->
<g id="node4" class="node"><title>Node4</title>
<g id="a_node4"><a xlink:href="../../dc/d86/class_g_u_i_functions_1_1_border_style.html" target="_top" xlink:title="GUIFunctions.BorderStyle">
<polygon fill="white" stroke="black" points="158,-68.5 158,-87.5 296,-87.5 296,-68.5 158,-68.5"/>
<text text-anchor="middle" x="227" y="-75.5" font-family="Helvetica,sans-Serif" font-size="10.00">GUIFunctions.BorderStyle</text>
</a>
</g>
</g>
<!-- Node4&#45;&gt;Node1 -->
<g id="edge3" class="edge"><title>Node4&#45;&gt;Node1</title>
<path fill="none" stroke="#9a32cd" stroke-dasharray="5,2" d="M200.781,-63.6889C174.902,-50.5502 136.094,-30.8475 113.999,-19.6305"/>
<polygon fill="#9a32cd" stroke="#9a32cd" points="199.504,-66.9655 210.005,-68.3717 202.673,-60.7238 199.504,-66.9655"/>
<text text-anchor="middle" x="194.5" y="-41.5" font-family="Helvetica,sans-Serif" font-size="10.00"> myStyle</text>
</g>
</g>
</svg>
