<?xml version="1.0" encoding="UTF-8" standalone="no"?>
<!DOCTYPE svg PUBLIC "-//W3C//DTD SVG 1.1//EN"
 "http://www.w3.org/Graphics/SVG/1.1/DTD/svg11.dtd">
<!-- Generated by graphviz version 2.36.0 (20140111.2315)
 -->
<!-- Title: commands.BaseCommand Pages: 1 -->
<svg width="265pt" height="86pt"
 viewBox="0.00 0.00 265.00 86.00" xmlns="http://www.w3.org/2000/svg" xmlns:xlink="http://www.w3.org/1999/xlink">
<g id="graph0" class="graph" transform="scale(1 1) rotate(0) translate(4 82)">
<title>commands.BaseCommand</title>
<polygon fill="white" stroke="none" points="-4,4 -4,-82 261,-82 261,4 -4,4"/>
<!-- Node1 -->
<g id="node1" class="node"><title>Node1</title>
<polygon fill="#bfbfbf" stroke="black" points="0,-0.5 0,-19.5 148,-19.5 148,-0.5 0,-0.5"/>
<text text-anchor="middle" x="74" y="-7.5" font-family="Helvetica,sans-Serif" font-size="10.00">commands.BaseCommand</text>
</g>
<!-- Node1&#45;&gt;Node1 -->
<g id="edge2" class="edge"><title>Node1&#45;&gt;Node1</title>
<path fill="none" stroke="#9a32cd" stroke-dasharray="5,2" d="M158.58,-13.513C163.233,-12.6578 166,-11.4868 166,-10 166,-7.62109 158.916,-6.05064 148.36,-5.28865"/>
<polygon fill="#9a32cd" stroke="#9a32cd" points="157.884,-10.0706 148.36,-14.7113 158.7,-17.023 157.884,-10.0706"/>
<text text-anchor="middle" x="211.5" y="-7.5" font-family="Helvetica,sans-Serif" font-size="10.00"> myNextCommand</text>
</g>
<!-- Node2 -->
<g id="node2" class="node"><title>Node2</title>
<polygon fill="white" stroke="#bfbfbf" points="38.5,-58.5 38.5,-77.5 109.5,-77.5 109.5,-58.5 38.5,-58.5"/>
<text text-anchor="middle" x="74" y="-65.5" font-family="Helvetica,sans-Serif" font-size="10.00">Serializable</text>
</g>
<!-- Node2&#45;&gt;Node1 -->
<g id="edge1" class="edge"><title>Node2&#45;&gt;Node1</title>
<path fill="none" stroke="midnightblue" d="M74,-47.953C74,-38.2875 74,-27.0312 74,-19.5052"/>
<polygon fill="midnightblue" stroke="midnightblue" points="70.5001,-48.25 74,-58.25 77.5001,-48.25 70.5001,-48.25"/>
</g>
</g>
</svg>
