<?xml version="1.0" encoding="UTF-8" standalone="no"?>
<!DOCTYPE svg PUBLIC "-//W3C//DTD SVG 1.1//EN"
 "http://www.w3.org/Graphics/SVG/1.1/DTD/svg11.dtd">
<!-- Generated by graphviz version 2.36.0 (20140111.2315)
 -->
<!-- Title: commands.variableCommands.VariableCommand.getVariableContainer Pages: 1 -->
<svg width="648pt" height="185pt"
 viewBox="0.00 0.00 648.00 185.00" xmlns="http://www.w3.org/2000/svg" xmlns:xlink="http://www.w3.org/1999/xlink">
<g id="graph0" class="graph" transform="scale(1 1) rotate(0) translate(4 181)">
<title>commands.variableCommands.VariableCommand.getVariableContainer</title>
<polygon fill="white" stroke="none" points="-4,4 -4,-181 644,-181 644,4 -4,4"/>
<!-- Node1 -->
<g id="node1" class="node"><title>Node1</title>
<polygon fill="#bfbfbf" stroke="black" points="0.5,-73 0.5,-103 209.5,-103 209.5,-73 0.5,-73"/>
<text text-anchor="start" x="8.5" y="-91" font-family="Helvetica,sans-Serif" font-size="10.00">commands.variableCommands.</text>
<text text-anchor="middle" x="105" y="-80" font-family="Helvetica,sans-Serif" font-size="10.00">VariableCommand.getVariableContainer</text>
</g>
<!-- Node2 -->
<g id="node2" class="node"><title>Node2</title>
<g id="a_node2"><a xlink:href="../../de/d2a/classcommands_1_1variable_commands_1_1_get_variable_command.html#a6fe36e621063ea7214105357562a0173" target="_top" xlink:title="commands.variableCommands.\lGetVariableCommand.onExecute">
<polygon fill="white" stroke="black" points="252,-147 252,-177 428,-177 428,-147 252,-147"/>
<text text-anchor="start" x="260" y="-165" font-family="Helvetica,sans-Serif" font-size="10.00">commands.variableCommands.</text>
<text text-anchor="middle" x="340" y="-154" font-family="Helvetica,sans-Serif" font-size="10.00">GetVariableCommand.onExecute</text>
</a>
</g>
</g>
<!-- Node1&#45;&gt;Node2 -->
<g id="edge1" class="edge"><title>Node1&#45;&gt;Node2</title>
<path fill="none" stroke="midnightblue" d="M155.945,-106.491C182.53,-116.076 215.87,-127.691 246,-137 257.022,-140.405 268.859,-143.791 280.27,-146.92"/>
<polygon fill="midnightblue" stroke="midnightblue" points="157.069,-103.175 146.475,-103.059 154.685,-109.757 157.069,-103.175"/>
</g>
<!-- Node3 -->
<g id="node3" class="node"><title>Node3</title>
<g id="a_node3"><a xlink:href="../../d0/de5/classcommands_1_1variable_commands_1_1_set_variable_command.html#a91a026c4a6ca49e36b941845f7baf209" target="_top" xlink:title="commands.variableCommands.\lSetVariableCommand.onExecute">
<polygon fill="white" stroke="black" points="252.5,-98 252.5,-128 427.5,-128 427.5,-98 252.5,-98"/>
<text text-anchor="start" x="260.5" y="-116" font-family="Helvetica,sans-Serif" font-size="10.00">commands.variableCommands.</text>
<text text-anchor="middle" x="340" y="-105" font-family="Helvetica,sans-Serif" font-size="10.00">SetVariableCommand.onExecute</text>
</a>
</g>
</g>
<!-- Node1&#45;&gt;Node3 -->
<g id="edge2" class="edge"><title>Node1&#45;&gt;Node3</title>
<path fill="none" stroke="midnightblue" d="M219.67,-100.196C230.709,-101.381 241.781,-102.569 252.49,-103.718"/>
<polygon fill="midnightblue" stroke="midnightblue" points="219.87,-96.6979 209.554,-99.111 219.124,-103.658 219.87,-96.6979"/>
</g>
<!-- Node4 -->
<g id="node4" class="node"><title>Node4</title>
<g id="a_node4"><a xlink:href="../../de/de4/classcommands_1_1variable_commands_1_1_created_command.html#a803cceba070de496c5e1d0704f32202e" target="_top" xlink:title="commands.variableCommands.\lCreatedCommand.revertVariables">
<polygon fill="white" stroke="black" points="250,-49 250,-79 430,-79 430,-49 250,-49"/>
<text text-anchor="start" x="258" y="-67" font-family="Helvetica,sans-Serif" font-size="10.00">commands.variableCommands.</text>
<text text-anchor="middle" x="340" y="-56" font-family="Helvetica,sans-Serif" font-size="10.00">CreatedCommand.revertVariables</text>
</a>
</g>
</g>
<!-- Node1&#45;&gt;Node4 -->
<g id="edge3" class="edge"><title>Node1&#45;&gt;Node4</title>
<path fill="none" stroke="midnightblue" d="M219.705,-76.2879C229.876,-75.2402 240.077,-74.1895 249.995,-73.1679"/>
<polygon fill="midnightblue" stroke="midnightblue" points="219.143,-72.8272 209.554,-77.3335 219.86,-79.7904 219.143,-72.8272"/>
</g>
<!-- Node6 -->
<g id="node6" class="node"><title>Node6</title>
<g id="a_node6"><a xlink:href="../../de/de4/classcommands_1_1variable_commands_1_1_created_command.html#aabf56d02933dddd1de08692a1b416c98" target="_top" xlink:title="commands.variableCommands.\lCreatedCommand.setNewVariables">
<polygon fill="white" stroke="black" points="246.5,-0 246.5,-30 433.5,-30 433.5,-0 246.5,-0"/>
<text text-anchor="start" x="254.5" y="-18" font-family="Helvetica,sans-Serif" font-size="10.00">commands.variableCommands.</text>
<text text-anchor="middle" x="340" y="-7" font-family="Helvetica,sans-Serif" font-size="10.00">CreatedCommand.setNewVariables</text>
</a>
</g>
</g>
<!-- Node1&#45;&gt;Node6 -->
<g id="edge5" class="edge"><title>Node1&#45;&gt;Node6</title>
<path fill="none" stroke="midnightblue" d="M156.848,-69.6393C183.295,-60.3257 216.235,-49.0918 246,-40 257.193,-36.5811 269.218,-33.1627 280.783,-30.0002"/>
<polygon fill="midnightblue" stroke="midnightblue" points="155.676,-66.3412 147.416,-72.9762 158.011,-72.9404 155.676,-66.3412"/>
</g>
<!-- Node5 -->
<g id="node5" class="node"><title>Node5</title>
<g id="a_node5"><a xlink:href="../../de/de4/classcommands_1_1variable_commands_1_1_created_command.html#a1a15495411a7de97970a003a442dd3a0" target="_top" xlink:title="commands.variableCommands.\lCreatedCommand.onExecute">
<polygon fill="white" stroke="black" points="470,-24 470,-54 640,-54 640,-24 470,-24"/>
<text text-anchor="start" x="478" y="-42" font-family="Helvetica,sans-Serif" font-size="10.00">commands.variableCommands.</text>
<text text-anchor="middle" x="555" y="-31" font-family="Helvetica,sans-Serif" font-size="10.00">CreatedCommand.onExecute</text>
</a>
</g>
</g>
<!-- Node4&#45;&gt;Node5 -->
<g id="edge4" class="edge"><title>Node4&#45;&gt;Node5</title>
<path fill="none" stroke="midnightblue" d="M440.295,-52.3457C450.122,-51.1922 460.032,-50.0291 469.688,-48.8958"/>
<polygon fill="midnightblue" stroke="midnightblue" points="439.621,-48.9007 430.097,-53.5426 440.437,-55.8529 439.621,-48.9007"/>
</g>
<!-- Node6&#45;&gt;Node5 -->
<g id="edge6" class="edge"><title>Node6&#45;&gt;Node5</title>
<path fill="none" stroke="midnightblue" d="M443.969,-26.6021C452.65,-27.5803 461.363,-28.5621 469.876,-29.5213"/>
<polygon fill="midnightblue" stroke="midnightblue" points="444.134,-23.0987 433.805,-25.4569 443.35,-30.0547 444.134,-23.0987"/>
</g>
</g>
</svg>
