<?xml version="1.0" encoding="UTF-8" standalone="no"?>
<!DOCTYPE svg PUBLIC "-//W3C//DTD SVG 1.1//EN"
 "http://www.w3.org/Graphics/SVG/1.1/DTD/svg11.dtd">
<!-- Generated by graphviz version 2.36.0 (20140111.2315)
 -->
<!-- Title: commands.information.ITurtleBehavior Pages: 1 -->
<svg width="254pt" height="176pt"
 viewBox="0.00 0.00 254.00 176.00" xmlns="http://www.w3.org/2000/svg" xmlns:xlink="http://www.w3.org/1999/xlink">
<g id="graph0" class="graph" transform="scale(1 1) rotate(0) translate(4 172)">
<title>commands.information.ITurtleBehavior</title>
<polygon fill="white" stroke="none" points="-4,4 -4,-172 250,-172 250,4 -4,4"/>
<!-- Node1 -->
<g id="node1" class="node"><title>Node1</title>
<polygon fill="#bfbfbf" stroke="black" points="65.5,-137 65.5,-167 224.5,-167 224.5,-137 65.5,-137"/>
<text text-anchor="start" x="73.5" y="-155" font-family="Helvetica,sans-Serif" font-size="10.00">commands.information.ITurtle</text>
<text text-anchor="middle" x="145" y="-144" font-family="Helvetica,sans-Serif" font-size="10.00">Behavior</text>
</g>
<!-- Node2 -->
<g id="node2" class="node"><title>Node2</title>
<g id="a_node2"><a xlink:href="../../d7/d28/classcommands_1_1information_1_1_base_turtle_container.html" target="_top" xlink:title="commands.information.Base\lTurtleContainer">
<polygon fill="white" stroke="black" points="2.5,-69 2.5,-99 157.5,-99 157.5,-69 2.5,-69"/>
<text text-anchor="start" x="10.5" y="-87" font-family="Helvetica,sans-Serif" font-size="10.00">commands.information.Base</text>
<text text-anchor="middle" x="80" y="-76" font-family="Helvetica,sans-Serif" font-size="10.00">TurtleContainer</text>
</a>
</g>
</g>
<!-- Node1&#45;&gt;Node2 -->
<g id="edge1" class="edge"><title>Node1&#45;&gt;Node2</title>
<path fill="none" stroke="midnightblue" d="M123.811,-129.485C114.061,-119.585 102.759,-108.109 94.0765,-99.2931"/>
<polygon fill="midnightblue" stroke="midnightblue" points="121.385,-132.01 130.896,-136.679 126.373,-127.098 121.385,-132.01"/>
</g>
<!-- Node4 -->
<g id="node4" class="node"><title>Node4</title>
<g id="a_node4"><a xlink:href="../../df/dcb/classturtle_1_1_turtle.html" target="_top" xlink:title="turtle.Turtle">
<polygon fill="white" stroke="black" points="175.5,-74.5 175.5,-93.5 246.5,-93.5 246.5,-74.5 175.5,-74.5"/>
<text text-anchor="middle" x="211" y="-81.5" font-family="Helvetica,sans-Serif" font-size="10.00">turtle.Turtle</text>
</a>
</g>
</g>
<!-- Node1&#45;&gt;Node4 -->
<g id="edge3" class="edge"><title>Node1&#45;&gt;Node4</title>
<path fill="none" stroke="midnightblue" d="M166.491,-129.509C178.608,-117.392 193.093,-102.907 202.172,-93.8283"/>
<polygon fill="midnightblue" stroke="midnightblue" points="163.917,-127.133 159.321,-136.679 168.867,-132.083 163.917,-127.133"/>
</g>
<!-- Node3 -->
<g id="node3" class="node"><title>Node3</title>
<g id="a_node3"><a xlink:href="../../dd/d99/classcommands_1_1information_1_1_single_grid_turtle_container.html" target="_top" xlink:title="commands.information.Single\lGridTurtleContainer">
<polygon fill="white" stroke="black" points="-0.5,-1 -0.5,-31 160.5,-31 160.5,-1 -0.5,-1"/>
<text text-anchor="start" x="7.5" y="-19" font-family="Helvetica,sans-Serif" font-size="10.00">commands.information.Single</text>
<text text-anchor="middle" x="80" y="-8" font-family="Helvetica,sans-Serif" font-size="10.00">GridTurtleContainer</text>
</a>
</g>
</g>
<!-- Node2&#45;&gt;Node3 -->
<g id="edge2" class="edge"><title>Node2&#45;&gt;Node3</title>
<path fill="none" stroke="midnightblue" d="M80,-58.5322C80,-49.3606 80,-39.2449 80,-31.2931"/>
<polygon fill="midnightblue" stroke="midnightblue" points="76.5001,-58.6789 80,-68.679 83.5001,-58.679 76.5001,-58.6789"/>
</g>
</g>
</svg>
