<?xml version="1.0" encoding="UTF-8" standalone="no"?>
<!DOCTYPE svg PUBLIC "-//W3C//DTD SVG 1.1//EN"
 "http://www.w3.org/Graphics/SVG/1.1/DTD/svg11.dtd">
<!-- Generated by graphviz version 2.36.0 (20140111.2315)
 -->
<!-- Title: TableInformation.EditingTurtleBooleanCell Pages: 1 -->
<svg width="138pt" height="176pt"
 viewBox="0.00 0.00 138.00 176.00" xmlns="http://www.w3.org/2000/svg" xmlns:xlink="http://www.w3.org/1999/xlink">
<g id="graph0" class="graph" transform="scale(1 1) rotate(0) translate(4 172)">
<title>TableInformation.EditingTurtleBooleanCell</title>
<polygon fill="white" stroke="none" points="-4,4 -4,-172 134,-172 134,4 -4,4"/>
<!-- Node1 -->
<g id="node1" class="node"><title>Node1</title>
<polygon fill="#bfbfbf" stroke="black" points="-0.5,-1 -0.5,-31 130.5,-31 130.5,-1 -0.5,-1"/>
<text text-anchor="start" x="7.5" y="-19" font-family="Helvetica,sans-Serif" font-size="10.00">TableInformation.Editing</text>
<text text-anchor="middle" x="65" y="-8" font-family="Helvetica,sans-Serif" font-size="10.00">TurtleBooleanCell</text>
</g>
<!-- Node2 -->
<g id="node2" class="node"><title>Node2</title>
<g id="a_node2"><a xlink:href="../../d2/d41/class_g_u_i_functions_1_1_editing_cell.html" target="_top" xlink:title="GUIFunctions.EditingCell\l\&lt; T, G \&gt;">
<polygon fill="white" stroke="black" points="-0.5,-69 -0.5,-99 130.5,-99 130.5,-69 -0.5,-69"/>
<text text-anchor="start" x="7.5" y="-87" font-family="Helvetica,sans-Serif" font-size="10.00">GUIFunctions.EditingCell</text>
<text text-anchor="middle" x="65" y="-76" font-family="Helvetica,sans-Serif" font-size="10.00">&lt; T, G &gt;</text>
</a>
</g>
</g>
<!-- Node2&#45;&gt;Node1 -->
<g id="edge1" class="edge"><title>Node2&#45;&gt;Node1</title>
<path fill="none" stroke="midnightblue" d="M65,-58.5322C65,-49.3606 65,-39.2449 65,-31.2931"/>
<polygon fill="midnightblue" stroke="midnightblue" points="61.5001,-58.6789 65,-68.679 68.5001,-58.679 61.5001,-58.6789"/>
</g>
<!-- Node3 -->
<g id="node3" class="node"><title>Node3</title>
<polygon fill="white" stroke="#bfbfbf" points="6,-137 6,-167 124,-167 124,-137 6,-137"/>
<text text-anchor="start" x="14" y="-155" font-family="Helvetica,sans-Serif" font-size="10.00">javafx::scene::control</text>
<text text-anchor="middle" x="65" y="-144" font-family="Helvetica,sans-Serif" font-size="10.00">::TableCell&lt; T, G &gt;</text>
</g>
<!-- Node3&#45;&gt;Node2 -->
<g id="edge2" class="edge"><title>Node3&#45;&gt;Node2</title>
<path fill="none" stroke="midnightblue" d="M65,-126.532C65,-117.361 65,-107.245 65,-99.2931"/>
<polygon fill="midnightblue" stroke="midnightblue" points="61.5001,-126.679 65,-136.679 68.5001,-126.679 61.5001,-126.679"/>
</g>
</g>
</svg>
