<?xml version="1.0" encoding="UTF-8" standalone="no"?>
<!DOCTYPE svg PUBLIC "-//W3C//DTD SVG 1.1//EN"
 "http://www.w3.org/Graphics/SVG/1.1/DTD/svg11.dtd">
<!-- Generated by graphviz version 2.36.0 (20140111.2315)
 -->
<!-- Title: commands.ViewCommand.getGridContainer Pages: 1 -->
<svg width="394pt" height="626pt"
 viewBox="0.00 0.00 394.00 626.00" xmlns="http://www.w3.org/2000/svg" xmlns:xlink="http://www.w3.org/1999/xlink">
<g id="graph0" class="graph" transform="scale(1 1) rotate(0) translate(4 622)">
<title>commands.ViewCommand.getGridContainer</title>
<polygon fill="white" stroke="none" points="-4,4 -4,-622 390,-622 390,4 -4,4"/>
<!-- Node1 -->
<g id="node1" class="node"><title>Node1</title>
<polygon fill="#bfbfbf" stroke="black" points="0,-294 0,-324 164,-324 164,-294 0,-294"/>
<text text-anchor="start" x="8" y="-312" font-family="Helvetica,sans-Serif" font-size="10.00">commands.ViewCommand.get</text>
<text text-anchor="middle" x="82" y="-301" font-family="Helvetica,sans-Serif" font-size="10.00">GridContainer</text>
</g>
<!-- Node2 -->
<g id="node2" class="node"><title>Node2</title>
<g id="a_node2"><a xlink:href="../../dc/d00/classcommands_1_1view_commands_1_1_clear_stamps_command.html#a9ed0644bacc5b915134df08d3279a8c2" target="_top" xlink:title="commands.viewCommands.Clear\lStampsCommand.onExecute">
<polygon fill="white" stroke="black" points="204.5,-588 204.5,-618 381.5,-618 381.5,-588 204.5,-588"/>
<text text-anchor="start" x="212.5" y="-606" font-family="Helvetica,sans-Serif" font-size="10.00">commands.viewCommands.Clear</text>
<text text-anchor="middle" x="293" y="-595" font-family="Helvetica,sans-Serif" font-size="10.00">StampsCommand.onExecute</text>
</a>
</g>
</g>
<!-- Node1&#45;&gt;Node2 -->
<g id="edge1" class="edge"><title>Node1&#45;&gt;Node2</title>
<path fill="none" stroke="midnightblue" d="M86.5674,-334.117C95.4844,-387.364 123.773,-512.091 200,-578 204.507,-581.897 209.566,-585.193 214.933,-587.979"/>
<polygon fill="midnightblue" stroke="midnightblue" points="90.0135,-333.501 84.9909,-324.173 83.0999,-334.597 90.0135,-333.501"/>
</g>
<!-- Node3 -->
<g id="node3" class="node"><title>Node3</title>
<g id="a_node3"><a xlink:href="../../db/dbd/classcommands_1_1view_commands_1_1_stamp_command.html#aee9ba46b2b322e375054521f7332e259" target="_top" xlink:title="commands.viewCommands.Stamp\lCommand.onExecute">
<polygon fill="white" stroke="black" points="200.5,-539 200.5,-569 385.5,-569 385.5,-539 200.5,-539"/>
<text text-anchor="start" x="208.5" y="-557" font-family="Helvetica,sans-Serif" font-size="10.00">commands.viewCommands.Stamp</text>
<text text-anchor="middle" x="293" y="-546" font-family="Helvetica,sans-Serif" font-size="10.00">Command.onExecute</text>
</a>
</g>
</g>
<!-- Node1&#45;&gt;Node3 -->
<g id="edge2" class="edge"><title>Node1&#45;&gt;Node3</title>
<path fill="none" stroke="midnightblue" d="M89.1937,-333.962C101.878,-379.772 135.23,-477.297 200,-529 204.786,-532.821 210.111,-536.059 215.718,-538.804"/>
<polygon fill="midnightblue" stroke="midnightblue" points="92.5606,-333.004 86.6007,-324.244 85.7972,-334.808 92.5606,-333.004"/>
</g>
<!-- Node4 -->
<g id="node4" class="node"><title>Node4</title>
<g id="a_node4"><a xlink:href="../../db/d78/classcommands_1_1view_commands_1_1_pen_down_command.html#a7fd002942b9d12e9f0035c955908e1cd" target="_top" xlink:title="commands.viewCommands.Pen\lDownCommand.onExecute">
<polygon fill="white" stroke="black" points="208,-490 208,-520 378,-520 378,-490 208,-490"/>
<text text-anchor="start" x="216" y="-508" font-family="Helvetica,sans-Serif" font-size="10.00">commands.viewCommands.Pen</text>
<text text-anchor="middle" x="293" y="-497" font-family="Helvetica,sans-Serif" font-size="10.00">DownCommand.onExecute</text>
</a>
</g>
</g>
<!-- Node1&#45;&gt;Node4 -->
<g id="edge3" class="edge"><title>Node1&#45;&gt;Node4</title>
<path fill="none" stroke="midnightblue" d="M93.2038,-333.876C109.874,-371.365 146.538,-441.991 200,-480 205.396,-483.836 211.352,-487.084 217.561,-489.833"/>
<polygon fill="midnightblue" stroke="midnightblue" points="96.2165,-332.024 89.0347,-324.235 89.7916,-334.803 96.2165,-332.024"/>
</g>
<!-- Node5 -->
<g id="node5" class="node"><title>Node5</title>
<g id="a_node5"><a xlink:href="../../d2/d1c/classcommands_1_1view_queries_1_1_pen_color_query.html#a389d6966ace766ed3918bb7b9b7116f9" target="_top" xlink:title="commands.viewQueries.Pen\lColorQuery.onExecute">
<polygon fill="white" stroke="black" points="217,-441 217,-471 369,-471 369,-441 217,-441"/>
<text text-anchor="start" x="225" y="-459" font-family="Helvetica,sans-Serif" font-size="10.00">commands.viewQueries.Pen</text>
<text text-anchor="middle" x="293" y="-448" font-family="Helvetica,sans-Serif" font-size="10.00">ColorQuery.onExecute</text>
</a>
</g>
</g>
<!-- Node1&#45;&gt;Node5 -->
<g id="edge4" class="edge"><title>Node1&#45;&gt;Node5</title>
<path fill="none" stroke="midnightblue" d="M99.3465,-332.606C119.743,-360.279 157.194,-405.583 200,-431 206.547,-434.887 213.711,-438.185 221.06,-440.979"/>
<polygon fill="midnightblue" stroke="midnightblue" points="102.031,-330.346 93.3384,-324.289 96.3566,-334.444 102.031,-330.346"/>
</g>
<!-- Node6 -->
<g id="node6" class="node"><title>Node6</title>
<g id="a_node6"><a xlink:href="../../db/dbc/classcommands_1_1view_queries_1_1_pen_down_query.html#a4f1f0c7a1b513e352d2bb425538643df" target="_top" xlink:title="commands.viewQueries.Pen\lDownQuery.onExecute">
<polygon fill="white" stroke="black" points="217,-392 217,-422 369,-422 369,-392 217,-392"/>
<text text-anchor="start" x="225" y="-410" font-family="Helvetica,sans-Serif" font-size="10.00">commands.viewQueries.Pen</text>
<text text-anchor="middle" x="293" y="-399" font-family="Helvetica,sans-Serif" font-size="10.00">DownQuery.onExecute</text>
</a>
</g>
</g>
<!-- Node1&#45;&gt;Node6 -->
<g id="edge5" class="edge"><title>Node1&#45;&gt;Node6</title>
<path fill="none" stroke="midnightblue" d="M111.352,-330.004C134.272,-346.147 167.896,-367.986 200,-382 208.495,-385.708 217.675,-388.99 226.835,-391.855"/>
<polygon fill="midnightblue" stroke="midnightblue" points="113.289,-327.086 103.117,-324.124 109.221,-332.783 113.289,-327.086"/>
</g>
<!-- Node7 -->
<g id="node7" class="node"><title>Node7</title>
<g id="a_node7"><a xlink:href="../../dd/d35/classcommands_1_1view_commands_1_1_pen_up_command.html#a629c76a91e761b3fc4f4129b560ccb3a" target="_top" xlink:title="commands.viewCommands.Pen\lUpCommand.onExecute">
<polygon fill="white" stroke="black" points="208,-343 208,-373 378,-373 378,-343 208,-343"/>
<text text-anchor="start" x="216" y="-361" font-family="Helvetica,sans-Serif" font-size="10.00">commands.viewCommands.Pen</text>
<text text-anchor="middle" x="293" y="-350" font-family="Helvetica,sans-Serif" font-size="10.00">UpCommand.onExecute</text>
</a>
</g>
</g>
<!-- Node1&#45;&gt;Node7 -->
<g id="edge6" class="edge"><title>Node1&#45;&gt;Node7</title>
<path fill="none" stroke="midnightblue" d="M156.922,-326.331C180.126,-331.771 205.536,-337.729 227.994,-342.994"/>
<polygon fill="midnightblue" stroke="midnightblue" points="157.662,-322.91 147.127,-324.035 156.064,-329.725 157.662,-322.91"/>
</g>
<!-- Node8 -->
<g id="node8" class="node"><title>Node8</title>
<g id="a_node8"><a xlink:href="../../d1/dba/classcommands_1_1view_queries_1_1_showing_query.html#a8543294a0556c67f7b740a5cc29e6823" target="_top" xlink:title="commands.viewQueries.Showing\lQuery.onExecute">
<polygon fill="white" stroke="black" points="206.5,-294 206.5,-324 379.5,-324 379.5,-294 206.5,-294"/>
<text text-anchor="start" x="214.5" y="-312" font-family="Helvetica,sans-Serif" font-size="10.00">commands.viewQueries.Showing</text>
<text text-anchor="middle" x="293" y="-301" font-family="Helvetica,sans-Serif" font-size="10.00">Query.onExecute</text>
</a>
</g>
</g>
<!-- Node1&#45;&gt;Node8 -->
<g id="edge7" class="edge"><title>Node1&#45;&gt;Node8</title>
<path fill="none" stroke="midnightblue" d="M174.279,-309C184.967,-309 195.842,-309 206.448,-309"/>
<polygon fill="midnightblue" stroke="midnightblue" points="174.104,-305.5 164.104,-309 174.104,-312.5 174.104,-305.5"/>
</g>
<!-- Node9 -->
<g id="node9" class="node"><title>Node9</title>
<g id="a_node9"><a xlink:href="../../de/d48/classcommands_1_1view_commands_1_1_set_pen_size_command.html#a4f455a72a7529c1adaa7dadb04fc1069" target="_top" xlink:title="commands.viewCommands.Set\lPenSizeCommand.onExecute">
<polygon fill="white" stroke="black" points="208.5,-245 208.5,-275 377.5,-275 377.5,-245 208.5,-245"/>
<text text-anchor="start" x="216.5" y="-263" font-family="Helvetica,sans-Serif" font-size="10.00">commands.viewCommands.Set</text>
<text text-anchor="middle" x="293" y="-252" font-family="Helvetica,sans-Serif" font-size="10.00">PenSizeCommand.onExecute</text>
</a>
</g>
</g>
<!-- Node1&#45;&gt;Node9 -->
<g id="edge8" class="edge"><title>Node1&#45;&gt;Node9</title>
<path fill="none" stroke="midnightblue" d="M156.922,-291.669C180.126,-286.229 205.536,-280.271 227.994,-275.006"/>
<polygon fill="midnightblue" stroke="midnightblue" points="156.064,-288.275 147.127,-293.965 157.662,-295.09 156.064,-288.275"/>
</g>
<!-- Node10 -->
<g id="node10" class="node"><title>Node10</title>
<g id="a_node10"><a xlink:href="../../de/d79/classcommands_1_1view_commands_1_1_set_pen_color_command.html#aa82d533b6a1ff79defded48dbf47d81e" target="_top" xlink:title="commands.viewCommands.Set\lPenColorCommand.onExecute">
<polygon fill="white" stroke="black" points="208.5,-196 208.5,-226 377.5,-226 377.5,-196 208.5,-196"/>
<text text-anchor="start" x="216.5" y="-214" font-family="Helvetica,sans-Serif" font-size="10.00">commands.viewCommands.Set</text>
<text text-anchor="middle" x="293" y="-203" font-family="Helvetica,sans-Serif" font-size="10.00">PenColorCommand.onExecute</text>
</a>
</g>
</g>
<!-- Node1&#45;&gt;Node10 -->
<g id="edge9" class="edge"><title>Node1&#45;&gt;Node10</title>
<path fill="none" stroke="midnightblue" d="M111.352,-287.996C134.272,-271.853 167.896,-250.014 200,-236 208.495,-232.292 217.675,-229.01 226.835,-226.145"/>
<polygon fill="midnightblue" stroke="midnightblue" points="109.221,-285.217 103.117,-293.876 113.289,-290.914 109.221,-285.217"/>
</g>
<!-- Node11 -->
<g id="node11" class="node"><title>Node11</title>
<g id="a_node11"><a xlink:href="../../d2/d03/classcommands_1_1view_commands_1_1_set_shape_command.html#a1ec15007b35932cc11e8f1d9b805ae43" target="_top" xlink:title="commands.viewCommands.Set\lShapeCommand.onExecute">
<polygon fill="white" stroke="black" points="208.5,-147 208.5,-177 377.5,-177 377.5,-147 208.5,-147"/>
<text text-anchor="start" x="216.5" y="-165" font-family="Helvetica,sans-Serif" font-size="10.00">commands.viewCommands.Set</text>
<text text-anchor="middle" x="293" y="-154" font-family="Helvetica,sans-Serif" font-size="10.00">ShapeCommand.onExecute</text>
</a>
</g>
</g>
<!-- Node1&#45;&gt;Node11 -->
<g id="edge10" class="edge"><title>Node1&#45;&gt;Node11</title>
<path fill="none" stroke="midnightblue" d="M99.3465,-285.394C119.743,-257.721 157.194,-212.417 200,-187 206.547,-183.113 213.711,-179.815 221.06,-177.021"/>
<polygon fill="midnightblue" stroke="midnightblue" points="96.3566,-283.556 93.3384,-293.711 102.031,-287.654 96.3566,-283.556"/>
</g>
<!-- Node12 -->
<g id="node12" class="node"><title>Node12</title>
<g id="a_node12"><a xlink:href="../../d7/dea/classcommands_1_1view_commands_1_1_set_background_command.html#abdeec0e8b0b8437478a119f2dca81aba" target="_top" xlink:title="commands.viewCommands.Set\lBackgroundCommand.onExecute">
<polygon fill="white" stroke="black" points="204.5,-98 204.5,-128 381.5,-128 381.5,-98 204.5,-98"/>
<text text-anchor="start" x="212.5" y="-116" font-family="Helvetica,sans-Serif" font-size="10.00">commands.viewCommands.Set</text>
<text text-anchor="middle" x="293" y="-105" font-family="Helvetica,sans-Serif" font-size="10.00">BackgroundCommand.onExecute</text>
</a>
</g>
</g>
<!-- Node1&#45;&gt;Node12 -->
<g id="edge11" class="edge"><title>Node1&#45;&gt;Node12</title>
<path fill="none" stroke="midnightblue" d="M93.2038,-284.124C109.874,-246.635 146.538,-176.009 200,-138 205.396,-134.164 211.352,-130.916 217.561,-128.167"/>
<polygon fill="midnightblue" stroke="midnightblue" points="89.7916,-283.197 89.0347,-293.765 96.2165,-285.976 89.7916,-283.197"/>
</g>
<!-- Node13 -->
<g id="node13" class="node"><title>Node13</title>
<g id="a_node13"><a xlink:href="../../d8/de1/classcommands_1_1view_queries_1_1_shape_query.html#a59fa2ea395026c57ba86ba13acaa074e" target="_top" xlink:title="commands.viewQueries.Shape\lQuery.onExecute">
<polygon fill="white" stroke="black" points="211,-49 211,-79 375,-79 375,-49 211,-49"/>
<text text-anchor="start" x="219" y="-67" font-family="Helvetica,sans-Serif" font-size="10.00">commands.viewQueries.Shape</text>
<text text-anchor="middle" x="293" y="-56" font-family="Helvetica,sans-Serif" font-size="10.00">Query.onExecute</text>
</a>
</g>
</g>
<!-- Node1&#45;&gt;Node13 -->
<g id="edge12" class="edge"><title>Node1&#45;&gt;Node13</title>
<path fill="none" stroke="midnightblue" d="M89.1937,-284.038C101.878,-238.228 135.23,-140.703 200,-89 204.786,-85.1794 210.111,-81.941 215.718,-79.1963"/>
<polygon fill="midnightblue" stroke="midnightblue" points="85.7972,-283.192 86.6007,-293.756 92.5606,-284.996 85.7972,-283.192"/>
</g>
<!-- Node14 -->
<g id="node14" class="node"><title>Node14</title>
<g id="a_node14"><a xlink:href="../../de/d77/classcommands_1_1view_commands_1_1_set_palette_command.html#a96af0aaf1e556afab5f69f9246c2cbde" target="_top" xlink:title="commands.viewCommands.Set\lPaletteCommand.onExecute">
<polygon fill="white" stroke="black" points="208.5,-0 208.5,-30 377.5,-30 377.5,-0 208.5,-0"/>
<text text-anchor="start" x="216.5" y="-18" font-family="Helvetica,sans-Serif" font-size="10.00">commands.viewCommands.Set</text>
<text text-anchor="middle" x="293" y="-7" font-family="Helvetica,sans-Serif" font-size="10.00">PaletteCommand.onExecute</text>
</a>
</g>
</g>
<!-- Node1&#45;&gt;Node14 -->
<g id="edge13" class="edge"><title>Node1&#45;&gt;Node14</title>
<path fill="none" stroke="midnightblue" d="M86.5674,-283.883C95.4844,-230.636 123.773,-105.909 200,-40 204.507,-36.1028 209.566,-32.8073 214.933,-30.0214"/>
<polygon fill="midnightblue" stroke="midnightblue" points="83.0999,-283.403 84.9909,-293.827 90.0135,-284.499 83.0999,-283.403"/>
</g>
</g>
</svg>
