<?xml version="1.0" encoding="UTF-8" standalone="no"?>
<!DOCTYPE svg PUBLIC "-//W3C//DTD SVG 1.1//EN"
 "http://www.w3.org/Graphics/SVG/1.1/DTD/svg11.dtd">
<!-- Generated by graphviz version 2.36.0 (20140111.2315)
 -->
<!-- Title: commands.ViewCommand.getArgumentCount Pages: 1 -->
<svg width="384pt" height="38pt"
 viewBox="0.00 0.00 384.00 38.00" xmlns="http://www.w3.org/2000/svg" xmlns:xlink="http://www.w3.org/1999/xlink">
<g id="graph0" class="graph" transform="scale(1 1) rotate(0) translate(4 34)">
<title>commands.ViewCommand.getArgumentCount</title>
<polygon fill="white" stroke="none" points="-4,4 -4,-34 380,-34 380,4 -4,4"/>
<!-- Node1 -->
<g id="node1" class="node"><title>Node1</title>
<polygon fill="#bfbfbf" stroke="black" points="0,-0 0,-30 164,-30 164,-0 0,-0"/>
<text text-anchor="start" x="8" y="-18" font-family="Helvetica,sans-Serif" font-size="10.00">commands.ViewCommand.get</text>
<text text-anchor="middle" x="82" y="-7" font-family="Helvetica,sans-Serif" font-size="10.00">ArgumentCount</text>
</g>
<!-- Node2 -->
<g id="node2" class="node"><title>Node2</title>
<g id="a_node2"><a xlink:href="../../de/d53/classcommands_1_1_view_command.html#a1e474e7a346313f054613b90c4309481" target="_top" xlink:title="commands.ViewCommand.parse\lArguments">
<polygon fill="white" stroke="black" points="200,-0 200,-30 376,-30 376,-0 200,-0"/>
<text text-anchor="start" x="208" y="-18" font-family="Helvetica,sans-Serif" font-size="10.00">commands.ViewCommand.parse</text>
<text text-anchor="middle" x="288" y="-7" font-family="Helvetica,sans-Serif" font-size="10.00">Arguments</text>
</a>
</g>
</g>
<!-- Node1&#45;&gt;Node2 -->
<g id="edge1" class="edge"><title>Node1&#45;&gt;Node2</title>
<path fill="none" stroke="midnightblue" d="M174.409,-15C182.821,-15 191.329,-15 199.703,-15"/>
<polygon fill="midnightblue" stroke="midnightblue" points="174.212,-11.5001 164.212,-15 174.212,-18.5001 174.212,-11.5001"/>
</g>
</g>
</svg>
