<?xml version="1.0" encoding="UTF-8" standalone="no"?>
<!DOCTYPE svg PUBLIC "-//W3C//DTD SVG 1.1//EN"
 "http://www.w3.org/Graphics/SVG/1.1/DTD/svg11.dtd">
<!-- Generated by graphviz version 2.36.0 (20140111.2315)
 -->
<!-- Title: commands.ViewCommand.getExpressionList Pages: 1 -->
<svg width="386pt" height="234pt"
 viewBox="0.00 0.00 386.00 234.00" xmlns="http://www.w3.org/2000/svg" xmlns:xlink="http://www.w3.org/1999/xlink">
<g id="graph0" class="graph" transform="scale(1 1) rotate(0) translate(4 230)">
<title>commands.ViewCommand.getExpressionList</title>
<polygon fill="white" stroke="none" points="-4,4 -4,-230 382,-230 382,4 -4,4"/>
<!-- Node1 -->
<g id="node1" class="node"><title>Node1</title>
<polygon fill="#bfbfbf" stroke="black" points="0,-98 0,-128 164,-128 164,-98 0,-98"/>
<text text-anchor="start" x="8" y="-116" font-family="Helvetica,sans-Serif" font-size="10.00">commands.ViewCommand.get</text>
<text text-anchor="middle" x="82" y="-105" font-family="Helvetica,sans-Serif" font-size="10.00">ExpressionList</text>
</g>
<!-- Node2 -->
<g id="node2" class="node"><title>Node2</title>
<g id="a_node2"><a xlink:href="../../d7/dea/classcommands_1_1view_commands_1_1_set_background_command.html#abdeec0e8b0b8437478a119f2dca81aba" target="_top" xlink:title="commands.viewCommands.Set\lBackgroundCommand.onExecute">
<polygon fill="white" stroke="black" points="200.5,-196 200.5,-226 377.5,-226 377.5,-196 200.5,-196"/>
<text text-anchor="start" x="208.5" y="-214" font-family="Helvetica,sans-Serif" font-size="10.00">commands.viewCommands.Set</text>
<text text-anchor="middle" x="289" y="-203" font-family="Helvetica,sans-Serif" font-size="10.00">BackgroundCommand.onExecute</text>
</a>
</g>
</g>
<!-- Node1&#45;&gt;Node2 -->
<g id="edge1" class="edge"><title>Node1&#45;&gt;Node2</title>
<path fill="none" stroke="midnightblue" d="M111.396,-133.902C134.341,-149.989 167.977,-171.802 200,-186 208.421,-189.734 217.544,-193.059 226.617,-195.969"/>
<polygon fill="midnightblue" stroke="midnightblue" points="113.331,-130.983 103.151,-128.045 109.277,-136.69 113.331,-130.983"/>
</g>
<!-- Node3 -->
<g id="node3" class="node"><title>Node3</title>
<g id="a_node3"><a xlink:href="../../d2/d03/classcommands_1_1view_commands_1_1_set_shape_command.html#a1ec15007b35932cc11e8f1d9b805ae43" target="_top" xlink:title="commands.viewCommands.Set\lShapeCommand.onExecute">
<polygon fill="white" stroke="black" points="204.5,-147 204.5,-177 373.5,-177 373.5,-147 204.5,-147"/>
<text text-anchor="start" x="212.5" y="-165" font-family="Helvetica,sans-Serif" font-size="10.00">commands.viewCommands.Set</text>
<text text-anchor="middle" x="289" y="-154" font-family="Helvetica,sans-Serif" font-size="10.00">ShapeCommand.onExecute</text>
</a>
</g>
</g>
<!-- Node1&#45;&gt;Node3 -->
<g id="edge2" class="edge"><title>Node1&#45;&gt;Node3</title>
<path fill="none" stroke="midnightblue" d="M155.812,-130.404C178.49,-135.824 203.289,-141.752 225.219,-146.994"/>
<polygon fill="midnightblue" stroke="midnightblue" points="156.44,-126.955 145.9,-128.035 154.812,-133.764 156.44,-126.955"/>
</g>
<!-- Node4 -->
<g id="node4" class="node"><title>Node4</title>
<g id="a_node4"><a xlink:href="../../de/d48/classcommands_1_1view_commands_1_1_set_pen_size_command.html#a4f455a72a7529c1adaa7dadb04fc1069" target="_top" xlink:title="commands.viewCommands.Set\lPenSizeCommand.onExecute">
<polygon fill="white" stroke="black" points="204.5,-98 204.5,-128 373.5,-128 373.5,-98 204.5,-98"/>
<text text-anchor="start" x="212.5" y="-116" font-family="Helvetica,sans-Serif" font-size="10.00">commands.viewCommands.Set</text>
<text text-anchor="middle" x="289" y="-105" font-family="Helvetica,sans-Serif" font-size="10.00">PenSizeCommand.onExecute</text>
</a>
</g>
</g>
<!-- Node1&#45;&gt;Node4 -->
<g id="edge3" class="edge"><title>Node1&#45;&gt;Node4</title>
<path fill="none" stroke="midnightblue" d="M174.319,-113C184.265,-113 194.353,-113 204.203,-113"/>
<polygon fill="midnightblue" stroke="midnightblue" points="174.021,-109.5 164.021,-113 174.021,-116.5 174.021,-109.5"/>
</g>
<!-- Node5 -->
<g id="node5" class="node"><title>Node5</title>
<g id="a_node5"><a xlink:href="../../de/d79/classcommands_1_1view_commands_1_1_set_pen_color_command.html#aa82d533b6a1ff79defded48dbf47d81e" target="_top" xlink:title="commands.viewCommands.Set\lPenColorCommand.onExecute">
<polygon fill="white" stroke="black" points="204.5,-49 204.5,-79 373.5,-79 373.5,-49 204.5,-49"/>
<text text-anchor="start" x="212.5" y="-67" font-family="Helvetica,sans-Serif" font-size="10.00">commands.viewCommands.Set</text>
<text text-anchor="middle" x="289" y="-56" font-family="Helvetica,sans-Serif" font-size="10.00">PenColorCommand.onExecute</text>
</a>
</g>
</g>
<!-- Node1&#45;&gt;Node5 -->
<g id="edge4" class="edge"><title>Node1&#45;&gt;Node5</title>
<path fill="none" stroke="midnightblue" d="M155.812,-95.5962C178.49,-90.1757 203.289,-84.248 225.219,-79.0062"/>
<polygon fill="midnightblue" stroke="midnightblue" points="154.812,-92.2364 145.9,-97.9654 156.44,-99.0447 154.812,-92.2364"/>
</g>
<!-- Node6 -->
<g id="node6" class="node"><title>Node6</title>
<g id="a_node6"><a xlink:href="../../de/d77/classcommands_1_1view_commands_1_1_set_palette_command.html#a96af0aaf1e556afab5f69f9246c2cbde" target="_top" xlink:title="commands.viewCommands.Set\lPaletteCommand.onExecute">
<polygon fill="white" stroke="black" points="204.5,-0 204.5,-30 373.5,-30 373.5,-0 204.5,-0"/>
<text text-anchor="start" x="212.5" y="-18" font-family="Helvetica,sans-Serif" font-size="10.00">commands.viewCommands.Set</text>
<text text-anchor="middle" x="289" y="-7" font-family="Helvetica,sans-Serif" font-size="10.00">PaletteCommand.onExecute</text>
</a>
</g>
</g>
<!-- Node1&#45;&gt;Node6 -->
<g id="edge5" class="edge"><title>Node1&#45;&gt;Node6</title>
<path fill="none" stroke="midnightblue" d="M111.396,-92.0977C134.341,-76.011 167.977,-54.1976 200,-40 208.421,-36.2664 217.544,-32.9413 226.617,-30.0313"/>
<polygon fill="midnightblue" stroke="midnightblue" points="109.277,-89.3101 103.151,-97.9549 113.331,-95.0167 109.277,-89.3101"/>
</g>
</g>
</svg>
