<?xml version="1.0" encoding="UTF-8" standalone="no"?>
<!DOCTYPE svg PUBLIC "-//W3C//DTD SVG 1.1//EN"
 "http://www.w3.org/Graphics/SVG/1.1/DTD/svg11.dtd">
<!-- Generated by graphviz version 2.36.0 (20140111.2315)
 -->
<!-- Title: commands.NumericalCommand Pages: 1 -->
<svg width="277pt" height="144pt"
 viewBox="0.00 0.00 277.00 144.00" xmlns="http://www.w3.org/2000/svg" xmlns:xlink="http://www.w3.org/1999/xlink">
<g id="graph0" class="graph" transform="scale(1 1) rotate(0) translate(4 140)">
<title>commands.NumericalCommand</title>
<polygon fill="white" stroke="none" points="-4,4 -4,-140 273,-140 273,4 -4,4"/>
<!-- Node1 -->
<g id="node1" class="node"><title>Node1</title>
<polygon fill="#bfbfbf" stroke="black" points="-0.5,-0.5 -0.5,-19.5 172.5,-19.5 172.5,-0.5 -0.5,-0.5"/>
<text text-anchor="middle" x="86" y="-7.5" font-family="Helvetica,sans-Serif" font-size="10.00">commands.NumericalCommand</text>
</g>
<!-- Node2 -->
<g id="node2" class="node"><title>Node2</title>
<g id="a_node2"><a xlink:href="../../da/d90/classcommands_1_1_base_command.html" target="_top" xlink:title="commands.BaseCommand">
<polygon fill="white" stroke="black" points="12,-58.5 12,-77.5 160,-77.5 160,-58.5 12,-58.5"/>
<text text-anchor="middle" x="86" y="-65.5" font-family="Helvetica,sans-Serif" font-size="10.00">commands.BaseCommand</text>
</a>
</g>
</g>
<!-- Node2&#45;&gt;Node1 -->
<g id="edge1" class="edge"><title>Node2&#45;&gt;Node1</title>
<path fill="none" stroke="midnightblue" d="M86,-47.953C86,-38.2875 86,-27.0312 86,-19.5052"/>
<polygon fill="midnightblue" stroke="midnightblue" points="82.5001,-48.25 86,-58.25 89.5001,-48.25 82.5001,-48.25"/>
</g>
<!-- Node2&#45;&gt;Node2 -->
<g id="edge3" class="edge"><title>Node2&#45;&gt;Node2</title>
<path fill="none" stroke="#9a32cd" stroke-dasharray="5,2" d="M170.58,-71.513C175.233,-70.6578 178,-69.4868 178,-68 178,-65.6211 170.916,-64.0506 160.36,-63.2887"/>
<polygon fill="#9a32cd" stroke="#9a32cd" points="169.884,-68.0706 160.36,-72.7113 170.7,-75.023 169.884,-68.0706"/>
<text text-anchor="middle" x="223.5" y="-65.5" font-family="Helvetica,sans-Serif" font-size="10.00"> myNextCommand</text>
</g>
<!-- Node3 -->
<g id="node3" class="node"><title>Node3</title>
<polygon fill="white" stroke="#bfbfbf" points="50.5,-116.5 50.5,-135.5 121.5,-135.5 121.5,-116.5 50.5,-116.5"/>
<text text-anchor="middle" x="86" y="-123.5" font-family="Helvetica,sans-Serif" font-size="10.00">Serializable</text>
</g>
<!-- Node3&#45;&gt;Node2 -->
<g id="edge2" class="edge"><title>Node3&#45;&gt;Node2</title>
<path fill="none" stroke="midnightblue" d="M86,-105.953C86,-96.2875 86,-85.0312 86,-77.5052"/>
<polygon fill="midnightblue" stroke="midnightblue" points="82.5001,-106.25 86,-116.25 89.5001,-106.25 82.5001,-106.25"/>
</g>
</g>
</svg>
