<?xml version="1.0" encoding="UTF-8" standalone="no"?>
<!DOCTYPE svg PUBLIC "-//W3C//DTD SVG 1.1//EN"
 "http://www.w3.org/Graphics/SVG/1.1/DTD/svg11.dtd">
<!-- Generated by graphviz version 2.36.0 (20140111.2315)
 -->
<!-- Title: commands.expressionCommands.EqualCommand.onExecute Pages: 1 -->
<svg width="712pt" height="175pt"
 viewBox="0.00 0.00 712.00 175.00" xmlns="http://www.w3.org/2000/svg" xmlns:xlink="http://www.w3.org/1999/xlink">
<g id="graph0" class="graph" transform="scale(1 1) rotate(0) translate(4 171)">
<title>commands.expressionCommands.EqualCommand.onExecute</title>
<polygon fill="white" stroke="none" points="-4,4 -4,-171 708,-171 708,4 -4,4"/>
<!-- Node1 -->
<g id="node1" class="node"><title>Node1</title>
<polygon fill="#bfbfbf" stroke="black" points="0,-49 0,-79 184,-79 184,-49 0,-49"/>
<text text-anchor="start" x="8" y="-67" font-family="Helvetica,sans-Serif" font-size="10.00">commands.expressionCommands.</text>
<text text-anchor="middle" x="92" y="-56" font-family="Helvetica,sans-Serif" font-size="10.00">EqualCommand.onExecute</text>
</g>
<!-- Node2 -->
<g id="node2" class="node"><title>Node2</title>
<g id="a_node2"><a xlink:href="../../da/d90/classcommands_1_1_base_command.html#a68a349a085c4b05af0a55943da86598b" target="_top" xlink:title="commands.BaseCommand.execute">
<polygon fill="white" stroke="black" points="246.5,-98.5 246.5,-117.5 435.5,-117.5 435.5,-98.5 246.5,-98.5"/>
<text text-anchor="middle" x="341" y="-105.5" font-family="Helvetica,sans-Serif" font-size="10.00">commands.BaseCommand.execute</text>
</a>
</g>
</g>
<!-- Node1&#45;&gt;Node2 -->
<g id="edge1" class="edge"><title>Node1&#45;&gt;Node2</title>
<path fill="none" stroke="midnightblue" d="M171.199,-79.0529C187.325,-82.0796 204.204,-85.1915 220,-88 236.532,-90.9393 254.368,-93.9819 271.105,-96.78"/>
<polygon fill="midnightblue" stroke="midnightblue" points="270.924,-100.298 281.363,-98.4876 272.073,-93.3929 270.924,-100.298"/>
</g>
<!-- Node6 -->
<g id="node6" class="node"><title>Node6</title>
<g id="a_node6"><a xlink:href="../../dc/d23/classcommands_1_1expression_commands_1_1_two_expression_command.html#aab61a208f77cbaf02b2b35d6f82381ed" target="_top" xlink:title="commands.expressionCommands.\lTwoExpressionCommand.getFirstExpression">
<polygon fill="white" stroke="black" points="228.5,-49 228.5,-79 453.5,-79 453.5,-49 228.5,-49"/>
<text text-anchor="start" x="236.5" y="-67" font-family="Helvetica,sans-Serif" font-size="10.00">commands.expressionCommands.</text>
<text text-anchor="middle" x="341" y="-56" font-family="Helvetica,sans-Serif" font-size="10.00">TwoExpressionCommand.getFirstExpression</text>
</a>
</g>
</g>
<!-- Node1&#45;&gt;Node6 -->
<g id="edge6" class="edge"><title>Node1&#45;&gt;Node6</title>
<path fill="none" stroke="midnightblue" d="M184.272,-64C195.326,-64 206.75,-64 218.156,-64"/>
<polygon fill="midnightblue" stroke="midnightblue" points="218.164,-67.5001 228.164,-64 218.164,-60.5001 218.164,-67.5001"/>
</g>
<!-- Node8 -->
<g id="node8" class="node"><title>Node8</title>
<g id="a_node8"><a xlink:href="../../dc/d23/classcommands_1_1expression_commands_1_1_two_expression_command.html#ae4973f2738a03e2496cc11c60b08a318" target="_top" xlink:title="commands.expressionCommands.\lTwoExpressionCommand.getSecondExpression">
<polygon fill="white" stroke="black" points="220,-0 220,-30 462,-30 462,-0 220,-0"/>
<text text-anchor="start" x="228" y="-18" font-family="Helvetica,sans-Serif" font-size="10.00">commands.expressionCommands.</text>
<text text-anchor="middle" x="341" y="-7" font-family="Helvetica,sans-Serif" font-size="10.00">TwoExpressionCommand.getSecondExpression</text>
</a>
</g>
</g>
<!-- Node1&#45;&gt;Node8 -->
<g id="edge8" class="edge"><title>Node1&#45;&gt;Node8</title>
<path fill="none" stroke="midnightblue" d="M168.787,-48.9654C195.815,-43.6035 226.446,-37.5269 254.252,-32.0108"/>
<polygon fill="midnightblue" stroke="midnightblue" points="255.229,-35.3852 264.357,-30.0062 253.867,-28.5191 255.229,-35.3852"/>
</g>
<!-- Node2&#45;&gt;Node2 -->
<g id="edge2" class="edge"><title>Node2&#45;&gt;Node2</title>
<path fill="none" stroke="midnightblue" d="M303.085,-117.612C284.041,-126.461 296.68,-136 341,-136 374.933,-136 390.294,-130.409 387.084,-123.816"/>
<polygon fill="midnightblue" stroke="midnightblue" points="388.995,-120.873 378.915,-117.612 384.762,-126.447 388.995,-120.873"/>
</g>
<!-- Node3 -->
<g id="node3" class="node"><title>Node3</title>
<g id="a_node3"><a xlink:href="../../da/d90/classcommands_1_1_base_command.html#a90abff4a812d84d0454cb095e03c6e08" target="_top" xlink:title="commands.BaseCommand.get\lNextCommand">
<polygon fill="white" stroke="black" points="517.5,-137 517.5,-167 684.5,-167 684.5,-137 517.5,-137"/>
<text text-anchor="start" x="525.5" y="-155" font-family="Helvetica,sans-Serif" font-size="10.00">commands.BaseCommand.get</text>
<text text-anchor="middle" x="601" y="-144" font-family="Helvetica,sans-Serif" font-size="10.00">NextCommand</text>
</a>
</g>
</g>
<!-- Node2&#45;&gt;Node3 -->
<g id="edge3" class="edge"><title>Node2&#45;&gt;Node3</title>
<path fill="none" stroke="midnightblue" d="M397.982,-117.547C429.817,-122.977 470.498,-129.914 506.999,-136.139"/>
<polygon fill="midnightblue" stroke="midnightblue" points="506.726,-139.643 517.172,-137.874 507.903,-132.743 506.726,-139.643"/>
</g>
<!-- Node4 -->
<g id="node4" class="node"><title>Node4</title>
<g id="a_node4"><a xlink:href="../../da/d90/classcommands_1_1_base_command.html#aad4544c0bd9d40769d8997e4d6d97b08" target="_top" xlink:title="commands.BaseCommand.onExecute">
<polygon fill="white" stroke="black" points="500.5,-98.5 500.5,-117.5 701.5,-117.5 701.5,-98.5 500.5,-98.5"/>
<text text-anchor="middle" x="601" y="-105.5" font-family="Helvetica,sans-Serif" font-size="10.00">commands.BaseCommand.onExecute</text>
</a>
</g>
</g>
<!-- Node2&#45;&gt;Node4 -->
<g id="edge4" class="edge"><title>Node2&#45;&gt;Node4</title>
<path fill="none" stroke="midnightblue" d="M435.509,-108C453.273,-108 472.012,-108 490.227,-108"/>
<polygon fill="midnightblue" stroke="midnightblue" points="490.284,-111.5 500.284,-108 490.284,-104.5 490.284,-111.5"/>
</g>
<!-- Node5 -->
<g id="node5" class="node"><title>Node5</title>
<g id="a_node5"><a xlink:href="../../da/d90/classcommands_1_1_base_command.html#a37ff254bd611b07ea38aaaf85447a2c3" target="_top" xlink:title="commands.BaseCommand.reset">
<polygon fill="white" stroke="black" points="513,-60.5 513,-79.5 689,-79.5 689,-60.5 513,-60.5"/>
<text text-anchor="middle" x="601" y="-67.5" font-family="Helvetica,sans-Serif" font-size="10.00">commands.BaseCommand.reset</text>
</a>
</g>
</g>
<!-- Node2&#45;&gt;Node5 -->
<g id="edge5" class="edge"><title>Node2&#45;&gt;Node5</title>
<path fill="none" stroke="midnightblue" d="M406.771,-98.46C442.655,-93.1749 487.44,-86.5786 524.857,-81.0675"/>
<polygon fill="midnightblue" stroke="midnightblue" points="525.819,-84.4638 535.202,-79.5439 524.799,-77.5385 525.819,-84.4638"/>
</g>
<!-- Node7 -->
<g id="node7" class="node"><title>Node7</title>
<g id="a_node7"><a xlink:href="../../dc/d85/classcommands_1_1expression_commands_1_1_expression_command.html#a2d97de0e940f22eed366f3cc33ad7aa0" target="_top" xlink:title="commands.expressionCommands.\lExpressionCommand.getExpressionList">
<polygon fill="white" stroke="black" points="498,-6 498,-36 704,-36 704,-6 498,-6"/>
<text text-anchor="start" x="506" y="-24" font-family="Helvetica,sans-Serif" font-size="10.00">commands.expressionCommands.</text>
<text text-anchor="middle" x="601" y="-13" font-family="Helvetica,sans-Serif" font-size="10.00">ExpressionCommand.getExpressionList</text>
</a>
</g>
</g>
<!-- Node6&#45;&gt;Node7 -->
<g id="edge7" class="edge"><title>Node6&#45;&gt;Node7</title>
<path fill="none" stroke="midnightblue" d="M432.236,-48.9607C454.036,-45.3273 477.465,-41.4226 499.695,-37.7174"/>
<polygon fill="midnightblue" stroke="midnightblue" points="500.527,-41.1273 509.815,-36.0308 499.376,-34.2225 500.527,-41.1273"/>
</g>
<!-- Node8&#45;&gt;Node7 -->
<g id="edge9" class="edge"><title>Node8&#45;&gt;Node7</title>
<path fill="none" stroke="midnightblue" d="M462.313,-17.798C470.719,-17.9935 479.174,-18.1901 487.535,-18.3845"/>
<polygon fill="midnightblue" stroke="midnightblue" points="487.598,-21.8869 497.677,-18.6204 487.761,-14.8887 487.598,-21.8869"/>
</g>
</g>
</svg>
