<?xml version="1.0" encoding="UTF-8" standalone="no"?>
<!DOCTYPE svg PUBLIC "-//W3C//DTD SVG 1.1//EN"
 "http://www.w3.org/Graphics/SVG/1.1/DTD/svg11.dtd">
<!-- Generated by graphviz version 2.36.0 (20140111.2315)
 -->
<!-- Title: model.SlogoModel.initializeTurtle Pages: 1 -->
<svg width="466pt" height="38pt"
 viewBox="0.00 0.00 466.00 38.00" xmlns="http://www.w3.org/2000/svg" xmlns:xlink="http://www.w3.org/1999/xlink">
<g id="graph0" class="graph" transform="scale(1 1) rotate(0) translate(4 34)">
<title>model.SlogoModel.initializeTurtle</title>
<polygon fill="white" stroke="none" points="-4,4 -4,-34 462,-34 462,4 -4,4"/>
<!-- Node1 -->
<g id="node1" class="node"><title>Node1</title>
<polygon fill="#bfbfbf" stroke="black" points="0,-0 0,-30 146,-30 146,-0 0,-0"/>
<text text-anchor="start" x="8" y="-18" font-family="Helvetica,sans-Serif" font-size="10.00">model.SlogoModel.initialize</text>
<text text-anchor="middle" x="73" y="-7" font-family="Helvetica,sans-Serif" font-size="10.00">Turtle</text>
</g>
<!-- Node2 -->
<g id="node2" class="node"><title>Node2</title>
<g id="a_node2"><a xlink:href="../../d6/d94/classmodel_1_1_turtle_factory.html#a8136ab15d06d4567b883a359727a6b87" target="_top" xlink:title="model.TurtleFactory.create\lTurtle">
<polygon fill="white" stroke="black" points="182,-0 182,-30 324,-30 324,-0 182,-0"/>
<text text-anchor="start" x="190" y="-18" font-family="Helvetica,sans-Serif" font-size="10.00">model.TurtleFactory.create</text>
<text text-anchor="middle" x="253" y="-7" font-family="Helvetica,sans-Serif" font-size="10.00">Turtle</text>
</a>
</g>
</g>
<!-- Node1&#45;&gt;Node2 -->
<g id="edge1" class="edge"><title>Node1&#45;&gt;Node2</title>
<path fill="none" stroke="midnightblue" d="M146.143,-15C154.501,-15 163.066,-15 171.527,-15"/>
<polygon fill="midnightblue" stroke="midnightblue" points="171.775,-18.5001 181.774,-15 171.774,-11.5001 171.775,-18.5001"/>
</g>
<!-- Node3 -->
<g id="node3" class="node"><title>Node3</title>
<g id="a_node3"><a xlink:href="../../df/dcb/classturtle_1_1_turtle.html#a00d4640d9156c2612f3472800fd26428" target="_top" xlink:title="turtle.Turtle.setID">
<polygon fill="white" stroke="black" points="360,-5.5 360,-24.5 458,-24.5 458,-5.5 360,-5.5"/>
<text text-anchor="middle" x="409" y="-12.5" font-family="Helvetica,sans-Serif" font-size="10.00">turtle.Turtle.setID</text>
</a>
</g>
</g>
<!-- Node2&#45;&gt;Node3 -->
<g id="edge2" class="edge"><title>Node2&#45;&gt;Node3</title>
<path fill="none" stroke="midnightblue" d="M324.24,-15C332.813,-15 341.498,-15 349.866,-15"/>
<polygon fill="midnightblue" stroke="midnightblue" points="349.887,-18.5001 359.887,-15 349.887,-11.5001 349.887,-18.5001"/>
</g>
</g>
</svg>
