<?xml version="1.0" encoding="UTF-8" standalone="no"?>
<!DOCTYPE svg PUBLIC "-//W3C//DTD SVG 1.1//EN"
 "http://www.w3.org/Graphics/SVG/1.1/DTD/svg11.dtd">
<!-- Generated by graphviz version 2.36.0 (20140111.2315)
 -->
<!-- Title: model.SlogoModel.initializeModel Pages: 1 -->
<svg width="648pt" height="38pt"
 viewBox="0.00 0.00 648.00 38.00" xmlns="http://www.w3.org/2000/svg" xmlns:xlink="http://www.w3.org/1999/xlink">
<g id="graph0" class="graph" transform="scale(1 1) rotate(0) translate(4 34)">
<title>model.SlogoModel.initializeModel</title>
<polygon fill="white" stroke="none" points="-4,4 -4,-34 644,-34 644,4 -4,4"/>
<!-- Node1 -->
<g id="node1" class="node"><title>Node1</title>
<polygon fill="#bfbfbf" stroke="black" points="0,-0 0,-30 146,-30 146,-0 0,-0"/>
<text text-anchor="start" x="8" y="-18" font-family="Helvetica,sans-Serif" font-size="10.00">model.SlogoModel.initialize</text>
<text text-anchor="middle" x="73" y="-7" font-family="Helvetica,sans-Serif" font-size="10.00">Model</text>
</g>
<!-- Node2 -->
<g id="node2" class="node"><title>Node2</title>
<g id="a_node2"><a xlink:href="../../d3/d88/classmodel_1_1_slogo_model.html#ae121977c3f78f385b680ffa1e61d539c" target="_top" xlink:title="model.SlogoModel.initialize\lTurtle">
<polygon fill="white" stroke="black" points="182,-0 182,-30 328,-30 328,-0 182,-0"/>
<text text-anchor="start" x="190" y="-18" font-family="Helvetica,sans-Serif" font-size="10.00">model.SlogoModel.initialize</text>
<text text-anchor="middle" x="255" y="-7" font-family="Helvetica,sans-Serif" font-size="10.00">Turtle</text>
</a>
</g>
</g>
<!-- Node1&#45;&gt;Node2 -->
<g id="edge1" class="edge"><title>Node1&#45;&gt;Node2</title>
<path fill="none" stroke="midnightblue" d="M146.176,-15C154.52,-15 163.077,-15 171.544,-15"/>
<polygon fill="midnightblue" stroke="midnightblue" points="171.808,-18.5001 181.808,-15 171.808,-11.5001 171.808,-18.5001"/>
</g>
<!-- Node3 -->
<g id="node3" class="node"><title>Node3</title>
<g id="a_node3"><a xlink:href="../../d6/d94/classmodel_1_1_turtle_factory.html#a8136ab15d06d4567b883a359727a6b87" target="_top" xlink:title="model.TurtleFactory.create\lTurtle">
<polygon fill="white" stroke="black" points="364,-0 364,-30 506,-30 506,-0 364,-0"/>
<text text-anchor="start" x="372" y="-18" font-family="Helvetica,sans-Serif" font-size="10.00">model.TurtleFactory.create</text>
<text text-anchor="middle" x="435" y="-7" font-family="Helvetica,sans-Serif" font-size="10.00">Turtle</text>
</a>
</g>
</g>
<!-- Node2&#45;&gt;Node3 -->
<g id="edge2" class="edge"><title>Node2&#45;&gt;Node3</title>
<path fill="none" stroke="midnightblue" d="M328.143,-15C336.501,-15 345.066,-15 353.527,-15"/>
<polygon fill="midnightblue" stroke="midnightblue" points="353.775,-18.5001 363.774,-15 353.774,-11.5001 353.775,-18.5001"/>
</g>
<!-- Node4 -->
<g id="node4" class="node"><title>Node4</title>
<g id="a_node4"><a xlink:href="../../df/dcb/classturtle_1_1_turtle.html#a00d4640d9156c2612f3472800fd26428" target="_top" xlink:title="turtle.Turtle.setID">
<polygon fill="white" stroke="black" points="542,-5.5 542,-24.5 640,-24.5 640,-5.5 542,-5.5"/>
<text text-anchor="middle" x="591" y="-12.5" font-family="Helvetica,sans-Serif" font-size="10.00">turtle.Turtle.setID</text>
</a>
</g>
</g>
<!-- Node3&#45;&gt;Node4 -->
<g id="edge3" class="edge"><title>Node3&#45;&gt;Node4</title>
<path fill="none" stroke="midnightblue" d="M506.24,-15C514.813,-15 523.498,-15 531.866,-15"/>
<polygon fill="midnightblue" stroke="midnightblue" points="531.887,-18.5001 541.887,-15 531.887,-11.5001 531.887,-18.5001"/>
</g>
</g>
</svg>
