<?xml version="1.0" encoding="UTF-8" standalone="no"?>
<!DOCTYPE svg PUBLIC "-//W3C//DTD SVG 1.1//EN"
 "http://www.w3.org/Graphics/SVG/1.1/DTD/svg11.dtd">
<!-- Generated by graphviz version 2.36.0 (20140111.2315)
 -->
<!-- Title: commandParser.PropertiesFileReader Pages: 1 -->
<svg width="369pt" height="108pt"
 viewBox="0.00 0.00 369.00 108.00" xmlns="http://www.w3.org/2000/svg" xmlns:xlink="http://www.w3.org/1999/xlink">
<g id="graph0" class="graph" transform="scale(1 1) rotate(0) translate(4 104)">
<title>commandParser.PropertiesFileReader</title>
<polygon fill="white" stroke="none" points="-4,4 -4,-104 365,-104 365,4 -4,4"/>
<!-- Node1 -->
<g id="node1" class="node"><title>Node1</title>
<polygon fill="#bfbfbf" stroke="black" points="113,-69 113,-99 259,-99 259,-69 113,-69"/>
<text text-anchor="start" x="121" y="-87" font-family="Helvetica,sans-Serif" font-size="10.00">commandParser.Properties</text>
<text text-anchor="middle" x="186" y="-76" font-family="Helvetica,sans-Serif" font-size="10.00">FileReader</text>
</g>
<!-- Node2 -->
<g id="node2" class="node"><title>Node2</title>
<g id="a_node2"><a xlink:href="../../d2/d91/classcommand_parser_1_1_command_to_class_translator.html" target="_top" xlink:title="commandParser.CommandToClass\lTranslator">
<polygon fill="white" stroke="black" points="-0.5,-1 -0.5,-31 182.5,-31 182.5,-1 -0.5,-1"/>
<text text-anchor="start" x="7.5" y="-19" font-family="Helvetica,sans-Serif" font-size="10.00">commandParser.CommandToClass</text>
<text text-anchor="middle" x="91" y="-8" font-family="Helvetica,sans-Serif" font-size="10.00">Translator</text>
</a>
</g>
</g>
<!-- Node1&#45;&gt;Node2 -->
<g id="edge1" class="edge"><title>Node1&#45;&gt;Node2</title>
<path fill="none" stroke="midnightblue" d="M157.051,-62.8884C142.243,-52.6003 124.58,-40.3293 111.247,-31.0663"/>
<polygon fill="midnightblue" stroke="midnightblue" points="155.177,-65.8478 165.386,-68.679 159.171,-60.099 155.177,-65.8478"/>
</g>
<!-- Node3 -->
<g id="node3" class="node"><title>Node3</title>
<g id="a_node3"><a xlink:href="../../d8/d54/classcommand_parser_1_1_language_file_parser.html" target="_top" xlink:title="commandParser.LanguageFile\lParser">
<polygon fill="white" stroke="black" points="201,-1 201,-31 361,-31 361,-1 201,-1"/>
<text text-anchor="start" x="209" y="-19" font-family="Helvetica,sans-Serif" font-size="10.00">commandParser.LanguageFile</text>
<text text-anchor="middle" x="281" y="-8" font-family="Helvetica,sans-Serif" font-size="10.00">Parser</text>
</a>
</g>
</g>
<!-- Node1&#45;&gt;Node3 -->
<g id="edge2" class="edge"><title>Node1&#45;&gt;Node3</title>
<path fill="none" stroke="midnightblue" d="M214.949,-62.8884C229.757,-52.6003 247.42,-40.3293 260.753,-31.0663"/>
<polygon fill="midnightblue" stroke="midnightblue" points="212.829,-60.099 206.614,-68.679 216.823,-65.8478 212.829,-60.099"/>
</g>
</g>
</svg>
