<?xml version="1.0" encoding="UTF-8" standalone="no"?>
<!DOCTYPE svg PUBLIC "-//W3C//DTD SVG 1.1//EN"
 "http://www.w3.org/Graphics/SVG/1.1/DTD/svg11.dtd">
<!-- Generated by graphviz version 2.36.0 (20140111.2315)
 -->
<!-- Title: GUIFunctions.GUIFunction.doAction Pages: 1 -->
<svg width="676pt" height="38pt"
 viewBox="0.00 0.00 676.00 38.00" xmlns="http://www.w3.org/2000/svg" xmlns:xlink="http://www.w3.org/1999/xlink">
<g id="graph0" class="graph" transform="scale(1 1) rotate(0) translate(4 34)">
<title>GUIFunctions.GUIFunction.doAction</title>
<polygon fill="white" stroke="none" points="-4,4 -4,-34 672,-34 672,4 -4,4"/>
<!-- Node1 -->
<g id="node1" class="node"><title>Node1</title>
<polygon fill="#bfbfbf" stroke="black" points="0,-0 0,-30 154,-30 154,-0 0,-0"/>
<text text-anchor="start" x="8" y="-18" font-family="Helvetica,sans-Serif" font-size="10.00">GUIFunctions.GUIFunction.do</text>
<text text-anchor="middle" x="77" y="-7" font-family="Helvetica,sans-Serif" font-size="10.00">Action</text>
</g>
<!-- Node2 -->
<g id="node2" class="node"><title>Node2</title>
<g id="a_node2"><a xlink:href="../../d0/d93/class_view_1_1_pen_scrolling_bar.html#a352f0d83a3d5071000bfd615f70e4b16" target="_top" xlink:title="View.PenScrollingBar.add\lEvent">
<polygon fill="white" stroke="black" points="190,-0 190,-30 326,-30 326,-0 190,-0"/>
<text text-anchor="start" x="198" y="-18" font-family="Helvetica,sans-Serif" font-size="10.00">View.PenScrollingBar.add</text>
<text text-anchor="middle" x="258" y="-7" font-family="Helvetica,sans-Serif" font-size="10.00">Event</text>
</a>
</g>
</g>
<!-- Node1&#45;&gt;Node2 -->
<g id="edge1" class="edge"><title>Node1&#45;&gt;Node2</title>
<path fill="none" stroke="midnightblue" d="M164.265,-15C172.894,-15 181.564,-15 189.953,-15"/>
<polygon fill="midnightblue" stroke="midnightblue" points="164.172,-11.5001 154.172,-15 164.172,-18.5001 164.172,-11.5001"/>
</g>
<!-- Node3 -->
<g id="node3" class="node"><title>Node3</title>
<g id="a_node3"><a xlink:href="../../d0/d93/class_view_1_1_pen_scrolling_bar.html#a2e7fdf1113c0f3d095edbf6fe306cc96" target="_top" xlink:title="View.PenScrollingBar.set\lFocus">
<polygon fill="white" stroke="black" points="362.5,-0 362.5,-30 495.5,-30 495.5,-0 362.5,-0"/>
<text text-anchor="start" x="370.5" y="-18" font-family="Helvetica,sans-Serif" font-size="10.00">View.PenScrollingBar.set</text>
<text text-anchor="middle" x="429" y="-7" font-family="Helvetica,sans-Serif" font-size="10.00">Focus</text>
</a>
</g>
</g>
<!-- Node2&#45;&gt;Node3 -->
<g id="edge2" class="edge"><title>Node2&#45;&gt;Node3</title>
<path fill="none" stroke="midnightblue" d="M336.388,-15C345.058,-15 353.828,-15 362.33,-15"/>
<polygon fill="midnightblue" stroke="midnightblue" points="336.279,-11.5001 326.279,-15 336.279,-18.5001 336.279,-11.5001"/>
</g>
<!-- Node4 -->
<g id="node4" class="node"><title>Node4</title>
<g id="a_node4"><a xlink:href="../../d0/d93/class_view_1_1_pen_scrolling_bar.html#a4944382d3090036f9366c62a40f825ad" target="_top" xlink:title="View.PenScrollingBar.Pen\lScrollingBar">
<polygon fill="white" stroke="black" points="532,-0 532,-30 668,-30 668,-0 532,-0"/>
<text text-anchor="start" x="540" y="-18" font-family="Helvetica,sans-Serif" font-size="10.00">View.PenScrollingBar.Pen</text>
<text text-anchor="middle" x="600" y="-7" font-family="Helvetica,sans-Serif" font-size="10.00">ScrollingBar</text>
</a>
</g>
</g>
<!-- Node3&#45;&gt;Node4 -->
<g id="edge3" class="edge"><title>Node3&#45;&gt;Node4</title>
<path fill="none" stroke="midnightblue" d="M505.934,-15C514.612,-15 523.413,-15 531.964,-15"/>
<polygon fill="midnightblue" stroke="midnightblue" points="505.824,-11.5001 495.824,-15 505.824,-18.5001 505.824,-11.5001"/>
</g>
</g>
</svg>
