<?xml version="1.0" encoding="UTF-8" standalone="no"?>
<!DOCTYPE svg PUBLIC "-//W3C//DTD SVG 1.1//EN"
 "http://www.w3.org/Graphics/SVG/1.1/DTD/svg11.dtd">
<!-- Generated by graphviz version 2.36.0 (20140111.2315)
 -->
<!-- Title: View.PenScrollingBar.addEvent Pages: 1 -->
<svg width="486pt" height="38pt"
 viewBox="0.00 0.00 486.00 38.00" xmlns="http://www.w3.org/2000/svg" xmlns:xlink="http://www.w3.org/1999/xlink">
<g id="graph0" class="graph" transform="scale(1 1) rotate(0) translate(4 34)">
<title>View.PenScrollingBar.addEvent</title>
<polygon fill="white" stroke="none" points="-4,4 -4,-34 482,-34 482,4 -4,4"/>
<!-- Node1 -->
<g id="node1" class="node"><title>Node1</title>
<polygon fill="#bfbfbf" stroke="black" points="0,-0 0,-30 136,-30 136,-0 0,-0"/>
<text text-anchor="start" x="8" y="-18" font-family="Helvetica,sans-Serif" font-size="10.00">View.PenScrollingBar.add</text>
<text text-anchor="middle" x="68" y="-7" font-family="Helvetica,sans-Serif" font-size="10.00">Event</text>
</g>
<!-- Node2 -->
<g id="node2" class="node"><title>Node2</title>
<g id="a_node2"><a xlink:href="../../d0/d93/class_view_1_1_pen_scrolling_bar.html#a2e7fdf1113c0f3d095edbf6fe306cc96" target="_top" xlink:title="View.PenScrollingBar.set\lFocus">
<polygon fill="white" stroke="black" points="172.5,-0 172.5,-30 305.5,-30 305.5,-0 172.5,-0"/>
<text text-anchor="start" x="180.5" y="-18" font-family="Helvetica,sans-Serif" font-size="10.00">View.PenScrollingBar.set</text>
<text text-anchor="middle" x="239" y="-7" font-family="Helvetica,sans-Serif" font-size="10.00">Focus</text>
</a>
</g>
</g>
<!-- Node1&#45;&gt;Node2 -->
<g id="edge1" class="edge"><title>Node1&#45;&gt;Node2</title>
<path fill="none" stroke="midnightblue" d="M146.388,-15C155.058,-15 163.828,-15 172.33,-15"/>
<polygon fill="midnightblue" stroke="midnightblue" points="146.279,-11.5001 136.279,-15 146.279,-18.5001 146.279,-11.5001"/>
</g>
<!-- Node3 -->
<g id="node3" class="node"><title>Node3</title>
<g id="a_node3"><a xlink:href="../../d0/d93/class_view_1_1_pen_scrolling_bar.html#a4944382d3090036f9366c62a40f825ad" target="_top" xlink:title="View.PenScrollingBar.Pen\lScrollingBar">
<polygon fill="white" stroke="black" points="342,-0 342,-30 478,-30 478,-0 342,-0"/>
<text text-anchor="start" x="350" y="-18" font-family="Helvetica,sans-Serif" font-size="10.00">View.PenScrollingBar.Pen</text>
<text text-anchor="middle" x="410" y="-7" font-family="Helvetica,sans-Serif" font-size="10.00">ScrollingBar</text>
</a>
</g>
</g>
<!-- Node2&#45;&gt;Node3 -->
<g id="edge2" class="edge"><title>Node2&#45;&gt;Node3</title>
<path fill="none" stroke="midnightblue" d="M315.934,-15C324.612,-15 333.413,-15 341.964,-15"/>
<polygon fill="midnightblue" stroke="midnightblue" points="315.824,-11.5001 305.824,-15 315.824,-18.5001 315.824,-11.5001"/>
</g>
</g>
</svg>
