<?xml version="1.0" encoding="UTF-8" standalone="no"?>
<!DOCTYPE svg PUBLIC "-//W3C//DTD SVG 1.1//EN"
 "http://www.w3.org/Graphics/SVG/1.1/DTD/svg11.dtd">
<!-- Generated by graphviz version 2.36.0 (20140111.2315)
 -->
<!-- Title: View.PenScrollingBar.PenScrollingBar Pages: 1 -->
<svg width="676pt" height="38pt"
 viewBox="0.00 0.00 676.00 38.00" xmlns="http://www.w3.org/2000/svg" xmlns:xlink="http://www.w3.org/1999/xlink">
<g id="graph0" class="graph" transform="scale(1 1) rotate(0) translate(4 34)">
<title>View.PenScrollingBar.PenScrollingBar</title>
<polygon fill="white" stroke="none" points="-4,4 -4,-34 672,-34 672,4 -4,4"/>
<!-- Node1 -->
<g id="node1" class="node"><title>Node1</title>
<polygon fill="#bfbfbf" stroke="black" points="0,-0 0,-30 136,-30 136,-0 0,-0"/>
<text text-anchor="start" x="8" y="-18" font-family="Helvetica,sans-Serif" font-size="10.00">View.PenScrollingBar.Pen</text>
<text text-anchor="middle" x="68" y="-7" font-family="Helvetica,sans-Serif" font-size="10.00">ScrollingBar</text>
</g>
<!-- Node2 -->
<g id="node2" class="node"><title>Node2</title>
<g id="a_node2"><a xlink:href="../../d0/d93/class_view_1_1_pen_scrolling_bar.html#a2e7fdf1113c0f3d095edbf6fe306cc96" target="_top" xlink:title="View.PenScrollingBar.set\lFocus">
<polygon fill="white" stroke="black" points="172.5,-0 172.5,-30 305.5,-30 305.5,-0 172.5,-0"/>
<text text-anchor="start" x="180.5" y="-18" font-family="Helvetica,sans-Serif" font-size="10.00">View.PenScrollingBar.set</text>
<text text-anchor="middle" x="239" y="-7" font-family="Helvetica,sans-Serif" font-size="10.00">Focus</text>
</a>
</g>
</g>
<!-- Node1&#45;&gt;Node2 -->
<g id="edge1" class="edge"><title>Node1&#45;&gt;Node2</title>
<path fill="none" stroke="midnightblue" d="M136.279,-15C144.813,-15 153.593,-15 162.248,-15"/>
<polygon fill="midnightblue" stroke="midnightblue" points="162.33,-18.5001 172.33,-15 162.33,-11.5001 162.33,-18.5001"/>
</g>
<!-- Node3 -->
<g id="node3" class="node"><title>Node3</title>
<g id="a_node3"><a xlink:href="../../d0/d93/class_view_1_1_pen_scrolling_bar.html#a352f0d83a3d5071000bfd615f70e4b16" target="_top" xlink:title="View.PenScrollingBar.add\lEvent">
<polygon fill="white" stroke="black" points="342,-0 342,-30 478,-30 478,-0 342,-0"/>
<text text-anchor="start" x="350" y="-18" font-family="Helvetica,sans-Serif" font-size="10.00">View.PenScrollingBar.add</text>
<text text-anchor="middle" x="410" y="-7" font-family="Helvetica,sans-Serif" font-size="10.00">Event</text>
</a>
</g>
</g>
<!-- Node2&#45;&gt;Node3 -->
<g id="edge2" class="edge"><title>Node2&#45;&gt;Node3</title>
<path fill="none" stroke="midnightblue" d="M305.824,-15C314.35,-15 323.144,-15 331.833,-15"/>
<polygon fill="midnightblue" stroke="midnightblue" points="331.964,-18.5001 341.964,-15 331.964,-11.5001 331.964,-18.5001"/>
</g>
<!-- Node4 -->
<g id="node4" class="node"><title>Node4</title>
<g id="a_node4"><a xlink:href="../../d1/df5/interface_g_u_i_functions_1_1_g_u_i_function.html#a4d32d6cdcf9d86427691e346aa813b5b" target="_top" xlink:title="GUIFunctions.GUIFunction.do\lAction">
<polygon fill="white" stroke="black" points="514,-0 514,-30 668,-30 668,-0 514,-0"/>
<text text-anchor="start" x="522" y="-18" font-family="Helvetica,sans-Serif" font-size="10.00">GUIFunctions.GUIFunction.do</text>
<text text-anchor="middle" x="591" y="-7" font-family="Helvetica,sans-Serif" font-size="10.00">Action</text>
</a>
</g>
</g>
<!-- Node3&#45;&gt;Node4 -->
<g id="edge3" class="edge"><title>Node3&#45;&gt;Node4</title>
<path fill="none" stroke="midnightblue" d="M478.162,-15C486.505,-15 495.124,-15 503.703,-15"/>
<polygon fill="midnightblue" stroke="midnightblue" points="503.738,-18.5001 513.738,-15 503.738,-11.5001 503.738,-18.5001"/>
</g>
</g>
</svg>
