<?xml version="1.0" encoding="UTF-8" standalone="no"?>
<!DOCTYPE svg PUBLIC "-//W3C//DTD SVG 1.1//EN"
 "http://www.w3.org/Graphics/SVG/1.1/DTD/svg11.dtd">
<!-- Generated by graphviz version 2.36.0 (20140111.2315)
 -->
<!-- Title: View.PenScrollingBar.setFocus Pages: 1 -->
<svg width="504pt" height="38pt"
 viewBox="0.00 0.00 504.00 38.00" xmlns="http://www.w3.org/2000/svg" xmlns:xlink="http://www.w3.org/1999/xlink">
<g id="graph0" class="graph" transform="scale(1 1) rotate(0) translate(4 34)">
<title>View.PenScrollingBar.setFocus</title>
<polygon fill="white" stroke="none" points="-4,4 -4,-34 500,-34 500,4 -4,4"/>
<!-- Node1 -->
<g id="node1" class="node"><title>Node1</title>
<polygon fill="#bfbfbf" stroke="black" points="0.5,-0 0.5,-30 133.5,-30 133.5,-0 0.5,-0"/>
<text text-anchor="start" x="8.5" y="-18" font-family="Helvetica,sans-Serif" font-size="10.00">View.PenScrollingBar.set</text>
<text text-anchor="middle" x="67" y="-7" font-family="Helvetica,sans-Serif" font-size="10.00">Focus</text>
</g>
<!-- Node2 -->
<g id="node2" class="node"><title>Node2</title>
<g id="a_node2"><a xlink:href="../../d0/d93/class_view_1_1_pen_scrolling_bar.html#a352f0d83a3d5071000bfd615f70e4b16" target="_top" xlink:title="View.PenScrollingBar.add\lEvent">
<polygon fill="white" stroke="black" points="170,-0 170,-30 306,-30 306,-0 170,-0"/>
<text text-anchor="start" x="178" y="-18" font-family="Helvetica,sans-Serif" font-size="10.00">View.PenScrollingBar.add</text>
<text text-anchor="middle" x="238" y="-7" font-family="Helvetica,sans-Serif" font-size="10.00">Event</text>
</a>
</g>
</g>
<!-- Node1&#45;&gt;Node2 -->
<g id="edge1" class="edge"><title>Node1&#45;&gt;Node2</title>
<path fill="none" stroke="midnightblue" d="M133.824,-15C142.35,-15 151.144,-15 159.833,-15"/>
<polygon fill="midnightblue" stroke="midnightblue" points="159.964,-18.5001 169.964,-15 159.964,-11.5001 159.964,-18.5001"/>
</g>
<!-- Node3 -->
<g id="node3" class="node"><title>Node3</title>
<g id="a_node3"><a xlink:href="../../d1/df5/interface_g_u_i_functions_1_1_g_u_i_function.html#a4d32d6cdcf9d86427691e346aa813b5b" target="_top" xlink:title="GUIFunctions.GUIFunction.do\lAction">
<polygon fill="white" stroke="black" points="342,-0 342,-30 496,-30 496,-0 342,-0"/>
<text text-anchor="start" x="350" y="-18" font-family="Helvetica,sans-Serif" font-size="10.00">GUIFunctions.GUIFunction.do</text>
<text text-anchor="middle" x="419" y="-7" font-family="Helvetica,sans-Serif" font-size="10.00">Action</text>
</a>
</g>
</g>
<!-- Node2&#45;&gt;Node3 -->
<g id="edge2" class="edge"><title>Node2&#45;&gt;Node3</title>
<path fill="none" stroke="midnightblue" d="M306.162,-15C314.505,-15 323.124,-15 331.703,-15"/>
<polygon fill="midnightblue" stroke="midnightblue" points="331.738,-18.5001 341.738,-15 331.738,-11.5001 331.738,-18.5001"/>
</g>
</g>
</svg>
