<?xml version="1.0" encoding="UTF-8" standalone="no"?>
<!DOCTYPE svg PUBLIC "-//W3C//DTD SVG 1.1//EN"
 "http://www.w3.org/Graphics/SVG/1.1/DTD/svg11.dtd">
<!-- Generated by graphviz version 2.36.0 (20140111.2315)
 -->
<!-- Title: commandParser.CommandFactory Pages: 1 -->
<svg width="386pt" height="108pt"
 viewBox="0.00 0.00 386.00 108.00" xmlns="http://www.w3.org/2000/svg" xmlns:xlink="http://www.w3.org/1999/xlink">
<g id="graph0" class="graph" transform="scale(1 1) rotate(0) translate(4 104)">
<title>commandParser.CommandFactory</title>
<polygon fill="white" stroke="none" points="-4,4 -4,-104 382,-104 382,4 -4,4"/>
<!-- Node1 -->
<g id="node1" class="node"><title>Node1</title>
<polygon fill="#bfbfbf" stroke="black" points="89,-0.5 89,-19.5 271,-19.5 271,-0.5 89,-0.5"/>
<text text-anchor="middle" x="180" y="-7.5" font-family="Helvetica,sans-Serif" font-size="10.00">commandParser.CommandFactory</text>
</g>
<!-- Node2 -->
<g id="node2" class="node"><title>Node2</title>
<g id="a_node2"><a xlink:href="../../dd/df5/interfacecommands_1_1information_1_1_i_information_gateway.html" target="_top" xlink:title="commands.information.IInformation\lGateway">
<polygon fill="white" stroke="black" points="0,-69 0,-99 188,-99 188,-69 0,-69"/>
<text text-anchor="start" x="8" y="-87" font-family="Helvetica,sans-Serif" font-size="10.00">commands.information.IInformation</text>
<text text-anchor="middle" x="94" y="-76" font-family="Helvetica,sans-Serif" font-size="10.00">Gateway</text>
</a>
</g>
</g>
<!-- Node2&#45;&gt;Node1 -->
<g id="edge1" class="edge"><title>Node2&#45;&gt;Node1</title>
<path fill="none" stroke="#9a32cd" stroke-dasharray="5,2" d="M118.826,-62.2158C135.649,-48.1309 157.021,-30.2378 169.538,-19.7589"/>
<polygon fill="#9a32cd" stroke="#9a32cd" points="116.412,-59.6721 110.991,-68.7751 120.905,-65.0394 116.412,-59.6721"/>
<text text-anchor="middle" x="194.5" y="-41.5" font-family="Helvetica,sans-Serif" font-size="10.00"> myInformationHub</text>
</g>
<!-- Node3 -->
<g id="node3" class="node"><title>Node3</title>
<polygon fill="white" stroke="#bfbfbf" points="206.5,-74.5 206.5,-93.5 325.5,-93.5 325.5,-74.5 206.5,-74.5"/>
<text text-anchor="middle" x="266" y="-81.5" font-family="Helvetica,sans-Serif" font-size="10.00">Map&lt; String, Class &gt;</text>
</g>
<!-- Node3&#45;&gt;Node1 -->
<g id="edge2" class="edge"><title>Node3&#45;&gt;Node1</title>
<path fill="none" stroke="#9a32cd" stroke-dasharray="5,2" d="M260.454,-64.633C256.955,-55.6366 251.628,-45.2162 244,-38 235.152,-29.6297 223.323,-23.6614 212.244,-19.5027"/>
<polygon fill="#9a32cd" stroke="#9a32cd" points="257.2,-65.9353 263.751,-74.2626 263.823,-63.668 257.2,-65.9353"/>
<text text-anchor="middle" x="316" y="-41.5" font-family="Helvetica,sans-Serif" font-size="10.00"> myCommandToClassMap</text>
</g>
</g>
</svg>
