<?xml version="1.0" encoding="UTF-8" standalone="no"?>
<!DOCTYPE svg PUBLIC "-//W3C//DTD SVG 1.1//EN"
 "http://www.w3.org/Graphics/SVG/1.1/DTD/svg11.dtd">
<!-- Generated by graphviz version 2.36.0 (20140111.2315)
 -->
<!-- Title: View.ColorSelection.switchPosition Pages: 1 -->
<svg width="510pt" height="38pt"
 viewBox="0.00 0.00 510.00 38.00" xmlns="http://www.w3.org/2000/svg" xmlns:xlink="http://www.w3.org/1999/xlink">
<g id="graph0" class="graph" transform="scale(1 1) rotate(0) translate(4 34)">
<title>View.ColorSelection.switchPosition</title>
<polygon fill="white" stroke="none" points="-4,4 -4,-34 506,-34 506,4 -4,4"/>
<!-- Node1 -->
<g id="node1" class="node"><title>Node1</title>
<polygon fill="#bfbfbf" stroke="black" points="0,-0 0,-30 142,-30 142,-0 0,-0"/>
<text text-anchor="start" x="8" y="-18" font-family="Helvetica,sans-Serif" font-size="10.00">View.ColorSelection.switch</text>
<text text-anchor="middle" x="71" y="-7" font-family="Helvetica,sans-Serif" font-size="10.00">Position</text>
</g>
<!-- Node2 -->
<g id="node2" class="node"><title>Node2</title>
<g id="a_node2"><a xlink:href="../../da/d31/class_view_1_1_color_selection.html#a60273eb6e389bc242577883a8699264a" target="_top" xlink:title="View.ColorSelection.setColor">
<polygon fill="white" stroke="black" points="178,-5.5 178,-24.5 330,-24.5 330,-5.5 178,-5.5"/>
<text text-anchor="middle" x="254" y="-12.5" font-family="Helvetica,sans-Serif" font-size="10.00">View.ColorSelection.setColor</text>
</a>
</g>
</g>
<!-- Node1&#45;&gt;Node2 -->
<g id="edge1" class="edge"><title>Node1&#45;&gt;Node2</title>
<path fill="none" stroke="midnightblue" d="M152.419,-15C160.829,-15 169.356,-15 177.706,-15"/>
<polygon fill="midnightblue" stroke="midnightblue" points="152.238,-11.5001 142.238,-15 152.238,-18.5001 152.238,-11.5001"/>
</g>
<!-- Node3 -->
<g id="node3" class="node"><title>Node3</title>
<g id="a_node3"><a xlink:href="../../db/dd1/class_view_1_1_set_palette.html#a5c2dd9324f29b8664093cc14e9c983b2" target="_top" xlink:title="View.SetPalette.doAction">
<polygon fill="white" stroke="black" points="366.5,-5.5 366.5,-24.5 501.5,-24.5 501.5,-5.5 366.5,-5.5"/>
<text text-anchor="middle" x="434" y="-12.5" font-family="Helvetica,sans-Serif" font-size="10.00">View.SetPalette.doAction</text>
</a>
</g>
</g>
<!-- Node2&#45;&gt;Node3 -->
<g id="edge2" class="edge"><title>Node2&#45;&gt;Node3</title>
<path fill="none" stroke="midnightblue" d="M340.378,-15C349.058,-15 357.783,-15 366.224,-15"/>
<polygon fill="midnightblue" stroke="midnightblue" points="340.23,-11.5001 330.23,-15 340.23,-18.5001 340.23,-11.5001"/>
</g>
</g>
</svg>
