<?xml version="1.0" encoding="UTF-8" standalone="no"?>
<!DOCTYPE svg PUBLIC "-//W3C//DTD SVG 1.1//EN"
 "http://www.w3.org/Graphics/SVG/1.1/DTD/svg11.dtd">
<!-- Generated by graphviz version 2.36.0 (20140111.2315)
 -->
<!-- Title: View.ColorSelection.myColorPane Pages: 1 -->
<svg width="544pt" height="77pt"
 viewBox="0.00 0.00 544.00 77.00" xmlns="http://www.w3.org/2000/svg" xmlns:xlink="http://www.w3.org/1999/xlink">
<g id="graph0" class="graph" transform="scale(1 1) rotate(0) translate(4 73)">
<title>View.ColorSelection.myColorPane</title>
<polygon fill="white" stroke="none" points="-4,4 -4,-73 540,-73 540,4 -4,4"/>
<!-- Node1 -->
<g id="node1" class="node"><title>Node1</title>
<polygon fill="#bfbfbf" stroke="black" points="0,-22.5 0,-41.5 176,-41.5 176,-22.5 0,-22.5"/>
<text text-anchor="middle" x="88" y="-29.5" font-family="Helvetica,sans-Serif" font-size="10.00">View.ColorSelection.myColorPane</text>
</g>
<!-- Node2 -->
<g id="node2" class="node"><title>Node2</title>
<g id="a_node2"><a xlink:href="../../da/d31/class_view_1_1_color_selection.html#a60fc2767f9e0f927dea0c101d4ed1863" target="_top" xlink:title="View.ColorSelection.Color\lSelection">
<polygon fill="white" stroke="black" points="219.5,-39 219.5,-69 356.5,-69 356.5,-39 219.5,-39"/>
<text text-anchor="start" x="227.5" y="-57" font-family="Helvetica,sans-Serif" font-size="10.00">View.ColorSelection.Color</text>
<text text-anchor="middle" x="288" y="-46" font-family="Helvetica,sans-Serif" font-size="10.00">Selection</text>
</a>
</g>
</g>
<!-- Node1&#45;&gt;Node2 -->
<g id="edge1" class="edge"><title>Node1&#45;&gt;Node2</title>
<path fill="none" stroke="midnightblue" d="M184.9,-42.6555C196.548,-43.9498 208.254,-45.2505 219.371,-46.4857"/>
<polygon fill="midnightblue" stroke="midnightblue" points="185.019,-39.1474 174.694,-41.5216 184.246,-46.1046 185.019,-39.1474"/>
</g>
<!-- Node3 -->
<g id="node3" class="node"><title>Node3</title>
<g id="a_node3"><a xlink:href="../../da/d31/class_view_1_1_color_selection.html#a60273eb6e389bc242577883a8699264a" target="_top" xlink:title="View.ColorSelection.setColor">
<polygon fill="white" stroke="black" points="212,-0.5 212,-19.5 364,-19.5 364,-0.5 212,-0.5"/>
<text text-anchor="middle" x="288" y="-7.5" font-family="Helvetica,sans-Serif" font-size="10.00">View.ColorSelection.setColor</text>
</a>
</g>
</g>
<!-- Node1&#45;&gt;Node3 -->
<g id="edge2" class="edge"><title>Node1&#45;&gt;Node3</title>
<path fill="none" stroke="midnightblue" d="M184.858,-21.3491C193.887,-20.3459 202.951,-19.3387 211.75,-18.3611"/>
<polygon fill="midnightblue" stroke="midnightblue" points="184.246,-17.8954 174.694,-22.4784 185.019,-24.8526 184.246,-17.8954"/>
</g>
<!-- Node4 -->
<g id="node4" class="node"><title>Node4</title>
<g id="a_node4"><a xlink:href="../../db/dd1/class_view_1_1_set_palette.html#a5c2dd9324f29b8664093cc14e9c983b2" target="_top" xlink:title="View.SetPalette.doAction">
<polygon fill="white" stroke="black" points="400.5,-0.5 400.5,-19.5 535.5,-19.5 535.5,-0.5 400.5,-0.5"/>
<text text-anchor="middle" x="468" y="-7.5" font-family="Helvetica,sans-Serif" font-size="10.00">View.SetPalette.doAction</text>
</a>
</g>
</g>
<!-- Node3&#45;&gt;Node4 -->
<g id="edge3" class="edge"><title>Node3&#45;&gt;Node4</title>
<path fill="none" stroke="midnightblue" d="M374.378,-10C383.058,-10 391.783,-10 400.224,-10"/>
<polygon fill="midnightblue" stroke="midnightblue" points="374.23,-6.5001 364.23,-10 374.23,-13.5001 374.23,-6.5001"/>
</g>
</g>
</svg>
