<?xml version="1.0" encoding="UTF-8" standalone="no"?>
<!DOCTYPE svg PUBLIC "-//W3C//DTD SVG 1.1//EN"
 "http://www.w3.org/Graphics/SVG/1.1/DTD/svg11.dtd">
<!-- Generated by graphviz version 2.36.0 (20140111.2315)
 -->
<!-- Title: commands.MultiTurtleCommand.MultiTurtleCommand Pages: 1 -->
<svg width="278pt" height="156pt"
 viewBox="0.00 0.00 278.00 156.00" xmlns="http://www.w3.org/2000/svg" xmlns:xlink="http://www.w3.org/1999/xlink">
<g id="graph0" class="graph" transform="scale(1 1) rotate(0) translate(4 152)">
<title>commands.MultiTurtleCommand.MultiTurtleCommand</title>
<polygon fill="white" stroke="none" points="-4,4 -4,-152 274,-152 274,4 -4,4"/>
<!-- Node1 -->
<g id="node1" class="node"><title>Node1</title>
<polygon fill="#bfbfbf" stroke="black" points="-0.5,-1 -0.5,-31 174.5,-31 174.5,-1 -0.5,-1"/>
<text text-anchor="start" x="7.5" y="-19" font-family="Helvetica,sans-Serif" font-size="10.00">commands.MultiTurtleCommand.</text>
<text text-anchor="middle" x="87" y="-8" font-family="Helvetica,sans-Serif" font-size="10.00">MultiTurtleCommand</text>
</g>
<!-- Node2 -->
<g id="node2" class="node"><title>Node2</title>
<g id="a_node2"><a xlink:href="../../da/d90/classcommands_1_1_base_command.html" target="_top" xlink:title="commands.BaseCommand">
<polygon fill="white" stroke="black" points="13,-70.5 13,-89.5 161,-89.5 161,-70.5 13,-70.5"/>
<text text-anchor="middle" x="87" y="-77.5" font-family="Helvetica,sans-Serif" font-size="10.00">commands.BaseCommand</text>
</a>
</g>
</g>
<!-- Node2&#45;&gt;Node1 -->
<g id="edge1" class="edge"><title>Node2&#45;&gt;Node1</title>
<path fill="none" stroke="midnightblue" d="M87,-60.1826C87,-50.8859 87,-39.8507 87,-31.263"/>
<polygon fill="midnightblue" stroke="midnightblue" points="83.5001,-60.3791 87,-70.3792 90.5001,-60.3792 83.5001,-60.3791"/>
</g>
<!-- Node2&#45;&gt;Node2 -->
<g id="edge3" class="edge"><title>Node2&#45;&gt;Node2</title>
<path fill="none" stroke="#9a32cd" stroke-dasharray="5,2" d="M171.58,-83.513C176.233,-82.6578 179,-81.4868 179,-80 179,-77.6211 171.916,-76.0506 161.36,-75.2887"/>
<polygon fill="#9a32cd" stroke="#9a32cd" points="170.884,-80.0706 161.36,-84.7113 171.7,-87.023 170.884,-80.0706"/>
<text text-anchor="middle" x="224.5" y="-77.5" font-family="Helvetica,sans-Serif" font-size="10.00"> myNextCommand</text>
</g>
<!-- Node3 -->
<g id="node3" class="node"><title>Node3</title>
<polygon fill="white" stroke="#bfbfbf" points="51.5,-128.5 51.5,-147.5 122.5,-147.5 122.5,-128.5 51.5,-128.5"/>
<text text-anchor="middle" x="87" y="-135.5" font-family="Helvetica,sans-Serif" font-size="10.00">Serializable</text>
</g>
<!-- Node3&#45;&gt;Node2 -->
<g id="edge2" class="edge"><title>Node3&#45;&gt;Node2</title>
<path fill="none" stroke="midnightblue" d="M87,-117.953C87,-108.287 87,-97.0312 87,-89.5052"/>
<polygon fill="midnightblue" stroke="midnightblue" points="83.5001,-118.25 87,-128.25 90.5001,-118.25 83.5001,-118.25"/>
</g>
</g>
</svg>
