<?xml version="1.0" encoding="UTF-8" standalone="no"?>
<!DOCTYPE svg PUBLIC "-//W3C//DTD SVG 1.1//EN"
 "http://www.w3.org/Graphics/SVG/1.1/DTD/svg11.dtd">
<!-- Generated by graphviz version 2.36.0 (20140111.2315)
 -->
<!-- Title: View.ScrollingBar.ScrollingBar Pages: 1 -->
<svg width="386pt" height="66pt"
 viewBox="0.00 0.00 386.00 66.00" xmlns="http://www.w3.org/2000/svg" xmlns:xlink="http://www.w3.org/1999/xlink">
<g id="graph0" class="graph" transform="scale(1 1) rotate(0) translate(4 62)">
<title>View.ScrollingBar.ScrollingBar</title>
<polygon fill="white" stroke="none" points="-4,4 -4,-62 382,-62 382,4 -4,4"/>
<!-- Node1 -->
<g id="node1" class="node"><title>Node1</title>
<polygon fill="#bfbfbf" stroke="black" points="0.5,-19.5 0.5,-38.5 157.5,-38.5 157.5,-19.5 0.5,-19.5"/>
<text text-anchor="middle" x="79" y="-26.5" font-family="Helvetica,sans-Serif" font-size="10.00">View.ScrollingBar.ScrollingBar</text>
</g>
<!-- Node2 -->
<g id="node2" class="node"><title>Node2</title>
<g id="a_node2"><a xlink:href="../../db/dce/class_view_1_1_scrolling_bar.html#ac7238fc235595c4c16b84527ed2d3c81" target="_top" xlink:title="View.ScrollingBar.makeLabel">
<polygon fill="white" stroke="black" points="210,-38.5 210,-57.5 362,-57.5 362,-38.5 210,-38.5"/>
<text text-anchor="middle" x="286" y="-45.5" font-family="Helvetica,sans-Serif" font-size="10.00">View.ScrollingBar.makeLabel</text>
</a>
</g>
</g>
<!-- Node1&#45;&gt;Node2 -->
<g id="edge1" class="edge"><title>Node1&#45;&gt;Node2</title>
<path fill="none" stroke="midnightblue" d="M157.502,-36.1831C171.279,-37.46 185.697,-38.7963 199.677,-40.092"/>
<polygon fill="midnightblue" stroke="midnightblue" points="199.483,-43.589 209.764,-41.0269 200.129,-36.6189 199.483,-43.589"/>
</g>
<!-- Node3 -->
<g id="node3" class="node"><title>Node3</title>
<g id="a_node3"><a xlink:href="../../db/dce/class_view_1_1_scrolling_bar.html#a374a507485491007a822c2d5c75b4ad8" target="_top" xlink:title="View.ScrollingBar.makeScrollingBar">
<polygon fill="white" stroke="black" points="194,-0.5 194,-19.5 378,-19.5 378,-0.5 194,-0.5"/>
<text text-anchor="middle" x="286" y="-7.5" font-family="Helvetica,sans-Serif" font-size="10.00">View.ScrollingBar.makeScrollingBar</text>
</a>
</g>
</g>
<!-- Node1&#45;&gt;Node3 -->
<g id="edge2" class="edge"><title>Node1&#45;&gt;Node3</title>
<path fill="none" stroke="midnightblue" d="M157.502,-21.8169C166.152,-21.0152 175.055,-20.1901 183.943,-19.3663"/>
<polygon fill="midnightblue" stroke="midnightblue" points="184.324,-22.8461 193.958,-18.4381 183.677,-15.876 184.324,-22.8461"/>
</g>
</g>
</svg>
