<?xml version="1.0" encoding="UTF-8" standalone="no"?>
<!DOCTYPE svg PUBLIC "-//W3C//DTD SVG 1.1//EN"
 "http://www.w3.org/Graphics/SVG/1.1/DTD/svg11.dtd">
<!-- Generated by graphviz version 2.36.0 (20140111.2315)
 -->
<!-- Title: View.ScrollingBar.ScrollingBar Pages: 1 -->
<svg width="386pt" height="104pt"
 viewBox="0.00 0.00 386.00 104.00" xmlns="http://www.w3.org/2000/svg" xmlns:xlink="http://www.w3.org/1999/xlink">
<g id="graph0" class="graph" transform="scale(1 1) rotate(0) translate(4 100)">
<title>View.ScrollingBar.ScrollingBar</title>
<polygon fill="white" stroke="none" points="-4,4 -4,-100 382,-100 382,4 -4,4"/>
<!-- Node1 -->
<g id="node1" class="node"><title>Node1</title>
<polygon fill="#bfbfbf" stroke="black" points="0.5,-38.5 0.5,-57.5 157.5,-57.5 157.5,-38.5 0.5,-38.5"/>
<text text-anchor="middle" x="79" y="-45.5" font-family="Helvetica,sans-Serif" font-size="10.00">View.ScrollingBar.ScrollingBar</text>
</g>
<!-- Node2 -->
<g id="node2" class="node"><title>Node2</title>
<g id="a_node2"><a xlink:href="../../db/dce/class_view_1_1_scrolling_bar.html#ac7238fc235595c4c16b84527ed2d3c81" target="_top" xlink:title="View.ScrollingBar.makeLabel">
<polygon fill="white" stroke="black" points="210,-76.5 210,-95.5 362,-95.5 362,-76.5 210,-76.5"/>
<text text-anchor="middle" x="286" y="-83.5" font-family="Helvetica,sans-Serif" font-size="10.00">View.ScrollingBar.makeLabel</text>
</a>
</g>
</g>
<!-- Node1&#45;&gt;Node2 -->
<g id="edge1" class="edge"><title>Node1&#45;&gt;Node2</title>
<path fill="none" stroke="midnightblue" d="M131.466,-57.54C159.368,-62.7122 194.045,-69.1401 223.38,-74.5778"/>
<polygon fill="midnightblue" stroke="midnightblue" points="223.043,-78.0748 233.513,-76.4561 224.319,-71.1921 223.043,-78.0748"/>
</g>
<!-- Node3 -->
<g id="node3" class="node"><title>Node3</title>
<g id="a_node3"><a xlink:href="../../db/dce/class_view_1_1_scrolling_bar.html#a374a507485491007a822c2d5c75b4ad8" target="_top" xlink:title="View.ScrollingBar.makeScrollingBar">
<polygon fill="white" stroke="black" points="194,-38.5 194,-57.5 378,-57.5 378,-38.5 194,-38.5"/>
<text text-anchor="middle" x="286" y="-45.5" font-family="Helvetica,sans-Serif" font-size="10.00">View.ScrollingBar.makeScrollingBar</text>
</a>
</g>
</g>
<!-- Node1&#45;&gt;Node3 -->
<g id="edge2" class="edge"><title>Node1&#45;&gt;Node3</title>
<path fill="none" stroke="midnightblue" d="M157.502,-48C166.152,-48 175.055,-48 183.943,-48"/>
<polygon fill="midnightblue" stroke="midnightblue" points="183.958,-51.5001 193.958,-48 183.958,-44.5001 183.958,-51.5001"/>
</g>
<!-- Node4 -->
<g id="node4" class="node"><title>Node4</title>
<g id="a_node4"><a xlink:href="../../d5/de7/jquery_8js.html#a4c3eadaa5164016d2c340d495fc6e55e" target="_top" xlink:title="x">
<polygon fill="white" stroke="black" points="271.5,-0.5 271.5,-19.5 300.5,-19.5 300.5,-0.5 271.5,-0.5"/>
<text text-anchor="middle" x="286" y="-7.5" font-family="Helvetica,sans-Serif" font-size="10.00">x</text>
</a>
</g>
</g>
<!-- Node1&#45;&gt;Node4 -->
<g id="edge3" class="edge"><title>Node1&#45;&gt;Node4</title>
<path fill="none" stroke="midnightblue" d="M131.466,-38.46C173.055,-30.7509 229.693,-20.252 261.259,-14.4007"/>
<polygon fill="midnightblue" stroke="midnightblue" points="262.119,-17.8011 271.313,-12.537 260.843,-10.9183 262.119,-17.8011"/>
</g>
</g>
</svg>
