<?xml version="1.0" encoding="UTF-8" standalone="no"?>
<!DOCTYPE svg PUBLIC "-//W3C//DTD SVG 1.1//EN"
 "http://www.w3.org/Graphics/SVG/1.1/DTD/svg11.dtd">
<!-- Generated by graphviz version 2.36.0 (20140111.2315)
 -->
<!-- Title: turtle.Position.moveHorizontal Pages: 1 -->
<svg width="956pt" height="200pt"
 viewBox="0.00 0.00 956.00 200.00" xmlns="http://www.w3.org/2000/svg" xmlns:xlink="http://www.w3.org/1999/xlink">
<g id="graph0" class="graph" transform="scale(1 1) rotate(0) translate(4 196)">
<title>turtle.Position.moveHorizontal</title>
<polygon fill="white" stroke="none" points="-4,4 -4,-196 952,-196 952,4 -4,4"/>
<!-- Node1 -->
<g id="node1" class="node"><title>Node1</title>
<polygon fill="#bfbfbf" stroke="black" points="0.5,-98.5 0.5,-117.5 161.5,-117.5 161.5,-98.5 0.5,-98.5"/>
<text text-anchor="middle" x="81" y="-105.5" font-family="Helvetica,sans-Serif" font-size="10.00">turtle.Position.moveHorizontal</text>
</g>
<!-- Node2 -->
<g id="node2" class="node"><title>Node2</title>
<g id="a_node2"><a xlink:href="../../d1/dbe/classturtle_1_1_position.html#ad1cf245ca8d3e765bac5cc391bf621e1" target="_top" xlink:title="turtle.Position.move">
<polygon fill="white" stroke="black" points="216.5,-121.5 216.5,-140.5 329.5,-140.5 329.5,-121.5 216.5,-121.5"/>
<text text-anchor="middle" x="273" y="-128.5" font-family="Helvetica,sans-Serif" font-size="10.00">turtle.Position.move</text>
</a>
</g>
</g>
<!-- Node1&#45;&gt;Node2 -->
<g id="edge1" class="edge"><title>Node1&#45;&gt;Node2</title>
<path fill="none" stroke="midnightblue" d="M170.79,-118.748C186.292,-120.625 202.016,-122.528 216.3,-124.257"/>
<polygon fill="midnightblue" stroke="midnightblue" points="171,-115.248 160.652,-117.521 170.159,-122.197 171,-115.248"/>
</g>
<!-- Node7 -->
<g id="node7" class="node"><title>Node7</title>
<g id="a_node7"><a xlink:href="../../df/dcb/classturtle_1_1_turtle.html#afb475cca08cde52e64bc6f9771c5b38b" target="_top" xlink:title="turtle.Turtle.moveHorizontal">
<polygon fill="white" stroke="black" points="198.5,-76.5 198.5,-95.5 347.5,-95.5 347.5,-76.5 198.5,-76.5"/>
<text text-anchor="middle" x="273" y="-83.5" font-family="Helvetica,sans-Serif" font-size="10.00">turtle.Turtle.moveHorizontal</text>
</a>
</g>
</g>
<!-- Node1&#45;&gt;Node7 -->
<g id="edge6" class="edge"><title>Node1&#45;&gt;Node7</title>
<path fill="none" stroke="midnightblue" d="M171.724,-97.6109C180.595,-96.5838 189.527,-95.5495 198.21,-94.5441"/>
<polygon fill="midnightblue" stroke="midnightblue" points="171.282,-94.1386 161.751,-98.7656 172.087,-101.092 171.282,-94.1386"/>
</g>
<!-- Node3 -->
<g id="node3" class="node"><title>Node3</title>
<g id="a_node3"><a xlink:href="../../df/dcb/classturtle_1_1_turtle.html#aa1a46a871ec163cdff79e9055f8b0519" target="_top" xlink:title="turtle.Turtle.moveTowards\lHeading">
<polygon fill="white" stroke="black" points="384,-124 384,-154 522,-154 522,-124 384,-124"/>
<text text-anchor="start" x="392" y="-142" font-family="Helvetica,sans-Serif" font-size="10.00">turtle.Turtle.moveTowards</text>
<text text-anchor="middle" x="453" y="-131" font-family="Helvetica,sans-Serif" font-size="10.00">Heading</text>
</a>
</g>
</g>
<!-- Node2&#45;&gt;Node3 -->
<g id="edge2" class="edge"><title>Node2&#45;&gt;Node3</title>
<path fill="none" stroke="midnightblue" d="M340.064,-133.969C354.353,-134.611 369.489,-135.292 383.857,-135.937"/>
<polygon fill="midnightblue" stroke="midnightblue" points="339.979,-130.462 329.832,-133.509 339.665,-137.455 339.979,-130.462"/>
</g>
<!-- Node4 -->
<g id="node4" class="node"><title>Node4</title>
<g id="a_node4"><a xlink:href="../../d7/d28/classcommands_1_1information_1_1_base_turtle_container.html#afe6445eeeaaa24a41e6579a12baffa74" target="_top" xlink:title="commands.information.Base\lTurtleContainer.moveTowardsHeading">
<polygon fill="white" stroke="black" points="558.5,-137 558.5,-167 753.5,-167 753.5,-137 558.5,-137"/>
<text text-anchor="start" x="566.5" y="-155" font-family="Helvetica,sans-Serif" font-size="10.00">commands.information.Base</text>
<text text-anchor="middle" x="656" y="-144" font-family="Helvetica,sans-Serif" font-size="10.00">TurtleContainer.moveTowardsHeading</text>
</a>
</g>
</g>
<!-- Node3&#45;&gt;Node4 -->
<g id="edge3" class="edge"><title>Node3&#45;&gt;Node4</title>
<path fill="none" stroke="midnightblue" d="M532.088,-144.05C540.744,-144.61 549.634,-145.185 558.483,-145.758"/>
<polygon fill="midnightblue" stroke="midnightblue" points="532.255,-140.554 522.049,-143.401 531.803,-147.539 532.255,-140.554"/>
</g>
<!-- Node5 -->
<g id="node5" class="node"><title>Node5</title>
<g id="a_node5"><a xlink:href="../../df/d1b/classcommands_1_1turtle_commands_1_1_back_command.html#a2f60b951011f138ae8916447519fe166" target="_top" xlink:title="commands.turtleCommands.\lBackCommand.onExecute">
<polygon fill="white" stroke="black" points="790,-162 790,-192 948,-192 948,-162 790,-162"/>
<text text-anchor="start" x="798" y="-180" font-family="Helvetica,sans-Serif" font-size="10.00">commands.turtleCommands.</text>
<text text-anchor="middle" x="869" y="-169" font-family="Helvetica,sans-Serif" font-size="10.00">BackCommand.onExecute</text>
</a>
</g>
</g>
<!-- Node4&#45;&gt;Node5 -->
<g id="edge4" class="edge"><title>Node4&#45;&gt;Node5</title>
<path fill="none" stroke="midnightblue" d="M763.538,-164.623C772.397,-165.673 781.245,-166.721 789.834,-167.739"/>
<polygon fill="midnightblue" stroke="midnightblue" points="763.889,-161.14 753.546,-163.439 763.065,-168.092 763.889,-161.14"/>
</g>
<!-- Node6 -->
<g id="node6" class="node"><title>Node6</title>
<g id="a_node6"><a xlink:href="../../da/db6/classcommands_1_1turtle_commands_1_1_forward_command.html#a804cd1b0300e3c10498b66ea5edeb18c" target="_top" xlink:title="commands.turtleCommands.\lForwardCommand.onExecute">
<polygon fill="white" stroke="black" points="790,-113 790,-143 948,-143 948,-113 790,-113"/>
<text text-anchor="start" x="798" y="-131" font-family="Helvetica,sans-Serif" font-size="10.00">commands.turtleCommands.</text>
<text text-anchor="middle" x="869" y="-120" font-family="Helvetica,sans-Serif" font-size="10.00">ForwardCommand.onExecute</text>
</a>
</g>
</g>
<!-- Node4&#45;&gt;Node6 -->
<g id="edge5" class="edge"><title>Node4&#45;&gt;Node6</title>
<path fill="none" stroke="midnightblue" d="M763.538,-139.882C772.397,-138.874 781.245,-137.868 789.834,-136.891"/>
<polygon fill="midnightblue" stroke="midnightblue" points="763.087,-136.411 753.546,-141.018 763.878,-143.366 763.087,-136.411"/>
</g>
<!-- Node8 -->
<g id="node8" class="node"><title>Node8</title>
<g id="a_node8"><a xlink:href="../../df/dcb/classturtle_1_1_turtle.html#a81e35bc42c3ccb26e25ded71026cb173" target="_top" xlink:title="turtle.Turtle.move">
<polygon fill="white" stroke="black" points="402.5,-61.5 402.5,-80.5 503.5,-80.5 503.5,-61.5 402.5,-61.5"/>
<text text-anchor="middle" x="453" y="-68.5" font-family="Helvetica,sans-Serif" font-size="10.00">turtle.Turtle.move</text>
</a>
</g>
</g>
<!-- Node7&#45;&gt;Node8 -->
<g id="edge7" class="edge"><title>Node7&#45;&gt;Node8</title>
<path fill="none" stroke="midnightblue" d="M357.703,-78.9463C373.025,-77.6552 388.557,-76.3463 402.474,-75.1735"/>
<polygon fill="midnightblue" stroke="midnightblue" points="357.355,-75.4632 347.684,-79.7906 357.943,-82.4385 357.355,-75.4632"/>
</g>
<!-- Node9 -->
<g id="node9" class="node"><title>Node9</title>
<g id="a_node9"><a xlink:href="../../d7/d28/classcommands_1_1information_1_1_base_turtle_container.html#aa12129a5802271b2ac4dd6142d77f917" target="_top" xlink:title="commands.information.Base\lTurtleContainer.move">
<polygon fill="white" stroke="black" points="578.5,-88 578.5,-118 733.5,-118 733.5,-88 578.5,-88"/>
<text text-anchor="start" x="586.5" y="-106" font-family="Helvetica,sans-Serif" font-size="10.00">commands.information.Base</text>
<text text-anchor="middle" x="656" y="-95" font-family="Helvetica,sans-Serif" font-size="10.00">TurtleContainer.move</text>
</a>
</g>
</g>
<!-- Node8&#45;&gt;Node9 -->
<g id="edge8" class="edge"><title>Node8&#45;&gt;Node9</title>
<path fill="none" stroke="midnightblue" d="M513.734,-80.5099C534.053,-83.7447 557.048,-87.4057 578.495,-90.8202"/>
<polygon fill="midnightblue" stroke="midnightblue" points="514.111,-77.026 503.685,-78.9101 513.011,-83.9389 514.111,-77.026"/>
</g>
<!-- Node10 -->
<g id="node10" class="node"><title>Node10</title>
<g id="a_node10"><a xlink:href="../../d9/db1/class_view_1_1_single_grid.html#ace412ccdbcf0cdf6a20ac1e4102a15b5" target="_top" xlink:title="View.SingleGrid.addTurtle">
<polygon fill="white" stroke="black" points="588,-49.5 588,-68.5 724,-68.5 724,-49.5 588,-49.5"/>
<text text-anchor="middle" x="656" y="-56.5" font-family="Helvetica,sans-Serif" font-size="10.00">View.SingleGrid.addTurtle</text>
</a>
</g>
</g>
<!-- Node8&#45;&gt;Node10 -->
<g id="edge9" class="edge"><title>Node8&#45;&gt;Node10</title>
<path fill="none" stroke="midnightblue" d="M513.757,-67.4324C537.009,-66.0442 563.763,-64.447 587.69,-63.0185"/>
<polygon fill="midnightblue" stroke="midnightblue" points="513.459,-63.9439 503.685,-68.0337 513.876,-70.9314 513.459,-63.9439"/>
</g>
<!-- Node11 -->
<g id="node11" class="node"><title>Node11</title>
<g id="a_node11"><a xlink:href="../../d0/d4f/class_view_1_1_turtle_movement.html#ad6ff133518a15c28187a623f058bc6bf" target="_top" xlink:title="View.TurtleMovement.Turtle\lMovement">
<polygon fill="white" stroke="black" points="583,-0 583,-30 729,-30 729,-0 583,-0"/>
<text text-anchor="start" x="591" y="-18" font-family="Helvetica,sans-Serif" font-size="10.00">View.TurtleMovement.Turtle</text>
<text text-anchor="middle" x="656" y="-7" font-family="Helvetica,sans-Serif" font-size="10.00">Movement</text>
</a>
</g>
</g>
<!-- Node8&#45;&gt;Node11 -->
<g id="edge10" class="edge"><title>Node8&#45;&gt;Node11</title>
<path fill="none" stroke="midnightblue" d="M494.491,-58.5471C513.69,-52.7409 536.976,-45.8404 558,-40 569.981,-36.6718 582.836,-33.2525 595.142,-30.0527"/>
<polygon fill="midnightblue" stroke="midnightblue" points="493.409,-55.2177 484.857,-61.4721 495.443,-61.9158 493.409,-55.2177"/>
</g>
</g>
</svg>
