<?xml version="1.0" encoding="UTF-8" standalone="no"?>
<!DOCTYPE svg PUBLIC "-//W3C//DTD SVG 1.1//EN"
 "http://www.w3.org/Graphics/SVG/1.1/DTD/svg11.dtd">
<!-- Generated by graphviz version 2.36.0 (20140111.2315)
 -->
<!-- Title: turtle.Position.setYPos Pages: 1 -->
<!--zoomable 318 -->
<svg id="main" version="1.1" xmlns="http://www.w3.org/2000/svg" xmlns:xlink="http://www.w3.org/1999/xlink" xml:space="preserve" onload="init(evt)">
<style type="text/css"><![CDATA[
.edge:hover path { stroke: red; }
.edge:hover polygon { stroke: red; fill: red; }
]]></style>
<script type="text/javascript"><![CDATA[
var edges = document.getElementsByTagName('g');
if (edges && edges.length) {
  for (var i=0;i<edges.length;i++) {
    if (edges[i].id.substr(0,4)=='edge') {
      edges[i].setAttribute('class','edge');
    }
  }
}
]]></script>
        <defs>
                <circle id="rim" cx="0" cy="0" r="7"/>
                <circle id="rim2" cx="0" cy="0" r="3.5"/>
                <g id="zoomPlus">
                        <use xlink:href="#rim" fill="#404040">
                                <set attributeName="fill" to="#808080" begin="zoomplus.mouseover" end="zoomplus.mouseout"/>
                        </use>
                        <path d="M-4,0h8M0,-4v8" fill="none" stroke="white" stroke-width="1.5" pointer-events="none"/>
                </g>
                <g id="zoomMin">
                        <use xlink:href="#rim" fill="#404040">
                                <set attributeName="fill" to="#808080" begin="zoomminus.mouseover" end="zoomminus.mouseout"/>
                        </use>
                        <path d="M-4,0h8" fill="none" stroke="white" stroke-width="1.5" pointer-events="none"/>
                </g>
                <g id="dirArrow">
                        <path fill="none" stroke="white" stroke-width="1.5" d="M0,-3.0v7 M-2.5,-0.5L0,-3.0L2.5,-0.5"/>
                </g>
               <g id="resetDef">
                       <use xlink:href="#rim2" fill="#404040">
                               <set attributeName="fill" to="#808080" begin="reset.mouseover" end="reset.mouseout"/>
                       </use>
               </g>
        </defs>

<script type="text/javascript">
var viewWidth = 1586;
var viewHeight = 318;
var sectionId = 'dynsection-10';
</script>
<script xlink:href="../../svgpan.js"/>
<svg id="graph" class="graph">
<g id="viewport">
<title>turtle.Position.setYPos</title>
<polygon fill="white" stroke="none" points="-4,4 -4,-314 1582,-314 1582,4 -4,4"/>
<!-- Node1 -->
<g id="node1" class="node"><title>Node1</title>
<polygon fill="#bfbfbf" stroke="black" points="0.5,-225.5 0.5,-244.5 123.5,-244.5 123.5,-225.5 0.5,-225.5"/>
<text text-anchor="middle" x="62" y="-232.5" font-family="Helvetica,sans-Serif" font-size="10.00">turtle.Position.setYPos</text>
</g>
<!-- Node2 -->
<g id="node2" class="node"><title>Node2</title>
<g id="a_node2"><a xlink:href="../../d4/db5/classturtle_1_1_down.html#a13de87a6a6ac547adb82232c64968916" target="_top" xlink:title="turtle.Down.move">
<polygon fill="white" stroke="black" points="165.5,-263.5 165.5,-282.5 266.5,-282.5 266.5,-263.5 165.5,-263.5"/>
<text text-anchor="middle" x="216" y="-270.5" font-family="Helvetica,sans-Serif" font-size="10.00">turtle.Down.move</text>
</a>
</g>
</g>
<!-- Node1&#45;&gt;Node2 -->
<g id="edge1" class="edge"><title>Node1&#45;&gt;Node2</title>
<path fill="none" stroke="midnightblue" d="M111.16,-247.04C132.395,-252.349 156.995,-258.499 176.92,-263.48"/>
<polygon fill="midnightblue" stroke="midnightblue" points="111.906,-243.619 101.356,-244.589 110.209,-250.41 111.906,-243.619"/>
</g>
<!-- Node3 -->
<g id="node3" class="node"><title>Node3</title>
<g id="a_node3"><a xlink:href="../../df/d4e/classturtle_1_1_up.html#a2a4bb4d5da9f09e70c1ef4baa33e6c02" target="_top" xlink:title="turtle.Up.move">
<polygon fill="white" stroke="black" points="171.5,-225.5 171.5,-244.5 260.5,-244.5 260.5,-225.5 171.5,-225.5"/>
<text text-anchor="middle" x="216" y="-232.5" font-family="Helvetica,sans-Serif" font-size="10.00">turtle.Up.move</text>
</a>
</g>
</g>
<!-- Node1&#45;&gt;Node3 -->
<g id="edge2" class="edge"><title>Node1&#45;&gt;Node3</title>
<path fill="none" stroke="midnightblue" d="M133.668,-235C146.422,-235 159.376,-235 171.086,-235"/>
<polygon fill="midnightblue" stroke="midnightblue" points="133.511,-231.5 123.511,-235 133.511,-238.5 133.511,-231.5"/>
</g>
<!-- Node4 -->
<g id="node4" class="node"><title>Node4</title>
<g id="a_node4"><a xlink:href="../../df/dcb/classturtle_1_1_turtle.html#a1107426e66ec049d5e3d1c1783a463db" target="_top" xlink:title="turtle.Turtle.setYPos">
<polygon fill="white" stroke="black" points="160.5,-187.5 160.5,-206.5 271.5,-206.5 271.5,-187.5 160.5,-187.5"/>
<text text-anchor="middle" x="216" y="-194.5" font-family="Helvetica,sans-Serif" font-size="10.00">turtle.Turtle.setYPos</text>
</a>
</g>
</g>
<!-- Node1&#45;&gt;Node4 -->
<g id="edge3" class="edge"><title>Node1&#45;&gt;Node4</title>
<path fill="none" stroke="midnightblue" d="M111.16,-222.96C132.395,-217.651 156.995,-211.501 176.92,-206.52"/>
<polygon fill="midnightblue" stroke="midnightblue" points="110.209,-219.59 101.356,-225.411 111.906,-226.381 110.209,-219.59"/>
</g>
<!-- Node5 -->
<g id="node5" class="node"><title>Node5</title>
<g id="a_node5"><a xlink:href="../../d7/d28/classcommands_1_1information_1_1_base_turtle_container.html#aa7a1e6cc65c6f4ddb2ab0b0632e00e8c" target="_top" xlink:title="commands.information.Base\lTurtleContainer.setYPos">
<polygon fill="white" stroke="black" points="308.5,-280 308.5,-310 463.5,-310 463.5,-280 308.5,-280"/>
<text text-anchor="start" x="316.5" y="-298" font-family="Helvetica,sans-Serif" font-size="10.00">commands.information.Base</text>
<text text-anchor="middle" x="386" y="-287" font-family="Helvetica,sans-Serif" font-size="10.00">TurtleContainer.setYPos</text>
</a>
</g>
</g>
<!-- Node4&#45;&gt;Node5 -->
<g id="edge4" class="edge"><title>Node4&#45;&gt;Node5</title>
<path fill="none" stroke="midnightblue" d="M264.557,-211.09C267.172,-212.573 269.676,-214.205 272,-216 294.827,-233.633 285.009,-252.581 308,-270 313.041,-273.819 318.689,-277.069 324.575,-279.83"/>
<polygon fill="midnightblue" stroke="midnightblue" points="265.867,-207.835 255.345,-206.6 262.8,-214.127 265.867,-207.835"/>
</g>
<!-- Node6 -->
<g id="node6" class="node"><title>Node6</title>
<g id="a_node6"><a xlink:href="../../d3/d88/classmodel_1_1_slogo_model.html#a0ecb7b4d14308a155afdbe1313ec555f" target="_top" xlink:title="model.SlogoModel.hardSet\lTurtle">
<polygon fill="white" stroke="black" points="313,-231 313,-261 459,-261 459,-231 313,-231"/>
<text text-anchor="start" x="321" y="-249" font-family="Helvetica,sans-Serif" font-size="10.00">model.SlogoModel.hardSet</text>
<text text-anchor="middle" x="386" y="-238" font-family="Helvetica,sans-Serif" font-size="10.00">Turtle</text>
</a>
</g>
</g>
<!-- Node4&#45;&gt;Node6 -->
<g id="edge5" class="edge"><title>Node4&#45;&gt;Node6</title>
<path fill="none" stroke="midnightblue" d="M259.397,-209.366C281.891,-215.926 309.71,-224.04 333.445,-230.963"/>
<polygon fill="midnightblue" stroke="midnightblue" points="260.371,-206.004 249.791,-206.564 258.411,-212.724 260.371,-206.004"/>
</g>
<!-- Node7 -->
<g id="node7" class="node"><title>Node7</title>
<g id="a_node7"><a xlink:href="../../d9/d9e/class_table_information_1_1_y_column.html#a9930f44781f56557fb34fab33d9ae626" target="_top" xlink:title="TableInformation.YColumn.do\lEditingFunction">
<polygon fill="white" stroke="black" points="308.5,-182 308.5,-212 463.5,-212 463.5,-182 308.5,-182"/>
<text text-anchor="start" x="316.5" y="-200" font-family="Helvetica,sans-Serif" font-size="10.00">TableInformation.YColumn.do</text>
<text text-anchor="middle" x="386" y="-189" font-family="Helvetica,sans-Serif" font-size="10.00">EditingFunction</text>
</a>
</g>
</g>
<!-- Node4&#45;&gt;Node7 -->
<g id="edge6" class="edge"><title>Node4&#45;&gt;Node7</title>
<path fill="none" stroke="midnightblue" d="M281.674,-197C290.439,-197 299.501,-197 308.45,-197"/>
<polygon fill="midnightblue" stroke="midnightblue" points="281.545,-193.5 271.545,-197 281.545,-200.5 281.545,-193.5"/>
</g>
<!-- Node8 -->
<g id="node8" class="node"><title>Node8</title>
<g id="a_node8"><a xlink:href="../../df/dcb/classturtle_1_1_turtle.html#ab4ccc5acaf4924205497db6d8a8125b9" target="_top" xlink:title="turtle.Turtle.setPosition">
<polygon fill="white" stroke="black" points="323,-143.5 323,-162.5 449,-162.5 449,-143.5 323,-143.5"/>
<text text-anchor="middle" x="386" y="-150.5" font-family="Helvetica,sans-Serif" font-size="10.00">turtle.Turtle.setPosition</text>
</a>
</g>
</g>
<!-- Node4&#45;&gt;Node8 -->
<g id="edge7" class="edge"><title>Node4&#45;&gt;Node8</title>
<path fill="none" stroke="midnightblue" d="M262.993,-184.834C277.4,-181.033 293.359,-176.832 308,-173 321.094,-169.573 335.447,-165.839 348.176,-162.535"/>
<polygon fill="midnightblue" stroke="midnightblue" points="262.078,-181.456 253.303,-187.392 263.865,-188.224 262.078,-181.456"/>
</g>
<!-- Node13 -->
<g id="node13" class="node"><title>Node13</title>
<g id="a_node13"><a xlink:href="../../d9/db1/class_view_1_1_single_grid.html#a9093eac50d88370f86cb4757b996210e" target="_top" xlink:title="View.SingleGrid.keepTurtle\lInBounds">
<polygon fill="white" stroke="black" points="315.5,-71 315.5,-101 456.5,-101 456.5,-71 315.5,-71"/>
<text text-anchor="start" x="323.5" y="-89" font-family="Helvetica,sans-Serif" font-size="10.00">View.SingleGrid.keepTurtle</text>
<text text-anchor="middle" x="386" y="-78" font-family="Helvetica,sans-Serif" font-size="10.00">InBounds</text>
</a>
</g>
</g>
<!-- Node4&#45;&gt;Node13 -->
<g id="edge12" class="edge"><title>Node4&#45;&gt;Node13</title>
<path fill="none" stroke="midnightblue" d="M238.669,-181.562C256.981,-168.622 283.99,-149.782 308,-134 325.244,-122.665 345.003,-110.362 360.187,-101.049"/>
<polygon fill="midnightblue" stroke="midnightblue" points="236.564,-178.764 230.429,-187.402 240.611,-184.475 236.564,-178.764"/>
</g>
<!-- Node9 -->
<g id="node9" class="node"><title>Node9</title>
<g id="a_node9"><a xlink:href="../../d7/d28/classcommands_1_1information_1_1_base_turtle_container.html#a5d86cfae201525f3446fc58eb5c7df7c" target="_top" xlink:title="commands.information.Base\lTurtleContainer.setPosition">
<polygon fill="white" stroke="black" points="500.5,-161 500.5,-191 655.5,-191 655.5,-161 500.5,-161"/>
<text text-anchor="start" x="508.5" y="-179" font-family="Helvetica,sans-Serif" font-size="10.00">commands.information.Base</text>
<text text-anchor="middle" x="578" y="-168" font-family="Helvetica,sans-Serif" font-size="10.00">TurtleContainer.setPosition</text>
</a>
</g>
</g>
<!-- Node8&#45;&gt;Node9 -->
<g id="edge8" class="edge"><title>Node8&#45;&gt;Node9</title>
<path fill="none" stroke="midnightblue" d="M459.335,-161.756C472.76,-163.381 486.826,-165.084 500.374,-166.724"/>
<polygon fill="midnightblue" stroke="midnightblue" points="459.561,-158.258 449.213,-160.531 458.72,-165.208 459.561,-158.258"/>
</g>
<!-- Node10 -->
<g id="node10" class="node"><title>Node10</title>
<g id="a_node10"><a xlink:href="../../df/d55/classcommands_1_1view_commands_1_1_clear_screen_command.html#ae22b9c821c2d07903bdcea4eaad1f959" target="_top" xlink:title="commands.viewCommands.Clear\lScreenCommand.onExecute">
<polygon fill="white" stroke="black" points="694.5,-235 694.5,-265 871.5,-265 871.5,-235 694.5,-235"/>
<text text-anchor="start" x="702.5" y="-253" font-family="Helvetica,sans-Serif" font-size="10.00">commands.viewCommands.Clear</text>
<text text-anchor="middle" x="783" y="-242" font-family="Helvetica,sans-Serif" font-size="10.00">ScreenCommand.onExecute</text>
</a>
</g>
</g>
<!-- Node9&#45;&gt;Node10 -->
<g id="edge9" class="edge"><title>Node9&#45;&gt;Node10</title>
<path fill="none" stroke="midnightblue" d="M620.024,-195.418C641.232,-205.038 667.701,-216.403 692,-225 701.937,-228.516 712.63,-231.858 723.055,-234.888"/>
<polygon fill="midnightblue" stroke="midnightblue" points="621.225,-192.119 610.676,-191.137 618.311,-198.484 621.225,-192.119"/>
</g>
<!-- Node11 -->
<g id="node11" class="node"><title>Node11</title>
<g id="a_node11"><a xlink:href="../../d9/d14/classcommands_1_1turtle_commands_1_1_set_position_command.html#a1ff02e56e7927a1002a7412040c98e77" target="_top" xlink:title="commands.turtleCommands.\lSetPositionCommand.onExecute">
<polygon fill="white" stroke="black" points="696,-186 696,-216 870,-216 870,-186 696,-186"/>
<text text-anchor="start" x="704" y="-204" font-family="Helvetica,sans-Serif" font-size="10.00">commands.turtleCommands.</text>
<text text-anchor="middle" x="783" y="-193" font-family="Helvetica,sans-Serif" font-size="10.00">SetPositionCommand.onExecute</text>
</a>
</g>
</g>
<!-- Node9&#45;&gt;Node11 -->
<g id="edge10" class="edge"><title>Node9&#45;&gt;Node11</title>
<path fill="none" stroke="midnightblue" d="M665.693,-186.677C675.722,-187.912 685.948,-189.171 695.967,-190.405"/>
<polygon fill="midnightblue" stroke="midnightblue" points="666.098,-183.2 655.746,-185.451 665.243,-190.148 666.098,-183.2"/>
</g>
<!-- Node12 -->
<g id="node12" class="node"><title>Node12</title>
<g id="a_node12"><a xlink:href="../../db/dc5/classcommands_1_1view_commands_1_1_home_command.html#a91670541a28ed18996a9bc3433029857" target="_top" xlink:title="commands.viewCommands.Home\lCommand.onExecute">
<polygon fill="white" stroke="black" points="692,-137 692,-167 874,-167 874,-137 692,-137"/>
<text text-anchor="start" x="700" y="-155" font-family="Helvetica,sans-Serif" font-size="10.00">commands.viewCommands.Home</text>
<text text-anchor="middle" x="783" y="-144" font-family="Helvetica,sans-Serif" font-size="10.00">Command.onExecute</text>
</a>
</g>
</g>
<!-- Node9&#45;&gt;Node12 -->
<g id="edge11" class="edge"><title>Node9&#45;&gt;Node12</title>
<path fill="none" stroke="midnightblue" d="M665.79,-165.739C674.416,-164.719 683.187,-163.682 691.846,-162.659"/>
<polygon fill="midnightblue" stroke="midnightblue" points="665.265,-162.277 655.746,-166.927 666.087,-169.228 665.265,-162.277"/>
</g>
<!-- Node14 -->
<g id="node14" class="node"><title>Node14</title>
<g id="a_node14"><a xlink:href="../../d9/db1/class_view_1_1_single_grid.html#aa718e560e84ad31be3e046029d0226ab" target="_top" xlink:title="View.SingleGrid.update">
<polygon fill="white" stroke="black" points="515,-76.5 515,-95.5 641,-95.5 641,-76.5 515,-76.5"/>
<text text-anchor="middle" x="578" y="-83.5" font-family="Helvetica,sans-Serif" font-size="10.00">View.SingleGrid.update</text>
</a>
</g>
</g>
<!-- Node13&#45;&gt;Node14 -->
<g id="edge13" class="edge"><title>Node13&#45;&gt;Node14</title>
<path fill="none" stroke="midnightblue" d="M467.069,-86C483.051,-86 499.61,-86 514.877,-86"/>
<polygon fill="midnightblue" stroke="midnightblue" points="466.67,-82.5001 456.67,-86 466.67,-89.5001 466.67,-82.5001"/>
</g>
<!-- Node19 -->
<g id="node19" class="node"><title>Node19</title>
<g id="a_node19"><a xlink:href="../../d9/db1/class_view_1_1_single_grid.html#a4c6eabf92c3205a22dc266cf0923f836" target="_top" xlink:title="View.SingleGrid.keyUpdate">
<polygon fill="white" stroke="black" points="506,-33.5 506,-52.5 650,-52.5 650,-33.5 506,-33.5"/>
<text text-anchor="middle" x="578" y="-40.5" font-family="Helvetica,sans-Serif" font-size="10.00">View.SingleGrid.keyUpdate</text>
</a>
</g>
</g>
<!-- Node13&#45;&gt;Node19 -->
<g id="edge18" class="edge"><title>Node13&#45;&gt;Node19</title>
<path fill="none" stroke="midnightblue" d="M463.421,-68.7048C487.814,-63.1843 513.907,-57.2789 534.925,-52.5223"/>
<polygon fill="midnightblue" stroke="midnightblue" points="462.434,-65.3396 453.453,-70.9607 463.979,-72.1669 462.434,-65.3396"/>
</g>
<!-- Node15 -->
<g id="node15" class="node"><title>Node15</title>
<g id="a_node15"><a xlink:href="../../d1/de7/class_g_u_i_functions_1_1_undo.html#a611c153735c5cbdbbfd8f55faa0adaae" target="_top" xlink:title="GUIFunctions.Undo.doAction">
<polygon fill="white" stroke="black" points="707,-98.5 707,-117.5 859,-117.5 859,-98.5 707,-98.5"/>
<text text-anchor="middle" x="783" y="-105.5" font-family="Helvetica,sans-Serif" font-size="10.00">GUIFunctions.Undo.doAction</text>
</a>
</g>
</g>
<!-- Node14&#45;&gt;Node15 -->
<g id="edge14" class="edge"><title>Node14&#45;&gt;Node15</title>
<path fill="none" stroke="midnightblue" d="M651.165,-93.8208C669.204,-95.7758 688.596,-97.8774 706.78,-99.8481"/>
<polygon fill="midnightblue" stroke="midnightblue" points="651.329,-90.3182 641.01,-92.7203 650.574,-97.2774 651.329,-90.3182"/>
</g>
<!-- Node16 -->
<g id="node16" class="node"><title>Node16</title>
<g id="a_node16"><a xlink:href="../../d3/d42/class_table_information_1_1_turtle_variables_table.html#a12ef059be78468fe0f09b5bf41d11d4c" target="_top" xlink:title="TableInformation.TurtleVariables\lTable.moveTurtle">
<polygon fill="white" stroke="black" points="699.5,-49 699.5,-79 866.5,-79 866.5,-49 699.5,-49"/>
<text text-anchor="start" x="707.5" y="-67" font-family="Helvetica,sans-Serif" font-size="10.00">TableInformation.TurtleVariables</text>
<text text-anchor="middle" x="783" y="-56" font-family="Helvetica,sans-Serif" font-size="10.00">Table.moveTurtle</text>
</a>
</g>
</g>
<!-- Node14&#45;&gt;Node16 -->
<g id="edge15" class="edge"><title>Node14&#45;&gt;Node16</title>
<path fill="none" stroke="midnightblue" d="M651.122,-78.1838C666.761,-76.489 683.417,-74.6838 699.423,-72.9492"/>
<polygon fill="midnightblue" stroke="midnightblue" points="650.574,-74.7226 641.01,-79.2797 651.329,-81.6818 650.574,-74.7226"/>
</g>
<!-- Node17 -->
<g id="node17" class="node"><title>Node17</title>
<g id="a_node17"><a xlink:href="../../d3/d42/class_table_information_1_1_turtle_variables_table.html#a3a32e6fd761411925b48c0fa60c29431" target="_top" xlink:title="TableInformation.TurtleVariables\lTable.setColumnEditable">
<polygon fill="white" stroke="black" points="910.5,-49 910.5,-79 1077.5,-79 1077.5,-49 910.5,-49"/>
<text text-anchor="start" x="918.5" y="-67" font-family="Helvetica,sans-Serif" font-size="10.00">TableInformation.TurtleVariables</text>
<text text-anchor="middle" x="994" y="-56" font-family="Helvetica,sans-Serif" font-size="10.00">Table.setColumnEditable</text>
</a>
</g>
</g>
<!-- Node16&#45;&gt;Node17 -->
<g id="edge16" class="edge"><title>Node16&#45;&gt;Node17</title>
<path fill="none" stroke="midnightblue" d="M876.791,-64C887.958,-64 899.304,-64 910.313,-64"/>
<polygon fill="midnightblue" stroke="midnightblue" points="876.602,-60.5001 866.602,-64 876.602,-67.5001 876.602,-60.5001"/>
</g>
<!-- Node18 -->
<g id="node18" class="node"><title>Node18</title>
<g id="a_node18"><a xlink:href="../../d3/d42/class_table_information_1_1_turtle_variables_table.html#a6bac7fbbffde239e6438ea163f812b08" target="_top" xlink:title="TableInformation.TurtleVariables\lTable.TurtleVariablesTable">
<polygon fill="white" stroke="black" points="1114.5,-49 1114.5,-79 1281.5,-79 1281.5,-49 1114.5,-49"/>
<text text-anchor="start" x="1122.5" y="-67" font-family="Helvetica,sans-Serif" font-size="10.00">TableInformation.TurtleVariables</text>
<text text-anchor="middle" x="1198" y="-56" font-family="Helvetica,sans-Serif" font-size="10.00">Table.TurtleVariablesTable</text>
</a>
</g>
</g>
<!-- Node17&#45;&gt;Node18 -->
<g id="edge17" class="edge"><title>Node17&#45;&gt;Node18</title>
<path fill="none" stroke="midnightblue" d="M1088.02,-64C1096.82,-64 1105.69,-64 1114.38,-64"/>
<polygon fill="midnightblue" stroke="midnightblue" points="1087.74,-60.5001 1077.74,-64 1087.74,-67.5001 1087.74,-60.5001"/>
</g>
<!-- Node20 -->
<g id="node20" class="node"><title>Node20</title>
<g id="a_node20"><a xlink:href="../../d5/d30/class_view_1_1_tabs_of_grids.html#addda546d87ab37b3c6d812b33c0118c9" target="_top" xlink:title="View.TabsOfGrids.setUpKey\lBoardHandler">
<polygon fill="white" stroke="black" points="710.5,-0 710.5,-30 855.5,-30 855.5,-0 710.5,-0"/>
<text text-anchor="start" x="718.5" y="-18" font-family="Helvetica,sans-Serif" font-size="10.00">View.TabsOfGrids.setUpKey</text>
<text text-anchor="middle" x="783" y="-7" font-family="Helvetica,sans-Serif" font-size="10.00">BoardHandler</text>
</a>
</g>
</g>
<!-- Node19&#45;&gt;Node20 -->
<g id="edge19" class="edge"><title>Node19&#45;&gt;Node20</title>
<path fill="none" stroke="midnightblue" d="M658.048,-32.0969C675.302,-29.7169 693.468,-27.2113 710.413,-24.8741"/>
<polygon fill="midnightblue" stroke="midnightblue" points="657.438,-28.6478 648.01,-33.4814 658.394,-35.5821 657.438,-28.6478"/>
</g>
<!-- Node21 -->
<g id="node21" class="node"><title>Node21</title>
<g id="a_node21"><a xlink:href="../../d5/d30/class_view_1_1_tabs_of_grids.html#aa186cd880ee36327ffc0d66951a23fb5" target="_top" xlink:title="View.TabsOfGrids.addTab">
<polygon fill="white" stroke="black" points="927,-5.5 927,-24.5 1061,-24.5 1061,-5.5 927,-5.5"/>
<text text-anchor="middle" x="994" y="-12.5" font-family="Helvetica,sans-Serif" font-size="10.00">View.TabsOfGrids.addTab</text>
</a>
</g>
</g>
<!-- Node20&#45;&gt;Node21 -->
<g id="edge20" class="edge"><title>Node20&#45;&gt;Node21</title>
<path fill="none" stroke="midnightblue" d="M865.758,-15C885.965,-15 907.364,-15 926.731,-15"/>
<polygon fill="midnightblue" stroke="midnightblue" points="865.634,-11.5001 855.634,-15 865.634,-18.5001 865.634,-11.5001"/>
</g>
<!-- Node22 -->
<g id="node22" class="node"><title>Node22</title>
<g id="a_node22"><a xlink:href="../../d6/d33/class_view_1_1_slogo_view.html#a5759fa529a24ab1e80d37348f3dd395b" target="_top" xlink:title="View.SlogoView.addGrid">
<polygon fill="white" stroke="black" points="1133.5,-5.5 1133.5,-24.5 1262.5,-24.5 1262.5,-5.5 1133.5,-5.5"/>
<text text-anchor="middle" x="1198" y="-12.5" font-family="Helvetica,sans-Serif" font-size="10.00">View.SlogoView.addGrid</text>
</a>
</g>
</g>
<!-- Node21&#45;&gt;Node22 -->
<g id="edge21" class="edge"><title>Node21&#45;&gt;Node22</title>
<path fill="none" stroke="midnightblue" d="M1071.38,-15C1091.85,-15 1113.76,-15 1133.46,-15"/>
<polygon fill="midnightblue" stroke="midnightblue" points="1071.14,-11.5001 1061.14,-15 1071.14,-18.5001 1071.14,-11.5001"/>
</g>
<!-- Node23 -->
<g id="node23" class="node"><title>Node23</title>
<g id="a_node23"><a xlink:href="../../d6/d33/class_view_1_1_slogo_view.html#acfeff052503655d2ac419d2bf4ea9bd5" target="_top" xlink:title="View.SlogoView.initialize">
<polygon fill="white" stroke="black" points="1318,-5.5 1318,-24.5 1448,-24.5 1448,-5.5 1318,-5.5"/>
<text text-anchor="middle" x="1383" y="-12.5" font-family="Helvetica,sans-Serif" font-size="10.00">View.SlogoView.initialize</text>
</a>
</g>
</g>
<!-- Node22&#45;&gt;Node23 -->
<g id="edge22" class="edge"><title>Node22&#45;&gt;Node23</title>
<path fill="none" stroke="midnightblue" d="M1272.93,-15C1287.81,-15 1303.34,-15 1317.86,-15"/>
<polygon fill="midnightblue" stroke="midnightblue" points="1272.75,-11.5001 1262.75,-15 1272.75,-18.5001 1272.75,-11.5001"/>
</g>
<!-- Node24 -->
<g id="node24" class="node"><title>Node24</title>
<g id="a_node24"><a xlink:href="../../db/d27/class_view_1_1_slogo.html#a6ab76a53160b61d8501aec91c55b85c8" target="_top" xlink:title="View.Slogo.start">
<polygon fill="white" stroke="black" points="1484.5,-5.5 1484.5,-24.5 1577.5,-24.5 1577.5,-5.5 1484.5,-5.5"/>
<text text-anchor="middle" x="1531" y="-12.5" font-family="Helvetica,sans-Serif" font-size="10.00">View.Slogo.start</text>
</a>
</g>
</g>
<!-- Node23&#45;&gt;Node24 -->
<g id="edge23" class="edge"><title>Node23&#45;&gt;Node24</title>
<path fill="none" stroke="midnightblue" d="M1458.14,-15C1467.11,-15 1476.05,-15 1484.43,-15"/>
<polygon fill="midnightblue" stroke="midnightblue" points="1458.04,-11.5001 1448.04,-15 1458.04,-18.5001 1458.04,-11.5001"/>
</g>
</g>
</svg>
        <g id="navigator" transform="translate(0 0)" fill="#404254">
                <rect fill="#f2f5e9" fill-opacity="0.5" stroke="#606060" stroke-width=".5" x="0" y="0" width="60" height="60"/>
                <use id="zoomplus" xlink:href="#zoomPlus" x="17" y="9" onmousedown="handleZoom(evt,'in')"/>
                <use id="zoomminus" xlink:href="#zoomMin" x="42" y="9" onmousedown="handleZoom(evt,'out')"/>
                <use id="reset" xlink:href="#resetDef" x="30" y="36" onmousedown="handleReset()"/>
                <g id="arrowUp" xlink:href="#dirArrow" transform="translate(30 24)" onmousedown="handlePan(0,-1)">
                  <use xlink:href="#rim" fill="#404040">
                        <set attributeName="fill" to="#808080" begin="arrowUp.mouseover" end="arrowUp.mouseout"/>
                  </use>
                  <path fill="none" stroke="white" stroke-width="1.5" d="M0,-3.0v7 M-2.5,-0.5L0,-3.0L2.5,-0.5"/>
                </g>
                <g id="arrowRight" xlink:href="#dirArrow" transform="rotate(90) translate(36 -43)" onmousedown="handlePan(1,0)">
                  <use xlink:href="#rim" fill="#404040">
                        <set attributeName="fill" to="#808080" begin="arrowRight.mouseover" end="arrowRight.mouseout"/>
                  </use>
                  <path fill="none" stroke="white" stroke-width="1.5" d="M0,-3.0v7 M-2.5,-0.5L0,-3.0L2.5,-0.5"/>
                </g>
                <g id="arrowDown" xlink:href="#dirArrow" transform="rotate(180) translate(-30 -48)" onmousedown="handlePan(0,1)">
                  <use xlink:href="#rim" fill="#404040">
                        <set attributeName="fill" to="#808080" begin="arrowDown.mouseover" end="arrowDown.mouseout"/>
                  </use>
                  <path fill="none" stroke="white" stroke-width="1.5" d="M0,-3.0v7 M-2.5,-0.5L0,-3.0L2.5,-0.5"/>
                </g>
                <g id="arrowLeft" xlink:href="#dirArrow" transform="rotate(270) translate(-36 17)" onmousedown="handlePan(-1,0)">
                  <use xlink:href="#rim" fill="#404040">
                        <set attributeName="fill" to="#808080" begin="arrowLeft.mouseover" end="arrowLeft.mouseout"/>
                  </use>
                  <path fill="none" stroke="white" stroke-width="1.5" d="M0,-3.0v7 M-2.5,-0.5L0,-3.0L2.5,-0.5"/>
                </g>
        </g>
        <svg viewBox="0 0 15 15" width="100%" height="30px" preserveAspectRatio="xMaxYMin meet">
         <g id="arrow_out" transform="scale(0.3 0.3)">
          <a xlink:href="classturtle_1_1_position_a7c26cf9316a28fb4821731864ed28c95_icgraph_org.svg" target="_base">
           <rect id="button" ry="5" rx="5" y="6" x="6" height="38" width="38"
                fill="#f2f5e9" fill-opacity="0.5" stroke="#606060" stroke-width="1.0"/>
           <path id="arrow"
             d="M 11.500037,31.436501 C 11.940474,20.09759 22.043105,11.32322 32.158766,21.979434 L 37.068811,17.246167 C 37.068811,17.246167 37.088388,32 37.088388,32 L 22.160133,31.978069 C 22.160133,31.978069 26.997745,27.140456 26.997745,27.140456 C 18.528582,18.264221 13.291696,25.230495 11.500037,31.436501 z"
             style="fill:#404040;"/>
          </a>
         </g>
        </svg>
</svg>
