<?xml version="1.0" encoding="UTF-8" standalone="no"?>
<!DOCTYPE svg PUBLIC "-//W3C//DTD SVG 1.1//EN"
 "http://www.w3.org/Graphics/SVG/1.1/DTD/svg11.dtd">
<!-- Generated by graphviz version 2.36.0 (20140111.2315)
 -->
<!-- Title: turtle.Position.rotate Pages: 1 -->
<svg width="650pt" height="87pt"
 viewBox="0.00 0.00 650.00 87.00" xmlns="http://www.w3.org/2000/svg" xmlns:xlink="http://www.w3.org/1999/xlink">
<g id="graph0" class="graph" transform="scale(1 1) rotate(0) translate(4 83)">
<title>turtle.Position.rotate</title>
<polygon fill="white" stroke="none" points="-4,4 -4,-83 646,-83 646,4 -4,4"/>
<!-- Node1 -->
<g id="node1" class="node"><title>Node1</title>
<polygon fill="#bfbfbf" stroke="black" points="0.5,-29.5 0.5,-48.5 115.5,-48.5 115.5,-29.5 0.5,-29.5"/>
<text text-anchor="middle" x="58" y="-36.5" font-family="Helvetica,sans-Serif" font-size="10.00">turtle.Position.rotate</text>
</g>
<!-- Node2 -->
<g id="node2" class="node"><title>Node2</title>
<g id="a_node2"><a xlink:href="../../df/dcb/classturtle_1_1_turtle.html#a3d8a29c0ff3f9e6dcd59e5b9f5302b64" target="_top" xlink:title="turtle.Turtle.rotate">
<polygon fill="white" stroke="black" points="152.5,-29.5 152.5,-48.5 255.5,-48.5 255.5,-29.5 152.5,-29.5"/>
<text text-anchor="middle" x="204" y="-36.5" font-family="Helvetica,sans-Serif" font-size="10.00">turtle.Turtle.rotate</text>
</a>
</g>
</g>
<!-- Node1&#45;&gt;Node2 -->
<g id="edge1" class="edge"><title>Node1&#45;&gt;Node2</title>
<path fill="none" stroke="midnightblue" d="M126.102,-39C134.845,-39 143.686,-39 152.104,-39"/>
<polygon fill="midnightblue" stroke="midnightblue" points="125.913,-35.5001 115.913,-39 125.913,-42.5001 125.913,-35.5001"/>
</g>
<!-- Node3 -->
<g id="node3" class="node"><title>Node3</title>
<g id="a_node3"><a xlink:href="../../d7/d28/classcommands_1_1information_1_1_base_turtle_container.html#a73435663cdaa03ca3d95c938c0dac073" target="_top" xlink:title="commands.information.Base\lTurtleContainer.rotate">
<polygon fill="white" stroke="black" points="292.5,-24 292.5,-54 447.5,-54 447.5,-24 292.5,-24"/>
<text text-anchor="start" x="300.5" y="-42" font-family="Helvetica,sans-Serif" font-size="10.00">commands.information.Base</text>
<text text-anchor="middle" x="370" y="-31" font-family="Helvetica,sans-Serif" font-size="10.00">TurtleContainer.rotate</text>
</a>
</g>
</g>
<!-- Node2&#45;&gt;Node3 -->
<g id="edge2" class="edge"><title>Node2&#45;&gt;Node3</title>
<path fill="none" stroke="midnightblue" d="M265.602,-39C274.329,-39 283.403,-39 292.391,-39"/>
<polygon fill="midnightblue" stroke="midnightblue" points="265.544,-35.5001 255.544,-39 265.544,-42.5001 265.544,-35.5001"/>
</g>
<!-- Node4 -->
<g id="node4" class="node"><title>Node4</title>
<g id="a_node4"><a xlink:href="../../db/d66/classcommands_1_1turtle_commands_1_1_left_command.html#ad05f5e31458463730a6a78444f481db3" target="_top" xlink:title="commands.turtleCommands.\lLeftCommand.onExecute">
<polygon fill="white" stroke="black" points="484,-49 484,-79 642,-79 642,-49 484,-49"/>
<text text-anchor="start" x="492" y="-67" font-family="Helvetica,sans-Serif" font-size="10.00">commands.turtleCommands.</text>
<text text-anchor="middle" x="563" y="-56" font-family="Helvetica,sans-Serif" font-size="10.00">LeftCommand.onExecute</text>
</a>
</g>
</g>
<!-- Node3&#45;&gt;Node4 -->
<g id="edge3" class="edge"><title>Node3&#45;&gt;Node4</title>
<path fill="none" stroke="midnightblue" d="M457.737,-50.353C466.436,-51.4917 475.234,-52.6432 483.837,-53.7693"/>
<polygon fill="midnightblue" stroke="midnightblue" points="457.956,-46.8519 447.586,-49.0244 457.048,-53.7927 457.956,-46.8519"/>
</g>
<!-- Node5 -->
<g id="node5" class="node"><title>Node5</title>
<g id="a_node5"><a xlink:href="../../dd/db2/classcommands_1_1turtle_commands_1_1_right_command.html#a0eddcf5dbe1361c0dab5433a3f42aae7" target="_top" xlink:title="commands.turtleCommands.\lRightCommand.onExecute">
<polygon fill="white" stroke="black" points="484,-0 484,-30 642,-30 642,-0 484,-0"/>
<text text-anchor="start" x="492" y="-18" font-family="Helvetica,sans-Serif" font-size="10.00">commands.turtleCommands.</text>
<text text-anchor="middle" x="563" y="-7" font-family="Helvetica,sans-Serif" font-size="10.00">RightCommand.onExecute</text>
</a>
</g>
</g>
<!-- Node3&#45;&gt;Node5 -->
<g id="edge4" class="edge"><title>Node3&#45;&gt;Node5</title>
<path fill="none" stroke="midnightblue" d="M457.737,-28.1011C466.436,-27.008 475.234,-25.9025 483.837,-24.8215"/>
<polygon fill="midnightblue" stroke="midnightblue" points="457.072,-24.6571 447.586,-29.3766 457.945,-31.6024 457.072,-24.6571"/>
</g>
</g>
</svg>
