<?xml version="1.0" encoding="UTF-8" standalone="no"?>
<!DOCTYPE svg PUBLIC "-//W3C//DTD SVG 1.1//EN"
 "http://www.w3.org/Graphics/SVG/1.1/DTD/svg11.dtd">
<!-- Generated by graphviz version 2.36.0 (20140111.2315)
 -->
<!-- Title: turtle.Position.move Pages: 1 -->
<svg width="722pt" height="87pt"
 viewBox="0.00 0.00 722.00 87.00" xmlns="http://www.w3.org/2000/svg" xmlns:xlink="http://www.w3.org/1999/xlink">
<g id="graph0" class="graph" transform="scale(1 1) rotate(0) translate(4 83)">
<title>turtle.Position.move</title>
<polygon fill="white" stroke="none" points="-4,4 -4,-83 718,-83 718,4 -4,4"/>
<!-- Node1 -->
<g id="node1" class="node"><title>Node1</title>
<polygon fill="#bfbfbf" stroke="black" points="0.5,-29.5 0.5,-48.5 113.5,-48.5 113.5,-29.5 0.5,-29.5"/>
<text text-anchor="middle" x="57" y="-36.5" font-family="Helvetica,sans-Serif" font-size="10.00">turtle.Position.move</text>
</g>
<!-- Node2 -->
<g id="node2" class="node"><title>Node2</title>
<g id="a_node2"><a xlink:href="../../df/dcb/classturtle_1_1_turtle.html#aa1a46a871ec163cdff79e9055f8b0519" target="_top" xlink:title="turtle.Turtle.moveTowards\lHeading">
<polygon fill="white" stroke="black" points="150,-24 150,-54 288,-54 288,-24 150,-24"/>
<text text-anchor="start" x="158" y="-42" font-family="Helvetica,sans-Serif" font-size="10.00">turtle.Turtle.moveTowards</text>
<text text-anchor="middle" x="219" y="-31" font-family="Helvetica,sans-Serif" font-size="10.00">Heading</text>
</a>
</g>
</g>
<!-- Node1&#45;&gt;Node2 -->
<g id="edge1" class="edge"><title>Node1&#45;&gt;Node2</title>
<path fill="none" stroke="midnightblue" d="M123.57,-39C132.253,-39 141.17,-39 149.894,-39"/>
<polygon fill="midnightblue" stroke="midnightblue" points="123.511,-35.5001 113.511,-39 123.511,-42.5001 123.511,-35.5001"/>
</g>
<!-- Node3 -->
<g id="node3" class="node"><title>Node3</title>
<g id="a_node3"><a xlink:href="../../d7/d28/classcommands_1_1information_1_1_base_turtle_container.html#afe6445eeeaaa24a41e6579a12baffa74" target="_top" xlink:title="commands.information.Base\lTurtleContainer.moveTowardsHeading">
<polygon fill="white" stroke="black" points="324.5,-24 324.5,-54 519.5,-54 519.5,-24 324.5,-24"/>
<text text-anchor="start" x="332.5" y="-42" font-family="Helvetica,sans-Serif" font-size="10.00">commands.information.Base</text>
<text text-anchor="middle" x="422" y="-31" font-family="Helvetica,sans-Serif" font-size="10.00">TurtleContainer.moveTowardsHeading</text>
</a>
</g>
</g>
<!-- Node2&#45;&gt;Node3 -->
<g id="edge2" class="edge"><title>Node2&#45;&gt;Node3</title>
<path fill="none" stroke="midnightblue" d="M298.088,-39C306.744,-39 315.634,-39 324.483,-39"/>
<polygon fill="midnightblue" stroke="midnightblue" points="298.049,-35.5001 288.049,-39 298.049,-42.5001 298.049,-35.5001"/>
</g>
<!-- Node4 -->
<g id="node4" class="node"><title>Node4</title>
<g id="a_node4"><a xlink:href="../../df/d1b/classcommands_1_1turtle_commands_1_1_back_command.html#a2f60b951011f138ae8916447519fe166" target="_top" xlink:title="commands.turtleCommands.\lBackCommand.onExecute">
<polygon fill="white" stroke="black" points="556,-49 556,-79 714,-79 714,-49 556,-49"/>
<text text-anchor="start" x="564" y="-67" font-family="Helvetica,sans-Serif" font-size="10.00">commands.turtleCommands.</text>
<text text-anchor="middle" x="635" y="-56" font-family="Helvetica,sans-Serif" font-size="10.00">BackCommand.onExecute</text>
</a>
</g>
</g>
<!-- Node3&#45;&gt;Node4 -->
<g id="edge3" class="edge"><title>Node3&#45;&gt;Node4</title>
<path fill="none" stroke="midnightblue" d="M529.538,-51.623C538.397,-52.6726 547.245,-53.721 555.834,-54.7387"/>
<polygon fill="midnightblue" stroke="midnightblue" points="529.889,-48.1401 519.546,-50.4391 529.065,-55.0915 529.889,-48.1401"/>
</g>
<!-- Node5 -->
<g id="node5" class="node"><title>Node5</title>
<g id="a_node5"><a xlink:href="../../da/db6/classcommands_1_1turtle_commands_1_1_forward_command.html#a804cd1b0300e3c10498b66ea5edeb18c" target="_top" xlink:title="commands.turtleCommands.\lForwardCommand.onExecute">
<polygon fill="white" stroke="black" points="556,-0 556,-30 714,-30 714,-0 556,-0"/>
<text text-anchor="start" x="564" y="-18" font-family="Helvetica,sans-Serif" font-size="10.00">commands.turtleCommands.</text>
<text text-anchor="middle" x="635" y="-7" font-family="Helvetica,sans-Serif" font-size="10.00">ForwardCommand.onExecute</text>
</a>
</g>
</g>
<!-- Node3&#45;&gt;Node5 -->
<g id="edge4" class="edge"><title>Node3&#45;&gt;Node5</title>
<path fill="none" stroke="midnightblue" d="M529.538,-26.8819C538.397,-25.8743 547.245,-24.8678 555.834,-23.8909"/>
<polygon fill="midnightblue" stroke="midnightblue" points="529.087,-23.4106 519.546,-28.0184 529.878,-30.3658 529.087,-23.4106"/>
</g>
</g>
</svg>
