<?xml version="1.0" encoding="UTF-8" standalone="no"?>
<!DOCTYPE svg PUBLIC "-//W3C//DTD SVG 1.1//EN"
 "http://www.w3.org/Graphics/SVG/1.1/DTD/svg11.dtd">
<!-- Generated by graphviz version 2.36.0 (20140111.2315)
 -->
<!-- Title: turtle.Position.getYPos Pages: 1 -->
<svg width="1654pt" height="639pt"
 viewBox="0.00 0.00 1654.00 639.50" xmlns="http://www.w3.org/2000/svg" xmlns:xlink="http://www.w3.org/1999/xlink">
<g id="graph0" class="graph" transform="scale(1 1) rotate(0) translate(4 635.497)">
<title>turtle.Position.getYPos</title>
<polygon fill="white" stroke="none" points="-4,4 -4,-635.497 1650,-635.497 1650,4 -4,4"/>
<!-- Node1 -->
<g id="node1" class="node"><title>Node1</title>
<polygon fill="#bfbfbf" stroke="black" points="0,-179.5 0,-198.5 124,-198.5 124,-179.5 0,-179.5"/>
<text text-anchor="middle" x="62" y="-186.5" font-family="Helvetica,sans-Serif" font-size="10.00">turtle.Position.getYPos</text>
</g>
<!-- Node2 -->
<g id="node2" class="node"><title>Node2</title>
<g id="a_node2"><a xlink:href="../../df/dcb/classturtle_1_1_turtle.html#a735b5aa0bce5a53d2c75322fb2ad9130" target="_top" xlink:title="turtle.Turtle.getYPos">
<polygon fill="white" stroke="black" points="173,-450.5 173,-469.5 285,-469.5 285,-450.5 173,-450.5"/>
<text text-anchor="middle" x="229" y="-457.5" font-family="Helvetica,sans-Serif" font-size="10.00">turtle.Turtle.getYPos</text>
</a>
</g>
</g>
<!-- Node1&#45;&gt;Node2 -->
<g id="edge1" class="edge"><title>Node1&#45;&gt;Node2</title>
<path fill="none" stroke="midnightblue" d="M74.1402,-207.297C106.241,-260.02 198.172,-411.01 222.198,-450.471"/>
<polygon fill="midnightblue" stroke="midnightblue" points="77.0624,-205.366 68.8724,-198.645 71.0835,-209.007 77.0624,-205.366"/>
</g>
<!-- Node27 -->
<g id="node27" class="node"><title>Node27</title>
<g id="a_node27"><a xlink:href="../../d4/db5/classturtle_1_1_down.html#a13de87a6a6ac547adb82232c64968916" target="_top" xlink:title="turtle.Down.move">
<polygon fill="white" stroke="black" points="178.5,-160.5 178.5,-179.5 279.5,-179.5 279.5,-160.5 178.5,-160.5"/>
<text text-anchor="middle" x="229" y="-167.5" font-family="Helvetica,sans-Serif" font-size="10.00">turtle.Down.move</text>
</a>
</g>
</g>
<!-- Node1&#45;&gt;Node27 -->
<g id="edge30" class="edge"><title>Node1&#45;&gt;Node27</title>
<path fill="none" stroke="midnightblue" d="M134.562,-180.76C149.327,-179.059 164.568,-177.304 178.348,-175.718"/>
<polygon fill="midnightblue" stroke="midnightblue" points="133.974,-177.304 124.44,-181.925 134.775,-184.258 133.974,-177.304"/>
</g>
<!-- Node28 -->
<g id="node28" class="node"><title>Node28</title>
<g id="a_node28"><a xlink:href="../../df/d4e/classturtle_1_1_up.html#a2a4bb4d5da9f09e70c1ef4baa33e6c02" target="_top" xlink:title="turtle.Up.move">
<polygon fill="white" stroke="black" points="184.5,-122.5 184.5,-141.5 273.5,-141.5 273.5,-122.5 184.5,-122.5"/>
<text text-anchor="middle" x="229" y="-129.5" font-family="Helvetica,sans-Serif" font-size="10.00">turtle.Up.move</text>
</a>
</g>
</g>
<!-- Node1&#45;&gt;Node28 -->
<g id="edge31" class="edge"><title>Node1&#45;&gt;Node28</title>
<path fill="none" stroke="midnightblue" d="M94.7772,-175.615C113.574,-167.934 137.945,-158.38 160,-151 169.997,-147.655 180.951,-144.413 191.091,-141.582"/>
<polygon fill="midnightblue" stroke="midnightblue" points="93.4093,-172.393 85.4977,-179.44 96.0769,-178.865 93.4093,-172.393"/>
</g>
<!-- Node29 -->
<g id="node29" class="node"><title>Node29</title>
<g id="a_node29"><a xlink:href="../../df/dcb/classturtle_1_1_turtle.html#a81e35bc42c3ccb26e25ded71026cb173" target="_top" xlink:title="turtle.Turtle.move">
<polygon fill="white" stroke="black" points="178.5,-288.5 178.5,-307.5 279.5,-307.5 279.5,-288.5 178.5,-288.5"/>
<text text-anchor="middle" x="229" y="-295.5" font-family="Helvetica,sans-Serif" font-size="10.00">turtle.Turtle.move</text>
</a>
</g>
</g>
<!-- Node1&#45;&gt;Node29 -->
<g id="edge32" class="edge"><title>Node1&#45;&gt;Node29</title>
<path fill="none" stroke="midnightblue" d="M86.1234,-204.275C120.551,-227.018 184.316,-269.142 213.153,-288.192"/>
<polygon fill="midnightblue" stroke="midnightblue" points="87.9156,-201.265 77.6426,-198.673 84.0572,-207.105 87.9156,-201.265"/>
</g>
<!-- Node32 -->
<g id="node32" class="node"><title>Node32</title>
<g id="a_node32"><a xlink:href="../../df/dcb/classturtle_1_1_turtle.html#aa1a46a871ec163cdff79e9055f8b0519" target="_top" xlink:title="turtle.Turtle.moveTowards\lHeading">
<polygon fill="white" stroke="black" points="160,-60 160,-90 298,-90 298,-60 160,-60"/>
<text text-anchor="start" x="168" y="-78" font-family="Helvetica,sans-Serif" font-size="10.00">turtle.Turtle.moveTowards</text>
<text text-anchor="middle" x="229" y="-67" font-family="Helvetica,sans-Serif" font-size="10.00">Heading</text>
</a>
</g>
</g>
<!-- Node1&#45;&gt;Node32 -->
<g id="edge36" class="edge"><title>Node1&#45;&gt;Node32</title>
<path fill="none" stroke="midnightblue" d="M81.8801,-172.775C100.963,-156.725 131.607,-131.892 160,-113 172.273,-104.834 186.422,-96.7332 198.625,-90.122"/>
<polygon fill="midnightblue" stroke="midnightblue" points="79.577,-170.139 74.2128,-179.275 84.1038,-175.478 79.577,-170.139"/>
</g>
<!-- Node36 -->
<g id="node36" class="node"><title>Node36</title>
<g id="a_node36"><a xlink:href="../../df/dcb/classturtle_1_1_turtle.html#a5db281fc734edd965ff0faddbab871d7" target="_top" xlink:title="turtle.Turtle.setXPos">
<polygon fill="white" stroke="black" points="173,-198.5 173,-217.5 285,-217.5 285,-198.5 173,-198.5"/>
<text text-anchor="middle" x="229" y="-205.5" font-family="Helvetica,sans-Serif" font-size="10.00">turtle.Turtle.setXPos</text>
</a>
</g>
</g>
<!-- Node1&#45;&gt;Node36 -->
<g id="edge40" class="edge"><title>Node1&#45;&gt;Node36</title>
<path fill="none" stroke="midnightblue" d="M134.595,-197.244C147.383,-198.717 160.526,-200.23 172.767,-201.64"/>
<polygon fill="midnightblue" stroke="midnightblue" points="134.775,-193.742 124.44,-196.075 133.974,-200.696 134.775,-193.742"/>
</g>
<!-- Node3 -->
<g id="node3" class="node"><title>Node3</title>
<g id="a_node3"><a xlink:href="../../d7/d28/classcommands_1_1information_1_1_base_turtle_container.html#a7191dbe21eb4c3f13baaef4a648f8a4c" target="_top" xlink:title="commands.information.Base\lTurtleContainer.getYPos">
<polygon fill="white" stroke="black" points="354.5,-396 354.5,-426 509.5,-426 509.5,-396 354.5,-396"/>
<text text-anchor="start" x="362.5" y="-414" font-family="Helvetica,sans-Serif" font-size="10.00">commands.information.Base</text>
<text text-anchor="middle" x="432" y="-403" font-family="Helvetica,sans-Serif" font-size="10.00">TurtleContainer.getYPos</text>
</a>
</g>
</g>
<!-- Node2&#45;&gt;Node3 -->
<g id="edge2" class="edge"><title>Node2&#45;&gt;Node3</title>
<path fill="none" stroke="midnightblue" d="M279.283,-447.986C306.442,-441.365 340.411,-433.084 369.318,-426.037"/>
<polygon fill="midnightblue" stroke="midnightblue" points="278.118,-444.667 269.232,-450.436 279.776,-451.468 278.118,-444.667"/>
</g>
<!-- Node5 -->
<g id="node5" class="node"><title>Node5</title>
<g id="a_node5"><a xlink:href="../../d2/da9/class_g_u_i_functions_1_1_stamp_image.html#a6dc56a5d3d842aed2f0b02698bd91f72" target="_top" xlink:title="GUIFunctions.StampImage.\lStampImage">
<polygon fill="white" stroke="black" points="358.5,-571 358.5,-601 505.5,-601 505.5,-571 358.5,-571"/>
<text text-anchor="start" x="366.5" y="-589" font-family="Helvetica,sans-Serif" font-size="10.00">GUIFunctions.StampImage.</text>
<text text-anchor="middle" x="432" y="-578" font-family="Helvetica,sans-Serif" font-size="10.00">StampImage</text>
</a>
</g>
</g>
<!-- Node2&#45;&gt;Node5 -->
<g id="edge4" class="edge"><title>Node2&#45;&gt;Node5</title>
<path fill="none" stroke="midnightblue" d="M244.367,-477.355C262.961,-498.756 297.348,-534.883 334,-556 344.463,-562.028 356.271,-566.978 367.956,-570.995"/>
<polygon fill="midnightblue" stroke="midnightblue" points="246.978,-475.023 237.829,-469.68 241.65,-479.562 246.978,-475.023"/>
</g>
<!-- Node6 -->
<g id="node6" class="node"><title>Node6</title>
<g id="a_node6"><a xlink:href="../../df/dcb/classturtle_1_1_turtle.html#a569289374749eb6dcf64e0ed1ec7b9b2" target="_top" xlink:title="turtle.Turtle.getXYCoordinates">
<polygon fill="white" stroke="black" points="353,-357.5 353,-376.5 511,-376.5 511,-357.5 353,-357.5"/>
<text text-anchor="middle" x="432" y="-364.5" font-family="Helvetica,sans-Serif" font-size="10.00">turtle.Turtle.getXYCoordinates</text>
</a>
</g>
</g>
<!-- Node2&#45;&gt;Node6 -->
<g id="edge5" class="edge"><title>Node2&#45;&gt;Node6</title>
<path fill="none" stroke="midnightblue" d="M248.225,-443.665C267.955,-426.874 301.04,-401.234 334,-387 344.103,-382.637 355.216,-379.205 366.204,-376.512"/>
<polygon fill="midnightblue" stroke="midnightblue" points="245.884,-441.062 240.626,-450.26 250.473,-446.348 245.884,-441.062"/>
</g>
<!-- Node13 -->
<g id="node13" class="node"><title>Node13</title>
<g id="a_node13"><a xlink:href="../../d9/db1/class_view_1_1_single_grid.html#a7fced187abf44b802950675ee590f493" target="_top" xlink:title="View.SingleGrid.moveTurtle">
<polygon fill="white" stroke="black" points="359.5,-494.5 359.5,-513.5 504.5,-513.5 504.5,-494.5 359.5,-494.5"/>
<text text-anchor="middle" x="432" y="-501.5" font-family="Helvetica,sans-Serif" font-size="10.00">View.SingleGrid.moveTurtle</text>
</a>
</g>
</g>
<!-- Node2&#45;&gt;Node13 -->
<g id="edge12" class="edge"><title>Node2&#45;&gt;Node13</title>
<path fill="none" stroke="midnightblue" d="M280.216,-471.839C297.268,-475.792 316.446,-480.165 334,-484 350.126,-487.523 367.799,-491.216 383.59,-494.456"/>
<polygon fill="midnightblue" stroke="midnightblue" points="280.983,-468.424 270.45,-469.567 279.397,-475.242 280.983,-468.424"/>
</g>
<!-- Node25 -->
<g id="node25" class="node"><title>Node25</title>
<g id="a_node25"><a xlink:href="../../d9/db1/class_view_1_1_single_grid.html#ace412ccdbcf0cdf6a20ac1e4102a15b5" target="_top" xlink:title="View.SingleGrid.addTurtle">
<polygon fill="white" stroke="black" points="577,-561.5 577,-580.5 713,-580.5 713,-561.5 577,-561.5"/>
<text text-anchor="middle" x="645" y="-568.5" font-family="Helvetica,sans-Serif" font-size="10.00">View.SingleGrid.addTurtle</text>
</a>
</g>
</g>
<!-- Node2&#45;&gt;Node25 -->
<g id="edge29" class="edge"><title>Node2&#45;&gt;Node25</title>
<path fill="none" stroke="midnightblue" d="M236.639,-479.473C249.377,-513.344 280.801,-582.15 334,-610 433.237,-661.952 574.084,-604.715 624.842,-580.638"/>
<polygon fill="midnightblue" stroke="midnightblue" points="239.837,-478.022 233.156,-469.799 233.251,-480.394 239.837,-478.022"/>
</g>
<!-- Node26 -->
<g id="node26" class="node"><title>Node26</title>
<g id="a_node26"><a xlink:href="../../d9/db1/class_view_1_1_single_grid.html#a9093eac50d88370f86cb4757b996210e" target="_top" xlink:title="View.SingleGrid.keepTurtle\lInBounds">
<polygon fill="white" stroke="black" points="361.5,-445 361.5,-475 502.5,-475 502.5,-445 361.5,-445"/>
<text text-anchor="start" x="369.5" y="-463" font-family="Helvetica,sans-Serif" font-size="10.00">View.SingleGrid.keepTurtle</text>
<text text-anchor="middle" x="432" y="-452" font-family="Helvetica,sans-Serif" font-size="10.00">InBounds</text>
</a>
</g>
</g>
<!-- Node2&#45;&gt;Node26 -->
<g id="edge26" class="edge"><title>Node2&#45;&gt;Node26</title>
<path fill="none" stroke="midnightblue" d="M295.322,-460C316.387,-460 339.812,-460 361.188,-460"/>
<polygon fill="midnightblue" stroke="midnightblue" points="295.19,-456.5 285.19,-460 295.19,-463.5 295.19,-456.5"/>
</g>
<!-- Node4 -->
<g id="node4" class="node"><title>Node4</title>
<g id="a_node4"><a xlink:href="../../dd/d29/classcommands_1_1view_queries_1_1_y_cor_query.html#a7696faaaf9f1945921769d65f2968918" target="_top" xlink:title="commands.viewQueries.YCor\lQuery.onExecute">
<polygon fill="white" stroke="black" points="567.5,-396 567.5,-426 722.5,-426 722.5,-396 567.5,-396"/>
<text text-anchor="start" x="575.5" y="-414" font-family="Helvetica,sans-Serif" font-size="10.00">commands.viewQueries.YCor</text>
<text text-anchor="middle" x="645" y="-403" font-family="Helvetica,sans-Serif" font-size="10.00">Query.onExecute</text>
</a>
</g>
</g>
<!-- Node3&#45;&gt;Node4 -->
<g id="edge3" class="edge"><title>Node3&#45;&gt;Node4</title>
<path fill="none" stroke="midnightblue" d="M519.984,-411C535.669,-411 551.918,-411 567.284,-411"/>
<polygon fill="midnightblue" stroke="midnightblue" points="519.773,-407.5 509.773,-411 519.773,-414.5 519.773,-407.5"/>
</g>
<!-- Node7 -->
<g id="node7" class="node"><title>Node7</title>
<g id="a_node7"><a xlink:href="../../df/dcb/classturtle_1_1_turtle.html#a5f1e98a10bb09ba8a75ec2c1dffdeb06" target="_top" xlink:title="turtle.Turtle.towardsPosition">
<polygon fill="white" stroke="black" points="570.5,-357.5 570.5,-376.5 719.5,-376.5 719.5,-357.5 570.5,-357.5"/>
<text text-anchor="middle" x="645" y="-364.5" font-family="Helvetica,sans-Serif" font-size="10.00">turtle.Turtle.towardsPosition</text>
</a>
</g>
</g>
<!-- Node6&#45;&gt;Node7 -->
<g id="edge6" class="edge"><title>Node6&#45;&gt;Node7</title>
<path fill="none" stroke="midnightblue" d="M521.349,-367C537.678,-367 554.57,-367 570.404,-367"/>
<polygon fill="midnightblue" stroke="midnightblue" points="521.269,-363.5 511.269,-367 521.269,-370.5 521.269,-363.5"/>
</g>
<!-- Node8 -->
<g id="node8" class="node"><title>Node8</title>
<g id="a_node8"><a xlink:href="../../df/dcb/classturtle_1_1_turtle.html#ab4ccc5acaf4924205497db6d8a8125b9" target="_top" xlink:title="turtle.Turtle.setPosition">
<polygon fill="white" stroke="black" points="582,-270.5 582,-289.5 708,-289.5 708,-270.5 582,-270.5"/>
<text text-anchor="middle" x="645" y="-277.5" font-family="Helvetica,sans-Serif" font-size="10.00">turtle.Turtle.setPosition</text>
</a>
</g>
</g>
<!-- Node6&#45;&gt;Node8 -->
<g id="edge7" class="edge"><title>Node6&#45;&gt;Node8</title>
<path fill="none" stroke="midnightblue" d="M504.501,-355.056C513.216,-352.784 521.897,-350.118 530,-347 569.208,-331.913 610.615,-304.158 631.042,-289.557"/>
<polygon fill="midnightblue" stroke="midnightblue" points="503.56,-351.682 494.676,-357.455 505.221,-358.483 503.56,-351.682"/>
</g>
<!-- Node9 -->
<g id="node9" class="node"><title>Node9</title>
<g id="a_node9"><a xlink:href="../../d7/d28/classcommands_1_1information_1_1_base_turtle_container.html#a5d86cfae201525f3446fc58eb5c7df7c" target="_top" xlink:title="commands.information.Base\lTurtleContainer.setPosition">
<polygon fill="white" stroke="black" points="766.5,-265 766.5,-295 921.5,-295 921.5,-265 766.5,-265"/>
<text text-anchor="start" x="774.5" y="-283" font-family="Helvetica,sans-Serif" font-size="10.00">commands.information.Base</text>
<text text-anchor="middle" x="844" y="-272" font-family="Helvetica,sans-Serif" font-size="10.00">TurtleContainer.setPosition</text>
</a>
</g>
</g>
<!-- Node8&#45;&gt;Node9 -->
<g id="edge8" class="edge"><title>Node8&#45;&gt;Node9</title>
<path fill="none" stroke="midnightblue" d="M718.207,-280C733.884,-280 750.52,-280 766.361,-280"/>
<polygon fill="midnightblue" stroke="midnightblue" points="718.062,-276.5 708.062,-280 718.062,-283.5 718.062,-276.5"/>
</g>
<!-- Node10 -->
<g id="node10" class="node"><title>Node10</title>
<g id="a_node10"><a xlink:href="../../df/d55/classcommands_1_1view_commands_1_1_clear_screen_command.html#ae22b9c821c2d07903bdcea4eaad1f959" target="_top" xlink:title="commands.viewCommands.Clear\lScreenCommand.onExecute">
<polygon fill="white" stroke="black" points="966.5,-216 966.5,-246 1143.5,-246 1143.5,-216 966.5,-216"/>
<text text-anchor="start" x="974.5" y="-234" font-family="Helvetica,sans-Serif" font-size="10.00">commands.viewCommands.Clear</text>
<text text-anchor="middle" x="1055" y="-223" font-family="Helvetica,sans-Serif" font-size="10.00">ScreenCommand.onExecute</text>
</a>
</g>
</g>
<!-- Node9&#45;&gt;Node10 -->
<g id="edge9" class="edge"><title>Node9&#45;&gt;Node10</title>
<path fill="none" stroke="midnightblue" d="M918.922,-262.669C942.126,-257.229 967.536,-251.271 989.994,-246.006"/>
<polygon fill="midnightblue" stroke="midnightblue" points="918.064,-259.275 909.127,-264.965 919.662,-266.09 918.064,-259.275"/>
</g>
<!-- Node11 -->
<g id="node11" class="node"><title>Node11</title>
<g id="a_node11"><a xlink:href="../../d9/d14/classcommands_1_1turtle_commands_1_1_set_position_command.html#a1ff02e56e7927a1002a7412040c98e77" target="_top" xlink:title="commands.turtleCommands.\lSetPositionCommand.onExecute">
<polygon fill="white" stroke="black" points="968,-314 968,-344 1142,-344 1142,-314 968,-314"/>
<text text-anchor="start" x="976" y="-332" font-family="Helvetica,sans-Serif" font-size="10.00">commands.turtleCommands.</text>
<text text-anchor="middle" x="1055" y="-321" font-family="Helvetica,sans-Serif" font-size="10.00">SetPositionCommand.onExecute</text>
</a>
</g>
</g>
<!-- Node9&#45;&gt;Node11 -->
<g id="edge10" class="edge"><title>Node9&#45;&gt;Node11</title>
<path fill="none" stroke="midnightblue" d="M918.922,-297.331C942.126,-302.771 967.536,-308.729 989.994,-313.994"/>
<polygon fill="midnightblue" stroke="midnightblue" points="919.662,-293.91 909.127,-295.035 918.064,-300.725 919.662,-293.91"/>
</g>
<!-- Node12 -->
<g id="node12" class="node"><title>Node12</title>
<g id="a_node12"><a xlink:href="../../db/dc5/classcommands_1_1view_commands_1_1_home_command.html#a91670541a28ed18996a9bc3433029857" target="_top" xlink:title="commands.viewCommands.Home\lCommand.onExecute">
<polygon fill="white" stroke="black" points="964,-265 964,-295 1146,-295 1146,-265 964,-265"/>
<text text-anchor="start" x="972" y="-283" font-family="Helvetica,sans-Serif" font-size="10.00">commands.viewCommands.Home</text>
<text text-anchor="middle" x="1055" y="-272" font-family="Helvetica,sans-Serif" font-size="10.00">Command.onExecute</text>
</a>
</g>
</g>
<!-- Node9&#45;&gt;Node12 -->
<g id="edge11" class="edge"><title>Node9&#45;&gt;Node12</title>
<path fill="none" stroke="midnightblue" d="M931.732,-280C942.358,-280 953.237,-280 963.91,-280"/>
<polygon fill="midnightblue" stroke="midnightblue" points="931.637,-276.5 921.637,-280 931.637,-283.5 931.637,-276.5"/>
</g>
<!-- Node14 -->
<g id="node14" class="node"><title>Node14</title>
<g id="a_node14"><a xlink:href="../../d1/de7/class_g_u_i_functions_1_1_undo.html#a611c153735c5cbdbbfd8f55faa0adaae" target="_top" xlink:title="GUIFunctions.Undo.doAction">
<polygon fill="white" stroke="black" points="768,-526.5 768,-545.5 920,-545.5 920,-526.5 768,-526.5"/>
<text text-anchor="middle" x="844" y="-533.5" font-family="Helvetica,sans-Serif" font-size="10.00">GUIFunctions.Undo.doAction</text>
</a>
</g>
</g>
<!-- Node13&#45;&gt;Node14 -->
<g id="edge13" class="edge"><title>Node13&#45;&gt;Node14</title>
<path fill="none" stroke="midnightblue" d="M515.059,-510.405C588.786,-516.159 696.157,-524.539 767.724,-530.125"/>
<polygon fill="midnightblue" stroke="midnightblue" points="515.128,-506.899 504.886,-509.611 514.583,-513.878 515.128,-506.899"/>
</g>
<!-- Node15 -->
<g id="node15" class="node"><title>Node15</title>
<g id="a_node15"><a xlink:href="../../d9/db1/class_view_1_1_single_grid.html#aa718e560e84ad31be3e046029d0226ab" target="_top" xlink:title="View.SingleGrid.update">
<polygon fill="white" stroke="black" points="582,-485.5 582,-504.5 708,-504.5 708,-485.5 582,-485.5"/>
<text text-anchor="middle" x="645" y="-492.5" font-family="Helvetica,sans-Serif" font-size="10.00">View.SingleGrid.update</text>
</a>
</g>
</g>
<!-- Node13&#45;&gt;Node15 -->
<g id="edge14" class="edge"><title>Node13&#45;&gt;Node15</title>
<path fill="none" stroke="midnightblue" d="M514.861,-500.508C537.174,-499.557 560.974,-498.541 581.984,-497.645"/>
<polygon fill="midnightblue" stroke="midnightblue" points="514.571,-497.017 504.729,-500.94 514.87,-504.011 514.571,-497.017"/>
</g>
<!-- Node19 -->
<g id="node19" class="node"><title>Node19</title>
<g id="a_node19"><a xlink:href="../../d9/db1/class_view_1_1_single_grid.html#a4c6eabf92c3205a22dc266cf0923f836" target="_top" xlink:title="View.SingleGrid.keyUpdate">
<polygon fill="white" stroke="black" points="573,-447.5 573,-466.5 717,-466.5 717,-447.5 573,-447.5"/>
<text text-anchor="middle" x="645" y="-454.5" font-family="Helvetica,sans-Serif" font-size="10.00">View.SingleGrid.keyUpdate</text>
</a>
</g>
</g>
<!-- Node13&#45;&gt;Node19 -->
<g id="edge19" class="edge"><title>Node13&#45;&gt;Node19</title>
<path fill="none" stroke="midnightblue" d="M491.039,-492.322C503.884,-489.657 517.416,-486.787 530,-484 555.021,-478.459 583.028,-471.831 605.021,-466.53"/>
<polygon fill="midnightblue" stroke="midnightblue" points="490.003,-488.962 480.916,-494.409 491.417,-495.817 490.003,-488.962"/>
</g>
<!-- Node13&#45;&gt;Node25 -->
<g id="edge25" class="edge"><title>Node13&#45;&gt;Node25</title>
<path fill="none" stroke="midnightblue" d="M491.308,-515.986C504.231,-519.314 517.728,-523.323 530,-528 546.906,-534.442 549.281,-540.087 566,-547 579.355,-552.522 594.45,-557.454 607.779,-561.389"/>
<polygon fill="midnightblue" stroke="midnightblue" points="492.115,-512.58 481.567,-513.574 490.432,-519.375 492.115,-512.58"/>
</g>
<!-- Node15&#45;&gt;Node14 -->
<g id="edge15" class="edge"><title>Node15&#45;&gt;Node14</title>
<path fill="none" stroke="midnightblue" d="M701.652,-506.582C731.844,-512.866 768.706,-520.538 797.216,-526.471"/>
<polygon fill="midnightblue" stroke="midnightblue" points="702.194,-503.12 691.691,-504.509 700.768,-509.973 702.194,-503.12"/>
</g>
<!-- Node16 -->
<g id="node16" class="node"><title>Node16</title>
<g id="a_node16"><a xlink:href="../../d3/d42/class_table_information_1_1_turtle_variables_table.html#a12ef059be78468fe0f09b5bf41d11d4c" target="_top" xlink:title="TableInformation.TurtleVariables\lTable.moveTurtle">
<polygon fill="white" stroke="black" points="760.5,-477 760.5,-507 927.5,-507 927.5,-477 760.5,-477"/>
<text text-anchor="start" x="768.5" y="-495" font-family="Helvetica,sans-Serif" font-size="10.00">TableInformation.TurtleVariables</text>
<text text-anchor="middle" x="844" y="-484" font-family="Helvetica,sans-Serif" font-size="10.00">Table.moveTurtle</text>
</a>
</g>
</g>
<!-- Node15&#45;&gt;Node16 -->
<g id="edge16" class="edge"><title>Node15&#45;&gt;Node16</title>
<path fill="none" stroke="midnightblue" d="M718.344,-493.898C731.999,-493.69 746.377,-493.471 760.321,-493.259"/>
<polygon fill="midnightblue" stroke="midnightblue" points="718.007,-490.403 708.062,-494.055 718.114,-497.402 718.007,-490.403"/>
</g>
<!-- Node17 -->
<g id="node17" class="node"><title>Node17</title>
<g id="a_node17"><a xlink:href="../../d3/d42/class_table_information_1_1_turtle_variables_table.html#a3a32e6fd761411925b48c0fa60c29431" target="_top" xlink:title="TableInformation.TurtleVariables\lTable.setColumnEditable">
<polygon fill="white" stroke="black" points="971.5,-477 971.5,-507 1138.5,-507 1138.5,-477 971.5,-477"/>
<text text-anchor="start" x="979.5" y="-495" font-family="Helvetica,sans-Serif" font-size="10.00">TableInformation.TurtleVariables</text>
<text text-anchor="middle" x="1055" y="-484" font-family="Helvetica,sans-Serif" font-size="10.00">Table.setColumnEditable</text>
</a>
</g>
</g>
<!-- Node16&#45;&gt;Node17 -->
<g id="edge17" class="edge"><title>Node16&#45;&gt;Node17</title>
<path fill="none" stroke="midnightblue" d="M937.791,-492C948.958,-492 960.304,-492 971.313,-492"/>
<polygon fill="midnightblue" stroke="midnightblue" points="937.602,-488.5 927.602,-492 937.602,-495.5 937.602,-488.5"/>
</g>
<!-- Node18 -->
<g id="node18" class="node"><title>Node18</title>
<g id="a_node18"><a xlink:href="../../d3/d42/class_table_information_1_1_turtle_variables_table.html#a6bac7fbbffde239e6438ea163f812b08" target="_top" xlink:title="TableInformation.TurtleVariables\lTable.TurtleVariablesTable">
<polygon fill="white" stroke="black" points="1182.5,-477 1182.5,-507 1349.5,-507 1349.5,-477 1182.5,-477"/>
<text text-anchor="start" x="1190.5" y="-495" font-family="Helvetica,sans-Serif" font-size="10.00">TableInformation.TurtleVariables</text>
<text text-anchor="middle" x="1266" y="-484" font-family="Helvetica,sans-Serif" font-size="10.00">Table.TurtleVariablesTable</text>
</a>
</g>
</g>
<!-- Node17&#45;&gt;Node18 -->
<g id="edge18" class="edge"><title>Node17&#45;&gt;Node18</title>
<path fill="none" stroke="midnightblue" d="M1148.79,-492C1159.96,-492 1171.3,-492 1182.31,-492"/>
<polygon fill="midnightblue" stroke="midnightblue" points="1148.6,-488.5 1138.6,-492 1148.6,-495.5 1148.6,-488.5"/>
</g>
<!-- Node20 -->
<g id="node20" class="node"><title>Node20</title>
<g id="a_node20"><a xlink:href="../../d5/d30/class_view_1_1_tabs_of_grids.html#addda546d87ab37b3c6d812b33c0118c9" target="_top" xlink:title="View.TabsOfGrids.setUpKey\lBoardHandler">
<polygon fill="white" stroke="black" points="771.5,-428 771.5,-458 916.5,-458 916.5,-428 771.5,-428"/>
<text text-anchor="start" x="779.5" y="-446" font-family="Helvetica,sans-Serif" font-size="10.00">View.TabsOfGrids.setUpKey</text>
<text text-anchor="middle" x="844" y="-435" font-family="Helvetica,sans-Serif" font-size="10.00">BoardHandler</text>
</a>
</g>
</g>
<!-- Node19&#45;&gt;Node20 -->
<g id="edge20" class="edge"><title>Node19&#45;&gt;Node20</title>
<path fill="none" stroke="midnightblue" d="M727.158,-451.232C741.801,-450.192 756.972,-449.114 771.321,-448.094"/>
<polygon fill="midnightblue" stroke="midnightblue" points="726.848,-447.746 717.122,-451.946 727.345,-454.728 726.848,-447.746"/>
</g>
<!-- Node21 -->
<g id="node21" class="node"><title>Node21</title>
<g id="a_node21"><a xlink:href="../../d5/d30/class_view_1_1_tabs_of_grids.html#aa186cd880ee36327ffc0d66951a23fb5" target="_top" xlink:title="View.TabsOfGrids.addTab">
<polygon fill="white" stroke="black" points="988,-433.5 988,-452.5 1122,-452.5 1122,-433.5 988,-433.5"/>
<text text-anchor="middle" x="1055" y="-440.5" font-family="Helvetica,sans-Serif" font-size="10.00">View.TabsOfGrids.addTab</text>
</a>
</g>
</g>
<!-- Node20&#45;&gt;Node21 -->
<g id="edge21" class="edge"><title>Node20&#45;&gt;Node21</title>
<path fill="none" stroke="midnightblue" d="M926.758,-443C946.965,-443 968.364,-443 987.731,-443"/>
<polygon fill="midnightblue" stroke="midnightblue" points="926.634,-439.5 916.634,-443 926.634,-446.5 926.634,-439.5"/>
</g>
<!-- Node22 -->
<g id="node22" class="node"><title>Node22</title>
<g id="a_node22"><a xlink:href="../../d6/d33/class_view_1_1_slogo_view.html#a5759fa529a24ab1e80d37348f3dd395b" target="_top" xlink:title="View.SlogoView.addGrid">
<polygon fill="white" stroke="black" points="1201.5,-433.5 1201.5,-452.5 1330.5,-452.5 1330.5,-433.5 1201.5,-433.5"/>
<text text-anchor="middle" x="1266" y="-440.5" font-family="Helvetica,sans-Serif" font-size="10.00">View.SlogoView.addGrid</text>
</a>
</g>
</g>
<!-- Node21&#45;&gt;Node22 -->
<g id="edge22" class="edge"><title>Node21&#45;&gt;Node22</title>
<path fill="none" stroke="midnightblue" d="M1132.4,-443C1155.08,-443 1179.67,-443 1201.44,-443"/>
<polygon fill="midnightblue" stroke="midnightblue" points="1132.13,-439.5 1122.13,-443 1132.13,-446.5 1132.13,-439.5"/>
</g>
<!-- Node23 -->
<g id="node23" class="node"><title>Node23</title>
<g id="a_node23"><a xlink:href="../../d6/d33/class_view_1_1_slogo_view.html#acfeff052503655d2ac419d2bf4ea9bd5" target="_top" xlink:title="View.SlogoView.initialize">
<polygon fill="white" stroke="black" points="1386,-433.5 1386,-452.5 1516,-452.5 1516,-433.5 1386,-433.5"/>
<text text-anchor="middle" x="1451" y="-440.5" font-family="Helvetica,sans-Serif" font-size="10.00">View.SlogoView.initialize</text>
</a>
</g>
</g>
<!-- Node22&#45;&gt;Node23 -->
<g id="edge23" class="edge"><title>Node22&#45;&gt;Node23</title>
<path fill="none" stroke="midnightblue" d="M1340.93,-443C1355.81,-443 1371.34,-443 1385.86,-443"/>
<polygon fill="midnightblue" stroke="midnightblue" points="1340.75,-439.5 1330.75,-443 1340.75,-446.5 1340.75,-439.5"/>
</g>
<!-- Node24 -->
<g id="node24" class="node"><title>Node24</title>
<g id="a_node24"><a xlink:href="../../db/d27/class_view_1_1_slogo.html#a6ab76a53160b61d8501aec91c55b85c8" target="_top" xlink:title="View.Slogo.start">
<polygon fill="white" stroke="black" points="1552.5,-433.5 1552.5,-452.5 1645.5,-452.5 1645.5,-433.5 1552.5,-433.5"/>
<text text-anchor="middle" x="1599" y="-440.5" font-family="Helvetica,sans-Serif" font-size="10.00">View.Slogo.start</text>
</a>
</g>
</g>
<!-- Node23&#45;&gt;Node24 -->
<g id="edge24" class="edge"><title>Node23&#45;&gt;Node24</title>
<path fill="none" stroke="midnightblue" d="M1526.14,-443C1535.11,-443 1544.05,-443 1552.43,-443"/>
<polygon fill="midnightblue" stroke="midnightblue" points="1526.04,-439.5 1516.04,-443 1526.04,-446.5 1526.04,-439.5"/>
</g>
<!-- Node26&#45;&gt;Node15 -->
<g id="edge27" class="edge"><title>Node26&#45;&gt;Node15</title>
<path fill="none" stroke="midnightblue" d="M512.717,-473.223C537.326,-477.305 563.928,-481.718 586.71,-485.497"/>
<polygon fill="midnightblue" stroke="midnightblue" points="513.112,-469.741 502.674,-471.557 511.966,-476.647 513.112,-469.741"/>
</g>
<!-- Node26&#45;&gt;Node19 -->
<g id="edge28" class="edge"><title>Node26&#45;&gt;Node19</title>
<path fill="none" stroke="midnightblue" d="M512.872,-458.864C532.625,-458.584 553.655,-458.285 572.956,-458.01"/>
<polygon fill="midnightblue" stroke="midnightblue" points="512.623,-455.367 502.674,-459.009 512.723,-462.367 512.623,-455.367"/>
</g>
<!-- Node29&#45;&gt;Node25 -->
<g id="edge34" class="edge"><title>Node29&#45;&gt;Node25</title>
<path fill="none" stroke="midnightblue" d="M239.176,-316.829C252.414,-344.096 277.528,-396.218 298,-441 314.548,-477.199 302.444,-498.743 334,-523 352.944,-537.563 491.606,-554.717 576.938,-564.066"/>
<polygon fill="midnightblue" stroke="midnightblue" points="242.24,-315.125 234.719,-307.663 235.944,-318.186 242.24,-315.125"/>
</g>
<!-- Node30 -->
<g id="node30" class="node"><title>Node30</title>
<g id="a_node30"><a xlink:href="../../d7/d28/classcommands_1_1information_1_1_base_turtle_container.html#aa12129a5802271b2ac4dd6142d77f917" target="_top" xlink:title="commands.information.Base\lTurtleContainer.move">
<polygon fill="white" stroke="black" points="354.5,-308 354.5,-338 509.5,-338 509.5,-308 354.5,-308"/>
<text text-anchor="start" x="362.5" y="-326" font-family="Helvetica,sans-Serif" font-size="10.00">commands.information.Base</text>
<text text-anchor="middle" x="432" y="-315" font-family="Helvetica,sans-Serif" font-size="10.00">TurtleContainer.move</text>
</a>
</g>
</g>
<!-- Node29&#45;&gt;Node30 -->
<g id="edge33" class="edge"><title>Node29&#45;&gt;Node30</title>
<path fill="none" stroke="midnightblue" d="M289.734,-305.43C310.053,-307.957 333.048,-310.817 354.495,-313.485"/>
<polygon fill="midnightblue" stroke="midnightblue" points="290.041,-301.941 279.685,-304.18 289.177,-308.887 290.041,-301.941"/>
</g>
<!-- Node31 -->
<g id="node31" class="node"><title>Node31</title>
<g id="a_node31"><a xlink:href="../../d0/d4f/class_view_1_1_turtle_movement.html#ad6ff133518a15c28187a623f058bc6bf" target="_top" xlink:title="View.TurtleMovement.Turtle\lMovement">
<polygon fill="white" stroke="black" points="359,-259 359,-289 505,-289 505,-259 359,-259"/>
<text text-anchor="start" x="367" y="-277" font-family="Helvetica,sans-Serif" font-size="10.00">View.TurtleMovement.Turtle</text>
<text text-anchor="middle" x="432" y="-266" font-family="Helvetica,sans-Serif" font-size="10.00">Movement</text>
</a>
</g>
</g>
<!-- Node29&#45;&gt;Node31 -->
<g id="edge35" class="edge"><title>Node29&#45;&gt;Node31</title>
<path fill="none" stroke="midnightblue" d="M289.73,-290.868C311.396,-288.281 336.107,-285.331 358.738,-282.628"/>
<polygon fill="midnightblue" stroke="midnightblue" points="289.2,-287.406 279.685,-292.067 290.03,-294.357 289.2,-287.406"/>
</g>
<!-- Node33 -->
<g id="node33" class="node"><title>Node33</title>
<g id="a_node33"><a xlink:href="../../d7/d28/classcommands_1_1information_1_1_base_turtle_container.html#afe6445eeeaaa24a41e6579a12baffa74" target="_top" xlink:title="commands.information.Base\lTurtleContainer.moveTowardsHeading">
<polygon fill="white" stroke="black" points="334.5,-24 334.5,-54 529.5,-54 529.5,-24 334.5,-24"/>
<text text-anchor="start" x="342.5" y="-42" font-family="Helvetica,sans-Serif" font-size="10.00">commands.information.Base</text>
<text text-anchor="middle" x="432" y="-31" font-family="Helvetica,sans-Serif" font-size="10.00">TurtleContainer.moveTowardsHeading</text>
</a>
</g>
</g>
<!-- Node32&#45;&gt;Node33 -->
<g id="edge37" class="edge"><title>Node32&#45;&gt;Node33</title>
<path fill="none" stroke="midnightblue" d="M308.137,-61.0053C320.871,-58.7247 334.109,-56.3536 346.977,-54.0489"/>
<polygon fill="midnightblue" stroke="midnightblue" points="307.276,-57.6038 298.049,-62.812 308.51,-64.4941 307.276,-57.6038"/>
</g>
<!-- Node34 -->
<g id="node34" class="node"><title>Node34</title>
<g id="a_node34"><a xlink:href="../../df/d1b/classcommands_1_1turtle_commands_1_1_back_command.html#a2f60b951011f138ae8916447519fe166" target="_top" xlink:title="commands.turtleCommands.\lBackCommand.onExecute">
<polygon fill="white" stroke="black" points="566,-0 566,-30 724,-30 724,-0 566,-0"/>
<text text-anchor="start" x="574" y="-18" font-family="Helvetica,sans-Serif" font-size="10.00">commands.turtleCommands.</text>
<text text-anchor="middle" x="645" y="-7" font-family="Helvetica,sans-Serif" font-size="10.00">BackCommand.onExecute</text>
</a>
</g>
</g>
<!-- Node33&#45;&gt;Node34 -->
<g id="edge38" class="edge"><title>Node33&#45;&gt;Node34</title>
<path fill="none" stroke="midnightblue" d="M539.538,-26.8819C548.397,-25.8743 557.245,-24.8678 565.834,-23.8909"/>
<polygon fill="midnightblue" stroke="midnightblue" points="539.087,-23.4106 529.546,-28.0184 539.878,-30.3658 539.087,-23.4106"/>
</g>
<!-- Node35 -->
<g id="node35" class="node"><title>Node35</title>
<g id="a_node35"><a xlink:href="../../da/db6/classcommands_1_1turtle_commands_1_1_forward_command.html#a804cd1b0300e3c10498b66ea5edeb18c" target="_top" xlink:title="commands.turtleCommands.\lForwardCommand.onExecute">
<polygon fill="white" stroke="black" points="566,-49 566,-79 724,-79 724,-49 566,-49"/>
<text text-anchor="start" x="574" y="-67" font-family="Helvetica,sans-Serif" font-size="10.00">commands.turtleCommands.</text>
<text text-anchor="middle" x="645" y="-56" font-family="Helvetica,sans-Serif" font-size="10.00">ForwardCommand.onExecute</text>
</a>
</g>
</g>
<!-- Node33&#45;&gt;Node35 -->
<g id="edge39" class="edge"><title>Node33&#45;&gt;Node35</title>
<path fill="none" stroke="midnightblue" d="M539.538,-51.623C548.397,-52.6726 557.245,-53.721 565.834,-54.7387"/>
<polygon fill="midnightblue" stroke="midnightblue" points="539.889,-48.1401 529.546,-50.4391 539.065,-55.0915 539.889,-48.1401"/>
</g>
<!-- Node36&#45;&gt;Node8 -->
<g id="edge44" class="edge"><title>Node36&#45;&gt;Node8</title>
<path fill="none" stroke="midnightblue" d="M295.364,-214.462C356.414,-221.079 449.896,-232.706 530,-249 558.54,-254.805 590.494,-263.708 613.293,-270.486"/>
<polygon fill="midnightblue" stroke="midnightblue" points="295.419,-210.947 285.103,-213.363 294.674,-217.908 295.419,-210.947"/>
</g>
<!-- Node36&#45;&gt;Node26 -->
<g id="edge45" class="edge"><title>Node36&#45;&gt;Node26</title>
<path fill="none" stroke="midnightblue" d="M250.592,-224.154C265.949,-237.306 286.227,-257.207 298,-279 331.82,-341.604 284.33,-384.049 334,-435 341.527,-442.721 351.097,-448.168 361.28,-451.99"/>
<polygon fill="midnightblue" stroke="midnightblue" points="252.585,-221.26 242.652,-217.574 248.118,-226.65 252.585,-221.26"/>
</g>
<!-- Node37 -->
<g id="node37" class="node"><title>Node37</title>
<g id="a_node37"><a xlink:href="../../d7/d28/classcommands_1_1information_1_1_base_turtle_container.html#a31569b501a1ccb408b65edde4e3719a8" target="_top" xlink:title="commands.information.Base\lTurtleContainer.setXPos">
<polygon fill="white" stroke="black" points="354.5,-122 354.5,-152 509.5,-152 509.5,-122 354.5,-122"/>
<text text-anchor="start" x="362.5" y="-140" font-family="Helvetica,sans-Serif" font-size="10.00">commands.information.Base</text>
<text text-anchor="middle" x="432" y="-129" font-family="Helvetica,sans-Serif" font-size="10.00">TurtleContainer.setXPos</text>
</a>
</g>
</g>
<!-- Node36&#45;&gt;Node37 -->
<g id="edge41" class="edge"><title>Node36&#45;&gt;Node37</title>
<path fill="none" stroke="midnightblue" d="M283.455,-195.229C288.472,-193.389 293.397,-191.319 298,-189 316.102,-179.879 315.764,-169.849 334,-161 341.101,-157.554 348.743,-154.575 356.508,-152.005"/>
<polygon fill="midnightblue" stroke="midnightblue" points="282.117,-191.986 273.752,-198.489 284.346,-198.622 282.117,-191.986"/>
</g>
<!-- Node38 -->
<g id="node38" class="node"><title>Node38</title>
<g id="a_node38"><a xlink:href="../../d3/d88/classmodel_1_1_slogo_model.html#a0ecb7b4d14308a155afdbe1313ec555f" target="_top" xlink:title="model.SlogoModel.hardSet\lTurtle">
<polygon fill="white" stroke="black" points="359,-73 359,-103 505,-103 505,-73 359,-73"/>
<text text-anchor="start" x="367" y="-91" font-family="Helvetica,sans-Serif" font-size="10.00">model.SlogoModel.hardSet</text>
<text text-anchor="middle" x="432" y="-80" font-family="Helvetica,sans-Serif" font-size="10.00">Turtle</text>
</a>
</g>
</g>
<!-- Node36&#45;&gt;Node38 -->
<g id="edge42" class="edge"><title>Node36&#45;&gt;Node38</title>
<path fill="none" stroke="midnightblue" d="M291.6,-193.656C293.849,-192.246 295.995,-190.699 298,-189 326.822,-164.577 304.816,-135.989 334,-112 341.237,-106.051 349.737,-101.544 358.645,-98.1357"/>
<polygon fill="midnightblue" stroke="midnightblue" points="289.719,-190.691 282.492,-198.438 292.973,-196.888 289.719,-190.691"/>
</g>
<!-- Node39 -->
<g id="node39" class="node"><title>Node39</title>
<g id="a_node39"><a xlink:href="../../dc/d79/class_table_information_1_1_x_column.html#a12d0f88571fd3a3361f7068dd433b9c3" target="_top" xlink:title="TableInformation.XColumn.do\lEditingFunction">
<polygon fill="white" stroke="black" points="354.5,-171 354.5,-201 509.5,-201 509.5,-171 354.5,-171"/>
<text text-anchor="start" x="362.5" y="-189" font-family="Helvetica,sans-Serif" font-size="10.00">TableInformation.XColumn.do</text>
<text text-anchor="middle" x="432" y="-178" font-family="Helvetica,sans-Serif" font-size="10.00">EditingFunction</text>
</a>
</g>
</g>
<!-- Node36&#45;&gt;Node39 -->
<g id="edge43" class="edge"><title>Node36&#45;&gt;Node39</title>
<path fill="none" stroke="midnightblue" d="M295.186,-200.865C314.103,-198.795 334.933,-196.515 354.477,-194.376"/>
<polygon fill="midnightblue" stroke="midnightblue" points="294.75,-197.392 285.19,-201.959 295.511,-204.35 294.75,-197.392"/>
</g>
</g>
</svg>
