<?xml version="1.0" encoding="UTF-8" standalone="no"?>
<!DOCTYPE svg PUBLIC "-//W3C//DTD SVG 1.1//EN"
 "http://www.w3.org/Graphics/SVG/1.1/DTD/svg11.dtd">
<!-- Generated by graphviz version 2.36.0 (20140111.2315)
 -->
<!-- Title: turtle.Position.setRotation Pages: 1 -->
<svg width="504pt" height="126pt"
 viewBox="0.00 0.00 504.00 126.00" xmlns="http://www.w3.org/2000/svg" xmlns:xlink="http://www.w3.org/1999/xlink">
<g id="graph0" class="graph" transform="scale(1 1) rotate(0) translate(4 122)">
<title>turtle.Position.setRotation</title>
<polygon fill="white" stroke="none" points="-4,4 -4,-122 500,-122 500,4 -4,4"/>
<!-- Node1 -->
<g id="node1" class="node"><title>Node1</title>
<polygon fill="#bfbfbf" stroke="black" points="0,-63.5 0,-82.5 140,-82.5 140,-63.5 0,-63.5"/>
<text text-anchor="middle" x="70" y="-70.5" font-family="Helvetica,sans-Serif" font-size="10.00">turtle.Position.setRotation</text>
</g>
<!-- Node2 -->
<g id="node2" class="node"><title>Node2</title>
<g id="a_node2"><a xlink:href="../../df/dcb/classturtle_1_1_turtle.html#aca56db74b372b6c3d51e512ea995aeae" target="_top" xlink:title="turtle.Turtle.setHeading">
<polygon fill="white" stroke="black" points="176,-82.5 176,-101.5 304,-101.5 304,-82.5 176,-82.5"/>
<text text-anchor="middle" x="240" y="-89.5" font-family="Helvetica,sans-Serif" font-size="10.00">turtle.Turtle.setHeading</text>
</a>
</g>
</g>
<!-- Node1&#45;&gt;Node2 -->
<g id="edge1" class="edge"><title>Node1&#45;&gt;Node2</title>
<path fill="none" stroke="midnightblue" d="M150.289,-81.9672C158.84,-82.9343 167.456,-83.9087 175.782,-84.8503"/>
<polygon fill="midnightblue" stroke="midnightblue" points="150.632,-78.4838 140.302,-80.8377 149.845,-85.4394 150.632,-78.4838"/>
</g>
<!-- Node3 -->
<g id="node3" class="node"><title>Node3</title>
<g id="a_node3"><a xlink:href="../../df/dcb/classturtle_1_1_turtle.html#a9283fc51ef8ae9028ac661fd81e92a00" target="_top" xlink:title="turtle.Turtle.setRotation">
<polygon fill="white" stroke="black" points="176,-44.5 176,-63.5 304,-63.5 304,-44.5 176,-44.5"/>
<text text-anchor="middle" x="240" y="-51.5" font-family="Helvetica,sans-Serif" font-size="10.00">turtle.Turtle.setRotation</text>
</a>
</g>
</g>
<!-- Node1&#45;&gt;Node3 -->
<g id="edge2" class="edge"><title>Node1&#45;&gt;Node3</title>
<path fill="none" stroke="midnightblue" d="M150.289,-64.0328C158.84,-63.0657 167.456,-62.0913 175.782,-61.1497"/>
<polygon fill="midnightblue" stroke="midnightblue" points="149.845,-60.5606 140.302,-65.1623 150.632,-67.5162 149.845,-60.5606"/>
</g>
<!-- Node4 -->
<g id="node4" class="node"><title>Node4</title>
<g id="a_node4"><a xlink:href="../../d7/d28/classcommands_1_1information_1_1_base_turtle_container.html#a908b5c21435a1b8bae56d8f3d83fc12e" target="_top" xlink:title="commands.information.Base\lTurtleContainer.setRotation">
<polygon fill="white" stroke="black" points="340.5,-88 340.5,-118 495.5,-118 495.5,-88 340.5,-88"/>
<text text-anchor="start" x="348.5" y="-106" font-family="Helvetica,sans-Serif" font-size="10.00">commands.information.Base</text>
<text text-anchor="middle" x="418" y="-95" font-family="Helvetica,sans-Serif" font-size="10.00">TurtleContainer.setRotation</text>
</a>
</g>
</g>
<!-- Node3&#45;&gt;Node4 -->
<g id="edge3" class="edge"><title>Node3&#45;&gt;Node4</title>
<path fill="none" stroke="midnightblue" d="M285.099,-66.2776C308.719,-72.8537 338.013,-81.0092 362.99,-87.963"/>
<polygon fill="midnightblue" stroke="midnightblue" points="285.925,-62.8744 275.352,-63.564 284.047,-69.6179 285.925,-62.8744"/>
</g>
<!-- Node5 -->
<g id="node5" class="node"><title>Node5</title>
<g id="a_node5"><a xlink:href="../../d3/d88/classmodel_1_1_slogo_model.html#a0ecb7b4d14308a155afdbe1313ec555f" target="_top" xlink:title="model.SlogoModel.hardSet\lTurtle">
<polygon fill="white" stroke="black" points="345,-39 345,-69 491,-69 491,-39 345,-39"/>
<text text-anchor="start" x="353" y="-57" font-family="Helvetica,sans-Serif" font-size="10.00">model.SlogoModel.hardSet</text>
<text text-anchor="middle" x="418" y="-46" font-family="Helvetica,sans-Serif" font-size="10.00">Turtle</text>
</a>
</g>
</g>
<!-- Node3&#45;&gt;Node5 -->
<g id="edge4" class="edge"><title>Node3&#45;&gt;Node5</title>
<path fill="none" stroke="midnightblue" d="M314.088,-54C324.246,-54 334.676,-54 344.817,-54"/>
<polygon fill="midnightblue" stroke="midnightblue" points="314.043,-50.5001 304.043,-54 314.043,-57.5001 314.043,-50.5001"/>
</g>
<!-- Node6 -->
<g id="node6" class="node"><title>Node6</title>
<g id="a_node6"><a xlink:href="../../df/dcb/classturtle_1_1_turtle.html#a5f1e98a10bb09ba8a75ec2c1dffdeb06" target="_top" xlink:title="turtle.Turtle.towardsPosition">
<polygon fill="white" stroke="black" points="343.5,-0.5 343.5,-19.5 492.5,-19.5 492.5,-0.5 343.5,-0.5"/>
<text text-anchor="middle" x="418" y="-7.5" font-family="Helvetica,sans-Serif" font-size="10.00">turtle.Turtle.towardsPosition</text>
</a>
</g>
</g>
<!-- Node3&#45;&gt;Node6 -->
<g id="edge5" class="edge"><title>Node3&#45;&gt;Node6</title>
<path fill="none" stroke="midnightblue" d="M289.247,-41.9383C317.474,-34.8815 352.61,-26.0976 378.885,-19.5287"/>
<polygon fill="midnightblue" stroke="midnightblue" points="288.042,-38.6317 279.189,-44.4527 289.74,-45.4227 288.042,-38.6317"/>
</g>
</g>
</svg>
