<?xml version="1.0" encoding="UTF-8" standalone="no"?>
<!DOCTYPE svg PUBLIC "-//W3C//DTD SVG 1.1//EN"
 "http://www.w3.org/Graphics/SVG/1.1/DTD/svg11.dtd">
<!-- Generated by graphviz version 2.36.0 (20140111.2315)
 -->
<!-- Title: turtle.Position.getRotate Pages: 1 -->
<!--zoomable 499 -->
<svg id="main" version="1.1" xmlns="http://www.w3.org/2000/svg" xmlns:xlink="http://www.w3.org/1999/xlink" xml:space="preserve" onload="init(evt)">
<style type="text/css"><![CDATA[
.edge:hover path { stroke: red; }
.edge:hover polygon { stroke: red; fill: red; }
]]></style>
<script type="text/javascript"><![CDATA[
var edges = document.getElementsByTagName('g');
if (edges && edges.length) {
  for (var i=0;i<edges.length;i++) {
    if (edges[i].id.substr(0,4)=='edge') {
      edges[i].setAttribute('class','edge');
    }
  }
}
]]></script>
        <defs>
                <circle id="rim" cx="0" cy="0" r="7"/>
                <circle id="rim2" cx="0" cy="0" r="3.5"/>
                <g id="zoomPlus">
                        <use xlink:href="#rim" fill="#404040">
                                <set attributeName="fill" to="#808080" begin="zoomplus.mouseover" end="zoomplus.mouseout"/>
                        </use>
                        <path d="M-4,0h8M0,-4v8" fill="none" stroke="white" stroke-width="1.5" pointer-events="none"/>
                </g>
                <g id="zoomMin">
                        <use xlink:href="#rim" fill="#404040">
                                <set attributeName="fill" to="#808080" begin="zoomminus.mouseover" end="zoomminus.mouseout"/>
                        </use>
                        <path d="M-4,0h8" fill="none" stroke="white" stroke-width="1.5" pointer-events="none"/>
                </g>
                <g id="dirArrow">
                        <path fill="none" stroke="white" stroke-width="1.5" d="M0,-3.0v7 M-2.5,-0.5L0,-3.0L2.5,-0.5"/>
                </g>
               <g id="resetDef">
                       <use xlink:href="#rim2" fill="#404040">
                               <set attributeName="fill" to="#808080" begin="reset.mouseover" end="reset.mouseout"/>
                       </use>
               </g>
        </defs>

<script type="text/javascript">
var viewWidth = 1668;
var viewHeight = 499;
var sectionId = 'dynsection-0';
</script>
<script xlink:href="../../svgpan.js"/>
<svg id="graph" class="graph">
<g id="viewport">
<title>turtle.Position.getRotate</title>
<polygon fill="white" stroke="none" points="-4,4 -4,-495 1664,-495 1664,4 -4,4"/>
<!-- Node1 -->
<g id="node1" class="node"><title>Node1</title>
<polygon fill="#bfbfbf" stroke="black" points="0,-217.5 0,-236.5 132,-236.5 132,-217.5 0,-217.5"/>
<text text-anchor="middle" x="66" y="-224.5" font-family="Helvetica,sans-Serif" font-size="10.00">turtle.Position.getRotate</text>
</g>
<!-- Node2 -->
<g id="node2" class="node"><title>Node2</title>
<g id="a_node2"><a xlink:href="../../df/dcb/classturtle_1_1_turtle.html#af4afc304cb9394e02381563fad7c34ce" target="_top" xlink:title="turtle.Turtle.getOrientation">
<polygon fill="white" stroke="black" points="168.5,-305.5 168.5,-324.5 311.5,-324.5 311.5,-305.5 168.5,-305.5"/>
<text text-anchor="middle" x="240" y="-312.5" font-family="Helvetica,sans-Serif" font-size="10.00">turtle.Turtle.getOrientation</text>
</a>
</g>
</g>
<!-- Node1&#45;&gt;Node2 -->
<g id="edge1" class="edge"><title>Node1&#45;&gt;Node2</title>
<path fill="none" stroke="midnightblue" d="M95.0019,-241.327C130.315,-259.394 190.061,-289.962 220.289,-305.427"/>
<polygon fill="midnightblue" stroke="midnightblue" points="96.2311,-238.024 85.7344,-236.585 93.0427,-244.256 96.2311,-238.024"/>
</g>
<!-- Node16 -->
<g id="node16" class="node"><title>Node16</title>
<g id="a_node16"><a xlink:href="../../df/dcb/classturtle_1_1_turtle.html#a81e35bc42c3ccb26e25ded71026cb173" target="_top" xlink:title="turtle.Turtle.move">
<polygon fill="white" stroke="black" points="189.5,-395.5 189.5,-414.5 290.5,-414.5 290.5,-395.5 189.5,-395.5"/>
<text text-anchor="middle" x="240" y="-402.5" font-family="Helvetica,sans-Serif" font-size="10.00">turtle.Turtle.move</text>
</a>
</g>
</g>
<!-- Node1&#45;&gt;Node16 -->
<g id="edge16" class="edge"><title>Node1&#45;&gt;Node16</title>
<path fill="none" stroke="midnightblue" d="M82.8506,-244.094C102.614,-265.338 137.513,-302.621 168,-334 189.622,-356.255 215.502,-381.887 229.265,-395.441"/>
<polygon fill="midnightblue" stroke="midnightblue" points="85.1969,-241.478 75.8262,-236.534 80.0687,-246.242 85.1969,-241.478"/>
</g>
<!-- Node19 -->
<g id="node19" class="node"><title>Node19</title>
<g id="a_node19"><a xlink:href="../../df/dcb/classturtle_1_1_turtle.html#aa1a46a871ec163cdff79e9055f8b0519" target="_top" xlink:title="turtle.Turtle.moveTowards\lHeading">
<polygon fill="white" stroke="black" points="171,-102 171,-132 309,-132 309,-102 171,-102"/>
<text text-anchor="start" x="179" y="-120" font-family="Helvetica,sans-Serif" font-size="10.00">turtle.Turtle.moveTowards</text>
<text text-anchor="middle" x="240" y="-109" font-family="Helvetica,sans-Serif" font-size="10.00">Heading</text>
</a>
</g>
</g>
<!-- Node1&#45;&gt;Node19 -->
<g id="edge20" class="edge"><title>Node1&#45;&gt;Node19</title>
<path fill="none" stroke="midnightblue" d="M90.4618,-211.995C123.228,-191.04 182.363,-153.221 215.272,-132.175"/>
<polygon fill="midnightblue" stroke="midnightblue" points="88.5018,-209.094 81.963,-217.431 92.2732,-214.991 88.5018,-209.094"/>
</g>
<!-- Node23 -->
<g id="node23" class="node"><title>Node23</title>
<g id="a_node23"><a xlink:href="../../df/dcb/classturtle_1_1_turtle.html#aca56db74b372b6c3d51e512ea995aeae" target="_top" xlink:title="turtle.Turtle.setHeading">
<polygon fill="white" stroke="black" points="176,-179.5 176,-198.5 304,-198.5 304,-179.5 176,-179.5"/>
<text text-anchor="middle" x="240" y="-186.5" font-family="Helvetica,sans-Serif" font-size="10.00">turtle.Turtle.setHeading</text>
</a>
</g>
</g>
<!-- Node1&#45;&gt;Node23 -->
<g id="edge24" class="edge"><title>Node1&#45;&gt;Node23</title>
<path fill="none" stroke="midnightblue" d="M120.196,-215.247C144.517,-209.874 172.955,-203.591 195.909,-198.52"/>
<polygon fill="midnightblue" stroke="midnightblue" points="119.412,-211.836 110.403,-217.411 120.922,-218.671 119.412,-211.836"/>
</g>
<!-- Node24 -->
<g id="node24" class="node"><title>Node24</title>
<g id="a_node24"><a xlink:href="../../df/dcb/classturtle_1_1_turtle.html#a5db281fc734edd965ff0faddbab871d7" target="_top" xlink:title="turtle.Turtle.setXPos">
<polygon fill="white" stroke="black" points="184,-217.5 184,-236.5 296,-236.5 296,-217.5 184,-217.5"/>
<text text-anchor="middle" x="240" y="-224.5" font-family="Helvetica,sans-Serif" font-size="10.00">turtle.Turtle.setXPos</text>
</a>
</g>
</g>
<!-- Node1&#45;&gt;Node24 -->
<g id="edge25" class="edge"><title>Node1&#45;&gt;Node24</title>
<path fill="none" stroke="midnightblue" d="M142.172,-227C156.233,-227 170.685,-227 183.994,-227"/>
<polygon fill="midnightblue" stroke="midnightblue" points="142.026,-223.5 132.026,-227 142.026,-230.5 142.026,-223.5"/>
</g>
<!-- Node3 -->
<g id="node3" class="node"><title>Node3</title>
<g id="a_node3"><a xlink:href="../../d9/db1/class_view_1_1_single_grid.html#a7fced187abf44b802950675ee590f493" target="_top" xlink:title="View.SingleGrid.moveTurtle">
<polygon fill="white" stroke="black" points="373.5,-335.5 373.5,-354.5 518.5,-354.5 518.5,-335.5 373.5,-335.5"/>
<text text-anchor="middle" x="446" y="-342.5" font-family="Helvetica,sans-Serif" font-size="10.00">View.SingleGrid.moveTurtle</text>
</a>
</g>
</g>
<!-- Node2&#45;&gt;Node3 -->
<g id="edge2" class="edge"><title>Node2&#45;&gt;Node3</title>
<path fill="none" stroke="midnightblue" d="M315.748,-325.992C336.932,-329.108 359.808,-332.472 380.341,-335.491"/>
<polygon fill="midnightblue" stroke="midnightblue" points="316.23,-322.526 305.827,-324.533 315.212,-329.451 316.23,-322.526"/>
</g>
<!-- Node4 -->
<g id="node4" class="node"><title>Node4</title>
<g id="a_node4"><a xlink:href="../../d1/de7/class_g_u_i_functions_1_1_undo.html#a611c153735c5cbdbbfd8f55faa0adaae" target="_top" xlink:title="GUIFunctions.Undo.doAction">
<polygon fill="white" stroke="black" points="789,-338.5 789,-357.5 941,-357.5 941,-338.5 789,-338.5"/>
<text text-anchor="middle" x="865" y="-345.5" font-family="Helvetica,sans-Serif" font-size="10.00">GUIFunctions.Undo.doAction</text>
</a>
</g>
</g>
<!-- Node3&#45;&gt;Node4 -->
<g id="edge3" class="edge"><title>Node3&#45;&gt;Node4</title>
<path fill="none" stroke="midnightblue" d="M529.088,-345.591C604.534,-346.133 715.453,-346.931 788.68,-347.458"/>
<polygon fill="midnightblue" stroke="midnightblue" points="528.71,-342.088 518.685,-345.516 528.659,-349.088 528.71,-342.088"/>
</g>
<!-- Node5 -->
<g id="node5" class="node"><title>Node5</title>
<g id="a_node5"><a xlink:href="../../d9/db1/class_view_1_1_single_grid.html#aa718e560e84ad31be3e046029d0226ab" target="_top" xlink:title="View.SingleGrid.update">
<polygon fill="white" stroke="black" points="596,-297.5 596,-316.5 722,-316.5 722,-297.5 596,-297.5"/>
<text text-anchor="middle" x="659" y="-304.5" font-family="Helvetica,sans-Serif" font-size="10.00">View.SingleGrid.update</text>
</a>
</g>
</g>
<!-- Node3&#45;&gt;Node5 -->
<g id="edge4" class="edge"><title>Node3&#45;&gt;Node5</title>
<path fill="none" stroke="midnightblue" d="M510.005,-333.653C540.279,-328.201 576.158,-321.739 605.006,-316.544"/>
<polygon fill="midnightblue" stroke="midnightblue" points="509.193,-330.243 499.972,-335.46 510.434,-337.132 509.193,-330.243"/>
</g>
<!-- Node9 -->
<g id="node9" class="node"><title>Node9</title>
<g id="a_node9"><a xlink:href="../../d9/db1/class_view_1_1_single_grid.html#a4c6eabf92c3205a22dc266cf0923f836" target="_top" xlink:title="View.SingleGrid.keyUpdate">
<polygon fill="white" stroke="black" points="587,-259.5 587,-278.5 731,-278.5 731,-259.5 587,-259.5"/>
<text text-anchor="middle" x="659" y="-266.5" font-family="Helvetica,sans-Serif" font-size="10.00">View.SingleGrid.keyUpdate</text>
</a>
</g>
</g>
<!-- Node3&#45;&gt;Node9 -->
<g id="edge9" class="edge"><title>Node3&#45;&gt;Node9</title>
<path fill="none" stroke="midnightblue" d="M527.778,-332.293C533.412,-330.218 538.88,-327.805 544,-325 564.122,-313.976 560.078,-299.381 580,-288 586.777,-284.128 594.322,-281.042 601.974,-278.581"/>
<polygon fill="midnightblue" stroke="midnightblue" points="526.563,-329.009 518.172,-335.477 528.766,-335.653 526.563,-329.009"/>
</g>
<!-- Node15 -->
<g id="node15" class="node"><title>Node15</title>
<g id="a_node15"><a xlink:href="../../d9/db1/class_view_1_1_single_grid.html#ace412ccdbcf0cdf6a20ac1e4102a15b5" target="_top" xlink:title="View.SingleGrid.addTurtle">
<polygon fill="white" stroke="black" points="591,-373.5 591,-392.5 727,-392.5 727,-373.5 591,-373.5"/>
<text text-anchor="middle" x="659" y="-380.5" font-family="Helvetica,sans-Serif" font-size="10.00">View.SingleGrid.addTurtle</text>
</a>
</g>
</g>
<!-- Node3&#45;&gt;Node15 -->
<g id="edge15" class="edge"><title>Node3&#45;&gt;Node15</title>
<path fill="none" stroke="midnightblue" d="M510.005,-356.347C540.279,-361.799 576.158,-368.261 605.006,-373.456"/>
<polygon fill="midnightblue" stroke="midnightblue" points="510.434,-352.868 499.972,-354.54 509.193,-359.757 510.434,-352.868"/>
</g>
<!-- Node5&#45;&gt;Node4 -->
<g id="edge5" class="edge"><title>Node5&#45;&gt;Node4</title>
<path fill="none" stroke="midnightblue" d="M717.222,-318.501C748.562,-324.799 786.938,-332.512 816.589,-338.471"/>
<polygon fill="midnightblue" stroke="midnightblue" points="717.808,-315.048 707.314,-316.509 716.429,-321.911 717.808,-315.048"/>
</g>
<!-- Node6 -->
<g id="node6" class="node"><title>Node6</title>
<g id="a_node6"><a xlink:href="../../d3/d42/class_table_information_1_1_turtle_variables_table.html#a12ef059be78468fe0f09b5bf41d11d4c" target="_top" xlink:title="TableInformation.TurtleVariables\lTable.moveTurtle">
<polygon fill="white" stroke="black" points="781.5,-289 781.5,-319 948.5,-319 948.5,-289 781.5,-289"/>
<text text-anchor="start" x="789.5" y="-307" font-family="Helvetica,sans-Serif" font-size="10.00">TableInformation.TurtleVariables</text>
<text text-anchor="middle" x="865" y="-296" font-family="Helvetica,sans-Serif" font-size="10.00">Table.moveTurtle</text>
</a>
</g>
</g>
<!-- Node5&#45;&gt;Node6 -->
<g id="edge6" class="edge"><title>Node5&#45;&gt;Node6</title>
<path fill="none" stroke="midnightblue" d="M732.272,-305.937C748.102,-305.704 764.979,-305.456 781.186,-305.218"/>
<polygon fill="midnightblue" stroke="midnightblue" points="731.985,-302.441 722.038,-306.088 732.088,-309.44 731.985,-302.441"/>
</g>
<!-- Node7 -->
<g id="node7" class="node"><title>Node7</title>
<g id="a_node7"><a xlink:href="../../d3/d42/class_table_information_1_1_turtle_variables_table.html#a3a32e6fd761411925b48c0fa60c29431" target="_top" xlink:title="TableInformation.TurtleVariables\lTable.setColumnEditable">
<polygon fill="white" stroke="black" points="992.5,-289 992.5,-319 1159.5,-319 1159.5,-289 992.5,-289"/>
<text text-anchor="start" x="1000.5" y="-307" font-family="Helvetica,sans-Serif" font-size="10.00">TableInformation.TurtleVariables</text>
<text text-anchor="middle" x="1076" y="-296" font-family="Helvetica,sans-Serif" font-size="10.00">Table.setColumnEditable</text>
</a>
</g>
</g>
<!-- Node6&#45;&gt;Node7 -->
<g id="edge7" class="edge"><title>Node6&#45;&gt;Node7</title>
<path fill="none" stroke="midnightblue" d="M958.791,-304C969.958,-304 981.304,-304 992.313,-304"/>
<polygon fill="midnightblue" stroke="midnightblue" points="958.602,-300.5 948.602,-304 958.602,-307.5 958.602,-300.5"/>
</g>
<!-- Node8 -->
<g id="node8" class="node"><title>Node8</title>
<g id="a_node8"><a xlink:href="../../d3/d42/class_table_information_1_1_turtle_variables_table.html#a6bac7fbbffde239e6438ea163f812b08" target="_top" xlink:title="TableInformation.TurtleVariables\lTable.TurtleVariablesTable">
<polygon fill="white" stroke="black" points="1196.5,-289 1196.5,-319 1363.5,-319 1363.5,-289 1196.5,-289"/>
<text text-anchor="start" x="1204.5" y="-307" font-family="Helvetica,sans-Serif" font-size="10.00">TableInformation.TurtleVariables</text>
<text text-anchor="middle" x="1280" y="-296" font-family="Helvetica,sans-Serif" font-size="10.00">Table.TurtleVariablesTable</text>
</a>
</g>
</g>
<!-- Node7&#45;&gt;Node8 -->
<g id="edge8" class="edge"><title>Node7&#45;&gt;Node8</title>
<path fill="none" stroke="midnightblue" d="M1170.02,-304C1178.82,-304 1187.69,-304 1196.38,-304"/>
<polygon fill="midnightblue" stroke="midnightblue" points="1169.74,-300.5 1159.74,-304 1169.74,-307.5 1169.74,-300.5"/>
</g>
<!-- Node10 -->
<g id="node10" class="node"><title>Node10</title>
<g id="a_node10"><a xlink:href="../../d5/d30/class_view_1_1_tabs_of_grids.html#addda546d87ab37b3c6d812b33c0118c9" target="_top" xlink:title="View.TabsOfGrids.setUpKey\lBoardHandler">
<polygon fill="white" stroke="black" points="792.5,-240 792.5,-270 937.5,-270 937.5,-240 792.5,-240"/>
<text text-anchor="start" x="800.5" y="-258" font-family="Helvetica,sans-Serif" font-size="10.00">View.TabsOfGrids.setUpKey</text>
<text text-anchor="middle" x="865" y="-247" font-family="Helvetica,sans-Serif" font-size="10.00">BoardHandler</text>
</a>
</g>
</g>
<!-- Node9&#45;&gt;Node10 -->
<g id="edge10" class="edge"><title>Node9&#45;&gt;Node10</title>
<path fill="none" stroke="midnightblue" d="M741.396,-263.414C758.18,-262.262 775.74,-261.057 792.156,-259.93"/>
<polygon fill="midnightblue" stroke="midnightblue" points="740.8,-259.947 731.063,-264.123 741.279,-266.93 740.8,-259.947"/>
</g>
<!-- Node11 -->
<g id="node11" class="node"><title>Node11</title>
<g id="a_node11"><a xlink:href="../../d5/d30/class_view_1_1_tabs_of_grids.html#aa186cd880ee36327ffc0d66951a23fb5" target="_top" xlink:title="View.TabsOfGrids.addTab">
<polygon fill="white" stroke="black" points="1009,-245.5 1009,-264.5 1143,-264.5 1143,-245.5 1009,-245.5"/>
<text text-anchor="middle" x="1076" y="-252.5" font-family="Helvetica,sans-Serif" font-size="10.00">View.TabsOfGrids.addTab</text>
</a>
</g>
</g>
<!-- Node10&#45;&gt;Node11 -->
<g id="edge11" class="edge"><title>Node10&#45;&gt;Node11</title>
<path fill="none" stroke="midnightblue" d="M947.758,-255C967.965,-255 989.364,-255 1008.73,-255"/>
<polygon fill="midnightblue" stroke="midnightblue" points="947.634,-251.5 937.634,-255 947.634,-258.5 947.634,-251.5"/>
</g>
<!-- Node12 -->
<g id="node12" class="node"><title>Node12</title>
<g id="a_node12"><a xlink:href="../../d6/d33/class_view_1_1_slogo_view.html#a5759fa529a24ab1e80d37348f3dd395b" target="_top" xlink:title="View.SlogoView.addGrid">
<polygon fill="white" stroke="black" points="1215.5,-245.5 1215.5,-264.5 1344.5,-264.5 1344.5,-245.5 1215.5,-245.5"/>
<text text-anchor="middle" x="1280" y="-252.5" font-family="Helvetica,sans-Serif" font-size="10.00">View.SlogoView.addGrid</text>
</a>
</g>
</g>
<!-- Node11&#45;&gt;Node12 -->
<g id="edge12" class="edge"><title>Node11&#45;&gt;Node12</title>
<path fill="none" stroke="midnightblue" d="M1153.38,-255C1173.85,-255 1195.76,-255 1215.46,-255"/>
<polygon fill="midnightblue" stroke="midnightblue" points="1153.14,-251.5 1143.14,-255 1153.14,-258.5 1153.14,-251.5"/>
</g>
<!-- Node13 -->
<g id="node13" class="node"><title>Node13</title>
<g id="a_node13"><a xlink:href="../../d6/d33/class_view_1_1_slogo_view.html#acfeff052503655d2ac419d2bf4ea9bd5" target="_top" xlink:title="View.SlogoView.initialize">
<polygon fill="white" stroke="black" points="1400,-245.5 1400,-264.5 1530,-264.5 1530,-245.5 1400,-245.5"/>
<text text-anchor="middle" x="1465" y="-252.5" font-family="Helvetica,sans-Serif" font-size="10.00">View.SlogoView.initialize</text>
</a>
</g>
</g>
<!-- Node12&#45;&gt;Node13 -->
<g id="edge13" class="edge"><title>Node12&#45;&gt;Node13</title>
<path fill="none" stroke="midnightblue" d="M1354.93,-255C1369.81,-255 1385.34,-255 1399.86,-255"/>
<polygon fill="midnightblue" stroke="midnightblue" points="1354.75,-251.5 1344.75,-255 1354.75,-258.5 1354.75,-251.5"/>
</g>
<!-- Node14 -->
<g id="node14" class="node"><title>Node14</title>
<g id="a_node14"><a xlink:href="../../db/d27/class_view_1_1_slogo.html#a6ab76a53160b61d8501aec91c55b85c8" target="_top" xlink:title="View.Slogo.start">
<polygon fill="white" stroke="black" points="1566.5,-245.5 1566.5,-264.5 1659.5,-264.5 1659.5,-245.5 1566.5,-245.5"/>
<text text-anchor="middle" x="1613" y="-252.5" font-family="Helvetica,sans-Serif" font-size="10.00">View.Slogo.start</text>
</a>
</g>
</g>
<!-- Node13&#45;&gt;Node14 -->
<g id="edge14" class="edge"><title>Node13&#45;&gt;Node14</title>
<path fill="none" stroke="midnightblue" d="M1540.14,-255C1549.11,-255 1558.05,-255 1566.43,-255"/>
<polygon fill="midnightblue" stroke="midnightblue" points="1540.04,-251.5 1530.04,-255 1540.04,-258.5 1540.04,-251.5"/>
</g>
<!-- Node16&#45;&gt;Node15 -->
<g id="edge18" class="edge"><title>Node16&#45;&gt;Node15</title>
<path fill="none" stroke="midnightblue" d="M300.887,-401.841C377.726,-397.787 510.643,-390.774 590.841,-386.543"/>
<polygon fill="midnightblue" stroke="midnightblue" points="300.687,-398.346 290.886,-402.368 301.056,-405.336 300.687,-398.346"/>
</g>
<!-- Node17 -->
<g id="node17" class="node"><title>Node17</title>
<g id="a_node17"><a xlink:href="../../d7/d28/classcommands_1_1information_1_1_base_turtle_container.html#aa12129a5802271b2ac4dd6142d77f917" target="_top" xlink:title="commands.information.Base\lTurtleContainer.move">
<polygon fill="white" stroke="black" points="368.5,-412 368.5,-442 523.5,-442 523.5,-412 368.5,-412"/>
<text text-anchor="start" x="376.5" y="-430" font-family="Helvetica,sans-Serif" font-size="10.00">commands.information.Base</text>
<text text-anchor="middle" x="446" y="-419" font-family="Helvetica,sans-Serif" font-size="10.00">TurtleContainer.move</text>
</a>
</g>
</g>
<!-- Node16&#45;&gt;Node17 -->
<g id="edge17" class="edge"><title>Node16&#45;&gt;Node17</title>
<path fill="none" stroke="midnightblue" d="M300.772,-411.446C321.929,-413.728 346.029,-416.327 368.391,-418.738"/>
<polygon fill="midnightblue" stroke="midnightblue" points="300.961,-407.946 290.643,-410.354 300.21,-414.906 300.961,-407.946"/>
</g>
<!-- Node18 -->
<g id="node18" class="node"><title>Node18</title>
<g id="a_node18"><a xlink:href="../../d0/d4f/class_view_1_1_turtle_movement.html#ad6ff133518a15c28187a623f058bc6bf" target="_top" xlink:title="View.TurtleMovement.Turtle\lMovement">
<polygon fill="white" stroke="black" points="373,-461 373,-491 519,-491 519,-461 373,-461"/>
<text text-anchor="start" x="381" y="-479" font-family="Helvetica,sans-Serif" font-size="10.00">View.TurtleMovement.Turtle</text>
<text text-anchor="middle" x="446" y="-468" font-family="Helvetica,sans-Serif" font-size="10.00">Movement</text>
</a>
</g>
</g>
<!-- Node16&#45;&gt;Node18 -->
<g id="edge19" class="edge"><title>Node16&#45;&gt;Node18</title>
<path fill="none" stroke="midnightblue" d="M269.885,-418.856C291.152,-428.701 320.952,-441.762 348,-451 358.533,-454.597 369.861,-457.959 380.93,-460.977"/>
<polygon fill="midnightblue" stroke="midnightblue" points="271.296,-415.652 260.755,-414.584 268.329,-421.992 271.296,-415.652"/>
</g>
<!-- Node20 -->
<g id="node20" class="node"><title>Node20</title>
<g id="a_node20"><a xlink:href="../../d7/d28/classcommands_1_1information_1_1_base_turtle_container.html#afe6445eeeaaa24a41e6579a12baffa74" target="_top" xlink:title="commands.information.Base\lTurtleContainer.moveTowardsHeading">
<polygon fill="white" stroke="black" points="348.5,-49 348.5,-79 543.5,-79 543.5,-49 348.5,-49"/>
<text text-anchor="start" x="356.5" y="-67" font-family="Helvetica,sans-Serif" font-size="10.00">commands.information.Base</text>
<text text-anchor="middle" x="446" y="-56" font-family="Helvetica,sans-Serif" font-size="10.00">TurtleContainer.moveTowardsHeading</text>
</a>
</g>
</g>
<!-- Node19&#45;&gt;Node20 -->
<g id="edge21" class="edge"><title>Node19&#45;&gt;Node20</title>
<path fill="none" stroke="midnightblue" d="M308.805,-99.384C334.111,-92.8094 362.592,-85.4099 386.943,-79.0835"/>
<polygon fill="midnightblue" stroke="midnightblue" points="307.711,-96.0519 298.913,-101.954 309.471,-102.827 307.711,-96.0519"/>
</g>
<!-- Node21 -->
<g id="node21" class="node"><title>Node21</title>
<g id="a_node21"><a xlink:href="../../df/d1b/classcommands_1_1turtle_commands_1_1_back_command.html#a2f60b951011f138ae8916447519fe166" target="_top" xlink:title="commands.turtleCommands.\lBackCommand.onExecute">
<polygon fill="white" stroke="black" points="580,-49 580,-79 738,-79 738,-49 580,-49"/>
<text text-anchor="start" x="588" y="-67" font-family="Helvetica,sans-Serif" font-size="10.00">commands.turtleCommands.</text>
<text text-anchor="middle" x="659" y="-56" font-family="Helvetica,sans-Serif" font-size="10.00">BackCommand.onExecute</text>
</a>
</g>
</g>
<!-- Node20&#45;&gt;Node21 -->
<g id="edge22" class="edge"><title>Node20&#45;&gt;Node21</title>
<path fill="none" stroke="midnightblue" d="M553.824,-64C562.587,-64 571.338,-64 579.834,-64"/>
<polygon fill="midnightblue" stroke="midnightblue" points="553.546,-60.5001 543.546,-64 553.546,-67.5001 553.546,-60.5001"/>
</g>
<!-- Node22 -->
<g id="node22" class="node"><title>Node22</title>
<g id="a_node22"><a xlink:href="../../da/db6/classcommands_1_1turtle_commands_1_1_forward_command.html#a804cd1b0300e3c10498b66ea5edeb18c" target="_top" xlink:title="commands.turtleCommands.\lForwardCommand.onExecute">
<polygon fill="white" stroke="black" points="580,-0 580,-30 738,-30 738,-0 580,-0"/>
<text text-anchor="start" x="588" y="-18" font-family="Helvetica,sans-Serif" font-size="10.00">commands.turtleCommands.</text>
<text text-anchor="middle" x="659" y="-7" font-family="Helvetica,sans-Serif" font-size="10.00">ForwardCommand.onExecute</text>
</a>
</g>
</g>
<!-- Node20&#45;&gt;Node22 -->
<g id="edge23" class="edge"><title>Node20&#45;&gt;Node22</title>
<path fill="none" stroke="midnightblue" d="M521.629,-46.6691C545.055,-41.2288 570.709,-35.2715 593.382,-30.0062"/>
<polygon fill="midnightblue" stroke="midnightblue" points="520.69,-43.294 511.741,-48.9654 522.273,-50.1125 520.69,-43.294"/>
</g>
<!-- Node25 -->
<g id="node25" class="node"><title>Node25</title>
<g id="a_node25"><a xlink:href="../../d7/d28/classcommands_1_1information_1_1_base_turtle_container.html#a31569b501a1ccb408b65edde4e3719a8" target="_top" xlink:title="commands.information.Base\lTurtleContainer.setXPos">
<polygon fill="white" stroke="black" points="368.5,-237 368.5,-267 523.5,-267 523.5,-237 368.5,-237"/>
<text text-anchor="start" x="376.5" y="-255" font-family="Helvetica,sans-Serif" font-size="10.00">commands.information.Base</text>
<text text-anchor="middle" x="446" y="-244" font-family="Helvetica,sans-Serif" font-size="10.00">TurtleContainer.setXPos</text>
</a>
</g>
</g>
<!-- Node24&#45;&gt;Node25 -->
<g id="edge26" class="edge"><title>Node24&#45;&gt;Node25</title>
<path fill="none" stroke="midnightblue" d="M306.314,-235.004C326.05,-237.423 347.9,-240.101 368.308,-242.601"/>
<polygon fill="midnightblue" stroke="midnightblue" points="306.557,-231.508 296.205,-233.765 305.705,-238.456 306.557,-231.508"/>
</g>
<!-- Node26 -->
<g id="node26" class="node"><title>Node26</title>
<g id="a_node26"><a xlink:href="../../d3/d88/classmodel_1_1_slogo_model.html#a0ecb7b4d14308a155afdbe1313ec555f" target="_top" xlink:title="model.SlogoModel.hardSet\lTurtle">
<polygon fill="white" stroke="black" points="373,-188 373,-218 519,-218 519,-188 373,-188"/>
<text text-anchor="start" x="381" y="-206" font-family="Helvetica,sans-Serif" font-size="10.00">model.SlogoModel.hardSet</text>
<text text-anchor="middle" x="446" y="-195" font-family="Helvetica,sans-Serif" font-size="10.00">Turtle</text>
</a>
</g>
</g>
<!-- Node24&#45;&gt;Node26 -->
<g id="edge27" class="edge"><title>Node24&#45;&gt;Node26</title>
<path fill="none" stroke="midnightblue" d="M306.395,-219.306C327.59,-216.813 351.215,-214.033 372.871,-211.486"/>
<polygon fill="midnightblue" stroke="midnightblue" points="305.728,-215.861 296.205,-220.505 306.546,-222.813 305.728,-215.861"/>
</g>
<!-- Node27 -->
<g id="node27" class="node"><title>Node27</title>
<g id="a_node27"><a xlink:href="../../dc/d79/class_table_information_1_1_x_column.html#a12d0f88571fd3a3361f7068dd433b9c3" target="_top" xlink:title="TableInformation.XColumn.do\lEditingFunction">
<polygon fill="white" stroke="black" points="368.5,-139 368.5,-169 523.5,-169 523.5,-139 368.5,-139"/>
<text text-anchor="start" x="376.5" y="-157" font-family="Helvetica,sans-Serif" font-size="10.00">TableInformation.XColumn.do</text>
<text text-anchor="middle" x="446" y="-146" font-family="Helvetica,sans-Serif" font-size="10.00">EditingFunction</text>
</a>
</g>
</g>
<!-- Node24&#45;&gt;Node27 -->
<g id="edge28" class="edge"><title>Node24&#45;&gt;Node27</title>
<path fill="none" stroke="midnightblue" d="M297.808,-214.208C302.714,-212.386 307.513,-210.325 312,-208 330.492,-198.417 329.418,-187.407 348,-178 354.81,-174.552 362.145,-171.581 369.622,-169.023"/>
<polygon fill="midnightblue" stroke="midnightblue" points="296.647,-210.906 288.295,-217.425 298.889,-217.537 296.647,-210.906"/>
</g>
<!-- Node28 -->
<g id="node28" class="node"><title>Node28</title>
<g id="a_node28"><a xlink:href="../../df/dcb/classturtle_1_1_turtle.html#ab4ccc5acaf4924205497db6d8a8125b9" target="_top" xlink:title="turtle.Turtle.setPosition">
<polygon fill="white" stroke="black" points="383,-100.5 383,-119.5 509,-119.5 509,-100.5 383,-100.5"/>
<text text-anchor="middle" x="446" y="-107.5" font-family="Helvetica,sans-Serif" font-size="10.00">turtle.Turtle.setPosition</text>
</a>
</g>
</g>
<!-- Node24&#45;&gt;Node28 -->
<g id="edge29" class="edge"><title>Node24&#45;&gt;Node28</title>
<path fill="none" stroke="midnightblue" d="M305.474,-212.739C307.767,-211.306 309.955,-209.731 312,-208 341.453,-183.074 317.716,-152.91 348,-129 358.034,-121.078 370.443,-116.158 382.995,-113.163"/>
<polygon fill="midnightblue" stroke="midnightblue" points="303.431,-209.857 296.189,-217.59 306.673,-216.061 303.431,-209.857"/>
</g>
<!-- Node33 -->
<g id="node33" class="node"><title>Node33</title>
<g id="a_node33"><a xlink:href="../../d9/db1/class_view_1_1_single_grid.html#a9093eac50d88370f86cb4757b996210e" target="_top" xlink:title="View.SingleGrid.keepTurtle\lInBounds">
<polygon fill="white" stroke="black" points="375.5,-286 375.5,-316 516.5,-316 516.5,-286 375.5,-286"/>
<text text-anchor="start" x="383.5" y="-304" font-family="Helvetica,sans-Serif" font-size="10.00">View.SingleGrid.keepTurtle</text>
<text text-anchor="middle" x="446" y="-293" font-family="Helvetica,sans-Serif" font-size="10.00">InBounds</text>
</a>
</g>
</g>
<!-- Node24&#45;&gt;Node33 -->
<g id="edge34" class="edge"><title>Node24&#45;&gt;Node33</title>
<path fill="none" stroke="midnightblue" d="M268.236,-241.102C289.535,-251.728 320.113,-266.109 348,-276 358.244,-279.633 369.267,-282.983 380.08,-285.97"/>
<polygon fill="midnightblue" stroke="midnightblue" points="269.65,-237.895 259.145,-236.514 266.495,-244.144 269.65,-237.895"/>
</g>
<!-- Node29 -->
<g id="node29" class="node"><title>Node29</title>
<g id="a_node29"><a xlink:href="../../d7/d28/classcommands_1_1information_1_1_base_turtle_container.html#a5d86cfae201525f3446fc58eb5c7df7c" target="_top" xlink:title="commands.information.Base\lTurtleContainer.setPosition">
<polygon fill="white" stroke="black" points="581.5,-98 581.5,-128 736.5,-128 736.5,-98 581.5,-98"/>
<text text-anchor="start" x="589.5" y="-116" font-family="Helvetica,sans-Serif" font-size="10.00">commands.information.Base</text>
<text text-anchor="middle" x="659" y="-105" font-family="Helvetica,sans-Serif" font-size="10.00">TurtleContainer.setPosition</text>
</a>
</g>
</g>
<!-- Node28&#45;&gt;Node29 -->
<g id="edge30" class="edge"><title>Node28&#45;&gt;Node29</title>
<path fill="none" stroke="midnightblue" d="M519.43,-111.03C539.397,-111.314 561.122,-111.623 581.321,-111.91"/>
<polygon fill="midnightblue" stroke="midnightblue" points="519.215,-107.526 509.166,-110.884 519.115,-114.526 519.215,-107.526"/>
</g>
<!-- Node30 -->
<g id="node30" class="node"><title>Node30</title>
<g id="a_node30"><a xlink:href="../../df/d55/classcommands_1_1view_commands_1_1_clear_screen_command.html#ae22b9c821c2d07903bdcea4eaad1f959" target="_top" xlink:title="commands.viewCommands.Clear\lScreenCommand.onExecute">
<polygon fill="white" stroke="black" points="776.5,-147 776.5,-177 953.5,-177 953.5,-147 776.5,-147"/>
<text text-anchor="start" x="784.5" y="-165" font-family="Helvetica,sans-Serif" font-size="10.00">commands.viewCommands.Clear</text>
<text text-anchor="middle" x="865" y="-154" font-family="Helvetica,sans-Serif" font-size="10.00">ScreenCommand.onExecute</text>
</a>
</g>
</g>
<!-- Node29&#45;&gt;Node30 -->
<g id="edge31" class="edge"><title>Node29&#45;&gt;Node30</title>
<path fill="none" stroke="midnightblue" d="M732.457,-130.404C755.024,-135.824 779.702,-141.752 801.525,-146.994"/>
<polygon fill="midnightblue" stroke="midnightblue" points="733.134,-126.967 722.593,-128.035 731.499,-133.773 733.134,-126.967"/>
</g>
<!-- Node31 -->
<g id="node31" class="node"><title>Node31</title>
<g id="a_node31"><a xlink:href="../../d9/d14/classcommands_1_1turtle_commands_1_1_set_position_command.html#a1ff02e56e7927a1002a7412040c98e77" target="_top" xlink:title="commands.turtleCommands.\lSetPositionCommand.onExecute">
<polygon fill="white" stroke="black" points="778,-98 778,-128 952,-128 952,-98 778,-98"/>
<text text-anchor="start" x="786" y="-116" font-family="Helvetica,sans-Serif" font-size="10.00">commands.turtleCommands.</text>
<text text-anchor="middle" x="865" y="-105" font-family="Helvetica,sans-Serif" font-size="10.00">SetPositionCommand.onExecute</text>
</a>
</g>
</g>
<!-- Node29&#45;&gt;Node31 -->
<g id="edge32" class="edge"><title>Node29&#45;&gt;Node31</title>
<path fill="none" stroke="midnightblue" d="M746.735,-113C757.015,-113 767.506,-113 777.778,-113"/>
<polygon fill="midnightblue" stroke="midnightblue" points="746.543,-109.5 736.542,-113 746.542,-116.5 746.543,-109.5"/>
</g>
<!-- Node32 -->
<g id="node32" class="node"><title>Node32</title>
<g id="a_node32"><a xlink:href="../../db/dc5/classcommands_1_1view_commands_1_1_home_command.html#a91670541a28ed18996a9bc3433029857" target="_top" xlink:title="commands.viewCommands.Home\lCommand.onExecute">
<polygon fill="white" stroke="black" points="774,-49 774,-79 956,-79 956,-49 774,-49"/>
<text text-anchor="start" x="782" y="-67" font-family="Helvetica,sans-Serif" font-size="10.00">commands.viewCommands.Home</text>
<text text-anchor="middle" x="865" y="-56" font-family="Helvetica,sans-Serif" font-size="10.00">Command.onExecute</text>
</a>
</g>
</g>
<!-- Node29&#45;&gt;Node32 -->
<g id="edge33" class="edge"><title>Node29&#45;&gt;Node32</title>
<path fill="none" stroke="midnightblue" d="M732.457,-95.5962C755.024,-90.1757 779.702,-84.248 801.525,-79.0062"/>
<polygon fill="midnightblue" stroke="midnightblue" points="731.499,-92.2266 722.593,-97.9654 733.134,-99.033 731.499,-92.2266"/>
</g>
<!-- Node33&#45;&gt;Node5 -->
<g id="edge35" class="edge"><title>Node33&#45;&gt;Node5</title>
<path fill="none" stroke="midnightblue" d="M526.705,-303.267C549.591,-303.917 574.201,-304.617 595.86,-305.233"/>
<polygon fill="midnightblue" stroke="midnightblue" points="526.77,-299.767 516.674,-302.981 526.571,-306.764 526.77,-299.767"/>
</g>
<!-- Node33&#45;&gt;Node9 -->
<g id="edge36" class="edge"><title>Node33&#45;&gt;Node9</title>
<path fill="none" stroke="midnightblue" d="M526.61,-288.926C549.276,-285.489 573.641,-281.794 595.158,-278.53"/>
<polygon fill="midnightblue" stroke="midnightblue" points="526.036,-285.473 516.674,-290.433 527.086,-292.394 526.036,-285.473"/>
</g>
</g>
</svg>
        <g id="navigator" transform="translate(0 0)" fill="#404254">
                <rect fill="#f2f5e9" fill-opacity="0.5" stroke="#606060" stroke-width=".5" x="0" y="0" width="60" height="60"/>
                <use id="zoomplus" xlink:href="#zoomPlus" x="17" y="9" onmousedown="handleZoom(evt,'in')"/>
                <use id="zoomminus" xlink:href="#zoomMin" x="42" y="9" onmousedown="handleZoom(evt,'out')"/>
                <use id="reset" xlink:href="#resetDef" x="30" y="36" onmousedown="handleReset()"/>
                <g id="arrowUp" xlink:href="#dirArrow" transform="translate(30 24)" onmousedown="handlePan(0,-1)">
                  <use xlink:href="#rim" fill="#404040">
                        <set attributeName="fill" to="#808080" begin="arrowUp.mouseover" end="arrowUp.mouseout"/>
                  </use>
                  <path fill="none" stroke="white" stroke-width="1.5" d="M0,-3.0v7 M-2.5,-0.5L0,-3.0L2.5,-0.5"/>
                </g>
                <g id="arrowRight" xlink:href="#dirArrow" transform="rotate(90) translate(36 -43)" onmousedown="handlePan(1,0)">
                  <use xlink:href="#rim" fill="#404040">
                        <set attributeName="fill" to="#808080" begin="arrowRight.mouseover" end="arrowRight.mouseout"/>
                  </use>
                  <path fill="none" stroke="white" stroke-width="1.5" d="M0,-3.0v7 M-2.5,-0.5L0,-3.0L2.5,-0.5"/>
                </g>
                <g id="arrowDown" xlink:href="#dirArrow" transform="rotate(180) translate(-30 -48)" onmousedown="handlePan(0,1)">
                  <use xlink:href="#rim" fill="#404040">
                        <set attributeName="fill" to="#808080" begin="arrowDown.mouseover" end="arrowDown.mouseout"/>
                  </use>
                  <path fill="none" stroke="white" stroke-width="1.5" d="M0,-3.0v7 M-2.5,-0.5L0,-3.0L2.5,-0.5"/>
                </g>
                <g id="arrowLeft" xlink:href="#dirArrow" transform="rotate(270) translate(-36 17)" onmousedown="handlePan(-1,0)">
                  <use xlink:href="#rim" fill="#404040">
                        <set attributeName="fill" to="#808080" begin="arrowLeft.mouseover" end="arrowLeft.mouseout"/>
                  </use>
                  <path fill="none" stroke="white" stroke-width="1.5" d="M0,-3.0v7 M-2.5,-0.5L0,-3.0L2.5,-0.5"/>
                </g>
        </g>
        <svg viewBox="0 0 15 15" width="100%" height="30px" preserveAspectRatio="xMaxYMin meet">
         <g id="arrow_out" transform="scale(0.3 0.3)">
          <a xlink:href="classturtle_1_1_position_a7bfd27ea2bf5e22d8de4a4e87b4df2ec_icgraph_org.svg" target="_base">
           <rect id="button" ry="5" rx="5" y="6" x="6" height="38" width="38"
                fill="#f2f5e9" fill-opacity="0.5" stroke="#606060" stroke-width="1.0"/>
           <path id="arrow"
             d="M 11.500037,31.436501 C 11.940474,20.09759 22.043105,11.32322 32.158766,21.979434 L 37.068811,17.246167 C 37.068811,17.246167 37.088388,32 37.088388,32 L 22.160133,31.978069 C 22.160133,31.978069 26.997745,27.140456 26.997745,27.140456 C 18.528582,18.264221 13.291696,25.230495 11.500037,31.436501 z"
             style="fill:#404040;"/>
          </a>
         </g>
        </svg>
</svg>
