<?xml version="1.0" encoding="UTF-8" standalone="no"?>
<!DOCTYPE svg PUBLIC "-//W3C//DTD SVG 1.1//EN"
 "http://www.w3.org/Graphics/SVG/1.1/DTD/svg11.dtd">
<!-- Generated by graphviz version 2.36.0 (20140111.2315)
 -->
<!-- Title: turtle.Position.moveVertical Pages: 1 -->
<svg width="928pt" height="200pt"
 viewBox="0.00 0.00 928.00 200.00" xmlns="http://www.w3.org/2000/svg" xmlns:xlink="http://www.w3.org/1999/xlink">
<g id="graph0" class="graph" transform="scale(1 1) rotate(0) translate(4 196)">
<title>turtle.Position.moveVertical</title>
<polygon fill="white" stroke="none" points="-4,4 -4,-196 924,-196 924,4 -4,4"/>
<!-- Node1 -->
<g id="node1" class="node"><title>Node1</title>
<polygon fill="#bfbfbf" stroke="black" points="0,-98.5 0,-117.5 148,-117.5 148,-98.5 0,-98.5"/>
<text text-anchor="middle" x="74" y="-105.5" font-family="Helvetica,sans-Serif" font-size="10.00">turtle.Position.moveVertical</text>
</g>
<!-- Node2 -->
<g id="node2" class="node"><title>Node2</title>
<g id="a_node2"><a xlink:href="../../d1/dbe/classturtle_1_1_position.html#ad1cf245ca8d3e765bac5cc391bf621e1" target="_top" xlink:title="turtle.Position.move">
<polygon fill="white" stroke="black" points="195.5,-121.5 195.5,-140.5 308.5,-140.5 308.5,-121.5 195.5,-121.5"/>
<text text-anchor="middle" x="252" y="-128.5" font-family="Helvetica,sans-Serif" font-size="10.00">turtle.Position.move</text>
</a>
</g>
</g>
<!-- Node1&#45;&gt;Node2 -->
<g id="edge1" class="edge"><title>Node1&#45;&gt;Node2</title>
<path fill="none" stroke="midnightblue" d="M157.981,-118.844C170.667,-120.502 183.493,-122.178 195.399,-123.734"/>
<polygon fill="midnightblue" stroke="midnightblue" points="158.226,-115.346 147.856,-117.521 157.319,-122.287 158.226,-115.346"/>
</g>
<!-- Node7 -->
<g id="node7" class="node"><title>Node7</title>
<g id="a_node7"><a xlink:href="../../df/dcb/classturtle_1_1_turtle.html#a991844b02fa4349c98830ccc21f436c8" target="_top" xlink:title="turtle.Turtle.moveVertical">
<polygon fill="white" stroke="black" points="184,-76.5 184,-95.5 320,-95.5 320,-76.5 184,-76.5"/>
<text text-anchor="middle" x="252" y="-83.5" font-family="Helvetica,sans-Serif" font-size="10.00">turtle.Turtle.moveVertical</text>
</a>
</g>
</g>
<!-- Node1&#45;&gt;Node7 -->
<g id="edge6" class="edge"><title>Node1&#45;&gt;Node7</title>
<path fill="none" stroke="midnightblue" d="M158.14,-97.6076C166.723,-96.5346 175.369,-95.4538 183.749,-94.4064"/>
<polygon fill="midnightblue" stroke="midnightblue" points="157.599,-94.1477 148.111,-98.8611 158.468,-101.094 157.599,-94.1477"/>
</g>
<!-- Node3 -->
<g id="node3" class="node"><title>Node3</title>
<g id="a_node3"><a xlink:href="../../df/dcb/classturtle_1_1_turtle.html#aa1a46a871ec163cdff79e9055f8b0519" target="_top" xlink:title="turtle.Turtle.moveTowards\lHeading">
<polygon fill="white" stroke="black" points="356,-124 356,-154 494,-154 494,-124 356,-124"/>
<text text-anchor="start" x="364" y="-142" font-family="Helvetica,sans-Serif" font-size="10.00">turtle.Turtle.moveTowards</text>
<text text-anchor="middle" x="425" y="-131" font-family="Helvetica,sans-Serif" font-size="10.00">Heading</text>
</a>
</g>
</g>
<!-- Node2&#45;&gt;Node3 -->
<g id="edge2" class="edge"><title>Node2&#45;&gt;Node3</title>
<path fill="none" stroke="midnightblue" d="M318.62,-134.07C330.835,-134.641 343.622,-135.24 355.909,-135.814"/>
<polygon fill="midnightblue" stroke="midnightblue" points="318.671,-130.569 308.519,-133.597 318.344,-137.561 318.671,-130.569"/>
</g>
<!-- Node4 -->
<g id="node4" class="node"><title>Node4</title>
<g id="a_node4"><a xlink:href="../../d7/d28/classcommands_1_1information_1_1_base_turtle_container.html#afe6445eeeaaa24a41e6579a12baffa74" target="_top" xlink:title="commands.information.Base\lTurtleContainer.moveTowardsHeading">
<polygon fill="white" stroke="black" points="530.5,-137 530.5,-167 725.5,-167 725.5,-137 530.5,-137"/>
<text text-anchor="start" x="538.5" y="-155" font-family="Helvetica,sans-Serif" font-size="10.00">commands.information.Base</text>
<text text-anchor="middle" x="628" y="-144" font-family="Helvetica,sans-Serif" font-size="10.00">TurtleContainer.moveTowardsHeading</text>
</a>
</g>
</g>
<!-- Node3&#45;&gt;Node4 -->
<g id="edge3" class="edge"><title>Node3&#45;&gt;Node4</title>
<path fill="none" stroke="midnightblue" d="M504.088,-144.05C512.744,-144.61 521.634,-145.185 530.483,-145.758"/>
<polygon fill="midnightblue" stroke="midnightblue" points="504.255,-140.554 494.049,-143.401 503.803,-147.539 504.255,-140.554"/>
</g>
<!-- Node5 -->
<g id="node5" class="node"><title>Node5</title>
<g id="a_node5"><a xlink:href="../../df/d1b/classcommands_1_1turtle_commands_1_1_back_command.html#a2f60b951011f138ae8916447519fe166" target="_top" xlink:title="commands.turtleCommands.\lBackCommand.onExecute">
<polygon fill="white" stroke="black" points="762,-162 762,-192 920,-192 920,-162 762,-162"/>
<text text-anchor="start" x="770" y="-180" font-family="Helvetica,sans-Serif" font-size="10.00">commands.turtleCommands.</text>
<text text-anchor="middle" x="841" y="-169" font-family="Helvetica,sans-Serif" font-size="10.00">BackCommand.onExecute</text>
</a>
</g>
</g>
<!-- Node4&#45;&gt;Node5 -->
<g id="edge4" class="edge"><title>Node4&#45;&gt;Node5</title>
<path fill="none" stroke="midnightblue" d="M735.538,-164.623C744.397,-165.673 753.245,-166.721 761.834,-167.739"/>
<polygon fill="midnightblue" stroke="midnightblue" points="735.889,-161.14 725.546,-163.439 735.065,-168.092 735.889,-161.14"/>
</g>
<!-- Node6 -->
<g id="node6" class="node"><title>Node6</title>
<g id="a_node6"><a xlink:href="../../da/db6/classcommands_1_1turtle_commands_1_1_forward_command.html#a804cd1b0300e3c10498b66ea5edeb18c" target="_top" xlink:title="commands.turtleCommands.\lForwardCommand.onExecute">
<polygon fill="white" stroke="black" points="762,-113 762,-143 920,-143 920,-113 762,-113"/>
<text text-anchor="start" x="770" y="-131" font-family="Helvetica,sans-Serif" font-size="10.00">commands.turtleCommands.</text>
<text text-anchor="middle" x="841" y="-120" font-family="Helvetica,sans-Serif" font-size="10.00">ForwardCommand.onExecute</text>
</a>
</g>
</g>
<!-- Node4&#45;&gt;Node6 -->
<g id="edge5" class="edge"><title>Node4&#45;&gt;Node6</title>
<path fill="none" stroke="midnightblue" d="M735.538,-139.882C744.397,-138.874 753.245,-137.868 761.834,-136.891"/>
<polygon fill="midnightblue" stroke="midnightblue" points="735.087,-136.411 725.546,-141.018 735.878,-143.366 735.087,-136.411"/>
</g>
<!-- Node8 -->
<g id="node8" class="node"><title>Node8</title>
<g id="a_node8"><a xlink:href="../../df/dcb/classturtle_1_1_turtle.html#a81e35bc42c3ccb26e25ded71026cb173" target="_top" xlink:title="turtle.Turtle.move">
<polygon fill="white" stroke="black" points="374.5,-61.5 374.5,-80.5 475.5,-80.5 475.5,-61.5 374.5,-61.5"/>
<text text-anchor="middle" x="425" y="-68.5" font-family="Helvetica,sans-Serif" font-size="10.00">turtle.Turtle.move</text>
</a>
</g>
</g>
<!-- Node7&#45;&gt;Node8 -->
<g id="edge7" class="edge"><title>Node7&#45;&gt;Node8</title>
<path fill="none" stroke="midnightblue" d="M330.35,-79.215C345.274,-77.9057 360.534,-76.5672 374.286,-75.3609"/>
<polygon fill="midnightblue" stroke="midnightblue" points="329.749,-75.7541 320.093,-80.1147 330.361,-82.7273 329.749,-75.7541"/>
</g>
<!-- Node9 -->
<g id="node9" class="node"><title>Node9</title>
<g id="a_node9"><a xlink:href="../../d7/d28/classcommands_1_1information_1_1_base_turtle_container.html#aa12129a5802271b2ac4dd6142d77f917" target="_top" xlink:title="commands.information.Base\lTurtleContainer.move">
<polygon fill="white" stroke="black" points="550.5,-88 550.5,-118 705.5,-118 705.5,-88 550.5,-88"/>
<text text-anchor="start" x="558.5" y="-106" font-family="Helvetica,sans-Serif" font-size="10.00">commands.information.Base</text>
<text text-anchor="middle" x="628" y="-95" font-family="Helvetica,sans-Serif" font-size="10.00">TurtleContainer.move</text>
</a>
</g>
</g>
<!-- Node8&#45;&gt;Node9 -->
<g id="edge8" class="edge"><title>Node8&#45;&gt;Node9</title>
<path fill="none" stroke="midnightblue" d="M485.734,-80.5099C506.053,-83.7447 529.048,-87.4057 550.495,-90.8202"/>
<polygon fill="midnightblue" stroke="midnightblue" points="486.111,-77.026 475.685,-78.9101 485.011,-83.9389 486.111,-77.026"/>
</g>
<!-- Node10 -->
<g id="node10" class="node"><title>Node10</title>
<g id="a_node10"><a xlink:href="../../d9/db1/class_view_1_1_single_grid.html#ace412ccdbcf0cdf6a20ac1e4102a15b5" target="_top" xlink:title="View.SingleGrid.addTurtle">
<polygon fill="white" stroke="black" points="560,-49.5 560,-68.5 696,-68.5 696,-49.5 560,-49.5"/>
<text text-anchor="middle" x="628" y="-56.5" font-family="Helvetica,sans-Serif" font-size="10.00">View.SingleGrid.addTurtle</text>
</a>
</g>
</g>
<!-- Node8&#45;&gt;Node10 -->
<g id="edge9" class="edge"><title>Node8&#45;&gt;Node10</title>
<path fill="none" stroke="midnightblue" d="M485.757,-67.4324C509.009,-66.0442 535.763,-64.447 559.69,-63.0185"/>
<polygon fill="midnightblue" stroke="midnightblue" points="485.459,-63.9439 475.685,-68.0337 485.876,-70.9314 485.459,-63.9439"/>
</g>
<!-- Node11 -->
<g id="node11" class="node"><title>Node11</title>
<g id="a_node11"><a xlink:href="../../d0/d4f/class_view_1_1_turtle_movement.html#ad6ff133518a15c28187a623f058bc6bf" target="_top" xlink:title="View.TurtleMovement.Turtle\lMovement">
<polygon fill="white" stroke="black" points="555,-0 555,-30 701,-30 701,-0 555,-0"/>
<text text-anchor="start" x="563" y="-18" font-family="Helvetica,sans-Serif" font-size="10.00">View.TurtleMovement.Turtle</text>
<text text-anchor="middle" x="628" y="-7" font-family="Helvetica,sans-Serif" font-size="10.00">Movement</text>
</a>
</g>
</g>
<!-- Node8&#45;&gt;Node11 -->
<g id="edge10" class="edge"><title>Node8&#45;&gt;Node11</title>
<path fill="none" stroke="midnightblue" d="M466.491,-58.5471C485.69,-52.7409 508.976,-45.8404 530,-40 541.981,-36.6718 554.836,-33.2525 567.142,-30.0527"/>
<polygon fill="midnightblue" stroke="midnightblue" points="465.409,-55.2177 456.857,-61.4721 467.443,-61.9158 465.409,-55.2177"/>
</g>
</g>
</svg>
