<?xml version="1.0" encoding="UTF-8" standalone="no"?>
<!DOCTYPE svg PUBLIC "-//W3C//DTD SVG 1.1//EN"
 "http://www.w3.org/Graphics/SVG/1.1/DTD/svg11.dtd">
<!-- Generated by graphviz version 2.36.0 (20140111.2315)
 -->
<!-- Title: View.Grid.addTurtle Pages: 1 -->
<svg width="526pt" height="87pt"
 viewBox="0.00 0.00 526.00 87.00" xmlns="http://www.w3.org/2000/svg" xmlns:xlink="http://www.w3.org/1999/xlink">
<g id="graph0" class="graph" transform="scale(1 1) rotate(0) translate(4 83)">
<title>View.Grid.addTurtle</title>
<polygon fill="white" stroke="none" points="-4,4 -4,-83 522,-83 522,4 -4,4"/>
<!-- Node1 -->
<g id="node1" class="node"><title>Node1</title>
<polygon fill="#bfbfbf" stroke="black" points="0.5,-29.5 0.5,-48.5 107.5,-48.5 107.5,-29.5 0.5,-29.5"/>
<text text-anchor="middle" x="54" y="-36.5" font-family="Helvetica,sans-Serif" font-size="10.00">View.Grid.addTurtle</text>
</g>
<!-- Node2 -->
<g id="node2" class="node"><title>Node2</title>
<g id="a_node2"><a xlink:href="../../d9/d20/classcommands_1_1turtle_commands_1_1_multiple_turtle_command.html#a226d71bf1a9b6f4287eef7ee607e0742" target="_top" xlink:title="commands.turtleCommands.\lMultipleTurtleCommand.addFuture\lActiveTurtleTurtles">
<polygon fill="white" stroke="black" points="144,-18.5 144,-59.5 324,-59.5 324,-18.5 144,-18.5"/>
<text text-anchor="start" x="152" y="-47.5" font-family="Helvetica,sans-Serif" font-size="10.00">commands.turtleCommands.</text>
<text text-anchor="start" x="152" y="-36.5" font-family="Helvetica,sans-Serif" font-size="10.00">MultipleTurtleCommand.addFuture</text>
<text text-anchor="middle" x="234" y="-25.5" font-family="Helvetica,sans-Serif" font-size="10.00">ActiveTurtleTurtles</text>
</a>
</g>
</g>
<!-- Node1&#45;&gt;Node2 -->
<g id="edge1" class="edge"><title>Node1&#45;&gt;Node2</title>
<path fill="none" stroke="midnightblue" d="M118.003,-39C126.423,-39 135.183,-39 143.944,-39"/>
<polygon fill="midnightblue" stroke="midnightblue" points="117.924,-35.5001 107.924,-39 117.924,-42.5001 117.924,-35.5001"/>
</g>
<!-- Node3 -->
<g id="node3" class="node"><title>Node3</title>
<g id="a_node3"><a xlink:href="../../d3/d71/classcommands_1_1turtle_commands_1_1_tell_command.html#aa72781f5952898b86ddd628eddb559c3" target="_top" xlink:title="commands.turtleCommands.\lTellCommand.onExecute">
<polygon fill="white" stroke="black" points="360,-49 360,-79 518,-79 518,-49 360,-49"/>
<text text-anchor="start" x="368" y="-67" font-family="Helvetica,sans-Serif" font-size="10.00">commands.turtleCommands.</text>
<text text-anchor="middle" x="439" y="-56" font-family="Helvetica,sans-Serif" font-size="10.00">TellCommand.onExecute</text>
</a>
</g>
</g>
<!-- Node2&#45;&gt;Node3 -->
<g id="edge2" class="edge"><title>Node2&#45;&gt;Node3</title>
<path fill="none" stroke="midnightblue" d="M334.146,-51.2101C342.778,-52.2732 351.432,-53.339 359.86,-54.3768"/>
<polygon fill="midnightblue" stroke="midnightblue" points="334.392,-47.714 324.039,-49.9654 333.536,-54.6615 334.392,-47.714"/>
</g>
<!-- Node4 -->
<g id="node4" class="node"><title>Node4</title>
<g id="a_node4"><a xlink:href="../../d6/de1/classcommands_1_1turtle_commands_1_1_ask_command.html#af55174501ae461af21d6546f83cdc521" target="_top" xlink:title="commands.turtleCommands.\lAskCommand.onExecute">
<polygon fill="white" stroke="black" points="360,-0 360,-30 518,-30 518,-0 360,-0"/>
<text text-anchor="start" x="368" y="-18" font-family="Helvetica,sans-Serif" font-size="10.00">commands.turtleCommands.</text>
<text text-anchor="middle" x="439" y="-7" font-family="Helvetica,sans-Serif" font-size="10.00">AskCommand.onExecute</text>
</a>
</g>
</g>
<!-- Node2&#45;&gt;Node4 -->
<g id="edge3" class="edge"><title>Node2&#45;&gt;Node4</title>
<path fill="none" stroke="midnightblue" d="M334.146,-27.2783C342.778,-26.2578 351.432,-25.2346 359.86,-24.2383"/>
<polygon fill="midnightblue" stroke="midnightblue" points="333.559,-23.8233 324.039,-28.4733 334.381,-30.7749 333.559,-23.8233"/>
</g>
</g>
</svg>
