<?xml version="1.0" encoding="UTF-8" standalone="no"?>
<!DOCTYPE svg PUBLIC "-//W3C//DTD SVG 1.1//EN"
 "http://www.w3.org/Graphics/SVG/1.1/DTD/svg11.dtd">
<!-- Generated by graphviz version 2.36.0 (20140111.2315)
 -->
<!-- Title: View.Grid.updateGUI Pages: 1 -->
<svg width="340pt" height="48pt"
 viewBox="0.00 0.00 340.00 48.00" xmlns="http://www.w3.org/2000/svg" xmlns:xlink="http://www.w3.org/1999/xlink">
<g id="graph0" class="graph" transform="scale(1 1) rotate(0) translate(4 44)">
<title>View.Grid.updateGUI</title>
<polygon fill="white" stroke="none" points="-4,4 -4,-44 336,-44 336,4 -4,4"/>
<!-- Node1 -->
<g id="node1" class="node"><title>Node1</title>
<polygon fill="#bfbfbf" stroke="black" points="0,-10.5 0,-29.5 114,-29.5 114,-10.5 0,-10.5"/>
<text text-anchor="middle" x="57" y="-17.5" font-family="Helvetica,sans-Serif" font-size="10.00">View.Grid.updateGUI</text>
</g>
<!-- Node2 -->
<g id="node2" class="node"><title>Node2</title>
<g id="a_node2"><a xlink:href="../../da/d10/classcommands_1_1information_1_1_single_active_grid_container.html#a4c5ba2a0bf820ce3e2421a812bfef7ab" target="_top" xlink:title="commands.information.Single\lActiveGridContainer.updateDisplay\lOptions">
<polygon fill="white" stroke="black" points="150,0.5 150,-40.5 332,-40.5 332,0.5 150,0.5"/>
<text text-anchor="start" x="158" y="-28.5" font-family="Helvetica,sans-Serif" font-size="10.00">commands.information.Single</text>
<text text-anchor="start" x="158" y="-17.5" font-family="Helvetica,sans-Serif" font-size="10.00">ActiveGridContainer.updateDisplay</text>
<text text-anchor="middle" x="241" y="-6.5" font-family="Helvetica,sans-Serif" font-size="10.00">Options</text>
</a>
</g>
</g>
<!-- Node1&#45;&gt;Node2 -->
<g id="edge1" class="edge"><title>Node1&#45;&gt;Node2</title>
<path fill="none" stroke="midnightblue" d="M124.158,-20C132.552,-20 141.252,-20 149.94,-20"/>
<polygon fill="midnightblue" stroke="midnightblue" points="124.091,-16.5001 114.091,-20 124.091,-23.5001 124.091,-16.5001"/>
</g>
</g>
</svg>
