<?xml version="1.0" encoding="UTF-8" standalone="no"?>
<!DOCTYPE svg PUBLIC "-//W3C//DTD SVG 1.1//EN"
 "http://www.w3.org/Graphics/SVG/1.1/DTD/svg11.dtd">
<!-- Generated by graphviz version 2.36.0 (20140111.2315)
 -->
<!-- Title: View.Grid.getID Pages: 1 -->
<!--zoomable 223 -->
<svg id="main" version="1.1" xmlns="http://www.w3.org/2000/svg" xmlns:xlink="http://www.w3.org/1999/xlink" xml:space="preserve" onload="init(evt)">
<style type="text/css"><![CDATA[
.edge:hover path { stroke: red; }
.edge:hover polygon { stroke: red; fill: red; }
]]></style>
<script type="text/javascript"><![CDATA[
var edges = document.getElementsByTagName('g');
if (edges && edges.length) {
  for (var i=0;i<edges.length;i++) {
    if (edges[i].id.substr(0,4)=='edge') {
      edges[i].setAttribute('class','edge');
    }
  }
}
]]></script>
        <defs>
                <circle id="rim" cx="0" cy="0" r="7"/>
                <circle id="rim2" cx="0" cy="0" r="3.5"/>
                <g id="zoomPlus">
                        <use xlink:href="#rim" fill="#404040">
                                <set attributeName="fill" to="#808080" begin="zoomplus.mouseover" end="zoomplus.mouseout"/>
                        </use>
                        <path d="M-4,0h8M0,-4v8" fill="none" stroke="white" stroke-width="1.5" pointer-events="none"/>
                </g>
                <g id="zoomMin">
                        <use xlink:href="#rim" fill="#404040">
                                <set attributeName="fill" to="#808080" begin="zoomminus.mouseover" end="zoomminus.mouseout"/>
                        </use>
                        <path d="M-4,0h8" fill="none" stroke="white" stroke-width="1.5" pointer-events="none"/>
                </g>
                <g id="dirArrow">
                        <path fill="none" stroke="white" stroke-width="1.5" d="M0,-3.0v7 M-2.5,-0.5L0,-3.0L2.5,-0.5"/>
                </g>
               <g id="resetDef">
                       <use xlink:href="#rim2" fill="#404040">
                               <set attributeName="fill" to="#808080" begin="reset.mouseover" end="reset.mouseout"/>
                       </use>
               </g>
        </defs>

<script type="text/javascript">
var viewWidth = 698;
var viewHeight = 223;
var sectionId = 'dynsection-3';
</script>
<script xlink:href="../../svgpan.js"/>
<svg id="graph" class="graph">
<g id="viewport">
<title>View.Grid.getID</title>
<polygon fill="white" stroke="none" points="-4,4 -4,-219 694,-219 694,4 -4,4"/>
<!-- Node1 -->
<g id="node1" class="node"><title>Node1</title>
<polygon fill="#bfbfbf" stroke="black" points="0.5,-113.5 0.5,-132.5 89.5,-132.5 89.5,-113.5 0.5,-113.5"/>
<text text-anchor="middle" x="45" y="-120.5" font-family="Helvetica,sans-Serif" font-size="10.00">View.Grid.getID</text>
</g>
<!-- Node2 -->
<g id="node2" class="node"><title>Node2</title>
<g id="a_node2"><a xlink:href="../../d6/d33/class_view_1_1_slogo_view.html#a05ea476b14d0f5b642dbcd4449cdb9cb" target="_top" xlink:title="View.SlogoView.addTurtle">
<polygon fill="white" stroke="black" points="156.5,-195.5 156.5,-214.5 291.5,-214.5 291.5,-195.5 156.5,-195.5"/>
<text text-anchor="middle" x="224" y="-202.5" font-family="Helvetica,sans-Serif" font-size="10.00">View.SlogoView.addTurtle</text>
</a>
</g>
</g>
<!-- Node1&#45;&gt;Node2 -->
<g id="edge1" class="edge"><title>Node1&#45;&gt;Node2</title>
<path fill="none" stroke="midnightblue" d="M62.8273,-140.231C77.9926,-154.717 101.598,-174.801 126,-186 135.514,-190.366 146.001,-193.73 156.458,-196.322"/>
<polygon fill="midnightblue" stroke="midnightblue" points="64.9044,-137.365 55.3191,-132.851 59.9976,-142.357 64.9044,-137.365"/>
</g>
<!-- Node5 -->
<g id="node5" class="node"><title>Node5</title>
<g id="a_node5"><a xlink:href="../../d6/d33/class_view_1_1_slogo_view.html#acfc9a29c260e063a27320bd12275a939" target="_top" xlink:title="View.SlogoView.build">
<polygon fill="white" stroke="black" points="167,-157.5 167,-176.5 281,-176.5 281,-157.5 167,-157.5"/>
<text text-anchor="middle" x="224" y="-164.5" font-family="Helvetica,sans-Serif" font-size="10.00">View.SlogoView.build</text>
</a>
</g>
</g>
<!-- Node1&#45;&gt;Node5 -->
<g id="edge4" class="edge"><title>Node1&#45;&gt;Node5</title>
<path fill="none" stroke="midnightblue" d="M85.0237,-135.458C97.9935,-139.397 112.556,-143.604 126,-147 141.004,-150.79 157.447,-154.386 172.463,-157.458"/>
<polygon fill="midnightblue" stroke="midnightblue" points="86.0481,-132.111 75.461,-132.516 83.9897,-138.802 86.0481,-132.111"/>
</g>
<!-- Node7 -->
<g id="node7" class="node"><title>Node7</title>
<g id="a_node7"><a xlink:href="../../d1/d2c/classcommands_1_1information_1_1_single_grid_information_gateway.html#ad0b75250870736b7810aecdef19eb3d4" target="_top" xlink:title="commands.information.Single\lGridInformationGateway.getContainer">
<polygon fill="white" stroke="black" points="126,-108 126,-138 322,-138 322,-108 126,-108"/>
<text text-anchor="start" x="134" y="-126" font-family="Helvetica,sans-Serif" font-size="10.00">commands.information.Single</text>
<text text-anchor="middle" x="224" y="-115" font-family="Helvetica,sans-Serif" font-size="10.00">GridInformationGateway.getContainer</text>
</a>
</g>
</g>
<!-- Node1&#45;&gt;Node7 -->
<g id="edge6" class="edge"><title>Node1&#45;&gt;Node7</title>
<path fill="none" stroke="midnightblue" d="M99.9073,-123C108.146,-123 116.858,-123 125.689,-123"/>
<polygon fill="midnightblue" stroke="midnightblue" points="99.7529,-119.5 89.7528,-123 99.7528,-126.5 99.7529,-119.5"/>
</g>
<!-- Node9 -->
<g id="node9" class="node"><title>Node9</title>
<g id="a_node9"><a xlink:href="../../da/d10/classcommands_1_1information_1_1_single_active_grid_container.html#af5d275b5766c816b3e45e3f01662d15e" target="_top" xlink:title="commands.information.Single\lActiveGridContainer.removeGrid">
<polygon fill="white" stroke="black" points="139,-59 139,-89 309,-89 309,-59 139,-59"/>
<text text-anchor="start" x="147" y="-77" font-family="Helvetica,sans-Serif" font-size="10.00">commands.information.Single</text>
<text text-anchor="middle" x="224" y="-66" font-family="Helvetica,sans-Serif" font-size="10.00">ActiveGridContainer.removeGrid</text>
</a>
</g>
</g>
<!-- Node1&#45;&gt;Node9 -->
<g id="edge8" class="edge"><title>Node1&#45;&gt;Node9</title>
<path fill="none" stroke="midnightblue" d="M86.477,-110.521C99.1062,-106.718 113.105,-102.595 126,-99 137.978,-95.6612 150.831,-92.2373 163.137,-89.0362"/>
<polygon fill="midnightblue" stroke="midnightblue" points="85.2452,-107.237 76.6896,-113.486 87.2748,-113.936 85.2452,-107.237"/>
</g>
<!-- Node10 -->
<g id="node10" class="node"><title>Node10</title>
<g id="a_node10"><a xlink:href="../../d1/d2c/classcommands_1_1information_1_1_single_grid_information_gateway.html#a1d83637db8855f934c31ff028e50e293" target="_top" xlink:title="commands.information.Single\lGridInformationGateway.SingleGrid\lInformationGateway">
<polygon fill="white" stroke="black" points="133,0.5 133,-40.5 315,-40.5 315,0.5 133,0.5"/>
<text text-anchor="start" x="141" y="-28.5" font-family="Helvetica,sans-Serif" font-size="10.00">commands.information.Single</text>
<text text-anchor="start" x="141" y="-17.5" font-family="Helvetica,sans-Serif" font-size="10.00">GridInformationGateway.SingleGrid</text>
<text text-anchor="middle" x="224" y="-6.5" font-family="Helvetica,sans-Serif" font-size="10.00">InformationGateway</text>
</a>
</g>
</g>
<!-- Node1&#45;&gt;Node10 -->
<g id="edge9" class="edge"><title>Node1&#45;&gt;Node10</title>
<path fill="none" stroke="midnightblue" d="M61.2336,-105.172C76.1919,-88.701 100.431,-64.6336 126,-50 132.12,-46.4977 138.695,-43.3574 145.434,-40.5516"/>
<polygon fill="midnightblue" stroke="midnightblue" points="58.3086,-103.196 54.2994,-113.003 63.5493,-107.836 58.3086,-103.196"/>
</g>
<!-- Node3 -->
<g id="node3" class="node"><title>Node3</title>
<g id="a_node3"><a xlink:href="../../d6/d33/class_view_1_1_slogo_view.html#acfeff052503655d2ac419d2bf4ea9bd5" target="_top" xlink:title="View.SlogoView.initialize">
<polygon fill="white" stroke="black" points="394,-195.5 394,-214.5 524,-214.5 524,-195.5 394,-195.5"/>
<text text-anchor="middle" x="459" y="-202.5" font-family="Helvetica,sans-Serif" font-size="10.00">View.SlogoView.initialize</text>
</a>
</g>
</g>
<!-- Node2&#45;&gt;Node3 -->
<g id="edge2" class="edge"><title>Node2&#45;&gt;Node3</title>
<path fill="none" stroke="midnightblue" d="M302.086,-205C331.753,-205 365.285,-205 393.63,-205"/>
<polygon fill="midnightblue" stroke="midnightblue" points="301.768,-201.5 291.768,-205 301.768,-208.5 301.768,-201.5"/>
</g>
<!-- Node4 -->
<g id="node4" class="node"><title>Node4</title>
<g id="a_node4"><a xlink:href="../../db/d27/class_view_1_1_slogo.html#a6ab76a53160b61d8501aec91c55b85c8" target="_top" xlink:title="View.Slogo.start">
<polygon fill="white" stroke="black" points="596.5,-195.5 596.5,-214.5 689.5,-214.5 689.5,-195.5 596.5,-195.5"/>
<text text-anchor="middle" x="643" y="-202.5" font-family="Helvetica,sans-Serif" font-size="10.00">View.Slogo.start</text>
</a>
</g>
</g>
<!-- Node3&#45;&gt;Node4 -->
<g id="edge3" class="edge"><title>Node3&#45;&gt;Node4</title>
<path fill="none" stroke="midnightblue" d="M534.366,-205C555.385,-205 577.63,-205 596.407,-205"/>
<polygon fill="midnightblue" stroke="midnightblue" points="534.166,-201.5 524.166,-205 534.166,-208.5 534.166,-201.5"/>
</g>
<!-- Node6 -->
<g id="node6" class="node"><title>Node6</title>
<g id="a_node6"><a xlink:href="../../d6/d33/class_view_1_1_slogo_view.html#a426ca98709fa7bf17d4e233519c504b4" target="_top" xlink:title="View.SlogoView.SlogoView">
<polygon fill="white" stroke="black" points="389,-157.5 389,-176.5 529,-176.5 529,-157.5 389,-157.5"/>
<text text-anchor="middle" x="459" y="-164.5" font-family="Helvetica,sans-Serif" font-size="10.00">View.SlogoView.SlogoView</text>
</a>
</g>
</g>
<!-- Node5&#45;&gt;Node6 -->
<g id="edge5" class="edge"><title>Node5&#45;&gt;Node6</title>
<path fill="none" stroke="midnightblue" d="M291.202,-167C321.661,-167 357.798,-167 388.635,-167"/>
<polygon fill="midnightblue" stroke="midnightblue" points="291.106,-163.5 281.106,-167 291.106,-170.5 291.106,-163.5"/>
</g>
<!-- Node8 -->
<g id="node8" class="node"><title>Node8</title>
<g id="a_node8"><a xlink:href="../../d1/d2c/classcommands_1_1information_1_1_single_grid_information_gateway.html#ac03e09cb79838bc9e13bb51fca1e8142" target="_top" xlink:title="commands.information.Single\lGridInformationGateway.getContainers">
<polygon fill="white" stroke="black" points="358.5,-108 358.5,-138 559.5,-138 559.5,-108 358.5,-108"/>
<text text-anchor="start" x="366.5" y="-126" font-family="Helvetica,sans-Serif" font-size="10.00">commands.information.Single</text>
<text text-anchor="middle" x="459" y="-115" font-family="Helvetica,sans-Serif" font-size="10.00">GridInformationGateway.getContainers</text>
</a>
</g>
</g>
<!-- Node7&#45;&gt;Node8 -->
<g id="edge7" class="edge"><title>Node7&#45;&gt;Node8</title>
<path fill="none" stroke="midnightblue" d="M332.295,-123C340.995,-123 349.764,-123 358.406,-123"/>
<polygon fill="midnightblue" stroke="midnightblue" points="332.126,-119.5 322.126,-123 332.126,-126.5 332.126,-119.5"/>
</g>
</g>
</svg>
        <g id="navigator" transform="translate(0 0)" fill="#404254">
                <rect fill="#f2f5e9" fill-opacity="0.5" stroke="#606060" stroke-width=".5" x="0" y="0" width="60" height="60"/>
                <use id="zoomplus" xlink:href="#zoomPlus" x="17" y="9" onmousedown="handleZoom(evt,'in')"/>
                <use id="zoomminus" xlink:href="#zoomMin" x="42" y="9" onmousedown="handleZoom(evt,'out')"/>
                <use id="reset" xlink:href="#resetDef" x="30" y="36" onmousedown="handleReset()"/>
                <g id="arrowUp" xlink:href="#dirArrow" transform="translate(30 24)" onmousedown="handlePan(0,-1)">
                  <use xlink:href="#rim" fill="#404040">
                        <set attributeName="fill" to="#808080" begin="arrowUp.mouseover" end="arrowUp.mouseout"/>
                  </use>
                  <path fill="none" stroke="white" stroke-width="1.5" d="M0,-3.0v7 M-2.5,-0.5L0,-3.0L2.5,-0.5"/>
                </g>
                <g id="arrowRight" xlink:href="#dirArrow" transform="rotate(90) translate(36 -43)" onmousedown="handlePan(1,0)">
                  <use xlink:href="#rim" fill="#404040">
                        <set attributeName="fill" to="#808080" begin="arrowRight.mouseover" end="arrowRight.mouseout"/>
                  </use>
                  <path fill="none" stroke="white" stroke-width="1.5" d="M0,-3.0v7 M-2.5,-0.5L0,-3.0L2.5,-0.5"/>
                </g>
                <g id="arrowDown" xlink:href="#dirArrow" transform="rotate(180) translate(-30 -48)" onmousedown="handlePan(0,1)">
                  <use xlink:href="#rim" fill="#404040">
                        <set attributeName="fill" to="#808080" begin="arrowDown.mouseover" end="arrowDown.mouseout"/>
                  </use>
                  <path fill="none" stroke="white" stroke-width="1.5" d="M0,-3.0v7 M-2.5,-0.5L0,-3.0L2.5,-0.5"/>
                </g>
                <g id="arrowLeft" xlink:href="#dirArrow" transform="rotate(270) translate(-36 17)" onmousedown="handlePan(-1,0)">
                  <use xlink:href="#rim" fill="#404040">
                        <set attributeName="fill" to="#808080" begin="arrowLeft.mouseover" end="arrowLeft.mouseout"/>
                  </use>
                  <path fill="none" stroke="white" stroke-width="1.5" d="M0,-3.0v7 M-2.5,-0.5L0,-3.0L2.5,-0.5"/>
                </g>
        </g>
        <svg viewBox="0 0 15 15" width="100%" height="30px" preserveAspectRatio="xMaxYMin meet">
         <g id="arrow_out" transform="scale(0.3 0.3)">
          <a xlink:href="class_view_1_1_grid_a41a30a88e387ffd4c232201536049709_icgraph_org.svg" target="_base">
           <rect id="button" ry="5" rx="5" y="6" x="6" height="38" width="38"
                fill="#f2f5e9" fill-opacity="0.5" stroke="#606060" stroke-width="1.0"/>
           <path id="arrow"
             d="M 11.500037,31.436501 C 11.940474,20.09759 22.043105,11.32322 32.158766,21.979434 L 37.068811,17.246167 C 37.068811,17.246167 37.088388,32 37.088388,32 L 22.160133,31.978069 C 22.160133,31.978069 26.997745,27.140456 26.997745,27.140456 C 18.528582,18.264221 13.291696,25.230495 11.500037,31.436501 z"
             style="fill:#404040;"/>
          </a>
         </g>
        </svg>
</svg>
