<?xml version="1.0" encoding="UTF-8" standalone="no"?>
<!DOCTYPE svg PUBLIC "-//W3C//DTD SVG 1.1//EN"
 "http://www.w3.org/Graphics/SVG/1.1/DTD/svg11.dtd">
<!-- Generated by graphviz version 2.36.0 (20140111.2315)
 -->
<!-- Title: commands.controlCommands.RepeatCommand Pages: 1 -->
<svg width="455pt" height="250pt"
 viewBox="0.00 0.00 455.00 250.00" xmlns="http://www.w3.org/2000/svg" xmlns:xlink="http://www.w3.org/1999/xlink">
<g id="graph0" class="graph" transform="scale(1 1) rotate(0) translate(4 246)">
<title>commands.controlCommands.RepeatCommand</title>
<polygon fill="white" stroke="none" points="-4,4 -4,-246 451,-246 451,4 -4,4"/>
<!-- Node1 -->
<g id="node1" class="node"><title>Node1</title>
<polygon fill="#bfbfbf" stroke="black" points="47.5,-1 47.5,-31 212.5,-31 212.5,-1 47.5,-1"/>
<text text-anchor="start" x="55.5" y="-19" font-family="Helvetica,sans-Serif" font-size="10.00">commands.controlCommands.</text>
<text text-anchor="middle" x="130" y="-8" font-family="Helvetica,sans-Serif" font-size="10.00">RepeatCommand</text>
</g>
<!-- Node2 -->
<g id="node2" class="node"><title>Node2</title>
<g id="a_node2"><a xlink:href="../../da/d8a/classcommands_1_1_control_command.html" target="_top" xlink:title="commands.ControlCommand">
<polygon fill="white" stroke="black" points="194,-71.5 194,-90.5 352,-90.5 352,-71.5 194,-71.5"/>
<text text-anchor="middle" x="273" y="-78.5" font-family="Helvetica,sans-Serif" font-size="10.00">commands.ControlCommand</text>
</a>
</g>
</g>
<!-- Node2&#45;&gt;Node1 -->
<g id="edge1" class="edge"><title>Node2&#45;&gt;Node1</title>
<path fill="none" stroke="midnightblue" d="M244.19,-67.3074C220.373,-56.8146 186.586,-41.9293 161.945,-31.0735"/>
<polygon fill="midnightblue" stroke="midnightblue" points="242.854,-70.5434 253.416,-71.3722 245.676,-64.1375 242.854,-70.5434"/>
</g>
<!-- Node3 -->
<g id="node3" class="node"><title>Node3</title>
<g id="a_node3"><a xlink:href="../../da/d90/classcommands_1_1_base_command.html" target="_top" xlink:title="commands.BaseCommand">
<polygon fill="white" stroke="black" points="0,-146.5 0,-165.5 148,-165.5 148,-146.5 0,-146.5"/>
<text text-anchor="middle" x="74" y="-153.5" font-family="Helvetica,sans-Serif" font-size="10.00">commands.BaseCommand</text>
</a>
</g>
</g>
<!-- Node3&#45;&gt;Node1 -->
<g id="edge7" class="edge"><title>Node3&#45;&gt;Node1</title>
<path fill="none" stroke="#9a32cd" stroke-dasharray="5,2" d="M72.7752,-136.151C72.3469,-118.345 73.6155,-91.2723 83,-70 89.6517,-54.9224 102.217,-41.1079 112.683,-31.3652"/>
<polygon fill="#9a32cd" stroke="#9a32cd" points="69.2884,-136.526 73.2334,-146.359 76.2814,-136.212 69.2884,-136.526"/>
<text text-anchor="middle" x="134" y="-84" font-family="Helvetica,sans-Serif" font-size="10.00"> myExpression</text>
<text text-anchor="middle" x="134" y="-73" font-family="Helvetica,sans-Serif" font-size="10.00">myInternalCommand</text>
</g>
<!-- Node3&#45;&gt;Node2 -->
<g id="edge2" class="edge"><title>Node3&#45;&gt;Node2</title>
<path fill="none" stroke="midnightblue" d="M106.833,-142.956C147.078,-128.193 214.272,-103.544 249.623,-90.5755"/>
<polygon fill="midnightblue" stroke="midnightblue" points="105.4,-139.753 97.2173,-146.483 107.811,-146.325 105.4,-139.753"/>
</g>
<!-- Node3&#45;&gt;Node3 -->
<g id="edge4" class="edge"><title>Node3&#45;&gt;Node3</title>
<path fill="none" stroke="#9a32cd" stroke-dasharray="5,2" d="M158.58,-160.266C163.233,-159.227 166,-157.805 166,-156 166,-153.111 158.916,-151.204 148.36,-150.279"/>
<polygon fill="#9a32cd" stroke="#9a32cd" points="157.767,-156.846 148.36,-161.721 158.754,-163.776 157.767,-156.846"/>
<text text-anchor="middle" x="211.5" y="-153.5" font-family="Helvetica,sans-Serif" font-size="10.00"> myNextCommand</text>
</g>
<!-- Node4 -->
<g id="node4" class="node"><title>Node4</title>
<polygon fill="white" stroke="#bfbfbf" points="38.5,-216.5 38.5,-235.5 109.5,-235.5 109.5,-216.5 38.5,-216.5"/>
<text text-anchor="middle" x="74" y="-223.5" font-family="Helvetica,sans-Serif" font-size="10.00">Serializable</text>
</g>
<!-- Node4&#45;&gt;Node3 -->
<g id="edge3" class="edge"><title>Node4&#45;&gt;Node3</title>
<path fill="none" stroke="midnightblue" d="M74,-206.039C74,-192.852 74,-175.884 74,-165.757"/>
<polygon fill="midnightblue" stroke="midnightblue" points="70.5001,-206.388 74,-216.388 77.5001,-206.388 70.5001,-206.388"/>
</g>
<!-- Node5 -->
<g id="node5" class="node"><title>Node5</title>
<g id="a_node5"><a xlink:href="../../d4/d05/classcommands_1_1information_1_1_base_user_defined_container.html" target="_top" xlink:title="commands.information.Base\lUserDefinedContainer">
<polygon fill="white" stroke="black" points="275.5,-141 275.5,-171 430.5,-171 430.5,-141 275.5,-141"/>
<text text-anchor="start" x="283.5" y="-159" font-family="Helvetica,sans-Serif" font-size="10.00">commands.information.Base</text>
<text text-anchor="middle" x="353" y="-148" font-family="Helvetica,sans-Serif" font-size="10.00">UserDefinedContainer</text>
</a>
</g>
</g>
<!-- Node5&#45;&gt;Node2 -->
<g id="edge5" class="edge"><title>Node5&#45;&gt;Node2</title>
<path fill="none" stroke="#9a32cd" stroke-dasharray="5,2" d="M329.773,-133.805C313.981,-119.395 293.93,-101.099 282.373,-90.5528"/>
<polygon fill="#9a32cd" stroke="#9a32cd" points="327.829,-136.77 337.575,-140.925 332.548,-131.599 327.829,-136.77"/>
<text text-anchor="middle" x="367.5" y="-113.5" font-family="Helvetica,sans-Serif" font-size="10.00"> myVariableContainer</text>
</g>
<!-- Node6 -->
<g id="node6" class="node"><title>Node6</title>
<g id="a_node6"><a xlink:href="../../d4/d4e/interfacecommands_1_1information_1_1_i_information_container.html" target="_top" xlink:title="commands.information.IInformation\lContainer">
<polygon fill="white" stroke="black" points="259,-211 259,-241 447,-241 447,-211 259,-211"/>
<text text-anchor="start" x="267" y="-229" font-family="Helvetica,sans-Serif" font-size="10.00">commands.information.IInformation</text>
<text text-anchor="middle" x="353" y="-218" font-family="Helvetica,sans-Serif" font-size="10.00">Container</text>
</a>
</g>
</g>
<!-- Node6&#45;&gt;Node5 -->
<g id="edge6" class="edge"><title>Node6&#45;&gt;Node5</title>
<path fill="none" stroke="midnightblue" d="M353,-200.769C353,-190.814 353,-179.638 353,-171.072"/>
<polygon fill="midnightblue" stroke="midnightblue" points="349.5,-200.91 353,-210.91 356.5,-200.91 349.5,-200.91"/>
</g>
</g>
</svg>
