<?xml version="1.0" encoding="UTF-8" standalone="no"?>
<!DOCTYPE svg PUBLIC "-//W3C//DTD SVG 1.1//EN"
 "http://www.w3.org/Graphics/SVG/1.1/DTD/svg11.dtd">
<!-- Generated by graphviz version 2.36.0 (20140111.2315)
 -->
<!-- Title: GUIFunctions.BackgroundColor Pages: 1 -->
<svg width="1528pt" height="258pt"
 viewBox="0.00 0.00 1528.00 258.00" xmlns="http://www.w3.org/2000/svg" xmlns:xlink="http://www.w3.org/1999/xlink">
<g id="graph0" class="graph" transform="scale(1 1) rotate(0) translate(4 254)">
<title>GUIFunctions.BackgroundColor</title>
<polygon fill="white" stroke="none" points="-4,4 -4,-254 1524,-254 1524,4 -4,4"/>
<!-- Node1 -->
<g id="node1" class="node"><title>Node1</title>
<polygon fill="#bfbfbf" stroke="black" points="1356,-129.5 1356,-148.5 1520,-148.5 1520,-129.5 1356,-129.5"/>
<text text-anchor="middle" x="1438" y="-136.5" font-family="Helvetica,sans-Serif" font-size="10.00">GUIFunctions.BackgroundColor</text>
</g>
<!-- Node2 -->
<g id="node2" class="node"><title>Node2</title>
<g id="a_node2"><a xlink:href="../../d4/df9/class_g_u_i_functions_1_1_color_function.html" target="_top" xlink:title="GUIFunctions.ColorFunction">
<polygon fill="white" stroke="black" points="1172,-160.5 1172,-179.5 1318,-179.5 1318,-160.5 1172,-160.5"/>
<text text-anchor="middle" x="1245" y="-167.5" font-family="Helvetica,sans-Serif" font-size="10.00">GUIFunctions.ColorFunction</text>
</a>
</g>
</g>
<!-- Node2&#45;&gt;Node1 -->
<g id="edge1" class="edge"><title>Node2&#45;&gt;Node1</title>
<path fill="none" stroke="midnightblue" d="M1314.65,-158.859C1335.44,-155.483 1358.09,-151.808 1378.18,-148.547"/>
<polygon fill="midnightblue" stroke="midnightblue" points="1313.91,-155.431 1304.6,-160.488 1315.04,-162.341 1313.91,-155.431"/>
</g>
<!-- Node3 -->
<g id="node3" class="node"><title>Node3</title>
<g id="a_node3"><a xlink:href="../../de/dbd/class_g_u_i_functions_1_1_grid_function.html" target="_top" xlink:title="GUIFunctions.GridFunction">
<polygon fill="white" stroke="black" points="992.5,-199.5 992.5,-218.5 1133.5,-218.5 1133.5,-199.5 992.5,-199.5"/>
<text text-anchor="middle" x="1063" y="-206.5" font-family="Helvetica,sans-Serif" font-size="10.00">GUIFunctions.GridFunction</text>
</a>
</g>
</g>
<!-- Node3&#45;&gt;Node2 -->
<g id="edge2" class="edge"><title>Node3&#45;&gt;Node2</title>
<path fill="none" stroke="midnightblue" d="M1117.84,-197.335C1144.11,-191.643 1175.31,-184.883 1200.11,-179.509"/>
<polygon fill="midnightblue" stroke="midnightblue" points="1117.07,-193.921 1108.03,-199.46 1118.55,-200.763 1117.07,-193.921"/>
</g>
<!-- Node4 -->
<g id="node4" class="node"><title>Node4</title>
<g id="a_node4"><a xlink:href="../../d1/df5/interface_g_u_i_functions_1_1_g_u_i_function.html" target="_top" xlink:title="GUIFunctions.GUIFunction">
<polygon fill="white" stroke="black" points="758.5,-219.5 758.5,-238.5 897.5,-238.5 897.5,-219.5 758.5,-219.5"/>
<text text-anchor="middle" x="828" y="-226.5" font-family="Helvetica,sans-Serif" font-size="10.00">GUIFunctions.GUIFunction</text>
</a>
</g>
</g>
<!-- Node4&#45;&gt;Node3 -->
<g id="edge3" class="edge"><title>Node4&#45;&gt;Node3</title>
<path fill="none" stroke="midnightblue" d="M907.955,-222.223C935.282,-219.877 965.695,-217.267 992.23,-214.989"/>
<polygon fill="midnightblue" stroke="midnightblue" points="907.311,-218.765 897.647,-223.108 907.91,-225.739 907.311,-218.765"/>
</g>
<!-- Node5 -->
<g id="node5" class="node"><title>Node5</title>
<g id="a_node5"><a xlink:href="../../d7/d98/class_view_1_1_grid_tracker.html" target="_top" xlink:title="View.GridTracker">
<polygon fill="white" stroke="black" points="781,-148.5 781,-167.5 875,-167.5 875,-148.5 781,-148.5"/>
<text text-anchor="middle" x="828" y="-155.5" font-family="Helvetica,sans-Serif" font-size="10.00">View.GridTracker</text>
</a>
</g>
</g>
<!-- Node5&#45;&gt;Node2 -->
<g id="edge15" class="edge"><title>Node5&#45;&gt;Node2</title>
<path fill="none" stroke="#9a32cd" stroke-dasharray="5,2" d="M885.499,-159.634C959.819,-161.783 1090.5,-165.561 1171.88,-167.915"/>
<polygon fill="#9a32cd" stroke="#9a32cd" points="885.495,-156.132 875.398,-159.342 885.292,-163.129 885.495,-156.132"/>
<text text-anchor="middle" x="1063" y="-170" font-family="Helvetica,sans-Serif" font-size="10.00"> myGrids</text>
</g>
<!-- Node5&#45;&gt;Node3 -->
<g id="edge4" class="edge"><title>Node5&#45;&gt;Node3</title>
<path fill="none" stroke="#9a32cd" stroke-dasharray="5,2" d="M876.943,-169.976C891.98,-173.633 908.657,-177.587 924,-181 953.352,-187.528 986.356,-194.247 1012.73,-199.466"/>
<polygon fill="#9a32cd" stroke="#9a32cd" points="877.377,-166.479 866.831,-167.502 875.713,-173.279 877.377,-166.479"/>
<text text-anchor="middle" x="949" y="-195" font-family="Helvetica,sans-Serif" font-size="10.00"> allGrids</text>
</g>
<!-- Node16 -->
<g id="node16" class="node"><title>Node16</title>
<g id="a_node16"><a xlink:href="../../da/d31/class_view_1_1_color_selection.html" target="_top" xlink:title="View.ColorSelection">
<polygon fill="white" stroke="black" points="1008,-83.5 1008,-102.5 1118,-102.5 1118,-83.5 1008,-83.5"/>
<text text-anchor="middle" x="1063" y="-90.5" font-family="Helvetica,sans-Serif" font-size="10.00">View.ColorSelection</text>
</a>
</g>
</g>
<!-- Node5&#45;&gt;Node16 -->
<g id="edge21" class="edge"><title>Node5&#45;&gt;Node16</title>
<path fill="none" stroke="#9a32cd" stroke-dasharray="5,2" d="M878.838,-146.043C906.899,-139.121 942.524,-130.015 974,-121 994.037,-115.261 1016.42,-108.13 1033.59,-102.501"/>
<polygon fill="#9a32cd" stroke="#9a32cd" points="877.741,-142.708 868.863,-148.491 879.409,-149.507 877.741,-142.708"/>
<text text-anchor="middle" x="949" y="-137" font-family="Helvetica,sans-Serif" font-size="10.00"> myGrids</text>
</g>
<!-- Node6 -->
<g id="node6" class="node"><title>Node6</title>
<polygon fill="white" stroke="#bfbfbf" points="542,-99 542,-129 646,-129 646,-99 542,-99"/>
<text text-anchor="start" x="550" y="-117" font-family="Helvetica,sans-Serif" font-size="10.00">java::util::HashSet</text>
<text text-anchor="middle" x="594" y="-106" font-family="Helvetica,sans-Serif" font-size="10.00">&lt; Grid &gt;</text>
</g>
<!-- Node6&#45;&gt;Node5 -->
<g id="edge5" class="edge"><title>Node6&#45;&gt;Node5</title>
<path fill="none" stroke="midnightblue" d="M656.376,-125.64C695.348,-133.032 744.981,-142.445 780.655,-149.21"/>
<polygon fill="midnightblue" stroke="midnightblue" points="656.678,-122.135 646.201,-123.71 655.373,-129.013 656.678,-122.135"/>
</g>
<!-- Node7 -->
<g id="node7" class="node"><title>Node7</title>
<g id="a_node7"><a xlink:href="../../d9/db1/class_view_1_1_single_grid.html" target="_top" xlink:title="View.SingleGrid">
<polygon fill="white" stroke="black" points="549.5,-148.5 549.5,-167.5 638.5,-167.5 638.5,-148.5 549.5,-148.5"/>
<text text-anchor="middle" x="594" y="-155.5" font-family="Helvetica,sans-Serif" font-size="10.00">View.SingleGrid</text>
</a>
</g>
</g>
<!-- Node7&#45;&gt;Node5 -->
<g id="edge6" class="edge"><title>Node7&#45;&gt;Node5</title>
<path fill="none" stroke="#9a32cd" stroke-dasharray="5,2" d="M648.739,-158C688.719,-158 742.72,-158 780.776,-158"/>
<polygon fill="#9a32cd" stroke="#9a32cd" points="648.637,-154.5 638.637,-158 648.637,-161.5 648.637,-154.5"/>
<text text-anchor="middle" x="698" y="-161" font-family="Helvetica,sans-Serif" font-size="10.00"> myActiveGrid</text>
</g>
<!-- Node8 -->
<g id="node8" class="node"><title>Node8</title>
<g id="a_node8"><a xlink:href="../../d0/d92/class_view_1_1_grid.html" target="_top" xlink:title="View.Grid">
<polygon fill="white" stroke="black" points="287,-211.5 287,-230.5 347,-230.5 347,-211.5 287,-211.5"/>
<text text-anchor="middle" x="317" y="-218.5" font-family="Helvetica,sans-Serif" font-size="10.00">View.Grid</text>
</a>
</g>
</g>
<!-- Node8&#45;&gt;Node7 -->
<g id="edge7" class="edge"><title>Node8&#45;&gt;Node7</title>
<path fill="none" stroke="midnightblue" d="M357.324,-222.089C399.598,-222.102 468.239,-218.738 524,-200 545.801,-192.674 567.987,-177.498 581.118,-167.536"/>
<polygon fill="midnightblue" stroke="midnightblue" points="357.192,-218.589 347.168,-222.021 357.144,-225.588 357.192,-218.589"/>
</g>
<!-- Node9 -->
<g id="node9" class="node"><title>Node9</title>
<polygon fill="white" stroke="#bfbfbf" points="54,-72.5 54,-91.5 94,-91.5 94,-72.5 54,-72.5"/>
<text text-anchor="middle" x="74" y="-79.5" font-family="Helvetica,sans-Serif" font-size="10.00">Pane</text>
</g>
<!-- Node9&#45;&gt;Node8 -->
<g id="edge8" class="edge"><title>Node9&#45;&gt;Node8</title>
<path fill="none" stroke="midnightblue" d="M91.443,-98.8465C118.049,-125.082 173.305,-175.439 230,-202 247.862,-210.368 269.56,-215.127 286.692,-217.79"/>
<polygon fill="midnightblue" stroke="midnightblue" points="93.6794,-96.1329 84.1357,-91.532 88.7271,-101.08 93.6794,-96.1329"/>
</g>
<!-- Node9&#45;&gt;Node16 -->
<g id="edge17" class="edge"><title>Node9&#45;&gt;Node16</title>
<path fill="none" stroke="midnightblue" d="M99.8465,-67.4655C142.533,-43.9095 233.207,-0 316,-0 316,-0 316,-0 829,-0 918.287,-0 1013.99,-59.6363 1048.57,-83.3976"/>
<polygon fill="midnightblue" stroke="midnightblue" points="98.0112,-64.482 91.0089,-72.4331 101.441,-70.5841 98.0112,-64.482"/>
</g>
<!-- Node10 -->
<g id="node10" class="node"><title>Node10</title>
<polygon fill="white" stroke="#bfbfbf" points="2,-192.5 2,-211.5 146,-211.5 146,-192.5 2,-192.5"/>
<text text-anchor="middle" x="74" y="-199.5" font-family="Helvetica,sans-Serif" font-size="10.00">HashMap&lt; String, Class &gt;</text>
</g>
<!-- Node10&#45;&gt;Node8 -->
<g id="edge9" class="edge"><title>Node10&#45;&gt;Node8</title>
<path fill="none" stroke="#9a32cd" stroke-dasharray="5,2" d="M156.26,-203.66C174.613,-204.398 193.992,-205.463 212,-207 237.413,-209.169 266.134,-213.153 286.945,-216.318"/>
<polygon fill="#9a32cd" stroke="#9a32cd" points="156.31,-200.159 146.186,-203.283 156.048,-207.155 156.31,-200.159"/>
<text text-anchor="middle" x="189" y="-210" font-family="Helvetica,sans-Serif" font-size="10.00"> myMap</text>
</g>
<!-- Node11 -->
<g id="node11" class="node"><title>Node11</title>
<polygon fill="white" stroke="#bfbfbf" points="0.5,-230.5 0.5,-249.5 147.5,-249.5 147.5,-230.5 0.5,-230.5"/>
<text text-anchor="middle" x="74" y="-237.5" font-family="Helvetica,sans-Serif" font-size="10.00">EventHandler&lt; KeyEvent &gt;</text>
</g>
<!-- Node11&#45;&gt;Node8 -->
<g id="edge10" class="edge"><title>Node11&#45;&gt;Node8</title>
<path fill="none" stroke="#9a32cd" stroke-dasharray="5,2" d="M157.645,-233.484C202.403,-229.956 254.916,-225.816 286.807,-223.301"/>
<polygon fill="#9a32cd" stroke="#9a32cd" points="157.329,-229.998 147.635,-234.274 157.879,-236.977 157.329,-229.998"/>
<text text-anchor="middle" x="189" y="-236" font-family="Helvetica,sans-Serif" font-size="10.00"> myEvent</text>
</g>
<!-- Node12 -->
<g id="node12" class="node"><title>Node12</title>
<polygon fill="white" stroke="#bfbfbf" points="250,-173.5 250,-192.5 384,-192.5 384,-173.5 250,-173.5"/>
<text text-anchor="middle" x="317" y="-180.5" font-family="Helvetica,sans-Serif" font-size="10.00">HashSet&lt; turtle.Turtle &gt;</text>
</g>
<!-- Node12&#45;&gt;Node7 -->
<g id="edge11" class="edge"><title>Node12&#45;&gt;Node7</title>
<path fill="none" stroke="#9a32cd" stroke-dasharray="5,2" d="M394.33,-176.061C444.235,-171.524 507.644,-165.76 549.227,-161.979"/>
<polygon fill="#9a32cd" stroke="#9a32cd" points="393.861,-172.589 384.219,-176.98 394.495,-179.56 393.861,-172.589"/>
<text text-anchor="middle" x="473" y="-188" font-family="Helvetica,sans-Serif" font-size="10.00"> allTurtles</text>
<text text-anchor="middle" x="473" y="-177" font-family="Helvetica,sans-Serif" font-size="10.00">activeTurtles</text>
</g>
<!-- Node13 -->
<g id="node13" class="node"><title>Node13</title>
<polygon fill="white" stroke="#bfbfbf" points="230.5,-124 230.5,-154 403.5,-154 403.5,-124 230.5,-124"/>
<text text-anchor="start" x="238.5" y="-142" font-family="Helvetica,sans-Serif" font-size="10.00">HashMap&lt; String, GUIFunctions.</text>
<text text-anchor="middle" x="317" y="-131" font-family="Helvetica,sans-Serif" font-size="10.00">GUIFunction &gt;</text>
</g>
<!-- Node13&#45;&gt;Node7 -->
<g id="edge12" class="edge"><title>Node13&#45;&gt;Node7</title>
<path fill="none" stroke="#9a32cd" stroke-dasharray="5,2" d="M413.673,-142.872C448.445,-144.605 488.027,-146.957 524,-150 532.171,-150.691 540.87,-151.58 549.239,-152.512"/>
<polygon fill="#9a32cd" stroke="#9a32cd" points="413.683,-139.368 403.524,-142.376 413.342,-146.36 413.683,-139.368"/>
<text text-anchor="middle" x="473" y="-153" font-family="Helvetica,sans-Serif" font-size="10.00"> myGridFunctions</text>
</g>
<!-- Node14 -->
<g id="node14" class="node"><title>Node14</title>
<polygon fill="white" stroke="#bfbfbf" points="283,-85.5 283,-104.5 351,-104.5 351,-85.5 283,-85.5"/>
<text text-anchor="middle" x="317" y="-92.5" font-family="Helvetica,sans-Serif" font-size="10.00">ImageView</text>
</g>
<!-- Node14&#45;&gt;Node7 -->
<g id="edge13" class="edge"><title>Node14&#45;&gt;Node7</title>
<path fill="none" stroke="#9a32cd" stroke-dasharray="5,2" d="M361.151,-98.3311C403.458,-102.473 469.371,-111.283 524,-129 532.508,-131.759 533.828,-134.364 542,-138 550.168,-141.635 559.214,-145.297 567.391,-148.476"/>
<polygon fill="#9a32cd" stroke="#9a32cd" points="361.47,-94.8457 351.188,-97.3993 360.818,-101.815 361.47,-94.8457"/>
<text text-anchor="middle" x="473" y="-132" font-family="Helvetica,sans-Serif" font-size="10.00"> myImageView</text>
</g>
<!-- Node15 -->
<g id="node15" class="node"><title>Node15</title>
<polygon fill="white" stroke="#bfbfbf" points="283,-47.5 283,-66.5 351,-66.5 351,-47.5 283,-47.5"/>
<text text-anchor="middle" x="317" y="-54.5" font-family="Helvetica,sans-Serif" font-size="10.00">Dimension</text>
</g>
<!-- Node15&#45;&gt;Node7 -->
<g id="edge14" class="edge"><title>Node15&#45;&gt;Node7</title>
<path fill="none" stroke="#9a32cd" stroke-dasharray="5,2" d="M361.413,-52.7356C406.917,-50.6809 478.056,-54.6146 524,-92 541.029,-105.857 526.482,-122.47 542,-138 546.302,-142.306 551.641,-145.708 557.229,-148.391"/>
<polygon fill="#9a32cd" stroke="#9a32cd" points="361.055,-49.2502 351.27,-53.3117 361.452,-56.2389 361.055,-49.2502"/>
<text text-anchor="middle" x="473" y="-95" font-family="Helvetica,sans-Serif" font-size="10.00"> DEFAULT_GRID_SIZE</text>
</g>
<!-- Node16&#45;&gt;Node1 -->
<g id="edge16" class="edge"><title>Node16&#45;&gt;Node1</title>
<path fill="none" stroke="#9a32cd" stroke-dasharray="5,2" d="M1128.23,-100.922C1192.44,-108.839 1291.2,-121.019 1359.67,-129.463"/>
<polygon fill="#9a32cd" stroke="#9a32cd" points="1128.59,-97.4392 1118.24,-99.6888 1127.73,-104.387 1128.59,-97.4392"/>
<text text-anchor="middle" x="1245" y="-128" font-family="Helvetica,sans-Serif" font-size="10.00"> myColors</text>
</g>
<!-- Node17 -->
<g id="node17" class="node"><title>Node17</title>
<polygon fill="white" stroke="#bfbfbf" points="773,-104.5 773,-123.5 883,-123.5 883,-104.5 773,-104.5"/>
<text text-anchor="middle" x="828" y="-111.5" font-family="Helvetica,sans-Serif" font-size="10.00">ArrayList&lt; String &gt;</text>
</g>
<!-- Node17&#45;&gt;Node16 -->
<g id="edge18" class="edge"><title>Node17&#45;&gt;Node16</title>
<path fill="none" stroke="#9a32cd" stroke-dasharray="5,2" d="M893.429,-108.193C929.392,-104.952 973.69,-100.959 1007.85,-97.8805"/>
<polygon fill="#9a32cd" stroke="#9a32cd" points="892.686,-104.746 883.041,-109.129 893.314,-111.718 892.686,-104.746"/>
<text text-anchor="middle" x="949" y="-109" font-family="Helvetica,sans-Serif" font-size="10.00"> myColors</text>
</g>
<!-- Node18 -->
<g id="node18" class="node"><title>Node18</title>
<polygon fill="white" stroke="#bfbfbf" points="750.5,-66.5 750.5,-85.5 905.5,-85.5 905.5,-66.5 750.5,-66.5"/>
<text text-anchor="middle" x="828" y="-73.5" font-family="Helvetica,sans-Serif" font-size="10.00">HashSet&lt; View.ColorLabel &gt;</text>
</g>
<!-- Node18&#45;&gt;Node16 -->
<g id="edge19" class="edge"><title>Node18&#45;&gt;Node16</title>
<path fill="none" stroke="#9a32cd" stroke-dasharray="5,2" d="M915.751,-74.1525C934.963,-74.4244 955.197,-75.2392 974,-77 988.378,-78.3465 1003.92,-80.8262 1017.89,-83.4382"/>
<polygon fill="#9a32cd" stroke="#9a32cd" points="915.538,-70.6505 905.505,-74.0562 915.472,-77.6502 915.538,-70.6505"/>
<text text-anchor="middle" x="949" y="-80" font-family="Helvetica,sans-Serif" font-size="10.00"> myLabels</text>
</g>
<!-- Node19 -->
<g id="node19" class="node"><title>Node19</title>
<polygon fill="white" stroke="#bfbfbf" points="807,-28.5 807,-47.5 849,-47.5 849,-28.5 807,-28.5"/>
<text text-anchor="middle" x="828" y="-35.5" font-family="Helvetica,sans-Serif" font-size="10.00">HBox</text>
</g>
<!-- Node19&#45;&gt;Node16 -->
<g id="edge20" class="edge"><title>Node19&#45;&gt;Node16</title>
<path fill="none" stroke="#9a32cd" stroke-dasharray="5,2" d="M859.565,-40.7692C889.169,-43.8875 935.157,-49.8881 974,-60 997.212,-66.0426 1022.78,-76.0267 1040.35,-83.4333"/>
<polygon fill="#9a32cd" stroke="#9a32cd" points="859.743,-37.2696 849.443,-39.7485 859.041,-44.2342 859.743,-37.2696"/>
<text text-anchor="middle" x="949" y="-63" font-family="Helvetica,sans-Serif" font-size="10.00"> colorBox</text>
</g>
</g>
</svg>
