<?xml version="1.0" encoding="UTF-8" standalone="no"?>
<!DOCTYPE svg PUBLIC "-//W3C//DTD SVG 1.1//EN"
 "http://www.w3.org/Graphics/SVG/1.1/DTD/svg11.dtd">
<!-- Generated by graphviz version 2.36.0 (20140111.2315)
 -->
<!-- Title: commands.viewQueries.PenColorQuery.onExecute Pages: 1 -->
<svg width="386pt" height="87pt"
 viewBox="0.00 0.00 386.00 87.00" xmlns="http://www.w3.org/2000/svg" xmlns:xlink="http://www.w3.org/1999/xlink">
<g id="graph0" class="graph" transform="scale(1 1) rotate(0) translate(4 83)">
<title>commands.viewQueries.PenColorQuery.onExecute</title>
<polygon fill="white" stroke="none" points="-4,4 -4,-83 382,-83 382,4 -4,4"/>
<!-- Node1 -->
<g id="node1" class="node"><title>Node1</title>
<polygon fill="#bfbfbf" stroke="black" points="0,-24 0,-54 152,-54 152,-24 0,-24"/>
<text text-anchor="start" x="8" y="-42" font-family="Helvetica,sans-Serif" font-size="10.00">commands.viewQueries.Pen</text>
<text text-anchor="middle" x="76" y="-31" font-family="Helvetica,sans-Serif" font-size="10.00">ColorQuery.onExecute</text>
</g>
<!-- Node2 -->
<g id="node2" class="node"><title>Node2</title>
<g id="a_node2"><a xlink:href="../../de/d53/classcommands_1_1_view_command.html#a32c2e34744e1d5c26ad5825a77e24ac1" target="_top" xlink:title="commands.ViewCommand.get\lGridContainer">
<polygon fill="white" stroke="black" points="201,-49 201,-79 365,-79 365,-49 201,-49"/>
<text text-anchor="start" x="209" y="-67" font-family="Helvetica,sans-Serif" font-size="10.00">commands.ViewCommand.get</text>
<text text-anchor="middle" x="283" y="-56" font-family="Helvetica,sans-Serif" font-size="10.00">GridContainer</text>
</a>
</g>
</g>
<!-- Node1&#45;&gt;Node2 -->
<g id="edge1" class="edge"><title>Node1&#45;&gt;Node2</title>
<path fill="none" stroke="midnightblue" d="M152.17,-48.1671C164.704,-49.6956 177.825,-51.2957 190.707,-52.8667"/>
<polygon fill="midnightblue" stroke="midnightblue" points="190.621,-56.3821 200.972,-54.1185 191.469,-49.4336 190.621,-56.3821"/>
</g>
<!-- Node3 -->
<g id="node3" class="node"><title>Node3</title>
<g id="a_node3"><a xlink:href="../../d4/d37/classcommands_1_1information_1_1_base_grid_container.html#a7236ecf27bd2b6a6af63209fdb651131" target="_top" xlink:title="commands.information.Base\lGridContainer.updateDisplayOptions">
<polygon fill="white" stroke="black" points="188,-0 188,-30 378,-30 378,-0 188,-0"/>
<text text-anchor="start" x="196" y="-18" font-family="Helvetica,sans-Serif" font-size="10.00">commands.information.Base</text>
<text text-anchor="middle" x="283" y="-7" font-family="Helvetica,sans-Serif" font-size="10.00">GridContainer.updateDisplayOptions</text>
</a>
</g>
</g>
<!-- Node1&#45;&gt;Node3 -->
<g id="edge2" class="edge"><title>Node1&#45;&gt;Node3</title>
<path fill="none" stroke="midnightblue" d="M152.17,-30.1996C160.548,-29.2188 169.188,-28.2072 177.844,-27.1938"/>
<polygon fill="midnightblue" stroke="midnightblue" points="178.473,-30.6442 187.998,-26.0051 177.659,-23.6917 178.473,-30.6442"/>
</g>
</g>
</svg>
