<?xml version="1.0" encoding="UTF-8" standalone="no"?>
<!DOCTYPE svg PUBLIC "-//W3C//DTD SVG 1.1//EN"
 "http://www.w3.org/Graphics/SVG/1.1/DTD/svg11.dtd">
<!-- Generated by graphviz version 2.36.0 (20140111.2315)
 -->
<!-- Title: commands.expressionCommands.ExpressionCommand Pages: 1 -->
<svg width="924pt" height="969pt"
 viewBox="0.00 0.00 924.00 969.00" xmlns="http://www.w3.org/2000/svg" xmlns:xlink="http://www.w3.org/1999/xlink">
<g id="graph0" class="graph" transform="scale(1 1) rotate(0) translate(4 965)">
<title>commands.expressionCommands.ExpressionCommand</title>
<polygon fill="white" stroke="none" points="-4,4 -4,-965 920,-965 920,4 -4,4"/>
<!-- Node1 -->
<g id="node1" class="node"><title>Node1</title>
<polygon fill="#bfbfbf" stroke="black" points="292,-514 292,-544 476,-544 476,-514 292,-514"/>
<text text-anchor="start" x="300" y="-532" font-family="Helvetica,sans-Serif" font-size="10.00">commands.expressionCommands.</text>
<text text-anchor="middle" x="384" y="-521" font-family="Helvetica,sans-Serif" font-size="10.00">ExpressionCommand</text>
</g>
<!-- Node4 -->
<g id="node4" class="node"><title>Node4</title>
<g id="a_node4"><a xlink:href="../../d8/db1/classcommands_1_1expression_commands_1_1_one_expression_command.html" target="_top" xlink:title="commands.expressionCommands.\lOneExpressionCommand">
<polygon fill="white" stroke="black" points="512,-735 512,-765 696,-765 696,-735 512,-735"/>
<text text-anchor="start" x="520" y="-753" font-family="Helvetica,sans-Serif" font-size="10.00">commands.expressionCommands.</text>
<text text-anchor="middle" x="604" y="-742" font-family="Helvetica,sans-Serif" font-size="10.00">OneExpressionCommand</text>
</a>
</g>
</g>
<!-- Node1&#45;&gt;Node4 -->
<g id="edge3" class="edge"><title>Node1&#45;&gt;Node4</title>
<path fill="none" stroke="midnightblue" d="M407.127,-551.432C451.576,-596.492 550.661,-696.941 588.199,-734.996"/>
<polygon fill="midnightblue" stroke="midnightblue" points="409.498,-548.852 399.984,-544.19 404.515,-553.767 409.498,-548.852"/>
</g>
<!-- Node13 -->
<g id="node13" class="node"><title>Node13</title>
<g id="a_node13"><a xlink:href="../../dc/d23/classcommands_1_1expression_commands_1_1_two_expression_command.html" target="_top" xlink:title="commands.expressionCommands.\lTwoExpressionCommand">
<polygon fill="white" stroke="black" points="512,-294 512,-324 696,-324 696,-294 512,-294"/>
<text text-anchor="start" x="520" y="-312" font-family="Helvetica,sans-Serif" font-size="10.00">commands.expressionCommands.</text>
<text text-anchor="middle" x="604" y="-301" font-family="Helvetica,sans-Serif" font-size="10.00">TwoExpressionCommand</text>
</a>
</g>
</g>
<!-- Node1&#45;&gt;Node13 -->
<g id="edge12" class="edge"><title>Node1&#45;&gt;Node13</title>
<path fill="none" stroke="midnightblue" d="M407.109,-506.689C451.435,-461.956 550.151,-362.334 587.911,-324.227"/>
<polygon fill="midnightblue" stroke="midnightblue" points="404.537,-504.312 399.984,-513.879 409.509,-509.239 404.537,-504.312"/>
</g>
<!-- Node2 -->
<g id="node2" class="node"><title>Node2</title>
<g id="a_node2"><a xlink:href="../../da/d90/classcommands_1_1_base_command.html" target="_top" xlink:title="commands.BaseCommand">
<polygon fill="white" stroke="black" points="108,-519.5 108,-538.5 256,-538.5 256,-519.5 108,-519.5"/>
<text text-anchor="middle" x="182" y="-526.5" font-family="Helvetica,sans-Serif" font-size="10.00">commands.BaseCommand</text>
</a>
</g>
</g>
<!-- Node2&#45;&gt;Node1 -->
<g id="edge1" class="edge"><title>Node2&#45;&gt;Node1</title>
<path fill="none" stroke="midnightblue" d="M266.232,-529C274.656,-529 283.244,-529 291.747,-529"/>
<polygon fill="midnightblue" stroke="midnightblue" points="266.054,-525.5 256.054,-529 266.054,-532.5 266.054,-525.5"/>
</g>
<!-- Node3 -->
<g id="node3" class="node"><title>Node3</title>
<polygon fill="white" stroke="#bfbfbf" points="0.5,-519.5 0.5,-538.5 71.5,-538.5 71.5,-519.5 0.5,-519.5"/>
<text text-anchor="middle" x="36" y="-526.5" font-family="Helvetica,sans-Serif" font-size="10.00">Serializable</text>
</g>
<!-- Node3&#45;&gt;Node2 -->
<g id="edge2" class="edge"><title>Node3&#45;&gt;Node2</title>
<path fill="none" stroke="midnightblue" d="M81.9439,-529C90.1703,-529 98.9482,-529 107.751,-529"/>
<polygon fill="midnightblue" stroke="midnightblue" points="81.8584,-525.5 71.8584,-529 81.8583,-532.5 81.8584,-525.5"/>
</g>
<!-- Node5 -->
<g id="node5" class="node"><title>Node5</title>
<g id="a_node5"><a xlink:href="../../d1/dcc/classcommands_1_1expression_commands_1_1_arc_tan_command.html" target="_top" xlink:title="commands.expressionCommands.\lArcTanCommand">
<polygon fill="white" stroke="black" points="732,-931 732,-961 916,-961 916,-931 732,-931"/>
<text text-anchor="start" x="740" y="-949" font-family="Helvetica,sans-Serif" font-size="10.00">commands.expressionCommands.</text>
<text text-anchor="middle" x="824" y="-938" font-family="Helvetica,sans-Serif" font-size="10.00">ArcTanCommand</text>
</a>
</g>
</g>
<!-- Node4&#45;&gt;Node5 -->
<g id="edge4" class="edge"><title>Node4&#45;&gt;Node5</title>
<path fill="none" stroke="midnightblue" d="M616.425,-774.38C635.19,-811.72 676.108,-882.758 732,-921 737.679,-924.886 743.944,-928.169 750.45,-930.944"/>
<polygon fill="midnightblue" stroke="midnightblue" points="619.479,-772.658 611.931,-765.224 613.196,-775.743 619.479,-772.658"/>
</g>
<!-- Node6 -->
<g id="node6" class="node"><title>Node6</title>
<g id="a_node6"><a xlink:href="../../d0/d37/classcommands_1_1expression_commands_1_1_cos_command.html" target="_top" xlink:title="commands.expressionCommands.\lCosCommand">
<polygon fill="white" stroke="black" points="732,-882 732,-912 916,-912 916,-882 732,-882"/>
<text text-anchor="start" x="740" y="-900" font-family="Helvetica,sans-Serif" font-size="10.00">commands.expressionCommands.</text>
<text text-anchor="middle" x="824" y="-889" font-family="Helvetica,sans-Serif" font-size="10.00">CosCommand</text>
</a>
</g>
</g>
<!-- Node4&#45;&gt;Node6 -->
<g id="edge5" class="edge"><title>Node4&#45;&gt;Node6</title>
<path fill="none" stroke="midnightblue" d="M622.919,-773.178C645.452,-800.748 686.71,-846.266 732,-872 738.695,-875.804 745.999,-879.054 753.463,-881.825"/>
<polygon fill="midnightblue" stroke="midnightblue" points="625.534,-770.845 616.544,-765.24 620.077,-775.229 625.534,-770.845"/>
</g>
<!-- Node7 -->
<g id="node7" class="node"><title>Node7</title>
<g id="a_node7"><a xlink:href="../../de/d1a/classcommands_1_1expression_commands_1_1_natural_log_command.html" target="_top" xlink:title="commands.expressionCommands.\lNaturalLogCommand">
<polygon fill="white" stroke="black" points="732,-833 732,-863 916,-863 916,-833 732,-833"/>
<text text-anchor="start" x="740" y="-851" font-family="Helvetica,sans-Serif" font-size="10.00">commands.expressionCommands.</text>
<text text-anchor="middle" x="824" y="-840" font-family="Helvetica,sans-Serif" font-size="10.00">NaturalLogCommand</text>
</a>
</g>
</g>
<!-- Node4&#45;&gt;Node7 -->
<g id="edge6" class="edge"><title>Node4&#45;&gt;Node7</title>
<path fill="none" stroke="midnightblue" d="M636.178,-770.919C661.208,-786.962 697.713,-808.709 732,-823 740.923,-826.719 750.566,-830.051 760.124,-832.978"/>
<polygon fill="midnightblue" stroke="midnightblue" points="637.796,-767.796 627.501,-765.291 633.986,-773.669 637.796,-767.796"/>
</g>
<!-- Node8 -->
<g id="node8" class="node"><title>Node8</title>
<g id="a_node8"><a xlink:href="../../df/dc2/classcommands_1_1expression_commands_1_1_negative_command.html" target="_top" xlink:title="commands.expressionCommands.\lNegativeCommand">
<polygon fill="white" stroke="black" points="732,-784 732,-814 916,-814 916,-784 732,-784"/>
<text text-anchor="start" x="740" y="-802" font-family="Helvetica,sans-Serif" font-size="10.00">commands.expressionCommands.</text>
<text text-anchor="middle" x="824" y="-791" font-family="Helvetica,sans-Serif" font-size="10.00">NegativeCommand</text>
</a>
</g>
</g>
<!-- Node4&#45;&gt;Node8 -->
<g id="edge7" class="edge"><title>Node4&#45;&gt;Node8</title>
<path fill="none" stroke="midnightblue" d="M681.781,-767.258C706.072,-772.718 732.708,-778.705 756.238,-783.994"/>
<polygon fill="midnightblue" stroke="midnightblue" points="682.413,-763.813 671.889,-765.035 680.878,-770.642 682.413,-763.813"/>
</g>
<!-- Node9 -->
<g id="node9" class="node"><title>Node9</title>
<g id="a_node9"><a xlink:href="../../d4/d2f/classcommands_1_1expression_commands_1_1_not_command.html" target="_top" xlink:title="commands.expressionCommands.\lNotCommand">
<polygon fill="white" stroke="black" points="732,-735 732,-765 916,-765 916,-735 732,-735"/>
<text text-anchor="start" x="740" y="-753" font-family="Helvetica,sans-Serif" font-size="10.00">commands.expressionCommands.</text>
<text text-anchor="middle" x="824" y="-742" font-family="Helvetica,sans-Serif" font-size="10.00">NotCommand</text>
</a>
</g>
</g>
<!-- Node4&#45;&gt;Node9 -->
<g id="edge8" class="edge"><title>Node4&#45;&gt;Node9</title>
<path fill="none" stroke="midnightblue" d="M706.465,-750C714.927,-750 723.449,-750 731.826,-750"/>
<polygon fill="midnightblue" stroke="midnightblue" points="706.189,-746.5 696.188,-750 706.188,-753.5 706.189,-746.5"/>
</g>
<!-- Node10 -->
<g id="node10" class="node"><title>Node10</title>
<g id="a_node10"><a xlink:href="../../da/d7f/classcommands_1_1expression_commands_1_1_random_integer_command.html" target="_top" xlink:title="commands.expressionCommands.\lRandomIntegerCommand">
<polygon fill="white" stroke="black" points="732,-686 732,-716 916,-716 916,-686 732,-686"/>
<text text-anchor="start" x="740" y="-704" font-family="Helvetica,sans-Serif" font-size="10.00">commands.expressionCommands.</text>
<text text-anchor="middle" x="824" y="-693" font-family="Helvetica,sans-Serif" font-size="10.00">RandomIntegerCommand</text>
</a>
</g>
</g>
<!-- Node4&#45;&gt;Node10 -->
<g id="edge9" class="edge"><title>Node4&#45;&gt;Node10</title>
<path fill="none" stroke="midnightblue" d="M681.781,-732.742C706.072,-727.282 732.708,-721.295 756.238,-716.006"/>
<polygon fill="midnightblue" stroke="midnightblue" points="680.878,-729.358 671.889,-734.965 682.413,-736.187 680.878,-729.358"/>
</g>
<!-- Node11 -->
<g id="node11" class="node"><title>Node11</title>
<g id="a_node11"><a xlink:href="../../d8/d1f/classcommands_1_1expression_commands_1_1_sin_command.html" target="_top" xlink:title="commands.expressionCommands.\lSinCommand">
<polygon fill="white" stroke="black" points="732,-637 732,-667 916,-667 916,-637 732,-637"/>
<text text-anchor="start" x="740" y="-655" font-family="Helvetica,sans-Serif" font-size="10.00">commands.expressionCommands.</text>
<text text-anchor="middle" x="824" y="-644" font-family="Helvetica,sans-Serif" font-size="10.00">SinCommand</text>
</a>
</g>
</g>
<!-- Node4&#45;&gt;Node11 -->
<g id="edge10" class="edge"><title>Node4&#45;&gt;Node11</title>
<path fill="none" stroke="midnightblue" d="M636.178,-729.081C661.208,-713.038 697.713,-691.291 732,-677 740.923,-673.281 750.566,-669.949 760.124,-667.022"/>
<polygon fill="midnightblue" stroke="midnightblue" points="633.986,-726.331 627.501,-734.709 637.796,-732.204 633.986,-726.331"/>
</g>
<!-- Node12 -->
<g id="node12" class="node"><title>Node12</title>
<g id="a_node12"><a xlink:href="../../d6/d9d/classcommands_1_1expression_commands_1_1_tan_command.html" target="_top" xlink:title="commands.expressionCommands.\lTanCommand">
<polygon fill="white" stroke="black" points="732,-588 732,-618 916,-618 916,-588 732,-588"/>
<text text-anchor="start" x="740" y="-606" font-family="Helvetica,sans-Serif" font-size="10.00">commands.expressionCommands.</text>
<text text-anchor="middle" x="824" y="-595" font-family="Helvetica,sans-Serif" font-size="10.00">TanCommand</text>
</a>
</g>
</g>
<!-- Node4&#45;&gt;Node12 -->
<g id="edge11" class="edge"><title>Node4&#45;&gt;Node12</title>
<path fill="none" stroke="midnightblue" d="M622.919,-726.822C645.452,-699.252 686.71,-653.734 732,-628 738.695,-624.196 745.999,-620.946 753.463,-618.175"/>
<polygon fill="midnightblue" stroke="midnightblue" points="620.077,-724.771 616.544,-734.76 625.534,-729.155 620.077,-724.771"/>
</g>
<!-- Node14 -->
<g id="node14" class="node"><title>Node14</title>
<g id="a_node14"><a xlink:href="../../d5/d45/classcommands_1_1expression_commands_1_1_and_command.html" target="_top" xlink:title="commands.expressionCommands.\lAndCommand">
<polygon fill="white" stroke="black" points="732,-539 732,-569 916,-569 916,-539 732,-539"/>
<text text-anchor="start" x="740" y="-557" font-family="Helvetica,sans-Serif" font-size="10.00">commands.expressionCommands.</text>
<text text-anchor="middle" x="824" y="-546" font-family="Helvetica,sans-Serif" font-size="10.00">AndCommand</text>
</a>
</g>
</g>
<!-- Node13&#45;&gt;Node14 -->
<g id="edge13" class="edge"><title>Node13&#45;&gt;Node14</title>
<path fill="none" stroke="midnightblue" d="M612.377,-333.973C627.223,-379.801 665.135,-477.353 732,-529 737.057,-532.906 742.685,-536.202 748.593,-538.983"/>
<polygon fill="midnightblue" stroke="midnightblue" points="615.659,-332.743 609.324,-324.251 608.981,-334.84 615.659,-332.743"/>
</g>
<!-- Node15 -->
<g id="node15" class="node"><title>Node15</title>
<g id="a_node15"><a xlink:href="../../d2/dc4/classcommands_1_1expression_commands_1_1_difference_command.html" target="_top" xlink:title="commands.expressionCommands.\lDifferenceCommand">
<polygon fill="white" stroke="black" points="732,-490 732,-520 916,-520 916,-490 732,-490"/>
<text text-anchor="start" x="740" y="-508" font-family="Helvetica,sans-Serif" font-size="10.00">commands.expressionCommands.</text>
<text text-anchor="middle" x="824" y="-497" font-family="Helvetica,sans-Serif" font-size="10.00">DifferenceCommand</text>
</a>
</g>
</g>
<!-- Node13&#45;&gt;Node15 -->
<g id="edge14" class="edge"><title>Node13&#45;&gt;Node15</title>
<path fill="none" stroke="midnightblue" d="M616.425,-333.38C635.19,-370.72 676.108,-441.758 732,-480 737.679,-483.886 743.944,-487.169 750.45,-489.944"/>
<polygon fill="midnightblue" stroke="midnightblue" points="619.479,-331.658 611.931,-324.224 613.196,-334.743 619.479,-331.658"/>
</g>
<!-- Node16 -->
<g id="node16" class="node"><title>Node16</title>
<g id="a_node16"><a xlink:href="../../da/d77/classcommands_1_1expression_commands_1_1_equal_command.html" target="_top" xlink:title="commands.expressionCommands.\lEqualCommand">
<polygon fill="white" stroke="black" points="732,-441 732,-471 916,-471 916,-441 732,-441"/>
<text text-anchor="start" x="740" y="-459" font-family="Helvetica,sans-Serif" font-size="10.00">commands.expressionCommands.</text>
<text text-anchor="middle" x="824" y="-448" font-family="Helvetica,sans-Serif" font-size="10.00">EqualCommand</text>
</a>
</g>
</g>
<!-- Node13&#45;&gt;Node16 -->
<g id="edge15" class="edge"><title>Node13&#45;&gt;Node16</title>
<path fill="none" stroke="midnightblue" d="M622.919,-332.178C645.452,-359.748 686.71,-405.266 732,-431 738.695,-434.804 745.999,-438.054 753.463,-440.825"/>
<polygon fill="midnightblue" stroke="midnightblue" points="625.534,-329.845 616.544,-324.24 620.077,-334.229 625.534,-329.845"/>
</g>
<!-- Node17 -->
<g id="node17" class="node"><title>Node17</title>
<g id="a_node17"><a xlink:href="../../dd/d4b/classcommands_1_1expression_commands_1_1_exponent_command.html" target="_top" xlink:title="commands.expressionCommands.\lExponentCommand">
<polygon fill="white" stroke="black" points="732,-392 732,-422 916,-422 916,-392 732,-392"/>
<text text-anchor="start" x="740" y="-410" font-family="Helvetica,sans-Serif" font-size="10.00">commands.expressionCommands.</text>
<text text-anchor="middle" x="824" y="-399" font-family="Helvetica,sans-Serif" font-size="10.00">ExponentCommand</text>
</a>
</g>
</g>
<!-- Node13&#45;&gt;Node17 -->
<g id="edge16" class="edge"><title>Node13&#45;&gt;Node17</title>
<path fill="none" stroke="midnightblue" d="M636.178,-329.919C661.208,-345.962 697.713,-367.709 732,-382 740.923,-385.719 750.566,-389.051 760.124,-391.978"/>
<polygon fill="midnightblue" stroke="midnightblue" points="637.796,-326.796 627.501,-324.291 633.986,-332.669 637.796,-326.796"/>
</g>
<!-- Node18 -->
<g id="node18" class="node"><title>Node18</title>
<g id="a_node18"><a xlink:href="../../d8/d71/classcommands_1_1expression_commands_1_1_greater_command.html" target="_top" xlink:title="commands.expressionCommands.\lGreaterCommand">
<polygon fill="white" stroke="black" points="732,-343 732,-373 916,-373 916,-343 732,-343"/>
<text text-anchor="start" x="740" y="-361" font-family="Helvetica,sans-Serif" font-size="10.00">commands.expressionCommands.</text>
<text text-anchor="middle" x="824" y="-350" font-family="Helvetica,sans-Serif" font-size="10.00">GreaterCommand</text>
</a>
</g>
</g>
<!-- Node13&#45;&gt;Node18 -->
<g id="edge17" class="edge"><title>Node13&#45;&gt;Node18</title>
<path fill="none" stroke="midnightblue" d="M681.781,-326.258C706.072,-331.718 732.708,-337.705 756.238,-342.994"/>
<polygon fill="midnightblue" stroke="midnightblue" points="682.413,-322.813 671.889,-324.035 680.878,-329.642 682.413,-322.813"/>
</g>
<!-- Node19 -->
<g id="node19" class="node"><title>Node19</title>
<g id="a_node19"><a xlink:href="../../dd/d4e/classcommands_1_1expression_commands_1_1_less_command.html" target="_top" xlink:title="commands.expressionCommands.\lLessCommand">
<polygon fill="white" stroke="black" points="732,-294 732,-324 916,-324 916,-294 732,-294"/>
<text text-anchor="start" x="740" y="-312" font-family="Helvetica,sans-Serif" font-size="10.00">commands.expressionCommands.</text>
<text text-anchor="middle" x="824" y="-301" font-family="Helvetica,sans-Serif" font-size="10.00">LessCommand</text>
</a>
</g>
</g>
<!-- Node13&#45;&gt;Node19 -->
<g id="edge18" class="edge"><title>Node13&#45;&gt;Node19</title>
<path fill="none" stroke="midnightblue" d="M706.465,-309C714.927,-309 723.449,-309 731.826,-309"/>
<polygon fill="midnightblue" stroke="midnightblue" points="706.189,-305.5 696.188,-309 706.188,-312.5 706.189,-305.5"/>
</g>
<!-- Node20 -->
<g id="node20" class="node"><title>Node20</title>
<g id="a_node20"><a xlink:href="../../dd/d39/classcommands_1_1expression_commands_1_1_not_equal_command.html" target="_top" xlink:title="commands.expressionCommands.\lNotEqualCommand">
<polygon fill="white" stroke="black" points="732,-245 732,-275 916,-275 916,-245 732,-245"/>
<text text-anchor="start" x="740" y="-263" font-family="Helvetica,sans-Serif" font-size="10.00">commands.expressionCommands.</text>
<text text-anchor="middle" x="824" y="-252" font-family="Helvetica,sans-Serif" font-size="10.00">NotEqualCommand</text>
</a>
</g>
</g>
<!-- Node13&#45;&gt;Node20 -->
<g id="edge19" class="edge"><title>Node13&#45;&gt;Node20</title>
<path fill="none" stroke="midnightblue" d="M681.781,-291.742C706.072,-286.282 732.708,-280.295 756.238,-275.006"/>
<polygon fill="midnightblue" stroke="midnightblue" points="680.878,-288.358 671.889,-293.965 682.413,-295.187 680.878,-288.358"/>
</g>
<!-- Node21 -->
<g id="node21" class="node"><title>Node21</title>
<g id="a_node21"><a xlink:href="../../d0/de5/classcommands_1_1expression_commands_1_1_or_command.html" target="_top" xlink:title="commands.expressionCommands.\lOrCommand">
<polygon fill="white" stroke="black" points="732,-196 732,-226 916,-226 916,-196 732,-196"/>
<text text-anchor="start" x="740" y="-214" font-family="Helvetica,sans-Serif" font-size="10.00">commands.expressionCommands.</text>
<text text-anchor="middle" x="824" y="-203" font-family="Helvetica,sans-Serif" font-size="10.00">OrCommand</text>
</a>
</g>
</g>
<!-- Node13&#45;&gt;Node21 -->
<g id="edge20" class="edge"><title>Node13&#45;&gt;Node21</title>
<path fill="none" stroke="midnightblue" d="M635.641,-287.97C660.636,-271.611 697.355,-249.352 732,-235 740,-231.686 748.588,-228.715 757.178,-226.088"/>
<polygon fill="midnightblue" stroke="midnightblue" points="633.39,-285.263 626.988,-293.705 637.257,-291.098 633.39,-285.263"/>
</g>
<!-- Node22 -->
<g id="node22" class="node"><title>Node22</title>
<g id="a_node22"><a xlink:href="../../d0/de3/classcommands_1_1expression_commands_1_1_product_command.html" target="_top" xlink:title="commands.expressionCommands.\lProductCommand">
<polygon fill="white" stroke="black" points="732,-147 732,-177 916,-177 916,-147 732,-147"/>
<text text-anchor="start" x="740" y="-165" font-family="Helvetica,sans-Serif" font-size="10.00">commands.expressionCommands.</text>
<text text-anchor="middle" x="824" y="-154" font-family="Helvetica,sans-Serif" font-size="10.00">ProductCommand</text>
</a>
</g>
</g>
<!-- Node13&#45;&gt;Node22 -->
<g id="edge21" class="edge"><title>Node13&#45;&gt;Node22</title>
<path fill="none" stroke="midnightblue" d="M622.476,-285.991C644.842,-258.158 686.21,-211.832 732,-186 738.119,-182.548 744.75,-179.578 751.548,-177.027"/>
<polygon fill="midnightblue" stroke="midnightblue" points="619.609,-283.974 616.161,-293.992 625.104,-288.311 619.609,-283.974"/>
</g>
<!-- Node23 -->
<g id="node23" class="node"><title>Node23</title>
<g id="a_node23"><a xlink:href="../../d2/d94/classcommands_1_1expression_commands_1_1_quotient_command.html" target="_top" xlink:title="commands.expressionCommands.\lQuotientCommand">
<polygon fill="white" stroke="black" points="732,-98 732,-128 916,-128 916,-98 732,-98"/>
<text text-anchor="start" x="740" y="-116" font-family="Helvetica,sans-Serif" font-size="10.00">commands.expressionCommands.</text>
<text text-anchor="middle" x="824" y="-105" font-family="Helvetica,sans-Serif" font-size="10.00">QuotientCommand</text>
</a>
</g>
</g>
<!-- Node13&#45;&gt;Node23 -->
<g id="edge22" class="edge"><title>Node13&#45;&gt;Node23</title>
<path fill="none" stroke="midnightblue" d="M616.2,-284.69C634.785,-247.113 675.614,-175.272 732,-137 737.002,-133.605 742.459,-130.69 748.135,-128.187"/>
<polygon fill="midnightblue" stroke="midnightblue" points="612.952,-283.368 611.755,-293.895 619.255,-286.411 612.952,-283.368"/>
</g>
<!-- Node24 -->
<g id="node24" class="node"><title>Node24</title>
<g id="a_node24"><a xlink:href="../../d2/deb/classcommands_1_1expression_commands_1_1_remainder_command.html" target="_top" xlink:title="commands.expressionCommands.\lRemainderCommand">
<polygon fill="white" stroke="black" points="732,-49 732,-79 916,-79 916,-49 732,-49"/>
<text text-anchor="start" x="740" y="-67" font-family="Helvetica,sans-Serif" font-size="10.00">commands.expressionCommands.</text>
<text text-anchor="middle" x="824" y="-56" font-family="Helvetica,sans-Serif" font-size="10.00">RemainderCommand</text>
</a>
</g>
</g>
<!-- Node13&#45;&gt;Node24 -->
<g id="edge23" class="edge"><title>Node13&#45;&gt;Node24</title>
<path fill="none" stroke="midnightblue" d="M612.186,-284.184C626.818,-238.184 664.53,-139.669 732,-88 736.54,-84.5231 741.54,-81.5483 746.789,-79.0033"/>
<polygon fill="midnightblue" stroke="midnightblue" points="608.783,-283.344 609.184,-293.931 615.473,-285.404 608.783,-283.344"/>
</g>
<!-- Node25 -->
<g id="node25" class="node"><title>Node25</title>
<g id="a_node25"><a xlink:href="../../df/da8/classcommands_1_1expression_commands_1_1_sum_command.html" target="_top" xlink:title="commands.expressionCommands.\lSumCommand">
<polygon fill="white" stroke="black" points="732,-0 732,-30 916,-30 916,-0 732,-0"/>
<text text-anchor="start" x="740" y="-18" font-family="Helvetica,sans-Serif" font-size="10.00">commands.expressionCommands.</text>
<text text-anchor="middle" x="824" y="-7" font-family="Helvetica,sans-Serif" font-size="10.00">SumCommand</text>
</a>
</g>
</g>
<!-- Node13&#45;&gt;Node25 -->
<g id="edge24" class="edge"><title>Node13&#45;&gt;Node25</title>
<path fill="none" stroke="midnightblue" d="M609.489,-283.704C620.361,-230.093 653.242,-104.599 732,-39 736.143,-35.5492 740.73,-32.5893 745.578,-30.0511"/>
<polygon fill="midnightblue" stroke="midnightblue" points="606.015,-283.234 607.547,-293.717 612.887,-284.566 606.015,-283.234"/>
</g>
</g>
</svg>
