<?xml version="1.0" encoding="UTF-8" standalone="no"?>
<!DOCTYPE svg PUBLIC "-//W3C//DTD SVG 1.1//EN"
 "http://www.w3.org/Graphics/SVG/1.1/DTD/svg11.dtd">
<!-- Generated by graphviz version 2.36.0 (20140111.2315)
 -->
<!-- Title: View.SingleGrid.getActiveTurtles Pages: 1 -->
<!--zoomable 352 -->
<svg id="main" version="1.1" xmlns="http://www.w3.org/2000/svg" xmlns:xlink="http://www.w3.org/1999/xlink" xml:space="preserve" onload="init(evt)">
<style type="text/css"><![CDATA[
.edge:hover path { stroke: red; }
.edge:hover polygon { stroke: red; fill: red; }
]]></style>
<script type="text/javascript"><![CDATA[
var edges = document.getElementsByTagName('g');
if (edges && edges.length) {
  for (var i=0;i<edges.length;i++) {
    if (edges[i].id.substr(0,4)=='edge') {
      edges[i].setAttribute('class','edge');
    }
  }
}
]]></script>
        <defs>
                <circle id="rim" cx="0" cy="0" r="7"/>
                <circle id="rim2" cx="0" cy="0" r="3.5"/>
                <g id="zoomPlus">
                        <use xlink:href="#rim" fill="#404040">
                                <set attributeName="fill" to="#808080" begin="zoomplus.mouseover" end="zoomplus.mouseout"/>
                        </use>
                        <path d="M-4,0h8M0,-4v8" fill="none" stroke="white" stroke-width="1.5" pointer-events="none"/>
                </g>
                <g id="zoomMin">
                        <use xlink:href="#rim" fill="#404040">
                                <set attributeName="fill" to="#808080" begin="zoomminus.mouseover" end="zoomminus.mouseout"/>
                        </use>
                        <path d="M-4,0h8" fill="none" stroke="white" stroke-width="1.5" pointer-events="none"/>
                </g>
                <g id="dirArrow">
                        <path fill="none" stroke="white" stroke-width="1.5" d="M0,-3.0v7 M-2.5,-0.5L0,-3.0L2.5,-0.5"/>
                </g>
               <g id="resetDef">
                       <use xlink:href="#rim2" fill="#404040">
                               <set attributeName="fill" to="#808080" begin="reset.mouseover" end="reset.mouseout"/>
                       </use>
               </g>
        </defs>

<script type="text/javascript">
var viewWidth = 1220;
var viewHeight = 352;
var sectionId = 'dynsection-8';
</script>
<script xlink:href="../../svgpan.js"/>
<svg id="graph" class="graph">
<g id="viewport">
<title>View.SingleGrid.getActiveTurtles</title>
<polygon fill="white" stroke="none" points="-4,4 -4,-348 1216,-348 1216,4 -4,4"/>
<!-- Node1 -->
<g id="node1" class="node"><title>Node1</title>
<polygon fill="#bfbfbf" stroke="black" points="0.5,-166 0.5,-196 137.5,-196 137.5,-166 0.5,-166"/>
<text text-anchor="start" x="8.5" y="-184" font-family="Helvetica,sans-Serif" font-size="10.00">View.SingleGrid.getActive</text>
<text text-anchor="middle" x="69" y="-173" font-family="Helvetica,sans-Serif" font-size="10.00">Turtles</text>
</g>
<!-- Node2 -->
<g id="node2" class="node"><title>Node2</title>
<g id="a_node2"><a xlink:href="../../d6/d9d/class_g_u_i_functions_1_1_clear_function.html#a684c4fdd50edd2b578f9b206ac24c849" target="_top" xlink:title="GUIFunctions.ClearFunction.do\lAction">
<polygon fill="white" stroke="black" points="177.5,-314 177.5,-344 338.5,-344 338.5,-314 177.5,-314"/>
<text text-anchor="start" x="185.5" y="-332" font-family="Helvetica,sans-Serif" font-size="10.00">GUIFunctions.ClearFunction.do</text>
<text text-anchor="middle" x="258" y="-321" font-family="Helvetica,sans-Serif" font-size="10.00">Action</text>
</a>
</g>
</g>
<!-- Node1&#45;&gt;Node2 -->
<g id="edge1" class="edge"><title>Node1&#45;&gt;Node2</title>
<path fill="none" stroke="midnightblue" d="M84.2093,-205.024C101.857,-232.823 134.51,-278.086 174,-304 179.914,-307.881 186.453,-311.179 193.19,-313.978"/>
<polygon fill="midnightblue" stroke="midnightblue" points="87.0562,-202.974 78.8116,-196.32 81.1071,-206.663 87.0562,-202.974"/>
</g>
<!-- Node3 -->
<g id="node3" class="node"><title>Node3</title>
<g id="a_node3"><a xlink:href="../../d1/de7/class_g_u_i_functions_1_1_undo.html#a611c153735c5cbdbbfd8f55faa0adaae" target="_top" xlink:title="GUIFunctions.Undo.doAction">
<polygon fill="white" stroke="black" points="182,-275.5 182,-294.5 334,-294.5 334,-275.5 182,-275.5"/>
<text text-anchor="middle" x="258" y="-282.5" font-family="Helvetica,sans-Serif" font-size="10.00">GUIFunctions.Undo.doAction</text>
</a>
</g>
</g>
<!-- Node1&#45;&gt;Node3 -->
<g id="edge2" class="edge"><title>Node1&#45;&gt;Node3</title>
<path fill="none" stroke="midnightblue" d="M91.1619,-203.359C110.819,-222.801 141.826,-250.255 174,-266 181.967,-269.899 190.758,-273.014 199.55,-275.498"/>
<polygon fill="midnightblue" stroke="midnightblue" points="93.4819,-200.728 83.9578,-196.086 88.5087,-205.654 93.4819,-200.728"/>
</g>
<!-- Node4 -->
<g id="node4" class="node"><title>Node4</title>
<g id="a_node4"><a xlink:href="../../de/def/class_g_u_i_functions_1_1_stamp.html#a69dfe4c5eb6d919cfca99f2097ce7e3e" target="_top" xlink:title="GUIFunctions.Stamp.doAction">
<polygon fill="white" stroke="black" points="178.5,-237.5 178.5,-256.5 337.5,-256.5 337.5,-237.5 178.5,-237.5"/>
<text text-anchor="middle" x="258" y="-244.5" font-family="Helvetica,sans-Serif" font-size="10.00">GUIFunctions.Stamp.doAction</text>
</a>
</g>
</g>
<!-- Node1&#45;&gt;Node4 -->
<g id="edge3" class="edge"><title>Node1&#45;&gt;Node4</title>
<path fill="none" stroke="midnightblue" d="M109.659,-200.557C128.782,-209.462 152.243,-219.634 174,-227 185.793,-230.993 198.783,-234.518 210.915,-237.454"/>
<polygon fill="midnightblue" stroke="midnightblue" points="110.904,-197.274 100.367,-196.171 107.916,-203.604 110.904,-197.274"/>
</g>
<!-- Node5 -->
<g id="node5" class="node"><title>Node5</title>
<g id="a_node5"><a xlink:href="../../db/dd9/class_g_u_i_functions_1_1_turtle_image_change.html#a912cba03d10e5081a69b6aa8b80277e6" target="_top" xlink:title="GUIFunctions.TurtleImage\lChange.doAction">
<polygon fill="white" stroke="black" points="189.5,-188 189.5,-218 326.5,-218 326.5,-188 189.5,-188"/>
<text text-anchor="start" x="197.5" y="-206" font-family="Helvetica,sans-Serif" font-size="10.00">GUIFunctions.TurtleImage</text>
<text text-anchor="middle" x="258" y="-195" font-family="Helvetica,sans-Serif" font-size="10.00">Change.doAction</text>
</a>
</g>
</g>
<!-- Node1&#45;&gt;Node5 -->
<g id="edge4" class="edge"><title>Node1&#45;&gt;Node5</title>
<path fill="none" stroke="midnightblue" d="M147.502,-190.118C161.365,-191.749 175.712,-193.437 189.274,-195.032"/>
<polygon fill="midnightblue" stroke="midnightblue" points="147.852,-186.635 137.511,-188.943 147.034,-193.587 147.852,-186.635"/>
</g>
<!-- Node6 -->
<g id="node6" class="node"><title>Node6</title>
<g id="a_node6"><a xlink:href="../../d9/db1/class_view_1_1_single_grid.html#a10f914014fc090d2d57192c8678242fd" target="_top" xlink:title="View.SingleGrid.getActivePens">
<polygon fill="white" stroke="black" points="177.5,-149.5 177.5,-168.5 338.5,-168.5 338.5,-149.5 177.5,-149.5"/>
<text text-anchor="middle" x="258" y="-156.5" font-family="Helvetica,sans-Serif" font-size="10.00">View.SingleGrid.getActivePens</text>
</a>
</g>
</g>
<!-- Node1&#45;&gt;Node6 -->
<g id="edge5" class="edge"><title>Node1&#45;&gt;Node6</title>
<path fill="none" stroke="midnightblue" d="M147.67,-171.862C157.521,-170.703 167.613,-169.516 177.492,-168.354"/>
<polygon fill="midnightblue" stroke="midnightblue" points="147.034,-168.413 137.511,-173.057 147.852,-175.365 147.034,-168.413"/>
</g>
<!-- Node12 -->
<g id="node12" class="node"><title>Node12</title>
<g id="a_node12"><a xlink:href="../../d9/db1/class_view_1_1_single_grid.html#a4c6eabf92c3205a22dc266cf0923f836" target="_top" xlink:title="View.SingleGrid.keyUpdate">
<polygon fill="white" stroke="black" points="186,-106.5 186,-125.5 330,-125.5 330,-106.5 186,-106.5"/>
<text text-anchor="middle" x="258" y="-113.5" font-family="Helvetica,sans-Serif" font-size="10.00">View.SingleGrid.keyUpdate</text>
</a>
</g>
</g>
<!-- Node1&#45;&gt;Node12 -->
<g id="edge11" class="edge"><title>Node1&#45;&gt;Node12</title>
<path fill="none" stroke="midnightblue" d="M115.491,-161.993C133.562,-154.725 154.625,-146.604 174,-140 189.334,-134.773 206.502,-129.685 221.228,-125.549"/>
<polygon fill="midnightblue" stroke="midnightblue" points="113.741,-158.926 105.789,-165.928 116.371,-165.413 113.741,-158.926"/>
</g>
<!-- Node13 -->
<g id="node13" class="node"><title>Node13</title>
<g id="a_node13"><a xlink:href="../../d5/d30/class_view_1_1_tabs_of_grids.html#addda546d87ab37b3c6d812b33c0118c9" target="_top" xlink:title="View.TabsOfGrids.setUpKey\lBoardHandler">
<polygon fill="white" stroke="black" points="389.5,-49 389.5,-79 534.5,-79 534.5,-49 389.5,-49"/>
<text text-anchor="start" x="397.5" y="-67" font-family="Helvetica,sans-Serif" font-size="10.00">View.TabsOfGrids.setUpKey</text>
<text text-anchor="middle" x="462" y="-56" font-family="Helvetica,sans-Serif" font-size="10.00">BoardHandler</text>
</a>
</g>
</g>
<!-- Node1&#45;&gt;Node13 -->
<g id="edge20" class="edge"><title>Node1&#45;&gt;Node13</title>
<path fill="none" stroke="midnightblue" d="M90.4892,-158.391C109.899,-138.586 140.931,-110.862 174,-97 243.151,-68.0119 329.414,-61.6268 389.219,-61.3311"/>
<polygon fill="midnightblue" stroke="midnightblue" points="87.7777,-156.163 83.3964,-165.809 92.8371,-161 87.7777,-156.163"/>
</g>
<!-- Node18 -->
<g id="node18" class="node"><title>Node18</title>
<g id="a_node18"><a xlink:href="../../d3/d42/class_table_information_1_1_turtle_variables_table.html#a12ef059be78468fe0f09b5bf41d11d4c" target="_top" xlink:title="TableInformation.TurtleVariables\lTable.moveTurtle">
<polygon fill="white" stroke="black" points="174.5,-6 174.5,-36 341.5,-36 341.5,-6 174.5,-6"/>
<text text-anchor="start" x="182.5" y="-24" font-family="Helvetica,sans-Serif" font-size="10.00">TableInformation.TurtleVariables</text>
<text text-anchor="middle" x="258" y="-13" font-family="Helvetica,sans-Serif" font-size="10.00">Table.moveTurtle</text>
</a>
</g>
</g>
<!-- Node1&#45;&gt;Node18 -->
<g id="edge17" class="edge"><title>Node1&#45;&gt;Node18</title>
<path fill="none" stroke="midnightblue" d="M84.0526,-156.957C101.754,-128.558 134.663,-81.5744 174,-53 183.371,-46.1927 194.375,-40.6275 205.251,-36.1608"/>
<polygon fill="midnightblue" stroke="midnightblue" points="80.8646,-155.462 78.6451,-165.822 86.8406,-159.108 80.8646,-155.462"/>
</g>
<!-- Node7 -->
<g id="node7" class="node"><title>Node7</title>
<g id="a_node7"><a xlink:href="../../d2/dd2/class_g_u_i_functions_1_1_set_pen_down.html#ac016088490fad0f1986cea6015a74a5d" target="_top" xlink:title="GUIFunctions.SetPenDown.do\lAction">
<polygon fill="white" stroke="black" points="383,-294 383,-324 541,-324 541,-294 383,-294"/>
<text text-anchor="start" x="391" y="-312" font-family="Helvetica,sans-Serif" font-size="10.00">GUIFunctions.SetPenDown.do</text>
<text text-anchor="middle" x="462" y="-301" font-family="Helvetica,sans-Serif" font-size="10.00">Action</text>
</a>
</g>
</g>
<!-- Node6&#45;&gt;Node7 -->
<g id="edge6" class="edge"><title>Node6&#45;&gt;Node7</title>
<path fill="none" stroke="midnightblue" d="M334.912,-173.527C337.415,-175.17 339.791,-176.989 342,-179 378.482,-212.209 342.464,-249.78 378,-284 382.011,-287.862 386.596,-291.13 391.506,-293.895"/>
<polygon fill="midnightblue" stroke="midnightblue" points="336.418,-170.36 325.973,-168.586 333.032,-176.487 336.418,-170.36"/>
</g>
<!-- Node8 -->
<g id="node8" class="node"><title>Node8</title>
<g id="a_node8"><a xlink:href="../../d8/d40/class_g_u_i_functions_1_1_set_pen_up.html#a66b0a694c32b985e22e6814d48fa7a5c" target="_top" xlink:title="GUIFunctions.SetPenUp.do\lAction">
<polygon fill="white" stroke="black" points="389.5,-245 389.5,-275 534.5,-275 534.5,-245 389.5,-245"/>
<text text-anchor="start" x="397.5" y="-263" font-family="Helvetica,sans-Serif" font-size="10.00">GUIFunctions.SetPenUp.do</text>
<text text-anchor="middle" x="462" y="-252" font-family="Helvetica,sans-Serif" font-size="10.00">Action</text>
</a>
</g>
</g>
<!-- Node6&#45;&gt;Node8 -->
<g id="edge7" class="edge"><title>Node6&#45;&gt;Node8</title>
<path fill="none" stroke="midnightblue" d="M330.909,-172.476C334.803,-174.374 338.534,-176.536 342,-179 366.116,-196.143 354.374,-217.188 378,-235 383.167,-238.896 388.94,-242.188 394.97,-244.97"/>
<polygon fill="midnightblue" stroke="midnightblue" points="332.15,-169.2 321.577,-168.51 329.412,-175.642 332.15,-169.2"/>
</g>
<!-- Node9 -->
<g id="node9" class="node"><title>Node9</title>
<g id="a_node9"><a xlink:href="../../d5/dfa/class_g_u_i_functions_1_1_pen_thickness.html#af0b6030ff3fbeb35d4cae430fb2635ac" target="_top" xlink:title="GUIFunctions.PenThickness.do\lAction">
<polygon fill="white" stroke="black" points="381.5,-196 381.5,-226 542.5,-226 542.5,-196 381.5,-196"/>
<text text-anchor="start" x="389.5" y="-214" font-family="Helvetica,sans-Serif" font-size="10.00">GUIFunctions.PenThickness.do</text>
<text text-anchor="middle" x="462" y="-203" font-family="Helvetica,sans-Serif" font-size="10.00">Action</text>
</a>
</g>
</g>
<!-- Node6&#45;&gt;Node9 -->
<g id="edge8" class="edge"><title>Node6&#45;&gt;Node9</title>
<path fill="none" stroke="midnightblue" d="M309.308,-170.898C320.107,-173.515 331.443,-176.309 342,-179 363.042,-184.363 386.105,-190.504 406.279,-195.963"/>
<polygon fill="midnightblue" stroke="midnightblue" points="310.122,-167.494 299.58,-168.553 308.481,-174.299 310.122,-167.494"/>
</g>
<!-- Node10 -->
<g id="node10" class="node"><title>Node10</title>
<g id="a_node10"><a xlink:href="../../da/d16/class_g_u_i_functions_1_1_pen_color.html#a40da853af47e7550f10ebb66756a8548" target="_top" xlink:title="GUIFunctions.PenColor.do\lAction">
<polygon fill="white" stroke="black" points="392.5,-147 392.5,-177 531.5,-177 531.5,-147 392.5,-147"/>
<text text-anchor="start" x="400.5" y="-165" font-family="Helvetica,sans-Serif" font-size="10.00">GUIFunctions.PenColor.do</text>
<text text-anchor="middle" x="462" y="-154" font-family="Helvetica,sans-Serif" font-size="10.00">Action</text>
</a>
</g>
</g>
<!-- Node6&#45;&gt;Node10 -->
<g id="edge9" class="edge"><title>Node6&#45;&gt;Node10</title>
<path fill="none" stroke="midnightblue" d="M348.627,-160.331C363.286,-160.549 378.268,-160.771 392.317,-160.98"/>
<polygon fill="midnightblue" stroke="midnightblue" points="348.597,-156.83 338.546,-160.181 348.493,-163.83 348.597,-156.83"/>
</g>
<!-- Node11 -->
<g id="node11" class="node"><title>Node11</title>
<g id="a_node11"><a xlink:href="../../d0/d77/class_g_u_i_functions_1_1_pen_style.html#a8e84d8f42da0306329a5e0266012b118" target="_top" xlink:title="GUIFunctions.PenStyle.do\lAction">
<polygon fill="white" stroke="black" points="392.5,-98 392.5,-128 531.5,-128 531.5,-98 392.5,-98"/>
<text text-anchor="start" x="400.5" y="-116" font-family="Helvetica,sans-Serif" font-size="10.00">GUIFunctions.PenStyle.do</text>
<text text-anchor="middle" x="462" y="-105" font-family="Helvetica,sans-Serif" font-size="10.00">Action</text>
</a>
</g>
</g>
<!-- Node6&#45;&gt;Node11 -->
<g id="edge10" class="edge"><title>Node6&#45;&gt;Node11</title>
<path fill="none" stroke="midnightblue" d="M310.742,-147.217C336.372,-141.381 367.605,-134.268 394.943,-128.043"/>
<polygon fill="midnightblue" stroke="midnightblue" points="309.828,-143.836 300.855,-149.469 311.382,-150.661 309.828,-143.836"/>
</g>
<!-- Node12&#45;&gt;Node13 -->
<g id="edge12" class="edge"><title>Node12&#45;&gt;Node13</title>
<path fill="none" stroke="midnightblue" d="M305.851,-103.939C334.608,-96.5366 371.68,-86.9933 402.374,-79.0918"/>
<polygon fill="midnightblue" stroke="midnightblue" points="304.862,-100.58 296.05,-106.462 306.607,-107.359 304.862,-100.58"/>
</g>
<!-- Node14 -->
<g id="node14" class="node"><title>Node14</title>
<g id="a_node14"><a xlink:href="../../d5/d30/class_view_1_1_tabs_of_grids.html#aa186cd880ee36327ffc0d66951a23fb5" target="_top" xlink:title="View.TabsOfGrids.addTab">
<polygon fill="white" stroke="black" points="599,-54.5 599,-73.5 733,-73.5 733,-54.5 599,-54.5"/>
<text text-anchor="middle" x="666" y="-61.5" font-family="Helvetica,sans-Serif" font-size="10.00">View.TabsOfGrids.addTab</text>
</a>
</g>
</g>
<!-- Node13&#45;&gt;Node14 -->
<g id="edge13" class="edge"><title>Node13&#45;&gt;Node14</title>
<path fill="none" stroke="midnightblue" d="M544.717,-64C562.764,-64 581.664,-64 598.996,-64"/>
<polygon fill="midnightblue" stroke="midnightblue" points="544.502,-60.5001 534.502,-64 544.502,-67.5001 544.502,-60.5001"/>
</g>
<!-- Node15 -->
<g id="node15" class="node"><title>Node15</title>
<g id="a_node15"><a xlink:href="../../d6/d33/class_view_1_1_slogo_view.html#a5759fa529a24ab1e80d37348f3dd395b" target="_top" xlink:title="View.SlogoView.addGrid">
<polygon fill="white" stroke="black" points="786.5,-54.5 786.5,-73.5 915.5,-73.5 915.5,-54.5 786.5,-54.5"/>
<text text-anchor="middle" x="851" y="-61.5" font-family="Helvetica,sans-Serif" font-size="10.00">View.SlogoView.addGrid</text>
</a>
</g>
</g>
<!-- Node14&#45;&gt;Node15 -->
<g id="edge14" class="edge"><title>Node14&#45;&gt;Node15</title>
<path fill="none" stroke="midnightblue" d="M743.397,-64C757.735,-64 772.582,-64 786.477,-64"/>
<polygon fill="midnightblue" stroke="midnightblue" points="743.067,-60.5001 733.067,-64 743.067,-67.5001 743.067,-60.5001"/>
</g>
<!-- Node16 -->
<g id="node16" class="node"><title>Node16</title>
<g id="a_node16"><a xlink:href="../../d6/d33/class_view_1_1_slogo_view.html#acfeff052503655d2ac419d2bf4ea9bd5" target="_top" xlink:title="View.SlogoView.initialize">
<polygon fill="white" stroke="black" points="952,-54.5 952,-73.5 1082,-73.5 1082,-54.5 952,-54.5"/>
<text text-anchor="middle" x="1017" y="-61.5" font-family="Helvetica,sans-Serif" font-size="10.00">View.SlogoView.initialize</text>
</a>
</g>
</g>
<!-- Node15&#45;&gt;Node16 -->
<g id="edge15" class="edge"><title>Node15&#45;&gt;Node16</title>
<path fill="none" stroke="midnightblue" d="M925.919,-64C934.54,-64 943.282,-64 951.758,-64"/>
<polygon fill="midnightblue" stroke="midnightblue" points="925.876,-60.5001 915.876,-64 925.876,-67.5001 925.876,-60.5001"/>
</g>
<!-- Node17 -->
<g id="node17" class="node"><title>Node17</title>
<g id="a_node17"><a xlink:href="../../db/d27/class_view_1_1_slogo.html#a6ab76a53160b61d8501aec91c55b85c8" target="_top" xlink:title="View.Slogo.start">
<polygon fill="white" stroke="black" points="1118.5,-54.5 1118.5,-73.5 1211.5,-73.5 1211.5,-54.5 1118.5,-54.5"/>
<text text-anchor="middle" x="1165" y="-61.5" font-family="Helvetica,sans-Serif" font-size="10.00">View.Slogo.start</text>
</a>
</g>
</g>
<!-- Node16&#45;&gt;Node17 -->
<g id="edge16" class="edge"><title>Node16&#45;&gt;Node17</title>
<path fill="none" stroke="midnightblue" d="M1092.14,-64C1101.11,-64 1110.05,-64 1118.43,-64"/>
<polygon fill="midnightblue" stroke="midnightblue" points="1092.04,-60.5001 1082.04,-64 1092.04,-67.5001 1092.04,-60.5001"/>
</g>
<!-- Node19 -->
<g id="node19" class="node"><title>Node19</title>
<g id="a_node19"><a xlink:href="../../d3/d42/class_table_information_1_1_turtle_variables_table.html#a3a32e6fd761411925b48c0fa60c29431" target="_top" xlink:title="TableInformation.TurtleVariables\lTable.setColumnEditable">
<polygon fill="white" stroke="black" points="378.5,-0 378.5,-30 545.5,-30 545.5,-0 378.5,-0"/>
<text text-anchor="start" x="386.5" y="-18" font-family="Helvetica,sans-Serif" font-size="10.00">TableInformation.TurtleVariables</text>
<text text-anchor="middle" x="462" y="-7" font-family="Helvetica,sans-Serif" font-size="10.00">Table.setColumnEditable</text>
</a>
</g>
</g>
<!-- Node18&#45;&gt;Node19 -->
<g id="edge18" class="edge"><title>Node18&#45;&gt;Node19</title>
<path fill="none" stroke="midnightblue" d="M352.018,-18.2371C360.815,-17.9758 369.694,-17.7121 378.385,-17.4539"/>
<polygon fill="midnightblue" stroke="midnightblue" points="351.636,-14.7468 341.744,-18.5423 351.844,-21.7437 351.636,-14.7468"/>
</g>
<!-- Node20 -->
<g id="node20" class="node"><title>Node20</title>
<g id="a_node20"><a xlink:href="../../d3/d42/class_table_information_1_1_turtle_variables_table.html#a6bac7fbbffde239e6438ea163f812b08" target="_top" xlink:title="TableInformation.TurtleVariables\lTable.TurtleVariablesTable">
<polygon fill="white" stroke="black" points="582.5,-0 582.5,-30 749.5,-30 749.5,-0 582.5,-0"/>
<text text-anchor="start" x="590.5" y="-18" font-family="Helvetica,sans-Serif" font-size="10.00">TableInformation.TurtleVariables</text>
<text text-anchor="middle" x="666" y="-7" font-family="Helvetica,sans-Serif" font-size="10.00">Table.TurtleVariablesTable</text>
</a>
</g>
</g>
<!-- Node19&#45;&gt;Node20 -->
<g id="edge19" class="edge"><title>Node19&#45;&gt;Node20</title>
<path fill="none" stroke="midnightblue" d="M556.018,-15C564.815,-15 573.694,-15 582.385,-15"/>
<polygon fill="midnightblue" stroke="midnightblue" points="555.744,-11.5001 545.744,-15 555.744,-18.5001 555.744,-11.5001"/>
</g>
</g>
</svg>
        <g id="navigator" transform="translate(0 0)" fill="#404254">
                <rect fill="#f2f5e9" fill-opacity="0.5" stroke="#606060" stroke-width=".5" x="0" y="0" width="60" height="60"/>
                <use id="zoomplus" xlink:href="#zoomPlus" x="17" y="9" onmousedown="handleZoom(evt,'in')"/>
                <use id="zoomminus" xlink:href="#zoomMin" x="42" y="9" onmousedown="handleZoom(evt,'out')"/>
                <use id="reset" xlink:href="#resetDef" x="30" y="36" onmousedown="handleReset()"/>
                <g id="arrowUp" xlink:href="#dirArrow" transform="translate(30 24)" onmousedown="handlePan(0,-1)">
                  <use xlink:href="#rim" fill="#404040">
                        <set attributeName="fill" to="#808080" begin="arrowUp.mouseover" end="arrowUp.mouseout"/>
                  </use>
                  <path fill="none" stroke="white" stroke-width="1.5" d="M0,-3.0v7 M-2.5,-0.5L0,-3.0L2.5,-0.5"/>
                </g>
                <g id="arrowRight" xlink:href="#dirArrow" transform="rotate(90) translate(36 -43)" onmousedown="handlePan(1,0)">
                  <use xlink:href="#rim" fill="#404040">
                        <set attributeName="fill" to="#808080" begin="arrowRight.mouseover" end="arrowRight.mouseout"/>
                  </use>
                  <path fill="none" stroke="white" stroke-width="1.5" d="M0,-3.0v7 M-2.5,-0.5L0,-3.0L2.5,-0.5"/>
                </g>
                <g id="arrowDown" xlink:href="#dirArrow" transform="rotate(180) translate(-30 -48)" onmousedown="handlePan(0,1)">
                  <use xlink:href="#rim" fill="#404040">
                        <set attributeName="fill" to="#808080" begin="arrowDown.mouseover" end="arrowDown.mouseout"/>
                  </use>
                  <path fill="none" stroke="white" stroke-width="1.5" d="M0,-3.0v7 M-2.5,-0.5L0,-3.0L2.5,-0.5"/>
                </g>
                <g id="arrowLeft" xlink:href="#dirArrow" transform="rotate(270) translate(-36 17)" onmousedown="handlePan(-1,0)">
                  <use xlink:href="#rim" fill="#404040">
                        <set attributeName="fill" to="#808080" begin="arrowLeft.mouseover" end="arrowLeft.mouseout"/>
                  </use>
                  <path fill="none" stroke="white" stroke-width="1.5" d="M0,-3.0v7 M-2.5,-0.5L0,-3.0L2.5,-0.5"/>
                </g>
        </g>
        <svg viewBox="0 0 15 15" width="100%" height="30px" preserveAspectRatio="xMaxYMin meet">
         <g id="arrow_out" transform="scale(0.3 0.3)">
          <a xlink:href="class_view_1_1_single_grid_a63dce7bacaea4b387aeef30975ad678b_icgraph_org.svg" target="_base">
           <rect id="button" ry="5" rx="5" y="6" x="6" height="38" width="38"
                fill="#f2f5e9" fill-opacity="0.5" stroke="#606060" stroke-width="1.0"/>
           <path id="arrow"
             d="M 11.500037,31.436501 C 11.940474,20.09759 22.043105,11.32322 32.158766,21.979434 L 37.068811,17.246167 C 37.068811,17.246167 37.088388,32 37.088388,32 L 22.160133,31.978069 C 22.160133,31.978069 26.997745,27.140456 26.997745,27.140456 C 18.528582,18.264221 13.291696,25.230495 11.500037,31.436501 z"
             style="fill:#404040;"/>
          </a>
         </g>
        </svg>
</svg>
