<?xml version="1.0" encoding="UTF-8" standalone="no"?>
<!DOCTYPE svg PUBLIC "-//W3C//DTD SVG 1.1//EN"
 "http://www.w3.org/Graphics/SVG/1.1/DTD/svg11.dtd">
<!-- Generated by graphviz version 2.36.0 (20140111.2315)
 -->
<!-- Title: View.SingleGrid.setBackgroundColor Pages: 1 -->
<svg width="386pt" height="77pt"
 viewBox="0.00 0.00 386.00 77.00" xmlns="http://www.w3.org/2000/svg" xmlns:xlink="http://www.w3.org/1999/xlink">
<g id="graph0" class="graph" transform="scale(1 1) rotate(0) translate(4 73)">
<title>View.SingleGrid.setBackgroundColor</title>
<polygon fill="white" stroke="none" points="-4,4 -4,-73 382,-73 382,4 -4,4"/>
<!-- Node1 -->
<g id="node1" class="node"><title>Node1</title>
<polygon fill="#bfbfbf" stroke="black" points="0,-17 0,-47 164,-47 164,-17 0,-17"/>
<text text-anchor="start" x="8" y="-35" font-family="Helvetica,sans-Serif" font-size="10.00">View.SingleGrid.setBackground</text>
<text text-anchor="middle" x="82" y="-24" font-family="Helvetica,sans-Serif" font-size="10.00">Color</text>
</g>
<!-- Node2 -->
<g id="node2" class="node"><title>Node2</title>
<g id="a_node2"><a xlink:href="../../dd/d80/class_g_u_i_functions_1_1_background_color.html#a0bcc67b3b6e4aeaaf6b5188ff5a51c9d" target="_top" xlink:title="GUIFunctions.BackgroundColor.do\lAction">
<polygon fill="white" stroke="black" points="200,-39 200,-69 378,-69 378,-39 200,-39"/>
<text text-anchor="start" x="208" y="-57" font-family="Helvetica,sans-Serif" font-size="10.00">GUIFunctions.BackgroundColor.do</text>
<text text-anchor="middle" x="289" y="-46" font-family="Helvetica,sans-Serif" font-size="10.00">Action</text>
</a>
</g>
</g>
<!-- Node1&#45;&gt;Node2 -->
<g id="edge1" class="edge"><title>Node1&#45;&gt;Node2</title>
<path fill="none" stroke="midnightblue" d="M174.015,-41.7675C182.584,-42.687 191.261,-43.6182 199.802,-44.5349"/>
<polygon fill="midnightblue" stroke="midnightblue" points="174.338,-38.2821 164.021,-40.695 173.591,-45.2421 174.338,-38.2821"/>
</g>
<!-- Node3 -->
<g id="node3" class="node"><title>Node3</title>
<g id="a_node3"><a xlink:href="../../d9/db1/class_view_1_1_single_grid.html#a82def904a1ebb3600a02ea5efb6c12d8" target="_top" xlink:title="View.SingleGrid.SingleGrid">
<polygon fill="white" stroke="black" points="218.5,-0.5 218.5,-19.5 359.5,-19.5 359.5,-0.5 218.5,-0.5"/>
<text text-anchor="middle" x="289" y="-7.5" font-family="Helvetica,sans-Serif" font-size="10.00">View.SingleGrid.SingleGrid</text>
</a>
</g>
</g>
<!-- Node1&#45;&gt;Node3 -->
<g id="edge2" class="edge"><title>Node1&#45;&gt;Node3</title>
<path fill="none" stroke="midnightblue" d="M174.239,-22.2085C189.094,-20.6143 204.268,-18.9858 218.494,-17.4592"/>
<polygon fill="midnightblue" stroke="midnightblue" points="173.591,-18.7579 164.021,-23.305 174.338,-25.7179 173.591,-18.7579"/>
</g>
</g>
</svg>
