<?xml version="1.0" encoding="UTF-8" standalone="no"?>
<!DOCTYPE svg PUBLIC "-//W3C//DTD SVG 1.1//EN"
 "http://www.w3.org/Graphics/SVG/1.1/DTD/svg11.dtd">
<!-- Generated by graphviz version 2.36.0 (20140111.2315)
 -->
<!-- Title: View.SingleGrid.keepTurtleInBounds Pages: 1 -->
<!--zoomable 126 -->
<svg id="main" version="1.1" xmlns="http://www.w3.org/2000/svg" xmlns:xlink="http://www.w3.org/1999/xlink" xml:space="preserve" onload="init(evt)">
<style type="text/css"><![CDATA[
.edge:hover path { stroke: red; }
.edge:hover polygon { stroke: red; fill: red; }
]]></style>
<script type="text/javascript"><![CDATA[
var edges = document.getElementsByTagName('g');
if (edges && edges.length) {
  for (var i=0;i<edges.length;i++) {
    if (edges[i].id.substr(0,4)=='edge') {
      edges[i].setAttribute('class','edge');
    }
  }
}
]]></script>
        <defs>
                <circle id="rim" cx="0" cy="0" r="7"/>
                <circle id="rim2" cx="0" cy="0" r="3.5"/>
                <g id="zoomPlus">
                        <use xlink:href="#rim" fill="#404040">
                                <set attributeName="fill" to="#808080" begin="zoomplus.mouseover" end="zoomplus.mouseout"/>
                        </use>
                        <path d="M-4,0h8M0,-4v8" fill="none" stroke="white" stroke-width="1.5" pointer-events="none"/>
                </g>
                <g id="zoomMin">
                        <use xlink:href="#rim" fill="#404040">
                                <set attributeName="fill" to="#808080" begin="zoomminus.mouseover" end="zoomminus.mouseout"/>
                        </use>
                        <path d="M-4,0h8" fill="none" stroke="white" stroke-width="1.5" pointer-events="none"/>
                </g>
                <g id="dirArrow">
                        <path fill="none" stroke="white" stroke-width="1.5" d="M0,-3.0v7 M-2.5,-0.5L0,-3.0L2.5,-0.5"/>
                </g>
               <g id="resetDef">
                       <use xlink:href="#rim2" fill="#404040">
                               <set attributeName="fill" to="#808080" begin="reset.mouseover" end="reset.mouseout"/>
                       </use>
               </g>
        </defs>

<script type="text/javascript">
var viewWidth = 1238;
var viewHeight = 126;
var sectionId = 'dynsection-16';
</script>
<script xlink:href="../../svgpan.js"/>
<svg id="graph" class="graph">
<g id="viewport">
<title>View.SingleGrid.keepTurtleInBounds</title>
<polygon fill="white" stroke="none" points="-4,4 -4,-122 1234,-122 1234,4 -4,4"/>
<!-- Node1 -->
<g id="node1" class="node"><title>Node1</title>
<polygon fill="#bfbfbf" stroke="black" points="0.5,-64 0.5,-94 141.5,-94 141.5,-64 0.5,-64"/>
<text text-anchor="start" x="8.5" y="-82" font-family="Helvetica,sans-Serif" font-size="10.00">View.SingleGrid.keepTurtle</text>
<text text-anchor="middle" x="71" y="-71" font-family="Helvetica,sans-Serif" font-size="10.00">InBounds</text>
</g>
<!-- Node2 -->
<g id="node2" class="node"><title>Node2</title>
<g id="a_node2"><a xlink:href="../../d9/db1/class_view_1_1_single_grid.html#a4c6eabf92c3205a22dc266cf0923f836" target="_top" xlink:title="View.SingleGrid.keyUpdate">
<polygon fill="white" stroke="black" points="178,-90.5 178,-109.5 322,-109.5 322,-90.5 178,-90.5"/>
<text text-anchor="middle" x="250" y="-97.5" font-family="Helvetica,sans-Serif" font-size="10.00">View.SingleGrid.keyUpdate</text>
</a>
</g>
</g>
<!-- Node1&#45;&gt;Node2 -->
<g id="edge1" class="edge"><title>Node1&#45;&gt;Node2</title>
<path fill="none" stroke="midnightblue" d="M151.833,-88.4718C160.526,-89.5031 169.331,-90.5478 177.909,-91.5655"/>
<polygon fill="midnightblue" stroke="midnightblue" points="152.044,-84.9723 141.701,-87.2696 151.219,-91.9235 152.044,-84.9723"/>
</g>
<!-- Node8 -->
<g id="node8" class="node"><title>Node8</title>
<g id="a_node8"><a xlink:href="../../d9/db1/class_view_1_1_single_grid.html#aa718e560e84ad31be3e046029d0226ab" target="_top" xlink:title="View.SingleGrid.update">
<polygon fill="white" stroke="black" points="187,-49.5 187,-68.5 313,-68.5 313,-49.5 187,-49.5"/>
<text text-anchor="middle" x="250" y="-56.5" font-family="Helvetica,sans-Serif" font-size="10.00">View.SingleGrid.update</text>
</a>
</g>
</g>
<!-- Node1&#45;&gt;Node8 -->
<g id="edge7" class="edge"><title>Node1&#45;&gt;Node8</title>
<path fill="none" stroke="midnightblue" d="M151.921,-69.9694C163.633,-68.6459 175.548,-67.2996 186.835,-66.0243"/>
<polygon fill="midnightblue" stroke="midnightblue" points="151.245,-66.5234 141.701,-71.1242 152.031,-73.4792 151.245,-66.5234"/>
</g>
<!-- Node3 -->
<g id="node3" class="node"><title>Node3</title>
<g id="a_node3"><a xlink:href="../../d5/d30/class_view_1_1_tabs_of_grids.html#addda546d87ab37b3c6d812b33c0118c9" target="_top" xlink:title="View.TabsOfGrids.setUpKey\lBoardHandler">
<polygon fill="white" stroke="black" points="369.5,-88 369.5,-118 514.5,-118 514.5,-88 369.5,-88"/>
<text text-anchor="start" x="377.5" y="-106" font-family="Helvetica,sans-Serif" font-size="10.00">View.TabsOfGrids.setUpKey</text>
<text text-anchor="middle" x="442" y="-95" font-family="Helvetica,sans-Serif" font-size="10.00">BoardHandler</text>
</a>
</g>
</g>
<!-- Node2&#45;&gt;Node3 -->
<g id="edge2" class="edge"><title>Node2&#45;&gt;Node3</title>
<path fill="none" stroke="midnightblue" d="M332.299,-101.284C344.648,-101.479 357.313,-101.679 369.434,-101.87"/>
<polygon fill="midnightblue" stroke="midnightblue" points="332.073,-97.7798 322.019,-101.121 331.963,-104.779 332.073,-97.7798"/>
</g>
<!-- Node4 -->
<g id="node4" class="node"><title>Node4</title>
<g id="a_node4"><a xlink:href="../../d5/d30/class_view_1_1_tabs_of_grids.html#aa186cd880ee36327ffc0d66951a23fb5" target="_top" xlink:title="View.TabsOfGrids.addTab">
<polygon fill="white" stroke="black" points="579,-93.5 579,-112.5 713,-112.5 713,-93.5 579,-93.5"/>
<text text-anchor="middle" x="646" y="-100.5" font-family="Helvetica,sans-Serif" font-size="10.00">View.TabsOfGrids.addTab</text>
</a>
</g>
</g>
<!-- Node3&#45;&gt;Node4 -->
<g id="edge3" class="edge"><title>Node3&#45;&gt;Node4</title>
<path fill="none" stroke="midnightblue" d="M524.717,-103C542.764,-103 561.664,-103 578.996,-103"/>
<polygon fill="midnightblue" stroke="midnightblue" points="524.502,-99.5001 514.502,-103 524.502,-106.5 524.502,-99.5001"/>
</g>
<!-- Node5 -->
<g id="node5" class="node"><title>Node5</title>
<g id="a_node5"><a xlink:href="../../d6/d33/class_view_1_1_slogo_view.html#a5759fa529a24ab1e80d37348f3dd395b" target="_top" xlink:title="View.SlogoView.addGrid">
<polygon fill="white" stroke="black" points="785.5,-93.5 785.5,-112.5 914.5,-112.5 914.5,-93.5 785.5,-93.5"/>
<text text-anchor="middle" x="850" y="-100.5" font-family="Helvetica,sans-Serif" font-size="10.00">View.SlogoView.addGrid</text>
</a>
</g>
</g>
<!-- Node4&#45;&gt;Node5 -->
<g id="edge4" class="edge"><title>Node4&#45;&gt;Node5</title>
<path fill="none" stroke="midnightblue" d="M723.378,-103C743.852,-103 765.762,-103 785.458,-103"/>
<polygon fill="midnightblue" stroke="midnightblue" points="723.142,-99.5001 713.142,-103 723.142,-106.5 723.142,-99.5001"/>
</g>
<!-- Node6 -->
<g id="node6" class="node"><title>Node6</title>
<g id="a_node6"><a xlink:href="../../d6/d33/class_view_1_1_slogo_view.html#acfeff052503655d2ac419d2bf4ea9bd5" target="_top" xlink:title="View.SlogoView.initialize">
<polygon fill="white" stroke="black" points="970,-93.5 970,-112.5 1100,-112.5 1100,-93.5 970,-93.5"/>
<text text-anchor="middle" x="1035" y="-100.5" font-family="Helvetica,sans-Serif" font-size="10.00">View.SlogoView.initialize</text>
</a>
</g>
</g>
<!-- Node5&#45;&gt;Node6 -->
<g id="edge5" class="edge"><title>Node5&#45;&gt;Node6</title>
<path fill="none" stroke="midnightblue" d="M924.929,-103C939.814,-103 955.344,-103 969.861,-103"/>
<polygon fill="midnightblue" stroke="midnightblue" points="924.748,-99.5001 914.748,-103 924.748,-106.5 924.748,-99.5001"/>
</g>
<!-- Node7 -->
<g id="node7" class="node"><title>Node7</title>
<g id="a_node7"><a xlink:href="../../db/d27/class_view_1_1_slogo.html#a6ab76a53160b61d8501aec91c55b85c8" target="_top" xlink:title="View.Slogo.start">
<polygon fill="white" stroke="black" points="1136.5,-93.5 1136.5,-112.5 1229.5,-112.5 1229.5,-93.5 1136.5,-93.5"/>
<text text-anchor="middle" x="1183" y="-100.5" font-family="Helvetica,sans-Serif" font-size="10.00">View.Slogo.start</text>
</a>
</g>
</g>
<!-- Node6&#45;&gt;Node7 -->
<g id="edge6" class="edge"><title>Node6&#45;&gt;Node7</title>
<path fill="none" stroke="midnightblue" d="M1110.14,-103C1119.11,-103 1128.05,-103 1136.43,-103"/>
<polygon fill="midnightblue" stroke="midnightblue" points="1110.04,-99.5001 1100.04,-103 1110.04,-106.5 1110.04,-99.5001"/>
</g>
<!-- Node9 -->
<g id="node9" class="node"><title>Node9</title>
<g id="a_node9"><a xlink:href="../../d1/de7/class_g_u_i_functions_1_1_undo.html#a611c153735c5cbdbbfd8f55faa0adaae" target="_top" xlink:title="GUIFunctions.Undo.doAction">
<polygon fill="white" stroke="black" points="366,-49.5 366,-68.5 518,-68.5 518,-49.5 366,-49.5"/>
<text text-anchor="middle" x="442" y="-56.5" font-family="Helvetica,sans-Serif" font-size="10.00">GUIFunctions.Undo.doAction</text>
</a>
</g>
</g>
<!-- Node8&#45;&gt;Node9 -->
<g id="edge8" class="edge"><title>Node8&#45;&gt;Node9</title>
<path fill="none" stroke="midnightblue" d="M323.607,-59C337.397,-59 351.853,-59 365.724,-59"/>
<polygon fill="midnightblue" stroke="midnightblue" points="323.213,-55.5001 313.213,-59 323.213,-62.5001 323.213,-55.5001"/>
</g>
<!-- Node10 -->
<g id="node10" class="node"><title>Node10</title>
<g id="a_node10"><a xlink:href="../../d3/d42/class_table_information_1_1_turtle_variables_table.html#a12ef059be78468fe0f09b5bf41d11d4c" target="_top" xlink:title="TableInformation.TurtleVariables\lTable.moveTurtle">
<polygon fill="white" stroke="black" points="358.5,-0 358.5,-30 525.5,-30 525.5,-0 358.5,-0"/>
<text text-anchor="start" x="366.5" y="-18" font-family="Helvetica,sans-Serif" font-size="10.00">TableInformation.TurtleVariables</text>
<text text-anchor="middle" x="442" y="-7" font-family="Helvetica,sans-Serif" font-size="10.00">Table.moveTurtle</text>
</a>
</g>
</g>
<!-- Node8&#45;&gt;Node10 -->
<g id="edge9" class="edge"><title>Node8&#45;&gt;Node10</title>
<path fill="none" stroke="midnightblue" d="M302.011,-47.1868C324.741,-41.9231 351.783,-35.6609 375.945,-30.0654"/>
<polygon fill="midnightblue" stroke="midnightblue" points="301.18,-43.7867 292.227,-49.4527 302.759,-50.6063 301.18,-43.7867"/>
</g>
<!-- Node11 -->
<g id="node11" class="node"><title>Node11</title>
<g id="a_node11"><a xlink:href="../../d3/d42/class_table_information_1_1_turtle_variables_table.html#a3a32e6fd761411925b48c0fa60c29431" target="_top" xlink:title="TableInformation.TurtleVariables\lTable.setColumnEditable">
<polygon fill="white" stroke="black" points="562.5,-0 562.5,-30 729.5,-30 729.5,-0 562.5,-0"/>
<text text-anchor="start" x="570.5" y="-18" font-family="Helvetica,sans-Serif" font-size="10.00">TableInformation.TurtleVariables</text>
<text text-anchor="middle" x="646" y="-7" font-family="Helvetica,sans-Serif" font-size="10.00">Table.setColumnEditable</text>
</a>
</g>
</g>
<!-- Node10&#45;&gt;Node11 -->
<g id="edge10" class="edge"><title>Node10&#45;&gt;Node11</title>
<path fill="none" stroke="midnightblue" d="M536.018,-15C544.815,-15 553.694,-15 562.385,-15"/>
<polygon fill="midnightblue" stroke="midnightblue" points="535.744,-11.5001 525.744,-15 535.744,-18.5001 535.744,-11.5001"/>
</g>
<!-- Node12 -->
<g id="node12" class="node"><title>Node12</title>
<g id="a_node12"><a xlink:href="../../d3/d42/class_table_information_1_1_turtle_variables_table.html#a6bac7fbbffde239e6438ea163f812b08" target="_top" xlink:title="TableInformation.TurtleVariables\lTable.TurtleVariablesTable">
<polygon fill="white" stroke="black" points="766.5,-0 766.5,-30 933.5,-30 933.5,-0 766.5,-0"/>
<text text-anchor="start" x="774.5" y="-18" font-family="Helvetica,sans-Serif" font-size="10.00">TableInformation.TurtleVariables</text>
<text text-anchor="middle" x="850" y="-7" font-family="Helvetica,sans-Serif" font-size="10.00">Table.TurtleVariablesTable</text>
</a>
</g>
</g>
<!-- Node11&#45;&gt;Node12 -->
<g id="edge11" class="edge"><title>Node11&#45;&gt;Node12</title>
<path fill="none" stroke="midnightblue" d="M740.018,-15C748.815,-15 757.694,-15 766.385,-15"/>
<polygon fill="midnightblue" stroke="midnightblue" points="739.744,-11.5001 729.744,-15 739.744,-18.5001 739.744,-11.5001"/>
</g>
</g>
</svg>
        <g id="navigator" transform="translate(0 0)" fill="#404254">
                <rect fill="#f2f5e9" fill-opacity="0.5" stroke="#606060" stroke-width=".5" x="0" y="0" width="60" height="60"/>
                <use id="zoomplus" xlink:href="#zoomPlus" x="17" y="9" onmousedown="handleZoom(evt,'in')"/>
                <use id="zoomminus" xlink:href="#zoomMin" x="42" y="9" onmousedown="handleZoom(evt,'out')"/>
                <use id="reset" xlink:href="#resetDef" x="30" y="36" onmousedown="handleReset()"/>
                <g id="arrowUp" xlink:href="#dirArrow" transform="translate(30 24)" onmousedown="handlePan(0,-1)">
                  <use xlink:href="#rim" fill="#404040">
                        <set attributeName="fill" to="#808080" begin="arrowUp.mouseover" end="arrowUp.mouseout"/>
                  </use>
                  <path fill="none" stroke="white" stroke-width="1.5" d="M0,-3.0v7 M-2.5,-0.5L0,-3.0L2.5,-0.5"/>
                </g>
                <g id="arrowRight" xlink:href="#dirArrow" transform="rotate(90) translate(36 -43)" onmousedown="handlePan(1,0)">
                  <use xlink:href="#rim" fill="#404040">
                        <set attributeName="fill" to="#808080" begin="arrowRight.mouseover" end="arrowRight.mouseout"/>
                  </use>
                  <path fill="none" stroke="white" stroke-width="1.5" d="M0,-3.0v7 M-2.5,-0.5L0,-3.0L2.5,-0.5"/>
                </g>
                <g id="arrowDown" xlink:href="#dirArrow" transform="rotate(180) translate(-30 -48)" onmousedown="handlePan(0,1)">
                  <use xlink:href="#rim" fill="#404040">
                        <set attributeName="fill" to="#808080" begin="arrowDown.mouseover" end="arrowDown.mouseout"/>
                  </use>
                  <path fill="none" stroke="white" stroke-width="1.5" d="M0,-3.0v7 M-2.5,-0.5L0,-3.0L2.5,-0.5"/>
                </g>
                <g id="arrowLeft" xlink:href="#dirArrow" transform="rotate(270) translate(-36 17)" onmousedown="handlePan(-1,0)">
                  <use xlink:href="#rim" fill="#404040">
                        <set attributeName="fill" to="#808080" begin="arrowLeft.mouseover" end="arrowLeft.mouseout"/>
                  </use>
                  <path fill="none" stroke="white" stroke-width="1.5" d="M0,-3.0v7 M-2.5,-0.5L0,-3.0L2.5,-0.5"/>
                </g>
        </g>
        <svg viewBox="0 0 15 15" width="100%" height="30px" preserveAspectRatio="xMaxYMin meet">
         <g id="arrow_out" transform="scale(0.3 0.3)">
          <a xlink:href="class_view_1_1_single_grid_a9093eac50d88370f86cb4757b996210e_icgraph_org.svg" target="_base">
           <rect id="button" ry="5" rx="5" y="6" x="6" height="38" width="38"
                fill="#f2f5e9" fill-opacity="0.5" stroke="#606060" stroke-width="1.0"/>
           <path id="arrow"
             d="M 11.500037,31.436501 C 11.940474,20.09759 22.043105,11.32322 32.158766,21.979434 L 37.068811,17.246167 C 37.068811,17.246167 37.088388,32 37.088388,32 L 22.160133,31.978069 C 22.160133,31.978069 26.997745,27.140456 26.997745,27.140456 C 18.528582,18.264221 13.291696,25.230495 11.500037,31.436501 z"
             style="fill:#404040;"/>
          </a>
         </g>
        </svg>
</svg>
