<?xml version="1.0" encoding="UTF-8" standalone="no"?>
<!DOCTYPE svg PUBLIC "-//W3C//DTD SVG 1.1//EN"
 "http://www.w3.org/Graphics/SVG/1.1/DTD/svg11.dtd">
<!-- Generated by graphviz version 2.36.0 (20140111.2315)
 -->
<!-- Title: View.SingleGrid.addTurtle Pages: 1 -->
<svg width="890pt" height="218pt"
 viewBox="0.00 0.00 890.00 218.00" xmlns="http://www.w3.org/2000/svg" xmlns:xlink="http://www.w3.org/1999/xlink">
<g id="graph0" class="graph" transform="scale(1 1) rotate(0) translate(4 214)">
<title>View.SingleGrid.addTurtle</title>
<polygon fill="white" stroke="none" points="-4,4 -4,-214 886,-214 886,4 -4,4"/>
<!-- Node1 -->
<g id="node1" class="node"><title>Node1</title>
<polygon fill="#bfbfbf" stroke="black" points="0,-95.5 0,-114.5 136,-114.5 136,-95.5 0,-95.5"/>
<text text-anchor="middle" x="68" y="-102.5" font-family="Helvetica,sans-Serif" font-size="10.00">View.SingleGrid.addTurtle</text>
</g>
<!-- Node2 -->
<g id="node2" class="node"><title>Node2</title>
<g id="a_node2"><a xlink:href="../../df/dcb/classturtle_1_1_turtle.html#a0b8bdf8fc097cab5bf51d46567c2d749" target="_top" xlink:title="turtle.Turtle.getPen">
<polygon fill="white" stroke="black" points="191.5,-190.5 191.5,-209.5 298.5,-209.5 298.5,-190.5 191.5,-190.5"/>
<text text-anchor="middle" x="245" y="-197.5" font-family="Helvetica,sans-Serif" font-size="10.00">turtle.Turtle.getPen</text>
</a>
</g>
</g>
<!-- Node1&#45;&gt;Node2 -->
<g id="edge1" class="edge"><title>Node1&#45;&gt;Node2</title>
<path fill="none" stroke="midnightblue" d="M80.6731,-114.7C99.0824,-129.602 136.433,-158.261 172,-176 180.486,-180.232 189.891,-183.982 199.028,-187.185"/>
<polygon fill="midnightblue" stroke="midnightblue" points="198.187,-190.594 208.78,-190.444 200.405,-183.955 198.187,-190.594"/>
</g>
<!-- Node3 -->
<g id="node3" class="node"><title>Node3</title>
<g id="a_node3"><a xlink:href="../../df/dcb/classturtle_1_1_turtle.html#aa576ade68e2f453b037ea2a3c456d466" target="_top" xlink:title="turtle.Turtle.getXPos">
<polygon fill="white" stroke="black" points="369.5,-152.5 369.5,-171.5 482.5,-171.5 482.5,-152.5 369.5,-152.5"/>
<text text-anchor="middle" x="426" y="-159.5" font-family="Helvetica,sans-Serif" font-size="10.00">turtle.Turtle.getXPos</text>
</a>
</g>
</g>
<!-- Node1&#45;&gt;Node3 -->
<g id="edge2" class="edge"><title>Node1&#45;&gt;Node3</title>
<path fill="none" stroke="midnightblue" d="M106.001,-114.559C125.533,-119.367 149.959,-125.005 172,-129 235.335,-140.48 308.285,-149.56 359.529,-155.266"/>
<polygon fill="midnightblue" stroke="midnightblue" points="359.156,-158.746 369.479,-156.361 359.922,-151.788 359.156,-158.746"/>
</g>
<!-- Node5 -->
<g id="node5" class="node"><title>Node5</title>
<g id="a_node5"><a xlink:href="../../df/dcb/classturtle_1_1_turtle.html#a735b5aa0bce5a53d2c75322fb2ad9130" target="_top" xlink:title="turtle.Turtle.getYPos">
<polygon fill="white" stroke="black" points="370,-38.5 370,-57.5 482,-57.5 482,-38.5 370,-38.5"/>
<text text-anchor="middle" x="426" y="-45.5" font-family="Helvetica,sans-Serif" font-size="10.00">turtle.Turtle.getYPos</text>
</a>
</g>
</g>
<!-- Node1&#45;&gt;Node5 -->
<g id="edge4" class="edge"><title>Node1&#45;&gt;Node5</title>
<path fill="none" stroke="midnightblue" d="M89.789,-95.3717C110.235,-86.376 142.573,-73.4014 172,-67 234.745,-53.3506 308.072,-49.0854 359.582,-47.9428"/>
<polygon fill="midnightblue" stroke="midnightblue" points="359.652,-51.4422 369.584,-47.754 359.52,-44.4434 359.652,-51.4422"/>
</g>
<!-- Node7 -->
<g id="node7" class="node"><title>Node7</title>
<g id="a_node7"><a xlink:href="../../df/dcb/classturtle_1_1_turtle.html#a81e35bc42c3ccb26e25ded71026cb173" target="_top" xlink:title="turtle.Turtle.move">
<polygon fill="white" stroke="black" points="375.5,-114.5 375.5,-133.5 476.5,-133.5 476.5,-114.5 375.5,-114.5"/>
<text text-anchor="middle" x="426" y="-121.5" font-family="Helvetica,sans-Serif" font-size="10.00">turtle.Turtle.move</text>
</a>
</g>
</g>
<!-- Node1&#45;&gt;Node7 -->
<g id="edge6" class="edge"><title>Node1&#45;&gt;Node7</title>
<path fill="none" stroke="midnightblue" d="M136.379,-108.596C202.352,-112.117 301.913,-117.431 365.166,-120.807"/>
<polygon fill="midnightblue" stroke="midnightblue" points="365.208,-124.314 375.38,-121.352 365.581,-117.324 365.208,-124.314"/>
</g>
<!-- Node13 -->
<g id="node13" class="node"><title>Node13</title>
<g id="a_node13"><a xlink:href="../../d9/db1/class_view_1_1_single_grid.html#a7fced187abf44b802950675ee590f493" target="_top" xlink:title="View.SingleGrid.moveTurtle">
<polygon fill="white" stroke="black" points="172.5,-76.5 172.5,-95.5 317.5,-95.5 317.5,-76.5 172.5,-76.5"/>
<text text-anchor="middle" x="245" y="-83.5" font-family="Helvetica,sans-Serif" font-size="10.00">View.SingleGrid.moveTurtle</text>
</a>
</g>
</g>
<!-- Node1&#45;&gt;Node13 -->
<g id="edge14" class="edge"><title>Node1&#45;&gt;Node13</title>
<path fill="none" stroke="midnightblue" d="M136.159,-97.7084C144.68,-96.7833 153.474,-95.8285 162.192,-94.882"/>
<polygon fill="midnightblue" stroke="midnightblue" points="162.807,-98.3359 172.371,-93.7768 162.052,-91.3768 162.807,-98.3359"/>
</g>
<!-- Node15 -->
<g id="node15" class="node"><title>Node15</title>
<g id="a_node15"><a xlink:href="../../dc/d19/class_view_1_1_pen.html#a2e8b59d1e372a124bd80575bb41ab388" target="_top" xlink:title="View.Pen.setInitialPosition">
<polygon fill="white" stroke="black" points="175.5,-0.5 175.5,-19.5 314.5,-19.5 314.5,-0.5 175.5,-0.5"/>
<text text-anchor="middle" x="245" y="-7.5" font-family="Helvetica,sans-Serif" font-size="10.00">View.Pen.setInitialPosition</text>
</a>
</g>
</g>
<!-- Node1&#45;&gt;Node15 -->
<g id="edge19" class="edge"><title>Node1&#45;&gt;Node15</title>
<path fill="none" stroke="midnightblue" d="M80.6731,-95.2999C99.0824,-80.3977 136.433,-51.7387 172,-34 180.486,-29.7678 189.891,-26.0184 199.028,-22.8148"/>
<polygon fill="midnightblue" stroke="midnightblue" points="200.405,-26.0447 208.78,-19.5557 198.187,-19.4056 200.405,-26.0447"/>
</g>
<!-- Node4 -->
<g id="node4" class="node"><title>Node4</title>
<g id="a_node4"><a xlink:href="../../d1/dbe/classturtle_1_1_position.html#a1d079c846ce96bf1c57da388c46669e1" target="_top" xlink:title="turtle.Position.getXPos">
<polygon fill="white" stroke="black" points="546.5,-190.5 546.5,-209.5 671.5,-209.5 671.5,-190.5 546.5,-190.5"/>
<text text-anchor="middle" x="609" y="-197.5" font-family="Helvetica,sans-Serif" font-size="10.00">turtle.Position.getXPos</text>
</a>
</g>
</g>
<!-- Node3&#45;&gt;Node4 -->
<g id="edge3" class="edge"><title>Node3&#45;&gt;Node4</title>
<path fill="none" stroke="midnightblue" d="M472.674,-171.589C496.989,-176.694 527.08,-183.011 552.708,-188.392"/>
<polygon fill="midnightblue" stroke="midnightblue" points="552.149,-191.851 562.654,-190.48 553.587,-185 552.149,-191.851"/>
</g>
<!-- Node6 -->
<g id="node6" class="node"><title>Node6</title>
<g id="a_node6"><a xlink:href="../../d1/dbe/classturtle_1_1_position.html#a3a68708e4dc3290c4ef0ecd511cc8c1f" target="_top" xlink:title="turtle.Position.getYPos">
<polygon fill="white" stroke="black" points="547,-38.5 547,-57.5 671,-57.5 671,-38.5 547,-38.5"/>
<text text-anchor="middle" x="609" y="-45.5" font-family="Helvetica,sans-Serif" font-size="10.00">turtle.Position.getYPos</text>
</a>
</g>
</g>
<!-- Node5&#45;&gt;Node6 -->
<g id="edge5" class="edge"><title>Node5&#45;&gt;Node6</title>
<path fill="none" stroke="midnightblue" d="M482.289,-48C499.403,-48 518.506,-48 536.551,-48"/>
<polygon fill="midnightblue" stroke="midnightblue" points="536.737,-51.5001 546.737,-48 536.737,-44.5001 536.737,-51.5001"/>
</g>
<!-- Node7&#45;&gt;Node4 -->
<g id="edge8" class="edge"><title>Node7&#45;&gt;Node4</title>
<path fill="none" stroke="midnightblue" d="M476.559,-133.471C484.026,-135.96 491.421,-139.084 498,-143 517.991,-154.9 513.949,-169.201 534,-181 537.833,-183.256 541.932,-185.246 546.16,-187.003"/>
<polygon fill="midnightblue" stroke="midnightblue" points="544.98,-190.298 555.573,-190.486 547.409,-183.733 544.98,-190.298"/>
</g>
<!-- Node7&#45;&gt;Node6 -->
<g id="edge9" class="edge"><title>Node7&#45;&gt;Node6</title>
<path fill="none" stroke="midnightblue" d="M476.559,-114.529C484.026,-112.04 491.421,-108.916 498,-105 517.991,-93.0999 513.949,-78.7985 534,-67 537.833,-64.7444 541.932,-62.7538 546.16,-60.9973"/>
<polygon fill="midnightblue" stroke="midnightblue" points="547.409,-64.2672 555.573,-57.5143 544.98,-57.7022 547.409,-64.2672"/>
</g>
<!-- Node8 -->
<g id="node8" class="node"><title>Node8</title>
<g id="a_node8"><a xlink:href="../../d1/dbe/classturtle_1_1_position.html#a7bfd27ea2bf5e22d8de4a4e87b4df2ec" target="_top" xlink:title="turtle.Position.getRotate">
<polygon fill="white" stroke="black" points="543,-76.5 543,-95.5 675,-95.5 675,-76.5 543,-76.5"/>
<text text-anchor="middle" x="609" y="-83.5" font-family="Helvetica,sans-Serif" font-size="10.00">turtle.Position.getRotate</text>
</a>
</g>
</g>
<!-- Node7&#45;&gt;Node8 -->
<g id="edge7" class="edge"><title>Node7&#45;&gt;Node8</title>
<path fill="none" stroke="midnightblue" d="M472.674,-114.411C496.989,-109.306 527.08,-102.989 552.708,-97.6082"/>
<polygon fill="midnightblue" stroke="midnightblue" points="553.587,-101 562.654,-95.5201 552.149,-94.1495 553.587,-101"/>
</g>
<!-- Node9 -->
<g id="node9" class="node"><title>Node9</title>
<g id="a_node9"><a xlink:href="../../df/dcb/classturtle_1_1_turtle.html#afb475cca08cde52e64bc6f9771c5b38b" target="_top" xlink:title="turtle.Turtle.moveHorizontal">
<polygon fill="white" stroke="black" points="534.5,-114.5 534.5,-133.5 683.5,-133.5 683.5,-114.5 534.5,-114.5"/>
<text text-anchor="middle" x="609" y="-121.5" font-family="Helvetica,sans-Serif" font-size="10.00">turtle.Turtle.moveHorizontal</text>
</a>
</g>
</g>
<!-- Node7&#45;&gt;Node9 -->
<g id="edge10" class="edge"><title>Node7&#45;&gt;Node9</title>
<path fill="none" stroke="midnightblue" d="M476.938,-124C491.445,-124 507.704,-124 523.704,-124"/>
<polygon fill="midnightblue" stroke="midnightblue" points="524.159,-127.5 534.159,-124 524.159,-120.5 524.159,-127.5"/>
</g>
<!-- Node11 -->
<g id="node11" class="node"><title>Node11</title>
<g id="a_node11"><a xlink:href="../../df/dcb/classturtle_1_1_turtle.html#a991844b02fa4349c98830ccc21f436c8" target="_top" xlink:title="turtle.Turtle.moveVertical">
<polygon fill="white" stroke="black" points="541,-152.5 541,-171.5 677,-171.5 677,-152.5 541,-152.5"/>
<text text-anchor="middle" x="609" y="-159.5" font-family="Helvetica,sans-Serif" font-size="10.00">turtle.Turtle.moveVertical</text>
</a>
</g>
</g>
<!-- Node7&#45;&gt;Node11 -->
<g id="edge12" class="edge"><title>Node7&#45;&gt;Node11</title>
<path fill="none" stroke="midnightblue" d="M472.674,-133.589C496.989,-138.694 527.08,-145.011 552.708,-150.392"/>
<polygon fill="midnightblue" stroke="midnightblue" points="552.149,-153.851 562.654,-152.48 553.587,-147 552.149,-153.851"/>
</g>
<!-- Node10 -->
<g id="node10" class="node"><title>Node10</title>
<g id="a_node10"><a xlink:href="../../d1/dbe/classturtle_1_1_position.html#a62d4a90a8c507a6b714315b13203ddf2" target="_top" xlink:title="turtle.Position.moveHorizontal">
<polygon fill="white" stroke="black" points="720.5,-114.5 720.5,-133.5 881.5,-133.5 881.5,-114.5 720.5,-114.5"/>
<text text-anchor="middle" x="801" y="-121.5" font-family="Helvetica,sans-Serif" font-size="10.00">turtle.Position.moveHorizontal</text>
</a>
</g>
</g>
<!-- Node9&#45;&gt;Node10 -->
<g id="edge11" class="edge"><title>Node9&#45;&gt;Node10</title>
<path fill="none" stroke="midnightblue" d="M683.731,-124C692.447,-124 701.414,-124 710.319,-124"/>
<polygon fill="midnightblue" stroke="midnightblue" points="710.33,-127.5 720.33,-124 710.33,-120.5 710.33,-127.5"/>
</g>
<!-- Node12 -->
<g id="node12" class="node"><title>Node12</title>
<g id="a_node12"><a xlink:href="../../d1/dbe/classturtle_1_1_position.html#af9d8009ae592a947ee9b50c54e4f7a4b" target="_top" xlink:title="turtle.Position.moveVertical">
<polygon fill="white" stroke="black" points="727,-152.5 727,-171.5 875,-171.5 875,-152.5 727,-152.5"/>
<text text-anchor="middle" x="801" y="-159.5" font-family="Helvetica,sans-Serif" font-size="10.00">turtle.Position.moveVertical</text>
</a>
</g>
</g>
<!-- Node11&#45;&gt;Node12 -->
<g id="edge13" class="edge"><title>Node11&#45;&gt;Node12</title>
<path fill="none" stroke="midnightblue" d="M677.254,-162C690.014,-162 703.507,-162 716.694,-162"/>
<polygon fill="midnightblue" stroke="midnightblue" points="716.701,-165.5 726.701,-162 716.701,-158.5 716.701,-165.5"/>
</g>
<!-- Node13&#45;&gt;Node3 -->
<g id="edge15" class="edge"><title>Node13&#45;&gt;Node3</title>
<path fill="none" stroke="midnightblue" d="M261.572,-95.6545C282.104,-108.043 319.654,-129.538 354,-143 360.226,-145.44 366.878,-147.678 373.521,-149.693"/>
<polygon fill="midnightblue" stroke="midnightblue" points="372.619,-153.075 383.197,-152.485 374.559,-146.35 372.619,-153.075"/>
</g>
<!-- Node13&#45;&gt;Node5 -->
<g id="edge16" class="edge"><title>Node13&#45;&gt;Node5</title>
<path fill="none" stroke="midnightblue" d="M291.169,-76.411C315.216,-71.3061 344.974,-64.9887 370.319,-59.6082"/>
<polygon fill="midnightblue" stroke="midnightblue" points="371.1,-63.0205 380.156,-57.5201 369.647,-56.1731 371.1,-63.0205"/>
</g>
<!-- Node14 -->
<g id="node14" class="node"><title>Node14</title>
<g id="a_node14"><a xlink:href="../../df/dcb/classturtle_1_1_turtle.html#af4afc304cb9394e02381563fad7c34ce" target="_top" xlink:title="turtle.Turtle.getOrientation">
<polygon fill="white" stroke="black" points="354.5,-76.5 354.5,-95.5 497.5,-95.5 497.5,-76.5 354.5,-76.5"/>
<text text-anchor="middle" x="426" y="-83.5" font-family="Helvetica,sans-Serif" font-size="10.00">turtle.Turtle.getOrientation</text>
</a>
</g>
</g>
<!-- Node13&#45;&gt;Node14 -->
<g id="edge17" class="edge"><title>Node13&#45;&gt;Node14</title>
<path fill="none" stroke="midnightblue" d="M317.517,-86C326.361,-86 335.45,-86 344.418,-86"/>
<polygon fill="midnightblue" stroke="midnightblue" points="344.472,-89.5001 354.472,-86 344.472,-82.5001 344.472,-89.5001"/>
</g>
<!-- Node14&#45;&gt;Node8 -->
<g id="edge18" class="edge"><title>Node14&#45;&gt;Node8</title>
<path fill="none" stroke="midnightblue" d="M497.757,-86C509.26,-86 521.21,-86 532.815,-86"/>
<polygon fill="midnightblue" stroke="midnightblue" points="532.904,-89.5001 542.904,-86 532.904,-82.5001 532.904,-89.5001"/>
</g>
</g>
</svg>
