<?xml version="1.0" encoding="UTF-8" standalone="no"?>
<!DOCTYPE svg PUBLIC "-//W3C//DTD SVG 1.1//EN"
 "http://www.w3.org/Graphics/SVG/1.1/DTD/svg11.dtd">
<!-- Generated by graphviz version 2.36.0 (20140111.2315)
 -->
<!-- Title: View.SingleGrid.getAllTurtles Pages: 1 -->
<!--zoomable 246 -->
<svg id="main" version="1.1" xmlns="http://www.w3.org/2000/svg" xmlns:xlink="http://www.w3.org/1999/xlink" xml:space="preserve" onload="init(evt)">
<style type="text/css"><![CDATA[
.edge:hover path { stroke: red; }
.edge:hover polygon { stroke: red; fill: red; }
]]></style>
<script type="text/javascript"><![CDATA[
var edges = document.getElementsByTagName('g');
if (edges && edges.length) {
  for (var i=0;i<edges.length;i++) {
    if (edges[i].id.substr(0,4)=='edge') {
      edges[i].setAttribute('class','edge');
    }
  }
}
]]></script>
        <defs>
                <circle id="rim" cx="0" cy="0" r="7"/>
                <circle id="rim2" cx="0" cy="0" r="3.5"/>
                <g id="zoomPlus">
                        <use xlink:href="#rim" fill="#404040">
                                <set attributeName="fill" to="#808080" begin="zoomplus.mouseover" end="zoomplus.mouseout"/>
                        </use>
                        <path d="M-4,0h8M0,-4v8" fill="none" stroke="white" stroke-width="1.5" pointer-events="none"/>
                </g>
                <g id="zoomMin">
                        <use xlink:href="#rim" fill="#404040">
                                <set attributeName="fill" to="#808080" begin="zoomminus.mouseover" end="zoomminus.mouseout"/>
                        </use>
                        <path d="M-4,0h8" fill="none" stroke="white" stroke-width="1.5" pointer-events="none"/>
                </g>
                <g id="dirArrow">
                        <path fill="none" stroke="white" stroke-width="1.5" d="M0,-3.0v7 M-2.5,-0.5L0,-3.0L2.5,-0.5"/>
                </g>
               <g id="resetDef">
                       <use xlink:href="#rim2" fill="#404040">
                               <set attributeName="fill" to="#808080" begin="reset.mouseover" end="reset.mouseout"/>
                       </use>
               </g>
        </defs>

<script type="text/javascript">
var viewWidth = 900;
var viewHeight = 246;
var sectionId = 'dynsection-11';
</script>
<script xlink:href="../../svgpan.js"/>
<svg id="graph" class="graph">
<g id="viewport">
<title>View.SingleGrid.getAllTurtles</title>
<polygon fill="white" stroke="none" points="-4,4 -4,-242 896,-242 896,4 -4,4"/>
<!-- Node1 -->
<g id="node1" class="node"><title>Node1</title>
<polygon fill="#bfbfbf" stroke="black" points="0,-125.5 0,-144.5 150,-144.5 150,-125.5 0,-125.5"/>
<text text-anchor="middle" x="75" y="-132.5" font-family="Helvetica,sans-Serif" font-size="10.00">View.SingleGrid.getAllTurtles</text>
</g>
<!-- Node2 -->
<g id="node2" class="node"><title>Node2</title>
<g id="a_node2"><a xlink:href="../../da/d9b/class_g_u_i_functions_1_1_add_turtle.html#a4324961c5ed55780c7d9d270afe53c6d" target="_top" xlink:title="GUIFunctions.AddTurtle.add\lAction">
<polygon fill="white" stroke="black" points="196.5,-208 196.5,-238 343.5,-238 343.5,-208 196.5,-208"/>
<text text-anchor="start" x="204.5" y="-226" font-family="Helvetica,sans-Serif" font-size="10.00">GUIFunctions.AddTurtle.add</text>
<text text-anchor="middle" x="270" y="-215" font-family="Helvetica,sans-Serif" font-size="10.00">Action</text>
</a>
</g>
</g>
<!-- Node1&#45;&gt;Node2 -->
<g id="edge1" class="edge"><title>Node1&#45;&gt;Node2</title>
<path fill="none" stroke="midnightblue" d="M98.9093,-150.184C120.624,-164.07 154.514,-184.452 186,-198 194.432,-201.628 203.559,-204.947 212.57,-207.898"/>
<polygon fill="midnightblue" stroke="midnightblue" points="100.688,-147.166 90.391,-144.67 96.8835,-153.042 100.688,-147.166"/>
</g>
<!-- Node3 -->
<g id="node3" class="node"><title>Node3</title>
<g id="a_node3"><a xlink:href="../../d9/db1/class_view_1_1_single_grid.html#a5e40c65b3193d90383384e53d9542cdb" target="_top" xlink:title="View.SingleGrid.addTurtle">
<polygon fill="white" stroke="black" points="202,-169.5 202,-188.5 338,-188.5 338,-169.5 202,-169.5"/>
<text text-anchor="middle" x="270" y="-176.5" font-family="Helvetica,sans-Serif" font-size="10.00">View.SingleGrid.addTurtle</text>
</a>
</g>
</g>
<!-- Node1&#45;&gt;Node3 -->
<g id="edge2" class="edge"><title>Node1&#45;&gt;Node3</title>
<path fill="none" stroke="midnightblue" d="M127.689,-146.784C158.845,-153.887 198.011,-162.816 227.204,-169.471"/>
<polygon fill="midnightblue" stroke="midnightblue" points="128.406,-143.358 117.878,-144.547 126.85,-150.183 128.406,-143.358"/>
</g>
<!-- Node7 -->
<g id="node7" class="node"><title>Node7</title>
<g id="a_node7"><a xlink:href="../../d6/d9d/class_g_u_i_functions_1_1_clear_function.html#a684c4fdd50edd2b578f9b206ac24c849" target="_top" xlink:title="GUIFunctions.ClearFunction.do\lAction">
<polygon fill="white" stroke="black" points="189.5,-120 189.5,-150 350.5,-150 350.5,-120 189.5,-120"/>
<text text-anchor="start" x="197.5" y="-138" font-family="Helvetica,sans-Serif" font-size="10.00">GUIFunctions.ClearFunction.do</text>
<text text-anchor="middle" x="270" y="-127" font-family="Helvetica,sans-Serif" font-size="10.00">Action</text>
</a>
</g>
</g>
<!-- Node1&#45;&gt;Node7 -->
<g id="edge6" class="edge"><title>Node1&#45;&gt;Node7</title>
<path fill="none" stroke="midnightblue" d="M160.111,-135C169.824,-135 179.708,-135 189.359,-135"/>
<polygon fill="midnightblue" stroke="midnightblue" points="160.067,-131.5 150.067,-135 160.067,-138.5 160.067,-131.5"/>
</g>
<!-- Node8 -->
<g id="node8" class="node"><title>Node8</title>
<g id="a_node8"><a xlink:href="../../dc/d8a/class_g_u_i_functions_1_1_set_background_image.html#a99d94e1ecf90e9c6b550220a1a92e69a" target="_top" xlink:title="GUIFunctions.SetBackground\lImage.gridSetAction">
<polygon fill="white" stroke="black" points="192.5,-71 192.5,-101 347.5,-101 347.5,-71 192.5,-71"/>
<text text-anchor="start" x="200.5" y="-89" font-family="Helvetica,sans-Serif" font-size="10.00">GUIFunctions.SetBackground</text>
<text text-anchor="middle" x="270" y="-78" font-family="Helvetica,sans-Serif" font-size="10.00">Image.gridSetAction</text>
</a>
</g>
</g>
<!-- Node1&#45;&gt;Node8 -->
<g id="edge7" class="edge"><title>Node1&#45;&gt;Node8</title>
<path fill="none" stroke="midnightblue" d="M123.666,-122.898C149.686,-116.292 182.139,-108.053 209.773,-101.037"/>
<polygon fill="midnightblue" stroke="midnightblue" points="122.502,-119.583 113.671,-125.436 124.224,-126.367 122.502,-119.583"/>
</g>
<!-- Node10 -->
<g id="node10" class="node"><title>Node10</title>
<g id="a_node10"><a xlink:href="../../d3/d42/class_table_information_1_1_turtle_variables_table.html#a41e8a91ad2bd210a046c64a2574574bf" target="_top" xlink:title="TableInformation.TurtleVariables\lTable.updateList">
<polygon fill="white" stroke="black" points="186.5,-22 186.5,-52 353.5,-52 353.5,-22 186.5,-22"/>
<text text-anchor="start" x="194.5" y="-40" font-family="Helvetica,sans-Serif" font-size="10.00">TableInformation.TurtleVariables</text>
<text text-anchor="middle" x="270" y="-29" font-family="Helvetica,sans-Serif" font-size="10.00">Table.updateList</text>
</a>
</g>
</g>
<!-- Node1&#45;&gt;Node10 -->
<g id="edge9" class="edge"><title>Node1&#45;&gt;Node10</title>
<path fill="none" stroke="midnightblue" d="M95.3596,-119.227C116.5,-102.683 151.907,-76.9187 186,-61 193.068,-57.7 200.688,-54.7504 208.346,-52.145"/>
<polygon fill="midnightblue" stroke="midnightblue" points="93.1281,-116.529 87.4748,-125.49 97.4821,-122.01 93.1281,-116.529"/>
</g>
<!-- Node4 -->
<g id="node4" class="node"><title>Node4</title>
<g id="a_node4"><a xlink:href="../../d6/d33/class_view_1_1_slogo_view.html#a05ea476b14d0f5b642dbcd4449cdb9cb" target="_top" xlink:title="View.SlogoView.addTurtle">
<polygon fill="white" stroke="black" points="406.5,-169.5 406.5,-188.5 541.5,-188.5 541.5,-169.5 406.5,-169.5"/>
<text text-anchor="middle" x="474" y="-176.5" font-family="Helvetica,sans-Serif" font-size="10.00">View.SlogoView.addTurtle</text>
</a>
</g>
</g>
<!-- Node3&#45;&gt;Node4 -->
<g id="edge3" class="edge"><title>Node3&#45;&gt;Node4</title>
<path fill="none" stroke="midnightblue" d="M348.431,-179C367.536,-179 387.833,-179 406.374,-179"/>
<polygon fill="midnightblue" stroke="midnightblue" points="348.263,-175.5 338.263,-179 348.263,-182.5 348.263,-175.5"/>
</g>
<!-- Node5 -->
<g id="node5" class="node"><title>Node5</title>
<g id="a_node5"><a xlink:href="../../d6/d33/class_view_1_1_slogo_view.html#acfeff052503655d2ac419d2bf4ea9bd5" target="_top" xlink:title="View.SlogoView.initialize">
<polygon fill="white" stroke="black" points="613,-169.5 613,-188.5 743,-188.5 743,-169.5 613,-169.5"/>
<text text-anchor="middle" x="678" y="-176.5" font-family="Helvetica,sans-Serif" font-size="10.00">View.SlogoView.initialize</text>
</a>
</g>
</g>
<!-- Node4&#45;&gt;Node5 -->
<g id="edge4" class="edge"><title>Node4&#45;&gt;Node5</title>
<path fill="none" stroke="midnightblue" d="M551.768,-179C571.891,-179 593.378,-179 612.77,-179"/>
<polygon fill="midnightblue" stroke="midnightblue" points="551.702,-175.5 541.702,-179 551.702,-182.5 551.702,-175.5"/>
</g>
<!-- Node6 -->
<g id="node6" class="node"><title>Node6</title>
<g id="a_node6"><a xlink:href="../../db/d27/class_view_1_1_slogo.html#a6ab76a53160b61d8501aec91c55b85c8" target="_top" xlink:title="View.Slogo.start">
<polygon fill="white" stroke="black" points="798.5,-169.5 798.5,-188.5 891.5,-188.5 891.5,-169.5 798.5,-169.5"/>
<text text-anchor="middle" x="845" y="-176.5" font-family="Helvetica,sans-Serif" font-size="10.00">View.Slogo.start</text>
</a>
</g>
</g>
<!-- Node5&#45;&gt;Node6 -->
<g id="edge5" class="edge"><title>Node5&#45;&gt;Node6</title>
<path fill="none" stroke="midnightblue" d="M753.268,-179C768.607,-179 784.33,-179 798.286,-179"/>
<polygon fill="midnightblue" stroke="midnightblue" points="753.266,-175.5 743.266,-179 753.266,-182.5 753.266,-175.5"/>
</g>
<!-- Node9 -->
<g id="node9" class="node"><title>Node9</title>
<g id="a_node9"><a xlink:href="../../dc/d8a/class_g_u_i_functions_1_1_set_background_image.html#a66bb3cfbdb20dde3cbf3e55ef0c198b7" target="_top" xlink:title="GUIFunctions.SetBackground\lImage.doAction">
<polygon fill="white" stroke="black" points="396.5,-71 396.5,-101 551.5,-101 551.5,-71 396.5,-71"/>
<text text-anchor="start" x="404.5" y="-89" font-family="Helvetica,sans-Serif" font-size="10.00">GUIFunctions.SetBackground</text>
<text text-anchor="middle" x="474" y="-78" font-family="Helvetica,sans-Serif" font-size="10.00">Image.doAction</text>
</a>
</g>
</g>
<!-- Node8&#45;&gt;Node9 -->
<g id="edge8" class="edge"><title>Node8&#45;&gt;Node9</title>
<path fill="none" stroke="midnightblue" d="M357.854,-86C370.674,-86 383.805,-86 396.397,-86"/>
<polygon fill="midnightblue" stroke="midnightblue" points="357.656,-82.5001 347.656,-86 357.656,-89.5001 357.656,-82.5001"/>
</g>
<!-- Node11 -->
<g id="node11" class="node"><title>Node11</title>
<g id="a_node11"><a xlink:href="../../d3/d42/class_table_information_1_1_turtle_variables_table.html#a5ade83d2186f4c16bbe49c7e12c50f0f" target="_top" xlink:title="TableInformation.TurtleVariables\lTable.build">
<polygon fill="white" stroke="black" points="390.5,-22 390.5,-52 557.5,-52 557.5,-22 390.5,-22"/>
<text text-anchor="start" x="398.5" y="-40" font-family="Helvetica,sans-Serif" font-size="10.00">TableInformation.TurtleVariables</text>
<text text-anchor="middle" x="474" y="-29" font-family="Helvetica,sans-Serif" font-size="10.00">Table.build</text>
</a>
</g>
</g>
<!-- Node10&#45;&gt;Node11 -->
<g id="edge10" class="edge"><title>Node10&#45;&gt;Node11</title>
<path fill="none" stroke="midnightblue" d="M364.018,-37C372.815,-37 381.694,-37 390.385,-37"/>
<polygon fill="midnightblue" stroke="midnightblue" points="363.744,-33.5001 353.744,-37 363.744,-40.5001 363.744,-33.5001"/>
</g>
<!-- Node12 -->
<g id="node12" class="node"><title>Node12</title>
<g id="a_node12"><a xlink:href="../../d3/d42/class_table_information_1_1_turtle_variables_table.html#a6bac7fbbffde239e6438ea163f812b08" target="_top" xlink:title="TableInformation.TurtleVariables\lTable.TurtleVariablesTable">
<polygon fill="white" stroke="black" points="594.5,-0 594.5,-30 761.5,-30 761.5,-0 594.5,-0"/>
<text text-anchor="start" x="602.5" y="-18" font-family="Helvetica,sans-Serif" font-size="10.00">TableInformation.TurtleVariables</text>
<text text-anchor="middle" x="678" y="-7" font-family="Helvetica,sans-Serif" font-size="10.00">Table.TurtleVariablesTable</text>
</a>
</g>
</g>
<!-- Node10&#45;&gt;Node12 -->
<g id="edge12" class="edge"><title>Node10&#45;&gt;Node12</title>
<path fill="none" stroke="midnightblue" d="M340.455,-19.8907C356.617,-16.6123 373.829,-13.6803 390,-12 458.52,-4.88025 536.734,-6.32531 594.189,-9.16094"/>
<polygon fill="midnightblue" stroke="midnightblue" points="339.614,-16.4907 330.546,-21.9687 341.051,-23.3417 339.614,-16.4907"/>
</g>
<!-- Node11&#45;&gt;Node12 -->
<g id="edge11" class="edge"><title>Node11&#45;&gt;Node12</title>
<path fill="none" stroke="midnightblue" d="M567.731,-26.9006C576.622,-25.9322 585.6,-24.9545 594.385,-23.9977"/>
<polygon fill="midnightblue" stroke="midnightblue" points="567.306,-23.4261 557.744,-27.9883 568.064,-30.3849 567.306,-23.4261"/>
</g>
</g>
</svg>
        <g id="navigator" transform="translate(0 0)" fill="#404254">
                <rect fill="#f2f5e9" fill-opacity="0.5" stroke="#606060" stroke-width=".5" x="0" y="0" width="60" height="60"/>
                <use id="zoomplus" xlink:href="#zoomPlus" x="17" y="9" onmousedown="handleZoom(evt,'in')"/>
                <use id="zoomminus" xlink:href="#zoomMin" x="42" y="9" onmousedown="handleZoom(evt,'out')"/>
                <use id="reset" xlink:href="#resetDef" x="30" y="36" onmousedown="handleReset()"/>
                <g id="arrowUp" xlink:href="#dirArrow" transform="translate(30 24)" onmousedown="handlePan(0,-1)">
                  <use xlink:href="#rim" fill="#404040">
                        <set attributeName="fill" to="#808080" begin="arrowUp.mouseover" end="arrowUp.mouseout"/>
                  </use>
                  <path fill="none" stroke="white" stroke-width="1.5" d="M0,-3.0v7 M-2.5,-0.5L0,-3.0L2.5,-0.5"/>
                </g>
                <g id="arrowRight" xlink:href="#dirArrow" transform="rotate(90) translate(36 -43)" onmousedown="handlePan(1,0)">
                  <use xlink:href="#rim" fill="#404040">
                        <set attributeName="fill" to="#808080" begin="arrowRight.mouseover" end="arrowRight.mouseout"/>
                  </use>
                  <path fill="none" stroke="white" stroke-width="1.5" d="M0,-3.0v7 M-2.5,-0.5L0,-3.0L2.5,-0.5"/>
                </g>
                <g id="arrowDown" xlink:href="#dirArrow" transform="rotate(180) translate(-30 -48)" onmousedown="handlePan(0,1)">
                  <use xlink:href="#rim" fill="#404040">
                        <set attributeName="fill" to="#808080" begin="arrowDown.mouseover" end="arrowDown.mouseout"/>
                  </use>
                  <path fill="none" stroke="white" stroke-width="1.5" d="M0,-3.0v7 M-2.5,-0.5L0,-3.0L2.5,-0.5"/>
                </g>
                <g id="arrowLeft" xlink:href="#dirArrow" transform="rotate(270) translate(-36 17)" onmousedown="handlePan(-1,0)">
                  <use xlink:href="#rim" fill="#404040">
                        <set attributeName="fill" to="#808080" begin="arrowLeft.mouseover" end="arrowLeft.mouseout"/>
                  </use>
                  <path fill="none" stroke="white" stroke-width="1.5" d="M0,-3.0v7 M-2.5,-0.5L0,-3.0L2.5,-0.5"/>
                </g>
        </g>
        <svg viewBox="0 0 15 15" width="100%" height="30px" preserveAspectRatio="xMaxYMin meet">
         <g id="arrow_out" transform="scale(0.3 0.3)">
          <a xlink:href="class_view_1_1_single_grid_a4f5ac29735861f044f439278afea0957_icgraph_org.svg" target="_base">
           <rect id="button" ry="5" rx="5" y="6" x="6" height="38" width="38"
                fill="#f2f5e9" fill-opacity="0.5" stroke="#606060" stroke-width="1.0"/>
           <path id="arrow"
             d="M 11.500037,31.436501 C 11.940474,20.09759 22.043105,11.32322 32.158766,21.979434 L 37.068811,17.246167 C 37.068811,17.246167 37.088388,32 37.088388,32 L 22.160133,31.978069 C 22.160133,31.978069 26.997745,27.140456 26.997745,27.140456 C 18.528582,18.264221 13.291696,25.230495 11.500037,31.436501 z"
             style="fill:#404040;"/>
          </a>
         </g>
        </svg>
</svg>
