<?xml version="1.0" encoding="UTF-8" standalone="no"?>
<!DOCTYPE svg PUBLIC "-//W3C//DTD SVG 1.1//EN"
 "http://www.w3.org/Graphics/SVG/1.1/DTD/svg11.dtd">
<!-- Generated by graphviz version 2.36.0 (20140111.2315)
 -->
<!-- Title: View.SingleGrid.getPens Pages: 1 -->
<!--zoomable 283 -->
<svg id="main" version="1.1" xmlns="http://www.w3.org/2000/svg" xmlns:xlink="http://www.w3.org/1999/xlink" xml:space="preserve" onload="init(evt)">
<style type="text/css"><![CDATA[
.edge:hover path { stroke: red; }
.edge:hover polygon { stroke: red; fill: red; }
]]></style>
<script type="text/javascript"><![CDATA[
var edges = document.getElementsByTagName('g');
if (edges && edges.length) {
  for (var i=0;i<edges.length;i++) {
    if (edges[i].id.substr(0,4)=='edge') {
      edges[i].setAttribute('class','edge');
    }
  }
}
]]></script>
        <defs>
                <circle id="rim" cx="0" cy="0" r="7"/>
                <circle id="rim2" cx="0" cy="0" r="3.5"/>
                <g id="zoomPlus">
                        <use xlink:href="#rim" fill="#404040">
                                <set attributeName="fill" to="#808080" begin="zoomplus.mouseover" end="zoomplus.mouseout"/>
                        </use>
                        <path d="M-4,0h8M0,-4v8" fill="none" stroke="white" stroke-width="1.5" pointer-events="none"/>
                </g>
                <g id="zoomMin">
                        <use xlink:href="#rim" fill="#404040">
                                <set attributeName="fill" to="#808080" begin="zoomminus.mouseover" end="zoomminus.mouseout"/>
                        </use>
                        <path d="M-4,0h8" fill="none" stroke="white" stroke-width="1.5" pointer-events="none"/>
                </g>
                <g id="dirArrow">
                        <path fill="none" stroke="white" stroke-width="1.5" d="M0,-3.0v7 M-2.5,-0.5L0,-3.0L2.5,-0.5"/>
                </g>
               <g id="resetDef">
                       <use xlink:href="#rim2" fill="#404040">
                               <set attributeName="fill" to="#808080" begin="reset.mouseover" end="reset.mouseout"/>
                       </use>
               </g>
        </defs>

<script type="text/javascript">
var viewWidth = 728;
var viewHeight = 283;
var sectionId = 'dynsection-14';
</script>
<script xlink:href="../../svgpan.js"/>
<svg id="graph" class="graph">
<g id="viewport">
<title>View.SingleGrid.getPens</title>
<polygon fill="white" stroke="none" points="-4,4 -4,-279 724,-279 724,4 -4,4"/>
<!-- Node1 -->
<g id="node1" class="node"><title>Node1</title>
<polygon fill="#bfbfbf" stroke="black" points="0.5,-93.5 0.5,-112.5 131.5,-112.5 131.5,-93.5 0.5,-93.5"/>
<text text-anchor="middle" x="66" y="-100.5" font-family="Helvetica,sans-Serif" font-size="10.00">View.SingleGrid.getPens</text>
</g>
<!-- Node2 -->
<g id="node2" class="node"><title>Node2</title>
<g id="a_node2"><a xlink:href="../../d9/db1/class_view_1_1_single_grid.html#a10f914014fc090d2d57192c8678242fd" target="_top" xlink:title="View.SingleGrid.getActivePens">
<polygon fill="white" stroke="black" points="168.5,-127.5 168.5,-146.5 329.5,-146.5 329.5,-127.5 168.5,-127.5"/>
<text text-anchor="middle" x="249" y="-134.5" font-family="Helvetica,sans-Serif" font-size="10.00">View.SingleGrid.getActivePens</text>
</a>
</g>
</g>
<!-- Node1&#45;&gt;Node2 -->
<g id="edge1" class="edge"><title>Node1&#45;&gt;Node2</title>
<path fill="none" stroke="midnightblue" d="M128.012,-114.461C150.487,-118.683 175.687,-123.416 197.168,-127.452"/>
<polygon fill="midnightblue" stroke="midnightblue" points="128.375,-110.968 117.9,-112.561 127.082,-117.847 128.375,-110.968"/>
</g>
<!-- Node8 -->
<g id="node8" class="node"><title>Node8</title>
<g id="a_node8"><a xlink:href="../../d9/db1/class_view_1_1_single_grid.html#a925405ab0fe1325224799d84745a44c1" target="_top" xlink:title="View.SingleGrid.getAllPens">
<polygon fill="white" stroke="black" points="177.5,-59.5 177.5,-78.5 320.5,-78.5 320.5,-59.5 177.5,-59.5"/>
<text text-anchor="middle" x="249" y="-66.5" font-family="Helvetica,sans-Serif" font-size="10.00">View.SingleGrid.getAllPens</text>
</a>
</g>
</g>
<!-- Node1&#45;&gt;Node8 -->
<g id="edge7" class="edge"><title>Node1&#45;&gt;Node8</title>
<path fill="none" stroke="midnightblue" d="M128.012,-91.5392C150.487,-87.3173 175.687,-82.5837 197.168,-78.5485"/>
<polygon fill="midnightblue" stroke="midnightblue" points="127.082,-88.1525 117.9,-93.4386 128.375,-95.0322 127.082,-88.1525"/>
</g>
<!-- Node3 -->
<g id="node3" class="node"><title>Node3</title>
<g id="a_node3"><a xlink:href="../../d2/dd2/class_g_u_i_functions_1_1_set_pen_down.html#ac016088490fad0f1986cea6015a74a5d" target="_top" xlink:title="GUIFunctions.SetPenDown.do\lAction">
<polygon fill="white" stroke="black" points="368,-245 368,-275 526,-275 526,-245 368,-245"/>
<text text-anchor="start" x="376" y="-263" font-family="Helvetica,sans-Serif" font-size="10.00">GUIFunctions.SetPenDown.do</text>
<text text-anchor="middle" x="447" y="-252" font-family="Helvetica,sans-Serif" font-size="10.00">Action</text>
</a>
</g>
</g>
<!-- Node2&#45;&gt;Node3 -->
<g id="edge2" class="edge"><title>Node2&#45;&gt;Node3</title>
<path fill="none" stroke="midnightblue" d="M265.777,-154.003C286.743,-175.668 325.838,-212.945 366,-235 372.888,-238.782 380.429,-242.081 388.042,-244.932"/>
<polygon fill="midnightblue" stroke="midnightblue" points="268.094,-151.36 258.665,-146.528 263.023,-156.185 268.094,-151.36"/>
</g>
<!-- Node4 -->
<g id="node4" class="node"><title>Node4</title>
<g id="a_node4"><a xlink:href="../../d8/d40/class_g_u_i_functions_1_1_set_pen_up.html#a66b0a694c32b985e22e6814d48fa7a5c" target="_top" xlink:title="GUIFunctions.SetPenUp.do\lAction">
<polygon fill="white" stroke="black" points="374.5,-196 374.5,-226 519.5,-226 519.5,-196 374.5,-196"/>
<text text-anchor="start" x="382.5" y="-214" font-family="Helvetica,sans-Serif" font-size="10.00">GUIFunctions.SetPenUp.do</text>
<text text-anchor="middle" x="447" y="-203" font-family="Helvetica,sans-Serif" font-size="10.00">Action</text>
</a>
</g>
</g>
<!-- Node2&#45;&gt;Node4 -->
<g id="edge3" class="edge"><title>Node2&#45;&gt;Node4</title>
<path fill="none" stroke="midnightblue" d="M280.451,-150.817C303.662,-161.116 336.544,-175.205 366,-186 375.427,-189.455 385.584,-192.864 395.393,-196"/>
<polygon fill="midnightblue" stroke="midnightblue" points="281.691,-147.538 271.133,-146.657 278.837,-153.93 281.691,-147.538"/>
</g>
<!-- Node5 -->
<g id="node5" class="node"><title>Node5</title>
<g id="a_node5"><a xlink:href="../../d5/dfa/class_g_u_i_functions_1_1_pen_thickness.html#af0b6030ff3fbeb35d4cae430fb2635ac" target="_top" xlink:title="GUIFunctions.PenThickness.do\lAction">
<polygon fill="white" stroke="black" points="366.5,-147 366.5,-177 527.5,-177 527.5,-147 366.5,-147"/>
<text text-anchor="start" x="374.5" y="-165" font-family="Helvetica,sans-Serif" font-size="10.00">GUIFunctions.PenThickness.do</text>
<text text-anchor="middle" x="447" y="-154" font-family="Helvetica,sans-Serif" font-size="10.00">Action</text>
</a>
</g>
</g>
<!-- Node2&#45;&gt;Node5 -->
<g id="edge4" class="edge"><title>Node2&#45;&gt;Node5</title>
<path fill="none" stroke="midnightblue" d="M334.658,-147.798C345.172,-149.139 355.895,-150.507 366.33,-151.838"/>
<polygon fill="midnightblue" stroke="midnightblue" points="335.021,-144.316 324.658,-146.523 334.135,-151.26 335.021,-144.316"/>
</g>
<!-- Node6 -->
<g id="node6" class="node"><title>Node6</title>
<g id="a_node6"><a xlink:href="../../da/d16/class_g_u_i_functions_1_1_pen_color.html#a40da853af47e7550f10ebb66756a8548" target="_top" xlink:title="GUIFunctions.PenColor.do\lAction">
<polygon fill="white" stroke="black" points="377.5,-98 377.5,-128 516.5,-128 516.5,-98 377.5,-98"/>
<text text-anchor="start" x="385.5" y="-116" font-family="Helvetica,sans-Serif" font-size="10.00">GUIFunctions.PenColor.do</text>
<text text-anchor="middle" x="447" y="-105" font-family="Helvetica,sans-Serif" font-size="10.00">Action</text>
</a>
</g>
</g>
<!-- Node2&#45;&gt;Node6 -->
<g id="edge5" class="edge"><title>Node2&#45;&gt;Node6</title>
<path fill="none" stroke="midnightblue" d="M337.792,-126.25C351.014,-124.631 364.487,-122.981 377.233,-121.42"/>
<polygon fill="midnightblue" stroke="midnightblue" points="337.246,-122.791 327.746,-127.48 338.097,-129.739 337.246,-122.791"/>
</g>
<!-- Node7 -->
<g id="node7" class="node"><title>Node7</title>
<g id="a_node7"><a xlink:href="../../d0/d77/class_g_u_i_functions_1_1_pen_style.html#a8e84d8f42da0306329a5e0266012b118" target="_top" xlink:title="GUIFunctions.PenStyle.do\lAction">
<polygon fill="white" stroke="black" points="377.5,-49 377.5,-79 516.5,-79 516.5,-49 377.5,-49"/>
<text text-anchor="start" x="385.5" y="-67" font-family="Helvetica,sans-Serif" font-size="10.00">GUIFunctions.PenStyle.do</text>
<text text-anchor="middle" x="447" y="-56" font-family="Helvetica,sans-Serif" font-size="10.00">Action</text>
</a>
</g>
</g>
<!-- Node2&#45;&gt;Node7 -->
<g id="edge6" class="edge"><title>Node2&#45;&gt;Node7</title>
<path fill="none" stroke="midnightblue" d="M280.906,-123.326C304.108,-113.278 336.774,-99.5892 366,-89 375.44,-85.5797 385.603,-82.187 395.413,-79.0555"/>
<polygon fill="midnightblue" stroke="midnightblue" points="279.349,-120.187 271.58,-127.39 282.145,-126.604 279.349,-120.187"/>
</g>
<!-- Node9 -->
<g id="node9" class="node"><title>Node9</title>
<g id="a_node9"><a xlink:href="../../dc/d8a/class_g_u_i_functions_1_1_set_background_image.html#a99d94e1ecf90e9c6b550220a1a92e69a" target="_top" xlink:title="GUIFunctions.SetBackground\lImage.gridSetAction">
<polygon fill="white" stroke="black" points="369.5,-0 369.5,-30 524.5,-30 524.5,-0 369.5,-0"/>
<text text-anchor="start" x="377.5" y="-18" font-family="Helvetica,sans-Serif" font-size="10.00">GUIFunctions.SetBackground</text>
<text text-anchor="middle" x="447" y="-7" font-family="Helvetica,sans-Serif" font-size="10.00">Image.gridSetAction</text>
</a>
</g>
</g>
<!-- Node8&#45;&gt;Node9 -->
<g id="edge8" class="edge"><title>Node8&#45;&gt;Node9</title>
<path fill="none" stroke="midnightblue" d="M294.367,-56.7763C323.135,-48.8504 360.814,-38.4697 391.414,-30.0389"/>
<polygon fill="midnightblue" stroke="midnightblue" points="293.301,-53.4397 284.59,-59.4702 295.16,-60.1883 293.301,-53.4397"/>
</g>
<!-- Node10 -->
<g id="node10" class="node"><title>Node10</title>
<g id="a_node10"><a xlink:href="../../dc/d8a/class_g_u_i_functions_1_1_set_background_image.html#a66bb3cfbdb20dde3cbf3e55ef0c198b7" target="_top" xlink:title="GUIFunctions.SetBackground\lImage.doAction">
<polygon fill="white" stroke="black" points="564.5,-0 564.5,-30 719.5,-30 719.5,-0 564.5,-0"/>
<text text-anchor="start" x="572.5" y="-18" font-family="Helvetica,sans-Serif" font-size="10.00">GUIFunctions.SetBackground</text>
<text text-anchor="middle" x="642" y="-7" font-family="Helvetica,sans-Serif" font-size="10.00">Image.doAction</text>
</a>
</g>
</g>
<!-- Node9&#45;&gt;Node10 -->
<g id="edge9" class="edge"><title>Node9&#45;&gt;Node10</title>
<path fill="none" stroke="midnightblue" d="M534.733,-15C544.564,-15 554.531,-15 564.221,-15"/>
<polygon fill="midnightblue" stroke="midnightblue" points="534.556,-11.5001 524.556,-15 534.556,-18.5001 534.556,-11.5001"/>
</g>
</g>
</svg>
        <g id="navigator" transform="translate(0 0)" fill="#404254">
                <rect fill="#f2f5e9" fill-opacity="0.5" stroke="#606060" stroke-width=".5" x="0" y="0" width="60" height="60"/>
                <use id="zoomplus" xlink:href="#zoomPlus" x="17" y="9" onmousedown="handleZoom(evt,'in')"/>
                <use id="zoomminus" xlink:href="#zoomMin" x="42" y="9" onmousedown="handleZoom(evt,'out')"/>
                <use id="reset" xlink:href="#resetDef" x="30" y="36" onmousedown="handleReset()"/>
                <g id="arrowUp" xlink:href="#dirArrow" transform="translate(30 24)" onmousedown="handlePan(0,-1)">
                  <use xlink:href="#rim" fill="#404040">
                        <set attributeName="fill" to="#808080" begin="arrowUp.mouseover" end="arrowUp.mouseout"/>
                  </use>
                  <path fill="none" stroke="white" stroke-width="1.5" d="M0,-3.0v7 M-2.5,-0.5L0,-3.0L2.5,-0.5"/>
                </g>
                <g id="arrowRight" xlink:href="#dirArrow" transform="rotate(90) translate(36 -43)" onmousedown="handlePan(1,0)">
                  <use xlink:href="#rim" fill="#404040">
                        <set attributeName="fill" to="#808080" begin="arrowRight.mouseover" end="arrowRight.mouseout"/>
                  </use>
                  <path fill="none" stroke="white" stroke-width="1.5" d="M0,-3.0v7 M-2.5,-0.5L0,-3.0L2.5,-0.5"/>
                </g>
                <g id="arrowDown" xlink:href="#dirArrow" transform="rotate(180) translate(-30 -48)" onmousedown="handlePan(0,1)">
                  <use xlink:href="#rim" fill="#404040">
                        <set attributeName="fill" to="#808080" begin="arrowDown.mouseover" end="arrowDown.mouseout"/>
                  </use>
                  <path fill="none" stroke="white" stroke-width="1.5" d="M0,-3.0v7 M-2.5,-0.5L0,-3.0L2.5,-0.5"/>
                </g>
                <g id="arrowLeft" xlink:href="#dirArrow" transform="rotate(270) translate(-36 17)" onmousedown="handlePan(-1,0)">
                  <use xlink:href="#rim" fill="#404040">
                        <set attributeName="fill" to="#808080" begin="arrowLeft.mouseover" end="arrowLeft.mouseout"/>
                  </use>
                  <path fill="none" stroke="white" stroke-width="1.5" d="M0,-3.0v7 M-2.5,-0.5L0,-3.0L2.5,-0.5"/>
                </g>
        </g>
        <svg viewBox="0 0 15 15" width="100%" height="30px" preserveAspectRatio="xMaxYMin meet">
         <g id="arrow_out" transform="scale(0.3 0.3)">
          <a xlink:href="class_view_1_1_single_grid_a9bc0c792d3ba336bddf804936337af7c_icgraph_org.svg" target="_base">
           <rect id="button" ry="5" rx="5" y="6" x="6" height="38" width="38"
                fill="#f2f5e9" fill-opacity="0.5" stroke="#606060" stroke-width="1.0"/>
           <path id="arrow"
             d="M 11.500037,31.436501 C 11.940474,20.09759 22.043105,11.32322 32.158766,21.979434 L 37.068811,17.246167 C 37.068811,17.246167 37.088388,32 37.088388,32 L 22.160133,31.978069 C 22.160133,31.978069 26.997745,27.140456 26.997745,27.140456 C 18.528582,18.264221 13.291696,25.230495 11.500037,31.436501 z"
             style="fill:#404040;"/>
          </a>
         </g>
        </svg>
</svg>
