<?xml version="1.0" encoding="UTF-8" standalone="no"?>
<!DOCTYPE svg PUBLIC "-//W3C//DTD SVG 1.1//EN"
 "http://www.w3.org/Graphics/SVG/1.1/DTD/svg11.dtd">
<!-- Generated by graphviz version 2.36.0 (20140111.2315)
 -->
<!-- Title: View.SingleGrid.addTurtle Pages: 1 -->
<svg width="330pt" height="66pt"
 viewBox="0.00 0.00 330.00 66.00" xmlns="http://www.w3.org/2000/svg" xmlns:xlink="http://www.w3.org/1999/xlink">
<g id="graph0" class="graph" transform="scale(1 1) rotate(0) translate(4 62)">
<title>View.SingleGrid.addTurtle</title>
<polygon fill="white" stroke="none" points="-4,4 -4,-62 326,-62 326,4 -4,4"/>
<!-- Node1 -->
<g id="node1" class="node"><title>Node1</title>
<polygon fill="#bfbfbf" stroke="black" points="0,-19.5 0,-38.5 136,-38.5 136,-19.5 0,-19.5"/>
<text text-anchor="middle" x="68" y="-26.5" font-family="Helvetica,sans-Serif" font-size="10.00">View.SingleGrid.addTurtle</text>
</g>
<!-- Node2 -->
<g id="node2" class="node"><title>Node2</title>
<g id="a_node2"><a xlink:href="../../d9/db1/class_view_1_1_single_grid.html#a4f5ac29735861f044f439278afea0957" target="_top" xlink:title="View.SingleGrid.getAllTurtles">
<polygon fill="white" stroke="black" points="172,-38.5 172,-57.5 322,-57.5 322,-38.5 172,-38.5"/>
<text text-anchor="middle" x="247" y="-45.5" font-family="Helvetica,sans-Serif" font-size="10.00">View.SingleGrid.getAllTurtles</text>
</a>
</g>
</g>
<!-- Node1&#45;&gt;Node2 -->
<g id="edge1" class="edge"><title>Node1&#45;&gt;Node2</title>
<path fill="none" stroke="midnightblue" d="M136.168,-36.2102C144.533,-37.1081 153.168,-38.035 161.75,-38.9562"/>
<polygon fill="midnightblue" stroke="midnightblue" points="161.464,-42.4455 171.78,-40.0329 162.211,-35.4855 161.464,-42.4455"/>
</g>
<!-- Node3 -->
<g id="node3" class="node"><title>Node3</title>
<g id="a_node3"><a xlink:href="../../df/dcb/classturtle_1_1_turtle.html#a00d4640d9156c2612f3472800fd26428" target="_top" xlink:title="turtle.Turtle.setID">
<polygon fill="white" stroke="black" points="198,-0.5 198,-19.5 296,-19.5 296,-0.5 198,-0.5"/>
<text text-anchor="middle" x="247" y="-7.5" font-family="Helvetica,sans-Serif" font-size="10.00">turtle.Turtle.setID</text>
</a>
</g>
</g>
<!-- Node1&#45;&gt;Node3 -->
<g id="edge2" class="edge"><title>Node1&#45;&gt;Node3</title>
<path fill="none" stroke="midnightblue" d="M136.168,-21.7898C153.176,-19.9642 171.301,-18.0185 187.822,-16.245"/>
<polygon fill="midnightblue" stroke="midnightblue" points="188.309,-19.7131 197.878,-15.1657 187.561,-12.7531 188.309,-19.7131"/>
</g>
</g>
</svg>
