<?xml version="1.0" encoding="UTF-8" standalone="no"?>
<!DOCTYPE svg PUBLIC "-//W3C//DTD SVG 1.1//EN"
 "http://www.w3.org/Graphics/SVG/1.1/DTD/svg11.dtd">
<!-- Generated by graphviz version 2.36.0 (20140111.2315)
 -->
<!-- Title: View.SingleGrid.getActivePens Pages: 1 -->
<svg width="368pt" height="234pt"
 viewBox="0.00 0.00 368.00 234.00" xmlns="http://www.w3.org/2000/svg" xmlns:xlink="http://www.w3.org/1999/xlink">
<g id="graph0" class="graph" transform="scale(1 1) rotate(0) translate(4 230)">
<title>View.SingleGrid.getActivePens</title>
<polygon fill="white" stroke="none" points="-4,4 -4,-230 364,-230 364,4 -4,4"/>
<!-- Node1 -->
<g id="node1" class="node"><title>Node1</title>
<polygon fill="#bfbfbf" stroke="black" points="0.5,-103.5 0.5,-122.5 161.5,-122.5 161.5,-103.5 0.5,-103.5"/>
<text text-anchor="middle" x="81" y="-110.5" font-family="Helvetica,sans-Serif" font-size="10.00">View.SingleGrid.getActivePens</text>
</g>
<!-- Node2 -->
<g id="node2" class="node"><title>Node2</title>
<g id="a_node2"><a xlink:href="../../d2/dd2/class_g_u_i_functions_1_1_set_pen_down.html#ac016088490fad0f1986cea6015a74a5d" target="_top" xlink:title="GUIFunctions.SetPenDown.do\lAction">
<polygon fill="white" stroke="black" points="200,-196 200,-226 358,-226 358,-196 200,-196"/>
<text text-anchor="start" x="208" y="-214" font-family="Helvetica,sans-Serif" font-size="10.00">GUIFunctions.SetPenDown.do</text>
<text text-anchor="middle" x="279" y="-203" font-family="Helvetica,sans-Serif" font-size="10.00">Action</text>
</a>
</g>
</g>
<!-- Node1&#45;&gt;Node2 -->
<g id="edge1" class="edge"><title>Node1&#45;&gt;Node2</title>
<path fill="none" stroke="midnightblue" d="M103.094,-128.636C125.643,-144.772 162.904,-169.807 198,-186 205.928,-189.658 214.534,-192.974 223.065,-195.908"/>
<polygon fill="midnightblue" stroke="midnightblue" points="105.083,-125.755 94.9319,-122.722 100.976,-131.424 105.083,-125.755"/>
</g>
<!-- Node3 -->
<g id="node3" class="node"><title>Node3</title>
<g id="a_node3"><a xlink:href="../../d8/d40/class_g_u_i_functions_1_1_set_pen_up.html#a66b0a694c32b985e22e6814d48fa7a5c" target="_top" xlink:title="GUIFunctions.SetPenUp.do\lAction">
<polygon fill="white" stroke="black" points="206.5,-147 206.5,-177 351.5,-177 351.5,-147 206.5,-147"/>
<text text-anchor="start" x="214.5" y="-165" font-family="Helvetica,sans-Serif" font-size="10.00">GUIFunctions.SetPenUp.do</text>
<text text-anchor="middle" x="279" y="-154" font-family="Helvetica,sans-Serif" font-size="10.00">Action</text>
</a>
</g>
</g>
<!-- Node1&#45;&gt;Node3 -->
<g id="edge2" class="edge"><title>Node1&#45;&gt;Node3</title>
<path fill="none" stroke="midnightblue" d="M130.057,-125.014C156.54,-131.635 189.664,-139.916 217.852,-146.963"/>
<polygon fill="midnightblue" stroke="midnightblue" points="130.806,-121.594 120.256,-122.564 129.109,-128.385 130.806,-121.594"/>
</g>
<!-- Node4 -->
<g id="node4" class="node"><title>Node4</title>
<g id="a_node4"><a xlink:href="../../d5/dfa/class_g_u_i_functions_1_1_pen_thickness.html#af0b6030ff3fbeb35d4cae430fb2635ac" target="_top" xlink:title="GUIFunctions.PenThickness.do\lAction">
<polygon fill="white" stroke="black" points="198.5,-98 198.5,-128 359.5,-128 359.5,-98 198.5,-98"/>
<text text-anchor="start" x="206.5" y="-116" font-family="Helvetica,sans-Serif" font-size="10.00">GUIFunctions.PenThickness.do</text>
<text text-anchor="middle" x="279" y="-105" font-family="Helvetica,sans-Serif" font-size="10.00">Action</text>
</a>
</g>
</g>
<!-- Node1&#45;&gt;Node4 -->
<g id="edge3" class="edge"><title>Node1&#45;&gt;Node4</title>
<path fill="none" stroke="midnightblue" d="M171.989,-113C180.785,-113 189.667,-113 198.35,-113"/>
<polygon fill="midnightblue" stroke="midnightblue" points="171.721,-109.5 161.721,-113 171.721,-116.5 171.721,-109.5"/>
</g>
<!-- Node5 -->
<g id="node5" class="node"><title>Node5</title>
<g id="a_node5"><a xlink:href="../../da/d16/class_g_u_i_functions_1_1_pen_color.html#a40da853af47e7550f10ebb66756a8548" target="_top" xlink:title="GUIFunctions.PenColor.do\lAction">
<polygon fill="white" stroke="black" points="209.5,-49 209.5,-79 348.5,-79 348.5,-49 209.5,-49"/>
<text text-anchor="start" x="217.5" y="-67" font-family="Helvetica,sans-Serif" font-size="10.00">GUIFunctions.PenColor.do</text>
<text text-anchor="middle" x="279" y="-56" font-family="Helvetica,sans-Serif" font-size="10.00">Action</text>
</a>
</g>
</g>
<!-- Node1&#45;&gt;Node5 -->
<g id="edge4" class="edge"><title>Node1&#45;&gt;Node5</title>
<path fill="none" stroke="midnightblue" d="M130.057,-100.986C156.54,-94.365 189.664,-86.0839 217.852,-79.037"/>
<polygon fill="midnightblue" stroke="midnightblue" points="129.109,-97.6151 120.256,-103.436 130.806,-104.406 129.109,-97.6151"/>
</g>
<!-- Node6 -->
<g id="node6" class="node"><title>Node6</title>
<g id="a_node6"><a xlink:href="../../d0/d77/class_g_u_i_functions_1_1_pen_style.html#a8e84d8f42da0306329a5e0266012b118" target="_top" xlink:title="GUIFunctions.PenStyle.do\lAction">
<polygon fill="white" stroke="black" points="209.5,-0 209.5,-30 348.5,-30 348.5,-0 209.5,-0"/>
<text text-anchor="start" x="217.5" y="-18" font-family="Helvetica,sans-Serif" font-size="10.00">GUIFunctions.PenStyle.do</text>
<text text-anchor="middle" x="279" y="-7" font-family="Helvetica,sans-Serif" font-size="10.00">Action</text>
</a>
</g>
</g>
<!-- Node1&#45;&gt;Node6 -->
<g id="edge5" class="edge"><title>Node1&#45;&gt;Node6</title>
<path fill="none" stroke="midnightblue" d="M103.094,-97.3637C125.643,-81.2276 162.904,-56.1932 198,-40 205.928,-36.3422 214.534,-33.0258 223.065,-30.0915"/>
<polygon fill="midnightblue" stroke="midnightblue" points="100.976,-94.5761 94.9319,-103.278 105.083,-100.245 100.976,-94.5761"/>
</g>
</g>
</svg>
