<?xml version="1.0" encoding="UTF-8" standalone="no"?>
<!DOCTYPE svg PUBLIC "-//W3C//DTD SVG 1.1//EN"
 "http://www.w3.org/Graphics/SVG/1.1/DTD/svg11.dtd">
<!-- Generated by graphviz version 2.36.0 (20140111.2315)
 -->
<!-- Title: View.SingleGrid.getMyWidth Pages: 1 -->
<svg width="934pt" height="165pt"
 viewBox="0.00 0.00 934.00 165.00" xmlns="http://www.w3.org/2000/svg" xmlns:xlink="http://www.w3.org/1999/xlink">
<g id="graph0" class="graph" transform="scale(1 1) rotate(0) translate(4 161)">
<title>View.SingleGrid.getMyWidth</title>
<polygon fill="white" stroke="none" points="-4,4 -4,-161 930,-161 930,4 -4,4"/>
<!-- Node1 -->
<g id="node1" class="node"><title>Node1</title>
<polygon fill="#bfbfbf" stroke="black" points="0,-71.5 0,-90.5 148,-90.5 148,-71.5 0,-71.5"/>
<text text-anchor="middle" x="74" y="-78.5" font-family="Helvetica,sans-Serif" font-size="10.00">View.SingleGrid.getMyWidth</text>
</g>
<!-- Node2 -->
<g id="node2" class="node"><title>Node2</title>
<g id="a_node2"><a xlink:href="../../d5/d30/class_view_1_1_tabs_of_grids.html#aa186cd880ee36327ffc0d66951a23fb5" target="_top" xlink:title="View.TabsOfGrids.addTab">
<polygon fill="white" stroke="black" points="208,-137.5 208,-156.5 342,-156.5 342,-137.5 208,-137.5"/>
<text text-anchor="middle" x="275" y="-144.5" font-family="Helvetica,sans-Serif" font-size="10.00">View.TabsOfGrids.addTab</text>
</a>
</g>
</g>
<!-- Node1&#45;&gt;Node2 -->
<g id="edge1" class="edge"><title>Node1&#45;&gt;Node2</title>
<path fill="none" stroke="midnightblue" d="M103.965,-94.9187C125.623,-104.906 156.172,-118.116 184,-127 196.656,-131.04 210.566,-134.563 223.586,-137.479"/>
<polygon fill="midnightblue" stroke="midnightblue" points="105.223,-91.6434 94.6808,-90.5836 102.261,-97.986 105.223,-91.6434"/>
</g>
<!-- Node6 -->
<g id="node6" class="node"><title>Node6</title>
<g id="a_node6"><a xlink:href="../../d8/df7/class_g_u_i_functions_1_1_toggle_grid_lines.html#a1417481b2244a2a27dfc2e797f24363a" target="_top" xlink:title="GUIFunctions.ToggleGridLines.draw\lGridLine">
<polygon fill="white" stroke="black" points="184,-88 184,-118 366,-118 366,-88 184,-88"/>
<text text-anchor="start" x="192" y="-106" font-family="Helvetica,sans-Serif" font-size="10.00">GUIFunctions.ToggleGridLines.draw</text>
<text text-anchor="middle" x="275" y="-95" font-family="Helvetica,sans-Serif" font-size="10.00">GridLine</text>
</a>
</g>
</g>
<!-- Node1&#45;&gt;Node6 -->
<g id="edge5" class="edge"><title>Node1&#45;&gt;Node6</title>
<path fill="none" stroke="midnightblue" d="M158.358,-90.2154C166.719,-91.1398 175.237,-92.0815 183.666,-93.0134"/>
<polygon fill="midnightblue" stroke="midnightblue" points="158.577,-86.7184 148.252,-89.0983 157.807,-93.676 158.577,-86.7184"/>
</g>
<!-- Node7 -->
<g id="node7" class="node"><title>Node7</title>
<g id="a_node7"><a xlink:href="../../d8/df7/class_g_u_i_functions_1_1_toggle_grid_lines.html#aad46b39227b4f9e73344d1f64b4478c6" target="_top" xlink:title="GUIFunctions.ToggleGridLines.make\lGridLines">
<polygon fill="white" stroke="black" points="402,-69 402,-99 588,-99 588,-69 402,-69"/>
<text text-anchor="start" x="410" y="-87" font-family="Helvetica,sans-Serif" font-size="10.00">GUIFunctions.ToggleGridLines.make</text>
<text text-anchor="middle" x="495" y="-76" font-family="Helvetica,sans-Serif" font-size="10.00">GridLines</text>
</a>
</g>
</g>
<!-- Node1&#45;&gt;Node7 -->
<g id="edge10" class="edge"><title>Node1&#45;&gt;Node7</title>
<path fill="none" stroke="midnightblue" d="M158.404,-78.4691C167.047,-78.2773 175.701,-78.1142 184,-78 264.881,-76.8872 285.133,-76.1057 366,-78 377.565,-78.2709 389.713,-78.6793 401.73,-79.1582"/>
<polygon fill="midnightblue" stroke="midnightblue" points="158.199,-74.9729 148.284,-78.7064 158.364,-81.9709 158.199,-74.9729"/>
</g>
<!-- Node9 -->
<g id="node9" class="node"><title>Node9</title>
<g id="a_node9"><a xlink:href="../../dc/d8a/class_g_u_i_functions_1_1_set_background_image.html#a99d94e1ecf90e9c6b550220a1a92e69a" target="_top" xlink:title="GUIFunctions.SetBackground\lImage.gridSetAction">
<polygon fill="white" stroke="black" points="197.5,-0 197.5,-30 352.5,-30 352.5,-0 197.5,-0"/>
<text text-anchor="start" x="205.5" y="-18" font-family="Helvetica,sans-Serif" font-size="10.00">GUIFunctions.SetBackground</text>
<text text-anchor="middle" x="275" y="-7" font-family="Helvetica,sans-Serif" font-size="10.00">Image.gridSetAction</text>
</a>
</g>
</g>
<!-- Node1&#45;&gt;Node9 -->
<g id="edge8" class="edge"><title>Node1&#45;&gt;Node9</title>
<path fill="none" stroke="midnightblue" d="M113.644,-68.1834C146.508,-57.2838 193.752,-41.6149 228.45,-30.1071"/>
<polygon fill="midnightblue" stroke="midnightblue" points="112.326,-64.9329 103.936,-71.403 114.53,-71.5771 112.326,-64.9329"/>
</g>
<!-- Node3 -->
<g id="node3" class="node"><title>Node3</title>
<g id="a_node3"><a xlink:href="../../d6/d33/class_view_1_1_slogo_view.html#a5759fa529a24ab1e80d37348f3dd395b" target="_top" xlink:title="View.SlogoView.addGrid">
<polygon fill="white" stroke="black" points="430.5,-137.5 430.5,-156.5 559.5,-156.5 559.5,-137.5 430.5,-137.5"/>
<text text-anchor="middle" x="495" y="-144.5" font-family="Helvetica,sans-Serif" font-size="10.00">View.SlogoView.addGrid</text>
</a>
</g>
</g>
<!-- Node2&#45;&gt;Node3 -->
<g id="edge2" class="edge"><title>Node2&#45;&gt;Node3</title>
<path fill="none" stroke="midnightblue" d="M352.622,-147C378.002,-147 405.958,-147 430.262,-147"/>
<polygon fill="midnightblue" stroke="midnightblue" points="352.295,-143.5 342.295,-147 352.295,-150.5 352.295,-143.5"/>
</g>
<!-- Node4 -->
<g id="node4" class="node"><title>Node4</title>
<g id="a_node4"><a xlink:href="../../d6/d33/class_view_1_1_slogo_view.html#acfeff052503655d2ac419d2bf4ea9bd5" target="_top" xlink:title="View.SlogoView.initialize">
<polygon fill="white" stroke="black" points="645,-137.5 645,-156.5 775,-156.5 775,-137.5 645,-137.5"/>
<text text-anchor="middle" x="710" y="-144.5" font-family="Helvetica,sans-Serif" font-size="10.00">View.SlogoView.initialize</text>
</a>
</g>
</g>
<!-- Node3&#45;&gt;Node4 -->
<g id="edge3" class="edge"><title>Node3&#45;&gt;Node4</title>
<path fill="none" stroke="midnightblue" d="M569.921,-147C594.363,-147 621.337,-147 644.973,-147"/>
<polygon fill="midnightblue" stroke="midnightblue" points="569.619,-143.5 559.619,-147 569.618,-150.5 569.619,-143.5"/>
</g>
<!-- Node5 -->
<g id="node5" class="node"><title>Node5</title>
<g id="a_node5"><a xlink:href="../../db/d27/class_view_1_1_slogo.html#a6ab76a53160b61d8501aec91c55b85c8" target="_top" xlink:title="View.Slogo.start">
<polygon fill="white" stroke="black" points="832.5,-137.5 832.5,-156.5 925.5,-156.5 925.5,-137.5 832.5,-137.5"/>
<text text-anchor="middle" x="879" y="-144.5" font-family="Helvetica,sans-Serif" font-size="10.00">View.Slogo.start</text>
</a>
</g>
</g>
<!-- Node4&#45;&gt;Node5 -->
<g id="edge4" class="edge"><title>Node4&#45;&gt;Node5</title>
<path fill="none" stroke="midnightblue" d="M785.517,-147C801.521,-147 817.97,-147 832.477,-147"/>
<polygon fill="midnightblue" stroke="midnightblue" points="785.089,-143.5 775.089,-147 785.089,-150.5 785.089,-143.5"/>
</g>
<!-- Node6&#45;&gt;Node7 -->
<g id="edge6" class="edge"><title>Node6&#45;&gt;Node7</title>
<path fill="none" stroke="midnightblue" d="M376.461,-94.2442C384.878,-93.5106 393.363,-92.7711 401.714,-92.0433"/>
<polygon fill="midnightblue" stroke="midnightblue" points="375.901,-90.7797 366.243,-95.1348 376.509,-97.7532 375.901,-90.7797"/>
</g>
<!-- Node8 -->
<g id="node8" class="node"><title>Node8</title>
<g id="a_node8"><a xlink:href="../../d8/df7/class_g_u_i_functions_1_1_toggle_grid_lines.html#a64d65a7ba6c511ab405924d32825ed17" target="_top" xlink:title="GUIFunctions.ToggleGridLines.do\lAction">
<polygon fill="white" stroke="black" points="624.5,-69 624.5,-99 795.5,-99 795.5,-69 624.5,-69"/>
<text text-anchor="start" x="632.5" y="-87" font-family="Helvetica,sans-Serif" font-size="10.00">GUIFunctions.ToggleGridLines.do</text>
<text text-anchor="middle" x="710" y="-76" font-family="Helvetica,sans-Serif" font-size="10.00">Action</text>
</a>
</g>
</g>
<!-- Node7&#45;&gt;Node8 -->
<g id="edge7" class="edge"><title>Node7&#45;&gt;Node8</title>
<path fill="none" stroke="midnightblue" d="M598.382,-84C607.093,-84 615.841,-84 624.392,-84"/>
<polygon fill="midnightblue" stroke="midnightblue" points="598.186,-80.5001 588.186,-84 598.186,-87.5001 598.186,-80.5001"/>
</g>
<!-- Node10 -->
<g id="node10" class="node"><title>Node10</title>
<g id="a_node10"><a xlink:href="../../dc/d8a/class_g_u_i_functions_1_1_set_background_image.html#a66bb3cfbdb20dde3cbf3e55ef0c198b7" target="_top" xlink:title="GUIFunctions.SetBackground\lImage.doAction">
<polygon fill="white" stroke="black" points="417.5,-0 417.5,-30 572.5,-30 572.5,-0 417.5,-0"/>
<text text-anchor="start" x="425.5" y="-18" font-family="Helvetica,sans-Serif" font-size="10.00">GUIFunctions.SetBackground</text>
<text text-anchor="middle" x="495" y="-7" font-family="Helvetica,sans-Serif" font-size="10.00">Image.doAction</text>
</a>
</g>
</g>
<!-- Node9&#45;&gt;Node10 -->
<g id="edge9" class="edge"><title>Node9&#45;&gt;Node10</title>
<path fill="none" stroke="midnightblue" d="M362.753,-15C380.771,-15 399.636,-15 417.264,-15"/>
<polygon fill="midnightblue" stroke="midnightblue" points="362.552,-11.5001 352.552,-15 362.552,-18.5001 362.552,-11.5001"/>
</g>
</g>
</svg>
