<?xml version="1.0" encoding="UTF-8" standalone="no"?>
<!DOCTYPE svg PUBLIC "-//W3C//DTD SVG 1.1//EN"
 "http://www.w3.org/Graphics/SVG/1.1/DTD/svg11.dtd">
<!-- Generated by graphviz version 2.36.0 (20140111.2315)
 -->
<!-- Title: View.SingleGrid.keepTurtleInBounds Pages: 1 -->
<svg width="670pt" height="299pt"
 viewBox="0.00 0.00 670.00 299.00" xmlns="http://www.w3.org/2000/svg" xmlns:xlink="http://www.w3.org/1999/xlink">
<g id="graph0" class="graph" transform="scale(1 1) rotate(0) translate(4 295)">
<title>View.SingleGrid.keepTurtleInBounds</title>
<polygon fill="white" stroke="none" points="-4,4 -4,-295 666,-295 666,4 -4,4"/>
<!-- Node1 -->
<g id="node1" class="node"><title>Node1</title>
<polygon fill="#bfbfbf" stroke="black" points="0.5,-128 0.5,-158 141.5,-158 141.5,-128 0.5,-128"/>
<text text-anchor="start" x="8.5" y="-146" font-family="Helvetica,sans-Serif" font-size="10.00">View.SingleGrid.keepTurtle</text>
<text text-anchor="middle" x="71" y="-135" font-family="Helvetica,sans-Serif" font-size="10.00">InBounds</text>
</g>
<!-- Node2 -->
<g id="node2" class="node"><title>Node2</title>
<g id="a_node2"><a xlink:href="../../dc/d19/class_view_1_1_pen.html#a9baa63a91f8cd62a806147fdeaf44865" target="_top" xlink:title="View.Pen.drawLine">
<polygon fill="white" stroke="black" points="187,-266.5 187,-285.5 291,-285.5 291,-266.5 187,-266.5"/>
<text text-anchor="middle" x="239" y="-273.5" font-family="Helvetica,sans-Serif" font-size="10.00">View.Pen.drawLine</text>
</a>
</g>
</g>
<!-- Node1&#45;&gt;Node2 -->
<g id="edge1" class="edge"><title>Node1&#45;&gt;Node2</title>
<path fill="none" stroke="midnightblue" d="M82.1887,-158.273C99.209,-182.635 135.752,-230.264 178,-257 181.188,-259.018 184.608,-260.837 188.139,-262.474"/>
<polygon fill="midnightblue" stroke="midnightblue" points="187.083,-265.824 197.662,-266.395 189.748,-259.351 187.083,-265.824"/>
</g>
<!-- Node5 -->
<g id="node5" class="node"><title>Node5</title>
<g id="a_node5"><a xlink:href="../../df/dcb/classturtle_1_1_turtle.html#a0b8bdf8fc097cab5bf51d46567c2d749" target="_top" xlink:title="turtle.Turtle.getPen">
<polygon fill="white" stroke="black" points="185.5,-228.5 185.5,-247.5 292.5,-247.5 292.5,-228.5 185.5,-228.5"/>
<text text-anchor="middle" x="239" y="-235.5" font-family="Helvetica,sans-Serif" font-size="10.00">turtle.Turtle.getPen</text>
</a>
</g>
</g>
<!-- Node1&#45;&gt;Node5 -->
<g id="edge4" class="edge"><title>Node1&#45;&gt;Node5</title>
<path fill="none" stroke="midnightblue" d="M89.2671,-158.029C109.382,-174.883 144.189,-202.064 178,-219 182.35,-221.179 187.003,-223.175 191.721,-224.985"/>
<polygon fill="midnightblue" stroke="midnightblue" points="190.826,-228.382 201.42,-228.441 193.175,-221.788 190.826,-228.382"/>
</g>
<!-- Node6 -->
<g id="node6" class="node"><title>Node6</title>
<g id="a_node6"><a xlink:href="../../dc/d19/class_view_1_1_pen.html#a837537c2d8cd3a98e918a3ab6d72ebd9" target="_top" xlink:title="View.Pen.getPenDown">
<polygon fill="white" stroke="black" points="178,-190.5 178,-209.5 300,-209.5 300,-190.5 178,-190.5"/>
<text text-anchor="middle" x="239" y="-197.5" font-family="Helvetica,sans-Serif" font-size="10.00">View.Pen.getPenDown</text>
</a>
</g>
</g>
<!-- Node1&#45;&gt;Node6 -->
<g id="edge5" class="edge"><title>Node1&#45;&gt;Node6</title>
<path fill="none" stroke="midnightblue" d="M112.9,-158.067C132.529,-165.194 156.42,-173.718 178,-181 184.183,-183.086 190.746,-185.233 197.176,-187.299"/>
<polygon fill="midnightblue" stroke="midnightblue" points="196.505,-190.758 207.096,-190.458 198.629,-184.088 196.505,-190.758"/>
</g>
<!-- Node7 -->
<g id="node7" class="node"><title>Node7</title>
<g id="a_node7"><a xlink:href="../../df/dcb/classturtle_1_1_turtle.html#aa576ade68e2f453b037ea2a3c456d466" target="_top" xlink:title="turtle.Turtle.getXPos">
<polygon fill="white" stroke="black" points="182.5,-152.5 182.5,-171.5 295.5,-171.5 295.5,-152.5 182.5,-152.5"/>
<text text-anchor="middle" x="239" y="-159.5" font-family="Helvetica,sans-Serif" font-size="10.00">turtle.Turtle.getXPos</text>
</a>
</g>
</g>
<!-- Node1&#45;&gt;Node7 -->
<g id="edge6" class="edge"><title>Node1&#45;&gt;Node7</title>
<path fill="none" stroke="midnightblue" d="M141.918,-151.003C151.914,-152.147 162.169,-153.321 172.085,-154.456"/>
<polygon fill="midnightblue" stroke="midnightblue" points="171.937,-157.961 182.27,-155.621 172.733,-151.007 171.937,-157.961"/>
</g>
<!-- Node9 -->
<g id="node9" class="node"><title>Node9</title>
<g id="a_node9"><a xlink:href="../../df/dcb/classturtle_1_1_turtle.html#a735b5aa0bce5a53d2c75322fb2ad9130" target="_top" xlink:title="turtle.Turtle.getYPos">
<polygon fill="white" stroke="black" points="183,-114.5 183,-133.5 295,-133.5 295,-114.5 183,-114.5"/>
<text text-anchor="middle" x="239" y="-121.5" font-family="Helvetica,sans-Serif" font-size="10.00">turtle.Turtle.getYPos</text>
</a>
</g>
</g>
<!-- Node1&#45;&gt;Node9 -->
<g id="edge8" class="edge"><title>Node1&#45;&gt;Node9</title>
<path fill="none" stroke="midnightblue" d="M141.918,-134.997C152.152,-133.826 162.658,-132.623 172.793,-131.463"/>
<polygon fill="midnightblue" stroke="midnightblue" points="173.243,-134.935 182.78,-130.32 172.447,-127.98 173.243,-134.935"/>
</g>
<!-- Node11 -->
<g id="node11" class="node"><title>Node11</title>
<g id="a_node11"><a xlink:href="../../dc/d19/class_view_1_1_pen.html#a8709e1eb5749d8575a4ba9a26acffa0f" target="_top" xlink:title="View.Pen.setPenDown">
<polygon fill="white" stroke="black" points="178.5,-38.5 178.5,-57.5 299.5,-57.5 299.5,-38.5 178.5,-38.5"/>
<text text-anchor="middle" x="239" y="-45.5" font-family="Helvetica,sans-Serif" font-size="10.00">View.Pen.setPenDown</text>
</a>
</g>
</g>
<!-- Node1&#45;&gt;Node11 -->
<g id="edge10" class="edge"><title>Node1&#45;&gt;Node11</title>
<path fill="none" stroke="midnightblue" d="M89.2671,-127.971C109.382,-111.117 144.189,-83.9356 178,-67 182.35,-64.8209 187.003,-62.825 191.721,-61.0145"/>
<polygon fill="midnightblue" stroke="midnightblue" points="193.175,-64.2121 201.42,-57.5593 190.826,-57.618 193.175,-64.2121"/>
</g>
<!-- Node12 -->
<g id="node12" class="node"><title>Node12</title>
<g id="a_node12"><a xlink:href="../../df/dcb/classturtle_1_1_turtle.html#a5db281fc734edd965ff0faddbab871d7" target="_top" xlink:title="turtle.Turtle.setXPos">
<polygon fill="white" stroke="black" points="183,-76.5 183,-95.5 295,-95.5 295,-76.5 183,-76.5"/>
<text text-anchor="middle" x="239" y="-83.5" font-family="Helvetica,sans-Serif" font-size="10.00">turtle.Turtle.setXPos</text>
</a>
</g>
</g>
<!-- Node1&#45;&gt;Node12 -->
<g id="edge11" class="edge"><title>Node1&#45;&gt;Node12</title>
<path fill="none" stroke="midnightblue" d="M112.9,-127.933C132.529,-120.806 156.42,-112.282 178,-105 184.183,-102.914 190.746,-100.767 197.176,-98.7012"/>
<polygon fill="midnightblue" stroke="midnightblue" points="198.629,-101.912 207.096,-95.5424 196.505,-95.2415 198.629,-101.912"/>
</g>
<!-- Node15 -->
<g id="node15" class="node"><title>Node15</title>
<g id="a_node15"><a xlink:href="../../df/dcb/classturtle_1_1_turtle.html#a1107426e66ec049d5e3d1c1783a463db" target="_top" xlink:title="turtle.Turtle.setYPos">
<polygon fill="white" stroke="black" points="183.5,-0.5 183.5,-19.5 294.5,-19.5 294.5,-0.5 183.5,-0.5"/>
<text text-anchor="middle" x="239" y="-7.5" font-family="Helvetica,sans-Serif" font-size="10.00">turtle.Turtle.setYPos</text>
</a>
</g>
</g>
<!-- Node1&#45;&gt;Node15 -->
<g id="edge16" class="edge"><title>Node1&#45;&gt;Node15</title>
<path fill="none" stroke="midnightblue" d="M82.1887,-127.727C99.209,-103.365 135.752,-55.7359 178,-29 181.188,-26.9824 184.608,-25.1633 188.139,-23.5261"/>
<polygon fill="midnightblue" stroke="midnightblue" points="189.748,-26.6487 197.662,-19.605 187.083,-20.1759 189.748,-26.6487"/>
</g>
<!-- Node3 -->
<g id="node3" class="node"><title>Node3</title>
<g id="a_node3"><a xlink:href="../../dc/d19/class_view_1_1_pen.html#ad2b5fd226e4003bbb48f13018bc72916" target="_top" xlink:title="View.Pen.setLineStyle">
<polygon fill="white" stroke="black" points="342,-266.5 342,-285.5 462,-285.5 462,-266.5 342,-266.5"/>
<text text-anchor="middle" x="402" y="-273.5" font-family="Helvetica,sans-Serif" font-size="10.00">View.Pen.setLineStyle</text>
</a>
</g>
</g>
<!-- Node2&#45;&gt;Node3 -->
<g id="edge2" class="edge"><title>Node2&#45;&gt;Node3</title>
<path fill="none" stroke="midnightblue" d="M291.384,-276C304.218,-276 318.192,-276 331.734,-276"/>
<polygon fill="midnightblue" stroke="midnightblue" points="331.979,-279.5 341.979,-276 331.979,-272.5 331.979,-279.5"/>
</g>
<!-- Node4 -->
<g id="node4" class="node"><title>Node4</title>
<g id="a_node4"><a xlink:href="../../dc/d86/class_g_u_i_functions_1_1_border_style.html#a20c91294c08c9b4b555f41cdf5941e45" target="_top" xlink:title="GUIFunctions.BorderStyle.get\lStyle">
<polygon fill="white" stroke="black" points="504.5,-261 504.5,-291 661.5,-291 661.5,-261 504.5,-261"/>
<text text-anchor="start" x="512.5" y="-279" font-family="Helvetica,sans-Serif" font-size="10.00">GUIFunctions.BorderStyle.get</text>
<text text-anchor="middle" x="583" y="-268" font-family="Helvetica,sans-Serif" font-size="10.00">Style</text>
</a>
</g>
</g>
<!-- Node3&#45;&gt;Node4 -->
<g id="edge3" class="edge"><title>Node3&#45;&gt;Node4</title>
<path fill="none" stroke="midnightblue" d="M462.107,-276C472.477,-276 483.464,-276 494.413,-276"/>
<polygon fill="midnightblue" stroke="midnightblue" points="494.439,-279.5 504.439,-276 494.439,-272.5 494.439,-279.5"/>
</g>
<!-- Node8 -->
<g id="node8" class="node"><title>Node8</title>
<g id="a_node8"><a xlink:href="../../d1/dbe/classturtle_1_1_position.html#a1d079c846ce96bf1c57da388c46669e1" target="_top" xlink:title="turtle.Position.getXPos">
<polygon fill="white" stroke="black" points="339.5,-152.5 339.5,-171.5 464.5,-171.5 464.5,-152.5 339.5,-152.5"/>
<text text-anchor="middle" x="402" y="-159.5" font-family="Helvetica,sans-Serif" font-size="10.00">turtle.Position.getXPos</text>
</a>
</g>
</g>
<!-- Node7&#45;&gt;Node8 -->
<g id="edge7" class="edge"><title>Node7&#45;&gt;Node8</title>
<path fill="none" stroke="midnightblue" d="M295.858,-162C306.636,-162 318.066,-162 329.267,-162"/>
<polygon fill="midnightblue" stroke="midnightblue" points="329.464,-165.5 339.464,-162 329.464,-158.5 329.464,-165.5"/>
</g>
<!-- Node10 -->
<g id="node10" class="node"><title>Node10</title>
<g id="a_node10"><a xlink:href="../../d1/dbe/classturtle_1_1_position.html#a3a68708e4dc3290c4ef0ecd511cc8c1f" target="_top" xlink:title="turtle.Position.getYPos">
<polygon fill="white" stroke="black" points="340,-114.5 340,-133.5 464,-133.5 464,-114.5 340,-114.5"/>
<text text-anchor="middle" x="402" y="-121.5" font-family="Helvetica,sans-Serif" font-size="10.00">turtle.Position.getYPos</text>
</a>
</g>
</g>
<!-- Node9&#45;&gt;Node10 -->
<g id="edge9" class="edge"><title>Node9&#45;&gt;Node10</title>
<path fill="none" stroke="midnightblue" d="M295.407,-124C306.523,-124 318.348,-124 329.91,-124"/>
<polygon fill="midnightblue" stroke="midnightblue" points="329.979,-127.5 339.979,-124 329.979,-120.5 329.979,-127.5"/>
</g>
<!-- Node12&#45;&gt;Node8 -->
<g id="edge13" class="edge"><title>Node12&#45;&gt;Node8</title>
<path fill="none" stroke="midnightblue" d="M279.992,-95.5369C286.94,-98.0551 293.888,-101.172 300,-105 319.717,-117.349 316.147,-130.872 336,-143 339.555,-145.172 343.372,-147.107 347.309,-148.828"/>
<polygon fill="midnightblue" stroke="midnightblue" points="346.061,-152.098 356.65,-152.47 348.604,-145.576 346.061,-152.098"/>
</g>
<!-- Node12&#45;&gt;Node10 -->
<g id="edge14" class="edge"><title>Node12&#45;&gt;Node10</title>
<path fill="none" stroke="midnightblue" d="M280.627,-95.589C301.968,-100.626 328.312,-106.844 350.908,-112.177"/>
<polygon fill="midnightblue" stroke="midnightblue" points="350.128,-115.589 360.665,-114.48 351.736,-108.776 350.128,-115.589"/>
</g>
<!-- Node13 -->
<g id="node13" class="node"><title>Node13</title>
<g id="a_node13"><a xlink:href="../../d1/dbe/classturtle_1_1_position.html#a7bfd27ea2bf5e22d8de4a4e87b4df2ec" target="_top" xlink:title="turtle.Position.getRotate">
<polygon fill="white" stroke="black" points="336,-76.5 336,-95.5 468,-95.5 468,-76.5 336,-76.5"/>
<text text-anchor="middle" x="402" y="-83.5" font-family="Helvetica,sans-Serif" font-size="10.00">turtle.Position.getRotate</text>
</a>
</g>
</g>
<!-- Node12&#45;&gt;Node13 -->
<g id="edge12" class="edge"><title>Node12&#45;&gt;Node13</title>
<path fill="none" stroke="midnightblue" d="M295.407,-86C305.163,-86 315.464,-86 325.655,-86"/>
<polygon fill="midnightblue" stroke="midnightblue" points="325.785,-89.5001 335.785,-86 325.785,-82.5001 325.785,-89.5001"/>
</g>
<!-- Node14 -->
<g id="node14" class="node"><title>Node14</title>
<g id="a_node14"><a xlink:href="../../d1/dbe/classturtle_1_1_position.html#af03c1c3b306f6c12d2ec52a00fde50eb" target="_top" xlink:title="turtle.Position.setXPos">
<polygon fill="white" stroke="black" points="340,-38.5 340,-57.5 464,-57.5 464,-38.5 340,-38.5"/>
<text text-anchor="middle" x="402" y="-45.5" font-family="Helvetica,sans-Serif" font-size="10.00">turtle.Position.setXPos</text>
</a>
</g>
</g>
<!-- Node12&#45;&gt;Node14 -->
<g id="edge15" class="edge"><title>Node12&#45;&gt;Node14</title>
<path fill="none" stroke="midnightblue" d="M280.627,-76.411C301.968,-71.3739 328.312,-65.1562 350.908,-59.8229"/>
<polygon fill="midnightblue" stroke="midnightblue" points="351.736,-63.2237 360.665,-57.5201 350.128,-56.4109 351.736,-63.2237"/>
</g>
<!-- Node16 -->
<g id="node16" class="node"><title>Node16</title>
<g id="a_node16"><a xlink:href="../../d1/dbe/classturtle_1_1_position.html#a7c26cf9316a28fb4821731864ed28c95" target="_top" xlink:title="turtle.Position.setYPos">
<polygon fill="white" stroke="black" points="340.5,-0.5 340.5,-19.5 463.5,-19.5 463.5,-0.5 340.5,-0.5"/>
<text text-anchor="middle" x="402" y="-7.5" font-family="Helvetica,sans-Serif" font-size="10.00">turtle.Position.setYPos</text>
</a>
</g>
</g>
<!-- Node15&#45;&gt;Node16 -->
<g id="edge17" class="edge"><title>Node15&#45;&gt;Node16</title>
<path fill="none" stroke="midnightblue" d="M294.507,-10C306.053,-10 318.398,-10 330.441,-10"/>
<polygon fill="midnightblue" stroke="midnightblue" points="330.463,-13.5001 340.463,-10 330.463,-6.5001 330.463,-13.5001"/>
</g>
</g>
</svg>
