<?xml version="1.0" encoding="UTF-8" standalone="no"?>
<!DOCTYPE svg PUBLIC "-//W3C//DTD SVG 1.1//EN"
 "http://www.w3.org/Graphics/SVG/1.1/DTD/svg11.dtd">
<!-- Generated by graphviz version 2.36.0 (20140111.2315)
 -->
<!-- Title: View.SingleGrid Pages: 1 -->
<svg width="640pt" height="230pt"
 viewBox="0.00 0.00 640.00 230.00" xmlns="http://www.w3.org/2000/svg" xmlns:xlink="http://www.w3.org/1999/xlink">
<g id="graph0" class="graph" transform="scale(1 1) rotate(0) translate(4 226)">
<title>View.SingleGrid</title>
<polygon fill="white" stroke="none" points="-4,4 -4,-226 636,-226 636,4 -4,4"/>
<!-- Node1 -->
<g id="node1" class="node"><title>Node1</title>
<polygon fill="#bfbfbf" stroke="black" points="542.5,-82.5 542.5,-101.5 631.5,-101.5 631.5,-82.5 542.5,-82.5"/>
<text text-anchor="middle" x="587" y="-89.5" font-family="Helvetica,sans-Serif" font-size="10.00">View.SingleGrid</text>
</g>
<!-- Node2 -->
<g id="node2" class="node"><title>Node2</title>
<g id="a_node2"><a xlink:href="../../d0/d92/class_view_1_1_grid.html" target="_top" xlink:title="View.Grid">
<polygon fill="white" stroke="black" points="287,-164.5 287,-183.5 347,-183.5 347,-164.5 287,-164.5"/>
<text text-anchor="middle" x="317" y="-171.5" font-family="Helvetica,sans-Serif" font-size="10.00">View.Grid</text>
</a>
</g>
</g>
<!-- Node2&#45;&gt;Node1 -->
<g id="edge1" class="edge"><title>Node2&#45;&gt;Node1</title>
<path fill="none" stroke="midnightblue" d="M357.227,-176.531C400.185,-177.729 470.131,-174.969 524,-150 547.804,-138.967 568.48,-115.236 578.87,-101.799"/>
<polygon fill="midnightblue" stroke="midnightblue" points="357.296,-173.031 347.175,-176.164 357.041,-180.027 357.296,-173.031"/>
</g>
<!-- Node3 -->
<g id="node3" class="node"><title>Node3</title>
<polygon fill="white" stroke="#bfbfbf" points="54,-202.5 54,-221.5 94,-221.5 94,-202.5 54,-202.5"/>
<text text-anchor="middle" x="74" y="-209.5" font-family="Helvetica,sans-Serif" font-size="10.00">Pane</text>
</g>
<!-- Node3&#45;&gt;Node2 -->
<g id="edge2" class="edge"><title>Node3&#45;&gt;Node2</title>
<path fill="none" stroke="midnightblue" d="M104.314,-207.378C150.656,-200.071 240.324,-185.932 286.674,-178.624"/>
<polygon fill="midnightblue" stroke="midnightblue" points="103.647,-203.94 94.3147,-208.955 104.738,-210.854 103.647,-203.94"/>
</g>
<!-- Node4 -->
<g id="node4" class="node"><title>Node4</title>
<polygon fill="white" stroke="#bfbfbf" points="2,-164.5 2,-183.5 146,-183.5 146,-164.5 2,-164.5"/>
<text text-anchor="middle" x="74" y="-171.5" font-family="Helvetica,sans-Serif" font-size="10.00">HashMap&lt; String, Class &gt;</text>
</g>
<!-- Node4&#45;&gt;Node2 -->
<g id="edge3" class="edge"><title>Node4&#45;&gt;Node2</title>
<path fill="none" stroke="#9a32cd" stroke-dasharray="5,2" d="M156.071,-174C201.118,-174 254.428,-174 286.705,-174"/>
<polygon fill="#9a32cd" stroke="#9a32cd" points="156.004,-170.5 146.004,-174 156.004,-177.5 156.004,-170.5"/>
<text text-anchor="middle" x="189" y="-177" font-family="Helvetica,sans-Serif" font-size="10.00"> myMap</text>
</g>
<!-- Node5 -->
<g id="node5" class="node"><title>Node5</title>
<polygon fill="white" stroke="#bfbfbf" points="0.5,-126.5 0.5,-145.5 147.5,-145.5 147.5,-126.5 0.5,-126.5"/>
<text text-anchor="middle" x="74" y="-133.5" font-family="Helvetica,sans-Serif" font-size="10.00">EventHandler&lt; KeyEvent &gt;</text>
</g>
<!-- Node5&#45;&gt;Node2 -->
<g id="edge4" class="edge"><title>Node5&#45;&gt;Node2</title>
<path fill="none" stroke="#9a32cd" stroke-dasharray="5,2" d="M145.654,-147.14C192.737,-154.564 252.146,-163.932 286.92,-169.415"/>
<polygon fill="#9a32cd" stroke="#9a32cd" points="145.927,-143.64 135.503,-145.54 144.836,-150.555 145.927,-143.64"/>
<text text-anchor="middle" x="189" y="-161" font-family="Helvetica,sans-Serif" font-size="10.00"> myEvent</text>
</g>
<!-- Node6 -->
<g id="node6" class="node"><title>Node6</title>
<polygon fill="white" stroke="#bfbfbf" points="250,-126.5 250,-145.5 384,-145.5 384,-126.5 250,-126.5"/>
<text text-anchor="middle" x="317" y="-133.5" font-family="Helvetica,sans-Serif" font-size="10.00">HashSet&lt; turtle.Turtle &gt;</text>
</g>
<!-- Node6&#45;&gt;Node1 -->
<g id="edge5" class="edge"><title>Node6&#45;&gt;Node1</title>
<path fill="none" stroke="#9a32cd" stroke-dasharray="5,2" d="M394.353,-127.055C433.302,-122.035 481.339,-115.143 524,-107 532.159,-105.443 540.858,-103.51 549.082,-101.556"/>
<polygon fill="#9a32cd" stroke="#9a32cd" points="393.617,-123.62 384.139,-128.355 394.501,-130.564 393.617,-123.62"/>
<text text-anchor="middle" x="473" y="-138" font-family="Helvetica,sans-Serif" font-size="10.00"> allTurtles</text>
<text text-anchor="middle" x="473" y="-127" font-family="Helvetica,sans-Serif" font-size="10.00">activeTurtles</text>
</g>
<!-- Node7 -->
<g id="node7" class="node"><title>Node7</title>
<polygon fill="white" stroke="#bfbfbf" points="230.5,-77 230.5,-107 403.5,-107 403.5,-77 230.5,-77"/>
<text text-anchor="start" x="238.5" y="-95" font-family="Helvetica,sans-Serif" font-size="10.00">HashMap&lt; String, GUIFunctions.</text>
<text text-anchor="middle" x="317" y="-84" font-family="Helvetica,sans-Serif" font-size="10.00">GUIFunction &gt;</text>
</g>
<!-- Node7&#45;&gt;Node1 -->
<g id="edge6" class="edge"><title>Node7&#45;&gt;Node1</title>
<path fill="none" stroke="#9a32cd" stroke-dasharray="5,2" d="M413.693,-92C457.678,-92 507.675,-92 542.44,-92"/>
<polygon fill="#9a32cd" stroke="#9a32cd" points="413.534,-88.5001 403.534,-92 413.534,-95.5001 413.534,-88.5001"/>
<text text-anchor="middle" x="473" y="-95" font-family="Helvetica,sans-Serif" font-size="10.00"> myGridFunctions</text>
</g>
<!-- Node8 -->
<g id="node8" class="node"><title>Node8</title>
<polygon fill="white" stroke="#bfbfbf" points="283,-38.5 283,-57.5 351,-57.5 351,-38.5 283,-38.5"/>
<text text-anchor="middle" x="317" y="-45.5" font-family="Helvetica,sans-Serif" font-size="10.00">ImageView</text>
</g>
<!-- Node8&#45;&gt;Node1 -->
<g id="edge7" class="edge"><title>Node8&#45;&gt;Node1</title>
<path fill="none" stroke="#9a32cd" stroke-dasharray="5,2" d="M361.463,-52.8695C403.294,-57.8502 468.239,-66.3561 524,-77 532.159,-78.5573 540.858,-80.4896 549.082,-82.4435"/>
<polygon fill="#9a32cd" stroke="#9a32cd" points="361.686,-49.3717 351.345,-51.68 360.868,-56.3238 361.686,-49.3717"/>
<text text-anchor="middle" x="473" y="-80" font-family="Helvetica,sans-Serif" font-size="10.00"> myImageView</text>
</g>
<!-- Node9 -->
<g id="node9" class="node"><title>Node9</title>
<polygon fill="white" stroke="#bfbfbf" points="283,-0.5 283,-19.5 351,-19.5 351,-0.5 283,-0.5"/>
<text text-anchor="middle" x="317" y="-7.5" font-family="Helvetica,sans-Serif" font-size="10.00">Dimension</text>
</g>
<!-- Node9&#45;&gt;Node1 -->
<g id="edge8" class="edge"><title>Node9&#45;&gt;Node1</title>
<path fill="none" stroke="#9a32cd" stroke-dasharray="5,2" d="M361.177,-11.7562C404.037,-14.8115 470.838,-23.1678 524,-46 544.443,-54.7801 564.443,-71.5152 575.979,-82.1968"/>
<polygon fill="#9a32cd" stroke="#9a32cd" points="361.29,-8.25625 351.085,-11.1034 360.838,-15.2417 361.29,-8.25625"/>
<text text-anchor="middle" x="473" y="-49" font-family="Helvetica,sans-Serif" font-size="10.00"> DEFAULT_GRID_SIZE</text>
</g>
</g>
</svg>
