<?xml version="1.0" encoding="UTF-8" standalone="no"?>
<!DOCTYPE svg PUBLIC "-//W3C//DTD SVG 1.1//EN"
 "http://www.w3.org/Graphics/SVG/1.1/DTD/svg11.dtd">
<!-- Generated by graphviz version 2.36.0 (20140111.2315)
 -->
<!-- Title: commands.turtleCommands.AskCommand.onExecute Pages: 1 -->
<svg width="616pt" height="430pt"
 viewBox="0.00 0.00 616.00 430.00" xmlns="http://www.w3.org/2000/svg" xmlns:xlink="http://www.w3.org/1999/xlink">
<g id="graph0" class="graph" transform="scale(1 1) rotate(0) translate(4 426)">
<title>commands.turtleCommands.AskCommand.onExecute</title>
<polygon fill="white" stroke="none" points="-4,4 -4,-426 612,-426 612,4 -4,4"/>
<!-- Node1 -->
<g id="node1" class="node"><title>Node1</title>
<polygon fill="#bfbfbf" stroke="black" points="0,-147 0,-177 158,-177 158,-147 0,-147"/>
<text text-anchor="start" x="8" y="-165" font-family="Helvetica,sans-Serif" font-size="10.00">commands.turtleCommands.</text>
<text text-anchor="middle" x="79" y="-154" font-family="Helvetica,sans-Serif" font-size="10.00">AskCommand.onExecute</text>
</g>
<!-- Node2 -->
<g id="node2" class="node"><title>Node2</title>
<g id="a_node2"><a xlink:href="../../d9/d20/classcommands_1_1turtle_commands_1_1_multiple_turtle_command.html#a226d71bf1a9b6f4287eef7ee607e0742" target="_top" xlink:title="commands.turtleCommands.\lMultipleTurtleCommand.addFuture\lActiveTurtleTurtles">
<polygon fill="white" stroke="black" points="198,-190.5 198,-231.5 378,-231.5 378,-190.5 198,-190.5"/>
<text text-anchor="start" x="206" y="-219.5" font-family="Helvetica,sans-Serif" font-size="10.00">commands.turtleCommands.</text>
<text text-anchor="start" x="206" y="-208.5" font-family="Helvetica,sans-Serif" font-size="10.00">MultipleTurtleCommand.addFuture</text>
<text text-anchor="middle" x="288" y="-197.5" font-family="Helvetica,sans-Serif" font-size="10.00">ActiveTurtleTurtles</text>
</a>
</g>
</g>
<!-- Node1&#45;&gt;Node2 -->
<g id="edge1" class="edge"><title>Node1&#45;&gt;Node2</title>
<path fill="none" stroke="midnightblue" d="M143.514,-177.035C158.375,-180.552 174.536,-184.378 190.475,-188.151"/>
<polygon fill="midnightblue" stroke="midnightblue" points="189.82,-191.593 200.357,-190.49 191.432,-184.781 189.82,-191.593"/>
</g>
<!-- Node3 -->
<g id="node3" class="node"><title>Node3</title>
<g id="a_node3"><a xlink:href="../../d3/d03/classcommands_1_1turtle_commands_1_1_turtle_command.html#a82f290b3a2e14029a8a525bafa35994f" target="_top" xlink:title="commands.turtleCommands.\lTurtleCommand.getTurtleContainer">
<polygon fill="white" stroke="black" points="421.5,-392 421.5,-422 604.5,-422 604.5,-392 421.5,-392"/>
<text text-anchor="start" x="429.5" y="-410" font-family="Helvetica,sans-Serif" font-size="10.00">commands.turtleCommands.</text>
<text text-anchor="middle" x="513" y="-399" font-family="Helvetica,sans-Serif" font-size="10.00">TurtleCommand.getTurtleContainer</text>
</a>
</g>
</g>
<!-- Node1&#45;&gt;Node3 -->
<g id="edge13" class="edge"><title>Node1&#45;&gt;Node3</title>
<path fill="none" stroke="midnightblue" d="M98.5226,-177.282C147.522,-216.96 285.863,-324.181 418,-382 423.635,-384.466 429.569,-386.736 435.603,-388.816"/>
<polygon fill="midnightblue" stroke="midnightblue" points="434.547,-392.153 445.139,-391.929 436.719,-385.498 434.547,-392.153"/>
</g>
<!-- Node10 -->
<g id="node10" class="node"><title>Node10</title>
<g id="a_node10"><a xlink:href="../../d7/d28/classcommands_1_1information_1_1_base_turtle_container.html#a9fb79a4f75b92d4fbc1c1a0d26483c73" target="_top" xlink:title="commands.information.Base\lTurtleContainer.hardSetActiveTurtles">
<polygon fill="white" stroke="black" points="418.5,-0 418.5,-30 607.5,-30 607.5,-0 418.5,-0"/>
<text text-anchor="start" x="426.5" y="-18" font-family="Helvetica,sans-Serif" font-size="10.00">commands.information.Base</text>
<text text-anchor="middle" x="513" y="-7" font-family="Helvetica,sans-Serif" font-size="10.00">TurtleContainer.hardSetActiveTurtles</text>
</a>
</g>
</g>
<!-- Node1&#45;&gt;Node10 -->
<g id="edge14" class="edge"><title>Node1&#45;&gt;Node10</title>
<path fill="none" stroke="midnightblue" d="M158.19,-166.302C235.842,-168.937 348.074,-167.809 382,-142 420.595,-112.639 382.263,-71.7796 418,-39 419.164,-37.9326 420.368,-36.9113 421.609,-35.934"/>
<polygon fill="midnightblue" stroke="midnightblue" points="423.933,-38.5887 430.276,-30.1027 420.026,-32.7808 423.933,-38.5887"/>
</g>
<!-- Node12 -->
<g id="node12" class="node"><title>Node12</title>
<g id="a_node12"><a xlink:href="../../d7/d28/classcommands_1_1information_1_1_base_turtle_container.html#a8c96eca4730cea72f30e52b1fe4e6a96" target="_top" xlink:title="commands.information.Base\lTurtleContainer.getActiveTurtlesByID">
<polygon fill="white" stroke="black" points="194,-103 194,-133 382,-133 382,-103 194,-103"/>
<text text-anchor="start" x="202" y="-121" font-family="Helvetica,sans-Serif" font-size="10.00">commands.information.Base</text>
<text text-anchor="middle" x="288" y="-110" font-family="Helvetica,sans-Serif" font-size="10.00">TurtleContainer.getActiveTurtlesByID</text>
</a>
</g>
</g>
<!-- Node1&#45;&gt;Node12 -->
<g id="edge11" class="edge"><title>Node1&#45;&gt;Node12</title>
<path fill="none" stroke="midnightblue" d="M150.659,-146.981C168.628,-143.161 188.071,-139.028 206.491,-135.113"/>
<polygon fill="midnightblue" stroke="midnightblue" points="207.255,-138.529 216.309,-133.026 205.799,-131.682 207.255,-138.529"/>
</g>
<!-- Node13 -->
<g id="node13" class="node"><title>Node13</title>
<g id="a_node13"><a xlink:href="../../d9/d20/classcommands_1_1turtle_commands_1_1_multiple_turtle_command.html#a849a68e814365b2c9048d58477ee6ade" target="_top" xlink:title="commands.turtleCommands.\lMultipleTurtleCommand.getInternal\lCommand">
<polygon fill="white" stroke="black" points="196,-43.5 196,-84.5 380,-84.5 380,-43.5 196,-43.5"/>
<text text-anchor="start" x="204" y="-72.5" font-family="Helvetica,sans-Serif" font-size="10.00">commands.turtleCommands.</text>
<text text-anchor="start" x="204" y="-61.5" font-family="Helvetica,sans-Serif" font-size="10.00">MultipleTurtleCommand.getInternal</text>
<text text-anchor="middle" x="288" y="-50.5" font-family="Helvetica,sans-Serif" font-size="10.00">Command</text>
</a>
</g>
</g>
<!-- Node1&#45;&gt;Node13 -->
<g id="edge12" class="edge"><title>Node1&#45;&gt;Node13</title>
<path fill="none" stroke="midnightblue" d="M101.416,-146.867C123.706,-131.646 160.04,-108.299 194,-93 197.626,-91.3664 201.371,-89.7882 205.182,-88.2691"/>
<polygon fill="midnightblue" stroke="midnightblue" points="206.664,-91.4497 214.761,-84.6165 204.17,-84.9091 206.664,-91.4497"/>
</g>
<!-- Node2&#45;&gt;Node3 -->
<g id="edge2" class="edge"><title>Node2&#45;&gt;Node3</title>
<path fill="none" stroke="midnightblue" d="M308.721,-231.786C328.42,-253.062 358.997,-287.52 382,-320 400.416,-346.003 392.679,-362.657 418,-382 420.47,-383.887 423.071,-385.632 425.771,-387.245"/>
<polygon fill="midnightblue" stroke="midnightblue" points="424.216,-390.382 434.692,-391.963 427.489,-384.194 424.216,-390.382"/>
</g>
<!-- Node4 -->
<g id="node4" class="node"><title>Node4</title>
<g id="a_node4"><a xlink:href="../../d7/d28/classcommands_1_1information_1_1_base_turtle_container.html#a99170f95221aba731f3b00e96d02a1fe" target="_top" xlink:title="commands.information.Base\lTurtleContainer.getAllTurtlesByID">
<polygon fill="white" stroke="black" points="428,-343 428,-373 598,-373 598,-343 428,-343"/>
<text text-anchor="start" x="436" y="-361" font-family="Helvetica,sans-Serif" font-size="10.00">commands.information.Base</text>
<text text-anchor="middle" x="513" y="-350" font-family="Helvetica,sans-Serif" font-size="10.00">TurtleContainer.getAllTurtlesByID</text>
</a>
</g>
</g>
<!-- Node2&#45;&gt;Node4 -->
<g id="edge3" class="edge"><title>Node2&#45;&gt;Node4</title>
<path fill="none" stroke="midnightblue" d="M305.038,-231.554C327.414,-258.821 370.618,-306.576 418,-333 422.007,-335.235 426.223,-337.277 430.558,-339.142"/>
<polygon fill="midnightblue" stroke="midnightblue" points="429.616,-342.533 440.202,-342.948 432.185,-336.022 429.616,-342.533"/>
</g>
<!-- Node5 -->
<g id="node5" class="node"><title>Node5</title>
<g id="a_node5"><a xlink:href="../../d9/d20/classcommands_1_1turtle_commands_1_1_multiple_turtle_command.html#a2ccd52e79c4d5797fccac02b2f5f7929" target="_top" xlink:title="commands.turtleCommands.\lMultipleTurtleCommand.findMax">
<polygon fill="white" stroke="black" points="428.5,-294 428.5,-324 597.5,-324 597.5,-294 428.5,-294"/>
<text text-anchor="start" x="436.5" y="-312" font-family="Helvetica,sans-Serif" font-size="10.00">commands.turtleCommands.</text>
<text text-anchor="middle" x="513" y="-301" font-family="Helvetica,sans-Serif" font-size="10.00">MultipleTurtleCommand.findMax</text>
</a>
</g>
</g>
<!-- Node2&#45;&gt;Node5 -->
<g id="edge4" class="edge"><title>Node2&#45;&gt;Node5</title>
<path fill="none" stroke="midnightblue" d="M320.196,-231.66C345.64,-247.759 382.976,-269.708 418,-284 424.145,-286.508 430.619,-288.835 437.176,-290.977"/>
<polygon fill="midnightblue" stroke="midnightblue" points="436.225,-294.347 446.814,-293.984 438.31,-287.665 436.225,-294.347"/>
</g>
<!-- Node6 -->
<g id="node6" class="node"><title>Node6</title>
<g id="a_node6"><a xlink:href="../../d3/d03/classcommands_1_1turtle_commands_1_1_turtle_command.html#ae8d98992e825d4b47ef321fe8c6c63dd" target="_top" xlink:title="commands.turtleCommands.\lTurtleCommand.getGridContainer">
<polygon fill="white" stroke="black" points="424.5,-245 424.5,-275 601.5,-275 601.5,-245 424.5,-245"/>
<text text-anchor="start" x="432.5" y="-263" font-family="Helvetica,sans-Serif" font-size="10.00">commands.turtleCommands.</text>
<text text-anchor="middle" x="513" y="-252" font-family="Helvetica,sans-Serif" font-size="10.00">TurtleCommand.getGridContainer</text>
</a>
</g>
</g>
<!-- Node2&#45;&gt;Node6 -->
<g id="edge5" class="edge"><title>Node2&#45;&gt;Node6</title>
<path fill="none" stroke="midnightblue" d="M378.097,-230.577C396.522,-234.626 415.798,-238.861 433.799,-242.817"/>
<polygon fill="midnightblue" stroke="midnightblue" points="433.137,-246.255 443.656,-244.983 434.64,-239.418 433.137,-246.255"/>
</g>
<!-- Node7 -->
<g id="node7" class="node"><title>Node7</title>
<g id="a_node7"><a xlink:href="../../d4/d37/classcommands_1_1information_1_1_base_grid_container.html#a38f8c792934b18ab3c595133d0cb3d96" target="_top" xlink:title="commands.information.Base\lGridContainer.getActiveGrids">
<polygon fill="white" stroke="black" points="435.5,-196 435.5,-226 590.5,-226 590.5,-196 435.5,-196"/>
<text text-anchor="start" x="443.5" y="-214" font-family="Helvetica,sans-Serif" font-size="10.00">commands.information.Base</text>
<text text-anchor="middle" x="513" y="-203" font-family="Helvetica,sans-Serif" font-size="10.00">GridContainer.getActiveGrids</text>
</a>
</g>
</g>
<!-- Node2&#45;&gt;Node7 -->
<g id="edge6" class="edge"><title>Node2&#45;&gt;Node7</title>
<path fill="none" stroke="midnightblue" d="M378.097,-211C393.622,-211 409.751,-211 425.212,-211"/>
<polygon fill="midnightblue" stroke="midnightblue" points="425.263,-214.5 435.263,-211 425.263,-207.5 425.263,-214.5"/>
</g>
<!-- Node8 -->
<g id="node8" class="node"><title>Node8</title>
<g id="a_node8"><a xlink:href="../../d0/d92/class_view_1_1_grid.html#a84df700600bd4a0771b54514338d046b" target="_top" xlink:title="View.Grid.addTurtle">
<polygon fill="white" stroke="black" points="459.5,-157.5 459.5,-176.5 566.5,-176.5 566.5,-157.5 459.5,-157.5"/>
<text text-anchor="middle" x="513" y="-164.5" font-family="Helvetica,sans-Serif" font-size="10.00">View.Grid.addTurtle</text>
</a>
</g>
</g>
<!-- Node2&#45;&gt;Node8 -->
<g id="edge7" class="edge"><title>Node2&#45;&gt;Node8</title>
<path fill="none" stroke="midnightblue" d="M378.097,-193.42C403.565,-188.395 430.66,-183.049 453.766,-178.49"/>
<polygon fill="midnightblue" stroke="midnightblue" points="454.61,-181.891 463.744,-176.521 453.255,-175.023 454.61,-181.891"/>
</g>
<!-- Node9 -->
<g id="node9" class="node"><title>Node9</title>
<g id="a_node9"><a xlink:href="../../d7/d28/classcommands_1_1information_1_1_base_turtle_container.html#ac2cb88e2ac1647e0035de6e5b1e89c0e" target="_top" xlink:title="commands.information.Base\lTurtleContainer.addTurtle">
<polygon fill="white" stroke="black" points="435.5,-108 435.5,-138 590.5,-138 590.5,-108 435.5,-108"/>
<text text-anchor="start" x="443.5" y="-126" font-family="Helvetica,sans-Serif" font-size="10.00">commands.information.Base</text>
<text text-anchor="middle" x="513" y="-115" font-family="Helvetica,sans-Serif" font-size="10.00">TurtleContainer.addTurtle</text>
</a>
</g>
</g>
<!-- Node2&#45;&gt;Node9 -->
<g id="edge8" class="edge"><title>Node2&#45;&gt;Node9</title>
<path fill="none" stroke="midnightblue" d="M351.706,-190.371C362.07,-186.127 372.517,-181.31 382,-176 399.685,-166.096 399.842,-157.008 418,-148 422.822,-145.608 427.9,-143.424 433.097,-141.434"/>
<polygon fill="midnightblue" stroke="midnightblue" points="434.309,-144.717 442.548,-138.056 431.953,-138.126 434.309,-144.717"/>
</g>
<!-- Node2&#45;&gt;Node10 -->
<g id="edge9" class="edge"><title>Node2&#45;&gt;Node10</title>
<path fill="none" stroke="midnightblue" d="M364.243,-190.343C370.832,-186.369 376.916,-181.637 382,-176 424.166,-129.251 373.328,-83.3608 418,-39 419.083,-37.9245 420.207,-36.895 421.368,-35.9097"/>
<polygon fill="midnightblue" stroke="midnightblue" points="423.459,-38.717 429.521,-30.0274 419.363,-33.0403 423.459,-38.717"/>
</g>
<!-- Node11 -->
<g id="node11" class="node"><title>Node11</title>
<g id="a_node11"><a xlink:href="../../d9/d20/classcommands_1_1turtle_commands_1_1_multiple_turtle_command.html#af44d0905f57105902d62da74a57eac24" target="_top" xlink:title="commands.turtleCommands.\lMultipleTurtleCommand.getFuture\lActiveTurtleIDs">
<polygon fill="white" stroke="black" points="424,-48.5 424,-89.5 602,-89.5 602,-48.5 424,-48.5"/>
<text text-anchor="start" x="432" y="-77.5" font-family="Helvetica,sans-Serif" font-size="10.00">commands.turtleCommands.</text>
<text text-anchor="start" x="432" y="-66.5" font-family="Helvetica,sans-Serif" font-size="10.00">MultipleTurtleCommand.getFuture</text>
<text text-anchor="middle" x="513" y="-55.5" font-family="Helvetica,sans-Serif" font-size="10.00">ActiveTurtleIDs</text>
</a>
</g>
</g>
<!-- Node2&#45;&gt;Node11 -->
<g id="edge10" class="edge"><title>Node2&#45;&gt;Node11</title>
<path fill="none" stroke="midnightblue" d="M361.409,-190.399C368.877,-186.394 375.936,-181.639 382,-176 409.958,-149.998 389.266,-123.142 418,-98 419.012,-97.1144 420.051,-96.2558 421.114,-95.4234"/>
<polygon fill="midnightblue" stroke="midnightblue" points="423.423,-98.0837 429.691,-89.5419 419.465,-92.3105 423.423,-98.0837"/>
</g>
</g>
</svg>
