<?xml version="1.0" encoding="UTF-8" standalone="no"?>
<!DOCTYPE svg PUBLIC "-//W3C//DTD SVG 1.1//EN"
 "http://www.w3.org/Graphics/SVG/1.1/DTD/svg11.dtd">
<!-- Generated by graphviz version 2.36.0 (20140111.2315)
 -->
<!-- Title: commands.turtleCommands.AskCommand.parseArguments Pages: 1 -->
<svg width="1132pt" height="362pt"
 viewBox="0.00 0.00 1132.00 362.00" xmlns="http://www.w3.org/2000/svg" xmlns:xlink="http://www.w3.org/1999/xlink">
<g id="graph0" class="graph" transform="scale(1 1) rotate(0) translate(4 358)">
<title>commands.turtleCommands.AskCommand.parseArguments</title>
<polygon fill="white" stroke="none" points="-4,4 -4,-358 1128,-358 1128,4 -4,4"/>
<!-- Node1 -->
<g id="node1" class="node"><title>Node1</title>
<polygon fill="#bfbfbf" stroke="black" points="0.5,-109 0.5,-139 167.5,-139 167.5,-109 0.5,-109"/>
<text text-anchor="start" x="8.5" y="-127" font-family="Helvetica,sans-Serif" font-size="10.00">commands.turtleCommands.</text>
<text text-anchor="middle" x="84" y="-116" font-family="Helvetica,sans-Serif" font-size="10.00">AskCommand.parseArguments</text>
</g>
<!-- Node2 -->
<g id="node2" class="node"><title>Node2</title>
<g id="a_node2"><a xlink:href="../../da/dc6/classcommand_parser_1_1_command_factory.html#a84097b97d8a8ff95b3118ebddff9f33a" target="_top" xlink:title="commandParser.CommandFactory.create\lCommand">
<polygon fill="white" stroke="black" points="428.5,-183 428.5,-213 643.5,-213 643.5,-183 428.5,-183"/>
<text text-anchor="start" x="436.5" y="-201" font-family="Helvetica,sans-Serif" font-size="10.00">commandParser.CommandFactory.create</text>
<text text-anchor="middle" x="536" y="-190" font-family="Helvetica,sans-Serif" font-size="10.00">Command</text>
</a>
</g>
</g>
<!-- Node1&#45;&gt;Node2 -->
<g id="edge1" class="edge"><title>Node1&#45;&gt;Node2</title>
<path fill="none" stroke="midnightblue" d="M99.8518,-139.015C120.862,-159.072 161.467,-193.632 204,-207 286.158,-232.822 385.511,-225.34 453.799,-214.69"/>
<polygon fill="midnightblue" stroke="midnightblue" points="454.751,-218.081 464.063,-213.029 453.632,-211.171 454.751,-218.081"/>
</g>
<!-- Node10 -->
<g id="node10" class="node"><title>Node10</title>
<g id="a_node10"><a xlink:href="../../d9/d20/classcommands_1_1turtle_commands_1_1_multiple_turtle_command.html#acc546c50ac5a19608d6b0e3fa4d02067" target="_top" xlink:title="commands.turtleCommands.\lMultipleTurtleCommand.setInternal\lCommand">
<polygon fill="white" stroke="black" points="206.5,-157.5 206.5,-198.5 389.5,-198.5 389.5,-157.5 206.5,-157.5"/>
<text text-anchor="start" x="214.5" y="-186.5" font-family="Helvetica,sans-Serif" font-size="10.00">commands.turtleCommands.</text>
<text text-anchor="start" x="214.5" y="-175.5" font-family="Helvetica,sans-Serif" font-size="10.00">MultipleTurtleCommand.setInternal</text>
<text text-anchor="middle" x="298" y="-164.5" font-family="Helvetica,sans-Serif" font-size="10.00">Command</text>
</a>
</g>
</g>
<!-- Node1&#45;&gt;Node10 -->
<g id="edge9" class="edge"><title>Node1&#45;&gt;Node10</title>
<path fill="none" stroke="midnightblue" d="M144.054,-139.042C163.409,-143.972 185.382,-149.569 206.513,-154.952"/>
<polygon fill="midnightblue" stroke="midnightblue" points="205.922,-158.413 216.476,-157.489 207.65,-151.629 205.922,-158.413"/>
</g>
<!-- Node11 -->
<g id="node11" class="node"><title>Node11</title>
<g id="a_node11"><a xlink:href="../../da/d90/classcommands_1_1_base_command.html#a4f771af3c6b3345e720f2ef455e6d1e2" target="_top" xlink:title="commands.BaseCommand.set\lLeftoverCommands">
<polygon fill="white" stroke="black" points="215,-109 215,-139 381,-139 381,-109 215,-109"/>
<text text-anchor="start" x="223" y="-127" font-family="Helvetica,sans-Serif" font-size="10.00">commands.BaseCommand.set</text>
<text text-anchor="middle" x="298" y="-116" font-family="Helvetica,sans-Serif" font-size="10.00">LeftoverCommands</text>
</a>
</g>
</g>
<!-- Node1&#45;&gt;Node11 -->
<g id="edge10" class="edge"><title>Node1&#45;&gt;Node11</title>
<path fill="none" stroke="midnightblue" d="M167.572,-124C179.652,-124 192.16,-124 204.424,-124"/>
<polygon fill="midnightblue" stroke="midnightblue" points="204.654,-127.5 214.654,-124 204.654,-120.5 204.654,-127.5"/>
</g>
<!-- Node12 -->
<g id="node12" class="node"><title>Node12</title>
<g id="a_node12"><a xlink:href="../../da/d90/classcommands_1_1_base_command.html#a5c580fafaf7ac4ab165e666af08645c7" target="_top" xlink:title="commands.BaseCommand.split\lByInnerListCommand">
<polygon fill="white" stroke="black" points="213,-60 213,-90 383,-90 383,-60 213,-60"/>
<text text-anchor="start" x="221" y="-78" font-family="Helvetica,sans-Serif" font-size="10.00">commands.BaseCommand.split</text>
<text text-anchor="middle" x="298" y="-67" font-family="Helvetica,sans-Serif" font-size="10.00">ByInnerListCommand</text>
</a>
</g>
</g>
<!-- Node1&#45;&gt;Node12 -->
<g id="edge12" class="edge"><title>Node1&#45;&gt;Node12</title>
<path fill="none" stroke="midnightblue" d="M150.048,-108.965C172.839,-103.698 198.615,-97.7399 222.144,-92.3016"/>
<polygon fill="midnightblue" stroke="midnightblue" points="223.12,-95.6683 232.075,-90.0062 221.544,-88.8481 223.12,-95.6683"/>
</g>
<!-- Node15 -->
<g id="node15" class="node"><title>Node15</title>
<g id="a_node15"><a xlink:href="../../d9/d20/classcommands_1_1turtle_commands_1_1_multiple_turtle_command.html#a891885ef3196dad3d7af54b07f754844" target="_top" xlink:title="commands.turtleCommands.\lMultipleTurtleCommand.storeFuture\lActiveIDs">
<polygon fill="white" stroke="black" points="204.5,-0.5 204.5,-41.5 391.5,-41.5 391.5,-0.5 204.5,-0.5"/>
<text text-anchor="start" x="212.5" y="-29.5" font-family="Helvetica,sans-Serif" font-size="10.00">commands.turtleCommands.</text>
<text text-anchor="start" x="212.5" y="-18.5" font-family="Helvetica,sans-Serif" font-size="10.00">MultipleTurtleCommand.storeFuture</text>
<text text-anchor="middle" x="298" y="-7.5" font-family="Helvetica,sans-Serif" font-size="10.00">ActiveIDs</text>
</a>
</g>
</g>
<!-- Node1&#45;&gt;Node15 -->
<g id="edge15" class="edge"><title>Node1&#45;&gt;Node15</title>
<path fill="none" stroke="midnightblue" d="M105.584,-108.93C128.616,-92.6198 167.501,-66.7085 204,-50 207.616,-48.3446 211.353,-46.7486 215.157,-45.2151"/>
<polygon fill="midnightblue" stroke="midnightblue" points="216.648,-48.3918 224.723,-41.5336 214.133,-41.8589 216.648,-48.3918"/>
</g>
<!-- Node3 -->
<g id="node3" class="node"><title>Node3</title>
<g id="a_node3"><a xlink:href="../../d4/d05/classcommands_1_1information_1_1_base_user_defined_container.html#abbef8e1f3137aa92b5ca708b18981aac" target="_top" xlink:title="commands.information.Base\lUserDefinedContainer.containsCustom\lCommand">
<polygon fill="white" stroke="black" points="687.5,-312.5 687.5,-353.5 890.5,-353.5 890.5,-312.5 687.5,-312.5"/>
<text text-anchor="start" x="695.5" y="-341.5" font-family="Helvetica,sans-Serif" font-size="10.00">commands.information.Base</text>
<text text-anchor="start" x="695.5" y="-330.5" font-family="Helvetica,sans-Serif" font-size="10.00">UserDefinedContainer.containsCustom</text>
<text text-anchor="middle" x="789" y="-319.5" font-family="Helvetica,sans-Serif" font-size="10.00">Command</text>
</a>
</g>
</g>
<!-- Node2&#45;&gt;Node3 -->
<g id="edge2" class="edge"><title>Node2&#45;&gt;Node3</title>
<path fill="none" stroke="midnightblue" d="M553.299,-213.109C578.572,-235.771 629.577,-278.509 680,-303 684.261,-305.07 688.689,-307.017 693.212,-308.847"/>
<polygon fill="midnightblue" stroke="midnightblue" points="692.019,-312.138 702.609,-312.438 694.518,-305.599 692.019,-312.138"/>
</g>
<!-- Node5 -->
<g id="node5" class="node"><title>Node5</title>
<g id="a_node5"><a xlink:href="../../dd/df5/interfacecommands_1_1information_1_1_i_information_gateway.html#a7288ceac89a0755490d929dc28df39f0" target="_top" xlink:title="commands.information.IInformation\lGateway.getContainers">
<polygon fill="white" stroke="black" points="695,-264 695,-294 883,-294 883,-264 695,-264"/>
<text text-anchor="start" x="703" y="-282" font-family="Helvetica,sans-Serif" font-size="10.00">commands.information.IInformation</text>
<text text-anchor="middle" x="789" y="-271" font-family="Helvetica,sans-Serif" font-size="10.00">Gateway.getContainers</text>
</a>
</g>
</g>
<!-- Node2&#45;&gt;Node5 -->
<g id="edge4" class="edge"><title>Node2&#45;&gt;Node5</title>
<path fill="none" stroke="midnightblue" d="M571.174,-213.011C599.835,-225.204 642.052,-242.246 680,-254 688.573,-256.655 697.606,-259.173 706.648,-261.515"/>
<polygon fill="midnightblue" stroke="midnightblue" points="705.888,-264.933 716.441,-263.985 707.601,-258.145 705.888,-264.933"/>
</g>
<!-- Node6 -->
<g id="node6" class="node"><title>Node6</title>
<g id="a_node6"><a xlink:href="../../d4/d05/classcommands_1_1information_1_1_base_user_defined_container.html#a22a65948b69ed0032f4d904e13c69491" target="_top" xlink:title="commands.information.Base\lUserDefinedContainer.getCreated\lCommand">
<polygon fill="white" stroke="black" points="699.5,-204.5 699.5,-245.5 878.5,-245.5 878.5,-204.5 699.5,-204.5"/>
<text text-anchor="start" x="707.5" y="-233.5" font-family="Helvetica,sans-Serif" font-size="10.00">commands.information.Base</text>
<text text-anchor="start" x="707.5" y="-222.5" font-family="Helvetica,sans-Serif" font-size="10.00">UserDefinedContainer.getCreated</text>
<text text-anchor="middle" x="789" y="-211.5" font-family="Helvetica,sans-Serif" font-size="10.00">Command</text>
</a>
</g>
</g>
<!-- Node2&#45;&gt;Node6 -->
<g id="edge5" class="edge"><title>Node2&#45;&gt;Node6</title>
<path fill="none" stroke="midnightblue" d="M643.811,-209.49C658.88,-211.111 674.317,-212.771 689.226,-214.375"/>
<polygon fill="midnightblue" stroke="midnightblue" points="689.135,-217.885 699.452,-215.475 689.884,-210.925 689.135,-217.885"/>
</g>
<!-- Node7 -->
<g id="node7" class="node"><title>Node7</title>
<g id="a_node7"><a xlink:href="../../da/d90/classcommands_1_1_base_command.html#a03dca0b542f5be4aa804297cea2688b5" target="_top" xlink:title="commands.BaseCommand.get\lRequiredInformationTypes">
<polygon fill="white" stroke="black" points="705.5,-156 705.5,-186 872.5,-186 872.5,-156 705.5,-156"/>
<text text-anchor="start" x="713.5" y="-174" font-family="Helvetica,sans-Serif" font-size="10.00">commands.BaseCommand.get</text>
<text text-anchor="middle" x="789" y="-163" font-family="Helvetica,sans-Serif" font-size="10.00">RequiredInformationTypes</text>
</a>
</g>
</g>
<!-- Node2&#45;&gt;Node7 -->
<g id="edge6" class="edge"><title>Node2&#45;&gt;Node7</title>
<path fill="none" stroke="midnightblue" d="M643.811,-186.51C660.827,-184.68 678.312,-182.799 694.977,-181.006"/>
<polygon fill="midnightblue" stroke="midnightblue" points="695.668,-184.452 705.236,-179.903 694.919,-177.493 695.668,-184.452"/>
</g>
<!-- Node8 -->
<g id="node8" class="node"><title>Node8</title>
<g id="a_node8"><a xlink:href="../../da/dc6/classcommand_parser_1_1_command_factory.html#a5c750e1a1a32bd314bf662dd5cfdc951" target="_top" xlink:title="commandParser.CommandFactory.identify\lFirstCommand">
<polygon fill="white" stroke="black" points="680,-107 680,-137 898,-137 898,-107 680,-107"/>
<text text-anchor="start" x="688" y="-125" font-family="Helvetica,sans-Serif" font-size="10.00">commandParser.CommandFactory.identify</text>
<text text-anchor="middle" x="789" y="-114" font-family="Helvetica,sans-Serif" font-size="10.00">FirstCommand</text>
</a>
</g>
</g>
<!-- Node2&#45;&gt;Node8 -->
<g id="edge7" class="edge"><title>Node2&#45;&gt;Node8</title>
<path fill="none" stroke="midnightblue" d="M574.193,-182.964C602.799,-171.771 643.481,-156.649 680,-146 687.886,-143.701 696.151,-141.5 704.448,-139.429"/>
<polygon fill="midnightblue" stroke="midnightblue" points="705.295,-142.825 714.183,-137.059 703.639,-136.023 705.295,-142.825"/>
</g>
<!-- Node9 -->
<g id="node9" class="node"><title>Node9</title>
<g id="a_node9"><a xlink:href="../../da/d90/classcommands_1_1_base_command.html#aa64b92d5d7753574941c38218a271b0d" target="_top" xlink:title="commands.BaseCommand.set\lRequiredInformation">
<polygon fill="white" stroke="black" points="706,-58 706,-88 872,-88 872,-58 706,-58"/>
<text text-anchor="start" x="714" y="-76" font-family="Helvetica,sans-Serif" font-size="10.00">commands.BaseCommand.set</text>
<text text-anchor="middle" x="789" y="-65" font-family="Helvetica,sans-Serif" font-size="10.00">RequiredInformation</text>
</a>
</g>
</g>
<!-- Node2&#45;&gt;Node9 -->
<g id="edge8" class="edge"><title>Node2&#45;&gt;Node9</title>
<path fill="none" stroke="midnightblue" d="M578.274,-182.928C599.34,-173.964 624.552,-161.169 644,-145 664.505,-127.952 657.592,-111.457 680,-97 685.066,-93.7313 690.514,-90.9033 696.174,-88.4572"/>
<polygon fill="midnightblue" stroke="midnightblue" points="697.814,-91.5747 705.868,-84.6905 695.279,-85.0498 697.814,-91.5747"/>
</g>
<!-- Node4 -->
<g id="node4" class="node"><title>Node4</title>
<g id="a_node4"><a xlink:href="../../d4/d05/classcommands_1_1information_1_1_base_user_defined_container.html#a2c1da98631c577bddaaa7f4ad5ae8aaa" target="_top" xlink:title="commands.information.Base\lUserDefinedContainer.getAllCustom\lCommands">
<polygon fill="white" stroke="black" points="934.5,-312.5 934.5,-353.5 1123.5,-353.5 1123.5,-312.5 934.5,-312.5"/>
<text text-anchor="start" x="942.5" y="-341.5" font-family="Helvetica,sans-Serif" font-size="10.00">commands.information.Base</text>
<text text-anchor="start" x="942.5" y="-330.5" font-family="Helvetica,sans-Serif" font-size="10.00">UserDefinedContainer.getAllCustom</text>
<text text-anchor="middle" x="1029" y="-319.5" font-family="Helvetica,sans-Serif" font-size="10.00">Commands</text>
</a>
</g>
</g>
<!-- Node3&#45;&gt;Node4 -->
<g id="edge3" class="edge"><title>Node3&#45;&gt;Node4</title>
<path fill="none" stroke="midnightblue" d="M890.588,-333C901.662,-333 912.953,-333 924.065,-333"/>
<polygon fill="midnightblue" stroke="midnightblue" points="924.21,-336.5 934.21,-333 924.21,-329.5 924.21,-336.5"/>
</g>
<!-- Node11&#45;&gt;Node2 -->
<g id="edge11" class="edge"><title>Node11&#45;&gt;Node2</title>
<path fill="none" stroke="midnightblue" d="M360.235,-139.023C370.869,-141.854 381.787,-144.903 392,-148 423.27,-157.483 457.869,-169.539 485.202,-179.436"/>
<polygon fill="midnightblue" stroke="midnightblue" points="484.329,-182.843 494.923,-182.975 486.724,-176.265 484.329,-182.843"/>
</g>
<!-- Node13 -->
<g id="node13" class="node"><title>Node13</title>
<g id="a_node13"><a xlink:href="../../da/d90/classcommands_1_1_base_command.html#a648d67ef5324973db4c43d78d98ec837" target="_top" xlink:title="commands.BaseCommand.find\lIndexOfInnerListCommandEnd">
<polygon fill="white" stroke="black" points="452,-106 452,-136 620,-136 620,-106 452,-106"/>
<text text-anchor="start" x="460" y="-124" font-family="Helvetica,sans-Serif" font-size="10.00">commands.BaseCommand.find</text>
<text text-anchor="middle" x="536" y="-113" font-family="Helvetica,sans-Serif" font-size="10.00">IndexOfInnerListCommandEnd</text>
</a>
</g>
</g>
<!-- Node12&#45;&gt;Node13 -->
<g id="edge13" class="edge"><title>Node12&#45;&gt;Node13</title>
<path fill="none" stroke="midnightblue" d="M376.275,-90.0621C399.212,-94.5329 424.489,-99.4597 447.999,-104.042"/>
<polygon fill="midnightblue" stroke="midnightblue" points="447.469,-107.505 457.954,-105.983 448.809,-100.634 447.469,-107.505"/>
</g>
<!-- Node14 -->
<g id="node14" class="node"><title>Node14</title>
<g id="a_node14"><a xlink:href="../../da/d90/classcommands_1_1_base_command.html#a74b2695b6b57512dca66f288feb02aee" target="_top" xlink:title="commands.BaseCommand.starts\lWithCommandStartIndicator">
<polygon fill="white" stroke="black" points="446.5,-57 446.5,-87 625.5,-87 625.5,-57 446.5,-57"/>
<text text-anchor="start" x="454.5" y="-75" font-family="Helvetica,sans-Serif" font-size="10.00">commands.BaseCommand.starts</text>
<text text-anchor="middle" x="536" y="-64" font-family="Helvetica,sans-Serif" font-size="10.00">WithCommandStartIndicator</text>
</a>
</g>
</g>
<!-- Node12&#45;&gt;Node14 -->
<g id="edge14" class="edge"><title>Node12&#45;&gt;Node14</title>
<path fill="none" stroke="midnightblue" d="M383.202,-73.9296C400.354,-73.7116 418.546,-73.4803 436.154,-73.2565"/>
<polygon fill="midnightblue" stroke="midnightblue" points="436.486,-76.7527 446.441,-73.1257 436.397,-69.7532 436.486,-76.7527"/>
</g>
<!-- Node16 -->
<g id="node16" class="node"><title>Node16</title>
<g id="a_node16"><a xlink:href="../../d9/d20/classcommands_1_1turtle_commands_1_1_multiple_turtle_command.html#aee2688a7e7db9c8e40a8d4e12960a405" target="_top" xlink:title="commands.turtleCommands.\lMultipleTurtleCommand.isEven">
<polygon fill="white" stroke="black" points="454.5,-6 454.5,-36 617.5,-36 617.5,-6 454.5,-6"/>
<text text-anchor="start" x="462.5" y="-24" font-family="Helvetica,sans-Serif" font-size="10.00">commands.turtleCommands.</text>
<text text-anchor="middle" x="536" y="-13" font-family="Helvetica,sans-Serif" font-size="10.00">MultipleTurtleCommand.isEven</text>
</a>
</g>
</g>
<!-- Node15&#45;&gt;Node16 -->
<g id="edge16" class="edge"><title>Node15&#45;&gt;Node16</title>
<path fill="none" stroke="midnightblue" d="M391.596,-21C408.868,-21 426.902,-21 444.121,-21"/>
<polygon fill="midnightblue" stroke="midnightblue" points="444.154,-24.5001 454.154,-21 444.154,-17.5001 444.154,-24.5001"/>
</g>
</g>
</svg>
