<?xml version="1.0" encoding="UTF-8" standalone="no"?>
<!DOCTYPE svg PUBLIC "-//W3C//DTD SVG 1.1//EN"
 "http://www.w3.org/Graphics/SVG/1.1/DTD/svg11.dtd">
<!-- Generated by graphviz version 2.36.0 (20140111.2315)
 -->
<!-- Title: commands.variableCommands.GetVariableCommand.onExecute Pages: 1 -->
<!--zoomable 175 -->
<svg id="main" version="1.1" xmlns="http://www.w3.org/2000/svg" xmlns:xlink="http://www.w3.org/1999/xlink" xml:space="preserve" onload="init(evt)">
<style type="text/css"><![CDATA[
.edge:hover path { stroke: red; }
.edge:hover polygon { stroke: red; fill: red; }
]]></style>
<script type="text/javascript"><![CDATA[
var edges = document.getElementsByTagName('g');
if (edges && edges.length) {
  for (var i=0;i<edges.length;i++) {
    if (edges[i].id.substr(0,4)=='edge') {
      edges[i].setAttribute('class','edge');
    }
  }
}
]]></script>
        <defs>
                <circle id="rim" cx="0" cy="0" r="7"/>
                <circle id="rim2" cx="0" cy="0" r="3.5"/>
                <g id="zoomPlus">
                        <use xlink:href="#rim" fill="#404040">
                                <set attributeName="fill" to="#808080" begin="zoomplus.mouseover" end="zoomplus.mouseout"/>
                        </use>
                        <path d="M-4,0h8M0,-4v8" fill="none" stroke="white" stroke-width="1.5" pointer-events="none"/>
                </g>
                <g id="zoomMin">
                        <use xlink:href="#rim" fill="#404040">
                                <set attributeName="fill" to="#808080" begin="zoomminus.mouseover" end="zoomminus.mouseout"/>
                        </use>
                        <path d="M-4,0h8" fill="none" stroke="white" stroke-width="1.5" pointer-events="none"/>
                </g>
                <g id="dirArrow">
                        <path fill="none" stroke="white" stroke-width="1.5" d="M0,-3.0v7 M-2.5,-0.5L0,-3.0L2.5,-0.5"/>
                </g>
               <g id="resetDef">
                       <use xlink:href="#rim2" fill="#404040">
                               <set attributeName="fill" to="#808080" begin="reset.mouseover" end="reset.mouseout"/>
                       </use>
               </g>
        </defs>

<script type="text/javascript">
var viewWidth = 668;
var viewHeight = 175;
var sectionId = 'dynsection-2';
</script>
<script xlink:href="../../svgpan.js"/>
<svg id="graph" class="graph">
<g id="viewport">
<title>commands.variableCommands.GetVariableCommand.onExecute</title>
<polygon fill="white" stroke="none" points="-4,4 -4,-171 664,-171 664,4 -4,4"/>
<!-- Node1 -->
<g id="node1" class="node"><title>Node1</title>
<polygon fill="#bfbfbf" stroke="black" points="0,-49 0,-79 176,-79 176,-49 0,-49"/>
<text text-anchor="start" x="8" y="-67" font-family="Helvetica,sans-Serif" font-size="10.00">commands.variableCommands.</text>
<text text-anchor="middle" x="88" y="-56" font-family="Helvetica,sans-Serif" font-size="10.00">GetVariableCommand.onExecute</text>
</g>
<!-- Node2 -->
<g id="node2" class="node"><title>Node2</title>
<g id="a_node2"><a xlink:href="../../da/d90/classcommands_1_1_base_command.html#a68a349a085c4b05af0a55943da86598b" target="_top" xlink:title="commands.BaseCommand.execute">
<polygon fill="white" stroke="black" points="222.5,-98.5 222.5,-117.5 411.5,-117.5 411.5,-98.5 222.5,-98.5"/>
<text text-anchor="middle" x="317" y="-105.5" font-family="Helvetica,sans-Serif" font-size="10.00">commands.BaseCommand.execute</text>
</a>
</g>
</g>
<!-- Node1&#45;&gt;Node2 -->
<g id="edge1" class="edge"><title>Node1&#45;&gt;Node2</title>
<path fill="none" stroke="midnightblue" d="M165.761,-79.0111C181.077,-81.9967 197.048,-85.1036 212,-88 226.373,-90.7843 241.866,-93.7714 256.392,-96.5658"/>
<polygon fill="midnightblue" stroke="midnightblue" points="255.788,-100.014 266.269,-98.4647 257.109,-93.1395 255.788,-100.014"/>
</g>
<!-- Node6 -->
<g id="node6" class="node"><title>Node6</title>
<g id="a_node6"><a xlink:href="../../d4/d05/classcommands_1_1information_1_1_base_user_defined_container.html#a6cae0ee70f94ed6534205d1d620ec815" target="_top" xlink:title="commands.information.Base\lUserDefinedContainer.getValue">
<polygon fill="white" stroke="black" points="233.5,-49 233.5,-79 400.5,-79 400.5,-49 233.5,-49"/>
<text text-anchor="start" x="241.5" y="-67" font-family="Helvetica,sans-Serif" font-size="10.00">commands.information.Base</text>
<text text-anchor="middle" x="317" y="-56" font-family="Helvetica,sans-Serif" font-size="10.00">UserDefinedContainer.getValue</text>
</a>
</g>
</g>
<!-- Node1&#45;&gt;Node6 -->
<g id="edge6" class="edge"><title>Node1&#45;&gt;Node6</title>
<path fill="none" stroke="midnightblue" d="M176.115,-64C191.499,-64 207.569,-64 223.105,-64"/>
<polygon fill="midnightblue" stroke="midnightblue" points="223.225,-67.5001 233.225,-64 223.225,-60.5001 223.225,-67.5001"/>
</g>
<!-- Node7 -->
<g id="node7" class="node"><title>Node7</title>
<g id="a_node7"><a xlink:href="../../d2/d4f/classcommands_1_1variable_commands_1_1_variable_command.html#ae837bcbd49f0ccbd6fa5a46c15c181ab" target="_top" xlink:title="commands.variableCommands.\lVariableCommand.getVariableContainer">
<polygon fill="white" stroke="black" points="212.5,-0 212.5,-30 421.5,-30 421.5,-0 212.5,-0"/>
<text text-anchor="start" x="220.5" y="-18" font-family="Helvetica,sans-Serif" font-size="10.00">commands.variableCommands.</text>
<text text-anchor="middle" x="317" y="-7" font-family="Helvetica,sans-Serif" font-size="10.00">VariableCommand.getVariableContainer</text>
</a>
</g>
</g>
<!-- Node1&#45;&gt;Node7 -->
<g id="edge7" class="edge"><title>Node1&#45;&gt;Node7</title>
<path fill="none" stroke="midnightblue" d="M158.65,-48.9654C183.272,-43.6506 211.147,-37.6335 236.522,-32.156"/>
<polygon fill="midnightblue" stroke="midnightblue" points="237.445,-35.5375 246.482,-30.0062 235.968,-28.6951 237.445,-35.5375"/>
</g>
<!-- Node2&#45;&gt;Node2 -->
<g id="edge2" class="edge"><title>Node2&#45;&gt;Node2</title>
<path fill="none" stroke="midnightblue" d="M282.143,-117.612C264.635,-126.461 276.254,-136 317,-136 347.56,-136 361.735,-130.634 359.527,-124.218"/>
<polygon fill="midnightblue" stroke="midnightblue" points="361.718,-121.486 351.857,-117.612 357.15,-126.79 361.718,-121.486"/>
</g>
<!-- Node3 -->
<g id="node3" class="node"><title>Node3</title>
<g id="a_node3"><a xlink:href="../../da/d90/classcommands_1_1_base_command.html#a90abff4a812d84d0454cb095e03c6e08" target="_top" xlink:title="commands.BaseCommand.get\lNextCommand">
<polygon fill="white" stroke="black" points="475.5,-137 475.5,-167 642.5,-167 642.5,-137 475.5,-137"/>
<text text-anchor="start" x="483.5" y="-155" font-family="Helvetica,sans-Serif" font-size="10.00">commands.BaseCommand.get</text>
<text text-anchor="middle" x="559" y="-144" font-family="Helvetica,sans-Serif" font-size="10.00">NextCommand</text>
</a>
</g>
</g>
<!-- Node2&#45;&gt;Node3 -->
<g id="edge3" class="edge"><title>Node2&#45;&gt;Node3</title>
<path fill="none" stroke="midnightblue" d="M370.076,-117.547C398.063,-122.678 433.398,-129.156 465.856,-135.107"/>
<polygon fill="midnightblue" stroke="midnightblue" points="465.358,-138.574 475.825,-136.935 466.62,-131.689 465.358,-138.574"/>
</g>
<!-- Node4 -->
<g id="node4" class="node"><title>Node4</title>
<g id="a_node4"><a xlink:href="../../da/d90/classcommands_1_1_base_command.html#aad4544c0bd9d40769d8997e4d6d97b08" target="_top" xlink:title="commands.BaseCommand.onExecute">
<polygon fill="white" stroke="black" points="458.5,-98.5 458.5,-117.5 659.5,-117.5 659.5,-98.5 458.5,-98.5"/>
<text text-anchor="middle" x="559" y="-105.5" font-family="Helvetica,sans-Serif" font-size="10.00">commands.BaseCommand.onExecute</text>
</a>
</g>
</g>
<!-- Node2&#45;&gt;Node4 -->
<g id="edge4" class="edge"><title>Node2&#45;&gt;Node4</title>
<path fill="none" stroke="midnightblue" d="M411.821,-108C423.736,-108 436.012,-108 448.149,-108"/>
<polygon fill="midnightblue" stroke="midnightblue" points="448.301,-111.5 458.301,-108 448.301,-104.5 448.301,-111.5"/>
</g>
<!-- Node5 -->
<g id="node5" class="node"><title>Node5</title>
<g id="a_node5"><a xlink:href="../../da/d90/classcommands_1_1_base_command.html#a37ff254bd611b07ea38aaaf85447a2c3" target="_top" xlink:title="commands.BaseCommand.reset">
<polygon fill="white" stroke="black" points="471,-60.5 471,-79.5 647,-79.5 647,-60.5 471,-60.5"/>
<text text-anchor="middle" x="559" y="-67.5" font-family="Helvetica,sans-Serif" font-size="10.00">commands.BaseCommand.reset</text>
</a>
</g>
</g>
<!-- Node2&#45;&gt;Node5 -->
<g id="edge5" class="edge"><title>Node2&#45;&gt;Node5</title>
<path fill="none" stroke="midnightblue" d="M378.252,-98.46C411.49,-93.1975 452.937,-86.6349 487.653,-81.1382"/>
<polygon fill="midnightblue" stroke="midnightblue" points="488.393,-84.5648 497.723,-79.5439 487.299,-77.6509 488.393,-84.5648"/>
</g>
</g>
</svg>
        <g id="navigator" transform="translate(0 0)" fill="#404254">
                <rect fill="#f2f5e9" fill-opacity="0.5" stroke="#606060" stroke-width=".5" x="0" y="0" width="60" height="60"/>
                <use id="zoomplus" xlink:href="#zoomPlus" x="17" y="9" onmousedown="handleZoom(evt,'in')"/>
                <use id="zoomminus" xlink:href="#zoomMin" x="42" y="9" onmousedown="handleZoom(evt,'out')"/>
                <use id="reset" xlink:href="#resetDef" x="30" y="36" onmousedown="handleReset()"/>
                <g id="arrowUp" xlink:href="#dirArrow" transform="translate(30 24)" onmousedown="handlePan(0,-1)">
                  <use xlink:href="#rim" fill="#404040">
                        <set attributeName="fill" to="#808080" begin="arrowUp.mouseover" end="arrowUp.mouseout"/>
                  </use>
                  <path fill="none" stroke="white" stroke-width="1.5" d="M0,-3.0v7 M-2.5,-0.5L0,-3.0L2.5,-0.5"/>
                </g>
                <g id="arrowRight" xlink:href="#dirArrow" transform="rotate(90) translate(36 -43)" onmousedown="handlePan(1,0)">
                  <use xlink:href="#rim" fill="#404040">
                        <set attributeName="fill" to="#808080" begin="arrowRight.mouseover" end="arrowRight.mouseout"/>
                  </use>
                  <path fill="none" stroke="white" stroke-width="1.5" d="M0,-3.0v7 M-2.5,-0.5L0,-3.0L2.5,-0.5"/>
                </g>
                <g id="arrowDown" xlink:href="#dirArrow" transform="rotate(180) translate(-30 -48)" onmousedown="handlePan(0,1)">
                  <use xlink:href="#rim" fill="#404040">
                        <set attributeName="fill" to="#808080" begin="arrowDown.mouseover" end="arrowDown.mouseout"/>
                  </use>
                  <path fill="none" stroke="white" stroke-width="1.5" d="M0,-3.0v7 M-2.5,-0.5L0,-3.0L2.5,-0.5"/>
                </g>
                <g id="arrowLeft" xlink:href="#dirArrow" transform="rotate(270) translate(-36 17)" onmousedown="handlePan(-1,0)">
                  <use xlink:href="#rim" fill="#404040">
                        <set attributeName="fill" to="#808080" begin="arrowLeft.mouseover" end="arrowLeft.mouseout"/>
                  </use>
                  <path fill="none" stroke="white" stroke-width="1.5" d="M0,-3.0v7 M-2.5,-0.5L0,-3.0L2.5,-0.5"/>
                </g>
        </g>
        <svg viewBox="0 0 15 15" width="100%" height="30px" preserveAspectRatio="xMaxYMin meet">
         <g id="arrow_out" transform="scale(0.3 0.3)">
          <a xlink:href="classcommands_1_1variable_commands_1_1_get_variable_command_a6fe36e621063ea7214105357562a0173_cgraph_org.svg" target="_base">
           <rect id="button" ry="5" rx="5" y="6" x="6" height="38" width="38"
                fill="#f2f5e9" fill-opacity="0.5" stroke="#606060" stroke-width="1.0"/>
           <path id="arrow"
             d="M 11.500037,31.436501 C 11.940474,20.09759 22.043105,11.32322 32.158766,21.979434 L 37.068811,17.246167 C 37.068811,17.246167 37.088388,32 37.088388,32 L 22.160133,31.978069 C 22.160133,31.978069 26.997745,27.140456 26.997745,27.140456 C 18.528582,18.264221 13.291696,25.230495 11.500037,31.436501 z"
             style="fill:#404040;"/>
          </a>
         </g>
        </svg>
</svg>
