<?xml version="1.0" encoding="UTF-8" standalone="no"?>
<!DOCTYPE svg PUBLIC "-//W3C//DTD SVG 1.1//EN"
 "http://www.w3.org/Graphics/SVG/1.1/DTD/svg11.dtd">
<!-- Generated by graphviz version 2.36.0 (20140111.2315)
 -->
<!-- Title: GUIFunctions.GUIFunction Pages: 1 -->
<!--zoomable 470 -->
<svg id="main" version="1.1" xmlns="http://www.w3.org/2000/svg" xmlns:xlink="http://www.w3.org/1999/xlink" xml:space="preserve" onload="init(evt)">
<style type="text/css"><![CDATA[
.edge:hover path { stroke: red; }
.edge:hover polygon { stroke: red; fill: red; }
]]></style>
<script type="text/javascript"><![CDATA[
var edges = document.getElementsByTagName('g');
if (edges && edges.length) {
  for (var i=0;i<edges.length;i++) {
    if (edges[i].id.substr(0,4)=='edge') {
      edges[i].setAttribute('class','edge');
    }
  }
}
]]></script>
        <defs>
                <circle id="rim" cx="0" cy="0" r="7"/>
                <circle id="rim2" cx="0" cy="0" r="3.5"/>
                <g id="zoomPlus">
                        <use xlink:href="#rim" fill="#404040">
                                <set attributeName="fill" to="#808080" begin="zoomplus.mouseover" end="zoomplus.mouseout"/>
                        </use>
                        <path d="M-4,0h8M0,-4v8" fill="none" stroke="white" stroke-width="1.5" pointer-events="none"/>
                </g>
                <g id="zoomMin">
                        <use xlink:href="#rim" fill="#404040">
                                <set attributeName="fill" to="#808080" begin="zoomminus.mouseover" end="zoomminus.mouseout"/>
                        </use>
                        <path d="M-4,0h8" fill="none" stroke="white" stroke-width="1.5" pointer-events="none"/>
                </g>
                <g id="dirArrow">
                        <path fill="none" stroke="white" stroke-width="1.5" d="M0,-3.0v7 M-2.5,-0.5L0,-3.0L2.5,-0.5"/>
                </g>
               <g id="resetDef">
                       <use xlink:href="#rim2" fill="#404040">
                               <set attributeName="fill" to="#808080" begin="reset.mouseover" end="reset.mouseout"/>
                       </use>
               </g>
        </defs>

<script type="text/javascript">
var viewWidth = 740;
var viewHeight = 470;
var sectionId = 'dynsection-0';
</script>
<script xlink:href="../../svgpan.js"/>
<svg id="graph" class="graph">
<g id="viewport">
<title>GUIFunctions.GUIFunction</title>
<polygon fill="white" stroke="none" points="-4,4 -4,-466 736,-466 736,4 -4,4"/>
<!-- Node1 -->
<g id="node1" class="node"><title>Node1</title>
<polygon fill="#bfbfbf" stroke="black" points="0.5,-135.5 0.5,-154.5 139.5,-154.5 139.5,-135.5 0.5,-135.5"/>
<text text-anchor="middle" x="70" y="-142.5" font-family="Helvetica,sans-Serif" font-size="10.00">GUIFunctions.GUIFunction</text>
</g>
<!-- Node2 -->
<g id="node2" class="node"><title>Node2</title>
<g id="a_node2"><a xlink:href="../../de/d3e/class_g_u_i_functions_1_1_add.html" target="_top" xlink:title="GUIFunctions.Add">
<polygon fill="white" stroke="black" points="203.5,-287.5 203.5,-306.5 304.5,-306.5 304.5,-287.5 203.5,-287.5"/>
<text text-anchor="middle" x="254" y="-294.5" font-family="Helvetica,sans-Serif" font-size="10.00">GUIFunctions.Add</text>
</a>
</g>
</g>
<!-- Node1&#45;&gt;Node2 -->
<g id="edge1" class="edge"><title>Node1&#45;&gt;Node2</title>
<path fill="none" stroke="midnightblue" d="M90.1443,-160.989C127.968,-192.577 211.238,-262.122 241.619,-287.495"/>
<polygon fill="midnightblue" stroke="midnightblue" points="92.3038,-158.232 82.3849,-154.508 87.8167,-163.605 92.3038,-158.232"/>
</g>
<!-- Node4 -->
<g id="node4" class="node"><title>Node4</title>
<g id="a_node4"><a xlink:href="../../d0/dec/class_g_u_i_functions_1_1_ask_for_initial_file.html" target="_top" xlink:title="GUIFunctions.AskForInitialFile">
<polygon fill="white" stroke="black" points="177,-173.5 177,-192.5 331,-192.5 331,-173.5 177,-173.5"/>
<text text-anchor="middle" x="254" y="-180.5" font-family="Helvetica,sans-Serif" font-size="10.00">GUIFunctions.AskForInitialFile</text>
</a>
</g>
</g>
<!-- Node1&#45;&gt;Node4 -->
<g id="edge3" class="edge"><title>Node1&#45;&gt;Node4</title>
<path fill="none" stroke="midnightblue" d="M126.946,-156.681C152.756,-162.07 183.007,-168.386 207.404,-173.48"/>
<polygon fill="midnightblue" stroke="midnightblue" points="127.431,-153.207 116.926,-154.589 126,-160.059 127.431,-153.207"/>
</g>
<!-- Node5 -->
<g id="node5" class="node"><title>Node5</title>
<g id="a_node5"><a xlink:href="../../de/dbd/class_g_u_i_functions_1_1_grid_function.html" target="_top" xlink:title="GUIFunctions.GridFunction">
<polygon fill="white" stroke="black" points="183.5,-135.5 183.5,-154.5 324.5,-154.5 324.5,-135.5 183.5,-135.5"/>
<text text-anchor="middle" x="254" y="-142.5" font-family="Helvetica,sans-Serif" font-size="10.00">GUIFunctions.GridFunction</text>
</a>
</g>
</g>
<!-- Node1&#45;&gt;Node5 -->
<g id="edge4" class="edge"><title>Node1&#45;&gt;Node5</title>
<path fill="none" stroke="midnightblue" d="M149.718,-145C160.892,-145 172.317,-145 183.304,-145"/>
<polygon fill="midnightblue" stroke="midnightblue" points="149.547,-141.5 139.547,-145 149.547,-148.5 149.547,-141.5"/>
</g>
<!-- Node24 -->
<g id="node24" class="node"><title>Node24</title>
<g id="a_node24"><a xlink:href="../../d7/d53/class_g_u_i_functions_1_1_help_page.html" target="_top" xlink:title="GUIFunctions.HelpPage">
<polygon fill="white" stroke="black" points="190.5,-97.5 190.5,-116.5 317.5,-116.5 317.5,-97.5 190.5,-97.5"/>
<text text-anchor="middle" x="254" y="-104.5" font-family="Helvetica,sans-Serif" font-size="10.00">GUIFunctions.HelpPage</text>
</a>
</g>
</g>
<!-- Node1&#45;&gt;Node24 -->
<g id="edge23" class="edge"><title>Node1&#45;&gt;Node24</title>
<path fill="none" stroke="midnightblue" d="M126.946,-133.319C152.756,-127.93 183.007,-121.614 207.404,-116.52"/>
<polygon fill="midnightblue" stroke="midnightblue" points="126,-129.941 116.926,-135.411 127.431,-136.793 126,-129.941"/>
</g>
<!-- Node25 -->
<g id="node25" class="node"><title>Node25</title>
<g id="a_node25"><a xlink:href="../../d5/da9/class_g_u_i_functions_1_1_language_menu.html" target="_top" xlink:title="GUIFunctions.LanguageMenu">
<polygon fill="white" stroke="black" points="176.5,-40.5 176.5,-59.5 331.5,-59.5 331.5,-40.5 176.5,-40.5"/>
<text text-anchor="middle" x="254" y="-47.5" font-family="Helvetica,sans-Serif" font-size="10.00">GUIFunctions.LanguageMenu</text>
</a>
</g>
</g>
<!-- Node1&#45;&gt;Node25 -->
<g id="edge24" class="edge"><title>Node1&#45;&gt;Node25</title>
<path fill="none" stroke="midnightblue" d="M97.3638,-130.319C118.508,-118.635 149.007,-101.98 176,-88 195.194,-78.0588 217.348,-67.1881 232.95,-59.6302"/>
<polygon fill="midnightblue" stroke="midnightblue" points="95.4047,-127.403 88.3532,-135.311 98.7968,-133.527 95.4047,-127.403"/>
</g>
<!-- Node3 -->
<g id="node3" class="node"><title>Node3</title>
<g id="a_node3"><a xlink:href="../../da/d9b/class_g_u_i_functions_1_1_add_turtle.html" target="_top" xlink:title="GUIFunctions.AddTurtle">
<polygon fill="white" stroke="black" points="387,-347.5 387,-366.5 513,-366.5 513,-347.5 387,-347.5"/>
<text text-anchor="middle" x="450" y="-354.5" font-family="Helvetica,sans-Serif" font-size="10.00">GUIFunctions.AddTurtle</text>
</a>
</g>
</g>
<!-- Node2&#45;&gt;Node3 -->
<g id="edge2" class="edge"><title>Node2&#45;&gt;Node3</title>
<path fill="none" stroke="midnightblue" d="M288.332,-310.265C310.654,-318.857 340.818,-329.911 368,-338 379.629,-341.461 392.348,-344.696 404.188,-347.481"/>
<polygon fill="midnightblue" stroke="midnightblue" points="289.561,-306.988 278.973,-306.63 287.027,-313.513 289.561,-306.988"/>
</g>
<!-- Node6 -->
<g id="node6" class="node"><title>Node6</title>
<g id="a_node6"><a xlink:href="../../d3/dc6/class_g_u_i_functions_1_1_bottom_functions.html" target="_top" xlink:title="GUIFunctions.BottomFunctions">
<polygon fill="white" stroke="black" points="368.5,-309.5 368.5,-328.5 531.5,-328.5 531.5,-309.5 368.5,-309.5"/>
<text text-anchor="middle" x="450" y="-316.5" font-family="Helvetica,sans-Serif" font-size="10.00">GUIFunctions.BottomFunctions</text>
</a>
</g>
</g>
<!-- Node5&#45;&gt;Node6 -->
<g id="edge5" class="edge"><title>Node5&#45;&gt;Node6</title>
<path fill="none" stroke="midnightblue" d="M323.492,-158.768C326.465,-160.33 329.32,-162.067 332,-164 356.304,-181.524 350.42,-196.737 368,-221 392.477,-254.783 424.962,-292.099 440.289,-309.318"/>
<polygon fill="midnightblue" stroke="midnightblue" points="324.83,-155.532 314.277,-154.591 321.94,-161.908 324.83,-155.532"/>
</g>
<!-- Node13 -->
<g id="node13" class="node"><title>Node13</title>
<g id="a_node13"><a xlink:href="../../d4/df9/class_g_u_i_functions_1_1_color_function.html" target="_top" xlink:title="GUIFunctions.ColorFunction">
<polygon fill="white" stroke="black" points="377,-192.5 377,-211.5 523,-211.5 523,-192.5 377,-192.5"/>
<text text-anchor="middle" x="450" y="-199.5" font-family="Helvetica,sans-Serif" font-size="10.00">GUIFunctions.ColorFunction</text>
</a>
</g>
</g>
<!-- Node5&#45;&gt;Node13 -->
<g id="edge12" class="edge"><title>Node5&#45;&gt;Node13</title>
<path fill="none" stroke="midnightblue" d="M311.676,-157.304C318.601,-159.298 325.516,-161.531 332,-164 348.908,-170.437 351.055,-176.66 368,-183 377.876,-186.695 388.706,-189.827 399.142,-192.418"/>
<polygon fill="midnightblue" stroke="midnightblue" points="312.14,-153.803 301.572,-154.553 310.301,-160.557 312.14,-153.803"/>
</g>
<!-- Node16 -->
<g id="node16" class="node"><title>Node16</title>
<g id="a_node16"><a xlink:href="../../d5/dfa/class_g_u_i_functions_1_1_pen_thickness.html" target="_top" xlink:title="GUIFunctions.PenThickness">
<polygon fill="white" stroke="black" points="377,-154.5 377,-173.5 523,-173.5 523,-154.5 377,-154.5"/>
<text text-anchor="middle" x="450" y="-161.5" font-family="Helvetica,sans-Serif" font-size="10.00">GUIFunctions.PenThickness</text>
</a>
</g>
</g>
<!-- Node5&#45;&gt;Node16 -->
<g id="edge15" class="edge"><title>Node5&#45;&gt;Node16</title>
<path fill="none" stroke="midnightblue" d="M334.815,-152.817C348.759,-154.183 363.194,-155.596 376.915,-156.94"/>
<polygon fill="midnightblue" stroke="midnightblue" points="335.058,-149.324 324.764,-151.833 334.376,-156.291 335.058,-149.324"/>
</g>
<!-- Node17 -->
<g id="node17" class="node"><title>Node17</title>
<g id="a_node17"><a xlink:href="../../da/dc9/class_g_u_i_functions_1_1_personalize_menu.html" target="_top" xlink:title="GUIFunctions.PersonalizeMenu">
<polygon fill="white" stroke="black" points="368.5,-116.5 368.5,-135.5 531.5,-135.5 531.5,-116.5 368.5,-116.5"/>
<text text-anchor="middle" x="450" y="-123.5" font-family="Helvetica,sans-Serif" font-size="10.00">GUIFunctions.PersonalizeMenu</text>
</a>
</g>
</g>
<!-- Node5&#45;&gt;Node17 -->
<g id="edge16" class="edge"><title>Node5&#45;&gt;Node17</title>
<path fill="none" stroke="midnightblue" d="M334.815,-137.183C345.871,-136.1 357.235,-134.987 368.308,-133.903"/>
<polygon fill="midnightblue" stroke="midnightblue" points="334.376,-133.709 324.764,-138.167 335.058,-140.676 334.376,-133.709"/>
</g>
<!-- Node21 -->
<g id="node21" class="node"><title>Node21</title>
<g id="a_node21"><a xlink:href="../../d7/d63/class_view_1_1_pen_menu.html" target="_top" xlink:title="View.PenMenu">
<polygon fill="white" stroke="black" points="407.5,-78.5 407.5,-97.5 492.5,-97.5 492.5,-78.5 407.5,-78.5"/>
<text text-anchor="middle" x="450" y="-85.5" font-family="Helvetica,sans-Serif" font-size="10.00">View.PenMenu</text>
</a>
</g>
</g>
<!-- Node5&#45;&gt;Node21 -->
<g id="edge20" class="edge"><title>Node5&#45;&gt;Node21</title>
<path fill="none" stroke="midnightblue" d="M311.676,-132.696C318.601,-130.702 325.516,-128.469 332,-126 348.908,-119.563 351.055,-113.34 368,-107 380.446,-102.343 394.408,-98.58 407.188,-95.669"/>
<polygon fill="midnightblue" stroke="midnightblue" points="310.301,-129.443 301.572,-135.447 312.14,-136.197 310.301,-129.443"/>
</g>
<!-- Node23 -->
<g id="node23" class="node"><title>Node23</title>
<g id="a_node23"><a xlink:href="../../db/dd1/class_view_1_1_set_palette.html" target="_top" xlink:title="View.SetPalette">
<polygon fill="white" stroke="black" points="405,-40.5 405,-59.5 495,-59.5 495,-40.5 405,-40.5"/>
<text text-anchor="middle" x="450" y="-47.5" font-family="Helvetica,sans-Serif" font-size="10.00">View.SetPalette</text>
</a>
</g>
</g>
<!-- Node5&#45;&gt;Node23 -->
<g id="edge22" class="edge"><title>Node5&#45;&gt;Node23</title>
<path fill="none" stroke="midnightblue" d="M323.492,-131.232C326.465,-129.67 329.32,-127.933 332,-126 356.304,-108.476 343.595,-86.3837 368,-69 378.706,-61.3741 392.036,-56.7689 404.771,-54.0005"/>
<polygon fill="midnightblue" stroke="midnightblue" points="321.94,-128.092 314.277,-135.409 324.83,-134.468 321.94,-128.092"/>
</g>
<!-- Node7 -->
<g id="node7" class="node"><title>Node7</title>
<g id="a_node7"><a xlink:href="../../d6/d9d/class_g_u_i_functions_1_1_clear_function.html" target="_top" xlink:title="GUIFunctions.ClearFunction">
<polygon fill="white" stroke="black" points="577,-442.5 577,-461.5 723,-461.5 723,-442.5 577,-442.5"/>
<text text-anchor="middle" x="650" y="-449.5" font-family="Helvetica,sans-Serif" font-size="10.00">GUIFunctions.ClearFunction</text>
</a>
</g>
</g>
<!-- Node6&#45;&gt;Node7 -->
<g id="edge6" class="edge"><title>Node6&#45;&gt;Node7</title>
<path fill="none" stroke="midnightblue" d="M526.417,-333.71C528.367,-335.026 530.235,-336.453 532,-338 565.961,-367.755 534.039,-403.245 568,-433 572.346,-436.807 577.311,-439.889 582.596,-442.378"/>
<polygon fill="midnightblue" stroke="midnightblue" points="527.833,-330.49 517.404,-328.622 524.391,-336.586 527.833,-330.49"/>
</g>
<!-- Node8 -->
<g id="node8" class="node"><title>Node8</title>
<g id="a_node8"><a xlink:href="../../db/d29/class_g_u_i_functions_1_1_clear_stamps.html" target="_top" xlink:title="GUIFunctions.ClearStamps">
<polygon fill="white" stroke="black" points="578,-404.5 578,-423.5 722,-423.5 722,-404.5 578,-404.5"/>
<text text-anchor="middle" x="650" y="-411.5" font-family="Helvetica,sans-Serif" font-size="10.00">GUIFunctions.ClearStamps</text>
</a>
</g>
</g>
<!-- Node6&#45;&gt;Node8 -->
<g id="edge7" class="edge"><title>Node6&#45;&gt;Node8</title>
<path fill="none" stroke="midnightblue" d="M523.431,-332.777C526.421,-334.338 529.294,-336.073 532,-338 556.405,-355.384 543.595,-377.616 568,-395 573.412,-398.855 579.494,-401.938 585.831,-404.402"/>
<polygon fill="midnightblue" stroke="midnightblue" points="524.724,-329.521 514.169,-328.598 521.845,-335.901 524.724,-329.521"/>
</g>
<!-- Node9 -->
<g id="node9" class="node"><title>Node9</title>
<g id="a_node9"><a xlink:href="../../d2/dd2/class_g_u_i_functions_1_1_set_pen_down.html" target="_top" xlink:title="GUIFunctions.SetPenDown">
<polygon fill="white" stroke="black" points="578.5,-366.5 578.5,-385.5 721.5,-385.5 721.5,-366.5 578.5,-366.5"/>
<text text-anchor="middle" x="650" y="-373.5" font-family="Helvetica,sans-Serif" font-size="10.00">GUIFunctions.SetPenDown</text>
</a>
</g>
</g>
<!-- Node6&#45;&gt;Node9 -->
<g id="edge8" class="edge"><title>Node6&#45;&gt;Node9</title>
<path fill="none" stroke="midnightblue" d="M510.716,-331.17C517.97,-333.185 525.21,-335.46 532,-338 548.945,-344.34 551.055,-350.66 568,-357 577.876,-360.695 588.706,-363.827 599.142,-366.418"/>
<polygon fill="midnightblue" stroke="midnightblue" points="511.419,-327.736 500.858,-328.582 509.641,-334.507 511.419,-327.736"/>
</g>
<!-- Node10 -->
<g id="node10" class="node"><title>Node10</title>
<g id="a_node10"><a xlink:href="../../d8/d40/class_g_u_i_functions_1_1_set_pen_up.html" target="_top" xlink:title="GUIFunctions.SetPenUp">
<polygon fill="white" stroke="black" points="585,-328.5 585,-347.5 715,-347.5 715,-328.5 585,-328.5"/>
<text text-anchor="middle" x="650" y="-335.5" font-family="Helvetica,sans-Serif" font-size="10.00">GUIFunctions.SetPenUp</text>
</a>
</g>
</g>
<!-- Node6&#45;&gt;Node10 -->
<g id="edge9" class="edge"><title>Node6&#45;&gt;Node10</title>
<path fill="none" stroke="midnightblue" d="M541.602,-327.694C556.225,-329.097 571.094,-330.524 584.92,-331.851"/>
<polygon fill="midnightblue" stroke="midnightblue" points="541.823,-324.199 531.534,-326.728 541.154,-331.167 541.823,-324.199"/>
</g>
<!-- Node11 -->
<g id="node11" class="node"><title>Node11</title>
<g id="a_node11"><a xlink:href="../../de/def/class_g_u_i_functions_1_1_stamp.html" target="_top" xlink:title="GUIFunctions.Stamp">
<polygon fill="white" stroke="black" points="593,-290.5 593,-309.5 707,-309.5 707,-290.5 593,-290.5"/>
<text text-anchor="middle" x="650" y="-297.5" font-family="Helvetica,sans-Serif" font-size="10.00">GUIFunctions.Stamp</text>
</a>
</g>
</g>
<!-- Node6&#45;&gt;Node11 -->
<g id="edge10" class="edge"><title>Node6&#45;&gt;Node11</title>
<path fill="none" stroke="midnightblue" d="M541.724,-310.294C559.127,-308.624 576.873,-306.921 592.791,-305.394"/>
<polygon fill="midnightblue" stroke="midnightblue" points="541.154,-306.833 531.534,-311.272 541.823,-313.801 541.154,-306.833"/>
</g>
<!-- Node12 -->
<g id="node12" class="node"><title>Node12</title>
<g id="a_node12"><a xlink:href="../../d1/de7/class_g_u_i_functions_1_1_undo.html" target="_top" xlink:title="GUIFunctions.Undo">
<polygon fill="white" stroke="black" points="596.5,-252.5 596.5,-271.5 703.5,-271.5 703.5,-252.5 596.5,-252.5"/>
<text text-anchor="middle" x="650" y="-259.5" font-family="Helvetica,sans-Serif" font-size="10.00">GUIFunctions.Undo</text>
</a>
</g>
</g>
<!-- Node6&#45;&gt;Node12 -->
<g id="edge11" class="edge"><title>Node6&#45;&gt;Node12</title>
<path fill="none" stroke="midnightblue" d="M487.889,-306.143C510.802,-298.376 540.943,-288.553 568,-281 579.965,-277.66 593.032,-274.42 605.11,-271.589"/>
<polygon fill="midnightblue" stroke="midnightblue" points="486.559,-302.899 478.226,-309.442 488.82,-309.524 486.559,-302.899"/>
</g>
<!-- Node14 -->
<g id="node14" class="node"><title>Node14</title>
<g id="a_node14"><a xlink:href="../../dd/d80/class_g_u_i_functions_1_1_background_color.html" target="_top" xlink:title="GUIFunctions.BackgroundColor">
<polygon fill="white" stroke="black" points="568,-214.5 568,-233.5 732,-233.5 732,-214.5 568,-214.5"/>
<text text-anchor="middle" x="650" y="-221.5" font-family="Helvetica,sans-Serif" font-size="10.00">GUIFunctions.BackgroundColor</text>
</a>
</g>
</g>
<!-- Node13&#45;&gt;Node14 -->
<g id="edge13" class="edge"><title>Node13&#45;&gt;Node14</title>
<path fill="none" stroke="midnightblue" d="M533.077,-211.12C544.607,-212.401 556.452,-213.717 567.962,-214.996"/>
<polygon fill="midnightblue" stroke="midnightblue" points="533.368,-207.631 523.043,-210.005 532.595,-214.588 533.368,-207.631"/>
</g>
<!-- Node15 -->
<g id="node15" class="node"><title>Node15</title>
<g id="a_node15"><a xlink:href="../../da/d16/class_g_u_i_functions_1_1_pen_color.html" target="_top" xlink:title="GUIFunctions.PenColor">
<polygon fill="white" stroke="black" points="587.5,-176.5 587.5,-195.5 712.5,-195.5 712.5,-176.5 587.5,-176.5"/>
<text text-anchor="middle" x="650" y="-183.5" font-family="Helvetica,sans-Serif" font-size="10.00">GUIFunctions.PenColor</text>
</a>
</g>
</g>
<!-- Node13&#45;&gt;Node15 -->
<g id="edge14" class="edge"><title>Node13&#45;&gt;Node15</title>
<path fill="none" stroke="midnightblue" d="M533.056,-195.369C551.255,-193.899 570.241,-192.364 587.455,-190.973"/>
<polygon fill="midnightblue" stroke="midnightblue" points="532.728,-191.884 523.043,-196.178 533.292,-198.861 532.728,-191.884"/>
</g>
<!-- Node18 -->
<g id="node18" class="node"><title>Node18</title>
<g id="a_node18"><a xlink:href="../../dc/d8a/class_g_u_i_functions_1_1_set_background_image.html" target="_top" xlink:title="GUIFunctions.SetBackground\lImage">
<polygon fill="white" stroke="black" points="572.5,-127 572.5,-157 727.5,-157 727.5,-127 572.5,-127"/>
<text text-anchor="start" x="580.5" y="-145" font-family="Helvetica,sans-Serif" font-size="10.00">GUIFunctions.SetBackground</text>
<text text-anchor="middle" x="650" y="-134" font-family="Helvetica,sans-Serif" font-size="10.00">Image</text>
</a>
</g>
</g>
<!-- Node17&#45;&gt;Node18 -->
<g id="edge17" class="edge"><title>Node17&#45;&gt;Node18</title>
<path fill="none" stroke="midnightblue" d="M541.724,-133.331C551.971,-134.159 562.336,-134.997 572.377,-135.808"/>
<polygon fill="midnightblue" stroke="midnightblue" points="541.784,-129.825 531.534,-132.508 541.22,-136.802 541.784,-129.825"/>
</g>
<!-- Node19 -->
<g id="node19" class="node"><title>Node19</title>
<g id="a_node19"><a xlink:href="../../d8/df7/class_g_u_i_functions_1_1_toggle_grid_lines.html" target="_top" xlink:title="GUIFunctions.ToggleGridLines">
<polygon fill="white" stroke="black" points="572,-88.5 572,-107.5 728,-107.5 728,-88.5 572,-88.5"/>
<text text-anchor="middle" x="650" y="-95.5" font-family="Helvetica,sans-Serif" font-size="10.00">GUIFunctions.ToggleGridLines</text>
</a>
</g>
</g>
<!-- Node17&#45;&gt;Node19 -->
<g id="edge18" class="edge"><title>Node17&#45;&gt;Node19</title>
<path fill="none" stroke="midnightblue" d="M528.497,-115.041C546.014,-112.564 564.475,-109.953 581.54,-107.54"/>
<polygon fill="midnightblue" stroke="midnightblue" points="527.721,-111.616 518.31,-116.481 528.702,-118.547 527.721,-111.616"/>
</g>
<!-- Node20 -->
<g id="node20" class="node"><title>Node20</title>
<g id="a_node20"><a xlink:href="../../db/dd9/class_g_u_i_functions_1_1_turtle_image_change.html" target="_top" xlink:title="GUIFunctions.TurtleImage\lChange">
<polygon fill="white" stroke="black" points="581.5,-39 581.5,-69 718.5,-69 718.5,-39 581.5,-39"/>
<text text-anchor="start" x="589.5" y="-57" font-family="Helvetica,sans-Serif" font-size="10.00">GUIFunctions.TurtleImage</text>
<text text-anchor="middle" x="650" y="-46" font-family="Helvetica,sans-Serif" font-size="10.00">Change</text>
</a>
</g>
</g>
<!-- Node17&#45;&gt;Node20 -->
<g id="edge19" class="edge"><title>Node17&#45;&gt;Node20</title>
<path fill="none" stroke="midnightblue" d="M516.083,-113.388C521.572,-111.531 526.95,-109.413 532,-107 550.289,-98.2615 550.023,-88.3638 568,-79 575.179,-75.2607 583.012,-71.9742 590.887,-69.1185"/>
<polygon fill="midnightblue" stroke="midnightblue" points="514.653,-110.166 506.127,-116.455 516.714,-116.855 514.653,-110.166"/>
</g>
<!-- Node22 -->
<g id="node22" class="node"><title>Node22</title>
<g id="a_node22"><a xlink:href="../../d0/d77/class_g_u_i_functions_1_1_pen_style.html" target="_top" xlink:title="GUIFunctions.PenStyle">
<polygon fill="white" stroke="black" points="588,-0.5 588,-19.5 712,-19.5 712,-0.5 588,-0.5"/>
<text text-anchor="middle" x="650" y="-7.5" font-family="Helvetica,sans-Serif" font-size="10.00">GUIFunctions.PenStyle</text>
</a>
</g>
</g>
<!-- Node21&#45;&gt;Node22 -->
<g id="edge21" class="edge"><title>Node21&#45;&gt;Node22</title>
<path fill="none" stroke="midnightblue" d="M502.829,-80.7832C512.941,-78.0348 523.142,-74.2399 532,-69 552.585,-56.8225 547.415,-41.1775 568,-29 574.589,-25.1023 581.921,-22.0041 589.407,-19.5414"/>
<polygon fill="midnightblue" stroke="midnightblue" points="501.704,-77.454 492.801,-83.1975 503.343,-84.2595 501.704,-77.454"/>
</g>
<!-- Node26 -->
<g id="node26" class="node"><title>Node26</title>
<g id="a_node26"><a xlink:href="../../d9/d52/class_g_u_i_functions_1_1_set_language.html" target="_top" xlink:title="GUIFunctions.SetLanguage">
<polygon fill="white" stroke="black" points="377,-2.5 377,-21.5 523,-21.5 523,-2.5 377,-2.5"/>
<text text-anchor="middle" x="450" y="-9.5" font-family="Helvetica,sans-Serif" font-size="10.00">GUIFunctions.SetLanguage</text>
</a>
</g>
</g>
<!-- Node25&#45;&gt;Node26 -->
<g id="edge25" class="edge"><title>Node25&#45;&gt;Node26</title>
<path fill="none" stroke="midnightblue" d="M313.905,-38.4619C341.575,-33.042 374.162,-26.659 400.398,-21.5201"/>
<polygon fill="midnightblue" stroke="midnightblue" points="313.095,-35.054 303.954,-40.411 314.441,-41.9234 313.095,-35.054"/>
</g>
</g>
</svg>
        <g id="navigator" transform="translate(0 0)" fill="#404254">
                <rect fill="#f2f5e9" fill-opacity="0.5" stroke="#606060" stroke-width=".5" x="0" y="0" width="60" height="60"/>
                <use id="zoomplus" xlink:href="#zoomPlus" x="17" y="9" onmousedown="handleZoom(evt,'in')"/>
                <use id="zoomminus" xlink:href="#zoomMin" x="42" y="9" onmousedown="handleZoom(evt,'out')"/>
                <use id="reset" xlink:href="#resetDef" x="30" y="36" onmousedown="handleReset()"/>
                <g id="arrowUp" xlink:href="#dirArrow" transform="translate(30 24)" onmousedown="handlePan(0,-1)">
                  <use xlink:href="#rim" fill="#404040">
                        <set attributeName="fill" to="#808080" begin="arrowUp.mouseover" end="arrowUp.mouseout"/>
                  </use>
                  <path fill="none" stroke="white" stroke-width="1.5" d="M0,-3.0v7 M-2.5,-0.5L0,-3.0L2.5,-0.5"/>
                </g>
                <g id="arrowRight" xlink:href="#dirArrow" transform="rotate(90) translate(36 -43)" onmousedown="handlePan(1,0)">
                  <use xlink:href="#rim" fill="#404040">
                        <set attributeName="fill" to="#808080" begin="arrowRight.mouseover" end="arrowRight.mouseout"/>
                  </use>
                  <path fill="none" stroke="white" stroke-width="1.5" d="M0,-3.0v7 M-2.5,-0.5L0,-3.0L2.5,-0.5"/>
                </g>
                <g id="arrowDown" xlink:href="#dirArrow" transform="rotate(180) translate(-30 -48)" onmousedown="handlePan(0,1)">
                  <use xlink:href="#rim" fill="#404040">
                        <set attributeName="fill" to="#808080" begin="arrowDown.mouseover" end="arrowDown.mouseout"/>
                  </use>
                  <path fill="none" stroke="white" stroke-width="1.5" d="M0,-3.0v7 M-2.5,-0.5L0,-3.0L2.5,-0.5"/>
                </g>
                <g id="arrowLeft" xlink:href="#dirArrow" transform="rotate(270) translate(-36 17)" onmousedown="handlePan(-1,0)">
                  <use xlink:href="#rim" fill="#404040">
                        <set attributeName="fill" to="#808080" begin="arrowLeft.mouseover" end="arrowLeft.mouseout"/>
                  </use>
                  <path fill="none" stroke="white" stroke-width="1.5" d="M0,-3.0v7 M-2.5,-0.5L0,-3.0L2.5,-0.5"/>
                </g>
        </g>
        <svg viewBox="0 0 15 15" width="100%" height="30px" preserveAspectRatio="xMaxYMin meet">
         <g id="arrow_out" transform="scale(0.3 0.3)">
          <a xlink:href="interface_g_u_i_functions_1_1_g_u_i_function__inherit__graph_org.svg" target="_base">
           <rect id="button" ry="5" rx="5" y="6" x="6" height="38" width="38"
                fill="#f2f5e9" fill-opacity="0.5" stroke="#606060" stroke-width="1.0"/>
           <path id="arrow"
             d="M 11.500037,31.436501 C 11.940474,20.09759 22.043105,11.32322 32.158766,21.979434 L 37.068811,17.246167 C 37.068811,17.246167 37.088388,32 37.088388,32 L 22.160133,31.978069 C 22.160133,31.978069 26.997745,27.140456 26.997745,27.140456 C 18.528582,18.264221 13.291696,25.230495 11.500037,31.436501 z"
             style="fill:#404040;"/>
          </a>
         </g>
        </svg>
</svg>
