<?xml version="1.0" encoding="UTF-8" standalone="no"?>
<!DOCTYPE svg PUBLIC "-//W3C//DTD SVG 1.1//EN"
 "http://www.w3.org/Graphics/SVG/1.1/DTD/svg11.dtd">
<!-- Generated by graphviz version 2.36.0 (20140111.2315)
 -->
<!-- Title: TableInformation.VariableTable.VariableTable Pages: 1 -->
<svg width="724pt" height="258pt"
 viewBox="0.00 0.00 724.00 258.00" xmlns="http://www.w3.org/2000/svg" xmlns:xlink="http://www.w3.org/1999/xlink">
<g id="graph0" class="graph" transform="scale(1 1) rotate(0) translate(4 254)">
<title>TableInformation.VariableTable.VariableTable</title>
<polygon fill="white" stroke="none" points="-4,4 -4,-254 720,-254 720,4 -4,4"/>
<!-- Node1 -->
<g id="node1" class="node"><title>Node1</title>
<polygon fill="#bfbfbf" stroke="black" points="0.5,-98 0.5,-128 137.5,-128 137.5,-98 0.5,-98"/>
<text text-anchor="start" x="8.5" y="-116" font-family="Helvetica,sans-Serif" font-size="10.00">TableInformation.Variable</text>
<text text-anchor="middle" x="69" y="-105" font-family="Helvetica,sans-Serif" font-size="10.00">Table.VariableTable</text>
</g>
<!-- Node2 -->
<g id="node2" class="node"><title>Node2</title>
<g id="a_node2"><a xlink:href="../../dc/d54/class_table_information_1_1_variable_table.html#ab281f2c3d65fdf5d391fba146ec0ffdf" target="_top" xlink:title="TableInformation.Variable\lTable.createTimeLine">
<polygon fill="white" stroke="black" points="201.5,-196 201.5,-226 338.5,-226 338.5,-196 201.5,-196"/>
<text text-anchor="start" x="209.5" y="-214" font-family="Helvetica,sans-Serif" font-size="10.00">TableInformation.Variable</text>
<text text-anchor="middle" x="270" y="-203" font-family="Helvetica,sans-Serif" font-size="10.00">Table.createTimeLine</text>
</a>
</g>
</g>
<!-- Node1&#45;&gt;Node2 -->
<g id="edge1" class="edge"><title>Node1&#45;&gt;Node2</title>
<path fill="none" stroke="midnightblue" d="M87.2088,-128.006C106.918,-144.463 140.786,-170.579 174,-186 179.634,-188.616 185.588,-190.993 191.656,-193.147"/>
<polygon fill="midnightblue" stroke="midnightblue" points="190.664,-196.506 201.258,-196.351 192.879,-189.866 190.664,-196.506"/>
</g>
<!-- Node6 -->
<g id="node6" class="node"><title>Node6</title>
<g id="a_node6"><a xlink:href="../../dc/d54/class_table_information_1_1_variable_table.html#aa907a211421a5eefb7b636c5af9c344a" target="_top" xlink:title="TableInformation.Variable\lTable.makeFunctionsVariableColumn">
<polygon fill="white" stroke="black" points="174.5,-147 174.5,-177 365.5,-177 365.5,-147 174.5,-147"/>
<text text-anchor="start" x="182.5" y="-165" font-family="Helvetica,sans-Serif" font-size="10.00">TableInformation.Variable</text>
<text text-anchor="middle" x="270" y="-154" font-family="Helvetica,sans-Serif" font-size="10.00">Table.makeFunctionsVariableColumn</text>
</a>
</g>
</g>
<!-- Node1&#45;&gt;Node6 -->
<g id="edge5" class="edge"><title>Node1&#45;&gt;Node6</title>
<path fill="none" stroke="midnightblue" d="M131.059,-128.035C152.262,-133.255 176.216,-139.154 198.142,-144.553"/>
<polygon fill="midnightblue" stroke="midnightblue" points="197.51,-148.001 208.057,-146.994 199.183,-141.204 197.51,-148.001"/>
</g>
<!-- Node7 -->
<g id="node7" class="node"><title>Node7</title>
<g id="a_node7"><a xlink:href="../../dc/d54/class_table_information_1_1_variable_table.html#ae9eaadacc372e2899ac8ccd791084f9a" target="_top" xlink:title="TableInformation.Variable\lTable.makeVariableNameColumn">
<polygon fill="white" stroke="black" points="182.5,-98 182.5,-128 357.5,-128 357.5,-98 182.5,-98"/>
<text text-anchor="start" x="190.5" y="-116" font-family="Helvetica,sans-Serif" font-size="10.00">TableInformation.Variable</text>
<text text-anchor="middle" x="270" y="-105" font-family="Helvetica,sans-Serif" font-size="10.00">Table.makeVariableNameColumn</text>
</a>
</g>
</g>
<!-- Node1&#45;&gt;Node7 -->
<g id="edge6" class="edge"><title>Node1&#45;&gt;Node7</title>
<path fill="none" stroke="midnightblue" d="M137.65,-113C148.718,-113 160.373,-113 171.984,-113"/>
<polygon fill="midnightblue" stroke="midnightblue" points="172.16,-116.5 182.16,-113 172.159,-109.5 172.16,-116.5"/>
</g>
<!-- Node8 -->
<g id="node8" class="node"><title>Node8</title>
<g id="a_node8"><a xlink:href="../../dc/d54/class_table_information_1_1_variable_table.html#ac25724e7d665394bf955ff29f77bb69b" target="_top" xlink:title="TableInformation.Variable\lTable.makeVariableValueColumn">
<polygon fill="white" stroke="black" points="184,-49 184,-79 356,-79 356,-49 184,-49"/>
<text text-anchor="start" x="192" y="-67" font-family="Helvetica,sans-Serif" font-size="10.00">TableInformation.Variable</text>
<text text-anchor="middle" x="270" y="-56" font-family="Helvetica,sans-Serif" font-size="10.00">Table.makeVariableValueColumn</text>
</a>
</g>
</g>
<!-- Node1&#45;&gt;Node8 -->
<g id="edge7" class="edge"><title>Node1&#45;&gt;Node8</title>
<path fill="none" stroke="midnightblue" d="M131.059,-97.9654C152.262,-92.7446 176.216,-86.8463 198.142,-81.4474"/>
<polygon fill="midnightblue" stroke="midnightblue" points="199.183,-84.7957 208.057,-79.0062 197.51,-77.9987 199.183,-84.7957"/>
</g>
<!-- Node10 -->
<g id="node10" class="node"><title>Node10</title>
<g id="a_node10"><a xlink:href="../../dc/d54/class_table_information_1_1_variable_table.html#ac5292d8411d58ea9ae8c26bd8bee25d5" target="_top" xlink:title="TableInformation.Variable\lTable.setTableStyle">
<polygon fill="white" stroke="black" points="201.5,-0 201.5,-30 338.5,-30 338.5,-0 201.5,-0"/>
<text text-anchor="start" x="209.5" y="-18" font-family="Helvetica,sans-Serif" font-size="10.00">TableInformation.Variable</text>
<text text-anchor="middle" x="270" y="-7" font-family="Helvetica,sans-Serif" font-size="10.00">Table.setTableStyle</text>
</a>
</g>
</g>
<!-- Node1&#45;&gt;Node10 -->
<g id="edge9" class="edge"><title>Node1&#45;&gt;Node10</title>
<path fill="none" stroke="midnightblue" d="M87.2088,-97.9942C106.918,-81.537 140.786,-55.4206 174,-40 179.634,-37.3842 185.588,-35.0067 191.656,-32.8526"/>
<polygon fill="midnightblue" stroke="midnightblue" points="192.879,-36.1343 201.258,-29.6494 190.664,-29.4941 192.879,-36.1343"/>
</g>
<!-- Node3 -->
<g id="node3" class="node"><title>Node3</title>
<g id="a_node3"><a xlink:href="../../dc/d54/class_table_information_1_1_variable_table.html#af237a178ed6e527dff92569ba5ce5166" target="_top" xlink:title="TableInformation.Variable\lTable.build">
<polygon fill="white" stroke="black" points="403.5,-196 403.5,-226 540.5,-226 540.5,-196 403.5,-196"/>
<text text-anchor="start" x="411.5" y="-214" font-family="Helvetica,sans-Serif" font-size="10.00">TableInformation.Variable</text>
<text text-anchor="middle" x="472" y="-203" font-family="Helvetica,sans-Serif" font-size="10.00">Table.build</text>
</a>
</g>
</g>
<!-- Node2&#45;&gt;Node3 -->
<g id="edge2" class="edge"><title>Node2&#45;&gt;Node3</title>
<path fill="none" stroke="midnightblue" d="M338.711,-211C356.223,-211 375.215,-211 393.198,-211"/>
<polygon fill="midnightblue" stroke="midnightblue" points="393.359,-214.5 403.359,-211 393.359,-207.5 393.359,-214.5"/>
</g>
<!-- Node4 -->
<g id="node4" class="node"><title>Node4</title>
<g id="a_node4"><a xlink:href="../../dc/d54/class_table_information_1_1_variable_table.html#a3d8722236a395bb0579454116316c6b8" target="_top" xlink:title="TableInformation.Variable\lTable.updateVariables">
<polygon fill="white" stroke="black" points="578.5,-220 578.5,-250 715.5,-250 715.5,-220 578.5,-220"/>
<text text-anchor="start" x="586.5" y="-238" font-family="Helvetica,sans-Serif" font-size="10.00">TableInformation.Variable</text>
<text text-anchor="middle" x="647" y="-227" font-family="Helvetica,sans-Serif" font-size="10.00">Table.updateVariables</text>
</a>
</g>
</g>
<!-- Node3&#45;&gt;Node4 -->
<g id="edge3" class="edge"><title>Node3&#45;&gt;Node4</title>
<path fill="none" stroke="midnightblue" d="M540.878,-220.417C549.819,-221.657 559.039,-222.936 568.13,-224.197"/>
<polygon fill="midnightblue" stroke="midnightblue" points="567.932,-227.703 578.318,-225.611 568.894,-220.77 567.932,-227.703"/>
</g>
<!-- Node5 -->
<g id="node5" class="node"><title>Node5</title>
<g id="a_node5"><a xlink:href="../../dc/d54/class_table_information_1_1_variable_table.html#a332e96a8483bafb982086f310adffe79" target="_top" xlink:title="TableInformation.Variable\lTable.updateFunctions">
<polygon fill="white" stroke="black" points="578.5,-171 578.5,-201 715.5,-201 715.5,-171 578.5,-171"/>
<text text-anchor="start" x="586.5" y="-189" font-family="Helvetica,sans-Serif" font-size="10.00">TableInformation.Variable</text>
<text text-anchor="middle" x="647" y="-178" font-family="Helvetica,sans-Serif" font-size="10.00">Table.updateFunctions</text>
</a>
</g>
</g>
<!-- Node3&#45;&gt;Node5 -->
<g id="edge4" class="edge"><title>Node3&#45;&gt;Node5</title>
<path fill="none" stroke="midnightblue" d="M540.878,-201.191C549.819,-199.899 559.039,-198.567 568.13,-197.253"/>
<polygon fill="midnightblue" stroke="midnightblue" points="568.922,-200.675 578.318,-195.781 567.92,-193.747 568.922,-200.675"/>
</g>
<!-- Node9 -->
<g id="node9" class="node"><title>Node9</title>
<g id="a_node9"><a xlink:href="../../de/dcf/class_g_u_i_functions_1_1_variable.html#a5c932f02129c3127d4dc3882d074347b" target="_top" xlink:title="GUIFunctions.Variable.get\lValue">
<polygon fill="white" stroke="black" points="402.5,-49 402.5,-79 541.5,-79 541.5,-49 402.5,-49"/>
<text text-anchor="start" x="410.5" y="-67" font-family="Helvetica,sans-Serif" font-size="10.00">GUIFunctions.Variable.get</text>
<text text-anchor="middle" x="472" y="-56" font-family="Helvetica,sans-Serif" font-size="10.00">Value</text>
</a>
</g>
</g>
<!-- Node8&#45;&gt;Node9 -->
<g id="edge8" class="edge"><title>Node8&#45;&gt;Node9</title>
<path fill="none" stroke="midnightblue" d="M356.108,-64C368.031,-64 380.244,-64 392.046,-64"/>
<polygon fill="midnightblue" stroke="midnightblue" points="392.295,-67.5001 402.295,-64 392.295,-60.5001 392.295,-67.5001"/>
</g>
</g>
</svg>
