<?xml version="1.0" encoding="UTF-8" standalone="no"?>
<!DOCTYPE svg PUBLIC "-//W3C//DTD SVG 1.1//EN"
 "http://www.w3.org/Graphics/SVG/1.1/DTD/svg11.dtd">
<!-- Generated by graphviz version 2.36.0 (20140111.2315)
 -->
<!-- Title: TableInformation.VariableTable.build Pages: 1 -->
<svg width="320pt" height="87pt"
 viewBox="0.00 0.00 320.00 87.00" xmlns="http://www.w3.org/2000/svg" xmlns:xlink="http://www.w3.org/1999/xlink">
<g id="graph0" class="graph" transform="scale(1 1) rotate(0) translate(4 83)">
<title>TableInformation.VariableTable.build</title>
<polygon fill="white" stroke="none" points="-4,4 -4,-83 316,-83 316,4 -4,4"/>
<!-- Node1 -->
<g id="node1" class="node"><title>Node1</title>
<polygon fill="#bfbfbf" stroke="black" points="0.5,-24 0.5,-54 137.5,-54 137.5,-24 0.5,-24"/>
<text text-anchor="start" x="8.5" y="-42" font-family="Helvetica,sans-Serif" font-size="10.00">TableInformation.Variable</text>
<text text-anchor="middle" x="69" y="-31" font-family="Helvetica,sans-Serif" font-size="10.00">Table.build</text>
</g>
<!-- Node2 -->
<g id="node2" class="node"><title>Node2</title>
<g id="a_node2"><a xlink:href="../../dc/d54/class_table_information_1_1_variable_table.html#a332e96a8483bafb982086f310adffe79" target="_top" xlink:title="TableInformation.Variable\lTable.updateFunctions">
<polygon fill="white" stroke="black" points="174.5,-49 174.5,-79 311.5,-79 311.5,-49 174.5,-49"/>
<text text-anchor="start" x="182.5" y="-67" font-family="Helvetica,sans-Serif" font-size="10.00">TableInformation.Variable</text>
<text text-anchor="middle" x="243" y="-56" font-family="Helvetica,sans-Serif" font-size="10.00">Table.updateFunctions</text>
</a>
</g>
</g>
<!-- Node1&#45;&gt;Node2 -->
<g id="edge1" class="edge"><title>Node1&#45;&gt;Node2</title>
<path fill="none" stroke="midnightblue" d="M137.979,-48.8807C146.55,-50.1265 155.372,-51.4087 164.082,-52.6746"/>
<polygon fill="midnightblue" stroke="midnightblue" points="163.834,-56.1753 174.233,-54.1502 164.841,-49.2481 163.834,-56.1753"/>
</g>
<!-- Node3 -->
<g id="node3" class="node"><title>Node3</title>
<g id="a_node3"><a xlink:href="../../dc/d54/class_table_information_1_1_variable_table.html#a3d8722236a395bb0579454116316c6b8" target="_top" xlink:title="TableInformation.Variable\lTable.updateVariables">
<polygon fill="white" stroke="black" points="174.5,-0 174.5,-30 311.5,-30 311.5,-0 174.5,-0"/>
<text text-anchor="start" x="182.5" y="-18" font-family="Helvetica,sans-Serif" font-size="10.00">TableInformation.Variable</text>
<text text-anchor="middle" x="243" y="-7" font-family="Helvetica,sans-Serif" font-size="10.00">Table.updateVariables</text>
</a>
</g>
</g>
<!-- Node1&#45;&gt;Node3 -->
<g id="edge2" class="edge"><title>Node1&#45;&gt;Node3</title>
<path fill="none" stroke="midnightblue" d="M137.979,-29.5146C146.55,-28.3186 155.372,-27.0877 164.082,-25.8723"/>
<polygon fill="midnightblue" stroke="midnightblue" points="164.813,-29.3043 174.233,-24.4558 163.845,-22.3715 164.813,-29.3043"/>
</g>
</g>
</svg>
