<?xml version="1.0" encoding="UTF-8" standalone="no"?>
<!DOCTYPE svg PUBLIC "-//W3C//DTD SVG 1.1//EN"
 "http://www.w3.org/Graphics/SVG/1.1/DTD/svg11.dtd">
<!-- Generated by graphviz version 2.36.0 (20140111.2315)
 -->
<!-- Title: Graphical Class Hierarchy Pages: 1 -->
<svg width="294pt" height="66pt"
 viewBox="0.00 0.00 294.00 66.00" xmlns="http://www.w3.org/2000/svg" xmlns:xlink="http://www.w3.org/1999/xlink">
<g id="graph0" class="graph" transform="scale(1 1) rotate(0) translate(4 62)">
<title>Graphical Class Hierarchy</title>
<polygon fill="white" stroke="none" points="-4,4 -4,-62 290,-62 290,4 -4,4"/>
<!-- Node1 -->
<g id="node1" class="node"><title>Node1</title>
<g id="a_node1"><a xlink:href="d8/d95/class_g_u_i_functions_1_1_user_input.html" target="_top" xlink:title="GUIFunctions.UserInput">
<polygon fill="white" stroke="black" points="0,-19.5 0,-38.5 128,-38.5 128,-19.5 0,-19.5"/>
<text text-anchor="middle" x="64" y="-26.5" font-family="Helvetica,sans-Serif" font-size="10.00">GUIFunctions.UserInput</text>
</a>
</g>
</g>
<!-- Node2 -->
<g id="node2" class="node"><title>Node2</title>
<g id="a_node2"><a xlink:href="d8/d97/class_g_u_i_functions_1_1_function.html" target="_top" xlink:title="GUIFunctions.Function">
<polygon fill="white" stroke="black" points="164,-38.5 164,-57.5 286,-57.5 286,-38.5 164,-38.5"/>
<text text-anchor="middle" x="225" y="-45.5" font-family="Helvetica,sans-Serif" font-size="10.00">GUIFunctions.Function</text>
</a>
</g>
</g>
<!-- Node1&#45;&gt;Node2 -->
<g id="edge1" class="edge"><title>Node1&#45;&gt;Node2</title>
<path fill="none" stroke="midnightblue" d="M138.254,-37.7537C146.794,-38.7741 155.43,-39.8061 163.766,-40.8022"/>
<polygon fill="midnightblue" stroke="midnightblue" points="138.643,-34.2752 128.298,-36.5639 137.812,-41.2258 138.643,-34.2752"/>
</g>
<!-- Node3 -->
<g id="node3" class="node"><title>Node3</title>
<g id="a_node3"><a xlink:href="de/dcf/class_g_u_i_functions_1_1_variable.html" target="_top" xlink:title="GUIFunctions.Variable">
<polygon fill="white" stroke="black" points="165,-0.5 165,-19.5 285,-19.5 285,-0.5 165,-0.5"/>
<text text-anchor="middle" x="225" y="-7.5" font-family="Helvetica,sans-Serif" font-size="10.00">GUIFunctions.Variable</text>
</a>
</g>
</g>
<!-- Node1&#45;&gt;Node3 -->
<g id="edge2" class="edge"><title>Node1&#45;&gt;Node3</title>
<path fill="none" stroke="midnightblue" d="M138.265,-20.2451C147.153,-19.183 156.146,-18.1084 164.795,-17.0748"/>
<polygon fill="midnightblue" stroke="midnightblue" points="137.812,-16.7742 128.298,-21.4361 138.643,-23.7248 137.812,-16.7742"/>
</g>
</g>
</svg>
