<?xml version="1.0" encoding="UTF-8" standalone="no"?>
<!DOCTYPE svg PUBLIC "-//W3C//DTD SVG 1.1//EN"
 "http://www.w3.org/Graphics/SVG/1.1/DTD/svg11.dtd">
<!-- Generated by graphviz version 2.36.0 (20140111.2315)
 -->
<!-- Title: Graphical Class Hierarchy Pages: 1 -->
<svg width="374pt" height="87pt"
 viewBox="0.00 0.00 374.00 87.00" xmlns="http://www.w3.org/2000/svg" xmlns:xlink="http://www.w3.org/1999/xlink">
<g id="graph0" class="graph" transform="scale(1 1) rotate(0) translate(4 83)">
<title>Graphical Class Hierarchy</title>
<polygon fill="white" stroke="none" points="-4,4 -4,-83 370,-83 370,4 -4,4"/>
<!-- Node1 -->
<g id="node1" class="node"><title>Node1</title>
<g id="a_node1"><a xlink:href="de/df5/classcommand_parser_1_1_properties_file_reader.html" target="_top" xlink:title="commandParser.Properties\lFileReader">
<polygon fill="white" stroke="black" points="0,-24 0,-54 146,-54 146,-24 0,-24"/>
<text text-anchor="start" x="8" y="-42" font-family="Helvetica,sans-Serif" font-size="10.00">commandParser.Properties</text>
<text text-anchor="middle" x="73" y="-31" font-family="Helvetica,sans-Serif" font-size="10.00">FileReader</text>
</a>
</g>
</g>
<!-- Node2 -->
<g id="node2" class="node"><title>Node2</title>
<g id="a_node2"><a xlink:href="d2/d91/classcommand_parser_1_1_command_to_class_translator.html" target="_top" xlink:title="commandParser.CommandToClass\lTranslator">
<polygon fill="white" stroke="black" points="182.5,-49 182.5,-79 365.5,-79 365.5,-49 182.5,-49"/>
<text text-anchor="start" x="190.5" y="-67" font-family="Helvetica,sans-Serif" font-size="10.00">commandParser.CommandToClass</text>
<text text-anchor="middle" x="274" y="-56" font-family="Helvetica,sans-Serif" font-size="10.00">Translator</text>
</a>
</g>
</g>
<!-- Node1&#45;&gt;Node2 -->
<g id="edge1" class="edge"><title>Node1&#45;&gt;Node2</title>
<path fill="none" stroke="midnightblue" d="M156.189,-49.3252C164.846,-50.4128 173.684,-51.5231 182.429,-52.6218"/>
<polygon fill="midnightblue" stroke="midnightblue" points="156.483,-45.8348 146.125,-48.0609 155.611,-52.7802 156.483,-45.8348"/>
</g>
<!-- Node3 -->
<g id="node3" class="node"><title>Node3</title>
<g id="a_node3"><a xlink:href="d8/d54/classcommand_parser_1_1_language_file_parser.html" target="_top" xlink:title="commandParser.LanguageFile\lParser">
<polygon fill="white" stroke="black" points="194,-0 194,-30 354,-30 354,-0 194,-0"/>
<text text-anchor="start" x="202" y="-18" font-family="Helvetica,sans-Serif" font-size="10.00">commandParser.LanguageFile</text>
<text text-anchor="middle" x="274" y="-7" font-family="Helvetica,sans-Serif" font-size="10.00">Parser</text>
</a>
</g>
</g>
<!-- Node1&#45;&gt;Node3 -->
<g id="edge2" class="edge"><title>Node1&#45;&gt;Node3</title>
<path fill="none" stroke="midnightblue" d="M156.391,-29.0634C168.735,-27.5747 181.441,-26.0423 193.718,-24.5616"/>
<polygon fill="midnightblue" stroke="midnightblue" points="155.634,-25.6293 146.125,-30.3015 156.472,-32.5789 155.634,-25.6293"/>
</g>
</g>
</svg>
