<?xml version="1.0" encoding="UTF-8" standalone="no"?>
<!DOCTYPE svg PUBLIC "-//W3C//DTD SVG 1.1//EN"
 "http://www.w3.org/Graphics/SVG/1.1/DTD/svg11.dtd">
<!-- Generated by graphviz version 2.36.0 (20140111.2315)
 -->
<!-- Title: Graphical Class Hierarchy Pages: 1 -->
<svg width="428pt" height="180pt"
 viewBox="0.00 0.00 428.00 180.00" xmlns="http://www.w3.org/2000/svg" xmlns:xlink="http://www.w3.org/1999/xlink">
<g id="graph0" class="graph" transform="scale(1 1) rotate(0) translate(4 176)">
<title>Graphical Class Hierarchy</title>
<polygon fill="white" stroke="none" points="-4,4 -4,-176 424,-176 424,4 -4,4"/>
<!-- Node1 -->
<g id="node1" class="node"><title>Node1</title>
<polygon fill="white" stroke="#bfbfbf" points="25.5,-152.5 25.5,-171.5 74.5,-171.5 74.5,-152.5 25.5,-152.5"/>
<text text-anchor="middle" x="50" y="-159.5" font-family="Helvetica,sans-Serif" font-size="10.00">Button</text>
</g>
<!-- Node2 -->
<g id="node2" class="node"><title>Node2</title>
<g id="a_node2"><a xlink:href="d8/d2a/class_view_1_1_button_template.html" target="_top" xlink:title="View.ButtonTemplate">
<polygon fill="white" stroke="black" points="144,-114.5 144,-133.5 260,-133.5 260,-114.5 144,-114.5"/>
<text text-anchor="middle" x="202" y="-121.5" font-family="Helvetica,sans-Serif" font-size="10.00">View.ButtonTemplate</text>
</a>
</g>
</g>
<!-- Node1&#45;&gt;Node2 -->
<g id="edge1" class="edge"><title>Node1&#45;&gt;Node2</title>
<path fill="none" stroke="midnightblue" d="M84.5775,-153.494C107.937,-147.576 139.109,-139.679 163.318,-133.546"/>
<polygon fill="midnightblue" stroke="midnightblue" points="83.6022,-150.13 74.7679,-155.979 85.3213,-156.916 83.6022,-150.13"/>
</g>
<!-- Node3 -->
<g id="node3" class="node"><title>Node3</title>
<g id="a_node3"><a xlink:href="d7/d0b/class_view_1_1_color_label.html" target="_top" xlink:title="View.ColorLabel">
<polygon fill="white" stroke="black" points="156.5,-152.5 156.5,-171.5 247.5,-171.5 247.5,-152.5 156.5,-152.5"/>
<text text-anchor="middle" x="202" y="-159.5" font-family="Helvetica,sans-Serif" font-size="10.00">View.ColorLabel</text>
</a>
</g>
</g>
<!-- Node1&#45;&gt;Node3 -->
<g id="edge2" class="edge"><title>Node1&#45;&gt;Node3</title>
<path fill="none" stroke="midnightblue" d="M84.9064,-162C106.081,-162 133.578,-162 156.495,-162"/>
<polygon fill="midnightblue" stroke="midnightblue" points="84.768,-158.5 74.7679,-162 84.7679,-165.5 84.768,-158.5"/>
</g>
<!-- Node4 -->
<g id="node4" class="node"><title>Node4</title>
<polygon fill="white" stroke="#bfbfbf" points="27,-114.5 27,-133.5 73,-133.5 73,-114.5 27,-114.5"/>
<text text-anchor="middle" x="50" y="-121.5" font-family="Helvetica,sans-Serif" font-size="10.00">Group</text>
</g>
<!-- Node5 -->
<g id="node5" class="node"><title>Node5</title>
<g id="a_node5"><a xlink:href="db/dce/class_view_1_1_scrolling_bar.html" target="_top" xlink:title="View.ScrollingBar">
<polygon fill="white" stroke="black" points="153,-76.5 153,-95.5 251,-95.5 251,-76.5 153,-76.5"/>
<text text-anchor="middle" x="202" y="-83.5" font-family="Helvetica,sans-Serif" font-size="10.00">View.ScrollingBar</text>
</a>
</g>
</g>
<!-- Node4&#45;&gt;Node5 -->
<g id="edge3" class="edge"><title>Node4&#45;&gt;Node5</title>
<path fill="none" stroke="midnightblue" d="M82.9679,-115.901C106.501,-109.94 138.577,-101.814 163.351,-95.5377"/>
<polygon fill="midnightblue" stroke="midnightblue" points="81.9673,-112.544 73.133,-118.393 83.6863,-119.33 81.9673,-112.544"/>
</g>
<!-- Node6 -->
<g id="node6" class="node"><title>Node6</title>
<g id="a_node6"><a xlink:href="d0/d93/class_view_1_1_pen_scrolling_bar.html" target="_top" xlink:title="View.PenScrollingBar">
<polygon fill="white" stroke="black" points="304,-76.5 304,-95.5 420,-95.5 420,-76.5 304,-76.5"/>
<text text-anchor="middle" x="362" y="-83.5" font-family="Helvetica,sans-Serif" font-size="10.00">View.PenScrollingBar</text>
</a>
</g>
</g>
<!-- Node5&#45;&gt;Node6 -->
<g id="edge4" class="edge"><title>Node5&#45;&gt;Node6</title>
<path fill="none" stroke="midnightblue" d="M261.619,-86C275.428,-86 290.129,-86 303.871,-86"/>
<polygon fill="midnightblue" stroke="midnightblue" points="261.264,-82.5001 251.264,-86 261.264,-89.5001 261.264,-82.5001"/>
</g>
<!-- Node7 -->
<g id="node7" class="node"><title>Node7</title>
<polygon fill="white" stroke="#bfbfbf" points="28.5,-38.5 28.5,-57.5 71.5,-57.5 71.5,-38.5 28.5,-38.5"/>
<text text-anchor="middle" x="50" y="-45.5" font-family="Helvetica,sans-Serif" font-size="10.00">Menu</text>
</g>
<!-- Node8 -->
<g id="node8" class="node"><title>Node8</title>
<g id="a_node8"><a xlink:href="d7/d52/class_view_1_1_menu_template.html" target="_top" xlink:title="View.MenuTemplate">
<polygon fill="white" stroke="black" points="147,-38.5 147,-57.5 257,-57.5 257,-38.5 147,-38.5"/>
<text text-anchor="middle" x="202" y="-45.5" font-family="Helvetica,sans-Serif" font-size="10.00">View.MenuTemplate</text>
</a>
</g>
</g>
<!-- Node7&#45;&gt;Node8 -->
<g id="edge5" class="edge"><title>Node7&#45;&gt;Node8</title>
<path fill="none" stroke="midnightblue" d="M81.5814,-48C100.336,-48 124.883,-48 146.841,-48"/>
<polygon fill="midnightblue" stroke="midnightblue" points="81.5424,-44.5001 71.5423,-48 81.5423,-51.5001 81.5424,-44.5001"/>
</g>
<!-- Node9 -->
<g id="node9" class="node"><title>Node9</title>
<polygon fill="white" stroke="#bfbfbf" points="17.5,-0.5 17.5,-19.5 82.5,-19.5 82.5,-0.5 17.5,-0.5"/>
<text text-anchor="middle" x="50" y="-7.5" font-family="Helvetica,sans-Serif" font-size="10.00">MenuItem</text>
</g>
<!-- Node10 -->
<g id="node10" class="node"><title>Node10</title>
<g id="a_node10"><a xlink:href="d3/d56/class_view_1_1_menu_item_template.html" target="_top" xlink:title="View.MenuItemTemplate">
<polygon fill="white" stroke="black" points="136,-0.5 136,-19.5 268,-19.5 268,-0.5 136,-0.5"/>
<text text-anchor="middle" x="202" y="-7.5" font-family="Helvetica,sans-Serif" font-size="10.00">View.MenuItemTemplate</text>
</a>
</g>
</g>
<!-- Node9&#45;&gt;Node10 -->
<g id="edge6" class="edge"><title>Node9&#45;&gt;Node10</title>
<path fill="none" stroke="midnightblue" d="M93.0614,-10C106.356,-10 121.374,-10 135.889,-10"/>
<polygon fill="midnightblue" stroke="midnightblue" points="92.8112,-6.5001 82.8111,-10 92.8111,-13.5001 92.8112,-6.5001"/>
</g>
<!-- Node11 -->
<g id="node11" class="node"><title>Node11</title>
<g id="a_node11"><a xlink:href="dd/dfc/interface_view_1_1_user_objects.html" target="_top" xlink:title="View.UserObjects">
<polygon fill="white" stroke="black" points="0.5,-76.5 0.5,-95.5 99.5,-95.5 99.5,-76.5 0.5,-76.5"/>
<text text-anchor="middle" x="50" y="-83.5" font-family="Helvetica,sans-Serif" font-size="10.00">View.UserObjects</text>
</a>
</g>
</g>
<!-- Node11&#45;&gt;Node2 -->
<g id="edge7" class="edge"><title>Node11&#45;&gt;Node2</title>
<path fill="none" stroke="midnightblue" d="M98.811,-98.1121C119.702,-103.404 143.847,-109.521 163.421,-114.48"/>
<polygon fill="midnightblue" stroke="midnightblue" points="99.4047,-94.652 88.8513,-95.589 97.6856,-101.438 99.4047,-94.652"/>
</g>
<!-- Node11&#45;&gt;Node5 -->
<g id="edge10" class="edge"><title>Node11&#45;&gt;Node5</title>
<path fill="none" stroke="midnightblue" d="M109.881,-86C124.102,-86 139.134,-86 152.8,-86"/>
<polygon fill="midnightblue" stroke="midnightblue" points="109.701,-82.5001 99.7007,-86 109.701,-89.5001 109.701,-82.5001"/>
</g>
<!-- Node11&#45;&gt;Node8 -->
<g id="edge9" class="edge"><title>Node11&#45;&gt;Node8</title>
<path fill="none" stroke="midnightblue" d="M98.811,-73.8879C119.702,-68.5956 143.847,-62.4787 163.421,-57.5201"/>
<polygon fill="midnightblue" stroke="midnightblue" points="97.6856,-70.5623 88.8513,-76.411 99.4047,-77.348 97.6856,-70.5623"/>
</g>
<!-- Node11&#45;&gt;Node10 -->
<g id="edge8" class="edge"><title>Node11&#45;&gt;Node10</title>
<path fill="none" stroke="midnightblue" d="M91.1972,-72.1422C94.2622,-70.5691 97.2349,-68.8561 100,-67 119.316,-54.0341 116.147,-41.1283 136,-29 142.321,-25.1386 149.467,-22.0271 156.65,-19.5302"/>
<polygon fill="midnightblue" stroke="midnightblue" points="89.4644,-69.0866 81.8413,-76.4445 92.389,-75.4464 89.4644,-69.0866"/>
</g>
</g>
</svg>
