<?xml version="1.0" encoding="UTF-8" standalone="no"?>
<!DOCTYPE svg PUBLIC "-//W3C//DTD SVG 1.1//EN"
 "http://www.w3.org/Graphics/SVG/1.1/DTD/svg11.dtd">
<!-- Generated by graphviz version 2.36.0 (20140111.2315)
 -->
<!-- Title: Graphical Class Hierarchy Pages: 1 -->
<svg width="494pt" height="175pt"
 viewBox="0.00 0.00 494.00 175.00" xmlns="http://www.w3.org/2000/svg" xmlns:xlink="http://www.w3.org/1999/xlink">
<g id="graph0" class="graph" transform="scale(1 1) rotate(0) translate(4 171)">
<title>Graphical Class Hierarchy</title>
<polygon fill="white" stroke="none" points="-4,4 -4,-171 490,-171 490,4 -4,4"/>
<!-- Node1 -->
<g id="node1" class="node"><title>Node1</title>
<polygon fill="white" stroke="#bfbfbf" points="0.5,-68.5 0.5,-87.5 63.5,-87.5 63.5,-68.5 0.5,-68.5"/>
<text text-anchor="middle" x="32" y="-75.5" font-family="Helvetica,sans-Serif" font-size="10.00">Exception</text>
</g>
<!-- Node2 -->
<g id="node2" class="node"><title>Node2</title>
<g id="a_node2"><a xlink:href="dc/da2/classbackend_exceptions_1_1_backend_exception.html" target="_top" xlink:title="backendExceptions.Backend\lException">
<polygon fill="white" stroke="black" points="100.5,-63 100.5,-93 253.5,-93 253.5,-63 100.5,-63"/>
<text text-anchor="start" x="108.5" y="-81" font-family="Helvetica,sans-Serif" font-size="10.00">backendExceptions.Backend</text>
<text text-anchor="middle" x="177" y="-70" font-family="Helvetica,sans-Serif" font-size="10.00">Exception</text>
</a>
</g>
</g>
<!-- Node1&#45;&gt;Node2 -->
<g id="edge1" class="edge"><title>Node1&#45;&gt;Node2</title>
<path fill="none" stroke="midnightblue" d="M73.8576,-78C82.2219,-78 91.2762,-78 100.42,-78"/>
<polygon fill="midnightblue" stroke="midnightblue" points="73.6771,-74.5001 63.6771,-78 73.6771,-81.5001 73.6771,-74.5001"/>
</g>
<!-- Node3 -->
<g id="node3" class="node"><title>Node3</title>
<g id="a_node3"><a xlink:href="d1/dd1/classbackend_exceptions_1_1_slogo_class_not_found_exception.html" target="_top" xlink:title="backendExceptions.SlogoClass\lNotFoundException">
<polygon fill="white" stroke="black" points="306,-137 306,-167 470,-167 470,-137 306,-137"/>
<text text-anchor="start" x="314" y="-155" font-family="Helvetica,sans-Serif" font-size="10.00">backendExceptions.SlogoClass</text>
<text text-anchor="middle" x="388" y="-144" font-family="Helvetica,sans-Serif" font-size="10.00">NotFoundException</text>
</a>
</g>
</g>
<!-- Node2&#45;&gt;Node3 -->
<g id="edge2" class="edge"><title>Node2&#45;&gt;Node3</title>
<path fill="none" stroke="midnightblue" d="M218.125,-97.4204C239.198,-107.14 265.643,-118.594 290,-127 300.439,-130.603 311.667,-133.956 322.651,-136.963"/>
<polygon fill="midnightblue" stroke="midnightblue" points="219.389,-94.1482 208.847,-93.0937 216.431,-100.492 219.389,-94.1482"/>
</g>
<!-- Node4 -->
<g id="node4" class="node"><title>Node4</title>
<g id="a_node4"><a xlink:href="df/dc0/classbackend_exceptions_1_1_slogo_command_not_extends_base_exception.html" target="_top" xlink:title="backendExceptions.SlogoCommand\lNotExtendsBaseException">
<polygon fill="white" stroke="black" points="293.5,-88 293.5,-118 482.5,-118 482.5,-88 293.5,-88"/>
<text text-anchor="start" x="301.5" y="-106" font-family="Helvetica,sans-Serif" font-size="10.00">backendExceptions.SlogoCommand</text>
<text text-anchor="middle" x="388" y="-95" font-family="Helvetica,sans-Serif" font-size="10.00">NotExtendsBaseException</text>
</a>
</g>
</g>
<!-- Node2&#45;&gt;Node4 -->
<g id="edge3" class="edge"><title>Node2&#45;&gt;Node4</title>
<path fill="none" stroke="midnightblue" d="M263.799,-88.263C273.534,-89.4275 283.493,-90.6188 293.324,-91.7947"/>
<polygon fill="midnightblue" stroke="midnightblue" points="264.094,-84.7735 253.749,-87.0609 263.263,-91.7239 264.094,-84.7735"/>
</g>
<!-- Node5 -->
<g id="node5" class="node"><title>Node5</title>
<g id="a_node5"><a xlink:href="d0/d10/classbackend_exceptions_1_1_slogo_file_not_found_exception.html" target="_top" xlink:title="backendExceptions.SlogoFile\lNotFoundException">
<polygon fill="white" stroke="black" points="311,-39 311,-69 465,-69 465,-39 311,-39"/>
<text text-anchor="start" x="319" y="-57" font-family="Helvetica,sans-Serif" font-size="10.00">backendExceptions.SlogoFile</text>
<text text-anchor="middle" x="388" y="-46" font-family="Helvetica,sans-Serif" font-size="10.00">NotFoundException</text>
</a>
</g>
</g>
<!-- Node2&#45;&gt;Node5 -->
<g id="edge4" class="edge"><title>Node2&#45;&gt;Node5</title>
<path fill="none" stroke="midnightblue" d="M263.874,-68.1388C279.429,-66.3526 295.554,-64.501 310.808,-62.7494"/>
<polygon fill="midnightblue" stroke="midnightblue" points="263.285,-64.6835 253.749,-69.3015 264.083,-71.6378 263.285,-64.6835"/>
</g>
<!-- Node6 -->
<g id="node6" class="node"><title>Node6</title>
<g id="a_node6"><a xlink:href="d6/dbf/classbackend_exceptions_1_1_slogo_i_o_exception.html" target="_top" xlink:title="backendExceptions.SlogoIOException">
<polygon fill="white" stroke="black" points="290.5,-0.5 290.5,-19.5 485.5,-19.5 485.5,-0.5 290.5,-0.5"/>
<text text-anchor="middle" x="388" y="-7.5" font-family="Helvetica,sans-Serif" font-size="10.00">backendExceptions.SlogoIOException</text>
</a>
</g>
</g>
<!-- Node2&#45;&gt;Node6 -->
<g id="edge5" class="edge"><title>Node2&#45;&gt;Node6</title>
<path fill="none" stroke="midnightblue" d="M218.002,-58.5249C239.043,-48.8825 265.495,-37.6908 290,-30 303.124,-25.8809 317.519,-22.3831 331.108,-19.5206"/>
<polygon fill="midnightblue" stroke="midnightblue" points="216.336,-55.4398 208.742,-62.8279 219.286,-61.7879 216.336,-55.4398"/>
</g>
</g>
</svg>
