<?xml version="1.0" encoding="UTF-8" standalone="no"?>
<!DOCTYPE svg PUBLIC "-//W3C//DTD SVG 1.1//EN"
 "http://www.w3.org/Graphics/SVG/1.1/DTD/svg11.dtd">
<!-- Generated by graphviz version 2.36.0 (20140111.2315)
 -->
<!-- Title: Graphical Class Hierarchy Pages: 1 -->
<svg width="320pt" height="66pt"
 viewBox="0.00 0.00 320.00 66.00" xmlns="http://www.w3.org/2000/svg" xmlns:xlink="http://www.w3.org/1999/xlink">
<g id="graph0" class="graph" transform="scale(1 1) rotate(0) translate(4 62)">
<title>Graphical Class Hierarchy</title>
<polygon fill="white" stroke="none" points="-4,4 -4,-62 316,-62 316,4 -4,4"/>
<!-- Node1 -->
<g id="node1" class="node"><title>Node1</title>
<g id="a_node1"><a xlink:href="df/dc5/class_table_information_1_1_column.html" target="_top" xlink:title="TableInformation.Column\l\&lt; Double \&gt;">
<polygon fill="white" stroke="black" points="0.5,-14 0.5,-44 135.5,-44 135.5,-14 0.5,-14"/>
<text text-anchor="start" x="8.5" y="-32" font-family="Helvetica,sans-Serif" font-size="10.00">TableInformation.Column</text>
<text text-anchor="middle" x="68" y="-21" font-family="Helvetica,sans-Serif" font-size="10.00">&lt; Double &gt;</text>
</a>
</g>
</g>
<!-- Node2 -->
<g id="node2" class="node"><title>Node2</title>
<g id="a_node2"><a xlink:href="dc/d79/class_table_information_1_1_x_column.html" target="_top" xlink:title="TableInformation.XColumn">
<polygon fill="white" stroke="black" points="172,-38.5 172,-57.5 312,-57.5 312,-38.5 172,-38.5"/>
<text text-anchor="middle" x="242" y="-45.5" font-family="Helvetica,sans-Serif" font-size="10.00">TableInformation.XColumn</text>
</a>
</g>
</g>
<!-- Node1&#45;&gt;Node2 -->
<g id="edge1" class="edge"><title>Node1&#45;&gt;Node2</title>
<path fill="none" stroke="midnightblue" d="M146.039,-37.5101C154.662,-38.4627 163.407,-39.4287 171.922,-40.3693"/>
<polygon fill="midnightblue" stroke="midnightblue" points="146.316,-34.0195 135.992,-36.4003 145.547,-40.9772 146.316,-34.0195"/>
</g>
<!-- Node3 -->
<g id="node3" class="node"><title>Node3</title>
<g id="a_node3"><a xlink:href="d9/d9e/class_table_information_1_1_y_column.html" target="_top" xlink:title="TableInformation.YColumn">
<polygon fill="white" stroke="black" points="172,-0.5 172,-19.5 312,-19.5 312,-0.5 172,-0.5"/>
<text text-anchor="middle" x="242" y="-7.5" font-family="Helvetica,sans-Serif" font-size="10.00">TableInformation.YColumn</text>
</a>
</g>
</g>
<!-- Node1&#45;&gt;Node3 -->
<g id="edge2" class="edge"><title>Node1&#45;&gt;Node3</title>
<path fill="none" stroke="midnightblue" d="M146.039,-20.4899C154.662,-19.5373 163.407,-18.5713 171.922,-17.6307"/>
<polygon fill="midnightblue" stroke="midnightblue" points="145.547,-17.0228 135.992,-21.5997 146.316,-23.9805 145.547,-17.0228"/>
</g>
</g>
</svg>
