<?xml version="1.0" encoding="UTF-8" standalone="no"?>
<!DOCTYPE svg PUBLIC "-//W3C//DTD SVG 1.1//EN"
 "http://www.w3.org/Graphics/SVG/1.1/DTD/svg11.dtd">
<!-- Generated by graphviz version 2.36.0 (20140111.2315)
 -->
<!-- Title: Graphical Class Hierarchy Pages: 1 -->
<svg width="402pt" height="87pt"
 viewBox="0.00 0.00 402.00 87.00" xmlns="http://www.w3.org/2000/svg" xmlns:xlink="http://www.w3.org/1999/xlink">
<g id="graph0" class="graph" transform="scale(1 1) rotate(0) translate(4 83)">
<title>Graphical Class Hierarchy</title>
<polygon fill="white" stroke="none" points="-4,4 -4,-83 398,-83 398,4 -4,4"/>
<!-- Node1 -->
<g id="node1" class="node"><title>Node1</title>
<polygon fill="white" stroke="#bfbfbf" points="0,-29.5 0,-48.5 58,-48.5 58,-29.5 0,-29.5"/>
<text text-anchor="middle" x="29" y="-36.5" font-family="Helvetica,sans-Serif" font-size="10.00">TableCell</text>
</g>
<!-- Node2 -->
<g id="node2" class="node"><title>Node2</title>
<g id="a_node2"><a xlink:href="d2/d41/class_g_u_i_functions_1_1_editing_cell.html" target="_top" xlink:title="GUIFunctions.EditingCell\l\&lt; T, G \&gt;">
<polygon fill="white" stroke="black" points="94.5,-24 94.5,-54 225.5,-54 225.5,-24 94.5,-24"/>
<text text-anchor="start" x="102.5" y="-42" font-family="Helvetica,sans-Serif" font-size="10.00">GUIFunctions.EditingCell</text>
<text text-anchor="middle" x="160" y="-31" font-family="Helvetica,sans-Serif" font-size="10.00">&lt; T, G &gt;</text>
</a>
</g>
</g>
<!-- Node1&#45;&gt;Node2 -->
<g id="edge1" class="edge"><title>Node1&#45;&gt;Node2</title>
<path fill="none" stroke="midnightblue" d="M68.5618,-39C76.6915,-39 85.4808,-39 94.2756,-39"/>
<polygon fill="midnightblue" stroke="midnightblue" points="68.3096,-35.5001 58.3096,-39 68.3096,-42.5001 68.3096,-35.5001"/>
</g>
<!-- Node3 -->
<g id="node3" class="node"><title>Node3</title>
<g id="a_node3"><a xlink:href="de/d4d/class_table_information_1_1_editing_turtle_boolean_cell.html" target="_top" xlink:title="TableInformation.Editing\lTurtleBooleanCell">
<polygon fill="white" stroke="black" points="262.5,-49 262.5,-79 393.5,-79 393.5,-49 262.5,-49"/>
<text text-anchor="start" x="270.5" y="-67" font-family="Helvetica,sans-Serif" font-size="10.00">TableInformation.Editing</text>
<text text-anchor="middle" x="328" y="-56" font-family="Helvetica,sans-Serif" font-size="10.00">TurtleBooleanCell</text>
</a>
</g>
</g>
<!-- Node2&#45;&gt;Node3 -->
<g id="edge2" class="edge"><title>Node2&#45;&gt;Node3</title>
<path fill="none" stroke="midnightblue" d="M235.612,-50.2367C244.499,-51.5751 253.515,-52.933 262.248,-54.2482"/>
<polygon fill="midnightblue" stroke="midnightblue" points="236.065,-46.7656 225.655,-48.7372 235.022,-53.6875 236.065,-46.7656"/>
</g>
<!-- Node4 -->
<g id="node4" class="node"><title>Node4</title>
<g id="a_node4"><a xlink:href="d0/dfd/class_table_information_1_1_editing_turtle_double_cell.html" target="_top" xlink:title="TableInformation.Editing\lTurtleDoubleCell">
<polygon fill="white" stroke="black" points="262.5,-0 262.5,-30 393.5,-30 393.5,-0 262.5,-0"/>
<text text-anchor="start" x="270.5" y="-18" font-family="Helvetica,sans-Serif" font-size="10.00">TableInformation.Editing</text>
<text text-anchor="middle" x="328" y="-7" font-family="Helvetica,sans-Serif" font-size="10.00">TurtleDoubleCell</text>
</a>
</g>
</g>
<!-- Node2&#45;&gt;Node4 -->
<g id="edge3" class="edge"><title>Node2&#45;&gt;Node4</title>
<path fill="none" stroke="midnightblue" d="M235.612,-28.2128C244.499,-26.9279 253.515,-25.6243 262.248,-24.3617"/>
<polygon fill="midnightblue" stroke="midnightblue" points="235.052,-24.7573 225.655,-29.6523 236.053,-31.6852 235.052,-24.7573"/>
</g>
</g>
</svg>
