<?xml version="1.0" encoding="UTF-8" standalone="no"?>
<!DOCTYPE svg PUBLIC "-//W3C//DTD SVG 1.1//EN"
 "http://www.w3.org/Graphics/SVG/1.1/DTD/svg11.dtd">
<!-- Generated by graphviz version 2.36.0 (20140111.2315)
 -->
<!-- Title: commands.controlCommands.IfElseCommand Pages: 1 -->
<svg width="455pt" height="262pt"
 viewBox="0.00 0.00 455.00 262.00" xmlns="http://www.w3.org/2000/svg" xmlns:xlink="http://www.w3.org/1999/xlink">
<g id="graph0" class="graph" transform="scale(1 1) rotate(0) translate(4 258)">
<title>commands.controlCommands.IfElseCommand</title>
<polygon fill="white" stroke="none" points="-4,4 -4,-258 451,-258 451,4 -4,4"/>
<!-- Node1 -->
<g id="node1" class="node"><title>Node1</title>
<polygon fill="#bfbfbf" stroke="black" points="42.5,-1 42.5,-31 207.5,-31 207.5,-1 42.5,-1"/>
<text text-anchor="start" x="50.5" y="-19" font-family="Helvetica,sans-Serif" font-size="10.00">commands.controlCommands.</text>
<text text-anchor="middle" x="125" y="-8" font-family="Helvetica,sans-Serif" font-size="10.00">IfElseCommand</text>
</g>
<!-- Node2 -->
<g id="node2" class="node"><title>Node2</title>
<g id="a_node2"><a xlink:href="../../da/d8a/classcommands_1_1_control_command.html" target="_top" xlink:title="commands.ControlCommand">
<polygon fill="white" stroke="black" points="177,-77.5 177,-96.5 335,-96.5 335,-77.5 177,-77.5"/>
<text text-anchor="middle" x="256" y="-84.5" font-family="Helvetica,sans-Serif" font-size="10.00">commands.ControlCommand</text>
</a>
</g>
</g>
<!-- Node2&#45;&gt;Node1 -->
<g id="edge1" class="edge"><title>Node2&#45;&gt;Node1</title>
<path fill="none" stroke="midnightblue" d="M230.689,-72.668C208.101,-60.7705 175.119,-43.3985 152.024,-31.2341"/>
<polygon fill="midnightblue" stroke="midnightblue" points="229.195,-75.837 239.674,-77.4006 232.457,-69.6436 229.195,-75.837"/>
</g>
<!-- Node3 -->
<g id="node3" class="node"><title>Node3</title>
<g id="a_node3"><a xlink:href="../../da/d90/classcommands_1_1_base_command.html" target="_top" xlink:title="commands.BaseCommand">
<polygon fill="white" stroke="black" points="0,-158.5 0,-177.5 148,-177.5 148,-158.5 0,-158.5"/>
<text text-anchor="middle" x="74" y="-165.5" font-family="Helvetica,sans-Serif" font-size="10.00">commands.BaseCommand</text>
</a>
</g>
</g>
<!-- Node3&#45;&gt;Node1 -->
<g id="edge7" class="edge"><title>Node3&#45;&gt;Node1</title>
<path fill="none" stroke="#9a32cd" stroke-dasharray="5,2" d="M72.6491,-148.311C71.8896,-128.221 72.6924,-95.7083 83,-70 88.942,-55.1801 100.424,-41.1483 109.883,-31.2499"/>
<polygon fill="#9a32cd" stroke="#9a32cd" points="69.1554,-148.523 73.1989,-158.316 76.1448,-148.139 69.1554,-148.523"/>
<text text-anchor="middle" x="125.5" y="-95.5" font-family="Helvetica,sans-Serif" font-size="10.00"> myIfCommand</text>
<text text-anchor="middle" x="125.5" y="-84.5" font-family="Helvetica,sans-Serif" font-size="10.00">myExpression</text>
<text text-anchor="middle" x="125.5" y="-73.5" font-family="Helvetica,sans-Serif" font-size="10.00">myElseCommand</text>
</g>
<!-- Node3&#45;&gt;Node2 -->
<g id="edge2" class="edge"><title>Node3&#45;&gt;Node2</title>
<path fill="none" stroke="midnightblue" d="M103.152,-154.346C140.456,-138.154 204.079,-110.537 236.201,-96.5942"/>
<polygon fill="midnightblue" stroke="midnightblue" points="101.603,-151.203 93.8237,-158.395 104.39,-157.624 101.603,-151.203"/>
</g>
<!-- Node3&#45;&gt;Node3 -->
<g id="edge4" class="edge"><title>Node3&#45;&gt;Node3</title>
<path fill="none" stroke="#9a32cd" stroke-dasharray="5,2" d="M158.58,-172.266C163.233,-171.227 166,-169.805 166,-168 166,-165.111 158.916,-163.204 148.36,-162.279"/>
<polygon fill="#9a32cd" stroke="#9a32cd" points="157.767,-168.846 148.36,-173.721 158.754,-175.776 157.767,-168.846"/>
<text text-anchor="middle" x="211.5" y="-165.5" font-family="Helvetica,sans-Serif" font-size="10.00"> myNextCommand</text>
</g>
<!-- Node4 -->
<g id="node4" class="node"><title>Node4</title>
<polygon fill="white" stroke="#bfbfbf" points="38.5,-228.5 38.5,-247.5 109.5,-247.5 109.5,-228.5 38.5,-228.5"/>
<text text-anchor="middle" x="74" y="-235.5" font-family="Helvetica,sans-Serif" font-size="10.00">Serializable</text>
</g>
<!-- Node4&#45;&gt;Node3 -->
<g id="edge3" class="edge"><title>Node4&#45;&gt;Node3</title>
<path fill="none" stroke="midnightblue" d="M74,-218.039C74,-204.852 74,-187.884 74,-177.757"/>
<polygon fill="midnightblue" stroke="midnightblue" points="70.5001,-218.388 74,-228.388 77.5001,-218.388 70.5001,-218.388"/>
</g>
<!-- Node5 -->
<g id="node5" class="node"><title>Node5</title>
<g id="a_node5"><a xlink:href="../../d4/d05/classcommands_1_1information_1_1_base_user_defined_container.html" target="_top" xlink:title="commands.information.Base\lUserDefinedContainer">
<polygon fill="white" stroke="black" points="275.5,-153 275.5,-183 430.5,-183 430.5,-153 275.5,-153"/>
<text text-anchor="start" x="283.5" y="-171" font-family="Helvetica,sans-Serif" font-size="10.00">commands.information.Base</text>
<text text-anchor="middle" x="353" y="-160" font-family="Helvetica,sans-Serif" font-size="10.00">UserDefinedContainer</text>
</a>
</g>
</g>
<!-- Node5&#45;&gt;Node2 -->
<g id="edge5" class="edge"><title>Node5&#45;&gt;Node2</title>
<path fill="none" stroke="#9a32cd" stroke-dasharray="5,2" d="M327.881,-146.542C307.994,-130.346 281.213,-108.534 266.6,-96.6331"/>
<polygon fill="#9a32cd" stroke="#9a32cd" points="325.694,-149.275 335.658,-152.876 330.115,-143.848 325.694,-149.275"/>
<text text-anchor="middle" x="362.5" y="-125.5" font-family="Helvetica,sans-Serif" font-size="10.00"> myVariableContainer</text>
</g>
<!-- Node6 -->
<g id="node6" class="node"><title>Node6</title>
<g id="a_node6"><a xlink:href="../../d4/d4e/interfacecommands_1_1information_1_1_i_information_container.html" target="_top" xlink:title="commands.information.IInformation\lContainer">
<polygon fill="white" stroke="black" points="259,-223 259,-253 447,-253 447,-223 259,-223"/>
<text text-anchor="start" x="267" y="-241" font-family="Helvetica,sans-Serif" font-size="10.00">commands.information.IInformation</text>
<text text-anchor="middle" x="353" y="-230" font-family="Helvetica,sans-Serif" font-size="10.00">Container</text>
</a>
</g>
</g>
<!-- Node6&#45;&gt;Node5 -->
<g id="edge6" class="edge"><title>Node6&#45;&gt;Node5</title>
<path fill="none" stroke="midnightblue" d="M353,-212.769C353,-202.814 353,-191.638 353,-183.072"/>
<polygon fill="midnightblue" stroke="midnightblue" points="349.5,-212.91 353,-222.91 356.5,-212.91 349.5,-212.91"/>
</g>
</g>
</svg>
