<?xml version="1.0" encoding="UTF-8" standalone="no"?>
<!DOCTYPE svg PUBLIC "-//W3C//DTD SVG 1.1//EN"
 "http://www.w3.org/Graphics/SVG/1.1/DTD/svg11.dtd">
<!-- Generated by graphviz version 2.36.0 (20140111.2315)
 -->
<!-- Title: View.ButtonTemplate.setStyle Pages: 1 -->
<svg width="354pt" height="136pt"
 viewBox="0.00 0.00 354.00 136.00" xmlns="http://www.w3.org/2000/svg" xmlns:xlink="http://www.w3.org/1999/xlink">
<g id="graph0" class="graph" transform="scale(1 1) rotate(0) translate(4 132)">
<title>View.ButtonTemplate.setStyle</title>
<polygon fill="white" stroke="none" points="-4,4 -4,-132 350,-132 350,4 -4,4"/>
<!-- Node1 -->
<g id="node1" class="node"><title>Node1</title>
<polygon fill="#bfbfbf" stroke="black" points="0,-54.5 0,-73.5 158,-73.5 158,-54.5 0,-54.5"/>
<text text-anchor="middle" x="79" y="-61.5" font-family="Helvetica,sans-Serif" font-size="10.00">View.ButtonTemplate.setStyle</text>
</g>
<!-- Node2 -->
<g id="node2" class="node"><title>Node2</title>
<g id="a_node2"><a xlink:href="../../d8/d2a/class_view_1_1_button_template.html#a4ec961c3666848bf1df1282f52642ee2" target="_top" xlink:title="View.ButtonTemplate.action\lOnMouseExit">
<polygon fill="white" stroke="black" points="195.5,-98 195.5,-128 344.5,-128 344.5,-98 195.5,-98"/>
<text text-anchor="start" x="203.5" y="-116" font-family="Helvetica,sans-Serif" font-size="10.00">View.ButtonTemplate.action</text>
<text text-anchor="middle" x="270" y="-105" font-family="Helvetica,sans-Serif" font-size="10.00">OnMouseExit</text>
</a>
</g>
</g>
<!-- Node1&#45;&gt;Node2 -->
<g id="edge1" class="edge"><title>Node1&#45;&gt;Node2</title>
<path fill="none" stroke="midnightblue" d="M126.678,-76.1018C152.159,-82.708 183.939,-90.9471 211,-97.963"/>
<polygon fill="midnightblue" stroke="midnightblue" points="127.448,-72.6857 116.89,-73.564 125.691,-79.4617 127.448,-72.6857"/>
</g>
<!-- Node3 -->
<g id="node3" class="node"><title>Node3</title>
<g id="a_node3"><a xlink:href="../../d8/d2a/class_view_1_1_button_template.html#aecb10bf57a7b3b25a5e60ae882def9a5" target="_top" xlink:title="View.ButtonTemplate.action\lOnMouseHover">
<polygon fill="white" stroke="black" points="195.5,-49 195.5,-79 344.5,-79 344.5,-49 195.5,-49"/>
<text text-anchor="start" x="203.5" y="-67" font-family="Helvetica,sans-Serif" font-size="10.00">View.ButtonTemplate.action</text>
<text text-anchor="middle" x="270" y="-56" font-family="Helvetica,sans-Serif" font-size="10.00">OnMouseHover</text>
</a>
</g>
</g>
<!-- Node1&#45;&gt;Node3 -->
<g id="edge2" class="edge"><title>Node1&#45;&gt;Node3</title>
<path fill="none" stroke="midnightblue" d="M168.385,-64C177.416,-64 186.522,-64 195.371,-64"/>
<polygon fill="midnightblue" stroke="midnightblue" points="168.238,-60.5001 158.238,-64 168.238,-67.5001 168.238,-60.5001"/>
</g>
<!-- Node4 -->
<g id="node4" class="node"><title>Node4</title>
<g id="a_node4"><a xlink:href="../../d8/d2a/class_view_1_1_button_template.html#afc72112f492d3a01828263e4bbd6e310" target="_top" xlink:title="View.ButtonTemplate.Button\lTemplate">
<polygon fill="white" stroke="black" points="194,-0 194,-30 346,-30 346,-0 194,-0"/>
<text text-anchor="start" x="202" y="-18" font-family="Helvetica,sans-Serif" font-size="10.00">View.ButtonTemplate.Button</text>
<text text-anchor="middle" x="270" y="-7" font-family="Helvetica,sans-Serif" font-size="10.00">Template</text>
</a>
</g>
</g>
<!-- Node1&#45;&gt;Node4 -->
<g id="edge3" class="edge"><title>Node1&#45;&gt;Node4</title>
<path fill="none" stroke="midnightblue" d="M126.678,-51.8982C152.159,-45.292 183.939,-37.0529 211,-30.037"/>
<polygon fill="midnightblue" stroke="midnightblue" points="125.691,-48.5383 116.89,-54.436 127.448,-55.3143 125.691,-48.5383"/>
</g>
</g>
</svg>
