<?xml version="1.0" encoding="UTF-8" standalone="no"?>
<!DOCTYPE svg PUBLIC "-//W3C//DTD SVG 1.1//EN"
 "http://www.w3.org/Graphics/SVG/1.1/DTD/svg11.dtd">
<!-- Generated by graphviz version 2.36.0 (20140111.2315)
 -->
<!-- Title: commands.controlCommands.ToCommand Pages: 1 -->
<svg width="172pt" height="208pt"
 viewBox="0.00 0.00 172.00 208.00" xmlns="http://www.w3.org/2000/svg" xmlns:xlink="http://www.w3.org/1999/xlink">
<g id="graph0" class="graph" transform="scale(1 1) rotate(0) translate(4 204)">
<title>commands.controlCommands.ToCommand</title>
<polygon fill="white" stroke="none" points="-4,4 -4,-204 168,-204 168,4 -4,4"/>
<!-- Node1 -->
<g id="node1" class="node"><title>Node1</title>
<polygon fill="#bfbfbf" stroke="black" points="-0.5,-1 -0.5,-31 164.5,-31 164.5,-1 -0.5,-1"/>
<text text-anchor="start" x="7.5" y="-19" font-family="Helvetica,sans-Serif" font-size="10.00">commands.controlCommands.</text>
<text text-anchor="middle" x="82" y="-8" font-family="Helvetica,sans-Serif" font-size="10.00">ToCommand</text>
</g>
<!-- Node2 -->
<g id="node2" class="node"><title>Node2</title>
<g id="a_node2"><a xlink:href="../../da/d8a/classcommands_1_1_control_command.html" target="_top" xlink:title="commands.ControlCommand">
<polygon fill="white" stroke="black" points="3,-68.5 3,-87.5 161,-87.5 161,-68.5 3,-68.5"/>
<text text-anchor="middle" x="82" y="-75.5" font-family="Helvetica,sans-Serif" font-size="10.00">commands.ControlCommand</text>
</a>
</g>
</g>
<!-- Node2&#45;&gt;Node1 -->
<g id="edge1" class="edge"><title>Node2&#45;&gt;Node1</title>
<path fill="none" stroke="midnightblue" d="M82,-58.3707C82,-49.5849 82,-39.2721 82,-31.1408"/>
<polygon fill="midnightblue" stroke="midnightblue" points="78.5001,-58.4034 82,-68.4035 85.5001,-58.4035 78.5001,-58.4034"/>
</g>
<!-- Node3 -->
<g id="node3" class="node"><title>Node3</title>
<g id="a_node3"><a xlink:href="../../da/d90/classcommands_1_1_base_command.html" target="_top" xlink:title="commands.BaseCommand">
<polygon fill="white" stroke="black" points="8,-124.5 8,-143.5 156,-143.5 156,-124.5 8,-124.5"/>
<text text-anchor="middle" x="82" y="-131.5" font-family="Helvetica,sans-Serif" font-size="10.00">commands.BaseCommand</text>
</a>
</g>
</g>
<!-- Node3&#45;&gt;Node2 -->
<g id="edge2" class="edge"><title>Node3&#45;&gt;Node2</title>
<path fill="none" stroke="midnightblue" d="M82,-113.805C82,-104.91 82,-94.7798 82,-87.7511"/>
<polygon fill="midnightblue" stroke="midnightblue" points="78.5001,-114.083 82,-124.083 85.5001,-114.083 78.5001,-114.083"/>
</g>
<!-- Node4 -->
<g id="node4" class="node"><title>Node4</title>
<polygon fill="white" stroke="#bfbfbf" points="46.5,-180.5 46.5,-199.5 117.5,-199.5 117.5,-180.5 46.5,-180.5"/>
<text text-anchor="middle" x="82" y="-187.5" font-family="Helvetica,sans-Serif" font-size="10.00">Serializable</text>
</g>
<!-- Node4&#45;&gt;Node3 -->
<g id="edge3" class="edge"><title>Node4&#45;&gt;Node3</title>
<path fill="none" stroke="midnightblue" d="M82,-169.805C82,-160.91 82,-150.78 82,-143.751"/>
<polygon fill="midnightblue" stroke="midnightblue" points="78.5001,-170.083 82,-180.083 85.5001,-170.083 78.5001,-170.083"/>
</g>
</g>
</svg>
