<?xml version="1.0" encoding="UTF-8" standalone="no"?>
<!DOCTYPE svg PUBLIC "-//W3C//DTD SVG 1.1//EN"
 "http://www.w3.org/Graphics/SVG/1.1/DTD/svg11.dtd">
<!-- Generated by graphviz version 2.36.0 (20140111.2315)
 -->
<!-- Title: turtle.Right.move Pages: 1 -->
<svg width="270pt" height="104pt"
 viewBox="0.00 0.00 270.00 104.00" xmlns="http://www.w3.org/2000/svg" xmlns:xlink="http://www.w3.org/1999/xlink">
<g id="graph0" class="graph" transform="scale(1 1) rotate(0) translate(4 100)">
<title>turtle.Right.move</title>
<polygon fill="white" stroke="none" points="-4,4 -4,-100 266,-100 266,4 -4,4"/>
<!-- Node1 -->
<g id="node1" class="node"><title>Node1</title>
<polygon fill="#bfbfbf" stroke="black" points="0.5,-38.5 0.5,-57.5 99.5,-57.5 99.5,-38.5 0.5,-38.5"/>
<text text-anchor="middle" x="50" y="-45.5" font-family="Helvetica,sans-Serif" font-size="10.00">turtle.Right.move</text>
</g>
<!-- Node2 -->
<g id="node2" class="node"><title>Node2</title>
<g id="a_node2"><a xlink:href="../../d1/dbe/classturtle_1_1_position.html#a1d079c846ce96bf1c57da388c46669e1" target="_top" xlink:title="turtle.Position.getXPos">
<polygon fill="white" stroke="black" points="136.5,-76.5 136.5,-95.5 261.5,-95.5 261.5,-76.5 136.5,-76.5"/>
<text text-anchor="middle" x="199" y="-83.5" font-family="Helvetica,sans-Serif" font-size="10.00">turtle.Position.getXPos</text>
</a>
</g>
</g>
<!-- Node1&#45;&gt;Node2 -->
<g id="edge1" class="edge"><title>Node1&#45;&gt;Node2</title>
<path fill="none" stroke="midnightblue" d="M88.0943,-57.589C107.318,-62.5583 130.986,-68.6767 151.429,-73.9613"/>
<polygon fill="midnightblue" stroke="midnightblue" points="150.615,-77.3657 161.172,-76.4799 152.367,-70.5885 150.615,-77.3657"/>
</g>
<!-- Node3 -->
<g id="node3" class="node"><title>Node3</title>
<g id="a_node3"><a xlink:href="../../d5/de7/jquery_8js.html#a2335e57f79b6acfb6de59c235dc8a83e" target="_top" xlink:title="p">
<polygon fill="white" stroke="black" points="184.5,-38.5 184.5,-57.5 213.5,-57.5 213.5,-38.5 184.5,-38.5"/>
<text text-anchor="middle" x="199" y="-45.5" font-family="Helvetica,sans-Serif" font-size="10.00">p</text>
</a>
</g>
</g>
<!-- Node1&#45;&gt;Node3 -->
<g id="edge2" class="edge"><title>Node1&#45;&gt;Node3</title>
<path fill="none" stroke="midnightblue" d="M99.5407,-48C124.661,-48 154.194,-48 174.317,-48"/>
<polygon fill="midnightblue" stroke="midnightblue" points="174.44,-51.5001 184.44,-48 174.44,-44.5001 174.44,-51.5001"/>
</g>
<!-- Node4 -->
<g id="node4" class="node"><title>Node4</title>
<g id="a_node4"><a xlink:href="../../d1/dbe/classturtle_1_1_position.html#af03c1c3b306f6c12d2ec52a00fde50eb" target="_top" xlink:title="turtle.Position.setXPos">
<polygon fill="white" stroke="black" points="137,-0.5 137,-19.5 261,-19.5 261,-0.5 137,-0.5"/>
<text text-anchor="middle" x="199" y="-7.5" font-family="Helvetica,sans-Serif" font-size="10.00">turtle.Position.setXPos</text>
</a>
</g>
</g>
<!-- Node1&#45;&gt;Node4 -->
<g id="edge3" class="edge"><title>Node1&#45;&gt;Node4</title>
<path fill="none" stroke="midnightblue" d="M88.0943,-38.411C107.318,-33.4417 130.986,-27.3233 151.429,-22.0387"/>
<polygon fill="midnightblue" stroke="midnightblue" points="152.367,-25.4115 161.172,-19.5201 150.615,-18.6343 152.367,-25.4115"/>
</g>
</g>
</svg>
