<?xml version="1.0" encoding="UTF-8" standalone="no"?>
<!DOCTYPE svg PUBLIC "-//W3C//DTD SVG 1.1//EN"
 "http://www.w3.org/Graphics/SVG/1.1/DTD/svg11.dtd">
<!-- Generated by graphviz version 2.36.0 (20140111.2315)
 -->
<!-- Title: commands.viewQueries.ShowingQuery Pages: 1 -->
<svg width="180pt" height="264pt"
 viewBox="0.00 0.00 180.00 264.00" xmlns="http://www.w3.org/2000/svg" xmlns:xlink="http://www.w3.org/1999/xlink">
<g id="graph0" class="graph" transform="scale(1 1) rotate(0) translate(4 260)">
<title>commands.viewQueries.ShowingQuery</title>
<polygon fill="white" stroke="none" points="-4,4 -4,-260 176,-260 176,4 -4,4"/>
<!-- Node1 -->
<g id="node1" class="node"><title>Node1</title>
<polygon fill="#bfbfbf" stroke="black" points="-0.5,-1 -0.5,-31 172.5,-31 172.5,-1 -0.5,-1"/>
<text text-anchor="start" x="7.5" y="-19" font-family="Helvetica,sans-Serif" font-size="10.00">commands.viewQueries.Showing</text>
<text text-anchor="middle" x="86" y="-8" font-family="Helvetica,sans-Serif" font-size="10.00">Query</text>
</g>
<!-- Node2 -->
<g id="node2" class="node"><title>Node2</title>
<g id="a_node2"><a xlink:href="../../d1/de4/classcommands_1_1_view_query.html" target="_top" xlink:title="commands.ViewQuery">
<polygon fill="white" stroke="black" points="24,-68.5 24,-87.5 148,-87.5 148,-68.5 24,-68.5"/>
<text text-anchor="middle" x="86" y="-75.5" font-family="Helvetica,sans-Serif" font-size="10.00">commands.ViewQuery</text>
</a>
</g>
</g>
<!-- Node2&#45;&gt;Node1 -->
<g id="edge1" class="edge"><title>Node2&#45;&gt;Node1</title>
<path fill="none" stroke="midnightblue" d="M86,-58.3707C86,-49.5849 86,-39.2721 86,-31.1408"/>
<polygon fill="midnightblue" stroke="midnightblue" points="82.5001,-58.4034 86,-68.4035 89.5001,-58.4035 82.5001,-58.4034"/>
</g>
<!-- Node3 -->
<g id="node3" class="node"><title>Node3</title>
<g id="a_node3"><a xlink:href="../../de/d53/classcommands_1_1_view_command.html" target="_top" xlink:title="commands.ViewCommand">
<polygon fill="white" stroke="black" points="13,-124.5 13,-143.5 159,-143.5 159,-124.5 13,-124.5"/>
<text text-anchor="middle" x="86" y="-131.5" font-family="Helvetica,sans-Serif" font-size="10.00">commands.ViewCommand</text>
</a>
</g>
</g>
<!-- Node3&#45;&gt;Node2 -->
<g id="edge2" class="edge"><title>Node3&#45;&gt;Node2</title>
<path fill="none" stroke="midnightblue" d="M86,-113.805C86,-104.91 86,-94.7798 86,-87.7511"/>
<polygon fill="midnightblue" stroke="midnightblue" points="82.5001,-114.083 86,-124.083 89.5001,-114.083 82.5001,-114.083"/>
</g>
<!-- Node4 -->
<g id="node4" class="node"><title>Node4</title>
<g id="a_node4"><a xlink:href="../../da/d90/classcommands_1_1_base_command.html" target="_top" xlink:title="commands.BaseCommand">
<polygon fill="white" stroke="black" points="12,-180.5 12,-199.5 160,-199.5 160,-180.5 12,-180.5"/>
<text text-anchor="middle" x="86" y="-187.5" font-family="Helvetica,sans-Serif" font-size="10.00">commands.BaseCommand</text>
</a>
</g>
</g>
<!-- Node4&#45;&gt;Node3 -->
<g id="edge3" class="edge"><title>Node4&#45;&gt;Node3</title>
<path fill="none" stroke="midnightblue" d="M86,-169.805C86,-160.91 86,-150.78 86,-143.751"/>
<polygon fill="midnightblue" stroke="midnightblue" points="82.5001,-170.083 86,-180.083 89.5001,-170.083 82.5001,-170.083"/>
</g>
<!-- Node5 -->
<g id="node5" class="node"><title>Node5</title>
<polygon fill="white" stroke="#bfbfbf" points="50.5,-236.5 50.5,-255.5 121.5,-255.5 121.5,-236.5 50.5,-236.5"/>
<text text-anchor="middle" x="86" y="-243.5" font-family="Helvetica,sans-Serif" font-size="10.00">Serializable</text>
</g>
<!-- Node5&#45;&gt;Node4 -->
<g id="edge4" class="edge"><title>Node5&#45;&gt;Node4</title>
<path fill="none" stroke="midnightblue" d="M86,-225.805C86,-216.91 86,-206.78 86,-199.751"/>
<polygon fill="midnightblue" stroke="midnightblue" points="82.5001,-226.083 86,-236.083 89.5001,-226.083 82.5001,-226.083"/>
</g>
</g>
</svg>
