<?xml version="1.0" encoding="UTF-8" standalone="no"?>
<!DOCTYPE svg PUBLIC "-//W3C//DTD SVG 1.1//EN"
 "http://www.w3.org/Graphics/SVG/1.1/DTD/svg11.dtd">
<!-- Generated by graphviz version 2.36.0 (20140111.2315)
 -->
<!-- Title: TableInformation.VariableTable Pages: 1 -->
<svg width="387pt" height="130pt"
 viewBox="0.00 0.00 387.00 130.00" xmlns="http://www.w3.org/2000/svg" xmlns:xlink="http://www.w3.org/1999/xlink">
<g id="graph0" class="graph" transform="scale(1 1) rotate(0) translate(4 126)">
<title>TableInformation.VariableTable</title>
<polygon fill="white" stroke="none" points="-4,4 -4,-126 383,-126 383,4 -4,4"/>
<!-- Node1 -->
<g id="node1" class="node"><title>Node1</title>
<polygon fill="#bfbfbf" stroke="black" points="115.5,-1 115.5,-31 252.5,-31 252.5,-1 115.5,-1"/>
<text text-anchor="start" x="123.5" y="-19" font-family="Helvetica,sans-Serif" font-size="10.00">TableInformation.Variable</text>
<text text-anchor="middle" x="184" y="-8" font-family="Helvetica,sans-Serif" font-size="10.00">Table</text>
</g>
<!-- Node2 -->
<g id="node2" class="node"><title>Node2</title>
<polygon fill="white" stroke="#bfbfbf" points="0,-96.5 0,-115.5 40,-115.5 40,-96.5 0,-96.5"/>
<text text-anchor="middle" x="20" y="-103.5" font-family="Helvetica,sans-Serif" font-size="10.00">Pane</text>
</g>
<!-- Node2&#45;&gt;Node1 -->
<g id="edge1" class="edge"><title>Node2&#45;&gt;Node1</title>
<path fill="none" stroke="midnightblue" d="M45.1401,-91.5102C75.6108,-75.1601 126.714,-47.7389 157.698,-31.1132"/>
<polygon fill="midnightblue" stroke="midnightblue" points="43.1803,-88.5897 36.0236,-96.402 46.4901,-94.7578 43.1803,-88.5897"/>
</g>
<!-- Node3 -->
<g id="node3" class="node"><title>Node3</title>
<polygon fill="white" stroke="#bfbfbf" points="58.5,-91 58.5,-121 193.5,-121 193.5,-91 58.5,-91"/>
<text text-anchor="start" x="66.5" y="-109" font-family="Helvetica,sans-Serif" font-size="10.00">ArrayList&lt; GUIFunctions.</text>
<text text-anchor="middle" x="126" y="-98" font-family="Helvetica,sans-Serif" font-size="10.00">UserInput &gt;</text>
</g>
<!-- Node3&#45;&gt;Node1 -->
<g id="edge2" class="edge"><title>Node3&#45;&gt;Node1</title>
<path fill="none" stroke="#9a32cd" stroke-dasharray="5,2" d="M138.016,-81.6243C143.439,-71.6437 150.158,-60.0125 157,-50 161.427,-43.5217 166.817,-36.7504 171.614,-31.0396"/>
<polygon fill="#9a32cd" stroke="#9a32cd" points="134.858,-80.1085 133.251,-90.5808 141.038,-83.3962 134.858,-80.1085"/>
<text text-anchor="middle" x="189" y="-64" font-family="Helvetica,sans-Serif" font-size="10.00"> myFunctions</text>
<text text-anchor="middle" x="189" y="-53" font-family="Helvetica,sans-Serif" font-size="10.00">myVariables</text>
</g>
<!-- Node4 -->
<g id="node4" class="node"><title>Node4</title>
<polygon fill="white" stroke="#bfbfbf" points="212,-96.5 212,-115.5 274,-115.5 274,-96.5 212,-96.5"/>
<text text-anchor="middle" x="243" y="-103.5" font-family="Helvetica,sans-Serif" font-size="10.00">TableView</text>
</g>
<!-- Node4&#45;&gt;Node1 -->
<g id="edge3" class="edge"><title>Node4&#45;&gt;Node1</title>
<path fill="none" stroke="#9a32cd" stroke-dasharray="5,2" d="M237.989,-86.5763C234.387,-75.3602 228.785,-61.1033 221,-50 216.157,-43.0933 209.6,-36.6386 203.351,-31.3019"/>
<polygon fill="#9a32cd" stroke="#9a32cd" points="234.642,-87.6004 240.836,-96.1959 241.354,-85.6137 234.642,-87.6004"/>
<text text-anchor="middle" x="256.5" y="-64" font-family="Helvetica,sans-Serif" font-size="10.00"> functions</text>
<text text-anchor="middle" x="256.5" y="-53" font-family="Helvetica,sans-Serif" font-size="10.00">variables</text>
</g>
<!-- Node5 -->
<g id="node5" class="node"><title>Node5</title>
<polygon fill="white" stroke="#bfbfbf" points="292,-96.5 292,-115.5 360,-115.5 360,-96.5 292,-96.5"/>
<text text-anchor="middle" x="326" y="-103.5" font-family="Helvetica,sans-Serif" font-size="10.00">Dimension</text>
</g>
<!-- Node5&#45;&gt;Node1 -->
<g id="edge4" class="edge"><title>Node5&#45;&gt;Node1</title>
<path fill="none" stroke="#9a32cd" stroke-dasharray="5,2" d="M316.456,-87.4818C309.052,-75.3901 297.747,-59.7866 284,-50 272.681,-41.9418 259.269,-35.7597 246.005,-31.05"/>
<polygon fill="#9a32cd" stroke="#9a32cd" points="313.492,-89.3468 321.531,-96.248 319.55,-85.8399 313.492,-89.3468"/>
<text text-anchor="middle" x="342.5" y="-58.5" font-family="Helvetica,sans-Serif" font-size="10.00"> DEFAULT_SIZE</text>
</g>
</g>
</svg>
