<?xml version="1.0" encoding="UTF-8" standalone="no"?>
<!DOCTYPE svg PUBLIC "-//W3C//DTD SVG 1.1//EN"
 "http://www.w3.org/Graphics/SVG/1.1/DTD/svg11.dtd">
<!-- Generated by graphviz version 2.36.0 (20140111.2315)
 -->
<!-- Title: TableInformation.TurtleVariablesTable.setColumnEditable Pages: 1 -->
<!--zoomable 337 -->
<svg id="main" version="1.1" xmlns="http://www.w3.org/2000/svg" xmlns:xlink="http://www.w3.org/1999/xlink" xml:space="preserve" onload="init(evt)">
<style type="text/css"><![CDATA[
.edge:hover path { stroke: red; }
.edge:hover polygon { stroke: red; fill: red; }
]]></style>
<script type="text/javascript"><![CDATA[
var edges = document.getElementsByTagName('g');
if (edges && edges.length) {
  for (var i=0;i<edges.length;i++) {
    if (edges[i].id.substr(0,4)=='edge') {
      edges[i].setAttribute('class','edge');
    }
  }
}
]]></script>
        <defs>
                <circle id="rim" cx="0" cy="0" r="7"/>
                <circle id="rim2" cx="0" cy="0" r="3.5"/>
                <g id="zoomPlus">
                        <use xlink:href="#rim" fill="#404040">
                                <set attributeName="fill" to="#808080" begin="zoomplus.mouseover" end="zoomplus.mouseout"/>
                        </use>
                        <path d="M-4,0h8M0,-4v8" fill="none" stroke="white" stroke-width="1.5" pointer-events="none"/>
                </g>
                <g id="zoomMin">
                        <use xlink:href="#rim" fill="#404040">
                                <set attributeName="fill" to="#808080" begin="zoomminus.mouseover" end="zoomminus.mouseout"/>
                        </use>
                        <path d="M-4,0h8" fill="none" stroke="white" stroke-width="1.5" pointer-events="none"/>
                </g>
                <g id="dirArrow">
                        <path fill="none" stroke="white" stroke-width="1.5" d="M0,-3.0v7 M-2.5,-0.5L0,-3.0L2.5,-0.5"/>
                </g>
               <g id="resetDef">
                       <use xlink:href="#rim2" fill="#404040">
                               <set attributeName="fill" to="#808080" begin="reset.mouseover" end="reset.mouseout"/>
                       </use>
               </g>
        </defs>

<script type="text/javascript">
var viewWidth = 1290;
var viewHeight = 337;
var sectionId = 'dynsection-8';
</script>
<script xlink:href="../../svgpan.js"/>
<svg id="graph" class="graph">
<g id="viewport">
<title>TableInformation.TurtleVariablesTable.setColumnEditable</title>
<polygon fill="white" stroke="none" points="-4,4 -4,-333 1286,-333 1286,4 -4,4"/>
<!-- Node1 -->
<g id="node1" class="node"><title>Node1</title>
<polygon fill="#bfbfbf" stroke="black" points="0.5,-162 0.5,-192 167.5,-192 167.5,-162 0.5,-162"/>
<text text-anchor="start" x="8.5" y="-180" font-family="Helvetica,sans-Serif" font-size="10.00">TableInformation.TurtleVariables</text>
<text text-anchor="middle" x="84" y="-169" font-family="Helvetica,sans-Serif" font-size="10.00">Table.setColumnEditable</text>
</g>
<!-- Node2 -->
<g id="node2" class="node"><title>Node2</title>
<g id="a_node2"><a xlink:href="../../d3/d42/class_table_information_1_1_turtle_variables_table.html#a12ef059be78468fe0f09b5bf41d11d4c" target="_top" xlink:title="TableInformation.TurtleVariables\lTable.moveTurtle">
<polygon fill="white" stroke="black" points="204.5,-162 204.5,-192 371.5,-192 371.5,-162 204.5,-162"/>
<text text-anchor="start" x="212.5" y="-180" font-family="Helvetica,sans-Serif" font-size="10.00">TableInformation.TurtleVariables</text>
<text text-anchor="middle" x="288" y="-169" font-family="Helvetica,sans-Serif" font-size="10.00">Table.moveTurtle</text>
</a>
</g>
</g>
<!-- Node1&#45;&gt;Node2 -->
<g id="edge1" class="edge"><title>Node1&#45;&gt;Node2</title>
<path fill="none" stroke="midnightblue" d="M167.744,-177C176.437,-177 185.316,-177 194.112,-177"/>
<polygon fill="midnightblue" stroke="midnightblue" points="194.385,-180.5 204.385,-177 194.385,-173.5 194.385,-180.5"/>
</g>
<!-- Node3 -->
<g id="node3" class="node"><title>Node3</title>
<g id="a_node3"><a xlink:href="../../df/dc5/class_table_information_1_1_column.html#abda874c5e4fbe461f9f16331fe71a036" target="_top" xlink:title="TableInformation.Column.do\lEditingFunction">
<polygon fill="white" stroke="black" points="408,-211 408,-241 558,-241 558,-211 408,-211"/>
<text text-anchor="start" x="416" y="-229" font-family="Helvetica,sans-Serif" font-size="10.00">TableInformation.Column.do</text>
<text text-anchor="middle" x="483" y="-218" font-family="Helvetica,sans-Serif" font-size="10.00">EditingFunction</text>
</a>
</g>
</g>
<!-- Node2&#45;&gt;Node3 -->
<g id="edge2" class="edge"><title>Node2&#45;&gt;Node3</title>
<path fill="none" stroke="midnightblue" d="M348.218,-192.035C368.689,-197.232 391.804,-203.101 412.991,-208.48"/>
<polygon fill="midnightblue" stroke="midnightblue" points="412.34,-211.925 422.894,-210.994 414.063,-205.141 412.34,-211.925"/>
</g>
<!-- Node4 -->
<g id="node4" class="node"><title>Node4</title>
<g id="a_node4"><a xlink:href="../../d9/db1/class_view_1_1_single_grid.html#a63dce7bacaea4b387aeef30975ad678b" target="_top" xlink:title="View.SingleGrid.getActive\lTurtles">
<polygon fill="white" stroke="black" points="414.5,-162 414.5,-192 551.5,-192 551.5,-162 414.5,-162"/>
<text text-anchor="start" x="422.5" y="-180" font-family="Helvetica,sans-Serif" font-size="10.00">View.SingleGrid.getActive</text>
<text text-anchor="middle" x="483" y="-169" font-family="Helvetica,sans-Serif" font-size="10.00">Turtles</text>
</a>
</g>
</g>
<!-- Node2&#45;&gt;Node4 -->
<g id="edge3" class="edge"><title>Node2&#45;&gt;Node4</title>
<path fill="none" stroke="midnightblue" d="M371.689,-177C382.466,-177 393.478,-177 404.172,-177"/>
<polygon fill="midnightblue" stroke="midnightblue" points="404.309,-180.5 414.309,-177 404.309,-173.5 404.309,-180.5"/>
</g>
<!-- Node5 -->
<g id="node5" class="node"><title>Node5</title>
<g id="a_node5"><a xlink:href="../../d9/db1/class_view_1_1_single_grid.html#aa718e560e84ad31be3e046029d0226ab" target="_top" xlink:title="View.SingleGrid.update">
<polygon fill="white" stroke="black" points="420,-123.5 420,-142.5 546,-142.5 546,-123.5 420,-123.5"/>
<text text-anchor="middle" x="483" y="-130.5" font-family="Helvetica,sans-Serif" font-size="10.00">View.SingleGrid.update</text>
</a>
</g>
</g>
<!-- Node2&#45;&gt;Node5 -->
<g id="edge4" class="edge"><title>Node2&#45;&gt;Node5</title>
<path fill="none" stroke="midnightblue" d="M354.88,-161.981C379.517,-156.364 407.125,-150.07 430.301,-144.786"/>
<polygon fill="midnightblue" stroke="midnightblue" points="431.303,-148.148 440.275,-142.512 429.747,-141.323 431.303,-148.148"/>
</g>
<!-- Node6 -->
<g id="node6" class="node"><title>Node6</title>
<g id="a_node6"><a xlink:href="../../d9/db1/class_view_1_1_single_grid.html#a9093eac50d88370f86cb4757b996210e" target="_top" xlink:title="View.SingleGrid.keepTurtle\lInBounds">
<polygon fill="white" stroke="black" points="596.5,-147 596.5,-177 737.5,-177 737.5,-147 596.5,-147"/>
<text text-anchor="start" x="604.5" y="-165" font-family="Helvetica,sans-Serif" font-size="10.00">View.SingleGrid.keepTurtle</text>
<text text-anchor="middle" x="667" y="-154" font-family="Helvetica,sans-Serif" font-size="10.00">InBounds</text>
</a>
</g>
</g>
<!-- Node5&#45;&gt;Node6 -->
<g id="edge5" class="edge"><title>Node5&#45;&gt;Node6</title>
<path fill="none" stroke="midnightblue" d="M543.846,-142.536C557.352,-144.688 571.899,-147.006 586.082,-149.266"/>
<polygon fill="midnightblue" stroke="midnightblue" points="585.898,-152.781 596.324,-150.898 587,-145.868 585.898,-152.781"/>
</g>
<!-- Node22 -->
<g id="node22" class="node"><title>Node22</title>
<g id="a_node22"><a xlink:href="../../d9/db1/class_view_1_1_single_grid.html#a7fced187abf44b802950675ee590f493" target="_top" xlink:title="View.SingleGrid.moveTurtle">
<polygon fill="white" stroke="black" points="594.5,-66.5 594.5,-85.5 739.5,-85.5 739.5,-66.5 594.5,-66.5"/>
<text text-anchor="middle" x="667" y="-73.5" font-family="Helvetica,sans-Serif" font-size="10.00">View.SingleGrid.moveTurtle</text>
</a>
</g>
</g>
<!-- Node5&#45;&gt;Node22 -->
<g id="edge23" class="edge"><title>Node5&#45;&gt;Node22</title>
<path fill="none" stroke="midnightblue" d="M514.463,-123.459C544.909,-113.924 591.902,-99.2064 625.481,-88.6901"/>
<polygon fill="midnightblue" stroke="midnightblue" points="626.941,-91.9005 635.438,-85.5716 624.849,-85.2204 626.941,-91.9005"/>
</g>
<!-- Node7 -->
<g id="node7" class="node"><title>Node7</title>
<g id="a_node7"><a xlink:href="../../df/dcb/classturtle_1_1_turtle.html#a0b8bdf8fc097cab5bf51d46567c2d749" target="_top" xlink:title="turtle.Turtle.getPen">
<polygon fill="white" stroke="black" points="794.5,-228.5 794.5,-247.5 901.5,-247.5 901.5,-228.5 794.5,-228.5"/>
<text text-anchor="middle" x="848" y="-235.5" font-family="Helvetica,sans-Serif" font-size="10.00">turtle.Turtle.getPen</text>
</a>
</g>
</g>
<!-- Node6&#45;&gt;Node7 -->
<g id="edge6" class="edge"><title>Node6&#45;&gt;Node7</title>
<path fill="none" stroke="midnightblue" d="M692.559,-177.005C713.975,-189.585 746.194,-207.317 776,-219 782.226,-221.44 788.878,-223.678 795.521,-225.693"/>
<polygon fill="midnightblue" stroke="midnightblue" points="794.619,-229.075 805.197,-228.485 796.559,-222.35 794.619,-229.075"/>
</g>
<!-- Node8 -->
<g id="node8" class="node"><title>Node8</title>
<g id="a_node8"><a xlink:href="../../dc/d19/class_view_1_1_pen.html#a837537c2d8cd3a98e918a3ab6d72ebd9" target="_top" xlink:title="View.Pen.getPenDown">
<polygon fill="white" stroke="black" points="787,-190.5 787,-209.5 909,-209.5 909,-190.5 787,-190.5"/>
<text text-anchor="middle" x="848" y="-197.5" font-family="Helvetica,sans-Serif" font-size="10.00">View.Pen.getPenDown</text>
</a>
</g>
</g>
<!-- Node6&#45;&gt;Node8 -->
<g id="edge7" class="edge"><title>Node6&#45;&gt;Node8</title>
<path fill="none" stroke="midnightblue" d="M737.719,-176.801C755.854,-180.651 775.129,-184.743 792.362,-188.401"/>
<polygon fill="midnightblue" stroke="midnightblue" points="791.739,-191.846 802.247,-190.499 793.192,-184.999 791.739,-191.846"/>
</g>
<!-- Node9 -->
<g id="node9" class="node"><title>Node9</title>
<g id="a_node9"><a xlink:href="../../dc/d19/class_view_1_1_pen.html#a8709e1eb5749d8575a4ba9a26acffa0f" target="_top" xlink:title="View.Pen.setPenDown">
<polygon fill="white" stroke="black" points="787.5,-152.5 787.5,-171.5 908.5,-171.5 908.5,-152.5 787.5,-152.5"/>
<text text-anchor="middle" x="848" y="-159.5" font-family="Helvetica,sans-Serif" font-size="10.00">View.Pen.setPenDown</text>
</a>
</g>
</g>
<!-- Node6&#45;&gt;Node9 -->
<g id="edge8" class="edge"><title>Node6&#45;&gt;Node9</title>
<path fill="none" stroke="midnightblue" d="M737.719,-162C750.654,-162 764.17,-162 777.11,-162"/>
<polygon fill="midnightblue" stroke="midnightblue" points="777.343,-165.5 787.343,-162 777.343,-158.5 777.343,-165.5"/>
</g>
<!-- Node10 -->
<g id="node10" class="node"><title>Node10</title>
<g id="a_node10"><a xlink:href="../../df/dcb/classturtle_1_1_turtle.html#aa576ade68e2f453b037ea2a3c456d466" target="_top" xlink:title="turtle.Turtle.getXPos">
<polygon fill="white" stroke="black" points="791.5,-114.5 791.5,-133.5 904.5,-133.5 904.5,-114.5 791.5,-114.5"/>
<text text-anchor="middle" x="848" y="-121.5" font-family="Helvetica,sans-Serif" font-size="10.00">turtle.Turtle.getXPos</text>
</a>
</g>
</g>
<!-- Node6&#45;&gt;Node10 -->
<g id="edge9" class="edge"><title>Node6&#45;&gt;Node10</title>
<path fill="none" stroke="midnightblue" d="M737.719,-147.199C755.854,-143.349 775.129,-139.257 792.362,-135.599"/>
<polygon fill="midnightblue" stroke="midnightblue" points="793.192,-139.001 802.247,-133.501 791.739,-132.154 793.192,-139.001"/>
</g>
<!-- Node12 -->
<g id="node12" class="node"><title>Node12</title>
<g id="a_node12"><a xlink:href="../../df/dcb/classturtle_1_1_turtle.html#a5db281fc734edd965ff0faddbab871d7" target="_top" xlink:title="turtle.Turtle.setXPos">
<polygon fill="white" stroke="black" points="792,-76.5 792,-95.5 904,-95.5 904,-76.5 792,-76.5"/>
<text text-anchor="middle" x="848" y="-83.5" font-family="Helvetica,sans-Serif" font-size="10.00">turtle.Turtle.setXPos</text>
</a>
</g>
</g>
<!-- Node6&#45;&gt;Node12 -->
<g id="edge11" class="edge"><title>Node6&#45;&gt;Node12</title>
<path fill="none" stroke="midnightblue" d="M692.559,-146.995C713.975,-134.415 746.194,-116.683 776,-105 782.226,-102.56 788.878,-100.322 795.521,-98.307"/>
<polygon fill="midnightblue" stroke="midnightblue" points="796.559,-101.65 805.197,-95.5154 794.619,-94.9247 796.559,-101.65"/>
</g>
<!-- Node16 -->
<g id="node16" class="node"><title>Node16</title>
<g id="a_node16"><a xlink:href="../../dc/d19/class_view_1_1_pen.html#a9baa63a91f8cd62a806147fdeaf44865" target="_top" xlink:title="View.Pen.drawLine">
<polygon fill="white" stroke="black" points="796,-304.5 796,-323.5 900,-323.5 900,-304.5 796,-304.5"/>
<text text-anchor="middle" x="848" y="-311.5" font-family="Helvetica,sans-Serif" font-size="10.00">View.Pen.drawLine</text>
</a>
</g>
</g>
<!-- Node6&#45;&gt;Node16 -->
<g id="edge16" class="edge"><title>Node6&#45;&gt;Node16</title>
<path fill="none" stroke="midnightblue" d="M676.132,-177.392C691.673,-205.272 728.328,-264.098 776,-295 779.185,-297.065 782.589,-298.906 786.118,-300.549"/>
<polygon fill="midnightblue" stroke="midnightblue" points="785.104,-303.915 795.685,-304.447 787.745,-297.432 785.104,-303.915"/>
</g>
<!-- Node19 -->
<g id="node19" class="node"><title>Node19</title>
<g id="a_node19"><a xlink:href="../../df/dcb/classturtle_1_1_turtle.html#a735b5aa0bce5a53d2c75322fb2ad9130" target="_top" xlink:title="turtle.Turtle.getYPos">
<polygon fill="white" stroke="black" points="792,-38.5 792,-57.5 904,-57.5 904,-38.5 792,-38.5"/>
<text text-anchor="middle" x="848" y="-45.5" font-family="Helvetica,sans-Serif" font-size="10.00">turtle.Turtle.getYPos</text>
</a>
</g>
</g>
<!-- Node6&#45;&gt;Node19 -->
<g id="edge19" class="edge"><title>Node6&#45;&gt;Node19</title>
<path fill="none" stroke="midnightblue" d="M684.622,-146.625C712.258,-121.177 765.652,-72.5387 776,-67 780.275,-64.7118 784.845,-62.6842 789.529,-60.8903"/>
<polygon fill="midnightblue" stroke="midnightblue" points="790.938,-64.1062 799.244,-57.5278 788.649,-57.4912 790.938,-64.1062"/>
</g>
<!-- Node20 -->
<g id="node20" class="node"><title>Node20</title>
<g id="a_node20"><a xlink:href="../../df/dcb/classturtle_1_1_turtle.html#a1107426e66ec049d5e3d1c1783a463db" target="_top" xlink:title="turtle.Turtle.setYPos">
<polygon fill="white" stroke="black" points="792.5,-266.5 792.5,-285.5 903.5,-285.5 903.5,-266.5 792.5,-266.5"/>
<text text-anchor="middle" x="848" y="-273.5" font-family="Helvetica,sans-Serif" font-size="10.00">turtle.Turtle.setYPos</text>
</a>
</g>
</g>
<!-- Node6&#45;&gt;Node20 -->
<g id="edge21" class="edge"><title>Node6&#45;&gt;Node20</title>
<path fill="none" stroke="midnightblue" d="M681.055,-177.242C699.906,-198.289 736.811,-236.024 776,-257 780.275,-259.288 784.845,-261.316 789.529,-263.11"/>
<polygon fill="midnightblue" stroke="midnightblue" points="788.649,-266.509 799.244,-266.472 790.938,-259.894 788.649,-266.509"/>
</g>
<!-- Node11 -->
<g id="node11" class="node"><title>Node11</title>
<g id="a_node11"><a xlink:href="../../d1/dbe/classturtle_1_1_position.html#a1d079c846ce96bf1c57da388c46669e1" target="_top" xlink:title="turtle.Position.getXPos">
<polygon fill="white" stroke="black" points="959.5,-114.5 959.5,-133.5 1084.5,-133.5 1084.5,-114.5 959.5,-114.5"/>
<text text-anchor="middle" x="1022" y="-121.5" font-family="Helvetica,sans-Serif" font-size="10.00">turtle.Position.getXPos</text>
</a>
</g>
</g>
<!-- Node10&#45;&gt;Node11 -->
<g id="edge10" class="edge"><title>Node10&#45;&gt;Node11</title>
<path fill="none" stroke="midnightblue" d="M904.843,-124C919.03,-124 934.47,-124 949.324,-124"/>
<polygon fill="midnightblue" stroke="midnightblue" points="949.49,-127.5 959.49,-124 949.49,-120.5 949.49,-127.5"/>
</g>
<!-- Node12&#45;&gt;Node11 -->
<g id="edge13" class="edge"><title>Node12&#45;&gt;Node11</title>
<path fill="none" stroke="midnightblue" d="M892.403,-95.589C915.407,-100.671 943.851,-106.955 968.134,-112.32"/>
<polygon fill="midnightblue" stroke="midnightblue" points="967.39,-115.74 977.909,-114.48 968.9,-108.905 967.39,-115.74"/>
</g>
<!-- Node13 -->
<g id="node13" class="node"><title>Node13</title>
<g id="a_node13"><a xlink:href="../../d1/dbe/classturtle_1_1_position.html#af03c1c3b306f6c12d2ec52a00fde50eb" target="_top" xlink:title="turtle.Position.setXPos">
<polygon fill="white" stroke="black" points="960,-76.5 960,-95.5 1084,-95.5 1084,-76.5 960,-76.5"/>
<text text-anchor="middle" x="1022" y="-83.5" font-family="Helvetica,sans-Serif" font-size="10.00">turtle.Position.setXPos</text>
</a>
</g>
</g>
<!-- Node12&#45;&gt;Node13 -->
<g id="edge12" class="edge"><title>Node12&#45;&gt;Node13</title>
<path fill="none" stroke="midnightblue" d="M904.369,-86C918.731,-86 934.405,-86 949.469,-86"/>
<polygon fill="midnightblue" stroke="midnightblue" points="949.777,-89.5001 959.776,-86 949.776,-82.5001 949.777,-89.5001"/>
</g>
<!-- Node14 -->
<g id="node14" class="node"><title>Node14</title>
<g id="a_node14"><a xlink:href="../../d1/dbe/classturtle_1_1_position.html#a3a68708e4dc3290c4ef0ecd511cc8c1f" target="_top" xlink:title="turtle.Position.getYPos">
<polygon fill="white" stroke="black" points="960,-38.5 960,-57.5 1084,-57.5 1084,-38.5 960,-38.5"/>
<text text-anchor="middle" x="1022" y="-45.5" font-family="Helvetica,sans-Serif" font-size="10.00">turtle.Position.getYPos</text>
</a>
</g>
</g>
<!-- Node12&#45;&gt;Node14 -->
<g id="edge14" class="edge"><title>Node12&#45;&gt;Node14</title>
<path fill="none" stroke="midnightblue" d="M892.403,-76.411C915.407,-71.3287 943.851,-65.0446 968.134,-59.6797"/>
<polygon fill="midnightblue" stroke="midnightblue" points="968.9,-63.095 977.909,-57.5201 967.39,-56.2598 968.9,-63.095"/>
</g>
<!-- Node15 -->
<g id="node15" class="node"><title>Node15</title>
<g id="a_node15"><a xlink:href="../../d1/dbe/classturtle_1_1_position.html#a7bfd27ea2bf5e22d8de4a4e87b4df2ec" target="_top" xlink:title="turtle.Position.getRotate">
<polygon fill="white" stroke="black" points="956,-0.5 956,-19.5 1088,-19.5 1088,-0.5 956,-0.5"/>
<text text-anchor="middle" x="1022" y="-7.5" font-family="Helvetica,sans-Serif" font-size="10.00">turtle.Position.getRotate</text>
</a>
</g>
</g>
<!-- Node12&#45;&gt;Node15 -->
<g id="edge15" class="edge"><title>Node12&#45;&gt;Node15</title>
<path fill="none" stroke="midnightblue" d="M898.932,-76.4037C906.273,-73.936 913.531,-70.8509 920,-67 939.991,-55.0999 936.147,-41.1283 956,-29 959.555,-26.828 963.372,-24.8932 967.309,-23.1716"/>
<polygon fill="midnightblue" stroke="midnightblue" points="968.604,-26.4235 976.65,-19.5302 966.061,-19.9016 968.604,-26.4235"/>
</g>
<!-- Node17 -->
<g id="node17" class="node"><title>Node17</title>
<g id="a_node17"><a xlink:href="../../dc/d19/class_view_1_1_pen.html#ad2b5fd226e4003bbb48f13018bc72916" target="_top" xlink:title="View.Pen.setLineStyle">
<polygon fill="white" stroke="black" points="962,-304.5 962,-323.5 1082,-323.5 1082,-304.5 962,-304.5"/>
<text text-anchor="middle" x="1022" y="-311.5" font-family="Helvetica,sans-Serif" font-size="10.00">View.Pen.setLineStyle</text>
</a>
</g>
</g>
<!-- Node16&#45;&gt;Node17 -->
<g id="edge17" class="edge"><title>Node16&#45;&gt;Node17</title>
<path fill="none" stroke="midnightblue" d="M900.14,-314C916.365,-314 934.582,-314 951.855,-314"/>
<polygon fill="midnightblue" stroke="midnightblue" points="951.894,-317.5 961.894,-314 951.894,-310.5 951.894,-317.5"/>
</g>
<!-- Node18 -->
<g id="node18" class="node"><title>Node18</title>
<g id="a_node18"><a xlink:href="../../dc/d86/class_g_u_i_functions_1_1_border_style.html#a20c91294c08c9b4b555f41cdf5941e45" target="_top" xlink:title="GUIFunctions.BorderStyle.get\lStyle">
<polygon fill="white" stroke="black" points="1124.5,-299 1124.5,-329 1281.5,-329 1281.5,-299 1124.5,-299"/>
<text text-anchor="start" x="1132.5" y="-317" font-family="Helvetica,sans-Serif" font-size="10.00">GUIFunctions.BorderStyle.get</text>
<text text-anchor="middle" x="1203" y="-306" font-family="Helvetica,sans-Serif" font-size="10.00">Style</text>
</a>
</g>
</g>
<!-- Node17&#45;&gt;Node18 -->
<g id="edge18" class="edge"><title>Node17&#45;&gt;Node18</title>
<path fill="none" stroke="midnightblue" d="M1082.11,-314C1092.48,-314 1103.46,-314 1114.41,-314"/>
<polygon fill="midnightblue" stroke="midnightblue" points="1114.44,-317.5 1124.44,-314 1114.44,-310.5 1114.44,-317.5"/>
</g>
<!-- Node19&#45;&gt;Node14 -->
<g id="edge20" class="edge"><title>Node19&#45;&gt;Node14</title>
<path fill="none" stroke="midnightblue" d="M904.369,-48C918.731,-48 934.405,-48 949.469,-48"/>
<polygon fill="midnightblue" stroke="midnightblue" points="949.777,-51.5001 959.776,-48 949.776,-44.5001 949.777,-51.5001"/>
</g>
<!-- Node21 -->
<g id="node21" class="node"><title>Node21</title>
<g id="a_node21"><a xlink:href="../../d1/dbe/classturtle_1_1_position.html#a7c26cf9316a28fb4821731864ed28c95" target="_top" xlink:title="turtle.Position.setYPos">
<polygon fill="white" stroke="black" points="960.5,-266.5 960.5,-285.5 1083.5,-285.5 1083.5,-266.5 960.5,-266.5"/>
<text text-anchor="middle" x="1022" y="-273.5" font-family="Helvetica,sans-Serif" font-size="10.00">turtle.Position.setYPos</text>
</a>
</g>
</g>
<!-- Node20&#45;&gt;Node21 -->
<g id="edge22" class="edge"><title>Node20&#45;&gt;Node21</title>
<path fill="none" stroke="midnightblue" d="M903.895,-276C918.653,-276 934.825,-276 950.311,-276"/>
<polygon fill="midnightblue" stroke="midnightblue" points="950.368,-279.5 960.368,-276 950.368,-272.5 950.368,-279.5"/>
</g>
<!-- Node22&#45;&gt;Node10 -->
<g id="edge24" class="edge"><title>Node22&#45;&gt;Node10</title>
<path fill="none" stroke="midnightblue" d="M703.507,-85.5424C724.575,-91.2024 751.81,-98.5155 776,-105 784.238,-107.208 793.015,-109.559 801.488,-111.827"/>
<polygon fill="midnightblue" stroke="midnightblue" points="800.678,-115.233 811.243,-114.438 802.488,-108.471 800.678,-115.233"/>
</g>
<!-- Node22&#45;&gt;Node19 -->
<g id="edge25" class="edge"><title>Node22&#45;&gt;Node19</title>
<path fill="none" stroke="midnightblue" d="M728.851,-66.4814C745.881,-63.8176 764.457,-60.9117 781.731,-58.2096"/>
<polygon fill="midnightblue" stroke="midnightblue" points="782.391,-61.6491 791.73,-56.6456 781.309,-54.7332 782.391,-61.6491"/>
</g>
<!-- Node23 -->
<g id="node23" class="node"><title>Node23</title>
<g id="a_node23"><a xlink:href="../../df/dcb/classturtle_1_1_turtle.html#af4afc304cb9394e02381563fad7c34ce" target="_top" xlink:title="turtle.Turtle.getOrientation">
<polygon fill="white" stroke="black" points="776.5,-0.5 776.5,-19.5 919.5,-19.5 919.5,-0.5 776.5,-0.5"/>
<text text-anchor="middle" x="848" y="-7.5" font-family="Helvetica,sans-Serif" font-size="10.00">turtle.Turtle.getOrientation</text>
</a>
</g>
</g>
<!-- Node22&#45;&gt;Node23 -->
<g id="edge26" class="edge"><title>Node22&#45;&gt;Node23</title>
<path fill="none" stroke="midnightblue" d="M687.552,-66.4364C708.921,-56.2355 744.339,-40.0563 776,-29 782.874,-26.5995 790.211,-24.3251 797.464,-22.2399"/>
<polygon fill="midnightblue" stroke="midnightblue" points="798.552,-25.5702 807.249,-19.5196 796.677,-18.8259 798.552,-25.5702"/>
</g>
<!-- Node23&#45;&gt;Node15 -->
<g id="edge27" class="edge"><title>Node23&#45;&gt;Node15</title>
<path fill="none" stroke="midnightblue" d="M919.952,-10C928.373,-10 936.993,-10 945.474,-10"/>
<polygon fill="midnightblue" stroke="midnightblue" points="945.729,-13.5001 955.729,-10 945.729,-6.5001 945.729,-13.5001"/>
</g>
</g>
</svg>
        <g id="navigator" transform="translate(0 0)" fill="#404254">
                <rect fill="#f2f5e9" fill-opacity="0.5" stroke="#606060" stroke-width=".5" x="0" y="0" width="60" height="60"/>
                <use id="zoomplus" xlink:href="#zoomPlus" x="17" y="9" onmousedown="handleZoom(evt,'in')"/>
                <use id="zoomminus" xlink:href="#zoomMin" x="42" y="9" onmousedown="handleZoom(evt,'out')"/>
                <use id="reset" xlink:href="#resetDef" x="30" y="36" onmousedown="handleReset()"/>
                <g id="arrowUp" xlink:href="#dirArrow" transform="translate(30 24)" onmousedown="handlePan(0,-1)">
                  <use xlink:href="#rim" fill="#404040">
                        <set attributeName="fill" to="#808080" begin="arrowUp.mouseover" end="arrowUp.mouseout"/>
                  </use>
                  <path fill="none" stroke="white" stroke-width="1.5" d="M0,-3.0v7 M-2.5,-0.5L0,-3.0L2.5,-0.5"/>
                </g>
                <g id="arrowRight" xlink:href="#dirArrow" transform="rotate(90) translate(36 -43)" onmousedown="handlePan(1,0)">
                  <use xlink:href="#rim" fill="#404040">
                        <set attributeName="fill" to="#808080" begin="arrowRight.mouseover" end="arrowRight.mouseout"/>
                  </use>
                  <path fill="none" stroke="white" stroke-width="1.5" d="M0,-3.0v7 M-2.5,-0.5L0,-3.0L2.5,-0.5"/>
                </g>
                <g id="arrowDown" xlink:href="#dirArrow" transform="rotate(180) translate(-30 -48)" onmousedown="handlePan(0,1)">
                  <use xlink:href="#rim" fill="#404040">
                        <set attributeName="fill" to="#808080" begin="arrowDown.mouseover" end="arrowDown.mouseout"/>
                  </use>
                  <path fill="none" stroke="white" stroke-width="1.5" d="M0,-3.0v7 M-2.5,-0.5L0,-3.0L2.5,-0.5"/>
                </g>
                <g id="arrowLeft" xlink:href="#dirArrow" transform="rotate(270) translate(-36 17)" onmousedown="handlePan(-1,0)">
                  <use xlink:href="#rim" fill="#404040">
                        <set attributeName="fill" to="#808080" begin="arrowLeft.mouseover" end="arrowLeft.mouseout"/>
                  </use>
                  <path fill="none" stroke="white" stroke-width="1.5" d="M0,-3.0v7 M-2.5,-0.5L0,-3.0L2.5,-0.5"/>
                </g>
        </g>
        <svg viewBox="0 0 15 15" width="100%" height="30px" preserveAspectRatio="xMaxYMin meet">
         <g id="arrow_out" transform="scale(0.3 0.3)">
          <a xlink:href="class_table_information_1_1_turtle_variables_table_a3a32e6fd761411925b48c0fa60c29431_cgraph_org.svg" target="_base">
           <rect id="button" ry="5" rx="5" y="6" x="6" height="38" width="38"
                fill="#f2f5e9" fill-opacity="0.5" stroke="#606060" stroke-width="1.0"/>
           <path id="arrow"
             d="M 11.500037,31.436501 C 11.940474,20.09759 22.043105,11.32322 32.158766,21.979434 L 37.068811,17.246167 C 37.068811,17.246167 37.088388,32 37.088388,32 L 22.160133,31.978069 C 22.160133,31.978069 26.997745,27.140456 26.997745,27.140456 C 18.528582,18.264221 13.291696,25.230495 11.500037,31.436501 z"
             style="fill:#404040;"/>
          </a>
         </g>
        </svg>
</svg>
