<?xml version="1.0" encoding="UTF-8" standalone="no"?>
<!DOCTYPE svg PUBLIC "-//W3C//DTD SVG 1.1//EN"
 "http://www.w3.org/Graphics/SVG/1.1/DTD/svg11.dtd">
<!-- Generated by graphviz version 2.36.0 (20140111.2315)
 -->
<!-- Title: TableInformation.TurtleVariablesTable.updateList Pages: 1 -->
<svg width="584pt" height="61pt"
 viewBox="0.00 0.00 584.00 61.00" xmlns="http://www.w3.org/2000/svg" xmlns:xlink="http://www.w3.org/1999/xlink">
<g id="graph0" class="graph" transform="scale(1 1) rotate(0) translate(4 57)">
<title>TableInformation.TurtleVariablesTable.updateList</title>
<polygon fill="white" stroke="none" points="-4,4 -4,-57 580,-57 580,4 -4,4"/>
<!-- Node1 -->
<g id="node1" class="node"><title>Node1</title>
<polygon fill="#bfbfbf" stroke="black" points="0.5,-1 0.5,-31 167.5,-31 167.5,-1 0.5,-1"/>
<text text-anchor="start" x="8.5" y="-19" font-family="Helvetica,sans-Serif" font-size="10.00">TableInformation.TurtleVariables</text>
<text text-anchor="middle" x="84" y="-8" font-family="Helvetica,sans-Serif" font-size="10.00">Table.updateList</text>
</g>
<!-- Node2 -->
<g id="node2" class="node"><title>Node2</title>
<g id="a_node2"><a xlink:href="../../d3/d42/class_table_information_1_1_turtle_variables_table.html#a5ade83d2186f4c16bbe49c7e12c50f0f" target="_top" xlink:title="TableInformation.TurtleVariables\lTable.build">
<polygon fill="white" stroke="black" points="204.5,-23 204.5,-53 371.5,-53 371.5,-23 204.5,-23"/>
<text text-anchor="start" x="212.5" y="-41" font-family="Helvetica,sans-Serif" font-size="10.00">TableInformation.TurtleVariables</text>
<text text-anchor="middle" x="288" y="-30" font-family="Helvetica,sans-Serif" font-size="10.00">Table.build</text>
</a>
</g>
</g>
<!-- Node1&#45;&gt;Node2 -->
<g id="edge1" class="edge"><title>Node1&#45;&gt;Node2</title>
<path fill="none" stroke="midnightblue" d="M177.731,-26.0994C186.622,-27.0678 195.6,-28.0455 204.385,-29.0023"/>
<polygon fill="midnightblue" stroke="midnightblue" points="178.064,-22.6151 167.744,-25.0117 177.306,-29.5739 178.064,-22.6151"/>
</g>
<!-- Node3 -->
<g id="node3" class="node"><title>Node3</title>
<g id="a_node3"><a xlink:href="../../d3/d42/class_table_information_1_1_turtle_variables_table.html#a6bac7fbbffde239e6438ea163f812b08" target="_top" xlink:title="TableInformation.TurtleVariables\lTable.TurtleVariablesTable">
<polygon fill="white" stroke="black" points="408.5,-1 408.5,-31 575.5,-31 575.5,-1 408.5,-1"/>
<text text-anchor="start" x="416.5" y="-19" font-family="Helvetica,sans-Serif" font-size="10.00">TableInformation.TurtleVariables</text>
<text text-anchor="middle" x="492" y="-8" font-family="Helvetica,sans-Serif" font-size="10.00">Table.TurtleVariablesTable</text>
</a>
</g>
</g>
<!-- Node1&#45;&gt;Node3 -->
<g id="edge3" class="edge"><title>Node1&#45;&gt;Node3</title>
<path fill="none" stroke="midnightblue" d="M177.628,-14.2916C186.54,-14.1729 195.443,-14.0719 204,-14 278.664,-13.3726 297.336,-13.3726 372,-14 383.777,-14.099 396.21,-14.253 408.421,-14.4327"/>
<polygon fill="midnightblue" stroke="midnightblue" points="177.529,-10.7926 167.579,-14.4327 177.627,-17.7919 177.529,-10.7926"/>
</g>
<!-- Node2&#45;&gt;Node3 -->
<g id="edge2" class="edge"><title>Node2&#45;&gt;Node3</title>
<path fill="none" stroke="midnightblue" d="M381.731,-27.9006C390.622,-26.9322 399.6,-25.9545 408.385,-24.9977"/>
<polygon fill="midnightblue" stroke="midnightblue" points="381.306,-24.4261 371.744,-28.9883 382.064,-31.3849 381.306,-24.4261"/>
</g>
</g>
</svg>
