<?xml version="1.0" encoding="UTF-8" standalone="no"?>
<!DOCTYPE svg PUBLIC "-//W3C//DTD SVG 1.1//EN"
 "http://www.w3.org/Graphics/SVG/1.1/DTD/svg11.dtd">
<!-- Generated by graphviz version 2.36.0 (20140111.2315)
 -->
<!-- Title: TableInformation.TurtleVariablesTable.TurtleVariablesTable Pages: 1 -->
<svg width="1494pt" height="340pt"
 viewBox="0.00 0.00 1494.00 340.00" xmlns="http://www.w3.org/2000/svg" xmlns:xlink="http://www.w3.org/1999/xlink">
<g id="graph0" class="graph" transform="scale(1 1) rotate(0) translate(4 336)">
<title>TableInformation.TurtleVariablesTable.TurtleVariablesTable</title>
<polygon fill="white" stroke="none" points="-4,4 -4,-336 1490,-336 1490,4 -4,4"/>
<!-- Node1 -->
<g id="node1" class="node"><title>Node1</title>
<polygon fill="#bfbfbf" stroke="black" points="0.5,-122 0.5,-152 167.5,-152 167.5,-122 0.5,-122"/>
<text text-anchor="start" x="8.5" y="-140" font-family="Helvetica,sans-Serif" font-size="10.00">TableInformation.TurtleVariables</text>
<text text-anchor="middle" x="84" y="-129" font-family="Helvetica,sans-Serif" font-size="10.00">Table.TurtleVariablesTable</text>
</g>
<!-- Node2 -->
<g id="node2" class="node"><title>Node2</title>
<g id="a_node2"><a xlink:href="../../d3/d42/class_table_information_1_1_turtle_variables_table.html#a5ade83d2186f4c16bbe49c7e12c50f0f" target="_top" xlink:title="TableInformation.TurtleVariables\lTable.build">
<polygon fill="white" stroke="black" points="204.5,-147 204.5,-177 371.5,-177 371.5,-147 204.5,-147"/>
<text text-anchor="start" x="212.5" y="-165" font-family="Helvetica,sans-Serif" font-size="10.00">TableInformation.TurtleVariables</text>
<text text-anchor="middle" x="288" y="-154" font-family="Helvetica,sans-Serif" font-size="10.00">Table.build</text>
</a>
</g>
</g>
<!-- Node1&#45;&gt;Node2 -->
<g id="edge1" class="edge"><title>Node1&#45;&gt;Node2</title>
<path fill="none" stroke="midnightblue" d="M167.744,-147.241C176.531,-148.328 185.509,-149.439 194.399,-150.54"/>
<polygon fill="midnightblue" stroke="midnightblue" points="194.031,-154.02 204.385,-151.775 194.89,-147.073 194.031,-154.02"/>
</g>
<!-- Node3 -->
<g id="node3" class="node"><title>Node3</title>
<g id="a_node3"><a xlink:href="../../d3/d42/class_table_information_1_1_turtle_variables_table.html#a41e8a91ad2bd210a046c64a2574574bf" target="_top" xlink:title="TableInformation.TurtleVariables\lTable.updateList">
<polygon fill="white" stroke="black" points="408.5,-169 408.5,-199 575.5,-199 575.5,-169 408.5,-169"/>
<text text-anchor="start" x="416.5" y="-187" font-family="Helvetica,sans-Serif" font-size="10.00">TableInformation.TurtleVariables</text>
<text text-anchor="middle" x="492" y="-176" font-family="Helvetica,sans-Serif" font-size="10.00">Table.updateList</text>
</a>
</g>
</g>
<!-- Node1&#45;&gt;Node3 -->
<g id="edge33" class="edge"><title>Node1&#45;&gt;Node3</title>
<path fill="none" stroke="midnightblue" d="M112.873,-152.139C136.388,-164 171.342,-179.54 204,-186 267.98,-198.657 341.563,-197.848 398.203,-194.035"/>
<polygon fill="midnightblue" stroke="midnightblue" points="398.492,-197.523 408.216,-193.318 397.992,-190.541 398.492,-197.523"/>
</g>
<!-- Node5 -->
<g id="node5" class="node"><title>Node5</title>
<g id="a_node5"><a xlink:href="../../d3/d42/class_table_information_1_1_turtle_variables_table.html#a0c1df35c8e6578a15a6f6c4de22e3804" target="_top" xlink:title="TableInformation.TurtleVariables\lTable.makeMap">
<polygon fill="white" stroke="black" points="204.5,-98 204.5,-128 371.5,-128 371.5,-98 204.5,-98"/>
<text text-anchor="start" x="212.5" y="-116" font-family="Helvetica,sans-Serif" font-size="10.00">TableInformation.TurtleVariables</text>
<text text-anchor="middle" x="288" y="-105" font-family="Helvetica,sans-Serif" font-size="10.00">Table.makeMap</text>
</a>
</g>
</g>
<!-- Node1&#45;&gt;Node5 -->
<g id="edge4" class="edge"><title>Node1&#45;&gt;Node5</title>
<path fill="none" stroke="midnightblue" d="M167.744,-127.169C176.531,-126.125 185.509,-125.058 194.399,-124.002"/>
<polygon fill="midnightblue" stroke="midnightblue" points="194.868,-127.471 204.385,-122.816 194.042,-120.52 194.868,-127.471"/>
</g>
<!-- Node6 -->
<g id="node6" class="node"><title>Node6</title>
<g id="a_node6"><a xlink:href="../../d3/d42/class_table_information_1_1_turtle_variables_table.html#a3a32e6fd761411925b48c0fa60c29431" target="_top" xlink:title="TableInformation.TurtleVariables\lTable.setColumnEditable">
<polygon fill="white" stroke="black" points="204.5,-49 204.5,-79 371.5,-79 371.5,-49 204.5,-49"/>
<text text-anchor="start" x="212.5" y="-67" font-family="Helvetica,sans-Serif" font-size="10.00">TableInformation.TurtleVariables</text>
<text text-anchor="middle" x="288" y="-56" font-family="Helvetica,sans-Serif" font-size="10.00">Table.setColumnEditable</text>
</a>
</g>
</g>
<!-- Node1&#45;&gt;Node6 -->
<g id="edge5" class="edge"><title>Node1&#45;&gt;Node6</title>
<path fill="none" stroke="midnightblue" d="M118.732,-121.957C142.352,-111.709 174.786,-98.2041 204,-88 209.855,-85.955 215.983,-83.9446 222.144,-82.0109"/>
<polygon fill="midnightblue" stroke="midnightblue" points="223.285,-85.3218 231.818,-79.0414 221.231,-78.63 223.285,-85.3218"/>
</g>
<!-- Node2&#45;&gt;Node3 -->
<g id="edge2" class="edge"><title>Node2&#45;&gt;Node3</title>
<path fill="none" stroke="midnightblue" d="M371.744,-171.012C380.531,-171.969 389.509,-172.947 398.399,-173.915"/>
<polygon fill="midnightblue" stroke="midnightblue" points="398.065,-177.399 408.385,-175.002 398.822,-170.44 398.065,-177.399"/>
</g>
<!-- Node4 -->
<g id="node4" class="node"><title>Node4</title>
<g id="a_node4"><a xlink:href="../../d9/db1/class_view_1_1_single_grid.html#a4f5ac29735861f044f439278afea0957" target="_top" xlink:title="View.SingleGrid.getAllTurtles">
<polygon fill="white" stroke="black" points="612,-174.5 612,-193.5 762,-193.5 762,-174.5 612,-174.5"/>
<text text-anchor="middle" x="687" y="-181.5" font-family="Helvetica,sans-Serif" font-size="10.00">View.SingleGrid.getAllTurtles</text>
</a>
</g>
</g>
<!-- Node3&#45;&gt;Node4 -->
<g id="edge3" class="edge"><title>Node3&#45;&gt;Node4</title>
<path fill="none" stroke="midnightblue" d="M575.689,-184C584.293,-184 593.046,-184 601.668,-184"/>
<polygon fill="midnightblue" stroke="midnightblue" points="601.712,-187.5 611.712,-184 601.712,-180.5 601.712,-187.5"/>
</g>
<!-- Node7 -->
<g id="node7" class="node"><title>Node7</title>
<g id="a_node7"><a xlink:href="../../d3/d42/class_table_information_1_1_turtle_variables_table.html#a12ef059be78468fe0f09b5bf41d11d4c" target="_top" xlink:title="TableInformation.TurtleVariables\lTable.moveTurtle">
<polygon fill="white" stroke="black" points="408.5,-49 408.5,-79 575.5,-79 575.5,-49 408.5,-49"/>
<text text-anchor="start" x="416.5" y="-67" font-family="Helvetica,sans-Serif" font-size="10.00">TableInformation.TurtleVariables</text>
<text text-anchor="middle" x="492" y="-56" font-family="Helvetica,sans-Serif" font-size="10.00">Table.moveTurtle</text>
</a>
</g>
</g>
<!-- Node6&#45;&gt;Node7 -->
<g id="edge6" class="edge"><title>Node6&#45;&gt;Node7</title>
<path fill="none" stroke="midnightblue" d="M371.744,-64C380.437,-64 389.316,-64 398.112,-64"/>
<polygon fill="midnightblue" stroke="midnightblue" points="398.385,-67.5001 408.385,-64 398.385,-60.5001 398.385,-67.5001"/>
</g>
<!-- Node8 -->
<g id="node8" class="node"><title>Node8</title>
<g id="a_node8"><a xlink:href="../../d9/db1/class_view_1_1_single_grid.html#a63dce7bacaea4b387aeef30975ad678b" target="_top" xlink:title="View.SingleGrid.getActive\lTurtles">
<polygon fill="white" stroke="black" points="618.5,-49 618.5,-79 755.5,-79 755.5,-49 618.5,-49"/>
<text text-anchor="start" x="626.5" y="-67" font-family="Helvetica,sans-Serif" font-size="10.00">View.SingleGrid.getActive</text>
<text text-anchor="middle" x="687" y="-56" font-family="Helvetica,sans-Serif" font-size="10.00">Turtles</text>
</a>
</g>
</g>
<!-- Node7&#45;&gt;Node8 -->
<g id="edge7" class="edge"><title>Node7&#45;&gt;Node8</title>
<path fill="none" stroke="midnightblue" d="M575.689,-64C586.466,-64 597.478,-64 608.172,-64"/>
<polygon fill="midnightblue" stroke="midnightblue" points="608.309,-67.5001 618.309,-64 608.309,-60.5001 608.309,-67.5001"/>
</g>
<!-- Node9 -->
<g id="node9" class="node"><title>Node9</title>
<g id="a_node9"><a xlink:href="../../df/dc5/class_table_information_1_1_column.html#abda874c5e4fbe461f9f16331fe71a036" target="_top" xlink:title="TableInformation.Column.do\lEditingFunction">
<polygon fill="white" stroke="black" points="612,-0 612,-30 762,-30 762,-0 612,-0"/>
<text text-anchor="start" x="620" y="-18" font-family="Helvetica,sans-Serif" font-size="10.00">TableInformation.Column.do</text>
<text text-anchor="middle" x="687" y="-7" font-family="Helvetica,sans-Serif" font-size="10.00">EditingFunction</text>
</a>
</g>
</g>
<!-- Node7&#45;&gt;Node9 -->
<g id="edge8" class="edge"><title>Node7&#45;&gt;Node9</title>
<path fill="none" stroke="midnightblue" d="M552.218,-48.9654C572.689,-43.7682 595.804,-37.8994 616.991,-32.5204"/>
<polygon fill="midnightblue" stroke="midnightblue" points="618.063,-35.8594 626.894,-30.0062 616.34,-29.0747 618.063,-35.8594"/>
</g>
<!-- Node10 -->
<g id="node10" class="node"><title>Node10</title>
<g id="a_node10"><a xlink:href="../../d9/db1/class_view_1_1_single_grid.html#aa718e560e84ad31be3e046029d0226ab" target="_top" xlink:title="View.SingleGrid.update">
<polygon fill="white" stroke="black" points="624,-98.5 624,-117.5 750,-117.5 750,-98.5 624,-98.5"/>
<text text-anchor="middle" x="687" y="-105.5" font-family="Helvetica,sans-Serif" font-size="10.00">View.SingleGrid.update</text>
</a>
</g>
</g>
<!-- Node7&#45;&gt;Node10 -->
<g id="edge9" class="edge"><title>Node7&#45;&gt;Node10</title>
<path fill="none" stroke="midnightblue" d="M558.88,-79.0192C583.517,-84.636 611.125,-90.93 634.301,-96.2137"/>
<polygon fill="midnightblue" stroke="midnightblue" points="633.747,-99.6772 644.275,-98.4876 635.303,-92.8523 633.747,-99.6772"/>
</g>
<!-- Node11 -->
<g id="node11" class="node"><title>Node11</title>
<g id="a_node11"><a xlink:href="../../d9/db1/class_view_1_1_single_grid.html#a9093eac50d88370f86cb4757b996210e" target="_top" xlink:title="View.SingleGrid.keepTurtle\lInBounds">
<polygon fill="white" stroke="black" points="800.5,-150 800.5,-180 941.5,-180 941.5,-150 800.5,-150"/>
<text text-anchor="start" x="808.5" y="-168" font-family="Helvetica,sans-Serif" font-size="10.00">View.SingleGrid.keepTurtle</text>
<text text-anchor="middle" x="871" y="-157" font-family="Helvetica,sans-Serif" font-size="10.00">InBounds</text>
</a>
</g>
</g>
<!-- Node10&#45;&gt;Node11 -->
<g id="edge10" class="edge"><title>Node10&#45;&gt;Node11</title>
<path fill="none" stroke="midnightblue" d="M718.463,-117.541C743.939,-125.519 780.999,-137.126 812.092,-146.864"/>
<polygon fill="midnightblue" stroke="midnightblue" points="811.367,-150.304 821.956,-149.953 813.459,-143.624 811.367,-150.304"/>
</g>
<!-- Node27 -->
<g id="node27" class="node"><title>Node27</title>
<g id="a_node27"><a xlink:href="../../d9/db1/class_view_1_1_single_grid.html#a7fced187abf44b802950675ee590f493" target="_top" xlink:title="View.SingleGrid.moveTurtle">
<polygon fill="white" stroke="black" points="798.5,-69.5 798.5,-88.5 943.5,-88.5 943.5,-69.5 798.5,-69.5"/>
<text text-anchor="middle" x="871" y="-76.5" font-family="Helvetica,sans-Serif" font-size="10.00">View.SingleGrid.moveTurtle</text>
</a>
</g>
</g>
<!-- Node10&#45;&gt;Node27 -->
<g id="edge28" class="edge"><title>Node10&#45;&gt;Node27</title>
<path fill="none" stroke="midnightblue" d="M747.846,-98.4641C764.561,-95.8007 782.871,-92.8832 800.111,-90.1361"/>
<polygon fill="midnightblue" stroke="midnightblue" points="800.794,-93.5716 810.118,-88.5416 799.692,-86.6588 800.794,-93.5716"/>
</g>
<!-- Node12 -->
<g id="node12" class="node"><title>Node12</title>
<g id="a_node12"><a xlink:href="../../df/dcb/classturtle_1_1_turtle.html#a0b8bdf8fc097cab5bf51d46567c2d749" target="_top" xlink:title="turtle.Turtle.getPen">
<polygon fill="white" stroke="black" points="998.5,-231.5 998.5,-250.5 1105.5,-250.5 1105.5,-231.5 998.5,-231.5"/>
<text text-anchor="middle" x="1052" y="-238.5" font-family="Helvetica,sans-Serif" font-size="10.00">turtle.Turtle.getPen</text>
</a>
</g>
</g>
<!-- Node11&#45;&gt;Node12 -->
<g id="edge11" class="edge"><title>Node11&#45;&gt;Node12</title>
<path fill="none" stroke="midnightblue" d="M896.559,-180.005C917.975,-192.585 950.194,-210.317 980,-222 986.226,-224.44 992.878,-226.678 999.521,-228.693"/>
<polygon fill="midnightblue" stroke="midnightblue" points="998.619,-232.075 1009.2,-231.485 1000.56,-225.35 998.619,-232.075"/>
</g>
<!-- Node13 -->
<g id="node13" class="node"><title>Node13</title>
<g id="a_node13"><a xlink:href="../../dc/d19/class_view_1_1_pen.html#a837537c2d8cd3a98e918a3ab6d72ebd9" target="_top" xlink:title="View.Pen.getPenDown">
<polygon fill="white" stroke="black" points="991,-193.5 991,-212.5 1113,-212.5 1113,-193.5 991,-193.5"/>
<text text-anchor="middle" x="1052" y="-200.5" font-family="Helvetica,sans-Serif" font-size="10.00">View.Pen.getPenDown</text>
</a>
</g>
</g>
<!-- Node11&#45;&gt;Node13 -->
<g id="edge12" class="edge"><title>Node11&#45;&gt;Node13</title>
<path fill="none" stroke="midnightblue" d="M941.719,-179.801C959.854,-183.651 979.129,-187.743 996.362,-191.401"/>
<polygon fill="midnightblue" stroke="midnightblue" points="995.739,-194.846 1006.25,-193.499 997.192,-187.999 995.739,-194.846"/>
</g>
<!-- Node14 -->
<g id="node14" class="node"><title>Node14</title>
<g id="a_node14"><a xlink:href="../../dc/d19/class_view_1_1_pen.html#a8709e1eb5749d8575a4ba9a26acffa0f" target="_top" xlink:title="View.Pen.setPenDown">
<polygon fill="white" stroke="black" points="991.5,-155.5 991.5,-174.5 1112.5,-174.5 1112.5,-155.5 991.5,-155.5"/>
<text text-anchor="middle" x="1052" y="-162.5" font-family="Helvetica,sans-Serif" font-size="10.00">View.Pen.setPenDown</text>
</a>
</g>
</g>
<!-- Node11&#45;&gt;Node14 -->
<g id="edge13" class="edge"><title>Node11&#45;&gt;Node14</title>
<path fill="none" stroke="midnightblue" d="M941.719,-165C954.654,-165 968.17,-165 981.11,-165"/>
<polygon fill="midnightblue" stroke="midnightblue" points="981.343,-168.5 991.343,-165 981.343,-161.5 981.343,-168.5"/>
</g>
<!-- Node15 -->
<g id="node15" class="node"><title>Node15</title>
<g id="a_node15"><a xlink:href="../../df/dcb/classturtle_1_1_turtle.html#aa576ade68e2f453b037ea2a3c456d466" target="_top" xlink:title="turtle.Turtle.getXPos">
<polygon fill="white" stroke="black" points="995.5,-117.5 995.5,-136.5 1108.5,-136.5 1108.5,-117.5 995.5,-117.5"/>
<text text-anchor="middle" x="1052" y="-124.5" font-family="Helvetica,sans-Serif" font-size="10.00">turtle.Turtle.getXPos</text>
</a>
</g>
</g>
<!-- Node11&#45;&gt;Node15 -->
<g id="edge14" class="edge"><title>Node11&#45;&gt;Node15</title>
<path fill="none" stroke="midnightblue" d="M941.719,-150.199C959.854,-146.349 979.129,-142.257 996.362,-138.599"/>
<polygon fill="midnightblue" stroke="midnightblue" points="997.192,-142.001 1006.25,-136.501 995.739,-135.154 997.192,-142.001"/>
</g>
<!-- Node17 -->
<g id="node17" class="node"><title>Node17</title>
<g id="a_node17"><a xlink:href="../../df/dcb/classturtle_1_1_turtle.html#a5db281fc734edd965ff0faddbab871d7" target="_top" xlink:title="turtle.Turtle.setXPos">
<polygon fill="white" stroke="black" points="996,-79.5 996,-98.5 1108,-98.5 1108,-79.5 996,-79.5"/>
<text text-anchor="middle" x="1052" y="-86.5" font-family="Helvetica,sans-Serif" font-size="10.00">turtle.Turtle.setXPos</text>
</a>
</g>
</g>
<!-- Node11&#45;&gt;Node17 -->
<g id="edge16" class="edge"><title>Node11&#45;&gt;Node17</title>
<path fill="none" stroke="midnightblue" d="M896.559,-149.995C917.975,-137.415 950.194,-119.683 980,-108 986.226,-105.56 992.878,-103.322 999.521,-101.307"/>
<polygon fill="midnightblue" stroke="midnightblue" points="1000.56,-104.65 1009.2,-98.5154 998.619,-97.9247 1000.56,-104.65"/>
</g>
<!-- Node21 -->
<g id="node21" class="node"><title>Node21</title>
<g id="a_node21"><a xlink:href="../../dc/d19/class_view_1_1_pen.html#a9baa63a91f8cd62a806147fdeaf44865" target="_top" xlink:title="View.Pen.drawLine">
<polygon fill="white" stroke="black" points="1000,-307.5 1000,-326.5 1104,-326.5 1104,-307.5 1000,-307.5"/>
<text text-anchor="middle" x="1052" y="-314.5" font-family="Helvetica,sans-Serif" font-size="10.00">View.Pen.drawLine</text>
</a>
</g>
</g>
<!-- Node11&#45;&gt;Node21 -->
<g id="edge21" class="edge"><title>Node11&#45;&gt;Node21</title>
<path fill="none" stroke="midnightblue" d="M880.132,-180.392C895.673,-208.272 932.328,-267.098 980,-298 983.185,-300.065 986.589,-301.906 990.118,-303.549"/>
<polygon fill="midnightblue" stroke="midnightblue" points="989.104,-306.915 999.685,-307.447 991.745,-300.432 989.104,-306.915"/>
</g>
<!-- Node24 -->
<g id="node24" class="node"><title>Node24</title>
<g id="a_node24"><a xlink:href="../../df/dcb/classturtle_1_1_turtle.html#a735b5aa0bce5a53d2c75322fb2ad9130" target="_top" xlink:title="turtle.Turtle.getYPos">
<polygon fill="white" stroke="black" points="996,-41.5 996,-60.5 1108,-60.5 1108,-41.5 996,-41.5"/>
<text text-anchor="middle" x="1052" y="-48.5" font-family="Helvetica,sans-Serif" font-size="10.00">turtle.Turtle.getYPos</text>
</a>
</g>
</g>
<!-- Node11&#45;&gt;Node24 -->
<g id="edge24" class="edge"><title>Node11&#45;&gt;Node24</title>
<path fill="none" stroke="midnightblue" d="M888.622,-149.625C916.258,-124.177 969.652,-75.5387 980,-70 984.275,-67.7118 988.845,-65.6842 993.529,-63.8903"/>
<polygon fill="midnightblue" stroke="midnightblue" points="994.938,-67.1062 1003.24,-60.5278 992.649,-60.4912 994.938,-67.1062"/>
</g>
<!-- Node25 -->
<g id="node25" class="node"><title>Node25</title>
<g id="a_node25"><a xlink:href="../../df/dcb/classturtle_1_1_turtle.html#a1107426e66ec049d5e3d1c1783a463db" target="_top" xlink:title="turtle.Turtle.setYPos">
<polygon fill="white" stroke="black" points="996.5,-269.5 996.5,-288.5 1107.5,-288.5 1107.5,-269.5 996.5,-269.5"/>
<text text-anchor="middle" x="1052" y="-276.5" font-family="Helvetica,sans-Serif" font-size="10.00">turtle.Turtle.setYPos</text>
</a>
</g>
</g>
<!-- Node11&#45;&gt;Node25 -->
<g id="edge26" class="edge"><title>Node11&#45;&gt;Node25</title>
<path fill="none" stroke="midnightblue" d="M885.055,-180.242C903.906,-201.289 940.811,-239.024 980,-260 984.275,-262.288 988.845,-264.316 993.529,-266.11"/>
<polygon fill="midnightblue" stroke="midnightblue" points="992.649,-269.509 1003.24,-269.472 994.938,-262.894 992.649,-269.509"/>
</g>
<!-- Node16 -->
<g id="node16" class="node"><title>Node16</title>
<g id="a_node16"><a xlink:href="../../d1/dbe/classturtle_1_1_position.html#a1d079c846ce96bf1c57da388c46669e1" target="_top" xlink:title="turtle.Position.getXPos">
<polygon fill="white" stroke="black" points="1163.5,-117.5 1163.5,-136.5 1288.5,-136.5 1288.5,-117.5 1163.5,-117.5"/>
<text text-anchor="middle" x="1226" y="-124.5" font-family="Helvetica,sans-Serif" font-size="10.00">turtle.Position.getXPos</text>
</a>
</g>
</g>
<!-- Node15&#45;&gt;Node16 -->
<g id="edge15" class="edge"><title>Node15&#45;&gt;Node16</title>
<path fill="none" stroke="midnightblue" d="M1108.84,-127C1123.03,-127 1138.47,-127 1153.32,-127"/>
<polygon fill="midnightblue" stroke="midnightblue" points="1153.49,-130.5 1163.49,-127 1153.49,-123.5 1153.49,-130.5"/>
</g>
<!-- Node17&#45;&gt;Node16 -->
<g id="edge18" class="edge"><title>Node17&#45;&gt;Node16</title>
<path fill="none" stroke="midnightblue" d="M1096.4,-98.589C1119.41,-103.671 1147.85,-109.955 1172.13,-115.32"/>
<polygon fill="midnightblue" stroke="midnightblue" points="1171.39,-118.74 1181.91,-117.48 1172.9,-111.905 1171.39,-118.74"/>
</g>
<!-- Node18 -->
<g id="node18" class="node"><title>Node18</title>
<g id="a_node18"><a xlink:href="../../d1/dbe/classturtle_1_1_position.html#af03c1c3b306f6c12d2ec52a00fde50eb" target="_top" xlink:title="turtle.Position.setXPos">
<polygon fill="white" stroke="black" points="1164,-79.5 1164,-98.5 1288,-98.5 1288,-79.5 1164,-79.5"/>
<text text-anchor="middle" x="1226" y="-86.5" font-family="Helvetica,sans-Serif" font-size="10.00">turtle.Position.setXPos</text>
</a>
</g>
</g>
<!-- Node17&#45;&gt;Node18 -->
<g id="edge17" class="edge"><title>Node17&#45;&gt;Node18</title>
<path fill="none" stroke="midnightblue" d="M1108.37,-89C1122.73,-89 1138.4,-89 1153.47,-89"/>
<polygon fill="midnightblue" stroke="midnightblue" points="1153.78,-92.5001 1163.78,-89 1153.78,-85.5001 1153.78,-92.5001"/>
</g>
<!-- Node19 -->
<g id="node19" class="node"><title>Node19</title>
<g id="a_node19"><a xlink:href="../../d1/dbe/classturtle_1_1_position.html#a3a68708e4dc3290c4ef0ecd511cc8c1f" target="_top" xlink:title="turtle.Position.getYPos">
<polygon fill="white" stroke="black" points="1164,-41.5 1164,-60.5 1288,-60.5 1288,-41.5 1164,-41.5"/>
<text text-anchor="middle" x="1226" y="-48.5" font-family="Helvetica,sans-Serif" font-size="10.00">turtle.Position.getYPos</text>
</a>
</g>
</g>
<!-- Node17&#45;&gt;Node19 -->
<g id="edge19" class="edge"><title>Node17&#45;&gt;Node19</title>
<path fill="none" stroke="midnightblue" d="M1096.4,-79.411C1119.41,-74.3287 1147.85,-68.0446 1172.13,-62.6797"/>
<polygon fill="midnightblue" stroke="midnightblue" points="1172.9,-66.095 1181.91,-60.5201 1171.39,-59.2598 1172.9,-66.095"/>
</g>
<!-- Node20 -->
<g id="node20" class="node"><title>Node20</title>
<g id="a_node20"><a xlink:href="../../d1/dbe/classturtle_1_1_position.html#a7bfd27ea2bf5e22d8de4a4e87b4df2ec" target="_top" xlink:title="turtle.Position.getRotate">
<polygon fill="white" stroke="black" points="1160,-3.5 1160,-22.5 1292,-22.5 1292,-3.5 1160,-3.5"/>
<text text-anchor="middle" x="1226" y="-10.5" font-family="Helvetica,sans-Serif" font-size="10.00">turtle.Position.getRotate</text>
</a>
</g>
</g>
<!-- Node17&#45;&gt;Node20 -->
<g id="edge20" class="edge"><title>Node17&#45;&gt;Node20</title>
<path fill="none" stroke="midnightblue" d="M1102.93,-79.4037C1110.27,-76.936 1117.53,-73.8509 1124,-70 1143.99,-58.0999 1140.15,-44.1283 1160,-32 1163.56,-29.828 1167.37,-27.8932 1171.31,-26.1716"/>
<polygon fill="midnightblue" stroke="midnightblue" points="1172.6,-29.4235 1180.65,-22.5302 1170.06,-22.9016 1172.6,-29.4235"/>
</g>
<!-- Node22 -->
<g id="node22" class="node"><title>Node22</title>
<g id="a_node22"><a xlink:href="../../dc/d19/class_view_1_1_pen.html#ad2b5fd226e4003bbb48f13018bc72916" target="_top" xlink:title="View.Pen.setLineStyle">
<polygon fill="white" stroke="black" points="1166,-307.5 1166,-326.5 1286,-326.5 1286,-307.5 1166,-307.5"/>
<text text-anchor="middle" x="1226" y="-314.5" font-family="Helvetica,sans-Serif" font-size="10.00">View.Pen.setLineStyle</text>
</a>
</g>
</g>
<!-- Node21&#45;&gt;Node22 -->
<g id="edge22" class="edge"><title>Node21&#45;&gt;Node22</title>
<path fill="none" stroke="midnightblue" d="M1104.14,-317C1120.36,-317 1138.58,-317 1155.86,-317"/>
<polygon fill="midnightblue" stroke="midnightblue" points="1155.89,-320.5 1165.89,-317 1155.89,-313.5 1155.89,-320.5"/>
</g>
<!-- Node23 -->
<g id="node23" class="node"><title>Node23</title>
<g id="a_node23"><a xlink:href="../../dc/d86/class_g_u_i_functions_1_1_border_style.html#a20c91294c08c9b4b555f41cdf5941e45" target="_top" xlink:title="GUIFunctions.BorderStyle.get\lStyle">
<polygon fill="white" stroke="black" points="1328.5,-302 1328.5,-332 1485.5,-332 1485.5,-302 1328.5,-302"/>
<text text-anchor="start" x="1336.5" y="-320" font-family="Helvetica,sans-Serif" font-size="10.00">GUIFunctions.BorderStyle.get</text>
<text text-anchor="middle" x="1407" y="-309" font-family="Helvetica,sans-Serif" font-size="10.00">Style</text>
</a>
</g>
</g>
<!-- Node22&#45;&gt;Node23 -->
<g id="edge23" class="edge"><title>Node22&#45;&gt;Node23</title>
<path fill="none" stroke="midnightblue" d="M1286.11,-317C1296.48,-317 1307.46,-317 1318.41,-317"/>
<polygon fill="midnightblue" stroke="midnightblue" points="1318.44,-320.5 1328.44,-317 1318.44,-313.5 1318.44,-320.5"/>
</g>
<!-- Node24&#45;&gt;Node19 -->
<g id="edge25" class="edge"><title>Node24&#45;&gt;Node19</title>
<path fill="none" stroke="midnightblue" d="M1108.37,-51C1122.73,-51 1138.4,-51 1153.47,-51"/>
<polygon fill="midnightblue" stroke="midnightblue" points="1153.78,-54.5001 1163.78,-51 1153.78,-47.5001 1153.78,-54.5001"/>
</g>
<!-- Node26 -->
<g id="node26" class="node"><title>Node26</title>
<g id="a_node26"><a xlink:href="../../d1/dbe/classturtle_1_1_position.html#a7c26cf9316a28fb4821731864ed28c95" target="_top" xlink:title="turtle.Position.setYPos">
<polygon fill="white" stroke="black" points="1164.5,-269.5 1164.5,-288.5 1287.5,-288.5 1287.5,-269.5 1164.5,-269.5"/>
<text text-anchor="middle" x="1226" y="-276.5" font-family="Helvetica,sans-Serif" font-size="10.00">turtle.Position.setYPos</text>
</a>
</g>
</g>
<!-- Node25&#45;&gt;Node26 -->
<g id="edge27" class="edge"><title>Node25&#45;&gt;Node26</title>
<path fill="none" stroke="midnightblue" d="M1107.89,-279C1122.65,-279 1138.82,-279 1154.31,-279"/>
<polygon fill="midnightblue" stroke="midnightblue" points="1154.37,-282.5 1164.37,-279 1154.37,-275.5 1154.37,-282.5"/>
</g>
<!-- Node27&#45;&gt;Node15 -->
<g id="edge29" class="edge"><title>Node27&#45;&gt;Node15</title>
<path fill="none" stroke="midnightblue" d="M907.507,-88.5424C928.575,-94.2024 955.81,-101.516 980,-108 988.238,-110.208 997.015,-112.559 1005.49,-114.827"/>
<polygon fill="midnightblue" stroke="midnightblue" points="1004.68,-118.233 1015.24,-117.438 1006.49,-111.471 1004.68,-118.233"/>
</g>
<!-- Node27&#45;&gt;Node24 -->
<g id="edge30" class="edge"><title>Node27&#45;&gt;Node24</title>
<path fill="none" stroke="midnightblue" d="M932.851,-69.4814C949.881,-66.8176 968.457,-63.9117 985.731,-61.2096"/>
<polygon fill="midnightblue" stroke="midnightblue" points="986.391,-64.6491 995.73,-59.6456 985.309,-57.7332 986.391,-64.6491"/>
</g>
<!-- Node28 -->
<g id="node28" class="node"><title>Node28</title>
<g id="a_node28"><a xlink:href="../../df/dcb/classturtle_1_1_turtle.html#af4afc304cb9394e02381563fad7c34ce" target="_top" xlink:title="turtle.Turtle.getOrientation">
<polygon fill="white" stroke="black" points="980.5,-3.5 980.5,-22.5 1123.5,-22.5 1123.5,-3.5 980.5,-3.5"/>
<text text-anchor="middle" x="1052" y="-10.5" font-family="Helvetica,sans-Serif" font-size="10.00">turtle.Turtle.getOrientation</text>
</a>
</g>
</g>
<!-- Node27&#45;&gt;Node28 -->
<g id="edge31" class="edge"><title>Node27&#45;&gt;Node28</title>
<path fill="none" stroke="midnightblue" d="M891.552,-69.4364C912.921,-59.2355 948.339,-43.0563 980,-32 986.874,-29.5995 994.211,-27.3251 1001.46,-25.2399"/>
<polygon fill="midnightblue" stroke="midnightblue" points="1002.55,-28.5702 1011.25,-22.5196 1000.68,-21.8259 1002.55,-28.5702"/>
</g>
<!-- Node28&#45;&gt;Node20 -->
<g id="edge32" class="edge"><title>Node28&#45;&gt;Node20</title>
<path fill="none" stroke="midnightblue" d="M1123.95,-13C1132.37,-13 1140.99,-13 1149.47,-13"/>
<polygon fill="midnightblue" stroke="midnightblue" points="1149.73,-16.5001 1159.73,-13 1149.73,-9.5001 1149.73,-16.5001"/>
</g>
</g>
</svg>
