<?xml version="1.0" encoding="UTF-8" standalone="no"?>
<!DOCTYPE svg PUBLIC "-//W3C//DTD SVG 1.1//EN"
 "http://www.w3.org/Graphics/SVG/1.1/DTD/svg11.dtd">
<!-- Generated by graphviz version 2.36.0 (20140111.2315)
 -->
<!-- Title: GUIFunctions.AskForInitialFile.sendFile Pages: 1 -->
<svg width="830pt" height="38pt"
 viewBox="0.00 0.00 830.00 38.00" xmlns="http://www.w3.org/2000/svg" xmlns:xlink="http://www.w3.org/1999/xlink">
<g id="graph0" class="graph" transform="scale(1 1) rotate(0) translate(4 34)">
<title>GUIFunctions.AskForInitialFile.sendFile</title>
<polygon fill="white" stroke="none" points="-4,4 -4,-34 826,-34 826,4 -4,4"/>
<!-- Node1 -->
<g id="node1" class="node"><title>Node1</title>
<polygon fill="#bfbfbf" stroke="black" points="0.5,-0 0.5,-30 139.5,-30 139.5,-0 0.5,-0"/>
<text text-anchor="start" x="8.5" y="-18" font-family="Helvetica,sans-Serif" font-size="10.00">GUIFunctions.AskForInitial</text>
<text text-anchor="middle" x="70" y="-7" font-family="Helvetica,sans-Serif" font-size="10.00">File.sendFile</text>
</g>
<!-- Node2 -->
<g id="node2" class="node"><title>Node2</title>
<g id="a_node2"><a xlink:href="../../d6/d33/class_view_1_1_slogo_view.html#a94e611bbf375514e3fa7b29042a51652" target="_top" xlink:title="View.SlogoView.createfileMenu">
<polygon fill="white" stroke="black" points="176,-5.5 176,-24.5 338,-24.5 338,-5.5 176,-5.5"/>
<text text-anchor="middle" x="257" y="-12.5" font-family="Helvetica,sans-Serif" font-size="10.00">View.SlogoView.createfileMenu</text>
</a>
</g>
</g>
<!-- Node1&#45;&gt;Node2 -->
<g id="edge1" class="edge"><title>Node1&#45;&gt;Node2</title>
<path fill="none" stroke="midnightblue" d="M149.716,-15C158.393,-15 167.236,-15 175.93,-15"/>
<polygon fill="midnightblue" stroke="midnightblue" points="149.624,-11.5001 139.624,-15 149.624,-18.5001 149.624,-11.5001"/>
</g>
<!-- Node3 -->
<g id="node3" class="node"><title>Node3</title>
<g id="a_node3"><a xlink:href="../../d6/d33/class_view_1_1_slogo_view.html#a7c84b547efa8603bbd40e36795873355" target="_top" xlink:title="View.SlogoView.addMenuBar">
<polygon fill="white" stroke="black" points="374,-5.5 374,-24.5 526,-24.5 526,-5.5 374,-5.5"/>
<text text-anchor="middle" x="450" y="-12.5" font-family="Helvetica,sans-Serif" font-size="10.00">View.SlogoView.addMenuBar</text>
</a>
</g>
</g>
<!-- Node2&#45;&gt;Node3 -->
<g id="edge2" class="edge"><title>Node2&#45;&gt;Node3</title>
<path fill="none" stroke="midnightblue" d="M348.223,-15C356.822,-15 365.479,-15 373.912,-15"/>
<polygon fill="midnightblue" stroke="midnightblue" points="348.171,-11.5001 338.171,-15 348.171,-18.5001 348.171,-11.5001"/>
</g>
<!-- Node4 -->
<g id="node4" class="node"><title>Node4</title>
<g id="a_node4"><a xlink:href="../../d6/d33/class_view_1_1_slogo_view.html#acfeff052503655d2ac419d2bf4ea9bd5" target="_top" xlink:title="View.SlogoView.initialize">
<polygon fill="white" stroke="black" points="562,-5.5 562,-24.5 692,-24.5 692,-5.5 562,-5.5"/>
<text text-anchor="middle" x="627" y="-12.5" font-family="Helvetica,sans-Serif" font-size="10.00">View.SlogoView.initialize</text>
</a>
</g>
</g>
<!-- Node3&#45;&gt;Node4 -->
<g id="edge3" class="edge"><title>Node3&#45;&gt;Node4</title>
<path fill="none" stroke="midnightblue" d="M536.289,-15C544.885,-15 553.509,-15 561.83,-15"/>
<polygon fill="midnightblue" stroke="midnightblue" points="536.231,-11.5001 526.231,-15 536.231,-18.5001 536.231,-11.5001"/>
</g>
<!-- Node5 -->
<g id="node5" class="node"><title>Node5</title>
<g id="a_node5"><a xlink:href="../../db/d27/class_view_1_1_slogo.html#a6ab76a53160b61d8501aec91c55b85c8" target="_top" xlink:title="View.Slogo.start">
<polygon fill="white" stroke="black" points="728.5,-5.5 728.5,-24.5 821.5,-24.5 821.5,-5.5 728.5,-5.5"/>
<text text-anchor="middle" x="775" y="-12.5" font-family="Helvetica,sans-Serif" font-size="10.00">View.Slogo.start</text>
</a>
</g>
</g>
<!-- Node4&#45;&gt;Node5 -->
<g id="edge4" class="edge"><title>Node4&#45;&gt;Node5</title>
<path fill="none" stroke="midnightblue" d="M702.142,-15C711.108,-15 720.051,-15 728.43,-15"/>
<polygon fill="midnightblue" stroke="midnightblue" points="702.038,-11.5001 692.038,-15 702.038,-18.5001 702.038,-11.5001"/>
</g>
</g>
</svg>
