<?xml version="1.0" encoding="UTF-8" standalone="no"?>
<!DOCTYPE svg PUBLIC "-//W3C//DTD SVG 1.1//EN"
 "http://www.w3.org/Graphics/SVG/1.1/DTD/svg11.dtd">
<!-- Generated by graphviz version 2.36.0 (20140111.2315)
 -->
<!-- Title: commands.information.SingleActiveGridContainer.addGrid Pages: 1 -->
<svg width="388pt" height="48pt"
 viewBox="0.00 0.00 388.00 48.00" xmlns="http://www.w3.org/2000/svg" xmlns:xlink="http://www.w3.org/1999/xlink">
<g id="graph0" class="graph" transform="scale(1 1) rotate(0) translate(4 44)">
<title>commands.information.SingleActiveGridContainer.addGrid</title>
<polygon fill="white" stroke="none" points="-4,4 -4,-44 384,-44 384,4 -4,4"/>
<!-- Node1 -->
<g id="node1" class="node"><title>Node1</title>
<polygon fill="#bfbfbf" stroke="black" points="0.5,-5 0.5,-35 161.5,-35 161.5,-5 0.5,-5"/>
<text text-anchor="start" x="8.5" y="-23" font-family="Helvetica,sans-Serif" font-size="10.00">commands.information.Single</text>
<text text-anchor="middle" x="81" y="-12" font-family="Helvetica,sans-Serif" font-size="10.00">ActiveGridContainer.addGrid</text>
</g>
<!-- Node2 -->
<g id="node2" class="node"><title>Node2</title>
<g id="a_node2"><a xlink:href="../../d1/d2c/classcommands_1_1information_1_1_single_grid_information_gateway.html#a1d83637db8855f934c31ff028e50e293" target="_top" xlink:title="commands.information.Single\lGridInformationGateway.SingleGrid\lInformationGateway">
<polygon fill="white" stroke="black" points="198,0.5 198,-40.5 380,-40.5 380,0.5 198,0.5"/>
<text text-anchor="start" x="206" y="-28.5" font-family="Helvetica,sans-Serif" font-size="10.00">commands.information.Single</text>
<text text-anchor="start" x="206" y="-17.5" font-family="Helvetica,sans-Serif" font-size="10.00">GridInformationGateway.SingleGrid</text>
<text text-anchor="middle" x="289" y="-6.5" font-family="Helvetica,sans-Serif" font-size="10.00">InformationGateway</text>
</a>
</g>
</g>
<!-- Node1&#45;&gt;Node2 -->
<g id="edge1" class="edge"><title>Node1&#45;&gt;Node2</title>
<path fill="none" stroke="midnightblue" d="M171.764,-20C180.447,-20 189.258,-20 197.944,-20"/>
<polygon fill="midnightblue" stroke="midnightblue" points="171.645,-16.5001 161.645,-20 171.645,-23.5001 171.645,-16.5001"/>
</g>
</g>
</svg>
