<?xml version="1.0" encoding="UTF-8" standalone="no"?>
<!DOCTYPE svg PUBLIC "-//W3C//DTD SVG 1.1//EN"
 "http://www.w3.org/Graphics/SVG/1.1/DTD/svg11.dtd">
<!-- Generated by graphviz version 2.36.0 (20140111.2315)
 -->
<!-- Title: commands.information.SingleActiveGridContainer.updateDisplayOptions Pages: 1 -->
<svg width="340pt" height="48pt"
 viewBox="0.00 0.00 340.00 48.00" xmlns="http://www.w3.org/2000/svg" xmlns:xlink="http://www.w3.org/1999/xlink">
<g id="graph0" class="graph" transform="scale(1 1) rotate(0) translate(4 44)">
<title>commands.information.SingleActiveGridContainer.updateDisplayOptions</title>
<polygon fill="white" stroke="none" points="-4,4 -4,-44 336,-44 336,4 -4,4"/>
<!-- Node1 -->
<g id="node1" class="node"><title>Node1</title>
<polygon fill="#bfbfbf" stroke="black" points="0,0.5 0,-40.5 182,-40.5 182,0.5 0,0.5"/>
<text text-anchor="start" x="8" y="-28.5" font-family="Helvetica,sans-Serif" font-size="10.00">commands.information.Single</text>
<text text-anchor="start" x="8" y="-17.5" font-family="Helvetica,sans-Serif" font-size="10.00">ActiveGridContainer.updateDisplay</text>
<text text-anchor="middle" x="91" y="-6.5" font-family="Helvetica,sans-Serif" font-size="10.00">Options</text>
</g>
<!-- Node2 -->
<g id="node2" class="node"><title>Node2</title>
<g id="a_node2"><a xlink:href="../../d0/d92/class_view_1_1_grid.html#a15a068afbcf686ce25fbeff06ad8e689" target="_top" xlink:title="View.Grid.updateGUI">
<polygon fill="white" stroke="black" points="218,-10.5 218,-29.5 332,-29.5 332,-10.5 218,-10.5"/>
<text text-anchor="middle" x="275" y="-17.5" font-family="Helvetica,sans-Serif" font-size="10.00">View.Grid.updateGUI</text>
</a>
</g>
</g>
<!-- Node1&#45;&gt;Node2 -->
<g id="edge1" class="edge"><title>Node1&#45;&gt;Node2</title>
<path fill="none" stroke="midnightblue" d="M182.2,-20C190.843,-20 199.495,-20 207.844,-20"/>
<polygon fill="midnightblue" stroke="midnightblue" points="207.859,-23.5001 217.858,-20 207.858,-16.5001 207.859,-23.5001"/>
</g>
</g>
</svg>
