<?xml version="1.0" encoding="UTF-8" standalone="no"?>
<!DOCTYPE svg PUBLIC "-//W3C//DTD SVG 1.1//EN"
 "http://www.w3.org/Graphics/SVG/1.1/DTD/svg11.dtd">
<!-- Generated by graphviz version 2.36.0 (20140111.2315)
 -->
<!-- Title: commands.viewCommands.StampCommand Pages: 1 -->
<svg width="455pt" height="306pt"
 viewBox="0.00 0.00 455.00 306.00" xmlns="http://www.w3.org/2000/svg" xmlns:xlink="http://www.w3.org/1999/xlink">
<g id="graph0" class="graph" transform="scale(1 1) rotate(0) translate(4 302)">
<title>commands.viewCommands.StampCommand</title>
<polygon fill="white" stroke="none" points="-4,4 -4,-302 451,-302 451,4 -4,4"/>
<!-- Node1 -->
<g id="node1" class="node"><title>Node1</title>
<polygon fill="#bfbfbf" stroke="black" points="14.5,-1 14.5,-31 199.5,-31 199.5,-1 14.5,-1"/>
<text text-anchor="start" x="22.5" y="-19" font-family="Helvetica,sans-Serif" font-size="10.00">commands.viewCommands.Stamp</text>
<text text-anchor="middle" x="107" y="-8" font-family="Helvetica,sans-Serif" font-size="10.00">Command</text>
</g>
<!-- Node2 -->
<g id="node2" class="node"><title>Node2</title>
<g id="a_node2"><a xlink:href="../../d1/de4/classcommands_1_1_view_query.html" target="_top" xlink:title="commands.ViewQuery">
<polygon fill="white" stroke="black" points="45,-70.5 45,-89.5 169,-89.5 169,-70.5 45,-70.5"/>
<text text-anchor="middle" x="107" y="-77.5" font-family="Helvetica,sans-Serif" font-size="10.00">commands.ViewQuery</text>
</a>
</g>
</g>
<!-- Node2&#45;&gt;Node1 -->
<g id="edge1" class="edge"><title>Node2&#45;&gt;Node1</title>
<path fill="none" stroke="midnightblue" d="M107,-60.1826C107,-50.8859 107,-39.8507 107,-31.263"/>
<polygon fill="midnightblue" stroke="midnightblue" points="103.5,-60.3791 107,-70.3792 110.5,-60.3792 103.5,-60.3791"/>
</g>
<!-- Node3 -->
<g id="node3" class="node"><title>Node3</title>
<g id="a_node3"><a xlink:href="../../de/d53/classcommands_1_1_view_command.html" target="_top" xlink:title="commands.ViewCommand">
<polygon fill="white" stroke="black" points="34,-128.5 34,-147.5 180,-147.5 180,-128.5 34,-128.5"/>
<text text-anchor="middle" x="107" y="-135.5" font-family="Helvetica,sans-Serif" font-size="10.00">commands.ViewCommand</text>
</a>
</g>
</g>
<!-- Node3&#45;&gt;Node2 -->
<g id="edge2" class="edge"><title>Node3&#45;&gt;Node2</title>
<path fill="none" stroke="midnightblue" d="M107,-117.953C107,-108.287 107,-97.0312 107,-89.5052"/>
<polygon fill="midnightblue" stroke="midnightblue" points="103.5,-118.25 107,-128.25 110.5,-118.25 103.5,-118.25"/>
</g>
<!-- Node4 -->
<g id="node4" class="node"><title>Node4</title>
<g id="a_node4"><a xlink:href="../../da/d90/classcommands_1_1_base_command.html" target="_top" xlink:title="commands.BaseCommand">
<polygon fill="white" stroke="black" points="0,-202.5 0,-221.5 148,-221.5 148,-202.5 0,-202.5"/>
<text text-anchor="middle" x="74" y="-209.5" font-family="Helvetica,sans-Serif" font-size="10.00">commands.BaseCommand</text>
</a>
</g>
</g>
<!-- Node4&#45;&gt;Node3 -->
<g id="edge3" class="edge"><title>Node4&#45;&gt;Node3</title>
<path fill="none" stroke="midnightblue" d="M78.3398,-192.555C80.6522,-184.213 83.8797,-174.371 88,-166 91.2401,-159.418 95.9901,-152.668 99.9301,-147.563"/>
<polygon fill="midnightblue" stroke="midnightblue" points="74.9071,-191.852 75.8288,-202.406 81.6902,-193.581 74.9071,-191.852"/>
</g>
<!-- Node4&#45;&gt;Node3 -->
<g id="edge8" class="edge"><title>Node4&#45;&gt;Node3</title>
<path fill="none" stroke="#9a32cd" stroke-dasharray="5,2" d="M82.2461,-193.008C88.9059,-178.478 97.9819,-158.676 103.09,-147.531"/>
<polygon fill="#9a32cd" stroke="#9a32cd" points="78.9,-191.909 77.9151,-202.458 85.2635,-194.826 78.9,-191.909"/>
<text text-anchor="middle" x="136.5" y="-169.5" font-family="Helvetica,sans-Serif" font-size="10.00"> myArgumentList</text>
</g>
<!-- Node4&#45;&gt;Node4 -->
<g id="edge5" class="edge"><title>Node4&#45;&gt;Node4</title>
<path fill="none" stroke="#9a32cd" stroke-dasharray="5,2" d="M158.58,-216.266C163.233,-215.227 166,-213.805 166,-212 166,-209.111 158.916,-207.204 148.36,-206.279"/>
<polygon fill="#9a32cd" stroke="#9a32cd" points="157.767,-212.846 148.36,-217.721 158.754,-219.776 157.767,-212.846"/>
<text text-anchor="middle" x="211.5" y="-209.5" font-family="Helvetica,sans-Serif" font-size="10.00"> myNextCommand</text>
</g>
<!-- Node5 -->
<g id="node5" class="node"><title>Node5</title>
<polygon fill="white" stroke="#bfbfbf" points="38.5,-272.5 38.5,-291.5 109.5,-291.5 109.5,-272.5 38.5,-272.5"/>
<text text-anchor="middle" x="74" y="-279.5" font-family="Helvetica,sans-Serif" font-size="10.00">Serializable</text>
</g>
<!-- Node5&#45;&gt;Node4 -->
<g id="edge4" class="edge"><title>Node5&#45;&gt;Node4</title>
<path fill="none" stroke="midnightblue" d="M74,-262.039C74,-248.852 74,-231.884 74,-221.757"/>
<polygon fill="midnightblue" stroke="midnightblue" points="70.5001,-262.388 74,-272.388 77.5001,-262.388 70.5001,-262.388"/>
</g>
<!-- Node6 -->
<g id="node6" class="node"><title>Node6</title>
<g id="a_node6"><a xlink:href="../../d4/d37/classcommands_1_1information_1_1_base_grid_container.html" target="_top" xlink:title="commands.information.Base\lGridContainer">
<polygon fill="white" stroke="black" points="275.5,-197 275.5,-227 430.5,-227 430.5,-197 275.5,-197"/>
<text text-anchor="start" x="283.5" y="-215" font-family="Helvetica,sans-Serif" font-size="10.00">commands.information.Base</text>
<text text-anchor="middle" x="353" y="-204" font-family="Helvetica,sans-Serif" font-size="10.00">GridContainer</text>
</a>
</g>
</g>
<!-- Node6&#45;&gt;Node3 -->
<g id="edge6" class="edge"><title>Node6&#45;&gt;Node3</title>
<path fill="none" stroke="#9a32cd" stroke-dasharray="5,2" d="M295.3,-194.112C245.458,-179.524 175.47,-159.04 136.374,-147.597"/>
<polygon fill="#9a32cd" stroke="#9a32cd" points="294.404,-197.497 304.985,-196.947 296.371,-190.779 294.404,-197.497"/>
<text text-anchor="middle" x="280.5" y="-169.5" font-family="Helvetica,sans-Serif" font-size="10.00"> myGridContainer</text>
</g>
<!-- Node7 -->
<g id="node7" class="node"><title>Node7</title>
<g id="a_node7"><a xlink:href="../../d4/d4e/interfacecommands_1_1information_1_1_i_information_container.html" target="_top" xlink:title="commands.information.IInformation\lContainer">
<polygon fill="white" stroke="black" points="259,-267 259,-297 447,-297 447,-267 259,-267"/>
<text text-anchor="start" x="267" y="-285" font-family="Helvetica,sans-Serif" font-size="10.00">commands.information.IInformation</text>
<text text-anchor="middle" x="353" y="-274" font-family="Helvetica,sans-Serif" font-size="10.00">Container</text>
</a>
</g>
</g>
<!-- Node7&#45;&gt;Node6 -->
<g id="edge7" class="edge"><title>Node7&#45;&gt;Node6</title>
<path fill="none" stroke="midnightblue" d="M353,-256.769C353,-246.814 353,-235.638 353,-227.072"/>
<polygon fill="midnightblue" stroke="midnightblue" points="349.5,-256.91 353,-266.91 356.5,-256.91 349.5,-256.91"/>
</g>
</g>
</svg>
