<?xml version="1.0" encoding="UTF-8" standalone="no"?>
<!DOCTYPE svg PUBLIC "-//W3C//DTD SVG 1.1//EN"
 "http://www.w3.org/Graphics/SVG/1.1/DTD/svg11.dtd">
<!-- Generated by graphviz version 2.36.0 (20140111.2315)
 -->
<!-- Title: View.GridTracker.getActiveGrid Pages: 1 -->
<svg width="706pt" height="846pt"
 viewBox="0.00 0.00 706.00 846.00" xmlns="http://www.w3.org/2000/svg" xmlns:xlink="http://www.w3.org/1999/xlink">
<g id="graph0" class="graph" transform="scale(1 1) rotate(0) translate(4 842)">
<title>View.GridTracker.getActiveGrid</title>
<polygon fill="white" stroke="none" points="-4,4 -4,-842 702,-842 702,4 -4,4"/>
<!-- Node1 -->
<g id="node1" class="node"><title>Node1</title>
<polygon fill="#bfbfbf" stroke="black" points="0.5,-420.5 0.5,-439.5 161.5,-439.5 161.5,-420.5 0.5,-420.5"/>
<text text-anchor="middle" x="81" y="-427.5" font-family="Helvetica,sans-Serif" font-size="10.00">View.GridTracker.getActiveGrid</text>
</g>
<!-- Node2 -->
<g id="node2" class="node"><title>Node2</title>
<g id="a_node2"><a xlink:href="../../da/d9b/class_g_u_i_functions_1_1_add_turtle.html#a4324961c5ed55780c7d9d270afe53c6d" target="_top" xlink:title="GUIFunctions.AddTurtle.add\lAction">
<polygon fill="white" stroke="black" points="213.5,-808 213.5,-838 360.5,-838 360.5,-808 213.5,-808"/>
<text text-anchor="start" x="221.5" y="-826" font-family="Helvetica,sans-Serif" font-size="10.00">GUIFunctions.AddTurtle.add</text>
<text text-anchor="middle" x="287" y="-815" font-family="Helvetica,sans-Serif" font-size="10.00">Action</text>
</a>
</g>
</g>
<!-- Node1&#45;&gt;Node2 -->
<g id="edge1" class="edge"><title>Node1&#45;&gt;Node2</title>
<path fill="none" stroke="midnightblue" d="M82.0707,-449.83C83.402,-511.047 96.0051,-698.877 198,-798 202.442,-802.317 207.573,-805.899 213.08,-808.869"/>
<polygon fill="midnightblue" stroke="midnightblue" points="85.5677,-449.582 81.9328,-439.63 78.5684,-449.676 85.5677,-449.582"/>
</g>
<!-- Node3 -->
<g id="node3" class="node"><title>Node3</title>
<g id="a_node3"><a xlink:href="../../d6/d33/class_view_1_1_slogo_view.html#a05ea476b14d0f5b642dbcd4449cdb9cb" target="_top" xlink:title="View.SlogoView.addTurtle">
<polygon fill="white" stroke="black" points="219.5,-769.5 219.5,-788.5 354.5,-788.5 354.5,-769.5 219.5,-769.5"/>
<text text-anchor="middle" x="287" y="-776.5" font-family="Helvetica,sans-Serif" font-size="10.00">View.SlogoView.addTurtle</text>
</a>
</g>
</g>
<!-- Node1&#45;&gt;Node3 -->
<g id="edge2" class="edge"><title>Node1&#45;&gt;Node3</title>
<path fill="none" stroke="midnightblue" d="M82.9736,-449.781C86.8503,-506.263 105.89,-669.687 198,-755 204.738,-761.241 212.941,-765.886 221.597,-769.338"/>
<polygon fill="midnightblue" stroke="midnightblue" points="86.4609,-449.463 82.3693,-439.69 79.4734,-449.882 86.4609,-449.463"/>
</g>
<!-- Node4 -->
<g id="node4" class="node"><title>Node4</title>
<g id="a_node4"><a xlink:href="../../d6/d33/class_view_1_1_slogo_view.html#acfeff052503655d2ac419d2bf4ea9bd5" target="_top" xlink:title="View.SlogoView.initialize">
<polygon fill="white" stroke="black" points="425,-750.5 425,-769.5 555,-769.5 555,-750.5 425,-750.5"/>
<text text-anchor="middle" x="490" y="-757.5" font-family="Helvetica,sans-Serif" font-size="10.00">View.SlogoView.initialize</text>
</a>
</g>
</g>
<!-- Node1&#45;&gt;Node4 -->
<g id="edge22" class="edge"><title>Node1&#45;&gt;Node4</title>
<path fill="none" stroke="midnightblue" d="M83.277,-449.787C87.8908,-503.456 108.56,-652.405 198,-722 232.28,-748.673 349.979,-756.673 424.774,-759.041"/>
<polygon fill="midnightblue" stroke="midnightblue" points="86.7491,-449.287 82.4999,-439.582 79.7693,-449.818 86.7491,-449.287"/>
</g>
<!-- Node6 -->
<g id="node6" class="node"><title>Node6</title>
<g id="a_node6"><a xlink:href="../../d6/d33/class_view_1_1_slogo_view.html#acfc9a29c260e063a27320bd12275a939" target="_top" xlink:title="View.SlogoView.build">
<polygon fill="white" stroke="black" points="230,-693.5 230,-712.5 344,-712.5 344,-693.5 230,-693.5"/>
<text text-anchor="middle" x="287" y="-700.5" font-family="Helvetica,sans-Serif" font-size="10.00">View.SlogoView.build</text>
</a>
</g>
</g>
<!-- Node1&#45;&gt;Node6 -->
<g id="edge5" class="edge"><title>Node1&#45;&gt;Node6</title>
<path fill="none" stroke="midnightblue" d="M84.9837,-449.613C93.3467,-497.492 121.611,-620.95 198,-683 207.121,-690.409 218.45,-695.193 229.912,-698.255"/>
<polygon fill="midnightblue" stroke="midnightblue" points="88.4177,-448.926 83.3415,-439.626 81.5104,-450.061 88.4177,-448.926"/>
</g>
<!-- Node8 -->
<g id="node8" class="node"><title>Node8</title>
<g id="a_node8"><a xlink:href="../../d6/d9d/class_g_u_i_functions_1_1_clear_function.html#a684c4fdd50edd2b578f9b206ac24c849" target="_top" xlink:title="GUIFunctions.ClearFunction.do\lAction">
<polygon fill="white" stroke="black" points="206.5,-644 206.5,-674 367.5,-674 367.5,-644 206.5,-644"/>
<text text-anchor="start" x="214.5" y="-662" font-family="Helvetica,sans-Serif" font-size="10.00">GUIFunctions.ClearFunction.do</text>
<text text-anchor="middle" x="287" y="-651" font-family="Helvetica,sans-Serif" font-size="10.00">Action</text>
</a>
</g>
</g>
<!-- Node1&#45;&gt;Node8 -->
<g id="edge7" class="edge"><title>Node1&#45;&gt;Node8</title>
<path fill="none" stroke="midnightblue" d="M87.5931,-449.653C100.221,-490.413 134.873,-584.47 198,-634 202.873,-637.824 208.304,-641.062 214.009,-643.806"/>
<polygon fill="midnightblue" stroke="midnightblue" points="90.8844,-448.442 84.6701,-439.861 84.1768,-450.444 90.8844,-448.442"/>
</g>
<!-- Node9 -->
<g id="node9" class="node"><title>Node9</title>
<g id="a_node9"><a xlink:href="../../db/d29/class_g_u_i_functions_1_1_clear_stamps.html#ab622a2b7715bf56369c02b5758309861" target="_top" xlink:title="GUIFunctions.ClearStamps.do\lAction">
<polygon fill="white" stroke="black" points="207.5,-595 207.5,-625 366.5,-625 366.5,-595 207.5,-595"/>
<text text-anchor="start" x="215.5" y="-613" font-family="Helvetica,sans-Serif" font-size="10.00">GUIFunctions.ClearStamps.do</text>
<text text-anchor="middle" x="287" y="-602" font-family="Helvetica,sans-Serif" font-size="10.00">Action</text>
</a>
</g>
</g>
<!-- Node1&#45;&gt;Node9 -->
<g id="edge8" class="edge"><title>Node1&#45;&gt;Node9</title>
<path fill="none" stroke="midnightblue" d="M91.0304,-449.109C107.544,-481.962 145.776,-549.075 198,-585 203.627,-588.871 209.846,-592.146 216.3,-594.918"/>
<polygon fill="midnightblue" stroke="midnightblue" points="93.9802,-447.174 86.4418,-439.729 87.6923,-450.25 93.9802,-447.174"/>
</g>
<!-- Node10 -->
<g id="node10" class="node"><title>Node10</title>
<g id="a_node10"><a xlink:href="../../d2/dd2/class_g_u_i_functions_1_1_set_pen_down.html#ac016088490fad0f1986cea6015a74a5d" target="_top" xlink:title="GUIFunctions.SetPenDown.do\lAction">
<polygon fill="white" stroke="black" points="208,-546 208,-576 366,-576 366,-546 208,-546"/>
<text text-anchor="start" x="216" y="-564" font-family="Helvetica,sans-Serif" font-size="10.00">GUIFunctions.SetPenDown.do</text>
<text text-anchor="middle" x="287" y="-553" font-family="Helvetica,sans-Serif" font-size="10.00">Action</text>
</a>
</g>
</g>
<!-- Node1&#45;&gt;Node10 -->
<g id="edge9" class="edge"><title>Node1&#45;&gt;Node10</title>
<path fill="none" stroke="midnightblue" d="M96.4991,-447.597C116.809,-471.124 155.981,-512.574 198,-536 204.797,-539.79 212.217,-543.044 219.771,-545.83"/>
<polygon fill="midnightblue" stroke="midnightblue" points="99.0341,-445.175 89.8998,-439.807 93.693,-449.7 99.0341,-445.175"/>
</g>
<!-- Node11 -->
<g id="node11" class="node"><title>Node11</title>
<g id="a_node11"><a xlink:href="../../d8/d40/class_g_u_i_functions_1_1_set_pen_up.html#a66b0a694c32b985e22e6814d48fa7a5c" target="_top" xlink:title="GUIFunctions.SetPenUp.do\lAction">
<polygon fill="white" stroke="black" points="214.5,-497 214.5,-527 359.5,-527 359.5,-497 214.5,-497"/>
<text text-anchor="start" x="222.5" y="-515" font-family="Helvetica,sans-Serif" font-size="10.00">GUIFunctions.SetPenUp.do</text>
<text text-anchor="middle" x="287" y="-504" font-family="Helvetica,sans-Serif" font-size="10.00">Action</text>
</a>
</g>
</g>
<!-- Node1&#45;&gt;Node11 -->
<g id="edge10" class="edge"><title>Node1&#45;&gt;Node11</title>
<path fill="none" stroke="midnightblue" d="M111.179,-443.987C134.446,-454.919 167.991,-470.188 198,-482 211.217,-487.202 225.746,-492.373 239.123,-496.919"/>
<polygon fill="midnightblue" stroke="midnightblue" points="112.414,-440.699 101.877,-439.59 109.422,-447.028 112.414,-440.699"/>
</g>
<!-- Node12 -->
<g id="node12" class="node"><title>Node12</title>
<g id="a_node12"><a xlink:href="../../d1/de7/class_g_u_i_functions_1_1_undo.html#a611c153735c5cbdbbfd8f55faa0adaae" target="_top" xlink:title="GUIFunctions.Undo.doAction">
<polygon fill="white" stroke="black" points="414,-99.5 414,-118.5 566,-118.5 566,-99.5 414,-99.5"/>
<text text-anchor="middle" x="490" y="-106.5" font-family="Helvetica,sans-Serif" font-size="10.00">GUIFunctions.Undo.doAction</text>
</a>
</g>
</g>
<!-- Node1&#45;&gt;Node12 -->
<g id="edge11" class="edge"><title>Node1&#45;&gt;Node12</title>
<path fill="none" stroke="midnightblue" d="M112.247,-443.436C169.699,-466.692 296.008,-506.709 376,-449 490.006,-366.753 490.788,-164.742 489.405,-118.525"/>
<polygon fill="midnightblue" stroke="midnightblue" points="113.567,-440.194 102.989,-439.59 110.881,-446.658 113.567,-440.194"/>
</g>
<!-- Node13 -->
<g id="node13" class="node"><title>Node13</title>
<g id="a_node13"><a xlink:href="../../de/def/class_g_u_i_functions_1_1_stamp.html#a69dfe4c5eb6d919cfca99f2097ce7e3e" target="_top" xlink:title="GUIFunctions.Stamp.doAction">
<polygon fill="white" stroke="black" points="207.5,-420.5 207.5,-439.5 366.5,-439.5 366.5,-420.5 207.5,-420.5"/>
<text text-anchor="middle" x="287" y="-427.5" font-family="Helvetica,sans-Serif" font-size="10.00">GUIFunctions.Stamp.doAction</text>
</a>
</g>
</g>
<!-- Node1&#45;&gt;Node13 -->
<g id="edge12" class="edge"><title>Node1&#45;&gt;Node13</title>
<path fill="none" stroke="midnightblue" d="M172.014,-430C183.777,-430 195.755,-430 207.312,-430"/>
<polygon fill="midnightblue" stroke="midnightblue" points="171.748,-426.5 161.748,-430 171.748,-433.5 171.748,-426.5"/>
</g>
<!-- Node14 -->
<g id="node14" class="node"><title>Node14</title>
<g id="a_node14"><a xlink:href="../../d5/dfa/class_g_u_i_functions_1_1_pen_thickness.html#af0b6030ff3fbeb35d4cae430fb2635ac" target="_top" xlink:title="GUIFunctions.PenThickness.do\lAction">
<polygon fill="white" stroke="black" points="206.5,-371 206.5,-401 367.5,-401 367.5,-371 206.5,-371"/>
<text text-anchor="start" x="214.5" y="-389" font-family="Helvetica,sans-Serif" font-size="10.00">GUIFunctions.PenThickness.do</text>
<text text-anchor="middle" x="287" y="-378" font-family="Helvetica,sans-Serif" font-size="10.00">Action</text>
</a>
</g>
</g>
<!-- Node1&#45;&gt;Node14 -->
<g id="edge13" class="edge"><title>Node1&#45;&gt;Node14</title>
<path fill="none" stroke="midnightblue" d="M136.115,-418.328C160.654,-413.035 189.976,-406.711 216.151,-401.065"/>
<polygon fill="midnightblue" stroke="midnightblue" points="135.302,-414.923 126.265,-420.453 136.778,-421.766 135.302,-414.923"/>
</g>
<!-- Node15 -->
<g id="node15" class="node"><title>Node15</title>
<g id="a_node15"><a xlink:href="../../dd/d80/class_g_u_i_functions_1_1_background_color.html#a0bcc67b3b6e4aeaaf6b5188ff5a51c9d" target="_top" xlink:title="GUIFunctions.BackgroundColor.do\lAction">
<polygon fill="white" stroke="black" points="198,-322 198,-352 376,-352 376,-322 198,-322"/>
<text text-anchor="start" x="206" y="-340" font-family="Helvetica,sans-Serif" font-size="10.00">GUIFunctions.BackgroundColor.do</text>
<text text-anchor="middle" x="287" y="-329" font-family="Helvetica,sans-Serif" font-size="10.00">Action</text>
</a>
</g>
</g>
<!-- Node1&#45;&gt;Node15 -->
<g id="edge14" class="edge"><title>Node1&#45;&gt;Node15</title>
<path fill="none" stroke="midnightblue" d="M104.228,-414.66C126.942,-399.55 163.657,-376.662 198,-362 206.618,-358.321 215.938,-355.009 225.178,-352.092"/>
<polygon fill="midnightblue" stroke="midnightblue" points="102.016,-411.93 95.6796,-420.421 105.928,-417.735 102.016,-411.93"/>
</g>
<!-- Node16 -->
<g id="node16" class="node"><title>Node16</title>
<g id="a_node16"><a xlink:href="../../da/d16/class_g_u_i_functions_1_1_pen_color.html#a40da853af47e7550f10ebb66756a8548" target="_top" xlink:title="GUIFunctions.PenColor.do\lAction">
<polygon fill="white" stroke="black" points="217.5,-273 217.5,-303 356.5,-303 356.5,-273 217.5,-273"/>
<text text-anchor="start" x="225.5" y="-291" font-family="Helvetica,sans-Serif" font-size="10.00">GUIFunctions.PenColor.do</text>
<text text-anchor="middle" x="287" y="-280" font-family="Helvetica,sans-Serif" font-size="10.00">Action</text>
</a>
</g>
</g>
<!-- Node1&#45;&gt;Node16 -->
<g id="edge15" class="edge"><title>Node1&#45;&gt;Node16</title>
<path fill="none" stroke="midnightblue" d="M94.6529,-412.405C114.022,-386.748 153.49,-339.273 198,-313 204.565,-309.125 211.762,-305.824 219.123,-303.018"/>
<polygon fill="midnightblue" stroke="midnightblue" points="91.7982,-410.378 88.6648,-420.499 97.4258,-414.541 91.7982,-410.378"/>
</g>
<!-- Node17 -->
<g id="node17" class="node"><title>Node17</title>
<g id="a_node17"><a xlink:href="../../d0/d77/class_g_u_i_functions_1_1_pen_style.html#a8e84d8f42da0306329a5e0266012b118" target="_top" xlink:title="GUIFunctions.PenStyle.do\lAction">
<polygon fill="white" stroke="black" points="217.5,-224 217.5,-254 356.5,-254 356.5,-224 217.5,-224"/>
<text text-anchor="start" x="225.5" y="-242" font-family="Helvetica,sans-Serif" font-size="10.00">GUIFunctions.PenStyle.do</text>
<text text-anchor="middle" x="287" y="-231" font-family="Helvetica,sans-Serif" font-size="10.00">Action</text>
</a>
</g>
</g>
<!-- Node1&#45;&gt;Node17 -->
<g id="edge16" class="edge"><title>Node1&#45;&gt;Node17</title>
<path fill="none" stroke="midnightblue" d="M90.0047,-410.982C105.564,-376.354 143.238,-302.999 198,-264 203.822,-259.854 210.316,-256.393 217.066,-253.505"/>
<polygon fill="midnightblue" stroke="midnightblue" points="86.6846,-409.84 85.8913,-420.405 93.1,-412.64 86.6846,-409.84"/>
</g>
<!-- Node18 -->
<g id="node18" class="node"><title>Node18</title>
<g id="a_node18"><a xlink:href="../../d8/df7/class_g_u_i_functions_1_1_toggle_grid_lines.html#a64d65a7ba6c511ab405924d32825ed17" target="_top" xlink:title="GUIFunctions.ToggleGridLines.do\lAction">
<polygon fill="white" stroke="black" points="201.5,-175 201.5,-205 372.5,-205 372.5,-175 201.5,-175"/>
<text text-anchor="start" x="209.5" y="-193" font-family="Helvetica,sans-Serif" font-size="10.00">GUIFunctions.ToggleGridLines.do</text>
<text text-anchor="middle" x="287" y="-182" font-family="Helvetica,sans-Serif" font-size="10.00">Action</text>
</a>
</g>
</g>
<!-- Node1&#45;&gt;Node18 -->
<g id="edge17" class="edge"><title>Node1&#45;&gt;Node18</title>
<path fill="none" stroke="midnightblue" d="M87.0301,-410.169C98.8389,-367.719 132.42,-267.644 198,-215 202.83,-211.122 208.231,-207.846 213.917,-205.078"/>
<polygon fill="midnightblue" stroke="midnightblue" points="83.5783,-409.529 84.3786,-420.094 90.3411,-411.336 83.5783,-409.529"/>
</g>
<!-- Node19 -->
<g id="node19" class="node"><title>Node19</title>
<g id="a_node19"><a xlink:href="../../db/dd9/class_g_u_i_functions_1_1_turtle_image_change.html#a912cba03d10e5081a69b6aa8b80277e6" target="_top" xlink:title="GUIFunctions.TurtleImage\lChange.doAction">
<polygon fill="white" stroke="black" points="218.5,-126 218.5,-156 355.5,-156 355.5,-126 218.5,-126"/>
<text text-anchor="start" x="226.5" y="-144" font-family="Helvetica,sans-Serif" font-size="10.00">GUIFunctions.TurtleImage</text>
<text text-anchor="middle" x="287" y="-133" font-family="Helvetica,sans-Serif" font-size="10.00">Change.doAction</text>
</a>
</g>
</g>
<!-- Node1&#45;&gt;Node19 -->
<g id="edge18" class="edge"><title>Node1&#45;&gt;Node19</title>
<path fill="none" stroke="midnightblue" d="M84.8161,-410.459C92.9049,-361.609 120.791,-233.281 198,-166 203.987,-160.783 210.992,-156.65 218.39,-153.377"/>
<polygon fill="midnightblue" stroke="midnightblue" points="81.3545,-409.942 83.2722,-420.362 88.271,-411.02 81.3545,-409.942"/>
</g>
<!-- Node20 -->
<g id="node20" class="node"><title>Node20</title>
<g id="a_node20"><a xlink:href="../../dc/d8a/class_g_u_i_functions_1_1_set_background_image.html#a66bb3cfbdb20dde3cbf3e55ef0c198b7" target="_top" xlink:title="GUIFunctions.SetBackground\lImage.doAction">
<polygon fill="white" stroke="black" points="412.5,-31 412.5,-61 567.5,-61 567.5,-31 412.5,-31"/>
<text text-anchor="start" x="420.5" y="-49" font-family="Helvetica,sans-Serif" font-size="10.00">GUIFunctions.SetBackground</text>
<text text-anchor="middle" x="490" y="-38" font-family="Helvetica,sans-Serif" font-size="10.00">Image.doAction</text>
</a>
</g>
</g>
<!-- Node1&#45;&gt;Node20 -->
<g id="edge19" class="edge"><title>Node1&#45;&gt;Node20</title>
<path fill="none" stroke="midnightblue" d="M81.7085,-410.263C81.987,-349.472 91.8589,-164.006 198,-78 229.887,-52.1617 337.355,-46.1886 412.351,-45.2996"/>
<polygon fill="midnightblue" stroke="midnightblue" points="78.209,-410.418 81.751,-420.403 85.2089,-410.388 78.209,-410.418"/>
</g>
<!-- Node21 -->
<g id="node21" class="node"><title>Node21</title>
<g id="a_node21"><a xlink:href="../../dc/d8a/class_g_u_i_functions_1_1_set_background_image.html#a99d94e1ecf90e9c6b550220a1a92e69a" target="_top" xlink:title="GUIFunctions.SetBackground\lImage.gridSetAction">
<polygon fill="white" stroke="black" points="209.5,-0 209.5,-30 364.5,-30 364.5,-0 209.5,-0"/>
<text text-anchor="start" x="217.5" y="-18" font-family="Helvetica,sans-Serif" font-size="10.00">GUIFunctions.SetBackground</text>
<text text-anchor="middle" x="287" y="-7" font-family="Helvetica,sans-Serif" font-size="10.00">Image.gridSetAction</text>
</a>
</g>
</g>
<!-- Node1&#45;&gt;Node21 -->
<g id="edge20" class="edge"><title>Node1&#45;&gt;Node21</title>
<path fill="none" stroke="midnightblue" d="M81.9776,-410.321C82.9899,-347.895 94.6528,-152.126 198,-45 203.94,-38.8432 211.192,-33.9499 218.958,-30.0607"/>
<polygon fill="midnightblue" stroke="midnightblue" points="78.4773,-410.345 81.8928,-420.374 85.4771,-410.404 78.4773,-410.345"/>
</g>
<!-- Node22 -->
<g id="node22" class="node"><title>Node22</title>
<g id="a_node22"><a xlink:href="../../d1/de7/class_g_u_i_functions_1_1_undo.html#abc375040abaf5731ac96ef7d7c02aa24" target="_top" xlink:title="GUIFunctions.Undo.undoLine">
<polygon fill="white" stroke="black" points="210,-87.5 210,-106.5 364,-106.5 364,-87.5 210,-87.5"/>
<text text-anchor="middle" x="287" y="-94.5" font-family="Helvetica,sans-Serif" font-size="10.00">GUIFunctions.Undo.undoLine</text>
</a>
</g>
</g>
<!-- Node1&#45;&gt;Node22 -->
<g id="edge23" class="edge"><title>Node1&#45;&gt;Node22</title>
<path fill="none" stroke="midnightblue" d="M83.0381,-409.911C87.0645,-354 106.419,-195.481 198,-116 202.368,-112.209 207.311,-109.118 212.572,-106.602"/>
<polygon fill="midnightblue" stroke="midnightblue" points="79.5244,-410.019 82.391,-420.219 86.5107,-410.458 79.5244,-410.019"/>
</g>
<!-- Node3&#45;&gt;Node4 -->
<g id="edge3" class="edge"><title>Node3&#45;&gt;Node4</title>
<path fill="none" stroke="midnightblue" d="M364.608,-771.758C384.509,-769.877 405.737,-767.871 424.918,-766.058"/>
<polygon fill="midnightblue" stroke="midnightblue" points="364.277,-768.274 354.651,-772.7 364.936,-775.243 364.277,-768.274"/>
</g>
<!-- Node5 -->
<g id="node5" class="node"><title>Node5</title>
<g id="a_node5"><a xlink:href="../../db/d27/class_view_1_1_slogo.html#a6ab76a53160b61d8501aec91c55b85c8" target="_top" xlink:title="View.Slogo.start">
<polygon fill="white" stroke="black" points="604.5,-750.5 604.5,-769.5 697.5,-769.5 697.5,-750.5 604.5,-750.5"/>
<text text-anchor="middle" x="651" y="-757.5" font-family="Helvetica,sans-Serif" font-size="10.00">View.Slogo.start</text>
</a>
</g>
</g>
<!-- Node4&#45;&gt;Node5 -->
<g id="edge4" class="edge"><title>Node4&#45;&gt;Node5</title>
<path fill="none" stroke="midnightblue" d="M565.279,-760C578.523,-760 591.962,-760 604.116,-760"/>
<polygon fill="midnightblue" stroke="midnightblue" points="565.213,-756.5 555.213,-760 565.213,-763.5 565.213,-756.5"/>
</g>
<!-- Node7 -->
<g id="node7" class="node"><title>Node7</title>
<g id="a_node7"><a xlink:href="../../d6/d33/class_view_1_1_slogo_view.html#a426ca98709fa7bf17d4e233519c504b4" target="_top" xlink:title="View.SlogoView.SlogoView">
<polygon fill="white" stroke="black" points="420,-693.5 420,-712.5 560,-712.5 560,-693.5 420,-693.5"/>
<text text-anchor="middle" x="490" y="-700.5" font-family="Helvetica,sans-Serif" font-size="10.00">View.SlogoView.SlogoView</text>
</a>
</g>
</g>
<!-- Node6&#45;&gt;Node7 -->
<g id="edge6" class="edge"><title>Node6&#45;&gt;Node7</title>
<path fill="none" stroke="midnightblue" d="M354.374,-703C375.39,-703 398.665,-703 419.87,-703"/>
<polygon fill="midnightblue" stroke="midnightblue" points="354.257,-699.5 344.257,-703 354.257,-706.5 354.257,-699.5"/>
</g>
<!-- Node21&#45;&gt;Node20 -->
<g id="edge21" class="edge"><title>Node21&#45;&gt;Node20</title>
<path fill="none" stroke="midnightblue" d="M374.556,-28.3495C387.115,-30.2864 399.971,-32.2691 412.317,-34.1733"/>
<polygon fill="midnightblue" stroke="midnightblue" points="374.98,-24.8735 364.563,-26.8082 373.912,-31.7917 374.98,-24.8735"/>
</g>
<!-- Node22&#45;&gt;Node12 -->
<g id="edge24" class="edge"><title>Node22&#45;&gt;Node12</title>
<path fill="none" stroke="midnightblue" d="M374.639,-102.172C387.667,-102.95 401.011,-103.747 413.774,-104.509"/>
<polygon fill="midnightblue" stroke="midnightblue" points="374.467,-98.6561 364.276,-101.554 374.05,-105.644 374.467,-98.6561"/>
</g>
</g>
</svg>
