<?xml version="1.0" encoding="UTF-8" standalone="no"?>
<!DOCTYPE svg PUBLIC "-//W3C//DTD SVG 1.1//EN"
 "http://www.w3.org/Graphics/SVG/1.1/DTD/svg11.dtd">
<!-- Generated by graphviz version 2.36.0 (20140111.2315)
 -->
<!-- Title: View.GridTracker.setActiveGrid Pages: 1 -->
<svg width="640pt" height="66pt"
 viewBox="0.00 0.00 640.00 66.00" xmlns="http://www.w3.org/2000/svg" xmlns:xlink="http://www.w3.org/1999/xlink">
<g id="graph0" class="graph" transform="scale(1 1) rotate(0) translate(4 62)">
<title>View.GridTracker.setActiveGrid</title>
<polygon fill="white" stroke="none" points="-4,4 -4,-62 636,-62 636,4 -4,4"/>
<!-- Node1 -->
<g id="node1" class="node"><title>Node1</title>
<polygon fill="#bfbfbf" stroke="black" points="0,-19.5 0,-38.5 160,-38.5 160,-19.5 0,-19.5"/>
<text text-anchor="middle" x="80" y="-26.5" font-family="Helvetica,sans-Serif" font-size="10.00">View.GridTracker.setActiveGrid</text>
</g>
<!-- Node2 -->
<g id="node2" class="node"><title>Node2</title>
<g id="a_node2"><a xlink:href="../../d6/d33/class_view_1_1_slogo_view.html#a5759fa529a24ab1e80d37348f3dd395b" target="_top" xlink:title="View.SlogoView.addGrid">
<polygon fill="white" stroke="black" points="196.5,-38.5 196.5,-57.5 325.5,-57.5 325.5,-38.5 196.5,-38.5"/>
<text text-anchor="middle" x="261" y="-45.5" font-family="Helvetica,sans-Serif" font-size="10.00">View.SlogoView.addGrid</text>
</a>
</g>
</g>
<!-- Node1&#45;&gt;Node2 -->
<g id="edge1" class="edge"><title>Node1&#45;&gt;Node2</title>
<path fill="none" stroke="midnightblue" d="M170.061,-38.4534C178.961,-39.3981 187.867,-40.3434 196.427,-41.252"/>
<polygon fill="midnightblue" stroke="midnightblue" points="170.347,-34.9641 160.033,-37.389 169.608,-41.925 170.347,-34.9641"/>
</g>
<!-- Node5 -->
<g id="node5" class="node"><title>Node5</title>
<g id="a_node5"><a xlink:href="../../d6/d33/class_view_1_1_slogo_view.html#acfc9a29c260e063a27320bd12275a939" target="_top" xlink:title="View.SlogoView.build">
<polygon fill="white" stroke="black" points="204,-0.5 204,-19.5 318,-19.5 318,-0.5 204,-0.5"/>
<text text-anchor="middle" x="261" y="-7.5" font-family="Helvetica,sans-Serif" font-size="10.00">View.SlogoView.build</text>
</a>
</g>
</g>
<!-- Node1&#45;&gt;Node5 -->
<g id="edge4" class="edge"><title>Node1&#45;&gt;Node5</title>
<path fill="none" stroke="midnightblue" d="M170.131,-19.5391C181.646,-18.3169 193.17,-17.0937 203.939,-15.9506"/>
<polygon fill="midnightblue" stroke="midnightblue" points="169.608,-16.075 160.033,-20.611 170.347,-23.0359 169.608,-16.075"/>
</g>
<!-- Node3 -->
<g id="node3" class="node"><title>Node3</title>
<g id="a_node3"><a xlink:href="../../d6/d33/class_view_1_1_slogo_view.html#acfeff052503655d2ac419d2bf4ea9bd5" target="_top" xlink:title="View.SlogoView.initialize">
<polygon fill="white" stroke="black" points="367,-38.5 367,-57.5 497,-57.5 497,-38.5 367,-38.5"/>
<text text-anchor="middle" x="432" y="-45.5" font-family="Helvetica,sans-Serif" font-size="10.00">View.SlogoView.initialize</text>
</a>
</g>
</g>
<!-- Node2&#45;&gt;Node3 -->
<g id="edge2" class="edge"><title>Node2&#45;&gt;Node3</title>
<path fill="none" stroke="midnightblue" d="M336.031,-48C346.263,-48 356.702,-48 366.737,-48"/>
<polygon fill="midnightblue" stroke="midnightblue" points="335.892,-44.5001 325.892,-48 335.892,-51.5001 335.892,-44.5001"/>
</g>
<!-- Node4 -->
<g id="node4" class="node"><title>Node4</title>
<g id="a_node4"><a xlink:href="../../db/d27/class_view_1_1_slogo.html#a6ab76a53160b61d8501aec91c55b85c8" target="_top" xlink:title="View.Slogo.start">
<polygon fill="white" stroke="black" points="538.5,-38.5 538.5,-57.5 631.5,-57.5 631.5,-38.5 538.5,-38.5"/>
<text text-anchor="middle" x="585" y="-45.5" font-family="Helvetica,sans-Serif" font-size="10.00">View.Slogo.start</text>
</a>
</g>
</g>
<!-- Node3&#45;&gt;Node4 -->
<g id="edge3" class="edge"><title>Node3&#45;&gt;Node4</title>
<path fill="none" stroke="midnightblue" d="M507.148,-48C517.733,-48 528.353,-48 538.176,-48"/>
<polygon fill="midnightblue" stroke="midnightblue" points="507.038,-44.5001 497.038,-48 507.038,-51.5001 507.038,-44.5001"/>
</g>
<!-- Node6 -->
<g id="node6" class="node"><title>Node6</title>
<g id="a_node6"><a xlink:href="../../d6/d33/class_view_1_1_slogo_view.html#a426ca98709fa7bf17d4e233519c504b4" target="_top" xlink:title="View.SlogoView.SlogoView">
<polygon fill="white" stroke="black" points="362,-0.5 362,-19.5 502,-19.5 502,-0.5 362,-0.5"/>
<text text-anchor="middle" x="432" y="-7.5" font-family="Helvetica,sans-Serif" font-size="10.00">View.SlogoView.SlogoView</text>
</a>
</g>
</g>
<!-- Node5&#45;&gt;Node6 -->
<g id="edge5" class="edge"><title>Node5&#45;&gt;Node6</title>
<path fill="none" stroke="midnightblue" d="M328.568,-10C339.465,-10 350.778,-10 361.737,-10"/>
<polygon fill="midnightblue" stroke="midnightblue" points="328.275,-6.5001 318.275,-10 328.275,-13.5001 328.275,-6.5001"/>
</g>
</g>
</svg>
