<?xml version="1.0" encoding="UTF-8" standalone="no"?>
<!DOCTYPE svg PUBLIC "-//W3C//DTD SVG 1.1//EN"
 "http://www.w3.org/Graphics/SVG/1.1/DTD/svg11.dtd">
<!-- Generated by graphviz version 2.36.0 (20140111.2315)
 -->
<!-- Title: commands.turtleCommands.SetHeadingCommand.onExecute Pages: 1 -->
<svg width="852pt" height="398pt"
 viewBox="0.00 0.00 852.00 398.00" xmlns="http://www.w3.org/2000/svg" xmlns:xlink="http://www.w3.org/1999/xlink">
<g id="graph0" class="graph" transform="scale(1 1) rotate(0) translate(4 394)">
<title>commands.turtleCommands.SetHeadingCommand.onExecute</title>
<polygon fill="white" stroke="none" points="-4,4 -4,-394 848,-394 848,4 -4,4"/>
<!-- Node1 -->
<g id="node1" class="node"><title>Node1</title>
<polygon fill="#bfbfbf" stroke="black" points="0,-147 0,-177 176,-177 176,-147 0,-147"/>
<text text-anchor="start" x="8" y="-165" font-family="Helvetica,sans-Serif" font-size="10.00">commands.turtleCommands.</text>
<text text-anchor="middle" x="88" y="-154" font-family="Helvetica,sans-Serif" font-size="10.00">SetHeadingCommand.onExecute</text>
</g>
<!-- Node2 -->
<g id="node2" class="node"><title>Node2</title>
<g id="a_node2"><a xlink:href="../../da/d90/classcommands_1_1_base_command.html#a68a349a085c4b05af0a55943da86598b" target="_top" xlink:title="commands.BaseCommand.execute">
<polygon fill="white" stroke="black" points="212.5,-302.5 212.5,-321.5 401.5,-321.5 401.5,-302.5 212.5,-302.5"/>
<text text-anchor="middle" x="307" y="-309.5" font-family="Helvetica,sans-Serif" font-size="10.00">commands.BaseCommand.execute</text>
</a>
</g>
</g>
<!-- Node1&#45;&gt;Node2 -->
<g id="edge1" class="edge"><title>Node1&#45;&gt;Node2</title>
<path fill="none" stroke="midnightblue" d="M103.398,-177.025C125.282,-199.25 168.939,-241.248 212,-269 230.2,-280.73 252.125,-290.955 270.221,-298.488"/>
<polygon fill="midnightblue" stroke="midnightblue" points="269.25,-301.871 279.832,-302.388 271.883,-295.384 269.25,-301.871"/>
</g>
<!-- Node6 -->
<g id="node6" class="node"><title>Node6</title>
<g id="a_node6"><a xlink:href="../../d7/d28/classcommands_1_1information_1_1_base_turtle_container.html#a704eca72b47c6a35888f2868beaec2d3" target="_top" xlink:title="commands.information.Base\lTurtleContainer.getActiveTurtles">
<polygon fill="white" stroke="black" points="676.5,-172 676.5,-202 843.5,-202 843.5,-172 676.5,-172"/>
<text text-anchor="start" x="684.5" y="-190" font-family="Helvetica,sans-Serif" font-size="10.00">commands.information.Base</text>
<text text-anchor="middle" x="760" y="-179" font-family="Helvetica,sans-Serif" font-size="10.00">TurtleContainer.getActiveTurtles</text>
</a>
</g>
</g>
<!-- Node1&#45;&gt;Node6 -->
<g id="edge6" class="edge"><title>Node1&#45;&gt;Node6</title>
<path fill="none" stroke="midnightblue" d="M107.132,-177.083C129.927,-194.967 171.051,-223.764 212,-235 385.935,-282.728 601.55,-233.69 702.232,-204.849"/>
<polygon fill="midnightblue" stroke="midnightblue" points="703.276,-208.19 711.902,-202.039 701.323,-201.468 703.276,-208.19"/>
</g>
<!-- Node7 -->
<g id="node7" class="node"><title>Node7</title>
<g id="a_node7"><a xlink:href="../../d3/d03/classcommands_1_1turtle_commands_1_1_turtle_command.html#af02dda0b6028af7d3db8af04ad3ce800" target="_top" xlink:title="commands.turtleCommands.\lTurtleCommand.getExpressionList">
<polygon fill="white" stroke="black" points="217.5,-196 217.5,-226 396.5,-226 396.5,-196 217.5,-196"/>
<text text-anchor="start" x="225.5" y="-214" font-family="Helvetica,sans-Serif" font-size="10.00">commands.turtleCommands.</text>
<text text-anchor="middle" x="307" y="-203" font-family="Helvetica,sans-Serif" font-size="10.00">TurtleCommand.getExpressionList</text>
</a>
</g>
</g>
<!-- Node1&#45;&gt;Node7 -->
<g id="edge7" class="edge"><title>Node1&#45;&gt;Node7</title>
<path fill="none" stroke="midnightblue" d="M155.582,-177.035C179.015,-182.326 205.53,-188.313 229.701,-193.771"/>
<polygon fill="midnightblue" stroke="midnightblue" points="229.019,-197.205 239.544,-195.994 230.561,-190.377 229.019,-197.205"/>
</g>
<!-- Node8 -->
<g id="node8" class="node"><title>Node8</title>
<g id="a_node8"><a xlink:href="../../d3/d03/classcommands_1_1turtle_commands_1_1_turtle_command.html#ae8d98992e825d4b47ef321fe8c6c63dd" target="_top" xlink:title="commands.turtleCommands.\lTurtleCommand.getGridContainer">
<polygon fill="white" stroke="black" points="218.5,-147 218.5,-177 395.5,-177 395.5,-147 218.5,-147"/>
<text text-anchor="start" x="226.5" y="-165" font-family="Helvetica,sans-Serif" font-size="10.00">commands.turtleCommands.</text>
<text text-anchor="middle" x="307" y="-154" font-family="Helvetica,sans-Serif" font-size="10.00">TurtleCommand.getGridContainer</text>
</a>
</g>
</g>
<!-- Node1&#45;&gt;Node8 -->
<g id="edge8" class="edge"><title>Node1&#45;&gt;Node8</title>
<path fill="none" stroke="midnightblue" d="M176.012,-162C186.556,-162 197.382,-162 208.07,-162"/>
<polygon fill="midnightblue" stroke="midnightblue" points="208.261,-165.5 218.261,-162 208.261,-158.5 208.261,-165.5"/>
</g>
<!-- Node9 -->
<g id="node9" class="node"><title>Node9</title>
<g id="a_node9"><a xlink:href="../../d3/d03/classcommands_1_1turtle_commands_1_1_turtle_command.html#a82f290b3a2e14029a8a525bafa35994f" target="_top" xlink:title="commands.turtleCommands.\lTurtleCommand.getTurtleContainer">
<polygon fill="white" stroke="black" points="215.5,-98 215.5,-128 398.5,-128 398.5,-98 215.5,-98"/>
<text text-anchor="start" x="223.5" y="-116" font-family="Helvetica,sans-Serif" font-size="10.00">commands.turtleCommands.</text>
<text text-anchor="middle" x="307" y="-105" font-family="Helvetica,sans-Serif" font-size="10.00">TurtleCommand.getTurtleContainer</text>
</a>
</g>
</g>
<!-- Node1&#45;&gt;Node9 -->
<g id="edge9" class="edge"><title>Node1&#45;&gt;Node9</title>
<path fill="none" stroke="midnightblue" d="M155.582,-146.965C179.015,-141.674 205.53,-135.687 229.701,-130.229"/>
<polygon fill="midnightblue" stroke="midnightblue" points="230.561,-133.623 239.544,-128.006 229.019,-126.795 230.561,-133.623"/>
</g>
<!-- Node10 -->
<g id="node10" class="node"><title>Node10</title>
<g id="a_node10"><a xlink:href="../../d7/d28/classcommands_1_1information_1_1_base_turtle_container.html#ac99ed37d53ab0b0e03d9e410a2e2836f" target="_top" xlink:title="commands.information.Base\lTurtleContainer.setHeading">
<polygon fill="white" stroke="black" points="229.5,-49 229.5,-79 384.5,-79 384.5,-49 229.5,-49"/>
<text text-anchor="start" x="237.5" y="-67" font-family="Helvetica,sans-Serif" font-size="10.00">commands.information.Base</text>
<text text-anchor="middle" x="307" y="-56" font-family="Helvetica,sans-Serif" font-size="10.00">TurtleContainer.setHeading</text>
</a>
</g>
</g>
<!-- Node1&#45;&gt;Node10 -->
<g id="edge10" class="edge"><title>Node1&#45;&gt;Node10</title>
<path fill="none" stroke="midnightblue" d="M110.258,-146.902C134.049,-130.609 174.226,-104.872 212,-89 217.824,-86.5531 223.952,-84.2875 230.172,-82.2024"/>
<polygon fill="midnightblue" stroke="midnightblue" points="231.526,-85.4446 239.992,-79.0745 229.401,-78.7749 231.526,-85.4446"/>
</g>
<!-- Node13 -->
<g id="node13" class="node"><title>Node13</title>
<g id="a_node13"><a xlink:href="../../d4/d37/classcommands_1_1information_1_1_base_grid_container.html#ae8e4c8b6e12b79c4249c4d7b36c96a70" target="_top" xlink:title="commands.information.Base\lGridContainer.update">
<polygon fill="white" stroke="black" points="229.5,-0 229.5,-30 384.5,-30 384.5,-0 229.5,-0"/>
<text text-anchor="start" x="237.5" y="-18" font-family="Helvetica,sans-Serif" font-size="10.00">commands.information.Base</text>
<text text-anchor="middle" x="307" y="-7" font-family="Helvetica,sans-Serif" font-size="10.00">GridContainer.update</text>
</a>
</g>
</g>
<!-- Node1&#45;&gt;Node13 -->
<g id="edge14" class="edge"><title>Node1&#45;&gt;Node13</title>
<path fill="none" stroke="midnightblue" d="M100.042,-146.703C119.606,-120.738 162.947,-68.1266 212,-40 215.896,-37.7662 219.997,-35.7266 224.218,-33.8652"/>
<polygon fill="midnightblue" stroke="midnightblue" points="225.657,-37.0587 233.618,-30.0682 223.035,-30.5682 225.657,-37.0587"/>
</g>
<!-- Node2&#45;&gt;Node2 -->
<g id="edge2" class="edge"><title>Node2&#45;&gt;Node2</title>
<path fill="none" stroke="midnightblue" d="M273.672,-321.612C256.932,-330.461 268.041,-340 307,-340 335.611,-340 349.202,-334.856 347.773,-328.618"/>
<polygon fill="midnightblue" stroke="midnightblue" points="350.009,-325.916 340.328,-321.612 345.212,-331.014 350.009,-325.916"/>
</g>
<!-- Node3 -->
<g id="node3" class="node"><title>Node3</title>
<g id="a_node3"><a xlink:href="../../da/d90/classcommands_1_1_base_command.html#a90abff4a812d84d0454cb095e03c6e08" target="_top" xlink:title="commands.BaseCommand.get\lNextCommand">
<polygon fill="white" stroke="black" points="455.5,-360 455.5,-390 622.5,-390 622.5,-360 455.5,-360"/>
<text text-anchor="start" x="463.5" y="-378" font-family="Helvetica,sans-Serif" font-size="10.00">commands.BaseCommand.get</text>
<text text-anchor="middle" x="539" y="-367" font-family="Helvetica,sans-Serif" font-size="10.00">NextCommand</text>
</a>
</g>
</g>
<!-- Node2&#45;&gt;Node3 -->
<g id="edge3" class="edge"><title>Node2&#45;&gt;Node3</title>
<path fill="none" stroke="midnightblue" d="M339.425,-321.563C365.693,-329.465 404.184,-340.835 438,-350 447.166,-352.484 456.828,-355.013 466.388,-357.461"/>
<polygon fill="midnightblue" stroke="midnightblue" points="465.734,-360.906 476.288,-359.977 467.459,-354.121 465.734,-360.906"/>
</g>
<!-- Node4 -->
<g id="node4" class="node"><title>Node4</title>
<g id="a_node4"><a xlink:href="../../da/d90/classcommands_1_1_base_command.html#aad4544c0bd9d40769d8997e4d6d97b08" target="_top" xlink:title="commands.BaseCommand.onExecute">
<polygon fill="white" stroke="black" points="438.5,-321.5 438.5,-340.5 639.5,-340.5 639.5,-321.5 438.5,-321.5"/>
<text text-anchor="middle" x="539" y="-328.5" font-family="Helvetica,sans-Serif" font-size="10.00">commands.BaseCommand.onExecute</text>
</a>
</g>
</g>
<!-- Node2&#45;&gt;Node4 -->
<g id="edge4" class="edge"><title>Node2&#45;&gt;Node4</title>
<path fill="none" stroke="midnightblue" d="M401.55,-319.728C410.315,-320.452 419.252,-321.19 428.149,-321.925"/>
<polygon fill="midnightblue" stroke="midnightblue" points="427.91,-325.417 438.164,-322.753 428.486,-318.441 427.91,-325.417"/>
</g>
<!-- Node5 -->
<g id="node5" class="node"><title>Node5</title>
<g id="a_node5"><a xlink:href="../../da/d90/classcommands_1_1_base_command.html#a37ff254bd611b07ea38aaaf85447a2c3" target="_top" xlink:title="commands.BaseCommand.reset">
<polygon fill="white" stroke="black" points="451,-283.5 451,-302.5 627,-302.5 627,-283.5 451,-283.5"/>
<text text-anchor="middle" x="539" y="-290.5" font-family="Helvetica,sans-Serif" font-size="10.00">commands.BaseCommand.reset</text>
</a>
</g>
</g>
<!-- Node2&#45;&gt;Node5 -->
<g id="edge5" class="edge"><title>Node2&#45;&gt;Node5</title>
<path fill="none" stroke="midnightblue" d="M401.55,-304.272C414.405,-303.21 427.632,-302.117 440.555,-301.05"/>
<polygon fill="midnightblue" stroke="midnightblue" points="441.164,-304.512 450.842,-300.2 440.588,-297.535 441.164,-304.512"/>
</g>
<!-- Node11 -->
<g id="node11" class="node"><title>Node11</title>
<g id="a_node11"><a xlink:href="../../d7/d28/classcommands_1_1information_1_1_base_turtle_container.html#ae3f987ec79fb3318d8c3a1c8bd65f67b" target="_top" xlink:title="commands.information.Base\lTurtleContainer.loopOverTurtle">
<polygon fill="white" stroke="black" points="459.5,-84 459.5,-114 618.5,-114 618.5,-84 459.5,-84"/>
<text text-anchor="start" x="467.5" y="-102" font-family="Helvetica,sans-Serif" font-size="10.00">commands.information.Base</text>
<text text-anchor="middle" x="539" y="-91" font-family="Helvetica,sans-Serif" font-size="10.00">TurtleContainer.loopOverTurtle</text>
</a>
</g>
</g>
<!-- Node10&#45;&gt;Node11 -->
<g id="edge11" class="edge"><title>Node10&#45;&gt;Node11</title>
<path fill="none" stroke="midnightblue" d="M384.587,-75.6545C405.344,-78.8132 427.988,-82.259 449.35,-85.5097"/>
<polygon fill="midnightblue" stroke="midnightblue" points="448.977,-88.9933 459.39,-87.0376 450.03,-82.0729 448.977,-88.9933"/>
</g>
<!-- Node11&#45;&gt;Node6 -->
<g id="edge13" class="edge"><title>Node11&#45;&gt;Node6</title>
<path fill="none" stroke="midnightblue" d="M577.647,-114.128C614.896,-129.095 672.007,-152.044 712.165,-168.181"/>
<polygon fill="midnightblue" stroke="midnightblue" points="710.894,-171.442 721.478,-171.923 713.504,-164.946 710.894,-171.442"/>
</g>
<!-- Node12 -->
<g id="node12" class="node"><title>Node12</title>
<g id="a_node12"><a xlink:href="../../d1/d39/interfacecommands_1_1information_1_1_base_turtle_container_1_1_turtle_action_with_result.html#a5043750fe9ea0b38e426614c999c9d60" target="_top" xlink:title="commands.information.Base\lTurtleContainer.TurtleActionWith\lResult.execute">
<polygon fill="white" stroke="black" points="676.5,-78.5 676.5,-119.5 843.5,-119.5 843.5,-78.5 676.5,-78.5"/>
<text text-anchor="start" x="684.5" y="-107.5" font-family="Helvetica,sans-Serif" font-size="10.00">commands.information.Base</text>
<text text-anchor="start" x="684.5" y="-96.5" font-family="Helvetica,sans-Serif" font-size="10.00">TurtleContainer.TurtleActionWith</text>
<text text-anchor="middle" x="760" y="-85.5" font-family="Helvetica,sans-Serif" font-size="10.00">Result.execute</text>
</a>
</g>
</g>
<!-- Node11&#45;&gt;Node12 -->
<g id="edge12" class="edge"><title>Node11&#45;&gt;Node12</title>
<path fill="none" stroke="midnightblue" d="M618.755,-99C634.045,-99 650.205,-99 665.905,-99"/>
<polygon fill="midnightblue" stroke="midnightblue" points="666.142,-102.5 676.142,-99 666.142,-95.5001 666.142,-102.5"/>
</g>
</g>
</svg>
