<?xml version="1.0" encoding="UTF-8" standalone="no"?>
<!DOCTYPE svg PUBLIC "-//W3C//DTD SVG 1.1//EN"
 "http://www.w3.org/Graphics/SVG/1.1/DTD/svg11.dtd">
<!-- Generated by graphviz version 2.36.0 (20140111.2315)
 -->
<!-- Title: commands.information.MapBasedUserDefinedContainer Pages: 1 -->
<svg width="268pt" height="176pt"
 viewBox="0.00 0.00 268.00 176.00" xmlns="http://www.w3.org/2000/svg" xmlns:xlink="http://www.w3.org/1999/xlink">
<g id="graph0" class="graph" transform="scale(1 1) rotate(0) translate(4 172)">
<title>commands.information.MapBasedUserDefinedContainer</title>
<polygon fill="white" stroke="none" points="-4,4 -4,-172 264,-172 264,4 -4,4"/>
<!-- Node1 -->
<g id="node1" class="node"><title>Node1</title>
<polygon fill="#bfbfbf" stroke="black" points="83,-1 83,-31 235,-31 235,-1 83,-1"/>
<text text-anchor="start" x="91" y="-19" font-family="Helvetica,sans-Serif" font-size="10.00">commands.information.Map</text>
<text text-anchor="middle" x="159" y="-8" font-family="Helvetica,sans-Serif" font-size="10.00">BasedUserDefinedContainer</text>
</g>
<!-- Node2 -->
<g id="node2" class="node"><title>Node2</title>
<g id="a_node2"><a xlink:href="../../d4/d05/classcommands_1_1information_1_1_base_user_defined_container.html" target="_top" xlink:title="commands.information.Base\lUserDefinedContainer">
<polygon fill="white" stroke="black" points="16.5,-69 16.5,-99 171.5,-99 171.5,-69 16.5,-69"/>
<text text-anchor="start" x="24.5" y="-87" font-family="Helvetica,sans-Serif" font-size="10.00">commands.information.Base</text>
<text text-anchor="middle" x="94" y="-76" font-family="Helvetica,sans-Serif" font-size="10.00">UserDefinedContainer</text>
</a>
</g>
</g>
<!-- Node2&#45;&gt;Node1 -->
<g id="edge1" class="edge"><title>Node2&#45;&gt;Node1</title>
<path fill="none" stroke="midnightblue" d="M115.189,-61.4855C124.939,-51.5852 136.241,-40.1092 144.923,-31.2931"/>
<polygon fill="midnightblue" stroke="midnightblue" points="112.627,-59.0982 108.104,-68.679 117.615,-64.01 112.627,-59.0982"/>
</g>
<!-- Node3 -->
<g id="node3" class="node"><title>Node3</title>
<g id="a_node3"><a xlink:href="../../d4/d4e/interfacecommands_1_1information_1_1_i_information_container.html" target="_top" xlink:title="commands.information.IInformation\lContainer">
<polygon fill="white" stroke="black" points="0,-137 0,-167 188,-167 188,-137 0,-137"/>
<text text-anchor="start" x="8" y="-155" font-family="Helvetica,sans-Serif" font-size="10.00">commands.information.IInformation</text>
<text text-anchor="middle" x="94" y="-144" font-family="Helvetica,sans-Serif" font-size="10.00">Container</text>
</a>
</g>
</g>
<!-- Node3&#45;&gt;Node2 -->
<g id="edge2" class="edge"><title>Node3&#45;&gt;Node2</title>
<path fill="none" stroke="midnightblue" d="M94,-126.532C94,-117.361 94,-107.245 94,-99.2931"/>
<polygon fill="midnightblue" stroke="midnightblue" points="90.5001,-126.679 94,-136.679 97.5001,-126.679 90.5001,-126.679"/>
</g>
<!-- Node4 -->
<g id="node4" class="node"><title>Node4</title>
<polygon fill="white" stroke="#bfbfbf" points="189.5,-74.5 189.5,-93.5 260.5,-93.5 260.5,-74.5 189.5,-74.5"/>
<text text-anchor="middle" x="225" y="-81.5" font-family="Helvetica,sans-Serif" font-size="10.00">Serializable</text>
</g>
<!-- Node4&#45;&gt;Node1 -->
<g id="edge3" class="edge"><title>Node4&#45;&gt;Node1</title>
<path fill="none" stroke="midnightblue" d="M209.119,-67.1185C198.17,-56.1696 183.744,-41.7438 173.181,-31.1815"/>
<polygon fill="midnightblue" stroke="midnightblue" points="206.826,-69.7754 216.372,-74.3717 211.775,-64.8257 206.826,-69.7754"/>
</g>
</g>
</svg>
