<?xml version="1.0" encoding="UTF-8" standalone="no"?>
<!DOCTYPE svg PUBLIC "-//W3C//DTD SVG 1.1//EN"
 "http://www.w3.org/Graphics/SVG/1.1/DTD/svg11.dtd">
<!-- Generated by graphviz version 2.36.0 (20140111.2315)
 -->
<!-- Title: commands.viewCommands.SetBackgroundCommand.onExecute Pages: 1 -->
<svg width="650pt" height="224pt"
 viewBox="0.00 0.00 650.00 224.00" xmlns="http://www.w3.org/2000/svg" xmlns:xlink="http://www.w3.org/1999/xlink">
<g id="graph0" class="graph" transform="scale(1 1) rotate(0) translate(4 220)">
<title>commands.viewCommands.SetBackgroundCommand.onExecute</title>
<polygon fill="white" stroke="none" points="-4,4 -4,-220 646,-220 646,4 -4,4"/>
<!-- Node1 -->
<g id="node1" class="node"><title>Node1</title>
<polygon fill="#bfbfbf" stroke="black" points="0.5,-73 0.5,-103 177.5,-103 177.5,-73 0.5,-73"/>
<text text-anchor="start" x="8.5" y="-91" font-family="Helvetica,sans-Serif" font-size="10.00">commands.viewCommands.Set</text>
<text text-anchor="middle" x="89" y="-80" font-family="Helvetica,sans-Serif" font-size="10.00">BackgroundCommand.onExecute</text>
</g>
<!-- Node2 -->
<g id="node2" class="node"><title>Node2</title>
<g id="a_node2"><a xlink:href="../../da/d90/classcommands_1_1_base_command.html#a68a349a085c4b05af0a55943da86598b" target="_top" xlink:title="commands.BaseCommand.execute">
<polygon fill="white" stroke="black" points="214.5,-147.5 214.5,-166.5 403.5,-166.5 403.5,-147.5 214.5,-147.5"/>
<text text-anchor="middle" x="309" y="-154.5" font-family="Helvetica,sans-Serif" font-size="10.00">commands.BaseCommand.execute</text>
</a>
</g>
</g>
<!-- Node1&#45;&gt;Node2 -->
<g id="edge1" class="edge"><title>Node1&#45;&gt;Node2</title>
<path fill="none" stroke="midnightblue" d="M123.67,-103.074C148.31,-113.666 182.753,-127.574 214,-137 224.047,-140.031 234.832,-142.78 245.385,-145.202"/>
<polygon fill="midnightblue" stroke="midnightblue" points="244.88,-148.675 255.4,-147.423 246.395,-141.841 244.88,-148.675"/>
</g>
<!-- Node6 -->
<g id="node6" class="node"><title>Node6</title>
<g id="a_node6"><a xlink:href="../../de/d53/classcommands_1_1_view_command.html#a0d1f20b664d16af5ddd93941b6178637" target="_top" xlink:title="commands.ViewCommand.get\lExpressionList">
<polygon fill="white" stroke="black" points="227,-98 227,-128 391,-128 391,-98 227,-98"/>
<text text-anchor="start" x="235" y="-116" font-family="Helvetica,sans-Serif" font-size="10.00">commands.ViewCommand.get</text>
<text text-anchor="middle" x="309" y="-105" font-family="Helvetica,sans-Serif" font-size="10.00">ExpressionList</text>
</a>
</g>
</g>
<!-- Node1&#45;&gt;Node6 -->
<g id="edge6" class="edge"><title>Node1&#45;&gt;Node6</title>
<path fill="none" stroke="midnightblue" d="M177.727,-98.0604C190.516,-99.5271 203.713,-101.04 216.574,-102.515"/>
<polygon fill="midnightblue" stroke="midnightblue" points="216.469,-106.026 226.802,-103.688 217.266,-99.0717 216.469,-106.026"/>
</g>
<!-- Node7 -->
<g id="node7" class="node"><title>Node7</title>
<g id="a_node7"><a xlink:href="../../de/d53/classcommands_1_1_view_command.html#a32c2e34744e1d5c26ad5825a77e24ac1" target="_top" xlink:title="commands.ViewCommand.get\lGridContainer">
<polygon fill="white" stroke="black" points="227,-49 227,-79 391,-79 391,-49 227,-49"/>
<text text-anchor="start" x="235" y="-67" font-family="Helvetica,sans-Serif" font-size="10.00">commands.ViewCommand.get</text>
<text text-anchor="middle" x="309" y="-56" font-family="Helvetica,sans-Serif" font-size="10.00">GridContainer</text>
</a>
</g>
</g>
<!-- Node1&#45;&gt;Node7 -->
<g id="edge7" class="edge"><title>Node1&#45;&gt;Node7</title>
<path fill="none" stroke="midnightblue" d="M177.727,-78.342C190.516,-76.934 203.713,-75.4811 216.574,-74.0652"/>
<polygon fill="midnightblue" stroke="midnightblue" points="217.246,-77.5126 226.802,-72.9392 216.479,-70.5546 217.246,-77.5126"/>
</g>
<!-- Node8 -->
<g id="node8" class="node"><title>Node8</title>
<g id="a_node8"><a xlink:href="../../d4/d37/classcommands_1_1information_1_1_base_grid_container.html#a7236ecf27bd2b6a6af63209fdb651131" target="_top" xlink:title="commands.information.Base\lGridContainer.updateDisplayOptions">
<polygon fill="white" stroke="black" points="214,-0 214,-30 404,-30 404,-0 214,-0"/>
<text text-anchor="start" x="222" y="-18" font-family="Helvetica,sans-Serif" font-size="10.00">commands.information.Base</text>
<text text-anchor="middle" x="309" y="-7" font-family="Helvetica,sans-Serif" font-size="10.00">GridContainer.updateDisplayOptions</text>
</a>
</g>
</g>
<!-- Node1&#45;&gt;Node8 -->
<g id="edge8" class="edge"><title>Node1&#45;&gt;Node8</title>
<path fill="none" stroke="midnightblue" d="M124.581,-72.9732C149.219,-62.6039 183.279,-48.9476 214,-39 220.72,-36.824 227.761,-34.7169 234.837,-32.7144"/>
<polygon fill="midnightblue" stroke="midnightblue" points="235.774,-36.0869 244.482,-30.0521 233.911,-29.3393 235.774,-36.0869"/>
</g>
<!-- Node2&#45;&gt;Node2 -->
<g id="edge2" class="edge"><title>Node2&#45;&gt;Node2</title>
<path fill="none" stroke="midnightblue" d="M275.366,-166.612C258.472,-175.461 269.684,-185 309,-185 337.873,-185 351.589,-179.856 350.147,-173.618"/>
<polygon fill="midnightblue" stroke="midnightblue" points="352.335,-170.872 342.634,-166.612 347.561,-175.992 352.335,-170.872"/>
</g>
<!-- Node3 -->
<g id="node3" class="node"><title>Node3</title>
<g id="a_node3"><a xlink:href="../../da/d90/classcommands_1_1_base_command.html#a90abff4a812d84d0454cb095e03c6e08" target="_top" xlink:title="commands.BaseCommand.get\lNextCommand">
<polygon fill="white" stroke="black" points="457.5,-186 457.5,-216 624.5,-216 624.5,-186 457.5,-186"/>
<text text-anchor="start" x="465.5" y="-204" font-family="Helvetica,sans-Serif" font-size="10.00">commands.BaseCommand.get</text>
<text text-anchor="middle" x="541" y="-193" font-family="Helvetica,sans-Serif" font-size="10.00">NextCommand</text>
</a>
</g>
</g>
<!-- Node2&#45;&gt;Node3 -->
<g id="edge3" class="edge"><title>Node2&#45;&gt;Node3</title>
<path fill="none" stroke="midnightblue" d="M359.907,-166.547C386.611,-171.656 420.298,-178.101 451.293,-184.03"/>
<polygon fill="midnightblue" stroke="midnightblue" points="450.77,-187.493 461.249,-185.935 452.085,-180.618 450.77,-187.493"/>
</g>
<!-- Node4 -->
<g id="node4" class="node"><title>Node4</title>
<g id="a_node4"><a xlink:href="../../da/d90/classcommands_1_1_base_command.html#aad4544c0bd9d40769d8997e4d6d97b08" target="_top" xlink:title="commands.BaseCommand.onExecute">
<polygon fill="white" stroke="black" points="440.5,-147.5 440.5,-166.5 641.5,-166.5 641.5,-147.5 440.5,-147.5"/>
<text text-anchor="middle" x="541" y="-154.5" font-family="Helvetica,sans-Serif" font-size="10.00">commands.BaseCommand.onExecute</text>
</a>
</g>
</g>
<!-- Node2&#45;&gt;Node4 -->
<g id="edge4" class="edge"><title>Node2&#45;&gt;Node4</title>
<path fill="none" stroke="midnightblue" d="M403.55,-157C412.315,-157 421.252,-157 430.149,-157"/>
<polygon fill="midnightblue" stroke="midnightblue" points="430.164,-160.5 440.164,-157 430.164,-153.5 430.164,-160.5"/>
</g>
<!-- Node5 -->
<g id="node5" class="node"><title>Node5</title>
<g id="a_node5"><a xlink:href="../../da/d90/classcommands_1_1_base_command.html#a37ff254bd611b07ea38aaaf85447a2c3" target="_top" xlink:title="commands.BaseCommand.reset">
<polygon fill="white" stroke="black" points="453,-109.5 453,-128.5 629,-128.5 629,-109.5 453,-109.5"/>
<text text-anchor="middle" x="541" y="-116.5" font-family="Helvetica,sans-Serif" font-size="10.00">commands.BaseCommand.reset</text>
</a>
</g>
</g>
<!-- Node2&#45;&gt;Node5 -->
<g id="edge5" class="edge"><title>Node2&#45;&gt;Node5</title>
<path fill="none" stroke="midnightblue" d="M367.742,-147.46C399.458,-142.22 438.974,-135.691 472.156,-130.209"/>
<polygon fill="midnightblue" stroke="midnightblue" points="472.939,-133.627 482.234,-128.544 471.798,-126.721 472.939,-133.627"/>
</g>
</g>
</svg>
