<?xml version="1.0" encoding="UTF-8" standalone="no"?>
<!DOCTYPE svg PUBLIC "-//W3C//DTD SVG 1.1//EN"
 "http://www.w3.org/Graphics/SVG/1.1/DTD/svg11.dtd">
<!-- Generated by graphviz version 2.36.0 (20140111.2315)
 -->
<!-- Title: commands.information.SingleGridInformationGateway Pages: 1 -->
<svg width="196pt" height="108pt"
 viewBox="0.00 0.00 196.00 108.00" xmlns="http://www.w3.org/2000/svg" xmlns:xlink="http://www.w3.org/1999/xlink">
<g id="graph0" class="graph" transform="scale(1 1) rotate(0) translate(4 104)">
<title>commands.information.SingleGridInformationGateway</title>
<polygon fill="white" stroke="none" points="-4,4 -4,-104 192,-104 192,4 -4,4"/>
<!-- Node1 -->
<g id="node1" class="node"><title>Node1</title>
<polygon fill="#bfbfbf" stroke="black" points="13.5,-1 13.5,-31 174.5,-31 174.5,-1 13.5,-1"/>
<text text-anchor="start" x="21.5" y="-19" font-family="Helvetica,sans-Serif" font-size="10.00">commands.information.Single</text>
<text text-anchor="middle" x="94" y="-8" font-family="Helvetica,sans-Serif" font-size="10.00">GridInformationGateway</text>
</g>
<!-- Node2 -->
<g id="node2" class="node"><title>Node2</title>
<g id="a_node2"><a xlink:href="../../dd/df5/interfacecommands_1_1information_1_1_i_information_gateway.html" target="_top" xlink:title="commands.information.IInformation\lGateway">
<polygon fill="white" stroke="black" points="0,-69 0,-99 188,-99 188,-69 0,-69"/>
<text text-anchor="start" x="8" y="-87" font-family="Helvetica,sans-Serif" font-size="10.00">commands.information.IInformation</text>
<text text-anchor="middle" x="94" y="-76" font-family="Helvetica,sans-Serif" font-size="10.00">Gateway</text>
</a>
</g>
</g>
<!-- Node2&#45;&gt;Node1 -->
<g id="edge1" class="edge"><title>Node2&#45;&gt;Node1</title>
<path fill="none" stroke="midnightblue" d="M94,-58.5322C94,-49.3606 94,-39.2449 94,-31.2931"/>
<polygon fill="midnightblue" stroke="midnightblue" points="90.5001,-58.6789 94,-68.679 97.5001,-58.679 90.5001,-58.6789"/>
</g>
</g>
</svg>
