<?xml version="1.0" encoding="UTF-8" standalone="no"?>
<!DOCTYPE svg PUBLIC "-//W3C//DTD SVG 1.1//EN"
 "http://www.w3.org/Graphics/SVG/1.1/DTD/svg11.dtd">
<!-- Generated by graphviz version 2.36.0 (20140111.2315)
 -->
<!-- Title: commands.expressionCommands.TanCommand.onExecute Pages: 1 -->
<svg width="676pt" height="164pt"
 viewBox="0.00 0.00 676.00 164.00" xmlns="http://www.w3.org/2000/svg" xmlns:xlink="http://www.w3.org/1999/xlink">
<g id="graph0" class="graph" transform="scale(1 1) rotate(0) translate(4 160)">
<title>commands.expressionCommands.TanCommand.onExecute</title>
<polygon fill="white" stroke="none" points="-4,4 -4,-160 672,-160 672,4 -4,4"/>
<!-- Node1 -->
<g id="node1" class="node"><title>Node1</title>
<polygon fill="#bfbfbf" stroke="black" points="0,-45 0,-75 184,-75 184,-45 0,-45"/>
<text text-anchor="start" x="8" y="-63" font-family="Helvetica,sans-Serif" font-size="10.00">commands.expressionCommands.</text>
<text text-anchor="middle" x="92" y="-52" font-family="Helvetica,sans-Serif" font-size="10.00">TanCommand.onExecute</text>
</g>
<!-- Node2 -->
<g id="node2" class="node"><title>Node2</title>
<g id="a_node2"><a xlink:href="../../da/d90/classcommands_1_1_base_command.html#a68a349a085c4b05af0a55943da86598b" target="_top" xlink:title="commands.BaseCommand.execute">
<polygon fill="white" stroke="black" points="228.5,-77.5 228.5,-96.5 417.5,-96.5 417.5,-77.5 228.5,-77.5"/>
<text text-anchor="middle" x="323" y="-84.5" font-family="Helvetica,sans-Serif" font-size="10.00">commands.BaseCommand.execute</text>
</a>
</g>
</g>
<!-- Node1&#45;&gt;Node2 -->
<g id="edge1" class="edge"><title>Node1&#45;&gt;Node2</title>
<path fill="none" stroke="midnightblue" d="M184.165,-70.7487C199.615,-72.5703 215.656,-74.4616 231.099,-76.2824"/>
<polygon fill="midnightblue" stroke="midnightblue" points="230.808,-79.7722 241.149,-77.4673 231.627,-72.8204 230.808,-79.7722"/>
</g>
<!-- Node6 -->
<g id="node6" class="node"><title>Node6</title>
<g id="a_node6"><a xlink:href="../../d8/db1/classcommands_1_1expression_commands_1_1_one_expression_command.html#a83489a62b266dd8dbf7df1ed8d6b3314" target="_top" xlink:title="commands.expressionCommands.\lOneExpressionCommand.getArgument">
<polygon fill="white" stroke="black" points="220.5,-19 220.5,-49 425.5,-49 425.5,-19 220.5,-19"/>
<text text-anchor="start" x="228.5" y="-37" font-family="Helvetica,sans-Serif" font-size="10.00">commands.expressionCommands.</text>
<text text-anchor="middle" x="323" y="-26" font-family="Helvetica,sans-Serif" font-size="10.00">OneExpressionCommand.getArgument</text>
</a>
</g>
</g>
<!-- Node1&#45;&gt;Node6 -->
<g id="edge6" class="edge"><title>Node1&#45;&gt;Node6</title>
<path fill="none" stroke="midnightblue" d="M184.165,-49.6494C192.681,-48.6825 201.378,-47.6951 210.055,-46.7099"/>
<polygon fill="midnightblue" stroke="midnightblue" points="210.678,-50.1617 220.22,-45.5558 209.889,-43.2064 210.678,-50.1617"/>
</g>
<!-- Node2&#45;&gt;Node2 -->
<g id="edge2" class="edge"><title>Node2&#45;&gt;Node2</title>
<path fill="none" stroke="midnightblue" d="M287.837,-96.6119C270.176,-105.461 281.896,-115 323,-115 353.828,-115 368.128,-109.634 365.9,-103.218"/>
<polygon fill="midnightblue" stroke="midnightblue" points="368.04,-100.444 358.163,-96.6119 363.495,-105.767 368.04,-100.444"/>
</g>
<!-- Node3 -->
<g id="node3" class="node"><title>Node3</title>
<g id="a_node3"><a xlink:href="../../da/d90/classcommands_1_1_base_command.html#a90abff4a812d84d0454cb095e03c6e08" target="_top" xlink:title="commands.BaseCommand.get\lNextCommand">
<polygon fill="white" stroke="black" points="481.5,-126 481.5,-156 648.5,-156 648.5,-126 481.5,-126"/>
<text text-anchor="start" x="489.5" y="-144" font-family="Helvetica,sans-Serif" font-size="10.00">commands.BaseCommand.get</text>
<text text-anchor="middle" x="565" y="-133" font-family="Helvetica,sans-Serif" font-size="10.00">NextCommand</text>
</a>
</g>
</g>
<!-- Node2&#45;&gt;Node3 -->
<g id="edge3" class="edge"><title>Node2&#45;&gt;Node3</title>
<path fill="none" stroke="midnightblue" d="M366.355,-96.5298C399.726,-104.038 447.136,-114.706 487.158,-123.71"/>
<polygon fill="midnightblue" stroke="midnightblue" points="486.636,-127.181 497.16,-125.961 488.173,-120.351 486.636,-127.181"/>
</g>
<!-- Node4 -->
<g id="node4" class="node"><title>Node4</title>
<g id="a_node4"><a xlink:href="../../da/d90/classcommands_1_1_base_command.html#aad4544c0bd9d40769d8997e4d6d97b08" target="_top" xlink:title="commands.BaseCommand.onExecute">
<polygon fill="white" stroke="black" points="464.5,-87.5 464.5,-106.5 665.5,-106.5 665.5,-87.5 464.5,-87.5"/>
<text text-anchor="middle" x="565" y="-94.5" font-family="Helvetica,sans-Serif" font-size="10.00">commands.BaseCommand.onExecute</text>
</a>
</g>
</g>
<!-- Node2&#45;&gt;Node4 -->
<g id="edge4" class="edge"><title>Node2&#45;&gt;Node4</title>
<path fill="none" stroke="midnightblue" d="M417.821,-90.9092C429.736,-91.4057 442.012,-91.9172 454.149,-92.4229"/>
<polygon fill="midnightblue" stroke="midnightblue" points="454.164,-95.9264 464.301,-92.8459 454.455,-88.9325 454.164,-95.9264"/>
</g>
<!-- Node5 -->
<g id="node5" class="node"><title>Node5</title>
<g id="a_node5"><a xlink:href="../../da/d90/classcommands_1_1_base_command.html#a37ff254bd611b07ea38aaaf85447a2c3" target="_top" xlink:title="commands.BaseCommand.reset">
<polygon fill="white" stroke="black" points="477,-49.5 477,-68.5 653,-68.5 653,-49.5 477,-49.5"/>
<text text-anchor="middle" x="565" y="-56.5" font-family="Helvetica,sans-Serif" font-size="10.00">commands.BaseCommand.reset</text>
</a>
</g>
</g>
<!-- Node2&#45;&gt;Node5 -->
<g id="edge5" class="edge"><title>Node2&#45;&gt;Node5</title>
<path fill="none" stroke="midnightblue" d="M405.588,-77.4814C427.035,-74.9792 450.313,-72.2635 472.254,-69.7037"/>
<polygon fill="midnightblue" stroke="midnightblue" points="472.703,-73.1751 482.23,-68.5398 471.892,-66.2223 472.703,-73.1751"/>
</g>
<!-- Node7 -->
<g id="node7" class="node"><title>Node7</title>
<g id="a_node7"><a xlink:href="../../dc/d85/classcommands_1_1expression_commands_1_1_expression_command.html#a2d97de0e940f22eed366f3cc33ad7aa0" target="_top" xlink:title="commands.expressionCommands.\lExpressionCommand.getExpressionList">
<polygon fill="white" stroke="black" points="462,-0 462,-30 668,-30 668,-0 462,-0"/>
<text text-anchor="start" x="470" y="-18" font-family="Helvetica,sans-Serif" font-size="10.00">commands.expressionCommands.</text>
<text text-anchor="middle" x="565" y="-7" font-family="Helvetica,sans-Serif" font-size="10.00">ExpressionCommand.getExpressionList</text>
</a>
</g>
</g>
<!-- Node6&#45;&gt;Node7 -->
<g id="edge7" class="edge"><title>Node6&#45;&gt;Node7</title>
<path fill="none" stroke="midnightblue" d="M425.782,-25.9423C434.321,-25.2662 442.987,-24.5802 451.601,-23.8983"/>
<polygon fill="midnightblue" stroke="midnightblue" points="451.985,-27.3789 461.677,-23.1005 451.432,-20.4008 451.985,-27.3789"/>
</g>
</g>
</svg>
