<?xml version="1.0" encoding="UTF-8" standalone="no"?>
<!DOCTYPE svg PUBLIC "-//W3C//DTD SVG 1.1//EN"
 "http://www.w3.org/Graphics/SVG/1.1/DTD/svg11.dtd">
<!-- Generated by graphviz version 2.36.0 (20140111.2315)
 -->
<!-- Title: GUIFunctions.PenColor.doAction Pages: 1 -->
<svg width="520pt" height="104pt"
 viewBox="0.00 0.00 520.00 104.00" xmlns="http://www.w3.org/2000/svg" xmlns:xlink="http://www.w3.org/1999/xlink">
<g id="graph0" class="graph" transform="scale(1 1) rotate(0) translate(4 100)">
<title>GUIFunctions.PenColor.doAction</title>
<polygon fill="white" stroke="none" points="-4,4 -4,-100 516,-100 516,4 -4,4"/>
<!-- Node1 -->
<g id="node1" class="node"><title>Node1</title>
<polygon fill="#bfbfbf" stroke="black" points="0.5,-33 0.5,-63 139.5,-63 139.5,-33 0.5,-33"/>
<text text-anchor="start" x="8.5" y="-51" font-family="Helvetica,sans-Serif" font-size="10.00">GUIFunctions.PenColor.do</text>
<text text-anchor="middle" x="70" y="-40" font-family="Helvetica,sans-Serif" font-size="10.00">Action</text>
</g>
<!-- Node2 -->
<g id="node2" class="node"><title>Node2</title>
<g id="a_node2"><a xlink:href="../../d7/d98/class_view_1_1_grid_tracker.html#af7c2413584c58030e606ae6692ea564f" target="_top" xlink:title="View.GridTracker.getActiveGrid">
<polygon fill="white" stroke="black" points="176.5,-76.5 176.5,-95.5 337.5,-95.5 337.5,-76.5 176.5,-76.5"/>
<text text-anchor="middle" x="257" y="-83.5" font-family="Helvetica,sans-Serif" font-size="10.00">View.GridTracker.getActiveGrid</text>
</a>
</g>
</g>
<!-- Node1&#45;&gt;Node2 -->
<g id="edge1" class="edge"><title>Node1&#45;&gt;Node2</title>
<path fill="none" stroke="midnightblue" d="M139.624,-62.0958C159.411,-66.16 180.762,-70.5456 199.707,-74.437"/>
<polygon fill="midnightblue" stroke="midnightblue" points="199.165,-77.8988 209.665,-76.4825 200.574,-71.042 199.165,-77.8988"/>
</g>
<!-- Node3 -->
<g id="node3" class="node"><title>Node3</title>
<g id="a_node3"><a xlink:href="../../d9/db1/class_view_1_1_single_grid.html#a10f914014fc090d2d57192c8678242fd" target="_top" xlink:title="View.SingleGrid.getActivePens">
<polygon fill="white" stroke="black" points="176.5,-38.5 176.5,-57.5 337.5,-57.5 337.5,-38.5 176.5,-38.5"/>
<text text-anchor="middle" x="257" y="-45.5" font-family="Helvetica,sans-Serif" font-size="10.00">View.SingleGrid.getActivePens</text>
</a>
</g>
</g>
<!-- Node1&#45;&gt;Node3 -->
<g id="edge2" class="edge"><title>Node1&#45;&gt;Node3</title>
<path fill="none" stroke="midnightblue" d="M139.624,-48C148.291,-48 157.258,-48 166.191,-48"/>
<polygon fill="midnightblue" stroke="midnightblue" points="166.245,-51.5001 176.245,-48 166.245,-44.5001 166.245,-51.5001"/>
</g>
<!-- Node6 -->
<g id="node6" class="node"><title>Node6</title>
<g id="a_node6"><a xlink:href="../../d5/de7/jquery_8js.html#a2335e57f79b6acfb6de59c235dc8a83e" target="_top" xlink:title="p">
<polygon fill="white" stroke="black" points="242.5,-0.5 242.5,-19.5 271.5,-19.5 271.5,-0.5 242.5,-0.5"/>
<text text-anchor="middle" x="257" y="-7.5" font-family="Helvetica,sans-Serif" font-size="10.00">p</text>
</a>
</g>
</g>
<!-- Node1&#45;&gt;Node6 -->
<g id="edge5" class="edge"><title>Node1&#45;&gt;Node6</title>
<path fill="none" stroke="midnightblue" d="M139.624,-33.9042C172.115,-27.2305 208.824,-19.6903 232.171,-14.8945"/>
<polygon fill="midnightblue" stroke="midnightblue" points="233.098,-18.2774 242.189,-12.8369 231.689,-11.4206 233.098,-18.2774"/>
</g>
<!-- Node4 -->
<g id="node4" class="node"><title>Node4</title>
<g id="a_node4"><a xlink:href="../../d9/db1/class_view_1_1_single_grid.html#a9bc0c792d3ba336bddf804936337af7c" target="_top" xlink:title="View.SingleGrid.getPens">
<polygon fill="white" stroke="black" points="377.5,-60.5 377.5,-79.5 508.5,-79.5 508.5,-60.5 377.5,-60.5"/>
<text text-anchor="middle" x="443" y="-67.5" font-family="Helvetica,sans-Serif" font-size="10.00">View.SingleGrid.getPens</text>
</a>
</g>
</g>
<!-- Node3&#45;&gt;Node4 -->
<g id="edge3" class="edge"><title>Node3&#45;&gt;Node4</title>
<path fill="none" stroke="midnightblue" d="M337.635,-57.5216C347.511,-58.7024 357.58,-59.9063 367.376,-61.0776"/>
<polygon fill="midnightblue" stroke="midnightblue" points="367.122,-64.5721 377.467,-62.2841 367.953,-57.6216 367.122,-64.5721"/>
</g>
<!-- Node5 -->
<g id="node5" class="node"><title>Node5</title>
<g id="a_node5"><a xlink:href="../../d9/db1/class_view_1_1_single_grid.html#a63dce7bacaea4b387aeef30975ad678b" target="_top" xlink:title="View.SingleGrid.getActive\lTurtles">
<polygon fill="white" stroke="black" points="374.5,-11 374.5,-41 511.5,-41 511.5,-11 374.5,-11"/>
<text text-anchor="start" x="382.5" y="-29" font-family="Helvetica,sans-Serif" font-size="10.00">View.SingleGrid.getActive</text>
<text text-anchor="middle" x="443" y="-18" font-family="Helvetica,sans-Serif" font-size="10.00">Turtles</text>
</a>
</g>
</g>
<!-- Node3&#45;&gt;Node5 -->
<g id="edge4" class="edge"><title>Node3&#45;&gt;Node5</title>
<path fill="none" stroke="midnightblue" d="M337.635,-38.4784C346.431,-37.4267 355.38,-36.3567 364.154,-35.3077"/>
<polygon fill="midnightblue" stroke="midnightblue" points="364.839,-38.7508 374.353,-34.0883 364.008,-31.8003 364.839,-38.7508"/>
</g>
</g>
</svg>
