<?xml version="1.0" encoding="UTF-8" standalone="no"?>
<!DOCTYPE svg PUBLIC "-//W3C//DTD SVG 1.1//EN"
 "http://www.w3.org/Graphics/SVG/1.1/DTD/svg11.dtd">
<!-- Generated by graphviz version 2.36.0 (20140111.2315)
 -->
<!-- Title: GUIFunctions.PenColor.doAction Pages: 1 -->
<svg width="528pt" height="115pt"
 viewBox="0.00 0.00 528.00 115.00" xmlns="http://www.w3.org/2000/svg" xmlns:xlink="http://www.w3.org/1999/xlink">
<g id="graph0" class="graph" transform="scale(1 1) rotate(0) translate(4 111)">
<title>GUIFunctions.PenColor.doAction</title>
<polygon fill="white" stroke="none" points="-4,4 -4,-111 524,-111 524,4 -4,4"/>
<!-- Node1 -->
<g id="node1" class="node"><title>Node1</title>
<polygon fill="#bfbfbf" stroke="black" points="0.5,-44 0.5,-74 139.5,-74 139.5,-44 0.5,-44"/>
<text text-anchor="start" x="8.5" y="-62" font-family="Helvetica,sans-Serif" font-size="10.00">GUIFunctions.PenColor.do</text>
<text text-anchor="middle" x="70" y="-51" font-family="Helvetica,sans-Serif" font-size="10.00">Action</text>
</g>
<!-- Node2 -->
<g id="node2" class="node"><title>Node2</title>
<g id="a_node2"><a xlink:href="../../d7/d98/class_view_1_1_grid_tracker.html#af7c2413584c58030e606ae6692ea564f" target="_top" xlink:title="View.GridTracker.getActiveGrid">
<polygon fill="white" stroke="black" points="180.5,-87.5 180.5,-106.5 341.5,-106.5 341.5,-87.5 180.5,-87.5"/>
<text text-anchor="middle" x="261" y="-94.5" font-family="Helvetica,sans-Serif" font-size="10.00">View.GridTracker.getActiveGrid</text>
</a>
</g>
</g>
<!-- Node1&#45;&gt;Node2 -->
<g id="edge1" class="edge"><title>Node1&#45;&gt;Node2</title>
<path fill="none" stroke="midnightblue" d="M139.501,-72.7726C160.286,-76.9518 182.892,-81.4968 202.849,-85.5093"/>
<polygon fill="midnightblue" stroke="midnightblue" points="202.222,-88.9533 212.716,-87.4931 203.602,-82.0906 202.222,-88.9533"/>
</g>
<!-- Node3 -->
<g id="node3" class="node"><title>Node3</title>
<g id="a_node3"><a xlink:href="../../d9/db1/class_view_1_1_single_grid.html#a10f914014fc090d2d57192c8678242fd" target="_top" xlink:title="View.SingleGrid.getActivePens">
<polygon fill="white" stroke="black" points="180.5,-49.5 180.5,-68.5 341.5,-68.5 341.5,-49.5 180.5,-49.5"/>
<text text-anchor="middle" x="261" y="-56.5" font-family="Helvetica,sans-Serif" font-size="10.00">View.SingleGrid.getActivePens</text>
</a>
</g>
</g>
<!-- Node1&#45;&gt;Node3 -->
<g id="edge2" class="edge"><title>Node1&#45;&gt;Node3</title>
<path fill="none" stroke="midnightblue" d="M139.501,-59C149.484,-59 159.887,-59 170.214,-59"/>
<polygon fill="midnightblue" stroke="midnightblue" points="170.499,-62.5001 180.498,-59 170.498,-55.5001 170.499,-62.5001"/>
</g>
<!-- Node6 -->
<g id="node6" class="node"><title>Node6</title>
<g id="a_node6"><a xlink:href="../../da/d31/class_view_1_1_color_selection.html#afa190585564a3012cefc95efffb0705d" target="_top" xlink:title="View.ColorSelection.getAvailable\lColors">
<polygon fill="white" stroke="black" points="176,-0 176,-30 346,-30 346,-0 176,-0"/>
<text text-anchor="start" x="184" y="-18" font-family="Helvetica,sans-Serif" font-size="10.00">View.ColorSelection.getAvailable</text>
<text text-anchor="middle" x="261" y="-7" font-family="Helvetica,sans-Serif" font-size="10.00">Colors</text>
</a>
</g>
</g>
<!-- Node1&#45;&gt;Node6 -->
<g id="edge5" class="edge"><title>Node1&#45;&gt;Node6</title>
<path fill="none" stroke="midnightblue" d="M135.514,-43.9808C151.543,-40.2492 168.856,-36.2186 185.328,-32.384"/>
<polygon fill="midnightblue" stroke="midnightblue" points="186.51,-35.7025 195.456,-30.0262 184.922,-28.8848 186.51,-35.7025"/>
</g>
<!-- Node4 -->
<g id="node4" class="node"><title>Node4</title>
<g id="a_node4"><a xlink:href="../../d9/db1/class_view_1_1_single_grid.html#a9bc0c792d3ba336bddf804936337af7c" target="_top" xlink:title="View.SingleGrid.getPens">
<polygon fill="white" stroke="black" points="385.5,-71.5 385.5,-90.5 516.5,-90.5 516.5,-71.5 385.5,-71.5"/>
<text text-anchor="middle" x="451" y="-78.5" font-family="Helvetica,sans-Serif" font-size="10.00">View.SingleGrid.getPens</text>
</a>
</g>
</g>
<!-- Node3&#45;&gt;Node4 -->
<g id="edge3" class="edge"><title>Node3&#45;&gt;Node4</title>
<path fill="none" stroke="midnightblue" d="M341.729,-68.33C352.839,-69.6301 364.221,-70.9621 375.236,-72.251"/>
<polygon fill="midnightblue" stroke="midnightblue" points="374.89,-75.7343 385.229,-73.4204 375.704,-68.7818 374.89,-75.7343"/>
</g>
<!-- Node5 -->
<g id="node5" class="node"><title>Node5</title>
<g id="a_node5"><a xlink:href="../../d9/db1/class_view_1_1_single_grid.html#a63dce7bacaea4b387aeef30975ad678b" target="_top" xlink:title="View.SingleGrid.getActive\lTurtles">
<polygon fill="white" stroke="black" points="382.5,-22 382.5,-52 519.5,-52 519.5,-22 382.5,-22"/>
<text text-anchor="start" x="390.5" y="-40" font-family="Helvetica,sans-Serif" font-size="10.00">View.SingleGrid.getActive</text>
<text text-anchor="middle" x="451" y="-29" font-family="Helvetica,sans-Serif" font-size="10.00">Turtles</text>
</a>
</g>
</g>
<!-- Node3&#45;&gt;Node5 -->
<g id="edge4" class="edge"><title>Node3&#45;&gt;Node5</title>
<path fill="none" stroke="midnightblue" d="M341.729,-49.67C351.862,-48.4843 362.221,-47.272 372.321,-46.0901"/>
<polygon fill="midnightblue" stroke="midnightblue" points="372.791,-49.5591 382.317,-44.9204 371.977,-42.6065 372.791,-49.5591"/>
</g>
</g>
</svg>
