<?xml version="1.0" encoding="UTF-8" standalone="no"?>
<!DOCTYPE svg PUBLIC "-//W3C//DTD SVG 1.1//EN"
 "http://www.w3.org/Graphics/SVG/1.1/DTD/svg11.dtd">
<!-- Generated by graphviz version 2.36.0 (20140111.2315)
 -->
<!-- Title: commands.variableCommands.CreatedCommand.setNewVariables Pages: 1 -->
<svg width="680pt" height="242pt"
 viewBox="0.00 0.00 680.00 242.00" xmlns="http://www.w3.org/2000/svg" xmlns:xlink="http://www.w3.org/1999/xlink">
<g id="graph0" class="graph" transform="scale(1 1) rotate(0) translate(4 238)">
<title>commands.variableCommands.CreatedCommand.setNewVariables</title>
<polygon fill="white" stroke="none" points="-4,4 -4,-238 676,-238 676,4 -4,4"/>
<!-- Node1 -->
<g id="node1" class="node"><title>Node1</title>
<polygon fill="#bfbfbf" stroke="black" points="0.5,-93 0.5,-123 187.5,-123 187.5,-93 0.5,-93"/>
<text text-anchor="start" x="8.5" y="-111" font-family="Helvetica,sans-Serif" font-size="10.00">commands.variableCommands.</text>
<text text-anchor="middle" x="94" y="-100" font-family="Helvetica,sans-Serif" font-size="10.00">CreatedCommand.setNewVariables</text>
</g>
<!-- Node2 -->
<g id="node2" class="node"><title>Node2</title>
<g id="a_node2"><a xlink:href="../../d4/d05/classcommands_1_1information_1_1_base_user_defined_container.html#a649c0be733d7500611b12da612ac4913" target="_top" xlink:title="commands.information.Base\lUserDefinedContainer.addVariable">
<polygon fill="white" stroke="black" points="238.5,-204 238.5,-234 419.5,-234 419.5,-204 238.5,-204"/>
<text text-anchor="start" x="246.5" y="-222" font-family="Helvetica,sans-Serif" font-size="10.00">commands.information.Base</text>
<text text-anchor="middle" x="329" y="-211" font-family="Helvetica,sans-Serif" font-size="10.00">UserDefinedContainer.addVariable</text>
</a>
</g>
</g>
<!-- Node1&#45;&gt;Node2 -->
<g id="edge1" class="edge"><title>Node1&#45;&gt;Node2</title>
<path fill="none" stroke="midnightblue" d="M113.018,-123.046C136.912,-142.257 181.084,-175.247 224,-194 229.751,-196.513 235.796,-198.798 241.957,-200.872"/>
<polygon fill="midnightblue" stroke="midnightblue" points="241.12,-204.278 251.71,-203.959 243.232,-197.604 241.12,-204.278"/>
</g>
<!-- Node3 -->
<g id="node3" class="node"><title>Node3</title>
<g id="a_node3"><a xlink:href="../../d4/d05/classcommands_1_1information_1_1_base_user_defined_container.html#a297576d243f5cac8a61ecbc097115350" target="_top" xlink:title="commands.information.Base\lUserDefinedContainer.containsVariable">
<polygon fill="white" stroke="black" points="227.5,-155 227.5,-185 430.5,-185 430.5,-155 227.5,-155"/>
<text text-anchor="start" x="235.5" y="-173" font-family="Helvetica,sans-Serif" font-size="10.00">commands.information.Base</text>
<text text-anchor="middle" x="329" y="-162" font-family="Helvetica,sans-Serif" font-size="10.00">UserDefinedContainer.containsVariable</text>
</a>
</g>
</g>
<!-- Node1&#45;&gt;Node3 -->
<g id="edge2" class="edge"><title>Node1&#45;&gt;Node3</title>
<path fill="none" stroke="midnightblue" d="M145.404,-123.006C169.178,-129.943 197.978,-138.144 224,-145 233.562,-147.519 243.646,-150.072 253.621,-152.536"/>
<polygon fill="midnightblue" stroke="midnightblue" points="252.991,-155.985 263.536,-154.965 254.656,-149.186 252.991,-155.985"/>
</g>
<!-- Node5 -->
<g id="node5" class="node"><title>Node5</title>
<g id="a_node5"><a xlink:href="../../da/d90/classcommands_1_1_base_command.html#a68a349a085c4b05af0a55943da86598b" target="_top" xlink:title="commands.BaseCommand.execute">
<polygon fill="white" stroke="black" points="234.5,-98.5 234.5,-117.5 423.5,-117.5 423.5,-98.5 234.5,-98.5"/>
<text text-anchor="middle" x="329" y="-105.5" font-family="Helvetica,sans-Serif" font-size="10.00">commands.BaseCommand.execute</text>
</a>
</g>
</g>
<!-- Node1&#45;&gt;Node5 -->
<g id="edge4" class="edge"><title>Node1&#45;&gt;Node5</title>
<path fill="none" stroke="midnightblue" d="M187.757,-108C199.754,-108 212.101,-108 224.261,-108"/>
<polygon fill="midnightblue" stroke="midnightblue" points="224.419,-111.5 234.419,-108 224.419,-104.5 224.419,-111.5"/>
</g>
<!-- Node9 -->
<g id="node9" class="node"><title>Node9</title>
<g id="a_node9"><a xlink:href="../../d4/d05/classcommands_1_1information_1_1_base_user_defined_container.html#a6cae0ee70f94ed6534205d1d620ec815" target="_top" xlink:title="commands.information.Base\lUserDefinedContainer.getValue">
<polygon fill="white" stroke="black" points="245.5,-49 245.5,-79 412.5,-79 412.5,-49 245.5,-49"/>
<text text-anchor="start" x="253.5" y="-67" font-family="Helvetica,sans-Serif" font-size="10.00">commands.information.Base</text>
<text text-anchor="middle" x="329" y="-56" font-family="Helvetica,sans-Serif" font-size="10.00">UserDefinedContainer.getValue</text>
</a>
</g>
</g>
<!-- Node1&#45;&gt;Node9 -->
<g id="edge9" class="edge"><title>Node1&#45;&gt;Node9</title>
<path fill="none" stroke="midnightblue" d="M174.534,-92.9808C195.133,-89.0908 217.453,-84.8759 238.524,-80.8968"/>
<polygon fill="midnightblue" stroke="midnightblue" points="239.253,-84.3211 248.429,-79.0262 237.954,-77.4427 239.253,-84.3211"/>
</g>
<!-- Node10 -->
<g id="node10" class="node"><title>Node10</title>
<g id="a_node10"><a xlink:href="../../d2/d4f/classcommands_1_1variable_commands_1_1_variable_command.html#ae837bcbd49f0ccbd6fa5a46c15c181ab" target="_top" xlink:title="commands.variableCommands.\lVariableCommand.getVariableContainer">
<polygon fill="white" stroke="black" points="224.5,-0 224.5,-30 433.5,-30 433.5,-0 224.5,-0"/>
<text text-anchor="start" x="232.5" y="-18" font-family="Helvetica,sans-Serif" font-size="10.00">commands.variableCommands.</text>
<text text-anchor="middle" x="329" y="-7" font-family="Helvetica,sans-Serif" font-size="10.00">VariableCommand.getVariableContainer</text>
</a>
</g>
</g>
<!-- Node1&#45;&gt;Node10 -->
<g id="edge10" class="edge"><title>Node1&#45;&gt;Node10</title>
<path fill="none" stroke="midnightblue" d="M119.352,-92.7973C144.671,-77.567 185.86,-54.3783 224,-40 230.809,-37.433 237.971,-35.0661 245.217,-32.8981"/>
<polygon fill="midnightblue" stroke="midnightblue" points="246.474,-36.1792 255.126,-30.0651 244.549,-29.4489 246.474,-36.1792"/>
</g>
<!-- Node4 -->
<g id="node4" class="node"><title>Node4</title>
<g id="a_node4"><a xlink:href="../../d4/d05/classcommands_1_1information_1_1_base_user_defined_container.html#aadcdc884269f34620215ca47d2cc70b4" target="_top" xlink:title="commands.information.Base\lUserDefinedContainer.getAllVariables\lAndValues">
<polygon fill="white" stroke="black" points="473.5,-167.5 473.5,-208.5 668.5,-208.5 668.5,-167.5 473.5,-167.5"/>
<text text-anchor="start" x="481.5" y="-196.5" font-family="Helvetica,sans-Serif" font-size="10.00">commands.information.Base</text>
<text text-anchor="start" x="481.5" y="-185.5" font-family="Helvetica,sans-Serif" font-size="10.00">UserDefinedContainer.getAllVariables</text>
<text text-anchor="middle" x="571" y="-174.5" font-family="Helvetica,sans-Serif" font-size="10.00">AndValues</text>
</a>
</g>
</g>
<!-- Node3&#45;&gt;Node4 -->
<g id="edge3" class="edge"><title>Node3&#45;&gt;Node4</title>
<path fill="none" stroke="midnightblue" d="M430.738,-177.555C441.432,-178.357 452.334,-179.175 463.095,-179.982"/>
<polygon fill="midnightblue" stroke="midnightblue" points="463.123,-183.494 473.357,-180.752 463.647,-176.514 463.123,-183.494"/>
</g>
<!-- Node5&#45;&gt;Node5 -->
<g id="edge5" class="edge"><title>Node5&#45;&gt;Node5</title>
<path fill="none" stroke="midnightblue" d="M293.226,-117.612C275.257,-126.461 287.182,-136 329,-136 360.364,-136 374.912,-130.634 372.646,-124.218"/>
<polygon fill="midnightblue" stroke="midnightblue" points="374.684,-121.36 364.774,-117.612 370.184,-126.722 374.684,-121.36"/>
</g>
<!-- Node6 -->
<g id="node6" class="node"><title>Node6</title>
<g id="a_node6"><a xlink:href="../../da/d90/classcommands_1_1_base_command.html#a90abff4a812d84d0454cb095e03c6e08" target="_top" xlink:title="commands.BaseCommand.get\lNextCommand">
<polygon fill="white" stroke="black" points="487.5,-119 487.5,-149 654.5,-149 654.5,-119 487.5,-119"/>
<text text-anchor="start" x="495.5" y="-137" font-family="Helvetica,sans-Serif" font-size="10.00">commands.BaseCommand.get</text>
<text text-anchor="middle" x="571" y="-126" font-family="Helvetica,sans-Serif" font-size="10.00">NextCommand</text>
</a>
</g>
</g>
<!-- Node5&#45;&gt;Node6 -->
<g id="edge6" class="edge"><title>Node5&#45;&gt;Node6</title>
<path fill="none" stroke="midnightblue" d="M418.004,-117.534C437.257,-119.62 457.696,-121.834 477.132,-123.939"/>
<polygon fill="midnightblue" stroke="midnightblue" points="476.874,-127.432 487.193,-125.029 477.628,-120.472 476.874,-127.432"/>
</g>
<!-- Node7 -->
<g id="node7" class="node"><title>Node7</title>
<g id="a_node7"><a xlink:href="../../da/d90/classcommands_1_1_base_command.html#aad4544c0bd9d40769d8997e4d6d97b08" target="_top" xlink:title="commands.BaseCommand.onExecute">
<polygon fill="white" stroke="black" points="470.5,-80.5 470.5,-99.5 671.5,-99.5 671.5,-80.5 470.5,-80.5"/>
<text text-anchor="middle" x="571" y="-87.5" font-family="Helvetica,sans-Serif" font-size="10.00">commands.BaseCommand.onExecute</text>
</a>
</g>
</g>
<!-- Node5&#45;&gt;Node7 -->
<g id="edge7" class="edge"><title>Node5&#45;&gt;Node7</title>
<path fill="none" stroke="midnightblue" d="M423.821,-100.963C435.736,-100.07 448.012,-99.1491 460.149,-98.2388"/>
<polygon fill="midnightblue" stroke="midnightblue" points="460.59,-101.716 470.301,-97.4774 460.067,-94.7352 460.59,-101.716"/>
</g>
<!-- Node8 -->
<g id="node8" class="node"><title>Node8</title>
<g id="a_node8"><a xlink:href="../../da/d90/classcommands_1_1_base_command.html#a37ff254bd611b07ea38aaaf85447a2c3" target="_top" xlink:title="commands.BaseCommand.reset">
<polygon fill="white" stroke="black" points="483,-42.5 483,-61.5 659,-61.5 659,-42.5 483,-42.5"/>
<text text-anchor="middle" x="571" y="-49.5" font-family="Helvetica,sans-Serif" font-size="10.00">commands.BaseCommand.reset</text>
</a>
</g>
</g>
<!-- Node5&#45;&gt;Node8 -->
<g id="edge8" class="edge"><title>Node5&#45;&gt;Node8</title>
<path fill="none" stroke="midnightblue" d="M393.342,-98.4505C406.92,-95.6756 421.066,-92.2229 434,-88 450.82,-82.5082 453.173,-76.4731 470,-71 478.577,-68.2102 487.709,-65.7775 496.834,-63.6705"/>
<polygon fill="midnightblue" stroke="midnightblue" points="497.685,-67.0672 506.705,-61.5106 496.188,-60.229 497.685,-67.0672"/>
</g>
</g>
</svg>
