<?xml version="1.0" encoding="UTF-8" standalone="no"?>
<!DOCTYPE svg PUBLIC "-//W3C//DTD SVG 1.1//EN"
 "http://www.w3.org/Graphics/SVG/1.1/DTD/svg11.dtd">
<!-- Generated by graphviz version 2.36.0 (20140111.2315)
 -->
<!-- Title: commands.variableCommands.CreatedCommand.setInnerCommand Pages: 1 -->
<svg width="412pt" height="48pt"
 viewBox="0.00 0.00 412.00 48.00" xmlns="http://www.w3.org/2000/svg" xmlns:xlink="http://www.w3.org/1999/xlink">
<g id="graph0" class="graph" transform="scale(1 1) rotate(0) translate(4 44)">
<title>commands.variableCommands.CreatedCommand.setInnerCommand</title>
<polygon fill="white" stroke="none" points="-4,4 -4,-44 408,-44 408,4 -4,4"/>
<!-- Node1 -->
<g id="node1" class="node"><title>Node1</title>
<polygon fill="#bfbfbf" stroke="black" points="0.5,-5 0.5,-35 197.5,-35 197.5,-5 0.5,-5"/>
<text text-anchor="start" x="8.5" y="-23" font-family="Helvetica,sans-Serif" font-size="10.00">commands.variableCommands.</text>
<text text-anchor="middle" x="99" y="-12" font-family="Helvetica,sans-Serif" font-size="10.00">CreatedCommand.setInnerCommand</text>
</g>
<!-- Node2 -->
<g id="node2" class="node"><title>Node2</title>
<g id="a_node2"><a xlink:href="../../d0/d69/classcommands_1_1information_1_1_map_based_user_defined_container.html#abd482a5ce4293cec4a901de243af5577" target="_top" xlink:title="commands.information.Map\lBasedUserDefinedContainer.get\lCreatedCommand">
<polygon fill="white" stroke="black" points="234,0.5 234,-40.5 404,-40.5 404,0.5 234,0.5"/>
<text text-anchor="start" x="242" y="-28.5" font-family="Helvetica,sans-Serif" font-size="10.00">commands.information.Map</text>
<text text-anchor="start" x="242" y="-17.5" font-family="Helvetica,sans-Serif" font-size="10.00">BasedUserDefinedContainer.get</text>
<text text-anchor="middle" x="319" y="-6.5" font-family="Helvetica,sans-Serif" font-size="10.00">CreatedCommand</text>
</a>
</g>
</g>
<!-- Node1&#45;&gt;Node2 -->
<g id="edge1" class="edge"><title>Node1&#45;&gt;Node2</title>
<path fill="none" stroke="midnightblue" d="M207.79,-20C216.551,-20 225.323,-20 233.879,-20"/>
<polygon fill="midnightblue" stroke="midnightblue" points="207.523,-16.5001 197.523,-20 207.523,-23.5001 207.523,-16.5001"/>
</g>
</g>
</svg>
