<?xml version="1.0" encoding="UTF-8" standalone="no"?>
<!DOCTYPE svg PUBLIC "-//W3C//DTD SVG 1.1//EN"
 "http://www.w3.org/Graphics/SVG/1.1/DTD/svg11.dtd">
<!-- Generated by graphviz version 2.36.0 (20140111.2315)
 -->
<!-- Title: commands.variableCommands.CreatedCommand.onExecute Pages: 1 -->
<!--zoomable 322 -->
<svg id="main" version="1.1" xmlns="http://www.w3.org/2000/svg" xmlns:xlink="http://www.w3.org/1999/xlink" xml:space="preserve" onload="init(evt)">
<style type="text/css"><![CDATA[
.edge:hover path { stroke: red; }
.edge:hover polygon { stroke: red; fill: red; }
]]></style>
<script type="text/javascript"><![CDATA[
var edges = document.getElementsByTagName('g');
if (edges && edges.length) {
  for (var i=0;i<edges.length;i++) {
    if (edges[i].id.substr(0,4)=='edge') {
      edges[i].setAttribute('class','edge');
    }
  }
}
]]></script>
        <defs>
                <circle id="rim" cx="0" cy="0" r="7"/>
                <circle id="rim2" cx="0" cy="0" r="3.5"/>
                <g id="zoomPlus">
                        <use xlink:href="#rim" fill="#404040">
                                <set attributeName="fill" to="#808080" begin="zoomplus.mouseover" end="zoomplus.mouseout"/>
                        </use>
                        <path d="M-4,0h8M0,-4v8" fill="none" stroke="white" stroke-width="1.5" pointer-events="none"/>
                </g>
                <g id="zoomMin">
                        <use xlink:href="#rim" fill="#404040">
                                <set attributeName="fill" to="#808080" begin="zoomminus.mouseover" end="zoomminus.mouseout"/>
                        </use>
                        <path d="M-4,0h8" fill="none" stroke="white" stroke-width="1.5" pointer-events="none"/>
                </g>
                <g id="dirArrow">
                        <path fill="none" stroke="white" stroke-width="1.5" d="M0,-3.0v7 M-2.5,-0.5L0,-3.0L2.5,-0.5"/>
                </g>
               <g id="resetDef">
                       <use xlink:href="#rim2" fill="#404040">
                               <set attributeName="fill" to="#808080" begin="reset.mouseover" end="reset.mouseout"/>
                       </use>
               </g>
        </defs>

<script type="text/javascript">
var viewWidth = 886;
var viewHeight = 322;
var sectionId = 'dynsection-2';
</script>
<script xlink:href="../../svgpan.js"/>
<svg id="graph" class="graph">
<g id="viewport">
<title>commands.variableCommands.CreatedCommand.onExecute</title>
<polygon fill="white" stroke="none" points="-4,4 -4,-318 882,-318 882,4 -4,4"/>
<!-- Node1 -->
<g id="node1" class="node"><title>Node1</title>
<polygon fill="#bfbfbf" stroke="black" points="0,-147 0,-177 170,-177 170,-147 0,-147"/>
<text text-anchor="start" x="8" y="-165" font-family="Helvetica,sans-Serif" font-size="10.00">commands.variableCommands.</text>
<text text-anchor="middle" x="85" y="-154" font-family="Helvetica,sans-Serif" font-size="10.00">CreatedCommand.onExecute</text>
</g>
<!-- Node2 -->
<g id="node2" class="node"><title>Node2</title>
<g id="a_node2"><a xlink:href="../../da/d90/classcommands_1_1_base_command.html#a68a349a085c4b05af0a55943da86598b" target="_top" xlink:title="commands.BaseCommand.execute">
<polygon fill="white" stroke="black" points="440.5,-245.5 440.5,-264.5 629.5,-264.5 629.5,-245.5 440.5,-245.5"/>
<text text-anchor="middle" x="535" y="-252.5" font-family="Helvetica,sans-Serif" font-size="10.00">commands.BaseCommand.execute</text>
</a>
</g>
</g>
<!-- Node1&#45;&gt;Node2 -->
<g id="edge1" class="edge"><title>Node1&#45;&gt;Node2</title>
<path fill="none" stroke="midnightblue" d="M155.103,-177.07C224.506,-192.11 334.554,-215.697 430,-235 443.994,-237.83 459.068,-240.784 473.278,-243.525"/>
<polygon fill="midnightblue" stroke="midnightblue" points="472.964,-247.029 483.445,-245.479 474.285,-240.154 472.964,-247.029"/>
</g>
<!-- Node6 -->
<g id="node6" class="node"><title>Node6</title>
<g id="a_node6"><a xlink:href="../../de/de4/classcommands_1_1variable_commands_1_1_created_command.html#a803cceba070de496c5e1d0704f32202e" target="_top" xlink:title="commands.variableCommands.\lCreatedCommand.revertVariables">
<polygon fill="white" stroke="black" points="210,-147 210,-177 390,-177 390,-147 210,-147"/>
<text text-anchor="start" x="218" y="-165" font-family="Helvetica,sans-Serif" font-size="10.00">commands.variableCommands.</text>
<text text-anchor="middle" x="300" y="-154" font-family="Helvetica,sans-Serif" font-size="10.00">CreatedCommand.revertVariables</text>
</a>
</g>
</g>
<!-- Node1&#45;&gt;Node6 -->
<g id="edge6" class="edge"><title>Node1&#45;&gt;Node6</title>
<path fill="none" stroke="midnightblue" d="M170.183,-162C179.849,-162 189.772,-162 199.614,-162"/>
<polygon fill="midnightblue" stroke="midnightblue" points="199.826,-165.5 209.826,-162 199.826,-158.5 199.826,-165.5"/>
</g>
<!-- Node10 -->
<g id="node10" class="node"><title>Node10</title>
<g id="a_node10"><a xlink:href="../../de/de4/classcommands_1_1variable_commands_1_1_created_command.html#aabf56d02933dddd1de08692a1b416c98" target="_top" xlink:title="commands.variableCommands.\lCreatedCommand.setNewVariables">
<polygon fill="white" stroke="black" points="206.5,-98 206.5,-128 393.5,-128 393.5,-98 206.5,-98"/>
<text text-anchor="start" x="214.5" y="-116" font-family="Helvetica,sans-Serif" font-size="10.00">commands.variableCommands.</text>
<text text-anchor="middle" x="300" y="-105" font-family="Helvetica,sans-Serif" font-size="10.00">CreatedCommand.setNewVariables</text>
</a>
</g>
</g>
<!-- Node1&#45;&gt;Node10 -->
<g id="edge10" class="edge"><title>Node1&#45;&gt;Node10</title>
<path fill="none" stroke="midnightblue" d="M151.355,-146.965C174.253,-141.698 200.151,-135.74 223.791,-130.302"/>
<polygon fill="midnightblue" stroke="midnightblue" points="224.808,-133.659 233.769,-128.006 223.239,-126.837 224.808,-133.659"/>
</g>
<!-- Node2&#45;&gt;Node2 -->
<g id="edge2" class="edge"><title>Node2&#45;&gt;Node2</title>
<path fill="none" stroke="midnightblue" d="M499.226,-264.612C481.257,-273.461 493.182,-283 535,-283 566.364,-283 580.912,-277.634 578.646,-271.218"/>
<polygon fill="midnightblue" stroke="midnightblue" points="580.684,-268.36 570.774,-264.612 576.184,-273.722 580.684,-268.36"/>
</g>
<!-- Node3 -->
<g id="node3" class="node"><title>Node3</title>
<g id="a_node3"><a xlink:href="../../da/d90/classcommands_1_1_base_command.html#a90abff4a812d84d0454cb095e03c6e08" target="_top" xlink:title="commands.BaseCommand.get\lNextCommand">
<polygon fill="white" stroke="black" points="693.5,-284 693.5,-314 860.5,-314 860.5,-284 693.5,-284"/>
<text text-anchor="start" x="701.5" y="-302" font-family="Helvetica,sans-Serif" font-size="10.00">commands.BaseCommand.get</text>
<text text-anchor="middle" x="777" y="-291" font-family="Helvetica,sans-Serif" font-size="10.00">NextCommand</text>
</a>
</g>
</g>
<!-- Node2&#45;&gt;Node3 -->
<g id="edge3" class="edge"><title>Node2&#45;&gt;Node3</title>
<path fill="none" stroke="midnightblue" d="M588.076,-264.547C616.063,-269.678 651.398,-276.156 683.856,-282.107"/>
<polygon fill="midnightblue" stroke="midnightblue" points="683.358,-285.574 693.825,-283.935 684.62,-278.689 683.358,-285.574"/>
</g>
<!-- Node4 -->
<g id="node4" class="node"><title>Node4</title>
<g id="a_node4"><a xlink:href="../../da/d90/classcommands_1_1_base_command.html#aad4544c0bd9d40769d8997e4d6d97b08" target="_top" xlink:title="commands.BaseCommand.onExecute">
<polygon fill="white" stroke="black" points="676.5,-245.5 676.5,-264.5 877.5,-264.5 877.5,-245.5 676.5,-245.5"/>
<text text-anchor="middle" x="777" y="-252.5" font-family="Helvetica,sans-Serif" font-size="10.00">commands.BaseCommand.onExecute</text>
</a>
</g>
</g>
<!-- Node2&#45;&gt;Node4 -->
<g id="edge4" class="edge"><title>Node2&#45;&gt;Node4</title>
<path fill="none" stroke="midnightblue" d="M629.821,-255C641.736,-255 654.012,-255 666.149,-255"/>
<polygon fill="midnightblue" stroke="midnightblue" points="666.301,-258.5 676.301,-255 666.301,-251.5 666.301,-258.5"/>
</g>
<!-- Node5 -->
<g id="node5" class="node"><title>Node5</title>
<g id="a_node5"><a xlink:href="../../da/d90/classcommands_1_1_base_command.html#a37ff254bd611b07ea38aaaf85447a2c3" target="_top" xlink:title="commands.BaseCommand.reset">
<polygon fill="white" stroke="black" points="689,-207.5 689,-226.5 865,-226.5 865,-207.5 689,-207.5"/>
<text text-anchor="middle" x="777" y="-214.5" font-family="Helvetica,sans-Serif" font-size="10.00">commands.BaseCommand.reset</text>
</a>
</g>
</g>
<!-- Node2&#45;&gt;Node5 -->
<g id="edge5" class="edge"><title>Node2&#45;&gt;Node5</title>
<path fill="none" stroke="midnightblue" d="M596.252,-245.46C629.49,-240.197 670.937,-233.635 705.653,-228.138"/>
<polygon fill="midnightblue" stroke="midnightblue" points="706.393,-231.565 715.723,-226.544 705.299,-224.651 706.393,-231.565"/>
</g>
<!-- Node7 -->
<g id="node7" class="node"><title>Node7</title>
<g id="a_node7"><a xlink:href="../../d2/d4f/classcommands_1_1variable_commands_1_1_variable_command.html#ae837bcbd49f0ccbd6fa5a46c15c181ab" target="_top" xlink:title="commands.variableCommands.\lVariableCommand.getVariableContainer">
<polygon fill="white" stroke="black" points="430.5,-147 430.5,-177 639.5,-177 639.5,-147 430.5,-147"/>
<text text-anchor="start" x="438.5" y="-165" font-family="Helvetica,sans-Serif" font-size="10.00">commands.variableCommands.</text>
<text text-anchor="middle" x="535" y="-154" font-family="Helvetica,sans-Serif" font-size="10.00">VariableCommand.getVariableContainer</text>
</a>
</g>
</g>
<!-- Node6&#45;&gt;Node7 -->
<g id="edge7" class="edge"><title>Node6&#45;&gt;Node7</title>
<path fill="none" stroke="midnightblue" d="M390.085,-162C399.913,-162 410.017,-162 420.095,-162"/>
<polygon fill="midnightblue" stroke="midnightblue" points="420.153,-165.5 430.153,-162 420.153,-158.5 420.153,-165.5"/>
</g>
<!-- Node8 -->
<g id="node8" class="node"><title>Node8</title>
<g id="a_node8"><a xlink:href="../../d4/d05/classcommands_1_1information_1_1_base_user_defined_container.html#a3a3cf23996f51aad8e2ad7cf14af1949" target="_top" xlink:title="commands.information.Base\lUserDefinedContainer.popOffVariable">
<polygon fill="white" stroke="black" points="438,-196 438,-226 632,-226 632,-196 438,-196"/>
<text text-anchor="start" x="446" y="-214" font-family="Helvetica,sans-Serif" font-size="10.00">commands.information.Base</text>
<text text-anchor="middle" x="535" y="-203" font-family="Helvetica,sans-Serif" font-size="10.00">UserDefinedContainer.popOffVariable</text>
</a>
</g>
</g>
<!-- Node6&#45;&gt;Node8 -->
<g id="edge8" class="edge"><title>Node6&#45;&gt;Node8</title>
<path fill="none" stroke="midnightblue" d="M372.491,-177.035C397.875,-182.373 426.629,-188.42 452.767,-193.917"/>
<polygon fill="midnightblue" stroke="midnightblue" points="452.138,-197.361 462.644,-195.994 453.578,-190.511 452.138,-197.361"/>
</g>
<!-- Node9 -->
<g id="node9" class="node"><title>Node9</title>
<g id="a_node9"><a xlink:href="../../d4/d05/classcommands_1_1information_1_1_base_user_defined_container.html#a649c0be733d7500611b12da612ac4913" target="_top" xlink:title="commands.information.Base\lUserDefinedContainer.addVariable">
<polygon fill="white" stroke="black" points="444.5,-98 444.5,-128 625.5,-128 625.5,-98 444.5,-98"/>
<text text-anchor="start" x="452.5" y="-116" font-family="Helvetica,sans-Serif" font-size="10.00">commands.information.Base</text>
<text text-anchor="middle" x="535" y="-105" font-family="Helvetica,sans-Serif" font-size="10.00">UserDefinedContainer.addVariable</text>
</a>
</g>
</g>
<!-- Node6&#45;&gt;Node9 -->
<g id="edge9" class="edge"><title>Node6&#45;&gt;Node9</title>
<path fill="none" stroke="midnightblue" d="M372.491,-146.965C397.875,-141.627 426.629,-135.58 452.767,-130.083"/>
<polygon fill="midnightblue" stroke="midnightblue" points="453.578,-133.489 462.644,-128.006 452.138,-126.639 453.578,-133.489"/>
</g>
<!-- Node10&#45;&gt;Node2 -->
<g id="edge15" class="edge"><title>Node10&#45;&gt;Node2</title>
<path fill="none" stroke="midnightblue" d="M381.796,-128.24C386.175,-130.743 390.291,-133.643 394,-137 428.402,-168.139 394.641,-204.953 430,-235 432.409,-237.047 434.964,-238.91 437.634,-240.603"/>
<polygon fill="midnightblue" stroke="midnightblue" points="436.061,-243.732 446.515,-245.454 439.417,-237.589 436.061,-243.732"/>
</g>
<!-- Node10&#45;&gt;Node7 -->
<g id="edge11" class="edge"><title>Node10&#45;&gt;Node7</title>
<path fill="none" stroke="midnightblue" d="M372.491,-128.035C397.875,-133.373 426.629,-139.42 452.767,-144.917"/>
<polygon fill="midnightblue" stroke="midnightblue" points="452.138,-148.361 462.644,-146.994 453.578,-141.511 452.138,-148.361"/>
</g>
<!-- Node10&#45;&gt;Node9 -->
<g id="edge16" class="edge"><title>Node10&#45;&gt;Node9</title>
<path fill="none" stroke="midnightblue" d="M393.757,-113C407.005,-113 420.681,-113 434.059,-113"/>
<polygon fill="midnightblue" stroke="midnightblue" points="434.22,-116.5 444.219,-113 434.219,-109.5 434.22,-116.5"/>
</g>
<!-- Node11 -->
<g id="node11" class="node"><title>Node11</title>
<g id="a_node11"><a xlink:href="../../d4/d05/classcommands_1_1information_1_1_base_user_defined_container.html#a297576d243f5cac8a61ecbc097115350" target="_top" xlink:title="commands.information.Base\lUserDefinedContainer.containsVariable">
<polygon fill="white" stroke="black" points="433.5,-49 433.5,-79 636.5,-79 636.5,-49 433.5,-49"/>
<text text-anchor="start" x="441.5" y="-67" font-family="Helvetica,sans-Serif" font-size="10.00">commands.information.Base</text>
<text text-anchor="middle" x="535" y="-56" font-family="Helvetica,sans-Serif" font-size="10.00">UserDefinedContainer.containsVariable</text>
</a>
</g>
</g>
<!-- Node10&#45;&gt;Node11 -->
<g id="edge12" class="edge"><title>Node10&#45;&gt;Node11</title>
<path fill="none" stroke="midnightblue" d="M372.491,-97.9654C397.875,-92.627 426.629,-86.5802 452.767,-81.0834"/>
<polygon fill="midnightblue" stroke="midnightblue" points="453.578,-84.4893 462.644,-79.0062 452.138,-77.6392 453.578,-84.4893"/>
</g>
<!-- Node13 -->
<g id="node13" class="node"><title>Node13</title>
<g id="a_node13"><a xlink:href="../../d4/d05/classcommands_1_1information_1_1_base_user_defined_container.html#a6cae0ee70f94ed6534205d1d620ec815" target="_top" xlink:title="commands.information.Base\lUserDefinedContainer.getValue">
<polygon fill="white" stroke="black" points="451.5,-0 451.5,-30 618.5,-30 618.5,-0 451.5,-0"/>
<text text-anchor="start" x="459.5" y="-18" font-family="Helvetica,sans-Serif" font-size="10.00">commands.information.Base</text>
<text text-anchor="middle" x="535" y="-7" font-family="Helvetica,sans-Serif" font-size="10.00">UserDefinedContainer.getValue</text>
</a>
</g>
</g>
<!-- Node10&#45;&gt;Node13 -->
<g id="edge14" class="edge"><title>Node10&#45;&gt;Node13</title>
<path fill="none" stroke="midnightblue" d="M322.827,-97.7956C347.705,-81.1193 390.1,-54.6507 430,-39 435.526,-36.8326 441.297,-34.8319 447.165,-32.99"/>
<polygon fill="midnightblue" stroke="midnightblue" points="448.517,-36.2398 457.107,-30.0389 446.525,-29.5292 448.517,-36.2398"/>
</g>
<!-- Node12 -->
<g id="node12" class="node"><title>Node12</title>
<g id="a_node12"><a xlink:href="../../d4/d05/classcommands_1_1information_1_1_base_user_defined_container.html#aadcdc884269f34620215ca47d2cc70b4" target="_top" xlink:title="commands.information.Base\lUserDefinedContainer.getAllVariables\lAndValues">
<polygon fill="white" stroke="black" points="679.5,-43.5 679.5,-84.5 874.5,-84.5 874.5,-43.5 679.5,-43.5"/>
<text text-anchor="start" x="687.5" y="-72.5" font-family="Helvetica,sans-Serif" font-size="10.00">commands.information.Base</text>
<text text-anchor="start" x="687.5" y="-61.5" font-family="Helvetica,sans-Serif" font-size="10.00">UserDefinedContainer.getAllVariables</text>
<text text-anchor="middle" x="777" y="-50.5" font-family="Helvetica,sans-Serif" font-size="10.00">AndValues</text>
</a>
</g>
</g>
<!-- Node11&#45;&gt;Node12 -->
<g id="edge13" class="edge"><title>Node11&#45;&gt;Node12</title>
<path fill="none" stroke="midnightblue" d="M636.738,-64C647.432,-64 658.334,-64 669.095,-64"/>
<polygon fill="midnightblue" stroke="midnightblue" points="669.357,-67.5001 679.357,-64 669.357,-60.5001 669.357,-67.5001"/>
</g>
</g>
</svg>
        <g id="navigator" transform="translate(0 0)" fill="#404254">
                <rect fill="#f2f5e9" fill-opacity="0.5" stroke="#606060" stroke-width=".5" x="0" y="0" width="60" height="60"/>
                <use id="zoomplus" xlink:href="#zoomPlus" x="17" y="9" onmousedown="handleZoom(evt,'in')"/>
                <use id="zoomminus" xlink:href="#zoomMin" x="42" y="9" onmousedown="handleZoom(evt,'out')"/>
                <use id="reset" xlink:href="#resetDef" x="30" y="36" onmousedown="handleReset()"/>
                <g id="arrowUp" xlink:href="#dirArrow" transform="translate(30 24)" onmousedown="handlePan(0,-1)">
                  <use xlink:href="#rim" fill="#404040">
                        <set attributeName="fill" to="#808080" begin="arrowUp.mouseover" end="arrowUp.mouseout"/>
                  </use>
                  <path fill="none" stroke="white" stroke-width="1.5" d="M0,-3.0v7 M-2.5,-0.5L0,-3.0L2.5,-0.5"/>
                </g>
                <g id="arrowRight" xlink:href="#dirArrow" transform="rotate(90) translate(36 -43)" onmousedown="handlePan(1,0)">
                  <use xlink:href="#rim" fill="#404040">
                        <set attributeName="fill" to="#808080" begin="arrowRight.mouseover" end="arrowRight.mouseout"/>
                  </use>
                  <path fill="none" stroke="white" stroke-width="1.5" d="M0,-3.0v7 M-2.5,-0.5L0,-3.0L2.5,-0.5"/>
                </g>
                <g id="arrowDown" xlink:href="#dirArrow" transform="rotate(180) translate(-30 -48)" onmousedown="handlePan(0,1)">
                  <use xlink:href="#rim" fill="#404040">
                        <set attributeName="fill" to="#808080" begin="arrowDown.mouseover" end="arrowDown.mouseout"/>
                  </use>
                  <path fill="none" stroke="white" stroke-width="1.5" d="M0,-3.0v7 M-2.5,-0.5L0,-3.0L2.5,-0.5"/>
                </g>
                <g id="arrowLeft" xlink:href="#dirArrow" transform="rotate(270) translate(-36 17)" onmousedown="handlePan(-1,0)">
                  <use xlink:href="#rim" fill="#404040">
                        <set attributeName="fill" to="#808080" begin="arrowLeft.mouseover" end="arrowLeft.mouseout"/>
                  </use>
                  <path fill="none" stroke="white" stroke-width="1.5" d="M0,-3.0v7 M-2.5,-0.5L0,-3.0L2.5,-0.5"/>
                </g>
        </g>
        <svg viewBox="0 0 15 15" width="100%" height="30px" preserveAspectRatio="xMaxYMin meet">
         <g id="arrow_out" transform="scale(0.3 0.3)">
          <a xlink:href="classcommands_1_1variable_commands_1_1_created_command_a1a15495411a7de97970a003a442dd3a0_cgraph_org.svg" target="_base">
           <rect id="button" ry="5" rx="5" y="6" x="6" height="38" width="38"
                fill="#f2f5e9" fill-opacity="0.5" stroke="#606060" stroke-width="1.0"/>
           <path id="arrow"
             d="M 11.500037,31.436501 C 11.940474,20.09759 22.043105,11.32322 32.158766,21.979434 L 37.068811,17.246167 C 37.068811,17.246167 37.088388,32 37.088388,32 L 22.160133,31.978069 C 22.160133,31.978069 26.997745,27.140456 26.997745,27.140456 C 18.528582,18.264221 13.291696,25.230495 11.500037,31.436501 z"
             style="fill:#404040;"/>
          </a>
         </g>
        </svg>
</svg>
