<?xml version="1.0" encoding="UTF-8" standalone="no"?>
<!DOCTYPE svg PUBLIC "-//W3C//DTD SVG 1.1//EN"
 "http://www.w3.org/Graphics/SVG/1.1/DTD/svg11.dtd">
<!-- Generated by graphviz version 2.36.0 (20140111.2315)
 -->
<!-- Title: commands.variableCommands.CreatedCommand.parseArguments Pages: 1 -->
<!--zoomable 304 -->
<svg id="main" version="1.1" xmlns="http://www.w3.org/2000/svg" xmlns:xlink="http://www.w3.org/1999/xlink" xml:space="preserve" onload="init(evt)">
<style type="text/css"><![CDATA[
.edge:hover path { stroke: red; }
.edge:hover polygon { stroke: red; fill: red; }
]]></style>
<script type="text/javascript"><![CDATA[
var edges = document.getElementsByTagName('g');
if (edges && edges.length) {
  for (var i=0;i<edges.length;i++) {
    if (edges[i].id.substr(0,4)=='edge') {
      edges[i].setAttribute('class','edge');
    }
  }
}
]]></script>
        <defs>
                <circle id="rim" cx="0" cy="0" r="7"/>
                <circle id="rim2" cx="0" cy="0" r="3.5"/>
                <g id="zoomPlus">
                        <use xlink:href="#rim" fill="#404040">
                                <set attributeName="fill" to="#808080" begin="zoomplus.mouseover" end="zoomplus.mouseout"/>
                        </use>
                        <path d="M-4,0h8M0,-4v8" fill="none" stroke="white" stroke-width="1.5" pointer-events="none"/>
                </g>
                <g id="zoomMin">
                        <use xlink:href="#rim" fill="#404040">
                                <set attributeName="fill" to="#808080" begin="zoomminus.mouseover" end="zoomminus.mouseout"/>
                        </use>
                        <path d="M-4,0h8" fill="none" stroke="white" stroke-width="1.5" pointer-events="none"/>
                </g>
                <g id="dirArrow">
                        <path fill="none" stroke="white" stroke-width="1.5" d="M0,-3.0v7 M-2.5,-0.5L0,-3.0L2.5,-0.5"/>
                </g>
               <g id="resetDef">
                       <use xlink:href="#rim2" fill="#404040">
                               <set attributeName="fill" to="#808080" begin="reset.mouseover" end="reset.mouseout"/>
                       </use>
               </g>
        </defs>

<script type="text/javascript">
var viewWidth = 1130;
var viewHeight = 304;
var sectionId = 'dynsection-3';
</script>
<script xlink:href="../../svgpan.js"/>
<svg id="graph" class="graph">
<g id="viewport">
<title>commands.variableCommands.CreatedCommand.parseArguments</title>
<polygon fill="white" stroke="none" points="-4,4 -4,-300 1126,-300 1126,4 -4,4"/>
<!-- Node1 -->
<g id="node1" class="node"><title>Node1</title>
<polygon fill="#bfbfbf" stroke="black" points="0,-125 0,-155 188,-155 188,-125 0,-125"/>
<text text-anchor="start" x="8" y="-143" font-family="Helvetica,sans-Serif" font-size="10.00">commands.variableCommands.</text>
<text text-anchor="middle" x="94" y="-132" font-family="Helvetica,sans-Serif" font-size="10.00">CreatedCommand.parseArguments</text>
</g>
<!-- Node2 -->
<g id="node2" class="node"><title>Node2</title>
<g id="a_node2"><a xlink:href="../../da/d90/classcommands_1_1_base_command.html#a4f771af3c6b3345e720f2ef455e6d1e2" target="_top" xlink:title="commands.BaseCommand.set\lLeftoverCommands">
<polygon fill="white" stroke="black" points="224,-125 224,-155 390,-155 390,-125 224,-125"/>
<text text-anchor="start" x="232" y="-143" font-family="Helvetica,sans-Serif" font-size="10.00">commands.BaseCommand.set</text>
<text text-anchor="middle" x="307" y="-132" font-family="Helvetica,sans-Serif" font-size="10.00">LeftoverCommands</text>
</a>
</g>
</g>
<!-- Node1&#45;&gt;Node2 -->
<g id="edge1" class="edge"><title>Node1&#45;&gt;Node2</title>
<path fill="none" stroke="midnightblue" d="M188.162,-140C196.638,-140 205.223,-140 213.692,-140"/>
<polygon fill="midnightblue" stroke="midnightblue" points="213.95,-143.5 223.95,-140 213.95,-136.5 213.95,-143.5"/>
</g>
<!-- Node3 -->
<g id="node3" class="node"><title>Node3</title>
<g id="a_node3"><a xlink:href="../../da/dc6/classcommand_parser_1_1_command_factory.html#a84097b97d8a8ff95b3118ebddff9f33a" target="_top" xlink:title="commandParser.CommandFactory.create\lCommand">
<polygon fill="white" stroke="black" points="426.5,-125 426.5,-155 641.5,-155 641.5,-125 426.5,-125"/>
<text text-anchor="start" x="434.5" y="-143" font-family="Helvetica,sans-Serif" font-size="10.00">commandParser.CommandFactory.create</text>
<text text-anchor="middle" x="534" y="-132" font-family="Helvetica,sans-Serif" font-size="10.00">Command</text>
</a>
</g>
</g>
<!-- Node2&#45;&gt;Node3 -->
<g id="edge2" class="edge"><title>Node2&#45;&gt;Node3</title>
<path fill="none" stroke="midnightblue" d="M390.185,-140C398.759,-140 407.586,-140 416.448,-140"/>
<polygon fill="midnightblue" stroke="midnightblue" points="416.455,-143.5 426.455,-140 416.455,-136.5 416.455,-143.5"/>
</g>
<!-- Node4 -->
<g id="node4" class="node"><title>Node4</title>
<g id="a_node4"><a xlink:href="../../d4/d05/classcommands_1_1information_1_1_base_user_defined_container.html#abbef8e1f3137aa92b5ca708b18981aac" target="_top" xlink:title="commands.information.Base\lUserDefinedContainer.containsCustom\lCommand">
<polygon fill="white" stroke="black" points="685.5,-254.5 685.5,-295.5 888.5,-295.5 888.5,-254.5 685.5,-254.5"/>
<text text-anchor="start" x="693.5" y="-283.5" font-family="Helvetica,sans-Serif" font-size="10.00">commands.information.Base</text>
<text text-anchor="start" x="693.5" y="-272.5" font-family="Helvetica,sans-Serif" font-size="10.00">UserDefinedContainer.containsCustom</text>
<text text-anchor="middle" x="787" y="-261.5" font-family="Helvetica,sans-Serif" font-size="10.00">Command</text>
</a>
</g>
</g>
<!-- Node3&#45;&gt;Node4 -->
<g id="edge3" class="edge"><title>Node3&#45;&gt;Node4</title>
<path fill="none" stroke="midnightblue" d="M551.299,-155.109C576.572,-177.771 627.577,-220.509 678,-245 682.261,-247.07 686.689,-249.017 691.212,-250.847"/>
<polygon fill="midnightblue" stroke="midnightblue" points="690.019,-254.138 700.609,-254.438 692.518,-247.599 690.019,-254.138"/>
</g>
<!-- Node6 -->
<g id="node6" class="node"><title>Node6</title>
<g id="a_node6"><a xlink:href="../../dd/df5/interfacecommands_1_1information_1_1_i_information_gateway.html#a7288ceac89a0755490d929dc28df39f0" target="_top" xlink:title="commands.information.IInformation\lGateway.getContainers">
<polygon fill="white" stroke="black" points="693,-206 693,-236 881,-236 881,-206 693,-206"/>
<text text-anchor="start" x="701" y="-224" font-family="Helvetica,sans-Serif" font-size="10.00">commands.information.IInformation</text>
<text text-anchor="middle" x="787" y="-213" font-family="Helvetica,sans-Serif" font-size="10.00">Gateway.getContainers</text>
</a>
</g>
</g>
<!-- Node3&#45;&gt;Node6 -->
<g id="edge5" class="edge"><title>Node3&#45;&gt;Node6</title>
<path fill="none" stroke="midnightblue" d="M569.174,-155.011C597.835,-167.204 640.052,-184.246 678,-196 686.573,-198.655 695.606,-201.173 704.648,-203.515"/>
<polygon fill="midnightblue" stroke="midnightblue" points="703.888,-206.933 714.441,-205.985 705.601,-200.145 703.888,-206.933"/>
</g>
<!-- Node7 -->
<g id="node7" class="node"><title>Node7</title>
<g id="a_node7"><a xlink:href="../../d4/d05/classcommands_1_1information_1_1_base_user_defined_container.html#a22a65948b69ed0032f4d904e13c69491" target="_top" xlink:title="commands.information.Base\lUserDefinedContainer.getCreated\lCommand">
<polygon fill="white" stroke="black" points="697.5,-146.5 697.5,-187.5 876.5,-187.5 876.5,-146.5 697.5,-146.5"/>
<text text-anchor="start" x="705.5" y="-175.5" font-family="Helvetica,sans-Serif" font-size="10.00">commands.information.Base</text>
<text text-anchor="start" x="705.5" y="-164.5" font-family="Helvetica,sans-Serif" font-size="10.00">UserDefinedContainer.getCreated</text>
<text text-anchor="middle" x="787" y="-153.5" font-family="Helvetica,sans-Serif" font-size="10.00">Command</text>
</a>
</g>
</g>
<!-- Node3&#45;&gt;Node7 -->
<g id="edge6" class="edge"><title>Node3&#45;&gt;Node7</title>
<path fill="none" stroke="midnightblue" d="M641.811,-151.49C656.88,-153.111 672.317,-154.771 687.226,-156.375"/>
<polygon fill="midnightblue" stroke="midnightblue" points="687.135,-159.885 697.452,-157.475 687.884,-152.925 687.135,-159.885"/>
</g>
<!-- Node8 -->
<g id="node8" class="node"><title>Node8</title>
<g id="a_node8"><a xlink:href="../../da/d90/classcommands_1_1_base_command.html#a03dca0b542f5be4aa804297cea2688b5" target="_top" xlink:title="commands.BaseCommand.get\lRequiredInformationTypes">
<polygon fill="white" stroke="black" points="703.5,-98 703.5,-128 870.5,-128 870.5,-98 703.5,-98"/>
<text text-anchor="start" x="711.5" y="-116" font-family="Helvetica,sans-Serif" font-size="10.00">commands.BaseCommand.get</text>
<text text-anchor="middle" x="787" y="-105" font-family="Helvetica,sans-Serif" font-size="10.00">RequiredInformationTypes</text>
</a>
</g>
</g>
<!-- Node3&#45;&gt;Node8 -->
<g id="edge7" class="edge"><title>Node3&#45;&gt;Node8</title>
<path fill="none" stroke="midnightblue" d="M641.811,-128.51C658.827,-126.68 676.312,-124.799 692.977,-123.006"/>
<polygon fill="midnightblue" stroke="midnightblue" points="693.668,-126.452 703.236,-121.903 692.919,-119.493 693.668,-126.452"/>
</g>
<!-- Node9 -->
<g id="node9" class="node"><title>Node9</title>
<g id="a_node9"><a xlink:href="../../da/dc6/classcommand_parser_1_1_command_factory.html#a5c750e1a1a32bd314bf662dd5cfdc951" target="_top" xlink:title="commandParser.CommandFactory.identify\lFirstCommand">
<polygon fill="white" stroke="black" points="678,-49 678,-79 896,-79 896,-49 678,-49"/>
<text text-anchor="start" x="686" y="-67" font-family="Helvetica,sans-Serif" font-size="10.00">commandParser.CommandFactory.identify</text>
<text text-anchor="middle" x="787" y="-56" font-family="Helvetica,sans-Serif" font-size="10.00">FirstCommand</text>
</a>
</g>
</g>
<!-- Node3&#45;&gt;Node9 -->
<g id="edge8" class="edge"><title>Node3&#45;&gt;Node9</title>
<path fill="none" stroke="midnightblue" d="M573.448,-124.928C602.012,-114.065 642.082,-99.5243 678,-89 686.979,-86.3692 696.442,-83.8361 705.881,-81.4584"/>
<polygon fill="midnightblue" stroke="midnightblue" points="706.818,-84.8323 715.689,-79.0392 705.142,-78.036 706.818,-84.8323"/>
</g>
<!-- Node10 -->
<g id="node10" class="node"><title>Node10</title>
<g id="a_node10"><a xlink:href="../../da/d90/classcommands_1_1_base_command.html#aa64b92d5d7753574941c38218a271b0d" target="_top" xlink:title="commands.BaseCommand.set\lRequiredInformation">
<polygon fill="white" stroke="black" points="704,-0 704,-30 870,-30 870,-0 704,-0"/>
<text text-anchor="start" x="712" y="-18" font-family="Helvetica,sans-Serif" font-size="10.00">commands.BaseCommand.set</text>
<text text-anchor="middle" x="787" y="-7" font-family="Helvetica,sans-Serif" font-size="10.00">RequiredInformation</text>
</a>
</g>
</g>
<!-- Node3&#45;&gt;Node10 -->
<g id="edge9" class="edge"><title>Node3&#45;&gt;Node10</title>
<path fill="none" stroke="midnightblue" d="M552.155,-124.657C577.725,-102.607 628.184,-62.1787 678,-40 683.654,-37.4829 689.591,-35.2037 695.652,-33.1423"/>
<polygon fill="midnightblue" stroke="midnightblue" points="696.79,-36.4529 705.254,-30.0795 694.663,-29.784 696.79,-36.4529"/>
</g>
<!-- Node5 -->
<g id="node5" class="node"><title>Node5</title>
<g id="a_node5"><a xlink:href="../../d4/d05/classcommands_1_1information_1_1_base_user_defined_container.html#a2c1da98631c577bddaaa7f4ad5ae8aaa" target="_top" xlink:title="commands.information.Base\lUserDefinedContainer.getAllCustom\lCommands">
<polygon fill="white" stroke="black" points="932.5,-254.5 932.5,-295.5 1121.5,-295.5 1121.5,-254.5 932.5,-254.5"/>
<text text-anchor="start" x="940.5" y="-283.5" font-family="Helvetica,sans-Serif" font-size="10.00">commands.information.Base</text>
<text text-anchor="start" x="940.5" y="-272.5" font-family="Helvetica,sans-Serif" font-size="10.00">UserDefinedContainer.getAllCustom</text>
<text text-anchor="middle" x="1027" y="-261.5" font-family="Helvetica,sans-Serif" font-size="10.00">Commands</text>
</a>
</g>
</g>
<!-- Node4&#45;&gt;Node5 -->
<g id="edge4" class="edge"><title>Node4&#45;&gt;Node5</title>
<path fill="none" stroke="midnightblue" d="M888.588,-275C899.662,-275 910.953,-275 922.065,-275"/>
<polygon fill="midnightblue" stroke="midnightblue" points="922.21,-278.5 932.21,-275 922.21,-271.5 922.21,-278.5"/>
</g>
</g>
</svg>
        <g id="navigator" transform="translate(0 0)" fill="#404254">
                <rect fill="#f2f5e9" fill-opacity="0.5" stroke="#606060" stroke-width=".5" x="0" y="0" width="60" height="60"/>
                <use id="zoomplus" xlink:href="#zoomPlus" x="17" y="9" onmousedown="handleZoom(evt,'in')"/>
                <use id="zoomminus" xlink:href="#zoomMin" x="42" y="9" onmousedown="handleZoom(evt,'out')"/>
                <use id="reset" xlink:href="#resetDef" x="30" y="36" onmousedown="handleReset()"/>
                <g id="arrowUp" xlink:href="#dirArrow" transform="translate(30 24)" onmousedown="handlePan(0,-1)">
                  <use xlink:href="#rim" fill="#404040">
                        <set attributeName="fill" to="#808080" begin="arrowUp.mouseover" end="arrowUp.mouseout"/>
                  </use>
                  <path fill="none" stroke="white" stroke-width="1.5" d="M0,-3.0v7 M-2.5,-0.5L0,-3.0L2.5,-0.5"/>
                </g>
                <g id="arrowRight" xlink:href="#dirArrow" transform="rotate(90) translate(36 -43)" onmousedown="handlePan(1,0)">
                  <use xlink:href="#rim" fill="#404040">
                        <set attributeName="fill" to="#808080" begin="arrowRight.mouseover" end="arrowRight.mouseout"/>
                  </use>
                  <path fill="none" stroke="white" stroke-width="1.5" d="M0,-3.0v7 M-2.5,-0.5L0,-3.0L2.5,-0.5"/>
                </g>
                <g id="arrowDown" xlink:href="#dirArrow" transform="rotate(180) translate(-30 -48)" onmousedown="handlePan(0,1)">
                  <use xlink:href="#rim" fill="#404040">
                        <set attributeName="fill" to="#808080" begin="arrowDown.mouseover" end="arrowDown.mouseout"/>
                  </use>
                  <path fill="none" stroke="white" stroke-width="1.5" d="M0,-3.0v7 M-2.5,-0.5L0,-3.0L2.5,-0.5"/>
                </g>
                <g id="arrowLeft" xlink:href="#dirArrow" transform="rotate(270) translate(-36 17)" onmousedown="handlePan(-1,0)">
                  <use xlink:href="#rim" fill="#404040">
                        <set attributeName="fill" to="#808080" begin="arrowLeft.mouseover" end="arrowLeft.mouseout"/>
                  </use>
                  <path fill="none" stroke="white" stroke-width="1.5" d="M0,-3.0v7 M-2.5,-0.5L0,-3.0L2.5,-0.5"/>
                </g>
        </g>
        <svg viewBox="0 0 15 15" width="100%" height="30px" preserveAspectRatio="xMaxYMin meet">
         <g id="arrow_out" transform="scale(0.3 0.3)">
          <a xlink:href="classcommands_1_1variable_commands_1_1_created_command_acf7905ec94096884e9024009b3398648_cgraph_org.svg" target="_base">
           <rect id="button" ry="5" rx="5" y="6" x="6" height="38" width="38"
                fill="#f2f5e9" fill-opacity="0.5" stroke="#606060" stroke-width="1.0"/>
           <path id="arrow"
             d="M 11.500037,31.436501 C 11.940474,20.09759 22.043105,11.32322 32.158766,21.979434 L 37.068811,17.246167 C 37.068811,17.246167 37.088388,32 37.088388,32 L 22.160133,31.978069 C 22.160133,31.978069 26.997745,27.140456 26.997745,27.140456 C 18.528582,18.264221 13.291696,25.230495 11.500037,31.436501 z"
             style="fill:#404040;"/>
          </a>
         </g>
        </svg>
</svg>
