<?xml version="1.0" encoding="UTF-8" standalone="no"?>
<!DOCTYPE svg PUBLIC "-//W3C//DTD SVG 1.1//EN"
 "http://www.w3.org/Graphics/SVG/1.1/DTD/svg11.dtd">
<!-- Generated by graphviz version 2.36.0 (20140111.2315)
 -->
<!-- Title: commands.expressionCommands.TwoExpressionCommand.getFirstExpression Pages: 1 -->
<svg width="454pt" height="577pt"
 viewBox="0.00 0.00 454.00 577.00" xmlns="http://www.w3.org/2000/svg" xmlns:xlink="http://www.w3.org/1999/xlink">
<g id="graph0" class="graph" transform="scale(1 1) rotate(0) translate(4 573)">
<title>commands.expressionCommands.TwoExpressionCommand.getFirstExpression</title>
<polygon fill="white" stroke="none" points="-4,4 -4,-573 450,-573 450,4 -4,4"/>
<!-- Node1 -->
<g id="node1" class="node"><title>Node1</title>
<polygon fill="#bfbfbf" stroke="black" points="0.5,-269 0.5,-299 225.5,-299 225.5,-269 0.5,-269"/>
<text text-anchor="start" x="8.5" y="-287" font-family="Helvetica,sans-Serif" font-size="10.00">commands.expressionCommands.</text>
<text text-anchor="middle" x="113" y="-276" font-family="Helvetica,sans-Serif" font-size="10.00">TwoExpressionCommand.getFirstExpression</text>
</g>
<!-- Node2 -->
<g id="node2" class="node"><title>Node2</title>
<g id="a_node2"><a xlink:href="../../d5/d45/classcommands_1_1expression_commands_1_1_and_command.html#a64c15f817ba98c82255a5cea84164ec4" target="_top" xlink:title="commands.expressionCommands.\lAndCommand.onExecute">
<polygon fill="white" stroke="black" points="262,-539 262,-569 446,-569 446,-539 262,-539"/>
<text text-anchor="start" x="270" y="-557" font-family="Helvetica,sans-Serif" font-size="10.00">commands.expressionCommands.</text>
<text text-anchor="middle" x="354" y="-546" font-family="Helvetica,sans-Serif" font-size="10.00">AndCommand.onExecute</text>
</a>
</g>
</g>
<!-- Node1&#45;&gt;Node2 -->
<g id="edge1" class="edge"><title>Node1&#45;&gt;Node2</title>
<path fill="none" stroke="midnightblue" d="M121.887,-308.694C139.029,-358.31 184.493,-470.354 262,-529 267.095,-532.856 272.75,-536.117 278.676,-538.875"/>
<polygon fill="midnightblue" stroke="midnightblue" points="125.164,-307.458 118.658,-299.096 118.529,-309.69 125.164,-307.458"/>
</g>
<!-- Node3 -->
<g id="node3" class="node"><title>Node3</title>
<g id="a_node3"><a xlink:href="../../df/da8/classcommands_1_1expression_commands_1_1_sum_command.html#a3b21e5f3c1cd75ee176dc643df443756" target="_top" xlink:title="commands.expressionCommands.\lSumCommand.onExecute">
<polygon fill="white" stroke="black" points="262,-490 262,-520 446,-520 446,-490 262,-490"/>
<text text-anchor="start" x="270" y="-508" font-family="Helvetica,sans-Serif" font-size="10.00">commands.expressionCommands.</text>
<text text-anchor="middle" x="354" y="-497" font-family="Helvetica,sans-Serif" font-size="10.00">SumCommand.onExecute</text>
</a>
</g>
</g>
<!-- Node1&#45;&gt;Node3 -->
<g id="edge2" class="edge"><title>Node1&#45;&gt;Node3</title>
<path fill="none" stroke="midnightblue" d="M125.604,-308.351C146.735,-350.031 195.523,-434.903 262,-480 267.695,-483.863 273.97,-487.132 280.482,-489.897"/>
<polygon fill="midnightblue" stroke="midnightblue" points="128.643,-306.602 121.06,-299.202 122.374,-309.715 128.643,-306.602"/>
</g>
<!-- Node4 -->
<g id="node4" class="node"><title>Node4</title>
<g id="a_node4"><a xlink:href="../../d2/deb/classcommands_1_1expression_commands_1_1_remainder_command.html#a8794026bd6b3137d54d01444c8ab6694" target="_top" xlink:title="commands.expressionCommands.\lRemainderCommand.onExecute">
<polygon fill="white" stroke="black" points="262,-441 262,-471 446,-471 446,-441 262,-441"/>
<text text-anchor="start" x="270" y="-459" font-family="Helvetica,sans-Serif" font-size="10.00">commands.expressionCommands.</text>
<text text-anchor="middle" x="354" y="-448" font-family="Helvetica,sans-Serif" font-size="10.00">RemainderCommand.onExecute</text>
</a>
</g>
</g>
<!-- Node1&#45;&gt;Node4 -->
<g id="edge3" class="edge"><title>Node1&#45;&gt;Node4</title>
<path fill="none" stroke="midnightblue" d="M130.888,-307.075C155.897,-339.581 205.906,-398.505 262,-431 268.663,-434.86 275.947,-438.145 283.399,-440.937"/>
<polygon fill="midnightblue" stroke="midnightblue" points="133.624,-304.891 124.796,-299.032 128.044,-309.117 133.624,-304.891"/>
</g>
<!-- Node5 -->
<g id="node5" class="node"><title>Node5</title>
<g id="a_node5"><a xlink:href="../../d2/d94/classcommands_1_1expression_commands_1_1_quotient_command.html#ad12555ef8163bd31f4e759a7ee5e8bd8" target="_top" xlink:title="commands.expressionCommands.\lQuotientCommand.onExecute">
<polygon fill="white" stroke="black" points="262,-392 262,-422 446,-422 446,-392 262,-392"/>
<text text-anchor="start" x="270" y="-410" font-family="Helvetica,sans-Serif" font-size="10.00">commands.expressionCommands.</text>
<text text-anchor="middle" x="354" y="-399" font-family="Helvetica,sans-Serif" font-size="10.00">QuotientCommand.onExecute</text>
</a>
</g>
</g>
<!-- Node1&#45;&gt;Node5 -->
<g id="edge4" class="edge"><title>Node1&#45;&gt;Node5</title>
<path fill="none" stroke="midnightblue" d="M140.709,-305.493C169.227,-327.498 216.487,-361.32 262,-382 270.204,-385.728 279.083,-389.008 287.969,-391.86"/>
<polygon fill="midnightblue" stroke="midnightblue" points="142.52,-302.466 132.483,-299.071 138.212,-307.984 142.52,-302.466"/>
</g>
<!-- Node6 -->
<g id="node6" class="node"><title>Node6</title>
<g id="a_node6"><a xlink:href="../../d0/de3/classcommands_1_1expression_commands_1_1_product_command.html#a49cec5366c5b91c50886782beba4474a" target="_top" xlink:title="commands.expressionCommands.\lProductCommand.onExecute">
<polygon fill="white" stroke="black" points="262,-343 262,-373 446,-373 446,-343 262,-343"/>
<text text-anchor="start" x="270" y="-361" font-family="Helvetica,sans-Serif" font-size="10.00">commands.expressionCommands.</text>
<text text-anchor="middle" x="354" y="-350" font-family="Helvetica,sans-Serif" font-size="10.00">ProductCommand.onExecute</text>
</a>
</g>
</g>
<!-- Node1&#45;&gt;Node6 -->
<g id="edge5" class="edge"><title>Node1&#45;&gt;Node6</title>
<path fill="none" stroke="midnightblue" d="M167.15,-302.334C195.242,-311.837 230.369,-323.426 262,-333 273.134,-336.37 285.091,-339.794 296.56,-342.982"/>
<polygon fill="midnightblue" stroke="midnightblue" points="168.119,-298.967 157.524,-299.067 165.869,-305.595 168.119,-298.967"/>
</g>
<!-- Node7 -->
<g id="node7" class="node"><title>Node7</title>
<g id="a_node7"><a xlink:href="../../d0/de5/classcommands_1_1expression_commands_1_1_or_command.html#a03a756c3604cb87db6efe23400d6fce5" target="_top" xlink:title="commands.expressionCommands.\lOrCommand.onExecute">
<polygon fill="white" stroke="black" points="262,-294 262,-324 446,-324 446,-294 262,-294"/>
<text text-anchor="start" x="270" y="-312" font-family="Helvetica,sans-Serif" font-size="10.00">commands.expressionCommands.</text>
<text text-anchor="middle" x="354" y="-301" font-family="Helvetica,sans-Serif" font-size="10.00">OrCommand.onExecute</text>
</a>
</g>
</g>
<!-- Node1&#45;&gt;Node7 -->
<g id="edge6" class="edge"><title>Node1&#45;&gt;Node7</title>
<path fill="none" stroke="midnightblue" d="M235.965,-296.758C244.624,-297.664 253.265,-298.568 261.708,-299.451"/>
<polygon fill="midnightblue" stroke="midnightblue" points="236.112,-293.254 225.803,-295.695 235.384,-300.216 236.112,-293.254"/>
</g>
<!-- Node8 -->
<g id="node8" class="node"><title>Node8</title>
<g id="a_node8"><a xlink:href="../../dd/d39/classcommands_1_1expression_commands_1_1_not_equal_command.html#a18a2d0b8c018ce099392258c82bd3c27" target="_top" xlink:title="commands.expressionCommands.\lNotEqualCommand.onExecute">
<polygon fill="white" stroke="black" points="262,-245 262,-275 446,-275 446,-245 262,-245"/>
<text text-anchor="start" x="270" y="-263" font-family="Helvetica,sans-Serif" font-size="10.00">commands.expressionCommands.</text>
<text text-anchor="middle" x="354" y="-252" font-family="Helvetica,sans-Serif" font-size="10.00">NotEqualCommand.onExecute</text>
</a>
</g>
</g>
<!-- Node1&#45;&gt;Node8 -->
<g id="edge7" class="edge"><title>Node1&#45;&gt;Node8</title>
<path fill="none" stroke="midnightblue" d="M235.965,-271.753C244.624,-270.883 253.265,-270.015 261.708,-269.167"/>
<polygon fill="midnightblue" stroke="midnightblue" points="235.403,-268.291 225.803,-272.773 236.102,-275.256 235.403,-268.291"/>
</g>
<!-- Node9 -->
<g id="node9" class="node"><title>Node9</title>
<g id="a_node9"><a xlink:href="../../dd/d4e/classcommands_1_1expression_commands_1_1_less_command.html#ab817c5b29b7e79fd3058fb97e5b2c7c4" target="_top" xlink:title="commands.expressionCommands.\lLessCommand.onExecute">
<polygon fill="white" stroke="black" points="262,-196 262,-226 446,-226 446,-196 262,-196"/>
<text text-anchor="start" x="270" y="-214" font-family="Helvetica,sans-Serif" font-size="10.00">commands.expressionCommands.</text>
<text text-anchor="middle" x="354" y="-203" font-family="Helvetica,sans-Serif" font-size="10.00">LessCommand.onExecute</text>
</a>
</g>
</g>
<!-- Node1&#45;&gt;Node9 -->
<g id="edge8" class="edge"><title>Node1&#45;&gt;Node9</title>
<path fill="none" stroke="midnightblue" d="M168.107,-265.799C196.049,-256.565 230.75,-245.355 262,-236 273.144,-232.664 285.106,-229.255 296.576,-226.071"/>
<polygon fill="midnightblue" stroke="midnightblue" points="166.913,-262.507 158.522,-268.976 169.116,-269.151 166.913,-262.507"/>
</g>
<!-- Node10 -->
<g id="node10" class="node"><title>Node10</title>
<g id="a_node10"><a xlink:href="../../d8/d71/classcommands_1_1expression_commands_1_1_greater_command.html#a4c17886f7ceb9fd071648620741ea935" target="_top" xlink:title="commands.expressionCommands.\lGreaterCommand.onExecute">
<polygon fill="white" stroke="black" points="262,-147 262,-177 446,-177 446,-147 262,-147"/>
<text text-anchor="start" x="270" y="-165" font-family="Helvetica,sans-Serif" font-size="10.00">commands.expressionCommands.</text>
<text text-anchor="middle" x="354" y="-154" font-family="Helvetica,sans-Serif" font-size="10.00">GreaterCommand.onExecute</text>
</a>
</g>
</g>
<!-- Node1&#45;&gt;Node10 -->
<g id="edge9" class="edge"><title>Node1&#45;&gt;Node10</title>
<path fill="none" stroke="midnightblue" d="M141.227,-262.376C169.824,-240.602 216.834,-207.395 262,-187 270.362,-183.224 279.42,-179.904 288.47,-177.021"/>
<polygon fill="midnightblue" stroke="midnightblue" points="138.752,-259.865 132.966,-268.74 143.024,-265.41 138.752,-259.865"/>
</g>
<!-- Node11 -->
<g id="node11" class="node"><title>Node11</title>
<g id="a_node11"><a xlink:href="../../dd/d4b/classcommands_1_1expression_commands_1_1_exponent_command.html#afe241f6f8356833682997e16308ac072" target="_top" xlink:title="commands.expressionCommands.\lExponentCommand.onExecute">
<polygon fill="white" stroke="black" points="262,-98 262,-128 446,-128 446,-98 262,-98"/>
<text text-anchor="start" x="270" y="-116" font-family="Helvetica,sans-Serif" font-size="10.00">commands.expressionCommands.</text>
<text text-anchor="middle" x="354" y="-105" font-family="Helvetica,sans-Serif" font-size="10.00">ExponentCommand.onExecute</text>
</a>
</g>
</g>
<!-- Node1&#45;&gt;Node11 -->
<g id="edge10" class="edge"><title>Node1&#45;&gt;Node11</title>
<path fill="none" stroke="midnightblue" d="M131.312,-260.587C156.491,-228.207 206.327,-170.124 262,-138 268.67,-134.151 275.958,-130.873 283.412,-128.086"/>
<polygon fill="midnightblue" stroke="midnightblue" points="128.466,-258.547 125.166,-268.615 134.024,-262.802 128.466,-258.547"/>
</g>
<!-- Node12 -->
<g id="node12" class="node"><title>Node12</title>
<g id="a_node12"><a xlink:href="../../da/d77/classcommands_1_1expression_commands_1_1_equal_command.html#a58351f928dfc8864d37ebc046718a9a0" target="_top" xlink:title="commands.expressionCommands.\lEqualCommand.onExecute">
<polygon fill="white" stroke="black" points="262,-49 262,-79 446,-79 446,-49 262,-49"/>
<text text-anchor="start" x="270" y="-67" font-family="Helvetica,sans-Serif" font-size="10.00">commands.expressionCommands.</text>
<text text-anchor="middle" x="354" y="-56" font-family="Helvetica,sans-Serif" font-size="10.00">EqualCommand.onExecute</text>
</a>
</g>
</g>
<!-- Node1&#45;&gt;Node12 -->
<g id="edge11" class="edge"><title>Node1&#45;&gt;Node12</title>
<path fill="none" stroke="midnightblue" d="M125.638,-259.773C146.82,-218.307 195.683,-133.869 262,-89 267.699,-85.1439 273.978,-81.8801 280.492,-79.1182"/>
<polygon fill="midnightblue" stroke="midnightblue" points="122.428,-258.366 121.082,-268.875 128.688,-261.499 122.428,-258.366"/>
</g>
<!-- Node13 -->
<g id="node13" class="node"><title>Node13</title>
<g id="a_node13"><a xlink:href="../../d2/dc4/classcommands_1_1expression_commands_1_1_difference_command.html#aed0667815a8c86e854342288a3812d55" target="_top" xlink:title="commands.expressionCommands.\lDifferenceCommand.onExecute">
<polygon fill="white" stroke="black" points="262,-0 262,-30 446,-30 446,-0 262,-0"/>
<text text-anchor="start" x="270" y="-18" font-family="Helvetica,sans-Serif" font-size="10.00">commands.expressionCommands.</text>
<text text-anchor="middle" x="354" y="-7" font-family="Helvetica,sans-Serif" font-size="10.00">DifferenceCommand.onExecute</text>
</a>
</g>
</g>
<!-- Node1&#45;&gt;Node13 -->
<g id="edge12" class="edge"><title>Node1&#45;&gt;Node13</title>
<path fill="none" stroke="midnightblue" d="M121.917,-259.406C139.113,-209.991 184.672,-98.4005 262,-40 267.099,-36.1491 272.756,-32.8913 278.684,-30.1353"/>
<polygon fill="midnightblue" stroke="midnightblue" points="118.572,-258.371 118.677,-268.965 125.202,-260.618 118.572,-258.371"/>
</g>
</g>
</svg>
