<?xml version="1.0" encoding="UTF-8" standalone="no"?>
<!DOCTYPE svg PUBLIC "-//W3C//DTD SVG 1.1//EN"
 "http://www.w3.org/Graphics/SVG/1.1/DTD/svg11.dtd">
<!-- Generated by graphviz version 2.36.0 (20140111.2315)
 -->
<!-- Title: commands.expressionCommands.TwoExpressionCommand.getSecondExpression Pages: 1 -->
<svg width="470pt" height="577pt"
 viewBox="0.00 0.00 470.00 577.00" xmlns="http://www.w3.org/2000/svg" xmlns:xlink="http://www.w3.org/1999/xlink">
<g id="graph0" class="graph" transform="scale(1 1) rotate(0) translate(4 573)">
<title>commands.expressionCommands.TwoExpressionCommand.getSecondExpression</title>
<polygon fill="white" stroke="none" points="-4,4 -4,-573 466,-573 466,4 -4,4"/>
<!-- Node1 -->
<g id="node1" class="node"><title>Node1</title>
<polygon fill="#bfbfbf" stroke="black" points="0,-269 0,-299 242,-299 242,-269 0,-269"/>
<text text-anchor="start" x="8" y="-287" font-family="Helvetica,sans-Serif" font-size="10.00">commands.expressionCommands.</text>
<text text-anchor="middle" x="121" y="-276" font-family="Helvetica,sans-Serif" font-size="10.00">TwoExpressionCommand.getSecondExpression</text>
</g>
<!-- Node2 -->
<g id="node2" class="node"><title>Node2</title>
<g id="a_node2"><a xlink:href="../../d5/d45/classcommands_1_1expression_commands_1_1_and_command.html#a64c15f817ba98c82255a5cea84164ec4" target="_top" xlink:title="commands.expressionCommands.\lAndCommand.onExecute">
<polygon fill="white" stroke="black" points="278,-539 278,-569 462,-569 462,-539 278,-539"/>
<text text-anchor="start" x="286" y="-557" font-family="Helvetica,sans-Serif" font-size="10.00">commands.expressionCommands.</text>
<text text-anchor="middle" x="370" y="-546" font-family="Helvetica,sans-Serif" font-size="10.00">AndCommand.onExecute</text>
</a>
</g>
</g>
<!-- Node1&#45;&gt;Node2 -->
<g id="edge1" class="edge"><title>Node1&#45;&gt;Node2</title>
<path fill="none" stroke="midnightblue" d="M130.706,-308.705C149.491,-358.342 198.655,-470.421 278,-529 283.272,-532.892 289.119,-536.179 295.231,-538.954"/>
<polygon fill="midnightblue" stroke="midnightblue" points="133.907,-307.27 127.159,-299.103 127.341,-309.696 133.907,-307.27"/>
</g>
<!-- Node3 -->
<g id="node3" class="node"><title>Node3</title>
<g id="a_node3"><a xlink:href="../../df/da8/classcommands_1_1expression_commands_1_1_sum_command.html#a3b21e5f3c1cd75ee176dc643df443756" target="_top" xlink:title="commands.expressionCommands.\lSumCommand.onExecute">
<polygon fill="white" stroke="black" points="278,-490 278,-520 462,-520 462,-490 278,-490"/>
<text text-anchor="start" x="286" y="-508" font-family="Helvetica,sans-Serif" font-size="10.00">commands.expressionCommands.</text>
<text text-anchor="middle" x="370" y="-497" font-family="Helvetica,sans-Serif" font-size="10.00">SumCommand.onExecute</text>
</a>
</g>
</g>
<!-- Node1&#45;&gt;Node3 -->
<g id="edge2" class="edge"><title>Node1&#45;&gt;Node3</title>
<path fill="none" stroke="midnightblue" d="M134.44,-308.081C157.175,-349.656 209.471,-434.775 278,-480 283.88,-483.88 290.352,-487.163 297.052,-489.938"/>
<polygon fill="midnightblue" stroke="midnightblue" points="137.485,-306.354 129.672,-299.198 131.318,-309.664 137.485,-306.354"/>
</g>
<!-- Node4 -->
<g id="node4" class="node"><title>Node4</title>
<g id="a_node4"><a xlink:href="../../d2/deb/classcommands_1_1expression_commands_1_1_remainder_command.html#a8794026bd6b3137d54d01444c8ab6694" target="_top" xlink:title="commands.expressionCommands.\lRemainderCommand.onExecute">
<polygon fill="white" stroke="black" points="278,-441 278,-471 462,-471 462,-441 278,-441"/>
<text text-anchor="start" x="286" y="-459" font-family="Helvetica,sans-Serif" font-size="10.00">commands.expressionCommands.</text>
<text text-anchor="middle" x="370" y="-448" font-family="Helvetica,sans-Serif" font-size="10.00">RemainderCommand.onExecute</text>
</a>
</g>
</g>
<!-- Node1&#45;&gt;Node4 -->
<g id="edge3" class="edge"><title>Node1&#45;&gt;Node4</title>
<path fill="none" stroke="midnightblue" d="M140.087,-307.039C166.794,-339.5 219.926,-398.37 278,-431 284.856,-434.852 292.341,-438.139 299.976,-440.936"/>
<polygon fill="midnightblue" stroke="midnightblue" points="142.591,-304.571 133.575,-299.007 137.154,-308.979 142.591,-304.571"/>
</g>
<!-- Node5 -->
<g id="node5" class="node"><title>Node5</title>
<g id="a_node5"><a xlink:href="../../d2/d94/classcommands_1_1expression_commands_1_1_quotient_command.html#ad12555ef8163bd31f4e759a7ee5e8bd8" target="_top" xlink:title="commands.expressionCommands.\lQuotientCommand.onExecute">
<polygon fill="white" stroke="black" points="278,-392 278,-422 462,-422 462,-392 278,-392"/>
<text text-anchor="start" x="286" y="-410" font-family="Helvetica,sans-Serif" font-size="10.00">commands.expressionCommands.</text>
<text text-anchor="middle" x="370" y="-399" font-family="Helvetica,sans-Serif" font-size="10.00">QuotientCommand.onExecute</text>
</a>
</g>
</g>
<!-- Node1&#45;&gt;Node5 -->
<g id="edge4" class="edge"><title>Node1&#45;&gt;Node5</title>
<path fill="none" stroke="midnightblue" d="M149.958,-305.123C180.136,-327.049 230.305,-361.014 278,-382 286.548,-385.761 295.801,-389.087 305.021,-391.984"/>
<polygon fill="midnightblue" stroke="midnightblue" points="151.759,-302.104 141.627,-299.007 147.616,-307.746 151.759,-302.104"/>
</g>
<!-- Node6 -->
<g id="node6" class="node"><title>Node6</title>
<g id="a_node6"><a xlink:href="../../d0/de3/classcommands_1_1expression_commands_1_1_product_command.html#a49cec5366c5b91c50886782beba4474a" target="_top" xlink:title="commands.expressionCommands.\lProductCommand.onExecute">
<polygon fill="white" stroke="black" points="278,-343 278,-373 462,-373 462,-343 278,-343"/>
<text text-anchor="start" x="286" y="-361" font-family="Helvetica,sans-Serif" font-size="10.00">commands.expressionCommands.</text>
<text text-anchor="middle" x="370" y="-350" font-family="Helvetica,sans-Serif" font-size="10.00">ProductCommand.onExecute</text>
</a>
</g>
</g>
<!-- Node1&#45;&gt;Node6 -->
<g id="edge5" class="edge"><title>Node1&#45;&gt;Node6</title>
<path fill="none" stroke="midnightblue" d="M178.035,-302.141C207.675,-311.599 244.725,-323.207 278,-333 289.317,-336.331 301.466,-339.765 313.084,-342.982"/>
<polygon fill="midnightblue" stroke="midnightblue" points="178.874,-298.734 168.283,-299.021 176.741,-305.401 178.874,-298.734"/>
</g>
<!-- Node7 -->
<g id="node7" class="node"><title>Node7</title>
<g id="a_node7"><a xlink:href="../../d0/de5/classcommands_1_1expression_commands_1_1_or_command.html#a03a756c3604cb87db6efe23400d6fce5" target="_top" xlink:title="commands.expressionCommands.\lOrCommand.onExecute">
<polygon fill="white" stroke="black" points="278,-294 278,-324 462,-324 462,-294 278,-294"/>
<text text-anchor="start" x="286" y="-312" font-family="Helvetica,sans-Serif" font-size="10.00">commands.expressionCommands.</text>
<text text-anchor="middle" x="370" y="-301" font-family="Helvetica,sans-Serif" font-size="10.00">OrCommand.onExecute</text>
</a>
</g>
</g>
<!-- Node1&#45;&gt;Node7 -->
<g id="edge6" class="edge"><title>Node1&#45;&gt;Node7</title>
<path fill="none" stroke="midnightblue" d="M252.388,-297.197C261.021,-298.071 269.608,-298.94 277.981,-299.788"/>
<polygon fill="midnightblue" stroke="midnightblue" points="252.546,-293.695 242.244,-296.17 251.841,-300.66 252.546,-293.695"/>
</g>
<!-- Node8 -->
<g id="node8" class="node"><title>Node8</title>
<g id="a_node8"><a xlink:href="../../dd/d39/classcommands_1_1expression_commands_1_1_not_equal_command.html#a18a2d0b8c018ce099392258c82bd3c27" target="_top" xlink:title="commands.expressionCommands.\lNotEqualCommand.onExecute">
<polygon fill="white" stroke="black" points="278,-245 278,-275 462,-275 462,-245 278,-245"/>
<text text-anchor="start" x="286" y="-263" font-family="Helvetica,sans-Serif" font-size="10.00">commands.expressionCommands.</text>
<text text-anchor="middle" x="370" y="-252" font-family="Helvetica,sans-Serif" font-size="10.00">NotEqualCommand.onExecute</text>
</a>
</g>
</g>
<!-- Node1&#45;&gt;Node8 -->
<g id="edge7" class="edge"><title>Node1&#45;&gt;Node8</title>
<path fill="none" stroke="midnightblue" d="M252.388,-271.331C261.021,-270.492 269.608,-269.657 277.981,-268.844"/>
<polygon fill="midnightblue" stroke="midnightblue" points="251.859,-267.866 242.244,-272.316 252.536,-274.833 251.859,-267.866"/>
</g>
<!-- Node9 -->
<g id="node9" class="node"><title>Node9</title>
<g id="a_node9"><a xlink:href="../../dd/d4e/classcommands_1_1expression_commands_1_1_less_command.html#ab817c5b29b7e79fd3058fb97e5b2c7c4" target="_top" xlink:title="commands.expressionCommands.\lLessCommand.onExecute">
<polygon fill="white" stroke="black" points="278,-196 278,-226 462,-226 462,-196 278,-196"/>
<text text-anchor="start" x="286" y="-214" font-family="Helvetica,sans-Serif" font-size="10.00">commands.expressionCommands.</text>
<text text-anchor="middle" x="370" y="-203" font-family="Helvetica,sans-Serif" font-size="10.00">LessCommand.onExecute</text>
</a>
</g>
</g>
<!-- Node1&#45;&gt;Node9 -->
<g id="edge8" class="edge"><title>Node1&#45;&gt;Node9</title>
<path fill="none" stroke="midnightblue" d="M179.374,-265.89C208.797,-256.719 245.246,-245.536 278,-236 289.326,-232.703 301.48,-229.282 313.099,-226.069"/>
<polygon fill="midnightblue" stroke="midnightblue" points="178.182,-262.596 169.68,-268.918 180.269,-269.277 178.182,-262.596"/>
</g>
<!-- Node10 -->
<g id="node10" class="node"><title>Node10</title>
<g id="a_node10"><a xlink:href="../../d8/d71/classcommands_1_1expression_commands_1_1_greater_command.html#a4c17886f7ceb9fd071648620741ea935" target="_top" xlink:title="commands.expressionCommands.\lGreaterCommand.onExecute">
<polygon fill="white" stroke="black" points="278,-147 278,-177 462,-177 462,-147 278,-147"/>
<text text-anchor="start" x="286" y="-165" font-family="Helvetica,sans-Serif" font-size="10.00">commands.expressionCommands.</text>
<text text-anchor="middle" x="370" y="-154" font-family="Helvetica,sans-Serif" font-size="10.00">GreaterCommand.onExecute</text>
</a>
</g>
</g>
<!-- Node1&#45;&gt;Node10 -->
<g id="edge9" class="edge"><title>Node1&#45;&gt;Node10</title>
<path fill="none" stroke="midnightblue" d="M150.501,-262.745C180.761,-241.047 230.66,-207.699 278,-187 286.557,-183.259 295.814,-179.944 305.037,-177.051"/>
<polygon fill="midnightblue" stroke="midnightblue" points="148.18,-260.105 142.136,-268.806 152.287,-265.773 148.18,-260.105"/>
</g>
<!-- Node11 -->
<g id="node11" class="node"><title>Node11</title>
<g id="a_node11"><a xlink:href="../../dd/d4b/classcommands_1_1expression_commands_1_1_exponent_command.html#afe241f6f8356833682997e16308ac072" target="_top" xlink:title="commands.expressionCommands.\lExponentCommand.onExecute">
<polygon fill="white" stroke="black" points="278,-98 278,-128 462,-128 462,-98 278,-98"/>
<text text-anchor="start" x="286" y="-116" font-family="Helvetica,sans-Serif" font-size="10.00">commands.expressionCommands.</text>
<text text-anchor="middle" x="370" y="-105" font-family="Helvetica,sans-Serif" font-size="10.00">ExponentCommand.onExecute</text>
</a>
</g>
</g>
<!-- Node1&#45;&gt;Node11 -->
<g id="edge10" class="edge"><title>Node1&#45;&gt;Node11</title>
<path fill="none" stroke="midnightblue" d="M140.535,-260.625C167.418,-228.29 220.353,-170.261 278,-138 284.863,-134.159 292.351,-130.88 299.989,-128.087"/>
<polygon fill="midnightblue" stroke="midnightblue" points="137.598,-258.688 133.968,-268.641 143.013,-263.124 137.598,-258.688"/>
</g>
<!-- Node12 -->
<g id="node12" class="node"><title>Node12</title>
<g id="a_node12"><a xlink:href="../../da/d77/classcommands_1_1expression_commands_1_1_equal_command.html#a58351f928dfc8864d37ebc046718a9a0" target="_top" xlink:title="commands.expressionCommands.\lEqualCommand.onExecute">
<polygon fill="white" stroke="black" points="278,-49 278,-79 462,-79 462,-49 278,-49"/>
<text text-anchor="start" x="286" y="-67" font-family="Helvetica,sans-Serif" font-size="10.00">commands.expressionCommands.</text>
<text text-anchor="middle" x="370" y="-56" font-family="Helvetica,sans-Serif" font-size="10.00">EqualCommand.onExecute</text>
</a>
</g>
</g>
<!-- Node1&#45;&gt;Node12 -->
<g id="edge11" class="edge"><title>Node1&#45;&gt;Node12</title>
<path fill="none" stroke="midnightblue" d="M134.473,-260.043C157.258,-218.681 209.629,-133.999 278,-89 283.885,-85.1268 290.36,-81.8495 297.062,-79.0771"/>
<polygon fill="midnightblue" stroke="midnightblue" points="131.372,-258.419 129.693,-268.88 137.529,-261.749 131.372,-258.419"/>
</g>
<!-- Node13 -->
<g id="node13" class="node"><title>Node13</title>
<g id="a_node13"><a xlink:href="../../d2/dc4/classcommands_1_1expression_commands_1_1_difference_command.html#aed0667815a8c86e854342288a3812d55" target="_top" xlink:title="commands.expressionCommands.\lDifferenceCommand.onExecute">
<polygon fill="white" stroke="black" points="278,-0 278,-30 462,-30 462,-0 278,-0"/>
<text text-anchor="start" x="286" y="-18" font-family="Helvetica,sans-Serif" font-size="10.00">commands.expressionCommands.</text>
<text text-anchor="middle" x="370" y="-7" font-family="Helvetica,sans-Serif" font-size="10.00">DifferenceCommand.onExecute</text>
</a>
</g>
</g>
<!-- Node1&#45;&gt;Node13 -->
<g id="edge12" class="edge"><title>Node1&#45;&gt;Node13</title>
<path fill="none" stroke="midnightblue" d="M130.736,-259.395C149.575,-209.96 198.831,-98.3351 278,-40 283.276,-36.1124 289.125,-32.8293 295.239,-30.0568"/>
<polygon fill="midnightblue" stroke="midnightblue" points="127.384,-258.365 127.178,-268.958 133.945,-260.806 127.384,-258.365"/>
</g>
</g>
</svg>
