<?xml version="1.0" encoding="UTF-8" standalone="no"?>
<!DOCTYPE svg PUBLIC "-//W3C//DTD SVG 1.1//EN"
 "http://www.w3.org/Graphics/SVG/1.1/DTD/svg11.dtd">
<!-- Generated by graphviz version 2.36.0 (20140111.2315)
 -->
<!-- Title: GUIFunctions.Stamp.doAction Pages: 1 -->
<svg width="366pt" height="77pt"
 viewBox="0.00 0.00 366.00 77.00" xmlns="http://www.w3.org/2000/svg" xmlns:xlink="http://www.w3.org/1999/xlink">
<g id="graph0" class="graph" transform="scale(1 1) rotate(0) translate(4 73)">
<title>GUIFunctions.Stamp.doAction</title>
<polygon fill="white" stroke="none" points="-4,4 -4,-73 362,-73 362,4 -4,4"/>
<!-- Node1 -->
<g id="node1" class="node"><title>Node1</title>
<polygon fill="#bfbfbf" stroke="black" points="0.5,-27.5 0.5,-46.5 159.5,-46.5 159.5,-27.5 0.5,-27.5"/>
<text text-anchor="middle" x="80" y="-34.5" font-family="Helvetica,sans-Serif" font-size="10.00">GUIFunctions.Stamp.doAction</text>
</g>
<!-- Node2 -->
<g id="node2" class="node"><title>Node2</title>
<g id="a_node2"><a xlink:href="../../d7/d98/class_view_1_1_grid_tracker.html#af7c2413584c58030e606ae6692ea564f" target="_top" xlink:title="View.GridTracker.getActiveGrid">
<polygon fill="white" stroke="black" points="196.5,-49.5 196.5,-68.5 357.5,-68.5 357.5,-49.5 196.5,-49.5"/>
<text text-anchor="middle" x="277" y="-56.5" font-family="Helvetica,sans-Serif" font-size="10.00">View.GridTracker.getActiveGrid</text>
</a>
</g>
</g>
<!-- Node1&#45;&gt;Node2 -->
<g id="edge1" class="edge"><title>Node1&#45;&gt;Node2</title>
<path fill="none" stroke="midnightblue" d="M159.752,-45.8848C168.507,-46.8726 177.472,-47.884 186.349,-48.8855"/>
<polygon fill="midnightblue" stroke="midnightblue" points="185.99,-52.3671 196.319,-50.0104 186.775,-45.4112 185.99,-52.3671"/>
</g>
<!-- Node3 -->
<g id="node3" class="node"><title>Node3</title>
<g id="a_node3"><a xlink:href="../../d9/db1/class_view_1_1_single_grid.html#a63dce7bacaea4b387aeef30975ad678b" target="_top" xlink:title="View.SingleGrid.getActive\lTurtles">
<polygon fill="white" stroke="black" points="208.5,-0 208.5,-30 345.5,-30 345.5,-0 208.5,-0"/>
<text text-anchor="start" x="216.5" y="-18" font-family="Helvetica,sans-Serif" font-size="10.00">View.SingleGrid.getActive</text>
<text text-anchor="middle" x="277" y="-7" font-family="Helvetica,sans-Serif" font-size="10.00">Turtles</text>
</a>
</g>
</g>
<!-- Node1&#45;&gt;Node3 -->
<g id="edge2" class="edge"><title>Node1&#45;&gt;Node3</title>
<path fill="none" stroke="midnightblue" d="M159.752,-28.1152C172.43,-26.6849 185.547,-25.205 198.202,-23.7772"/>
<polygon fill="midnightblue" stroke="midnightblue" points="198.69,-27.2444 208.235,-22.6453 197.905,-20.2886 198.69,-27.2444"/>
</g>
</g>
</svg>
