<?xml version="1.0" encoding="UTF-8" standalone="no"?>
<!DOCTYPE svg PUBLIC "-//W3C//DTD SVG 1.1//EN"
 "http://www.w3.org/Graphics/SVG/1.1/DTD/svg11.dtd">
<!-- Generated by graphviz version 2.36.0 (20140111.2315)
 -->
<!-- Title: View.ColorLabel.setStyle Pages: 1 -->
<svg width="322pt" height="66pt"
 viewBox="0.00 0.00 322.00 66.00" xmlns="http://www.w3.org/2000/svg" xmlns:xlink="http://www.w3.org/1999/xlink">
<g id="graph0" class="graph" transform="scale(1 1) rotate(0) translate(4 62)">
<title>View.ColorLabel.setStyle</title>
<polygon fill="white" stroke="none" points="-4,4 -4,-62 318,-62 318,4 -4,4"/>
<!-- Node1 -->
<g id="node1" class="node"><title>Node1</title>
<polygon fill="#bfbfbf" stroke="black" points="0.5,-19.5 0.5,-38.5 133.5,-38.5 133.5,-19.5 0.5,-19.5"/>
<text text-anchor="middle" x="67" y="-26.5" font-family="Helvetica,sans-Serif" font-size="10.00">View.ColorLabel.setStyle</text>
</g>
<!-- Node2 -->
<g id="node2" class="node"><title>Node2</title>
<g id="a_node2"><a xlink:href="../../d7/d0b/class_view_1_1_color_label.html#a0a88f397448fd62f3217b61f99cd1e34" target="_top" xlink:title="View.ColorLabel.ColorLabel">
<polygon fill="white" stroke="black" points="170,-38.5 170,-57.5 314,-57.5 314,-38.5 170,-38.5"/>
<text text-anchor="middle" x="242" y="-45.5" font-family="Helvetica,sans-Serif" font-size="10.00">View.ColorLabel.ColorLabel</text>
</a>
</g>
</g>
<!-- Node1&#45;&gt;Node2 -->
<g id="edge1" class="edge"><title>Node1&#45;&gt;Node2</title>
<path fill="none" stroke="midnightblue" d="M143.914,-37.3374C152.52,-38.2826 161.268,-39.2433 169.81,-40.1815"/>
<polygon fill="midnightblue" stroke="midnightblue" points="144.22,-33.85 133.897,-36.2373 143.456,-40.8082 144.22,-33.85"/>
</g>
<!-- Node3 -->
<g id="node3" class="node"><title>Node3</title>
<g id="a_node3"><a xlink:href="../../d7/d0b/class_view_1_1_color_label.html#a99206c0b3c1b93f97051bcb0feb2213a" target="_top" xlink:title="View.ColorLabel.setActive">
<polygon fill="white" stroke="black" points="173,-0.5 173,-19.5 311,-19.5 311,-0.5 173,-0.5"/>
<text text-anchor="middle" x="242" y="-7.5" font-family="Helvetica,sans-Serif" font-size="10.00">View.ColorLabel.setActive</text>
</a>
</g>
</g>
<!-- Node1&#45;&gt;Node3 -->
<g id="edge2" class="edge"><title>Node1&#45;&gt;Node3</title>
<path fill="none" stroke="midnightblue" d="M143.9,-20.6641C153.582,-19.6009 163.443,-18.5179 172.989,-17.4695"/>
<polygon fill="midnightblue" stroke="midnightblue" points="143.456,-17.1918 133.897,-21.7627 144.22,-24.15 143.456,-17.1918"/>
</g>
</g>
</svg>
