<?xml version="1.0" encoding="UTF-8" standalone="no"?>
<!DOCTYPE svg PUBLIC "-//W3C//DTD SVG 1.1//EN"
 "http://www.w3.org/Graphics/SVG/1.1/DTD/svg11.dtd">
<!-- Generated by graphviz version 2.36.0 (20140111.2315)
 -->
<!-- Title: View.ColorLabel.ColorLabel Pages: 1 -->
<svg width="328pt" height="66pt"
 viewBox="0.00 0.00 328.00 66.00" xmlns="http://www.w3.org/2000/svg" xmlns:xlink="http://www.w3.org/1999/xlink">
<g id="graph0" class="graph" transform="scale(1 1) rotate(0) translate(4 62)">
<title>View.ColorLabel.ColorLabel</title>
<polygon fill="white" stroke="none" points="-4,4 -4,-62 324,-62 324,4 -4,4"/>
<!-- Node1 -->
<g id="node1" class="node"><title>Node1</title>
<polygon fill="#bfbfbf" stroke="black" points="0,-19.5 0,-38.5 144,-38.5 144,-19.5 0,-19.5"/>
<text text-anchor="middle" x="72" y="-26.5" font-family="Helvetica,sans-Serif" font-size="10.00">View.ColorLabel.ColorLabel</text>
</g>
<!-- Node2 -->
<g id="node2" class="node"><title>Node2</title>
<g id="a_node2"><a xlink:href="../../d7/d0b/class_view_1_1_color_label.html#a6e422b43f6bdfe9b5660a6a06d095dd2" target="_top" xlink:title="View.ColorLabel.addEvent">
<polygon fill="white" stroke="black" points="180.5,-38.5 180.5,-57.5 319.5,-57.5 319.5,-38.5 180.5,-38.5"/>
<text text-anchor="middle" x="250" y="-45.5" font-family="Helvetica,sans-Serif" font-size="10.00">View.ColorLabel.addEvent</text>
</a>
</g>
</g>
<!-- Node1&#45;&gt;Node2 -->
<g id="edge1" class="edge"><title>Node1&#45;&gt;Node2</title>
<path fill="none" stroke="midnightblue" d="M144.079,-36.6733C152.65,-37.5986 161.444,-38.5479 170.118,-39.4844"/>
<polygon fill="midnightblue" stroke="midnightblue" points="169.908,-42.9819 180.226,-40.5756 170.66,-36.0224 169.908,-42.9819"/>
</g>
<!-- Node3 -->
<g id="node3" class="node"><title>Node3</title>
<g id="a_node3"><a xlink:href="../../d7/d0b/class_view_1_1_color_label.html#a3aa1e13a53e8d58caf003b521754d966" target="_top" xlink:title="View.ColorLabel.setStyle">
<polygon fill="white" stroke="black" points="183.5,-0.5 183.5,-19.5 316.5,-19.5 316.5,-0.5 183.5,-0.5"/>
<text text-anchor="middle" x="250" y="-7.5" font-family="Helvetica,sans-Serif" font-size="10.00">View.ColorLabel.setStyle</text>
</a>
</g>
</g>
<!-- Node1&#45;&gt;Node3 -->
<g id="edge2" class="edge"><title>Node1&#45;&gt;Node3</title>
<path fill="none" stroke="midnightblue" d="M144.079,-21.3267C153.708,-20.2872 163.619,-19.2173 173.326,-18.1694"/>
<polygon fill="midnightblue" stroke="midnightblue" points="173.78,-21.6407 183.347,-17.0876 173.029,-14.6812 173.78,-21.6407"/>
</g>
</g>
</svg>
