<?xml version="1.0" encoding="UTF-8" standalone="no"?>
<!DOCTYPE svg PUBLIC "-//W3C//DTD SVG 1.1//EN"
 "http://www.w3.org/Graphics/SVG/1.1/DTD/svg11.dtd">
<!-- Generated by graphviz version 2.36.0 (20140111.2315)
 -->
<!-- Title: View.Grid Pages: 1 -->
<svg width="375pt" height="96pt"
 viewBox="0.00 0.00 375.00 96.00" xmlns="http://www.w3.org/2000/svg" xmlns:xlink="http://www.w3.org/1999/xlink">
<g id="graph0" class="graph" transform="scale(1 1) rotate(0) translate(4 92)">
<title>View.Grid</title>
<polygon fill="white" stroke="none" points="-4,4 -4,-92 371,-92 371,4 -4,4"/>
<!-- Node1 -->
<g id="node1" class="node"><title>Node1</title>
<polygon fill="#bfbfbf" stroke="black" points="100,-0.5 100,-19.5 160,-19.5 160,-0.5 100,-0.5"/>
<text text-anchor="middle" x="130" y="-7.5" font-family="Helvetica,sans-Serif" font-size="10.00">View.Grid</text>
</g>
<!-- Node2 -->
<g id="node2" class="node"><title>Node2</title>
<polygon fill="white" stroke="#bfbfbf" points="0,-68.5 0,-87.5 40,-87.5 40,-68.5 0,-68.5"/>
<text text-anchor="middle" x="20" y="-75.5" font-family="Helvetica,sans-Serif" font-size="10.00">Pane</text>
</g>
<!-- Node2&#45;&gt;Node1 -->
<g id="edge1" class="edge"><title>Node2&#45;&gt;Node1</title>
<path fill="none" stroke="midnightblue" d="M43.0591,-63.1646C64.9486,-50.0309 97.1679,-30.6993 115.616,-19.6305"/>
<polygon fill="midnightblue" stroke="midnightblue" points="41.1548,-60.2254 34.3806,-68.3717 44.7563,-66.2279 41.1548,-60.2254"/>
</g>
<!-- Node3 -->
<g id="node3" class="node"><title>Node3</title>
<polygon fill="white" stroke="#bfbfbf" points="58,-68.5 58,-87.5 202,-87.5 202,-68.5 58,-68.5"/>
<text text-anchor="middle" x="130" y="-75.5" font-family="Helvetica,sans-Serif" font-size="10.00">HashMap&lt; String, Class &gt;</text>
</g>
<!-- Node3&#45;&gt;Node1 -->
<g id="edge2" class="edge"><title>Node3&#45;&gt;Node1</title>
<path fill="none" stroke="#9a32cd" stroke-dasharray="5,2" d="M130,-58.0413C130,-45.4724 130,-29.5631 130,-19.8411"/>
<polygon fill="#9a32cd" stroke="#9a32cd" points="126.5,-58.3716 130,-68.3717 133.5,-58.3717 126.5,-58.3716"/>
<text text-anchor="middle" x="149.5" y="-41.5" font-family="Helvetica,sans-Serif" font-size="10.00"> myMap</text>
</g>
<!-- Node4 -->
<g id="node4" class="node"><title>Node4</title>
<polygon fill="white" stroke="#bfbfbf" points="220.5,-68.5 220.5,-87.5 367.5,-87.5 367.5,-68.5 220.5,-68.5"/>
<text text-anchor="middle" x="294" y="-75.5" font-family="Helvetica,sans-Serif" font-size="10.00">EventHandler&lt; KeyEvent &gt;</text>
</g>
<!-- Node4&#45;&gt;Node1 -->
<g id="edge3" class="edge"><title>Node4&#45;&gt;Node1</title>
<path fill="none" stroke="#9a32cd" stroke-dasharray="5,2" d="M263.029,-64.5361C230.315,-51.3706 179.616,-30.9673 151.186,-19.5259"/>
<polygon fill="#9a32cd" stroke="#9a32cd" points="261.976,-67.8851 272.56,-68.3717 264.59,-61.3913 261.976,-67.8851"/>
<text text-anchor="middle" x="250" y="-41.5" font-family="Helvetica,sans-Serif" font-size="10.00"> myEvent</text>
</g>
</g>
</svg>
