<?xml version="1.0" encoding="UTF-8" standalone="no"?>
<!DOCTYPE svg PUBLIC "-//W3C//DTD SVG 1.1//EN"
 "http://www.w3.org/Graphics/SVG/1.1/DTD/svg11.dtd">
<!-- Generated by graphviz version 2.36.0 (20140111.2315)
 -->
<!-- Title: commandParser.LanguageFileParser Pages: 1 -->
<svg width="168pt" height="108pt"
 viewBox="0.00 0.00 168.00 108.00" xmlns="http://www.w3.org/2000/svg" xmlns:xlink="http://www.w3.org/1999/xlink">
<g id="graph0" class="graph" transform="scale(1 1) rotate(0) translate(4 104)">
<title>commandParser.LanguageFileParser</title>
<polygon fill="white" stroke="none" points="-4,4 -4,-104 164,-104 164,4 -4,4"/>
<!-- Node1 -->
<g id="node1" class="node"><title>Node1</title>
<polygon fill="#bfbfbf" stroke="black" points="0,-1 0,-31 160,-31 160,-1 0,-1"/>
<text text-anchor="start" x="8" y="-19" font-family="Helvetica,sans-Serif" font-size="10.00">commandParser.LanguageFile</text>
<text text-anchor="middle" x="80" y="-8" font-family="Helvetica,sans-Serif" font-size="10.00">Parser</text>
</g>
<!-- Node2 -->
<g id="node2" class="node"><title>Node2</title>
<g id="a_node2"><a xlink:href="../../de/df5/classcommand_parser_1_1_properties_file_reader.html" target="_top" xlink:title="commandParser.Properties\lFileReader">
<polygon fill="white" stroke="black" points="7,-69 7,-99 153,-99 153,-69 7,-69"/>
<text text-anchor="start" x="15" y="-87" font-family="Helvetica,sans-Serif" font-size="10.00">commandParser.Properties</text>
<text text-anchor="middle" x="80" y="-76" font-family="Helvetica,sans-Serif" font-size="10.00">FileReader</text>
</a>
</g>
</g>
<!-- Node2&#45;&gt;Node1 -->
<g id="edge1" class="edge"><title>Node2&#45;&gt;Node1</title>
<path fill="none" stroke="midnightblue" d="M80,-58.5322C80,-49.3606 80,-39.2449 80,-31.2931"/>
<polygon fill="midnightblue" stroke="midnightblue" points="76.5001,-58.6789 80,-68.679 83.5001,-58.679 76.5001,-58.6789"/>
</g>
</g>
</svg>
