<?xml version="1.0" encoding="UTF-8" standalone="no"?>
<!DOCTYPE svg PUBLIC "-//W3C//DTD SVG 1.1//EN"
 "http://www.w3.org/Graphics/SVG/1.1/DTD/svg11.dtd">
<!-- Generated by graphviz version 2.36.0 (20140111.2315)
 -->
<!-- Title: View.UserObjects Pages: 1 -->
<svg width="526pt" height="140pt"
 viewBox="0.00 0.00 526.00 140.00" xmlns="http://www.w3.org/2000/svg" xmlns:xlink="http://www.w3.org/1999/xlink">
<g id="graph0" class="graph" transform="scale(1 1) rotate(0) translate(4 136)">
<title>View.UserObjects</title>
<polygon fill="white" stroke="none" points="-4,4 -4,-136 522,-136 522,4 -4,4"/>
<!-- Node1 -->
<g id="node1" class="node"><title>Node1</title>
<polygon fill="#bfbfbf" stroke="black" points="218.5,-112.5 218.5,-131.5 317.5,-131.5 317.5,-112.5 218.5,-112.5"/>
<text text-anchor="middle" x="268" y="-119.5" font-family="Helvetica,sans-Serif" font-size="10.00">View.UserObjects</text>
</g>
<!-- Node2 -->
<g id="node2" class="node"><title>Node2</title>
<g id="a_node2"><a xlink:href="../../d8/d2a/class_view_1_1_button_template.html" target="_top" xlink:title="View.ButtonTemplate">
<polygon fill="white" stroke="black" points="-1,-56.5 -1,-75.5 115,-75.5 115,-56.5 -1,-56.5"/>
<text text-anchor="middle" x="57" y="-63.5" font-family="Helvetica,sans-Serif" font-size="10.00">View.ButtonTemplate</text>
</a>
</g>
</g>
<!-- Node1&#45;&gt;Node2 -->
<g id="edge1" class="edge"><title>Node1&#45;&gt;Node2</title>
<path fill="none" stroke="midnightblue" d="M224.858,-109.959C185.006,-99.7598 126.637,-84.8217 90.2772,-75.5164"/>
<polygon fill="midnightblue" stroke="midnightblue" points="224.011,-113.355 234.566,-112.444 225.746,-106.573 224.011,-113.355"/>
</g>
<!-- Node3 -->
<g id="node3" class="node"><title>Node3</title>
<g id="a_node3"><a xlink:href="../../d3/d56/class_view_1_1_menu_item_template.html" target="_top" xlink:title="View.MenuItemTemplate">
<polygon fill="white" stroke="black" points="133,-56.5 133,-75.5 265,-75.5 265,-56.5 133,-56.5"/>
<text text-anchor="middle" x="199" y="-63.5" font-family="Helvetica,sans-Serif" font-size="10.00">View.MenuItemTemplate</text>
</a>
</g>
</g>
<!-- Node1&#45;&gt;Node3 -->
<g id="edge2" class="edge"><title>Node1&#45;&gt;Node3</title>
<path fill="none" stroke="midnightblue" d="M248.962,-106.101C236.544,-96.3824 220.757,-84.0269 210.288,-75.8339"/>
<polygon fill="midnightblue" stroke="midnightblue" points="246.882,-108.917 256.914,-112.324 251.196,-103.405 246.882,-108.917"/>
</g>
<!-- Node4 -->
<g id="node4" class="node"><title>Node4</title>
<g id="a_node4"><a xlink:href="../../d7/d52/class_view_1_1_menu_template.html" target="_top" xlink:title="View.MenuTemplate">
<polygon fill="white" stroke="black" points="283,-56.5 283,-75.5 393,-75.5 393,-56.5 283,-56.5"/>
<text text-anchor="middle" x="338" y="-63.5" font-family="Helvetica,sans-Serif" font-size="10.00">View.MenuTemplate</text>
</a>
</g>
</g>
<!-- Node1&#45;&gt;Node4 -->
<g id="edge3" class="edge"><title>Node1&#45;&gt;Node4</title>
<path fill="none" stroke="midnightblue" d="M287.314,-106.101C299.912,-96.3824 315.928,-84.0269 326.549,-75.8339"/>
<polygon fill="midnightblue" stroke="midnightblue" points="285.027,-103.445 279.247,-112.324 289.302,-108.987 285.027,-103.445"/>
</g>
<!-- Node5 -->
<g id="node5" class="node"><title>Node5</title>
<g id="a_node5"><a xlink:href="../../db/dce/class_view_1_1_scrolling_bar.html" target="_top" xlink:title="View.ScrollingBar">
<polygon fill="white" stroke="black" points="411,-56.5 411,-75.5 509,-75.5 509,-56.5 411,-56.5"/>
<text text-anchor="middle" x="460" y="-63.5" font-family="Helvetica,sans-Serif" font-size="10.00">View.ScrollingBar</text>
</a>
</g>
</g>
<!-- Node1&#45;&gt;Node5 -->
<g id="edge4" class="edge"><title>Node1&#45;&gt;Node5</title>
<path fill="none" stroke="midnightblue" d="M308.183,-109.699C344.419,-99.507 396.914,-84.7429 429.719,-75.5164"/>
<polygon fill="midnightblue" stroke="midnightblue" points="307.102,-106.367 298.423,-112.444 308.997,-113.105 307.102,-106.367"/>
</g>
<!-- Node6 -->
<g id="node6" class="node"><title>Node6</title>
<g id="a_node6"><a xlink:href="../../d0/d93/class_view_1_1_pen_scrolling_bar.html" target="_top" xlink:title="View.PenScrollingBar">
<polygon fill="white" stroke="black" points="402,-0.5 402,-19.5 518,-19.5 518,-0.5 402,-0.5"/>
<text text-anchor="middle" x="460" y="-7.5" font-family="Helvetica,sans-Serif" font-size="10.00">View.PenScrollingBar</text>
</a>
</g>
</g>
<!-- Node5&#45;&gt;Node6 -->
<g id="edge5" class="edge"><title>Node5&#45;&gt;Node6</title>
<path fill="none" stroke="midnightblue" d="M460,-45.8045C460,-36.9102 460,-26.7798 460,-19.7511"/>
<polygon fill="midnightblue" stroke="midnightblue" points="456.5,-46.083 460,-56.083 463.5,-46.083 456.5,-46.083"/>
</g>
</g>
</svg>
