<?xml version="1.0" encoding="UTF-8" standalone="no"?>
<!DOCTYPE svg PUBLIC "-//W3C//DTD SVG 1.1//EN"
 "http://www.w3.org/Graphics/SVG/1.1/DTD/svg11.dtd">
<!-- Generated by graphviz version 2.36.0 (20140111.2315)
 -->
<!-- Title: commands.BaseCommand.splitByInnerListCommand Pages: 1 -->
<svg width="394pt" height="87pt"
 viewBox="0.00 0.00 394.00 87.00" xmlns="http://www.w3.org/2000/svg" xmlns:xlink="http://www.w3.org/1999/xlink">
<g id="graph0" class="graph" transform="scale(1 1) rotate(0) translate(4 83)">
<title>commands.BaseCommand.splitByInnerListCommand</title>
<polygon fill="white" stroke="none" points="-4,4 -4,-83 390,-83 390,4 -4,4"/>
<!-- Node1 -->
<g id="node1" class="node"><title>Node1</title>
<polygon fill="#bfbfbf" stroke="black" points="0,-24 0,-54 170,-54 170,-24 0,-24"/>
<text text-anchor="start" x="8" y="-42" font-family="Helvetica,sans-Serif" font-size="10.00">commands.BaseCommand.split</text>
<text text-anchor="middle" x="85" y="-31" font-family="Helvetica,sans-Serif" font-size="10.00">ByInnerListCommand</text>
</g>
<!-- Node2 -->
<g id="node2" class="node"><title>Node2</title>
<g id="a_node2"><a xlink:href="../../da/d90/classcommands_1_1_base_command.html#a648d67ef5324973db4c43d78d98ec837" target="_top" xlink:title="commands.BaseCommand.find\lIndexOfInnerListCommandEnd">
<polygon fill="white" stroke="black" points="212,-49 212,-79 380,-79 380,-49 212,-49"/>
<text text-anchor="start" x="220" y="-67" font-family="Helvetica,sans-Serif" font-size="10.00">commands.BaseCommand.find</text>
<text text-anchor="middle" x="296" y="-56" font-family="Helvetica,sans-Serif" font-size="10.00">IndexOfInnerListCommandEnd</text>
</a>
</g>
</g>
<!-- Node1&#45;&gt;Node2 -->
<g id="edge1" class="edge"><title>Node1&#45;&gt;Node2</title>
<path fill="none" stroke="midnightblue" d="M170.105,-49.0604C180.506,-50.3045 191.187,-51.5822 201.715,-52.8415"/>
<polygon fill="midnightblue" stroke="midnightblue" points="201.402,-56.329 211.747,-54.0415 202.234,-49.3785 201.402,-56.329"/>
</g>
<!-- Node3 -->
<g id="node3" class="node"><title>Node3</title>
<g id="a_node3"><a xlink:href="../../da/d90/classcommands_1_1_base_command.html#a74b2695b6b57512dca66f288feb02aee" target="_top" xlink:title="commands.BaseCommand.starts\lWithCommandStartIndicator">
<polygon fill="white" stroke="black" points="206.5,-0 206.5,-30 385.5,-30 385.5,-0 206.5,-0"/>
<text text-anchor="start" x="214.5" y="-18" font-family="Helvetica,sans-Serif" font-size="10.00">commands.BaseCommand.starts</text>
<text text-anchor="middle" x="296" y="-7" font-family="Helvetica,sans-Serif" font-size="10.00">WithCommandStartIndicator</text>
</a>
</g>
</g>
<!-- Node1&#45;&gt;Node3 -->
<g id="edge2" class="edge"><title>Node1&#45;&gt;Node3</title>
<path fill="none" stroke="midnightblue" d="M170.105,-29.342C178.665,-28.359 187.416,-27.3542 196.114,-26.3554"/>
<polygon fill="midnightblue" stroke="midnightblue" points="196.751,-29.8053 206.286,-25.1872 195.952,-22.851 196.751,-29.8053"/>
</g>
</g>
</svg>
