<?xml version="1.0" encoding="UTF-8" standalone="no"?>
<!DOCTYPE svg PUBLIC "-//W3C//DTD SVG 1.1//EN"
 "http://www.w3.org/Graphics/SVG/1.1/DTD/svg11.dtd">
<!-- Generated by graphviz version 2.36.0 (20140111.2315)
 -->
<!-- Title: commands.BaseCommand.startsWithCommandStartIndicator Pages: 1 -->
<!--zoomable 430 -->
<svg id="main" version="1.1" xmlns="http://www.w3.org/2000/svg" xmlns:xlink="http://www.w3.org/1999/xlink" xml:space="preserve" onload="init(evt)">
<style type="text/css"><![CDATA[
.edge:hover path { stroke: red; }
.edge:hover polygon { stroke: red; fill: red; }
]]></style>
<script type="text/javascript"><![CDATA[
var edges = document.getElementsByTagName('g');
if (edges && edges.length) {
  for (var i=0;i<edges.length;i++) {
    if (edges[i].id.substr(0,4)=='edge') {
      edges[i].setAttribute('class','edge');
    }
  }
}
]]></script>
        <defs>
                <circle id="rim" cx="0" cy="0" r="7"/>
                <circle id="rim2" cx="0" cy="0" r="3.5"/>
                <g id="zoomPlus">
                        <use xlink:href="#rim" fill="#404040">
                                <set attributeName="fill" to="#808080" begin="zoomplus.mouseover" end="zoomplus.mouseout"/>
                        </use>
                        <path d="M-4,0h8M0,-4v8" fill="none" stroke="white" stroke-width="1.5" pointer-events="none"/>
                </g>
                <g id="zoomMin">
                        <use xlink:href="#rim" fill="#404040">
                                <set attributeName="fill" to="#808080" begin="zoomminus.mouseover" end="zoomminus.mouseout"/>
                        </use>
                        <path d="M-4,0h8" fill="none" stroke="white" stroke-width="1.5" pointer-events="none"/>
                </g>
                <g id="dirArrow">
                        <path fill="none" stroke="white" stroke-width="1.5" d="M0,-3.0v7 M-2.5,-0.5L0,-3.0L2.5,-0.5"/>
                </g>
               <g id="resetDef">
                       <use xlink:href="#rim2" fill="#404040">
                               <set attributeName="fill" to="#808080" begin="reset.mouseover" end="reset.mouseout"/>
                       </use>
               </g>
        </defs>

<script type="text/javascript">
var viewWidth = 618;
var viewHeight = 430;
var sectionId = 'dynsection-17';
</script>
<script xlink:href="../../svgpan.js"/>
<svg id="graph" class="graph">
<g id="viewport">
<title>commands.BaseCommand.startsWithCommandStartIndicator</title>
<polygon fill="white" stroke="none" points="-4,4 -4,-426 614,-426 614,4 -4,4"/>
<!-- Node1 -->
<g id="node1" class="node"><title>Node1</title>
<polygon fill="#bfbfbf" stroke="black" points="0.5,-196 0.5,-226 179.5,-226 179.5,-196 0.5,-196"/>
<text text-anchor="start" x="8.5" y="-214" font-family="Helvetica,sans-Serif" font-size="10.00">commands.BaseCommand.starts</text>
<text text-anchor="middle" x="90" y="-203" font-family="Helvetica,sans-Serif" font-size="10.00">WithCommandStartIndicator</text>
</g>
<!-- Node2 -->
<g id="node2" class="node"><title>Node2</title>
<g id="a_node2"><a xlink:href="../../da/d90/classcommands_1_1_base_command.html#a5c580fafaf7ac4ab165e666af08645c7" target="_top" xlink:title="commands.BaseCommand.split\lByInnerListCommand">
<polygon fill="white" stroke="black" points="216,-196 216,-226 386,-226 386,-196 216,-196"/>
<text text-anchor="start" x="224" y="-214" font-family="Helvetica,sans-Serif" font-size="10.00">commands.BaseCommand.split</text>
<text text-anchor="middle" x="301" y="-203" font-family="Helvetica,sans-Serif" font-size="10.00">ByInnerListCommand</text>
</a>
</g>
</g>
<!-- Node1&#45;&gt;Node2 -->
<g id="edge1" class="edge"><title>Node1&#45;&gt;Node2</title>
<path fill="none" stroke="midnightblue" d="M189.826,-211C198.541,-211 207.309,-211 215.886,-211"/>
<polygon fill="midnightblue" stroke="midnightblue" points="189.635,-207.5 179.635,-211 189.635,-214.5 189.635,-207.5"/>
</g>
<!-- Node3 -->
<g id="node3" class="node"><title>Node3</title>
<g id="a_node3"><a xlink:href="../../d3/d71/classcommands_1_1turtle_commands_1_1_tell_command.html#a47570a60c12af864e1bcb2d78f93b0e6" target="_top" xlink:title="commands.turtleCommands.\lTellCommand.parseArguments">
<polygon fill="white" stroke="black" points="434,-392 434,-422 598,-422 598,-392 434,-392"/>
<text text-anchor="start" x="442" y="-410" font-family="Helvetica,sans-Serif" font-size="10.00">commands.turtleCommands.</text>
<text text-anchor="middle" x="516" y="-399" font-family="Helvetica,sans-Serif" font-size="10.00">TellCommand.parseArguments</text>
</a>
</g>
</g>
<!-- Node2&#45;&gt;Node3 -->
<g id="edge2" class="edge"><title>Node2&#45;&gt;Node3</title>
<path fill="none" stroke="midnightblue" d="M312.406,-235.416C329.615,-272.807 367.588,-343.91 422,-382 427.479,-385.835 433.516,-389.082 439.803,-391.831"/>
<polygon fill="midnightblue" stroke="midnightblue" points="315.58,-233.94 308.294,-226.248 309.193,-236.805 315.58,-233.94"/>
</g>
<!-- Node4 -->
<g id="node4" class="node"><title>Node4</title>
<g id="a_node4"><a xlink:href="../../d5/d06/classcommands_1_1turtle_commands_1_1_ask_with_command.html#a029effffc85db053f01578100b217277" target="_top" xlink:title="commands.turtleCommands.\lAskWithCommand.parseArguments">
<polygon fill="white" stroke="black" points="422,-343 422,-373 610,-373 610,-343 422,-343"/>
<text text-anchor="start" x="430" y="-361" font-family="Helvetica,sans-Serif" font-size="10.00">commands.turtleCommands.</text>
<text text-anchor="middle" x="516" y="-350" font-family="Helvetica,sans-Serif" font-size="10.00">AskWithCommand.parseArguments</text>
</a>
</g>
</g>
<!-- Node2&#45;&gt;Node4 -->
<g id="edge3" class="edge"><title>Node2&#45;&gt;Node4</title>
<path fill="none" stroke="midnightblue" d="M318.893,-234.613C339.936,-262.293 378.468,-307.603 422,-333 428.643,-336.876 435.901,-340.166 443.339,-342.955"/>
<polygon fill="midnightblue" stroke="midnightblue" points="321.473,-232.219 312.691,-226.293 315.861,-236.403 321.473,-232.219"/>
</g>
<!-- Node5 -->
<g id="node5" class="node"><title>Node5</title>
<g id="a_node5"><a xlink:href="../../d8/d8f/classcommands_1_1control_commands_1_1_if_else_command.html#af61bb6d692316678e62020460584c4c7" target="_top" xlink:title="commands.controlCommands.\lIfElseCommand.parseArguments">
<polygon fill="white" stroke="black" points="428.5,-294 428.5,-324 603.5,-324 603.5,-294 428.5,-294"/>
<text text-anchor="start" x="436.5" y="-312" font-family="Helvetica,sans-Serif" font-size="10.00">commands.controlCommands.</text>
<text text-anchor="middle" x="516" y="-301" font-family="Helvetica,sans-Serif" font-size="10.00">IfElseCommand.parseArguments</text>
</a>
</g>
</g>
<!-- Node2&#45;&gt;Node5 -->
<g id="edge4" class="edge"><title>Node2&#45;&gt;Node5</title>
<path fill="none" stroke="midnightblue" d="M331.15,-231.987C354.698,-248.121 389.202,-269.956 422,-284 430.761,-287.751 440.23,-291.071 449.66,-293.966"/>
<polygon fill="midnightblue" stroke="midnightblue" points="332.898,-228.94 322.688,-226.111 328.905,-234.69 332.898,-228.94"/>
</g>
<!-- Node6 -->
<g id="node6" class="node"><title>Node6</title>
<g id="a_node6"><a xlink:href="../../d5/d60/classcommands_1_1control_commands_1_1_if_command.html#a4d9ab694dc7cdbbc0971140e8be016f5" target="_top" xlink:title="commands.controlCommands.\lIfCommand.parseArguments">
<polygon fill="white" stroke="black" points="433.5,-245 433.5,-275 598.5,-275 598.5,-245 433.5,-245"/>
<text text-anchor="start" x="441.5" y="-263" font-family="Helvetica,sans-Serif" font-size="10.00">commands.controlCommands.</text>
<text text-anchor="middle" x="516" y="-252" font-family="Helvetica,sans-Serif" font-size="10.00">IfCommand.parseArguments</text>
</a>
</g>
</g>
<!-- Node2&#45;&gt;Node6 -->
<g id="edge5" class="edge"><title>Node2&#45;&gt;Node6</title>
<path fill="none" stroke="midnightblue" d="M377.337,-228.331C400.985,-233.771 426.881,-239.729 449.769,-244.994"/>
<polygon fill="midnightblue" stroke="midnightblue" points="377.885,-224.866 367.355,-226.035 376.315,-231.688 377.885,-224.866"/>
</g>
<!-- Node7 -->
<g id="node7" class="node"><title>Node7</title>
<g id="a_node7"><a xlink:href="../../d6/de1/classcommands_1_1turtle_commands_1_1_ask_command.html#a2444c2d94060a5150ea6023855af37c3" target="_top" xlink:title="commands.turtleCommands.\lAskCommand.parseArguments">
<polygon fill="white" stroke="black" points="432.5,-196 432.5,-226 599.5,-226 599.5,-196 432.5,-196"/>
<text text-anchor="start" x="440.5" y="-214" font-family="Helvetica,sans-Serif" font-size="10.00">commands.turtleCommands.</text>
<text text-anchor="middle" x="516" y="-203" font-family="Helvetica,sans-Serif" font-size="10.00">AskCommand.parseArguments</text>
</a>
</g>
</g>
<!-- Node2&#45;&gt;Node7 -->
<g id="edge6" class="edge"><title>Node2&#45;&gt;Node7</title>
<path fill="none" stroke="midnightblue" d="M396.258,-211C408.327,-211 420.609,-211 432.472,-211"/>
<polygon fill="midnightblue" stroke="midnightblue" points="396.183,-207.5 386.183,-211 396.183,-214.5 396.183,-207.5"/>
</g>
<!-- Node8 -->
<g id="node8" class="node"><title>Node8</title>
<g id="a_node8"><a xlink:href="../../d0/da1/classcommands_1_1control_commands_1_1_repeat_command.html#ae6dbc20e79fd78a43f32d40dc13a1138" target="_top" xlink:title="commands.controlCommands.\lRepeatCommand.parseArguments">
<polygon fill="white" stroke="black" points="424.5,-147 424.5,-177 607.5,-177 607.5,-147 424.5,-147"/>
<text text-anchor="start" x="432.5" y="-165" font-family="Helvetica,sans-Serif" font-size="10.00">commands.controlCommands.</text>
<text text-anchor="middle" x="516" y="-154" font-family="Helvetica,sans-Serif" font-size="10.00">RepeatCommand.parseArguments</text>
</a>
</g>
</g>
<!-- Node2&#45;&gt;Node8 -->
<g id="edge7" class="edge"><title>Node2&#45;&gt;Node8</title>
<path fill="none" stroke="midnightblue" d="M377.337,-193.669C400.985,-188.229 426.881,-182.271 449.769,-177.006"/>
<polygon fill="midnightblue" stroke="midnightblue" points="376.315,-190.312 367.355,-195.965 377.885,-197.134 376.315,-190.312"/>
</g>
<!-- Node9 -->
<g id="node9" class="node"><title>Node9</title>
<g id="a_node9"><a xlink:href="../../d9/d3f/classcommands_1_1control_commands_1_1_to_command.html#adee54ca4267f45fe551c798ba4994e76" target="_top" xlink:title="commands.controlCommands.\lToCommand.parseArguments">
<polygon fill="white" stroke="black" points="433.5,-98 433.5,-128 598.5,-128 598.5,-98 433.5,-98"/>
<text text-anchor="start" x="441.5" y="-116" font-family="Helvetica,sans-Serif" font-size="10.00">commands.controlCommands.</text>
<text text-anchor="middle" x="516" y="-105" font-family="Helvetica,sans-Serif" font-size="10.00">ToCommand.parseArguments</text>
</a>
</g>
</g>
<!-- Node2&#45;&gt;Node9 -->
<g id="edge8" class="edge"><title>Node2&#45;&gt;Node9</title>
<path fill="none" stroke="midnightblue" d="M331.15,-190.013C354.698,-173.879 389.202,-152.044 422,-138 430.761,-134.249 440.23,-130.929 449.66,-128.034"/>
<polygon fill="midnightblue" stroke="midnightblue" points="328.905,-187.31 322.688,-195.889 332.898,-193.06 328.905,-187.31"/>
</g>
<!-- Node10 -->
<g id="node10" class="node"><title>Node10</title>
<g id="a_node10"><a xlink:href="../../da/dbb/classcommands_1_1control_commands_1_1_for_command.html#a359b77a781005265de850213bf449fe8" target="_top" xlink:title="commands.controlCommands.\lForCommand.parseArguments">
<polygon fill="white" stroke="black" points="433.5,-49 433.5,-79 598.5,-79 598.5,-49 433.5,-49"/>
<text text-anchor="start" x="441.5" y="-67" font-family="Helvetica,sans-Serif" font-size="10.00">commands.controlCommands.</text>
<text text-anchor="middle" x="516" y="-56" font-family="Helvetica,sans-Serif" font-size="10.00">ForCommand.parseArguments</text>
</a>
</g>
</g>
<!-- Node2&#45;&gt;Node10 -->
<g id="edge9" class="edge"><title>Node2&#45;&gt;Node10</title>
<path fill="none" stroke="midnightblue" d="M318.893,-187.387C339.936,-159.707 378.468,-114.397 422,-89 428.643,-85.1244 435.901,-81.8345 443.339,-79.0448"/>
<polygon fill="midnightblue" stroke="midnightblue" points="315.861,-185.597 312.691,-195.707 321.473,-189.781 315.861,-185.597"/>
</g>
<!-- Node11 -->
<g id="node11" class="node"><title>Node11</title>
<g id="a_node11"><a xlink:href="../../d8/d84/classcommands_1_1control_commands_1_1_do_command.html#a3c4cccaf04e512414f97f09496d2e910" target="_top" xlink:title="commands.controlCommands.\lDoCommand.parseArguments">
<polygon fill="white" stroke="black" points="433.5,-0 433.5,-30 598.5,-30 598.5,-0 433.5,-0"/>
<text text-anchor="start" x="441.5" y="-18" font-family="Helvetica,sans-Serif" font-size="10.00">commands.controlCommands.</text>
<text text-anchor="middle" x="516" y="-7" font-family="Helvetica,sans-Serif" font-size="10.00">DoCommand.parseArguments</text>
</a>
</g>
</g>
<!-- Node2&#45;&gt;Node11 -->
<g id="edge10" class="edge"><title>Node2&#45;&gt;Node11</title>
<path fill="none" stroke="midnightblue" d="M312.406,-186.584C329.615,-149.193 367.588,-78.0905 422,-40 427.479,-36.1648 433.516,-32.9177 439.803,-30.1686"/>
<polygon fill="midnightblue" stroke="midnightblue" points="309.193,-185.195 308.294,-195.752 315.58,-188.06 309.193,-185.195"/>
</g>
</g>
</svg>
        <g id="navigator" transform="translate(0 0)" fill="#404254">
                <rect fill="#f2f5e9" fill-opacity="0.5" stroke="#606060" stroke-width=".5" x="0" y="0" width="60" height="60"/>
                <use id="zoomplus" xlink:href="#zoomPlus" x="17" y="9" onmousedown="handleZoom(evt,'in')"/>
                <use id="zoomminus" xlink:href="#zoomMin" x="42" y="9" onmousedown="handleZoom(evt,'out')"/>
                <use id="reset" xlink:href="#resetDef" x="30" y="36" onmousedown="handleReset()"/>
                <g id="arrowUp" xlink:href="#dirArrow" transform="translate(30 24)" onmousedown="handlePan(0,-1)">
                  <use xlink:href="#rim" fill="#404040">
                        <set attributeName="fill" to="#808080" begin="arrowUp.mouseover" end="arrowUp.mouseout"/>
                  </use>
                  <path fill="none" stroke="white" stroke-width="1.5" d="M0,-3.0v7 M-2.5,-0.5L0,-3.0L2.5,-0.5"/>
                </g>
                <g id="arrowRight" xlink:href="#dirArrow" transform="rotate(90) translate(36 -43)" onmousedown="handlePan(1,0)">
                  <use xlink:href="#rim" fill="#404040">
                        <set attributeName="fill" to="#808080" begin="arrowRight.mouseover" end="arrowRight.mouseout"/>
                  </use>
                  <path fill="none" stroke="white" stroke-width="1.5" d="M0,-3.0v7 M-2.5,-0.5L0,-3.0L2.5,-0.5"/>
                </g>
                <g id="arrowDown" xlink:href="#dirArrow" transform="rotate(180) translate(-30 -48)" onmousedown="handlePan(0,1)">
                  <use xlink:href="#rim" fill="#404040">
                        <set attributeName="fill" to="#808080" begin="arrowDown.mouseover" end="arrowDown.mouseout"/>
                  </use>
                  <path fill="none" stroke="white" stroke-width="1.5" d="M0,-3.0v7 M-2.5,-0.5L0,-3.0L2.5,-0.5"/>
                </g>
                <g id="arrowLeft" xlink:href="#dirArrow" transform="rotate(270) translate(-36 17)" onmousedown="handlePan(-1,0)">
                  <use xlink:href="#rim" fill="#404040">
                        <set attributeName="fill" to="#808080" begin="arrowLeft.mouseover" end="arrowLeft.mouseout"/>
                  </use>
                  <path fill="none" stroke="white" stroke-width="1.5" d="M0,-3.0v7 M-2.5,-0.5L0,-3.0L2.5,-0.5"/>
                </g>
        </g>
        <svg viewBox="0 0 15 15" width="100%" height="30px" preserveAspectRatio="xMaxYMin meet">
         <g id="arrow_out" transform="scale(0.3 0.3)">
          <a xlink:href="classcommands_1_1_base_command_a74b2695b6b57512dca66f288feb02aee_icgraph_org.svg" target="_base">
           <rect id="button" ry="5" rx="5" y="6" x="6" height="38" width="38"
                fill="#f2f5e9" fill-opacity="0.5" stroke="#606060" stroke-width="1.0"/>
           <path id="arrow"
             d="M 11.500037,31.436501 C 11.940474,20.09759 22.043105,11.32322 32.158766,21.979434 L 37.068811,17.246167 C 37.068811,17.246167 37.088388,32 37.088388,32 L 22.160133,31.978069 C 22.160133,31.978069 26.997745,27.140456 26.997745,27.140456 C 18.528582,18.264221 13.291696,25.230495 11.500037,31.436501 z"
             style="fill:#404040;"/>
          </a>
         </g>
        </svg>
</svg>
