<?xml version="1.0" encoding="UTF-8" standalone="no"?>
<!DOCTYPE svg PUBLIC "-//W3C//DTD SVG 1.1//EN"
 "http://www.w3.org/Graphics/SVG/1.1/DTD/svg11.dtd">
<!-- Generated by graphviz version 2.36.0 (20140111.2315)
 -->
<!-- Title: commands.BaseCommand.setLeftoverCommands Pages: 1 -->
<!--zoomable 871 -->
<svg id="main" version="1.1" xmlns="http://www.w3.org/2000/svg" xmlns:xlink="http://www.w3.org/1999/xlink" xml:space="preserve" onload="init(evt)">
<style type="text/css"><![CDATA[
.edge:hover path { stroke: red; }
.edge:hover polygon { stroke: red; fill: red; }
]]></style>
<script type="text/javascript"><![CDATA[
var edges = document.getElementsByTagName('g');
if (edges && edges.length) {
  for (var i=0;i<edges.length;i++) {
    if (edges[i].id.substr(0,4)=='edge') {
      edges[i].setAttribute('class','edge');
    }
  }
}
]]></script>
        <defs>
                <circle id="rim" cx="0" cy="0" r="7"/>
                <circle id="rim2" cx="0" cy="0" r="3.5"/>
                <g id="zoomPlus">
                        <use xlink:href="#rim" fill="#404040">
                                <set attributeName="fill" to="#808080" begin="zoomplus.mouseover" end="zoomplus.mouseout"/>
                        </use>
                        <path d="M-4,0h8M0,-4v8" fill="none" stroke="white" stroke-width="1.5" pointer-events="none"/>
                </g>
                <g id="zoomMin">
                        <use xlink:href="#rim" fill="#404040">
                                <set attributeName="fill" to="#808080" begin="zoomminus.mouseover" end="zoomminus.mouseout"/>
                        </use>
                        <path d="M-4,0h8" fill="none" stroke="white" stroke-width="1.5" pointer-events="none"/>
                </g>
                <g id="dirArrow">
                        <path fill="none" stroke="white" stroke-width="1.5" d="M0,-3.0v7 M-2.5,-0.5L0,-3.0L2.5,-0.5"/>
                </g>
               <g id="resetDef">
                       <use xlink:href="#rim2" fill="#404040">
                               <set attributeName="fill" to="#808080" begin="reset.mouseover" end="reset.mouseout"/>
                       </use>
               </g>
        </defs>

<script type="text/javascript">
var viewWidth = 416;
var viewHeight = 871;
var sectionId = 'dynsection-13';
</script>
<script xlink:href="../../svgpan.js"/>
<svg id="graph" class="graph">
<g id="viewport">
<title>commands.BaseCommand.setLeftoverCommands</title>
<polygon fill="white" stroke="none" points="-4,4 -4,-867 412,-867 412,4 -4,4"/>
<!-- Node1 -->
<g id="node1" class="node"><title>Node1</title>
<polygon fill="#bfbfbf" stroke="black" points="0,-416 0,-446 166,-446 166,-416 0,-416"/>
<text text-anchor="start" x="8" y="-434" font-family="Helvetica,sans-Serif" font-size="10.00">commands.BaseCommand.set</text>
<text text-anchor="middle" x="83" y="-423" font-family="Helvetica,sans-Serif" font-size="10.00">LeftoverCommands</text>
</g>
<!-- Node2 -->
<g id="node2" class="node"><title>Node2</title>
<g id="a_node2"><a xlink:href="../../d0/d90/classcommands_1_1_turtle_query.html#ad8599141ea226d54970bc04069f159ab" target="_top" xlink:title="commands.TurtleQuery.parse\lArguments">
<polygon fill="white" stroke="black" points="227,-833 227,-863 383,-863 383,-833 227,-833"/>
<text text-anchor="start" x="235" y="-851" font-family="Helvetica,sans-Serif" font-size="10.00">commands.TurtleQuery.parse</text>
<text text-anchor="middle" x="305" y="-840" font-family="Helvetica,sans-Serif" font-size="10.00">Arguments</text>
</a>
</g>
</g>
<!-- Node1&#45;&gt;Node2 -->
<g id="edge1" class="edge"><title>Node1&#45;&gt;Node2</title>
<path fill="none" stroke="midnightblue" d="M83.5803,-456.088C83.8591,-525.389 94.6024,-721.05 202,-823 209.074,-829.716 217.647,-834.716 226.782,-838.425"/>
<polygon fill="midnightblue" stroke="midnightblue" points="87.0802,-456.095 83.6122,-446.084 80.0802,-456.073 87.0802,-456.095"/>
</g>
<!-- Node3 -->
<g id="node3" class="node"><title>Node3</title>
<g id="a_node3"><a xlink:href="../../d1/de4/classcommands_1_1_view_query.html#a05018f25a24f9ebd467b9e8f7f173d42" target="_top" xlink:title="commands.ViewQuery.parse\lArguments">
<polygon fill="white" stroke="black" points="229,-784 229,-814 381,-814 381,-784 229,-784"/>
<text text-anchor="start" x="237" y="-802" font-family="Helvetica,sans-Serif" font-size="10.00">commands.ViewQuery.parse</text>
<text text-anchor="middle" x="305" y="-791" font-family="Helvetica,sans-Serif" font-size="10.00">Arguments</text>
</a>
</g>
</g>
<!-- Node1&#45;&gt;Node3 -->
<g id="edge2" class="edge"><title>Node1&#45;&gt;Node3</title>
<path fill="none" stroke="midnightblue" d="M84.8469,-456.322C88.3968,-519.847 106.794,-687.084 202,-774 209.675,-781.007 218.989,-786.133 228.832,-789.868"/>
<polygon fill="midnightblue" stroke="midnightblue" points="88.329,-455.862 84.3546,-446.041 81.337,-456.197 88.329,-455.862"/>
</g>
<!-- Node4 -->
<g id="node4" class="node"><title>Node4</title>
<g id="a_node4"><a xlink:href="../../d3/d71/classcommands_1_1turtle_commands_1_1_tell_command.html#a47570a60c12af864e1bcb2d78f93b0e6" target="_top" xlink:title="commands.turtleCommands.\lTellCommand.parseArguments">
<polygon fill="white" stroke="black" points="223,-735 223,-765 387,-765 387,-735 223,-735"/>
<text text-anchor="start" x="231" y="-753" font-family="Helvetica,sans-Serif" font-size="10.00">commands.turtleCommands.</text>
<text text-anchor="middle" x="305" y="-742" font-family="Helvetica,sans-Serif" font-size="10.00">TellCommand.parseArguments</text>
</a>
</g>
</g>
<!-- Node1&#45;&gt;Node4 -->
<g id="edge3" class="edge"><title>Node1&#45;&gt;Node4</title>
<path fill="none" stroke="midnightblue" d="M86.4823,-456.21C93.4873,-513.218 118.684,-652.698 202,-725 208.197,-730.377 215.366,-734.637 222.976,-738.005"/>
<polygon fill="midnightblue" stroke="midnightblue" points="89.9575,-455.793 85.344,-446.255 83.0029,-456.588 89.9575,-455.793"/>
</g>
<!-- Node5 -->
<g id="node5" class="node"><title>Node5</title>
<g id="a_node5"><a xlink:href="../../d7/d61/classcommands_1_1_numerical_command.html#a22ee70bc99218b5d8f022dcc0dc60a73" target="_top" xlink:title="commands.NumericalCommand.parse\lArguments">
<polygon fill="white" stroke="black" points="203.5,-686 203.5,-716 406.5,-716 406.5,-686 203.5,-686"/>
<text text-anchor="start" x="211.5" y="-704" font-family="Helvetica,sans-Serif" font-size="10.00">commands.NumericalCommand.parse</text>
<text text-anchor="middle" x="305" y="-693" font-family="Helvetica,sans-Serif" font-size="10.00">Arguments</text>
</a>
</g>
</g>
<!-- Node1&#45;&gt;Node5 -->
<g id="edge4" class="edge"><title>Node1&#45;&gt;Node5</title>
<path fill="none" stroke="midnightblue" d="M88.6952,-456.091C99.3951,-506.016 130.417,-617.977 202,-676 206.674,-679.789 211.838,-683.016 217.288,-685.764"/>
<polygon fill="midnightblue" stroke="midnightblue" points="92.0945,-455.244 86.6601,-446.149 85.2367,-456.648 92.0945,-455.244"/>
</g>
<!-- Node6 -->
<g id="node6" class="node"><title>Node6</title>
<g id="a_node6"><a xlink:href="../../de/d2a/classcommands_1_1variable_commands_1_1_get_variable_command.html#a68969ce445f837a89086ccd1b267c3c2" target="_top" xlink:title="commands.variableCommands.\lGetVariableCommand.parseArguments">
<polygon fill="white" stroke="black" points="202,-637 202,-667 408,-667 408,-637 202,-637"/>
<text text-anchor="start" x="210" y="-655" font-family="Helvetica,sans-Serif" font-size="10.00">commands.variableCommands.</text>
<text text-anchor="middle" x="305" y="-644" font-family="Helvetica,sans-Serif" font-size="10.00">GetVariableCommand.parseArguments</text>
</a>
</g>
</g>
<!-- Node1&#45;&gt;Node6 -->
<g id="edge5" class="edge"><title>Node1&#45;&gt;Node6</title>
<path fill="none" stroke="midnightblue" d="M91.8113,-455.728C106.393,-497.721 141.848,-582.715 202,-627 207.286,-630.891 213.102,-634.183 219.195,-636.966"/>
<polygon fill="midnightblue" stroke="midnightblue" points="95.0551,-454.393 88.5515,-446.029 88.4198,-456.623 95.0551,-454.393"/>
</g>
<!-- Node7 -->
<g id="node7" class="node"><title>Node7</title>
<g id="a_node7"><a xlink:href="../../d5/d06/classcommands_1_1turtle_commands_1_1_ask_with_command.html#a029effffc85db053f01578100b217277" target="_top" xlink:title="commands.turtleCommands.\lAskWithCommand.parseArguments">
<polygon fill="white" stroke="black" points="211,-588 211,-618 399,-618 399,-588 211,-588"/>
<text text-anchor="start" x="219" y="-606" font-family="Helvetica,sans-Serif" font-size="10.00">commands.turtleCommands.</text>
<text text-anchor="middle" x="305" y="-595" font-family="Helvetica,sans-Serif" font-size="10.00">AskWithCommand.parseArguments</text>
</a>
</g>
</g>
<!-- Node1&#45;&gt;Node7 -->
<g id="edge6" class="edge"><title>Node1&#45;&gt;Node7</title>
<path fill="none" stroke="midnightblue" d="M96.6691,-455.194C115.237,-488.197 153.018,-546.785 202,-578 208.073,-581.87 214.701,-585.142 221.567,-587.906"/>
<polygon fill="midnightblue" stroke="midnightblue" points="99.6217,-453.3 91.7397,-446.22 93.4863,-456.67 99.6217,-453.3"/>
</g>
<!-- Node8 -->
<g id="node8" class="node"><title>Node8</title>
<g id="a_node8"><a xlink:href="../../d0/de5/classcommands_1_1variable_commands_1_1_set_variable_command.html#a06a93972ef1a48d878d18262c1b59df0" target="_top" xlink:title="commands.variableCommands.\lSetVariableCommand.parseArguments">
<polygon fill="white" stroke="black" points="202.5,-539 202.5,-569 407.5,-569 407.5,-539 202.5,-539"/>
<text text-anchor="start" x="210.5" y="-557" font-family="Helvetica,sans-Serif" font-size="10.00">commands.variableCommands.</text>
<text text-anchor="middle" x="305" y="-546" font-family="Helvetica,sans-Serif" font-size="10.00">SetVariableCommand.parseArguments</text>
</a>
</g>
</g>
<!-- Node1&#45;&gt;Node8 -->
<g id="edge7" class="edge"><title>Node1&#45;&gt;Node8</title>
<path fill="none" stroke="midnightblue" d="M104.864,-453.494C126.904,-475.914 163.707,-509.707 202,-529 209.653,-532.856 217.934,-536.138 226.354,-538.928"/>
<polygon fill="midnightblue" stroke="midnightblue" points="107.17,-450.843 97.7063,-446.081 102.134,-455.706 107.17,-450.843"/>
</g>
<!-- Node9 -->
<g id="node9" class="node"><title>Node9</title>
<g id="a_node9"><a xlink:href="../../d8/d8f/classcommands_1_1control_commands_1_1_if_else_command.html#af61bb6d692316678e62020460584c4c7" target="_top" xlink:title="commands.controlCommands.\lIfElseCommand.parseArguments">
<polygon fill="white" stroke="black" points="217.5,-490 217.5,-520 392.5,-520 392.5,-490 217.5,-490"/>
<text text-anchor="start" x="225.5" y="-508" font-family="Helvetica,sans-Serif" font-size="10.00">commands.controlCommands.</text>
<text text-anchor="middle" x="305" y="-497" font-family="Helvetica,sans-Serif" font-size="10.00">IfElseCommand.parseArguments</text>
</a>
</g>
</g>
<!-- Node1&#45;&gt;Node9 -->
<g id="edge8" class="edge"><title>Node1&#45;&gt;Node9</title>
<path fill="none" stroke="midnightblue" d="M125.736,-450.168C148.052,-459.947 176.181,-471.53 202,-480 213.001,-483.609 224.82,-486.965 236.375,-489.973"/>
<polygon fill="midnightblue" stroke="midnightblue" points="127.112,-446.95 116.551,-446.102 124.279,-453.351 127.112,-446.95"/>
</g>
<!-- Node10 -->
<g id="node10" class="node"><title>Node10</title>
<g id="a_node10"><a xlink:href="../../d5/d60/classcommands_1_1control_commands_1_1_if_command.html#a4d9ab694dc7cdbbc0971140e8be016f5" target="_top" xlink:title="commands.controlCommands.\lIfCommand.parseArguments">
<polygon fill="white" stroke="black" points="222.5,-441 222.5,-471 387.5,-471 387.5,-441 222.5,-441"/>
<text text-anchor="start" x="230.5" y="-459" font-family="Helvetica,sans-Serif" font-size="10.00">commands.controlCommands.</text>
<text text-anchor="middle" x="305" y="-448" font-family="Helvetica,sans-Serif" font-size="10.00">IfCommand.parseArguments</text>
</a>
</g>
</g>
<!-- Node1&#45;&gt;Node10 -->
<g id="edge9" class="edge"><title>Node1&#45;&gt;Node10</title>
<path fill="none" stroke="midnightblue" d="M176.195,-441.477C191.477,-443.213 207.231,-445.003 222.233,-446.708"/>
<polygon fill="midnightblue" stroke="midnightblue" points="176.564,-437.996 166.233,-440.345 175.774,-444.951 176.564,-437.996"/>
</g>
<!-- Node11 -->
<g id="node11" class="node"><title>Node11</title>
<g id="a_node11"><a xlink:href="../../dc/d85/classcommands_1_1expression_commands_1_1_expression_command.html#a9ffd4f1b02e5a4c89a2d7ae9f0ecce20" target="_top" xlink:title="commands.expressionCommands.\lExpressionCommand.parseArguments">
<polygon fill="white" stroke="black" points="204,-392 204,-422 406,-422 406,-392 204,-392"/>
<text text-anchor="start" x="212" y="-410" font-family="Helvetica,sans-Serif" font-size="10.00">commands.expressionCommands.</text>
<text text-anchor="middle" x="305" y="-399" font-family="Helvetica,sans-Serif" font-size="10.00">ExpressionCommand.parseArguments</text>
</a>
</g>
</g>
<!-- Node1&#45;&gt;Node11 -->
<g id="edge10" class="edge"><title>Node1&#45;&gt;Node11</title>
<path fill="none" stroke="midnightblue" d="M176.34,-420.927C185.366,-419.942 194.555,-418.939 203.654,-417.947"/>
<polygon fill="midnightblue" stroke="midnightblue" points="175.794,-417.465 166.233,-422.029 176.553,-424.424 175.794,-417.465"/>
</g>
<!-- Node12 -->
<g id="node12" class="node"><title>Node12</title>
<g id="a_node12"><a xlink:href="../../d6/de1/classcommands_1_1turtle_commands_1_1_ask_command.html#a2444c2d94060a5150ea6023855af37c3" target="_top" xlink:title="commands.turtleCommands.\lAskCommand.parseArguments">
<polygon fill="white" stroke="black" points="221.5,-343 221.5,-373 388.5,-373 388.5,-343 221.5,-343"/>
<text text-anchor="start" x="229.5" y="-361" font-family="Helvetica,sans-Serif" font-size="10.00">commands.turtleCommands.</text>
<text text-anchor="middle" x="305" y="-350" font-family="Helvetica,sans-Serif" font-size="10.00">AskCommand.parseArguments</text>
</a>
</g>
</g>
<!-- Node1&#45;&gt;Node12 -->
<g id="edge11" class="edge"><title>Node1&#45;&gt;Node12</title>
<path fill="none" stroke="midnightblue" d="M126.791,-411.832C148.951,-402.358 176.617,-391.225 202,-383 213.101,-379.403 225.026,-376.042 236.67,-373.024"/>
<polygon fill="midnightblue" stroke="midnightblue" points="125.133,-408.735 117.34,-415.914 127.909,-415.162 125.133,-408.735"/>
</g>
<!-- Node13 -->
<g id="node13" class="node"><title>Node13</title>
<g id="a_node13"><a xlink:href="../../d0/da1/classcommands_1_1control_commands_1_1_repeat_command.html#ae6dbc20e79fd78a43f32d40dc13a1138" target="_top" xlink:title="commands.controlCommands.\lRepeatCommand.parseArguments">
<polygon fill="white" stroke="black" points="213.5,-294 213.5,-324 396.5,-324 396.5,-294 213.5,-294"/>
<text text-anchor="start" x="221.5" y="-312" font-family="Helvetica,sans-Serif" font-size="10.00">commands.controlCommands.</text>
<text text-anchor="middle" x="305" y="-301" font-family="Helvetica,sans-Serif" font-size="10.00">RepeatCommand.parseArguments</text>
</a>
</g>
</g>
<!-- Node1&#45;&gt;Node13 -->
<g id="edge12" class="edge"><title>Node1&#45;&gt;Node13</title>
<path fill="none" stroke="midnightblue" d="M105.279,-408.373C127.395,-386.188 164.03,-353.011 202,-334 209.744,-330.123 218.126,-326.824 226.642,-324.021"/>
<polygon fill="midnightblue" stroke="midnightblue" points="102.58,-406.127 98.0839,-415.721 107.581,-411.025 102.58,-406.127"/>
</g>
<!-- Node14 -->
<g id="node14" class="node"><title>Node14</title>
<g id="a_node14"><a xlink:href="../../d9/d3f/classcommands_1_1control_commands_1_1_to_command.html#adee54ca4267f45fe551c798ba4994e76" target="_top" xlink:title="commands.controlCommands.\lToCommand.parseArguments">
<polygon fill="white" stroke="black" points="222.5,-245 222.5,-275 387.5,-275 387.5,-245 222.5,-245"/>
<text text-anchor="start" x="230.5" y="-263" font-family="Helvetica,sans-Serif" font-size="10.00">commands.controlCommands.</text>
<text text-anchor="middle" x="305" y="-252" font-family="Helvetica,sans-Serif" font-size="10.00">ToCommand.parseArguments</text>
</a>
</g>
</g>
<!-- Node1&#45;&gt;Node14 -->
<g id="edge13" class="edge"><title>Node1&#45;&gt;Node14</title>
<path fill="none" stroke="midnightblue" d="M96.7116,-406.971C115.33,-374.193 153.169,-316.004 202,-285 208.311,-280.993 215.216,-277.628 222.364,-274.803"/>
<polygon fill="midnightblue" stroke="midnightblue" points="93.5575,-405.442 91.7679,-415.884 99.679,-408.837 93.5575,-405.442"/>
</g>
<!-- Node15 -->
<g id="node15" class="node"><title>Node15</title>
<g id="a_node15"><a xlink:href="../../de/d53/classcommands_1_1_view_command.html#a1e474e7a346313f054613b90c4309481" target="_top" xlink:title="commands.ViewCommand.parse\lArguments">
<polygon fill="white" stroke="black" points="217,-196 217,-226 393,-226 393,-196 217,-196"/>
<text text-anchor="start" x="225" y="-214" font-family="Helvetica,sans-Serif" font-size="10.00">commands.ViewCommand.parse</text>
<text text-anchor="middle" x="305" y="-203" font-family="Helvetica,sans-Serif" font-size="10.00">Arguments</text>
</a>
</g>
</g>
<!-- Node1&#45;&gt;Node15 -->
<g id="edge14" class="edge"><title>Node1&#45;&gt;Node15</title>
<path fill="none" stroke="midnightblue" d="M91.9563,-406.089C106.66,-364.201 142.17,-279.943 202,-236 207.29,-232.115 213.109,-228.828 219.205,-226.047"/>
<polygon fill="midnightblue" stroke="midnightblue" points="88.5684,-405.18 88.6641,-415.775 95.1961,-407.433 88.5684,-405.18"/>
</g>
<!-- Node16 -->
<g id="node16" class="node"><title>Node16</title>
<g id="a_node16"><a xlink:href="../../da/dbb/classcommands_1_1control_commands_1_1_for_command.html#a359b77a781005265de850213bf449fe8" target="_top" xlink:title="commands.controlCommands.\lForCommand.parseArguments">
<polygon fill="white" stroke="black" points="222.5,-147 222.5,-177 387.5,-177 387.5,-147 222.5,-147"/>
<text text-anchor="start" x="230.5" y="-165" font-family="Helvetica,sans-Serif" font-size="10.00">commands.controlCommands.</text>
<text text-anchor="middle" x="305" y="-154" font-family="Helvetica,sans-Serif" font-size="10.00">ForCommand.parseArguments</text>
</a>
</g>
</g>
<!-- Node1&#45;&gt;Node16 -->
<g id="edge15" class="edge"><title>Node1&#45;&gt;Node16</title>
<path fill="none" stroke="midnightblue" d="M88.7275,-406.009C99.4858,-356.285 130.608,-244.774 202,-187 208.094,-182.068 215.019,-178.088 222.324,-174.878"/>
<polygon fill="midnightblue" stroke="midnightblue" points="85.2775,-405.41 86.6804,-415.912 92.1325,-406.827 85.2775,-405.41"/>
</g>
<!-- Node17 -->
<g id="node17" class="node"><title>Node17</title>
<g id="a_node17"><a xlink:href="../../d3/d03/classcommands_1_1turtle_commands_1_1_turtle_command.html#a6b24c81ea213ffbc89ea417f32011115" target="_top" xlink:title="commands.turtleCommands.\lTurtleCommand.parseArguments">
<polygon fill="white" stroke="black" points="217,-98 217,-128 393,-128 393,-98 217,-98"/>
<text text-anchor="start" x="225" y="-116" font-family="Helvetica,sans-Serif" font-size="10.00">commands.turtleCommands.</text>
<text text-anchor="middle" x="305" y="-105" font-family="Helvetica,sans-Serif" font-size="10.00">TurtleCommand.parseArguments</text>
</a>
</g>
</g>
<!-- Node1&#45;&gt;Node17 -->
<g id="edge16" class="edge"><title>Node1&#45;&gt;Node17</title>
<path fill="none" stroke="midnightblue" d="M86.555,-405.518C93.6801,-348.477 119.058,-209.892 202,-138 206.547,-134.059 211.616,-130.719 216.998,-127.89"/>
<polygon fill="midnightblue" stroke="midnightblue" points="83.0385,-405.459 85.3617,-415.796 89.9918,-406.266 83.0385,-405.459"/>
</g>
<!-- Node18 -->
<g id="node18" class="node"><title>Node18</title>
<g id="a_node18"><a xlink:href="../../d8/d84/classcommands_1_1control_commands_1_1_do_command.html#a3c4cccaf04e512414f97f09496d2e910" target="_top" xlink:title="commands.controlCommands.\lDoCommand.parseArguments">
<polygon fill="white" stroke="black" points="222.5,-49 222.5,-79 387.5,-79 387.5,-49 222.5,-49"/>
<text text-anchor="start" x="230.5" y="-67" font-family="Helvetica,sans-Serif" font-size="10.00">commands.controlCommands.</text>
<text text-anchor="middle" x="305" y="-56" font-family="Helvetica,sans-Serif" font-size="10.00">DoCommand.parseArguments</text>
</a>
</g>
</g>
<!-- Node1&#45;&gt;Node18 -->
<g id="edge17" class="edge"><title>Node1&#45;&gt;Node18</title>
<path fill="none" stroke="midnightblue" d="M84.8972,-405.31C88.5664,-341.638 107.222,-175.447 202,-89 207.994,-83.5324 214.987,-79.2103 222.449,-75.8006"/>
<polygon fill="midnightblue" stroke="midnightblue" points="81.3851,-405.47 84.3852,-415.631 88.3765,-405.817 81.3851,-405.47"/>
</g>
<!-- Node19 -->
<g id="node19" class="node"><title>Node19</title>
<g id="a_node19"><a xlink:href="../../de/de4/classcommands_1_1variable_commands_1_1_created_command.html#acf7905ec94096884e9024009b3398648" target="_top" xlink:title="commands.variableCommands.\lCreatedCommand.parseArguments">
<polygon fill="white" stroke="black" points="211,-0 211,-30 399,-30 399,-0 211,-0"/>
<text text-anchor="start" x="219" y="-18" font-family="Helvetica,sans-Serif" font-size="10.00">commands.variableCommands.</text>
<text text-anchor="middle" x="305" y="-7" font-family="Helvetica,sans-Serif" font-size="10.00">CreatedCommand.parseArguments</text>
</a>
</g>
</g>
<!-- Node1&#45;&gt;Node19 -->
<g id="edge18" class="edge"><title>Node1&#45;&gt;Node19</title>
<path fill="none" stroke="midnightblue" d="M83.6049,-405.546C83.9844,-336.043 95.0382,-141.464 202,-40 205.968,-36.2356 210.407,-33.0102 215.152,-30.2491"/>
<polygon fill="midnightblue" stroke="midnightblue" points="80.1056,-405.961 83.626,-415.954 87.1056,-405.946 80.1056,-405.961"/>
</g>
</g>
</svg>
        <g id="navigator" transform="translate(0 0)" fill="#404254">
                <rect fill="#f2f5e9" fill-opacity="0.5" stroke="#606060" stroke-width=".5" x="0" y="0" width="60" height="60"/>
                <use id="zoomplus" xlink:href="#zoomPlus" x="17" y="9" onmousedown="handleZoom(evt,'in')"/>
                <use id="zoomminus" xlink:href="#zoomMin" x="42" y="9" onmousedown="handleZoom(evt,'out')"/>
                <use id="reset" xlink:href="#resetDef" x="30" y="36" onmousedown="handleReset()"/>
                <g id="arrowUp" xlink:href="#dirArrow" transform="translate(30 24)" onmousedown="handlePan(0,-1)">
                  <use xlink:href="#rim" fill="#404040">
                        <set attributeName="fill" to="#808080" begin="arrowUp.mouseover" end="arrowUp.mouseout"/>
                  </use>
                  <path fill="none" stroke="white" stroke-width="1.5" d="M0,-3.0v7 M-2.5,-0.5L0,-3.0L2.5,-0.5"/>
                </g>
                <g id="arrowRight" xlink:href="#dirArrow" transform="rotate(90) translate(36 -43)" onmousedown="handlePan(1,0)">
                  <use xlink:href="#rim" fill="#404040">
                        <set attributeName="fill" to="#808080" begin="arrowRight.mouseover" end="arrowRight.mouseout"/>
                  </use>
                  <path fill="none" stroke="white" stroke-width="1.5" d="M0,-3.0v7 M-2.5,-0.5L0,-3.0L2.5,-0.5"/>
                </g>
                <g id="arrowDown" xlink:href="#dirArrow" transform="rotate(180) translate(-30 -48)" onmousedown="handlePan(0,1)">
                  <use xlink:href="#rim" fill="#404040">
                        <set attributeName="fill" to="#808080" begin="arrowDown.mouseover" end="arrowDown.mouseout"/>
                  </use>
                  <path fill="none" stroke="white" stroke-width="1.5" d="M0,-3.0v7 M-2.5,-0.5L0,-3.0L2.5,-0.5"/>
                </g>
                <g id="arrowLeft" xlink:href="#dirArrow" transform="rotate(270) translate(-36 17)" onmousedown="handlePan(-1,0)">
                  <use xlink:href="#rim" fill="#404040">
                        <set attributeName="fill" to="#808080" begin="arrowLeft.mouseover" end="arrowLeft.mouseout"/>
                  </use>
                  <path fill="none" stroke="white" stroke-width="1.5" d="M0,-3.0v7 M-2.5,-0.5L0,-3.0L2.5,-0.5"/>
                </g>
        </g>
        <svg viewBox="0 0 15 15" width="100%" height="30px" preserveAspectRatio="xMaxYMin meet">
         <g id="arrow_out" transform="scale(0.3 0.3)">
          <a xlink:href="classcommands_1_1_base_command_a4f771af3c6b3345e720f2ef455e6d1e2_icgraph_org.svg" target="_base">
           <rect id="button" ry="5" rx="5" y="6" x="6" height="38" width="38"
                fill="#f2f5e9" fill-opacity="0.5" stroke="#606060" stroke-width="1.0"/>
           <path id="arrow"
             d="M 11.500037,31.436501 C 11.940474,20.09759 22.043105,11.32322 32.158766,21.979434 L 37.068811,17.246167 C 37.068811,17.246167 37.088388,32 37.088388,32 L 22.160133,31.978069 C 22.160133,31.978069 26.997745,27.140456 26.997745,27.140456 C 18.528582,18.264221 13.291696,25.230495 11.500037,31.436501 z"
             style="fill:#404040;"/>
          </a>
         </g>
        </svg>
</svg>
