<?xml version="1.0" encoding="UTF-8" standalone="no"?>
<!DOCTYPE svg PUBLIC "-//W3C//DTD SVG 1.1//EN"
 "http://www.w3.org/Graphics/SVG/1.1/DTD/svg11.dtd">
<!-- Generated by graphviz version 2.36.0 (20140111.2315)
 -->
<!-- Title: commands.BaseCommand.execute Pages: 1 -->
<svg width="436pt" height="115pt"
 viewBox="0.00 0.00 436.00 115.00" xmlns="http://www.w3.org/2000/svg" xmlns:xlink="http://www.w3.org/1999/xlink">
<g id="graph0" class="graph" transform="scale(1 1) rotate(0) translate(4 111)">
<title>commands.BaseCommand.execute</title>
<polygon fill="white" stroke="none" points="-4,4 -4,-111 432,-111 432,4 -4,4"/>
<!-- Node1 -->
<g id="node1" class="node"><title>Node1</title>
<polygon fill="#bfbfbf" stroke="black" points="0.5,-38.5 0.5,-57.5 189.5,-57.5 189.5,-38.5 0.5,-38.5"/>
<text text-anchor="middle" x="95" y="-45.5" font-family="Helvetica,sans-Serif" font-size="10.00">commands.BaseCommand.execute</text>
</g>
<!-- Node1&#45;&gt;Node1 -->
<g id="edge1" class="edge"><title>Node1&#45;&gt;Node1</title>
<path fill="none" stroke="midnightblue" d="M59.5315,-57.6119C41.7162,-66.4613 53.5391,-76 95,-76 126.096,-76 140.52,-70.6345 138.273,-64.2184"/>
<polygon fill="midnightblue" stroke="midnightblue" points="140.362,-61.4016 130.469,-57.6119 135.84,-66.7444 140.362,-61.4016"/>
</g>
<!-- Node2 -->
<g id="node2" class="node"><title>Node2</title>
<g id="a_node2"><a xlink:href="../../da/d90/classcommands_1_1_base_command.html#a90abff4a812d84d0454cb095e03c6e08" target="_top" xlink:title="commands.BaseCommand.get\lNextCommand">
<polygon fill="white" stroke="black" points="243.5,-77 243.5,-107 410.5,-107 410.5,-77 243.5,-77"/>
<text text-anchor="start" x="251.5" y="-95" font-family="Helvetica,sans-Serif" font-size="10.00">commands.BaseCommand.get</text>
<text text-anchor="middle" x="327" y="-84" font-family="Helvetica,sans-Serif" font-size="10.00">NextCommand</text>
</a>
</g>
</g>
<!-- Node1&#45;&gt;Node2 -->
<g id="edge2" class="edge"><title>Node1&#45;&gt;Node2</title>
<path fill="none" stroke="midnightblue" d="M145.907,-57.5473C172.611,-62.656 206.298,-69.1005 237.293,-75.0299"/>
<polygon fill="midnightblue" stroke="midnightblue" points="236.77,-78.4932 247.249,-76.9346 238.085,-71.6179 236.77,-78.4932"/>
</g>
<!-- Node3 -->
<g id="node3" class="node"><title>Node3</title>
<g id="a_node3"><a xlink:href="../../da/d90/classcommands_1_1_base_command.html#aad4544c0bd9d40769d8997e4d6d97b08" target="_top" xlink:title="commands.BaseCommand.onExecute">
<polygon fill="white" stroke="black" points="226.5,-38.5 226.5,-57.5 427.5,-57.5 427.5,-38.5 226.5,-38.5"/>
<text text-anchor="middle" x="327" y="-45.5" font-family="Helvetica,sans-Serif" font-size="10.00">commands.BaseCommand.onExecute</text>
</a>
</g>
</g>
<!-- Node1&#45;&gt;Node3 -->
<g id="edge3" class="edge"><title>Node1&#45;&gt;Node3</title>
<path fill="none" stroke="midnightblue" d="M189.55,-48C198.315,-48 207.252,-48 216.149,-48"/>
<polygon fill="midnightblue" stroke="midnightblue" points="216.164,-51.5001 226.164,-48 216.164,-44.5001 216.164,-51.5001"/>
</g>
<!-- Node4 -->
<g id="node4" class="node"><title>Node4</title>
<g id="a_node4"><a xlink:href="../../da/d90/classcommands_1_1_base_command.html#a37ff254bd611b07ea38aaaf85447a2c3" target="_top" xlink:title="commands.BaseCommand.reset">
<polygon fill="white" stroke="black" points="239,-0.5 239,-19.5 415,-19.5 415,-0.5 239,-0.5"/>
<text text-anchor="middle" x="327" y="-7.5" font-family="Helvetica,sans-Serif" font-size="10.00">commands.BaseCommand.reset</text>
</a>
</g>
</g>
<!-- Node1&#45;&gt;Node4 -->
<g id="edge4" class="edge"><title>Node1&#45;&gt;Node4</title>
<path fill="none" stroke="midnightblue" d="M153.742,-38.46C185.458,-33.2201 224.974,-26.6912 258.156,-21.2091"/>
<polygon fill="midnightblue" stroke="midnightblue" points="258.939,-24.6272 268.234,-19.5439 257.798,-17.7209 258.939,-24.6272"/>
</g>
</g>
</svg>
