<?xml version="1.0" encoding="UTF-8" standalone="no"?>
<!DOCTYPE svg PUBLIC "-//W3C//DTD SVG 1.1//EN"
 "http://www.w3.org/Graphics/SVG/1.1/DTD/svg11.dtd">
<!-- Generated by graphviz version 2.36.0 (20140111.2315)
 -->
<!-- Title: commands.BaseCommand.splitByInnerListCommand Pages: 1 -->
<svg width="402pt" height="430pt"
 viewBox="0.00 0.00 402.00 430.00" xmlns="http://www.w3.org/2000/svg" xmlns:xlink="http://www.w3.org/1999/xlink">
<g id="graph0" class="graph" transform="scale(1 1) rotate(0) translate(4 426)">
<title>commands.BaseCommand.splitByInnerListCommand</title>
<polygon fill="white" stroke="none" points="-4,4 -4,-426 398,-426 398,4 -4,4"/>
<!-- Node1 -->
<g id="node1" class="node"><title>Node1</title>
<polygon fill="#bfbfbf" stroke="black" points="0,-196 0,-226 170,-226 170,-196 0,-196"/>
<text text-anchor="start" x="8" y="-214" font-family="Helvetica,sans-Serif" font-size="10.00">commands.BaseCommand.split</text>
<text text-anchor="middle" x="85" y="-203" font-family="Helvetica,sans-Serif" font-size="10.00">ByInnerListCommand</text>
</g>
<!-- Node2 -->
<g id="node2" class="node"><title>Node2</title>
<g id="a_node2"><a xlink:href="../../d3/d71/classcommands_1_1turtle_commands_1_1_tell_command.html#a47570a60c12af864e1bcb2d78f93b0e6" target="_top" xlink:title="commands.turtleCommands.\lTellCommand.parseArguments">
<polygon fill="white" stroke="black" points="218,-392 218,-422 382,-422 382,-392 218,-392"/>
<text text-anchor="start" x="226" y="-410" font-family="Helvetica,sans-Serif" font-size="10.00">commands.turtleCommands.</text>
<text text-anchor="middle" x="300" y="-399" font-family="Helvetica,sans-Serif" font-size="10.00">TellCommand.parseArguments</text>
</a>
</g>
</g>
<!-- Node1&#45;&gt;Node2 -->
<g id="edge1" class="edge"><title>Node1&#45;&gt;Node2</title>
<path fill="none" stroke="midnightblue" d="M96.4065,-235.416C113.615,-272.807 151.588,-343.91 206,-382 211.479,-385.835 217.516,-389.082 223.803,-391.831"/>
<polygon fill="midnightblue" stroke="midnightblue" points="99.5801,-233.94 92.2937,-226.248 93.1932,-236.805 99.5801,-233.94"/>
</g>
<!-- Node3 -->
<g id="node3" class="node"><title>Node3</title>
<g id="a_node3"><a xlink:href="../../d5/d06/classcommands_1_1turtle_commands_1_1_ask_with_command.html#a029effffc85db053f01578100b217277" target="_top" xlink:title="commands.turtleCommands.\lAskWithCommand.parseArguments">
<polygon fill="white" stroke="black" points="206,-343 206,-373 394,-373 394,-343 206,-343"/>
<text text-anchor="start" x="214" y="-361" font-family="Helvetica,sans-Serif" font-size="10.00">commands.turtleCommands.</text>
<text text-anchor="middle" x="300" y="-350" font-family="Helvetica,sans-Serif" font-size="10.00">AskWithCommand.parseArguments</text>
</a>
</g>
</g>
<!-- Node1&#45;&gt;Node3 -->
<g id="edge2" class="edge"><title>Node1&#45;&gt;Node3</title>
<path fill="none" stroke="midnightblue" d="M102.893,-234.613C123.936,-262.293 162.468,-307.603 206,-333 212.643,-336.876 219.901,-340.166 227.339,-342.955"/>
<polygon fill="midnightblue" stroke="midnightblue" points="105.473,-232.219 96.6907,-226.293 99.8611,-236.403 105.473,-232.219"/>
</g>
<!-- Node4 -->
<g id="node4" class="node"><title>Node4</title>
<g id="a_node4"><a xlink:href="../../d8/d8f/classcommands_1_1control_commands_1_1_if_else_command.html#af61bb6d692316678e62020460584c4c7" target="_top" xlink:title="commands.controlCommands.\lIfElseCommand.parseArguments">
<polygon fill="white" stroke="black" points="212.5,-294 212.5,-324 387.5,-324 387.5,-294 212.5,-294"/>
<text text-anchor="start" x="220.5" y="-312" font-family="Helvetica,sans-Serif" font-size="10.00">commands.controlCommands.</text>
<text text-anchor="middle" x="300" y="-301" font-family="Helvetica,sans-Serif" font-size="10.00">IfElseCommand.parseArguments</text>
</a>
</g>
</g>
<!-- Node1&#45;&gt;Node4 -->
<g id="edge3" class="edge"><title>Node1&#45;&gt;Node4</title>
<path fill="none" stroke="midnightblue" d="M115.15,-231.987C138.698,-248.121 173.202,-269.956 206,-284 214.761,-287.751 224.23,-291.071 233.66,-293.966"/>
<polygon fill="midnightblue" stroke="midnightblue" points="116.898,-228.94 106.688,-226.111 112.905,-234.69 116.898,-228.94"/>
</g>
<!-- Node5 -->
<g id="node5" class="node"><title>Node5</title>
<g id="a_node5"><a xlink:href="../../d5/d60/classcommands_1_1control_commands_1_1_if_command.html#a4d9ab694dc7cdbbc0971140e8be016f5" target="_top" xlink:title="commands.controlCommands.\lIfCommand.parseArguments">
<polygon fill="white" stroke="black" points="217.5,-245 217.5,-275 382.5,-275 382.5,-245 217.5,-245"/>
<text text-anchor="start" x="225.5" y="-263" font-family="Helvetica,sans-Serif" font-size="10.00">commands.controlCommands.</text>
<text text-anchor="middle" x="300" y="-252" font-family="Helvetica,sans-Serif" font-size="10.00">IfCommand.parseArguments</text>
</a>
</g>
</g>
<!-- Node1&#45;&gt;Node5 -->
<g id="edge4" class="edge"><title>Node1&#45;&gt;Node5</title>
<path fill="none" stroke="midnightblue" d="M161.337,-228.331C184.985,-233.771 210.881,-239.729 233.769,-244.994"/>
<polygon fill="midnightblue" stroke="midnightblue" points="161.885,-224.866 151.355,-226.035 160.315,-231.688 161.885,-224.866"/>
</g>
<!-- Node6 -->
<g id="node6" class="node"><title>Node6</title>
<g id="a_node6"><a xlink:href="../../d6/de1/classcommands_1_1turtle_commands_1_1_ask_command.html#a2444c2d94060a5150ea6023855af37c3" target="_top" xlink:title="commands.turtleCommands.\lAskCommand.parseArguments">
<polygon fill="white" stroke="black" points="216.5,-196 216.5,-226 383.5,-226 383.5,-196 216.5,-196"/>
<text text-anchor="start" x="224.5" y="-214" font-family="Helvetica,sans-Serif" font-size="10.00">commands.turtleCommands.</text>
<text text-anchor="middle" x="300" y="-203" font-family="Helvetica,sans-Serif" font-size="10.00">AskCommand.parseArguments</text>
</a>
</g>
</g>
<!-- Node1&#45;&gt;Node6 -->
<g id="edge5" class="edge"><title>Node1&#45;&gt;Node6</title>
<path fill="none" stroke="midnightblue" d="M180.258,-211C192.327,-211 204.609,-211 216.472,-211"/>
<polygon fill="midnightblue" stroke="midnightblue" points="180.183,-207.5 170.183,-211 180.183,-214.5 180.183,-207.5"/>
</g>
<!-- Node7 -->
<g id="node7" class="node"><title>Node7</title>
<g id="a_node7"><a xlink:href="../../d0/da1/classcommands_1_1control_commands_1_1_repeat_command.html#ae6dbc20e79fd78a43f32d40dc13a1138" target="_top" xlink:title="commands.controlCommands.\lRepeatCommand.parseArguments">
<polygon fill="white" stroke="black" points="208.5,-147 208.5,-177 391.5,-177 391.5,-147 208.5,-147"/>
<text text-anchor="start" x="216.5" y="-165" font-family="Helvetica,sans-Serif" font-size="10.00">commands.controlCommands.</text>
<text text-anchor="middle" x="300" y="-154" font-family="Helvetica,sans-Serif" font-size="10.00">RepeatCommand.parseArguments</text>
</a>
</g>
</g>
<!-- Node1&#45;&gt;Node7 -->
<g id="edge6" class="edge"><title>Node1&#45;&gt;Node7</title>
<path fill="none" stroke="midnightblue" d="M161.337,-193.669C184.985,-188.229 210.881,-182.271 233.769,-177.006"/>
<polygon fill="midnightblue" stroke="midnightblue" points="160.315,-190.312 151.355,-195.965 161.885,-197.134 160.315,-190.312"/>
</g>
<!-- Node8 -->
<g id="node8" class="node"><title>Node8</title>
<g id="a_node8"><a xlink:href="../../d9/d3f/classcommands_1_1control_commands_1_1_to_command.html#adee54ca4267f45fe551c798ba4994e76" target="_top" xlink:title="commands.controlCommands.\lToCommand.parseArguments">
<polygon fill="white" stroke="black" points="217.5,-98 217.5,-128 382.5,-128 382.5,-98 217.5,-98"/>
<text text-anchor="start" x="225.5" y="-116" font-family="Helvetica,sans-Serif" font-size="10.00">commands.controlCommands.</text>
<text text-anchor="middle" x="300" y="-105" font-family="Helvetica,sans-Serif" font-size="10.00">ToCommand.parseArguments</text>
</a>
</g>
</g>
<!-- Node1&#45;&gt;Node8 -->
<g id="edge7" class="edge"><title>Node1&#45;&gt;Node8</title>
<path fill="none" stroke="midnightblue" d="M115.15,-190.013C138.698,-173.879 173.202,-152.044 206,-138 214.761,-134.249 224.23,-130.929 233.66,-128.034"/>
<polygon fill="midnightblue" stroke="midnightblue" points="112.905,-187.31 106.688,-195.889 116.898,-193.06 112.905,-187.31"/>
</g>
<!-- Node9 -->
<g id="node9" class="node"><title>Node9</title>
<g id="a_node9"><a xlink:href="../../da/dbb/classcommands_1_1control_commands_1_1_for_command.html#a359b77a781005265de850213bf449fe8" target="_top" xlink:title="commands.controlCommands.\lForCommand.parseArguments">
<polygon fill="white" stroke="black" points="217.5,-49 217.5,-79 382.5,-79 382.5,-49 217.5,-49"/>
<text text-anchor="start" x="225.5" y="-67" font-family="Helvetica,sans-Serif" font-size="10.00">commands.controlCommands.</text>
<text text-anchor="middle" x="300" y="-56" font-family="Helvetica,sans-Serif" font-size="10.00">ForCommand.parseArguments</text>
</a>
</g>
</g>
<!-- Node1&#45;&gt;Node9 -->
<g id="edge8" class="edge"><title>Node1&#45;&gt;Node9</title>
<path fill="none" stroke="midnightblue" d="M102.893,-187.387C123.936,-159.707 162.468,-114.397 206,-89 212.643,-85.1244 219.901,-81.8345 227.339,-79.0448"/>
<polygon fill="midnightblue" stroke="midnightblue" points="99.8611,-185.597 96.6907,-195.707 105.473,-189.781 99.8611,-185.597"/>
</g>
<!-- Node10 -->
<g id="node10" class="node"><title>Node10</title>
<g id="a_node10"><a xlink:href="../../d8/d84/classcommands_1_1control_commands_1_1_do_command.html#a3c4cccaf04e512414f97f09496d2e910" target="_top" xlink:title="commands.controlCommands.\lDoCommand.parseArguments">
<polygon fill="white" stroke="black" points="217.5,-0 217.5,-30 382.5,-30 382.5,-0 217.5,-0"/>
<text text-anchor="start" x="225.5" y="-18" font-family="Helvetica,sans-Serif" font-size="10.00">commands.controlCommands.</text>
<text text-anchor="middle" x="300" y="-7" font-family="Helvetica,sans-Serif" font-size="10.00">DoCommand.parseArguments</text>
</a>
</g>
</g>
<!-- Node1&#45;&gt;Node10 -->
<g id="edge9" class="edge"><title>Node1&#45;&gt;Node10</title>
<path fill="none" stroke="midnightblue" d="M96.4065,-186.584C113.615,-149.193 151.588,-78.0905 206,-40 211.479,-36.1648 217.516,-32.9177 223.803,-30.1686"/>
<polygon fill="midnightblue" stroke="midnightblue" points="93.1932,-185.195 92.2937,-195.752 99.5801,-188.06 93.1932,-185.195"/>
</g>
</g>
</svg>
