<?xml version="1.0" encoding="UTF-8" standalone="no"?>
<!DOCTYPE svg PUBLIC "-//W3C//DTD SVG 1.1//EN"
 "http://www.w3.org/Graphics/SVG/1.1/DTD/svg11.dtd">
<!-- Generated by graphviz version 2.36.0 (20140111.2315)
 -->
<!-- Title: GUIFunctions.Undo.undoLine Pages: 1 -->
<svg width="360pt" height="104pt"
 viewBox="0.00 0.00 360.00 104.00" xmlns="http://www.w3.org/2000/svg" xmlns:xlink="http://www.w3.org/1999/xlink">
<g id="graph0" class="graph" transform="scale(1 1) rotate(0) translate(4 100)">
<title>GUIFunctions.Undo.undoLine</title>
<polygon fill="white" stroke="none" points="-4,4 -4,-100 356,-100 356,4 -4,4"/>
<!-- Node1 -->
<g id="node1" class="node"><title>Node1</title>
<polygon fill="#bfbfbf" stroke="black" points="0,-38.5 0,-57.5 154,-57.5 154,-38.5 0,-38.5"/>
<text text-anchor="middle" x="77" y="-45.5" font-family="Helvetica,sans-Serif" font-size="10.00">GUIFunctions.Undo.undoLine</text>
</g>
<!-- Node2 -->
<g id="node2" class="node"><title>Node2</title>
<g id="a_node2"><a xlink:href="../../d7/d98/class_view_1_1_grid_tracker.html#af7c2413584c58030e606ae6692ea564f" target="_top" xlink:title="View.GridTracker.getActiveGrid">
<polygon fill="white" stroke="black" points="190.5,-76.5 190.5,-95.5 351.5,-95.5 351.5,-76.5 190.5,-76.5"/>
<text text-anchor="middle" x="271" y="-83.5" font-family="Helvetica,sans-Serif" font-size="10.00">View.GridTracker.getActiveGrid</text>
</a>
</g>
</g>
<!-- Node1&#45;&gt;Node2 -->
<g id="edge1" class="edge"><title>Node1&#45;&gt;Node2</title>
<path fill="none" stroke="midnightblue" d="M126.45,-57.589C152.471,-62.739 184.728,-69.1232 212.069,-74.5344"/>
<polygon fill="midnightblue" stroke="midnightblue" points="211.409,-77.9718 221.899,-76.4799 212.769,-71.105 211.409,-77.9718"/>
</g>
<!-- Node3 -->
<g id="node3" class="node"><title>Node3</title>
<g id="a_node3"><a xlink:href="../../df/dcb/classturtle_1_1_turtle.html#a0b8bdf8fc097cab5bf51d46567c2d749" target="_top" xlink:title="turtle.Turtle.getPen">
<polygon fill="white" stroke="black" points="217.5,-38.5 217.5,-57.5 324.5,-57.5 324.5,-38.5 217.5,-38.5"/>
<text text-anchor="middle" x="271" y="-45.5" font-family="Helvetica,sans-Serif" font-size="10.00">turtle.Turtle.getPen</text>
</a>
</g>
</g>
<!-- Node1&#45;&gt;Node3 -->
<g id="edge2" class="edge"><title>Node1&#45;&gt;Node3</title>
<path fill="none" stroke="midnightblue" d="M154.159,-48C171.673,-48 190.108,-48 206.993,-48"/>
<polygon fill="midnightblue" stroke="midnightblue" points="207.284,-51.5001 217.284,-48 207.284,-44.5001 207.284,-51.5001"/>
</g>
<!-- Node4 -->
<g id="node4" class="node"><title>Node4</title>
<g id="a_node4"><a xlink:href="../../dc/d19/class_view_1_1_pen.html#abcb685899f76e8f5b243f9662958f000" target="_top" xlink:title="View.Pen.undo">
<polygon fill="white" stroke="black" points="228,-0.5 228,-19.5 314,-19.5 314,-0.5 228,-0.5"/>
<text text-anchor="middle" x="271" y="-7.5" font-family="Helvetica,sans-Serif" font-size="10.00">View.Pen.undo</text>
</a>
</g>
</g>
<!-- Node1&#45;&gt;Node4 -->
<g id="edge3" class="edge"><title>Node1&#45;&gt;Node4</title>
<path fill="none" stroke="midnightblue" d="M126.45,-38.411C154.252,-32.9085 189.172,-25.9971 217.61,-20.3689"/>
<polygon fill="midnightblue" stroke="midnightblue" points="218.638,-23.7333 227.768,-18.3584 217.279,-16.8665 218.638,-23.7333"/>
</g>
</g>
</svg>
