<?xml version="1.0" encoding="UTF-8" standalone="no"?>
<!DOCTYPE svg PUBLIC "-//W3C//DTD SVG 1.1//EN"
 "http://www.w3.org/Graphics/SVG/1.1/DTD/svg11.dtd">
<!-- Generated by graphviz version 2.36.0 (20140111.2315)
 -->
<!-- Title: GUIFunctions.Undo.doAction Pages: 1 -->
<!--zoomable 370 -->
<svg id="main" version="1.1" xmlns="http://www.w3.org/2000/svg" xmlns:xlink="http://www.w3.org/1999/xlink" xml:space="preserve" onload="init(evt)">
<style type="text/css"><![CDATA[
.edge:hover path { stroke: red; }
.edge:hover polygon { stroke: red; fill: red; }
]]></style>
<script type="text/javascript"><![CDATA[
var edges = document.getElementsByTagName('g');
if (edges && edges.length) {
  for (var i=0;i<edges.length;i++) {
    if (edges[i].id.substr(0,4)=='edge') {
      edges[i].setAttribute('class','edge');
    }
  }
}
]]></script>
        <defs>
                <circle id="rim" cx="0" cy="0" r="7"/>
                <circle id="rim2" cx="0" cy="0" r="3.5"/>
                <g id="zoomPlus">
                        <use xlink:href="#rim" fill="#404040">
                                <set attributeName="fill" to="#808080" begin="zoomplus.mouseover" end="zoomplus.mouseout"/>
                        </use>
                        <path d="M-4,0h8M0,-4v8" fill="none" stroke="white" stroke-width="1.5" pointer-events="none"/>
                </g>
                <g id="zoomMin">
                        <use xlink:href="#rim" fill="#404040">
                                <set attributeName="fill" to="#808080" begin="zoomminus.mouseover" end="zoomminus.mouseout"/>
                        </use>
                        <path d="M-4,0h8" fill="none" stroke="white" stroke-width="1.5" pointer-events="none"/>
                </g>
                <g id="dirArrow">
                        <path fill="none" stroke="white" stroke-width="1.5" d="M0,-3.0v7 M-2.5,-0.5L0,-3.0L2.5,-0.5"/>
                </g>
               <g id="resetDef">
                       <use xlink:href="#rim2" fill="#404040">
                               <set attributeName="fill" to="#808080" begin="reset.mouseover" end="reset.mouseout"/>
                       </use>
               </g>
        </defs>

<script type="text/javascript">
var viewWidth = 1090;
var viewHeight = 370;
var sectionId = 'dynsection-2';
</script>
<script xlink:href="../../svgpan.js"/>
<svg id="graph" class="graph">
<g id="viewport">
<title>GUIFunctions.Undo.doAction</title>
<polygon fill="white" stroke="none" points="-4,4 -4,-366 1086,-366 1086,4 -4,4"/>
<!-- Node1 -->
<g id="node1" class="node"><title>Node1</title>
<polygon fill="#bfbfbf" stroke="black" points="0,-266.5 0,-285.5 152,-285.5 152,-266.5 0,-266.5"/>
<text text-anchor="middle" x="76" y="-273.5" font-family="Helvetica,sans-Serif" font-size="10.00">GUIFunctions.Undo.doAction</text>
</g>
<!-- Node2 -->
<g id="node2" class="node"><title>Node2</title>
<g id="a_node2"><a xlink:href="../../d7/d98/class_view_1_1_grid_tracker.html#af7c2413584c58030e606ae6692ea564f" target="_top" xlink:title="View.GridTracker.getActiveGrid">
<polygon fill="white" stroke="black" points="378.5,-342.5 378.5,-361.5 539.5,-361.5 539.5,-342.5 378.5,-342.5"/>
<text text-anchor="middle" x="459" y="-349.5" font-family="Helvetica,sans-Serif" font-size="10.00">View.GridTracker.getActiveGrid</text>
</a>
</g>
</g>
<!-- Node1&#45;&gt;Node2 -->
<g id="edge1" class="edge"><title>Node1&#45;&gt;Node2</title>
<path fill="none" stroke="midnightblue" d="M90.9488,-285.537C111.264,-298.858 150.652,-322.57 188,-333 246.57,-349.356 314.92,-354.032 368.195,-354.656"/>
<polygon fill="midnightblue" stroke="midnightblue" points="368.277,-358.156 378.301,-354.728 368.327,-351.156 368.277,-358.156"/>
</g>
<!-- Node3 -->
<g id="node3" class="node"><title>Node3</title>
<g id="a_node3"><a xlink:href="../../d9/db1/class_view_1_1_single_grid.html#a63dce7bacaea4b387aeef30975ad678b" target="_top" xlink:title="View.SingleGrid.getActive\lTurtles">
<polygon fill="white" stroke="black" points="196.5,-179 196.5,-209 333.5,-209 333.5,-179 196.5,-179"/>
<text text-anchor="start" x="204.5" y="-197" font-family="Helvetica,sans-Serif" font-size="10.00">View.SingleGrid.getActive</text>
<text text-anchor="middle" x="265" y="-186" font-family="Helvetica,sans-Serif" font-size="10.00">Turtles</text>
</a>
</g>
</g>
<!-- Node1&#45;&gt;Node3 -->
<g id="edge2" class="edge"><title>Node1&#45;&gt;Node3</title>
<path fill="none" stroke="midnightblue" d="M93.5347,-266.47C114.888,-254.407 153.424,-233.46 188,-219 193.418,-216.734 199.12,-214.535 204.863,-212.442"/>
<polygon fill="midnightblue" stroke="midnightblue" points="206.264,-215.659 214.526,-209.027 203.931,-209.059 206.264,-215.659"/>
</g>
<!-- Node4 -->
<g id="node4" class="node"><title>Node4</title>
<g id="a_node4"><a xlink:href="../../d9/db1/class_view_1_1_single_grid.html#a7fced187abf44b802950675ee590f493" target="_top" xlink:title="View.SingleGrid.moveTurtle">
<polygon fill="white" stroke="black" points="386.5,-228.5 386.5,-247.5 531.5,-247.5 531.5,-228.5 386.5,-228.5"/>
<text text-anchor="middle" x="459" y="-235.5" font-family="Helvetica,sans-Serif" font-size="10.00">View.SingleGrid.moveTurtle</text>
</a>
</g>
</g>
<!-- Node1&#45;&gt;Node4 -->
<g id="edge3" class="edge"><title>Node1&#45;&gt;Node4</title>
<path fill="none" stroke="midnightblue" d="M152.274,-272.426C205.409,-269.458 278.21,-264.495 342,-257 359.62,-254.93 378.651,-252.074 396.102,-249.206"/>
<polygon fill="midnightblue" stroke="midnightblue" points="396.886,-252.623 406.172,-247.521 395.731,-245.719 396.886,-252.623"/>
</g>
<!-- Node11 -->
<g id="node11" class="node"><title>Node11</title>
<g id="a_node11"><a xlink:href="../../d1/de7/class_g_u_i_functions_1_1_undo.html#abc375040abaf5731ac96ef7d7c02aa24" target="_top" xlink:title="GUIFunctions.Undo.undoLine">
<polygon fill="white" stroke="black" points="188,-304.5 188,-323.5 342,-323.5 342,-304.5 188,-304.5"/>
<text text-anchor="middle" x="265" y="-311.5" font-family="Helvetica,sans-Serif" font-size="10.00">GUIFunctions.Undo.undoLine</text>
</a>
</g>
</g>
<!-- Node1&#45;&gt;Node11 -->
<g id="edge10" class="edge"><title>Node1&#45;&gt;Node11</title>
<path fill="none" stroke="midnightblue" d="M124.188,-285.589C149.42,-290.716 180.673,-297.067 207.227,-302.463"/>
<polygon fill="midnightblue" stroke="midnightblue" points="206.655,-305.918 217.151,-304.48 208.049,-299.059 206.655,-305.918"/>
</g>
<!-- Node14 -->
<g id="node14" class="node"><title>Node14</title>
<g id="a_node14"><a xlink:href="../../d9/db1/class_view_1_1_single_grid.html#aa718e560e84ad31be3e046029d0226ab" target="_top" xlink:title="View.SingleGrid.update">
<polygon fill="white" stroke="black" points="202,-228.5 202,-247.5 328,-247.5 328,-228.5 202,-228.5"/>
<text text-anchor="middle" x="265" y="-235.5" font-family="Helvetica,sans-Serif" font-size="10.00">View.SingleGrid.update</text>
</a>
</g>
</g>
<!-- Node1&#45;&gt;Node14 -->
<g id="edge14" class="edge"><title>Node1&#45;&gt;Node14</title>
<path fill="none" stroke="midnightblue" d="M124.188,-266.411C149.42,-261.284 180.673,-254.933 207.227,-249.537"/>
<polygon fill="midnightblue" stroke="midnightblue" points="208.049,-252.941 217.151,-247.52 206.655,-246.082 208.049,-252.941"/>
</g>
<!-- Node5 -->
<g id="node5" class="node"><title>Node5</title>
<g id="a_node5"><a xlink:href="../../df/dcb/classturtle_1_1_turtle.html#aa576ade68e2f453b037ea2a3c456d466" target="_top" xlink:title="turtle.Turtle.getXPos">
<polygon fill="white" stroke="black" points="591.5,-228.5 591.5,-247.5 704.5,-247.5 704.5,-228.5 591.5,-228.5"/>
<text text-anchor="middle" x="648" y="-235.5" font-family="Helvetica,sans-Serif" font-size="10.00">turtle.Turtle.getXPos</text>
</a>
</g>
</g>
<!-- Node4&#45;&gt;Node5 -->
<g id="edge4" class="edge"><title>Node4&#45;&gt;Node5</title>
<path fill="none" stroke="midnightblue" d="M531.764,-238C547.986,-238 565.133,-238 581.1,-238"/>
<polygon fill="midnightblue" stroke="midnightblue" points="581.4,-241.5 591.4,-238 581.4,-234.5 581.4,-241.5"/>
</g>
<!-- Node7 -->
<g id="node7" class="node"><title>Node7</title>
<g id="a_node7"><a xlink:href="../../df/dcb/classturtle_1_1_turtle.html#a735b5aa0bce5a53d2c75322fb2ad9130" target="_top" xlink:title="turtle.Turtle.getYPos">
<polygon fill="white" stroke="black" points="592,-152.5 592,-171.5 704,-171.5 704,-152.5 592,-152.5"/>
<text text-anchor="middle" x="648" y="-159.5" font-family="Helvetica,sans-Serif" font-size="10.00">turtle.Turtle.getYPos</text>
</a>
</g>
</g>
<!-- Node4&#45;&gt;Node7 -->
<g id="edge6" class="edge"><title>Node4&#45;&gt;Node7</title>
<path fill="none" stroke="midnightblue" d="M476.829,-228.425C498.994,-216.123 539.447,-194.721 576,-181 582.421,-178.59 589.276,-176.354 596.099,-174.326"/>
<polygon fill="midnightblue" stroke="midnightblue" points="597.357,-177.607 606.019,-171.506 595.443,-170.874 597.357,-177.607"/>
</g>
<!-- Node9 -->
<g id="node9" class="node"><title>Node9</title>
<g id="a_node9"><a xlink:href="../../df/dcb/classturtle_1_1_turtle.html#af4afc304cb9394e02381563fad7c34ce" target="_top" xlink:title="turtle.Turtle.getOrientation">
<polygon fill="white" stroke="black" points="576.5,-304.5 576.5,-323.5 719.5,-323.5 719.5,-304.5 576.5,-304.5"/>
<text text-anchor="middle" x="648" y="-311.5" font-family="Helvetica,sans-Serif" font-size="10.00">turtle.Turtle.getOrientation</text>
</a>
</g>
</g>
<!-- Node4&#45;&gt;Node9 -->
<g id="edge8" class="edge"><title>Node4&#45;&gt;Node9</title>
<path fill="none" stroke="midnightblue" d="M476.829,-247.575C498.994,-259.877 539.447,-281.279 576,-295 582.421,-297.41 589.276,-299.646 596.099,-301.674"/>
<polygon fill="midnightblue" stroke="midnightblue" points="595.443,-305.126 606.019,-304.494 597.357,-298.393 595.443,-305.126"/>
</g>
<!-- Node6 -->
<g id="node6" class="node"><title>Node6</title>
<g id="a_node6"><a xlink:href="../../d1/dbe/classturtle_1_1_position.html#a1d079c846ce96bf1c57da388c46669e1" target="_top" xlink:title="turtle.Position.getXPos">
<polygon fill="white" stroke="black" points="759.5,-228.5 759.5,-247.5 884.5,-247.5 884.5,-228.5 759.5,-228.5"/>
<text text-anchor="middle" x="822" y="-235.5" font-family="Helvetica,sans-Serif" font-size="10.00">turtle.Position.getXPos</text>
</a>
</g>
</g>
<!-- Node5&#45;&gt;Node6 -->
<g id="edge5" class="edge"><title>Node5&#45;&gt;Node6</title>
<path fill="none" stroke="midnightblue" d="M704.843,-238C719.03,-238 734.47,-238 749.324,-238"/>
<polygon fill="midnightblue" stroke="midnightblue" points="749.49,-241.5 759.49,-238 749.49,-234.5 749.49,-241.5"/>
</g>
<!-- Node8 -->
<g id="node8" class="node"><title>Node8</title>
<g id="a_node8"><a xlink:href="../../d1/dbe/classturtle_1_1_position.html#a3a68708e4dc3290c4ef0ecd511cc8c1f" target="_top" xlink:title="turtle.Position.getYPos">
<polygon fill="white" stroke="black" points="760,-152.5 760,-171.5 884,-171.5 884,-152.5 760,-152.5"/>
<text text-anchor="middle" x="822" y="-159.5" font-family="Helvetica,sans-Serif" font-size="10.00">turtle.Position.getYPos</text>
</a>
</g>
</g>
<!-- Node7&#45;&gt;Node8 -->
<g id="edge7" class="edge"><title>Node7&#45;&gt;Node8</title>
<path fill="none" stroke="midnightblue" d="M704.369,-162C718.731,-162 734.405,-162 749.469,-162"/>
<polygon fill="midnightblue" stroke="midnightblue" points="749.777,-165.5 759.776,-162 749.776,-158.5 749.777,-165.5"/>
</g>
<!-- Node10 -->
<g id="node10" class="node"><title>Node10</title>
<g id="a_node10"><a xlink:href="../../d1/dbe/classturtle_1_1_position.html#a7bfd27ea2bf5e22d8de4a4e87b4df2ec" target="_top" xlink:title="turtle.Position.getRotate">
<polygon fill="white" stroke="black" points="756,-285.5 756,-304.5 888,-304.5 888,-285.5 756,-285.5"/>
<text text-anchor="middle" x="822" y="-292.5" font-family="Helvetica,sans-Serif" font-size="10.00">turtle.Position.getRotate</text>
</a>
</g>
</g>
<!-- Node9&#45;&gt;Node10 -->
<g id="edge9" class="edge"><title>Node9&#45;&gt;Node10</title>
<path fill="none" stroke="midnightblue" d="M719.952,-306.162C728.465,-305.222 737.182,-304.259 745.754,-303.312"/>
<polygon fill="midnightblue" stroke="midnightblue" points="746.174,-306.787 755.729,-302.21 745.405,-299.829 746.174,-306.787"/>
</g>
<!-- Node11&#45;&gt;Node2 -->
<g id="edge11" class="edge"><title>Node11&#45;&gt;Node2</title>
<path fill="none" stroke="midnightblue" d="M314.45,-323.589C340.471,-328.739 372.728,-335.123 400.069,-340.534"/>
<polygon fill="midnightblue" stroke="midnightblue" points="399.409,-343.972 409.899,-342.48 400.769,-337.105 399.409,-343.972"/>
</g>
<!-- Node12 -->
<g id="node12" class="node"><title>Node12</title>
<g id="a_node12"><a xlink:href="../../df/dcb/classturtle_1_1_turtle.html#a0b8bdf8fc097cab5bf51d46567c2d749" target="_top" xlink:title="turtle.Turtle.getPen">
<polygon fill="white" stroke="black" points="594.5,-266.5 594.5,-285.5 701.5,-285.5 701.5,-266.5 594.5,-266.5"/>
<text text-anchor="middle" x="648" y="-273.5" font-family="Helvetica,sans-Serif" font-size="10.00">turtle.Turtle.getPen</text>
</a>
</g>
</g>
<!-- Node11&#45;&gt;Node12 -->
<g id="edge12" class="edge"><title>Node11&#45;&gt;Node12</title>
<path fill="none" stroke="midnightblue" d="M315.748,-304.49C335.117,-301.069 357.537,-297.452 378,-295 448.31,-286.574 529.439,-281.472 584.06,-278.708"/>
<polygon fill="midnightblue" stroke="midnightblue" points="584.466,-282.192 594.28,-278.202 584.12,-275.2 584.466,-282.192"/>
</g>
<!-- Node13 -->
<g id="node13" class="node"><title>Node13</title>
<g id="a_node13"><a xlink:href="../../dc/d19/class_view_1_1_pen.html#abcb685899f76e8f5b243f9662958f000" target="_top" xlink:title="View.Pen.undo">
<polygon fill="white" stroke="black" points="416,-304.5 416,-323.5 502,-323.5 502,-304.5 416,-304.5"/>
<text text-anchor="middle" x="459" y="-311.5" font-family="Helvetica,sans-Serif" font-size="10.00">View.Pen.undo</text>
</a>
</g>
</g>
<!-- Node11&#45;&gt;Node13 -->
<g id="edge13" class="edge"><title>Node11&#45;&gt;Node13</title>
<path fill="none" stroke="midnightblue" d="M342.159,-314C363.459,-314 386.121,-314 405.7,-314"/>
<polygon fill="midnightblue" stroke="midnightblue" points="405.932,-317.5 415.932,-314 405.932,-310.5 405.932,-317.5"/>
</g>
<!-- Node14&#45;&gt;Node4 -->
<g id="edge31" class="edge"><title>Node14&#45;&gt;Node4</title>
<path fill="none" stroke="midnightblue" d="M328.072,-238C343.35,-238 359.945,-238 376.005,-238"/>
<polygon fill="midnightblue" stroke="midnightblue" points="376.463,-241.5 386.463,-238 376.463,-234.5 376.463,-241.5"/>
</g>
<!-- Node15 -->
<g id="node15" class="node"><title>Node15</title>
<g id="a_node15"><a xlink:href="../../d9/db1/class_view_1_1_single_grid.html#a9093eac50d88370f86cb4757b996210e" target="_top" xlink:title="View.SingleGrid.keepTurtle\lInBounds">
<polygon fill="white" stroke="black" points="388.5,-147 388.5,-177 529.5,-177 529.5,-147 388.5,-147"/>
<text text-anchor="start" x="396.5" y="-165" font-family="Helvetica,sans-Serif" font-size="10.00">View.SingleGrid.keepTurtle</text>
<text text-anchor="middle" x="459" y="-154" font-family="Helvetica,sans-Serif" font-size="10.00">InBounds</text>
</a>
</g>
</g>
<!-- Node14&#45;&gt;Node15 -->
<g id="edge15" class="edge"><title>Node14&#45;&gt;Node15</title>
<path fill="none" stroke="midnightblue" d="M308.261,-228.42C319.37,-225.485 331.248,-221.968 342,-218 369.352,-207.906 398.931,-193.569 421.374,-181.928"/>
<polygon fill="midnightblue" stroke="midnightblue" points="423.3,-184.871 430.528,-177.125 420.047,-178.672 423.3,-184.871"/>
</g>
<!-- Node15&#45;&gt;Node5 -->
<g id="edge19" class="edge"><title>Node15&#45;&gt;Node5</title>
<path fill="none" stroke="midnightblue" d="M486.986,-177.141C510.079,-189.635 544.489,-207.171 576,-219 582.421,-221.41 589.276,-223.646 596.099,-225.674"/>
<polygon fill="midnightblue" stroke="midnightblue" points="595.443,-229.126 606.019,-228.494 597.357,-222.393 595.443,-229.126"/>
</g>
<!-- Node15&#45;&gt;Node7 -->
<g id="edge28" class="edge"><title>Node15&#45;&gt;Node7</title>
<path fill="none" stroke="midnightblue" d="M529.632,-162C546.659,-162 564.817,-162 581.636,-162"/>
<polygon fill="midnightblue" stroke="midnightblue" points="581.913,-165.5 591.913,-162 581.913,-158.5 581.913,-165.5"/>
</g>
<!-- Node15&#45;&gt;Node12 -->
<g id="edge16" class="edge"><title>Node15&#45;&gt;Node12</title>
<path fill="none" stroke="midnightblue" d="M483.647,-177.088C500.064,-187.978 522.112,-203.446 540,-219 557.556,-234.266 556.009,-245.1 576,-257 579.639,-259.166 583.527,-261.09 587.54,-262.798"/>
<polygon fill="midnightblue" stroke="midnightblue" points="586.476,-266.138 597.068,-266.404 588.954,-259.591 586.476,-266.138"/>
</g>
<!-- Node16 -->
<g id="node16" class="node"><title>Node16</title>
<g id="a_node16"><a xlink:href="../../dc/d19/class_view_1_1_pen.html#a837537c2d8cd3a98e918a3ab6d72ebd9" target="_top" xlink:title="View.Pen.getPenDown">
<polygon fill="white" stroke="black" points="587,-114.5 587,-133.5 709,-133.5 709,-114.5 587,-114.5"/>
<text text-anchor="middle" x="648" y="-121.5" font-family="Helvetica,sans-Serif" font-size="10.00">View.Pen.getPenDown</text>
</a>
</g>
</g>
<!-- Node15&#45;&gt;Node16 -->
<g id="edge17" class="edge"><title>Node15&#45;&gt;Node16</title>
<path fill="none" stroke="midnightblue" d="M529.632,-147.85C549.525,-143.808 570.963,-139.451 590.004,-135.582"/>
<polygon fill="midnightblue" stroke="midnightblue" points="590.913,-138.969 600.016,-133.548 589.519,-132.109 590.913,-138.969"/>
</g>
<!-- Node17 -->
<g id="node17" class="node"><title>Node17</title>
<g id="a_node17"><a xlink:href="../../dc/d19/class_view_1_1_pen.html#a8709e1eb5749d8575a4ba9a26acffa0f" target="_top" xlink:title="View.Pen.setPenDown">
<polygon fill="white" stroke="black" points="587.5,-76.5 587.5,-95.5 708.5,-95.5 708.5,-76.5 587.5,-76.5"/>
<text text-anchor="middle" x="648" y="-83.5" font-family="Helvetica,sans-Serif" font-size="10.00">View.Pen.setPenDown</text>
</a>
</g>
</g>
<!-- Node15&#45;&gt;Node17 -->
<g id="edge18" class="edge"><title>Node15&#45;&gt;Node17</title>
<path fill="none" stroke="midnightblue" d="M486.986,-146.859C510.079,-134.365 544.489,-116.829 576,-105 582.421,-102.59 589.276,-100.354 596.099,-98.3256"/>
<polygon fill="midnightblue" stroke="midnightblue" points="597.357,-101.607 606.019,-95.5063 595.443,-94.8735 597.357,-101.607"/>
</g>
<!-- Node18 -->
<g id="node18" class="node"><title>Node18</title>
<g id="a_node18"><a xlink:href="../../df/dcb/classturtle_1_1_turtle.html#a5db281fc734edd965ff0faddbab871d7" target="_top" xlink:title="turtle.Turtle.setXPos">
<polygon fill="white" stroke="black" points="592,-190.5 592,-209.5 704,-209.5 704,-190.5 592,-190.5"/>
<text text-anchor="middle" x="648" y="-197.5" font-family="Helvetica,sans-Serif" font-size="10.00">turtle.Turtle.setXPos</text>
</a>
</g>
</g>
<!-- Node15&#45;&gt;Node18 -->
<g id="edge20" class="edge"><title>Node15&#45;&gt;Node18</title>
<path fill="none" stroke="midnightblue" d="M529.632,-176.15C549.525,-180.192 570.963,-184.549 590.004,-188.418"/>
<polygon fill="midnightblue" stroke="midnightblue" points="589.519,-191.891 600.016,-190.452 590.913,-185.031 589.519,-191.891"/>
</g>
<!-- Node20 -->
<g id="node20" class="node"><title>Node20</title>
<g id="a_node20"><a xlink:href="../../dc/d19/class_view_1_1_pen.html#a9baa63a91f8cd62a806147fdeaf44865" target="_top" xlink:title="View.Pen.drawLine">
<polygon fill="white" stroke="black" points="596,-38.5 596,-57.5 700,-57.5 700,-38.5 596,-38.5"/>
<text text-anchor="middle" x="648" y="-45.5" font-family="Helvetica,sans-Serif" font-size="10.00">View.Pen.drawLine</text>
</a>
</g>
</g>
<!-- Node15&#45;&gt;Node20 -->
<g id="edge25" class="edge"><title>Node15&#45;&gt;Node20</title>
<path fill="none" stroke="midnightblue" d="M474.262,-146.805C494.794,-125.812 534.77,-88.1427 576,-67 580.567,-64.6583 585.451,-62.5834 590.44,-60.7493"/>
<polygon fill="midnightblue" stroke="midnightblue" points="591.737,-64.0061 600.108,-57.5121 589.514,-57.3683 591.737,-64.0061"/>
</g>
<!-- Node23 -->
<g id="node23" class="node"><title>Node23</title>
<g id="a_node23"><a xlink:href="../../df/dcb/classturtle_1_1_turtle.html#a1107426e66ec049d5e3d1c1783a463db" target="_top" xlink:title="turtle.Turtle.setYPos">
<polygon fill="white" stroke="black" points="592.5,-0.5 592.5,-19.5 703.5,-19.5 703.5,-0.5 592.5,-0.5"/>
<text text-anchor="middle" x="648" y="-7.5" font-family="Helvetica,sans-Serif" font-size="10.00">turtle.Turtle.setYPos</text>
</a>
</g>
</g>
<!-- Node15&#45;&gt;Node23 -->
<g id="edge29" class="edge"><title>Node15&#45;&gt;Node23</title>
<path fill="none" stroke="midnightblue" d="M469.033,-146.619C486.211,-118.758 526.342,-59.9621 576,-29 579.375,-26.8955 582.981,-25.0218 586.712,-23.354"/>
<polygon fill="midnightblue" stroke="midnightblue" points="588.163,-26.5439 596.181,-19.6177 585.594,-20.0325 588.163,-26.5439"/>
</g>
<!-- Node18&#45;&gt;Node6 -->
<g id="edge22" class="edge"><title>Node18&#45;&gt;Node6</title>
<path fill="none" stroke="midnightblue" d="M692.403,-209.589C715.407,-214.671 743.851,-220.955 768.134,-226.32"/>
<polygon fill="midnightblue" stroke="midnightblue" points="767.39,-229.74 777.909,-228.48 768.9,-222.905 767.39,-229.74"/>
</g>
<!-- Node18&#45;&gt;Node8 -->
<g id="edge23" class="edge"><title>Node18&#45;&gt;Node8</title>
<path fill="none" stroke="midnightblue" d="M692.403,-190.411C715.407,-185.329 743.851,-179.045 768.134,-173.68"/>
<polygon fill="midnightblue" stroke="midnightblue" points="768.9,-177.095 777.909,-171.52 767.39,-170.26 768.9,-177.095"/>
</g>
<!-- Node18&#45;&gt;Node10 -->
<g id="edge24" class="edge"><title>Node18&#45;&gt;Node10</title>
<path fill="none" stroke="midnightblue" d="M698.932,-209.596C706.273,-212.064 713.531,-215.149 720,-219 739.991,-230.9 737.775,-242.54 756,-257 767.15,-265.847 780.575,-274.043 792.322,-280.541"/>
<polygon fill="midnightblue" stroke="midnightblue" points="790.842,-283.719 801.308,-285.369 794.155,-277.553 790.842,-283.719"/>
</g>
<!-- Node19 -->
<g id="node19" class="node"><title>Node19</title>
<g id="a_node19"><a xlink:href="../../d1/dbe/classturtle_1_1_position.html#af03c1c3b306f6c12d2ec52a00fde50eb" target="_top" xlink:title="turtle.Position.setXPos">
<polygon fill="white" stroke="black" points="760,-190.5 760,-209.5 884,-209.5 884,-190.5 760,-190.5"/>
<text text-anchor="middle" x="822" y="-197.5" font-family="Helvetica,sans-Serif" font-size="10.00">turtle.Position.setXPos</text>
</a>
</g>
</g>
<!-- Node18&#45;&gt;Node19 -->
<g id="edge21" class="edge"><title>Node18&#45;&gt;Node19</title>
<path fill="none" stroke="midnightblue" d="M704.369,-200C718.731,-200 734.405,-200 749.469,-200"/>
<polygon fill="midnightblue" stroke="midnightblue" points="749.777,-203.5 759.776,-200 749.776,-196.5 749.777,-203.5"/>
</g>
<!-- Node21 -->
<g id="node21" class="node"><title>Node21</title>
<g id="a_node21"><a xlink:href="../../dc/d19/class_view_1_1_pen.html#ad2b5fd226e4003bbb48f13018bc72916" target="_top" xlink:title="View.Pen.setLineStyle">
<polygon fill="white" stroke="black" points="762,-38.5 762,-57.5 882,-57.5 882,-38.5 762,-38.5"/>
<text text-anchor="middle" x="822" y="-45.5" font-family="Helvetica,sans-Serif" font-size="10.00">View.Pen.setLineStyle</text>
</a>
</g>
</g>
<!-- Node20&#45;&gt;Node21 -->
<g id="edge26" class="edge"><title>Node20&#45;&gt;Node21</title>
<path fill="none" stroke="midnightblue" d="M700.14,-48C716.365,-48 734.582,-48 751.855,-48"/>
<polygon fill="midnightblue" stroke="midnightblue" points="751.894,-51.5001 761.894,-48 751.894,-44.5001 751.894,-51.5001"/>
</g>
<!-- Node22 -->
<g id="node22" class="node"><title>Node22</title>
<g id="a_node22"><a xlink:href="../../dc/d86/class_g_u_i_functions_1_1_border_style.html#a20c91294c08c9b4b555f41cdf5941e45" target="_top" xlink:title="GUIFunctions.BorderStyle.get\lStyle">
<polygon fill="white" stroke="black" points="924.5,-33 924.5,-63 1081.5,-63 1081.5,-33 924.5,-33"/>
<text text-anchor="start" x="932.5" y="-51" font-family="Helvetica,sans-Serif" font-size="10.00">GUIFunctions.BorderStyle.get</text>
<text text-anchor="middle" x="1003" y="-40" font-family="Helvetica,sans-Serif" font-size="10.00">Style</text>
</a>
</g>
</g>
<!-- Node21&#45;&gt;Node22 -->
<g id="edge27" class="edge"><title>Node21&#45;&gt;Node22</title>
<path fill="none" stroke="midnightblue" d="M882.107,-48C892.477,-48 903.464,-48 914.413,-48"/>
<polygon fill="midnightblue" stroke="midnightblue" points="914.439,-51.5001 924.439,-48 914.439,-44.5001 914.439,-51.5001"/>
</g>
<!-- Node24 -->
<g id="node24" class="node"><title>Node24</title>
<g id="a_node24"><a xlink:href="../../d1/dbe/classturtle_1_1_position.html#a7c26cf9316a28fb4821731864ed28c95" target="_top" xlink:title="turtle.Position.setYPos">
<polygon fill="white" stroke="black" points="760.5,-0.5 760.5,-19.5 883.5,-19.5 883.5,-0.5 760.5,-0.5"/>
<text text-anchor="middle" x="822" y="-7.5" font-family="Helvetica,sans-Serif" font-size="10.00">turtle.Position.setYPos</text>
</a>
</g>
</g>
<!-- Node23&#45;&gt;Node24 -->
<g id="edge30" class="edge"><title>Node23&#45;&gt;Node24</title>
<path fill="none" stroke="midnightblue" d="M703.895,-10C718.653,-10 734.825,-10 750.311,-10"/>
<polygon fill="midnightblue" stroke="midnightblue" points="750.368,-13.5001 760.368,-10 750.368,-6.5001 750.368,-13.5001"/>
</g>
</g>
</svg>
        <g id="navigator" transform="translate(0 0)" fill="#404254">
                <rect fill="#f2f5e9" fill-opacity="0.5" stroke="#606060" stroke-width=".5" x="0" y="0" width="60" height="60"/>
                <use id="zoomplus" xlink:href="#zoomPlus" x="17" y="9" onmousedown="handleZoom(evt,'in')"/>
                <use id="zoomminus" xlink:href="#zoomMin" x="42" y="9" onmousedown="handleZoom(evt,'out')"/>
                <use id="reset" xlink:href="#resetDef" x="30" y="36" onmousedown="handleReset()"/>
                <g id="arrowUp" xlink:href="#dirArrow" transform="translate(30 24)" onmousedown="handlePan(0,-1)">
                  <use xlink:href="#rim" fill="#404040">
                        <set attributeName="fill" to="#808080" begin="arrowUp.mouseover" end="arrowUp.mouseout"/>
                  </use>
                  <path fill="none" stroke="white" stroke-width="1.5" d="M0,-3.0v7 M-2.5,-0.5L0,-3.0L2.5,-0.5"/>
                </g>
                <g id="arrowRight" xlink:href="#dirArrow" transform="rotate(90) translate(36 -43)" onmousedown="handlePan(1,0)">
                  <use xlink:href="#rim" fill="#404040">
                        <set attributeName="fill" to="#808080" begin="arrowRight.mouseover" end="arrowRight.mouseout"/>
                  </use>
                  <path fill="none" stroke="white" stroke-width="1.5" d="M0,-3.0v7 M-2.5,-0.5L0,-3.0L2.5,-0.5"/>
                </g>
                <g id="arrowDown" xlink:href="#dirArrow" transform="rotate(180) translate(-30 -48)" onmousedown="handlePan(0,1)">
                  <use xlink:href="#rim" fill="#404040">
                        <set attributeName="fill" to="#808080" begin="arrowDown.mouseover" end="arrowDown.mouseout"/>
                  </use>
                  <path fill="none" stroke="white" stroke-width="1.5" d="M0,-3.0v7 M-2.5,-0.5L0,-3.0L2.5,-0.5"/>
                </g>
                <g id="arrowLeft" xlink:href="#dirArrow" transform="rotate(270) translate(-36 17)" onmousedown="handlePan(-1,0)">
                  <use xlink:href="#rim" fill="#404040">
                        <set attributeName="fill" to="#808080" begin="arrowLeft.mouseover" end="arrowLeft.mouseout"/>
                  </use>
                  <path fill="none" stroke="white" stroke-width="1.5" d="M0,-3.0v7 M-2.5,-0.5L0,-3.0L2.5,-0.5"/>
                </g>
        </g>
        <svg viewBox="0 0 15 15" width="100%" height="30px" preserveAspectRatio="xMaxYMin meet">
         <g id="arrow_out" transform="scale(0.3 0.3)">
          <a xlink:href="class_g_u_i_functions_1_1_undo_a611c153735c5cbdbbfd8f55faa0adaae_cgraph_org.svg" target="_base">
           <rect id="button" ry="5" rx="5" y="6" x="6" height="38" width="38"
                fill="#f2f5e9" fill-opacity="0.5" stroke="#606060" stroke-width="1.0"/>
           <path id="arrow"
             d="M 11.500037,31.436501 C 11.940474,20.09759 22.043105,11.32322 32.158766,21.979434 L 37.068811,17.246167 C 37.068811,17.246167 37.088388,32 37.088388,32 L 22.160133,31.978069 C 22.160133,31.978069 26.997745,27.140456 26.997745,27.140456 C 18.528582,18.264221 13.291696,25.230495 11.500037,31.436501 z"
             style="fill:#404040;"/>
          </a>
         </g>
        </svg>
</svg>
