<?xml version="1.0" encoding="UTF-8" standalone="no"?>
<!DOCTYPE svg PUBLIC "-//W3C//DTD SVG 1.1//EN"
 "http://www.w3.org/Graphics/SVG/1.1/DTD/svg11.dtd">
<!-- Generated by graphviz version 2.36.0 (20140111.2315)
 -->
<!-- Title: SearchBox Pages: 1 -->
<svg width="234pt" height="104pt"
 viewBox="0.00 0.00 234.00 104.00" xmlns="http://www.w3.org/2000/svg" xmlns:xlink="http://www.w3.org/1999/xlink">
<g id="graph0" class="graph" transform="scale(1 1) rotate(0) translate(4 100)">
<title>SearchBox</title>
<polygon fill="white" stroke="none" points="-4,4 -4,-100 230,-100 230,4 -4,4"/>
<!-- Node1 -->
<g id="node1" class="node"><title>Node1</title>
<polygon fill="#bfbfbf" stroke="black" points="0,-38.5 0,-57.5 68,-57.5 68,-38.5 0,-38.5"/>
<text text-anchor="middle" x="34" y="-45.5" font-family="Helvetica,sans-Serif" font-size="10.00">SearchBox</text>
</g>
<!-- Node2 -->
<g id="node2" class="node"><title>Node2</title>
<g id="a_node2"><a xlink:href="../../d2/d19/search_8js.html#a76d24aea0009f892f8ccc31d941c0a2b" target="_top" xlink:title="getXPos">
<polygon fill="white" stroke="black" points="104,-76.5 104,-95.5 160,-95.5 160,-76.5 104,-76.5"/>
<text text-anchor="middle" x="132" y="-83.5" font-family="Helvetica,sans-Serif" font-size="10.00">getXPos</text>
</a>
</g>
</g>
<!-- Node1&#45;&gt;Node2 -->
<g id="edge1" class="edge"><title>Node1&#45;&gt;Node2</title>
<path fill="none" stroke="midnightblue" d="M59.2249,-57.589C70.708,-62.1344 84.6198,-67.6412 97.1269,-72.5919"/>
<polygon fill="midnightblue" stroke="midnightblue" points="96.1966,-75.9878 106.783,-76.4141 98.773,-69.4792 96.1966,-75.9878"/>
</g>
<!-- Node4 -->
<g id="node4" class="node"><title>Node4</title>
<g id="a_node4"><a xlink:href="../../d2/d19/search_8js.html#a8d7b405228661d7b6216b6925d2b8a69" target="_top" xlink:title="getYPos">
<polygon fill="white" stroke="black" points="104.5,-38.5 104.5,-57.5 159.5,-57.5 159.5,-38.5 104.5,-38.5"/>
<text text-anchor="middle" x="132" y="-45.5" font-family="Helvetica,sans-Serif" font-size="10.00">getYPos</text>
</a>
</g>
</g>
<!-- Node1&#45;&gt;Node4 -->
<g id="edge3" class="edge"><title>Node1&#45;&gt;Node4</title>
<path fill="none" stroke="midnightblue" d="M68.0378,-48C76.4437,-48 85.5298,-48 94.114,-48"/>
<polygon fill="midnightblue" stroke="midnightblue" points="94.2567,-51.5001 104.257,-48 94.2566,-44.5001 94.2567,-51.5001"/>
</g>
<!-- Node5 -->
<g id="node5" class="node"><title>Node5</title>
<g id="a_node5"><a xlink:href="../../d5/de7/jquery_8js.html#a9db6d45a025ad692282fe23e69eeba43" target="_top" xlink:title="if">
<polygon fill="white" stroke="black" points="117.5,-0.5 117.5,-19.5 146.5,-19.5 146.5,-0.5 117.5,-0.5"/>
<text text-anchor="middle" x="132" y="-7.5" font-family="Helvetica,sans-Serif" font-size="10.00">if</text>
</a>
</g>
</g>
<!-- Node1&#45;&gt;Node5 -->
<g id="edge4" class="edge"><title>Node1&#45;&gt;Node5</title>
<path fill="none" stroke="midnightblue" d="M59.2249,-38.411C74.2082,-32.4801 93.3265,-24.9124 108.064,-19.0789"/>
<polygon fill="midnightblue" stroke="midnightblue" points="109.452,-22.2937 117.462,-15.3589 106.876,-15.7851 109.452,-22.2937"/>
</g>
<!-- Node3 -->
<g id="node3" class="node"><title>Node3</title>
<g id="a_node3"><a xlink:href="../../d5/de7/jquery_8js.html#a4c3eadaa5164016d2c340d495fc6e55e" target="_top" xlink:title="x">
<polygon fill="white" stroke="black" points="196.5,-76.5 196.5,-95.5 225.5,-95.5 225.5,-76.5 196.5,-76.5"/>
<text text-anchor="middle" x="211" y="-83.5" font-family="Helvetica,sans-Serif" font-size="10.00">x</text>
</a>
</g>
</g>
<!-- Node2&#45;&gt;Node3 -->
<g id="edge2" class="edge"><title>Node2&#45;&gt;Node3</title>
<path fill="none" stroke="midnightblue" d="M160.364,-86C168.685,-86 177.766,-86 185.858,-86"/>
<polygon fill="midnightblue" stroke="midnightblue" points="186.117,-89.5001 196.117,-86 186.117,-82.5001 186.117,-89.5001"/>
</g>
</g>
</svg>
