<?xml version="1.0" encoding="UTF-8" standalone="no"?>
<!DOCTYPE svg PUBLIC "-//W3C//DTD SVG 1.1//EN"
 "http://www.w3.org/Graphics/SVG/1.1/DTD/svg11.dtd">
<!-- Generated by graphviz version 2.36.0 (20140111.2315)
 -->
<!-- Title: createResults Pages: 1 -->
<svg width="210pt" height="66pt"
 viewBox="0.00 0.00 210.00 66.00" xmlns="http://www.w3.org/2000/svg" xmlns:xlink="http://www.w3.org/1999/xlink">
<g id="graph0" class="graph" transform="scale(1 1) rotate(0) translate(4 62)">
<title>createResults</title>
<polygon fill="white" stroke="none" points="-4,4 -4,-62 206,-62 206,4 -4,4"/>
<!-- Node1 -->
<g id="node1" class="node"><title>Node1</title>
<polygon fill="#bfbfbf" stroke="black" points="0.5,-19.5 0.5,-38.5 81.5,-38.5 81.5,-19.5 0.5,-19.5"/>
<text text-anchor="middle" x="41" y="-26.5" font-family="Helvetica,sans-Serif" font-size="10.00">createResults</text>
</g>
<!-- Node2 -->
<g id="node2" class="node"><title>Node2</title>
<g id="a_node2"><a xlink:href="../../d2/d19/search_8js.html#a499422fc054a5278ae32801ec0082c56" target="_top" xlink:title="setClassAttr">
<polygon fill="white" stroke="black" points="122.5,-38.5 122.5,-57.5 197.5,-57.5 197.5,-38.5 122.5,-38.5"/>
<text text-anchor="middle" x="160" y="-45.5" font-family="Helvetica,sans-Serif" font-size="10.00">setClassAttr</text>
</a>
</g>
</g>
<!-- Node1&#45;&gt;Node2 -->
<g id="edge1" class="edge"><title>Node1&#45;&gt;Node2</title>
<path fill="none" stroke="midnightblue" d="M81.6109,-35.4325C91.4555,-37.0312 102.1,-38.7598 112.251,-40.4084"/>
<polygon fill="midnightblue" stroke="midnightblue" points="111.759,-43.8742 122.191,-42.0225 112.882,-36.9647 111.759,-43.8742"/>
</g>
<!-- Node3 -->
<g id="node3" class="node"><title>Node3</title>
<g id="a_node3"><a xlink:href="../../d2/d19/search_8js.html#a98192fa2929bb8e4b0a890a4909ab9b2" target="_top" xlink:title="setKeyActions">
<polygon fill="white" stroke="black" points="118.5,-0.5 118.5,-19.5 201.5,-19.5 201.5,-0.5 118.5,-0.5"/>
<text text-anchor="middle" x="160" y="-7.5" font-family="Helvetica,sans-Serif" font-size="10.00">setKeyActions</text>
</a>
</g>
</g>
<!-- Node1&#45;&gt;Node3 -->
<g id="edge2" class="edge"><title>Node1&#45;&gt;Node3</title>
<path fill="none" stroke="midnightblue" d="M81.6109,-22.5675C90.1846,-21.1752 99.3646,-19.6844 108.298,-18.2337"/>
<polygon fill="midnightblue" stroke="midnightblue" points="108.923,-21.678 118.233,-16.6203 107.801,-14.7685 108.923,-21.678"/>
</g>
</g>
</svg>
