<?xml version="1.0" encoding="UTF-8" standalone="no"?>
<!DOCTYPE svg PUBLIC "-//W3C//DTD SVG 1.1//EN"
 "http://www.w3.org/Graphics/SVG/1.1/DTD/svg11.dtd">
<!-- Generated by graphviz version 2.36.0 (20140111.2315)
 -->
<!-- Title: View.GridFactory Pages: 1 -->
<svg width="364pt" height="165pt"
 viewBox="0.00 0.00 364.00 165.00" xmlns="http://www.w3.org/2000/svg" xmlns:xlink="http://www.w3.org/1999/xlink">
<g id="graph0" class="graph" transform="scale(1 1) rotate(0) translate(4 161)">
<title>View.GridFactory</title>
<polygon fill="white" stroke="none" points="-4,4 -4,-161 360,-161 360,4 -4,4"/>
<!-- Node1 -->
<g id="node1" class="node"><title>Node1</title>
<polygon fill="#bfbfbf" stroke="black" points="260.5,-66.5 260.5,-85.5 355.5,-85.5 355.5,-66.5 260.5,-66.5"/>
<text text-anchor="middle" x="308" y="-73.5" font-family="Helvetica,sans-Serif" font-size="10.00">View.GridFactory</text>
</g>
<!-- Node2 -->
<g id="node2" class="node"><title>Node2</title>
<polygon fill="white" stroke="#bfbfbf" points="0.5,-127 0.5,-157 173.5,-157 173.5,-127 0.5,-127"/>
<text text-anchor="start" x="8.5" y="-145" font-family="Helvetica,sans-Serif" font-size="10.00">HashMap&lt; String, GUIFunctions.</text>
<text text-anchor="middle" x="87" y="-134" font-family="Helvetica,sans-Serif" font-size="10.00">GUIFunction &gt;</text>
</g>
<!-- Node2&#45;&gt;Node1 -->
<g id="edge1" class="edge"><title>Node2&#45;&gt;Node1</title>
<path fill="none" stroke="#9a32cd" stroke-dasharray="5,2" d="M163.225,-124.486C188.462,-118.075 216.63,-110.332 242,-102 256.55,-97.2217 272.523,-90.8486 284.994,-85.6081"/>
<polygon fill="#9a32cd" stroke="#9a32cd" points="162.19,-121.137 153.344,-126.966 163.895,-127.926 162.19,-121.137"/>
<text text-anchor="middle" x="217" y="-118" font-family="Helvetica,sans-Serif" font-size="10.00"> myMap</text>
</g>
<!-- Node3 -->
<g id="node3" class="node"><title>Node3</title>
<polygon fill="white" stroke="#bfbfbf" points="55.5,-88.5 55.5,-107.5 118.5,-107.5 118.5,-88.5 55.5,-88.5"/>
<text text-anchor="middle" x="87" y="-95.5" font-family="Helvetica,sans-Serif" font-size="10.00">KeyFrame</text>
</g>
<!-- Node3&#45;&gt;Node1 -->
<g id="edge2" class="edge"><title>Node3&#45;&gt;Node1</title>
<path fill="none" stroke="#9a32cd" stroke-dasharray="5,2" d="M128.923,-93.889C166.179,-90.1464 221.163,-84.6229 260.162,-80.7052"/>
<polygon fill="#9a32cd" stroke="#9a32cd" points="128.513,-90.4125 118.913,-94.8946 129.213,-97.3774 128.513,-90.4125"/>
<text text-anchor="middle" x="217" y="-90" font-family="Helvetica,sans-Serif" font-size="10.00"> myFrame</text>
</g>
<!-- Node4 -->
<g id="node4" class="node"><title>Node4</title>
<polygon fill="white" stroke="#bfbfbf" points="18.5,-39 18.5,-69 155.5,-69 155.5,-39 18.5,-39"/>
<text text-anchor="start" x="26.5" y="-57" font-family="Helvetica,sans-Serif" font-size="10.00">HashMap&lt; String, Class</text>
<text text-anchor="middle" x="87" y="-46" font-family="Helvetica,sans-Serif" font-size="10.00">&lt;?extends View.Grid &gt; &gt;</text>
</g>
<!-- Node4&#45;&gt;Node1 -->
<g id="edge3" class="edge"><title>Node4&#45;&gt;Node1</title>
<path fill="none" stroke="#9a32cd" stroke-dasharray="5,2" d="M166.112,-61.4527C190.43,-63.8147 217.332,-66.4704 242,-69 247.984,-69.6136 254.276,-70.2732 260.493,-70.9334"/>
<polygon fill="#9a32cd" stroke="#9a32cd" points="166.154,-57.9405 155.863,-60.4597 165.478,-64.9078 166.154,-57.9405"/>
<text text-anchor="middle" x="217" y="-72" font-family="Helvetica,sans-Serif" font-size="10.00"> myGrids</text>
</g>
<!-- Node5 -->
<g id="node5" class="node"><title>Node5</title>
<polygon fill="white" stroke="#bfbfbf" points="22.5,-0.5 22.5,-19.5 151.5,-19.5 151.5,-0.5 22.5,-0.5"/>
<text text-anchor="middle" x="87" y="-7.5" font-family="Helvetica,sans-Serif" font-size="10.00">Collection&lt; View.Grid &gt;</text>
</g>
<!-- Node5&#45;&gt;Node1 -->
<g id="edge4" class="edge"><title>Node5&#45;&gt;Node1</title>
<path fill="none" stroke="#9a32cd" stroke-dasharray="5,2" d="M144.367,-21.7573C154.276,-24.0222 164.465,-26.479 174,-29 204.58,-37.0853 212.18,-39.451 242,-50 256.208,-55.0263 271.902,-61.2834 284.31,-66.3998"/>
<polygon fill="#9a32cd" stroke="#9a32cd" points="145.11,-18.3371 134.586,-19.5612 143.576,-25.1671 145.11,-18.3371"/>
<text text-anchor="middle" x="217" y="-53" font-family="Helvetica,sans-Serif" font-size="10.00"> allGrids</text>
</g>
</g>
</svg>
