<?xml version="1.0" encoding="UTF-8" standalone="no"?>
<!DOCTYPE svg PUBLIC "-//W3C//DTD SVG 1.1//EN"
 "http://www.w3.org/Graphics/SVG/1.1/DTD/svg11.dtd">
<!-- Generated by graphviz version 2.36.0 (20140111.2315)
 -->
<!-- Title: commands.viewCommands.HideTurtleCommand.onExecute Pages: 1 -->
<!--zoomable 110 -->
<svg id="main" version="1.1" xmlns="http://www.w3.org/2000/svg" xmlns:xlink="http://www.w3.org/1999/xlink" xml:space="preserve" onload="init(evt)">
<style type="text/css"><![CDATA[
.edge:hover path { stroke: red; }
.edge:hover polygon { stroke: red; fill: red; }
]]></style>
<script type="text/javascript"><![CDATA[
var edges = document.getElementsByTagName('g');
if (edges && edges.length) {
  for (var i=0;i<edges.length;i++) {
    if (edges[i].id.substr(0,4)=='edge') {
      edges[i].setAttribute('class','edge');
    }
  }
}
]]></script>
        <defs>
                <circle id="rim" cx="0" cy="0" r="7"/>
                <circle id="rim2" cx="0" cy="0" r="3.5"/>
                <g id="zoomPlus">
                        <use xlink:href="#rim" fill="#404040">
                                <set attributeName="fill" to="#808080" begin="zoomplus.mouseover" end="zoomplus.mouseout"/>
                        </use>
                        <path d="M-4,0h8M0,-4v8" fill="none" stroke="white" stroke-width="1.5" pointer-events="none"/>
                </g>
                <g id="zoomMin">
                        <use xlink:href="#rim" fill="#404040">
                                <set attributeName="fill" to="#808080" begin="zoomminus.mouseover" end="zoomminus.mouseout"/>
                        </use>
                        <path d="M-4,0h8" fill="none" stroke="white" stroke-width="1.5" pointer-events="none"/>
                </g>
                <g id="dirArrow">
                        <path fill="none" stroke="white" stroke-width="1.5" d="M0,-3.0v7 M-2.5,-0.5L0,-3.0L2.5,-0.5"/>
                </g>
               <g id="resetDef">
                       <use xlink:href="#rim2" fill="#404040">
                               <set attributeName="fill" to="#808080" begin="reset.mouseover" end="reset.mouseout"/>
                       </use>
               </g>
        </defs>

<script type="text/javascript">
var viewWidth = 802;
var viewHeight = 110;
var sectionId = 'dynsection-2';
</script>
<script xlink:href="../../svgpan.js"/>
<svg id="graph" class="graph">
<g id="viewport">
<title>commands.viewCommands.HideTurtleCommand.onExecute</title>
<polygon fill="white" stroke="none" points="-4,4 -4,-106 798,-106 798,4 -4,4"/>
<!-- Node1 -->
<g id="node1" class="node"><title>Node1</title>
<polygon fill="#bfbfbf" stroke="black" points="0,-41 0,-71 174,-71 174,-41 0,-41"/>
<text text-anchor="start" x="8" y="-59" font-family="Helvetica,sans-Serif" font-size="10.00">commands.viewCommands.Hide</text>
<text text-anchor="middle" x="87" y="-48" font-family="Helvetica,sans-Serif" font-size="10.00">TurtleCommand.onExecute</text>
</g>
<!-- Node2 -->
<g id="node2" class="node"><title>Node2</title>
<g id="a_node2"><a xlink:href="../../d3/d03/classcommands_1_1turtle_commands_1_1_turtle_command.html#a82f290b3a2e14029a8a525bafa35994f" target="_top" xlink:title="commands.turtleCommands.\lTurtleCommand.getTurtleContainer">
<polygon fill="white" stroke="black" points="210.5,-66 210.5,-96 393.5,-96 393.5,-66 210.5,-66"/>
<text text-anchor="start" x="218.5" y="-84" font-family="Helvetica,sans-Serif" font-size="10.00">commands.turtleCommands.</text>
<text text-anchor="middle" x="302" y="-73" font-family="Helvetica,sans-Serif" font-size="10.00">TurtleCommand.getTurtleContainer</text>
</a>
</g>
</g>
<!-- Node1&#45;&gt;Node2 -->
<g id="edge1" class="edge"><title>Node1&#45;&gt;Node2</title>
<path fill="none" stroke="midnightblue" d="M174.021,-66.0964C182.746,-67.1204 191.661,-68.1667 200.52,-69.2066"/>
<polygon fill="midnightblue" stroke="midnightblue" points="200.146,-72.6866 210.485,-70.3762 200.962,-65.7343 200.146,-72.6866"/>
</g>
<!-- Node3 -->
<g id="node3" class="node"><title>Node3</title>
<g id="a_node3"><a xlink:href="../../d7/d28/classcommands_1_1information_1_1_base_turtle_container.html#abaad2067c7aa6d30d7307d9ec89dcb09" target="_top" xlink:title="commands.information.Base\lTurtleContainer.setVisibility">
<polygon fill="white" stroke="black" points="224.5,-17 224.5,-47 379.5,-47 379.5,-17 224.5,-17"/>
<text text-anchor="start" x="232.5" y="-35" font-family="Helvetica,sans-Serif" font-size="10.00">commands.information.Base</text>
<text text-anchor="middle" x="302" y="-24" font-family="Helvetica,sans-Serif" font-size="10.00">TurtleContainer.setVisibility</text>
</a>
</g>
</g>
<!-- Node1&#45;&gt;Node3 -->
<g id="edge2" class="edge"><title>Node1&#45;&gt;Node3</title>
<path fill="none" stroke="midnightblue" d="M174.021,-46.3075C187.27,-44.8146 200.959,-43.2723 214.224,-41.7776"/>
<polygon fill="midnightblue" stroke="midnightblue" points="214.726,-45.2432 224.271,-40.6455 213.942,-38.2872 214.726,-45.2432"/>
</g>
<!-- Node4 -->
<g id="node4" class="node"><title>Node4</title>
<g id="a_node4"><a xlink:href="../../d7/d28/classcommands_1_1information_1_1_base_turtle_container.html#ae3f987ec79fb3318d8c3a1c8bd65f67b" target="_top" xlink:title="commands.information.Base\lTurtleContainer.loopOverTurtle">
<polygon fill="white" stroke="black" points="430.5,-39 430.5,-69 589.5,-69 589.5,-39 430.5,-39"/>
<text text-anchor="start" x="438.5" y="-57" font-family="Helvetica,sans-Serif" font-size="10.00">commands.information.Base</text>
<text text-anchor="middle" x="510" y="-46" font-family="Helvetica,sans-Serif" font-size="10.00">TurtleContainer.loopOverTurtle</text>
</a>
</g>
</g>
<!-- Node3&#45;&gt;Node4 -->
<g id="edge3" class="edge"><title>Node3&#45;&gt;Node4</title>
<path fill="none" stroke="midnightblue" d="M379.707,-40.192C392.833,-41.5938 406.57,-43.0609 419.985,-44.4935"/>
<polygon fill="midnightblue" stroke="midnightblue" points="419.85,-47.9989 430.165,-45.5807 420.593,-41.0385 419.85,-47.9989"/>
</g>
<!-- Node7 -->
<g id="node7" class="node"><title>Node7</title>
<g id="a_node7"><a xlink:href="../../df/dcb/classturtle_1_1_turtle.html#ad4dfb04902d608e2f19920540a4e54ca" target="_top" xlink:title="turtle.Turtle.setVisibility">
<polygon fill="white" stroke="black" points="446.5,-0.5 446.5,-19.5 573.5,-19.5 573.5,-0.5 446.5,-0.5"/>
<text text-anchor="middle" x="510" y="-7.5" font-family="Helvetica,sans-Serif" font-size="10.00">turtle.Turtle.setVisibility</text>
</a>
</g>
</g>
<!-- Node3&#45;&gt;Node7 -->
<g id="edge6" class="edge"><title>Node3&#45;&gt;Node7</title>
<path fill="none" stroke="midnightblue" d="M379.707,-23.808C398.238,-21.8289 417.987,-19.7199 436.327,-17.7612"/>
<polygon fill="midnightblue" stroke="midnightblue" points="436.782,-21.2326 446.354,-16.6903 436.039,-14.2721 436.782,-21.2326"/>
</g>
<!-- Node5 -->
<g id="node5" class="node"><title>Node5</title>
<g id="a_node5"><a xlink:href="../../d1/d39/interfacecommands_1_1information_1_1_base_turtle_container_1_1_turtle_action_with_result.html#a5043750fe9ea0b38e426614c999c9d60" target="_top" xlink:title="commands.information.Base\lTurtleContainer.TurtleActionWith\lResult.execute">
<polygon fill="white" stroke="black" points="626.5,-60.5 626.5,-101.5 793.5,-101.5 793.5,-60.5 626.5,-60.5"/>
<text text-anchor="start" x="634.5" y="-89.5" font-family="Helvetica,sans-Serif" font-size="10.00">commands.information.Base</text>
<text text-anchor="start" x="634.5" y="-78.5" font-family="Helvetica,sans-Serif" font-size="10.00">TurtleContainer.TurtleActionWith</text>
<text text-anchor="middle" x="710" y="-67.5" font-family="Helvetica,sans-Serif" font-size="10.00">Result.execute</text>
</a>
</g>
</g>
<!-- Node4&#45;&gt;Node5 -->
<g id="edge4" class="edge"><title>Node4&#45;&gt;Node5</title>
<path fill="none" stroke="midnightblue" d="M589.539,-64.7099C598.325,-65.908 607.336,-67.1367 616.278,-68.3561"/>
<polygon fill="midnightblue" stroke="midnightblue" points="615.948,-71.8435 626.33,-69.7268 616.894,-64.9076 615.948,-71.8435"/>
</g>
<!-- Node6 -->
<g id="node6" class="node"><title>Node6</title>
<g id="a_node6"><a xlink:href="../../d7/d28/classcommands_1_1information_1_1_base_turtle_container.html#a704eca72b47c6a35888f2868beaec2d3" target="_top" xlink:title="commands.information.Base\lTurtleContainer.getActiveTurtles">
<polygon fill="white" stroke="black" points="626.5,-12 626.5,-42 793.5,-42 793.5,-12 626.5,-12"/>
<text text-anchor="start" x="634.5" y="-30" font-family="Helvetica,sans-Serif" font-size="10.00">commands.information.Base</text>
<text text-anchor="middle" x="710" y="-19" font-family="Helvetica,sans-Serif" font-size="10.00">TurtleContainer.getActiveTurtles</text>
</a>
</g>
</g>
<!-- Node4&#45;&gt;Node6 -->
<g id="edge5" class="edge"><title>Node4&#45;&gt;Node6</title>
<path fill="none" stroke="midnightblue" d="M589.539,-43.2901C598.325,-42.092 607.336,-40.8633 616.278,-39.6439"/>
<polygon fill="midnightblue" stroke="midnightblue" points="616.894,-43.0924 626.33,-38.2732 615.948,-36.1565 616.894,-43.0924"/>
</g>
</g>
</svg>
        <g id="navigator" transform="translate(0 0)" fill="#404254">
                <rect fill="#f2f5e9" fill-opacity="0.5" stroke="#606060" stroke-width=".5" x="0" y="0" width="60" height="60"/>
                <use id="zoomplus" xlink:href="#zoomPlus" x="17" y="9" onmousedown="handleZoom(evt,'in')"/>
                <use id="zoomminus" xlink:href="#zoomMin" x="42" y="9" onmousedown="handleZoom(evt,'out')"/>
                <use id="reset" xlink:href="#resetDef" x="30" y="36" onmousedown="handleReset()"/>
                <g id="arrowUp" xlink:href="#dirArrow" transform="translate(30 24)" onmousedown="handlePan(0,-1)">
                  <use xlink:href="#rim" fill="#404040">
                        <set attributeName="fill" to="#808080" begin="arrowUp.mouseover" end="arrowUp.mouseout"/>
                  </use>
                  <path fill="none" stroke="white" stroke-width="1.5" d="M0,-3.0v7 M-2.5,-0.5L0,-3.0L2.5,-0.5"/>
                </g>
                <g id="arrowRight" xlink:href="#dirArrow" transform="rotate(90) translate(36 -43)" onmousedown="handlePan(1,0)">
                  <use xlink:href="#rim" fill="#404040">
                        <set attributeName="fill" to="#808080" begin="arrowRight.mouseover" end="arrowRight.mouseout"/>
                  </use>
                  <path fill="none" stroke="white" stroke-width="1.5" d="M0,-3.0v7 M-2.5,-0.5L0,-3.0L2.5,-0.5"/>
                </g>
                <g id="arrowDown" xlink:href="#dirArrow" transform="rotate(180) translate(-30 -48)" onmousedown="handlePan(0,1)">
                  <use xlink:href="#rim" fill="#404040">
                        <set attributeName="fill" to="#808080" begin="arrowDown.mouseover" end="arrowDown.mouseout"/>
                  </use>
                  <path fill="none" stroke="white" stroke-width="1.5" d="M0,-3.0v7 M-2.5,-0.5L0,-3.0L2.5,-0.5"/>
                </g>
                <g id="arrowLeft" xlink:href="#dirArrow" transform="rotate(270) translate(-36 17)" onmousedown="handlePan(-1,0)">
                  <use xlink:href="#rim" fill="#404040">
                        <set attributeName="fill" to="#808080" begin="arrowLeft.mouseover" end="arrowLeft.mouseout"/>
                  </use>
                  <path fill="none" stroke="white" stroke-width="1.5" d="M0,-3.0v7 M-2.5,-0.5L0,-3.0L2.5,-0.5"/>
                </g>
        </g>
        <svg viewBox="0 0 15 15" width="100%" height="30px" preserveAspectRatio="xMaxYMin meet">
         <g id="arrow_out" transform="scale(0.3 0.3)">
          <a xlink:href="classcommands_1_1view_commands_1_1_hide_turtle_command_ae576730cb9ad5d764e58521e520ae61a_cgraph_org.svg" target="_base">
           <rect id="button" ry="5" rx="5" y="6" x="6" height="38" width="38"
                fill="#f2f5e9" fill-opacity="0.5" stroke="#606060" stroke-width="1.0"/>
           <path id="arrow"
             d="M 11.500037,31.436501 C 11.940474,20.09759 22.043105,11.32322 32.158766,21.979434 L 37.068811,17.246167 C 37.068811,17.246167 37.088388,32 37.088388,32 L 22.160133,31.978069 C 22.160133,31.978069 26.997745,27.140456 26.997745,27.140456 C 18.528582,18.264221 13.291696,25.230495 11.500037,31.436501 z"
             style="fill:#404040;"/>
          </a>
         </g>
        </svg>
</svg>
