<?xml version="1.0" encoding="UTF-8" standalone="no"?>
<!DOCTYPE svg PUBLIC "-//W3C//DTD SVG 1.1//EN"
 "http://www.w3.org/Graphics/SVG/1.1/DTD/svg11.dtd">
<!-- Generated by graphviz version 2.36.0 (20140111.2315)
 -->
<!-- Title: GUIFunctions.ToggleGridLines.makeGridLines Pages: 1 -->
<svg width="602pt" height="69pt"
 viewBox="0.00 0.00 602.00 69.00" xmlns="http://www.w3.org/2000/svg" xmlns:xlink="http://www.w3.org/1999/xlink">
<g id="graph0" class="graph" transform="scale(1 1) rotate(0) translate(4 65)">
<title>GUIFunctions.ToggleGridLines.makeGridLines</title>
<polygon fill="white" stroke="none" points="-4,4 -4,-65 598,-65 598,4 -4,4"/>
<!-- Node1 -->
<g id="node1" class="node"><title>Node1</title>
<polygon fill="#bfbfbf" stroke="black" points="0,-16 0,-46 186,-46 186,-16 0,-16"/>
<text text-anchor="start" x="8" y="-34" font-family="Helvetica,sans-Serif" font-size="10.00">GUIFunctions.ToggleGridLines.make</text>
<text text-anchor="middle" x="93" y="-23" font-family="Helvetica,sans-Serif" font-size="10.00">GridLines</text>
</g>
<!-- Node2 -->
<g id="node2" class="node"><title>Node2</title>
<g id="a_node2"><a xlink:href="../../d8/df7/class_g_u_i_functions_1_1_toggle_grid_lines.html#a1417481b2244a2a27dfc2e797f24363a" target="_top" xlink:title="GUIFunctions.ToggleGridLines.draw\lGridLine">
<polygon fill="white" stroke="black" points="222,-16 222,-46 404,-46 404,-16 222,-16"/>
<text text-anchor="start" x="230" y="-34" font-family="Helvetica,sans-Serif" font-size="10.00">GUIFunctions.ToggleGridLines.draw</text>
<text text-anchor="middle" x="313" y="-23" font-family="Helvetica,sans-Serif" font-size="10.00">GridLine</text>
</a>
</g>
</g>
<!-- Node1&#45;&gt;Node2 -->
<g id="edge1" class="edge"><title>Node1&#45;&gt;Node2</title>
<path fill="none" stroke="midnightblue" d="M186.136,-31C194.655,-31 203.315,-31 211.901,-31"/>
<polygon fill="midnightblue" stroke="midnightblue" points="211.933,-34.5001 221.933,-31 211.933,-27.5001 211.933,-34.5001"/>
</g>
<!-- Node3 -->
<g id="node3" class="node"><title>Node3</title>
<g id="a_node3"><a xlink:href="../../d9/db1/class_view_1_1_single_grid.html#ae8506f6c15fbb963a16613ed3410d8b6" target="_top" xlink:title="View.SingleGrid.getMyHeight">
<polygon fill="white" stroke="black" points="440.5,-41.5 440.5,-60.5 593.5,-60.5 593.5,-41.5 440.5,-41.5"/>
<text text-anchor="middle" x="517" y="-48.5" font-family="Helvetica,sans-Serif" font-size="10.00">View.SingleGrid.getMyHeight</text>
</a>
</g>
</g>
<!-- Node1&#45;&gt;Node3 -->
<g id="edge4" class="edge"><title>Node1&#45;&gt;Node3</title>
<path fill="none" stroke="midnightblue" d="M161.097,-46.0002C180.631,-49.7086 202.076,-53.1483 222,-55 302.542,-62.4856 323.124,-56.4438 404,-55 412.551,-54.8473 421.468,-54.6292 430.373,-54.3725"/>
<polygon fill="midnightblue" stroke="midnightblue" points="430.512,-57.87 440.401,-54.0678 430.299,-50.8732 430.512,-57.87"/>
</g>
<!-- Node4 -->
<g id="node4" class="node"><title>Node4</title>
<g id="a_node4"><a xlink:href="../../d9/db1/class_view_1_1_single_grid.html#abf0fa2de53fc785c35795d2b13ad4c24" target="_top" xlink:title="View.SingleGrid.getMyWidth">
<polygon fill="white" stroke="black" points="443,-0.5 443,-19.5 591,-19.5 591,-0.5 443,-0.5"/>
<text text-anchor="middle" x="517" y="-7.5" font-family="Helvetica,sans-Serif" font-size="10.00">View.SingleGrid.getMyWidth</text>
</a>
</g>
</g>
<!-- Node1&#45;&gt;Node4 -->
<g id="edge5" class="edge"><title>Node1&#45;&gt;Node4</title>
<path fill="none" stroke="midnightblue" d="M158.104,-15.9669C178.417,-11.8814 201.041,-8.02765 222,-6 302.513,1.78901 323.124,-4.55625 404,-6 413.313,-6.16625 423.059,-6.41019 432.751,-6.69695"/>
<polygon fill="midnightblue" stroke="midnightblue" points="432.707,-10.1972 442.811,-7.00984 432.924,-3.20056 432.707,-10.1972"/>
</g>
<!-- Node2&#45;&gt;Node3 -->
<g id="edge2" class="edge"><title>Node2&#45;&gt;Node3</title>
<path fill="none" stroke="midnightblue" d="M404.071,-39.9179C412.767,-40.7789 421.572,-41.6507 430.225,-42.5075"/>
<polygon fill="midnightblue" stroke="midnightblue" points="430.001,-46.0023 440.297,-43.5047 430.691,-39.0363 430.001,-46.0023"/>
</g>
<!-- Node2&#45;&gt;Node4 -->
<g id="edge3" class="edge"><title>Node2&#45;&gt;Node4</title>
<path fill="none" stroke="midnightblue" d="M404.071,-21.6362C413.574,-20.6482 423.208,-19.6467 432.631,-18.6671"/>
<polygon fill="midnightblue" stroke="midnightblue" points="433.171,-22.1298 442.756,-17.6145 432.448,-15.1674 433.171,-22.1298"/>
</g>
</g>
</svg>
