<?xml version="1.0" encoding="UTF-8" standalone="no"?>
<!DOCTYPE svg PUBLIC "-//W3C//DTD SVG 1.1//EN"
 "http://www.w3.org/Graphics/SVG/1.1/DTD/svg11.dtd">
<!-- Generated by graphviz version 2.36.0 (20140111.2315)
 -->
<!-- Title: GUIFunctions.ToggleGridLines.drawGridLine Pages: 1 -->
<svg width="380pt" height="66pt"
 viewBox="0.00 0.00 380.00 66.00" xmlns="http://www.w3.org/2000/svg" xmlns:xlink="http://www.w3.org/1999/xlink">
<g id="graph0" class="graph" transform="scale(1 1) rotate(0) translate(4 62)">
<title>GUIFunctions.ToggleGridLines.drawGridLine</title>
<polygon fill="white" stroke="none" points="-4,4 -4,-62 376,-62 376,4 -4,4"/>
<!-- Node1 -->
<g id="node1" class="node"><title>Node1</title>
<polygon fill="#bfbfbf" stroke="black" points="0,-14 0,-44 182,-44 182,-14 0,-14"/>
<text text-anchor="start" x="8" y="-32" font-family="Helvetica,sans-Serif" font-size="10.00">GUIFunctions.ToggleGridLines.draw</text>
<text text-anchor="middle" x="91" y="-21" font-family="Helvetica,sans-Serif" font-size="10.00">GridLine</text>
</g>
<!-- Node2 -->
<g id="node2" class="node"><title>Node2</title>
<g id="a_node2"><a xlink:href="../../d9/db1/class_view_1_1_single_grid.html#ae8506f6c15fbb963a16613ed3410d8b6" target="_top" xlink:title="View.SingleGrid.getMyHeight">
<polygon fill="white" stroke="black" points="218.5,-38.5 218.5,-57.5 371.5,-57.5 371.5,-38.5 218.5,-38.5"/>
<text text-anchor="middle" x="295" y="-45.5" font-family="Helvetica,sans-Serif" font-size="10.00">View.SingleGrid.getMyHeight</text>
</a>
</g>
</g>
<!-- Node1&#45;&gt;Node2 -->
<g id="edge1" class="edge"><title>Node1&#45;&gt;Node2</title>
<path fill="none" stroke="midnightblue" d="M182.071,-37.472C190.767,-38.29 199.572,-39.1182 208.225,-39.9321"/>
<polygon fill="midnightblue" stroke="midnightblue" points="208.013,-43.4275 218.297,-40.8794 208.669,-36.4583 208.013,-43.4275"/>
</g>
<!-- Node3 -->
<g id="node3" class="node"><title>Node3</title>
<g id="a_node3"><a xlink:href="../../d9/db1/class_view_1_1_single_grid.html#abf0fa2de53fc785c35795d2b13ad4c24" target="_top" xlink:title="View.SingleGrid.getMyWidth">
<polygon fill="white" stroke="black" points="221,-0.5 221,-19.5 369,-19.5 369,-0.5 221,-0.5"/>
<text text-anchor="middle" x="295" y="-7.5" font-family="Helvetica,sans-Serif" font-size="10.00">View.SingleGrid.getMyWidth</text>
</a>
</g>
</g>
<!-- Node1&#45;&gt;Node3 -->
<g id="edge2" class="edge"><title>Node1&#45;&gt;Node3</title>
<path fill="none" stroke="midnightblue" d="M182.071,-20.528C191.574,-19.6341 201.208,-18.728 210.631,-17.8417"/>
<polygon fill="midnightblue" stroke="midnightblue" points="211.128,-21.3105 220.756,-16.8893 210.472,-14.3412 211.128,-21.3105"/>
</g>
</g>
</svg>
