<?xml version="1.0" encoding="UTF-8" standalone="no"?>
<!DOCTYPE svg PUBLIC "-//W3C//DTD SVG 1.1//EN"
 "http://www.w3.org/Graphics/SVG/1.1/DTD/svg11.dtd">
<!-- Generated by graphviz version 2.36.0 (20140111.2315)
 -->
<!-- Title: GUIFunctions.ToggleGridLines.removeGridLines Pages: 1 -->
<svg width="412pt" height="38pt"
 viewBox="0.00 0.00 412.00 38.00" xmlns="http://www.w3.org/2000/svg" xmlns:xlink="http://www.w3.org/1999/xlink">
<g id="graph0" class="graph" transform="scale(1 1) rotate(0) translate(4 34)">
<title>GUIFunctions.ToggleGridLines.removeGridLines</title>
<polygon fill="white" stroke="none" points="-4,4 -4,-34 408,-34 408,4 -4,4"/>
<!-- Node1 -->
<g id="node1" class="node"><title>Node1</title>
<polygon fill="#bfbfbf" stroke="black" points="0,-0 0,-30 196,-30 196,-0 0,-0"/>
<text text-anchor="start" x="8" y="-18" font-family="Helvetica,sans-Serif" font-size="10.00">GUIFunctions.ToggleGridLines.remove</text>
<text text-anchor="middle" x="98" y="-7" font-family="Helvetica,sans-Serif" font-size="10.00">GridLines</text>
</g>
<!-- Node2 -->
<g id="node2" class="node"><title>Node2</title>
<g id="a_node2"><a xlink:href="../../d8/df7/class_g_u_i_functions_1_1_toggle_grid_lines.html#a64d65a7ba6c511ab405924d32825ed17" target="_top" xlink:title="GUIFunctions.ToggleGridLines.do\lAction">
<polygon fill="white" stroke="black" points="232.5,-0 232.5,-30 403.5,-30 403.5,-0 232.5,-0"/>
<text text-anchor="start" x="240.5" y="-18" font-family="Helvetica,sans-Serif" font-size="10.00">GUIFunctions.ToggleGridLines.do</text>
<text text-anchor="middle" x="318" y="-7" font-family="Helvetica,sans-Serif" font-size="10.00">Action</text>
</a>
</g>
</g>
<!-- Node1&#45;&gt;Node2 -->
<g id="edge1" class="edge"><title>Node1&#45;&gt;Node2</title>
<path fill="none" stroke="midnightblue" d="M206.393,-15C215.088,-15 223.796,-15 232.297,-15"/>
<polygon fill="midnightblue" stroke="midnightblue" points="206.205,-11.5001 196.205,-15 206.205,-18.5001 206.205,-11.5001"/>
</g>
</g>
</svg>
