<?xml version="1.0" encoding="UTF-8" standalone="no"?>
<!DOCTYPE svg PUBLIC "-//W3C//DTD SVG 1.1//EN"
 "http://www.w3.org/Graphics/SVG/1.1/DTD/svg11.dtd">
<!-- Generated by graphviz version 2.36.0 (20140111.2315)
 -->
<!-- Title: GUIFunctions.PersonalizeMenu Pages: 1 -->
<svg width="718pt" height="126pt"
 viewBox="0.00 0.00 718.00 126.00" xmlns="http://www.w3.org/2000/svg" xmlns:xlink="http://www.w3.org/1999/xlink">
<g id="graph0" class="graph" transform="scale(1 1) rotate(0) translate(4 122)">
<title>GUIFunctions.PersonalizeMenu</title>
<polygon fill="white" stroke="none" points="-4,4 -4,-122 714,-122 714,4 -4,4"/>
<!-- Node1 -->
<g id="node1" class="node"><title>Node1</title>
<polygon fill="#bfbfbf" stroke="black" points="354.5,-49.5 354.5,-68.5 517.5,-68.5 517.5,-49.5 354.5,-49.5"/>
<text text-anchor="middle" x="436" y="-56.5" font-family="Helvetica,sans-Serif" font-size="10.00">GUIFunctions.PersonalizeMenu</text>
</g>
<!-- Node4 -->
<g id="node4" class="node"><title>Node4</title>
<g id="a_node4"><a xlink:href="../../dc/d8a/class_g_u_i_functions_1_1_set_background_image.html" target="_top" xlink:title="GUIFunctions.SetBackground\lImage">
<polygon fill="white" stroke="black" points="554.5,-88 554.5,-118 709.5,-118 709.5,-88 554.5,-88"/>
<text text-anchor="start" x="562.5" y="-106" font-family="Helvetica,sans-Serif" font-size="10.00">GUIFunctions.SetBackground</text>
<text text-anchor="middle" x="632" y="-95" font-family="Helvetica,sans-Serif" font-size="10.00">Image</text>
</a>
</g>
</g>
<!-- Node1&#45;&gt;Node4 -->
<g id="edge3" class="edge"><title>Node1&#45;&gt;Node4</title>
<path fill="none" stroke="midnightblue" d="M489.085,-70.8132C512.294,-76.0769 539.904,-82.3391 564.575,-87.9346"/>
<polygon fill="midnightblue" stroke="midnightblue" points="489.622,-67.346 479.095,-68.5473 488.073,-74.1726 489.622,-67.346"/>
</g>
<!-- Node5 -->
<g id="node5" class="node"><title>Node5</title>
<g id="a_node5"><a xlink:href="../../d8/df7/class_g_u_i_functions_1_1_toggle_grid_lines.html" target="_top" xlink:title="GUIFunctions.ToggleGridLines">
<polygon fill="white" stroke="black" points="554,-49.5 554,-68.5 710,-68.5 710,-49.5 554,-49.5"/>
<text text-anchor="middle" x="632" y="-56.5" font-family="Helvetica,sans-Serif" font-size="10.00">GUIFunctions.ToggleGridLines</text>
</a>
</g>
</g>
<!-- Node1&#45;&gt;Node5 -->
<g id="edge4" class="edge"><title>Node1&#45;&gt;Node5</title>
<path fill="none" stroke="midnightblue" d="M527.754,-59C536.455,-59 545.223,-59 553.776,-59"/>
<polygon fill="midnightblue" stroke="midnightblue" points="527.588,-55.5001 517.588,-59 527.588,-62.5001 527.588,-55.5001"/>
</g>
<!-- Node6 -->
<g id="node6" class="node"><title>Node6</title>
<g id="a_node6"><a xlink:href="../../db/dd9/class_g_u_i_functions_1_1_turtle_image_change.html" target="_top" xlink:title="GUIFunctions.TurtleImage\lChange">
<polygon fill="white" stroke="black" points="563.5,-0 563.5,-30 700.5,-30 700.5,-0 563.5,-0"/>
<text text-anchor="start" x="571.5" y="-18" font-family="Helvetica,sans-Serif" font-size="10.00">GUIFunctions.TurtleImage</text>
<text text-anchor="middle" x="632" y="-7" font-family="Helvetica,sans-Serif" font-size="10.00">Change</text>
</a>
</g>
</g>
<!-- Node1&#45;&gt;Node6 -->
<g id="edge5" class="edge"><title>Node1&#45;&gt;Node6</title>
<path fill="none" stroke="midnightblue" d="M489.085,-47.1868C512.294,-41.9231 539.904,-35.6609 564.575,-30.0654"/>
<polygon fill="midnightblue" stroke="midnightblue" points="488.073,-43.8274 479.095,-49.4527 489.622,-50.654 488.073,-43.8274"/>
</g>
<!-- Node2 -->
<g id="node2" class="node"><title>Node2</title>
<g id="a_node2"><a xlink:href="../../de/dbd/class_g_u_i_functions_1_1_grid_function.html" target="_top" xlink:title="GUIFunctions.GridFunction">
<polygon fill="white" stroke="black" points="176.5,-49.5 176.5,-68.5 317.5,-68.5 317.5,-49.5 176.5,-49.5"/>
<text text-anchor="middle" x="247" y="-56.5" font-family="Helvetica,sans-Serif" font-size="10.00">GUIFunctions.GridFunction</text>
</a>
</g>
</g>
<!-- Node2&#45;&gt;Node1 -->
<g id="edge1" class="edge"><title>Node2&#45;&gt;Node1</title>
<path fill="none" stroke="midnightblue" d="M327.821,-59C336.581,-59 345.504,-59 354.275,-59"/>
<polygon fill="midnightblue" stroke="midnightblue" points="327.632,-55.5001 317.632,-59 327.632,-62.5001 327.632,-55.5001"/>
</g>
<!-- Node3 -->
<g id="node3" class="node"><title>Node3</title>
<g id="a_node3"><a xlink:href="../../d1/df5/interface_g_u_i_functions_1_1_g_u_i_function.html" target="_top" xlink:title="GUIFunctions.GUIFunction">
<polygon fill="white" stroke="black" points="0.5,-49.5 0.5,-68.5 139.5,-68.5 139.5,-49.5 0.5,-49.5"/>
<text text-anchor="middle" x="70" y="-56.5" font-family="Helvetica,sans-Serif" font-size="10.00">GUIFunctions.GUIFunction</text>
</a>
</g>
</g>
<!-- Node3&#45;&gt;Node2 -->
<g id="edge2" class="edge"><title>Node3&#45;&gt;Node2</title>
<path fill="none" stroke="midnightblue" d="M149.94,-59C158.759,-59 167.695,-59 176.386,-59"/>
<polygon fill="midnightblue" stroke="midnightblue" points="149.662,-55.5001 139.662,-59 149.662,-62.5001 149.662,-55.5001"/>
</g>
</g>
</svg>
