<?xml version="1.0" encoding="UTF-8" standalone="no"?>
<!DOCTYPE svg PUBLIC "-//W3C//DTD SVG 1.1//EN"
 "http://www.w3.org/Graphics/SVG/1.1/DTD/svg11.dtd">
<!-- Generated by graphviz version 2.36.0 (20140111.2315)
 -->
<!-- Title: GUIFunctions.PersonalizeMenu Pages: 1 -->
<!--zoomable 126 -->
<svg id="main" version="1.1" xmlns="http://www.w3.org/2000/svg" xmlns:xlink="http://www.w3.org/1999/xlink" xml:space="preserve" onload="init(evt)">
<style type="text/css"><![CDATA[
.edge:hover path { stroke: red; }
.edge:hover polygon { stroke: red; fill: red; }
]]></style>
<script type="text/javascript"><![CDATA[
var edges = document.getElementsByTagName('g');
if (edges && edges.length) {
  for (var i=0;i<edges.length;i++) {
    if (edges[i].id.substr(0,4)=='edge') {
      edges[i].setAttribute('class','edge');
    }
  }
}
]]></script>
        <defs>
                <circle id="rim" cx="0" cy="0" r="7"/>
                <circle id="rim2" cx="0" cy="0" r="3.5"/>
                <g id="zoomPlus">
                        <use xlink:href="#rim" fill="#404040">
                                <set attributeName="fill" to="#808080" begin="zoomplus.mouseover" end="zoomplus.mouseout"/>
                        </use>
                        <path d="M-4,0h8M0,-4v8" fill="none" stroke="white" stroke-width="1.5" pointer-events="none"/>
                </g>
                <g id="zoomMin">
                        <use xlink:href="#rim" fill="#404040">
                                <set attributeName="fill" to="#808080" begin="zoomminus.mouseover" end="zoomminus.mouseout"/>
                        </use>
                        <path d="M-4,0h8" fill="none" stroke="white" stroke-width="1.5" pointer-events="none"/>
                </g>
                <g id="dirArrow">
                        <path fill="none" stroke="white" stroke-width="1.5" d="M0,-3.0v7 M-2.5,-0.5L0,-3.0L2.5,-0.5"/>
                </g>
               <g id="resetDef">
                       <use xlink:href="#rim2" fill="#404040">
                               <set attributeName="fill" to="#808080" begin="reset.mouseover" end="reset.mouseout"/>
                       </use>
               </g>
        </defs>

<script type="text/javascript">
var viewWidth = 718;
var viewHeight = 126;
var sectionId = 'dynsection-0';
</script>
<script xlink:href="../../svgpan.js"/>
<svg id="graph" class="graph">
<g id="viewport">
<title>GUIFunctions.PersonalizeMenu</title>
<polygon fill="white" stroke="none" points="-4,4 -4,-122 714,-122 714,4 -4,4"/>
<!-- Node1 -->
<g id="node1" class="node"><title>Node1</title>
<polygon fill="#bfbfbf" stroke="black" points="354.5,-49.5 354.5,-68.5 517.5,-68.5 517.5,-49.5 354.5,-49.5"/>
<text text-anchor="middle" x="436" y="-56.5" font-family="Helvetica,sans-Serif" font-size="10.00">GUIFunctions.PersonalizeMenu</text>
</g>
<!-- Node4 -->
<g id="node4" class="node"><title>Node4</title>
<g id="a_node4"><a xlink:href="../../dc/d8a/class_g_u_i_functions_1_1_set_background_image.html" target="_top" xlink:title="GUIFunctions.SetBackground\lImage">
<polygon fill="white" stroke="black" points="554.5,-88 554.5,-118 709.5,-118 709.5,-88 554.5,-88"/>
<text text-anchor="start" x="562.5" y="-106" font-family="Helvetica,sans-Serif" font-size="10.00">GUIFunctions.SetBackground</text>
<text text-anchor="middle" x="632" y="-95" font-family="Helvetica,sans-Serif" font-size="10.00">Image</text>
</a>
</g>
</g>
<!-- Node1&#45;&gt;Node4 -->
<g id="edge3" class="edge"><title>Node1&#45;&gt;Node4</title>
<path fill="none" stroke="midnightblue" d="M489.085,-70.8132C512.294,-76.0769 539.904,-82.3391 564.575,-87.9346"/>
<polygon fill="midnightblue" stroke="midnightblue" points="489.622,-67.346 479.095,-68.5473 488.073,-74.1726 489.622,-67.346"/>
</g>
<!-- Node5 -->
<g id="node5" class="node"><title>Node5</title>
<g id="a_node5"><a xlink:href="../../d8/df7/class_g_u_i_functions_1_1_toggle_grid_lines.html" target="_top" xlink:title="GUIFunctions.ToggleGridLines">
<polygon fill="white" stroke="black" points="554,-49.5 554,-68.5 710,-68.5 710,-49.5 554,-49.5"/>
<text text-anchor="middle" x="632" y="-56.5" font-family="Helvetica,sans-Serif" font-size="10.00">GUIFunctions.ToggleGridLines</text>
</a>
</g>
</g>
<!-- Node1&#45;&gt;Node5 -->
<g id="edge4" class="edge"><title>Node1&#45;&gt;Node5</title>
<path fill="none" stroke="midnightblue" d="M527.754,-59C536.455,-59 545.223,-59 553.776,-59"/>
<polygon fill="midnightblue" stroke="midnightblue" points="527.588,-55.5001 517.588,-59 527.588,-62.5001 527.588,-55.5001"/>
</g>
<!-- Node6 -->
<g id="node6" class="node"><title>Node6</title>
<g id="a_node6"><a xlink:href="../../db/dd9/class_g_u_i_functions_1_1_turtle_image_change.html" target="_top" xlink:title="GUIFunctions.TurtleImage\lChange">
<polygon fill="white" stroke="black" points="563.5,-0 563.5,-30 700.5,-30 700.5,-0 563.5,-0"/>
<text text-anchor="start" x="571.5" y="-18" font-family="Helvetica,sans-Serif" font-size="10.00">GUIFunctions.TurtleImage</text>
<text text-anchor="middle" x="632" y="-7" font-family="Helvetica,sans-Serif" font-size="10.00">Change</text>
</a>
</g>
</g>
<!-- Node1&#45;&gt;Node6 -->
<g id="edge5" class="edge"><title>Node1&#45;&gt;Node6</title>
<path fill="none" stroke="midnightblue" d="M489.085,-47.1868C512.294,-41.9231 539.904,-35.6609 564.575,-30.0654"/>
<polygon fill="midnightblue" stroke="midnightblue" points="488.073,-43.8274 479.095,-49.4527 489.622,-50.654 488.073,-43.8274"/>
</g>
<!-- Node2 -->
<g id="node2" class="node"><title>Node2</title>
<g id="a_node2"><a xlink:href="../../de/dbd/class_g_u_i_functions_1_1_grid_function.html" target="_top" xlink:title="GUIFunctions.GridFunction">
<polygon fill="white" stroke="black" points="176.5,-49.5 176.5,-68.5 317.5,-68.5 317.5,-49.5 176.5,-49.5"/>
<text text-anchor="middle" x="247" y="-56.5" font-family="Helvetica,sans-Serif" font-size="10.00">GUIFunctions.GridFunction</text>
</a>
</g>
</g>
<!-- Node2&#45;&gt;Node1 -->
<g id="edge1" class="edge"><title>Node2&#45;&gt;Node1</title>
<path fill="none" stroke="midnightblue" d="M327.821,-59C336.581,-59 345.504,-59 354.275,-59"/>
<polygon fill="midnightblue" stroke="midnightblue" points="327.632,-55.5001 317.632,-59 327.632,-62.5001 327.632,-55.5001"/>
</g>
<!-- Node3 -->
<g id="node3" class="node"><title>Node3</title>
<g id="a_node3"><a xlink:href="../../d1/df5/interface_g_u_i_functions_1_1_g_u_i_function.html" target="_top" xlink:title="GUIFunctions.GUIFunction">
<polygon fill="white" stroke="black" points="0.5,-49.5 0.5,-68.5 139.5,-68.5 139.5,-49.5 0.5,-49.5"/>
<text text-anchor="middle" x="70" y="-56.5" font-family="Helvetica,sans-Serif" font-size="10.00">GUIFunctions.GUIFunction</text>
</a>
</g>
</g>
<!-- Node3&#45;&gt;Node2 -->
<g id="edge2" class="edge"><title>Node3&#45;&gt;Node2</title>
<path fill="none" stroke="midnightblue" d="M149.94,-59C158.759,-59 167.695,-59 176.386,-59"/>
<polygon fill="midnightblue" stroke="midnightblue" points="149.662,-55.5001 139.662,-59 149.662,-62.5001 149.662,-55.5001"/>
</g>
</g>
</svg>
        <g id="navigator" transform="translate(0 0)" fill="#404254">
                <rect fill="#f2f5e9" fill-opacity="0.5" stroke="#606060" stroke-width=".5" x="0" y="0" width="60" height="60"/>
                <use id="zoomplus" xlink:href="#zoomPlus" x="17" y="9" onmousedown="handleZoom(evt,'in')"/>
                <use id="zoomminus" xlink:href="#zoomMin" x="42" y="9" onmousedown="handleZoom(evt,'out')"/>
                <use id="reset" xlink:href="#resetDef" x="30" y="36" onmousedown="handleReset()"/>
                <g id="arrowUp" xlink:href="#dirArrow" transform="translate(30 24)" onmousedown="handlePan(0,-1)">
                  <use xlink:href="#rim" fill="#404040">
                        <set attributeName="fill" to="#808080" begin="arrowUp.mouseover" end="arrowUp.mouseout"/>
                  </use>
                  <path fill="none" stroke="white" stroke-width="1.5" d="M0,-3.0v7 M-2.5,-0.5L0,-3.0L2.5,-0.5"/>
                </g>
                <g id="arrowRight" xlink:href="#dirArrow" transform="rotate(90) translate(36 -43)" onmousedown="handlePan(1,0)">
                  <use xlink:href="#rim" fill="#404040">
                        <set attributeName="fill" to="#808080" begin="arrowRight.mouseover" end="arrowRight.mouseout"/>
                  </use>
                  <path fill="none" stroke="white" stroke-width="1.5" d="M0,-3.0v7 M-2.5,-0.5L0,-3.0L2.5,-0.5"/>
                </g>
                <g id="arrowDown" xlink:href="#dirArrow" transform="rotate(180) translate(-30 -48)" onmousedown="handlePan(0,1)">
                  <use xlink:href="#rim" fill="#404040">
                        <set attributeName="fill" to="#808080" begin="arrowDown.mouseover" end="arrowDown.mouseout"/>
                  </use>
                  <path fill="none" stroke="white" stroke-width="1.5" d="M0,-3.0v7 M-2.5,-0.5L0,-3.0L2.5,-0.5"/>
                </g>
                <g id="arrowLeft" xlink:href="#dirArrow" transform="rotate(270) translate(-36 17)" onmousedown="handlePan(-1,0)">
                  <use xlink:href="#rim" fill="#404040">
                        <set attributeName="fill" to="#808080" begin="arrowLeft.mouseover" end="arrowLeft.mouseout"/>
                  </use>
                  <path fill="none" stroke="white" stroke-width="1.5" d="M0,-3.0v7 M-2.5,-0.5L0,-3.0L2.5,-0.5"/>
                </g>
        </g>
        <svg viewBox="0 0 15 15" width="100%" height="30px" preserveAspectRatio="xMaxYMin meet">
         <g id="arrow_out" transform="scale(0.3 0.3)">
          <a xlink:href="class_g_u_i_functions_1_1_personalize_menu__inherit__graph_org.svg" target="_base">
           <rect id="button" ry="5" rx="5" y="6" x="6" height="38" width="38"
                fill="#f2f5e9" fill-opacity="0.5" stroke="#606060" stroke-width="1.0"/>
           <path id="arrow"
             d="M 11.500037,31.436501 C 11.940474,20.09759 22.043105,11.32322 32.158766,21.979434 L 37.068811,17.246167 C 37.068811,17.246167 37.088388,32 37.088388,32 L 22.160133,31.978069 C 22.160133,31.978069 26.997745,27.140456 26.997745,27.140456 C 18.528582,18.264221 13.291696,25.230495 11.500037,31.436501 z"
             style="fill:#404040;"/>
          </a>
         </g>
        </svg>
</svg>
