<?xml version="1.0" encoding="UTF-8" standalone="no"?>
<!DOCTYPE svg PUBLIC "-//W3C//DTD SVG 1.1//EN"
 "http://www.w3.org/Graphics/SVG/1.1/DTD/svg11.dtd">
<!-- Generated by graphviz version 2.36.0 (20140111.2315)
 -->
<!-- Title: View.TurtleMovement.TurtleMovement Pages: 1 -->
<svg width="676pt" height="180pt"
 viewBox="0.00 0.00 676.00 180.00" xmlns="http://www.w3.org/2000/svg" xmlns:xlink="http://www.w3.org/1999/xlink">
<g id="graph0" class="graph" transform="scale(1 1) rotate(0) translate(4 176)">
<title>View.TurtleMovement.TurtleMovement</title>
<polygon fill="white" stroke="none" points="-4,4 -4,-176 672,-176 672,4 -4,4"/>
<!-- Node1 -->
<g id="node1" class="node"><title>Node1</title>
<polygon fill="#bfbfbf" stroke="black" points="0,-71 0,-101 146,-101 146,-71 0,-71"/>
<text text-anchor="start" x="8" y="-89" font-family="Helvetica,sans-Serif" font-size="10.00">View.TurtleMovement.Turtle</text>
<text text-anchor="middle" x="73" y="-78" font-family="Helvetica,sans-Serif" font-size="10.00">Movement</text>
</g>
<!-- Node2 -->
<g id="node2" class="node"><title>Node2</title>
<g id="a_node2"><a xlink:href="../../df/dcb/classturtle_1_1_turtle.html#a81e35bc42c3ccb26e25ded71026cb173" target="_top" xlink:title="turtle.Turtle.move">
<polygon fill="white" stroke="black" points="182.5,-76.5 182.5,-95.5 283.5,-95.5 283.5,-76.5 182.5,-76.5"/>
<text text-anchor="middle" x="233" y="-83.5" font-family="Helvetica,sans-Serif" font-size="10.00">turtle.Turtle.move</text>
</a>
</g>
</g>
<!-- Node1&#45;&gt;Node2 -->
<g id="edge1" class="edge"><title>Node1&#45;&gt;Node2</title>
<path fill="none" stroke="midnightblue" d="M146.065,-86C154.744,-86 163.536,-86 172.017,-86"/>
<polygon fill="midnightblue" stroke="midnightblue" points="172.179,-89.5001 182.179,-86 172.179,-82.5001 172.179,-89.5001"/>
</g>
<!-- Node3 -->
<g id="node3" class="node"><title>Node3</title>
<g id="a_node3"><a xlink:href="../../d1/dbe/classturtle_1_1_position.html#a7bfd27ea2bf5e22d8de4a4e87b4df2ec" target="_top" xlink:title="turtle.Position.getRotate">
<polygon fill="white" stroke="black" points="329,-152.5 329,-171.5 461,-171.5 461,-152.5 329,-152.5"/>
<text text-anchor="middle" x="395" y="-159.5" font-family="Helvetica,sans-Serif" font-size="10.00">turtle.Position.getRotate</text>
</a>
</g>
</g>
<!-- Node2&#45;&gt;Node3 -->
<g id="edge2" class="edge"><title>Node2&#45;&gt;Node3</title>
<path fill="none" stroke="midnightblue" d="M245.778,-95.6838C261.686,-108.306 291.356,-130.266 320,-143 325.435,-145.416 331.237,-147.569 337.11,-149.476"/>
<polygon fill="midnightblue" stroke="midnightblue" points="336.424,-152.925 347.009,-152.458 338.443,-146.223 336.424,-152.925"/>
</g>
<!-- Node4 -->
<g id="node4" class="node"><title>Node4</title>
<g id="a_node4"><a xlink:href="../../d1/dbe/classturtle_1_1_position.html#a1d079c846ce96bf1c57da388c46669e1" target="_top" xlink:title="turtle.Position.getXPos">
<polygon fill="white" stroke="black" points="332.5,-114.5 332.5,-133.5 457.5,-133.5 457.5,-114.5 332.5,-114.5"/>
<text text-anchor="middle" x="395" y="-121.5" font-family="Helvetica,sans-Serif" font-size="10.00">turtle.Position.getXPos</text>
</a>
</g>
</g>
<!-- Node2&#45;&gt;Node4 -->
<g id="edge3" class="edge"><title>Node2&#45;&gt;Node4</title>
<path fill="none" stroke="midnightblue" d="M274.375,-95.589C295.488,-100.604 321.529,-106.788 343.917,-112.105"/>
<polygon fill="midnightblue" stroke="midnightblue" points="343.377,-115.574 353.916,-114.48 344.995,-108.764 343.377,-115.574"/>
</g>
<!-- Node5 -->
<g id="node5" class="node"><title>Node5</title>
<g id="a_node5"><a xlink:href="../../d1/dbe/classturtle_1_1_position.html#a3a68708e4dc3290c4ef0ecd511cc8c1f" target="_top" xlink:title="turtle.Position.getYPos">
<polygon fill="white" stroke="black" points="333,-76.5 333,-95.5 457,-95.5 457,-76.5 333,-76.5"/>
<text text-anchor="middle" x="395" y="-83.5" font-family="Helvetica,sans-Serif" font-size="10.00">turtle.Position.getYPos</text>
</a>
</g>
</g>
<!-- Node2&#45;&gt;Node5 -->
<g id="edge4" class="edge"><title>Node2&#45;&gt;Node5</title>
<path fill="none" stroke="midnightblue" d="M283.748,-86C295.981,-86 309.321,-86 322.361,-86"/>
<polygon fill="midnightblue" stroke="midnightblue" points="322.728,-89.5001 332.728,-86 322.728,-82.5001 322.728,-89.5001"/>
</g>
<!-- Node6 -->
<g id="node6" class="node"><title>Node6</title>
<g id="a_node6"><a xlink:href="../../df/dcb/classturtle_1_1_turtle.html#afb475cca08cde52e64bc6f9771c5b38b" target="_top" xlink:title="turtle.Turtle.moveHorizontal">
<polygon fill="white" stroke="black" points="320.5,-38.5 320.5,-57.5 469.5,-57.5 469.5,-38.5 320.5,-38.5"/>
<text text-anchor="middle" x="395" y="-45.5" font-family="Helvetica,sans-Serif" font-size="10.00">turtle.Turtle.moveHorizontal</text>
</a>
</g>
</g>
<!-- Node2&#45;&gt;Node6 -->
<g id="edge5" class="edge"><title>Node2&#45;&gt;Node6</title>
<path fill="none" stroke="midnightblue" d="M274.375,-76.411C295.488,-71.3965 321.529,-65.2119 343.917,-59.8947"/>
<polygon fill="midnightblue" stroke="midnightblue" points="344.995,-63.2361 353.916,-57.5201 343.377,-56.4256 344.995,-63.2361"/>
</g>
<!-- Node8 -->
<g id="node8" class="node"><title>Node8</title>
<g id="a_node8"><a xlink:href="../../df/dcb/classturtle_1_1_turtle.html#a991844b02fa4349c98830ccc21f436c8" target="_top" xlink:title="turtle.Turtle.moveVertical">
<polygon fill="white" stroke="black" points="327,-0.5 327,-19.5 463,-19.5 463,-0.5 327,-0.5"/>
<text text-anchor="middle" x="395" y="-7.5" font-family="Helvetica,sans-Serif" font-size="10.00">turtle.Turtle.moveVertical</text>
</a>
</g>
</g>
<!-- Node2&#45;&gt;Node8 -->
<g id="edge7" class="edge"><title>Node2&#45;&gt;Node8</title>
<path fill="none" stroke="midnightblue" d="M245.778,-76.3162C261.686,-63.6942 291.356,-41.7338 320,-29 325.435,-26.5837 331.237,-24.431 337.11,-22.5236"/>
<polygon fill="midnightblue" stroke="midnightblue" points="338.443,-25.7773 347.009,-19.5419 336.424,-19.0748 338.443,-25.7773"/>
</g>
<!-- Node7 -->
<g id="node7" class="node"><title>Node7</title>
<g id="a_node7"><a xlink:href="../../d1/dbe/classturtle_1_1_position.html#a62d4a90a8c507a6b714315b13203ddf2" target="_top" xlink:title="turtle.Position.moveHorizontal">
<polygon fill="white" stroke="black" points="506.5,-38.5 506.5,-57.5 667.5,-57.5 667.5,-38.5 506.5,-38.5"/>
<text text-anchor="middle" x="587" y="-45.5" font-family="Helvetica,sans-Serif" font-size="10.00">turtle.Position.moveHorizontal</text>
</a>
</g>
</g>
<!-- Node6&#45;&gt;Node7 -->
<g id="edge6" class="edge"><title>Node6&#45;&gt;Node7</title>
<path fill="none" stroke="midnightblue" d="M469.731,-48C478.447,-48 487.414,-48 496.319,-48"/>
<polygon fill="midnightblue" stroke="midnightblue" points="496.33,-51.5001 506.33,-48 496.33,-44.5001 496.33,-51.5001"/>
</g>
<!-- Node9 -->
<g id="node9" class="node"><title>Node9</title>
<g id="a_node9"><a xlink:href="../../d1/dbe/classturtle_1_1_position.html#af9d8009ae592a947ee9b50c54e4f7a4b" target="_top" xlink:title="turtle.Position.moveVertical">
<polygon fill="white" stroke="black" points="513,-0.5 513,-19.5 661,-19.5 661,-0.5 513,-0.5"/>
<text text-anchor="middle" x="587" y="-7.5" font-family="Helvetica,sans-Serif" font-size="10.00">turtle.Position.moveVertical</text>
</a>
</g>
</g>
<!-- Node8&#45;&gt;Node9 -->
<g id="edge8" class="edge"><title>Node8&#45;&gt;Node9</title>
<path fill="none" stroke="midnightblue" d="M463.254,-10C476.014,-10 489.507,-10 502.694,-10"/>
<polygon fill="midnightblue" stroke="midnightblue" points="502.701,-13.5001 512.701,-10 502.701,-6.5001 502.701,-13.5001"/>
</g>
</g>
</svg>
