<?xml version="1.0" encoding="UTF-8" standalone="no"?>
<!DOCTYPE svg PUBLIC "-//W3C//DTD SVG 1.1//EN"
 "http://www.w3.org/Graphics/SVG/1.1/DTD/svg11.dtd">
<!-- Generated by graphviz version 2.36.0 (20140111.2315)
 -->
<!-- Title: commands.turtleCommands.AskWithCommand.onExecute Pages: 1 -->
<svg width="630pt" height="273pt"
 viewBox="0.00 0.00 630.00 273.00" xmlns="http://www.w3.org/2000/svg" xmlns:xlink="http://www.w3.org/1999/xlink">
<g id="graph0" class="graph" transform="scale(1 1) rotate(0) translate(4 269)">
<title>commands.turtleCommands.AskWithCommand.onExecute</title>
<polygon fill="white" stroke="none" points="-4,4 -4,-269 626,-269 626,4 -4,4"/>
<!-- Node1 -->
<g id="node1" class="node"><title>Node1</title>
<polygon fill="#bfbfbf" stroke="black" points="0,-98 0,-128 158,-128 158,-98 0,-98"/>
<text text-anchor="start" x="8" y="-116" font-family="Helvetica,sans-Serif" font-size="10.00">commands.turtleCommands.</text>
<text text-anchor="middle" x="79" y="-105" font-family="Helvetica,sans-Serif" font-size="10.00">AskWithCommand.onExecute</text>
</g>
<!-- Node2 -->
<g id="node2" class="node"><title>Node2</title>
<g id="a_node2"><a xlink:href="../../da/d90/classcommands_1_1_base_command.html#a68a349a085c4b05af0a55943da86598b" target="_top" xlink:title="commands.BaseCommand.execute">
<polygon fill="white" stroke="black" points="194.5,-196.5 194.5,-215.5 383.5,-215.5 383.5,-196.5 194.5,-196.5"/>
<text text-anchor="middle" x="289" y="-203.5" font-family="Helvetica,sans-Serif" font-size="10.00">commands.BaseCommand.execute</text>
</a>
</g>
</g>
<!-- Node1&#45;&gt;Node2 -->
<g id="edge1" class="edge"><title>Node1&#45;&gt;Node2</title>
<path fill="none" stroke="midnightblue" d="M98.9814,-128.229C120.691,-144.887 157.911,-171.182 194,-186 201.462,-189.064 209.457,-191.683 217.519,-193.918"/>
<polygon fill="midnightblue" stroke="midnightblue" points="216.797,-197.346 227.354,-196.456 218.546,-190.568 216.797,-197.346"/>
</g>
<!-- Node6 -->
<g id="node6" class="node"><title>Node6</title>
<g id="a_node6"><a xlink:href="../../d7/d28/classcommands_1_1information_1_1_base_turtle_container.html#a8c96eca4730cea72f30e52b1fe4e6a96" target="_top" xlink:title="commands.information.Base\lTurtleContainer.getActiveTurtlesByID">
<polygon fill="white" stroke="black" points="195,-147 195,-177 383,-177 383,-147 195,-147"/>
<text text-anchor="start" x="203" y="-165" font-family="Helvetica,sans-Serif" font-size="10.00">commands.information.Base</text>
<text text-anchor="middle" x="289" y="-154" font-family="Helvetica,sans-Serif" font-size="10.00">TurtleContainer.getActiveTurtlesByID</text>
</a>
</g>
</g>
<!-- Node1&#45;&gt;Node6 -->
<g id="edge6" class="edge"><title>Node1&#45;&gt;Node6</title>
<path fill="none" stroke="midnightblue" d="M143.82,-128.035C166.182,-133.302 191.471,-139.26 214.557,-144.698"/>
<polygon fill="midnightblue" stroke="midnightblue" points="213.764,-148.107 224.3,-146.994 215.369,-141.294 213.764,-148.107"/>
</g>
<!-- Node7 -->
<g id="node7" class="node"><title>Node7</title>
<g id="a_node7"><a xlink:href="../../d7/d28/classcommands_1_1information_1_1_base_turtle_container.html#a99170f95221aba731f3b00e96d02a1fe" target="_top" xlink:title="commands.information.Base\lTurtleContainer.getAllTurtlesByID">
<polygon fill="white" stroke="black" points="204,-98 204,-128 374,-128 374,-98 204,-98"/>
<text text-anchor="start" x="212" y="-116" font-family="Helvetica,sans-Serif" font-size="10.00">commands.information.Base</text>
<text text-anchor="middle" x="289" y="-105" font-family="Helvetica,sans-Serif" font-size="10.00">TurtleContainer.getAllTurtlesByID</text>
</a>
</g>
</g>
<!-- Node1&#45;&gt;Node7 -->
<g id="edge7" class="edge"><title>Node1&#45;&gt;Node7</title>
<path fill="none" stroke="midnightblue" d="M158.043,-113C169.751,-113 181.927,-113 193.926,-113"/>
<polygon fill="midnightblue" stroke="midnightblue" points="193.949,-116.5 203.949,-113 193.949,-109.5 193.949,-116.5"/>
</g>
<!-- Node8 -->
<g id="node8" class="node"><title>Node8</title>
<g id="a_node8"><a xlink:href="../../d3/d03/classcommands_1_1turtle_commands_1_1_turtle_command.html#a82f290b3a2e14029a8a525bafa35994f" target="_top" xlink:title="commands.turtleCommands.\lTurtleCommand.getTurtleContainer">
<polygon fill="white" stroke="black" points="197.5,-49 197.5,-79 380.5,-79 380.5,-49 197.5,-49"/>
<text text-anchor="start" x="205.5" y="-67" font-family="Helvetica,sans-Serif" font-size="10.00">commands.turtleCommands.</text>
<text text-anchor="middle" x="289" y="-56" font-family="Helvetica,sans-Serif" font-size="10.00">TurtleCommand.getTurtleContainer</text>
</a>
</g>
</g>
<!-- Node1&#45;&gt;Node8 -->
<g id="edge8" class="edge"><title>Node1&#45;&gt;Node8</title>
<path fill="none" stroke="midnightblue" d="M143.82,-97.9654C166.182,-92.6976 191.471,-86.7399 214.557,-81.3016"/>
<polygon fill="midnightblue" stroke="midnightblue" points="215.369,-84.706 224.3,-79.0062 213.764,-77.8925 215.369,-84.706"/>
</g>
<!-- Node9 -->
<g id="node9" class="node"><title>Node9</title>
<g id="a_node9"><a xlink:href="../../d7/d28/classcommands_1_1information_1_1_base_turtle_container.html#a9fb79a4f75b92d4fbc1c1a0d26483c73" target="_top" xlink:title="commands.information.Base\lTurtleContainer.hardSetActiveTurtles">
<polygon fill="white" stroke="black" points="194.5,-0 194.5,-30 383.5,-30 383.5,-0 194.5,-0"/>
<text text-anchor="start" x="202.5" y="-18" font-family="Helvetica,sans-Serif" font-size="10.00">commands.information.Base</text>
<text text-anchor="middle" x="289" y="-7" font-family="Helvetica,sans-Serif" font-size="10.00">TurtleContainer.hardSetActiveTurtles</text>
</a>
</g>
</g>
<!-- Node1&#45;&gt;Node9 -->
<g id="edge9" class="edge"><title>Node1&#45;&gt;Node9</title>
<path fill="none" stroke="midnightblue" d="M99.0598,-97.8199C120.84,-81.1653 158.122,-54.7161 194,-39 198.701,-36.9409 203.614,-35.032 208.623,-33.2667"/>
<polygon fill="midnightblue" stroke="midnightblue" points="209.949,-36.5142 218.341,-30.0471 207.748,-29.8694 209.949,-36.5142"/>
</g>
<!-- Node2&#45;&gt;Node2 -->
<g id="edge2" class="edge"><title>Node2&#45;&gt;Node2</title>
<path fill="none" stroke="midnightblue" d="M256.895,-215.612C240.769,-224.461 251.471,-234 289,-234 316.561,-234 329.653,-228.856 328.277,-222.618"/>
<polygon fill="midnightblue" stroke="midnightblue" points="330.704,-220.096 321.105,-215.612 325.813,-225.104 330.704,-220.096"/>
</g>
<!-- Node3 -->
<g id="node3" class="node"><title>Node3</title>
<g id="a_node3"><a xlink:href="../../da/d90/classcommands_1_1_base_command.html#a90abff4a812d84d0454cb095e03c6e08" target="_top" xlink:title="commands.BaseCommand.get\lNextCommand">
<polygon fill="white" stroke="black" points="437.5,-235 437.5,-265 604.5,-265 604.5,-235 437.5,-235"/>
<text text-anchor="start" x="445.5" y="-253" font-family="Helvetica,sans-Serif" font-size="10.00">commands.BaseCommand.get</text>
<text text-anchor="middle" x="521" y="-242" font-family="Helvetica,sans-Serif" font-size="10.00">NextCommand</text>
</a>
</g>
</g>
<!-- Node2&#45;&gt;Node3 -->
<g id="edge3" class="edge"><title>Node2&#45;&gt;Node3</title>
<path fill="none" stroke="midnightblue" d="M339.907,-215.547C366.611,-220.656 400.298,-227.101 431.293,-233.03"/>
<polygon fill="midnightblue" stroke="midnightblue" points="430.77,-236.493 441.249,-234.935 432.085,-229.618 430.77,-236.493"/>
</g>
<!-- Node4 -->
<g id="node4" class="node"><title>Node4</title>
<g id="a_node4"><a xlink:href="../../da/d90/classcommands_1_1_base_command.html#aad4544c0bd9d40769d8997e4d6d97b08" target="_top" xlink:title="commands.BaseCommand.onExecute">
<polygon fill="white" stroke="black" points="420.5,-196.5 420.5,-215.5 621.5,-215.5 621.5,-196.5 420.5,-196.5"/>
<text text-anchor="middle" x="521" y="-203.5" font-family="Helvetica,sans-Serif" font-size="10.00">commands.BaseCommand.onExecute</text>
</a>
</g>
</g>
<!-- Node2&#45;&gt;Node4 -->
<g id="edge4" class="edge"><title>Node2&#45;&gt;Node4</title>
<path fill="none" stroke="midnightblue" d="M383.55,-206C392.315,-206 401.252,-206 410.149,-206"/>
<polygon fill="midnightblue" stroke="midnightblue" points="410.164,-209.5 420.164,-206 410.164,-202.5 410.164,-209.5"/>
</g>
<!-- Node5 -->
<g id="node5" class="node"><title>Node5</title>
<g id="a_node5"><a xlink:href="../../da/d90/classcommands_1_1_base_command.html#a37ff254bd611b07ea38aaaf85447a2c3" target="_top" xlink:title="commands.BaseCommand.reset">
<polygon fill="white" stroke="black" points="433,-158.5 433,-177.5 609,-177.5 609,-158.5 433,-158.5"/>
<text text-anchor="middle" x="521" y="-165.5" font-family="Helvetica,sans-Serif" font-size="10.00">commands.BaseCommand.reset</text>
</a>
</g>
</g>
<!-- Node2&#45;&gt;Node5 -->
<g id="edge5" class="edge"><title>Node2&#45;&gt;Node5</title>
<path fill="none" stroke="midnightblue" d="M347.742,-196.46C379.458,-191.22 418.974,-184.691 452.156,-179.209"/>
<polygon fill="midnightblue" stroke="midnightblue" points="452.939,-182.627 462.234,-177.544 451.798,-175.721 452.939,-182.627"/>
</g>
</g>
</svg>
