<?xml version="1.0" encoding="UTF-8" standalone="no"?>
<!DOCTYPE svg PUBLIC "-//W3C//DTD SVG 1.1//EN"
 "http://www.w3.org/Graphics/SVG/1.1/DTD/svg11.dtd">
<!-- Generated by graphviz version 2.36.0 (20140111.2315)
 -->
<!-- Title: commands.TurtleQuery.parseArguments Pages: 1 -->
<svg width="1098pt" height="304pt"
 viewBox="0.00 0.00 1098.00 304.00" xmlns="http://www.w3.org/2000/svg" xmlns:xlink="http://www.w3.org/1999/xlink">
<g id="graph0" class="graph" transform="scale(1 1) rotate(0) translate(4 300)">
<title>commands.TurtleQuery.parseArguments</title>
<polygon fill="white" stroke="none" points="-4,4 -4,-300 1094,-300 1094,4 -4,4"/>
<!-- Node1 -->
<g id="node1" class="node"><title>Node1</title>
<polygon fill="#bfbfbf" stroke="black" points="0,-149 0,-179 156,-179 156,-149 0,-149"/>
<text text-anchor="start" x="8" y="-167" font-family="Helvetica,sans-Serif" font-size="10.00">commands.TurtleQuery.parse</text>
<text text-anchor="middle" x="78" y="-156" font-family="Helvetica,sans-Serif" font-size="10.00">Arguments</text>
</g>
<!-- Node2 -->
<g id="node2" class="node"><title>Node2</title>
<g id="a_node2"><a xlink:href="../../d0/d90/classcommands_1_1_turtle_query.html#ad733accf88a20c715fea9ca25f1e633d" target="_top" xlink:title="commands.TurtleQuery.get\lArgumentCount">
<polygon fill="white" stroke="black" points="202.5,-174 202.5,-204 347.5,-204 347.5,-174 202.5,-174"/>
<text text-anchor="start" x="210.5" y="-192" font-family="Helvetica,sans-Serif" font-size="10.00">commands.TurtleQuery.get</text>
<text text-anchor="middle" x="275" y="-181" font-family="Helvetica,sans-Serif" font-size="10.00">ArgumentCount</text>
</a>
</g>
</g>
<!-- Node1&#45;&gt;Node2 -->
<g id="edge1" class="edge"><title>Node1&#45;&gt;Node2</title>
<path fill="none" stroke="midnightblue" d="M156.069,-173.881C167.962,-175.405 180.28,-176.985 192.271,-178.522"/>
<polygon fill="midnightblue" stroke="midnightblue" points="191.886,-182.001 202.25,-179.801 192.776,-175.058 191.886,-182.001"/>
</g>
<!-- Node3 -->
<g id="node3" class="node"><title>Node3</title>
<g id="a_node3"><a xlink:href="../../da/d90/classcommands_1_1_base_command.html#a4f771af3c6b3345e720f2ef455e6d1e2" target="_top" xlink:title="commands.BaseCommand.set\lLeftoverCommands">
<polygon fill="white" stroke="black" points="192,-125 192,-155 358,-155 358,-125 192,-125"/>
<text text-anchor="start" x="200" y="-143" font-family="Helvetica,sans-Serif" font-size="10.00">commands.BaseCommand.set</text>
<text text-anchor="middle" x="275" y="-132" font-family="Helvetica,sans-Serif" font-size="10.00">LeftoverCommands</text>
</a>
</g>
</g>
<!-- Node1&#45;&gt;Node3 -->
<g id="edge2" class="edge"><title>Node1&#45;&gt;Node3</title>
<path fill="none" stroke="midnightblue" d="M156.069,-154.515C164.486,-153.479 173.115,-152.417 181.691,-151.361"/>
<polygon fill="midnightblue" stroke="midnightblue" points="182.22,-154.823 191.718,-150.127 181.365,-147.875 182.22,-154.823"/>
</g>
<!-- Node4 -->
<g id="node4" class="node"><title>Node4</title>
<g id="a_node4"><a xlink:href="../../da/dc6/classcommand_parser_1_1_command_factory.html#a84097b97d8a8ff95b3118ebddff9f33a" target="_top" xlink:title="commandParser.CommandFactory.create\lCommand">
<polygon fill="white" stroke="black" points="394.5,-125 394.5,-155 609.5,-155 609.5,-125 394.5,-125"/>
<text text-anchor="start" x="402.5" y="-143" font-family="Helvetica,sans-Serif" font-size="10.00">commandParser.CommandFactory.create</text>
<text text-anchor="middle" x="502" y="-132" font-family="Helvetica,sans-Serif" font-size="10.00">Command</text>
</a>
</g>
</g>
<!-- Node3&#45;&gt;Node4 -->
<g id="edge3" class="edge"><title>Node3&#45;&gt;Node4</title>
<path fill="none" stroke="midnightblue" d="M358.185,-140C366.759,-140 375.586,-140 384.448,-140"/>
<polygon fill="midnightblue" stroke="midnightblue" points="384.455,-143.5 394.455,-140 384.455,-136.5 384.455,-143.5"/>
</g>
<!-- Node5 -->
<g id="node5" class="node"><title>Node5</title>
<g id="a_node5"><a xlink:href="../../d4/d05/classcommands_1_1information_1_1_base_user_defined_container.html#abbef8e1f3137aa92b5ca708b18981aac" target="_top" xlink:title="commands.information.Base\lUserDefinedContainer.containsCustom\lCommand">
<polygon fill="white" stroke="black" points="653.5,-254.5 653.5,-295.5 856.5,-295.5 856.5,-254.5 653.5,-254.5"/>
<text text-anchor="start" x="661.5" y="-283.5" font-family="Helvetica,sans-Serif" font-size="10.00">commands.information.Base</text>
<text text-anchor="start" x="661.5" y="-272.5" font-family="Helvetica,sans-Serif" font-size="10.00">UserDefinedContainer.containsCustom</text>
<text text-anchor="middle" x="755" y="-261.5" font-family="Helvetica,sans-Serif" font-size="10.00">Command</text>
</a>
</g>
</g>
<!-- Node4&#45;&gt;Node5 -->
<g id="edge4" class="edge"><title>Node4&#45;&gt;Node5</title>
<path fill="none" stroke="midnightblue" d="M519.299,-155.109C544.572,-177.771 595.577,-220.509 646,-245 650.261,-247.07 654.689,-249.017 659.212,-250.847"/>
<polygon fill="midnightblue" stroke="midnightblue" points="658.019,-254.138 668.609,-254.438 660.518,-247.599 658.019,-254.138"/>
</g>
<!-- Node7 -->
<g id="node7" class="node"><title>Node7</title>
<g id="a_node7"><a xlink:href="../../dd/df5/interfacecommands_1_1information_1_1_i_information_gateway.html#a7288ceac89a0755490d929dc28df39f0" target="_top" xlink:title="commands.information.IInformation\lGateway.getContainers">
<polygon fill="white" stroke="black" points="661,-206 661,-236 849,-236 849,-206 661,-206"/>
<text text-anchor="start" x="669" y="-224" font-family="Helvetica,sans-Serif" font-size="10.00">commands.information.IInformation</text>
<text text-anchor="middle" x="755" y="-213" font-family="Helvetica,sans-Serif" font-size="10.00">Gateway.getContainers</text>
</a>
</g>
</g>
<!-- Node4&#45;&gt;Node7 -->
<g id="edge6" class="edge"><title>Node4&#45;&gt;Node7</title>
<path fill="none" stroke="midnightblue" d="M537.174,-155.011C565.835,-167.204 608.052,-184.246 646,-196 654.573,-198.655 663.606,-201.173 672.648,-203.515"/>
<polygon fill="midnightblue" stroke="midnightblue" points="671.888,-206.933 682.441,-205.985 673.601,-200.145 671.888,-206.933"/>
</g>
<!-- Node8 -->
<g id="node8" class="node"><title>Node8</title>
<g id="a_node8"><a xlink:href="../../d4/d05/classcommands_1_1information_1_1_base_user_defined_container.html#a22a65948b69ed0032f4d904e13c69491" target="_top" xlink:title="commands.information.Base\lUserDefinedContainer.getCreated\lCommand">
<polygon fill="white" stroke="black" points="665.5,-146.5 665.5,-187.5 844.5,-187.5 844.5,-146.5 665.5,-146.5"/>
<text text-anchor="start" x="673.5" y="-175.5" font-family="Helvetica,sans-Serif" font-size="10.00">commands.information.Base</text>
<text text-anchor="start" x="673.5" y="-164.5" font-family="Helvetica,sans-Serif" font-size="10.00">UserDefinedContainer.getCreated</text>
<text text-anchor="middle" x="755" y="-153.5" font-family="Helvetica,sans-Serif" font-size="10.00">Command</text>
</a>
</g>
</g>
<!-- Node4&#45;&gt;Node8 -->
<g id="edge7" class="edge"><title>Node4&#45;&gt;Node8</title>
<path fill="none" stroke="midnightblue" d="M609.811,-151.49C624.88,-153.111 640.317,-154.771 655.226,-156.375"/>
<polygon fill="midnightblue" stroke="midnightblue" points="655.135,-159.885 665.452,-157.475 655.884,-152.925 655.135,-159.885"/>
</g>
<!-- Node9 -->
<g id="node9" class="node"><title>Node9</title>
<g id="a_node9"><a xlink:href="../../da/d90/classcommands_1_1_base_command.html#a03dca0b542f5be4aa804297cea2688b5" target="_top" xlink:title="commands.BaseCommand.get\lRequiredInformationTypes">
<polygon fill="white" stroke="black" points="671.5,-98 671.5,-128 838.5,-128 838.5,-98 671.5,-98"/>
<text text-anchor="start" x="679.5" y="-116" font-family="Helvetica,sans-Serif" font-size="10.00">commands.BaseCommand.get</text>
<text text-anchor="middle" x="755" y="-105" font-family="Helvetica,sans-Serif" font-size="10.00">RequiredInformationTypes</text>
</a>
</g>
</g>
<!-- Node4&#45;&gt;Node9 -->
<g id="edge8" class="edge"><title>Node4&#45;&gt;Node9</title>
<path fill="none" stroke="midnightblue" d="M609.811,-128.51C626.827,-126.68 644.312,-124.799 660.977,-123.006"/>
<polygon fill="midnightblue" stroke="midnightblue" points="661.668,-126.452 671.236,-121.903 660.919,-119.493 661.668,-126.452"/>
</g>
<!-- Node10 -->
<g id="node10" class="node"><title>Node10</title>
<g id="a_node10"><a xlink:href="../../da/dc6/classcommand_parser_1_1_command_factory.html#a5c750e1a1a32bd314bf662dd5cfdc951" target="_top" xlink:title="commandParser.CommandFactory.identify\lFirstCommand">
<polygon fill="white" stroke="black" points="646,-49 646,-79 864,-79 864,-49 646,-49"/>
<text text-anchor="start" x="654" y="-67" font-family="Helvetica,sans-Serif" font-size="10.00">commandParser.CommandFactory.identify</text>
<text text-anchor="middle" x="755" y="-56" font-family="Helvetica,sans-Serif" font-size="10.00">FirstCommand</text>
</a>
</g>
</g>
<!-- Node4&#45;&gt;Node10 -->
<g id="edge9" class="edge"><title>Node4&#45;&gt;Node10</title>
<path fill="none" stroke="midnightblue" d="M541.448,-124.928C570.012,-114.065 610.082,-99.5243 646,-89 654.979,-86.3692 664.442,-83.8361 673.881,-81.4584"/>
<polygon fill="midnightblue" stroke="midnightblue" points="674.818,-84.8323 683.689,-79.0392 673.142,-78.036 674.818,-84.8323"/>
</g>
<!-- Node11 -->
<g id="node11" class="node"><title>Node11</title>
<g id="a_node11"><a xlink:href="../../da/d90/classcommands_1_1_base_command.html#aa64b92d5d7753574941c38218a271b0d" target="_top" xlink:title="commands.BaseCommand.set\lRequiredInformation">
<polygon fill="white" stroke="black" points="672,-0 672,-30 838,-30 838,-0 672,-0"/>
<text text-anchor="start" x="680" y="-18" font-family="Helvetica,sans-Serif" font-size="10.00">commands.BaseCommand.set</text>
<text text-anchor="middle" x="755" y="-7" font-family="Helvetica,sans-Serif" font-size="10.00">RequiredInformation</text>
</a>
</g>
</g>
<!-- Node4&#45;&gt;Node11 -->
<g id="edge10" class="edge"><title>Node4&#45;&gt;Node11</title>
<path fill="none" stroke="midnightblue" d="M520.155,-124.657C545.725,-102.607 596.184,-62.1787 646,-40 651.654,-37.4829 657.591,-35.2037 663.652,-33.1423"/>
<polygon fill="midnightblue" stroke="midnightblue" points="664.79,-36.4529 673.254,-30.0795 662.663,-29.784 664.79,-36.4529"/>
</g>
<!-- Node6 -->
<g id="node6" class="node"><title>Node6</title>
<g id="a_node6"><a xlink:href="../../d4/d05/classcommands_1_1information_1_1_base_user_defined_container.html#a2c1da98631c577bddaaa7f4ad5ae8aaa" target="_top" xlink:title="commands.information.Base\lUserDefinedContainer.getAllCustom\lCommands">
<polygon fill="white" stroke="black" points="900.5,-254.5 900.5,-295.5 1089.5,-295.5 1089.5,-254.5 900.5,-254.5"/>
<text text-anchor="start" x="908.5" y="-283.5" font-family="Helvetica,sans-Serif" font-size="10.00">commands.information.Base</text>
<text text-anchor="start" x="908.5" y="-272.5" font-family="Helvetica,sans-Serif" font-size="10.00">UserDefinedContainer.getAllCustom</text>
<text text-anchor="middle" x="995" y="-261.5" font-family="Helvetica,sans-Serif" font-size="10.00">Commands</text>
</a>
</g>
</g>
<!-- Node5&#45;&gt;Node6 -->
<g id="edge5" class="edge"><title>Node5&#45;&gt;Node6</title>
<path fill="none" stroke="midnightblue" d="M856.588,-275C867.662,-275 878.953,-275 890.065,-275"/>
<polygon fill="midnightblue" stroke="midnightblue" points="890.21,-278.5 900.21,-275 890.21,-271.5 890.21,-278.5"/>
</g>
</g>
</svg>
