<?xml version="1.0" encoding="UTF-8" standalone="no"?>
<!DOCTYPE svg PUBLIC "-//W3C//DTD SVG 1.1//EN"
 "http://www.w3.org/Graphics/SVG/1.1/DTD/svg11.dtd">
<!-- Generated by graphviz version 2.36.0 (20140111.2315)
 -->
<!-- Title: commandParser.LanguageFileParser.translateByRegex Pages: 1 -->
<svg width="1762pt" height="1410pt"
 viewBox="0.00 0.00 1762.00 1410.00" xmlns="http://www.w3.org/2000/svg" xmlns:xlink="http://www.w3.org/1999/xlink">
<g id="graph0" class="graph" transform="scale(1 1) rotate(0) translate(4 1406)">
<title>commandParser.LanguageFileParser.translateByRegex</title>
<polygon fill="white" stroke="none" points="-4,4 -4,-1406 1758,-1406 1758,4 -4,4"/>
<!-- Node1 -->
<g id="node1" class="node"><title>Node1</title>
<polygon fill="#bfbfbf" stroke="black" points="0,-1150 0,-1180 160,-1180 160,-1150 0,-1150"/>
<text text-anchor="start" x="8" y="-1168" font-family="Helvetica,sans-Serif" font-size="10.00">commandParser.LanguageFile</text>
<text text-anchor="middle" x="80" y="-1157" font-family="Helvetica,sans-Serif" font-size="10.00">Parser.translateByRegex</text>
</g>
<!-- Node2 -->
<g id="node2" class="node"><title>Node2</title>
<g id="a_node2"><a xlink:href="../../d8/d54/classcommand_parser_1_1_language_file_parser.html#ae72a7da2ee20fd99c35ef282d1b455d5" target="_top" xlink:title="commandParser.LanguageFile\lParser.translateCommand">
<polygon fill="white" stroke="black" points="196,-1150 196,-1180 356,-1180 356,-1150 196,-1150"/>
<text text-anchor="start" x="204" y="-1168" font-family="Helvetica,sans-Serif" font-size="10.00">commandParser.LanguageFile</text>
<text text-anchor="middle" x="276" y="-1157" font-family="Helvetica,sans-Serif" font-size="10.00">Parser.translateCommand</text>
</a>
</g>
</g>
<!-- Node1&#45;&gt;Node2 -->
<g id="edge1" class="edge"><title>Node1&#45;&gt;Node2</title>
<path fill="none" stroke="midnightblue" d="M170.436,-1165C178.884,-1165 187.408,-1165 195.752,-1165"/>
<polygon fill="midnightblue" stroke="midnightblue" points="170.187,-1161.5 160.187,-1165 170.187,-1168.5 170.187,-1161.5"/>
</g>
<!-- Node3 -->
<g id="node3" class="node"><title>Node3</title>
<g id="a_node3"><a xlink:href="../../d8/d54/classcommand_parser_1_1_language_file_parser.html#ae28bcd29168ebd799eed22a0661dc383" target="_top" xlink:title="commandParser.LanguageFile\lParser.translateUserInputIntoEnglish">
<polygon fill="white" stroke="black" points="392,-1150 392,-1180 582,-1180 582,-1150 392,-1150"/>
<text text-anchor="start" x="400" y="-1168" font-family="Helvetica,sans-Serif" font-size="10.00">commandParser.LanguageFile</text>
<text text-anchor="middle" x="487" y="-1157" font-family="Helvetica,sans-Serif" font-size="10.00">Parser.translateUserInputIntoEnglish</text>
</a>
</g>
</g>
<!-- Node2&#45;&gt;Node3 -->
<g id="edge2" class="edge"><title>Node2&#45;&gt;Node3</title>
<path fill="none" stroke="midnightblue" d="M366.237,-1165C374.685,-1165 383.27,-1165 391.763,-1165"/>
<polygon fill="midnightblue" stroke="midnightblue" points="366.014,-1161.5 356.014,-1165 366.014,-1168.5 366.014,-1161.5"/>
</g>
<!-- Node4 -->
<g id="node4" class="node"><title>Node4</title>
<g id="a_node4"><a xlink:href="../../d7/db4/classcommands_1_1control_commands_1_1_container_test.html#a5af8d678d8f10708dd2a6051aa069b62" target="_top" xlink:title="commands.controlCommands.\lContainerTest.processInput">
<polygon fill="white" stroke="black" points="643.5,-1357 643.5,-1387 808.5,-1387 808.5,-1357 643.5,-1357"/>
<text text-anchor="start" x="651.5" y="-1375" font-family="Helvetica,sans-Serif" font-size="10.00">commands.controlCommands.</text>
<text text-anchor="middle" x="726" y="-1364" font-family="Helvetica,sans-Serif" font-size="10.00">ContainerTest.processInput</text>
</a>
</g>
</g>
<!-- Node3&#45;&gt;Node4 -->
<g id="edge3" class="edge"><title>Node3&#45;&gt;Node4</title>
<path fill="none" stroke="midnightblue" d="M500.879,-1189.01C521.251,-1224.89 564.178,-1292.47 618,-1332 632.625,-1342.74 650.464,-1350.92 667.352,-1356.98"/>
<polygon fill="midnightblue" stroke="midnightblue" points="503.892,-1187.23 495.967,-1180.2 497.778,-1190.64 503.892,-1187.23"/>
</g>
<!-- Node6 -->
<g id="node6" class="node"><title>Node6</title>
<g id="a_node6"><a xlink:href="../../d1/d08/classcommands_1_1variable_commands_1_1_variable_command_parse_test.html#a3536cbcf387f53c8d880c166c15e10d2" target="_top" xlink:title="commands.variableCommands.\lVariableCommandParseTest.processInput">
<polygon fill="white" stroke="black" points="618.5,-1293 618.5,-1323 833.5,-1323 833.5,-1293 618.5,-1293"/>
<text text-anchor="start" x="626.5" y="-1311" font-family="Helvetica,sans-Serif" font-size="10.00">commands.variableCommands.</text>
<text text-anchor="middle" x="726" y="-1300" font-family="Helvetica,sans-Serif" font-size="10.00">VariableCommandParseTest.processInput</text>
</a>
</g>
</g>
<!-- Node3&#45;&gt;Node6 -->
<g id="edge5" class="edge"><title>Node3&#45;&gt;Node6</title>
<path fill="none" stroke="midnightblue" d="M514.668,-1186.68C540.232,-1206.87 580.384,-1237.07 618,-1259 640.241,-1271.96 666.509,-1284.04 687.452,-1292.96"/>
<polygon fill="midnightblue" stroke="midnightblue" points="516.586,-1183.73 506.582,-1180.24 512.225,-1189.21 516.586,-1183.73"/>
</g>
<!-- Node8 -->
<g id="node8" class="node"><title>Node8</title>
<g id="a_node8"><a xlink:href="../../d9/d00/classcommunicator_1_1_main_controller.html#a63543f74d98f650f2ee4026151189fa8" target="_top" xlink:title="communicator.MainController.receive\lCommand">
<polygon fill="white" stroke="black" points="629,-1220 629,-1250 823,-1250 823,-1220 629,-1220"/>
<text text-anchor="start" x="637" y="-1238" font-family="Helvetica,sans-Serif" font-size="10.00">communicator.MainController.receive</text>
<text text-anchor="middle" x="726" y="-1227" font-family="Helvetica,sans-Serif" font-size="10.00">Command</text>
</a>
</g>
</g>
<!-- Node3&#45;&gt;Node8 -->
<g id="edge7" class="edge"><title>Node3&#45;&gt;Node8</title>
<path fill="none" stroke="midnightblue" d="M540.268,-1183.25C563.887,-1191.24 592.222,-1200.5 618,-1208 632.256,-1212.15 647.687,-1216.26 662.275,-1219.98"/>
<polygon fill="midnightblue" stroke="midnightblue" points="541.388,-1179.93 530.794,-1180.02 539.132,-1186.56 541.388,-1179.93"/>
</g>
<!-- Node15 -->
<g id="node15" class="node"><title>Node15</title>
<g id="a_node15"><a xlink:href="../../dd/d30/classtests_1_1_ask_test.html#a8d408863dc53f60d7a73c7dad924325a" target="_top" xlink:title="tests.AskTest.processInput">
<polygon fill="white" stroke="black" points="654,-1179.5 654,-1198.5 798,-1198.5 798,-1179.5 654,-1179.5"/>
<text text-anchor="middle" x="726" y="-1186.5" font-family="Helvetica,sans-Serif" font-size="10.00">tests.AskTest.processInput</text>
</a>
</g>
</g>
<!-- Node3&#45;&gt;Node15 -->
<g id="edge15" class="edge"><title>Node3&#45;&gt;Node15</title>
<path fill="none" stroke="midnightblue" d="M592.167,-1175.55C612.979,-1177.66 634.39,-1179.82 653.781,-1181.79"/>
<polygon fill="midnightblue" stroke="midnightblue" points="592.311,-1172.05 582.009,-1174.52 591.606,-1179.01 592.311,-1172.05"/>
</g>
<!-- Node17 -->
<g id="node17" class="node"><title>Node17</title>
<g id="a_node17"><a xlink:href="../../d3/d0c/classtests_1_1_ask_with_test.html#a9d43a79de385803c300e7b2cf0c13b00" target="_top" xlink:title="tests.AskWithTest.process\lInput">
<polygon fill="white" stroke="black" points="656,-1127 656,-1157 796,-1157 796,-1127 656,-1127"/>
<text text-anchor="start" x="664" y="-1145" font-family="Helvetica,sans-Serif" font-size="10.00">tests.AskWithTest.process</text>
<text text-anchor="middle" x="726" y="-1134" font-family="Helvetica,sans-Serif" font-size="10.00">Input</text>
</a>
</g>
</g>
<!-- Node3&#45;&gt;Node17 -->
<g id="edge17" class="edge"><title>Node3&#45;&gt;Node17</title>
<path fill="none" stroke="midnightblue" d="M592.205,-1154.89C613.791,-1152.79 636.019,-1150.64 655.968,-1148.7"/>
<polygon fill="midnightblue" stroke="midnightblue" points="591.624,-1151.43 582.009,-1155.88 592.3,-1158.39 591.624,-1151.43"/>
</g>
<!-- Node20 -->
<g id="node20" class="node"><title>Node20</title>
<g id="a_node20"><a xlink:href="../../de/d2e/classtests_1_1_expression_command_parse_test.html#ad0311bdfc0b2540e3206d6cd41a23d13" target="_top" xlink:title="tests.ExpressionCommandParse\lTest.processInput">
<polygon fill="white" stroke="black" points="640,-588 640,-618 812,-618 812,-588 640,-588"/>
<text text-anchor="start" x="648" y="-606" font-family="Helvetica,sans-Serif" font-size="10.00">tests.ExpressionCommandParse</text>
<text text-anchor="middle" x="726" y="-595" font-family="Helvetica,sans-Serif" font-size="10.00">Test.processInput</text>
</a>
</g>
</g>
<!-- Node3&#45;&gt;Node20 -->
<g id="edge20" class="edge"><title>Node3&#45;&gt;Node20</title>
<path fill="none" stroke="midnightblue" d="M498.33,-1140.5C538.833,-1044.46 686.172,-695.073 718.641,-618.079"/>
<polygon fill="midnightblue" stroke="midnightblue" points="495,-1139.39 494.339,-1149.97 501.45,-1142.11 495,-1139.39"/>
</g>
<!-- Node41 -->
<g id="node41" class="node"><title>Node41</title>
<g id="a_node41"><a xlink:href="../../d0/d33/classtests_1_1_to_command_test.html#a4eaf8f664432093c7eb1c552923097c3" target="_top" xlink:title="tests.ToCommandTest.process\lInput">
<polygon fill="white" stroke="black" points="644.5,-417 644.5,-447 807.5,-447 807.5,-417 644.5,-417"/>
<text text-anchor="start" x="652.5" y="-435" font-family="Helvetica,sans-Serif" font-size="10.00">tests.ToCommandTest.process</text>
<text text-anchor="middle" x="726" y="-424" font-family="Helvetica,sans-Serif" font-size="10.00">Input</text>
</a>
</g>
</g>
<!-- Node3&#45;&gt;Node41 -->
<g id="edge41" class="edge"><title>Node3&#45;&gt;Node41</title>
<path fill="none" stroke="midnightblue" d="M489.872,-1139.66C496.822,-1055.92 525.697,-781.838 618,-578 641.982,-525.04 687.181,-472.378 710.408,-447.24"/>
<polygon fill="midnightblue" stroke="midnightblue" points="486.373,-1139.51 489.065,-1149.76 493.35,-1140.07 486.373,-1139.51"/>
</g>
<!-- Node43 -->
<g id="node43" class="node"><title>Node43</title>
<g id="a_node43"><a xlink:href="../../d9/d76/classtests_1_1_turtle_commands_test.html#a26b7fee4439a47d622fb58826d281a1f" target="_top" xlink:title="tests.TurtleCommandsTest.process\lInput">
<polygon fill="white" stroke="black" points="634,-123 634,-153 818,-153 818,-123 634,-123"/>
<text text-anchor="start" x="642" y="-141" font-family="Helvetica,sans-Serif" font-size="10.00">tests.TurtleCommandsTest.process</text>
<text text-anchor="middle" x="726" y="-130" font-family="Helvetica,sans-Serif" font-size="10.00">Input</text>
</a>
</g>
</g>
<!-- Node3&#45;&gt;Node43 -->
<g id="edge43" class="edge"><title>Node3&#45;&gt;Node43</title>
<path fill="none" stroke="midnightblue" d="M490.392,-1139.79C499.954,-1043.28 538.798,-688.555 618,-407 646.105,-307.09 698.49,-193.333 717.698,-153.076"/>
<polygon fill="midnightblue" stroke="midnightblue" points="486.905,-1139.49 489.417,-1149.78 493.872,-1140.17 486.905,-1139.49"/>
</g>
<!-- Node5 -->
<g id="node5" class="node"><title>Node5</title>
<g id="a_node5"><a xlink:href="../../d7/db4/classcommands_1_1control_commands_1_1_container_test.html#a5ff9cdf49eafe0435d4b9e0ce3eb38a9" target="_top" xlink:title="commands.controlCommands.\lContainerTest.testThatIfWorks">
<polygon fill="white" stroke="black" points="884.5,-1372 884.5,-1402 1049.5,-1402 1049.5,-1372 884.5,-1372"/>
<text text-anchor="start" x="892.5" y="-1390" font-family="Helvetica,sans-Serif" font-size="10.00">commands.controlCommands.</text>
<text text-anchor="middle" x="967" y="-1379" font-family="Helvetica,sans-Serif" font-size="10.00">ContainerTest.testThatIfWorks</text>
</a>
</g>
</g>
<!-- Node4&#45;&gt;Node5 -->
<g id="edge4" class="edge"><title>Node4&#45;&gt;Node5</title>
<path fill="none" stroke="midnightblue" d="M818.742,-1377.76C840.354,-1379.11 863.248,-1380.55 884.38,-1381.88"/>
<polygon fill="midnightblue" stroke="midnightblue" points="818.781,-1374.25 808.582,-1377.12 818.343,-1381.24 818.781,-1374.25"/>
</g>
<!-- Node7 -->
<g id="node7" class="node"><title>Node7</title>
<g id="a_node7"><a xlink:href="../../d1/d08/classcommands_1_1variable_commands_1_1_variable_command_parse_test.html#a5510e9369499cabedeb2f6825b3e5f1a" target="_top" xlink:title="commands.variableCommands.\lVariableCommandParseTest.testThat\lVariableIsGet">
<polygon fill="white" stroke="black" points="870.5,-1312.5 870.5,-1353.5 1063.5,-1353.5 1063.5,-1312.5 870.5,-1312.5"/>
<text text-anchor="start" x="878.5" y="-1341.5" font-family="Helvetica,sans-Serif" font-size="10.00">commands.variableCommands.</text>
<text text-anchor="start" x="878.5" y="-1330.5" font-family="Helvetica,sans-Serif" font-size="10.00">VariableCommandParseTest.testThat</text>
<text text-anchor="middle" x="967" y="-1319.5" font-family="Helvetica,sans-Serif" font-size="10.00">VariableIsGet</text>
</a>
</g>
</g>
<!-- Node6&#45;&gt;Node7 -->
<g id="edge6" class="edge"><title>Node6&#45;&gt;Node7</title>
<path fill="none" stroke="midnightblue" d="M843.606,-1320.2C852.514,-1321.13 861.443,-1322.06 870.195,-1322.98"/>
<polygon fill="midnightblue" stroke="midnightblue" points="843.879,-1316.71 833.569,-1319.15 843.151,-1323.67 843.879,-1316.71"/>
</g>
<!-- Node9 -->
<g id="node9" class="node"><title>Node9</title>
<g id="a_node9"><a xlink:href="../../d6/d33/class_view_1_1_slogo_view.html#a1a67765bb114e471855080a9938049a7" target="_top" xlink:title="View.SlogoView.sendCommand\lAndMakeButton">
<polygon fill="white" stroke="black" points="884.5,-1264 884.5,-1294 1049.5,-1294 1049.5,-1264 884.5,-1264"/>
<text text-anchor="start" x="892.5" y="-1282" font-family="Helvetica,sans-Serif" font-size="10.00">View.SlogoView.sendCommand</text>
<text text-anchor="middle" x="967" y="-1271" font-family="Helvetica,sans-Serif" font-size="10.00">AndMakeButton</text>
</a>
</g>
</g>
<!-- Node8&#45;&gt;Node9 -->
<g id="edge8" class="edge"><title>Node8&#45;&gt;Node9</title>
<path fill="none" stroke="midnightblue" d="M818.448,-1251.84C840.147,-1255.83 863.153,-1260.07 884.38,-1263.97"/>
<polygon fill="midnightblue" stroke="midnightblue" points="819.05,-1248.39 808.582,-1250.02 817.783,-1255.27 819.05,-1248.39"/>
</g>
<!-- Node14 -->
<g id="node14" class="node"><title>Node14</title>
<g id="a_node14"><a xlink:href="../../d6/d33/class_view_1_1_slogo_view.html#acaa2b33418cebb60111d0acfef03e832" target="_top" xlink:title="View.SlogoView.executeUser\lCommand">
<polygon fill="white" stroke="black" points="1111,-1220 1111,-1250 1263,-1250 1263,-1220 1111,-1220"/>
<text text-anchor="start" x="1119" y="-1238" font-family="Helvetica,sans-Serif" font-size="10.00">View.SlogoView.executeUser</text>
<text text-anchor="middle" x="1187" y="-1227" font-family="Helvetica,sans-Serif" font-size="10.00">Command</text>
</a>
</g>
</g>
<!-- Node8&#45;&gt;Node14 -->
<g id="edge14" class="edge"><title>Node8&#45;&gt;Node14</title>
<path fill="none" stroke="midnightblue" d="M833.417,-1235C918.36,-1235 1035.25,-1235 1110.72,-1235"/>
<polygon fill="midnightblue" stroke="midnightblue" points="833.221,-1231.5 823.221,-1235 833.221,-1238.5 833.221,-1231.5"/>
</g>
<!-- Node10 -->
<g id="node10" class="node"><title>Node10</title>
<g id="a_node10"><a xlink:href="../../d6/d33/class_view_1_1_slogo_view.html#a468acf266470c356f2f36e7eb2f327e8" target="_top" xlink:title="View.SlogoView.createCommand\lLineWithLabel">
<polygon fill="white" stroke="black" points="1100.5,-1269 1100.5,-1299 1273.5,-1299 1273.5,-1269 1100.5,-1269"/>
<text text-anchor="start" x="1108.5" y="-1287" font-family="Helvetica,sans-Serif" font-size="10.00">View.SlogoView.createCommand</text>
<text text-anchor="middle" x="1187" y="-1276" font-family="Helvetica,sans-Serif" font-size="10.00">LineWithLabel</text>
</a>
</g>
</g>
<!-- Node9&#45;&gt;Node10 -->
<g id="edge9" class="edge"><title>Node9&#45;&gt;Node10</title>
<path fill="none" stroke="midnightblue" d="M1059.98,-1281.11C1073.4,-1281.42 1087.18,-1281.73 1100.47,-1282.04"/>
<polygon fill="midnightblue" stroke="midnightblue" points="1059.87,-1277.61 1049.8,-1280.88 1059.71,-1284.6 1059.87,-1277.61"/>
</g>
<!-- Node9&#45;&gt;Node14 -->
<g id="edge13" class="edge"><title>Node9&#45;&gt;Node14</title>
<path fill="none" stroke="midnightblue" d="M1052.22,-1262C1071.77,-1258.06 1092.45,-1253.88 1111.55,-1250.03"/>
<polygon fill="midnightblue" stroke="midnightblue" points="1051.52,-1258.57 1042.41,-1263.98 1052.91,-1265.43 1051.52,-1258.57"/>
</g>
<!-- Node11 -->
<g id="node11" class="node"><title>Node11</title>
<g id="a_node11"><a xlink:href="../../d6/d33/class_view_1_1_slogo_view.html#ac64a43649ed5417854c37ec25320e925" target="_top" xlink:title="View.SlogoView.setTextArea">
<polygon fill="white" stroke="black" points="1310,-1274.5 1310,-1293.5 1458,-1293.5 1458,-1274.5 1310,-1274.5"/>
<text text-anchor="middle" x="1384" y="-1281.5" font-family="Helvetica,sans-Serif" font-size="10.00">View.SlogoView.setTextArea</text>
</a>
</g>
</g>
<!-- Node10&#45;&gt;Node11 -->
<g id="edge10" class="edge"><title>Node10&#45;&gt;Node11</title>
<path fill="none" stroke="midnightblue" d="M1283.76,-1284C1292.5,-1284 1301.25,-1284 1309.75,-1284"/>
<polygon fill="midnightblue" stroke="midnightblue" points="1283.53,-1280.5 1273.53,-1284 1283.53,-1287.5 1283.53,-1280.5"/>
</g>
<!-- Node12 -->
<g id="node12" class="node"><title>Node12</title>
<g id="a_node12"><a xlink:href="../../d6/d33/class_view_1_1_slogo_view.html#acfeff052503655d2ac419d2bf4ea9bd5" target="_top" xlink:title="View.SlogoView.initialize">
<polygon fill="white" stroke="black" points="1494,-1274.5 1494,-1293.5 1624,-1293.5 1624,-1274.5 1494,-1274.5"/>
<text text-anchor="middle" x="1559" y="-1281.5" font-family="Helvetica,sans-Serif" font-size="10.00">View.SlogoView.initialize</text>
</a>
</g>
</g>
<!-- Node11&#45;&gt;Node12 -->
<g id="edge11" class="edge"><title>Node11&#45;&gt;Node12</title>
<path fill="none" stroke="midnightblue" d="M1468.22,-1284C1476.85,-1284 1485.53,-1284 1493.91,-1284"/>
<polygon fill="midnightblue" stroke="midnightblue" points="1468.12,-1280.5 1458.12,-1284 1468.12,-1287.5 1468.12,-1280.5"/>
</g>
<!-- Node13 -->
<g id="node13" class="node"><title>Node13</title>
<g id="a_node13"><a xlink:href="../../db/d27/class_view_1_1_slogo.html#a6ab76a53160b61d8501aec91c55b85c8" target="_top" xlink:title="View.Slogo.start">
<polygon fill="white" stroke="black" points="1660.5,-1274.5 1660.5,-1293.5 1753.5,-1293.5 1753.5,-1274.5 1660.5,-1274.5"/>
<text text-anchor="middle" x="1707" y="-1281.5" font-family="Helvetica,sans-Serif" font-size="10.00">View.Slogo.start</text>
</a>
</g>
</g>
<!-- Node12&#45;&gt;Node13 -->
<g id="edge12" class="edge"><title>Node12&#45;&gt;Node13</title>
<path fill="none" stroke="midnightblue" d="M1634.14,-1284C1643.11,-1284 1652.05,-1284 1660.43,-1284"/>
<polygon fill="midnightblue" stroke="midnightblue" points="1634.04,-1280.5 1624.04,-1284 1634.04,-1287.5 1634.04,-1280.5"/>
</g>
<!-- Node16 -->
<g id="node16" class="node"><title>Node16</title>
<g id="a_node16"><a xlink:href="../../dd/d30/classtests_1_1_ask_test.html#a35ae726a31ba673fc7d80bcbc4a69e24" target="_top" xlink:title="tests.AskTest.testThatAsk\lCreatesTurtles">
<polygon fill="white" stroke="black" points="897,-1176 897,-1206 1037,-1206 1037,-1176 897,-1176"/>
<text text-anchor="start" x="905" y="-1194" font-family="Helvetica,sans-Serif" font-size="10.00">tests.AskTest.testThatAsk</text>
<text text-anchor="middle" x="967" y="-1183" font-family="Helvetica,sans-Serif" font-size="10.00">CreatesTurtles</text>
</a>
</g>
</g>
<!-- Node15&#45;&gt;Node16 -->
<g id="edge16" class="edge"><title>Node15&#45;&gt;Node16</title>
<path fill="none" stroke="midnightblue" d="M808.108,-1189.68C836.944,-1189.92 869.116,-1190.19 896.858,-1190.42"/>
<polygon fill="midnightblue" stroke="midnightblue" points="808.09,-1186.18 798.061,-1189.59 808.031,-1193.18 808.09,-1186.18"/>
</g>
<!-- Node18 -->
<g id="node18" class="node"><title>Node18</title>
<g id="a_node18"><a xlink:href="../../d3/d0c/classtests_1_1_ask_with_test.html#a54f2ed263239909256bb93e91afc3ecc" target="_top" xlink:title="tests.AskWithTest.testAlways\lTrueAskWith">
<polygon fill="white" stroke="black" points="890,-1127 890,-1157 1044,-1157 1044,-1127 890,-1127"/>
<text text-anchor="start" x="898" y="-1145" font-family="Helvetica,sans-Serif" font-size="10.00">tests.AskWithTest.testAlways</text>
<text text-anchor="middle" x="967" y="-1134" font-family="Helvetica,sans-Serif" font-size="10.00">TrueAskWith</text>
</a>
</g>
</g>
<!-- Node17&#45;&gt;Node18 -->
<g id="edge18" class="edge"><title>Node17&#45;&gt;Node18</title>
<path fill="none" stroke="midnightblue" d="M806.286,-1142C833.217,-1142 863.233,-1142 889.909,-1142"/>
<polygon fill="midnightblue" stroke="midnightblue" points="806.129,-1138.5 796.129,-1142 806.129,-1145.5 806.129,-1138.5"/>
</g>
<!-- Node19 -->
<g id="node19" class="node"><title>Node19</title>
<g id="a_node19"><a xlink:href="../../d3/d0c/classtests_1_1_ask_with_test.html#a49a8519276b23ed93a3f90d7c2058fc5" target="_top" xlink:title="tests.AskWithTest.testXCor\lAskWith">
<polygon fill="white" stroke="black" points="895.5,-1078 895.5,-1108 1038.5,-1108 1038.5,-1078 895.5,-1078"/>
<text text-anchor="start" x="903.5" y="-1096" font-family="Helvetica,sans-Serif" font-size="10.00">tests.AskWithTest.testXCor</text>
<text text-anchor="middle" x="967" y="-1085" font-family="Helvetica,sans-Serif" font-size="10.00">AskWith</text>
</a>
</g>
</g>
<!-- Node17&#45;&gt;Node19 -->
<g id="edge19" class="edge"><title>Node17&#45;&gt;Node19</title>
<path fill="none" stroke="midnightblue" d="M806.161,-1125.77C834.977,-1119.86 867.339,-1113.23 895.368,-1107.48"/>
<polygon fill="midnightblue" stroke="midnightblue" points="805.222,-1122.39 796.129,-1127.83 806.628,-1129.25 805.222,-1122.39"/>
</g>
<!-- Node21 -->
<g id="node21" class="node"><title>Node21</title>
<g id="a_node21"><a xlink:href="../../de/d2e/classtests_1_1_expression_command_parse_test.html#a9e9aaaa5a415abbcc708a4be262e1199" target="_top" xlink:title="tests.ExpressionCommandParse\lTest.testSumParses">
<polygon fill="white" stroke="black" points="881,-1029 881,-1059 1053,-1059 1053,-1029 881,-1029"/>
<text text-anchor="start" x="889" y="-1047" font-family="Helvetica,sans-Serif" font-size="10.00">tests.ExpressionCommandParse</text>
<text text-anchor="middle" x="967" y="-1036" font-family="Helvetica,sans-Serif" font-size="10.00">Test.testSumParses</text>
</a>
</g>
</g>
<!-- Node20&#45;&gt;Node21 -->
<g id="edge21" class="edge"><title>Node20&#45;&gt;Node21</title>
<path fill="none" stroke="midnightblue" d="M727.81,-628.185C731.547,-700.432 752.501,-910.145 870,-1019 874.169,-1022.86 878.859,-1026.14 883.865,-1028.93"/>
<polygon fill="midnightblue" stroke="midnightblue" points="731.306,-628.011 727.36,-618.178 724.313,-628.325 731.306,-628.011"/>
</g>
<!-- Node22 -->
<g id="node22" class="node"><title>Node22</title>
<g id="a_node22"><a xlink:href="../../de/d2e/classtests_1_1_expression_command_parse_test.html#a9c09cab3c9f9a85ec6be2f101780ce25" target="_top" xlink:title="tests.ExpressionCommandParse\lTest.testDifference">
<polygon fill="white" stroke="black" points="881,-980 881,-1010 1053,-1010 1053,-980 881,-980"/>
<text text-anchor="start" x="889" y="-998" font-family="Helvetica,sans-Serif" font-size="10.00">tests.ExpressionCommandParse</text>
<text text-anchor="middle" x="967" y="-987" font-family="Helvetica,sans-Serif" font-size="10.00">Test.testDifference</text>
</a>
</g>
</g>
<!-- Node20&#45;&gt;Node22 -->
<g id="edge22" class="edge"><title>Node20&#45;&gt;Node22</title>
<path fill="none" stroke="midnightblue" d="M729.138,-628.327C736.152,-694.904 764.492,-876.147 870,-970 874.375,-973.892 879.282,-977.191 884.501,-979.986"/>
<polygon fill="midnightblue" stroke="midnightblue" points="732.614,-627.92 728.155,-618.309 725.648,-628.603 732.614,-627.92"/>
</g>
<!-- Node23 -->
<g id="node23" class="node"><title>Node23</title>
<g id="a_node23"><a xlink:href="../../de/d2e/classtests_1_1_expression_command_parse_test.html#a2d4c7f15e08a1ebac70ccce175caafa8" target="_top" xlink:title="tests.ExpressionCommandParse\lTest.testProduct">
<polygon fill="white" stroke="black" points="881,-931 881,-961 1053,-961 1053,-931 881,-931"/>
<text text-anchor="start" x="889" y="-949" font-family="Helvetica,sans-Serif" font-size="10.00">tests.ExpressionCommandParse</text>
<text text-anchor="middle" x="967" y="-938" font-family="Helvetica,sans-Serif" font-size="10.00">Test.testProduct</text>
</a>
</g>
</g>
<!-- Node20&#45;&gt;Node23 -->
<g id="edge23" class="edge"><title>Node20&#45;&gt;Node23</title>
<path fill="none" stroke="midnightblue" d="M730.799,-628.162C741.258,-688.398 776.19,-841.747 870,-921 874.605,-924.89 879.745,-928.184 885.187,-930.971"/>
<polygon fill="midnightblue" stroke="midnightblue" points="734.209,-627.331 729.123,-618.038 727.303,-628.475 734.209,-627.331"/>
</g>
<!-- Node24 -->
<g id="node24" class="node"><title>Node24</title>
<g id="a_node24"><a xlink:href="../../de/d2e/classtests_1_1_expression_command_parse_test.html#acf648d3a09aa6a2a05c1bb2b405eb3d3" target="_top" xlink:title="tests.ExpressionCommandParse\lTest.testQuotient">
<polygon fill="white" stroke="black" points="881,-882 881,-912 1053,-912 1053,-882 881,-882"/>
<text text-anchor="start" x="889" y="-900" font-family="Helvetica,sans-Serif" font-size="10.00">tests.ExpressionCommandParse</text>
<text text-anchor="middle" x="967" y="-889" font-family="Helvetica,sans-Serif" font-size="10.00">Test.testQuotient</text>
</a>
</g>
</g>
<!-- Node20&#45;&gt;Node24 -->
<g id="edge24" class="edge"><title>Node20&#45;&gt;Node24</title>
<path fill="none" stroke="midnightblue" d="M733.068,-628.279C747.272,-681.839 787.872,-807.137 870,-872 874.866,-875.843 880.261,-879.099 885.942,-881.858"/>
<polygon fill="midnightblue" stroke="midnightblue" points="736.376,-627.092 730.503,-618.274 729.596,-628.83 736.376,-627.092"/>
</g>
<!-- Node25 -->
<g id="node25" class="node"><title>Node25</title>
<g id="a_node25"><a xlink:href="../../de/d2e/classtests_1_1_expression_command_parse_test.html#adc00834efe87e3bd1a9763276552daf8" target="_top" xlink:title="tests.ExpressionCommandParse\lTest.testRemainder">
<polygon fill="white" stroke="black" points="881,-833 881,-863 1053,-863 1053,-833 881,-833"/>
<text text-anchor="start" x="889" y="-851" font-family="Helvetica,sans-Serif" font-size="10.00">tests.ExpressionCommandParse</text>
<text text-anchor="middle" x="967" y="-840" font-family="Helvetica,sans-Serif" font-size="10.00">Test.testRemainder</text>
</a>
</g>
</g>
<!-- Node20&#45;&gt;Node25 -->
<g id="edge25" class="edge"><title>Node20&#45;&gt;Node25</title>
<path fill="none" stroke="midnightblue" d="M735.915,-627.467C753.879,-673.222 798.885,-771.736 870,-823 875.309,-826.827 881.157,-830.069 887.267,-832.815"/>
<polygon fill="midnightblue" stroke="midnightblue" points="739.148,-626.122 732.304,-618.034 732.611,-628.624 739.148,-626.122"/>
</g>
<!-- Node26 -->
<g id="node26" class="node"><title>Node26</title>
<g id="a_node26"><a xlink:href="../../de/d2e/classtests_1_1_expression_command_parse_test.html#adaa43c42c9c25f456ee97a540afdc3e8" target="_top" xlink:title="tests.ExpressionCommandParse\lTest.testRandom">
<polygon fill="white" stroke="black" points="881,-784 881,-814 1053,-814 1053,-784 881,-784"/>
<text text-anchor="start" x="889" y="-802" font-family="Helvetica,sans-Serif" font-size="10.00">tests.ExpressionCommandParse</text>
<text text-anchor="middle" x="967" y="-791" font-family="Helvetica,sans-Serif" font-size="10.00">Test.testRandom</text>
</a>
</g>
</g>
<!-- Node20&#45;&gt;Node26 -->
<g id="edge26" class="edge"><title>Node20&#45;&gt;Node26</title>
<path fill="none" stroke="midnightblue" d="M740.162,-626.702C762.093,-663.938 809.719,-735.824 870,-774 876.111,-777.87 882.801,-781.143 889.715,-783.911"/>
<polygon fill="midnightblue" stroke="midnightblue" points="743.181,-624.931 735.148,-618.023 737.12,-628.433 743.181,-624.931"/>
</g>
<!-- Node27 -->
<g id="node27" class="node"><title>Node27</title>
<g id="a_node27"><a xlink:href="../../de/d2e/classtests_1_1_expression_command_parse_test.html#aad5b7d0a5182da6dd0abba756ad0e751" target="_top" xlink:title="tests.ExpressionCommandParse\lTest.testMinus">
<polygon fill="white" stroke="black" points="881,-735 881,-765 1053,-765 1053,-735 881,-735"/>
<text text-anchor="start" x="889" y="-753" font-family="Helvetica,sans-Serif" font-size="10.00">tests.ExpressionCommandParse</text>
<text text-anchor="middle" x="967" y="-742" font-family="Helvetica,sans-Serif" font-size="10.00">Test.testMinus</text>
</a>
</g>
</g>
<!-- Node20&#45;&gt;Node27 -->
<g id="edge27" class="edge"><title>Node20&#45;&gt;Node27</title>
<path fill="none" stroke="midnightblue" d="M747.41,-625.834C773.275,-653.377 820.485,-699.188 870,-725 877.407,-728.861 885.453,-732.157 893.63,-734.962"/>
<polygon fill="midnightblue" stroke="midnightblue" points="749.753,-623.212 740.393,-618.248 744.614,-627.965 749.753,-623.212"/>
</g>
<!-- Node28 -->
<g id="node28" class="node"><title>Node28</title>
<g id="a_node28"><a xlink:href="../../de/d2e/classtests_1_1_expression_command_parse_test.html#ae638345ab0fe49a27e67c764ed342a80" target="_top" xlink:title="tests.ExpressionCommandParse\lTest.testPower">
<polygon fill="white" stroke="black" points="881,-686 881,-716 1053,-716 1053,-686 881,-686"/>
<text text-anchor="start" x="889" y="-704" font-family="Helvetica,sans-Serif" font-size="10.00">tests.ExpressionCommandParse</text>
<text text-anchor="middle" x="967" y="-693" font-family="Helvetica,sans-Serif" font-size="10.00">Test.testPower</text>
</a>
</g>
</g>
<!-- Node20&#45;&gt;Node28 -->
<g id="edge28" class="edge"><title>Node20&#45;&gt;Node28</title>
<path fill="none" stroke="midnightblue" d="M761.04,-623.044C789.425,-639.099 831.327,-661.294 870,-676 879.659,-679.673 890.063,-682.997 900.334,-685.935"/>
<polygon fill="midnightblue" stroke="midnightblue" points="762.74,-619.985 752.32,-618.065 759.268,-626.063 762.74,-619.985"/>
</g>
<!-- Node29 -->
<g id="node29" class="node"><title>Node29</title>
<g id="a_node29"><a xlink:href="../../de/d2e/classtests_1_1_expression_command_parse_test.html#a136204feb445f26c107203e5d0a248bf" target="_top" xlink:title="tests.ExpressionCommandParse\lTest.testSin">
<polygon fill="white" stroke="black" points="881,-637 881,-667 1053,-667 1053,-637 881,-637"/>
<text text-anchor="start" x="889" y="-655" font-family="Helvetica,sans-Serif" font-size="10.00">tests.ExpressionCommandParse</text>
<text text-anchor="middle" x="967" y="-644" font-family="Helvetica,sans-Serif" font-size="10.00">Test.testSin</text>
</a>
</g>
</g>
<!-- Node20&#45;&gt;Node29 -->
<g id="edge29" class="edge"><title>Node20&#45;&gt;Node29</title>
<path fill="none" stroke="midnightblue" d="M810.468,-620.113C837.289,-625.611 866.781,-631.658 892.807,-636.994"/>
<polygon fill="midnightblue" stroke="midnightblue" points="810.831,-616.614 800.332,-618.035 809.425,-623.472 810.831,-616.614"/>
</g>
<!-- Node30 -->
<g id="node30" class="node"><title>Node30</title>
<g id="a_node30"><a xlink:href="../../de/d2e/classtests_1_1_expression_command_parse_test.html#a7c091eeaa6fcdf81f42b1f4999a4c3b4" target="_top" xlink:title="tests.ExpressionCommandParse\lTest.testCos">
<polygon fill="white" stroke="black" points="881,-588 881,-618 1053,-618 1053,-588 881,-588"/>
<text text-anchor="start" x="889" y="-606" font-family="Helvetica,sans-Serif" font-size="10.00">tests.ExpressionCommandParse</text>
<text text-anchor="middle" x="967" y="-595" font-family="Helvetica,sans-Serif" font-size="10.00">Test.testCos</text>
</a>
</g>
</g>
<!-- Node20&#45;&gt;Node30 -->
<g id="edge30" class="edge"><title>Node20&#45;&gt;Node30</title>
<path fill="none" stroke="midnightblue" d="M822.285,-603C841.608,-603 861.812,-603 880.761,-603"/>
<polygon fill="midnightblue" stroke="midnightblue" points="822.272,-599.5 812.272,-603 822.272,-606.5 822.272,-599.5"/>
</g>
<!-- Node31 -->
<g id="node31" class="node"><title>Node31</title>
<g id="a_node31"><a xlink:href="../../de/d2e/classtests_1_1_expression_command_parse_test.html#a2b2cb32a4e303a753c5b516252061cb1" target="_top" xlink:title="tests.ExpressionCommandParse\lTest.testTan">
<polygon fill="white" stroke="black" points="881,-539 881,-569 1053,-569 1053,-539 881,-539"/>
<text text-anchor="start" x="889" y="-557" font-family="Helvetica,sans-Serif" font-size="10.00">tests.ExpressionCommandParse</text>
<text text-anchor="middle" x="967" y="-546" font-family="Helvetica,sans-Serif" font-size="10.00">Test.testTan</text>
</a>
</g>
</g>
<!-- Node20&#45;&gt;Node31 -->
<g id="edge31" class="edge"><title>Node20&#45;&gt;Node31</title>
<path fill="none" stroke="midnightblue" d="M810.468,-585.887C837.289,-580.389 866.781,-574.342 892.807,-569.006"/>
<polygon fill="midnightblue" stroke="midnightblue" points="809.425,-582.528 800.332,-587.965 810.831,-589.386 809.425,-582.528"/>
</g>
<!-- Node32 -->
<g id="node32" class="node"><title>Node32</title>
<g id="a_node32"><a xlink:href="../../de/d2e/classtests_1_1_expression_command_parse_test.html#ab16d8f3c97b33e37ade041424eaede28" target="_top" xlink:title="tests.ExpressionCommandParse\lTest.testATan">
<polygon fill="white" stroke="black" points="881,-490 881,-520 1053,-520 1053,-490 881,-490"/>
<text text-anchor="start" x="889" y="-508" font-family="Helvetica,sans-Serif" font-size="10.00">tests.ExpressionCommandParse</text>
<text text-anchor="middle" x="967" y="-497" font-family="Helvetica,sans-Serif" font-size="10.00">Test.testATan</text>
</a>
</g>
</g>
<!-- Node20&#45;&gt;Node32 -->
<g id="edge32" class="edge"><title>Node20&#45;&gt;Node32</title>
<path fill="none" stroke="midnightblue" d="M760.45,-582.85C788.796,-566.477 830.949,-543.755 870,-529 878.759,-525.691 888.139,-522.703 897.479,-520.049"/>
<polygon fill="midnightblue" stroke="midnightblue" points="758.626,-579.862 751.753,-587.925 762.154,-585.908 758.626,-579.862"/>
</g>
<!-- Node33 -->
<g id="node33" class="node"><title>Node33</title>
<g id="a_node33"><a xlink:href="../../de/d2e/classtests_1_1_expression_command_parse_test.html#abc8349e349751cefe738aeec853eb33a" target="_top" xlink:title="tests.ExpressionCommandParse\lTest.naturalLogTest">
<polygon fill="white" stroke="black" points="881,-441 881,-471 1053,-471 1053,-441 881,-441"/>
<text text-anchor="start" x="889" y="-459" font-family="Helvetica,sans-Serif" font-size="10.00">tests.ExpressionCommandParse</text>
<text text-anchor="middle" x="967" y="-448" font-family="Helvetica,sans-Serif" font-size="10.00">Test.naturalLogTest</text>
</a>
</g>
</g>
<!-- Node20&#45;&gt;Node33 -->
<g id="edge33" class="edge"><title>Node20&#45;&gt;Node33</title>
<path fill="none" stroke="midnightblue" d="M746.92,-580.335C772.611,-552.527 819.974,-505.896 870,-480 876.637,-476.565 883.79,-473.604 891.092,-471.055"/>
<polygon fill="midnightblue" stroke="midnightblue" points="744.104,-578.229 739.963,-587.981 749.282,-582.939 744.104,-578.229"/>
</g>
<!-- Node34 -->
<g id="node34" class="node"><title>Node34</title>
<g id="a_node34"><a xlink:href="../../de/d2e/classtests_1_1_expression_command_parse_test.html#ae220f7496c25bae0b0b20e298ef3917b" target="_top" xlink:title="tests.ExpressionCommandParse\lTest.testLess">
<polygon fill="white" stroke="black" points="881,-392 881,-422 1053,-422 1053,-392 881,-392"/>
<text text-anchor="start" x="889" y="-410" font-family="Helvetica,sans-Serif" font-size="10.00">tests.ExpressionCommandParse</text>
<text text-anchor="middle" x="967" y="-399" font-family="Helvetica,sans-Serif" font-size="10.00">Test.testLess</text>
</a>
</g>
</g>
<!-- Node20&#45;&gt;Node34 -->
<g id="edge34" class="edge"><title>Node20&#45;&gt;Node34</title>
<path fill="none" stroke="midnightblue" d="M740.082,-579.089C761.903,-541.537 809.379,-469.099 870,-431 875.527,-427.526 881.529,-424.555 887.742,-422.014"/>
<polygon fill="midnightblue" stroke="midnightblue" points="737.004,-577.421 735.095,-587.842 743.086,-580.886 737.004,-577.421"/>
</g>
<!-- Node35 -->
<g id="node35" class="node"><title>Node35</title>
<g id="a_node35"><a xlink:href="../../de/d2e/classtests_1_1_expression_command_parse_test.html#a351a467c7e11ef82aa9cfca9e383d5bb" target="_top" xlink:title="tests.ExpressionCommandParse\lTest.testGreater">
<polygon fill="white" stroke="black" points="881,-343 881,-373 1053,-373 1053,-343 881,-343"/>
<text text-anchor="start" x="889" y="-361" font-family="Helvetica,sans-Serif" font-size="10.00">tests.ExpressionCommandParse</text>
<text text-anchor="middle" x="967" y="-350" font-family="Helvetica,sans-Serif" font-size="10.00">Test.testGreater</text>
</a>
</g>
</g>
<!-- Node20&#45;&gt;Node35 -->
<g id="edge35" class="edge"><title>Node20&#45;&gt;Node35</title>
<path fill="none" stroke="midnightblue" d="M745.968,-579.686C768.486,-551.419 806.451,-501.855 834,-456 852.835,-424.649 841.595,-405.04 870,-382 874.27,-378.537 878.972,-375.564 883.932,-373.014"/>
<polygon fill="midnightblue" stroke="midnightblue" points="743.03,-577.756 739.504,-587.747 748.491,-582.135 743.03,-577.756"/>
</g>
<!-- Node36 -->
<g id="node36" class="node"><title>Node36</title>
<g id="a_node36"><a xlink:href="../../de/d2e/classtests_1_1_expression_command_parse_test.html#a39b53cd607a64fd6c3f8d8a9dc383029" target="_top" xlink:title="tests.ExpressionCommandParse\lTest.testEqual">
<polygon fill="white" stroke="black" points="881,-294 881,-324 1053,-324 1053,-294 881,-294"/>
<text text-anchor="start" x="889" y="-312" font-family="Helvetica,sans-Serif" font-size="10.00">tests.ExpressionCommandParse</text>
<text text-anchor="middle" x="967" y="-301" font-family="Helvetica,sans-Serif" font-size="10.00">Test.testEqual</text>
</a>
</g>
</g>
<!-- Node20&#45;&gt;Node36 -->
<g id="edge36" class="edge"><title>Node20&#45;&gt;Node36</title>
<path fill="none" stroke="midnightblue" d="M747.704,-579.979C771.573,-552.35 810.523,-503.749 834,-456 859.132,-404.884 828.931,-372.468 870,-333 873.592,-329.548 877.602,-326.57 881.89,-324.003"/>
<polygon fill="midnightblue" stroke="midnightblue" points="744.764,-578.025 740.815,-587.856 750.033,-582.633 744.764,-578.025"/>
</g>
<!-- Node37 -->
<g id="node37" class="node"><title>Node37</title>
<g id="a_node37"><a xlink:href="../../de/d2e/classtests_1_1_expression_command_parse_test.html#a3e02dc5721ebda96dd3061e5598f2b89" target="_top" xlink:title="tests.ExpressionCommandParse\lTest.testNotEqual">
<polygon fill="white" stroke="black" points="881,-245 881,-275 1053,-275 1053,-245 881,-245"/>
<text text-anchor="start" x="889" y="-263" font-family="Helvetica,sans-Serif" font-size="10.00">tests.ExpressionCommandParse</text>
<text text-anchor="middle" x="967" y="-252" font-family="Helvetica,sans-Serif" font-size="10.00">Test.testNotEqual</text>
</a>
</g>
</g>
<!-- Node20&#45;&gt;Node37 -->
<g id="edge37" class="edge"><title>Node20&#45;&gt;Node37</title>
<path fill="none" stroke="midnightblue" d="M748.446,-580.199C772.95,-552.848 812.436,-504.579 834,-456 865.687,-384.616 815.852,-340.283 870,-284 873.216,-280.657 876.821,-277.753 880.698,-275.231"/>
<polygon fill="midnightblue" stroke="midnightblue" points="745.794,-577.912 741.659,-587.667 750.974,-582.62 745.794,-577.912"/>
</g>
<!-- Node38 -->
<g id="node38" class="node"><title>Node38</title>
<g id="a_node38"><a xlink:href="../../de/d2e/classtests_1_1_expression_command_parse_test.html#a6d3b6bdb079ef876815c288c064f4b33" target="_top" xlink:title="tests.ExpressionCommandParse\lTest.testAnd">
<polygon fill="white" stroke="black" points="881,-196 881,-226 1053,-226 1053,-196 881,-196"/>
<text text-anchor="start" x="889" y="-214" font-family="Helvetica,sans-Serif" font-size="10.00">tests.ExpressionCommandParse</text>
<text text-anchor="middle" x="967" y="-203" font-family="Helvetica,sans-Serif" font-size="10.00">Test.testAnd</text>
</a>
</g>
</g>
<!-- Node20&#45;&gt;Node38 -->
<g id="edge38" class="edge"><title>Node20&#45;&gt;Node38</title>
<path fill="none" stroke="midnightblue" d="M748.83,-580.364C773.699,-553.17 813.531,-505.05 834,-456 872.326,-364.159 802.629,-308.245 870,-235 873.256,-231.46 876.949,-228.407 880.943,-225.777"/>
<polygon fill="midnightblue" stroke="midnightblue" points="746.177,-578.078 741.936,-587.787 751.306,-582.842 746.177,-578.078"/>
</g>
<!-- Node39 -->
<g id="node39" class="node"><title>Node39</title>
<g id="a_node39"><a xlink:href="../../de/d2e/classtests_1_1_expression_command_parse_test.html#a5c10408ef137b64e44db51e6ac34a5c8" target="_top" xlink:title="tests.ExpressionCommandParse\lTest.testOr">
<polygon fill="white" stroke="black" points="881,-147 881,-177 1053,-177 1053,-147 881,-147"/>
<text text-anchor="start" x="889" y="-165" font-family="Helvetica,sans-Serif" font-size="10.00">tests.ExpressionCommandParse</text>
<text text-anchor="middle" x="967" y="-154" font-family="Helvetica,sans-Serif" font-size="10.00">Test.testOr</text>
</a>
</g>
</g>
<!-- Node20&#45;&gt;Node39 -->
<g id="edge39" class="edge"><title>Node20&#45;&gt;Node39</title>
<path fill="none" stroke="midnightblue" d="M749.08,-580.467C774.186,-553.37 814.242,-505.341 834,-456 879.003,-343.613 789.341,-276.278 870,-186 873.205,-182.413 876.857,-179.323 880.821,-176.665"/>
<polygon fill="midnightblue" stroke="midnightblue" points="746.425,-578.181 742.117,-587.86 751.521,-582.98 746.425,-578.181"/>
</g>
<!-- Node40 -->
<g id="node40" class="node"><title>Node40</title>
<g id="a_node40"><a xlink:href="../../de/d2e/classtests_1_1_expression_command_parse_test.html#a5b4d7321351f966e1261e1afbe14dd7c" target="_top" xlink:title="tests.ExpressionCommandParse\lTest.testNot">
<polygon fill="white" stroke="black" points="881,-98 881,-128 1053,-128 1053,-98 881,-98"/>
<text text-anchor="start" x="889" y="-116" font-family="Helvetica,sans-Serif" font-size="10.00">tests.ExpressionCommandParse</text>
<text text-anchor="middle" x="967" y="-105" font-family="Helvetica,sans-Serif" font-size="10.00">Test.testNot</text>
</a>
</g>
</g>
<!-- Node20&#45;&gt;Node40 -->
<g id="edge40" class="edge"><title>Node20&#45;&gt;Node40</title>
<path fill="none" stroke="midnightblue" d="M749.256,-580.536C774.527,-553.504 814.741,-505.538 834,-456 859.85,-389.509 823.009,-190.675 870,-137 873.169,-133.381 876.792,-130.266 880.734,-127.589"/>
<polygon fill="midnightblue" stroke="midnightblue" points="746.598,-578.252 742.243,-587.91 751.67,-583.075 746.598,-578.252"/>
</g>
<!-- Node42 -->
<g id="node42" class="node"><title>Node42</title>
<g id="a_node42"><a xlink:href="../../d0/d33/classtests_1_1_to_command_test.html#a682364d0f31489938f7ab8e4504e7c7e" target="_top" xlink:title="tests.ToCommandTest.test\lToParsing">
<polygon fill="white" stroke="black" points="895,-49 895,-79 1039,-79 1039,-49 895,-49"/>
<text text-anchor="start" x="903" y="-67" font-family="Helvetica,sans-Serif" font-size="10.00">tests.ToCommandTest.test</text>
<text text-anchor="middle" x="967" y="-56" font-family="Helvetica,sans-Serif" font-size="10.00">ToParsing</text>
</a>
</g>
</g>
<!-- Node41&#45;&gt;Node42 -->
<g id="edge42" class="edge"><title>Node41&#45;&gt;Node42</title>
<path fill="none" stroke="midnightblue" d="M736.468,-407.548C766.266,-330.824 856.925,-99.2586 870,-88 877.16,-81.8345 885.675,-77.2104 894.631,-73.7501"/>
<polygon fill="midnightblue" stroke="midnightblue" points="733.189,-406.323 732.835,-416.912 739.715,-408.855 733.189,-406.323"/>
</g>
<!-- Node44 -->
<g id="node44" class="node"><title>Node44</title>
<g id="a_node44"><a xlink:href="../../d9/d76/classtests_1_1_turtle_commands_test.html#a7f4c719ee0d2a11ff4b04f38b5cda951" target="_top" xlink:title="tests.TurtleCommandsTest.test\lToParsing">
<polygon fill="white" stroke="black" points="884.5,-0 884.5,-30 1049.5,-30 1049.5,-0 884.5,-0"/>
<text text-anchor="start" x="892.5" y="-18" font-family="Helvetica,sans-Serif" font-size="10.00">tests.TurtleCommandsTest.test</text>
<text text-anchor="middle" x="967" y="-7" font-family="Helvetica,sans-Serif" font-size="10.00">ToParsing</text>
</a>
</g>
</g>
<!-- Node43&#45;&gt;Node44 -->
<g id="edge44" class="edge"><title>Node43&#45;&gt;Node44</title>
<path fill="none" stroke="midnightblue" d="M752.091,-116.388C779.381,-93.9419 825.131,-59.3211 870,-39 877.512,-35.598 885.582,-32.6279 893.736,-30.0475"/>
<polygon fill="midnightblue" stroke="midnightblue" points="749.678,-113.843 744.236,-122.933 754.159,-119.221 749.678,-113.843"/>
</g>
</g>
</svg>
