<?xml version="1.0" encoding="UTF-8" standalone="no"?>
<!DOCTYPE svg PUBLIC "-//W3C//DTD SVG 1.1//EN"
 "http://www.w3.org/Graphics/SVG/1.1/DTD/svg11.dtd">
<!-- Generated by graphviz version 2.36.0 (20140111.2315)
 -->
<!-- Title: commandParser.LanguageFileParser.LanguageFileParser Pages: 1 -->
<svg width="770pt" height="93pt"
 viewBox="0.00 0.00 770.00 93.00" xmlns="http://www.w3.org/2000/svg" xmlns:xlink="http://www.w3.org/1999/xlink">
<g id="graph0" class="graph" transform="scale(1 1) rotate(0) translate(4 89)">
<title>commandParser.LanguageFileParser.LanguageFileParser</title>
<polygon fill="white" stroke="none" points="-4,4 -4,-89 766,-89 766,4 -4,4"/>
<!-- Node1 -->
<g id="node1" class="node"><title>Node1</title>
<polygon fill="#bfbfbf" stroke="black" points="0,-24 0,-54 160,-54 160,-24 0,-24"/>
<text text-anchor="start" x="8" y="-42" font-family="Helvetica,sans-Serif" font-size="10.00">commandParser.LanguageFile</text>
<text text-anchor="middle" x="80" y="-31" font-family="Helvetica,sans-Serif" font-size="10.00">Parser.LanguageFileParser</text>
</g>
<!-- Node2 -->
<g id="node2" class="node"><title>Node2</title>
<g id="a_node2"><a xlink:href="../../d8/d54/classcommand_parser_1_1_language_file_parser.html#a7d5ae3b56b32e0641c85ea6b04edf379" target="_top" xlink:title="commandParser.LanguageFile\lParser.extractFromLanguageFile">
<polygon fill="white" stroke="black" points="196.5,-24 196.5,-54 365.5,-54 365.5,-24 196.5,-24"/>
<text text-anchor="start" x="204.5" y="-42" font-family="Helvetica,sans-Serif" font-size="10.00">commandParser.LanguageFile</text>
<text text-anchor="middle" x="281" y="-31" font-family="Helvetica,sans-Serif" font-size="10.00">Parser.extractFromLanguageFile</text>
</a>
</g>
</g>
<!-- Node1&#45;&gt;Node2 -->
<g id="edge1" class="edge"><title>Node1&#45;&gt;Node2</title>
<path fill="none" stroke="midnightblue" d="M160.222,-39C168.791,-39 177.57,-39 186.29,-39"/>
<polygon fill="midnightblue" stroke="midnightblue" points="186.482,-42.5001 196.482,-39 186.482,-35.5001 186.482,-42.5001"/>
</g>
<!-- Node3 -->
<g id="node3" class="node"><title>Node3</title>
<g id="a_node3"><a xlink:href="../../de/df5/classcommand_parser_1_1_properties_file_reader.html#a15d7cd93d303f1f3588d3327465b5f12" target="_top" xlink:title="commandParser.Properties\lFileReader.getBundle">
<polygon fill="white" stroke="black" points="409,-49 409,-79 555,-79 555,-49 409,-49"/>
<text text-anchor="start" x="417" y="-67" font-family="Helvetica,sans-Serif" font-size="10.00">commandParser.Properties</text>
<text text-anchor="middle" x="482" y="-56" font-family="Helvetica,sans-Serif" font-size="10.00">FileReader.getBundle</text>
</a>
</g>
</g>
<!-- Node2&#45;&gt;Node3 -->
<g id="edge2" class="edge"><title>Node2&#45;&gt;Node3</title>
<path fill="none" stroke="midnightblue" d="M365.529,-49.4936C376.523,-50.8747 387.784,-52.2894 398.756,-53.6678"/>
<polygon fill="midnightblue" stroke="midnightblue" points="398.377,-57.1476 408.735,-54.9215 399.249,-50.2022 398.377,-57.1476"/>
</g>
<!-- Node5 -->
<g id="node5" class="node"><title>Node5</title>
<g id="a_node5"><a xlink:href="../../d8/d54/classcommand_parser_1_1_language_file_parser.html#a426054ca0b5a9d3a2810db0410f88bc1" target="_top" xlink:title="commandParser.LanguageFile\lParser.setToPreviousMap">
<polygon fill="white" stroke="black" points="402,-0 402,-30 562,-30 562,-0 402,-0"/>
<text text-anchor="start" x="410" y="-18" font-family="Helvetica,sans-Serif" font-size="10.00">commandParser.LanguageFile</text>
<text text-anchor="middle" x="482" y="-7" font-family="Helvetica,sans-Serif" font-size="10.00">Parser.setToPreviousMap</text>
</a>
</g>
</g>
<!-- Node2&#45;&gt;Node5 -->
<g id="edge4" class="edge"><title>Node2&#45;&gt;Node5</title>
<path fill="none" stroke="midnightblue" d="M365.529,-28.9262C374.168,-27.8843 382.971,-26.8225 391.67,-25.7734"/>
<polygon fill="midnightblue" stroke="midnightblue" points="392.309,-29.2219 401.818,-24.5496 391.471,-22.2722 392.309,-29.2219"/>
</g>
<!-- Node4 -->
<g id="node4" class="node"><title>Node4</title>
<g id="a_node4"><a xlink:href="../../de/df5/classcommand_parser_1_1_properties_file_reader.html#a808fd858ef40e00b7e327f4dafe374ed" target="_top" xlink:title="commandParser.Properties\lFileReader.getFileNameWithout\lExtension">
<polygon fill="white" stroke="black" points="598.5,-43.5 598.5,-84.5 761.5,-84.5 761.5,-43.5 598.5,-43.5"/>
<text text-anchor="start" x="606.5" y="-72.5" font-family="Helvetica,sans-Serif" font-size="10.00">commandParser.Properties</text>
<text text-anchor="start" x="606.5" y="-61.5" font-family="Helvetica,sans-Serif" font-size="10.00">FileReader.getFileNameWithout</text>
<text text-anchor="middle" x="680" y="-50.5" font-family="Helvetica,sans-Serif" font-size="10.00">Extension</text>
</a>
</g>
</g>
<!-- Node3&#45;&gt;Node4 -->
<g id="edge3" class="edge"><title>Node3&#45;&gt;Node4</title>
<path fill="none" stroke="midnightblue" d="M555.148,-64C565.929,-64 577.159,-64 588.264,-64"/>
<polygon fill="midnightblue" stroke="midnightblue" points="588.41,-67.5001 598.41,-64 588.41,-60.5001 588.41,-67.5001"/>
</g>
</g>
</svg>
