<?xml version="1.0" encoding="UTF-8" standalone="no"?>
<!DOCTYPE svg PUBLIC "-//W3C//DTD SVG 1.1//EN"
 "http://www.w3.org/Graphics/SVG/1.1/DTD/svg11.dtd">
<!-- Generated by graphviz version 2.36.0 (20140111.2315)
 -->
<!-- Title: commandParser.LanguageFileParser.translateCommand Pages: 1 -->
<svg width="1566pt" height="1410pt"
 viewBox="0.00 0.00 1566.00 1410.00" xmlns="http://www.w3.org/2000/svg" xmlns:xlink="http://www.w3.org/1999/xlink">
<g id="graph0" class="graph" transform="scale(1 1) rotate(0) translate(4 1406)">
<title>commandParser.LanguageFileParser.translateCommand</title>
<polygon fill="white" stroke="none" points="-4,4 -4,-1406 1562,-1406 1562,4 -4,4"/>
<!-- Node1 -->
<g id="node1" class="node"><title>Node1</title>
<polygon fill="#bfbfbf" stroke="black" points="0,-1150 0,-1180 160,-1180 160,-1150 0,-1150"/>
<text text-anchor="start" x="8" y="-1168" font-family="Helvetica,sans-Serif" font-size="10.00">commandParser.LanguageFile</text>
<text text-anchor="middle" x="80" y="-1157" font-family="Helvetica,sans-Serif" font-size="10.00">Parser.translateCommand</text>
</g>
<!-- Node2 -->
<g id="node2" class="node"><title>Node2</title>
<g id="a_node2"><a xlink:href="../../d8/d54/classcommand_parser_1_1_language_file_parser.html#ae28bcd29168ebd799eed22a0661dc383" target="_top" xlink:title="commandParser.LanguageFile\lParser.translateUserInputIntoEnglish">
<polygon fill="white" stroke="black" points="196,-1150 196,-1180 386,-1180 386,-1150 196,-1150"/>
<text text-anchor="start" x="204" y="-1168" font-family="Helvetica,sans-Serif" font-size="10.00">commandParser.LanguageFile</text>
<text text-anchor="middle" x="291" y="-1157" font-family="Helvetica,sans-Serif" font-size="10.00">Parser.translateUserInputIntoEnglish</text>
</a>
</g>
</g>
<!-- Node1&#45;&gt;Node2 -->
<g id="edge1" class="edge"><title>Node1&#45;&gt;Node2</title>
<path fill="none" stroke="midnightblue" d="M170.237,-1165C178.685,-1165 187.27,-1165 195.763,-1165"/>
<polygon fill="midnightblue" stroke="midnightblue" points="170.014,-1161.5 160.014,-1165 170.014,-1168.5 170.014,-1161.5"/>
</g>
<!-- Node3 -->
<g id="node3" class="node"><title>Node3</title>
<g id="a_node3"><a xlink:href="../../d7/db4/classcommands_1_1control_commands_1_1_container_test.html#a5af8d678d8f10708dd2a6051aa069b62" target="_top" xlink:title="commands.controlCommands.\lContainerTest.processInput">
<polygon fill="white" stroke="black" points="447.5,-1357 447.5,-1387 612.5,-1387 612.5,-1357 447.5,-1357"/>
<text text-anchor="start" x="455.5" y="-1375" font-family="Helvetica,sans-Serif" font-size="10.00">commands.controlCommands.</text>
<text text-anchor="middle" x="530" y="-1364" font-family="Helvetica,sans-Serif" font-size="10.00">ContainerTest.processInput</text>
</a>
</g>
</g>
<!-- Node2&#45;&gt;Node3 -->
<g id="edge2" class="edge"><title>Node2&#45;&gt;Node3</title>
<path fill="none" stroke="midnightblue" d="M304.879,-1189.01C325.251,-1224.89 368.178,-1292.47 422,-1332 436.625,-1342.74 454.464,-1350.92 471.352,-1356.98"/>
<polygon fill="midnightblue" stroke="midnightblue" points="307.892,-1187.23 299.967,-1180.2 301.778,-1190.64 307.892,-1187.23"/>
</g>
<!-- Node5 -->
<g id="node5" class="node"><title>Node5</title>
<g id="a_node5"><a xlink:href="../../d1/d08/classcommands_1_1variable_commands_1_1_variable_command_parse_test.html#a3536cbcf387f53c8d880c166c15e10d2" target="_top" xlink:title="commands.variableCommands.\lVariableCommandParseTest.processInput">
<polygon fill="white" stroke="black" points="422.5,-1293 422.5,-1323 637.5,-1323 637.5,-1293 422.5,-1293"/>
<text text-anchor="start" x="430.5" y="-1311" font-family="Helvetica,sans-Serif" font-size="10.00">commands.variableCommands.</text>
<text text-anchor="middle" x="530" y="-1300" font-family="Helvetica,sans-Serif" font-size="10.00">VariableCommandParseTest.processInput</text>
</a>
</g>
</g>
<!-- Node2&#45;&gt;Node5 -->
<g id="edge4" class="edge"><title>Node2&#45;&gt;Node5</title>
<path fill="none" stroke="midnightblue" d="M318.668,-1186.68C344.232,-1206.87 384.384,-1237.07 422,-1259 444.241,-1271.96 470.509,-1284.04 491.452,-1292.96"/>
<polygon fill="midnightblue" stroke="midnightblue" points="320.586,-1183.73 310.582,-1180.24 316.225,-1189.21 320.586,-1183.73"/>
</g>
<!-- Node7 -->
<g id="node7" class="node"><title>Node7</title>
<g id="a_node7"><a xlink:href="../../d9/d00/classcommunicator_1_1_main_controller.html#a63543f74d98f650f2ee4026151189fa8" target="_top" xlink:title="communicator.MainController.receive\lCommand">
<polygon fill="white" stroke="black" points="433,-1220 433,-1250 627,-1250 627,-1220 433,-1220"/>
<text text-anchor="start" x="441" y="-1238" font-family="Helvetica,sans-Serif" font-size="10.00">communicator.MainController.receive</text>
<text text-anchor="middle" x="530" y="-1227" font-family="Helvetica,sans-Serif" font-size="10.00">Command</text>
</a>
</g>
</g>
<!-- Node2&#45;&gt;Node7 -->
<g id="edge6" class="edge"><title>Node2&#45;&gt;Node7</title>
<path fill="none" stroke="midnightblue" d="M344.268,-1183.25C367.887,-1191.24 396.222,-1200.5 422,-1208 436.256,-1212.15 451.687,-1216.26 466.275,-1219.98"/>
<polygon fill="midnightblue" stroke="midnightblue" points="345.388,-1179.93 334.794,-1180.02 343.132,-1186.56 345.388,-1179.93"/>
</g>
<!-- Node14 -->
<g id="node14" class="node"><title>Node14</title>
<g id="a_node14"><a xlink:href="../../dd/d30/classtests_1_1_ask_test.html#a8d408863dc53f60d7a73c7dad924325a" target="_top" xlink:title="tests.AskTest.processInput">
<polygon fill="white" stroke="black" points="458,-1179.5 458,-1198.5 602,-1198.5 602,-1179.5 458,-1179.5"/>
<text text-anchor="middle" x="530" y="-1186.5" font-family="Helvetica,sans-Serif" font-size="10.00">tests.AskTest.processInput</text>
</a>
</g>
</g>
<!-- Node2&#45;&gt;Node14 -->
<g id="edge14" class="edge"><title>Node2&#45;&gt;Node14</title>
<path fill="none" stroke="midnightblue" d="M396.167,-1175.55C416.979,-1177.66 438.39,-1179.82 457.781,-1181.79"/>
<polygon fill="midnightblue" stroke="midnightblue" points="396.311,-1172.05 386.009,-1174.52 395.606,-1179.01 396.311,-1172.05"/>
</g>
<!-- Node16 -->
<g id="node16" class="node"><title>Node16</title>
<g id="a_node16"><a xlink:href="../../d3/d0c/classtests_1_1_ask_with_test.html#a9d43a79de385803c300e7b2cf0c13b00" target="_top" xlink:title="tests.AskWithTest.process\lInput">
<polygon fill="white" stroke="black" points="460,-1127 460,-1157 600,-1157 600,-1127 460,-1127"/>
<text text-anchor="start" x="468" y="-1145" font-family="Helvetica,sans-Serif" font-size="10.00">tests.AskWithTest.process</text>
<text text-anchor="middle" x="530" y="-1134" font-family="Helvetica,sans-Serif" font-size="10.00">Input</text>
</a>
</g>
</g>
<!-- Node2&#45;&gt;Node16 -->
<g id="edge16" class="edge"><title>Node2&#45;&gt;Node16</title>
<path fill="none" stroke="midnightblue" d="M396.205,-1154.89C417.791,-1152.79 440.019,-1150.64 459.968,-1148.7"/>
<polygon fill="midnightblue" stroke="midnightblue" points="395.624,-1151.43 386.009,-1155.88 396.3,-1158.39 395.624,-1151.43"/>
</g>
<!-- Node19 -->
<g id="node19" class="node"><title>Node19</title>
<g id="a_node19"><a xlink:href="../../de/d2e/classtests_1_1_expression_command_parse_test.html#ad0311bdfc0b2540e3206d6cd41a23d13" target="_top" xlink:title="tests.ExpressionCommandParse\lTest.processInput">
<polygon fill="white" stroke="black" points="444,-588 444,-618 616,-618 616,-588 444,-588"/>
<text text-anchor="start" x="452" y="-606" font-family="Helvetica,sans-Serif" font-size="10.00">tests.ExpressionCommandParse</text>
<text text-anchor="middle" x="530" y="-595" font-family="Helvetica,sans-Serif" font-size="10.00">Test.processInput</text>
</a>
</g>
</g>
<!-- Node2&#45;&gt;Node19 -->
<g id="edge19" class="edge"><title>Node2&#45;&gt;Node19</title>
<path fill="none" stroke="midnightblue" d="M302.33,-1140.5C342.833,-1044.46 490.172,-695.073 522.641,-618.079"/>
<polygon fill="midnightblue" stroke="midnightblue" points="299,-1139.39 298.339,-1149.97 305.45,-1142.11 299,-1139.39"/>
</g>
<!-- Node40 -->
<g id="node40" class="node"><title>Node40</title>
<g id="a_node40"><a xlink:href="../../d0/d33/classtests_1_1_to_command_test.html#a4eaf8f664432093c7eb1c552923097c3" target="_top" xlink:title="tests.ToCommandTest.process\lInput">
<polygon fill="white" stroke="black" points="448.5,-417 448.5,-447 611.5,-447 611.5,-417 448.5,-417"/>
<text text-anchor="start" x="456.5" y="-435" font-family="Helvetica,sans-Serif" font-size="10.00">tests.ToCommandTest.process</text>
<text text-anchor="middle" x="530" y="-424" font-family="Helvetica,sans-Serif" font-size="10.00">Input</text>
</a>
</g>
</g>
<!-- Node2&#45;&gt;Node40 -->
<g id="edge40" class="edge"><title>Node2&#45;&gt;Node40</title>
<path fill="none" stroke="midnightblue" d="M293.872,-1139.66C300.822,-1055.92 329.697,-781.838 422,-578 445.982,-525.04 491.181,-472.378 514.408,-447.24"/>
<polygon fill="midnightblue" stroke="midnightblue" points="290.373,-1139.51 293.065,-1149.76 297.35,-1140.07 290.373,-1139.51"/>
</g>
<!-- Node42 -->
<g id="node42" class="node"><title>Node42</title>
<g id="a_node42"><a xlink:href="../../d9/d76/classtests_1_1_turtle_commands_test.html#a26b7fee4439a47d622fb58826d281a1f" target="_top" xlink:title="tests.TurtleCommandsTest.process\lInput">
<polygon fill="white" stroke="black" points="438,-123 438,-153 622,-153 622,-123 438,-123"/>
<text text-anchor="start" x="446" y="-141" font-family="Helvetica,sans-Serif" font-size="10.00">tests.TurtleCommandsTest.process</text>
<text text-anchor="middle" x="530" y="-130" font-family="Helvetica,sans-Serif" font-size="10.00">Input</text>
</a>
</g>
</g>
<!-- Node2&#45;&gt;Node42 -->
<g id="edge42" class="edge"><title>Node2&#45;&gt;Node42</title>
<path fill="none" stroke="midnightblue" d="M294.392,-1139.79C303.954,-1043.28 342.798,-688.555 422,-407 450.105,-307.09 502.49,-193.333 521.698,-153.076"/>
<polygon fill="midnightblue" stroke="midnightblue" points="290.905,-1139.49 293.417,-1149.78 297.872,-1140.17 290.905,-1139.49"/>
</g>
<!-- Node4 -->
<g id="node4" class="node"><title>Node4</title>
<g id="a_node4"><a xlink:href="../../d7/db4/classcommands_1_1control_commands_1_1_container_test.html#a5ff9cdf49eafe0435d4b9e0ce3eb38a9" target="_top" xlink:title="commands.controlCommands.\lContainerTest.testThatIfWorks">
<polygon fill="white" stroke="black" points="688.5,-1372 688.5,-1402 853.5,-1402 853.5,-1372 688.5,-1372"/>
<text text-anchor="start" x="696.5" y="-1390" font-family="Helvetica,sans-Serif" font-size="10.00">commands.controlCommands.</text>
<text text-anchor="middle" x="771" y="-1379" font-family="Helvetica,sans-Serif" font-size="10.00">ContainerTest.testThatIfWorks</text>
</a>
</g>
</g>
<!-- Node3&#45;&gt;Node4 -->
<g id="edge3" class="edge"><title>Node3&#45;&gt;Node4</title>
<path fill="none" stroke="midnightblue" d="M622.742,-1377.76C644.354,-1379.11 667.248,-1380.55 688.38,-1381.88"/>
<polygon fill="midnightblue" stroke="midnightblue" points="622.781,-1374.25 612.582,-1377.12 622.343,-1381.24 622.781,-1374.25"/>
</g>
<!-- Node6 -->
<g id="node6" class="node"><title>Node6</title>
<g id="a_node6"><a xlink:href="../../d1/d08/classcommands_1_1variable_commands_1_1_variable_command_parse_test.html#a5510e9369499cabedeb2f6825b3e5f1a" target="_top" xlink:title="commands.variableCommands.\lVariableCommandParseTest.testThat\lVariableIsGet">
<polygon fill="white" stroke="black" points="674.5,-1312.5 674.5,-1353.5 867.5,-1353.5 867.5,-1312.5 674.5,-1312.5"/>
<text text-anchor="start" x="682.5" y="-1341.5" font-family="Helvetica,sans-Serif" font-size="10.00">commands.variableCommands.</text>
<text text-anchor="start" x="682.5" y="-1330.5" font-family="Helvetica,sans-Serif" font-size="10.00">VariableCommandParseTest.testThat</text>
<text text-anchor="middle" x="771" y="-1319.5" font-family="Helvetica,sans-Serif" font-size="10.00">VariableIsGet</text>
</a>
</g>
</g>
<!-- Node5&#45;&gt;Node6 -->
<g id="edge5" class="edge"><title>Node5&#45;&gt;Node6</title>
<path fill="none" stroke="midnightblue" d="M647.606,-1320.2C656.514,-1321.13 665.443,-1322.06 674.195,-1322.98"/>
<polygon fill="midnightblue" stroke="midnightblue" points="647.879,-1316.71 637.569,-1319.15 647.151,-1323.67 647.879,-1316.71"/>
</g>
<!-- Node8 -->
<g id="node8" class="node"><title>Node8</title>
<g id="a_node8"><a xlink:href="../../d6/d33/class_view_1_1_slogo_view.html#a1a67765bb114e471855080a9938049a7" target="_top" xlink:title="View.SlogoView.sendCommand\lAndMakeButton">
<polygon fill="white" stroke="black" points="688.5,-1264 688.5,-1294 853.5,-1294 853.5,-1264 688.5,-1264"/>
<text text-anchor="start" x="696.5" y="-1282" font-family="Helvetica,sans-Serif" font-size="10.00">View.SlogoView.sendCommand</text>
<text text-anchor="middle" x="771" y="-1271" font-family="Helvetica,sans-Serif" font-size="10.00">AndMakeButton</text>
</a>
</g>
</g>
<!-- Node7&#45;&gt;Node8 -->
<g id="edge7" class="edge"><title>Node7&#45;&gt;Node8</title>
<path fill="none" stroke="midnightblue" d="M622.448,-1251.84C644.147,-1255.83 667.153,-1260.07 688.38,-1263.97"/>
<polygon fill="midnightblue" stroke="midnightblue" points="623.05,-1248.39 612.582,-1250.02 621.783,-1255.27 623.05,-1248.39"/>
</g>
<!-- Node13 -->
<g id="node13" class="node"><title>Node13</title>
<g id="a_node13"><a xlink:href="../../d6/d33/class_view_1_1_slogo_view.html#acaa2b33418cebb60111d0acfef03e832" target="_top" xlink:title="View.SlogoView.executeUser\lCommand">
<polygon fill="white" stroke="black" points="915,-1220 915,-1250 1067,-1250 1067,-1220 915,-1220"/>
<text text-anchor="start" x="923" y="-1238" font-family="Helvetica,sans-Serif" font-size="10.00">View.SlogoView.executeUser</text>
<text text-anchor="middle" x="991" y="-1227" font-family="Helvetica,sans-Serif" font-size="10.00">Command</text>
</a>
</g>
</g>
<!-- Node7&#45;&gt;Node13 -->
<g id="edge13" class="edge"><title>Node7&#45;&gt;Node13</title>
<path fill="none" stroke="midnightblue" d="M637.417,-1235C722.36,-1235 839.25,-1235 914.722,-1235"/>
<polygon fill="midnightblue" stroke="midnightblue" points="637.221,-1231.5 627.221,-1235 637.221,-1238.5 637.221,-1231.5"/>
</g>
<!-- Node9 -->
<g id="node9" class="node"><title>Node9</title>
<g id="a_node9"><a xlink:href="../../d6/d33/class_view_1_1_slogo_view.html#a468acf266470c356f2f36e7eb2f327e8" target="_top" xlink:title="View.SlogoView.createCommand\lLineWithLabel">
<polygon fill="white" stroke="black" points="904.5,-1269 904.5,-1299 1077.5,-1299 1077.5,-1269 904.5,-1269"/>
<text text-anchor="start" x="912.5" y="-1287" font-family="Helvetica,sans-Serif" font-size="10.00">View.SlogoView.createCommand</text>
<text text-anchor="middle" x="991" y="-1276" font-family="Helvetica,sans-Serif" font-size="10.00">LineWithLabel</text>
</a>
</g>
</g>
<!-- Node8&#45;&gt;Node9 -->
<g id="edge8" class="edge"><title>Node8&#45;&gt;Node9</title>
<path fill="none" stroke="midnightblue" d="M863.978,-1281.11C877.403,-1281.42 891.181,-1281.73 904.47,-1282.04"/>
<polygon fill="midnightblue" stroke="midnightblue" points="863.873,-1277.61 853.795,-1280.88 863.712,-1284.6 863.873,-1277.61"/>
</g>
<!-- Node8&#45;&gt;Node13 -->
<g id="edge12" class="edge"><title>Node8&#45;&gt;Node13</title>
<path fill="none" stroke="midnightblue" d="M856.216,-1262C875.772,-1258.06 896.451,-1253.88 915.552,-1250.03"/>
<polygon fill="midnightblue" stroke="midnightblue" points="855.523,-1258.57 846.414,-1263.98 856.908,-1265.43 855.523,-1258.57"/>
</g>
<!-- Node10 -->
<g id="node10" class="node"><title>Node10</title>
<g id="a_node10"><a xlink:href="../../d6/d33/class_view_1_1_slogo_view.html#ac64a43649ed5417854c37ec25320e925" target="_top" xlink:title="View.SlogoView.setTextArea">
<polygon fill="white" stroke="black" points="1114,-1274.5 1114,-1293.5 1262,-1293.5 1262,-1274.5 1114,-1274.5"/>
<text text-anchor="middle" x="1188" y="-1281.5" font-family="Helvetica,sans-Serif" font-size="10.00">View.SlogoView.setTextArea</text>
</a>
</g>
</g>
<!-- Node9&#45;&gt;Node10 -->
<g id="edge9" class="edge"><title>Node9&#45;&gt;Node10</title>
<path fill="none" stroke="midnightblue" d="M1087.76,-1284C1096.5,-1284 1105.25,-1284 1113.75,-1284"/>
<polygon fill="midnightblue" stroke="midnightblue" points="1087.53,-1280.5 1077.53,-1284 1087.53,-1287.5 1087.53,-1280.5"/>
</g>
<!-- Node11 -->
<g id="node11" class="node"><title>Node11</title>
<g id="a_node11"><a xlink:href="../../d6/d33/class_view_1_1_slogo_view.html#acfeff052503655d2ac419d2bf4ea9bd5" target="_top" xlink:title="View.SlogoView.initialize">
<polygon fill="white" stroke="black" points="1298,-1274.5 1298,-1293.5 1428,-1293.5 1428,-1274.5 1298,-1274.5"/>
<text text-anchor="middle" x="1363" y="-1281.5" font-family="Helvetica,sans-Serif" font-size="10.00">View.SlogoView.initialize</text>
</a>
</g>
</g>
<!-- Node10&#45;&gt;Node11 -->
<g id="edge10" class="edge"><title>Node10&#45;&gt;Node11</title>
<path fill="none" stroke="midnightblue" d="M1272.22,-1284C1280.85,-1284 1289.53,-1284 1297.91,-1284"/>
<polygon fill="midnightblue" stroke="midnightblue" points="1272.12,-1280.5 1262.12,-1284 1272.12,-1287.5 1272.12,-1280.5"/>
</g>
<!-- Node12 -->
<g id="node12" class="node"><title>Node12</title>
<g id="a_node12"><a xlink:href="../../db/d27/class_view_1_1_slogo.html#a6ab76a53160b61d8501aec91c55b85c8" target="_top" xlink:title="View.Slogo.start">
<polygon fill="white" stroke="black" points="1464.5,-1274.5 1464.5,-1293.5 1557.5,-1293.5 1557.5,-1274.5 1464.5,-1274.5"/>
<text text-anchor="middle" x="1511" y="-1281.5" font-family="Helvetica,sans-Serif" font-size="10.00">View.Slogo.start</text>
</a>
</g>
</g>
<!-- Node11&#45;&gt;Node12 -->
<g id="edge11" class="edge"><title>Node11&#45;&gt;Node12</title>
<path fill="none" stroke="midnightblue" d="M1438.14,-1284C1447.11,-1284 1456.05,-1284 1464.43,-1284"/>
<polygon fill="midnightblue" stroke="midnightblue" points="1438.04,-1280.5 1428.04,-1284 1438.04,-1287.5 1438.04,-1280.5"/>
</g>
<!-- Node15 -->
<g id="node15" class="node"><title>Node15</title>
<g id="a_node15"><a xlink:href="../../dd/d30/classtests_1_1_ask_test.html#a35ae726a31ba673fc7d80bcbc4a69e24" target="_top" xlink:title="tests.AskTest.testThatAsk\lCreatesTurtles">
<polygon fill="white" stroke="black" points="701,-1176 701,-1206 841,-1206 841,-1176 701,-1176"/>
<text text-anchor="start" x="709" y="-1194" font-family="Helvetica,sans-Serif" font-size="10.00">tests.AskTest.testThatAsk</text>
<text text-anchor="middle" x="771" y="-1183" font-family="Helvetica,sans-Serif" font-size="10.00">CreatesTurtles</text>
</a>
</g>
</g>
<!-- Node14&#45;&gt;Node15 -->
<g id="edge15" class="edge"><title>Node14&#45;&gt;Node15</title>
<path fill="none" stroke="midnightblue" d="M612.108,-1189.68C640.944,-1189.92 673.116,-1190.19 700.858,-1190.42"/>
<polygon fill="midnightblue" stroke="midnightblue" points="612.09,-1186.18 602.061,-1189.59 612.031,-1193.18 612.09,-1186.18"/>
</g>
<!-- Node17 -->
<g id="node17" class="node"><title>Node17</title>
<g id="a_node17"><a xlink:href="../../d3/d0c/classtests_1_1_ask_with_test.html#a54f2ed263239909256bb93e91afc3ecc" target="_top" xlink:title="tests.AskWithTest.testAlways\lTrueAskWith">
<polygon fill="white" stroke="black" points="694,-1127 694,-1157 848,-1157 848,-1127 694,-1127"/>
<text text-anchor="start" x="702" y="-1145" font-family="Helvetica,sans-Serif" font-size="10.00">tests.AskWithTest.testAlways</text>
<text text-anchor="middle" x="771" y="-1134" font-family="Helvetica,sans-Serif" font-size="10.00">TrueAskWith</text>
</a>
</g>
</g>
<!-- Node16&#45;&gt;Node17 -->
<g id="edge17" class="edge"><title>Node16&#45;&gt;Node17</title>
<path fill="none" stroke="midnightblue" d="M610.286,-1142C637.217,-1142 667.233,-1142 693.909,-1142"/>
<polygon fill="midnightblue" stroke="midnightblue" points="610.129,-1138.5 600.129,-1142 610.129,-1145.5 610.129,-1138.5"/>
</g>
<!-- Node18 -->
<g id="node18" class="node"><title>Node18</title>
<g id="a_node18"><a xlink:href="../../d3/d0c/classtests_1_1_ask_with_test.html#a49a8519276b23ed93a3f90d7c2058fc5" target="_top" xlink:title="tests.AskWithTest.testXCor\lAskWith">
<polygon fill="white" stroke="black" points="699.5,-1078 699.5,-1108 842.5,-1108 842.5,-1078 699.5,-1078"/>
<text text-anchor="start" x="707.5" y="-1096" font-family="Helvetica,sans-Serif" font-size="10.00">tests.AskWithTest.testXCor</text>
<text text-anchor="middle" x="771" y="-1085" font-family="Helvetica,sans-Serif" font-size="10.00">AskWith</text>
</a>
</g>
</g>
<!-- Node16&#45;&gt;Node18 -->
<g id="edge18" class="edge"><title>Node16&#45;&gt;Node18</title>
<path fill="none" stroke="midnightblue" d="M610.161,-1125.77C638.977,-1119.86 671.339,-1113.23 699.368,-1107.48"/>
<polygon fill="midnightblue" stroke="midnightblue" points="609.222,-1122.39 600.129,-1127.83 610.628,-1129.25 609.222,-1122.39"/>
</g>
<!-- Node20 -->
<g id="node20" class="node"><title>Node20</title>
<g id="a_node20"><a xlink:href="../../de/d2e/classtests_1_1_expression_command_parse_test.html#a9e9aaaa5a415abbcc708a4be262e1199" target="_top" xlink:title="tests.ExpressionCommandParse\lTest.testSumParses">
<polygon fill="white" stroke="black" points="685,-1029 685,-1059 857,-1059 857,-1029 685,-1029"/>
<text text-anchor="start" x="693" y="-1047" font-family="Helvetica,sans-Serif" font-size="10.00">tests.ExpressionCommandParse</text>
<text text-anchor="middle" x="771" y="-1036" font-family="Helvetica,sans-Serif" font-size="10.00">Test.testSumParses</text>
</a>
</g>
</g>
<!-- Node19&#45;&gt;Node20 -->
<g id="edge20" class="edge"><title>Node19&#45;&gt;Node20</title>
<path fill="none" stroke="midnightblue" d="M531.81,-628.185C535.547,-700.432 556.501,-910.145 674,-1019 678.169,-1022.86 682.859,-1026.14 687.865,-1028.93"/>
<polygon fill="midnightblue" stroke="midnightblue" points="535.306,-628.011 531.36,-618.178 528.313,-628.325 535.306,-628.011"/>
</g>
<!-- Node21 -->
<g id="node21" class="node"><title>Node21</title>
<g id="a_node21"><a xlink:href="../../de/d2e/classtests_1_1_expression_command_parse_test.html#a9c09cab3c9f9a85ec6be2f101780ce25" target="_top" xlink:title="tests.ExpressionCommandParse\lTest.testDifference">
<polygon fill="white" stroke="black" points="685,-980 685,-1010 857,-1010 857,-980 685,-980"/>
<text text-anchor="start" x="693" y="-998" font-family="Helvetica,sans-Serif" font-size="10.00">tests.ExpressionCommandParse</text>
<text text-anchor="middle" x="771" y="-987" font-family="Helvetica,sans-Serif" font-size="10.00">Test.testDifference</text>
</a>
</g>
</g>
<!-- Node19&#45;&gt;Node21 -->
<g id="edge21" class="edge"><title>Node19&#45;&gt;Node21</title>
<path fill="none" stroke="midnightblue" d="M533.138,-628.327C540.152,-694.904 568.492,-876.147 674,-970 678.375,-973.892 683.282,-977.191 688.501,-979.986"/>
<polygon fill="midnightblue" stroke="midnightblue" points="536.614,-627.92 532.155,-618.309 529.648,-628.603 536.614,-627.92"/>
</g>
<!-- Node22 -->
<g id="node22" class="node"><title>Node22</title>
<g id="a_node22"><a xlink:href="../../de/d2e/classtests_1_1_expression_command_parse_test.html#a2d4c7f15e08a1ebac70ccce175caafa8" target="_top" xlink:title="tests.ExpressionCommandParse\lTest.testProduct">
<polygon fill="white" stroke="black" points="685,-931 685,-961 857,-961 857,-931 685,-931"/>
<text text-anchor="start" x="693" y="-949" font-family="Helvetica,sans-Serif" font-size="10.00">tests.ExpressionCommandParse</text>
<text text-anchor="middle" x="771" y="-938" font-family="Helvetica,sans-Serif" font-size="10.00">Test.testProduct</text>
</a>
</g>
</g>
<!-- Node19&#45;&gt;Node22 -->
<g id="edge22" class="edge"><title>Node19&#45;&gt;Node22</title>
<path fill="none" stroke="midnightblue" d="M534.799,-628.162C545.258,-688.398 580.19,-841.747 674,-921 678.605,-924.89 683.745,-928.184 689.187,-930.971"/>
<polygon fill="midnightblue" stroke="midnightblue" points="538.209,-627.331 533.123,-618.038 531.303,-628.475 538.209,-627.331"/>
</g>
<!-- Node23 -->
<g id="node23" class="node"><title>Node23</title>
<g id="a_node23"><a xlink:href="../../de/d2e/classtests_1_1_expression_command_parse_test.html#acf648d3a09aa6a2a05c1bb2b405eb3d3" target="_top" xlink:title="tests.ExpressionCommandParse\lTest.testQuotient">
<polygon fill="white" stroke="black" points="685,-882 685,-912 857,-912 857,-882 685,-882"/>
<text text-anchor="start" x="693" y="-900" font-family="Helvetica,sans-Serif" font-size="10.00">tests.ExpressionCommandParse</text>
<text text-anchor="middle" x="771" y="-889" font-family="Helvetica,sans-Serif" font-size="10.00">Test.testQuotient</text>
</a>
</g>
</g>
<!-- Node19&#45;&gt;Node23 -->
<g id="edge23" class="edge"><title>Node19&#45;&gt;Node23</title>
<path fill="none" stroke="midnightblue" d="M537.068,-628.279C551.272,-681.839 591.872,-807.137 674,-872 678.866,-875.843 684.261,-879.099 689.942,-881.858"/>
<polygon fill="midnightblue" stroke="midnightblue" points="540.376,-627.092 534.503,-618.274 533.596,-628.83 540.376,-627.092"/>
</g>
<!-- Node24 -->
<g id="node24" class="node"><title>Node24</title>
<g id="a_node24"><a xlink:href="../../de/d2e/classtests_1_1_expression_command_parse_test.html#adc00834efe87e3bd1a9763276552daf8" target="_top" xlink:title="tests.ExpressionCommandParse\lTest.testRemainder">
<polygon fill="white" stroke="black" points="685,-833 685,-863 857,-863 857,-833 685,-833"/>
<text text-anchor="start" x="693" y="-851" font-family="Helvetica,sans-Serif" font-size="10.00">tests.ExpressionCommandParse</text>
<text text-anchor="middle" x="771" y="-840" font-family="Helvetica,sans-Serif" font-size="10.00">Test.testRemainder</text>
</a>
</g>
</g>
<!-- Node19&#45;&gt;Node24 -->
<g id="edge24" class="edge"><title>Node19&#45;&gt;Node24</title>
<path fill="none" stroke="midnightblue" d="M539.915,-627.467C557.879,-673.222 602.885,-771.736 674,-823 679.309,-826.827 685.157,-830.069 691.267,-832.815"/>
<polygon fill="midnightblue" stroke="midnightblue" points="543.148,-626.122 536.304,-618.034 536.611,-628.624 543.148,-626.122"/>
</g>
<!-- Node25 -->
<g id="node25" class="node"><title>Node25</title>
<g id="a_node25"><a xlink:href="../../de/d2e/classtests_1_1_expression_command_parse_test.html#adaa43c42c9c25f456ee97a540afdc3e8" target="_top" xlink:title="tests.ExpressionCommandParse\lTest.testRandom">
<polygon fill="white" stroke="black" points="685,-784 685,-814 857,-814 857,-784 685,-784"/>
<text text-anchor="start" x="693" y="-802" font-family="Helvetica,sans-Serif" font-size="10.00">tests.ExpressionCommandParse</text>
<text text-anchor="middle" x="771" y="-791" font-family="Helvetica,sans-Serif" font-size="10.00">Test.testRandom</text>
</a>
</g>
</g>
<!-- Node19&#45;&gt;Node25 -->
<g id="edge25" class="edge"><title>Node19&#45;&gt;Node25</title>
<path fill="none" stroke="midnightblue" d="M544.162,-626.702C566.093,-663.938 613.719,-735.824 674,-774 680.111,-777.87 686.801,-781.143 693.715,-783.911"/>
<polygon fill="midnightblue" stroke="midnightblue" points="547.181,-624.931 539.148,-618.023 541.12,-628.433 547.181,-624.931"/>
</g>
<!-- Node26 -->
<g id="node26" class="node"><title>Node26</title>
<g id="a_node26"><a xlink:href="../../de/d2e/classtests_1_1_expression_command_parse_test.html#aad5b7d0a5182da6dd0abba756ad0e751" target="_top" xlink:title="tests.ExpressionCommandParse\lTest.testMinus">
<polygon fill="white" stroke="black" points="685,-735 685,-765 857,-765 857,-735 685,-735"/>
<text text-anchor="start" x="693" y="-753" font-family="Helvetica,sans-Serif" font-size="10.00">tests.ExpressionCommandParse</text>
<text text-anchor="middle" x="771" y="-742" font-family="Helvetica,sans-Serif" font-size="10.00">Test.testMinus</text>
</a>
</g>
</g>
<!-- Node19&#45;&gt;Node26 -->
<g id="edge26" class="edge"><title>Node19&#45;&gt;Node26</title>
<path fill="none" stroke="midnightblue" d="M551.41,-625.834C577.275,-653.377 624.485,-699.188 674,-725 681.407,-728.861 689.453,-732.157 697.63,-734.962"/>
<polygon fill="midnightblue" stroke="midnightblue" points="553.753,-623.212 544.393,-618.248 548.614,-627.965 553.753,-623.212"/>
</g>
<!-- Node27 -->
<g id="node27" class="node"><title>Node27</title>
<g id="a_node27"><a xlink:href="../../de/d2e/classtests_1_1_expression_command_parse_test.html#ae638345ab0fe49a27e67c764ed342a80" target="_top" xlink:title="tests.ExpressionCommandParse\lTest.testPower">
<polygon fill="white" stroke="black" points="685,-686 685,-716 857,-716 857,-686 685,-686"/>
<text text-anchor="start" x="693" y="-704" font-family="Helvetica,sans-Serif" font-size="10.00">tests.ExpressionCommandParse</text>
<text text-anchor="middle" x="771" y="-693" font-family="Helvetica,sans-Serif" font-size="10.00">Test.testPower</text>
</a>
</g>
</g>
<!-- Node19&#45;&gt;Node27 -->
<g id="edge27" class="edge"><title>Node19&#45;&gt;Node27</title>
<path fill="none" stroke="midnightblue" d="M565.04,-623.044C593.425,-639.099 635.327,-661.294 674,-676 683.659,-679.673 694.063,-682.997 704.334,-685.935"/>
<polygon fill="midnightblue" stroke="midnightblue" points="566.74,-619.985 556.32,-618.065 563.268,-626.063 566.74,-619.985"/>
</g>
<!-- Node28 -->
<g id="node28" class="node"><title>Node28</title>
<g id="a_node28"><a xlink:href="../../de/d2e/classtests_1_1_expression_command_parse_test.html#a136204feb445f26c107203e5d0a248bf" target="_top" xlink:title="tests.ExpressionCommandParse\lTest.testSin">
<polygon fill="white" stroke="black" points="685,-637 685,-667 857,-667 857,-637 685,-637"/>
<text text-anchor="start" x="693" y="-655" font-family="Helvetica,sans-Serif" font-size="10.00">tests.ExpressionCommandParse</text>
<text text-anchor="middle" x="771" y="-644" font-family="Helvetica,sans-Serif" font-size="10.00">Test.testSin</text>
</a>
</g>
</g>
<!-- Node19&#45;&gt;Node28 -->
<g id="edge28" class="edge"><title>Node19&#45;&gt;Node28</title>
<path fill="none" stroke="midnightblue" d="M614.468,-620.113C641.289,-625.611 670.781,-631.658 696.807,-636.994"/>
<polygon fill="midnightblue" stroke="midnightblue" points="614.831,-616.614 604.332,-618.035 613.425,-623.472 614.831,-616.614"/>
</g>
<!-- Node29 -->
<g id="node29" class="node"><title>Node29</title>
<g id="a_node29"><a xlink:href="../../de/d2e/classtests_1_1_expression_command_parse_test.html#a7c091eeaa6fcdf81f42b1f4999a4c3b4" target="_top" xlink:title="tests.ExpressionCommandParse\lTest.testCos">
<polygon fill="white" stroke="black" points="685,-588 685,-618 857,-618 857,-588 685,-588"/>
<text text-anchor="start" x="693" y="-606" font-family="Helvetica,sans-Serif" font-size="10.00">tests.ExpressionCommandParse</text>
<text text-anchor="middle" x="771" y="-595" font-family="Helvetica,sans-Serif" font-size="10.00">Test.testCos</text>
</a>
</g>
</g>
<!-- Node19&#45;&gt;Node29 -->
<g id="edge29" class="edge"><title>Node19&#45;&gt;Node29</title>
<path fill="none" stroke="midnightblue" d="M626.285,-603C645.608,-603 665.812,-603 684.761,-603"/>
<polygon fill="midnightblue" stroke="midnightblue" points="626.272,-599.5 616.272,-603 626.272,-606.5 626.272,-599.5"/>
</g>
<!-- Node30 -->
<g id="node30" class="node"><title>Node30</title>
<g id="a_node30"><a xlink:href="../../de/d2e/classtests_1_1_expression_command_parse_test.html#a2b2cb32a4e303a753c5b516252061cb1" target="_top" xlink:title="tests.ExpressionCommandParse\lTest.testTan">
<polygon fill="white" stroke="black" points="685,-539 685,-569 857,-569 857,-539 685,-539"/>
<text text-anchor="start" x="693" y="-557" font-family="Helvetica,sans-Serif" font-size="10.00">tests.ExpressionCommandParse</text>
<text text-anchor="middle" x="771" y="-546" font-family="Helvetica,sans-Serif" font-size="10.00">Test.testTan</text>
</a>
</g>
</g>
<!-- Node19&#45;&gt;Node30 -->
<g id="edge30" class="edge"><title>Node19&#45;&gt;Node30</title>
<path fill="none" stroke="midnightblue" d="M614.468,-585.887C641.289,-580.389 670.781,-574.342 696.807,-569.006"/>
<polygon fill="midnightblue" stroke="midnightblue" points="613.425,-582.528 604.332,-587.965 614.831,-589.386 613.425,-582.528"/>
</g>
<!-- Node31 -->
<g id="node31" class="node"><title>Node31</title>
<g id="a_node31"><a xlink:href="../../de/d2e/classtests_1_1_expression_command_parse_test.html#ab16d8f3c97b33e37ade041424eaede28" target="_top" xlink:title="tests.ExpressionCommandParse\lTest.testATan">
<polygon fill="white" stroke="black" points="685,-490 685,-520 857,-520 857,-490 685,-490"/>
<text text-anchor="start" x="693" y="-508" font-family="Helvetica,sans-Serif" font-size="10.00">tests.ExpressionCommandParse</text>
<text text-anchor="middle" x="771" y="-497" font-family="Helvetica,sans-Serif" font-size="10.00">Test.testATan</text>
</a>
</g>
</g>
<!-- Node19&#45;&gt;Node31 -->
<g id="edge31" class="edge"><title>Node19&#45;&gt;Node31</title>
<path fill="none" stroke="midnightblue" d="M564.45,-582.85C592.796,-566.477 634.949,-543.755 674,-529 682.759,-525.691 692.139,-522.703 701.479,-520.049"/>
<polygon fill="midnightblue" stroke="midnightblue" points="562.626,-579.862 555.753,-587.925 566.154,-585.908 562.626,-579.862"/>
</g>
<!-- Node32 -->
<g id="node32" class="node"><title>Node32</title>
<g id="a_node32"><a xlink:href="../../de/d2e/classtests_1_1_expression_command_parse_test.html#abc8349e349751cefe738aeec853eb33a" target="_top" xlink:title="tests.ExpressionCommandParse\lTest.naturalLogTest">
<polygon fill="white" stroke="black" points="685,-441 685,-471 857,-471 857,-441 685,-441"/>
<text text-anchor="start" x="693" y="-459" font-family="Helvetica,sans-Serif" font-size="10.00">tests.ExpressionCommandParse</text>
<text text-anchor="middle" x="771" y="-448" font-family="Helvetica,sans-Serif" font-size="10.00">Test.naturalLogTest</text>
</a>
</g>
</g>
<!-- Node19&#45;&gt;Node32 -->
<g id="edge32" class="edge"><title>Node19&#45;&gt;Node32</title>
<path fill="none" stroke="midnightblue" d="M550.92,-580.335C576.611,-552.527 623.974,-505.896 674,-480 680.637,-476.565 687.79,-473.604 695.092,-471.055"/>
<polygon fill="midnightblue" stroke="midnightblue" points="548.104,-578.229 543.963,-587.981 553.282,-582.939 548.104,-578.229"/>
</g>
<!-- Node33 -->
<g id="node33" class="node"><title>Node33</title>
<g id="a_node33"><a xlink:href="../../de/d2e/classtests_1_1_expression_command_parse_test.html#ae220f7496c25bae0b0b20e298ef3917b" target="_top" xlink:title="tests.ExpressionCommandParse\lTest.testLess">
<polygon fill="white" stroke="black" points="685,-392 685,-422 857,-422 857,-392 685,-392"/>
<text text-anchor="start" x="693" y="-410" font-family="Helvetica,sans-Serif" font-size="10.00">tests.ExpressionCommandParse</text>
<text text-anchor="middle" x="771" y="-399" font-family="Helvetica,sans-Serif" font-size="10.00">Test.testLess</text>
</a>
</g>
</g>
<!-- Node19&#45;&gt;Node33 -->
<g id="edge33" class="edge"><title>Node19&#45;&gt;Node33</title>
<path fill="none" stroke="midnightblue" d="M544.082,-579.089C565.903,-541.537 613.379,-469.099 674,-431 679.527,-427.526 685.529,-424.555 691.742,-422.014"/>
<polygon fill="midnightblue" stroke="midnightblue" points="541.004,-577.421 539.095,-587.842 547.086,-580.886 541.004,-577.421"/>
</g>
<!-- Node34 -->
<g id="node34" class="node"><title>Node34</title>
<g id="a_node34"><a xlink:href="../../de/d2e/classtests_1_1_expression_command_parse_test.html#a351a467c7e11ef82aa9cfca9e383d5bb" target="_top" xlink:title="tests.ExpressionCommandParse\lTest.testGreater">
<polygon fill="white" stroke="black" points="685,-343 685,-373 857,-373 857,-343 685,-343"/>
<text text-anchor="start" x="693" y="-361" font-family="Helvetica,sans-Serif" font-size="10.00">tests.ExpressionCommandParse</text>
<text text-anchor="middle" x="771" y="-350" font-family="Helvetica,sans-Serif" font-size="10.00">Test.testGreater</text>
</a>
</g>
</g>
<!-- Node19&#45;&gt;Node34 -->
<g id="edge34" class="edge"><title>Node19&#45;&gt;Node34</title>
<path fill="none" stroke="midnightblue" d="M549.968,-579.686C572.486,-551.419 610.451,-501.855 638,-456 656.835,-424.649 645.595,-405.04 674,-382 678.27,-378.537 682.972,-375.564 687.932,-373.014"/>
<polygon fill="midnightblue" stroke="midnightblue" points="547.03,-577.756 543.504,-587.747 552.491,-582.135 547.03,-577.756"/>
</g>
<!-- Node35 -->
<g id="node35" class="node"><title>Node35</title>
<g id="a_node35"><a xlink:href="../../de/d2e/classtests_1_1_expression_command_parse_test.html#a39b53cd607a64fd6c3f8d8a9dc383029" target="_top" xlink:title="tests.ExpressionCommandParse\lTest.testEqual">
<polygon fill="white" stroke="black" points="685,-294 685,-324 857,-324 857,-294 685,-294"/>
<text text-anchor="start" x="693" y="-312" font-family="Helvetica,sans-Serif" font-size="10.00">tests.ExpressionCommandParse</text>
<text text-anchor="middle" x="771" y="-301" font-family="Helvetica,sans-Serif" font-size="10.00">Test.testEqual</text>
</a>
</g>
</g>
<!-- Node19&#45;&gt;Node35 -->
<g id="edge35" class="edge"><title>Node19&#45;&gt;Node35</title>
<path fill="none" stroke="midnightblue" d="M551.704,-579.979C575.573,-552.35 614.523,-503.749 638,-456 663.132,-404.884 632.931,-372.468 674,-333 677.592,-329.548 681.602,-326.57 685.89,-324.003"/>
<polygon fill="midnightblue" stroke="midnightblue" points="548.764,-578.025 544.815,-587.856 554.033,-582.633 548.764,-578.025"/>
</g>
<!-- Node36 -->
<g id="node36" class="node"><title>Node36</title>
<g id="a_node36"><a xlink:href="../../de/d2e/classtests_1_1_expression_command_parse_test.html#a3e02dc5721ebda96dd3061e5598f2b89" target="_top" xlink:title="tests.ExpressionCommandParse\lTest.testNotEqual">
<polygon fill="white" stroke="black" points="685,-245 685,-275 857,-275 857,-245 685,-245"/>
<text text-anchor="start" x="693" y="-263" font-family="Helvetica,sans-Serif" font-size="10.00">tests.ExpressionCommandParse</text>
<text text-anchor="middle" x="771" y="-252" font-family="Helvetica,sans-Serif" font-size="10.00">Test.testNotEqual</text>
</a>
</g>
</g>
<!-- Node19&#45;&gt;Node36 -->
<g id="edge36" class="edge"><title>Node19&#45;&gt;Node36</title>
<path fill="none" stroke="midnightblue" d="M552.446,-580.199C576.95,-552.848 616.436,-504.579 638,-456 669.687,-384.616 619.852,-340.283 674,-284 677.216,-280.657 680.821,-277.753 684.698,-275.231"/>
<polygon fill="midnightblue" stroke="midnightblue" points="549.794,-577.912 545.659,-587.667 554.974,-582.62 549.794,-577.912"/>
</g>
<!-- Node37 -->
<g id="node37" class="node"><title>Node37</title>
<g id="a_node37"><a xlink:href="../../de/d2e/classtests_1_1_expression_command_parse_test.html#a6d3b6bdb079ef876815c288c064f4b33" target="_top" xlink:title="tests.ExpressionCommandParse\lTest.testAnd">
<polygon fill="white" stroke="black" points="685,-196 685,-226 857,-226 857,-196 685,-196"/>
<text text-anchor="start" x="693" y="-214" font-family="Helvetica,sans-Serif" font-size="10.00">tests.ExpressionCommandParse</text>
<text text-anchor="middle" x="771" y="-203" font-family="Helvetica,sans-Serif" font-size="10.00">Test.testAnd</text>
</a>
</g>
</g>
<!-- Node19&#45;&gt;Node37 -->
<g id="edge37" class="edge"><title>Node19&#45;&gt;Node37</title>
<path fill="none" stroke="midnightblue" d="M552.83,-580.364C577.699,-553.17 617.531,-505.05 638,-456 676.326,-364.159 606.629,-308.245 674,-235 677.256,-231.46 680.949,-228.407 684.943,-225.777"/>
<polygon fill="midnightblue" stroke="midnightblue" points="550.177,-578.078 545.936,-587.787 555.306,-582.842 550.177,-578.078"/>
</g>
<!-- Node38 -->
<g id="node38" class="node"><title>Node38</title>
<g id="a_node38"><a xlink:href="../../de/d2e/classtests_1_1_expression_command_parse_test.html#a5c10408ef137b64e44db51e6ac34a5c8" target="_top" xlink:title="tests.ExpressionCommandParse\lTest.testOr">
<polygon fill="white" stroke="black" points="685,-147 685,-177 857,-177 857,-147 685,-147"/>
<text text-anchor="start" x="693" y="-165" font-family="Helvetica,sans-Serif" font-size="10.00">tests.ExpressionCommandParse</text>
<text text-anchor="middle" x="771" y="-154" font-family="Helvetica,sans-Serif" font-size="10.00">Test.testOr</text>
</a>
</g>
</g>
<!-- Node19&#45;&gt;Node38 -->
<g id="edge38" class="edge"><title>Node19&#45;&gt;Node38</title>
<path fill="none" stroke="midnightblue" d="M553.08,-580.467C578.186,-553.37 618.242,-505.341 638,-456 683.003,-343.613 593.341,-276.278 674,-186 677.205,-182.413 680.857,-179.323 684.821,-176.665"/>
<polygon fill="midnightblue" stroke="midnightblue" points="550.425,-578.181 546.117,-587.86 555.521,-582.98 550.425,-578.181"/>
</g>
<!-- Node39 -->
<g id="node39" class="node"><title>Node39</title>
<g id="a_node39"><a xlink:href="../../de/d2e/classtests_1_1_expression_command_parse_test.html#a5b4d7321351f966e1261e1afbe14dd7c" target="_top" xlink:title="tests.ExpressionCommandParse\lTest.testNot">
<polygon fill="white" stroke="black" points="685,-98 685,-128 857,-128 857,-98 685,-98"/>
<text text-anchor="start" x="693" y="-116" font-family="Helvetica,sans-Serif" font-size="10.00">tests.ExpressionCommandParse</text>
<text text-anchor="middle" x="771" y="-105" font-family="Helvetica,sans-Serif" font-size="10.00">Test.testNot</text>
</a>
</g>
</g>
<!-- Node19&#45;&gt;Node39 -->
<g id="edge39" class="edge"><title>Node19&#45;&gt;Node39</title>
<path fill="none" stroke="midnightblue" d="M553.256,-580.536C578.527,-553.504 618.741,-505.538 638,-456 663.85,-389.509 627.009,-190.675 674,-137 677.169,-133.381 680.792,-130.266 684.734,-127.589"/>
<polygon fill="midnightblue" stroke="midnightblue" points="550.598,-578.252 546.243,-587.91 555.67,-583.075 550.598,-578.252"/>
</g>
<!-- Node41 -->
<g id="node41" class="node"><title>Node41</title>
<g id="a_node41"><a xlink:href="../../d0/d33/classtests_1_1_to_command_test.html#a682364d0f31489938f7ab8e4504e7c7e" target="_top" xlink:title="tests.ToCommandTest.test\lToParsing">
<polygon fill="white" stroke="black" points="699,-49 699,-79 843,-79 843,-49 699,-49"/>
<text text-anchor="start" x="707" y="-67" font-family="Helvetica,sans-Serif" font-size="10.00">tests.ToCommandTest.test</text>
<text text-anchor="middle" x="771" y="-56" font-family="Helvetica,sans-Serif" font-size="10.00">ToParsing</text>
</a>
</g>
</g>
<!-- Node40&#45;&gt;Node41 -->
<g id="edge41" class="edge"><title>Node40&#45;&gt;Node41</title>
<path fill="none" stroke="midnightblue" d="M540.468,-407.548C570.266,-330.824 660.925,-99.2586 674,-88 681.16,-81.8345 689.675,-77.2104 698.631,-73.7501"/>
<polygon fill="midnightblue" stroke="midnightblue" points="537.189,-406.323 536.835,-416.912 543.715,-408.855 537.189,-406.323"/>
</g>
<!-- Node43 -->
<g id="node43" class="node"><title>Node43</title>
<g id="a_node43"><a xlink:href="../../d9/d76/classtests_1_1_turtle_commands_test.html#a7f4c719ee0d2a11ff4b04f38b5cda951" target="_top" xlink:title="tests.TurtleCommandsTest.test\lToParsing">
<polygon fill="white" stroke="black" points="688.5,-0 688.5,-30 853.5,-30 853.5,-0 688.5,-0"/>
<text text-anchor="start" x="696.5" y="-18" font-family="Helvetica,sans-Serif" font-size="10.00">tests.TurtleCommandsTest.test</text>
<text text-anchor="middle" x="771" y="-7" font-family="Helvetica,sans-Serif" font-size="10.00">ToParsing</text>
</a>
</g>
</g>
<!-- Node42&#45;&gt;Node43 -->
<g id="edge43" class="edge"><title>Node42&#45;&gt;Node43</title>
<path fill="none" stroke="midnightblue" d="M556.091,-116.388C583.381,-93.9419 629.131,-59.3211 674,-39 681.512,-35.598 689.582,-32.6279 697.736,-30.0475"/>
<polygon fill="midnightblue" stroke="midnightblue" points="553.678,-113.843 548.236,-122.933 558.159,-119.221 553.678,-113.843"/>
</g>
</g>
</svg>
