<?xml version="1.0" encoding="UTF-8" standalone="no"?>
<!DOCTYPE svg PUBLIC "-//W3C//DTD SVG 1.1//EN"
 "http://www.w3.org/Graphics/SVG/1.1/DTD/svg11.dtd">
<!-- Generated by graphviz version 2.36.0 (20140111.2315)
 -->
<!-- Title: commandParser.LanguageFileParser.extractFromLanguageFile Pages: 1 -->
<svg width="574pt" height="93pt"
 viewBox="0.00 0.00 574.00 93.00" xmlns="http://www.w3.org/2000/svg" xmlns:xlink="http://www.w3.org/1999/xlink">
<g id="graph0" class="graph" transform="scale(1 1) rotate(0) translate(4 89)">
<title>commandParser.LanguageFileParser.extractFromLanguageFile</title>
<polygon fill="white" stroke="none" points="-4,4 -4,-89 570,-89 570,4 -4,4"/>
<!-- Node1 -->
<g id="node1" class="node"><title>Node1</title>
<polygon fill="#bfbfbf" stroke="black" points="0.5,-24 0.5,-54 169.5,-54 169.5,-24 0.5,-24"/>
<text text-anchor="start" x="8.5" y="-42" font-family="Helvetica,sans-Serif" font-size="10.00">commandParser.LanguageFile</text>
<text text-anchor="middle" x="85" y="-31" font-family="Helvetica,sans-Serif" font-size="10.00">Parser.extractFromLanguageFile</text>
</g>
<!-- Node2 -->
<g id="node2" class="node"><title>Node2</title>
<g id="a_node2"><a xlink:href="../../de/df5/classcommand_parser_1_1_properties_file_reader.html#a15d7cd93d303f1f3588d3327465b5f12" target="_top" xlink:title="commandParser.Properties\lFileReader.getBundle">
<polygon fill="white" stroke="black" points="213,-49 213,-79 359,-79 359,-49 213,-49"/>
<text text-anchor="start" x="221" y="-67" font-family="Helvetica,sans-Serif" font-size="10.00">commandParser.Properties</text>
<text text-anchor="middle" x="286" y="-56" font-family="Helvetica,sans-Serif" font-size="10.00">FileReader.getBundle</text>
</a>
</g>
</g>
<!-- Node1&#45;&gt;Node2 -->
<g id="edge1" class="edge"><title>Node1&#45;&gt;Node2</title>
<path fill="none" stroke="midnightblue" d="M169.529,-49.4936C180.523,-50.8747 191.784,-52.2894 202.756,-53.6678"/>
<polygon fill="midnightblue" stroke="midnightblue" points="202.377,-57.1476 212.735,-54.9215 203.249,-50.2022 202.377,-57.1476"/>
</g>
<!-- Node4 -->
<g id="node4" class="node"><title>Node4</title>
<g id="a_node4"><a xlink:href="../../d8/d54/classcommand_parser_1_1_language_file_parser.html#a426054ca0b5a9d3a2810db0410f88bc1" target="_top" xlink:title="commandParser.LanguageFile\lParser.setToPreviousMap">
<polygon fill="white" stroke="black" points="206,-0 206,-30 366,-30 366,-0 206,-0"/>
<text text-anchor="start" x="214" y="-18" font-family="Helvetica,sans-Serif" font-size="10.00">commandParser.LanguageFile</text>
<text text-anchor="middle" x="286" y="-7" font-family="Helvetica,sans-Serif" font-size="10.00">Parser.setToPreviousMap</text>
</a>
</g>
</g>
<!-- Node1&#45;&gt;Node4 -->
<g id="edge3" class="edge"><title>Node1&#45;&gt;Node4</title>
<path fill="none" stroke="midnightblue" d="M169.529,-28.9262C178.168,-27.8843 186.971,-26.8225 195.67,-25.7734"/>
<polygon fill="midnightblue" stroke="midnightblue" points="196.309,-29.2219 205.818,-24.5496 195.471,-22.2722 196.309,-29.2219"/>
</g>
<!-- Node3 -->
<g id="node3" class="node"><title>Node3</title>
<g id="a_node3"><a xlink:href="../../de/df5/classcommand_parser_1_1_properties_file_reader.html#a808fd858ef40e00b7e327f4dafe374ed" target="_top" xlink:title="commandParser.Properties\lFileReader.getFileNameWithout\lExtension">
<polygon fill="white" stroke="black" points="402.5,-43.5 402.5,-84.5 565.5,-84.5 565.5,-43.5 402.5,-43.5"/>
<text text-anchor="start" x="410.5" y="-72.5" font-family="Helvetica,sans-Serif" font-size="10.00">commandParser.Properties</text>
<text text-anchor="start" x="410.5" y="-61.5" font-family="Helvetica,sans-Serif" font-size="10.00">FileReader.getFileNameWithout</text>
<text text-anchor="middle" x="484" y="-50.5" font-family="Helvetica,sans-Serif" font-size="10.00">Extension</text>
</a>
</g>
</g>
<!-- Node2&#45;&gt;Node3 -->
<g id="edge2" class="edge"><title>Node2&#45;&gt;Node3</title>
<path fill="none" stroke="midnightblue" d="M359.148,-64C369.929,-64 381.159,-64 392.264,-64"/>
<polygon fill="midnightblue" stroke="midnightblue" points="392.41,-67.5001 402.41,-64 392.41,-60.5001 392.41,-67.5001"/>
</g>
</g>
</svg>
