<?xml version="1.0" encoding="UTF-8" standalone="no"?>
<!DOCTYPE svg PUBLIC "-//W3C//DTD SVG 1.1//EN"
 "http://www.w3.org/Graphics/SVG/1.1/DTD/svg11.dtd">
<!-- Generated by graphviz version 2.36.0 (20140111.2315)
 -->
<!-- Title: commandParser.LanguageFileParser.translateUserInputIntoEnglish Pages: 1 -->
<svg width="1370pt" height="1415pt"
 viewBox="0.00 0.00 1370.00 1415.00" xmlns="http://www.w3.org/2000/svg" xmlns:xlink="http://www.w3.org/1999/xlink">
<g id="graph0" class="graph" transform="scale(1 1) rotate(0) translate(4 1411)">
<title>commandParser.LanguageFileParser.translateUserInputIntoEnglish</title>
<polygon fill="white" stroke="none" points="-4,4 -4,-1411 1366,-1411 1366,4 -4,4"/>
<!-- Node1 -->
<g id="node1" class="node"><title>Node1</title>
<polygon fill="#bfbfbf" stroke="black" points="0,-1198 0,-1228 190,-1228 190,-1198 0,-1198"/>
<text text-anchor="start" x="8" y="-1216" font-family="Helvetica,sans-Serif" font-size="10.00">commandParser.LanguageFile</text>
<text text-anchor="middle" x="95" y="-1205" font-family="Helvetica,sans-Serif" font-size="10.00">Parser.translateUserInputIntoEnglish</text>
</g>
<!-- Node2 -->
<g id="node2" class="node"><title>Node2</title>
<g id="a_node2"><a xlink:href="../../d7/db4/classcommands_1_1control_commands_1_1_container_test.html#a5af8d678d8f10708dd2a6051aa069b62" target="_top" xlink:title="commands.controlCommands.\lContainerTest.processInput">
<polygon fill="white" stroke="black" points="251.5,-1372 251.5,-1402 416.5,-1402 416.5,-1372 251.5,-1372"/>
<text text-anchor="start" x="259.5" y="-1390" font-family="Helvetica,sans-Serif" font-size="10.00">commands.controlCommands.</text>
<text text-anchor="middle" x="334" y="-1379" font-family="Helvetica,sans-Serif" font-size="10.00">ContainerTest.processInput</text>
</a>
</g>
</g>
<!-- Node1&#45;&gt;Node2 -->
<g id="edge1" class="edge"><title>Node1&#45;&gt;Node2</title>
<path fill="none" stroke="midnightblue" d="M111.181,-1236.94C132.789,-1269.05 175.453,-1325.67 226,-1357 235.921,-1363.15 247.128,-1368.07 258.461,-1371.99"/>
<polygon fill="midnightblue" stroke="midnightblue" points="113.838,-1234.61 105.41,-1228.19 107.995,-1238.46 113.838,-1234.61"/>
</g>
<!-- Node4 -->
<g id="node4" class="node"><title>Node4</title>
<g id="a_node4"><a xlink:href="../../dd/d30/classtests_1_1_ask_test.html#a8d408863dc53f60d7a73c7dad924325a" target="_top" xlink:title="tests.AskTest.processInput">
<polygon fill="white" stroke="black" points="262,-1328.5 262,-1347.5 406,-1347.5 406,-1328.5 262,-1328.5"/>
<text text-anchor="middle" x="334" y="-1335.5" font-family="Helvetica,sans-Serif" font-size="10.00">tests.AskTest.processInput</text>
</a>
</g>
</g>
<!-- Node1&#45;&gt;Node4 -->
<g id="edge3" class="edge"><title>Node1&#45;&gt;Node4</title>
<path fill="none" stroke="midnightblue" d="M118.176,-1235.3C142.517,-1258.48 183.779,-1294.09 226,-1314 239.345,-1320.29 254.417,-1324.97 268.946,-1328.44"/>
<polygon fill="midnightblue" stroke="midnightblue" points="120.508,-1232.69 110.888,-1228.25 115.64,-1237.72 120.508,-1232.69"/>
</g>
<!-- Node6 -->
<g id="node6" class="node"><title>Node6</title>
<g id="a_node6"><a xlink:href="../../d9/d76/classtests_1_1_turtle_commands_test.html#a26b7fee4439a47d622fb58826d281a1f" target="_top" xlink:title="tests.TurtleCommandsTest.process\lInput">
<polygon fill="white" stroke="black" points="242,-1275 242,-1305 426,-1305 426,-1275 242,-1275"/>
<text text-anchor="start" x="250" y="-1293" font-family="Helvetica,sans-Serif" font-size="10.00">tests.TurtleCommandsTest.process</text>
<text text-anchor="middle" x="334" y="-1282" font-family="Helvetica,sans-Serif" font-size="10.00">Input</text>
</a>
</g>
</g>
<!-- Node1&#45;&gt;Node6 -->
<g id="edge5" class="edge"><title>Node1&#45;&gt;Node6</title>
<path fill="none" stroke="midnightblue" d="M142.357,-1231.82C166.986,-1241.48 197.899,-1253.05 226,-1262 240.455,-1266.6 256.178,-1271.03 271.01,-1274.95"/>
<polygon fill="midnightblue" stroke="midnightblue" points="143.489,-1228.5 132.902,-1228.09 140.918,-1235.02 143.489,-1228.5"/>
</g>
<!-- Node8 -->
<g id="node8" class="node"><title>Node8</title>
<g id="a_node8"><a xlink:href="../../d1/d08/classcommands_1_1variable_commands_1_1_variable_command_parse_test.html#a3536cbcf387f53c8d880c166c15e10d2" target="_top" xlink:title="commands.variableCommands.\lVariableCommandParseTest.processInput">
<polygon fill="white" stroke="black" points="226.5,-1223 226.5,-1253 441.5,-1253 441.5,-1223 226.5,-1223"/>
<text text-anchor="start" x="234.5" y="-1241" font-family="Helvetica,sans-Serif" font-size="10.00">commands.variableCommands.</text>
<text text-anchor="middle" x="334" y="-1230" font-family="Helvetica,sans-Serif" font-size="10.00">VariableCommandParseTest.processInput</text>
</a>
</g>
</g>
<!-- Node1&#45;&gt;Node8 -->
<g id="edge7" class="edge"><title>Node1&#45;&gt;Node8</title>
<path fill="none" stroke="midnightblue" d="M200.111,-1223.98C208.767,-1224.9 217.527,-1225.82 226.203,-1226.73"/>
<polygon fill="midnightblue" stroke="midnightblue" points="200.321,-1220.49 190.009,-1222.92 199.587,-1227.45 200.321,-1220.49"/>
</g>
<!-- Node10 -->
<g id="node10" class="node"><title>Node10</title>
<g id="a_node10"><a xlink:href="../../d0/d33/classtests_1_1_to_command_test.html#a4eaf8f664432093c7eb1c552923097c3" target="_top" xlink:title="tests.ToCommandTest.process\lInput">
<polygon fill="white" stroke="black" points="252.5,-1173 252.5,-1203 415.5,-1203 415.5,-1173 252.5,-1173"/>
<text text-anchor="start" x="260.5" y="-1191" font-family="Helvetica,sans-Serif" font-size="10.00">tests.ToCommandTest.process</text>
<text text-anchor="middle" x="334" y="-1180" font-family="Helvetica,sans-Serif" font-size="10.00">Input</text>
</a>
</g>
</g>
<!-- Node1&#45;&gt;Node10 -->
<g id="edge9" class="edge"><title>Node1&#45;&gt;Node10</title>
<path fill="none" stroke="midnightblue" d="M200.259,-1202C217.769,-1200.16 235.701,-1198.26 252.494,-1196.49"/>
<polygon fill="midnightblue" stroke="midnightblue" points="199.587,-1198.55 190.009,-1203.08 200.321,-1205.52 199.587,-1198.55"/>
</g>
<!-- Node12 -->
<g id="node12" class="node"><title>Node12</title>
<g id="a_node12"><a xlink:href="../../d3/d0c/classtests_1_1_ask_with_test.html#a9d43a79de385803c300e7b2cf0c13b00" target="_top" xlink:title="tests.AskWithTest.process\lInput">
<polygon fill="white" stroke="black" points="264,-1122 264,-1152 404,-1152 404,-1122 264,-1122"/>
<text text-anchor="start" x="272" y="-1140" font-family="Helvetica,sans-Serif" font-size="10.00">tests.AskWithTest.process</text>
<text text-anchor="middle" x="334" y="-1129" font-family="Helvetica,sans-Serif" font-size="10.00">Input</text>
</a>
</g>
</g>
<!-- Node1&#45;&gt;Node12 -->
<g id="edge11" class="edge"><title>Node1&#45;&gt;Node12</title>
<path fill="none" stroke="midnightblue" d="M142.059,-1194.18C166.722,-1184.48 197.758,-1172.85 226,-1164 239.62,-1159.73 254.374,-1155.66 268.449,-1152.03"/>
<polygon fill="midnightblue" stroke="midnightblue" points="140.601,-1191 132.595,-1197.94 143.181,-1197.5 140.601,-1191"/>
</g>
<!-- Node15 -->
<g id="node15" class="node"><title>Node15</title>
<g id="a_node15"><a xlink:href="../../de/d2e/classtests_1_1_expression_command_parse_test.html#ad0311bdfc0b2540e3206d6cd41a23d13" target="_top" xlink:title="tests.ExpressionCommandParse\lTest.processInput">
<polygon fill="white" stroke="black" points="248,-583 248,-613 420,-613 420,-583 248,-583"/>
<text text-anchor="start" x="256" y="-601" font-family="Helvetica,sans-Serif" font-size="10.00">tests.ExpressionCommandParse</text>
<text text-anchor="middle" x="334" y="-590" font-family="Helvetica,sans-Serif" font-size="10.00">Test.processInput</text>
</a>
</g>
</g>
<!-- Node1&#45;&gt;Node15 -->
<g id="edge14" class="edge"><title>Node1&#45;&gt;Node15</title>
<path fill="none" stroke="midnightblue" d="M105.529,-1188.27C145.05,-1085.72 295.484,-695.352 327.134,-613.221"/>
<polygon fill="midnightblue" stroke="midnightblue" points="102.189,-1187.21 101.858,-1197.8 108.72,-1189.73 102.189,-1187.21"/>
</g>
<!-- Node36 -->
<g id="node36" class="node"><title>Node36</title>
<g id="a_node36"><a xlink:href="../../d9/d00/classcommunicator_1_1_main_controller.html#a63543f74d98f650f2ee4026151189fa8" target="_top" xlink:title="communicator.MainController.receive\lCommand">
<polygon fill="white" stroke="black" points="237,-44 237,-74 431,-74 431,-44 237,-44"/>
<text text-anchor="start" x="245" y="-62" font-family="Helvetica,sans-Serif" font-size="10.00">communicator.MainController.receive</text>
<text text-anchor="middle" x="334" y="-51" font-family="Helvetica,sans-Serif" font-size="10.00">Command</text>
</a>
</g>
</g>
<!-- Node1&#45;&gt;Node36 -->
<g id="edge35" class="edge"><title>Node1&#45;&gt;Node36</title>
<path fill="none" stroke="midnightblue" d="M101.093,-1187.78C118.446,-1101.86 176.914,-812.738 226,-574 266.644,-376.32 316.856,-136.141 329.826,-74.1618"/>
<polygon fill="midnightblue" stroke="midnightblue" points="97.6445,-1187.17 99.0955,-1197.66 104.506,-1188.55 97.6445,-1187.17"/>
</g>
<!-- Node3 -->
<g id="node3" class="node"><title>Node3</title>
<g id="a_node3"><a xlink:href="../../d7/db4/classcommands_1_1control_commands_1_1_container_test.html#a5ff9cdf49eafe0435d4b9e0ce3eb38a9" target="_top" xlink:title="commands.controlCommands.\lContainerTest.testThatIfWorks">
<polygon fill="white" stroke="black" points="492.5,-1377 492.5,-1407 657.5,-1407 657.5,-1377 492.5,-1377"/>
<text text-anchor="start" x="500.5" y="-1395" font-family="Helvetica,sans-Serif" font-size="10.00">commands.controlCommands.</text>
<text text-anchor="middle" x="575" y="-1384" font-family="Helvetica,sans-Serif" font-size="10.00">ContainerTest.testThatIfWorks</text>
</a>
</g>
</g>
<!-- Node2&#45;&gt;Node3 -->
<g id="edge2" class="edge"><title>Node2&#45;&gt;Node3</title>
<path fill="none" stroke="midnightblue" d="M426.742,-1388.92C448.354,-1389.37 471.248,-1389.85 492.38,-1390.29"/>
<polygon fill="midnightblue" stroke="midnightblue" points="426.653,-1385.42 416.582,-1388.71 426.506,-1392.42 426.653,-1385.42"/>
</g>
<!-- Node5 -->
<g id="node5" class="node"><title>Node5</title>
<g id="a_node5"><a xlink:href="../../dd/d30/classtests_1_1_ask_test.html#a35ae726a31ba673fc7d80bcbc4a69e24" target="_top" xlink:title="tests.AskTest.testThatAsk\lCreatesTurtles">
<polygon fill="white" stroke="black" points="505,-1328 505,-1358 645,-1358 645,-1328 505,-1328"/>
<text text-anchor="start" x="513" y="-1346" font-family="Helvetica,sans-Serif" font-size="10.00">tests.AskTest.testThatAsk</text>
<text text-anchor="middle" x="575" y="-1335" font-family="Helvetica,sans-Serif" font-size="10.00">CreatesTurtles</text>
</a>
</g>
</g>
<!-- Node4&#45;&gt;Node5 -->
<g id="edge4" class="edge"><title>Node4&#45;&gt;Node5</title>
<path fill="none" stroke="midnightblue" d="M416.108,-1339.7C444.944,-1340.3 477.116,-1340.97 504.858,-1341.55"/>
<polygon fill="midnightblue" stroke="midnightblue" points="416.132,-1336.2 406.061,-1339.49 415.985,-1343.2 416.132,-1336.2"/>
</g>
<!-- Node7 -->
<g id="node7" class="node"><title>Node7</title>
<g id="a_node7"><a xlink:href="../../d9/d76/classtests_1_1_turtle_commands_test.html#a7f4c719ee0d2a11ff4b04f38b5cda951" target="_top" xlink:title="tests.TurtleCommandsTest.test\lToParsing">
<polygon fill="white" stroke="black" points="492.5,-1279 492.5,-1309 657.5,-1309 657.5,-1279 492.5,-1279"/>
<text text-anchor="start" x="500.5" y="-1297" font-family="Helvetica,sans-Serif" font-size="10.00">tests.TurtleCommandsTest.test</text>
<text text-anchor="middle" x="575" y="-1286" font-family="Helvetica,sans-Serif" font-size="10.00">ToParsing</text>
</a>
</g>
</g>
<!-- Node6&#45;&gt;Node7 -->
<g id="edge6" class="edge"><title>Node6&#45;&gt;Node7</title>
<path fill="none" stroke="midnightblue" d="M436.067,-1291.69C454.802,-1292.01 474.155,-1292.33 492.226,-1292.63"/>
<polygon fill="midnightblue" stroke="midnightblue" points="436.095,-1288.19 426.037,-1291.52 435.977,-1295.19 436.095,-1288.19"/>
</g>
<!-- Node9 -->
<g id="node9" class="node"><title>Node9</title>
<g id="a_node9"><a xlink:href="../../d1/d08/classcommands_1_1variable_commands_1_1_variable_command_parse_test.html#a5510e9369499cabedeb2f6825b3e5f1a" target="_top" xlink:title="commands.variableCommands.\lVariableCommandParseTest.testThat\lVariableIsGet">
<polygon fill="white" stroke="black" points="478.5,-1219.5 478.5,-1260.5 671.5,-1260.5 671.5,-1219.5 478.5,-1219.5"/>
<text text-anchor="start" x="486.5" y="-1248.5" font-family="Helvetica,sans-Serif" font-size="10.00">commands.variableCommands.</text>
<text text-anchor="start" x="486.5" y="-1237.5" font-family="Helvetica,sans-Serif" font-size="10.00">VariableCommandParseTest.testThat</text>
<text text-anchor="middle" x="575" y="-1226.5" font-family="Helvetica,sans-Serif" font-size="10.00">VariableIsGet</text>
</a>
</g>
</g>
<!-- Node8&#45;&gt;Node9 -->
<g id="edge8" class="edge"><title>Node8&#45;&gt;Node9</title>
<path fill="none" stroke="midnightblue" d="M451.606,-1238.98C460.514,-1239.05 469.443,-1239.13 478.195,-1239.2"/>
<polygon fill="midnightblue" stroke="midnightblue" points="451.598,-1235.48 441.569,-1238.89 451.539,-1242.48 451.598,-1235.48"/>
</g>
<!-- Node11 -->
<g id="node11" class="node"><title>Node11</title>
<g id="a_node11"><a xlink:href="../../d0/d33/classtests_1_1_to_command_test.html#a682364d0f31489938f7ab8e4504e7c7e" target="_top" xlink:title="tests.ToCommandTest.test\lToParsing">
<polygon fill="white" stroke="black" points="503,-1171 503,-1201 647,-1201 647,-1171 503,-1171"/>
<text text-anchor="start" x="511" y="-1189" font-family="Helvetica,sans-Serif" font-size="10.00">tests.ToCommandTest.test</text>
<text text-anchor="middle" x="575" y="-1178" font-family="Helvetica,sans-Serif" font-size="10.00">ToParsing</text>
</a>
</g>
</g>
<!-- Node10&#45;&gt;Node11 -->
<g id="edge10" class="edge"><title>Node10&#45;&gt;Node11</title>
<path fill="none" stroke="midnightblue" d="M425.662,-1187.24C451.253,-1187.03 478.722,-1186.8 502.98,-1186.59"/>
<polygon fill="midnightblue" stroke="midnightblue" points="425.552,-1183.74 415.581,-1187.33 425.61,-1190.74 425.552,-1183.74"/>
</g>
<!-- Node13 -->
<g id="node13" class="node"><title>Node13</title>
<g id="a_node13"><a xlink:href="../../d3/d0c/classtests_1_1_ask_with_test.html#a54f2ed263239909256bb93e91afc3ecc" target="_top" xlink:title="tests.AskWithTest.testAlways\lTrueAskWith">
<polygon fill="white" stroke="black" points="498,-1122 498,-1152 652,-1152 652,-1122 498,-1122"/>
<text text-anchor="start" x="506" y="-1140" font-family="Helvetica,sans-Serif" font-size="10.00">tests.AskWithTest.testAlways</text>
<text text-anchor="middle" x="575" y="-1129" font-family="Helvetica,sans-Serif" font-size="10.00">TrueAskWith</text>
</a>
</g>
</g>
<!-- Node12&#45;&gt;Node13 -->
<g id="edge12" class="edge"><title>Node12&#45;&gt;Node13</title>
<path fill="none" stroke="midnightblue" d="M414.286,-1137C441.217,-1137 471.233,-1137 497.909,-1137"/>
<polygon fill="midnightblue" stroke="midnightblue" points="414.129,-1133.5 404.129,-1137 414.129,-1140.5 414.129,-1133.5"/>
</g>
<!-- Node14 -->
<g id="node14" class="node"><title>Node14</title>
<g id="a_node14"><a xlink:href="../../d3/d0c/classtests_1_1_ask_with_test.html#a49a8519276b23ed93a3f90d7c2058fc5" target="_top" xlink:title="tests.AskWithTest.testXCor\lAskWith">
<polygon fill="white" stroke="black" points="503.5,-1073 503.5,-1103 646.5,-1103 646.5,-1073 503.5,-1073"/>
<text text-anchor="start" x="511.5" y="-1091" font-family="Helvetica,sans-Serif" font-size="10.00">tests.AskWithTest.testXCor</text>
<text text-anchor="middle" x="575" y="-1080" font-family="Helvetica,sans-Serif" font-size="10.00">AskWith</text>
</a>
</g>
</g>
<!-- Node12&#45;&gt;Node14 -->
<g id="edge13" class="edge"><title>Node12&#45;&gt;Node14</title>
<path fill="none" stroke="midnightblue" d="M414.161,-1120.77C442.977,-1114.86 475.339,-1108.23 503.368,-1102.48"/>
<polygon fill="midnightblue" stroke="midnightblue" points="413.222,-1117.39 404.129,-1122.83 414.628,-1124.25 413.222,-1117.39"/>
</g>
<!-- Node16 -->
<g id="node16" class="node"><title>Node16</title>
<g id="a_node16"><a xlink:href="../../de/d2e/classtests_1_1_expression_command_parse_test.html#a9e9aaaa5a415abbcc708a4be262e1199" target="_top" xlink:title="tests.ExpressionCommandParse\lTest.testSumParses">
<polygon fill="white" stroke="black" points="489,-1024 489,-1054 661,-1054 661,-1024 489,-1024"/>
<text text-anchor="start" x="497" y="-1042" font-family="Helvetica,sans-Serif" font-size="10.00">tests.ExpressionCommandParse</text>
<text text-anchor="middle" x="575" y="-1031" font-family="Helvetica,sans-Serif" font-size="10.00">Test.testSumParses</text>
</a>
</g>
</g>
<!-- Node15&#45;&gt;Node16 -->
<g id="edge15" class="edge"><title>Node15&#45;&gt;Node16</title>
<path fill="none" stroke="midnightblue" d="M335.81,-623.185C339.547,-695.432 360.501,-905.145 478,-1014 482.169,-1017.86 486.859,-1021.14 491.865,-1023.93"/>
<polygon fill="midnightblue" stroke="midnightblue" points="339.306,-623.011 335.36,-613.178 332.313,-623.325 339.306,-623.011"/>
</g>
<!-- Node17 -->
<g id="node17" class="node"><title>Node17</title>
<g id="a_node17"><a xlink:href="../../de/d2e/classtests_1_1_expression_command_parse_test.html#a9c09cab3c9f9a85ec6be2f101780ce25" target="_top" xlink:title="tests.ExpressionCommandParse\lTest.testDifference">
<polygon fill="white" stroke="black" points="489,-975 489,-1005 661,-1005 661,-975 489,-975"/>
<text text-anchor="start" x="497" y="-993" font-family="Helvetica,sans-Serif" font-size="10.00">tests.ExpressionCommandParse</text>
<text text-anchor="middle" x="575" y="-982" font-family="Helvetica,sans-Serif" font-size="10.00">Test.testDifference</text>
</a>
</g>
</g>
<!-- Node15&#45;&gt;Node17 -->
<g id="edge16" class="edge"><title>Node15&#45;&gt;Node17</title>
<path fill="none" stroke="midnightblue" d="M337.138,-623.327C344.152,-689.904 372.492,-871.147 478,-965 482.375,-968.892 487.282,-972.191 492.501,-974.986"/>
<polygon fill="midnightblue" stroke="midnightblue" points="340.614,-622.92 336.155,-613.309 333.648,-623.603 340.614,-622.92"/>
</g>
<!-- Node18 -->
<g id="node18" class="node"><title>Node18</title>
<g id="a_node18"><a xlink:href="../../de/d2e/classtests_1_1_expression_command_parse_test.html#a2d4c7f15e08a1ebac70ccce175caafa8" target="_top" xlink:title="tests.ExpressionCommandParse\lTest.testProduct">
<polygon fill="white" stroke="black" points="489,-926 489,-956 661,-956 661,-926 489,-926"/>
<text text-anchor="start" x="497" y="-944" font-family="Helvetica,sans-Serif" font-size="10.00">tests.ExpressionCommandParse</text>
<text text-anchor="middle" x="575" y="-933" font-family="Helvetica,sans-Serif" font-size="10.00">Test.testProduct</text>
</a>
</g>
</g>
<!-- Node15&#45;&gt;Node18 -->
<g id="edge17" class="edge"><title>Node15&#45;&gt;Node18</title>
<path fill="none" stroke="midnightblue" d="M338.799,-623.162C349.258,-683.398 384.19,-836.747 478,-916 482.605,-919.89 487.745,-923.184 493.187,-925.971"/>
<polygon fill="midnightblue" stroke="midnightblue" points="342.209,-622.331 337.123,-613.038 335.303,-623.475 342.209,-622.331"/>
</g>
<!-- Node19 -->
<g id="node19" class="node"><title>Node19</title>
<g id="a_node19"><a xlink:href="../../de/d2e/classtests_1_1_expression_command_parse_test.html#acf648d3a09aa6a2a05c1bb2b405eb3d3" target="_top" xlink:title="tests.ExpressionCommandParse\lTest.testQuotient">
<polygon fill="white" stroke="black" points="489,-877 489,-907 661,-907 661,-877 489,-877"/>
<text text-anchor="start" x="497" y="-895" font-family="Helvetica,sans-Serif" font-size="10.00">tests.ExpressionCommandParse</text>
<text text-anchor="middle" x="575" y="-884" font-family="Helvetica,sans-Serif" font-size="10.00">Test.testQuotient</text>
</a>
</g>
</g>
<!-- Node15&#45;&gt;Node19 -->
<g id="edge18" class="edge"><title>Node15&#45;&gt;Node19</title>
<path fill="none" stroke="midnightblue" d="M341.068,-623.279C355.272,-676.839 395.872,-802.137 478,-867 482.866,-870.843 488.261,-874.099 493.942,-876.858"/>
<polygon fill="midnightblue" stroke="midnightblue" points="344.376,-622.092 338.503,-613.274 337.596,-623.83 344.376,-622.092"/>
</g>
<!-- Node20 -->
<g id="node20" class="node"><title>Node20</title>
<g id="a_node20"><a xlink:href="../../de/d2e/classtests_1_1_expression_command_parse_test.html#adc00834efe87e3bd1a9763276552daf8" target="_top" xlink:title="tests.ExpressionCommandParse\lTest.testRemainder">
<polygon fill="white" stroke="black" points="489,-828 489,-858 661,-858 661,-828 489,-828"/>
<text text-anchor="start" x="497" y="-846" font-family="Helvetica,sans-Serif" font-size="10.00">tests.ExpressionCommandParse</text>
<text text-anchor="middle" x="575" y="-835" font-family="Helvetica,sans-Serif" font-size="10.00">Test.testRemainder</text>
</a>
</g>
</g>
<!-- Node15&#45;&gt;Node20 -->
<g id="edge19" class="edge"><title>Node15&#45;&gt;Node20</title>
<path fill="none" stroke="midnightblue" d="M343.915,-622.467C361.879,-668.222 406.885,-766.736 478,-818 483.309,-821.827 489.157,-825.069 495.267,-827.815"/>
<polygon fill="midnightblue" stroke="midnightblue" points="347.148,-621.122 340.304,-613.034 340.611,-623.624 347.148,-621.122"/>
</g>
<!-- Node21 -->
<g id="node21" class="node"><title>Node21</title>
<g id="a_node21"><a xlink:href="../../de/d2e/classtests_1_1_expression_command_parse_test.html#adaa43c42c9c25f456ee97a540afdc3e8" target="_top" xlink:title="tests.ExpressionCommandParse\lTest.testRandom">
<polygon fill="white" stroke="black" points="489,-779 489,-809 661,-809 661,-779 489,-779"/>
<text text-anchor="start" x="497" y="-797" font-family="Helvetica,sans-Serif" font-size="10.00">tests.ExpressionCommandParse</text>
<text text-anchor="middle" x="575" y="-786" font-family="Helvetica,sans-Serif" font-size="10.00">Test.testRandom</text>
</a>
</g>
</g>
<!-- Node15&#45;&gt;Node21 -->
<g id="edge20" class="edge"><title>Node15&#45;&gt;Node21</title>
<path fill="none" stroke="midnightblue" d="M348.162,-621.702C370.093,-658.938 417.719,-730.824 478,-769 484.111,-772.87 490.801,-776.143 497.715,-778.911"/>
<polygon fill="midnightblue" stroke="midnightblue" points="351.181,-619.931 343.148,-613.023 345.12,-623.433 351.181,-619.931"/>
</g>
<!-- Node22 -->
<g id="node22" class="node"><title>Node22</title>
<g id="a_node22"><a xlink:href="../../de/d2e/classtests_1_1_expression_command_parse_test.html#aad5b7d0a5182da6dd0abba756ad0e751" target="_top" xlink:title="tests.ExpressionCommandParse\lTest.testMinus">
<polygon fill="white" stroke="black" points="489,-730 489,-760 661,-760 661,-730 489,-730"/>
<text text-anchor="start" x="497" y="-748" font-family="Helvetica,sans-Serif" font-size="10.00">tests.ExpressionCommandParse</text>
<text text-anchor="middle" x="575" y="-737" font-family="Helvetica,sans-Serif" font-size="10.00">Test.testMinus</text>
</a>
</g>
</g>
<!-- Node15&#45;&gt;Node22 -->
<g id="edge21" class="edge"><title>Node15&#45;&gt;Node22</title>
<path fill="none" stroke="midnightblue" d="M355.41,-620.834C381.275,-648.377 428.485,-694.188 478,-720 485.407,-723.861 493.453,-727.157 501.63,-729.962"/>
<polygon fill="midnightblue" stroke="midnightblue" points="357.753,-618.212 348.393,-613.248 352.614,-622.965 357.753,-618.212"/>
</g>
<!-- Node23 -->
<g id="node23" class="node"><title>Node23</title>
<g id="a_node23"><a xlink:href="../../de/d2e/classtests_1_1_expression_command_parse_test.html#ae638345ab0fe49a27e67c764ed342a80" target="_top" xlink:title="tests.ExpressionCommandParse\lTest.testPower">
<polygon fill="white" stroke="black" points="489,-681 489,-711 661,-711 661,-681 489,-681"/>
<text text-anchor="start" x="497" y="-699" font-family="Helvetica,sans-Serif" font-size="10.00">tests.ExpressionCommandParse</text>
<text text-anchor="middle" x="575" y="-688" font-family="Helvetica,sans-Serif" font-size="10.00">Test.testPower</text>
</a>
</g>
</g>
<!-- Node15&#45;&gt;Node23 -->
<g id="edge22" class="edge"><title>Node15&#45;&gt;Node23</title>
<path fill="none" stroke="midnightblue" d="M369.04,-618.044C397.425,-634.099 439.327,-656.294 478,-671 487.659,-674.673 498.063,-677.997 508.334,-680.935"/>
<polygon fill="midnightblue" stroke="midnightblue" points="370.74,-614.985 360.32,-613.065 367.268,-621.063 370.74,-614.985"/>
</g>
<!-- Node24 -->
<g id="node24" class="node"><title>Node24</title>
<g id="a_node24"><a xlink:href="../../de/d2e/classtests_1_1_expression_command_parse_test.html#a136204feb445f26c107203e5d0a248bf" target="_top" xlink:title="tests.ExpressionCommandParse\lTest.testSin">
<polygon fill="white" stroke="black" points="489,-632 489,-662 661,-662 661,-632 489,-632"/>
<text text-anchor="start" x="497" y="-650" font-family="Helvetica,sans-Serif" font-size="10.00">tests.ExpressionCommandParse</text>
<text text-anchor="middle" x="575" y="-639" font-family="Helvetica,sans-Serif" font-size="10.00">Test.testSin</text>
</a>
</g>
</g>
<!-- Node15&#45;&gt;Node24 -->
<g id="edge23" class="edge"><title>Node15&#45;&gt;Node24</title>
<path fill="none" stroke="midnightblue" d="M418.468,-615.113C445.289,-620.611 474.781,-626.658 500.807,-631.994"/>
<polygon fill="midnightblue" stroke="midnightblue" points="418.831,-611.614 408.332,-613.035 417.425,-618.472 418.831,-611.614"/>
</g>
<!-- Node25 -->
<g id="node25" class="node"><title>Node25</title>
<g id="a_node25"><a xlink:href="../../de/d2e/classtests_1_1_expression_command_parse_test.html#a7c091eeaa6fcdf81f42b1f4999a4c3b4" target="_top" xlink:title="tests.ExpressionCommandParse\lTest.testCos">
<polygon fill="white" stroke="black" points="489,-583 489,-613 661,-613 661,-583 489,-583"/>
<text text-anchor="start" x="497" y="-601" font-family="Helvetica,sans-Serif" font-size="10.00">tests.ExpressionCommandParse</text>
<text text-anchor="middle" x="575" y="-590" font-family="Helvetica,sans-Serif" font-size="10.00">Test.testCos</text>
</a>
</g>
</g>
<!-- Node15&#45;&gt;Node25 -->
<g id="edge24" class="edge"><title>Node15&#45;&gt;Node25</title>
<path fill="none" stroke="midnightblue" d="M430.285,-598C449.608,-598 469.812,-598 488.761,-598"/>
<polygon fill="midnightblue" stroke="midnightblue" points="430.272,-594.5 420.272,-598 430.272,-601.5 430.272,-594.5"/>
</g>
<!-- Node26 -->
<g id="node26" class="node"><title>Node26</title>
<g id="a_node26"><a xlink:href="../../de/d2e/classtests_1_1_expression_command_parse_test.html#a2b2cb32a4e303a753c5b516252061cb1" target="_top" xlink:title="tests.ExpressionCommandParse\lTest.testTan">
<polygon fill="white" stroke="black" points="489,-534 489,-564 661,-564 661,-534 489,-534"/>
<text text-anchor="start" x="497" y="-552" font-family="Helvetica,sans-Serif" font-size="10.00">tests.ExpressionCommandParse</text>
<text text-anchor="middle" x="575" y="-541" font-family="Helvetica,sans-Serif" font-size="10.00">Test.testTan</text>
</a>
</g>
</g>
<!-- Node15&#45;&gt;Node26 -->
<g id="edge25" class="edge"><title>Node15&#45;&gt;Node26</title>
<path fill="none" stroke="midnightblue" d="M418.468,-580.887C445.289,-575.389 474.781,-569.342 500.807,-564.006"/>
<polygon fill="midnightblue" stroke="midnightblue" points="417.425,-577.528 408.332,-582.965 418.831,-584.386 417.425,-577.528"/>
</g>
<!-- Node27 -->
<g id="node27" class="node"><title>Node27</title>
<g id="a_node27"><a xlink:href="../../de/d2e/classtests_1_1_expression_command_parse_test.html#ab16d8f3c97b33e37ade041424eaede28" target="_top" xlink:title="tests.ExpressionCommandParse\lTest.testATan">
<polygon fill="white" stroke="black" points="489,-485 489,-515 661,-515 661,-485 489,-485"/>
<text text-anchor="start" x="497" y="-503" font-family="Helvetica,sans-Serif" font-size="10.00">tests.ExpressionCommandParse</text>
<text text-anchor="middle" x="575" y="-492" font-family="Helvetica,sans-Serif" font-size="10.00">Test.testATan</text>
</a>
</g>
</g>
<!-- Node15&#45;&gt;Node27 -->
<g id="edge26" class="edge"><title>Node15&#45;&gt;Node27</title>
<path fill="none" stroke="midnightblue" d="M369.04,-577.956C397.425,-561.901 439.327,-539.706 478,-525 487.659,-521.327 498.063,-518.003 508.334,-515.065"/>
<polygon fill="midnightblue" stroke="midnightblue" points="367.268,-574.937 360.32,-582.935 370.74,-581.015 367.268,-574.937"/>
</g>
<!-- Node28 -->
<g id="node28" class="node"><title>Node28</title>
<g id="a_node28"><a xlink:href="../../de/d2e/classtests_1_1_expression_command_parse_test.html#abc8349e349751cefe738aeec853eb33a" target="_top" xlink:title="tests.ExpressionCommandParse\lTest.naturalLogTest">
<polygon fill="white" stroke="black" points="489,-436 489,-466 661,-466 661,-436 489,-436"/>
<text text-anchor="start" x="497" y="-454" font-family="Helvetica,sans-Serif" font-size="10.00">tests.ExpressionCommandParse</text>
<text text-anchor="middle" x="575" y="-443" font-family="Helvetica,sans-Serif" font-size="10.00">Test.naturalLogTest</text>
</a>
</g>
</g>
<!-- Node15&#45;&gt;Node28 -->
<g id="edge27" class="edge"><title>Node15&#45;&gt;Node28</title>
<path fill="none" stroke="midnightblue" d="M355.41,-575.166C381.275,-547.623 428.485,-501.812 478,-476 485.407,-472.139 493.453,-468.843 501.63,-466.038"/>
<polygon fill="midnightblue" stroke="midnightblue" points="352.614,-573.035 348.393,-582.752 357.753,-577.788 352.614,-573.035"/>
</g>
<!-- Node29 -->
<g id="node29" class="node"><title>Node29</title>
<g id="a_node29"><a xlink:href="../../de/d2e/classtests_1_1_expression_command_parse_test.html#ae220f7496c25bae0b0b20e298ef3917b" target="_top" xlink:title="tests.ExpressionCommandParse\lTest.testLess">
<polygon fill="white" stroke="black" points="489,-387 489,-417 661,-417 661,-387 489,-387"/>
<text text-anchor="start" x="497" y="-405" font-family="Helvetica,sans-Serif" font-size="10.00">tests.ExpressionCommandParse</text>
<text text-anchor="middle" x="575" y="-394" font-family="Helvetica,sans-Serif" font-size="10.00">Test.testLess</text>
</a>
</g>
</g>
<!-- Node15&#45;&gt;Node29 -->
<g id="edge28" class="edge"><title>Node15&#45;&gt;Node29</title>
<path fill="none" stroke="midnightblue" d="M348.162,-574.298C370.093,-537.062 417.719,-465.176 478,-427 484.111,-423.13 490.801,-419.857 497.715,-417.089"/>
<polygon fill="midnightblue" stroke="midnightblue" points="345.12,-572.567 343.148,-582.977 351.181,-576.069 345.12,-572.567"/>
</g>
<!-- Node30 -->
<g id="node30" class="node"><title>Node30</title>
<g id="a_node30"><a xlink:href="../../de/d2e/classtests_1_1_expression_command_parse_test.html#a351a467c7e11ef82aa9cfca9e383d5bb" target="_top" xlink:title="tests.ExpressionCommandParse\lTest.testGreater">
<polygon fill="white" stroke="black" points="489,-338 489,-368 661,-368 661,-338 489,-338"/>
<text text-anchor="start" x="497" y="-356" font-family="Helvetica,sans-Serif" font-size="10.00">tests.ExpressionCommandParse</text>
<text text-anchor="middle" x="575" y="-345" font-family="Helvetica,sans-Serif" font-size="10.00">Test.testGreater</text>
</a>
</g>
</g>
<!-- Node15&#45;&gt;Node30 -->
<g id="edge29" class="edge"><title>Node15&#45;&gt;Node30</title>
<path fill="none" stroke="midnightblue" d="M343.915,-573.533C361.879,-527.778 406.885,-429.264 478,-378 483.309,-374.173 489.157,-370.931 495.267,-368.185"/>
<polygon fill="midnightblue" stroke="midnightblue" points="340.611,-572.376 340.304,-582.966 347.148,-574.878 340.611,-572.376"/>
</g>
<!-- Node31 -->
<g id="node31" class="node"><title>Node31</title>
<g id="a_node31"><a xlink:href="../../de/d2e/classtests_1_1_expression_command_parse_test.html#a39b53cd607a64fd6c3f8d8a9dc383029" target="_top" xlink:title="tests.ExpressionCommandParse\lTest.testEqual">
<polygon fill="white" stroke="black" points="489,-289 489,-319 661,-319 661,-289 489,-289"/>
<text text-anchor="start" x="497" y="-307" font-family="Helvetica,sans-Serif" font-size="10.00">tests.ExpressionCommandParse</text>
<text text-anchor="middle" x="575" y="-296" font-family="Helvetica,sans-Serif" font-size="10.00">Test.testEqual</text>
</a>
</g>
</g>
<!-- Node15&#45;&gt;Node31 -->
<g id="edge30" class="edge"><title>Node15&#45;&gt;Node31</title>
<path fill="none" stroke="midnightblue" d="M340.89,-572.947C354.852,-519.285 395.171,-392.864 478,-328 482.328,-324.611 487.074,-321.693 492.066,-319.184"/>
<polygon fill="midnightblue" stroke="midnightblue" points="337.417,-572.407 338.375,-582.958 344.206,-574.112 337.417,-572.407"/>
</g>
<!-- Node32 -->
<g id="node32" class="node"><title>Node32</title>
<g id="a_node32"><a xlink:href="../../de/d2e/classtests_1_1_expression_command_parse_test.html#a3e02dc5721ebda96dd3061e5598f2b89" target="_top" xlink:title="tests.ExpressionCommandParse\lTest.testNotEqual">
<polygon fill="white" stroke="black" points="489,-240 489,-270 661,-270 661,-240 489,-240"/>
<text text-anchor="start" x="497" y="-258" font-family="Helvetica,sans-Serif" font-size="10.00">tests.ExpressionCommandParse</text>
<text text-anchor="middle" x="575" y="-247" font-family="Helvetica,sans-Serif" font-size="10.00">Test.testNotEqual</text>
</a>
</g>
</g>
<!-- Node15&#45;&gt;Node32 -->
<g id="edge31" class="edge"><title>Node15&#45;&gt;Node32</title>
<path fill="none" stroke="midnightblue" d="M338.724,-572.701C349.014,-512.148 383.603,-358.055 478,-279 482.083,-275.581 486.585,-272.637 491.344,-270.105"/>
<polygon fill="midnightblue" stroke="midnightblue" points="335.219,-572.449 337.076,-582.879 342.129,-573.567 335.219,-572.449"/>
</g>
<!-- Node33 -->
<g id="node33" class="node"><title>Node33</title>
<g id="a_node33"><a xlink:href="../../de/d2e/classtests_1_1_expression_command_parse_test.html#a6d3b6bdb079ef876815c288c064f4b33" target="_top" xlink:title="tests.ExpressionCommandParse\lTest.testAnd">
<polygon fill="white" stroke="black" points="489,-191 489,-221 661,-221 661,-191 489,-191"/>
<text text-anchor="start" x="497" y="-209" font-family="Helvetica,sans-Serif" font-size="10.00">tests.ExpressionCommandParse</text>
<text text-anchor="middle" x="575" y="-198" font-family="Helvetica,sans-Serif" font-size="10.00">Test.testAnd</text>
</a>
</g>
</g>
<!-- Node15&#45;&gt;Node33 -->
<g id="edge32" class="edge"><title>Node15&#45;&gt;Node33</title>
<path fill="none" stroke="midnightblue" d="M337.016,-573.006C343.767,-506.487 371.583,-323.82 478,-230 481.866,-226.592 486.144,-223.653 490.685,-221.12"/>
<polygon fill="midnightblue" stroke="midnightblue" points="333.528,-572.716 336.075,-583 340.497,-573.372 333.528,-572.716"/>
</g>
<!-- Node34 -->
<g id="node34" class="node"><title>Node34</title>
<g id="a_node34"><a xlink:href="../../de/d2e/classtests_1_1_expression_command_parse_test.html#a5c10408ef137b64e44db51e6ac34a5c8" target="_top" xlink:title="tests.ExpressionCommandParse\lTest.testOr">
<polygon fill="white" stroke="black" points="489,-142 489,-172 661,-172 661,-142 489,-142"/>
<text text-anchor="start" x="497" y="-160" font-family="Helvetica,sans-Serif" font-size="10.00">tests.ExpressionCommandParse</text>
<text text-anchor="middle" x="575" y="-149" font-family="Helvetica,sans-Serif" font-size="10.00">Test.testOr</text>
</a>
</g>
</g>
<!-- Node15&#45;&gt;Node34 -->
<g id="edge33" class="edge"><title>Node15&#45;&gt;Node34</title>
<path fill="none" stroke="midnightblue" d="M335.738,-572.699C339.277,-500.131 359.756,-289.556 478,-181 481.67,-177.631 485.74,-174.717 490.074,-172.198"/>
<polygon fill="midnightblue" stroke="midnightblue" points="332.238,-572.613 335.315,-582.751 339.232,-572.907 332.238,-572.613"/>
</g>
<!-- Node35 -->
<g id="node35" class="node"><title>Node35</title>
<g id="a_node35"><a xlink:href="../../de/d2e/classtests_1_1_expression_command_parse_test.html#a5b4d7321351f966e1261e1afbe14dd7c" target="_top" xlink:title="tests.ExpressionCommandParse\lTest.testNot">
<polygon fill="white" stroke="black" points="489,-93 489,-123 661,-123 661,-93 489,-93"/>
<text text-anchor="start" x="497" y="-111" font-family="Helvetica,sans-Serif" font-size="10.00">tests.ExpressionCommandParse</text>
<text text-anchor="middle" x="575" y="-100" font-family="Helvetica,sans-Serif" font-size="10.00">Test.testNot</text>
</a>
</g>
</g>
<!-- Node15&#45;&gt;Node35 -->
<g id="edge34" class="edge"><title>Node15&#45;&gt;Node35</title>
<path fill="none" stroke="midnightblue" d="M334.685,-572.454C335.18,-494.18 347.794,-255.511 478,-132 481.615,-128.571 485.642,-125.611 489.943,-123.058"/>
<polygon fill="midnightblue" stroke="midnightblue" points="331.185,-572.807 334.687,-582.806 338.185,-572.805 331.185,-572.807"/>
</g>
<!-- Node37 -->
<g id="node37" class="node"><title>Node37</title>
<g id="a_node37"><a xlink:href="../../d6/d33/class_view_1_1_slogo_view.html#a1a67765bb114e471855080a9938049a7" target="_top" xlink:title="View.SlogoView.sendCommand\lAndMakeButton">
<polygon fill="white" stroke="black" points="492.5,-44 492.5,-74 657.5,-74 657.5,-44 492.5,-44"/>
<text text-anchor="start" x="500.5" y="-62" font-family="Helvetica,sans-Serif" font-size="10.00">View.SlogoView.sendCommand</text>
<text text-anchor="middle" x="575" y="-51" font-family="Helvetica,sans-Serif" font-size="10.00">AndMakeButton</text>
</a>
</g>
</g>
<!-- Node36&#45;&gt;Node37 -->
<g id="edge36" class="edge"><title>Node36&#45;&gt;Node37</title>
<path fill="none" stroke="midnightblue" d="M441.201,-59C458.316,-59 475.799,-59 492.223,-59"/>
<polygon fill="midnightblue" stroke="midnightblue" points="441.177,-55.5001 431.177,-59 441.177,-62.5001 441.177,-55.5001"/>
</g>
<!-- Node42 -->
<g id="node42" class="node"><title>Node42</title>
<g id="a_node42"><a xlink:href="../../d6/d33/class_view_1_1_slogo_view.html#acaa2b33418cebb60111d0acfef03e832" target="_top" xlink:title="View.SlogoView.executeUser\lCommand">
<polygon fill="white" stroke="black" points="719,-0 719,-30 871,-30 871,-0 719,-0"/>
<text text-anchor="start" x="727" y="-18" font-family="Helvetica,sans-Serif" font-size="10.00">View.SlogoView.executeUser</text>
<text text-anchor="middle" x="795" y="-7" font-family="Helvetica,sans-Serif" font-size="10.00">Command</text>
</a>
</g>
</g>
<!-- Node36&#45;&gt;Node42 -->
<g id="edge42" class="edge"><title>Node36&#45;&gt;Node42</title>
<path fill="none" stroke="midnightblue" d="M421.49,-42.2608C440.075,-39.1181 459.646,-36.1492 478,-34 560.017,-24.3961 654.612,-19.5206 718.769,-17.1315"/>
<polygon fill="midnightblue" stroke="midnightblue" points="420.838,-38.8215 411.577,-43.9684 422.026,-45.7199 420.838,-38.8215"/>
</g>
<!-- Node38 -->
<g id="node38" class="node"><title>Node38</title>
<g id="a_node38"><a xlink:href="../../d6/d33/class_view_1_1_slogo_view.html#a468acf266470c356f2f36e7eb2f327e8" target="_top" xlink:title="View.SlogoView.createCommand\lLineWithLabel">
<polygon fill="white" stroke="black" points="708.5,-49 708.5,-79 881.5,-79 881.5,-49 708.5,-49"/>
<text text-anchor="start" x="716.5" y="-67" font-family="Helvetica,sans-Serif" font-size="10.00">View.SlogoView.createCommand</text>
<text text-anchor="middle" x="795" y="-56" font-family="Helvetica,sans-Serif" font-size="10.00">LineWithLabel</text>
</a>
</g>
</g>
<!-- Node37&#45;&gt;Node38 -->
<g id="edge37" class="edge"><title>Node37&#45;&gt;Node38</title>
<path fill="none" stroke="midnightblue" d="M667.978,-61.1096C681.403,-61.4175 695.181,-61.7335 708.47,-62.0383"/>
<polygon fill="midnightblue" stroke="midnightblue" points="667.873,-57.6064 657.795,-60.876 667.712,-64.6045 667.873,-57.6064"/>
</g>
<!-- Node37&#45;&gt;Node42 -->
<g id="edge41" class="edge"><title>Node37&#45;&gt;Node42</title>
<path fill="none" stroke="midnightblue" d="M660.216,-42.0023C679.772,-38.0552 700.451,-33.8814 719.552,-30.0262"/>
<polygon fill="midnightblue" stroke="midnightblue" points="659.523,-38.5714 650.414,-43.9808 660.908,-45.433 659.523,-38.5714"/>
</g>
<!-- Node39 -->
<g id="node39" class="node"><title>Node39</title>
<g id="a_node39"><a xlink:href="../../d6/d33/class_view_1_1_slogo_view.html#ac64a43649ed5417854c37ec25320e925" target="_top" xlink:title="View.SlogoView.setTextArea">
<polygon fill="white" stroke="black" points="918,-54.5 918,-73.5 1066,-73.5 1066,-54.5 918,-54.5"/>
<text text-anchor="middle" x="992" y="-61.5" font-family="Helvetica,sans-Serif" font-size="10.00">View.SlogoView.setTextArea</text>
</a>
</g>
</g>
<!-- Node38&#45;&gt;Node39 -->
<g id="edge38" class="edge"><title>Node38&#45;&gt;Node39</title>
<path fill="none" stroke="midnightblue" d="M891.76,-64C900.497,-64 909.252,-64 917.745,-64"/>
<polygon fill="midnightblue" stroke="midnightblue" points="891.53,-60.5001 881.53,-64 891.53,-67.5001 891.53,-60.5001"/>
</g>
<!-- Node40 -->
<g id="node40" class="node"><title>Node40</title>
<g id="a_node40"><a xlink:href="../../d6/d33/class_view_1_1_slogo_view.html#acfeff052503655d2ac419d2bf4ea9bd5" target="_top" xlink:title="View.SlogoView.initialize">
<polygon fill="white" stroke="black" points="1102,-54.5 1102,-73.5 1232,-73.5 1232,-54.5 1102,-54.5"/>
<text text-anchor="middle" x="1167" y="-61.5" font-family="Helvetica,sans-Serif" font-size="10.00">View.SlogoView.initialize</text>
</a>
</g>
</g>
<!-- Node39&#45;&gt;Node40 -->
<g id="edge39" class="edge"><title>Node39&#45;&gt;Node40</title>
<path fill="none" stroke="midnightblue" d="M1076.22,-64C1084.85,-64 1093.53,-64 1101.91,-64"/>
<polygon fill="midnightblue" stroke="midnightblue" points="1076.12,-60.5001 1066.12,-64 1076.12,-67.5001 1076.12,-60.5001"/>
</g>
<!-- Node41 -->
<g id="node41" class="node"><title>Node41</title>
<g id="a_node41"><a xlink:href="../../db/d27/class_view_1_1_slogo.html#a6ab76a53160b61d8501aec91c55b85c8" target="_top" xlink:title="View.Slogo.start">
<polygon fill="white" stroke="black" points="1268.5,-54.5 1268.5,-73.5 1361.5,-73.5 1361.5,-54.5 1268.5,-54.5"/>
<text text-anchor="middle" x="1315" y="-61.5" font-family="Helvetica,sans-Serif" font-size="10.00">View.Slogo.start</text>
</a>
</g>
</g>
<!-- Node40&#45;&gt;Node41 -->
<g id="edge40" class="edge"><title>Node40&#45;&gt;Node41</title>
<path fill="none" stroke="midnightblue" d="M1242.14,-64C1251.11,-64 1260.05,-64 1268.43,-64"/>
<polygon fill="midnightblue" stroke="midnightblue" points="1242.04,-60.5001 1232.04,-64 1242.04,-67.5001 1242.04,-60.5001"/>
</g>
</g>
</svg>
