<?xml version="1.0" encoding="UTF-8" standalone="no"?>
<!DOCTYPE svg PUBLIC "-//W3C//DTD SVG 1.1//EN"
 "http://www.w3.org/Graphics/SVG/1.1/DTD/svg11.dtd">
<!-- Generated by graphviz version 2.36.0 (20140111.2315)
 -->
<!-- Title: commands.controlCommands.ToCommand.onExecute Pages: 1 -->
<svg width="424pt" height="87pt"
 viewBox="0.00 0.00 424.00 87.00" xmlns="http://www.w3.org/2000/svg" xmlns:xlink="http://www.w3.org/1999/xlink">
<g id="graph0" class="graph" transform="scale(1 1) rotate(0) translate(4 83)">
<title>commands.controlCommands.ToCommand.onExecute</title>
<polygon fill="white" stroke="none" points="-4,4 -4,-83 420,-83 420,4 -4,4"/>
<!-- Node1 -->
<g id="node1" class="node"><title>Node1</title>
<polygon fill="#bfbfbf" stroke="black" points="0.5,-24 0.5,-54 165.5,-54 165.5,-24 0.5,-24"/>
<text text-anchor="start" x="8.5" y="-42" font-family="Helvetica,sans-Serif" font-size="10.00">commands.controlCommands.</text>
<text text-anchor="middle" x="83" y="-31" font-family="Helvetica,sans-Serif" font-size="10.00">ToCommand.onExecute</text>
</g>
<!-- Node2 -->
<g id="node2" class="node"><title>Node2</title>
<g id="a_node2"><a xlink:href="../../d4/d05/classcommands_1_1information_1_1_base_user_defined_container.html#adddbb37a5286b47ce03bd3c3b4ef46cf" target="_top" xlink:title="commands.information.Base\lUserDefinedContainer.addNewCommand">
<polygon fill="white" stroke="black" points="202.5,-49 202.5,-79 415.5,-79 415.5,-49 202.5,-49"/>
<text text-anchor="start" x="210.5" y="-67" font-family="Helvetica,sans-Serif" font-size="10.00">commands.information.Base</text>
<text text-anchor="middle" x="309" y="-56" font-family="Helvetica,sans-Serif" font-size="10.00">UserDefinedContainer.addNewCommand</text>
</a>
</g>
</g>
<!-- Node1&#45;&gt;Node2 -->
<g id="edge1" class="edge"><title>Node1&#45;&gt;Node2</title>
<path fill="none" stroke="midnightblue" d="M165.503,-48.0963C174.228,-49.0701 183.22,-50.0737 192.245,-51.081"/>
<polygon fill="midnightblue" stroke="midnightblue" points="192.11,-54.5875 202.436,-52.2183 192.886,-47.6307 192.11,-54.5875"/>
</g>
<!-- Node3 -->
<g id="node3" class="node"><title>Node3</title>
<g id="a_node3"><a xlink:href="../../da/d8a/classcommands_1_1_control_command.html#a11374c51f66b60220ca5bc8b4995a957" target="_top" xlink:title="commands.ControlCommand.get\lVariableContainer">
<polygon fill="white" stroke="black" points="220.5,-0 220.5,-30 397.5,-30 397.5,-0 220.5,-0"/>
<text text-anchor="start" x="228.5" y="-18" font-family="Helvetica,sans-Serif" font-size="10.00">commands.ControlCommand.get</text>
<text text-anchor="middle" x="309" y="-7" font-family="Helvetica,sans-Serif" font-size="10.00">VariableContainer</text>
</a>
</g>
</g>
<!-- Node1&#45;&gt;Node3 -->
<g id="edge2" class="edge"><title>Node1&#45;&gt;Node3</title>
<path fill="none" stroke="midnightblue" d="M165.503,-30.2676C179.935,-28.7212 195.099,-27.0965 209.932,-25.5073"/>
<polygon fill="midnightblue" stroke="midnightblue" points="210.565,-28.9596 220.135,-24.4141 209.819,-21.9995 210.565,-28.9596"/>
</g>
</g>
</svg>
