<?xml version="1.0" encoding="UTF-8" standalone="no"?>
<!DOCTYPE svg PUBLIC "-//W3C//DTD SVG 1.1//EN"
 "http://www.w3.org/Graphics/SVG/1.1/DTD/svg11.dtd">
<!-- Generated by graphviz version 2.36.0 (20140111.2315)
 -->
<!-- Title: commands.controlCommands.ToCommand.isEven Pages: 1 -->
<svg width="638pt" height="61pt"
 viewBox="0.00 0.00 638.00 61.00" xmlns="http://www.w3.org/2000/svg" xmlns:xlink="http://www.w3.org/1999/xlink">
<g id="graph0" class="graph" transform="scale(1 1) rotate(0) translate(4 57)">
<title>commands.controlCommands.ToCommand.isEven</title>
<polygon fill="white" stroke="none" points="-4,4 -4,-57 634,-57 634,4 -4,4"/>
<!-- Node1 -->
<g id="node1" class="node"><title>Node1</title>
<polygon fill="#bfbfbf" stroke="black" points="0.5,-1 0.5,-31 165.5,-31 165.5,-1 0.5,-1"/>
<text text-anchor="start" x="8.5" y="-19" font-family="Helvetica,sans-Serif" font-size="10.00">commands.controlCommands.</text>
<text text-anchor="middle" x="83" y="-8" font-family="Helvetica,sans-Serif" font-size="10.00">ToCommand.isEven</text>
</g>
<!-- Node2 -->
<g id="node2" class="node"><title>Node2</title>
<g id="a_node2"><a xlink:href="../../d9/d3f/classcommands_1_1control_commands_1_1_to_command.html#abc616b672521ee03e3fdd9c905546fdf" target="_top" xlink:title="commands.controlCommands.\lToCommand.addWordsToVariablesCollection">
<polygon fill="white" stroke="black" points="202,-23 202,-53 428,-53 428,-23 202,-23"/>
<text text-anchor="start" x="210" y="-41" font-family="Helvetica,sans-Serif" font-size="10.00">commands.controlCommands.</text>
<text text-anchor="middle" x="315" y="-30" font-family="Helvetica,sans-Serif" font-size="10.00">ToCommand.addWordsToVariablesCollection</text>
</a>
</g>
</g>
<!-- Node1&#45;&gt;Node2 -->
<g id="edge1" class="edge"><title>Node1&#45;&gt;Node2</title>
<path fill="none" stroke="midnightblue" d="M175.759,-24.7769C184.378,-25.6013 193.178,-26.4431 201.956,-27.2827"/>
<polygon fill="midnightblue" stroke="midnightblue" points="176.025,-21.2865 165.737,-23.8183 175.358,-28.2547 176.025,-21.2865"/>
</g>
<!-- Node3 -->
<g id="node3" class="node"><title>Node3</title>
<g id="a_node3"><a xlink:href="../../d9/d3f/classcommands_1_1control_commands_1_1_to_command.html#adee54ca4267f45fe551c798ba4994e76" target="_top" xlink:title="commands.controlCommands.\lToCommand.parseArguments">
<polygon fill="white" stroke="black" points="464.5,-1 464.5,-31 629.5,-31 629.5,-1 464.5,-1"/>
<text text-anchor="start" x="472.5" y="-19" font-family="Helvetica,sans-Serif" font-size="10.00">commands.controlCommands.</text>
<text text-anchor="middle" x="547" y="-8" font-family="Helvetica,sans-Serif" font-size="10.00">ToCommand.parseArguments</text>
</a>
</g>
</g>
<!-- Node1&#45;&gt;Node3 -->
<g id="edge3" class="edge"><title>Node1&#45;&gt;Node3</title>
<path fill="none" stroke="midnightblue" d="M175.617,-14.2948C184.532,-14.1747 193.441,-14.0725 202,-14 302.441,-13.1489 327.559,-13.1489 428,-14 439.781,-14.0998 452.222,-14.2557 464.434,-14.4374"/>
<polygon fill="midnightblue" stroke="midnightblue" points="175.516,-10.7958 165.566,-14.4374 175.615,-17.7951 175.516,-10.7958"/>
</g>
<!-- Node2&#45;&gt;Node3 -->
<g id="edge2" class="edge"><title>Node2&#45;&gt;Node3</title>
<path fill="none" stroke="midnightblue" d="M438.312,-26.3006C447.163,-25.454 455.956,-24.6129 464.481,-23.7975"/>
<polygon fill="midnightblue" stroke="midnightblue" points="437.926,-22.8214 428.305,-27.2578 438.593,-29.7896 437.926,-22.8214"/>
</g>
</g>
</svg>
