<?xml version="1.0" encoding="UTF-8" standalone="no"?>
<!DOCTYPE svg PUBLIC "-//W3C//DTD SVG 1.1//EN"
 "http://www.w3.org/Graphics/SVG/1.1/DTD/svg11.dtd">
<!-- Generated by graphviz version 2.36.0 (20140111.2315)
 -->
<!-- Title: commands.controlCommands.ToCommand.addWordsToVariablesCollection Pages: 1 -->
<svg width="436pt" height="38pt"
 viewBox="0.00 0.00 436.00 38.00" xmlns="http://www.w3.org/2000/svg" xmlns:xlink="http://www.w3.org/1999/xlink">
<g id="graph0" class="graph" transform="scale(1 1) rotate(0) translate(4 34)">
<title>commands.controlCommands.ToCommand.addWordsToVariablesCollection</title>
<polygon fill="white" stroke="none" points="-4,4 -4,-34 432,-34 432,4 -4,4"/>
<!-- Node1 -->
<g id="node1" class="node"><title>Node1</title>
<polygon fill="#bfbfbf" stroke="black" points="0,-0 0,-30 226,-30 226,-0 0,-0"/>
<text text-anchor="start" x="8" y="-18" font-family="Helvetica,sans-Serif" font-size="10.00">commands.controlCommands.</text>
<text text-anchor="middle" x="113" y="-7" font-family="Helvetica,sans-Serif" font-size="10.00">ToCommand.addWordsToVariablesCollection</text>
</g>
<!-- Node2 -->
<g id="node2" class="node"><title>Node2</title>
<g id="a_node2"><a xlink:href="../../d9/d3f/classcommands_1_1control_commands_1_1_to_command.html#abddda937d22d508e05d6075e11d3534d" target="_top" xlink:title="commands.controlCommands.\lToCommand.isEven">
<polygon fill="white" stroke="black" points="262.5,-0 262.5,-30 427.5,-30 427.5,-0 262.5,-0"/>
<text text-anchor="start" x="270.5" y="-18" font-family="Helvetica,sans-Serif" font-size="10.00">commands.controlCommands.</text>
<text text-anchor="middle" x="345" y="-7" font-family="Helvetica,sans-Serif" font-size="10.00">ToCommand.isEven</text>
</a>
</g>
</g>
<!-- Node1&#45;&gt;Node2 -->
<g id="edge1" class="edge"><title>Node1&#45;&gt;Node2</title>
<path fill="none" stroke="midnightblue" d="M226.305,-15C235.075,-15 243.865,-15 252.473,-15"/>
<polygon fill="midnightblue" stroke="midnightblue" points="252.481,-18.5001 262.481,-15 252.481,-11.5001 252.481,-18.5001"/>
</g>
</g>
</svg>
