<?xml version="1.0" encoding="UTF-8" standalone="no"?>
<!DOCTYPE svg PUBLIC "-//W3C//DTD SVG 1.1//EN"
 "http://www.w3.org/Graphics/SVG/1.1/DTD/svg11.dtd">
<!-- Generated by graphviz version 2.36.0 (20140111.2315)
 -->
<!-- Title: commands.controlCommands.ToCommand.parseArguments Pages: 1 -->
<svg width="1168pt" height="304pt"
 viewBox="0.00 0.00 1168.00 304.00" xmlns="http://www.w3.org/2000/svg" xmlns:xlink="http://www.w3.org/1999/xlink">
<g id="graph0" class="graph" transform="scale(1 1) rotate(0) translate(4 300)">
<title>commands.controlCommands.ToCommand.parseArguments</title>
<polygon fill="white" stroke="none" points="-4,4 -4,-300 1164,-300 1164,4 -4,4"/>
<!-- Node1 -->
<g id="node1" class="node"><title>Node1</title>
<polygon fill="#bfbfbf" stroke="black" points="0.5,-147 0.5,-177 165.5,-177 165.5,-147 0.5,-147"/>
<text text-anchor="start" x="8.5" y="-165" font-family="Helvetica,sans-Serif" font-size="10.00">commands.controlCommands.</text>
<text text-anchor="middle" x="83" y="-154" font-family="Helvetica,sans-Serif" font-size="10.00">ToCommand.parseArguments</text>
</g>
<!-- Node2 -->
<g id="node2" class="node"><title>Node2</title>
<g id="a_node2"><a xlink:href="../../d9/d3f/classcommands_1_1control_commands_1_1_to_command.html#abc616b672521ee03e3fdd9c905546fdf" target="_top" xlink:title="commands.controlCommands.\lToCommand.addWordsToVariablesCollection">
<polygon fill="white" stroke="black" points="202,-213 202,-243 428,-243 428,-213 202,-213"/>
<text text-anchor="start" x="210" y="-231" font-family="Helvetica,sans-Serif" font-size="10.00">commands.controlCommands.</text>
<text text-anchor="middle" x="315" y="-220" font-family="Helvetica,sans-Serif" font-size="10.00">ToCommand.addWordsToVariablesCollection</text>
</a>
</g>
</g>
<!-- Node1&#45;&gt;Node2 -->
<g id="edge1" class="edge"><title>Node1&#45;&gt;Node2</title>
<path fill="none" stroke="midnightblue" d="M131.829,-177C153.242,-183.611 178.836,-191.366 202,-198 216.308,-202.098 231.694,-206.331 246.342,-210.279"/>
<polygon fill="midnightblue" stroke="midnightblue" points="245.777,-213.751 256.342,-212.962 247.591,-206.991 245.777,-213.751"/>
</g>
<!-- Node3 -->
<g id="node3" class="node"><title>Node3</title>
<g id="a_node3"><a xlink:href="../../d9/d3f/classcommands_1_1control_commands_1_1_to_command.html#abddda937d22d508e05d6075e11d3534d" target="_top" xlink:title="commands.controlCommands.\lToCommand.isEven">
<polygon fill="white" stroke="black" points="489.5,-193 489.5,-223 654.5,-223 654.5,-193 489.5,-193"/>
<text text-anchor="start" x="497.5" y="-211" font-family="Helvetica,sans-Serif" font-size="10.00">commands.controlCommands.</text>
<text text-anchor="middle" x="572" y="-200" font-family="Helvetica,sans-Serif" font-size="10.00">ToCommand.isEven</text>
</a>
</g>
</g>
<!-- Node1&#45;&gt;Node3 -->
<g id="edge3" class="edge"><title>Node1&#45;&gt;Node3</title>
<path fill="none" stroke="midnightblue" d="M165.513,-169.699C252.162,-177.884 388.896,-190.799 479.259,-199.335"/>
<polygon fill="midnightblue" stroke="midnightblue" points="478.936,-202.82 489.221,-200.276 479.595,-195.851 478.936,-202.82"/>
</g>
<!-- Node4 -->
<g id="node4" class="node"><title>Node4</title>
<g id="a_node4"><a xlink:href="../../da/d90/classcommands_1_1_base_command.html#a4f771af3c6b3345e720f2ef455e6d1e2" target="_top" xlink:title="commands.BaseCommand.set\lLeftoverCommands">
<polygon fill="white" stroke="black" points="232,-125 232,-155 398,-155 398,-125 232,-125"/>
<text text-anchor="start" x="240" y="-143" font-family="Helvetica,sans-Serif" font-size="10.00">commands.BaseCommand.set</text>
<text text-anchor="middle" x="315" y="-132" font-family="Helvetica,sans-Serif" font-size="10.00">LeftoverCommands</text>
</a>
</g>
</g>
<!-- Node1&#45;&gt;Node4 -->
<g id="edge4" class="edge"><title>Node1&#45;&gt;Node4</title>
<path fill="none" stroke="midnightblue" d="M165.737,-154.182C183.822,-152.452 203.107,-150.607 221.583,-148.84"/>
<polygon fill="midnightblue" stroke="midnightblue" points="222.13,-152.304 231.751,-147.867 221.463,-145.335 222.13,-152.304"/>
</g>
<!-- Node13 -->
<g id="node13" class="node"><title>Node13</title>
<g id="a_node13"><a xlink:href="../../da/d90/classcommands_1_1_base_command.html#a5c580fafaf7ac4ab165e666af08645c7" target="_top" xlink:title="commands.BaseCommand.split\lByInnerListCommand">
<polygon fill="white" stroke="black" points="230,-76 230,-106 400,-106 400,-76 230,-76"/>
<text text-anchor="start" x="238" y="-94" font-family="Helvetica,sans-Serif" font-size="10.00">commands.BaseCommand.split</text>
<text text-anchor="middle" x="315" y="-83" font-family="Helvetica,sans-Serif" font-size="10.00">ByInnerListCommand</text>
</a>
</g>
</g>
<!-- Node1&#45;&gt;Node13 -->
<g id="edge13" class="edge"><title>Node1&#45;&gt;Node13</title>
<path fill="none" stroke="midnightblue" d="M117.289,-146.998C140.638,-136.91 172.779,-123.882 202,-115 209.643,-112.677 217.644,-110.492 225.704,-108.459"/>
<polygon fill="midnightblue" stroke="midnightblue" points="226.66,-111.829 235.544,-106.056 224.999,-105.029 226.66,-111.829"/>
</g>
<!-- Node2&#45;&gt;Node3 -->
<g id="edge2" class="edge"><title>Node2&#45;&gt;Node3</title>
<path fill="none" stroke="midnightblue" d="M428.218,-219.199C445.259,-217.862 462.669,-216.497 479.207,-215.199"/>
<polygon fill="midnightblue" stroke="midnightblue" points="479.685,-218.673 489.381,-214.402 479.138,-211.694 479.685,-218.673"/>
</g>
<!-- Node5 -->
<g id="node5" class="node"><title>Node5</title>
<g id="a_node5"><a xlink:href="../../da/dc6/classcommand_parser_1_1_command_factory.html#a84097b97d8a8ff95b3118ebddff9f33a" target="_top" xlink:title="commandParser.CommandFactory.create\lCommand">
<polygon fill="white" stroke="black" points="464.5,-125 464.5,-155 679.5,-155 679.5,-125 464.5,-125"/>
<text text-anchor="start" x="472.5" y="-143" font-family="Helvetica,sans-Serif" font-size="10.00">commandParser.CommandFactory.create</text>
<text text-anchor="middle" x="572" y="-132" font-family="Helvetica,sans-Serif" font-size="10.00">Command</text>
</a>
</g>
</g>
<!-- Node4&#45;&gt;Node5 -->
<g id="edge5" class="edge"><title>Node4&#45;&gt;Node5</title>
<path fill="none" stroke="midnightblue" d="M398.087,-140C415.982,-140 435.25,-140 454.201,-140"/>
<polygon fill="midnightblue" stroke="midnightblue" points="454.378,-143.5 464.378,-140 454.378,-136.5 454.378,-143.5"/>
</g>
<!-- Node6 -->
<g id="node6" class="node"><title>Node6</title>
<g id="a_node6"><a xlink:href="../../d4/d05/classcommands_1_1information_1_1_base_user_defined_container.html#abbef8e1f3137aa92b5ca708b18981aac" target="_top" xlink:title="commands.information.Base\lUserDefinedContainer.containsCustom\lCommand">
<polygon fill="white" stroke="black" points="723.5,-254.5 723.5,-295.5 926.5,-295.5 926.5,-254.5 723.5,-254.5"/>
<text text-anchor="start" x="731.5" y="-283.5" font-family="Helvetica,sans-Serif" font-size="10.00">commands.information.Base</text>
<text text-anchor="start" x="731.5" y="-272.5" font-family="Helvetica,sans-Serif" font-size="10.00">UserDefinedContainer.containsCustom</text>
<text text-anchor="middle" x="825" y="-261.5" font-family="Helvetica,sans-Serif" font-size="10.00">Command</text>
</a>
</g>
</g>
<!-- Node5&#45;&gt;Node6 -->
<g id="edge6" class="edge"><title>Node5&#45;&gt;Node6</title>
<path fill="none" stroke="midnightblue" d="M630.22,-155.069C647.564,-161.615 665.77,-170.684 680,-183 704.093,-203.853 690.786,-225.518 716,-245 717.877,-246.45 719.82,-247.83 721.818,-249.143"/>
<polygon fill="midnightblue" stroke="midnightblue" points="720.509,-252.434 730.903,-254.485 724.057,-246.399 720.509,-252.434"/>
</g>
<!-- Node8 -->
<g id="node8" class="node"><title>Node8</title>
<g id="a_node8"><a xlink:href="../../dd/df5/interfacecommands_1_1information_1_1_i_information_gateway.html#a7288ceac89a0755490d929dc28df39f0" target="_top" xlink:title="commands.information.IInformation\lGateway.getContainers">
<polygon fill="white" stroke="black" points="731,-206 731,-236 919,-236 919,-206 731,-206"/>
<text text-anchor="start" x="739" y="-224" font-family="Helvetica,sans-Serif" font-size="10.00">commands.information.IInformation</text>
<text text-anchor="middle" x="825" y="-213" font-family="Helvetica,sans-Serif" font-size="10.00">Gateway.getContainers</text>
</a>
</g>
</g>
<!-- Node5&#45;&gt;Node8 -->
<g id="edge8" class="edge"><title>Node5&#45;&gt;Node8</title>
<path fill="none" stroke="midnightblue" d="M610.732,-155.105C649.467,-170.558 705.526,-192.756 716,-196 724.573,-198.655 733.606,-201.173 742.648,-203.515"/>
<polygon fill="midnightblue" stroke="midnightblue" points="741.888,-206.933 752.441,-205.985 743.601,-200.145 741.888,-206.933"/>
</g>
<!-- Node9 -->
<g id="node9" class="node"><title>Node9</title>
<g id="a_node9"><a xlink:href="../../d4/d05/classcommands_1_1information_1_1_base_user_defined_container.html#a22a65948b69ed0032f4d904e13c69491" target="_top" xlink:title="commands.information.Base\lUserDefinedContainer.getCreated\lCommand">
<polygon fill="white" stroke="black" points="735.5,-146.5 735.5,-187.5 914.5,-187.5 914.5,-146.5 735.5,-146.5"/>
<text text-anchor="start" x="743.5" y="-175.5" font-family="Helvetica,sans-Serif" font-size="10.00">commands.information.Base</text>
<text text-anchor="start" x="743.5" y="-164.5" font-family="Helvetica,sans-Serif" font-size="10.00">UserDefinedContainer.getCreated</text>
<text text-anchor="middle" x="825" y="-153.5" font-family="Helvetica,sans-Serif" font-size="10.00">Command</text>
</a>
</g>
</g>
<!-- Node5&#45;&gt;Node9 -->
<g id="edge9" class="edge"><title>Node5&#45;&gt;Node9</title>
<path fill="none" stroke="midnightblue" d="M679.811,-151.49C694.88,-153.111 710.317,-154.771 725.226,-156.375"/>
<polygon fill="midnightblue" stroke="midnightblue" points="725.135,-159.885 735.452,-157.475 725.884,-152.925 725.135,-159.885"/>
</g>
<!-- Node10 -->
<g id="node10" class="node"><title>Node10</title>
<g id="a_node10"><a xlink:href="../../da/d90/classcommands_1_1_base_command.html#a03dca0b542f5be4aa804297cea2688b5" target="_top" xlink:title="commands.BaseCommand.get\lRequiredInformationTypes">
<polygon fill="white" stroke="black" points="741.5,-98 741.5,-128 908.5,-128 908.5,-98 741.5,-98"/>
<text text-anchor="start" x="749.5" y="-116" font-family="Helvetica,sans-Serif" font-size="10.00">commands.BaseCommand.get</text>
<text text-anchor="middle" x="825" y="-105" font-family="Helvetica,sans-Serif" font-size="10.00">RequiredInformationTypes</text>
</a>
</g>
</g>
<!-- Node5&#45;&gt;Node10 -->
<g id="edge10" class="edge"><title>Node5&#45;&gt;Node10</title>
<path fill="none" stroke="midnightblue" d="M679.811,-128.51C696.827,-126.68 714.312,-124.799 730.977,-123.006"/>
<polygon fill="midnightblue" stroke="midnightblue" points="731.668,-126.452 741.236,-121.903 730.919,-119.493 731.668,-126.452"/>
</g>
<!-- Node11 -->
<g id="node11" class="node"><title>Node11</title>
<g id="a_node11"><a xlink:href="../../da/dc6/classcommand_parser_1_1_command_factory.html#a5c750e1a1a32bd314bf662dd5cfdc951" target="_top" xlink:title="commandParser.CommandFactory.identify\lFirstCommand">
<polygon fill="white" stroke="black" points="716,-49 716,-79 934,-79 934,-49 716,-49"/>
<text text-anchor="start" x="724" y="-67" font-family="Helvetica,sans-Serif" font-size="10.00">commandParser.CommandFactory.identify</text>
<text text-anchor="middle" x="825" y="-56" font-family="Helvetica,sans-Serif" font-size="10.00">FirstCommand</text>
</a>
</g>
</g>
<!-- Node5&#45;&gt;Node11 -->
<g id="edge11" class="edge"><title>Node5&#45;&gt;Node11</title>
<path fill="none" stroke="midnightblue" d="M653.691,-124.974C662.754,-122.17 671.702,-118.871 680,-115 698.125,-106.544 697.83,-96.3571 716,-88 720.572,-85.897 725.34,-83.973 730.216,-82.2135"/>
<polygon fill="midnightblue" stroke="midnightblue" points="731.335,-85.5297 739.701,-79.0286 729.107,-78.8938 731.335,-85.5297"/>
</g>
<!-- Node12 -->
<g id="node12" class="node"><title>Node12</title>
<g id="a_node12"><a xlink:href="../../da/d90/classcommands_1_1_base_command.html#aa64b92d5d7753574941c38218a271b0d" target="_top" xlink:title="commands.BaseCommand.set\lRequiredInformation">
<polygon fill="white" stroke="black" points="742,-0 742,-30 908,-30 908,-0 742,-0"/>
<text text-anchor="start" x="750" y="-18" font-family="Helvetica,sans-Serif" font-size="10.00">commands.BaseCommand.set</text>
<text text-anchor="middle" x="825" y="-7" font-family="Helvetica,sans-Serif" font-size="10.00">RequiredInformation</text>
</a>
</g>
</g>
<!-- Node5&#45;&gt;Node12 -->
<g id="edge12" class="edge"><title>Node5&#45;&gt;Node12</title>
<path fill="none" stroke="midnightblue" d="M664.491,-124.88C670.014,-122.099 675.249,-118.834 680,-115 709.086,-91.5283 686.787,-62.3135 716,-39 721.025,-34.9902 726.581,-31.6186 732.445,-28.7869"/>
<polygon fill="midnightblue" stroke="midnightblue" points="734.052,-31.9068 741.88,-24.7674 731.309,-25.4668 734.052,-31.9068"/>
</g>
<!-- Node7 -->
<g id="node7" class="node"><title>Node7</title>
<g id="a_node7"><a xlink:href="../../d4/d05/classcommands_1_1information_1_1_base_user_defined_container.html#a2c1da98631c577bddaaa7f4ad5ae8aaa" target="_top" xlink:title="commands.information.Base\lUserDefinedContainer.getAllCustom\lCommands">
<polygon fill="white" stroke="black" points="970.5,-254.5 970.5,-295.5 1159.5,-295.5 1159.5,-254.5 970.5,-254.5"/>
<text text-anchor="start" x="978.5" y="-283.5" font-family="Helvetica,sans-Serif" font-size="10.00">commands.information.Base</text>
<text text-anchor="start" x="978.5" y="-272.5" font-family="Helvetica,sans-Serif" font-size="10.00">UserDefinedContainer.getAllCustom</text>
<text text-anchor="middle" x="1065" y="-261.5" font-family="Helvetica,sans-Serif" font-size="10.00">Commands</text>
</a>
</g>
</g>
<!-- Node6&#45;&gt;Node7 -->
<g id="edge7" class="edge"><title>Node6&#45;&gt;Node7</title>
<path fill="none" stroke="midnightblue" d="M926.588,-275C937.662,-275 948.953,-275 960.065,-275"/>
<polygon fill="midnightblue" stroke="midnightblue" points="960.21,-278.5 970.21,-275 960.21,-271.5 960.21,-278.5"/>
</g>
<!-- Node14 -->
<g id="node14" class="node"><title>Node14</title>
<g id="a_node14"><a xlink:href="../../da/d90/classcommands_1_1_base_command.html#a648d67ef5324973db4c43d78d98ec837" target="_top" xlink:title="commands.BaseCommand.find\lIndexOfInnerListCommandEnd">
<polygon fill="white" stroke="black" points="488,-76 488,-106 656,-106 656,-76 488,-76"/>
<text text-anchor="start" x="496" y="-94" font-family="Helvetica,sans-Serif" font-size="10.00">commands.BaseCommand.find</text>
<text text-anchor="middle" x="572" y="-83" font-family="Helvetica,sans-Serif" font-size="10.00">IndexOfInnerListCommandEnd</text>
</a>
</g>
</g>
<!-- Node13&#45;&gt;Node14 -->
<g id="edge14" class="edge"><title>Node13&#45;&gt;Node14</title>
<path fill="none" stroke="midnightblue" d="M400.203,-91C424.939,-91 452.141,-91 477.425,-91"/>
<polygon fill="midnightblue" stroke="midnightblue" points="477.754,-94.5001 487.754,-91 477.754,-87.5001 477.754,-94.5001"/>
</g>
<!-- Node15 -->
<g id="node15" class="node"><title>Node15</title>
<g id="a_node15"><a xlink:href="../../da/d90/classcommands_1_1_base_command.html#a74b2695b6b57512dca66f288feb02aee" target="_top" xlink:title="commands.BaseCommand.starts\lWithCommandStartIndicator">
<polygon fill="white" stroke="black" points="482.5,-27 482.5,-57 661.5,-57 661.5,-27 482.5,-27"/>
<text text-anchor="start" x="490.5" y="-45" font-family="Helvetica,sans-Serif" font-size="10.00">commands.BaseCommand.starts</text>
<text text-anchor="middle" x="572" y="-34" font-family="Helvetica,sans-Serif" font-size="10.00">WithCommandStartIndicator</text>
</a>
</g>
</g>
<!-- Node13&#45;&gt;Node15 -->
<g id="edge15" class="edge"><title>Node13&#45;&gt;Node15</title>
<path fill="none" stroke="midnightblue" d="M394.241,-75.9654C422.267,-70.58 454.045,-64.4736 482.852,-58.9382"/>
<polygon fill="midnightblue" stroke="midnightblue" points="483.747,-62.3304 492.907,-57.0062 482.426,-55.4562 483.747,-62.3304"/>
</g>
</g>
</svg>
