<?xml version="1.0" encoding="UTF-8" standalone="no"?>
<!DOCTYPE svg PUBLIC "-//W3C//DTD SVG 1.1//EN"
 "http://www.w3.org/Graphics/SVG/1.1/DTD/svg11.dtd">
<!-- Generated by graphviz version 2.36.0 (20140111.2315)
 -->
<!-- Title: commands.viewCommands.StampCommand.onExecute Pages: 1 -->
<svg width="420pt" height="87pt"
 viewBox="0.00 0.00 420.00 87.00" xmlns="http://www.w3.org/2000/svg" xmlns:xlink="http://www.w3.org/1999/xlink">
<g id="graph0" class="graph" transform="scale(1 1) rotate(0) translate(4 83)">
<title>commands.viewCommands.StampCommand.onExecute</title>
<polygon fill="white" stroke="none" points="-4,4 -4,-83 416,-83 416,4 -4,4"/>
<!-- Node1 -->
<g id="node1" class="node"><title>Node1</title>
<polygon fill="#bfbfbf" stroke="black" points="0.5,-24 0.5,-54 185.5,-54 185.5,-24 0.5,-24"/>
<text text-anchor="start" x="8.5" y="-42" font-family="Helvetica,sans-Serif" font-size="10.00">commands.viewCommands.Stamp</text>
<text text-anchor="middle" x="93" y="-31" font-family="Helvetica,sans-Serif" font-size="10.00">Command.onExecute</text>
</g>
<!-- Node2 -->
<g id="node2" class="node"><title>Node2</title>
<g id="a_node2"><a xlink:href="../../de/d53/classcommands_1_1_view_command.html#a32c2e34744e1d5c26ad5825a77e24ac1" target="_top" xlink:title="commands.ViewCommand.get\lGridContainer">
<polygon fill="white" stroke="black" points="235,-49 235,-79 399,-79 399,-49 235,-49"/>
<text text-anchor="start" x="243" y="-67" font-family="Helvetica,sans-Serif" font-size="10.00">commands.ViewCommand.get</text>
<text text-anchor="middle" x="317" y="-56" font-family="Helvetica,sans-Serif" font-size="10.00">GridContainer</text>
</a>
</g>
</g>
<!-- Node1&#45;&gt;Node2 -->
<g id="edge1" class="edge"><title>Node1&#45;&gt;Node2</title>
<path fill="none" stroke="midnightblue" d="M185.578,-49.3128C198.489,-50.7668 211.762,-52.2615 224.669,-53.715"/>
<polygon fill="midnightblue" stroke="midnightblue" points="224.599,-57.2291 234.928,-54.8702 225.382,-50.2731 224.599,-57.2291"/>
</g>
<!-- Node3 -->
<g id="node3" class="node"><title>Node3</title>
<g id="a_node3"><a xlink:href="../../d4/d37/classcommands_1_1information_1_1_base_grid_container.html#a7236ecf27bd2b6a6af63209fdb651131" target="_top" xlink:title="commands.information.Base\lGridContainer.updateDisplayOptions">
<polygon fill="white" stroke="black" points="222,-0 222,-30 412,-30 412,-0 222,-0"/>
<text text-anchor="start" x="230" y="-18" font-family="Helvetica,sans-Serif" font-size="10.00">commands.information.Base</text>
<text text-anchor="middle" x="317" y="-7" font-family="Helvetica,sans-Serif" font-size="10.00">GridContainer.updateDisplayOptions</text>
</a>
</g>
</g>
<!-- Node1&#45;&gt;Node3 -->
<g id="edge2" class="edge"><title>Node1&#45;&gt;Node3</title>
<path fill="none" stroke="midnightblue" d="M185.578,-29.0997C194.162,-28.1717 202.907,-27.2263 211.597,-26.2868"/>
<polygon fill="midnightblue" stroke="midnightblue" points="212.196,-29.7426 221.761,-25.1879 211.443,-22.7831 212.196,-29.7426"/>
</g>
</g>
</svg>
