<?xml version="1.0" encoding="UTF-8" standalone="no"?>
<!DOCTYPE svg PUBLIC "-//W3C//DTD SVG 1.1//EN"
 "http://www.w3.org/Graphics/SVG/1.1/DTD/svg11.dtd">
<!-- Generated by graphviz version 2.36.0 (20140111.2315)
 -->
<!-- Title: commands.expressionCommands.OneExpressionCommand.getArgument Pages: 1 -->
<svg width="456pt" height="38pt"
 viewBox="0.00 0.00 456.00 38.00" xmlns="http://www.w3.org/2000/svg" xmlns:xlink="http://www.w3.org/1999/xlink">
<g id="graph0" class="graph" transform="scale(1 1) rotate(0) translate(4 34)">
<title>commands.expressionCommands.OneExpressionCommand.getArgument</title>
<polygon fill="white" stroke="none" points="-4,4 -4,-34 452,-34 452,4 -4,4"/>
<!-- Node1 -->
<g id="node1" class="node"><title>Node1</title>
<polygon fill="#bfbfbf" stroke="black" points="0.5,-0 0.5,-30 205.5,-30 205.5,-0 0.5,-0"/>
<text text-anchor="start" x="8.5" y="-18" font-family="Helvetica,sans-Serif" font-size="10.00">commands.expressionCommands.</text>
<text text-anchor="middle" x="103" y="-7" font-family="Helvetica,sans-Serif" font-size="10.00">OneExpressionCommand.getArgument</text>
</g>
<!-- Node2 -->
<g id="node2" class="node"><title>Node2</title>
<g id="a_node2"><a xlink:href="../../dc/d85/classcommands_1_1expression_commands_1_1_expression_command.html#a2d97de0e940f22eed366f3cc33ad7aa0" target="_top" xlink:title="commands.expressionCommands.\lExpressionCommand.getExpressionList">
<polygon fill="white" stroke="black" points="242,-0 242,-30 448,-30 448,-0 242,-0"/>
<text text-anchor="start" x="250" y="-18" font-family="Helvetica,sans-Serif" font-size="10.00">commands.expressionCommands.</text>
<text text-anchor="middle" x="345" y="-7" font-family="Helvetica,sans-Serif" font-size="10.00">ExpressionCommand.getExpressionList</text>
</a>
</g>
</g>
<!-- Node1&#45;&gt;Node2 -->
<g id="edge1" class="edge"><title>Node1&#45;&gt;Node2</title>
<path fill="none" stroke="midnightblue" d="M205.782,-15C214.321,-15 222.987,-15 231.601,-15"/>
<polygon fill="midnightblue" stroke="midnightblue" points="231.677,-18.5001 241.677,-15 231.677,-11.5001 231.677,-18.5001"/>
</g>
</g>
</svg>
