<?xml version="1.0" encoding="UTF-8" standalone="no"?>
<!DOCTYPE svg PUBLIC "-//W3C//DTD SVG 1.1//EN"
 "http://www.w3.org/Graphics/SVG/1.1/DTD/svg11.dtd">
<!-- Generated by graphviz version 2.36.0 (20140111.2315)
 -->
<!-- Title: GUIFunctions.UserInput Pages: 1 -->
<svg width="268pt" height="84pt"
 viewBox="0.00 0.00 268.00 84.00" xmlns="http://www.w3.org/2000/svg" xmlns:xlink="http://www.w3.org/1999/xlink">
<g id="graph0" class="graph" transform="scale(1 1) rotate(0) translate(4 80)">
<title>GUIFunctions.UserInput</title>
<polygon fill="white" stroke="none" points="-4,4 -4,-80 264,-80 264,4 -4,4"/>
<!-- Node1 -->
<g id="node1" class="node"><title>Node1</title>
<polygon fill="#bfbfbf" stroke="black" points="66,-56.5 66,-75.5 194,-75.5 194,-56.5 66,-56.5"/>
<text text-anchor="middle" x="130" y="-63.5" font-family="Helvetica,sans-Serif" font-size="10.00">GUIFunctions.UserInput</text>
</g>
<!-- Node2 -->
<g id="node2" class="node"><title>Node2</title>
<g id="a_node2"><a xlink:href="../../d8/d97/class_g_u_i_functions_1_1_function.html" target="_top" xlink:title="GUIFunctions.Function">
<polygon fill="white" stroke="black" points="0,-0.5 0,-19.5 122,-19.5 122,-0.5 0,-0.5"/>
<text text-anchor="middle" x="61" y="-7.5" font-family="Helvetica,sans-Serif" font-size="10.00">GUIFunctions.Function</text>
</a>
</g>
</g>
<!-- Node1&#45;&gt;Node2 -->
<g id="edge1" class="edge"><title>Node1&#45;&gt;Node2</title>
<path fill="none" stroke="midnightblue" d="M110.962,-50.1008C98.5442,-40.3824 82.7566,-28.0269 72.2878,-19.8339"/>
<polygon fill="midnightblue" stroke="midnightblue" points="108.882,-52.9171 118.914,-56.324 113.196,-47.4046 108.882,-52.9171"/>
</g>
<!-- Node3 -->
<g id="node3" class="node"><title>Node3</title>
<g id="a_node3"><a xlink:href="../../de/dcf/class_g_u_i_functions_1_1_variable.html" target="_top" xlink:title="GUIFunctions.Variable">
<polygon fill="white" stroke="black" points="140,-0.5 140,-19.5 260,-19.5 260,-0.5 140,-0.5"/>
<text text-anchor="middle" x="200" y="-7.5" font-family="Helvetica,sans-Serif" font-size="10.00">GUIFunctions.Variable</text>
</a>
</g>
</g>
<!-- Node1&#45;&gt;Node3 -->
<g id="edge2" class="edge"><title>Node1&#45;&gt;Node3</title>
<path fill="none" stroke="midnightblue" d="M149.314,-50.1008C161.912,-40.3824 177.928,-28.0269 188.549,-19.8339"/>
<polygon fill="midnightblue" stroke="midnightblue" points="147.027,-47.4446 141.247,-56.324 151.302,-52.9871 147.027,-47.4446"/>
</g>
</g>
</svg>
