<?xml version="1.0" encoding="UTF-8" standalone="no"?>
<!DOCTYPE svg PUBLIC "-//W3C//DTD SVG 1.1//EN"
 "http://www.w3.org/Graphics/SVG/1.1/DTD/svg11.dtd">
<!-- Generated by graphviz version 2.36.0 (20140111.2315)
 -->
<!-- Title: commandParser.LanguageFileParser Pages: 1 -->
<svg width="381pt" height="130pt"
 viewBox="0.00 0.00 381.00 130.00" xmlns="http://www.w3.org/2000/svg" xmlns:xlink="http://www.w3.org/1999/xlink">
<g id="graph0" class="graph" transform="scale(1 1) rotate(0) translate(4 126)">
<title>commandParser.LanguageFileParser</title>
<polygon fill="white" stroke="none" points="-4,4 -4,-126 377,-126 377,4 -4,4"/>
<!-- Node1 -->
<g id="node1" class="node"><title>Node1</title>
<polygon fill="#bfbfbf" stroke="black" points="69,-1 69,-31 229,-31 229,-1 69,-1"/>
<text text-anchor="start" x="77" y="-19" font-family="Helvetica,sans-Serif" font-size="10.00">commandParser.LanguageFile</text>
<text text-anchor="middle" x="149" y="-8" font-family="Helvetica,sans-Serif" font-size="10.00">Parser</text>
</g>
<!-- Node2 -->
<g id="node2" class="node"><title>Node2</title>
<g id="a_node2"><a xlink:href="../../de/df5/classcommand_parser_1_1_properties_file_reader.html" target="_top" xlink:title="commandParser.Properties\lFileReader">
<polygon fill="white" stroke="black" points="0,-91 0,-121 146,-121 146,-91 0,-91"/>
<text text-anchor="start" x="8" y="-109" font-family="Helvetica,sans-Serif" font-size="10.00">commandParser.Properties</text>
<text text-anchor="middle" x="73" y="-98" font-family="Helvetica,sans-Serif" font-size="10.00">FileReader</text>
</a>
</g>
</g>
<!-- Node2&#45;&gt;Node1 -->
<g id="edge1" class="edge"><title>Node2&#45;&gt;Node1</title>
<path fill="none" stroke="midnightblue" d="M92.0668,-82.9227C106.097,-66.6768 124.753,-45.075 136.82,-31.1036"/>
<polygon fill="midnightblue" stroke="midnightblue" points="89.0981,-81.0053 85.2107,-90.8613 94.3958,-85.5807 89.0981,-81.0053"/>
</g>
<!-- Node3 -->
<g id="node3" class="node"><title>Node3</title>
<polygon fill="white" stroke="#bfbfbf" points="164,-96.5 164,-115.5 286,-115.5 286,-96.5 164,-96.5"/>
<text text-anchor="middle" x="225" y="-103.5" font-family="Helvetica,sans-Serif" font-size="10.00">Map&lt; String, String &gt;</text>
</g>
<!-- Node3&#45;&gt;Node1 -->
<g id="edge2" class="edge"><title>Node3&#45;&gt;Node1</title>
<path fill="none" stroke="#9a32cd" stroke-dasharray="5,2" d="M210.74,-88.4879C196.481,-71.9783 174.784,-46.8553 161.271,-31.209"/>
<polygon fill="#9a32cd" stroke="#9a32cd" points="208.25,-90.9599 217.435,-96.2405 213.548,-86.3846 208.25,-90.9599"/>
<text text-anchor="middle" x="284.5" y="-64" font-family="Helvetica,sans-Serif" font-size="10.00"> myPreviousTranslationMap</text>
<text text-anchor="middle" x="284.5" y="-53" font-family="Helvetica,sans-Serif" font-size="10.00">myUserInputToEnglishTranslationMap</text>
</g>
</g>
</svg>
