<?xml version="1.0" encoding="UTF-8" standalone="no"?>
<!DOCTYPE svg PUBLIC "-//W3C//DTD SVG 1.1//EN"
 "http://www.w3.org/Graphics/SVG/1.1/DTD/svg11.dtd">
<!-- Generated by graphviz version 2.36.0 (20140111.2315)
 -->
<!-- Title: commands.turtleCommands.TowardsCommand.onExecute Pages: 1 -->
<svg width="834pt" height="398pt"
 viewBox="0.00 0.00 834.00 398.00" xmlns="http://www.w3.org/2000/svg" xmlns:xlink="http://www.w3.org/1999/xlink">
<g id="graph0" class="graph" transform="scale(1 1) rotate(0) translate(4 394)">
<title>commands.turtleCommands.TowardsCommand.onExecute</title>
<polygon fill="white" stroke="none" points="-4,4 -4,-394 830,-394 830,4 -4,4"/>
<!-- Node1 -->
<g id="node1" class="node"><title>Node1</title>
<polygon fill="#bfbfbf" stroke="black" points="0,-147 0,-177 158,-177 158,-147 0,-147"/>
<text text-anchor="start" x="8" y="-165" font-family="Helvetica,sans-Serif" font-size="10.00">commands.turtleCommands.</text>
<text text-anchor="middle" x="79" y="-154" font-family="Helvetica,sans-Serif" font-size="10.00">TowardsCommand.onExecute</text>
</g>
<!-- Node2 -->
<g id="node2" class="node"><title>Node2</title>
<g id="a_node2"><a xlink:href="../../da/d90/classcommands_1_1_base_command.html#a68a349a085c4b05af0a55943da86598b" target="_top" xlink:title="commands.BaseCommand.execute">
<polygon fill="white" stroke="black" points="194.5,-302.5 194.5,-321.5 383.5,-321.5 383.5,-302.5 194.5,-302.5"/>
<text text-anchor="middle" x="289" y="-309.5" font-family="Helvetica,sans-Serif" font-size="10.00">commands.BaseCommand.execute</text>
</a>
</g>
</g>
<!-- Node1&#45;&gt;Node2 -->
<g id="edge1" class="edge"><title>Node1&#45;&gt;Node2</title>
<path fill="none" stroke="midnightblue" d="M93.1186,-177.118C113.114,-199.462 153.213,-241.609 194,-269 211.85,-280.987 233.581,-291.173 251.651,-298.617"/>
<polygon fill="midnightblue" stroke="midnightblue" points="250.681,-301.999 261.266,-302.465 253.282,-295.5 250.681,-301.999"/>
</g>
<!-- Node6 -->
<g id="node6" class="node"><title>Node6</title>
<g id="a_node6"><a xlink:href="../../d7/d28/classcommands_1_1information_1_1_base_turtle_container.html#a704eca72b47c6a35888f2868beaec2d3" target="_top" xlink:title="commands.information.Base\lTurtleContainer.getActiveTurtles">
<polygon fill="white" stroke="black" points="658.5,-172 658.5,-202 825.5,-202 825.5,-172 658.5,-172"/>
<text text-anchor="start" x="666.5" y="-190" font-family="Helvetica,sans-Serif" font-size="10.00">commands.information.Base</text>
<text text-anchor="middle" x="742" y="-179" font-family="Helvetica,sans-Serif" font-size="10.00">TurtleContainer.getActiveTurtles</text>
</a>
</g>
</g>
<!-- Node1&#45;&gt;Node6 -->
<g id="edge6" class="edge"><title>Node1&#45;&gt;Node6</title>
<path fill="none" stroke="midnightblue" d="M96.6016,-177.065C117.523,-194.931 155.431,-223.709 194,-235 367.985,-285.932 585.326,-234.708 685.602,-204.995"/>
<polygon fill="midnightblue" stroke="midnightblue" points="686.655,-208.333 695.224,-202.102 684.64,-201.629 686.655,-208.333"/>
</g>
<!-- Node7 -->
<g id="node7" class="node"><title>Node7</title>
<g id="a_node7"><a xlink:href="../../d3/d03/classcommands_1_1turtle_commands_1_1_turtle_command.html#af02dda0b6028af7d3db8af04ad3ce800" target="_top" xlink:title="commands.turtleCommands.\lTurtleCommand.getExpressionList">
<polygon fill="white" stroke="black" points="199.5,-196 199.5,-226 378.5,-226 378.5,-196 199.5,-196"/>
<text text-anchor="start" x="207.5" y="-214" font-family="Helvetica,sans-Serif" font-size="10.00">commands.turtleCommands.</text>
<text text-anchor="middle" x="289" y="-203" font-family="Helvetica,sans-Serif" font-size="10.00">TurtleCommand.getExpressionList</text>
</a>
</g>
</g>
<!-- Node1&#45;&gt;Node7 -->
<g id="edge7" class="edge"><title>Node1&#45;&gt;Node7</title>
<path fill="none" stroke="midnightblue" d="M143.82,-177.035C166.182,-182.302 191.471,-188.26 214.557,-193.698"/>
<polygon fill="midnightblue" stroke="midnightblue" points="213.764,-197.107 224.3,-195.994 215.369,-190.294 213.764,-197.107"/>
</g>
<!-- Node8 -->
<g id="node8" class="node"><title>Node8</title>
<g id="a_node8"><a xlink:href="../../d3/d03/classcommands_1_1turtle_commands_1_1_turtle_command.html#ae8d98992e825d4b47ef321fe8c6c63dd" target="_top" xlink:title="commands.turtleCommands.\lTurtleCommand.getGridContainer">
<polygon fill="white" stroke="black" points="200.5,-147 200.5,-177 377.5,-177 377.5,-147 200.5,-147"/>
<text text-anchor="start" x="208.5" y="-165" font-family="Helvetica,sans-Serif" font-size="10.00">commands.turtleCommands.</text>
<text text-anchor="middle" x="289" y="-154" font-family="Helvetica,sans-Serif" font-size="10.00">TurtleCommand.getGridContainer</text>
</a>
</g>
</g>
<!-- Node1&#45;&gt;Node8 -->
<g id="edge8" class="edge"><title>Node1&#45;&gt;Node8</title>
<path fill="none" stroke="midnightblue" d="M158.043,-162C168.526,-162 179.385,-162 190.155,-162"/>
<polygon fill="midnightblue" stroke="midnightblue" points="190.439,-165.5 200.439,-162 190.439,-158.5 190.439,-165.5"/>
</g>
<!-- Node9 -->
<g id="node9" class="node"><title>Node9</title>
<g id="a_node9"><a xlink:href="../../d3/d03/classcommands_1_1turtle_commands_1_1_turtle_command.html#a82f290b3a2e14029a8a525bafa35994f" target="_top" xlink:title="commands.turtleCommands.\lTurtleCommand.getTurtleContainer">
<polygon fill="white" stroke="black" points="197.5,-98 197.5,-128 380.5,-128 380.5,-98 197.5,-98"/>
<text text-anchor="start" x="205.5" y="-116" font-family="Helvetica,sans-Serif" font-size="10.00">commands.turtleCommands.</text>
<text text-anchor="middle" x="289" y="-105" font-family="Helvetica,sans-Serif" font-size="10.00">TurtleCommand.getTurtleContainer</text>
</a>
</g>
</g>
<!-- Node1&#45;&gt;Node9 -->
<g id="edge9" class="edge"><title>Node1&#45;&gt;Node9</title>
<path fill="none" stroke="midnightblue" d="M143.82,-146.965C166.182,-141.698 191.471,-135.74 214.557,-130.302"/>
<polygon fill="midnightblue" stroke="midnightblue" points="215.369,-133.706 224.3,-128.006 213.764,-126.893 215.369,-133.706"/>
</g>
<!-- Node10 -->
<g id="node10" class="node"><title>Node10</title>
<g id="a_node10"><a xlink:href="../../d7/d28/classcommands_1_1information_1_1_base_turtle_container.html#af715aadb5d98b7a0419d923b9c627825" target="_top" xlink:title="commands.information.Base\lTurtleContainer.towardsPosition">
<polygon fill="white" stroke="black" points="206,-49 206,-79 372,-79 372,-49 206,-49"/>
<text text-anchor="start" x="214" y="-67" font-family="Helvetica,sans-Serif" font-size="10.00">commands.information.Base</text>
<text text-anchor="middle" x="289" y="-56" font-family="Helvetica,sans-Serif" font-size="10.00">TurtleContainer.towardsPosition</text>
</a>
</g>
</g>
<!-- Node1&#45;&gt;Node10 -->
<g id="edge10" class="edge"><title>Node1&#45;&gt;Node10</title>
<path fill="none" stroke="midnightblue" d="M99.5201,-146.809C121.411,-130.435 158.51,-104.626 194,-89 199.629,-86.5216 205.559,-84.2424 211.59,-82.1558"/>
<polygon fill="midnightblue" stroke="midnightblue" points="212.709,-85.4726 221.123,-79.0346 210.531,-78.8201 212.709,-85.4726"/>
</g>
<!-- Node13 -->
<g id="node13" class="node"><title>Node13</title>
<g id="a_node13"><a xlink:href="../../d4/d37/classcommands_1_1information_1_1_base_grid_container.html#ae8e4c8b6e12b79c4249c4d7b36c96a70" target="_top" xlink:title="commands.information.Base\lGridContainer.update">
<polygon fill="white" stroke="black" points="211.5,-0 211.5,-30 366.5,-30 366.5,-0 211.5,-0"/>
<text text-anchor="start" x="219.5" y="-18" font-family="Helvetica,sans-Serif" font-size="10.00">commands.information.Base</text>
<text text-anchor="middle" x="289" y="-7" font-family="Helvetica,sans-Serif" font-size="10.00">GridContainer.update</text>
</a>
</g>
</g>
<!-- Node1&#45;&gt;Node13 -->
<g id="edge14" class="edge"><title>Node1&#45;&gt;Node13</title>
<path fill="none" stroke="midnightblue" d="M89.9608,-146.676C107.681,-120.671 147.246,-68.0013 194,-40 197.586,-37.8526 201.357,-35.8867 205.243,-34.0873"/>
<polygon fill="midnightblue" stroke="midnightblue" points="206.639,-37.2974 214.491,-30.184 203.917,-30.8484 206.639,-37.2974"/>
</g>
<!-- Node2&#45;&gt;Node2 -->
<g id="edge2" class="edge"><title>Node2&#45;&gt;Node2</title>
<path fill="none" stroke="midnightblue" d="M256.895,-321.612C240.769,-330.461 251.471,-340 289,-340 316.561,-340 329.653,-334.856 328.277,-328.618"/>
<polygon fill="midnightblue" stroke="midnightblue" points="330.704,-326.096 321.105,-321.612 325.813,-331.104 330.704,-326.096"/>
</g>
<!-- Node3 -->
<g id="node3" class="node"><title>Node3</title>
<g id="a_node3"><a xlink:href="../../da/d90/classcommands_1_1_base_command.html#a90abff4a812d84d0454cb095e03c6e08" target="_top" xlink:title="commands.BaseCommand.get\lNextCommand">
<polygon fill="white" stroke="black" points="437.5,-360 437.5,-390 604.5,-390 604.5,-360 437.5,-360"/>
<text text-anchor="start" x="445.5" y="-378" font-family="Helvetica,sans-Serif" font-size="10.00">commands.BaseCommand.get</text>
<text text-anchor="middle" x="521" y="-367" font-family="Helvetica,sans-Serif" font-size="10.00">NextCommand</text>
</a>
</g>
</g>
<!-- Node2&#45;&gt;Node3 -->
<g id="edge3" class="edge"><title>Node2&#45;&gt;Node3</title>
<path fill="none" stroke="midnightblue" d="M321.425,-321.563C347.693,-329.465 386.184,-340.835 420,-350 429.166,-352.484 438.828,-355.013 448.388,-357.461"/>
<polygon fill="midnightblue" stroke="midnightblue" points="447.734,-360.906 458.288,-359.977 449.459,-354.121 447.734,-360.906"/>
</g>
<!-- Node4 -->
<g id="node4" class="node"><title>Node4</title>
<g id="a_node4"><a xlink:href="../../da/d90/classcommands_1_1_base_command.html#aad4544c0bd9d40769d8997e4d6d97b08" target="_top" xlink:title="commands.BaseCommand.onExecute">
<polygon fill="white" stroke="black" points="420.5,-321.5 420.5,-340.5 621.5,-340.5 621.5,-321.5 420.5,-321.5"/>
<text text-anchor="middle" x="521" y="-328.5" font-family="Helvetica,sans-Serif" font-size="10.00">commands.BaseCommand.onExecute</text>
</a>
</g>
</g>
<!-- Node2&#45;&gt;Node4 -->
<g id="edge4" class="edge"><title>Node2&#45;&gt;Node4</title>
<path fill="none" stroke="midnightblue" d="M383.55,-319.728C392.315,-320.452 401.252,-321.19 410.149,-321.925"/>
<polygon fill="midnightblue" stroke="midnightblue" points="409.91,-325.417 420.164,-322.753 410.486,-318.441 409.91,-325.417"/>
</g>
<!-- Node5 -->
<g id="node5" class="node"><title>Node5</title>
<g id="a_node5"><a xlink:href="../../da/d90/classcommands_1_1_base_command.html#a37ff254bd611b07ea38aaaf85447a2c3" target="_top" xlink:title="commands.BaseCommand.reset">
<polygon fill="white" stroke="black" points="433,-283.5 433,-302.5 609,-302.5 609,-283.5 433,-283.5"/>
<text text-anchor="middle" x="521" y="-290.5" font-family="Helvetica,sans-Serif" font-size="10.00">commands.BaseCommand.reset</text>
</a>
</g>
</g>
<!-- Node2&#45;&gt;Node5 -->
<g id="edge5" class="edge"><title>Node2&#45;&gt;Node5</title>
<path fill="none" stroke="midnightblue" d="M383.55,-304.272C396.405,-303.21 409.632,-302.117 422.555,-301.05"/>
<polygon fill="midnightblue" stroke="midnightblue" points="423.164,-304.512 432.842,-300.2 422.588,-297.535 423.164,-304.512"/>
</g>
<!-- Node11 -->
<g id="node11" class="node"><title>Node11</title>
<g id="a_node11"><a xlink:href="../../d7/d28/classcommands_1_1information_1_1_base_turtle_container.html#ae3f987ec79fb3318d8c3a1c8bd65f67b" target="_top" xlink:title="commands.information.Base\lTurtleContainer.loopOverTurtle">
<polygon fill="white" stroke="black" points="441.5,-84 441.5,-114 600.5,-114 600.5,-84 441.5,-84"/>
<text text-anchor="start" x="449.5" y="-102" font-family="Helvetica,sans-Serif" font-size="10.00">commands.information.Base</text>
<text text-anchor="middle" x="521" y="-91" font-family="Helvetica,sans-Serif" font-size="10.00">TurtleContainer.loopOverTurtle</text>
</a>
</g>
</g>
<!-- Node10&#45;&gt;Node11 -->
<g id="edge11" class="edge"><title>Node10&#45;&gt;Node11</title>
<path fill="none" stroke="midnightblue" d="M372.061,-76.4876C391.287,-79.4132 411.853,-82.5429 431.352,-85.5101"/>
<polygon fill="midnightblue" stroke="midnightblue" points="431.025,-89.0006 441.438,-87.0449 432.079,-82.0803 431.025,-89.0006"/>
</g>
<!-- Node11&#45;&gt;Node6 -->
<g id="edge13" class="edge"><title>Node11&#45;&gt;Node6</title>
<path fill="none" stroke="midnightblue" d="M559.647,-114.128C596.896,-129.095 654.007,-152.044 694.165,-168.181"/>
<polygon fill="midnightblue" stroke="midnightblue" points="692.894,-171.442 703.478,-171.923 695.504,-164.946 692.894,-171.442"/>
</g>
<!-- Node12 -->
<g id="node12" class="node"><title>Node12</title>
<g id="a_node12"><a xlink:href="../../d1/d39/interfacecommands_1_1information_1_1_base_turtle_container_1_1_turtle_action_with_result.html#a5043750fe9ea0b38e426614c999c9d60" target="_top" xlink:title="commands.information.Base\lTurtleContainer.TurtleActionWith\lResult.execute">
<polygon fill="white" stroke="black" points="658.5,-78.5 658.5,-119.5 825.5,-119.5 825.5,-78.5 658.5,-78.5"/>
<text text-anchor="start" x="666.5" y="-107.5" font-family="Helvetica,sans-Serif" font-size="10.00">commands.information.Base</text>
<text text-anchor="start" x="666.5" y="-96.5" font-family="Helvetica,sans-Serif" font-size="10.00">TurtleContainer.TurtleActionWith</text>
<text text-anchor="middle" x="742" y="-85.5" font-family="Helvetica,sans-Serif" font-size="10.00">Result.execute</text>
</a>
</g>
</g>
<!-- Node11&#45;&gt;Node12 -->
<g id="edge12" class="edge"><title>Node11&#45;&gt;Node12</title>
<path fill="none" stroke="midnightblue" d="M600.755,-99C616.045,-99 632.205,-99 647.905,-99"/>
<polygon fill="midnightblue" stroke="midnightblue" points="648.142,-102.5 658.142,-99 648.142,-95.5001 648.142,-102.5"/>
</g>
</g>
</svg>
