<?xml version="1.0" encoding="UTF-8" standalone="no"?>
<!DOCTYPE svg PUBLIC "-//W3C//DTD SVG 1.1//EN"
 "http://www.w3.org/Graphics/SVG/1.1/DTD/svg11.dtd">
<!-- Generated by graphviz version 2.36.0 (20140111.2315)
 -->
<!-- Title: GUIFunctions.BorderStyle Pages: 1 -->
<svg width="334pt" height="136pt"
 viewBox="0.00 0.00 334.00 136.00" xmlns="http://www.w3.org/2000/svg" xmlns:xlink="http://www.w3.org/1999/xlink">
<g id="graph0" class="graph" transform="scale(1 1) rotate(0) translate(4 132)">
<title>GUIFunctions.BorderStyle</title>
<polygon fill="white" stroke="none" points="-4,4 -4,-132 330,-132 330,4 -4,4"/>
<!-- Node1 -->
<g id="node1" class="node"><title>Node1</title>
<polygon fill="#bfbfbf" stroke="black" points="0,-54.5 0,-73.5 138,-73.5 138,-54.5 0,-54.5"/>
<text text-anchor="middle" x="69" y="-61.5" font-family="Helvetica,sans-Serif" font-size="10.00">GUIFunctions.BorderStyle</text>
</g>
<!-- Node2 -->
<g id="node2" class="node"><title>Node2</title>
<g id="a_node2"><a xlink:href="../../da/d08/class_g_u_i_functions_1_1_dashed_border_style.html" target="_top" xlink:title="GUIFunctions.DashedBorder\lStyle">
<polygon fill="white" stroke="black" points="174.5,-98 174.5,-128 325.5,-128 325.5,-98 174.5,-98"/>
<text text-anchor="start" x="182.5" y="-116" font-family="Helvetica,sans-Serif" font-size="10.00">GUIFunctions.DashedBorder</text>
<text text-anchor="middle" x="250" y="-105" font-family="Helvetica,sans-Serif" font-size="10.00">Style</text>
</a>
</g>
</g>
<!-- Node1&#45;&gt;Node2 -->
<g id="edge1" class="edge"><title>Node1&#45;&gt;Node2</title>
<path fill="none" stroke="midnightblue" d="M114.851,-76.2776C138.874,-82.8537 168.666,-91.0092 194.069,-97.963"/>
<polygon fill="midnightblue" stroke="midnightblue" points="115.507,-72.8286 104.938,-73.564 113.659,-79.5802 115.507,-72.8286"/>
</g>
<!-- Node3 -->
<g id="node3" class="node"><title>Node3</title>
<g id="a_node3"><a xlink:href="../../de/d4b/class_g_u_i_functions_1_1_dotted_border_style.html" target="_top" xlink:title="GUIFunctions.DottedBorder\lStyle">
<polygon fill="white" stroke="black" points="176.5,-49 176.5,-79 323.5,-79 323.5,-49 176.5,-49"/>
<text text-anchor="start" x="184.5" y="-67" font-family="Helvetica,sans-Serif" font-size="10.00">GUIFunctions.DottedBorder</text>
<text text-anchor="middle" x="250" y="-56" font-family="Helvetica,sans-Serif" font-size="10.00">Style</text>
</a>
</g>
</g>
<!-- Node1&#45;&gt;Node3 -->
<g id="edge2" class="edge"><title>Node1&#45;&gt;Node3</title>
<path fill="none" stroke="midnightblue" d="M148.207,-64C157.523,-64 167.005,-64 176.24,-64"/>
<polygon fill="midnightblue" stroke="midnightblue" points="148.183,-60.5001 138.183,-64 148.183,-67.5001 148.183,-60.5001"/>
</g>
<!-- Node4 -->
<g id="node4" class="node"><title>Node4</title>
<g id="a_node4"><a xlink:href="../../d6/dbf/class_g_u_i_functions_1_1_solid_border_style.html" target="_top" xlink:title="GUIFunctions.SolidBorder\lStyle">
<polygon fill="white" stroke="black" points="181.5,-0 181.5,-30 318.5,-30 318.5,-0 181.5,-0"/>
<text text-anchor="start" x="189.5" y="-18" font-family="Helvetica,sans-Serif" font-size="10.00">GUIFunctions.SolidBorder</text>
<text text-anchor="middle" x="250" y="-7" font-family="Helvetica,sans-Serif" font-size="10.00">Style</text>
</a>
</g>
</g>
<!-- Node1&#45;&gt;Node4 -->
<g id="edge3" class="edge"><title>Node1&#45;&gt;Node4</title>
<path fill="none" stroke="midnightblue" d="M114.851,-51.7224C138.874,-45.1463 168.666,-36.9908 194.069,-30.037"/>
<polygon fill="midnightblue" stroke="midnightblue" points="113.659,-48.4198 104.938,-54.436 115.507,-55.1714 113.659,-48.4198"/>
</g>
</g>
</svg>
