<?xml version="1.0" encoding="UTF-8" standalone="no"?>
<!DOCTYPE svg PUBLIC "-//W3C//DTD SVG 1.1//EN"
 "http://www.w3.org/Graphics/SVG/1.1/DTD/svg11.dtd">
<!-- Generated by graphviz version 2.36.0 (20140111.2315)
 -->
<!-- Title: View.Pen.changeThickness Pages: 1 -->
<svg width="514pt" height="38pt"
 viewBox="0.00 0.00 514.00 38.00" xmlns="http://www.w3.org/2000/svg" xmlns:xlink="http://www.w3.org/1999/xlink">
<g id="graph0" class="graph" transform="scale(1 1) rotate(0) translate(4 34)">
<title>View.Pen.changeThickness</title>
<polygon fill="white" stroke="none" points="-4,4 -4,-34 510,-34 510,4 -4,4"/>
<!-- Node1 -->
<g id="node1" class="node"><title>Node1</title>
<polygon fill="#bfbfbf" stroke="black" points="0.5,-5.5 0.5,-24.5 143.5,-24.5 143.5,-5.5 0.5,-5.5"/>
<text text-anchor="middle" x="72" y="-12.5" font-family="Helvetica,sans-Serif" font-size="10.00">View.Pen.changeThickness</text>
</g>
<!-- Node2 -->
<g id="node2" class="node"><title>Node2</title>
<g id="a_node2"><a xlink:href="../../df/dcb/classturtle_1_1_turtle.html#acdb478e00ec10ea75ec033bf35d66337" target="_top" xlink:title="turtle.Turtle.setPenWidth">
<polygon fill="white" stroke="black" points="180.5,-5.5 180.5,-24.5 313.5,-24.5 313.5,-5.5 180.5,-5.5"/>
<text text-anchor="middle" x="247" y="-12.5" font-family="Helvetica,sans-Serif" font-size="10.00">turtle.Turtle.setPenWidth</text>
</a>
</g>
</g>
<!-- Node1&#45;&gt;Node2 -->
<g id="edge1" class="edge"><title>Node1&#45;&gt;Node2</title>
<path fill="none" stroke="midnightblue" d="M154.099,-15C162.864,-15 171.704,-15 180.256,-15"/>
<polygon fill="midnightblue" stroke="midnightblue" points="153.865,-11.5001 143.865,-15 153.865,-18.5001 153.865,-11.5001"/>
</g>
<!-- Node3 -->
<g id="node3" class="node"><title>Node3</title>
<g id="a_node3"><a xlink:href="../../d7/d28/classcommands_1_1information_1_1_base_turtle_container.html#ab1f6a293b8c08c3847bed1080cc5cdca" target="_top" xlink:title="commands.information.Base\lTurtleContainer.setPenWidth">
<polygon fill="white" stroke="black" points="350.5,-0 350.5,-30 505.5,-30 505.5,-0 350.5,-0"/>
<text text-anchor="start" x="358.5" y="-18" font-family="Helvetica,sans-Serif" font-size="10.00">commands.information.Base</text>
<text text-anchor="middle" x="428" y="-7" font-family="Helvetica,sans-Serif" font-size="10.00">TurtleContainer.setPenWidth</text>
</a>
</g>
</g>
<!-- Node2&#45;&gt;Node3 -->
<g id="edge2" class="edge"><title>Node2&#45;&gt;Node3</title>
<path fill="none" stroke="midnightblue" d="M323.864,-15C332.665,-15 341.645,-15 350.455,-15"/>
<polygon fill="midnightblue" stroke="midnightblue" points="323.637,-11.5001 313.637,-15 323.637,-18.5001 323.637,-11.5001"/>
</g>
</g>
</svg>
