<?xml version="1.0" encoding="UTF-8" standalone="no"?>
<!DOCTYPE svg PUBLIC "-//W3C//DTD SVG 1.1//EN"
 "http://www.w3.org/Graphics/SVG/1.1/DTD/svg11.dtd">
<!-- Generated by graphviz version 2.36.0 (20140111.2315)
 -->
<!-- Title: View.Pen.setBorderStyle Pages: 1 -->
<svg width="534pt" height="38pt"
 viewBox="0.00 0.00 534.00 38.00" xmlns="http://www.w3.org/2000/svg" xmlns:xlink="http://www.w3.org/1999/xlink">
<g id="graph0" class="graph" transform="scale(1 1) rotate(0) translate(4 34)">
<title>View.Pen.setBorderStyle</title>
<polygon fill="white" stroke="none" points="-4,4 -4,-34 530,-34 530,4 -4,4"/>
<!-- Node1 -->
<g id="node1" class="node"><title>Node1</title>
<polygon fill="#bfbfbf" stroke="black" points="0.5,-5.5 0.5,-24.5 133.5,-24.5 133.5,-5.5 0.5,-5.5"/>
<text text-anchor="middle" x="67" y="-12.5" font-family="Helvetica,sans-Serif" font-size="10.00">View.Pen.setBorderStyle</text>
</g>
<!-- Node2 -->
<g id="node2" class="node"><title>Node2</title>
<g id="a_node2"><a xlink:href="../../df/dcb/classturtle_1_1_turtle.html#ae68ac0a6037cd692976775eb575942d0" target="_top" xlink:title="turtle.Turtle.setPenBorder\lStyle">
<polygon fill="white" stroke="black" points="170.5,-0 170.5,-30 309.5,-30 309.5,-0 170.5,-0"/>
<text text-anchor="start" x="178.5" y="-18" font-family="Helvetica,sans-Serif" font-size="10.00">turtle.Turtle.setPenBorder</text>
<text text-anchor="middle" x="240" y="-7" font-family="Helvetica,sans-Serif" font-size="10.00">Style</text>
</a>
</g>
</g>
<!-- Node1&#45;&gt;Node2 -->
<g id="edge1" class="edge"><title>Node1&#45;&gt;Node2</title>
<path fill="none" stroke="midnightblue" d="M143.906,-15C152.738,-15 161.708,-15 170.433,-15"/>
<polygon fill="midnightblue" stroke="midnightblue" points="143.624,-11.5001 133.624,-15 143.624,-18.5001 143.624,-11.5001"/>
</g>
<!-- Node3 -->
<g id="node3" class="node"><title>Node3</title>
<g id="a_node3"><a xlink:href="../../d7/d28/classcommands_1_1information_1_1_base_turtle_container.html#ac8b4c662283b4cb2d81e15fcdd0230ab" target="_top" xlink:title="commands.information.Base\lTurtleContainer.setPenBorderStyle">
<polygon fill="white" stroke="black" points="346,-0 346,-30 526,-30 526,-0 346,-0"/>
<text text-anchor="start" x="354" y="-18" font-family="Helvetica,sans-Serif" font-size="10.00">commands.information.Base</text>
<text text-anchor="middle" x="436" y="-7" font-family="Helvetica,sans-Serif" font-size="10.00">TurtleContainer.setPenBorderStyle</text>
</a>
</g>
</g>
<!-- Node2&#45;&gt;Node3 -->
<g id="edge2" class="edge"><title>Node2&#45;&gt;Node3</title>
<path fill="none" stroke="midnightblue" d="M319.916,-15C328.409,-15 337.093,-15 345.696,-15"/>
<polygon fill="midnightblue" stroke="midnightblue" points="319.67,-11.5001 309.67,-15 319.67,-18.5001 319.67,-11.5001"/>
</g>
</g>
</svg>
