<?xml version="1.0" encoding="UTF-8" standalone="no"?>
<!DOCTYPE svg PUBLIC "-//W3C//DTD SVG 1.1//EN"
 "http://www.w3.org/Graphics/SVG/1.1/DTD/svg11.dtd">
<!-- Generated by graphviz version 2.36.0 (20140111.2315)
 -->
<!-- Title: View.Pen.undo Pages: 1 -->
<svg width="476pt" height="77pt"
 viewBox="0.00 0.00 476.00 77.00" xmlns="http://www.w3.org/2000/svg" xmlns:xlink="http://www.w3.org/1999/xlink">
<g id="graph0" class="graph" transform="scale(1 1) rotate(0) translate(4 73)">
<title>View.Pen.undo</title>
<polygon fill="white" stroke="none" points="-4,4 -4,-73 472,-73 472,4 -4,4"/>
<!-- Node1 -->
<g id="node1" class="node"><title>Node1</title>
<polygon fill="#bfbfbf" stroke="black" points="0,-22.5 0,-41.5 86,-41.5 86,-22.5 0,-22.5"/>
<text text-anchor="middle" x="43" y="-29.5" font-family="Helvetica,sans-Serif" font-size="10.00">View.Pen.undo</text>
</g>
<!-- Node2 -->
<g id="node2" class="node"><title>Node2</title>
<g id="a_node2"><a xlink:href="../../df/dcb/classturtle_1_1_turtle.html#a394e0b21ab48eb684f1bb454989edaf6" target="_top" xlink:title="turtle.Turtle.penUndo">
<polygon fill="white" stroke="black" points="140.5,-42.5 140.5,-61.5 257.5,-61.5 257.5,-42.5 140.5,-42.5"/>
<text text-anchor="middle" x="199" y="-49.5" font-family="Helvetica,sans-Serif" font-size="10.00">turtle.Turtle.penUndo</text>
</a>
</g>
</g>
<!-- Node1&#45;&gt;Node2 -->
<g id="edge1" class="edge"><title>Node1&#45;&gt;Node2</title>
<path fill="none" stroke="midnightblue" d="M96.1789,-38.7765C110.397,-40.623 125.88,-42.6338 140.382,-44.5172"/>
<polygon fill="midnightblue" stroke="midnightblue" points="96.4487,-35.2822 86.0812,-37.4651 95.5471,-42.2239 96.4487,-35.2822"/>
</g>
<!-- Node4 -->
<g id="node4" class="node"><title>Node4</title>
<g id="a_node4"><a xlink:href="../../d1/de7/class_g_u_i_functions_1_1_undo.html#abc375040abaf5731ac96ef7d7c02aa24" target="_top" xlink:title="GUIFunctions.Undo.undoLine">
<polygon fill="white" stroke="black" points="122,-3.5 122,-22.5 276,-22.5 276,-3.5 122,-3.5"/>
<text text-anchor="middle" x="199" y="-10.5" font-family="Helvetica,sans-Serif" font-size="10.00">GUIFunctions.Undo.undoLine</text>
</a>
</g>
</g>
<!-- Node1&#45;&gt;Node4 -->
<g id="edge3" class="edge"><title>Node1&#45;&gt;Node4</title>
<path fill="none" stroke="midnightblue" d="M96.0138,-25.5827C104.36,-24.5529 113.146,-23.469 121.916,-22.3869"/>
<polygon fill="midnightblue" stroke="midnightblue" points="95.5773,-22.1099 86.0812,-26.8082 96.4345,-29.0573 95.5773,-22.1099"/>
</g>
<!-- Node3 -->
<g id="node3" class="node"><title>Node3</title>
<g id="a_node3"><a xlink:href="../../d7/d28/classcommands_1_1information_1_1_base_turtle_container.html#a55afe0fc58417bc135b159e944101fc4" target="_top" xlink:title="commands.information.Base\lTurtleContainer.penUndo">
<polygon fill="white" stroke="black" points="312.5,-39 312.5,-69 467.5,-69 467.5,-39 312.5,-39"/>
<text text-anchor="start" x="320.5" y="-57" font-family="Helvetica,sans-Serif" font-size="10.00">commands.information.Base</text>
<text text-anchor="middle" x="390" y="-46" font-family="Helvetica,sans-Serif" font-size="10.00">TurtleContainer.penUndo</text>
</a>
</g>
</g>
<!-- Node2&#45;&gt;Node3 -->
<g id="edge2" class="edge"><title>Node2&#45;&gt;Node3</title>
<path fill="none" stroke="midnightblue" d="M268.047,-52.7201C282.458,-52.8726 297.762,-53.0345 312.463,-53.1901"/>
<polygon fill="midnightblue" stroke="midnightblue" points="267.77,-49.217 257.733,-52.6109 267.696,-56.2166 267.77,-49.217"/>
</g>
<!-- Node5 -->
<g id="node5" class="node"><title>Node5</title>
<g id="a_node5"><a xlink:href="../../d1/de7/class_g_u_i_functions_1_1_undo.html#a611c153735c5cbdbbfd8f55faa0adaae" target="_top" xlink:title="GUIFunctions.Undo.doAction">
<polygon fill="white" stroke="black" points="314,-0.5 314,-19.5 466,-19.5 466,-0.5 314,-0.5"/>
<text text-anchor="middle" x="390" y="-7.5" font-family="Helvetica,sans-Serif" font-size="10.00">GUIFunctions.Undo.doAction</text>
</a>
</g>
</g>
<!-- Node4&#45;&gt;Node5 -->
<g id="edge4" class="edge"><title>Node4&#45;&gt;Node5</title>
<path fill="none" stroke="midnightblue" d="M286.318,-11.6299C295.463,-11.4847 304.71,-11.3379 313.714,-11.195"/>
<polygon fill="midnightblue" stroke="midnightblue" points="286,-8.13439 276.057,-11.7928 286.111,-15.1335 286,-8.13439"/>
</g>
</g>
</svg>
