<?xml version="1.0" encoding="UTF-8" standalone="no"?>
<!DOCTYPE svg PUBLIC "-//W3C//DTD SVG 1.1//EN"
 "http://www.w3.org/Graphics/SVG/1.1/DTD/svg11.dtd">
<!-- Generated by graphviz version 2.36.0 (20140111.2315)
 -->
<!-- Title: View.Pen.drawLine Pages: 1 -->
<svg width="1378pt" height="126pt"
 viewBox="0.00 0.00 1378.00 126.00" xmlns="http://www.w3.org/2000/svg" xmlns:xlink="http://www.w3.org/1999/xlink">
<g id="graph0" class="graph" transform="scale(1 1) rotate(0) translate(4 122)">
<title>View.Pen.drawLine</title>
<polygon fill="white" stroke="none" points="-4,4 -4,-122 1374,-122 1374,4 -4,4"/>
<!-- Node1 -->
<g id="node1" class="node"><title>Node1</title>
<polygon fill="#bfbfbf" stroke="black" points="0,-32.5 0,-51.5 104,-51.5 104,-32.5 0,-32.5"/>
<text text-anchor="middle" x="52" y="-39.5" font-family="Helvetica,sans-Serif" font-size="10.00">View.Pen.drawLine</text>
</g>
<!-- Node2 -->
<g id="node2" class="node"><title>Node2</title>
<g id="a_node2"><a xlink:href="../../d9/db1/class_view_1_1_single_grid.html#a9093eac50d88370f86cb4757b996210e" target="_top" xlink:title="View.SingleGrid.keepTurtle\lInBounds">
<polygon fill="white" stroke="black" points="140.5,-27 140.5,-57 281.5,-57 281.5,-27 140.5,-27"/>
<text text-anchor="start" x="148.5" y="-45" font-family="Helvetica,sans-Serif" font-size="10.00">View.SingleGrid.keepTurtle</text>
<text text-anchor="middle" x="211" y="-34" font-family="Helvetica,sans-Serif" font-size="10.00">InBounds</text>
</a>
</g>
</g>
<!-- Node1&#45;&gt;Node2 -->
<g id="edge1" class="edge"><title>Node1&#45;&gt;Node2</title>
<path fill="none" stroke="midnightblue" d="M114.526,-42C122.956,-42 131.66,-42 140.223,-42"/>
<polygon fill="midnightblue" stroke="midnightblue" points="114.408,-38.5001 104.408,-42 114.408,-45.5001 114.408,-38.5001"/>
</g>
<!-- Node3 -->
<g id="node3" class="node"><title>Node3</title>
<g id="a_node3"><a xlink:href="../../d9/db1/class_view_1_1_single_grid.html#aa718e560e84ad31be3e046029d0226ab" target="_top" xlink:title="View.SingleGrid.update">
<polygon fill="white" stroke="black" points="327,-54.5 327,-73.5 453,-73.5 453,-54.5 327,-54.5"/>
<text text-anchor="middle" x="390" y="-61.5" font-family="Helvetica,sans-Serif" font-size="10.00">View.SingleGrid.update</text>
</a>
</g>
</g>
<!-- Node2&#45;&gt;Node3 -->
<g id="edge2" class="edge"><title>Node2&#45;&gt;Node3</title>
<path fill="none" stroke="midnightblue" d="M291.921,-51.9337C303.633,-53.3895 315.548,-54.8704 326.835,-56.2732"/>
<polygon fill="midnightblue" stroke="midnightblue" points="292.056,-48.4237 281.701,-50.6634 291.193,-55.3702 292.056,-48.4237"/>
</g>
<!-- Node8 -->
<g id="node8" class="node"><title>Node8</title>
<g id="a_node8"><a xlink:href="../../d9/db1/class_view_1_1_single_grid.html#a4c6eabf92c3205a22dc266cf0923f836" target="_top" xlink:title="View.SingleGrid.keyUpdate">
<polygon fill="white" stroke="black" points="318,-11.5 318,-30.5 462,-30.5 462,-11.5 318,-11.5"/>
<text text-anchor="middle" x="390" y="-18.5" font-family="Helvetica,sans-Serif" font-size="10.00">View.SingleGrid.keyUpdate</text>
</a>
</g>
</g>
<!-- Node2&#45;&gt;Node8 -->
<g id="edge7" class="edge"><title>Node2&#45;&gt;Node8</title>
<path fill="none" stroke="midnightblue" d="M291.833,-32.5282C300.526,-31.4969 309.331,-30.4522 317.909,-29.4345"/>
<polygon fill="midnightblue" stroke="midnightblue" points="291.219,-29.0765 281.701,-33.7304 292.044,-36.0277 291.219,-29.0765"/>
</g>
<!-- Node4 -->
<g id="node4" class="node"><title>Node4</title>
<g id="a_node4"><a xlink:href="../../d1/de7/class_g_u_i_functions_1_1_undo.html#a611c153735c5cbdbbfd8f55faa0adaae" target="_top" xlink:title="GUIFunctions.Undo.doAction">
<polygon fill="white" stroke="black" points="506,-98.5 506,-117.5 658,-117.5 658,-98.5 506,-98.5"/>
<text text-anchor="middle" x="582" y="-105.5" font-family="Helvetica,sans-Serif" font-size="10.00">GUIFunctions.Undo.doAction</text>
</a>
</g>
</g>
<!-- Node3&#45;&gt;Node4 -->
<g id="edge3" class="edge"><title>Node3&#45;&gt;Node4</title>
<path fill="none" stroke="midnightblue" d="M442.285,-75.8764C472.891,-82.9642 511.239,-91.8448 539.853,-98.4713"/>
<polygon fill="midnightblue" stroke="midnightblue" points="442.759,-72.3937 432.227,-73.5473 441.18,-79.2133 442.759,-72.3937"/>
</g>
<!-- Node5 -->
<g id="node5" class="node"><title>Node5</title>
<g id="a_node5"><a xlink:href="../../d3/d42/class_table_information_1_1_turtle_variables_table.html#a12ef059be78468fe0f09b5bf41d11d4c" target="_top" xlink:title="TableInformation.TurtleVariables\lTable.moveTurtle">
<polygon fill="white" stroke="black" points="498.5,-49 498.5,-79 665.5,-79 665.5,-49 498.5,-49"/>
<text text-anchor="start" x="506.5" y="-67" font-family="Helvetica,sans-Serif" font-size="10.00">TableInformation.TurtleVariables</text>
<text text-anchor="middle" x="582" y="-56" font-family="Helvetica,sans-Serif" font-size="10.00">Table.moveTurtle</text>
</a>
</g>
</g>
<!-- Node3&#45;&gt;Node5 -->
<g id="edge4" class="edge"><title>Node3&#45;&gt;Node5</title>
<path fill="none" stroke="midnightblue" d="M463.502,-64C474.868,-64 486.689,-64 498.263,-64"/>
<polygon fill="midnightblue" stroke="midnightblue" points="463.213,-60.5001 453.213,-64 463.213,-67.5001 463.213,-60.5001"/>
</g>
<!-- Node6 -->
<g id="node6" class="node"><title>Node6</title>
<g id="a_node6"><a xlink:href="../../d3/d42/class_table_information_1_1_turtle_variables_table.html#a3a32e6fd761411925b48c0fa60c29431" target="_top" xlink:title="TableInformation.TurtleVariables\lTable.setColumnEditable">
<polygon fill="white" stroke="black" points="702.5,-49 702.5,-79 869.5,-79 869.5,-49 702.5,-49"/>
<text text-anchor="start" x="710.5" y="-67" font-family="Helvetica,sans-Serif" font-size="10.00">TableInformation.TurtleVariables</text>
<text text-anchor="middle" x="786" y="-56" font-family="Helvetica,sans-Serif" font-size="10.00">Table.setColumnEditable</text>
</a>
</g>
</g>
<!-- Node5&#45;&gt;Node6 -->
<g id="edge5" class="edge"><title>Node5&#45;&gt;Node6</title>
<path fill="none" stroke="midnightblue" d="M676.018,-64C684.815,-64 693.694,-64 702.385,-64"/>
<polygon fill="midnightblue" stroke="midnightblue" points="675.744,-60.5001 665.744,-64 675.744,-67.5001 675.744,-60.5001"/>
</g>
<!-- Node7 -->
<g id="node7" class="node"><title>Node7</title>
<g id="a_node7"><a xlink:href="../../d3/d42/class_table_information_1_1_turtle_variables_table.html#a6bac7fbbffde239e6438ea163f812b08" target="_top" xlink:title="TableInformation.TurtleVariables\lTable.TurtleVariablesTable">
<polygon fill="white" stroke="black" points="906.5,-49 906.5,-79 1073.5,-79 1073.5,-49 906.5,-49"/>
<text text-anchor="start" x="914.5" y="-67" font-family="Helvetica,sans-Serif" font-size="10.00">TableInformation.TurtleVariables</text>
<text text-anchor="middle" x="990" y="-56" font-family="Helvetica,sans-Serif" font-size="10.00">Table.TurtleVariablesTable</text>
</a>
</g>
</g>
<!-- Node6&#45;&gt;Node7 -->
<g id="edge6" class="edge"><title>Node6&#45;&gt;Node7</title>
<path fill="none" stroke="midnightblue" d="M880.018,-64C888.815,-64 897.694,-64 906.385,-64"/>
<polygon fill="midnightblue" stroke="midnightblue" points="879.744,-60.5001 869.744,-64 879.744,-67.5001 879.744,-60.5001"/>
</g>
<!-- Node9 -->
<g id="node9" class="node"><title>Node9</title>
<g id="a_node9"><a xlink:href="../../d5/d30/class_view_1_1_tabs_of_grids.html#addda546d87ab37b3c6d812b33c0118c9" target="_top" xlink:title="View.TabsOfGrids.setUpKey\lBoardHandler">
<polygon fill="white" stroke="black" points="509.5,-0 509.5,-30 654.5,-30 654.5,-0 509.5,-0"/>
<text text-anchor="start" x="517.5" y="-18" font-family="Helvetica,sans-Serif" font-size="10.00">View.TabsOfGrids.setUpKey</text>
<text text-anchor="middle" x="582" y="-7" font-family="Helvetica,sans-Serif" font-size="10.00">BoardHandler</text>
</a>
</g>
</g>
<!-- Node8&#45;&gt;Node9 -->
<g id="edge8" class="edge"><title>Node8&#45;&gt;Node9</title>
<path fill="none" stroke="midnightblue" d="M472.299,-18.4327C484.648,-18.0427 497.313,-17.6428 509.434,-17.26"/>
<polygon fill="midnightblue" stroke="midnightblue" points="471.904,-14.9433 462.019,-18.7573 472.125,-21.9398 471.904,-14.9433"/>
</g>
<!-- Node10 -->
<g id="node10" class="node"><title>Node10</title>
<g id="a_node10"><a xlink:href="../../d5/d30/class_view_1_1_tabs_of_grids.html#aa186cd880ee36327ffc0d66951a23fb5" target="_top" xlink:title="View.TabsOfGrids.addTab">
<polygon fill="white" stroke="black" points="719,-5.5 719,-24.5 853,-24.5 853,-5.5 719,-5.5"/>
<text text-anchor="middle" x="786" y="-12.5" font-family="Helvetica,sans-Serif" font-size="10.00">View.TabsOfGrids.addTab</text>
</a>
</g>
</g>
<!-- Node9&#45;&gt;Node10 -->
<g id="edge9" class="edge"><title>Node9&#45;&gt;Node10</title>
<path fill="none" stroke="midnightblue" d="M664.717,-15C682.764,-15 701.664,-15 718.996,-15"/>
<polygon fill="midnightblue" stroke="midnightblue" points="664.502,-11.5001 654.502,-15 664.502,-18.5001 664.502,-11.5001"/>
</g>
<!-- Node11 -->
<g id="node11" class="node"><title>Node11</title>
<g id="a_node11"><a xlink:href="../../d6/d33/class_view_1_1_slogo_view.html#a5759fa529a24ab1e80d37348f3dd395b" target="_top" xlink:title="View.SlogoView.addGrid">
<polygon fill="white" stroke="black" points="925.5,-5.5 925.5,-24.5 1054.5,-24.5 1054.5,-5.5 925.5,-5.5"/>
<text text-anchor="middle" x="990" y="-12.5" font-family="Helvetica,sans-Serif" font-size="10.00">View.SlogoView.addGrid</text>
</a>
</g>
</g>
<!-- Node10&#45;&gt;Node11 -->
<g id="edge10" class="edge"><title>Node10&#45;&gt;Node11</title>
<path fill="none" stroke="midnightblue" d="M863.378,-15C883.852,-15 905.762,-15 925.458,-15"/>
<polygon fill="midnightblue" stroke="midnightblue" points="863.142,-11.5001 853.142,-15 863.142,-18.5001 863.142,-11.5001"/>
</g>
<!-- Node12 -->
<g id="node12" class="node"><title>Node12</title>
<g id="a_node12"><a xlink:href="../../d6/d33/class_view_1_1_slogo_view.html#acfeff052503655d2ac419d2bf4ea9bd5" target="_top" xlink:title="View.SlogoView.initialize">
<polygon fill="white" stroke="black" points="1110,-5.5 1110,-24.5 1240,-24.5 1240,-5.5 1110,-5.5"/>
<text text-anchor="middle" x="1175" y="-12.5" font-family="Helvetica,sans-Serif" font-size="10.00">View.SlogoView.initialize</text>
</a>
</g>
</g>
<!-- Node11&#45;&gt;Node12 -->
<g id="edge11" class="edge"><title>Node11&#45;&gt;Node12</title>
<path fill="none" stroke="midnightblue" d="M1064.93,-15C1079.81,-15 1095.34,-15 1109.86,-15"/>
<polygon fill="midnightblue" stroke="midnightblue" points="1064.75,-11.5001 1054.75,-15 1064.75,-18.5001 1064.75,-11.5001"/>
</g>
<!-- Node13 -->
<g id="node13" class="node"><title>Node13</title>
<g id="a_node13"><a xlink:href="../../db/d27/class_view_1_1_slogo.html#a6ab76a53160b61d8501aec91c55b85c8" target="_top" xlink:title="View.Slogo.start">
<polygon fill="white" stroke="black" points="1276.5,-5.5 1276.5,-24.5 1369.5,-24.5 1369.5,-5.5 1276.5,-5.5"/>
<text text-anchor="middle" x="1323" y="-12.5" font-family="Helvetica,sans-Serif" font-size="10.00">View.Slogo.start</text>
</a>
</g>
</g>
<!-- Node12&#45;&gt;Node13 -->
<g id="edge12" class="edge"><title>Node12&#45;&gt;Node13</title>
<path fill="none" stroke="midnightblue" d="M1250.14,-15C1259.11,-15 1268.05,-15 1276.43,-15"/>
<polygon fill="midnightblue" stroke="midnightblue" points="1250.04,-11.5001 1240.04,-15 1250.04,-18.5001 1250.04,-11.5001"/>
</g>
</g>
</svg>
