<?xml version="1.0" encoding="UTF-8" standalone="no"?>
<!DOCTYPE svg PUBLIC "-//W3C//DTD SVG 1.1//EN"
 "http://www.w3.org/Graphics/SVG/1.1/DTD/svg11.dtd">
<!-- Generated by graphviz version 2.36.0 (20140111.2315)
 -->
<!-- Title: View.Pen.getPenDown Pages: 1 -->
<svg width="1396pt" height="126pt"
 viewBox="0.00 0.00 1396.00 126.00" xmlns="http://www.w3.org/2000/svg" xmlns:xlink="http://www.w3.org/1999/xlink">
<g id="graph0" class="graph" transform="scale(1 1) rotate(0) translate(4 122)">
<title>View.Pen.getPenDown</title>
<polygon fill="white" stroke="none" points="-4,4 -4,-122 1392,-122 1392,4 -4,4"/>
<!-- Node1 -->
<g id="node1" class="node"><title>Node1</title>
<polygon fill="#bfbfbf" stroke="black" points="0,-32.5 0,-51.5 122,-51.5 122,-32.5 0,-32.5"/>
<text text-anchor="middle" x="61" y="-39.5" font-family="Helvetica,sans-Serif" font-size="10.00">View.Pen.getPenDown</text>
</g>
<!-- Node2 -->
<g id="node2" class="node"><title>Node2</title>
<g id="a_node2"><a xlink:href="../../d9/db1/class_view_1_1_single_grid.html#a9093eac50d88370f86cb4757b996210e" target="_top" xlink:title="View.SingleGrid.keepTurtle\lInBounds">
<polygon fill="white" stroke="black" points="158.5,-27 158.5,-57 299.5,-57 299.5,-27 158.5,-27"/>
<text text-anchor="start" x="166.5" y="-45" font-family="Helvetica,sans-Serif" font-size="10.00">View.SingleGrid.keepTurtle</text>
<text text-anchor="middle" x="229" y="-34" font-family="Helvetica,sans-Serif" font-size="10.00">InBounds</text>
</a>
</g>
</g>
<!-- Node1&#45;&gt;Node2 -->
<g id="edge1" class="edge"><title>Node1&#45;&gt;Node2</title>
<path fill="none" stroke="midnightblue" d="M132.666,-42C141.175,-42 149.86,-42 158.355,-42"/>
<polygon fill="midnightblue" stroke="midnightblue" points="132.399,-38.5001 122.399,-42 132.399,-45.5001 132.399,-38.5001"/>
</g>
<!-- Node3 -->
<g id="node3" class="node"><title>Node3</title>
<g id="a_node3"><a xlink:href="../../d9/db1/class_view_1_1_single_grid.html#aa718e560e84ad31be3e046029d0226ab" target="_top" xlink:title="View.SingleGrid.update">
<polygon fill="white" stroke="black" points="345,-54.5 345,-73.5 471,-73.5 471,-54.5 345,-54.5"/>
<text text-anchor="middle" x="408" y="-61.5" font-family="Helvetica,sans-Serif" font-size="10.00">View.SingleGrid.update</text>
</a>
</g>
</g>
<!-- Node2&#45;&gt;Node3 -->
<g id="edge2" class="edge"><title>Node2&#45;&gt;Node3</title>
<path fill="none" stroke="midnightblue" d="M309.921,-51.9337C321.633,-53.3895 333.548,-54.8704 344.835,-56.2732"/>
<polygon fill="midnightblue" stroke="midnightblue" points="310.056,-48.4237 299.701,-50.6634 309.193,-55.3702 310.056,-48.4237"/>
</g>
<!-- Node8 -->
<g id="node8" class="node"><title>Node8</title>
<g id="a_node8"><a xlink:href="../../d9/db1/class_view_1_1_single_grid.html#a4c6eabf92c3205a22dc266cf0923f836" target="_top" xlink:title="View.SingleGrid.keyUpdate">
<polygon fill="white" stroke="black" points="336,-11.5 336,-30.5 480,-30.5 480,-11.5 336,-11.5"/>
<text text-anchor="middle" x="408" y="-18.5" font-family="Helvetica,sans-Serif" font-size="10.00">View.SingleGrid.keyUpdate</text>
</a>
</g>
</g>
<!-- Node2&#45;&gt;Node8 -->
<g id="edge7" class="edge"><title>Node2&#45;&gt;Node8</title>
<path fill="none" stroke="midnightblue" d="M309.833,-32.5282C318.526,-31.4969 327.331,-30.4522 335.909,-29.4345"/>
<polygon fill="midnightblue" stroke="midnightblue" points="309.219,-29.0765 299.701,-33.7304 310.044,-36.0277 309.219,-29.0765"/>
</g>
<!-- Node4 -->
<g id="node4" class="node"><title>Node4</title>
<g id="a_node4"><a xlink:href="../../d1/de7/class_g_u_i_functions_1_1_undo.html#a611c153735c5cbdbbfd8f55faa0adaae" target="_top" xlink:title="GUIFunctions.Undo.doAction">
<polygon fill="white" stroke="black" points="524,-98.5 524,-117.5 676,-117.5 676,-98.5 524,-98.5"/>
<text text-anchor="middle" x="600" y="-105.5" font-family="Helvetica,sans-Serif" font-size="10.00">GUIFunctions.Undo.doAction</text>
</a>
</g>
</g>
<!-- Node3&#45;&gt;Node4 -->
<g id="edge3" class="edge"><title>Node3&#45;&gt;Node4</title>
<path fill="none" stroke="midnightblue" d="M460.285,-75.8764C490.891,-82.9642 529.239,-91.8448 557.853,-98.4713"/>
<polygon fill="midnightblue" stroke="midnightblue" points="460.759,-72.3937 450.227,-73.5473 459.18,-79.2133 460.759,-72.3937"/>
</g>
<!-- Node5 -->
<g id="node5" class="node"><title>Node5</title>
<g id="a_node5"><a xlink:href="../../d3/d42/class_table_information_1_1_turtle_variables_table.html#a12ef059be78468fe0f09b5bf41d11d4c" target="_top" xlink:title="TableInformation.TurtleVariables\lTable.moveTurtle">
<polygon fill="white" stroke="black" points="516.5,-49 516.5,-79 683.5,-79 683.5,-49 516.5,-49"/>
<text text-anchor="start" x="524.5" y="-67" font-family="Helvetica,sans-Serif" font-size="10.00">TableInformation.TurtleVariables</text>
<text text-anchor="middle" x="600" y="-56" font-family="Helvetica,sans-Serif" font-size="10.00">Table.moveTurtle</text>
</a>
</g>
</g>
<!-- Node3&#45;&gt;Node5 -->
<g id="edge4" class="edge"><title>Node3&#45;&gt;Node5</title>
<path fill="none" stroke="midnightblue" d="M481.502,-64C492.868,-64 504.689,-64 516.263,-64"/>
<polygon fill="midnightblue" stroke="midnightblue" points="481.213,-60.5001 471.213,-64 481.213,-67.5001 481.213,-60.5001"/>
</g>
<!-- Node6 -->
<g id="node6" class="node"><title>Node6</title>
<g id="a_node6"><a xlink:href="../../d3/d42/class_table_information_1_1_turtle_variables_table.html#a3a32e6fd761411925b48c0fa60c29431" target="_top" xlink:title="TableInformation.TurtleVariables\lTable.setColumnEditable">
<polygon fill="white" stroke="black" points="720.5,-49 720.5,-79 887.5,-79 887.5,-49 720.5,-49"/>
<text text-anchor="start" x="728.5" y="-67" font-family="Helvetica,sans-Serif" font-size="10.00">TableInformation.TurtleVariables</text>
<text text-anchor="middle" x="804" y="-56" font-family="Helvetica,sans-Serif" font-size="10.00">Table.setColumnEditable</text>
</a>
</g>
</g>
<!-- Node5&#45;&gt;Node6 -->
<g id="edge5" class="edge"><title>Node5&#45;&gt;Node6</title>
<path fill="none" stroke="midnightblue" d="M694.018,-64C702.815,-64 711.694,-64 720.385,-64"/>
<polygon fill="midnightblue" stroke="midnightblue" points="693.744,-60.5001 683.744,-64 693.744,-67.5001 693.744,-60.5001"/>
</g>
<!-- Node7 -->
<g id="node7" class="node"><title>Node7</title>
<g id="a_node7"><a xlink:href="../../d3/d42/class_table_information_1_1_turtle_variables_table.html#a6bac7fbbffde239e6438ea163f812b08" target="_top" xlink:title="TableInformation.TurtleVariables\lTable.TurtleVariablesTable">
<polygon fill="white" stroke="black" points="924.5,-49 924.5,-79 1091.5,-79 1091.5,-49 924.5,-49"/>
<text text-anchor="start" x="932.5" y="-67" font-family="Helvetica,sans-Serif" font-size="10.00">TableInformation.TurtleVariables</text>
<text text-anchor="middle" x="1008" y="-56" font-family="Helvetica,sans-Serif" font-size="10.00">Table.TurtleVariablesTable</text>
</a>
</g>
</g>
<!-- Node6&#45;&gt;Node7 -->
<g id="edge6" class="edge"><title>Node6&#45;&gt;Node7</title>
<path fill="none" stroke="midnightblue" d="M898.018,-64C906.815,-64 915.694,-64 924.385,-64"/>
<polygon fill="midnightblue" stroke="midnightblue" points="897.744,-60.5001 887.744,-64 897.744,-67.5001 897.744,-60.5001"/>
</g>
<!-- Node9 -->
<g id="node9" class="node"><title>Node9</title>
<g id="a_node9"><a xlink:href="../../d5/d30/class_view_1_1_tabs_of_grids.html#addda546d87ab37b3c6d812b33c0118c9" target="_top" xlink:title="View.TabsOfGrids.setUpKey\lBoardHandler">
<polygon fill="white" stroke="black" points="527.5,-0 527.5,-30 672.5,-30 672.5,-0 527.5,-0"/>
<text text-anchor="start" x="535.5" y="-18" font-family="Helvetica,sans-Serif" font-size="10.00">View.TabsOfGrids.setUpKey</text>
<text text-anchor="middle" x="600" y="-7" font-family="Helvetica,sans-Serif" font-size="10.00">BoardHandler</text>
</a>
</g>
</g>
<!-- Node8&#45;&gt;Node9 -->
<g id="edge8" class="edge"><title>Node8&#45;&gt;Node9</title>
<path fill="none" stroke="midnightblue" d="M490.299,-18.4327C502.648,-18.0427 515.313,-17.6428 527.434,-17.26"/>
<polygon fill="midnightblue" stroke="midnightblue" points="489.904,-14.9433 480.019,-18.7573 490.125,-21.9398 489.904,-14.9433"/>
</g>
<!-- Node10 -->
<g id="node10" class="node"><title>Node10</title>
<g id="a_node10"><a xlink:href="../../d5/d30/class_view_1_1_tabs_of_grids.html#aa186cd880ee36327ffc0d66951a23fb5" target="_top" xlink:title="View.TabsOfGrids.addTab">
<polygon fill="white" stroke="black" points="737,-5.5 737,-24.5 871,-24.5 871,-5.5 737,-5.5"/>
<text text-anchor="middle" x="804" y="-12.5" font-family="Helvetica,sans-Serif" font-size="10.00">View.TabsOfGrids.addTab</text>
</a>
</g>
</g>
<!-- Node9&#45;&gt;Node10 -->
<g id="edge9" class="edge"><title>Node9&#45;&gt;Node10</title>
<path fill="none" stroke="midnightblue" d="M682.717,-15C700.764,-15 719.664,-15 736.996,-15"/>
<polygon fill="midnightblue" stroke="midnightblue" points="682.502,-11.5001 672.502,-15 682.502,-18.5001 682.502,-11.5001"/>
</g>
<!-- Node11 -->
<g id="node11" class="node"><title>Node11</title>
<g id="a_node11"><a xlink:href="../../d6/d33/class_view_1_1_slogo_view.html#a5759fa529a24ab1e80d37348f3dd395b" target="_top" xlink:title="View.SlogoView.addGrid">
<polygon fill="white" stroke="black" points="943.5,-5.5 943.5,-24.5 1072.5,-24.5 1072.5,-5.5 943.5,-5.5"/>
<text text-anchor="middle" x="1008" y="-12.5" font-family="Helvetica,sans-Serif" font-size="10.00">View.SlogoView.addGrid</text>
</a>
</g>
</g>
<!-- Node10&#45;&gt;Node11 -->
<g id="edge10" class="edge"><title>Node10&#45;&gt;Node11</title>
<path fill="none" stroke="midnightblue" d="M881.378,-15C901.852,-15 923.762,-15 943.458,-15"/>
<polygon fill="midnightblue" stroke="midnightblue" points="881.142,-11.5001 871.142,-15 881.142,-18.5001 881.142,-11.5001"/>
</g>
<!-- Node12 -->
<g id="node12" class="node"><title>Node12</title>
<g id="a_node12"><a xlink:href="../../d6/d33/class_view_1_1_slogo_view.html#acfeff052503655d2ac419d2bf4ea9bd5" target="_top" xlink:title="View.SlogoView.initialize">
<polygon fill="white" stroke="black" points="1128,-5.5 1128,-24.5 1258,-24.5 1258,-5.5 1128,-5.5"/>
<text text-anchor="middle" x="1193" y="-12.5" font-family="Helvetica,sans-Serif" font-size="10.00">View.SlogoView.initialize</text>
</a>
</g>
</g>
<!-- Node11&#45;&gt;Node12 -->
<g id="edge11" class="edge"><title>Node11&#45;&gt;Node12</title>
<path fill="none" stroke="midnightblue" d="M1082.93,-15C1097.81,-15 1113.34,-15 1127.86,-15"/>
<polygon fill="midnightblue" stroke="midnightblue" points="1082.75,-11.5001 1072.75,-15 1082.75,-18.5001 1082.75,-11.5001"/>
</g>
<!-- Node13 -->
<g id="node13" class="node"><title>Node13</title>
<g id="a_node13"><a xlink:href="../../db/d27/class_view_1_1_slogo.html#a6ab76a53160b61d8501aec91c55b85c8" target="_top" xlink:title="View.Slogo.start">
<polygon fill="white" stroke="black" points="1294.5,-5.5 1294.5,-24.5 1387.5,-24.5 1387.5,-5.5 1294.5,-5.5"/>
<text text-anchor="middle" x="1341" y="-12.5" font-family="Helvetica,sans-Serif" font-size="10.00">View.Slogo.start</text>
</a>
</g>
</g>
<!-- Node12&#45;&gt;Node13 -->
<g id="edge12" class="edge"><title>Node12&#45;&gt;Node13</title>
<path fill="none" stroke="midnightblue" d="M1268.14,-15C1277.11,-15 1286.05,-15 1294.43,-15"/>
<polygon fill="midnightblue" stroke="midnightblue" points="1268.04,-11.5001 1258.04,-15 1268.04,-18.5001 1268.04,-11.5001"/>
</g>
</g>
</svg>
