<?xml version="1.0" encoding="UTF-8" standalone="no"?>
<!DOCTYPE svg PUBLIC "-//W3C//DTD SVG 1.1//EN"
 "http://www.w3.org/Graphics/SVG/1.1/DTD/svg11.dtd">
<!-- Generated by graphviz version 2.36.0 (20140111.2315)
 -->
<!-- Title: View.Pen.setColor Pages: 1 -->
<svg width="470pt" height="38pt"
 viewBox="0.00 0.00 470.00 38.00" xmlns="http://www.w3.org/2000/svg" xmlns:xlink="http://www.w3.org/1999/xlink">
<g id="graph0" class="graph" transform="scale(1 1) rotate(0) translate(4 34)">
<title>View.Pen.setColor</title>
<polygon fill="white" stroke="none" points="-4,4 -4,-34 466,-34 466,4 -4,4"/>
<!-- Node1 -->
<g id="node1" class="node"><title>Node1</title>
<polygon fill="#bfbfbf" stroke="black" points="0.5,-5.5 0.5,-24.5 101.5,-24.5 101.5,-5.5 0.5,-5.5"/>
<text text-anchor="middle" x="51" y="-12.5" font-family="Helvetica,sans-Serif" font-size="10.00">View.Pen.setColor</text>
</g>
<!-- Node2 -->
<g id="node2" class="node"><title>Node2</title>
<g id="a_node2"><a xlink:href="../../df/dcb/classturtle_1_1_turtle.html#a875b7b5e056712c38eee257c454da7f7" target="_top" xlink:title="turtle.Turtle.setPenColor">
<polygon fill="white" stroke="black" points="138.5,-5.5 138.5,-24.5 269.5,-24.5 269.5,-5.5 138.5,-5.5"/>
<text text-anchor="middle" x="204" y="-12.5" font-family="Helvetica,sans-Serif" font-size="10.00">turtle.Turtle.setPenColor</text>
</a>
</g>
</g>
<!-- Node1&#45;&gt;Node2 -->
<g id="edge1" class="edge"><title>Node1&#45;&gt;Node2</title>
<path fill="none" stroke="midnightblue" d="M111.91,-15C120.608,-15 129.595,-15 138.381,-15"/>
<polygon fill="midnightblue" stroke="midnightblue" points="111.862,-11.5001 101.862,-15 111.861,-18.5001 111.862,-11.5001"/>
</g>
<!-- Node3 -->
<g id="node3" class="node"><title>Node3</title>
<g id="a_node3"><a xlink:href="../../d7/d28/classcommands_1_1information_1_1_base_turtle_container.html#ae8af295d680388bc8897d7827e36cef5" target="_top" xlink:title="commands.information.Base\lTurtleContainer.setPenColor">
<polygon fill="white" stroke="black" points="306.5,-0 306.5,-30 461.5,-30 461.5,-0 306.5,-0"/>
<text text-anchor="start" x="314.5" y="-18" font-family="Helvetica,sans-Serif" font-size="10.00">commands.information.Base</text>
<text text-anchor="middle" x="384" y="-7" font-family="Helvetica,sans-Serif" font-size="10.00">TurtleContainer.setPenColor</text>
</a>
</g>
</g>
<!-- Node2&#45;&gt;Node3 -->
<g id="edge2" class="edge"><title>Node2&#45;&gt;Node3</title>
<path fill="none" stroke="midnightblue" d="M279.717,-15C288.502,-15 297.478,-15 306.289,-15"/>
<polygon fill="midnightblue" stroke="midnightblue" points="279.514,-11.5001 269.514,-15 279.514,-18.5001 279.514,-11.5001"/>
</g>
</g>
</svg>
