<?xml version="1.0" encoding="UTF-8" standalone="no"?>
<!DOCTYPE svg PUBLIC "-//W3C//DTD SVG 1.1//EN"
 "http://www.w3.org/Graphics/SVG/1.1/DTD/svg11.dtd">
<!-- Generated by graphviz version 2.36.0 (20140111.2315)
 -->
<!-- Title: turtle.Left.move Pages: 1 -->
<svg width="264pt" height="66pt"
 viewBox="0.00 0.00 264.00 66.00" xmlns="http://www.w3.org/2000/svg" xmlns:xlink="http://www.w3.org/1999/xlink">
<g id="graph0" class="graph" transform="scale(1 1) rotate(0) translate(4 62)">
<title>turtle.Left.move</title>
<polygon fill="white" stroke="none" points="-4,4 -4,-62 260,-62 260,4 -4,4"/>
<!-- Node1 -->
<g id="node1" class="node"><title>Node1</title>
<polygon fill="#bfbfbf" stroke="black" points="0.5,-19.5 0.5,-38.5 93.5,-38.5 93.5,-19.5 0.5,-19.5"/>
<text text-anchor="middle" x="47" y="-26.5" font-family="Helvetica,sans-Serif" font-size="10.00">turtle.Left.move</text>
</g>
<!-- Node2 -->
<g id="node2" class="node"><title>Node2</title>
<g id="a_node2"><a xlink:href="../../d1/dbe/classturtle_1_1_position.html#a1d079c846ce96bf1c57da388c46669e1" target="_top" xlink:title="turtle.Position.getXPos">
<polygon fill="white" stroke="black" points="130.5,-38.5 130.5,-57.5 255.5,-57.5 255.5,-38.5 130.5,-38.5"/>
<text text-anchor="middle" x="193" y="-45.5" font-family="Helvetica,sans-Serif" font-size="10.00">turtle.Position.getXPos</text>
</a>
</g>
</g>
<!-- Node1&#45;&gt;Node2 -->
<g id="edge1" class="edge"><title>Node1&#45;&gt;Node2</title>
<path fill="none" stroke="midnightblue" d="M93.5625,-35.0117C102.064,-36.1334 111.136,-37.3304 120.204,-38.5269"/>
<polygon fill="midnightblue" stroke="midnightblue" points="120.037,-42.0351 130.409,-39.8734 120.953,-35.0953 120.037,-42.0351"/>
</g>
<!-- Node3 -->
<g id="node3" class="node"><title>Node3</title>
<g id="a_node3"><a xlink:href="../../d1/dbe/classturtle_1_1_position.html#af03c1c3b306f6c12d2ec52a00fde50eb" target="_top" xlink:title="turtle.Position.setXPos">
<polygon fill="white" stroke="black" points="131,-0.5 131,-19.5 255,-19.5 255,-0.5 131,-0.5"/>
<text text-anchor="middle" x="193" y="-7.5" font-family="Helvetica,sans-Serif" font-size="10.00">turtle.Position.setXPos</text>
</a>
</g>
</g>
<!-- Node1&#45;&gt;Node3 -->
<g id="edge2" class="edge"><title>Node1&#45;&gt;Node3</title>
<path fill="none" stroke="midnightblue" d="M93.5625,-22.9883C102.276,-21.8386 111.589,-20.6097 120.883,-19.3835"/>
<polygon fill="midnightblue" stroke="midnightblue" points="121.475,-22.8358 130.931,-18.0577 120.559,-15.896 121.475,-22.8358"/>
</g>
</g>
</svg>
