<?xml version="1.0" encoding="UTF-8" standalone="no"?>
<!DOCTYPE svg PUBLIC "-//W3C//DTD SVG 1.1//EN"
 "http://www.w3.org/Graphics/SVG/1.1/DTD/svg11.dtd">
<!-- Generated by graphviz version 2.36.0 (20140111.2315)
 -->
<!-- Title: commands.controlCommands.ToCommand Pages: 1 -->
<svg width="502pt" height="258pt"
 viewBox="0.00 0.00 502.00 258.00" xmlns="http://www.w3.org/2000/svg" xmlns:xlink="http://www.w3.org/1999/xlink">
<g id="graph0" class="graph" transform="scale(1 1) rotate(0) translate(4 254)">
<title>commands.controlCommands.ToCommand</title>
<polygon fill="white" stroke="none" points="-4,4 -4,-254 498,-254 498,4 -4,4"/>
<!-- Node1 -->
<g id="node1" class="node"><title>Node1</title>
<polygon fill="#bfbfbf" stroke="black" points="207.5,-1 207.5,-31 372.5,-31 372.5,-1 207.5,-1"/>
<text text-anchor="start" x="215.5" y="-19" font-family="Helvetica,sans-Serif" font-size="10.00">commands.controlCommands.</text>
<text text-anchor="middle" x="290" y="-8" font-family="Helvetica,sans-Serif" font-size="10.00">ToCommand</text>
</g>
<!-- Node2 -->
<g id="node2" class="node"><title>Node2</title>
<g id="a_node2"><a xlink:href="../../da/d8a/classcommands_1_1_control_command.html" target="_top" xlink:title="commands.ControlCommand">
<polygon fill="white" stroke="black" points="72,-80.5 72,-99.5 230,-99.5 230,-80.5 72,-80.5"/>
<text text-anchor="middle" x="151" y="-87.5" font-family="Helvetica,sans-Serif" font-size="10.00">commands.ControlCommand</text>
</a>
</g>
</g>
<!-- Node2&#45;&gt;Node1 -->
<g id="edge1" class="edge"><title>Node2&#45;&gt;Node1</title>
<path fill="none" stroke="midnightblue" d="M176.523,-75.7794C200.983,-63.1098 237.776,-44.0512 262.785,-31.0968"/>
<polygon fill="midnightblue" stroke="midnightblue" points="174.761,-72.7506 167.491,-80.4579 177.98,-78.9662 174.761,-72.7506"/>
</g>
<!-- Node3 -->
<g id="node3" class="node"><title>Node3</title>
<g id="a_node3"><a xlink:href="../../da/d90/classcommands_1_1_base_command.html" target="_top" xlink:title="commands.BaseCommand">
<polygon fill="white" stroke="black" points="0,-154.5 0,-173.5 148,-173.5 148,-154.5 0,-154.5"/>
<text text-anchor="middle" x="74" y="-161.5" font-family="Helvetica,sans-Serif" font-size="10.00">commands.BaseCommand</text>
</a>
</g>
</g>
<!-- Node3&#45;&gt;Node2 -->
<g id="edge2" class="edge"><title>Node3&#45;&gt;Node2</title>
<path fill="none" stroke="midnightblue" d="M90.5857,-147.491C106.282,-132.815 129.264,-111.325 141.877,-99.531"/>
<polygon fill="midnightblue" stroke="midnightblue" points="88.0491,-145.071 83.1353,-154.458 92.83,-150.184 88.0491,-145.071"/>
</g>
<!-- Node3&#45;&gt;Node3 -->
<g id="edge4" class="edge"><title>Node3&#45;&gt;Node3</title>
<path fill="none" stroke="#9a32cd" stroke-dasharray="5,2" d="M158.58,-168.266C163.233,-167.227 166,-165.805 166,-164 166,-161.111 158.916,-159.204 148.36,-158.279"/>
<polygon fill="#9a32cd" stroke="#9a32cd" points="157.767,-164.846 148.36,-169.721 158.754,-171.776 157.767,-164.846"/>
<text text-anchor="middle" x="211.5" y="-161.5" font-family="Helvetica,sans-Serif" font-size="10.00"> myNextCommand</text>
</g>
<!-- Node4 -->
<g id="node4" class="node"><title>Node4</title>
<polygon fill="white" stroke="#bfbfbf" points="38.5,-224.5 38.5,-243.5 109.5,-243.5 109.5,-224.5 38.5,-224.5"/>
<text text-anchor="middle" x="74" y="-231.5" font-family="Helvetica,sans-Serif" font-size="10.00">Serializable</text>
</g>
<!-- Node4&#45;&gt;Node3 -->
<g id="edge3" class="edge"><title>Node4&#45;&gt;Node3</title>
<path fill="none" stroke="midnightblue" d="M74,-214.039C74,-200.852 74,-183.884 74,-173.757"/>
<polygon fill="midnightblue" stroke="midnightblue" points="70.5001,-214.388 74,-224.388 77.5001,-214.388 70.5001,-214.388"/>
</g>
<!-- Node5 -->
<g id="node5" class="node"><title>Node5</title>
<g id="a_node5"><a xlink:href="../../d4/d05/classcommands_1_1information_1_1_base_user_defined_container.html" target="_top" xlink:title="commands.information.Base\lUserDefinedContainer">
<polygon fill="white" stroke="black" points="275.5,-149 275.5,-179 430.5,-179 430.5,-149 275.5,-149"/>
<text text-anchor="start" x="283.5" y="-167" font-family="Helvetica,sans-Serif" font-size="10.00">commands.information.Base</text>
<text text-anchor="middle" x="353" y="-156" font-family="Helvetica,sans-Serif" font-size="10.00">UserDefinedContainer</text>
</a>
</g>
</g>
<!-- Node5&#45;&gt;Node2 -->
<g id="edge5" class="edge"><title>Node5&#45;&gt;Node2</title>
<path fill="none" stroke="#9a32cd" stroke-dasharray="5,2" d="M304.078,-145.562C263.261,-131.014 206.822,-110.897 175.12,-99.5972"/>
<polygon fill="#9a32cd" stroke="#9a32cd" points="302.978,-148.886 313.573,-148.947 305.328,-142.292 302.978,-148.886"/>
<text text-anchor="middle" x="310.5" y="-121.5" font-family="Helvetica,sans-Serif" font-size="10.00"> myVariableContainer</text>
</g>
<!-- Node6 -->
<g id="node6" class="node"><title>Node6</title>
<g id="a_node6"><a xlink:href="../../d4/d4e/interfacecommands_1_1information_1_1_i_information_container.html" target="_top" xlink:title="commands.information.IInformation\lContainer">
<polygon fill="white" stroke="black" points="259,-219 259,-249 447,-249 447,-219 259,-219"/>
<text text-anchor="start" x="267" y="-237" font-family="Helvetica,sans-Serif" font-size="10.00">commands.information.IInformation</text>
<text text-anchor="middle" x="353" y="-226" font-family="Helvetica,sans-Serif" font-size="10.00">Container</text>
</a>
</g>
</g>
<!-- Node6&#45;&gt;Node5 -->
<g id="edge6" class="edge"><title>Node6&#45;&gt;Node5</title>
<path fill="none" stroke="midnightblue" d="M353,-208.769C353,-198.814 353,-187.638 353,-179.072"/>
<polygon fill="midnightblue" stroke="midnightblue" points="349.5,-208.91 353,-218.91 356.5,-208.91 349.5,-208.91"/>
</g>
<!-- Node7 -->
<g id="node7" class="node"><title>Node7</title>
<polygon fill="white" stroke="#bfbfbf" points="248,-80.5 248,-99.5 332,-99.5 332,-80.5 248,-80.5"/>
<text text-anchor="middle" x="290" y="-87.5" font-family="Helvetica,sans-Serif" font-size="10.00">List&lt; String &gt;</text>
</g>
<!-- Node7&#45;&gt;Node1 -->
<g id="edge7" class="edge"><title>Node7&#45;&gt;Node1</title>
<path fill="none" stroke="#9a32cd" stroke-dasharray="5,2" d="M290,-70.0846C290,-57.9148 290,-42.3538 290,-31.2316"/>
<polygon fill="#9a32cd" stroke="#9a32cd" points="286.5,-70.4579 290,-80.4579 293.5,-70.4579 286.5,-70.4579"/>
<text text-anchor="middle" x="326.5" y="-53.5" font-family="Helvetica,sans-Serif" font-size="10.00"> myVariableList</text>
</g>
<!-- Node8 -->
<g id="node8" class="node"><title>Node8</title>
<polygon fill="white" stroke="#bfbfbf" points="350,-80.5 350,-99.5 434,-99.5 434,-80.5 350,-80.5"/>
<text text-anchor="middle" x="392" y="-87.5" font-family="Helvetica,sans-Serif" font-size="10.00">Set&lt; String &gt;</text>
</g>
<!-- Node8&#45;&gt;Node1 -->
<g id="edge8" class="edge"><title>Node8&#45;&gt;Node1</title>
<path fill="none" stroke="#9a32cd" stroke-dasharray="5,2" d="M383.622,-71.2659C379.454,-63.9236 373.835,-55.7898 367,-50 357.789,-42.1973 346.457,-35.9852 335.347,-31.1526"/>
<polygon fill="#9a32cd" stroke="#9a32cd" points="380.688,-73.2119 388.384,-80.4931 386.909,-70.0016 380.688,-73.2119"/>
<text text-anchor="middle" x="436" y="-53.5" font-family="Helvetica,sans-Serif" font-size="10.00"> myTempRepeatChecker</text>
</g>
</g>
</svg>
