<?xml version="1.0" encoding="UTF-8" standalone="no"?>
<!DOCTYPE svg PUBLIC "-//W3C//DTD SVG 1.1//EN"
 "http://www.w3.org/Graphics/SVG/1.1/DTD/svg11.dtd">
<!-- Generated by graphviz version 2.36.0 (20140111.2315)
 -->
<!-- Title: GUIFunctions.EditingCell.saveEdit Pages: 1 -->
<svg width="768pt" height="38pt"
 viewBox="0.00 0.00 768.00 38.00" xmlns="http://www.w3.org/2000/svg" xmlns:xlink="http://www.w3.org/1999/xlink">
<g id="graph0" class="graph" transform="scale(1 1) rotate(0) translate(4 34)">
<title>GUIFunctions.EditingCell.saveEdit</title>
<polygon fill="white" stroke="none" points="-4,4 -4,-34 764,-34 764,4 -4,4"/>
<!-- Node1 -->
<g id="node1" class="node"><title>Node1</title>
<polygon fill="#bfbfbf" stroke="black" points="0.5,-5.5 0.5,-24.5 175.5,-24.5 175.5,-5.5 0.5,-5.5"/>
<text text-anchor="middle" x="88" y="-12.5" font-family="Helvetica,sans-Serif" font-size="10.00">GUIFunctions.EditingCell.saveEdit</text>
</g>
<!-- Node2 -->
<g id="node2" class="node"><title>Node2</title>
<g id="a_node2"><a xlink:href="../../d2/d41/class_g_u_i_functions_1_1_editing_cell.html#a6ed31235f8d2a1427af1ce7134e7874e" target="_top" xlink:title="GUIFunctions.EditingCell.create\lTextField">
<polygon fill="white" stroke="black" points="212.5,-0 212.5,-30 377.5,-30 377.5,-0 212.5,-0"/>
<text text-anchor="start" x="220.5" y="-18" font-family="Helvetica,sans-Serif" font-size="10.00">GUIFunctions.EditingCell.create</text>
<text text-anchor="middle" x="295" y="-7" font-family="Helvetica,sans-Serif" font-size="10.00">TextField</text>
</a>
</g>
</g>
<!-- Node1&#45;&gt;Node2 -->
<g id="edge1" class="edge"><title>Node1&#45;&gt;Node2</title>
<path fill="none" stroke="midnightblue" d="M185.645,-15C194.541,-15 203.495,-15 212.239,-15"/>
<polygon fill="midnightblue" stroke="midnightblue" points="185.641,-11.5001 175.641,-15 185.641,-18.5001 185.641,-11.5001"/>
</g>
<!-- Node3 -->
<g id="node3" class="node"><title>Node3</title>
<g id="a_node3"><a xlink:href="../../d2/d41/class_g_u_i_functions_1_1_editing_cell.html#a10160fc0fa0850f597ca30b428121cf4" target="_top" xlink:title="GUIFunctions.EditingCell.startEdit">
<polygon fill="white" stroke="black" points="414.5,-5.5 414.5,-24.5 589.5,-24.5 589.5,-5.5 414.5,-5.5"/>
<text text-anchor="middle" x="502" y="-12.5" font-family="Helvetica,sans-Serif" font-size="10.00">GUIFunctions.EditingCell.startEdit</text>
</a>
</g>
</g>
<!-- Node2&#45;&gt;Node3 -->
<g id="edge2" class="edge"><title>Node2&#45;&gt;Node3</title>
<path fill="none" stroke="midnightblue" d="M387.865,-15C396.655,-15 405.55,-15 414.289,-15"/>
<polygon fill="midnightblue" stroke="midnightblue" points="387.61,-11.5001 377.61,-15 387.61,-18.5001 387.61,-11.5001"/>
</g>
<!-- Node4 -->
<g id="node4" class="node"><title>Node4</title>
<g id="a_node4"><a xlink:href="../../d2/d41/class_g_u_i_functions_1_1_editing_cell.html#a537ac09c079b458241fd6c2805b76542" target="_top" xlink:title="GUIFunctions.EditingCell.\lEditingCell">
<polygon fill="white" stroke="black" points="626,-0 626,-30 760,-30 760,-0 626,-0"/>
<text text-anchor="start" x="634" y="-18" font-family="Helvetica,sans-Serif" font-size="10.00">GUIFunctions.EditingCell.</text>
<text text-anchor="middle" x="693" y="-7" font-family="Helvetica,sans-Serif" font-size="10.00">EditingCell</text>
</a>
</g>
</g>
<!-- Node3&#45;&gt;Node4 -->
<g id="edge3" class="edge"><title>Node3&#45;&gt;Node4</title>
<path fill="none" stroke="midnightblue" d="M600.013,-15C608.755,-15 617.468,-15 625.853,-15"/>
<polygon fill="midnightblue" stroke="midnightblue" points="599.756,-11.5001 589.756,-15 599.756,-18.5001 599.756,-11.5001"/>
</g>
</g>
</svg>
