<?xml version="1.0" encoding="UTF-8" standalone="no"?>
<!DOCTYPE svg PUBLIC "-//W3C//DTD SVG 1.1//EN"
 "http://www.w3.org/Graphics/SVG/1.1/DTD/svg11.dtd">
<!-- Generated by graphviz version 2.36.0 (20140111.2315)
 -->
<!-- Title: GUIFunctions.EditingCell.createTextField Pages: 1 -->
<svg width="556pt" height="38pt"
 viewBox="0.00 0.00 556.00 38.00" xmlns="http://www.w3.org/2000/svg" xmlns:xlink="http://www.w3.org/1999/xlink">
<g id="graph0" class="graph" transform="scale(1 1) rotate(0) translate(4 34)">
<title>GUIFunctions.EditingCell.createTextField</title>
<polygon fill="white" stroke="none" points="-4,4 -4,-34 552,-34 552,4 -4,4"/>
<!-- Node1 -->
<g id="node1" class="node"><title>Node1</title>
<polygon fill="#bfbfbf" stroke="black" points="0.5,-0 0.5,-30 165.5,-30 165.5,-0 0.5,-0"/>
<text text-anchor="start" x="8.5" y="-18" font-family="Helvetica,sans-Serif" font-size="10.00">GUIFunctions.EditingCell.create</text>
<text text-anchor="middle" x="83" y="-7" font-family="Helvetica,sans-Serif" font-size="10.00">TextField</text>
</g>
<!-- Node2 -->
<g id="node2" class="node"><title>Node2</title>
<g id="a_node2"><a xlink:href="../../d2/d41/class_g_u_i_functions_1_1_editing_cell.html#a10160fc0fa0850f597ca30b428121cf4" target="_top" xlink:title="GUIFunctions.EditingCell.startEdit">
<polygon fill="white" stroke="black" points="202.5,-5.5 202.5,-24.5 377.5,-24.5 377.5,-5.5 202.5,-5.5"/>
<text text-anchor="middle" x="290" y="-12.5" font-family="Helvetica,sans-Serif" font-size="10.00">GUIFunctions.EditingCell.startEdit</text>
</a>
</g>
</g>
<!-- Node1&#45;&gt;Node2 -->
<g id="edge1" class="edge"><title>Node1&#45;&gt;Node2</title>
<path fill="none" stroke="midnightblue" d="M175.865,-15C184.655,-15 193.55,-15 202.289,-15"/>
<polygon fill="midnightblue" stroke="midnightblue" points="175.61,-11.5001 165.61,-15 175.61,-18.5001 175.61,-11.5001"/>
</g>
<!-- Node3 -->
<g id="node3" class="node"><title>Node3</title>
<g id="a_node3"><a xlink:href="../../d2/d41/class_g_u_i_functions_1_1_editing_cell.html#a537ac09c079b458241fd6c2805b76542" target="_top" xlink:title="GUIFunctions.EditingCell.\lEditingCell">
<polygon fill="white" stroke="black" points="414,-0 414,-30 548,-30 548,-0 414,-0"/>
<text text-anchor="start" x="422" y="-18" font-family="Helvetica,sans-Serif" font-size="10.00">GUIFunctions.EditingCell.</text>
<text text-anchor="middle" x="481" y="-7" font-family="Helvetica,sans-Serif" font-size="10.00">EditingCell</text>
</a>
</g>
</g>
<!-- Node2&#45;&gt;Node3 -->
<g id="edge2" class="edge"><title>Node2&#45;&gt;Node3</title>
<path fill="none" stroke="midnightblue" d="M388.013,-15C396.755,-15 405.468,-15 413.853,-15"/>
<polygon fill="midnightblue" stroke="midnightblue" points="387.756,-11.5001 377.756,-15 387.756,-18.5001 387.756,-11.5001"/>
</g>
</g>
</svg>
