<?xml version="1.0" encoding="UTF-8" standalone="no"?>
<!DOCTYPE svg PUBLIC "-//W3C//DTD SVG 1.1//EN"
 "http://www.w3.org/Graphics/SVG/1.1/DTD/svg11.dtd">
<!-- Generated by graphviz version 2.36.0 (20140111.2315)
 -->
<!-- Title: GUIFunctions.EditingCell.EditingCell Pages: 1 -->
<svg width="768pt" height="38pt"
 viewBox="0.00 0.00 768.00 38.00" xmlns="http://www.w3.org/2000/svg" xmlns:xlink="http://www.w3.org/1999/xlink">
<g id="graph0" class="graph" transform="scale(1 1) rotate(0) translate(4 34)">
<title>GUIFunctions.EditingCell.EditingCell</title>
<polygon fill="white" stroke="none" points="-4,4 -4,-34 764,-34 764,4 -4,4"/>
<!-- Node1 -->
<g id="node1" class="node"><title>Node1</title>
<polygon fill="#bfbfbf" stroke="black" points="0,-0 0,-30 134,-30 134,-0 0,-0"/>
<text text-anchor="start" x="8" y="-18" font-family="Helvetica,sans-Serif" font-size="10.00">GUIFunctions.EditingCell.</text>
<text text-anchor="middle" x="67" y="-7" font-family="Helvetica,sans-Serif" font-size="10.00">EditingCell</text>
</g>
<!-- Node2 -->
<g id="node2" class="node"><title>Node2</title>
<g id="a_node2"><a xlink:href="../../d2/d41/class_g_u_i_functions_1_1_editing_cell.html#a10160fc0fa0850f597ca30b428121cf4" target="_top" xlink:title="GUIFunctions.EditingCell.startEdit">
<polygon fill="white" stroke="black" points="170.5,-5.5 170.5,-24.5 345.5,-24.5 345.5,-5.5 170.5,-5.5"/>
<text text-anchor="middle" x="258" y="-12.5" font-family="Helvetica,sans-Serif" font-size="10.00">GUIFunctions.EditingCell.startEdit</text>
</a>
</g>
</g>
<!-- Node1&#45;&gt;Node2 -->
<g id="edge1" class="edge"><title>Node1&#45;&gt;Node2</title>
<path fill="none" stroke="midnightblue" d="M134.103,-15C142.611,-15 151.457,-15 160.329,-15"/>
<polygon fill="midnightblue" stroke="midnightblue" points="160.339,-18.5001 170.339,-15 160.339,-11.5001 160.339,-18.5001"/>
</g>
<!-- Node3 -->
<g id="node3" class="node"><title>Node3</title>
<g id="a_node3"><a xlink:href="../../d2/d41/class_g_u_i_functions_1_1_editing_cell.html#a6ed31235f8d2a1427af1ce7134e7874e" target="_top" xlink:title="GUIFunctions.EditingCell.create\lTextField">
<polygon fill="white" stroke="black" points="382.5,-0 382.5,-30 547.5,-30 547.5,-0 382.5,-0"/>
<text text-anchor="start" x="390.5" y="-18" font-family="Helvetica,sans-Serif" font-size="10.00">GUIFunctions.EditingCell.create</text>
<text text-anchor="middle" x="465" y="-7" font-family="Helvetica,sans-Serif" font-size="10.00">TextField</text>
</a>
</g>
</g>
<!-- Node2&#45;&gt;Node3 -->
<g id="edge2" class="edge"><title>Node2&#45;&gt;Node3</title>
<path fill="none" stroke="midnightblue" d="M345.641,-15C354.359,-15 363.234,-15 372.006,-15"/>
<polygon fill="midnightblue" stroke="midnightblue" points="372.239,-18.5001 382.239,-15 372.239,-11.5001 372.239,-18.5001"/>
</g>
<!-- Node4 -->
<g id="node4" class="node"><title>Node4</title>
<g id="a_node4"><a xlink:href="../../d2/d41/class_g_u_i_functions_1_1_editing_cell.html#a062d448c0377e0cc089d3b30abb0168b" target="_top" xlink:title="GUIFunctions.EditingCell.saveEdit">
<polygon fill="white" stroke="black" points="584.5,-5.5 584.5,-24.5 759.5,-24.5 759.5,-5.5 584.5,-5.5"/>
<text text-anchor="middle" x="672" y="-12.5" font-family="Helvetica,sans-Serif" font-size="10.00">GUIFunctions.EditingCell.saveEdit</text>
</a>
</g>
</g>
<!-- Node3&#45;&gt;Node4 -->
<g id="edge3" class="edge"><title>Node3&#45;&gt;Node4</title>
<path fill="none" stroke="midnightblue" d="M547.61,-15C556.372,-15 565.346,-15 574.262,-15"/>
<polygon fill="midnightblue" stroke="midnightblue" points="574.289,-18.5001 584.289,-15 574.289,-11.5001 574.289,-18.5001"/>
</g>
</g>
</svg>
