<?xml version="1.0" encoding="UTF-8" standalone="no"?>
<!DOCTYPE svg PUBLIC "-//W3C//DTD SVG 1.1//EN"
 "http://www.w3.org/Graphics/SVG/1.1/DTD/svg11.dtd">
<!-- Generated by graphviz version 2.36.0 (20140111.2315)
 -->
<!-- Title: commands.viewQueries.YCorQuery Pages: 1 -->
<svg width="1036pt" height="156pt"
 viewBox="0.00 0.00 1036.00 156.00" xmlns="http://www.w3.org/2000/svg" xmlns:xlink="http://www.w3.org/1999/xlink">
<g id="graph0" class="graph" transform="scale(1 1) rotate(0) translate(4 152)">
<title>commands.viewQueries.YCorQuery</title>
<polygon fill="white" stroke="none" points="-4,4 -4,-152 1032,-152 1032,4 -4,4"/>
<!-- Node1 -->
<g id="node1" class="node"><title>Node1</title>
<polygon fill="#bfbfbf" stroke="black" points="872.5,-63 872.5,-93 1027.5,-93 1027.5,-63 872.5,-63"/>
<text text-anchor="start" x="880.5" y="-81" font-family="Helvetica,sans-Serif" font-size="10.00">commands.viewQueries.YCor</text>
<text text-anchor="middle" x="950" y="-70" font-family="Helvetica,sans-Serif" font-size="10.00">Query</text>
</g>
<!-- Node2 -->
<g id="node2" class="node"><title>Node2</title>
<g id="a_node2"><a xlink:href="../../d0/d90/classcommands_1_1_turtle_query.html" target="_top" xlink:title="commands.TurtleQuery">
<polygon fill="white" stroke="black" points="706,-68.5 706,-87.5 834,-87.5 834,-68.5 706,-68.5"/>
<text text-anchor="middle" x="770" y="-75.5" font-family="Helvetica,sans-Serif" font-size="10.00">commands.TurtleQuery</text>
</a>
</g>
</g>
<!-- Node2&#45;&gt;Node1 -->
<g id="edge1" class="edge"><title>Node2&#45;&gt;Node1</title>
<path fill="none" stroke="midnightblue" d="M844.025,-78C853.364,-78 862.945,-78 872.34,-78"/>
<polygon fill="midnightblue" stroke="midnightblue" points="844.007,-74.5001 834.007,-78 844.007,-81.5001 844.007,-74.5001"/>
</g>
<!-- Node3 -->
<g id="node3" class="node"><title>Node3</title>
<g id="a_node3"><a xlink:href="../../d3/d03/classcommands_1_1turtle_commands_1_1_turtle_command.html" target="_top" xlink:title="commands.turtleCommands.\lTurtleCommand">
<polygon fill="white" stroke="black" points="510,-63 510,-93 668,-93 668,-63 510,-63"/>
<text text-anchor="start" x="518" y="-81" font-family="Helvetica,sans-Serif" font-size="10.00">commands.turtleCommands.</text>
<text text-anchor="middle" x="589" y="-70" font-family="Helvetica,sans-Serif" font-size="10.00">TurtleCommand</text>
</a>
</g>
</g>
<!-- Node3&#45;&gt;Node2 -->
<g id="edge2" class="edge"><title>Node3&#45;&gt;Node2</title>
<path fill="none" stroke="midnightblue" d="M678.342,-78C687.664,-78 697.004,-78 705.955,-78"/>
<polygon fill="midnightblue" stroke="midnightblue" points="678.252,-74.5001 668.252,-78 678.252,-81.5001 678.252,-74.5001"/>
</g>
<!-- Node4 -->
<g id="node4" class="node"><title>Node4</title>
<g id="a_node4"><a xlink:href="../../da/d90/classcommands_1_1_base_command.html" target="_top" xlink:title="commands.BaseCommand">
<polygon fill="white" stroke="black" points="230,-99.5 230,-118.5 378,-118.5 378,-99.5 230,-99.5"/>
<text text-anchor="middle" x="304" y="-106.5" font-family="Helvetica,sans-Serif" font-size="10.00">commands.BaseCommand</text>
</a>
</g>
</g>
<!-- Node4&#45;&gt;Node3 -->
<g id="edge3" class="edge"><title>Node4&#45;&gt;Node3</title>
<path fill="none" stroke="midnightblue" d="M388.564,-113.125C421.024,-113.419 458.408,-112.147 492,-107 510.586,-104.152 530.577,-98.546 547.478,-93.0154"/>
<polygon fill="midnightblue" stroke="midnightblue" points="388.258,-109.62 378.209,-112.977 388.158,-116.62 388.258,-109.62"/>
</g>
<!-- Node4&#45;&gt;Node3 -->
<g id="edge11" class="edge"><title>Node4&#45;&gt;Node3</title>
<path fill="none" stroke="#9a32cd" stroke-dasharray="5,2" d="M370.955,-97.961C380.679,-96.5153 390.589,-95.142 400,-94 435.933,-89.6398 475.872,-86.0627 509.665,-83.405"/>
<polygon fill="#9a32cd" stroke="#9a32cd" points="370.278,-94.5237 360.917,-99.4873 371.33,-101.444 370.278,-94.5237"/>
<text text-anchor="middle" x="446" y="-97" font-family="Helvetica,sans-Serif" font-size="10.00"> myArgumentList</text>
</g>
<!-- Node4&#45;&gt;Node4 -->
<g id="edge5" class="edge"><title>Node4&#45;&gt;Node4</title>
<path fill="none" stroke="#9a32cd" stroke-dasharray="5,2" d="M286.223,-128.4C287.41,-133.315 293.336,-137 304,-137 321.062,-137 325.995,-127.565 318.796,-118.757"/>
<polygon fill="#9a32cd" stroke="#9a32cd" points="289.594,-129.345 289.204,-118.757 282.907,-127.278 289.594,-129.345"/>
<text text-anchor="middle" x="304" y="-140" font-family="Helvetica,sans-Serif" font-size="10.00"> myNextCommand</text>
</g>
<!-- Node5 -->
<g id="node5" class="node"><title>Node5</title>
<polygon fill="white" stroke="#bfbfbf" points="58.5,-99.5 58.5,-118.5 129.5,-118.5 129.5,-99.5 58.5,-99.5"/>
<text text-anchor="middle" x="94" y="-106.5" font-family="Helvetica,sans-Serif" font-size="10.00">Serializable</text>
</g>
<!-- Node5&#45;&gt;Node4 -->
<g id="edge4" class="edge"><title>Node5&#45;&gt;Node4</title>
<path fill="none" stroke="midnightblue" d="M139.818,-109C166,-109 199.683,-109 229.641,-109"/>
<polygon fill="midnightblue" stroke="midnightblue" points="139.815,-105.5 129.815,-109 139.814,-112.5 139.815,-105.5"/>
</g>
<!-- Node6 -->
<g id="node6" class="node"><title>Node6</title>
<g id="a_node6"><a xlink:href="../../d4/d37/classcommands_1_1information_1_1_base_grid_container.html" target="_top" xlink:title="commands.information.Base\lGridContainer">
<polygon fill="white" stroke="black" points="226.5,-50 226.5,-80 381.5,-80 381.5,-50 226.5,-50"/>
<text text-anchor="start" x="234.5" y="-68" font-family="Helvetica,sans-Serif" font-size="10.00">commands.information.Base</text>
<text text-anchor="middle" x="304" y="-57" font-family="Helvetica,sans-Serif" font-size="10.00">GridContainer</text>
</a>
</g>
</g>
<!-- Node6&#45;&gt;Node3 -->
<g id="edge6" class="edge"><title>Node6&#45;&gt;Node3</title>
<path fill="none" stroke="#9a32cd" stroke-dasharray="5,2" d="M391.643,-60.0593C423.272,-59.1914 459.297,-59.2934 492,-62 497.809,-62.4808 503.797,-63.1226 509.808,-63.8733"/>
<polygon fill="#9a32cd" stroke="#9a32cd" points="391.425,-56.5643 381.538,-60.3731 391.642,-63.5609 391.425,-56.5643"/>
<text text-anchor="middle" x="446" y="-65" font-family="Helvetica,sans-Serif" font-size="10.00"> myGridContainer</text>
</g>
<!-- Node7 -->
<g id="node7" class="node"><title>Node7</title>
<g id="a_node7"><a xlink:href="../../d4/d4e/interfacecommands_1_1information_1_1_i_information_container.html" target="_top" xlink:title="commands.information.IInformation\lContainer">
<polygon fill="white" stroke="black" points="0,-50 0,-80 188,-80 188,-50 0,-50"/>
<text text-anchor="start" x="8" y="-68" font-family="Helvetica,sans-Serif" font-size="10.00">commands.information.IInformation</text>
<text text-anchor="middle" x="94" y="-57" font-family="Helvetica,sans-Serif" font-size="10.00">Container</text>
</a>
</g>
</g>
<!-- Node7&#45;&gt;Node6 -->
<g id="edge7" class="edge"><title>Node7&#45;&gt;Node6</title>
<path fill="none" stroke="midnightblue" d="M198.253,-65C207.672,-65 217.1,-65 226.227,-65"/>
<polygon fill="midnightblue" stroke="midnightblue" points="198.049,-61.5001 188.049,-65 198.049,-68.5001 198.049,-61.5001"/>
</g>
<!-- Node8 -->
<g id="node8" class="node"><title>Node8</title>
<g id="a_node8"><a xlink:href="../../d7/d28/classcommands_1_1information_1_1_base_turtle_container.html" target="_top" xlink:title="commands.information.Base\lTurtleContainer">
<polygon fill="white" stroke="black" points="226.5,-1 226.5,-31 381.5,-31 381.5,-1 226.5,-1"/>
<text text-anchor="start" x="234.5" y="-19" font-family="Helvetica,sans-Serif" font-size="10.00">commands.information.Base</text>
<text text-anchor="middle" x="304" y="-8" font-family="Helvetica,sans-Serif" font-size="10.00">TurtleContainer</text>
</a>
</g>
</g>
<!-- Node7&#45;&gt;Node8 -->
<g id="edge10" class="edge"><title>Node7&#45;&gt;Node8</title>
<path fill="none" stroke="midnightblue" d="M168.568,-47.6691C191.661,-42.2288 216.95,-36.2715 239.3,-31.0062"/>
<polygon fill="midnightblue" stroke="midnightblue" points="167.751,-44.2656 158.82,-49.9654 169.357,-51.0791 167.751,-44.2656"/>
</g>
<!-- Node8&#45;&gt;Node3 -->
<g id="edge8" class="edge"><title>Node8&#45;&gt;Node3</title>
<path fill="none" stroke="#9a32cd" stroke-dasharray="5,2" d="M391.737,-26.188C423.521,-30.7753 459.625,-36.9923 492,-45 511.161,-49.7394 531.931,-56.6482 549.235,-62.9211"/>
<polygon fill="#9a32cd" stroke="#9a32cd" points="391.97,-22.6863 381.58,-24.7556 390.993,-29.6177 391.97,-22.6863"/>
<text text-anchor="middle" x="446" y="-48" font-family="Helvetica,sans-Serif" font-size="10.00"> myTurtleContainer</text>
</g>
<!-- Node9 -->
<g id="node9" class="node"><title>Node9</title>
<g id="a_node9"><a xlink:href="../../d8/db5/interfacecommands_1_1information_1_1_i_turtle_behavior.html" target="_top" xlink:title="commands.information.ITurtle\lBehavior">
<polygon fill="white" stroke="black" points="14.5,-0 14.5,-30 173.5,-30 173.5,-0 14.5,-0"/>
<text text-anchor="start" x="22.5" y="-18" font-family="Helvetica,sans-Serif" font-size="10.00">commands.information.ITurtle</text>
<text text-anchor="middle" x="94" y="-7" font-family="Helvetica,sans-Serif" font-size="10.00">Behavior</text>
</a>
</g>
</g>
<!-- Node9&#45;&gt;Node8 -->
<g id="edge9" class="edge"><title>Node9&#45;&gt;Node8</title>
<path fill="none" stroke="midnightblue" d="M183.845,-15.4271C197.98,-15.4951 212.496,-15.5649 226.319,-15.6313"/>
<polygon fill="midnightblue" stroke="midnightblue" points="183.653,-11.9263 173.636,-15.3781 183.619,-18.9262 183.653,-11.9263"/>
</g>
</g>
</svg>
