<?xml version="1.0" encoding="UTF-8" standalone="no"?>
<!DOCTYPE svg PUBLIC "-//W3C//DTD SVG 1.1//EN"
 "http://www.w3.org/Graphics/SVG/1.1/DTD/svg11.dtd">
<!-- Generated by graphviz version 2.36.0 (20140111.2315)
 -->
<!-- Title: commands.expressionCommands.ExpressionCommand.getExpressionList Pages: 1 -->
<svg width="722pt" height="969pt"
 viewBox="0.00 0.00 722.00 969.00" xmlns="http://www.w3.org/2000/svg" xmlns:xlink="http://www.w3.org/1999/xlink">
<g id="graph0" class="graph" transform="scale(1 1) rotate(0) translate(4 965)">
<title>commands.expressionCommands.ExpressionCommand.getExpressionList</title>
<polygon fill="white" stroke="none" points="-4,4 -4,-965 718,-965 718,4 -4,4"/>
<!-- Node1 -->
<g id="node1" class="node"><title>Node1</title>
<polygon fill="#bfbfbf" stroke="black" points="0,-294 0,-324 206,-324 206,-294 0,-294"/>
<text text-anchor="start" x="8" y="-312" font-family="Helvetica,sans-Serif" font-size="10.00">commands.expressionCommands.</text>
<text text-anchor="middle" x="103" y="-301" font-family="Helvetica,sans-Serif" font-size="10.00">ExpressionCommand.getExpressionList</text>
</g>
<!-- Node2 -->
<g id="node2" class="node"><title>Node2</title>
<g id="a_node2"><a xlink:href="../../d8/db1/classcommands_1_1expression_commands_1_1_one_expression_command.html#a83489a62b266dd8dbf7df1ed8d6b3314" target="_top" xlink:title="commands.expressionCommands.\lOneExpressionCommand.getArgument">
<polygon fill="white" stroke="black" points="260.5,-735 260.5,-765 465.5,-765 465.5,-735 260.5,-735"/>
<text text-anchor="start" x="268.5" y="-753" font-family="Helvetica,sans-Serif" font-size="10.00">commands.expressionCommands.</text>
<text text-anchor="middle" x="363" y="-742" font-family="Helvetica,sans-Serif" font-size="10.00">OneExpressionCommand.getArgument</text>
</a>
</g>
</g>
<!-- Node1&#45;&gt;Node2 -->
<g id="edge1" class="edge"><title>Node1&#45;&gt;Node2</title>
<path fill="none" stroke="midnightblue" d="M118.073,-333.056C164.967,-413.21 315.084,-669.807 353.156,-734.884"/>
<polygon fill="midnightblue" stroke="midnightblue" points="120.952,-331.044 112.881,-324.18 114.91,-334.579 120.952,-331.044"/>
</g>
<!-- Node11 -->
<g id="node11" class="node"><title>Node11</title>
<g id="a_node11"><a xlink:href="../../dc/d23/classcommands_1_1expression_commands_1_1_two_expression_command.html#aab61a208f77cbaf02b2b35d6f82381ed" target="_top" xlink:title="commands.expressionCommands.\lTwoExpressionCommand.getFirstExpression">
<polygon fill="white" stroke="black" points="250.5,-245 250.5,-275 475.5,-275 475.5,-245 250.5,-245"/>
<text text-anchor="start" x="258.5" y="-263" font-family="Helvetica,sans-Serif" font-size="10.00">commands.expressionCommands.</text>
<text text-anchor="middle" x="363" y="-252" font-family="Helvetica,sans-Serif" font-size="10.00">TwoExpressionCommand.getFirstExpression</text>
</a>
</g>
</g>
<!-- Node1&#45;&gt;Node11 -->
<g id="edge10" class="edge"><title>Node1&#45;&gt;Node11</title>
<path fill="none" stroke="midnightblue" d="M193.339,-292.033C222.495,-286.495 254.646,-280.389 282.988,-275.006"/>
<polygon fill="midnightblue" stroke="midnightblue" points="192.333,-288.661 183.162,-293.965 193.639,-295.538 192.333,-288.661"/>
</g>
<!-- Node24 -->
<g id="node24" class="node"><title>Node24</title>
<g id="a_node24"><a xlink:href="../../dc/d23/classcommands_1_1expression_commands_1_1_two_expression_command.html#ae4973f2738a03e2496cc11c60b08a318" target="_top" xlink:title="commands.expressionCommands.\lTwoExpressionCommand.getSecondExpression">
<polygon fill="white" stroke="black" points="242,-294 242,-324 484,-324 484,-294 242,-294"/>
<text text-anchor="start" x="250" y="-312" font-family="Helvetica,sans-Serif" font-size="10.00">commands.expressionCommands.</text>
<text text-anchor="middle" x="363" y="-301" font-family="Helvetica,sans-Serif" font-size="10.00">TwoExpressionCommand.getSecondExpression</text>
</a>
</g>
</g>
<!-- Node1&#45;&gt;Node24 -->
<g id="edge23" class="edge"><title>Node1&#45;&gt;Node24</title>
<path fill="none" stroke="midnightblue" d="M216.532,-309C224.935,-309 233.432,-309 241.879,-309"/>
<polygon fill="midnightblue" stroke="midnightblue" points="216.339,-305.5 206.339,-309 216.339,-312.5 216.339,-305.5"/>
</g>
<!-- Node3 -->
<g id="node3" class="node"><title>Node3</title>
<g id="a_node3"><a xlink:href="../../d1/dcc/classcommands_1_1expression_commands_1_1_arc_tan_command.html#a636484fe98973f75140a10a87b5c0f3c" target="_top" xlink:title="commands.expressionCommands.\lArcTanCommand.onExecute">
<polygon fill="white" stroke="black" points="525,-735 525,-765 709,-765 709,-735 525,-735"/>
<text text-anchor="start" x="533" y="-753" font-family="Helvetica,sans-Serif" font-size="10.00">commands.expressionCommands.</text>
<text text-anchor="middle" x="617" y="-742" font-family="Helvetica,sans-Serif" font-size="10.00">ArcTanCommand.onExecute</text>
</a>
</g>
</g>
<!-- Node2&#45;&gt;Node3 -->
<g id="edge2" class="edge"><title>Node2&#45;&gt;Node3</title>
<path fill="none" stroke="midnightblue" d="M475.905,-750C492.263,-750 508.942,-750 524.82,-750"/>
<polygon fill="midnightblue" stroke="midnightblue" points="475.772,-746.5 465.772,-750 475.772,-753.5 475.772,-746.5"/>
</g>
<!-- Node4 -->
<g id="node4" class="node"><title>Node4</title>
<g id="a_node4"><a xlink:href="../../d0/d37/classcommands_1_1expression_commands_1_1_cos_command.html#a08f2a54400305f0e320ff49436012ef9" target="_top" xlink:title="commands.expressionCommands.\lCosCommand.onExecute">
<polygon fill="white" stroke="black" points="525,-686 525,-716 709,-716 709,-686 525,-686"/>
<text text-anchor="start" x="533" y="-704" font-family="Helvetica,sans-Serif" font-size="10.00">commands.expressionCommands.</text>
<text text-anchor="middle" x="617" y="-693" font-family="Helvetica,sans-Serif" font-size="10.00">CosCommand.onExecute</text>
</a>
</g>
</g>
<!-- Node2&#45;&gt;Node4 -->
<g id="edge3" class="edge"><title>Node2&#45;&gt;Node4</title>
<path fill="none" stroke="midnightblue" d="M451.261,-733.033C479.739,-727.495 511.142,-721.389 538.825,-716.006"/>
<polygon fill="midnightblue" stroke="midnightblue" points="450.469,-729.621 441.321,-734.965 451.805,-736.492 450.469,-729.621"/>
</g>
<!-- Node5 -->
<g id="node5" class="node"><title>Node5</title>
<g id="a_node5"><a xlink:href="../../de/d1a/classcommands_1_1expression_commands_1_1_natural_log_command.html#a7af697c759f4c376111387359d0f28d4" target="_top" xlink:title="commands.expressionCommands.\lNaturalLogCommand.onExecute">
<polygon fill="white" stroke="black" points="525,-637 525,-667 709,-667 709,-637 525,-637"/>
<text text-anchor="start" x="533" y="-655" font-family="Helvetica,sans-Serif" font-size="10.00">commands.expressionCommands.</text>
<text text-anchor="middle" x="617" y="-644" font-family="Helvetica,sans-Serif" font-size="10.00">NaturalLogCommand.onExecute</text>
</a>
</g>
</g>
<!-- Node2&#45;&gt;Node5 -->
<g id="edge4" class="edge"><title>Node2&#45;&gt;Node5</title>
<path fill="none" stroke="midnightblue" d="M401.247,-730.205C432.35,-714.256 478.195,-692.081 520,-677 530.044,-673.376 540.854,-670.042 551.47,-667.068"/>
<polygon fill="midnightblue" stroke="midnightblue" points="399.364,-727.238 392.089,-734.94 402.579,-733.457 399.364,-727.238"/>
</g>
<!-- Node6 -->
<g id="node6" class="node"><title>Node6</title>
<g id="a_node6"><a xlink:href="../../df/dc2/classcommands_1_1expression_commands_1_1_negative_command.html#ad4bbb5870d74da4060098a0f9bcba598" target="_top" xlink:title="commands.expressionCommands.\lNegativeCommand.onExecute">
<polygon fill="white" stroke="black" points="525,-588 525,-618 709,-618 709,-588 525,-588"/>
<text text-anchor="start" x="533" y="-606" font-family="Helvetica,sans-Serif" font-size="10.00">commands.expressionCommands.</text>
<text text-anchor="middle" x="617" y="-595" font-family="Helvetica,sans-Serif" font-size="10.00">NegativeCommand.onExecute</text>
</a>
</g>
</g>
<!-- Node2&#45;&gt;Node6 -->
<g id="edge5" class="edge"><title>Node2&#45;&gt;Node6</title>
<path fill="none" stroke="midnightblue" d="M386.321,-727.606C414.886,-700.191 467.038,-654.189 520,-628 527.796,-624.145 536.252,-620.838 544.805,-618.013"/>
<polygon fill="midnightblue" stroke="midnightblue" points="383.638,-725.333 378.909,-734.814 388.518,-730.352 383.638,-725.333"/>
</g>
<!-- Node7 -->
<g id="node7" class="node"><title>Node7</title>
<g id="a_node7"><a xlink:href="../../d4/d2f/classcommands_1_1expression_commands_1_1_not_command.html#a7549bfd622417338500cd46d0b1d9a18" target="_top" xlink:title="commands.expressionCommands.\lNotCommand.onExecute">
<polygon fill="white" stroke="black" points="525,-931 525,-961 709,-961 709,-931 525,-931"/>
<text text-anchor="start" x="533" y="-949" font-family="Helvetica,sans-Serif" font-size="10.00">commands.expressionCommands.</text>
<text text-anchor="middle" x="617" y="-938" font-family="Helvetica,sans-Serif" font-size="10.00">NotCommand.onExecute</text>
</a>
</g>
</g>
<!-- Node2&#45;&gt;Node7 -->
<g id="edge6" class="edge"><title>Node2&#45;&gt;Node7</title>
<path fill="none" stroke="midnightblue" d="M378.905,-773.677C403.585,-810.878 456.566,-882.717 520,-921 526.34,-924.827 533.259,-928.073 540.384,-930.826"/>
<polygon fill="midnightblue" stroke="midnightblue" points="381.645,-771.471 373.251,-765.006 375.781,-775.295 381.645,-771.471"/>
</g>
<!-- Node8 -->
<g id="node8" class="node"><title>Node8</title>
<g id="a_node8"><a xlink:href="../../da/d7f/classcommands_1_1expression_commands_1_1_random_integer_command.html#ad3a1214323763c581880606f92ef0d9a" target="_top" xlink:title="commands.expressionCommands.\lRandomIntegerCommand.onExecute">
<polygon fill="white" stroke="black" points="520,-882 520,-912 714,-912 714,-882 520,-882"/>
<text text-anchor="start" x="528" y="-900" font-family="Helvetica,sans-Serif" font-size="10.00">commands.expressionCommands.</text>
<text text-anchor="middle" x="617" y="-889" font-family="Helvetica,sans-Serif" font-size="10.00">RandomIntegerCommand.onExecute</text>
</a>
</g>
</g>
<!-- Node2&#45;&gt;Node8 -->
<g id="edge7" class="edge"><title>Node2&#45;&gt;Node8</title>
<path fill="none" stroke="midnightblue" d="M386.321,-772.394C414.886,-799.809 467.038,-845.811 520,-872 527.796,-875.855 536.252,-879.162 544.805,-881.987"/>
<polygon fill="midnightblue" stroke="midnightblue" points="388.518,-769.648 378.909,-765.186 383.638,-774.667 388.518,-769.648"/>
</g>
<!-- Node9 -->
<g id="node9" class="node"><title>Node9</title>
<g id="a_node9"><a xlink:href="../../d8/d1f/classcommands_1_1expression_commands_1_1_sin_command.html#aba8972357100305f00973d213d8b169e" target="_top" xlink:title="commands.expressionCommands.\lSinCommand.onExecute">
<polygon fill="white" stroke="black" points="525,-833 525,-863 709,-863 709,-833 525,-833"/>
<text text-anchor="start" x="533" y="-851" font-family="Helvetica,sans-Serif" font-size="10.00">commands.expressionCommands.</text>
<text text-anchor="middle" x="617" y="-840" font-family="Helvetica,sans-Serif" font-size="10.00">SinCommand.onExecute</text>
</a>
</g>
</g>
<!-- Node2&#45;&gt;Node9 -->
<g id="edge8" class="edge"><title>Node2&#45;&gt;Node9</title>
<path fill="none" stroke="midnightblue" d="M401.247,-769.795C432.35,-785.744 478.195,-807.919 520,-823 530.044,-826.624 540.854,-829.958 551.47,-832.932"/>
<polygon fill="midnightblue" stroke="midnightblue" points="402.579,-766.543 392.089,-765.06 399.364,-772.762 402.579,-766.543"/>
</g>
<!-- Node10 -->
<g id="node10" class="node"><title>Node10</title>
<g id="a_node10"><a xlink:href="../../d6/d9d/classcommands_1_1expression_commands_1_1_tan_command.html#ae3b6ac5c2fbba271f608058c1dcdf716" target="_top" xlink:title="commands.expressionCommands.\lTanCommand.onExecute">
<polygon fill="white" stroke="black" points="525,-784 525,-814 709,-814 709,-784 525,-784"/>
<text text-anchor="start" x="533" y="-802" font-family="Helvetica,sans-Serif" font-size="10.00">commands.expressionCommands.</text>
<text text-anchor="middle" x="617" y="-791" font-family="Helvetica,sans-Serif" font-size="10.00">TanCommand.onExecute</text>
</a>
</g>
</g>
<!-- Node2&#45;&gt;Node10 -->
<g id="edge9" class="edge"><title>Node2&#45;&gt;Node10</title>
<path fill="none" stroke="midnightblue" d="M451.261,-766.967C479.739,-772.505 511.142,-778.611 538.825,-783.994"/>
<polygon fill="midnightblue" stroke="midnightblue" points="451.805,-763.508 441.321,-765.035 450.469,-770.379 451.805,-763.508"/>
</g>
<!-- Node12 -->
<g id="node12" class="node"><title>Node12</title>
<g id="a_node12"><a xlink:href="../../d5/d45/classcommands_1_1expression_commands_1_1_and_command.html#a64c15f817ba98c82255a5cea84164ec4" target="_top" xlink:title="commands.expressionCommands.\lAndCommand.onExecute">
<polygon fill="white" stroke="black" points="525,-245 525,-275 709,-275 709,-245 525,-245"/>
<text text-anchor="start" x="533" y="-263" font-family="Helvetica,sans-Serif" font-size="10.00">commands.expressionCommands.</text>
<text text-anchor="middle" x="617" y="-252" font-family="Helvetica,sans-Serif" font-size="10.00">AndCommand.onExecute</text>
</a>
</g>
</g>
<!-- Node11&#45;&gt;Node12 -->
<g id="edge11" class="edge"><title>Node11&#45;&gt;Node12</title>
<path fill="none" stroke="midnightblue" d="M485.691,-260C498.874,-260 512.121,-260 524.852,-260"/>
<polygon fill="midnightblue" stroke="midnightblue" points="485.631,-256.5 475.631,-260 485.631,-263.5 485.631,-256.5"/>
</g>
<!-- Node13 -->
<g id="node13" class="node"><title>Node13</title>
<g id="a_node13"><a xlink:href="../../d2/dc4/classcommands_1_1expression_commands_1_1_difference_command.html#aed0667815a8c86e854342288a3812d55" target="_top" xlink:title="commands.expressionCommands.\lDifferenceCommand.onExecute">
<polygon fill="white" stroke="black" points="525,-196 525,-226 709,-226 709,-196 525,-196"/>
<text text-anchor="start" x="533" y="-214" font-family="Helvetica,sans-Serif" font-size="10.00">commands.expressionCommands.</text>
<text text-anchor="middle" x="617" y="-203" font-family="Helvetica,sans-Serif" font-size="10.00">DifferenceCommand.onExecute</text>
</a>
</g>
</g>
<!-- Node11&#45;&gt;Node13 -->
<g id="edge12" class="edge"><title>Node11&#45;&gt;Node13</title>
<path fill="none" stroke="midnightblue" d="M451.261,-243.033C479.739,-237.495 511.142,-231.389 538.825,-226.006"/>
<polygon fill="midnightblue" stroke="midnightblue" points="450.469,-239.621 441.321,-244.965 451.805,-246.492 450.469,-239.621"/>
</g>
<!-- Node14 -->
<g id="node14" class="node"><title>Node14</title>
<g id="a_node14"><a xlink:href="../../da/d77/classcommands_1_1expression_commands_1_1_equal_command.html#a58351f928dfc8864d37ebc046718a9a0" target="_top" xlink:title="commands.expressionCommands.\lEqualCommand.onExecute">
<polygon fill="white" stroke="black" points="525,-147 525,-177 709,-177 709,-147 525,-147"/>
<text text-anchor="start" x="533" y="-165" font-family="Helvetica,sans-Serif" font-size="10.00">commands.expressionCommands.</text>
<text text-anchor="middle" x="617" y="-154" font-family="Helvetica,sans-Serif" font-size="10.00">EqualCommand.onExecute</text>
</a>
</g>
</g>
<!-- Node11&#45;&gt;Node14 -->
<g id="edge13" class="edge"><title>Node11&#45;&gt;Node14</title>
<path fill="none" stroke="midnightblue" d="M400.608,-240.091C431.676,-223.82 477.802,-201.115 520,-186 529.138,-182.727 538.919,-179.729 548.613,-177.046"/>
<polygon fill="midnightblue" stroke="midnightblue" points="398.677,-237.152 391.471,-244.919 401.948,-243.342 398.677,-237.152"/>
</g>
<!-- Node15 -->
<g id="node15" class="node"><title>Node15</title>
<g id="a_node15"><a xlink:href="../../dd/d4b/classcommands_1_1expression_commands_1_1_exponent_command.html#afe241f6f8356833682997e16308ac072" target="_top" xlink:title="commands.expressionCommands.\lExponentCommand.onExecute">
<polygon fill="white" stroke="black" points="525,-98 525,-128 709,-128 709,-98 525,-98"/>
<text text-anchor="start" x="533" y="-116" font-family="Helvetica,sans-Serif" font-size="10.00">commands.expressionCommands.</text>
<text text-anchor="middle" x="617" y="-105" font-family="Helvetica,sans-Serif" font-size="10.00">ExponentCommand.onExecute</text>
</a>
</g>
</g>
<!-- Node11&#45;&gt;Node15 -->
<g id="edge14" class="edge"><title>Node11&#45;&gt;Node15</title>
<path fill="none" stroke="midnightblue" d="M386.243,-237.329C414.727,-209.594 466.797,-163.116 520,-137 527.017,-133.556 534.572,-130.577 542.253,-128.008"/>
<polygon fill="midnightblue" stroke="midnightblue" points="383.512,-235.107 378.853,-244.623 388.429,-240.09 383.512,-235.107"/>
</g>
<!-- Node16 -->
<g id="node16" class="node"><title>Node16</title>
<g id="a_node16"><a xlink:href="../../d8/d71/classcommands_1_1expression_commands_1_1_greater_command.html#a4c17886f7ceb9fd071648620741ea935" target="_top" xlink:title="commands.expressionCommands.\lGreaterCommand.onExecute">
<polygon fill="white" stroke="black" points="525,-49 525,-79 709,-79 709,-49 525,-49"/>
<text text-anchor="start" x="533" y="-67" font-family="Helvetica,sans-Serif" font-size="10.00">commands.expressionCommands.</text>
<text text-anchor="middle" x="617" y="-56" font-family="Helvetica,sans-Serif" font-size="10.00">GreaterCommand.onExecute</text>
</a>
</g>
</g>
<!-- Node11&#45;&gt;Node16 -->
<g id="edge15" class="edge"><title>Node11&#45;&gt;Node16</title>
<path fill="none" stroke="midnightblue" d="M378.826,-236.11C403.398,-198.586 456.231,-126.187 520,-88 525.748,-84.5578 531.973,-81.6074 538.396,-79.0788"/>
<polygon fill="midnightblue" stroke="midnightblue" points="375.666,-234.552 373.199,-244.856 381.553,-238.34 375.666,-234.552"/>
</g>
<!-- Node17 -->
<g id="node17" class="node"><title>Node17</title>
<g id="a_node17"><a xlink:href="../../dd/d4e/classcommands_1_1expression_commands_1_1_less_command.html#ab817c5b29b7e79fd3058fb97e5b2c7c4" target="_top" xlink:title="commands.expressionCommands.\lLessCommand.onExecute">
<polygon fill="white" stroke="black" points="525,-0 525,-30 709,-30 709,-0 525,-0"/>
<text text-anchor="start" x="533" y="-18" font-family="Helvetica,sans-Serif" font-size="10.00">commands.expressionCommands.</text>
<text text-anchor="middle" x="617" y="-7" font-family="Helvetica,sans-Serif" font-size="10.00">LessCommand.onExecute</text>
</a>
</g>
</g>
<!-- Node11&#45;&gt;Node17 -->
<g id="edge16" class="edge"><title>Node11&#45;&gt;Node17</title>
<path fill="none" stroke="midnightblue" d="M374.154,-235.634C394.607,-189.666 445.278,-90.1811 520,-39 524.961,-35.6021 530.359,-32.6847 535.984,-30.18"/>
<polygon fill="midnightblue" stroke="midnightblue" points="370.926,-234.282 370.143,-244.848 377.344,-237.076 370.926,-234.282"/>
</g>
<!-- Node18 -->
<g id="node18" class="node"><title>Node18</title>
<g id="a_node18"><a xlink:href="../../dd/d39/classcommands_1_1expression_commands_1_1_not_equal_command.html#a18a2d0b8c018ce099392258c82bd3c27" target="_top" xlink:title="commands.expressionCommands.\lNotEqualCommand.onExecute">
<polygon fill="white" stroke="black" points="525,-539 525,-569 709,-569 709,-539 525,-539"/>
<text text-anchor="start" x="533" y="-557" font-family="Helvetica,sans-Serif" font-size="10.00">commands.expressionCommands.</text>
<text text-anchor="middle" x="617" y="-546" font-family="Helvetica,sans-Serif" font-size="10.00">NotEqualCommand.onExecute</text>
</a>
</g>
</g>
<!-- Node11&#45;&gt;Node18 -->
<g id="edge17" class="edge"><title>Node11&#45;&gt;Node18</title>
<path fill="none" stroke="midnightblue" d="M480.169,-281.262C481.492,-282.451 482.771,-283.696 484,-285 559.195,-364.761 446.796,-447.407 520,-529 523.45,-532.846 527.41,-536.134 531.713,-538.941"/>
<polygon fill="midnightblue" stroke="midnightblue" points="482.19,-278.4 472.139,-275.05 477.907,-283.937 482.19,-278.4"/>
</g>
<!-- Node19 -->
<g id="node19" class="node"><title>Node19</title>
<g id="a_node19"><a xlink:href="../../d0/de5/classcommands_1_1expression_commands_1_1_or_command.html#a03a756c3604cb87db6efe23400d6fce5" target="_top" xlink:title="commands.expressionCommands.\lOrCommand.onExecute">
<polygon fill="white" stroke="black" points="525,-490 525,-520 709,-520 709,-490 525,-490"/>
<text text-anchor="start" x="533" y="-508" font-family="Helvetica,sans-Serif" font-size="10.00">commands.expressionCommands.</text>
<text text-anchor="middle" x="617" y="-497" font-family="Helvetica,sans-Serif" font-size="10.00">OrCommand.onExecute</text>
</a>
</g>
</g>
<!-- Node11&#45;&gt;Node19 -->
<g id="edge18" class="edge"><title>Node11&#45;&gt;Node19</title>
<path fill="none" stroke="midnightblue" d="M480.022,-281.253C481.394,-282.444 482.722,-283.692 484,-285 545.603,-348.026 459.972,-415.473 520,-480 523.519,-483.783 527.532,-487.023 531.874,-489.794"/>
<polygon fill="midnightblue" stroke="midnightblue" points="481.812,-278.221 471.707,-275.038 477.621,-283.828 481.812,-278.221"/>
</g>
<!-- Node20 -->
<g id="node20" class="node"><title>Node20</title>
<g id="a_node20"><a xlink:href="../../d0/de3/classcommands_1_1expression_commands_1_1_product_command.html#a49cec5366c5b91c50886782beba4474a" target="_top" xlink:title="commands.expressionCommands.\lProductCommand.onExecute">
<polygon fill="white" stroke="black" points="525,-441 525,-471 709,-471 709,-441 525,-441"/>
<text text-anchor="start" x="533" y="-459" font-family="Helvetica,sans-Serif" font-size="10.00">commands.expressionCommands.</text>
<text text-anchor="middle" x="617" y="-448" font-family="Helvetica,sans-Serif" font-size="10.00">ProductCommand.onExecute</text>
</a>
</g>
</g>
<!-- Node11&#45;&gt;Node20 -->
<g id="edge19" class="edge"><title>Node11&#45;&gt;Node20</title>
<path fill="none" stroke="midnightblue" d="M479.438,-280.971C481.012,-282.246 482.535,-283.587 484,-285 532.109,-331.391 473.051,-383.436 520,-431 523.751,-434.8 528.001,-438.046 532.574,-440.817"/>
<polygon fill="midnightblue" stroke="midnightblue" points="481.356,-278.041 471.165,-275.144 477.325,-283.764 481.356,-278.041"/>
</g>
<!-- Node21 -->
<g id="node21" class="node"><title>Node21</title>
<g id="a_node21"><a xlink:href="../../d2/d94/classcommands_1_1expression_commands_1_1_quotient_command.html#ad12555ef8163bd31f4e759a7ee5e8bd8" target="_top" xlink:title="commands.expressionCommands.\lQuotientCommand.onExecute">
<polygon fill="white" stroke="black" points="525,-392 525,-422 709,-422 709,-392 525,-392"/>
<text text-anchor="start" x="533" y="-410" font-family="Helvetica,sans-Serif" font-size="10.00">commands.expressionCommands.</text>
<text text-anchor="middle" x="617" y="-399" font-family="Helvetica,sans-Serif" font-size="10.00">QuotientCommand.onExecute</text>
</a>
</g>
</g>
<!-- Node11&#45;&gt;Node21 -->
<g id="edge20" class="edge"><title>Node11&#45;&gt;Node21</title>
<path fill="none" stroke="midnightblue" d="M478.389,-280.607C480.324,-281.987 482.198,-283.45 484,-285 518.861,-314.988 485.89,-351.16 520,-382 524.216,-385.812 528.94,-389.056 533.971,-391.816"/>
<polygon fill="midnightblue" stroke="midnightblue" points="479.874,-277.408 469.54,-275.075 476.164,-283.344 479.874,-277.408"/>
</g>
<!-- Node22 -->
<g id="node22" class="node"><title>Node22</title>
<g id="a_node22"><a xlink:href="../../d2/deb/classcommands_1_1expression_commands_1_1_remainder_command.html#a8794026bd6b3137d54d01444c8ab6694" target="_top" xlink:title="commands.expressionCommands.\lRemainderCommand.onExecute">
<polygon fill="white" stroke="black" points="525,-343 525,-373 709,-373 709,-343 525,-343"/>
<text text-anchor="start" x="533" y="-361" font-family="Helvetica,sans-Serif" font-size="10.00">commands.expressionCommands.</text>
<text text-anchor="middle" x="617" y="-350" font-family="Helvetica,sans-Serif" font-size="10.00">RemainderCommand.onExecute</text>
</a>
</g>
</g>
<!-- Node11&#45;&gt;Node22 -->
<g id="edge21" class="edge"><title>Node11&#45;&gt;Node22</title>
<path fill="none" stroke="midnightblue" d="M473.578,-279.146C477.174,-280.93 480.661,-282.877 484,-285 506.503,-299.308 497.857,-318.141 520,-333 525.72,-336.839 531.997,-340.088 538.516,-342.839"/>
<polygon fill="midnightblue" stroke="midnightblue" points="474.993,-275.945 464.437,-275.036 472.122,-282.329 474.993,-275.945"/>
</g>
<!-- Node23 -->
<g id="node23" class="node"><title>Node23</title>
<g id="a_node23"><a xlink:href="../../df/da8/classcommands_1_1expression_commands_1_1_sum_command.html#a3b21e5f3c1cd75ee176dc643df443756" target="_top" xlink:title="commands.expressionCommands.\lSumCommand.onExecute">
<polygon fill="white" stroke="black" points="525,-294 525,-324 709,-324 709,-294 525,-294"/>
<text text-anchor="start" x="533" y="-312" font-family="Helvetica,sans-Serif" font-size="10.00">commands.expressionCommands.</text>
<text text-anchor="middle" x="617" y="-301" font-family="Helvetica,sans-Serif" font-size="10.00">SumCommand.onExecute</text>
</a>
</g>
</g>
<!-- Node11&#45;&gt;Node23 -->
<g id="edge22" class="edge"><title>Node11&#45;&gt;Node23</title>
<path fill="none" stroke="midnightblue" d="M451.261,-276.967C479.739,-282.505 511.142,-288.611 538.825,-293.994"/>
<polygon fill="midnightblue" stroke="midnightblue" points="451.805,-273.508 441.321,-275.035 450.469,-280.379 451.805,-273.508"/>
</g>
<!-- Node24&#45;&gt;Node12 -->
<g id="edge24" class="edge"><title>Node24&#45;&gt;Node12</title>
<path fill="none" stroke="midnightblue" d="M451.261,-292.033C479.739,-286.495 511.142,-280.389 538.825,-275.006"/>
<polygon fill="midnightblue" stroke="midnightblue" points="450.469,-288.621 441.321,-293.965 451.805,-295.492 450.469,-288.621"/>
</g>
<!-- Node24&#45;&gt;Node13 -->
<g id="edge25" class="edge"><title>Node24&#45;&gt;Node13</title>
<path fill="none" stroke="midnightblue" d="M474.066,-289.665C477.491,-287.932 480.814,-286.048 484,-284 506.732,-269.388 497.561,-250.059 520,-235 525.135,-231.554 530.725,-228.602 536.539,-226.074"/>
<polygon fill="midnightblue" stroke="midnightblue" points="472.422,-286.567 464.783,-293.908 475.333,-292.934 472.422,-286.567"/>
</g>
<!-- Node24&#45;&gt;Node14 -->
<g id="edge26" class="edge"><title>Node24&#45;&gt;Node14</title>
<path fill="none" stroke="midnightblue" d="M478.396,-288.401C480.329,-287.019 482.2,-285.553 484,-284 519.126,-253.681 485.481,-217.008 520,-186 523.834,-182.556 528.088,-179.589 532.611,-177.036"/>
<polygon fill="midnightblue" stroke="midnightblue" points="476.169,-285.666 469.555,-293.943 479.887,-291.597 476.169,-285.666"/>
</g>
<!-- Node24&#45;&gt;Node15 -->
<g id="edge27" class="edge"><title>Node24&#45;&gt;Node15</title>
<path fill="none" stroke="midnightblue" d="M479.441,-288.032C481.014,-286.757 482.536,-285.414 484,-284 532.383,-237.271 472.552,-184.677 520,-137 523.393,-133.59 527.193,-130.64 531.269,-128.088"/>
<polygon fill="midnightblue" stroke="midnightblue" points="477.327,-285.24 471.172,-293.863 481.361,-290.961 477.327,-285.24"/>
</g>
<!-- Node24&#45;&gt;Node16 -->
<g id="edge28" class="edge"><title>Node24&#45;&gt;Node16</title>
<path fill="none" stroke="midnightblue" d="M480.023,-287.749C481.395,-286.557 482.722,-285.308 484,-284 545.879,-220.634 459.387,-152.579 520,-88 523.174,-84.6179 526.747,-81.6822 530.599,-79.1365"/>
<polygon fill="midnightblue" stroke="midnightblue" points="477.622,-285.174 471.711,-293.966 481.815,-290.779 477.622,-285.174"/>
</g>
<!-- Node24&#45;&gt;Node17 -->
<g id="edge29" class="edge"><title>Node24&#45;&gt;Node17</title>
<path fill="none" stroke="midnightblue" d="M480.17,-287.739C481.493,-286.55 482.771,-285.304 484,-284 559.473,-203.897 446.127,-120.581 520,-39 523.113,-35.5617 526.638,-32.5817 530.452,-30.0015"/>
<polygon fill="midnightblue" stroke="midnightblue" points="477.908,-285.064 472.142,-293.953 482.192,-290.6 477.908,-285.064"/>
</g>
<!-- Node24&#45;&gt;Node18 -->
<g id="edge30" class="edge"><title>Node24&#45;&gt;Node18</title>
<path fill="none" stroke="midnightblue" d="M374.231,-333.19C394.814,-378.837 445.699,-477.689 520,-529 525.527,-532.817 531.598,-536.051 537.919,-538.791"/>
<polygon fill="midnightblue" stroke="midnightblue" points="377.433,-331.776 370.192,-324.041 371.029,-334.603 377.433,-331.776"/>
</g>
<!-- Node24&#45;&gt;Node19 -->
<g id="edge31" class="edge"><title>Node24&#45;&gt;Node19</title>
<path fill="none" stroke="midnightblue" d="M378.905,-332.677C403.585,-369.878 456.566,-441.717 520,-480 526.34,-483.827 533.259,-487.073 540.384,-489.826"/>
<polygon fill="midnightblue" stroke="midnightblue" points="381.645,-330.471 373.251,-324.006 375.781,-334.295 381.645,-330.471"/>
</g>
<!-- Node24&#45;&gt;Node20 -->
<g id="edge32" class="edge"><title>Node24&#45;&gt;Node20</title>
<path fill="none" stroke="midnightblue" d="M386.321,-331.394C414.886,-358.809 467.038,-404.811 520,-431 527.796,-434.855 536.252,-438.162 544.805,-440.987"/>
<polygon fill="midnightblue" stroke="midnightblue" points="388.518,-328.648 378.909,-324.186 383.638,-333.667 388.518,-328.648"/>
</g>
<!-- Node24&#45;&gt;Node21 -->
<g id="edge33" class="edge"><title>Node24&#45;&gt;Node21</title>
<path fill="none" stroke="midnightblue" d="M401.247,-328.795C432.35,-344.744 478.195,-366.919 520,-382 530.044,-385.624 540.854,-388.958 551.47,-391.932"/>
<polygon fill="midnightblue" stroke="midnightblue" points="402.579,-325.543 392.089,-324.06 399.364,-331.762 402.579,-325.543"/>
</g>
<!-- Node24&#45;&gt;Node22 -->
<g id="edge34" class="edge"><title>Node24&#45;&gt;Node22</title>
<path fill="none" stroke="midnightblue" d="M451.261,-325.967C479.739,-331.505 511.142,-337.611 538.825,-342.994"/>
<polygon fill="midnightblue" stroke="midnightblue" points="451.805,-322.508 441.321,-324.035 450.469,-329.379 451.805,-322.508"/>
</g>
<!-- Node24&#45;&gt;Node23 -->
<g id="edge35" class="edge"><title>Node24&#45;&gt;Node23</title>
<path fill="none" stroke="midnightblue" d="M494.371,-309C504.644,-309 514.878,-309 524.8,-309"/>
<polygon fill="midnightblue" stroke="midnightblue" points="494.096,-305.5 484.096,-309 494.096,-312.5 494.096,-305.5"/>
</g>
</g>
</svg>
