<?xml version="1.0" encoding="UTF-8" standalone="no"?>
<!DOCTYPE svg PUBLIC "-//W3C//DTD SVG 1.1//EN"
 "http://www.w3.org/Graphics/SVG/1.1/DTD/svg11.dtd">
<!-- Generated by graphviz version 2.36.0 (20140111.2315)
 -->
<!-- Title: commands.expressionCommands.ExpressionCommand.parseArguments Pages: 1 -->
<!--zoomable 304 -->
<svg id="main" version="1.1" xmlns="http://www.w3.org/2000/svg" xmlns:xlink="http://www.w3.org/1999/xlink" xml:space="preserve" onload="init(evt)">
<style type="text/css"><![CDATA[
.edge:hover path { stroke: red; }
.edge:hover polygon { stroke: red; fill: red; }
]]></style>
<script type="text/javascript"><![CDATA[
var edges = document.getElementsByTagName('g');
if (edges && edges.length) {
  for (var i=0;i<edges.length;i++) {
    if (edges[i].id.substr(0,4)=='edge') {
      edges[i].setAttribute('class','edge');
    }
  }
}
]]></script>
        <defs>
                <circle id="rim" cx="0" cy="0" r="7"/>
                <circle id="rim2" cx="0" cy="0" r="3.5"/>
                <g id="zoomPlus">
                        <use xlink:href="#rim" fill="#404040">
                                <set attributeName="fill" to="#808080" begin="zoomplus.mouseover" end="zoomplus.mouseout"/>
                        </use>
                        <path d="M-4,0h8M0,-4v8" fill="none" stroke="white" stroke-width="1.5" pointer-events="none"/>
                </g>
                <g id="zoomMin">
                        <use xlink:href="#rim" fill="#404040">
                                <set attributeName="fill" to="#808080" begin="zoomminus.mouseover" end="zoomminus.mouseout"/>
                        </use>
                        <path d="M-4,0h8" fill="none" stroke="white" stroke-width="1.5" pointer-events="none"/>
                </g>
                <g id="dirArrow">
                        <path fill="none" stroke="white" stroke-width="1.5" d="M0,-3.0v7 M-2.5,-0.5L0,-3.0L2.5,-0.5"/>
                </g>
               <g id="resetDef">
                       <use xlink:href="#rim2" fill="#404040">
                               <set attributeName="fill" to="#808080" begin="reset.mouseover" end="reset.mouseout"/>
                       </use>
               </g>
        </defs>

<script type="text/javascript">
var viewWidth = 1192;
var viewHeight = 304;
var sectionId = 'dynsection-4';
</script>
<script xlink:href="../../svgpan.js"/>
<svg id="graph" class="graph">
<g id="viewport">
<title>commands.expressionCommands.ExpressionCommand.parseArguments</title>
<polygon fill="white" stroke="none" points="-4,4 -4,-300 1188,-300 1188,4 -4,4"/>
<!-- Node1 -->
<g id="node1" class="node"><title>Node1</title>
<polygon fill="#bfbfbf" stroke="black" points="0,-127 0,-157 202,-157 202,-127 0,-127"/>
<text text-anchor="start" x="8" y="-145" font-family="Helvetica,sans-Serif" font-size="10.00">commands.expressionCommands.</text>
<text text-anchor="middle" x="101" y="-134" font-family="Helvetica,sans-Serif" font-size="10.00">ExpressionCommand.parseArguments</text>
</g>
<!-- Node2 -->
<g id="node2" class="node"><title>Node2</title>
<g id="a_node2"><a xlink:href="../../da/dc6/classcommand_parser_1_1_command_factory.html#a84097b97d8a8ff95b3118ebddff9f33a" target="_top" xlink:title="commandParser.CommandFactory.create\lCommand">
<polygon fill="white" stroke="black" points="488.5,-125 488.5,-155 703.5,-155 703.5,-125 488.5,-125"/>
<text text-anchor="start" x="496.5" y="-143" font-family="Helvetica,sans-Serif" font-size="10.00">commandParser.CommandFactory.create</text>
<text text-anchor="middle" x="596" y="-132" font-family="Helvetica,sans-Serif" font-size="10.00">Command</text>
</a>
</g>
</g>
<!-- Node1&#45;&gt;Node2 -->
<g id="edge1" class="edge"><title>Node1&#45;&gt;Node2</title>
<path fill="none" stroke="midnightblue" d="M133.838,-157.034C160.867,-168.918 201.04,-184.545 238,-191 331.693,-207.364 358.281,-207.212 452,-191 487.314,-184.891 525.456,-170.885 553.459,-159.093"/>
<polygon fill="midnightblue" stroke="midnightblue" points="555.112,-162.192 562.92,-155.031 552.35,-155.76 555.112,-162.192"/>
</g>
<!-- Node10 -->
<g id="node10" class="node"><title>Node10</title>
<g id="a_node10"><a xlink:href="../../dc/d85/classcommands_1_1expression_commands_1_1_expression_command.html#a3fa220b66c8205870f676ca5e491684b" target="_top" xlink:title="commands.expressionCommands.\lExpressionCommand.getArgumentCount">
<polygon fill="white" stroke="black" points="238,-152 238,-182 452,-182 452,-152 238,-152"/>
<text text-anchor="start" x="246" y="-170" font-family="Helvetica,sans-Serif" font-size="10.00">commands.expressionCommands.</text>
<text text-anchor="middle" x="345" y="-159" font-family="Helvetica,sans-Serif" font-size="10.00">ExpressionCommand.getArgumentCount</text>
</a>
</g>
</g>
<!-- Node1&#45;&gt;Node10 -->
<g id="edge9" class="edge"><title>Node1&#45;&gt;Node10</title>
<path fill="none" stroke="midnightblue" d="M202.178,-152.349C210.589,-153.218 219.139,-154.101 227.658,-154.981"/>
<polygon fill="midnightblue" stroke="midnightblue" points="227.327,-158.466 237.634,-156.012 228.046,-151.503 227.327,-158.466"/>
</g>
<!-- Node11 -->
<g id="node11" class="node"><title>Node11</title>
<g id="a_node11"><a xlink:href="../../da/d90/classcommands_1_1_base_command.html#a85767c9546674c964eac77bb7d67e253" target="_top" xlink:title="commands.BaseCommand.get\lLeftoverString">
<polygon fill="white" stroke="black" points="261.5,-103 261.5,-133 428.5,-133 428.5,-103 261.5,-103"/>
<text text-anchor="start" x="269.5" y="-121" font-family="Helvetica,sans-Serif" font-size="10.00">commands.BaseCommand.get</text>
<text text-anchor="middle" x="345" y="-110" font-family="Helvetica,sans-Serif" font-size="10.00">LeftoverString</text>
</a>
</g>
</g>
<!-- Node1&#45;&gt;Node11 -->
<g id="edge10" class="edge"><title>Node1&#45;&gt;Node11</title>
<path fill="none" stroke="midnightblue" d="M202.178,-132.065C218.284,-130.468 234.898,-128.82 250.831,-127.24"/>
<polygon fill="midnightblue" stroke="midnightblue" points="251.586,-130.682 261.191,-126.212 250.895,-123.716 251.586,-130.682"/>
</g>
<!-- Node12 -->
<g id="node12" class="node"><title>Node12</title>
<g id="a_node12"><a xlink:href="../../da/d90/classcommands_1_1_base_command.html#a4f771af3c6b3345e720f2ef455e6d1e2" target="_top" xlink:title="commands.BaseCommand.set\lLeftoverCommands">
<polygon fill="white" stroke="black" points="262,-54 262,-84 428,-84 428,-54 262,-54"/>
<text text-anchor="start" x="270" y="-72" font-family="Helvetica,sans-Serif" font-size="10.00">commands.BaseCommand.set</text>
<text text-anchor="middle" x="345" y="-61" font-family="Helvetica,sans-Serif" font-size="10.00">LeftoverCommands</text>
</a>
</g>
</g>
<!-- Node1&#45;&gt;Node12 -->
<g id="edge11" class="edge"><title>Node1&#45;&gt;Node12</title>
<path fill="none" stroke="midnightblue" d="M139.982,-126.893C167.03,-116.486 204.395,-102.818 238,-93 245.876,-90.6991 254.134,-88.4875 262.418,-86.4011"/>
<polygon fill="midnightblue" stroke="midnightblue" points="263.259,-89.7987 272.133,-84.0115 261.587,-83.0013 263.259,-89.7987"/>
</g>
<!-- Node3 -->
<g id="node3" class="node"><title>Node3</title>
<g id="a_node3"><a xlink:href="../../d4/d05/classcommands_1_1information_1_1_base_user_defined_container.html#abbef8e1f3137aa92b5ca708b18981aac" target="_top" xlink:title="commands.information.Base\lUserDefinedContainer.containsCustom\lCommand">
<polygon fill="white" stroke="black" points="747.5,-254.5 747.5,-295.5 950.5,-295.5 950.5,-254.5 747.5,-254.5"/>
<text text-anchor="start" x="755.5" y="-283.5" font-family="Helvetica,sans-Serif" font-size="10.00">commands.information.Base</text>
<text text-anchor="start" x="755.5" y="-272.5" font-family="Helvetica,sans-Serif" font-size="10.00">UserDefinedContainer.containsCustom</text>
<text text-anchor="middle" x="849" y="-261.5" font-family="Helvetica,sans-Serif" font-size="10.00">Command</text>
</a>
</g>
</g>
<!-- Node2&#45;&gt;Node3 -->
<g id="edge2" class="edge"><title>Node2&#45;&gt;Node3</title>
<path fill="none" stroke="midnightblue" d="M613.299,-155.109C638.572,-177.771 689.577,-220.509 740,-245 744.261,-247.07 748.689,-249.017 753.212,-250.847"/>
<polygon fill="midnightblue" stroke="midnightblue" points="752.019,-254.138 762.609,-254.438 754.518,-247.599 752.019,-254.138"/>
</g>
<!-- Node5 -->
<g id="node5" class="node"><title>Node5</title>
<g id="a_node5"><a xlink:href="../../dd/df5/interfacecommands_1_1information_1_1_i_information_gateway.html#a7288ceac89a0755490d929dc28df39f0" target="_top" xlink:title="commands.information.IInformation\lGateway.getContainers">
<polygon fill="white" stroke="black" points="755,-206 755,-236 943,-236 943,-206 755,-206"/>
<text text-anchor="start" x="763" y="-224" font-family="Helvetica,sans-Serif" font-size="10.00">commands.information.IInformation</text>
<text text-anchor="middle" x="849" y="-213" font-family="Helvetica,sans-Serif" font-size="10.00">Gateway.getContainers</text>
</a>
</g>
</g>
<!-- Node2&#45;&gt;Node5 -->
<g id="edge4" class="edge"><title>Node2&#45;&gt;Node5</title>
<path fill="none" stroke="midnightblue" d="M631.174,-155.011C659.835,-167.204 702.052,-184.246 740,-196 748.573,-198.655 757.606,-201.173 766.648,-203.515"/>
<polygon fill="midnightblue" stroke="midnightblue" points="765.888,-206.933 776.441,-205.985 767.601,-200.145 765.888,-206.933"/>
</g>
<!-- Node6 -->
<g id="node6" class="node"><title>Node6</title>
<g id="a_node6"><a xlink:href="../../d4/d05/classcommands_1_1information_1_1_base_user_defined_container.html#a22a65948b69ed0032f4d904e13c69491" target="_top" xlink:title="commands.information.Base\lUserDefinedContainer.getCreated\lCommand">
<polygon fill="white" stroke="black" points="759.5,-146.5 759.5,-187.5 938.5,-187.5 938.5,-146.5 759.5,-146.5"/>
<text text-anchor="start" x="767.5" y="-175.5" font-family="Helvetica,sans-Serif" font-size="10.00">commands.information.Base</text>
<text text-anchor="start" x="767.5" y="-164.5" font-family="Helvetica,sans-Serif" font-size="10.00">UserDefinedContainer.getCreated</text>
<text text-anchor="middle" x="849" y="-153.5" font-family="Helvetica,sans-Serif" font-size="10.00">Command</text>
</a>
</g>
</g>
<!-- Node2&#45;&gt;Node6 -->
<g id="edge5" class="edge"><title>Node2&#45;&gt;Node6</title>
<path fill="none" stroke="midnightblue" d="M703.811,-151.49C718.88,-153.111 734.317,-154.771 749.226,-156.375"/>
<polygon fill="midnightblue" stroke="midnightblue" points="749.135,-159.885 759.452,-157.475 749.884,-152.925 749.135,-159.885"/>
</g>
<!-- Node7 -->
<g id="node7" class="node"><title>Node7</title>
<g id="a_node7"><a xlink:href="../../da/d90/classcommands_1_1_base_command.html#a03dca0b542f5be4aa804297cea2688b5" target="_top" xlink:title="commands.BaseCommand.get\lRequiredInformationTypes">
<polygon fill="white" stroke="black" points="765.5,-98 765.5,-128 932.5,-128 932.5,-98 765.5,-98"/>
<text text-anchor="start" x="773.5" y="-116" font-family="Helvetica,sans-Serif" font-size="10.00">commands.BaseCommand.get</text>
<text text-anchor="middle" x="849" y="-105" font-family="Helvetica,sans-Serif" font-size="10.00">RequiredInformationTypes</text>
</a>
</g>
</g>
<!-- Node2&#45;&gt;Node7 -->
<g id="edge6" class="edge"><title>Node2&#45;&gt;Node7</title>
<path fill="none" stroke="midnightblue" d="M703.811,-128.51C720.827,-126.68 738.312,-124.799 754.977,-123.006"/>
<polygon fill="midnightblue" stroke="midnightblue" points="755.668,-126.452 765.236,-121.903 754.919,-119.493 755.668,-126.452"/>
</g>
<!-- Node8 -->
<g id="node8" class="node"><title>Node8</title>
<g id="a_node8"><a xlink:href="../../da/dc6/classcommand_parser_1_1_command_factory.html#a5c750e1a1a32bd314bf662dd5cfdc951" target="_top" xlink:title="commandParser.CommandFactory.identify\lFirstCommand">
<polygon fill="white" stroke="black" points="740,-49 740,-79 958,-79 958,-49 740,-49"/>
<text text-anchor="start" x="748" y="-67" font-family="Helvetica,sans-Serif" font-size="10.00">commandParser.CommandFactory.identify</text>
<text text-anchor="middle" x="849" y="-56" font-family="Helvetica,sans-Serif" font-size="10.00">FirstCommand</text>
</a>
</g>
</g>
<!-- Node2&#45;&gt;Node8 -->
<g id="edge7" class="edge"><title>Node2&#45;&gt;Node8</title>
<path fill="none" stroke="midnightblue" d="M634.193,-124.964C662.799,-113.771 703.481,-98.6486 740,-88 747.886,-85.7006 756.151,-83.4997 764.448,-81.4286"/>
<polygon fill="midnightblue" stroke="midnightblue" points="765.295,-84.8248 774.183,-79.0587 763.639,-78.0235 765.295,-84.8248"/>
</g>
<!-- Node9 -->
<g id="node9" class="node"><title>Node9</title>
<g id="a_node9"><a xlink:href="../../da/d90/classcommands_1_1_base_command.html#aa64b92d5d7753574941c38218a271b0d" target="_top" xlink:title="commands.BaseCommand.set\lRequiredInformation">
<polygon fill="white" stroke="black" points="766,-0 766,-30 932,-30 932,-0 766,-0"/>
<text text-anchor="start" x="774" y="-18" font-family="Helvetica,sans-Serif" font-size="10.00">commands.BaseCommand.set</text>
<text text-anchor="middle" x="849" y="-7" font-family="Helvetica,sans-Serif" font-size="10.00">RequiredInformation</text>
</a>
</g>
</g>
<!-- Node2&#45;&gt;Node9 -->
<g id="edge8" class="edge"><title>Node2&#45;&gt;Node9</title>
<path fill="none" stroke="midnightblue" d="M613.677,-124.808C639.04,-102.539 689.696,-61.2717 740,-39 745.104,-36.7401 750.441,-34.684 755.893,-32.8146"/>
<polygon fill="midnightblue" stroke="midnightblue" points="757.344,-36.0255 765.804,-29.6475 755.213,-29.3577 757.344,-36.0255"/>
</g>
<!-- Node4 -->
<g id="node4" class="node"><title>Node4</title>
<g id="a_node4"><a xlink:href="../../d4/d05/classcommands_1_1information_1_1_base_user_defined_container.html#a2c1da98631c577bddaaa7f4ad5ae8aaa" target="_top" xlink:title="commands.information.Base\lUserDefinedContainer.getAllCustom\lCommands">
<polygon fill="white" stroke="black" points="994.5,-254.5 994.5,-295.5 1183.5,-295.5 1183.5,-254.5 994.5,-254.5"/>
<text text-anchor="start" x="1002.5" y="-283.5" font-family="Helvetica,sans-Serif" font-size="10.00">commands.information.Base</text>
<text text-anchor="start" x="1002.5" y="-272.5" font-family="Helvetica,sans-Serif" font-size="10.00">UserDefinedContainer.getAllCustom</text>
<text text-anchor="middle" x="1089" y="-261.5" font-family="Helvetica,sans-Serif" font-size="10.00">Commands</text>
</a>
</g>
</g>
<!-- Node3&#45;&gt;Node4 -->
<g id="edge3" class="edge"><title>Node3&#45;&gt;Node4</title>
<path fill="none" stroke="midnightblue" d="M950.588,-275C961.662,-275 972.953,-275 984.065,-275"/>
<polygon fill="midnightblue" stroke="midnightblue" points="984.21,-278.5 994.21,-275 984.21,-271.5 984.21,-278.5"/>
</g>
<!-- Node12&#45;&gt;Node2 -->
<g id="edge12" class="edge"><title>Node12&#45;&gt;Node2</title>
<path fill="none" stroke="midnightblue" d="M416.651,-84.0136C428.501,-86.8125 440.635,-89.8533 452,-93 482.506,-101.446 516.157,-112.422 543.148,-121.642"/>
<polygon fill="midnightblue" stroke="midnightblue" points="542.178,-125.009 552.773,-124.952 544.454,-118.39 542.178,-125.009"/>
</g>
</g>
</svg>
        <g id="navigator" transform="translate(0 0)" fill="#404254">
                <rect fill="#f2f5e9" fill-opacity="0.5" stroke="#606060" stroke-width=".5" x="0" y="0" width="60" height="60"/>
                <use id="zoomplus" xlink:href="#zoomPlus" x="17" y="9" onmousedown="handleZoom(evt,'in')"/>
                <use id="zoomminus" xlink:href="#zoomMin" x="42" y="9" onmousedown="handleZoom(evt,'out')"/>
                <use id="reset" xlink:href="#resetDef" x="30" y="36" onmousedown="handleReset()"/>
                <g id="arrowUp" xlink:href="#dirArrow" transform="translate(30 24)" onmousedown="handlePan(0,-1)">
                  <use xlink:href="#rim" fill="#404040">
                        <set attributeName="fill" to="#808080" begin="arrowUp.mouseover" end="arrowUp.mouseout"/>
                  </use>
                  <path fill="none" stroke="white" stroke-width="1.5" d="M0,-3.0v7 M-2.5,-0.5L0,-3.0L2.5,-0.5"/>
                </g>
                <g id="arrowRight" xlink:href="#dirArrow" transform="rotate(90) translate(36 -43)" onmousedown="handlePan(1,0)">
                  <use xlink:href="#rim" fill="#404040">
                        <set attributeName="fill" to="#808080" begin="arrowRight.mouseover" end="arrowRight.mouseout"/>
                  </use>
                  <path fill="none" stroke="white" stroke-width="1.5" d="M0,-3.0v7 M-2.5,-0.5L0,-3.0L2.5,-0.5"/>
                </g>
                <g id="arrowDown" xlink:href="#dirArrow" transform="rotate(180) translate(-30 -48)" onmousedown="handlePan(0,1)">
                  <use xlink:href="#rim" fill="#404040">
                        <set attributeName="fill" to="#808080" begin="arrowDown.mouseover" end="arrowDown.mouseout"/>
                  </use>
                  <path fill="none" stroke="white" stroke-width="1.5" d="M0,-3.0v7 M-2.5,-0.5L0,-3.0L2.5,-0.5"/>
                </g>
                <g id="arrowLeft" xlink:href="#dirArrow" transform="rotate(270) translate(-36 17)" onmousedown="handlePan(-1,0)">
                  <use xlink:href="#rim" fill="#404040">
                        <set attributeName="fill" to="#808080" begin="arrowLeft.mouseover" end="arrowLeft.mouseout"/>
                  </use>
                  <path fill="none" stroke="white" stroke-width="1.5" d="M0,-3.0v7 M-2.5,-0.5L0,-3.0L2.5,-0.5"/>
                </g>
        </g>
        <svg viewBox="0 0 15 15" width="100%" height="30px" preserveAspectRatio="xMaxYMin meet">
         <g id="arrow_out" transform="scale(0.3 0.3)">
          <a xlink:href="classcommands_1_1expression_commands_1_1_expression_command_a9ffd4f1b02e5a4c89a2d7ae9f0ecce20_cgraph_org.svg" target="_base">
           <rect id="button" ry="5" rx="5" y="6" x="6" height="38" width="38"
                fill="#f2f5e9" fill-opacity="0.5" stroke="#606060" stroke-width="1.0"/>
           <path id="arrow"
             d="M 11.500037,31.436501 C 11.940474,20.09759 22.043105,11.32322 32.158766,21.979434 L 37.068811,17.246167 C 37.068811,17.246167 37.088388,32 37.088388,32 L 22.160133,31.978069 C 22.160133,31.978069 26.997745,27.140456 26.997745,27.140456 C 18.528582,18.264221 13.291696,25.230495 11.500037,31.436501 z"
             style="fill:#404040;"/>
          </a>
         </g>
        </svg>
</svg>
