<?xml version="1.0" encoding="UTF-8" standalone="no"?>
<!DOCTYPE svg PUBLIC "-//W3C//DTD SVG 1.1//EN"
 "http://www.w3.org/Graphics/SVG/1.1/DTD/svg11.dtd">
<!-- Generated by graphviz version 2.36.0 (20140111.2315)
 -->
<!-- Title: GUIFunctions.BorderStyle.getStyle Pages: 1 -->
<svg width="1728pt" height="126pt"
 viewBox="0.00 0.00 1728.00 126.00" xmlns="http://www.w3.org/2000/svg" xmlns:xlink="http://www.w3.org/1999/xlink">
<g id="graph0" class="graph" transform="scale(1 1) rotate(0) translate(4 122)">
<title>GUIFunctions.BorderStyle.getStyle</title>
<polygon fill="white" stroke="none" points="-4,4 -4,-122 1724,-122 1724,4 -4,4"/>
<!-- Node1 -->
<g id="node1" class="node"><title>Node1</title>
<polygon fill="#bfbfbf" stroke="black" points="0.5,-27 0.5,-57 157.5,-57 157.5,-27 0.5,-27"/>
<text text-anchor="start" x="8.5" y="-45" font-family="Helvetica,sans-Serif" font-size="10.00">GUIFunctions.BorderStyle.get</text>
<text text-anchor="middle" x="79" y="-34" font-family="Helvetica,sans-Serif" font-size="10.00">Style</text>
</g>
<!-- Node2 -->
<g id="node2" class="node"><title>Node2</title>
<g id="a_node2"><a xlink:href="../../dc/d19/class_view_1_1_pen.html#ad2b5fd226e4003bbb48f13018bc72916" target="_top" xlink:title="View.Pen.setLineStyle">
<polygon fill="white" stroke="black" points="194,-32.5 194,-51.5 314,-51.5 314,-32.5 194,-32.5"/>
<text text-anchor="middle" x="254" y="-39.5" font-family="Helvetica,sans-Serif" font-size="10.00">View.Pen.setLineStyle</text>
</a>
</g>
</g>
<!-- Node1&#45;&gt;Node2 -->
<g id="edge1" class="edge"><title>Node1&#45;&gt;Node2</title>
<path fill="none" stroke="midnightblue" d="M167.91,-42C176.666,-42 185.402,-42 193.761,-42"/>
<polygon fill="midnightblue" stroke="midnightblue" points="167.644,-38.5001 157.644,-42 167.644,-45.5001 167.644,-38.5001"/>
</g>
<!-- Node3 -->
<g id="node3" class="node"><title>Node3</title>
<g id="a_node3"><a xlink:href="../../dc/d19/class_view_1_1_pen.html#a9baa63a91f8cd62a806147fdeaf44865" target="_top" xlink:title="View.Pen.drawLine">
<polygon fill="white" stroke="black" points="350,-32.5 350,-51.5 454,-51.5 454,-32.5 350,-32.5"/>
<text text-anchor="middle" x="402" y="-39.5" font-family="Helvetica,sans-Serif" font-size="10.00">View.Pen.drawLine</text>
</a>
</g>
</g>
<!-- Node2&#45;&gt;Node3 -->
<g id="edge2" class="edge"><title>Node2&#45;&gt;Node3</title>
<path fill="none" stroke="midnightblue" d="M324.607,-42C333.037,-42 341.528,-42 349.629,-42"/>
<polygon fill="midnightblue" stroke="midnightblue" points="324.384,-38.5001 314.384,-42 324.384,-45.5001 324.384,-38.5001"/>
</g>
<!-- Node4 -->
<g id="node4" class="node"><title>Node4</title>
<g id="a_node4"><a xlink:href="../../d9/db1/class_view_1_1_single_grid.html#a9093eac50d88370f86cb4757b996210e" target="_top" xlink:title="View.SingleGrid.keepTurtle\lInBounds">
<polygon fill="white" stroke="black" points="490.5,-27 490.5,-57 631.5,-57 631.5,-27 490.5,-27"/>
<text text-anchor="start" x="498.5" y="-45" font-family="Helvetica,sans-Serif" font-size="10.00">View.SingleGrid.keepTurtle</text>
<text text-anchor="middle" x="561" y="-34" font-family="Helvetica,sans-Serif" font-size="10.00">InBounds</text>
</a>
</g>
</g>
<!-- Node3&#45;&gt;Node4 -->
<g id="edge3" class="edge"><title>Node3&#45;&gt;Node4</title>
<path fill="none" stroke="midnightblue" d="M464.526,-42C472.956,-42 481.66,-42 490.223,-42"/>
<polygon fill="midnightblue" stroke="midnightblue" points="464.408,-38.5001 454.408,-42 464.408,-45.5001 464.408,-38.5001"/>
</g>
<!-- Node5 -->
<g id="node5" class="node"><title>Node5</title>
<g id="a_node5"><a xlink:href="../../d9/db1/class_view_1_1_single_grid.html#aa718e560e84ad31be3e046029d0226ab" target="_top" xlink:title="View.SingleGrid.update">
<polygon fill="white" stroke="black" points="677,-54.5 677,-73.5 803,-73.5 803,-54.5 677,-54.5"/>
<text text-anchor="middle" x="740" y="-61.5" font-family="Helvetica,sans-Serif" font-size="10.00">View.SingleGrid.update</text>
</a>
</g>
</g>
<!-- Node4&#45;&gt;Node5 -->
<g id="edge4" class="edge"><title>Node4&#45;&gt;Node5</title>
<path fill="none" stroke="midnightblue" d="M641.921,-51.9337C653.633,-53.3895 665.548,-54.8704 676.835,-56.2732"/>
<polygon fill="midnightblue" stroke="midnightblue" points="642.056,-48.4237 631.701,-50.6634 641.193,-55.3702 642.056,-48.4237"/>
</g>
<!-- Node10 -->
<g id="node10" class="node"><title>Node10</title>
<g id="a_node10"><a xlink:href="../../d9/db1/class_view_1_1_single_grid.html#a4c6eabf92c3205a22dc266cf0923f836" target="_top" xlink:title="View.SingleGrid.keyUpdate">
<polygon fill="white" stroke="black" points="668,-11.5 668,-30.5 812,-30.5 812,-11.5 668,-11.5"/>
<text text-anchor="middle" x="740" y="-18.5" font-family="Helvetica,sans-Serif" font-size="10.00">View.SingleGrid.keyUpdate</text>
</a>
</g>
</g>
<!-- Node4&#45;&gt;Node10 -->
<g id="edge9" class="edge"><title>Node4&#45;&gt;Node10</title>
<path fill="none" stroke="midnightblue" d="M641.833,-32.5282C650.526,-31.4969 659.331,-30.4522 667.909,-29.4345"/>
<polygon fill="midnightblue" stroke="midnightblue" points="641.219,-29.0765 631.701,-33.7304 642.044,-36.0277 641.219,-29.0765"/>
</g>
<!-- Node6 -->
<g id="node6" class="node"><title>Node6</title>
<g id="a_node6"><a xlink:href="../../d1/de7/class_g_u_i_functions_1_1_undo.html#a611c153735c5cbdbbfd8f55faa0adaae" target="_top" xlink:title="GUIFunctions.Undo.doAction">
<polygon fill="white" stroke="black" points="856,-98.5 856,-117.5 1008,-117.5 1008,-98.5 856,-98.5"/>
<text text-anchor="middle" x="932" y="-105.5" font-family="Helvetica,sans-Serif" font-size="10.00">GUIFunctions.Undo.doAction</text>
</a>
</g>
</g>
<!-- Node5&#45;&gt;Node6 -->
<g id="edge5" class="edge"><title>Node5&#45;&gt;Node6</title>
<path fill="none" stroke="midnightblue" d="M792.285,-75.8764C822.891,-82.9642 861.239,-91.8448 889.853,-98.4713"/>
<polygon fill="midnightblue" stroke="midnightblue" points="792.759,-72.3937 782.227,-73.5473 791.18,-79.2133 792.759,-72.3937"/>
</g>
<!-- Node7 -->
<g id="node7" class="node"><title>Node7</title>
<g id="a_node7"><a xlink:href="../../d3/d42/class_table_information_1_1_turtle_variables_table.html#a12ef059be78468fe0f09b5bf41d11d4c" target="_top" xlink:title="TableInformation.TurtleVariables\lTable.moveTurtle">
<polygon fill="white" stroke="black" points="848.5,-49 848.5,-79 1015.5,-79 1015.5,-49 848.5,-49"/>
<text text-anchor="start" x="856.5" y="-67" font-family="Helvetica,sans-Serif" font-size="10.00">TableInformation.TurtleVariables</text>
<text text-anchor="middle" x="932" y="-56" font-family="Helvetica,sans-Serif" font-size="10.00">Table.moveTurtle</text>
</a>
</g>
</g>
<!-- Node5&#45;&gt;Node7 -->
<g id="edge6" class="edge"><title>Node5&#45;&gt;Node7</title>
<path fill="none" stroke="midnightblue" d="M813.502,-64C824.868,-64 836.689,-64 848.263,-64"/>
<polygon fill="midnightblue" stroke="midnightblue" points="813.213,-60.5001 803.213,-64 813.213,-67.5001 813.213,-60.5001"/>
</g>
<!-- Node8 -->
<g id="node8" class="node"><title>Node8</title>
<g id="a_node8"><a xlink:href="../../d3/d42/class_table_information_1_1_turtle_variables_table.html#a3a32e6fd761411925b48c0fa60c29431" target="_top" xlink:title="TableInformation.TurtleVariables\lTable.setColumnEditable">
<polygon fill="white" stroke="black" points="1052.5,-49 1052.5,-79 1219.5,-79 1219.5,-49 1052.5,-49"/>
<text text-anchor="start" x="1060.5" y="-67" font-family="Helvetica,sans-Serif" font-size="10.00">TableInformation.TurtleVariables</text>
<text text-anchor="middle" x="1136" y="-56" font-family="Helvetica,sans-Serif" font-size="10.00">Table.setColumnEditable</text>
</a>
</g>
</g>
<!-- Node7&#45;&gt;Node8 -->
<g id="edge7" class="edge"><title>Node7&#45;&gt;Node8</title>
<path fill="none" stroke="midnightblue" d="M1026.02,-64C1034.82,-64 1043.69,-64 1052.38,-64"/>
<polygon fill="midnightblue" stroke="midnightblue" points="1025.74,-60.5001 1015.74,-64 1025.74,-67.5001 1025.74,-60.5001"/>
</g>
<!-- Node9 -->
<g id="node9" class="node"><title>Node9</title>
<g id="a_node9"><a xlink:href="../../d3/d42/class_table_information_1_1_turtle_variables_table.html#a6bac7fbbffde239e6438ea163f812b08" target="_top" xlink:title="TableInformation.TurtleVariables\lTable.TurtleVariablesTable">
<polygon fill="white" stroke="black" points="1256.5,-49 1256.5,-79 1423.5,-79 1423.5,-49 1256.5,-49"/>
<text text-anchor="start" x="1264.5" y="-67" font-family="Helvetica,sans-Serif" font-size="10.00">TableInformation.TurtleVariables</text>
<text text-anchor="middle" x="1340" y="-56" font-family="Helvetica,sans-Serif" font-size="10.00">Table.TurtleVariablesTable</text>
</a>
</g>
</g>
<!-- Node8&#45;&gt;Node9 -->
<g id="edge8" class="edge"><title>Node8&#45;&gt;Node9</title>
<path fill="none" stroke="midnightblue" d="M1230.02,-64C1238.82,-64 1247.69,-64 1256.38,-64"/>
<polygon fill="midnightblue" stroke="midnightblue" points="1229.74,-60.5001 1219.74,-64 1229.74,-67.5001 1229.74,-60.5001"/>
</g>
<!-- Node11 -->
<g id="node11" class="node"><title>Node11</title>
<g id="a_node11"><a xlink:href="../../d5/d30/class_view_1_1_tabs_of_grids.html#addda546d87ab37b3c6d812b33c0118c9" target="_top" xlink:title="View.TabsOfGrids.setUpKey\lBoardHandler">
<polygon fill="white" stroke="black" points="859.5,-0 859.5,-30 1004.5,-30 1004.5,-0 859.5,-0"/>
<text text-anchor="start" x="867.5" y="-18" font-family="Helvetica,sans-Serif" font-size="10.00">View.TabsOfGrids.setUpKey</text>
<text text-anchor="middle" x="932" y="-7" font-family="Helvetica,sans-Serif" font-size="10.00">BoardHandler</text>
</a>
</g>
</g>
<!-- Node10&#45;&gt;Node11 -->
<g id="edge10" class="edge"><title>Node10&#45;&gt;Node11</title>
<path fill="none" stroke="midnightblue" d="M822.299,-18.4327C834.648,-18.0427 847.313,-17.6428 859.434,-17.26"/>
<polygon fill="midnightblue" stroke="midnightblue" points="821.904,-14.9433 812.019,-18.7573 822.125,-21.9398 821.904,-14.9433"/>
</g>
<!-- Node12 -->
<g id="node12" class="node"><title>Node12</title>
<g id="a_node12"><a xlink:href="../../d5/d30/class_view_1_1_tabs_of_grids.html#aa186cd880ee36327ffc0d66951a23fb5" target="_top" xlink:title="View.TabsOfGrids.addTab">
<polygon fill="white" stroke="black" points="1069,-5.5 1069,-24.5 1203,-24.5 1203,-5.5 1069,-5.5"/>
<text text-anchor="middle" x="1136" y="-12.5" font-family="Helvetica,sans-Serif" font-size="10.00">View.TabsOfGrids.addTab</text>
</a>
</g>
</g>
<!-- Node11&#45;&gt;Node12 -->
<g id="edge11" class="edge"><title>Node11&#45;&gt;Node12</title>
<path fill="none" stroke="midnightblue" d="M1014.72,-15C1032.76,-15 1051.66,-15 1069,-15"/>
<polygon fill="midnightblue" stroke="midnightblue" points="1014.5,-11.5001 1004.5,-15 1014.5,-18.5001 1014.5,-11.5001"/>
</g>
<!-- Node13 -->
<g id="node13" class="node"><title>Node13</title>
<g id="a_node13"><a xlink:href="../../d6/d33/class_view_1_1_slogo_view.html#a5759fa529a24ab1e80d37348f3dd395b" target="_top" xlink:title="View.SlogoView.addGrid">
<polygon fill="white" stroke="black" points="1275.5,-5.5 1275.5,-24.5 1404.5,-24.5 1404.5,-5.5 1275.5,-5.5"/>
<text text-anchor="middle" x="1340" y="-12.5" font-family="Helvetica,sans-Serif" font-size="10.00">View.SlogoView.addGrid</text>
</a>
</g>
</g>
<!-- Node12&#45;&gt;Node13 -->
<g id="edge12" class="edge"><title>Node12&#45;&gt;Node13</title>
<path fill="none" stroke="midnightblue" d="M1213.38,-15C1233.85,-15 1255.76,-15 1275.46,-15"/>
<polygon fill="midnightblue" stroke="midnightblue" points="1213.14,-11.5001 1203.14,-15 1213.14,-18.5001 1213.14,-11.5001"/>
</g>
<!-- Node14 -->
<g id="node14" class="node"><title>Node14</title>
<g id="a_node14"><a xlink:href="../../d6/d33/class_view_1_1_slogo_view.html#acfeff052503655d2ac419d2bf4ea9bd5" target="_top" xlink:title="View.SlogoView.initialize">
<polygon fill="white" stroke="black" points="1460,-5.5 1460,-24.5 1590,-24.5 1590,-5.5 1460,-5.5"/>
<text text-anchor="middle" x="1525" y="-12.5" font-family="Helvetica,sans-Serif" font-size="10.00">View.SlogoView.initialize</text>
</a>
</g>
</g>
<!-- Node13&#45;&gt;Node14 -->
<g id="edge13" class="edge"><title>Node13&#45;&gt;Node14</title>
<path fill="none" stroke="midnightblue" d="M1414.93,-15C1429.81,-15 1445.34,-15 1459.86,-15"/>
<polygon fill="midnightblue" stroke="midnightblue" points="1414.75,-11.5001 1404.75,-15 1414.75,-18.5001 1414.75,-11.5001"/>
</g>
<!-- Node15 -->
<g id="node15" class="node"><title>Node15</title>
<g id="a_node15"><a xlink:href="../../db/d27/class_view_1_1_slogo.html#a6ab76a53160b61d8501aec91c55b85c8" target="_top" xlink:title="View.Slogo.start">
<polygon fill="white" stroke="black" points="1626.5,-5.5 1626.5,-24.5 1719.5,-24.5 1719.5,-5.5 1626.5,-5.5"/>
<text text-anchor="middle" x="1673" y="-12.5" font-family="Helvetica,sans-Serif" font-size="10.00">View.Slogo.start</text>
</a>
</g>
</g>
<!-- Node14&#45;&gt;Node15 -->
<g id="edge14" class="edge"><title>Node14&#45;&gt;Node15</title>
<path fill="none" stroke="midnightblue" d="M1600.14,-15C1609.11,-15 1618.05,-15 1626.43,-15"/>
<polygon fill="midnightblue" stroke="midnightblue" points="1600.04,-11.5001 1590.04,-15 1600.04,-18.5001 1600.04,-11.5001"/>
</g>
</g>
</svg>
