<?xml version="1.0" encoding="UTF-8" standalone="no"?>
<!DOCTYPE svg PUBLIC "-//W3C//DTD SVG 1.1//EN"
 "http://www.w3.org/Graphics/SVG/1.1/DTD/svg11.dtd">
<!-- Generated by graphviz version 2.36.0 (20140111.2315)
 -->
<!-- Title: TableInformation.EditingTurtleDoubleCell Pages: 1 -->
<svg width="206pt" height="190pt"
 viewBox="0.00 0.00 206.00 190.00" xmlns="http://www.w3.org/2000/svg" xmlns:xlink="http://www.w3.org/1999/xlink">
<g id="graph0" class="graph" transform="scale(1 1) rotate(0) translate(4 186)">
<title>TableInformation.EditingTurtleDoubleCell</title>
<polygon fill="white" stroke="none" points="-4,4 -4,-186 202,-186 202,4 -4,4"/>
<!-- Node1 -->
<g id="node1" class="node"><title>Node1</title>
<polygon fill="#bfbfbf" stroke="black" points="45.5,-1 45.5,-31 176.5,-31 176.5,-1 45.5,-1"/>
<text text-anchor="start" x="53.5" y="-19" font-family="Helvetica,sans-Serif" font-size="10.00">TableInformation.Editing</text>
<text text-anchor="middle" x="111" y="-8" font-family="Helvetica,sans-Serif" font-size="10.00">TurtleDoubleCell</text>
</g>
<!-- Node2 -->
<g id="node2" class="node"><title>Node2</title>
<g id="a_node2"><a xlink:href="../../d2/d41/class_g_u_i_functions_1_1_editing_cell.html" target="_top" xlink:title="GUIFunctions.EditingCell\l\&lt; T, G \&gt;">
<polygon fill="white" stroke="black" points="45.5,-71 45.5,-101 176.5,-101 176.5,-71 45.5,-71"/>
<text text-anchor="start" x="53.5" y="-89" font-family="Helvetica,sans-Serif" font-size="10.00">GUIFunctions.EditingCell</text>
<text text-anchor="middle" x="111" y="-78" font-family="Helvetica,sans-Serif" font-size="10.00">&lt; T, G &gt;</text>
</a>
</g>
</g>
<!-- Node2&#45;&gt;Node1 -->
<g id="edge1" class="edge"><title>Node2&#45;&gt;Node1</title>
<path fill="none" stroke="midnightblue" d="M111,-60.7688C111,-50.8141 111,-39.6384 111,-31.0716"/>
<polygon fill="midnightblue" stroke="midnightblue" points="107.5,-60.9103 111,-70.9104 114.5,-60.9104 107.5,-60.9103"/>
</g>
<!-- Node3 -->
<g id="node3" class="node"><title>Node3</title>
<polygon fill="white" stroke="#bfbfbf" points="0,-151 0,-181 118,-181 118,-151 0,-151"/>
<text text-anchor="start" x="8" y="-169" font-family="Helvetica,sans-Serif" font-size="10.00">javafx::scene::control</text>
<text text-anchor="middle" x="59" y="-158" font-family="Helvetica,sans-Serif" font-size="10.00">::TableCell&lt; T, G &gt;</text>
</g>
<!-- Node3&#45;&gt;Node2 -->
<g id="edge2" class="edge"><title>Node3&#45;&gt;Node2</title>
<path fill="none" stroke="midnightblue" d="M74.2635,-142.105C83.089,-128.867 93.9166,-112.625 101.523,-101.216"/>
<polygon fill="midnightblue" stroke="midnightblue" points="71.1725,-140.432 68.5376,-150.694 76.9968,-144.315 71.1725,-140.432"/>
</g>
<!-- Node4 -->
<g id="node4" class="node"><title>Node4</title>
<polygon fill="white" stroke="#bfbfbf" points="136,-156.5 136,-175.5 192,-175.5 192,-156.5 136,-156.5"/>
<text text-anchor="middle" x="164" y="-163.5" font-family="Helvetica,sans-Serif" font-size="10.00">TextField</text>
</g>
<!-- Node4&#45;&gt;Node2 -->
<g id="edge3" class="edge"><title>Node4&#45;&gt;Node2</title>
<path fill="none" stroke="#9a32cd" stroke-dasharray="5,2" d="M152.243,-147.698C142.75,-133.726 129.554,-114.305 120.667,-101.227"/>
<polygon fill="#9a32cd" stroke="#9a32cd" points="149.61,-150.05 158.126,-156.355 155.4,-146.116 149.61,-150.05"/>
<text text-anchor="middle" x="169" y="-123.5" font-family="Helvetica,sans-Serif" font-size="10.00"> myTextField</text>
</g>
</g>
</svg>
