<?xml version="1.0" encoding="UTF-8" standalone="no"?>
<!DOCTYPE svg PUBLIC "-//W3C//DTD SVG 1.1//EN"
 "http://www.w3.org/Graphics/SVG/1.1/DTD/svg11.dtd">
<!-- Generated by graphviz version 2.36.0 (20140111.2315)
 -->
<!-- Title: GUIFunctions.UserInput.getName Pages: 1 -->
<svg width="578pt" height="77pt"
 viewBox="0.00 0.00 578.00 77.00" xmlns="http://www.w3.org/2000/svg" xmlns:xlink="http://www.w3.org/1999/xlink">
<g id="graph0" class="graph" transform="scale(1 1) rotate(0) translate(4 73)">
<title>GUIFunctions.UserInput.getName</title>
<polygon fill="white" stroke="none" points="-4,4 -4,-73 574,-73 574,4 -4,4"/>
<!-- Node1 -->
<g id="node1" class="node"><title>Node1</title>
<polygon fill="#bfbfbf" stroke="black" points="0,-22.5 0,-41.5 176,-41.5 176,-22.5 0,-22.5"/>
<text text-anchor="middle" x="88" y="-29.5" font-family="Helvetica,sans-Serif" font-size="10.00">GUIFunctions.UserInput.getName</text>
</g>
<!-- Node2 -->
<g id="node2" class="node"><title>Node2</title>
<g id="a_node2"><a xlink:href="../../de/dcf/class_g_u_i_functions_1_1_variable.html#ae5d72da81e1d54dbda026b48a2a6bf7e" target="_top" xlink:title="GUIFunctions.Variable.compare\lNameAndValue">
<polygon fill="white" stroke="black" points="212,-39 212,-69 378,-69 378,-39 212,-39"/>
<text text-anchor="start" x="220" y="-57" font-family="Helvetica,sans-Serif" font-size="10.00">GUIFunctions.Variable.compare</text>
<text text-anchor="middle" x="295" y="-46" font-family="Helvetica,sans-Serif" font-size="10.00">NameAndValue</text>
</a>
</g>
</g>
<!-- Node1&#45;&gt;Node2 -->
<g id="edge1" class="edge"><title>Node1&#45;&gt;Node2</title>
<path fill="none" stroke="midnightblue" d="M186.217,-42.4331C194.751,-43.3489 203.334,-44.27 211.728,-45.1709"/>
<polygon fill="midnightblue" stroke="midnightblue" points="186.552,-38.949 176.236,-41.3619 185.805,-45.909 186.552,-38.949"/>
</g>
<!-- Node4 -->
<g id="node4" class="node"><title>Node4</title>
<g id="a_node4"><a xlink:href="../../d8/d97/class_g_u_i_functions_1_1_function.html#aab2fbfdb392207e5a0d3d97ce9dcaccf" target="_top" xlink:title="GUIFunctions.Function.equals">
<polygon fill="white" stroke="black" points="217,-0.5 217,-19.5 373,-19.5 373,-0.5 217,-0.5"/>
<text text-anchor="middle" x="295" y="-7.5" font-family="Helvetica,sans-Serif" font-size="10.00">GUIFunctions.Function.equals</text>
</a>
</g>
</g>
<!-- Node1&#45;&gt;Node4 -->
<g id="edge3" class="edge"><title>Node1&#45;&gt;Node4</title>
<path fill="none" stroke="midnightblue" d="M186.423,-21.5448C196.648,-20.4475 206.941,-19.3429 216.893,-18.2749"/>
<polygon fill="midnightblue" stroke="midnightblue" points="185.805,-18.091 176.236,-22.6381 186.552,-25.051 185.805,-18.091"/>
</g>
<!-- Node3 -->
<g id="node3" class="node"><title>Node3</title>
<g id="a_node3"><a xlink:href="../../de/dcf/class_g_u_i_functions_1_1_variable.html#a74f809be87c4bd442c75f9d3c64d385a" target="_top" xlink:title="GUIFunctions.Variable.equals">
<polygon fill="white" stroke="black" points="414.5,-44.5 414.5,-63.5 569.5,-63.5 569.5,-44.5 414.5,-44.5"/>
<text text-anchor="middle" x="492" y="-51.5" font-family="Helvetica,sans-Serif" font-size="10.00">GUIFunctions.Variable.equals</text>
</a>
</g>
</g>
<!-- Node2&#45;&gt;Node3 -->
<g id="edge2" class="edge"><title>Node2&#45;&gt;Node3</title>
<path fill="none" stroke="midnightblue" d="M388.291,-54C396.98,-54 405.724,-54 414.247,-54"/>
<polygon fill="midnightblue" stroke="midnightblue" points="388.132,-50.5001 378.132,-54 388.132,-57.5001 388.132,-50.5001"/>
</g>
</g>
</svg>
