<?xml version="1.0" encoding="UTF-8" standalone="no"?>
<!DOCTYPE svg PUBLIC "-//W3C//DTD SVG 1.1//EN"
 "http://www.w3.org/Graphics/SVG/1.1/DTD/svg11.dtd">
<!-- Generated by graphviz version 2.36.0 (20140111.2315)
 -->
<!-- Title: commands.turtleCommands.MultipleTurtleCommand.storeFutureActiveIDs Pages: 1 -->
<svg width="400pt" height="48pt"
 viewBox="0.00 0.00 400.00 48.00" xmlns="http://www.w3.org/2000/svg" xmlns:xlink="http://www.w3.org/1999/xlink">
<g id="graph0" class="graph" transform="scale(1 1) rotate(0) translate(4 44)">
<title>commands.turtleCommands.MultipleTurtleCommand.storeFutureActiveIDs</title>
<polygon fill="white" stroke="none" points="-4,4 -4,-44 396,-44 396,4 -4,4"/>
<!-- Node1 -->
<g id="node1" class="node"><title>Node1</title>
<polygon fill="#bfbfbf" stroke="black" points="0.5,0.5 0.5,-40.5 187.5,-40.5 187.5,0.5 0.5,0.5"/>
<text text-anchor="start" x="8.5" y="-28.5" font-family="Helvetica,sans-Serif" font-size="10.00">commands.turtleCommands.</text>
<text text-anchor="start" x="8.5" y="-17.5" font-family="Helvetica,sans-Serif" font-size="10.00">MultipleTurtleCommand.storeFuture</text>
<text text-anchor="middle" x="94" y="-6.5" font-family="Helvetica,sans-Serif" font-size="10.00">ActiveIDs</text>
</g>
<!-- Node2 -->
<g id="node2" class="node"><title>Node2</title>
<g id="a_node2"><a xlink:href="../../d6/de1/classcommands_1_1turtle_commands_1_1_ask_command.html#a2444c2d94060a5150ea6023855af37c3" target="_top" xlink:title="commands.turtleCommands.\lAskCommand.parseArguments">
<polygon fill="white" stroke="black" points="224.5,-5 224.5,-35 391.5,-35 391.5,-5 224.5,-5"/>
<text text-anchor="start" x="232.5" y="-23" font-family="Helvetica,sans-Serif" font-size="10.00">commands.turtleCommands.</text>
<text text-anchor="middle" x="308" y="-12" font-family="Helvetica,sans-Serif" font-size="10.00">AskCommand.parseArguments</text>
</a>
</g>
</g>
<!-- Node1&#45;&gt;Node2 -->
<g id="edge1" class="edge"><title>Node1&#45;&gt;Node2</title>
<path fill="none" stroke="midnightblue" d="M197.68,-20C206.563,-20 215.476,-20 224.171,-20"/>
<polygon fill="midnightblue" stroke="midnightblue" points="197.678,-16.5001 187.678,-20 197.678,-23.5001 197.678,-16.5001"/>
</g>
</g>
</svg>
