<?xml version="1.0" encoding="UTF-8" standalone="no"?>
<!DOCTYPE svg PUBLIC "-//W3C//DTD SVG 1.1//EN"
 "http://www.w3.org/Graphics/SVG/1.1/DTD/svg11.dtd">
<!-- Generated by graphviz version 2.36.0 (20140111.2315)
 -->
<!-- Title: commands.turtleCommands.MultipleTurtleCommand.addFutureActiveTurtleTurtles Pages: 1 -->
<svg width="414pt" height="430pt"
 viewBox="0.00 0.00 414.00 430.00" xmlns="http://www.w3.org/2000/svg" xmlns:xlink="http://www.w3.org/1999/xlink">
<g id="graph0" class="graph" transform="scale(1 1) rotate(0) translate(4 426)">
<title>commands.turtleCommands.MultipleTurtleCommand.addFutureActiveTurtleTurtles</title>
<polygon fill="white" stroke="none" points="-4,4 -4,-426 410,-426 410,4 -4,4"/>
<!-- Node1 -->
<g id="node1" class="node"><title>Node1</title>
<polygon fill="#bfbfbf" stroke="black" points="0,-200.5 0,-241.5 180,-241.5 180,-200.5 0,-200.5"/>
<text text-anchor="start" x="8" y="-229.5" font-family="Helvetica,sans-Serif" font-size="10.00">commands.turtleCommands.</text>
<text text-anchor="start" x="8" y="-218.5" font-family="Helvetica,sans-Serif" font-size="10.00">MultipleTurtleCommand.addFuture</text>
<text text-anchor="middle" x="90" y="-207.5" font-family="Helvetica,sans-Serif" font-size="10.00">ActiveTurtleTurtles</text>
</g>
<!-- Node2 -->
<g id="node2" class="node"><title>Node2</title>
<g id="a_node2"><a xlink:href="../../d0/d92/class_view_1_1_grid.html#a84df700600bd4a0771b54514338d046b" target="_top" xlink:title="View.Grid.addTurtle">
<polygon fill="white" stroke="black" points="257.5,-402.5 257.5,-421.5 364.5,-421.5 364.5,-402.5 257.5,-402.5"/>
<text text-anchor="middle" x="311" y="-409.5" font-family="Helvetica,sans-Serif" font-size="10.00">View.Grid.addTurtle</text>
</a>
</g>
</g>
<!-- Node1&#45;&gt;Node2 -->
<g id="edge1" class="edge"><title>Node1&#45;&gt;Node2</title>
<path fill="none" stroke="midnightblue" d="M99.9464,-241.665C116.904,-278.225 157.351,-354.026 216,-392 225.329,-398.04 236.167,-402.291 247.097,-405.275"/>
<polygon fill="midnightblue" stroke="midnightblue" points="246.581,-408.75 257.121,-407.674 248.21,-401.943 246.581,-408.75"/>
</g>
<!-- Node3 -->
<g id="node3" class="node"><title>Node3</title>
<g id="a_node3"><a xlink:href="../../d7/d28/classcommands_1_1information_1_1_base_turtle_container.html#ac2cb88e2ac1647e0035de6e5b1e89c0e" target="_top" xlink:title="commands.information.Base\lTurtleContainer.addTurtle">
<polygon fill="white" stroke="black" points="233.5,-353 233.5,-383 388.5,-383 388.5,-353 233.5,-353"/>
<text text-anchor="start" x="241.5" y="-371" font-family="Helvetica,sans-Serif" font-size="10.00">commands.information.Base</text>
<text text-anchor="middle" x="311" y="-360" font-family="Helvetica,sans-Serif" font-size="10.00">TurtleContainer.addTurtle</text>
</a>
</g>
</g>
<!-- Node1&#45;&gt;Node3 -->
<g id="edge2" class="edge"><title>Node1&#45;&gt;Node3</title>
<path fill="none" stroke="midnightblue" d="M106.396,-241.573C127.914,-268.86 169.594,-316.639 216,-343 219.905,-345.218 224.013,-347.245 228.239,-349.097"/>
<polygon fill="midnightblue" stroke="midnightblue" points="227.065,-352.397 237.649,-352.877 229.675,-345.902 227.065,-352.397"/>
</g>
<!-- Node4 -->
<g id="node4" class="node"><title>Node4</title>
<g id="a_node4"><a xlink:href="../../d9/d20/classcommands_1_1turtle_commands_1_1_multiple_turtle_command.html#a2ccd52e79c4d5797fccac02b2f5f7929" target="_top" xlink:title="commands.turtleCommands.\lMultipleTurtleCommand.findMax">
<polygon fill="white" stroke="black" points="226.5,-304 226.5,-334 395.5,-334 395.5,-304 226.5,-304"/>
<text text-anchor="start" x="234.5" y="-322" font-family="Helvetica,sans-Serif" font-size="10.00">commands.turtleCommands.</text>
<text text-anchor="middle" x="311" y="-311" font-family="Helvetica,sans-Serif" font-size="10.00">MultipleTurtleCommand.findMax</text>
</a>
</g>
</g>
<!-- Node1&#45;&gt;Node4 -->
<g id="edge3" class="edge"><title>Node1&#45;&gt;Node4</title>
<path fill="none" stroke="midnightblue" d="M120.885,-241.551C145.493,-257.696 181.775,-279.761 216,-294 221.883,-296.448 228.074,-298.717 234.355,-300.807"/>
<polygon fill="midnightblue" stroke="midnightblue" points="233.676,-304.264 244.266,-303.944 235.789,-297.59 233.676,-304.264"/>
</g>
<!-- Node5 -->
<g id="node5" class="node"><title>Node5</title>
<g id="a_node5"><a xlink:href="../../d4/d37/classcommands_1_1information_1_1_base_grid_container.html#a38f8c792934b18ab3c595133d0cb3d96" target="_top" xlink:title="commands.information.Base\lGridContainer.getActiveGrids">
<polygon fill="white" stroke="black" points="233.5,-255 233.5,-285 388.5,-285 388.5,-255 233.5,-255"/>
<text text-anchor="start" x="241.5" y="-273" font-family="Helvetica,sans-Serif" font-size="10.00">commands.information.Base</text>
<text text-anchor="middle" x="311" y="-262" font-family="Helvetica,sans-Serif" font-size="10.00">GridContainer.getActiveGrids</text>
</a>
</g>
</g>
<!-- Node1&#45;&gt;Node5 -->
<g id="edge4" class="edge"><title>Node1&#45;&gt;Node5</title>
<path fill="none" stroke="midnightblue" d="M180.076,-240.93C197.597,-244.851 215.842,-248.933 232.929,-252.756"/>
<polygon fill="midnightblue" stroke="midnightblue" points="232.319,-256.206 242.842,-254.974 233.847,-249.375 232.319,-256.206"/>
</g>
<!-- Node6 -->
<g id="node6" class="node"><title>Node6</title>
<g id="a_node6"><a xlink:href="../../d7/d28/classcommands_1_1information_1_1_base_turtle_container.html#a99170f95221aba731f3b00e96d02a1fe" target="_top" xlink:title="commands.information.Base\lTurtleContainer.getAllTurtlesByID">
<polygon fill="white" stroke="black" points="226,-206 226,-236 396,-236 396,-206 226,-206"/>
<text text-anchor="start" x="234" y="-224" font-family="Helvetica,sans-Serif" font-size="10.00">commands.information.Base</text>
<text text-anchor="middle" x="311" y="-213" font-family="Helvetica,sans-Serif" font-size="10.00">TurtleContainer.getAllTurtlesByID</text>
</a>
</g>
</g>
<!-- Node1&#45;&gt;Node6 -->
<g id="edge5" class="edge"><title>Node1&#45;&gt;Node6</title>
<path fill="none" stroke="midnightblue" d="M180.076,-221C191.799,-221 203.847,-221 215.655,-221"/>
<polygon fill="midnightblue" stroke="midnightblue" points="215.955,-224.5 225.955,-221 215.955,-217.5 215.955,-224.5"/>
</g>
<!-- Node7 -->
<g id="node7" class="node"><title>Node7</title>
<g id="a_node7"><a xlink:href="../../d9/d20/classcommands_1_1turtle_commands_1_1_multiple_turtle_command.html#af44d0905f57105902d62da74a57eac24" target="_top" xlink:title="commands.turtleCommands.\lMultipleTurtleCommand.getFuture\lActiveTurtleIDs">
<polygon fill="white" stroke="black" points="222,-146.5 222,-187.5 400,-187.5 400,-146.5 222,-146.5"/>
<text text-anchor="start" x="230" y="-175.5" font-family="Helvetica,sans-Serif" font-size="10.00">commands.turtleCommands.</text>
<text text-anchor="start" x="230" y="-164.5" font-family="Helvetica,sans-Serif" font-size="10.00">MultipleTurtleCommand.getFuture</text>
<text text-anchor="middle" x="311" y="-153.5" font-family="Helvetica,sans-Serif" font-size="10.00">ActiveTurtleIDs</text>
</a>
</g>
</g>
<!-- Node1&#45;&gt;Node7 -->
<g id="edge6" class="edge"><title>Node1&#45;&gt;Node7</title>
<path fill="none" stroke="midnightblue" d="M174.419,-200.431C188.365,-196.992 202.911,-193.405 217.078,-189.912"/>
<polygon fill="midnightblue" stroke="midnightblue" points="217.941,-193.304 226.813,-187.512 216.266,-186.508 217.941,-193.304"/>
</g>
<!-- Node8 -->
<g id="node8" class="node"><title>Node8</title>
<g id="a_node8"><a xlink:href="../../d3/d03/classcommands_1_1turtle_commands_1_1_turtle_command.html#ae8d98992e825d4b47ef321fe8c6c63dd" target="_top" xlink:title="commands.turtleCommands.\lTurtleCommand.getGridContainer">
<polygon fill="white" stroke="black" points="222.5,-98 222.5,-128 399.5,-128 399.5,-98 222.5,-98"/>
<text text-anchor="start" x="230.5" y="-116" font-family="Helvetica,sans-Serif" font-size="10.00">commands.turtleCommands.</text>
<text text-anchor="middle" x="311" y="-105" font-family="Helvetica,sans-Serif" font-size="10.00">TurtleCommand.getGridContainer</text>
</a>
</g>
</g>
<!-- Node1&#45;&gt;Node8 -->
<g id="edge7" class="edge"><title>Node1&#45;&gt;Node8</title>
<path fill="none" stroke="midnightblue" d="M116.277,-200.189C140.497,-181.21 178.771,-153.663 216,-137 220.59,-134.945 225.389,-133.044 230.284,-131.287"/>
<polygon fill="midnightblue" stroke="midnightblue" points="231.429,-134.595 239.789,-128.086 229.195,-127.961 231.429,-134.595"/>
</g>
<!-- Node9 -->
<g id="node9" class="node"><title>Node9</title>
<g id="a_node9"><a xlink:href="../../d3/d03/classcommands_1_1turtle_commands_1_1_turtle_command.html#a82f290b3a2e14029a8a525bafa35994f" target="_top" xlink:title="commands.turtleCommands.\lTurtleCommand.getTurtleContainer">
<polygon fill="white" stroke="black" points="219.5,-49 219.5,-79 402.5,-79 402.5,-49 219.5,-49"/>
<text text-anchor="start" x="227.5" y="-67" font-family="Helvetica,sans-Serif" font-size="10.00">commands.turtleCommands.</text>
<text text-anchor="middle" x="311" y="-56" font-family="Helvetica,sans-Serif" font-size="10.00">TurtleCommand.getTurtleContainer</text>
</a>
</g>
</g>
<!-- Node1&#45;&gt;Node9 -->
<g id="edge8" class="edge"><title>Node1&#45;&gt;Node9</title>
<path fill="none" stroke="midnightblue" d="M104.943,-200.192C125.672,-170.9 167.436,-117.866 216,-89 219.674,-86.816 223.541,-84.8195 227.526,-82.9947"/>
<polygon fill="midnightblue" stroke="midnightblue" points="229.123,-86.121 237.005,-79.0412 226.428,-79.6604 229.123,-86.121"/>
</g>
<!-- Node10 -->
<g id="node10" class="node"><title>Node10</title>
<g id="a_node10"><a xlink:href="../../d7/d28/classcommands_1_1information_1_1_base_turtle_container.html#a9fb79a4f75b92d4fbc1c1a0d26483c73" target="_top" xlink:title="commands.information.Base\lTurtleContainer.hardSetActiveTurtles">
<polygon fill="white" stroke="black" points="216.5,-0 216.5,-30 405.5,-30 405.5,-0 216.5,-0"/>
<text text-anchor="start" x="224.5" y="-18" font-family="Helvetica,sans-Serif" font-size="10.00">commands.information.Base</text>
<text text-anchor="middle" x="311" y="-7" font-family="Helvetica,sans-Serif" font-size="10.00">TurtleContainer.hardSetActiveTurtles</text>
</a>
</g>
</g>
<!-- Node1&#45;&gt;Node10 -->
<g id="edge9" class="edge"><title>Node1&#45;&gt;Node10</title>
<path fill="none" stroke="midnightblue" d="M99.4165,-200.335C115.915,-162.49 156.191,-82.0847 216,-40 218.848,-37.9957 221.848,-36.1521 224.956,-34.4563"/>
<polygon fill="midnightblue" stroke="midnightblue" points="226.515,-37.5901 233.966,-30.0579 223.444,-31.2997 226.515,-37.5901"/>
</g>
</g>
</svg>
