<?xml version="1.0" encoding="UTF-8" standalone="no"?>
<!DOCTYPE svg PUBLIC "-//W3C//DTD SVG 1.1//EN"
 "http://www.w3.org/Graphics/SVG/1.1/DTD/svg11.dtd">
<!-- Generated by graphviz version 2.36.0 (20140111.2315)
 -->
<!-- Title: GUIFunctions.SetPenUp.doAction Pages: 1 -->
<svg width="526pt" height="93pt"
 viewBox="0.00 0.00 526.00 93.00" xmlns="http://www.w3.org/2000/svg" xmlns:xlink="http://www.w3.org/1999/xlink">
<g id="graph0" class="graph" transform="scale(1 1) rotate(0) translate(4 89)">
<title>GUIFunctions.SetPenUp.doAction</title>
<polygon fill="white" stroke="none" points="-4,4 -4,-89 522,-89 522,4 -4,4"/>
<!-- Node1 -->
<g id="node1" class="node"><title>Node1</title>
<polygon fill="#bfbfbf" stroke="black" points="0.5,-41 0.5,-71 145.5,-71 145.5,-41 0.5,-41"/>
<text text-anchor="start" x="8.5" y="-59" font-family="Helvetica,sans-Serif" font-size="10.00">GUIFunctions.SetPenUp.do</text>
<text text-anchor="middle" x="73" y="-48" font-family="Helvetica,sans-Serif" font-size="10.00">Action</text>
</g>
<!-- Node2 -->
<g id="node2" class="node"><title>Node2</title>
<g id="a_node2"><a xlink:href="../../d7/d98/class_view_1_1_grid_tracker.html#af7c2413584c58030e606ae6692ea564f" target="_top" xlink:title="View.GridTracker.getActiveGrid">
<polygon fill="white" stroke="black" points="182.5,-65.5 182.5,-84.5 343.5,-84.5 343.5,-65.5 182.5,-65.5"/>
<text text-anchor="middle" x="263" y="-72.5" font-family="Helvetica,sans-Serif" font-size="10.00">View.GridTracker.getActiveGrid</text>
</a>
</g>
</g>
<!-- Node1&#45;&gt;Node2 -->
<g id="edge1" class="edge"><title>Node1&#45;&gt;Node2</title>
<path fill="none" stroke="midnightblue" d="M145.611,-63.2373C154.357,-64.1212 163.377,-65.0328 172.344,-65.939"/>
<polygon fill="midnightblue" stroke="midnightblue" points="172.127,-69.4349 182.429,-66.9582 172.831,-62.4703 172.127,-69.4349"/>
</g>
<!-- Node3 -->
<g id="node3" class="node"><title>Node3</title>
<g id="a_node3"><a xlink:href="../../d9/db1/class_view_1_1_single_grid.html#a10f914014fc090d2d57192c8678242fd" target="_top" xlink:title="View.SingleGrid.getActivePens">
<polygon fill="white" stroke="black" points="182.5,-27.5 182.5,-46.5 343.5,-46.5 343.5,-27.5 182.5,-27.5"/>
<text text-anchor="middle" x="263" y="-34.5" font-family="Helvetica,sans-Serif" font-size="10.00">View.SingleGrid.getActivePens</text>
</a>
</g>
</g>
<!-- Node1&#45;&gt;Node3 -->
<g id="edge2" class="edge"><title>Node1&#45;&gt;Node3</title>
<path fill="none" stroke="midnightblue" d="M145.611,-48.7627C154.357,-47.8788 163.377,-46.9672 172.344,-46.061"/>
<polygon fill="midnightblue" stroke="midnightblue" points="172.831,-49.5297 182.429,-45.0418 172.127,-42.5651 172.831,-49.5297"/>
</g>
<!-- Node4 -->
<g id="node4" class="node"><title>Node4</title>
<g id="a_node4"><a xlink:href="../../d9/db1/class_view_1_1_single_grid.html#a9bc0c792d3ba336bddf804936337af7c" target="_top" xlink:title="View.SingleGrid.getPens">
<polygon fill="white" stroke="black" points="383.5,-49.5 383.5,-68.5 514.5,-68.5 514.5,-49.5 383.5,-49.5"/>
<text text-anchor="middle" x="449" y="-56.5" font-family="Helvetica,sans-Serif" font-size="10.00">View.SingleGrid.getPens</text>
</a>
</g>
</g>
<!-- Node3&#45;&gt;Node4 -->
<g id="edge3" class="edge"><title>Node3&#45;&gt;Node4</title>
<path fill="none" stroke="midnightblue" d="M343.635,-46.5216C353.511,-47.7024 363.58,-48.9063 373.376,-50.0776"/>
<polygon fill="midnightblue" stroke="midnightblue" points="373.122,-53.5721 383.467,-51.2841 373.953,-46.6216 373.122,-53.5721"/>
</g>
<!-- Node5 -->
<g id="node5" class="node"><title>Node5</title>
<g id="a_node5"><a xlink:href="../../d9/db1/class_view_1_1_single_grid.html#a63dce7bacaea4b387aeef30975ad678b" target="_top" xlink:title="View.SingleGrid.getActive\lTurtles">
<polygon fill="white" stroke="black" points="380.5,-0 380.5,-30 517.5,-30 517.5,-0 380.5,-0"/>
<text text-anchor="start" x="388.5" y="-18" font-family="Helvetica,sans-Serif" font-size="10.00">View.SingleGrid.getActive</text>
<text text-anchor="middle" x="449" y="-7" font-family="Helvetica,sans-Serif" font-size="10.00">Turtles</text>
</a>
</g>
</g>
<!-- Node3&#45;&gt;Node5 -->
<g id="edge4" class="edge"><title>Node3&#45;&gt;Node5</title>
<path fill="none" stroke="midnightblue" d="M343.635,-27.4784C352.431,-26.4267 361.38,-25.3567 370.154,-24.3077"/>
<polygon fill="midnightblue" stroke="midnightblue" points="370.839,-27.7508 380.353,-23.0883 370.008,-20.8003 370.839,-27.7508"/>
</g>
</g>
</svg>
